  0
SECTION
  2
HEADER
  9
$ACADVER
  1
AC1009
  9
$INSBASE
 10
0.0
 20
0.0
 30
0.0
  9
$EXTMIN
 10
0.0
 20
0.0
 30
0.0
  9
$EXTMAX
 10
44.0
 20
34.0
 30
0.0
  9
$LIMMIN
 10
0.0
 20
0.0
  9
$LIMMAX
 10
12.0
 20
9.0
  9
$ORTHOMODE
 70
     0
  9
$REGENMODE
 70
     1
  9
$FILLMODE
 70
     1
  9
$QTEXTMODE
 70
     0
  9
$MIRRTEXT
 70
     1
  9
$DRAGMODE
 70
     2
  9
$LTSCALE
 40
1.0
  9
$OSMODE
 70
    39
  9
$ATTMODE
 70
     1
  9
$TEXTSIZE
 40
0.375
  9
$TRACEWID
 40
0.05
  9
$TEXTSTYLE
  7
STANDARD
  9
$CLAYER
  8
0
  9
$CELTYPE
  6
BYLAYER
  9
$CECOLOR
 62
   256
  9
$DIMSCALE
 40
1.0
  9
$DIMASZ
 40
0.375
  9
$DIMEXO
 40
0.09
  9
$DIMDLI
 40
0.38
  9
$DIMRND
 40
0.0
  9
$DIMDLE
 40
0.0
  9
$DIMEXE
 40
0.09
  9
$DIMTP
 40
0.0
  9
$DIMTM
 40
0.0
  9
$DIMTXT
 40
0.375
  9
$DIMCEN
 40
0.0
  9
$DIMTSZ
 40
0.0
  9
$DIMTOL
 70
     0
  9
$DIMLIM
 70
     0
  9
$DIMTIH
 70
     1
  9
$DIMTOH
 70
     1
  9
$DIMSE1
 70
     0
  9
$DIMSE2
 70
     0
  9
$DIMTAD
 70
     0
  9
$DIMZIN
 70
     0
  9
$DIMBLK
  1

  9
$DIMASO
 70
     1
  9
$DIMSHO
 70
     1
  9
$DIMPOST
  1

  9
$DIMAPOST
  1

  9
$DIMALT
 70
     0
  9
$DIMALTD
 70
     2
  9
$DIMALTF
 40
25.399999999999999
  9
$DIMLFAC
 40
1.0
  9
$DIMTOFL
 70
     0
  9
$DIMTVP
 40
0.0
  9
$DIMTIX
 70
     0
  9
$DIMSOXD
 70
     0
  9
$DIMSAH
 70
     0
  9
$DIMBLK1
  1

  9
$DIMBLK2
  1

  9
$DIMSTYLE
  2
STANDARD
  9
$DIMCLRD
 70
     0
  9
$DIMCLRE
 70
     0
  9
$DIMCLRT
 70
     0
  9
$DIMTFAC
 40
1.0
  9
$DIMGAP
 40
0.125
  9
$LUNITS
 70
     2
  9
$LUPREC
 70
     4
  9
$SKETCHINC
 40
0.1
  9
$FILLETRAD
 40
0.5
  9
$AUNITS
 70
     0
  9
$AUPREC
 70
     0
  9
$MENU
  1
.
  9
$ELEVATION
 40
0.0
  9
$PELEVATION
 40
0.0
  9
$THICKNESS
 40
0.0
  9
$LIMCHECK
 70
     0
  9
$BLIPMODE
 70
     0
  9
$CHAMFERA
 40
0.0
  9
$CHAMFERB
 40
0.0
  9
$SKPOLY
 70
     0
  9
$TDCREATE
 40
2452976.5734259258
  9
$TDUPDATE
 40
2453462.677026262
  9
$TDINDWG
 40
0.0937667708
  9
$TDUSRTIMER
 40
0.0937667708
  9
$USRTIMER
 70
     1
  9
$ANGBASE
 50
0.0
  9
$ANGDIR
 70
     0
  9
$PDMODE
 70
     0
  9
$PDSIZE
 40
0.0
  9
$PLINEWID
 40
0.0
  9
$COORDS
 70
     0
  9
$SPLFRAME
 70
     0
  9
$SPLINETYPE
 70
     6
  9
$SPLINESEGS
 70
     8
  9
$ATTDIA
 70
     0
  9
$ATTREQ
 70
     1
  9
$HANDLING
 70
     1
  9
$HANDSEED
  5
B37
  9
$SURFTAB1
 70
     6
  9
$SURFTAB2
 70
     6
  9
$SURFTYPE
 70
     6
  9
$SURFU
 70
     6
  9
$SURFV
 70
     6
  9
$UCSNAME
  2

  9
$UCSORG
 10
0.0
 20
0.0
 30
0.0
  9
$UCSXDIR
 10
1.0
 20
0.0
 30
0.0
  9
$UCSYDIR
 10
0.0
 20
1.0
 30
0.0
  9
$PUCSNAME
  2

  9
$PUCSORG
 10
0.0
 20
0.0
 30
0.0
  9
$PUCSXDIR
 10
1.0
 20
0.0
 30
0.0
  9
$PUCSYDIR
 10
0.0
 20
1.0
 30
0.0
  9
$USERI1
 70
     0
  9
$USERI2
 70
     0
  9
$USERI3
 70
     0
  9
$USERI4
 70
     0
  9
$USERI5
 70
     0
  9
$USERR1
 40
0.0
  9
$USERR2
 40
0.0
  9
$USERR3
 40
0.0
  9
$USERR4
 40
0.0
  9
$USERR5
 40
0.0
  9
$WORLDVIEW
 70
     1
  9
$SHADEDGE
 70
     3
  9
$SHADEDIF
 70
    70
  9
$TILEMODE
 70
     1
  9
$MAXACTVP
 70
    64
  9
$PLIMCHECK
 70
     0
  9
$PEXTMIN
 10
1.0000000000000000E+020
 20
1.0000000000000000E+020
 30
1.0000000000000000E+020
  9
$PEXTMAX
 10
-1.0000000000000000E+020
 20
-1.0000000000000000E+020
 30
-1.0000000000000000E+020
  9
$PLIMMIN
 10
0.0
 20
0.0
  9
$PLIMMAX
 10
12.0
 20
9.0
  9
$UNITMODE
 70
     0
  9
$VISRETAIN
 70
     1
  9
$PLINEGEN
 70
     0
  9
$PSLTSCALE
 70
     1
  0
ENDSEC
  0
SECTION
  2
TABLES
  0
TABLE
  2
VPORT
 70
     2
  0
VPORT
  2
*ACTIVE
 70
     0
 10
0.0
 20
0.0
 11
1.0
 21
1.0
 12
21.998036903230371
 22
17.000334841513119
 13
0.0
 23
0.0
 14
0.5
 24
0.5
 15
0.5
 25
0.5
 16
0.0
 26
0.0
 36
1.0
 17
0.0
 27
0.0
 37
0.0
 40
34.437971664748289
 41
2.1727078891257992
 42
50.0
 43
0.0
 44
0.0
 50
0.0
 51
0.0
 71
     0
 72
 20000
 73
     1
 74
     2
 75
     0
 76
     0
 77
     0
 78
     0
  0
ENDTAB
  0
TABLE
  2
LTYPE
 70
     2
  0
LTYPE
  2
CONTINUOUS
 70
     0
  3
Solid line
 72
    65
 73
     0
 40
0.0
  0
LTYPE
  2
HIDDEN
 70
     0
  3
Hidden __ __ __ __ __ __ __ __ __ __ __ __ __ _
 72
    65
 73
     2
 40
0.375
 49
0.25
 49
-0.125
  0
ENDTAB
  0
TABLE
  2
LAYER
 70
     6
  0
LAYER
  2
0
 70
     0
 62
     7
  6
CONTINUOUS
  0
LAYER
  2
CENTER_FOOT_OUTLINE
 70
     0
 62
     7
  6
CONTINUOUS
  0
LAYER
  2
CENTER_ANKLE_OUTLINE
 70
     0
 62
     7
  6
CONTINUOUS
  0
LAYER
  2
DIMENSIONS
 70
     0
 62
     1
  6
CONTINUOUS
  0
LAYER
  2
FORM
 70
     0
 62
     5
  6
CONTINUOUS
  0
LAYER
  2
DEFPOINTS
 70
     0
 62
     7
  6
CONTINUOUS
  0
ENDTAB
  0
TABLE
  2
STYLE
 70
     1
  0
STYLE
  2
STANDARD
 70
     0
 40
0.0
 41
1.0
 50
0.0
 71
     0
 42
0.375
  3
simplex.shx
  4

  0
ENDTAB
  0
TABLE
  2
VIEW
 70
     0
  0
ENDTAB
  0
TABLE
  2
UCS
 70
     0
  0
ENDTAB
  0
TABLE
  2
APPID
 70
     3
  0
APPID
  2
ACAD
 70
     0
  0
APPID
  2
DCO15
 70
     0
  0
APPID
  2
ACAD_PSEXT
 70
     0
  0
ENDTAB
  0
TABLE
  2
DIMSTYLE
 70
     1
  0
DIMSTYLE
  2
STANDARD
 70
     0
  3

  4

  5

  6

  7

 40
1.0
 41
0.375
 42
0.09
 43
0.38
 44
0.09
 45
0.0
 46
0.0
 47
0.0
 48
0.0
140
0.375
141
0.0
142
0.0
143
25.399999999999999
144
1.0
145
0.0
146
1.0
147
0.125
 71
     0
 72
     0
 73
     1
 74
     1
 75
     0
 76
     0
 77
     0
 78
     0
170
     0
171
     2
172
     0
173
     0
174
     0
175
     0
176
     0
177
     0
178
     0
  0
ENDTAB
  0
ENDSEC
  0
SECTION
  2
BLOCKS
  0
BLOCK
  8
0
  2
$MODEL_SPACE
 70
     0
 10
0.0
 20
0.0
 30
0.0
  3
$MODEL_SPACE
  1

  0
ENDBLK
  5
9
  8
0
  0
BLOCK
 67
     1
  8
0
  2
$PAPER_SPACE
 70
     0
 10
0.0
 20
0.0
 30
0.0
  3
$PAPER_SPACE
  1

  0
ENDBLK
  5
E
 67
     1
  8
0
  0
ENDSEC
  0
SECTION
  2
ENTITIES
  0
TEXT
  5
29
  8
DIMENSIONS
 10
22.906971095796418
 20
10.85991908538319
 30
0.0
 40
0.375
  1
10.375
  0
LINE
  5
2B
  8
CENTER_ANKLE_OUTLINE
 10
21.362328238653561
 20
24.318419085383191
 30
0.0
 11
26.237328238653561
 21
24.318419085383191
 31
0.0
  0
LINE
  5
2D
  8
CENTER_FOOT_OUTLINE
 10
22.112328238653561
 20
17.54741908538319
 30
0.0
 11
25.487328238653561
 21
17.54741908538319
 31
0.0
  0
LINE
  5
2F
  8
CENTER_ANKLE_OUTLINE
 10
21.453071573111661
 20
18.95591908538319
 30
0.0
 11
23.303843700973179
 21
16.54212401786063
 31
0.0
  0
ARC
  5
30
  8
CENTER_ANKLE_OUTLINE
 10
23.799828238653561
 20
20.82041908538319
 30
0.0
 40
3.0
 50
220.1156619268977
 51
319.88433807310253
  0
LINE
  5
31
  8
CENTER_FOOT_OUTLINE
  6
HIDDEN
 10
26.513994905320232
 20
16.11741908538319
 30
0.0
 11
21.08566157198689
 21
16.11741908538319
 31
0.0
  0
LINE
  5
33
  8
CENTER_FOOT_OUTLINE
 10
18.894328238653571
 20
12.04741908538319
 30
0.0
 11
28.70532823865355
 21
12.04741908538319
 31
0.0
  0
LINE
  5
34
  8
CENTER_ANKLE_OUTLINE
 10
11.969682212824461
 20
19.410866297386288
 30
0.0
 11
13.201887477894561
 21
23.203204156113209
 31
0.0
  0
LINE
  5
35
  8
CENTER_ANKLE_OUTLINE
 10
6.9946853681667562
 20
19.581580202584512
 30
0.0
 11
8.0089705637440147
 21
16.71400463439139
 31
0.0
  0
LINE
  5
36
  8
DIMENSIONS
 10
4.3154425140535286
 20
18.708268877978
 30
0.0
 11
5.2407685812887053
 21
21.5561296816268
 31
0.0
  0
LINE
  5
37
  8
DIMENSIONS
 10
8.5981975290280275
 20
16.92241908538319
 30
0.0
 11
10.88368721942512
 21
23.956433079902151
 31
0.0
  0
LINE
  5
38
  8
DIMENSIONS
 10
8.5981975290279991
 20
16.92241908538319
 30
0.0
 11
8.5981975290279991
 21
21.133344864899382
 31
0.0
  0
LINE
  5
39
  8
CENTER_ANKLE_OUTLINE
 10
20.174828238653561
 20
19.19341908538318
 30
0.0
 11
20.174828238653561
 21
20.093419085383189
 31
0.0
  0
LINE
  5
3A
  8
CENTER_FOOT_OUTLINE
 10
3.6926975290280089
 20
12.04741908538319
 30
0.0
 11
13.50369752902802
 21
12.04741908538319
 31
0.0
  0
LINE
  5
3B
  8
CENTER_FOOT_OUTLINE
 10
10.285697529028001
 20
17.54741908538319
 30
0.0
 11
13.785697529028001
 21
12.67241908538319
 31
0.0
  0
ARC
  5
3C
  8
CENTER_ANKLE_OUTLINE
 10
9.8027457731015488
 20
20.629637385901699
 30
0.0
 40
3.0
 50
202.1156619268977
 51
301.88433807310253
  0
LINE
  5
3D
  8
CENTER_FOOT_OUTLINE
  6
HIDDEN
 10
11.31236419569467
 20
16.11741908538319
 30
0.0
 11
5.8840308623613558
 21
16.11741908538319
 31
0.0
  0
LINE
  5
3E
  8
CENTER_ANKLE_OUTLINE
 10
11.45848180601217
 20
18.131204819954249
 30
0.0
 11
8.9523892168291184
 21
16.407469332210521
 31
0.0
  0
LINE
  5
3F
  8
DIMENSIONS
 10
8.5981975290279991
 20
16.92241908538319
 30
0.0
 11
14.875697529028001
 21
16.92241908538319
 31
0.0
  0
LINE
  5
40
  8
CENTER_FOOT_OUTLINE
 10
3.4106975290279991
 20
12.67241908538319
 30
0.0
 11
6.9106975290279991
 21
17.54741908538319
 31
0.0
  0
LINE
  5
41
  8
CENTER_FOOT_OUTLINE
 10
3.5731975290280209
 20
12.17241908538319
 30
0.0
 11
3.4106975290279991
 21
12.67241908538319
 31
0.0
  0
LINE
  5
42
  8
CENTER_FOOT_OUTLINE
 10
3.5731975290280209
 20
12.17241908538319
 30
0.0
 11
3.6520725290280041
 21
12.17241908538319
 31
0.0
  0
LINE
  5
43
  8
CENTER_FOOT_OUTLINE
 10
3.6926975290280089
 20
12.04741908538319
 30
0.0
 11
3.6520725290280041
 21
12.17241908538319
 31
0.0
  0
LINE
  5
44
  8
DIMENSIONS
 10
8.5981975290279991
 20
16.92241908538319
 30
0.0
 11
4.1139660546963617
 21
18.379434213861071
 31
0.0
  0
SOLID
  5
45
  8
DIMENSIONS
 10
4.2560014817850913
 20
18.72758244012644
 30
0.0
 11
4.3748835463219669
 21
18.68895531582957
 31
0.0
 12
4.199561141162917
 22
18.351622684367321
 32
0.0
 13
4.199561141162917
 23
18.351622684367321
 33
0.0
  0
ARC
  5
46
  8
CENTER_ANKLE_OUTLINE
 10
8.5981975290279991
 20
16.92241908538319
 30
0.0
 40
0.625
 50
199.47910823402341
 51
304.52089176597661
  0
CIRCLE
  5
47
  8
CENTER_FOOT_OUTLINE
 10
8.5981975290279991
 20
16.92241908538319
 30
0.0
 40
0.25
  0
CIRCLE
  5
48
  8
CENTER_ANKLE_OUTLINE
 10
8.5981975290279991
 20
16.92241908538319
 30
0.0
 40
0.25
  0
LINE
  5
49
  8
CENTER_FOOT_OUTLINE
 10
6.9106975290279991
 20
17.54741908538319
 30
0.0
 11
10.285697529028001
 21
17.54741908538319
 31
0.0
  0
LINE
  5
4A
  8
DIMENSIONS
 10
14.785697529028001
 20
12.42241908538319
 30
0.0
 11
14.785697529028001
 21
14.17241908538319
 31
0.0
  0
LINE
  5
4B
  8
DIMENSIONS
 10
17.612328238653561
 20
12.42241908538319
 30
0.0
 11
17.612328238653561
 21
14.48491908538319
 31
0.0
  0
LINE
  5
4C
  8
CENTER_FOOT_OUTLINE
 10
18.612328238653561
 20
12.67241908538319
 30
0.0
 11
22.112328238653561
 21
17.54741908538319
 31
0.0
  0
LINE
  5
4D
  8
DIMENSIONS
 10
13.59369752902802
 20
12.04741908538319
 30
0.0
 11
14.875697529028001
 21
12.04741908538319
 31
0.0
  0
LINE
  5
4E
  8
CENTER_FOOT_OUTLINE
 10
13.785697529028001
 20
12.67241908538319
 30
0.0
 11
13.623197529027999
 21
12.17241908538319
 31
0.0
  0
LINE
  5
4F
  8
CENTER_FOOT_OUTLINE
 10
13.544322529028021
 20
12.17241908538319
 30
0.0
 11
13.623197529027999
 21
12.17241908538319
 31
0.0
  0
LINE
  5
50
  8
CENTER_FOOT_OUTLINE
 10
13.544322529028021
 20
12.17241908538319
 30
0.0
 11
13.50369752902802
 21
12.04741908538319
 31
0.0
  0
SOLID
  5
51
  8
DIMENSIONS
 10
14.723197529028001
 20
12.42241908538319
 30
0.0
 11
14.848197529028001
 21
12.42241908538319
 31
0.0
 12
14.785697529028001
 22
12.04741908538319
 32
0.0
 13
14.785697529028001
 23
12.04741908538319
 33
0.0
  0
LINE
  5
52
  8
DIMENSIONS
 10
18.987328238653561
 20
11.04741908538319
 30
0.0
 11
22.781971095796418
 21
11.04741908538319
 31
0.0
  0
LINE
  5
53
  8
DIMENSIONS
 10
18.612328238653561
 20
12.58241908538319
 30
0.0
 11
18.612328238653561
 21
10.95741908538319
 31
0.0
  0
SOLID
  5
54
  8
DIMENSIONS
 10
18.987328238653561
 20
11.10991908538319
 30
0.0
 11
18.987328238653561
 21
10.98491908538319
 31
0.0
 12
18.612328238653561
 22
11.04741908538319
 32
0.0
 13
18.612328238653561
 23
11.04741908538319
 33
0.0
  0
LINE
  5
55
  8
DIMENSIONS
 10
18.804328238653572
 20
12.04741908538319
 30
0.0
 11
17.52232823865355
 21
12.04741908538319
 31
0.0
  0
SOLID
  5
56
  8
DIMENSIONS
 10
17.549828238653561
 20
12.42241908538319
 30
0.0
 11
17.674828238653561
 21
12.42241908538319
 31
0.0
 12
17.612328238653561
 22
12.04741908538319
 32
0.0
 13
17.612328238653561
 23
12.04741908538319
 33
0.0
  0
LINE
  5
57
  8
CENTER_FOOT_OUTLINE
 10
18.774828238653551
 20
12.17241908538319
 30
0.0
 11
18.612328238653561
 21
12.67241908538319
 31
0.0
  0
LINE
  5
58
  8
CENTER_FOOT_OUTLINE
 10
18.774828238653551
 20
12.17241908538319
 30
0.0
 11
18.853703238653559
 21
12.17241908538319
 31
0.0
  0
LINE
  5
59
  8
CENTER_FOOT_OUTLINE
 10
18.894328238653571
 20
12.04741908538319
 30
0.0
 11
18.853703238653559
 21
12.17241908538319
 31
0.0
  0
TEXT
  5
5A
  8
DIMENSIONS
 10
16.862328238653561
 20
14.60991908538319
 30
0.0
 40
0.375
  1
5.500
  0
LINE
  5
5B
  8
DIMENSIONS
 10
14.785697529028001
 20
16.54741908538319
 30
0.0
 11
14.785697529028001
 21
14.79741908538319
 31
0.0
  0
TEXT
  5
5C
  8
DIMENSIONS
 10
14.035697529028001
 20
14.29741908538319
 30
0.0
 40
0.375
  1
4.875
  0
LINE
  5
5D
  8
CENTER_ANKLE_OUTLINE
 10
12.183798718857609
 20
17.895535068959919
 30
0.0
 11
11.72310694236424
 21
18.045222901035149
 31
0.0
  0
LINE
  5
5E
  8
CENTER_ANKLE_OUTLINE
 10
12.747554994823441
 20
17.96208182928029
 30
0.0
 11
13.02567028976091
 21
18.818032693945931
 31
0.0
  0
LINE
  5
5F
  8
CENTER_ANKLE_OUTLINE
 10
12.747554994823441
 20
17.96208182928029
 30
0.0
 11
12.356144389345589
 21
17.970969344087699
 31
0.0
  0
LINE
  5
60
  8
CENTER_ANKLE_OUTLINE
 10
12.3175172650487
 20
17.852087279550808
 30
0.0
 11
12.356144389345589
 21
17.970969344087699
 31
0.0
  0
LINE
  5
61
  8
CENTER_ANKLE_OUTLINE
 10
12.198635200511831
 20
17.890714403847671
 30
0.0
 11
12.203455865624081
 21
17.905550885501871
 31
0.0
  0
LINE
  5
62
  8
CENTER_ANKLE_OUTLINE
 10
12.183798718857609
 20
17.895535068959919
 30
0.0
 11
12.18861938396986
 21
17.910371550614119
 31
0.0
  0
LINE
  5
63
  8
CENTER_ANKLE_OUTLINE
 10
12.18861938396986
 20
17.910371550614119
 30
0.0
 11
12.203455865624081
 21
17.905550885501871
 31
0.0
  0
LINE
  5
64
  8
CENTER_ANKLE_OUTLINE
 10
12.3175172650487
 20
17.852087279550808
 30
0.0
 11
12.198635200511831
 21
17.890714403847682
 31
0.0
  0
LINE
  5
65
  8
CENTER_ANKLE_OUTLINE
 10
12.703788508017389
 20
19.04090792491975
 30
0.0
 11
13.02567028976091
 21
18.818032693945931
 31
0.0
  0
LINE
  5
66
  8
CENTER_ANKLE_OUTLINE
 10
11.693386426230029
 20
18.054879682109359
 30
0.0
 11
11.45848180601217
 21
18.131204819954259
 31
0.0
  0
LINE
  5
67
  8
CENTER_ANKLE_OUTLINE
 10
11.72310694236424
 20
18.045222901035139
 30
0.0
 11
11.73276372343846
 21
18.074943417169369
 31
0.0
  0
LINE
  5
68
  8
CENTER_ANKLE_OUTLINE
 10
11.693386426230029
 20
18.054879682109359
 30
0.0
 11
11.70304320730423
 21
18.084600198243582
 31
0.0
  0
LINE
  5
69
  8
CENTER_ANKLE_OUTLINE
 10
11.73276372343846
 20
18.074943417169369
 30
0.0
 11
11.70304320730423
 21
18.084600198243582
 31
0.0
  0
LINE
  5
6A
  8
CENTER_ANKLE_OUTLINE
 10
12.118284793495571
 20
19.362582392015199
 30
0.0
 11
11.969682212824461
 21
19.410866297386288
 31
0.0
  0
LINE
  5
6B
  8
CENTER_ANKLE_OUTLINE
 10
12.74241563231427
 20
19.159789989456641
 30
0.0
 11
12.62353356777737
 21
19.198417113753511
 31
0.0
  0
LINE
  5
6C
  8
CENTER_ANKLE_OUTLINE
 10
12.703788508017389
 20
19.04090792491975
 30
0.0
 11
12.74241563231427
 21
19.159789989456641
 31
0.0
  0
LINE
  5
6D
  8
CENTER_ANKLE_OUTLINE
 10
12.60869708612316
 20
19.203237778865759
 30
0.0
 11
12.148005309629809
 21
19.352925610940979
 31
0.0
  0
LINE
  5
6E
  8
CENTER_ANKLE_OUTLINE
 10
12.13834852855558
 20
19.323205094806749
 30
0.0
 11
12.148005309629781
 21
19.352925610940972
 31
0.0
  0
LINE
  5
6F
  8
CENTER_ANKLE_OUTLINE
 10
12.108628012421351
 20
19.332861875880969
 30
0.0
 11
12.118284793495571
 21
19.362582392015192
 31
0.0
  0
LINE
  5
70
  8
CENTER_ANKLE_OUTLINE
 10
12.13834852855558
 20
19.323205094806749
 30
0.0
 11
12.108628012421351
 21
19.332861875880969
 31
0.0
  0
LINE
  5
71
  8
CENTER_ANKLE_OUTLINE
 10
12.61871290266512
 20
19.1835806320993
 30
0.0
 11
12.62353356777737
 21
19.1984171137535
 31
0.0
  0
LINE
  5
72
  8
CENTER_ANKLE_OUTLINE
 10
12.603876421010909
 20
19.188401297211541
 30
0.0
 11
12.60869708612316
 21
19.203237778865748
 31
0.0
  0
LINE
  5
73
  8
CENTER_ANKLE_OUTLINE
 10
12.603876421010909
 20
19.188401297211541
 30
0.0
 11
12.61871290266512
 21
19.1835806320993
 31
0.0
  0
SOLID
  5
74
  8
DIMENSIONS
 10
14.723197529028001
 20
16.54741908538319
 30
0.0
 11
14.848197529028001
 21
16.54741908538319
 31
0.0
 12
14.785697529028001
 22
16.92241908538319
 32
0.0
 13
14.785697529028001
 23
16.92241908538319
 33
0.0
  0
LINE
  5
75
  8
DIMENSIONS
 10
17.612328238653561
 20
17.17241908538319
 30
0.0
 11
17.612328238653561
 21
15.10991908538319
 31
0.0
  0
LINE
  5
76
  8
DIMENSIONS
 10
22.022328238653561
 20
17.54741908538319
 30
0.0
 11
17.52232823865355
 21
17.54741908538319
 31
0.0
  0
SOLID
  5
77
  8
DIMENSIONS
 10
17.549828238653561
 20
17.17241908538319
 30
0.0
 11
17.674828238653561
 21
17.17241908538319
 31
0.0
 12
17.612328238653561
 22
17.54741908538319
 32
0.0
 13
17.612328238653561
 23
17.54741908538319
 33
0.0
  0
LINE
  5
78
  8
CENTER_ANKLE_OUTLINE
 10
20.690428238653571
 20
18.95591908538319
 30
0.0
 11
21.174828238653561
 21
18.95591908538319
 31
0.0
  0
LINE
  5
79
  8
CENTER_ANKLE_OUTLINE
 10
20.174828238653561
 20
19.19341908538318
 30
0.0
 11
20.549828238653561
 21
19.080919085383201
 31
0.0
  0
LINE
  5
7A
  8
CENTER_ANKLE_OUTLINE
 10
20.674828238653561
 20
18.95591908538319
 30
0.0
 11
20.674828238653561
 21
18.971519085383179
 31
0.0
  0
LINE
  5
7B
  8
CENTER_ANKLE_OUTLINE
 10
20.690428238653571
 20
18.95591908538319
 30
0.0
 11
20.690428238653571
 21
18.971519085383179
 31
0.0
  0
LINE
  5
7C
  8
CENTER_ANKLE_OUTLINE
 10
20.549828238653561
 20
18.95591908538319
 30
0.0
 11
20.674828238653561
 21
18.95591908538319
 31
0.0
  0
LINE
  5
7D
  8
CENTER_ANKLE_OUTLINE
 10
20.549828238653561
 20
18.95591908538319
 30
0.0
 11
20.549828238653561
 21
19.080919085383201
 31
0.0
  0
LINE
  5
7E
  8
CENTER_ANKLE_OUTLINE
 10
20.690428238653571
 20
18.971519085383179
 30
0.0
 11
20.674828238653561
 21
18.971519085383179
 31
0.0
  0
LINE
  5
7F
  8
CENTER_ANKLE_OUTLINE
 10
21.174828238653561
 20
18.95591908538319
 30
0.0
 11
21.174828238653561
 21
18.987169085383179
 31
0.0
  0
LINE
  5
80
  8
CENTER_ANKLE_OUTLINE
 10
21.206078238653561
 20
18.95591908538319
 30
0.0
 11
21.206078238653561
 21
18.987169085383179
 31
0.0
  0
LINE
  5
81
  8
CENTER_ANKLE_OUTLINE
 10
21.174828238653561
 20
18.987169085383179
 30
0.0
 11
21.206078238653561
 21
18.987169085383179
 31
0.0
  0
LINE
  5
82
  8
CENTER_ANKLE_OUTLINE
 10
21.206078238653561
 20
18.95591908538319
 30
0.0
 11
21.453071573111661
 21
18.95591908538319
 31
0.0
  0
TEXT
  5
83
  8
DIMENSIONS
 10
10.722637922007801
 20
20.522163821327361
 30
0.0
 40
0.375
  1
18%%D
  0
LINE
  5
84
  8
CENTER_ANKLE_OUTLINE
 10
8.5654869609556954
 20
24.709662003691079
 30
0.0
 11
13.201887477894561
 21
23.203204156113209
 31
0.0
  0
TEXT
  5
85
  8
DIMENSIONS
 10
4.6012345577900362
 20
21.6811296816268
 30
0.0
 40
0.375
  1
7.396
  0
LINE
  5
86
  8
CENTER_ANKLE_OUTLINE
 10
7.3332816958855744
 20
20.917324144964159
 30
0.0
 11
8.5654869609556954
 21
24.709662003691079
 31
0.0
  0
LINE
  5
87
  8
DIMENSIONS
 10
6.3691694586694316
 20
25.0289904852756
 30
0.0
 11
5.4438433914342559
 21
22.18112968162681
 31
0.0
  0
LINE
  5
88
  8
CENTER_ANKLE_OUTLINE
 10
6.6942668225868536
 20
21.124952663484692
 30
0.0
 11
7.1549585990802314
 21
20.975264831409461
 31
0.0
  0
LINE
  5
89
  8
CENTER_ANKLE_OUTLINE
 10
6.5219211520989111
 20
21.049518388356908
 30
0.0
 11
6.560548276395763
 21
21.168400452893799
 31
0.0
  0
LINE
  5
8A
  8
CENTER_ANKLE_OUTLINE
 10
6.7597807479488941
 20
19.657905340429402
 30
0.0
 11
6.9946853681667562
 21
19.581580202584512
 31
0.0
  0
LINE
  5
8B
  8
CENTER_ANKLE_OUTLINE
 10
5.8523952516835891
 20
20.202455038498659
 30
0.0
 11
6.130510546621025
 21
21.05840590316431
 31
0.0
  0
LINE
  5
8C
  8
CENTER_ANKLE_OUTLINE
 10
6.1356499091302217
 20
19.86069774298797
 30
0.0
 11
6.2545319736671274
 21
19.82207061869109
 31
0.0
  0
LINE
  5
8D
  8
CENTER_ANKLE_OUTLINE
 10
6.1356499091302217
 20
19.86069774298797
 30
0.0
 11
6.174277033427102
 21
19.979579807524861
 31
0.0
  0
LINE
  5
8E
  8
CENTER_ANKLE_OUTLINE
 10
5.8523952516835891
 20
20.202455038498659
 30
0.0
 11
6.174277033427102
 21
19.979579807524861
 31
0.0
  0
LINE
  5
8F
  8
CENTER_ANKLE_OUTLINE
 10
6.2693684553213131
 20
19.817249953578841
 30
0.0
 11
6.73006023181469
 21
19.667562121503622
 31
0.0
  0
LINE
  5
90
  8
CENTER_ANKLE_OUTLINE
 10
6.2741891204335607
 20
19.832086435233052
 30
0.0
 11
6.2593526387793466
 21
19.8369071003453
 31
0.0
  0
LINE
  5
91
  8
CENTER_ANKLE_OUTLINE
 10
6.254531973667099
 20
19.82207061869109
 30
0.0
 11
6.2593526387793466
 21
19.8369071003453
 31
0.0
  0
LINE
  5
92
  8
CENTER_ANKLE_OUTLINE
 10
6.2693684553213131
 20
19.817249953578841
 30
0.0
 11
6.2741891204335607
 21
19.832086435233052
 31
0.0
  0
LINE
  5
93
  8
CENTER_ANKLE_OUTLINE
 10
6.7397170128889172
 20
19.697282637637841
 30
0.0
 11
6.7694375290231221
 21
19.687625856563621
 31
0.0
  0
LINE
  5
94
  8
CENTER_ANKLE_OUTLINE
 10
6.7597807479488941
 20
19.657905340429402
 30
0.0
 11
6.7694375290231221
 21
19.687625856563621
 31
0.0
  0
LINE
  5
95
  8
CENTER_ANKLE_OUTLINE
 10
6.73006023181469
 20
19.667562121503622
 30
0.0
 11
6.7397170128889172
 21
19.697282637637841
 31
0.0
  0
LINE
  5
96
  8
CENTER_ANKLE_OUTLINE
 10
6.5219211520989111
 20
21.049518388356908
 30
0.0
 11
6.130510546621025
 21
21.05840590316431
 31
0.0
  0
LINE
  5
97
  8
CENTER_ANKLE_OUTLINE
 10
7.1846791152144638
 20
20.965608050335241
 30
0.0
 11
7.3332816958855744
 21
20.917324144964159
 31
0.0
  0
LINE
  5
98
  8
CENTER_ANKLE_OUTLINE
 10
7.1750223341402366
 20
20.935887534201012
 30
0.0
 11
7.1846791152144638
 21
20.965608050335231
 31
0.0
  0
LINE
  5
99
  8
CENTER_ANKLE_OUTLINE
 10
7.1453018180060042
 20
20.945544315275232
 30
0.0
 11
7.1549585990802314
 21
20.975264831409451
 31
0.0
  0
LINE
  5
9A
  8
CENTER_ANKLE_OUTLINE
 10
7.1453018180060042
 20
20.945544315275232
 30
0.0
 11
7.1750223341402366
 21
20.935887534201012
 31
0.0
  0
LINE
  5
9B
  8
CENTER_ANKLE_OUTLINE
 10
6.689446157474606
 20
21.11011618183047
 30
0.0
 11
6.6942668225868536
 21
21.12495266348467
 31
0.0
  0
LINE
  5
9C
  8
CENTER_ANKLE_OUTLINE
 10
6.6746096758204203
 20
21.114936846942719
 30
0.0
 11
6.6794303409326679
 21
21.129773328596919
 31
0.0
  0
LINE
  5
9D
  8
CENTER_ANKLE_OUTLINE
 10
6.689446157474606
 20
21.11011618183047
 30
0.0
 11
6.6746096758204203
 21
21.114936846942719
 31
0.0
  0
LINE
  5
9E
  8
CENTER_ANKLE_OUTLINE
 10
6.560548276395763
 20
21.168400452893799
 30
0.0
 11
6.6794303409326679
 21
21.12977332859694
 31
0.0
  0
SOLID
  5
9F
  8
DIMENSIONS
 10
9.526673271315218
 20
21.001444774855418
 30
0.0
 11
9.4934952234218581
 21
20.88092831482615
 31
0.0
 12
9.8716336274563616
 22
20.841652401160751
 32
0.0
 13
9.8716336274563616
 23
20.841652401160751
 33
0.0
  0
ARC
  5
A0
  8
DIMENSIONS
 10
8.5981975290279991
 20
16.922419085383119
 30
0.0
 40
4.1209257795162637
 50
77.215657536915657
 51
84.784342463084471
  0
SOLID
  5
A1
  8
DIMENSIONS
 10
8.9699654470386747
 20
20.963847285451831
 30
0.0
 11
8.9756528826426916
 21
21.088717830722722
 31
0.0
 12
8.5981975290279991
 22
21.043344864899382
 32
0.0
 13
8.5981975290279991
 23
21.043344864899382
 33
0.0
  0
LINE
  5
A2
  8
DIMENSIONS
 10
10.222637922007801
 20
20.709663821327361
 30
0.0
 11
10.597637922007801
 21
20.709663821327361
 31
0.0
  0
ARC
  5
A3
  8
DIMENSIONS
 10
8.5981975290279991
 20
16.922419085383119
 30
0.0
 40
4.1209257795162637
 50
66.784342463084684
 51
72.000000000000185
  0
LINE
  5
A4
  8
DIMENSIONS
 10
8.4798918744891125
 20
24.737473533184829
 30
0.0
 11
6.3994557450934897
 21
25.413448208380021
 31
0.0
  0
SOLID
  5
A5
  8
DIMENSIONS
 10
6.3097284264009943
 20
25.048304047424029
 30
0.0
 11
6.4286104909378698
 21
25.009676923127159
 31
0.0
 12
6.485050831560045
 22
25.385636678886279
 32
0.0
 13
6.485050831560045
 23
25.385636678886279
 33
0.0
  0
LINE
  5
A6
  8
DIMENSIONS
 10
20.174828238653561
 20
20.183419085383189
 30
0.0
 11
20.174828238653561
 21
26.408419085383201
 31
0.0
  0
LINE
  5
A7
  8
CENTER_ANKLE_OUTLINE
 10
21.362328238653561
 20
20.33091908538319
 30
0.0
 11
21.362328238653561
 21
24.318419085383191
 31
0.0
  0
LINE
  5
A8
  8
CENTER_ANKLE_OUTLINE
 10
21.174828238653561
 20
20.299669085383179
 30
0.0
 11
21.174828238653561
 21
20.330919085383179
 31
0.0
  0
LINE
  5
A9
  8
CENTER_ANKLE_OUTLINE
 10
21.206078238653561
 20
20.299669085383179
 30
0.0
 11
21.206078238653561
 21
20.330919085383179
 31
0.0
  0
LINE
  5
AA
  8
CENTER_ANKLE_OUTLINE
 10
20.674828238653561
 20
20.31531908538318
 30
0.0
 11
20.674828238653561
 21
20.330919085383179
 31
0.0
  0
LINE
  5
AB
  8
CENTER_ANKLE_OUTLINE
 10
20.690428238653571
 20
20.31531908538318
 30
0.0
 11
20.690428238653571
 21
20.330919085383179
 31
0.0
  0
LINE
  5
AC
  8
CENTER_ANKLE_OUTLINE
 10
20.549828238653561
 20
20.205919085383201
 30
0.0
 11
20.549828238653561
 21
20.33091908538319
 31
0.0
  0
LINE
  5
AD
  8
CENTER_ANKLE_OUTLINE
 10
20.549828238653561
 20
20.205919085383201
 30
0.0
 11
20.174828238653561
 21
20.093419085383189
 31
0.0
  0
LINE
  5
AE
  8
CENTER_ANKLE_OUTLINE
 10
20.690428238653571
 20
20.31531908538318
 30
0.0
 11
20.674828238653561
 21
20.31531908538318
 31
0.0
  0
LINE
  5
AF
  8
CENTER_ANKLE_OUTLINE
 10
21.174828238653561
 20
20.299669085383179
 30
0.0
 11
21.206078238653561
 21
20.299669085383179
 31
0.0
  0
LINE
  5
B0
  8
CENTER_ANKLE_OUTLINE
 10
20.690428238653539
 20
20.33091908538319
 30
0.0
 11
21.174828238653561
 21
20.33091908538319
 31
0.0
  0
LINE
  5
B1
  8
CENTER_ANKLE_OUTLINE
 10
20.549828238653561
 20
20.33091908538319
 30
0.0
 11
20.674828238653561
 21
20.33091908538319
 31
0.0
  0
LINE
  5
B2
  8
CENTER_ANKLE_OUTLINE
 10
21.206078238653561
 20
20.33091908538319
 30
0.0
 11
21.362328238653561
 21
20.33091908538319
 31
0.0
  0
SOLID
  5
B3
  8
DIMENSIONS
 10
21.737328238653561
 20
25.380919085383201
 30
0.0
 11
21.737328238653561
 21
25.255919085383201
 31
0.0
 12
21.362328238653561
 22
25.318419085383201
 32
0.0
 13
21.362328238653561
 23
25.318419085383201
 33
0.0
  0
LINE
  5
B4
  8
DIMENSIONS
 10
21.362328238653561
 20
24.408419085383191
 30
0.0
 11
21.362328238653561
 21
25.408419085383201
 31
0.0
  0
LINE
  5
B5
  8
DIMENSIONS
 10
21.737328238653561
 20
25.318419085383201
 30
0.0
 11
22.924828238653561
 21
25.318419085383201
 31
0.0
  0
LINE
  5
B6
  8
DIMENSIONS
 10
20.549828238653561
 20
26.318419085383201
 30
0.0
 11
22.924828238653561
 21
26.318419085383201
 31
0.0
  0
SOLID
  5
B7
  8
DIMENSIONS
 10
20.549828238653561
 20
26.380919085383201
 30
0.0
 11
20.549828238653561
 21
26.255919085383201
 31
0.0
 12
20.174828238653561
 22
26.318419085383201
 32
0.0
 13
20.174828238653561
 23
26.318419085383201
 33
0.0
  0
ARC
  5
B8
  8
CENTER_ANKLE_OUTLINE
 10
34.785062095252449
 20
19.64341908538319
 30
0.0
 40
0.6875
 50
54.93219368801946
 51
305.06780631198052
  0
ARC
  5
B9
  8
CENTER_ANKLE_OUTLINE
 10
38.200062095252441
 20
19.64341908538319
 30
0.0
 40
0.6875
 50
234.9321936880194
 51
125.06780631198031
  0
LINE
  5
BA
  8
DIMENSIONS
 10
29.987328238653561
 20
17.297419085383179
 30
0.0
 11
29.987328238653561
 21
20.30791908538319
 31
0.0
  0
LINE
  5
BB
  8
CENTER_ANKLE_OUTLINE
 10
27.424828238653561
 20
19.19341908538318
 30
0.0
 11
27.424828238653561
 21
20.093419085383189
 31
0.0
  0
LINE
  5
BC
  8
CENTER_FOOT_OUTLINE
 10
32.942562095252441
 20
12.67241908538319
 30
0.0
 11
33.266356967047301
 21
13.442419085383181
 31
0.0
  0
LINE
  5
BD
  8
CENTER_FOOT_OUTLINE
 10
33.224562095252423
 20
12.04741908538319
 30
0.0
 11
39.760562095252432
 21
12.04741908538319
 31
0.0
  0
LINE
  5
BE
  8
DIMENSIONS
 10
33.317562095252441
 20
11.04741908538319
 30
0.0
 11
35.65327638096673
 21
11.04741908538319
 31
0.0
  0
LINE
  5
BF
  8
DIMENSIONS
 10
29.987328238653561
 20
12.42241908538319
 30
0.0
 11
29.987328238653561
 21
14.17241908538319
 31
0.0
  0
LINE
  5
C0
  8
CENTER_FOOT_OUTLINE
 10
25.487328238653561
 20
17.54741908538319
 30
0.0
 11
28.987328238653561
 21
12.67241908538319
 31
0.0
  0
LINE
  5
C1
  8
DIMENSIONS
 10
28.795328238653561
 20
12.04741908538319
 30
0.0
 11
30.077328238653571
 21
12.04741908538319
 31
0.0
  0
SOLID
  5
C2
  8
DIMENSIONS
 10
28.612328238653561
 20
11.10991908538319
 30
0.0
 11
28.612328238653561
 21
10.98491908538319
 31
0.0
 12
28.987328238653561
 22
11.04741908538319
 32
0.0
 13
28.987328238653561
 23
11.04741908538319
 33
0.0
  0
LINE
  5
C3
  8
CENTER_FOOT_OUTLINE
 10
28.987328238653561
 20
12.67241908538319
 30
0.0
 11
28.82482823865357
 21
12.17241908538319
 31
0.0
  0
LINE
  5
C4
  8
DIMENSIONS
 10
28.612328238653561
 20
11.04741908538319
 30
0.0
 11
24.817685381510699
 21
11.04741908538319
 31
0.0
  0
LINE
  5
C5
  8
CENTER_FOOT_OUTLINE
 10
28.745953238653559
 20
12.17241908538319
 30
0.0
 11
28.70532823865355
 21
12.04741908538319
 31
0.0
  0
LINE
  5
C6
  8
CENTER_FOOT_OUTLINE
 10
28.745953238653559
 20
12.17241908538319
 30
0.0
 11
28.82482823865357
 21
12.17241908538319
 31
0.0
  0
LINE
  5
C7
  8
DIMENSIONS
 10
28.987328238653561
 20
12.58241908538319
 30
0.0
 11
28.987328238653561
 21
10.95741908538319
 31
0.0
  0
SOLID
  5
C8
  8
DIMENSIONS
 10
29.924828238653561
 20
12.42241908538319
 30
0.0
 11
30.049828238653561
 21
12.42241908538319
 31
0.0
 12
29.987328238653561
 22
12.04741908538319
 32
0.0
 13
29.987328238653561
 23
12.04741908538319
 33
0.0
  0
LINE
  5
C9
  8
DIMENSIONS
 10
32.942562095252441
 20
12.58241908538319
 30
0.0
 11
32.942562095252441
 21
10.95741908538319
 31
0.0
  0
SOLID
  5
CA
  8
DIMENSIONS
 10
33.317562095252441
 20
11.10991908538319
 30
0.0
 11
33.317562095252441
 21
10.98491908538319
 31
0.0
 12
32.942562095252441
 22
11.04741908538319
 32
0.0
 13
32.942562095252441
 23
11.04741908538319
 33
0.0
  0
LINE
  5
CB
  8
CENTER_FOOT_OUTLINE
 10
32.942562095252441
 20
12.67241908538319
 30
0.0
 11
33.105062095252428
 21
12.17241908538319
 31
0.0
  0
LINE
  5
CC
  8
CENTER_FOOT_OUTLINE
 10
33.105062095252428
 20
12.17241908538319
 30
0.0
 11
33.183937095252453
 21
12.17241908538319
 31
0.0
  0
LINE
  5
CD
  8
CENTER_FOOT_OUTLINE
 10
33.183937095252453
 20
12.17241908538319
 30
0.0
 11
33.224562095252423
 21
12.04741908538319
 31
0.0
  0
LINE
  5
CE
  8
DIMENSIONS
 10
23.889828238653561
 20
16.92241908538319
 30
0.0
 11
30.077328238653571
 21
16.92241908538319
 31
0.0
  0
LINE
  5
CF
  8
DIMENSIONS
 10
23.889828238653561
 20
16.92241908538319
 30
0.0
 11
30.077328238653571
 21
16.92241908538319
 31
0.0
  0
ARC
  5
D0
  8
CENTER_ANKLE_OUTLINE
 10
23.799828238653561
 20
16.92241908538319
 30
0.0
 40
0.625
 50
217.47910823402341
 51
322.52089176597661
  0
LINE
  5
D1
  8
CENTER_ANKLE_OUTLINE
 10
26.146584904195439
 20
18.95591908538319
 30
0.0
 11
24.295812776333921
 21
16.54212401786063
 31
0.0
  0
CIRCLE
  5
D2
  8
CENTER_ANKLE_OUTLINE
 10
23.799828238653561
 20
16.92241908538319
 30
0.0
 40
0.25
  0
CIRCLE
  5
D3
  8
CENTER_FOOT_OUTLINE
 10
23.799828238653561
 20
16.92241908538319
 30
0.0
 40
0.25
  0
LINE
  5
D4
  8
CENTER_ANKLE_OUTLINE
 10
27.424828238653561
 20
19.19341908538318
 30
0.0
 11
27.049828238653561
 21
19.080919085383201
 31
0.0
  0
LINE
  5
D5
  8
CENTER_ANKLE_OUTLINE
 10
26.909228238653551
 20
18.95591908538319
 30
0.0
 11
26.424828238653561
 21
18.95591908538319
 31
0.0
  0
LINE
  5
D6
  8
CENTER_ANKLE_OUTLINE
 10
26.393578238653561
 20
18.95591908538319
 30
0.0
 11
26.146584904195439
 21
18.95591908538319
 31
0.0
  0
LINE
  5
D7
  8
CENTER_ANKLE_OUTLINE
 10
26.424828238653561
 20
18.987169085383179
 30
0.0
 11
26.393578238653561
 21
18.987169085383179
 31
0.0
  0
LINE
  5
D8
  8
CENTER_ANKLE_OUTLINE
 10
26.393578238653561
 20
18.95591908538319
 30
0.0
 11
26.393578238653561
 21
18.987169085383179
 31
0.0
  0
LINE
  5
D9
  8
CENTER_ANKLE_OUTLINE
 10
26.424828238653561
 20
18.95591908538319
 30
0.0
 11
26.424828238653561
 21
18.987169085383179
 31
0.0
  0
LINE
  5
DA
  8
CENTER_ANKLE_OUTLINE
 10
27.049828238653561
 20
18.95591908538319
 30
0.0
 11
26.924828238653561
 21
18.95591908538319
 31
0.0
  0
LINE
  5
DB
  8
CENTER_ANKLE_OUTLINE
 10
26.909228238653551
 20
18.971519085383179
 30
0.0
 11
26.924828238653561
 21
18.971519085383179
 31
0.0
  0
LINE
  5
DC
  8
CENTER_ANKLE_OUTLINE
 10
26.909228238653551
 20
18.95591908538319
 30
0.0
 11
26.909228238653551
 21
18.971519085383179
 31
0.0
  0
LINE
  5
DD
  8
CENTER_ANKLE_OUTLINE
 10
26.924828238653561
 20
18.95591908538319
 30
0.0
 11
26.924828238653561
 21
18.971519085383179
 31
0.0
  0
LINE
  5
DE
  8
CENTER_ANKLE_OUTLINE
 10
27.049828238653561
 20
18.95591908538319
 30
0.0
 11
27.049828238653561
 21
19.080919085383201
 31
0.0
  0
LINE
  5
DF
  8
DIMENSIONS
 10
29.987328238653561
 20
16.54741908538319
 30
0.0
 11
29.987328238653561
 21
14.79741908538319
 31
0.0
  0
TEXT
  5
E0
  8
DIMENSIONS
 10
29.237328238653561
 20
14.29741908538319
 30
0.0
 40
0.375
  1
4.875
  0
SOLID
  5
E1
  8
DIMENSIONS
 10
29.924828238653561
 20
17.297419085383179
 30
0.0
 11
30.049828238653561
 21
17.297419085383179
 31
0.0
 12
29.987328238653561
 22
16.92241908538319
 32
0.0
 13
29.987328238653561
 23
16.92241908538319
 33
0.0
  0
SOLID
  5
E2
  8
DIMENSIONS
 10
29.924828238653561
 20
16.54741908538319
 30
0.0
 11
30.049828238653561
 21
16.54741908538319
 31
0.0
 12
29.987328238653561
 22
16.92241908538319
 32
0.0
 13
29.987328238653561
 23
16.92241908538319
 33
0.0
  0
LINE
  5
E3
  8
CENTER_FOOT_OUTLINE
 10
40.042562095252443
 20
12.67241908538319
 30
0.0
 11
39.718767223457547
 21
13.44241908538319
 31
0.0
  0
LINE
  5
E4
  8
DIMENSIONS
 10
39.667562095252428
 20
11.04741908538319
 30
0.0
 11
37.331847809538147
 21
11.04741908538319
 31
0.0
  0
TEXT
  5
E5
  8
DIMENSIONS
 10
35.77827638096673
 20
10.85991908538319
 30
0.0
 40
0.375
  1
7.100
  0
LINE
  5
E6
  8
DIMENSIONS
 10
40.042562095252443
 20
12.58241908538319
 30
0.0
 11
40.042562095252443
 21
10.95741908538319
 31
0.0
  0
SOLID
  5
E7
  8
DIMENSIONS
 10
39.667562095252428
 20
11.10991908538319
 30
0.0
 11
39.667562095252428
 21
10.98491908538319
 31
0.0
 12
40.042562095252443
 22
11.04741908538319
 32
0.0
 13
40.042562095252443
 23
11.04741908538319
 33
0.0
  0
LINE
  5
E8
  8
CENTER_FOOT_OUTLINE
 10
40.042562095252443
 20
12.67241908538319
 30
0.0
 11
39.880062095252441
 21
12.17241908538319
 31
0.0
  0
LINE
  5
E9
  8
CENTER_FOOT_OUTLINE
 10
39.80118709525243
 20
12.17241908538319
 30
0.0
 11
39.880062095252441
 21
12.17241908538319
 31
0.0
  0
LINE
  5
EA
  8
CENTER_FOOT_OUTLINE
 10
39.80118709525243
 20
12.17241908538319
 30
0.0
 11
39.760562095252432
 21
12.04741908538319
 31
0.0
  0
LINE
  5
EB
  8
CENTER_FOOT_OUTLINE
 10
35.99256209525246
 20
17.54741908538319
 30
0.0
 11
35.99256209525246
 21
16.11741908538319
 31
0.0
  0
LINE
  5
EC
  8
CENTER_ANKLE_OUTLINE
 10
35.99256209525246
 20
16.29741908538319
 30
0.0
 11
35.99256209525246
 21
17.825638261140568
 31
0.0
  0
LINE
  5
ED
  8
CENTER_FOOT_OUTLINE
 10
36.992562095252453
 20
17.54741908538319
 30
0.0
 11
36.992562095252453
 21
16.11741908538319
 31
0.0
  0
LINE
  5
EE
  8
CENTER_ANKLE_OUTLINE
 10
36.992562095252453
 20
16.29741908538319
 30
0.0
 11
36.992562095252431
 21
17.825638261140568
 31
0.0
  0
LINE
  5
EF
  8
CENTER_FOOT_OUTLINE
 10
35.99256209525246
 20
16.11741908538319
 30
0.0
 11
36.992562095252453
 21
16.11741908538319
 31
0.0
  0
LINE
  5
F0
  8
CENTER_ANKLE_OUTLINE
 10
35.99256209525246
 20
16.29741908538319
 30
0.0
 11
36.992562095252453
 21
16.29741908538319
 31
0.0
  0
LINE
  5
F1
  8
CENTER_ANKLE_OUTLINE
 10
36.992562095252453
 20
17.825638261140568
 30
0.0
 11
37.805062095252453
 21
17.825638261140561
 31
0.0
  0
LINE
  5
F2
  8
CENTER_FOOT_OUTLINE
 10
36.992562095252453
 20
17.54741908538319
 30
0.0
 11
37.992562095252453
 21
17.54741908538319
 31
0.0
  0
LINE
  5
F3
  8
CENTER_ANKLE_OUTLINE
 10
35.180062095252453
 20
17.825638261140568
 30
0.0
 11
35.180062095252453
 21
19.080719120926108
 31
0.0
  0
LINE
  5
F4
  8
CENTER_ANKLE_OUTLINE
 10
35.180062095252453
 20
17.825638261140568
 30
0.0
 11
35.99256209525246
 21
17.825638261140568
 31
0.0
  0
LINE
  5
F5
  8
CENTER_FOOT_OUTLINE
 10
34.992562095252453
 20
17.54741908538319
 30
0.0
 11
35.99256209525246
 21
17.54741908538319
 31
0.0
  0
LINE
  5
F6
  8
CENTER_ANKLE_OUTLINE
 10
37.805062095252453
 20
17.825638261140561
 30
0.0
 11
37.805062095252453
 21
19.080719120926108
 31
0.0
  0
LINE
  5
F7
  8
CENTER_ANKLE_OUTLINE
 10
33.929062095252419
 20
22.105032241817572
 30
0.0
 11
35.180062095252453
 21
20.318419085383191
 31
0.0
  0
LINE
  5
F8
  8
CENTER_ANKLE_OUTLINE
 10
33.929062095252448
 20
24.318419085383201
 30
0.0
 11
39.056062095252429
 21
24.318419085383201
 31
0.0
  0
LINE
  5
F9
  8
DIMENSIONS
 10
34.304062095252448
 20
25.318419085383201
 30
0.0
 11
35.65327638096673
 21
25.318419085383201
 31
0.0
  0
LINE
  5
FA
  8
DIMENSIONS
 10
27.424828238653561
 20
20.183419085383189
 30
0.0
 11
27.424828238653561
 21
26.408419085383201
 31
0.0
  0
LINE
  5
FB
  8
DIMENSIONS
 10
26.327328238653571
 20
24.318419085383191
 30
0.0
 11
30.077328238653571
 21
24.318419085383191
 31
0.0
  0
LINE
  5
FC
  8
CENTER_ANKLE_OUTLINE
 10
26.237328238653561
 20
20.33091908538319
 30
0.0
 11
26.237328238653561
 21
24.318419085383191
 31
0.0
  0
LINE
  5
FD
  8
CENTER_ANKLE_OUTLINE
 10
27.049828238653561
 20
20.205919085383201
 30
0.0
 11
27.424828238653561
 21
20.093419085383189
 31
0.0
  0
LINE
  5
FE
  8
CENTER_ANKLE_OUTLINE
 10
27.049828238653561
 20
20.205919085383201
 30
0.0
 11
27.049828238653561
 21
20.33091908538319
 31
0.0
  0
LINE
  5
FF
  8
CENTER_ANKLE_OUTLINE
 10
26.909228238653551
 20
20.31531908538318
 30
0.0
 11
26.909228238653551
 21
20.330919085383179
 31
0.0
  0
LINE
  5
100
  8
CENTER_ANKLE_OUTLINE
 10
26.924828238653561
 20
20.31531908538318
 30
0.0
 11
26.924828238653561
 21
20.330919085383179
 31
0.0
  0
LINE
  5
101
  8
CENTER_ANKLE_OUTLINE
 10
26.393578238653561
 20
20.299669085383179
 30
0.0
 11
26.393578238653561
 21
20.330919085383179
 31
0.0
  0
LINE
  5
102
  8
CENTER_ANKLE_OUTLINE
 10
26.424828238653561
 20
20.299669085383179
 30
0.0
 11
26.424828238653561
 21
20.330919085383179
 31
0.0
  0
LINE
  5
103
  8
CENTER_ANKLE_OUTLINE
 10
26.424828238653561
 20
20.299669085383179
 30
0.0
 11
26.393578238653561
 21
20.299669085383179
 31
0.0
  0
LINE
  5
104
  8
CENTER_ANKLE_OUTLINE
 10
26.909228238653551
 20
20.31531908538318
 30
0.0
 11
26.924828238653561
 21
20.31531908538318
 31
0.0
  0
LINE
  5
105
  8
CENTER_ANKLE_OUTLINE
 10
26.909228238653551
 20
20.33091908538319
 30
0.0
 11
26.424828238653561
 21
20.33091908538319
 31
0.0
  0
LINE
  5
106
  8
CENTER_ANKLE_OUTLINE
 10
26.393578238653561
 20
20.33091908538319
 30
0.0
 11
26.237328238653561
 21
20.33091908538319
 31
0.0
  0
LINE
  5
107
  8
CENTER_ANKLE_OUTLINE
 10
27.049828238653561
 20
20.33091908538319
 30
0.0
 11
26.924828238653561
 21
20.33091908538319
 31
0.0
  0
SOLID
  5
108
  8
DIMENSIONS
 10
25.862328238653561
 20
25.380919085383201
 30
0.0
 11
25.862328238653561
 21
25.255919085383201
 31
0.0
 12
26.237328238653561
 22
25.318419085383201
 32
0.0
 13
26.237328238653561
 23
25.318419085383201
 33
0.0
  0
TEXT
  5
109
  8
DIMENSIONS
 10
23.049828238653561
 20
25.130919085383201
 30
0.0
 40
0.375
  1
4.875
  0
LINE
  5
10A
  8
DIMENSIONS
 10
25.862328238653561
 20
25.318419085383201
 30
0.0
 11
24.674828238653561
 21
25.318419085383201
 31
0.0
  0
LINE
  5
10B
  8
DIMENSIONS
 10
26.237328238653561
 20
24.408419085383191
 30
0.0
 11
26.237328238653561
 21
25.408419085383201
 31
0.0
  0
LINE
  5
10C
  8
CENTER_ANKLE_OUTLINE
 10
33.929062095252419
 20
22.105032241817572
 30
0.0
 11
33.929062095252419
 21
24.318419085383201
 31
0.0
  0
LINE
  5
10D
  8
DIMENSIONS
 10
29.987328238653561
 20
23.943419085383191
 30
0.0
 11
29.987328238653561
 21
20.93291908538319
 31
0.0
  0
TEXT
  5
10E
  8
DIMENSIONS
 10
29.246256810082141
 20
20.432919085383201
 30
0.0
 40
0.375
  1
7.396
  0
SOLID
  5
10F
  8
DIMENSIONS
 10
29.924828238653561
 20
23.943419085383191
 30
0.0
 11
30.049828238653561
 21
23.943419085383191
 31
0.0
 12
29.987328238653561
 22
24.318419085383191
 32
0.0
 13
29.987328238653561
 23
24.318419085383191
 33
0.0
  0
LINE
  5
110
  8
DIMENSIONS
 10
33.929062095252448
 20
24.408419085383191
 30
0.0
 11
33.929062095252448
 21
25.408419085383201
 31
0.0
  0
SOLID
  5
111
  8
DIMENSIONS
 10
34.304062095252448
 20
25.380919085383201
 30
0.0
 11
34.304062095252448
 21
25.255919085383201
 31
0.0
 12
33.929062095252448
 22
25.318419085383201
 32
0.0
 13
33.929062095252448
 23
25.318419085383201
 33
0.0
  0
LINE
  5
112
  8
DIMENSIONS
 10
27.049828238653561
 20
26.318419085383201
 30
0.0
 11
24.674828238653561
 21
26.318419085383201
 31
0.0
  0
TEXT
  5
113
  8
DIMENSIONS
 10
23.049828238653561
 20
26.130919085383201
 30
0.0
 40
0.375
  1
7.250
  0
SOLID
  5
114
  8
DIMENSIONS
 10
27.049828238653561
 20
26.380919085383201
 30
0.0
 11
27.049828238653561
 21
26.255919085383201
 31
0.0
 12
27.424828238653561
 22
26.318419085383201
 32
0.0
 13
27.424828238653561
 23
26.318419085383201
 33
0.0
  0
LINE
  5
115
  8
CENTER_ANKLE_OUTLINE
 10
39.056062095252429
 20
22.105032241817572
 30
0.0
 11
39.056062095252429
 21
24.318419085383201
 31
0.0
  0
LINE
  5
116
  8
CENTER_ANKLE_OUTLINE
 10
35.180062095252453
 20
20.206119049840272
 30
0.0
 11
35.180062095252453
 21
20.318419085383191
 31
0.0
  0
LINE
  5
117
  8
CENTER_ANKLE_OUTLINE
 10
37.805062095252453
 20
20.318419085383191
 30
0.0
 11
39.056062095252429
 21
22.105032241817572
 31
0.0
  0
LINE
  5
118
  8
CENTER_ANKLE_OUTLINE
 10
37.805062095252453
 20
20.206119049840272
 30
0.0
 11
37.805062095252453
 21
20.318419085383201
 31
0.0
  0
LINE
  5
119
  8
DIMENSIONS
 10
38.681062095252429
 20
25.318419085383201
 30
0.0
 11
37.331847809538147
 21
25.318419085383201
 31
0.0
  0
TEXT
  5
11A
  8
DIMENSIONS
 10
35.77827638096673
 20
25.130919085383201
 30
0.0
 40
0.375
  1
5.127
  0
LINE
  5
11B
  8
DIMENSIONS
 10
39.056062095252429
 20
24.408419085383191
 30
0.0
 11
39.056062095252429
 21
25.408419085383201
 31
0.0
  0
SOLID
  5
11C
  8
DIMENSIONS
 10
38.681062095252429
 20
25.380919085383201
 30
0.0
 11
38.681062095252429
 21
25.255919085383201
 31
0.0
 12
39.056062095252429
 22
25.318419085383201
 32
0.0
 13
39.056062095252429
 23
25.318419085383201
 33
0.0
  0
LINE
  5
1A2
  8
CENTER_FOOT_OUTLINE
 10
33.515356967047332
 20
16.56741908538319
 30
0.0
 11
34.58045953114987
 21
16.56741908538319
 31
0.0
  0
LINE
  5
1A7
  8
CENTER_FOOT_OUTLINE
 10
33.515356967047332
 20
16.56741908538319
 30
0.0
 11
33.134356967047303
 21
13.59241908538319
 31
0.0
  0
LINE
  5
1AA
  8
CENTER_FOOT_OUTLINE
 10
33.134356967047303
 20
13.59241908538319
 30
0.0
 11
33.266356967047301
 21
13.44241908538319
 31
0.0
  0
LINE
  5
1AD
  8
CENTER_FOOT_OUTLINE
 10
39.469767223457552
 20
16.56741908538319
 30
0.0
 11
38.404664659355007
 21
16.56741908538319
 31
0.0
  0
LINE
  5
1AE
  8
CENTER_FOOT_OUTLINE
 10
39.469767223457552
 20
16.56741908538319
 30
0.0
 11
39.850767223457552
 21
13.59241908538319
 31
0.0
  0
LINE
  5
1AF
  8
CENTER_FOOT_OUTLINE
 10
39.850767223457552
 20
13.59241908538319
 30
0.0
 11
39.718767223457547
 21
13.44241908538319
 31
0.0
  0
LINE
  5
1B0
  8
CENTER_FOOT_OUTLINE
 10
38.404664659355007
 20
16.56741908538319
 30
0.0
 11
37.992562095252453
 21
17.54741908538319
 31
0.0
  0
LINE
  5
1B1
  8
CENTER_FOOT_OUTLINE
 10
34.58045953114987
 20
16.56741908538319
 30
0.0
 11
34.992562095252453
 21
17.54741908538319
 31
0.0
  0
TEXT
  5
739
  8
0
  6
CONTINUOUS
 10
100.945471505648
 20
20.670951978555951
 30
0.0
 40
0.12
  1
 
 51
7.0
  0
TEXT
  5
73A
  8
0
  6
CONTINUOUS
 10
113.3895682711279
 20
27.733826408287602
 30
0.0
 40
0.24
  1
 
 51
7.0
  0
TEXT
  5
73B
  8
0
  6
CONTINUOUS
 10
122.5993332830412
 20
27.413816421710521
 30
0.0
 40
0.24
  1
 
 51
7.0
  0
TEXT
  5
73C
  8
0
  6
CONTINUOUS
 10
132.40329276747391
 20
10.551235622183199
 30
0.0
 40
0.24
  1
 
 51
7.0
  0
LINE
  5
753
  8
FORM
 10
43.041208788750033
 20
1.2738095237500171
 30
0.0
 11
43.041208788750033
 21
30.47619047625
 31
0.0
  0
LINE
  5
754
  8
FORM
 10
42.726190473750037
 20
30.79120879125
 30
0.0
 11
1.2738095237500311
 21
30.79120879125
 31
0.0
  0
LINE
  5
755
  8
FORM
 10
42.726190473750037
 20
0.9587912087500357
 30
0.0
 11
1.2738095237500311
 21
0.9587912087500178
 31
0.0
  0
LINE
  5
756
  8
FORM
 10
0.9587912087500569
 20
1.2738095237500171
 30
0.0
 11
0.9587912087500569
 21
30.47619047625
 31
0.0
  0
TEXT
  5
757
  8
FORM
 10
36.20368727528799
 20
5.206275420631246
 30
0.0
 40
0.5334392170019531
  1
CENTER LEG
 72
     1
 11
38.616864685534921
 21
5.206275420631246
 31
0.0
  0
TEXT
  5
758
  8
FORM
 10
35.987771401739579
 20
4.0776460783213357
 30
0.0
 40
0.5334392170019531
  1
OUTLINE DWG
 72
     1
 11
38.616864685534921
 21
4.0776460783213357
 31
0.0
  0
TEXT
  5
759
  8
FORM
 10
33.49885480611826
 20
2.0268467705730191
 30
0.0
 40
0.5334392170019531
  1
ASTROMECH DROID
  0
TEXT
  5
75A
  8
FORM
 10
41.921886517477049
 20
2.0475849221067111
 30
0.0
 40
0.5334392170019531
  1
A
  0
TEXT
  5
75B
  8
FORM
 10
34.544847194814992
 20
1.4041843246072041
 30
0.0
 40
0.2133756868007812
  1
FULL
  0
TEXT
  5
75C
  8
FORM
 10
41.38147923468091
 20
1.4101568300009391
 30
0.0
 40
0.2133756868007812
  1
1   1
  0
TEXT
  5
75D
  8
FORM
 10
37.847479070745841
 20
1.4266399292710359
 30
0.0
 40
0.2133756868007812
  1
APRIL 2005
 72
     2
 11
39.696735023019272
 21
1.4266399292710359
 31
0.0
  0
TEXT
  5
75E
  8
FORM
  6
CONTINUOUS
 10
36.314742892209921
 20
1.4244931442114459
 30
0.0
 40
0.184356593395875
  1
DRAWN:
  0
TEXT
  5
75F
  8
FORM
  6
CONTINUOUS
 10
33.461092438516573
 20
1.424666026206864
 30
0.0
 40
0.184356593395875
  1
SCALE:
  0
TEXT
  5
760
  8
FORM
  6
CONTINUOUS
 10
40.203435321383573
 20
1.422355711558928
 30
0.0
 40
0.184356593395875
  1
SHEET:   OF
  0
TEXT
  5
761
  8
FORM
  6
CONTINUOUS
 10
33.124433620069567
 20
2.8869297159639369
 30
0.0
 40
0.184356593395875
  1
DRAWING NO.
  0
TEXT
  5
762
  8
FORM
  6
CONTINUOUS
 10
41.850448103669237
 20
2.886929715963916
 30
0.0
 40
0.184356593395875
  1
REV.
 72
     1
 11
42.12259355106314
 21
2.886929715963916
 31
0.0
  0
LINE
  5
763
  8
FORM
  6
CONTINUOUS
 10
33.416182507258391
 20
6.6201507322303881
 30
0.0
 11
42.265298990260362
 21
6.6201507322303881
 31
0.0
  0
LINE
  5
764
  8
FORM
  6
CONTINUOUS
 10
32.955291023768702
 20
1.7347010072396991
 30
0.0
 11
32.955291023768673
 21
6.1592592487406881
 31
0.0
  0
LINE
  5
765
  8
FORM
  6
CONTINUOUS
 10
32.955291023768702
 20
3.1634646060577292
 30
0.0
 11
42.726190473750037
 21
3.1634646060577292
 31
0.0
  0
LINE
  5
766
  8
FORM
  6
CONTINUOUS
 10
32.955291023768702
 20
1.7347010072396991
 30
0.0
 11
42.726190473750037
 21
1.7347010072396991
 31
0.0
  0
LINE
  5
767
  8
FORM
  6
CONTINUOUS
 10
36.026467742539118
 20
1.7347010072396991
 30
0.0
 11
36.026467742539118
 21
1.2738095237500171
 31
0.0
  0
LINE
  5
768
  8
FORM
  6
CONTINUOUS
 10
40.065167876336659
 20
1.729027325745029
 30
0.0
 11
40.065167876336659
 21
1.2681358422553499
 31
0.0
  0
LINE
  5
769
  8
FORM
  6
CONTINUOUS
 10
41.508364231032488
 20
3.1634646060577292
 30
0.0
 11
41.508364231032488
 21
1.7347010072396991
 31
0.0
  0
ARC
  5
76A
  8
FORM
 62
     5
 10
33.87147454402632
 20
5.2321095419160519
 30
0.0
 40
0.0502653185952511
 50
152.18113099770551
 51
330.99098814993278
  0
ARC
  5
76B
  8
FORM
 62
     5
 10
34.089053834359703
 20
5.6511194128146256
 30
0.0
 40
0.0440746975210158
 50
335.32315363464198
 51
152.6722492633038
  0
ARC
  5
76C
  8
FORM
 62
     5
 10
37.446185313816841
 20
3.5831642172472651
 30
0.0
 40
3.9868910433295368
 50
148.41494327216151
 51
155.19852313243231
  0
ARC
  5
76D
  8
FORM
 62
     5
 10
38.217878471693133
 20
3.3107972970714812
 30
0.0
 40
4.7020631235383759
 50
150.40875710206339
 51
156.20744757951141
  0
ARC
  5
76E
  8
FORM
 62
     7
 10
33.729336717812117
 20
4.809826363179055
 30
0.0
 40
0.0671652552709891
 50
161.128725237971
 51
346.89295927401372
  0
ARC
  5
76F
  8
FORM
 62
     7
 10
53.367628910278228
 20
-3.6725418745125959
 30
0.0
 40
21.325803943529628
 50
153.58307292081321
 51
156.60691138966209
  0
ARC
  5
770
  8
FORM
 62
     7
 10
50.287568040148528
 20
-2.5644941525072609
 30
0.0
 40
18.16984879940825
 50
152.34095999775931
 51
152.9694116127464
  0
ARC
  5
771
  8
FORM
 62
     7
 10
50.4912451127324
 20
-3.156319562177472
 30
0.0
 40
18.62531302696754
 50
153.3711283527573
 51
154.6040219565534
  0
ARC
  5
772
  8
FORM
 62
     7
 10
34.698291427850847
 20
5.5948289454909697
 30
0.0
 40
0.4829018868449606
 50
23.46872592819097
 51
88.151617587883351
  0
ARC
  5
773
  8
FORM
 62
     7
 10
34.709083940719118
 20
5.6259614939592311
 30
0.0
 40
0.5699591598814008
 50
18.23262529566556
 51
154.63608874642691
  0
ARC
  5
774
  8
FORM
 62
     7
 10
34.879850029644359
 20
5.6853693813860771
 30
0.0
 40
0.3891907917568549
 50
336.99722732837881
 51
341.11190659806488
  0
ARC
  5
775
  8
FORM
 62
     7
 10
34.902997868184677
 20
5.7025814422175776
 30
0.0
 40
0.254907880192607
 50
333.24704424527522
 51
339.12675173356178
  0
ARC
  5
776
  8
FORM
 62
     7
 10
35.144104528932502
 20
5.5822157374328816
 30
0.0
 40
0.0146095491322771
 50
157.37475902115841
 51
243.18317341424029
  0
ARC
  5
777
  8
FORM
 62
     7
 10
35.230394320055893
 20
5.5355566237182643
 30
0.0
 40
0.0080289822227516
 50
246.7423667985764
 51
343.55073793579641
  0
ARC
  5
778
  8
FORM
 62
     7
 10
35.483045306224852
 20
6.206619545503723
 30
0.0
 40
0.7250687320987334
 50
241.5396617947477
 51
249.33988332022491
  0
ARC
  5
779
  8
FORM
 62
     7
 10
34.9761916897763
 20
5.437699301377072
 30
0.0
 40
0.1431349662916394
 50
210.28645373052609
 51
287.25915125833183
  0
ARC
  5
77A
  8
FORM
 62
     7
 10
34.988490180963971
 20
5.3758026207478622
 30
0.0
 40
0.0806485752183996
 50
291.96730232828992
 51
10.20108836223371
  0
ARC
  5
77B
  8
FORM
 62
     7
 10
34.351109148169911
 20
5.2378626299468207
 30
0.0
 40
0.5174748205137182
 50
14.28109924276106
 51
24.94726153987823
  0
ARC
  5
77C
  8
FORM
 62
     7
 10
34.652931196600349
 20
5.3946009655135461
 30
0.0
 40
0.1783202582618736
 50
20.183063788867571
 51
47.833846572520187
  0
ARC
  5
77D
  8
FORM
 62
     7
 10
34.68626748438794
 20
5.3042778782011162
 30
0.0
 40
0.2386691757260289
 50
68.784960310907422
 51
94.742087985452599
  0
ARC
  5
77E
  8
FORM
 62
     7
 10
34.683670685861422
 20
5.4453282315651172
 30
0.0
 40
0.0983065334463515
 50
100.0375073429591
 51
170.98475346238999
  0
ARC
  5
77F
  8
FORM
 62
     7
 10
35.146068355737611
 20
5.3773748188028661
 30
0.0
 40
0.5656654008735983
 50
171.52589863719891
 51
197.494741096675
  0
ARC
  5
780
  8
FORM
 62
     7
 10
34.765023896344701
 20
5.3853778011441547
 30
0.0
 40
0.3028765796636133
 50
0.8906501289531732
 51
49.113860192417143
  0
ARC
  5
781
  8
FORM
 62
     7
 10
34.70121788145687
 20
5.440931581139246
 30
0.0
 40
0.2383845564631639
 50
99.869748807366761
 51
175.59516845025641
  0
ARC
  5
782
  8
FORM
 62
     7
 10
34.74420142096708
 20
5.3116713199521888
 30
0.0
 40
0.373645463646239
 50
54.104282451028212
 51
102.9674010870567
  0
ARC
  5
783
  8
FORM
 62
     7
 10
35.798737905561808
 20
5.5339824388112886
 30
0.0
 40
1.236112335596137
 50
195.32307896217739
 51
209.2908431569582
  0
ARC
  5
784
  8
FORM
 62
     7
 10
35.409798509503133
 20
5.3313058202242232
 30
0.0
 40
0.9548702630443076
 50
172.3003020759547
 51
200.12627387409299
  0
ARC
  5
785
  8
FORM
 62
     7
 10
36.092512265563222
 20
5.5978118396088368
 30
0.0
 40
1.6876668147324001
 50
200.64629086238159
 51
210.04649609044401
  0
ARC
  5
786
  8
FORM
 62
     7
 10
33.767672563649661
 20
4.2896718057212553
 30
0.0
 40
1.147702755465478
 50
28.43194910738443
 51
33.865461133002469
  0
ARC
  5
787
  8
FORM
 62
     7
 10
34.710340361681631
 20
4.7838977609262834
 30
0.0
 40
0.0846287925897855
 50
201.5644604264042
 51
38.094090168146302
  0
ARC
  5
788
  8
FORM
 62
     5
 10
35.454047505527257
 20
5.486987961477829
 30
0.0
 40
0.0470753373534298
 50
227.6202696593605
 51
57.41211292120402
  0
ARC
  5
789
  8
FORM
 62
     5
 10
34.898862200054367
 20
4.7627373277749214
 30
0.0
 40
0.9594749055071699
 50
52.766851639305919
 51
65.063571515457895
  0
ARC
  5
78A
  8
FORM
 62
     5
 10
34.452241791275902
 20
4.0702703323560518
 30
0.0
 40
1.6884350682882729
 50
54.932512589538803
 51
74.152868438598929
  0
ARC
  5
78B
  8
FORM
 62
     5
 10
34.476586052909433
 20
3.568319054466826
 30
0.0
 40
2.1706024175541438
 50
78.393012355262385
 51
89.647961077025343
  0
ARC
  5
78C
  8
FORM
 62
     5
 10
34.486274868053272
 20
5.8018806593051897
 30
0.0
 40
0.0631056771236446
 50
183.9979944211656
 51
273.313807745882
  0
ARC
  5
78D
  8
FORM
 62
     5
 10
34.69925842788092
 20
5.818551646751942
 30
0.0
 40
0.2767389970018709
 50
145.6085916691928
 51
184.36670732083471
  0
ARC
  5
78E
  8
FORM
 62
     5
 10
34.528989583128613
 20
5.938129286098885
 30
0.0
 40
0.0687363070342985
 50
75.244714174009715
 51
147.6929850116162
  0
ARC
  5
78F
  8
FORM
 62
     5
 10
33.709635982728827
 20
2.7936800480859851
 30
0.0
 40
3.3181823868519218
 50
61.63724224152525
 51
75.392005557716686
  0
ARC
  5
790
  8
FORM
 62
     5
 10
35.223247228975197
 20
5.6577302519658508
 30
0.0
 40
0.0839396329354631
 50
342.6982574268402
 51
41.67278378767756
  0
ARC
  5
791
  8
FORM
 62
     7
 10
34.879850029644359
 20
5.6853693813860771
 30
0.0
 40
0.3891907917568549
 50
5.6380312699922861
 51
17.791456368736871
  0
ARC
  5
792
  8
FORM
 62
     7
 10
35.056960777687777
 20
3.851378580987717
 30
0.0
 40
0.12453779538235
 50
88.432533024773406
 51
186.62631613112151
  0
ARC
  5
793
  8
FORM
 62
     7
 10
35.076506660735483
 20
3.8773458445585289
 30
0.0
 40
0.1488228018527408
 50
195.7266305128272
 51
285.3806868435185
  0
ARC
  5
794
  8
FORM
 62
     7
 10
34.901004024005353
 20
5.1943718606735914
 30
0.0
 40
1.4762551210247881
 50
278.37329371359471
 51
293.15208507016871
  0
ARC
  5
795
  8
FORM
 62
     7
 10
35.396287821393123
 20
4.2652099364179641
 30
0.0
 40
0.3044715687368376
 50
257.51805604168283
 51
277.23103351305667
  0
ARC
  5
796
  8
FORM
 62
     7
 10
35.413358675393567
 20
4.0150829003075179
 30
0.0
 40
0.0561042920902449
 50
292.26031345923337
 51
12.86737930052367
  0
ARC
  5
797
  8
FORM
 62
     7
 10
35.371642472469631
 20
4.0070394983254651
 30
0.0
 40
0.0985747940549809
 50
12.0253755273956
 51
52.143631645159317
  0
ARC
  5
798
  8
FORM
 62
     7
 10
37.473498217784197
 20
6.5612572579000981
 30
0.0
 40
3.209307639712156
 50
219.60277928185971
 51
230.5002020408055
  0
ARC
  5
799
  8
FORM
 62
     7
 10
35.492352051740113
 20
4.9001252642901667
 30
0.0
 40
0.6241927637443375
 50
175.97523115435061
 51
218.04500009534141
  0
ARC
  5
79A
  8
FORM
 62
     7
 10
35.227786425660071
 20
4.9628053673500361
 30
0.0
 40
0.3585845725200827
 50
149.96078860476399
 51
183.01641230856191
  0
ARC
  5
79B
  8
FORM
 62
     7
 10
34.977287653388522
 20
5.1103132875677204
 30
0.0
 40
0.0679295281984907
 50
69.764209445538683
 51
151.89881904551129
  0
ARC
  5
79C
  8
FORM
 62
     7
 10
34.969273382641433
 20
5.1056960066620496
 30
0.0
 40
0.0752672049169095
 50
357.6694469744499
 51
65.251102439515421
  0
ARC
  5
79D
  8
FORM
 62
     7
 10
34.791927087049523
 20
5.0911418605530789
 30
0.0
 40
0.2528126373579358
 50
345.36193237678458
 51
2.6056939300727819
  0
ARC
  5
79E
  8
FORM
 62
     7
 10
35.602090445328571
 20
4.8523853508412031
 30
0.0
 40
0.5919738308518
 50
162.81861830880729
 51
185.35496664157321
  0
ARC
  5
79F
  8
FORM
 62
     7
 10
35.536094847929149
 20
4.9117694628322139
 30
0.0
 40
0.5358004355611984
 50
192.3534994193023
 51
222.3020476696031
  0
ARC
  5
7A0
  8
FORM
 62
     7
 10
37.381905568116622
 20
6.3998094049418546
 30
0.0
 40
2.905942571467353
 50
219.50633019139829
 51
228.42762303996261
  0
ARC
  5
7A1
  8
FORM
 62
     7
 10
35.140069253353403
 20
3.7985267963051679
 30
0.0
 40
0.5299960685152594
 50
32.971129457978869
 51
53.728419363024372
  0
ARC
  5
7A2
  8
FORM
 62
     7
 10
35.427463202400332
 20
4.005618684982891
 30
0.0
 40
0.1770362522386045
 50
287.74749415951351
 51
27.352111896629431
  0
ARC
  5
7A3
  8
FORM
 62
     7
 10
35.16259474257626
 20
2.8543408356064179
 30
0.0
 40
1.126178313661536
 50
81.426570944510217
 51
95.208118001959775
  0
ARC
  5
7A4
  8
FORM
 62
     7
 10
34.676472279440532
 20
4.609856792041171
 30
0.0
 40
0.0501357382491115
 50
325.52447187114319
 51
75.340502228459755
  0
ARC
  5
7A5
  8
FORM
 62
     7
 10
34.614701276196087
 20
4.6552100511053531
 30
0.0
 40
0.1267533236926462
 50
277.78730616127859
 51
324.42957968808531
  0
ARC
  5
7A6
  8
FORM
 62
     7
 10
34.592284758986892
 20
4.6762898657927741
 30
0.0
 40
0.1519139349688822
 50
243.48581874200181
 51
285.1065744639306
  0
ARC
  5
7A7
  8
FORM
 62
     7
 10
27.8731096997513
 20
-12.4932993511666
 30
0.0
 40
18.45638048052642
 50
68.327181839257534
 51
70.606105230637283
  0
ARC
  5
7A8
  8
FORM
 62
     7
 10
33.988713934221749
 20
4.8617714816310453
 30
0.0
 40
0.055607435478502
 50
76.445232091872313
 51
134.36352227876461
  0
ARC
  5
7A9
  8
FORM
 62
     7
 10
34.23594587733399
 20
4.4813881185518483
 30
0.0
 40
0.5083077403466757
 50
124.2547762008316
 51
135.012931962436
  0
ARC
  5
7AA
  8
FORM
 62
     7
 10
33.885979744632088
 20
4.8245660322519264
 30
0.0
 40
0.0187748724828842
 50
120.5491196217084
 51
251.48388650457539
  0
ARC
  5
7AB
  8
FORM
 62
     7
 10
31.35955469354608
 20
-2.20296417031589
 30
0.0
 40
7.4490944355826798
 50
64.85742894317822
 51
67.515132469299331
  0
ARC
  5
7AC
  8
FORM
 62
     7
 10
34.507034475662408
 20
4.4308185510845446
 30
0.0
 40
0.0703300633564829
 50
329.18566117941782
 51
69.52715124986382
  0
ARC
  5
7AD
  8
FORM
 62
     7
 10
34.322528644875717
 20
4.1521399941366823
 30
0.0
 40
0.403051872176304
 50
58.747973844557542
 51
81.106226592028094
  0
ARC
  5
7AE
  8
FORM
 62
     7
 10
34.279653491663879
 20
3.8849497208938919
 30
0.0
 40
0.673659077744691
 50
81.016817915507374
 51
97.679603827268224
  0
ARC
  5
7AF
  8
FORM
 62
     7
 10
34.350555487554203
 20
4.0873869344785581
 30
0.0
 40
0.4997006452258542
 50
121.5050128230593
 51
139.09578810607039
  0
ARC
  5
7B0
  8
FORM
 62
     7
 10
34.486213611380663
 20
4.4200913009569014
 30
0.0
 40
0.0850716575372725
 50
277.70569210516868
 51
342.69880024124097
  0
ARC
  5
7B1
  8
FORM
 62
     7
 10
34.46010433022056
 20
4.5160817648663851
 30
0.0
 40
0.184155782182425
 50
250.08394506358289
 51
281.75453717228322
  0
ARC
  5
7B2
  8
FORM
 62
     7
 10
34.52027170146647
 20
4.5372247072865122
 30
0.0
 40
0.2298928288403392
 50
221.18187885427241
 51
237.68378775985289
  0
ARC
  5
7B3
  8
FORM
 62
     7
 10
34.250649510747913
 20
4.2707129138400566
 30
0.0
 40
0.1502941988903953
 50
50.003848755011681
 51
75.5416830098399
  0
ARC
  5
7B4
  8
FORM
 62
     7
 10
34.242700079187699
 20
4.3251886965059541
 30
0.0
 40
0.101781928913435
 50
63.4626603498468
 51
100.74200229027051
  0
ARC
  5
7B5
  8
FORM
 62
     7
 10
34.223729261234951
 20
4.2529656105913531
 30
0.0
 40
0.1722214314986379
 50
89.999999999999588
 51
125.5974615489027
  0
ARC
  5
7B6
  8
FORM
 62
     7
 10
36.266687671707359
 20
5.4819654875490791
 30
0.0
 40
2.382967543868022
 50
197.51922498184919
 51
203.981481444731
  0
ARC
  5
7B7
  8
FORM
 62
     7
 10
33.485249637949607
 20
4.721360124868851
 30
0.0
 40
0.7243225282346643
 50
346.52409876011302
 51
356.71498770316703
  0
ARC
  5
7B8
  8
FORM
 62
     7
 10
31.35955469354608
 20
-2.20296417031589
 30
0.0
 40
7.4490944355826798
 50
69.286600818944066
 51
70.22311760076802
  0
ARC
  5
7B9
  8
FORM
 62
     7
 10
33.876169922815478
 20
4.0909024975958621
 30
0.0
 40
0.2184269840063441
 50
245.40259669902051
 51
275.40975098180542
  0
ARC
  5
7BA
  8
FORM
 62
     7
 10
34.642070270288428
 20
3.6967673023805361
 30
0.0
 40
0.8681469610074701
 50
126.68044463040199
 51
139.78708822539889
  0
ARC
  5
7BB
  8
FORM
 62
     7
 10
33.872083832704959
 20
4.7053139576373191
 30
0.0
 40
0.832231548816698
 50
271.69929119420118
 51
283.39540842056908
  0
ARC
  5
7BC
  8
FORM
 62
     7
 10
35.428271851831568
 20
2.78470176044189
 30
0.0
 40
2.0660410796836941
 50
134.5410403491789
 51
138.91474429089911
  0
ARC
  5
7BD
  8
FORM
 62
     7
 10
33.906328645442898
 20
4.1130944325259122
 30
0.0
 40
0.0546567449796842
 50
201.8252958964795
 51
267.16449786715452
  0
ARC
  5
7BE
  8
FORM
 62
     7
 10
33.894562313202023
 20
4.107909022344443
 30
0.0
 40
0.0418082902229875
 50
124.254854327418
 51
201.22329273937871
  0
ARC
  5
7BF
  8
FORM
 62
     7
 10
34.021864770200096
 20
4.0738934856997728
 30
0.0
 40
0.1832903804675856
 50
283.5751770312794
 51
324.58969283639942
  0
ARC
  5
7C0
  8
FORM
 62
     7
 10
34.126398977664167
 20
3.986597707801109
 30
0.0
 40
0.0486742756789315
 50
337.14160324238748
 51
47.564966708928338
  0
ARC
  5
7C1
  8
FORM
 62
     7
 10
34.051479433347943
 20
3.879563609001575
 30
0.0
 40
0.1790243893656499
 50
52.990730681111621
 51
91.748895977531333
  0
ARC
  5
7C2
  8
FORM
 62
     7
 10
33.97482029636015
 20
4.5445147233887013
 30
0.0
 40
0.4911971362770459
 50
261.66603807207321
 51
278.33396192792679
  0
ARC
  5
7C3
  8
FORM
 62
     7
 10
33.827351328547081
 20
3.9976720327520212
 30
0.0
 40
0.1134738832821913
 50
192.64550774538381
 51
248.2223967256862
  0
ARC
  5
7C4
  8
FORM
 62
     7
 10
33.799462642063048
 20
4.0105271566674361
 30
0.0
 40
0.0910070849768819
 50
178.88427582775449
 51
204.46998391858131
  0
ARC
  5
7C5
  8
FORM
 62
     7
 10
34.024590384061071
 20
3.9875275917867858
 30
0.0
 40
0.3170866660790294
 50
140.54690015149379
 51
175.51933831911609
  0
ARC
  5
7C6
  8
FORM
 62
     7
 10
37.147786536650841
 20
1.5008787794887259
 30
0.0
 40
4.3092627289205483
 50
137.45643980933039
 51
141.40545593619061
  0
POLYLINE
  5
7C7
  8
FORM
 62
     1
 10
34.588179408120517
 20
5.9634267402830048
 30
0.0
 66
     1
 70
     8
  0
VERTEX
  8
FORM
  5
AB5
 10
34.5882
 20
5.96343
 30
0.000000
  70
    32
  0
VERTEX
  8
FORM
  5
AB6
 10
34.5863
 20
5.96413
 30
0.000000
  70
    32
  0
VERTEX
  8
FORM
  5
AB7
 10
34.5843
 20
5.96461
 30
0.000000
  70
    32
  0
VERTEX
  8
FORM
  5
AB8
 10
34.5822
 20
5.96487
 30
0.000000
  70
    32
  0
VERTEX
  8
FORM
  5
AB9
 10
34.5800
 20
5.96490
 30
0.000000
  70
    32
  0
VERTEX
  8
FORM
  5
ABA
 10
34.5778
 20
5.96471
 30
0.000000
  70
    32
  0
VERTEX
  8
FORM
  5
ABB
 10
34.5754
 20
5.96429
 30
0.000000
  70
    32
  0
VERTEX
  8
FORM
  5
ABC
 10
34.5731
 20
5.96365
 30
0.000000
  70
    32
  0
VERTEX
  8
FORM
  5
ABD
 10
34.5706
 20
5.96279
 30
0.000000
  70
    32
  0
VERTEX
  8
FORM
  5
ABE
 10
34.5681
 20
5.96170
 30
0.000000
  70
    32
  0
VERTEX
  8
FORM
  5
ABF
 10
34.5656
 20
5.96040
 30
0.000000
  70
    32
  0
VERTEX
  8
FORM
  5
AC0
 10
34.5630
 20
5.95889
 30
0.000000
  70
    32
  0
VERTEX
  8
FORM
  5
AC1
 10
34.5603
 20
5.95716
 30
0.000000
  70
    32
  0
VERTEX
  8
FORM
  5
AC2
 10
34.5577
 20
5.95523
 30
0.000000
  70
    32
  0
VERTEX
  8
FORM
  5
AC3
 10
34.5550
 20
5.95309
 30
0.000000
  70
    32
  0
VERTEX
  8
FORM
  5
AC4
 10
34.5523
 20
5.95076
 30
0.000000
  70
    32
  0
VERTEX
  8
FORM
  5
AC5
 10
34.5496
 20
5.94824
 30
0.000000
  70
    32
  0
VERTEX
  8
FORM
  5
AC6
 10
34.5468
 20
5.94553
 30
0.000000
  70
    32
  0
VERTEX
  8
FORM
  5
AC7
 10
34.5441
 20
5.94264
 30
0.000000
  70
    32
  0
VERTEX
  8
FORM
  5
AC8
 10
34.5414
 20
5.93959
 30
0.000000
  70
    32
  0
VERTEX
  8
FORM
  5
AC9
 10
34.5387
 20
5.93636
 30
0.000000
  70
    32
  0
VERTEX
  8
FORM
  5
ACA
 10
34.5361
 20
5.93299
 30
0.000000
  70
    32
  0
VERTEX
  8
FORM
  5
ACB
 10
34.5334
 20
5.92946
 30
0.000000
  70
    32
  0
VERTEX
  8
FORM
  5
ACC
 10
34.5308
 20
5.92579
 30
0.000000
  70
    32
  0
VERTEX
  8
FORM
  5
ACD
 10
34.5282
 20
5.92199
 30
0.000000
  70
    32
  0
VERTEX
  8
FORM
  5
ACE
 10
34.5257
 20
5.91807
 30
0.000000
  70
    32
  0
VERTEX
  8
FORM
  5
ACF
 10
34.5233
 20
5.91404
 30
0.000000
  70
    32
  0
VERTEX
  8
FORM
  5
AD0
 10
34.5209
 20
5.90991
 30
0.000000
  70
    32
  0
VERTEX
  8
FORM
  5
AD1
 10
34.5185
 20
5.90568
 30
0.000000
  70
    32
  0
VERTEX
  8
FORM
  5
AD2
 10
34.5162
 20
5.90137
 30
0.000000
  70
    32
  0
VERTEX
  8
FORM
  5
AD3
 10
34.5140
 20
5.89699
 30
0.000000
  70
    32
  0
VERTEX
  8
FORM
  5
AD4
 10
34.5119
 20
5.89254
 30
0.000000
  70
    32
  0
VERTEX
  8
FORM
  5
AD5
 10
34.5099
 20
5.88805
 30
0.000000
  70
    32
  0
VERTEX
  8
FORM
  5
AD6
 10
34.5080
 20
5.88352
 30
0.000000
  70
    32
  0
VERTEX
  8
FORM
  5
AD7
 10
34.5061
 20
5.87895
 30
0.000000
  70
    32
  0
VERTEX
  8
FORM
  5
AD8
 10
34.5044
 20
5.87437
 30
0.000000
  70
    32
  0
VERTEX
  8
FORM
  5
AD9
 10
34.5028
 20
5.86978
 30
0.000000
  70
    32
  0
VERTEX
  8
FORM
  5
ADA
 10
34.5012
 20
5.86520
 30
0.000000
  70
    32
  0
VERTEX
  8
FORM
  5
ADB
 10
34.4998
 20
5.86063
 30
0.000000
  70
    32
  0
VERTEX
  8
FORM
  5
ADC
 10
34.4985
 20
5.85608
 30
0.000000
  70
    32
  0
VERTEX
  8
FORM
  5
ADD
 10
34.4973
 20
5.85158
 30
0.000000
  70
    32
  0
VERTEX
  8
FORM
  5
ADE
 10
34.4963
 20
5.84712
 30
0.000000
  70
    32
  0
VERTEX
  8
FORM
  5
ADF
 10
34.4953
 20
5.84272
 30
0.000000
  70
    32
  0
VERTEX
  8
FORM
  5
AE0
 10
34.4945
 20
5.83838
 30
0.000000
  70
    32
  0
VERTEX
  8
FORM
  5
AE1
 10
34.4938
 20
5.83413
 30
0.000000
  70
    32
  0
VERTEX
  8
FORM
  5
AE2
 10
34.4933
 20
5.82997
 30
0.000000
  70
    32
  0
VERTEX
  8
FORM
  5
AE3
 10
34.4929
 20
5.82591
 30
0.000000
  70
    32
  0
VERTEX
  8
FORM
  5
AE4
 10
34.4926
 20
5.82195
 30
0.000000
  70
    32
  0
VERTEX
  8
FORM
  5
AE5
 10
34.4924
 20
5.81812
 30
0.000000
  70
    32
  0
VERTEX
  8
FORM
  5
AE6
 10
34.4924
 20
5.81442
 30
0.000000
  70
    32
  0
VERTEX
  8
FORM
  5
AE7
 10
34.4925
 20
5.81085
 30
0.000000
  70
    32
  0
VERTEX
  8
FORM
  5
AE8
 10
34.4928
 20
5.80743
 30
0.000000
  70
    32
  0
VERTEX
  8
FORM
  5
AE9
 10
34.4931
 20
5.80416
 30
0.000000
  70
    32
  0
VERTEX
  8
FORM
  5
AEA
 10
34.4937
 20
5.80105
 30
0.000000
  70
    32
  0
VERTEX
  8
FORM
  5
AEB
 10
34.4943
 20
5.79812
 30
0.000000
  70
    32
  0
VERTEX
  8
FORM
  5
AEC
 10
34.4951
 20
5.79536
 30
0.000000
  70
    32
  0
VERTEX
  8
FORM
  5
AED
 10
34.4960
 20
5.79278
 30
0.000000
  70
    32
  0
VERTEX
  8
FORM
  5
AEE
 10
34.4970
 20
5.79039
 30
0.000000
  70
    32
  0
VERTEX
  8
FORM
  5
AEF
 10
34.4981
 20
5.78820
 30
0.000000
  70
    32
  0
VERTEX
  8
FORM
  5
AF0
 10
34.4994
 20
5.78621
 30
0.000000
  70
    32
  0
VERTEX
  8
FORM
  5
AF1
 10
34.5008
 20
5.78443
 30
0.000000
  70
    32
  0
VERTEX
  8
FORM
  5
AF2
 10
34.5023
 20
5.78285
 30
0.000000
  70
    32
  0
VERTEX
  8
FORM
  5
AF3
 10
34.5039
 20
5.78149
 30
0.000000
  70
    32
  0
VERTEX
  8
FORM
  5
AF4
 10
34.5056
 20
5.78034
 30
0.000000
  70
    32
  0
VERTEX
  8
FORM
  5
AF5
 10
34.5074
 20
5.77941
 30
0.000000
  70
    32
  0
VERTEX
  8
FORM
  5
AF6
 10
34.5093
 20
5.77871
 30
0.000000
  70
    32
  0
VERTEX
  8
FORM
  5
AF7
 10
34.5113
 20
5.77823
 30
0.000000
  70
    32
  0
VERTEX
  8
FORM
  5
AF8
 10
34.5134
 20
5.77797
 30
0.000000
  70
    32
  0
VERTEX
  8
FORM
  5
AF9
 10
34.5155
 20
5.77794
 30
0.000000
  70
    32
  0
VERTEX
  8
FORM
  5
AFA
 10
34.5178
 20
5.77813
 30
0.000000
  70
    32
  0
VERTEX
  8
FORM
  5
AFB
 10
34.5201
 20
5.77855
 30
0.000000
  70
    32
  0
VERTEX
  8
FORM
  5
AFC
 10
34.5225
 20
5.77919
 30
0.000000
  70
    32
  0
VERTEX
  8
FORM
  5
AFD
 10
34.5249
 20
5.78005
 30
0.000000
  70
    32
  0
VERTEX
  8
FORM
  5
AFE
 10
34.5274
 20
5.78114
 30
0.000000
  70
    32
  0
VERTEX
  8
FORM
  5
AFF
 10
34.5300
 20
5.78244
 30
0.000000
  70
    32
  0
VERTEX
  8
FORM
  5
B00
 10
34.5326
 20
5.78395
 30
0.000000
  70
    32
  0
VERTEX
  8
FORM
  5
B01
 10
34.5352
 20
5.78568
 30
0.000000
  70
    32
  0
VERTEX
  8
FORM
  5
B02
 10
34.5379
 20
5.78761
 30
0.000000
  70
    32
  0
VERTEX
  8
FORM
  5
B03
 10
34.5406
 20
5.78975
 30
0.000000
  70
    32
  0
VERTEX
  8
FORM
  5
B04
 10
34.5433
 20
5.79208
 30
0.000000
  70
    32
  0
VERTEX
  8
FORM
  5
B05
 10
34.5460
 20
5.79460
 30
0.000000
  70
    32
  0
VERTEX
  8
FORM
  5
B06
 10
34.5487
 20
5.79731
 30
0.000000
  70
    32
  0
VERTEX
  8
FORM
  5
B07
 10
34.5514
 20
5.80020
 30
0.000000
  70
    32
  0
VERTEX
  8
FORM
  5
B08
 10
34.5541
 20
5.80325
 30
0.000000
  70
    32
  0
VERTEX
  8
FORM
  5
B09
 10
34.5568
 20
5.80648
 30
0.000000
  70
    32
  0
VERTEX
  8
FORM
  5
B0A
 10
34.5595
 20
5.80985
 30
0.000000
  70
    32
  0
VERTEX
  8
FORM
  5
B0B
 10
34.5621
 20
5.81338
 30
0.000000
  70
    32
  0
VERTEX
  8
FORM
  5
B0C
 10
34.5647
 20
5.81705
 30
0.000000
  70
    32
  0
VERTEX
  8
FORM
  5
B0D
 10
34.5673
 20
5.82085
 30
0.000000
  70
    32
  0
VERTEX
  8
FORM
  5
B0E
 10
34.5698
 20
5.82477
 30
0.000000
  70
    32
  0
VERTEX
  8
FORM
  5
B0F
 10
34.5723
 20
5.82880
 30
0.000000
  70
    32
  0
VERTEX
  8
FORM
  5
B10
 10
34.5747
 20
5.83293
 30
0.000000
  70
    32
  0
VERTEX
  8
FORM
  5
B11
 10
34.5770
 20
5.83716
 30
0.000000
  70
    32
  0
VERTEX
  8
FORM
  5
B12
 10
34.5793
 20
5.84147
 30
0.000000
  70
    32
  0
VERTEX
  8
FORM
  5
B13
 10
34.5815
 20
5.84585
 30
0.000000
  70
    32
  0
VERTEX
  8
FORM
  5
B14
 10
34.5836
 20
5.85030
 30
0.000000
  70
    32
  0
VERTEX
  8
FORM
  5
B15
 10
34.5856
 20
5.85479
 30
0.000000
  70
    32
  0
VERTEX
  8
FORM
  5
B16
 10
34.5876
 20
5.85932
 30
0.000000
  70
    32
  0
VERTEX
  8
FORM
  5
B17
 10
34.5894
 20
5.86389
 30
0.000000
  70
    32
  0
VERTEX
  8
FORM
  5
B18
 10
34.5912
 20
5.86847
 30
0.000000
  70
    32
  0
VERTEX
  8
FORM
  5
B19
 10
34.5928
 20
5.87306
 30
0.000000
  70
    32
  0
VERTEX
  8
FORM
  5
B1A
 10
34.5943
 20
5.87764
 30
0.000000
  70
    32
  0
VERTEX
  8
FORM
  5
B1B
 10
34.5957
 20
5.88221
 30
0.000000
  70
    32
  0
VERTEX
  8
FORM
  5
B1C
 10
34.5970
 20
5.88676
 30
0.000000
  70
    32
  0
VERTEX
  8
FORM
  5
B1D
 10
34.5982
 20
5.89127
 30
0.000000
  70
    32
  0
VERTEX
  8
FORM
  5
B1E
 10
34.5993
 20
5.89572
 30
0.000000
  70
    32
  0
VERTEX
  8
FORM
  5
B1F
 10
34.6002
 20
5.90013
 30
0.000000
  70
    32
  0
VERTEX
  8
FORM
  5
B20
 10
34.6010
 20
5.90446
 30
0.000000
  70
    32
  0
VERTEX
  8
FORM
  5
B21
 10
34.6017
 20
5.90871
 30
0.000000
  70
    32
  0
VERTEX
  8
FORM
  5
B22
 10
34.6023
 20
5.91287
 30
0.000000
  70
    32
  0
VERTEX
  8
FORM
  5
B23
 10
34.6027
 20
5.91693
 30
0.000000
  70
    32
  0
VERTEX
  8
FORM
  5
B24
 10
34.6030
 20
5.92089
 30
0.000000
  70
    32
  0
VERTEX
  8
FORM
  5
B25
 10
34.6031
 20
5.92472
 30
0.000000
  70
    32
  0
VERTEX
  8
FORM
  5
B26
 10
34.6031
 20
5.92842
 30
0.000000
  70
    32
  0
VERTEX
  8
FORM
  5
B27
 10
34.6030
 20
5.93199
 30
0.000000
  70
    32
  0
VERTEX
  8
FORM
  5
B28
 10
34.6028
 20
5.93541
 30
0.000000
  70
    32
  0
VERTEX
  8
FORM
  5
B29
 10
34.6024
 20
5.93868
 30
0.000000
  70
    32
  0
VERTEX
  8
FORM
  5
B2A
 10
34.6019
 20
5.94179
 30
0.000000
  70
    32
  0
VERTEX
  8
FORM
  5
B2B
 10
34.6013
 20
5.94472
 30
0.000000
  70
    32
  0
VERTEX
  8
FORM
  5
B2C
 10
34.6005
 20
5.94748
 30
0.000000
  70
    32
  0
VERTEX
  8
FORM
  5
B2D
 10
34.5996
 20
5.95006
 30
0.000000
  70
    32
  0
VERTEX
  8
FORM
  5
B2E
 10
34.5986
 20
5.95245
 30
0.000000
  70
    32
  0
VERTEX
  8
FORM
  5
B2F
 10
34.5974
 20
5.95464
 30
0.000000
  70
    32
  0
VERTEX
  8
FORM
  5
B30
 10
34.5962
 20
5.95663
 30
0.000000
  70
    32
  0
VERTEX
  8
FORM
  5
B31
 10
34.5948
 20
5.95841
 30
0.000000
  70
    32
  0
VERTEX
  8
FORM
  5
B32
 10
34.5933
 20
5.95999
 30
0.000000
  70
    32
  0
VERTEX
  8
FORM
  5
B33
 10
34.5917
 20
5.96135
 30
0.000000
  70
    32
  0
VERTEX
  8
FORM
  5
B34
 10
34.5900
 20
5.96250
 30
0.000000
  70
    32
  0
VERTEX
  8
FORM
  5
B35
 10
34.5882
 20
5.96343
 30
0.000000
  70
    32
  0
SEQEND
  8
FORM
  5
B36
  0
ARC
  5
7C8
  8
FORM
 62
     7
 10
34.678422559705353
 20
5.6285689301790143
 30
0.0
 40
0.45030777473755
 50
85.485448269952457
 51
155.5006785655419
  0
TEXT
  5
7C9
  8
FORM
 62
     7
 10
33.094000516162993
 20
3.2737730496354831
 30
0.0
 40
0.1764102564
  1
R2-D2 BUILDERS CLUB
  0
ARC
  5
7CA
  8
FORM
 10
1.2738095237500311
 20
1.2738095237500171
 30
0.0
 40
0.315018315
 50
180.0
 51
270.0
  0
ARC
  5
7CB
  8
FORM
 10
1.2738095237500311
 20
1.2738095237500171
 30
0.0
 40
0.6300366300000001
 50
180.0
 51
270.0
  0
ARC
  5
7CC
  8
FORM
 10
1.2738095237500311
 20
1.2738095237500171
 30
0.0
 40
0.7087912087500001
 50
180.0
 51
270.0
  0
ARC
  5
7CD
  8
FORM
 10
1.2738095237500311
 20
1.2738095237500171
 30
0.0
 40
1.02380952375
 50
180.0
 51
270.0
  0
ARC
  5
7CE
  8
FORM
 10
1.2738095237500311
 20
30.47619047625
 30
0.0
 40
1.02380952375
 50
90.0
 51
180.0
  0
ARC
  5
7CF
  8
FORM
 10
1.2738095237500311
 20
30.47619047625
 30
0.0
 40
0.7087912087500001
 50
90.0
 51
180.0
  0
ARC
  5
7D0
  8
FORM
 10
1.2738095237500311
 20
30.47619047625
 30
0.0
 40
0.6300366300000001
 50
90.0
 51
180.0
  0
ARC
  5
7D1
  8
FORM
 10
1.2738095237500311
 20
30.47619047625
 30
0.0
 40
0.315018315
 50
90.0
 51
180.0
  0
ARC
  5
7D2
  8
FORM
 10
42.726190473750037
 20
30.47619047625
 30
0.0
 40
0.6300366300000001
 50
0.0
 51
90.0
  0
ARC
  5
7D3
  8
FORM
 10
42.726190473750037
 20
30.47619047625
 30
0.0
 40
0.7087912087500001
 50
0.0
 51
90.0
  0
ARC
  5
7D4
  8
FORM
 10
42.726190473750037
 20
30.47619047625
 30
0.0
 40
1.02380952375
 50
0.0
 51
90.0
  0
ARC
  5
7D5
  8
FORM
 10
42.726190473750037
 20
30.47619047625
 30
0.0
 40
0.315018315
 50
0.0
 51
90.0
  0
ARC
  5
7D6
  8
FORM
 10
42.726190473750037
 20
1.2738095237500171
 30
0.0
 40
1.02380952375
 50
270.0
 51
0.0
  0
ARC
  5
7D7
  8
FORM
 10
42.726190473750037
 20
1.2738095237500171
 30
0.0
 40
0.7087912087500001
 50
270.0
 51
0.0
  0
ARC
  5
7D8
  8
FORM
 10
42.726190473750037
 20
1.2738095237500171
 30
0.0
 40
0.6300366300000001
 50
270.0
 51
0.0
  0
ARC
  5
7D9
  8
FORM
 10
42.726190473750037
 20
1.2738095237500171
 30
0.0
 40
0.315018315
 50
270.0
 51
0.0
  0
LINE
  5
7DA
  8
FORM
 10
42.726190473750037
 20
0.643772893750036
 30
0.0
 11
1.2738095237500311
 21
0.6437728937500183
 31
0.0
  0
LINE
  5
7DB
  8
FORM
 10
42.726190473750037
 20
0.5650183150000352
 30
0.0
 11
1.2738095237500311
 21
0.5650183150000175
 31
0.0
  0
LINE
  5
7DC
  8
FORM
 10
42.726190473750037
 20
0.2500000000000178
 30
0.0
 11
1.2738095237500311
 21
0.25
 31
0.0
  0
LINE
  5
7DD
  8
FORM
 10
43.356227103750051
 20
1.2738095237500171
 30
0.0
 11
43.356227103750051
 21
30.47619047625
 31
0.0
  0
LINE
  5
7DE
  8
FORM
 10
43.434981682500052
 20
1.2738095237500171
 30
0.0
 11
43.434981682500052
 21
30.47619047625
 31
0.0
  0
LINE
  5
7DF
  8
FORM
 10
43.749999997500048
 20
1.2738095237500171
 30
0.0
 11
43.749999997500048
 21
30.47619047625
 31
0.0
  0
LINE
  5
7E0
  8
FORM
 10
42.726190473750037
 20
31.10622710625
 30
0.0
 11
1.2738095237500311
 21
31.10622710625
 31
0.0
  0
LINE
  5
7E1
  8
FORM
 10
42.726190473750037
 20
31.184981685
 30
0.0
 11
1.2738095237500311
 21
31.184981685
 31
0.0
  0
LINE
  5
7E2
  8
FORM
 10
42.726190473750037
 20
31.5
 30
0.0
 11
1.2738095237500311
 21
31.5
 31
0.0
  0
LINE
  5
7E3
  8
FORM
 10
0.6437728937500254
 20
1.2738095237500171
 30
0.0
 11
0.6437728937500254
 21
30.47619047625
 31
0.0
  0
LINE
  5
7E4
  8
FORM
 10
0.5650183150000601
 20
1.2738095237500171
 30
0.0
 11
0.5650183150000601
 21
30.47619047625
 31
0.0
  0
LINE
  5
7E5
  8
FORM
 10
0.2499999999999716
 20
1.2738095237500211
 30
0.0
 11
0.2500000000000284
 21
30.47619047625
 31
0.0
  0
LINE
  5
7E6
  8
FORM
  6
CONTINUOUS
 10
33.416182507258391
 20
1.2738095237500171
 30
0.0
 11
42.265298990260362
 21
1.2738095237500171
 31
0.0
  0
LINE
  5
7E7
  8
FORM
  6
CONTINUOUS
 10
42.726190473750037
 20
6.1592592487406881
 30
0.0
 11
42.726190473750037
 21
1.7347010072396991
 31
0.0
  0
ARC
  5
7E8
  8
FORM
  6
CONTINUOUS
 10
42.265298990260362
 20
1.7347010072396991
 30
0.0
 40
0.460891483489685
 50
270.0
 51
0.0
  0
ARC
  5
7E9
  8
FORM
  6
CONTINUOUS
 10
42.265298990260362
 20
6.1592592487406881
 30
0.0
 40
0.460891483489685
 50
359.99999999999989
 51
90.0
  0
ARC
  5
7EA
  8
FORM
  6
CONTINUOUS
 10
33.416182507258391
 20
1.7347010072396991
 30
0.0
 40
0.460891483489685
 50
180.0
 51
270.0
  0
ARC
  5
7EB
  8
FORM
  6
CONTINUOUS
 10
33.416182507258391
 20
6.1592592487406881
 30
0.0
 40
0.460891483489685
 50
90.0
 51
180.0
  0
LINE
  5
7EC
  8
0
 10
0.0
 20
0.0
 30
0.0
 11
0.0
 21
34.0
 31
0.0
  0
LINE
  5
7ED
  8
0
 10
0.0
 20
0.0
 30
0.0
 11
44.0
 21
0.0
 31
0.0
  0
LINE
  5
7EE
  8
0
 10
0.0
 20
34.0
 30
0.0
 11
44.0
 21
34.0
 31
0.0
  0
LINE
  5
7EF
  8
0
 10
44.0
 20
0.0
 30
0.0
 11
44.0
 21
34.0
 31
0.0
  0
LINE
  5
A96
  8
0
 10
1.2738095237500311
 20
1.2738095237500171
 30
0.0
 11
1.2738095237500311
 21
2.2738095237500171
 31
0.0
  0
LINE
  5
A97
  8
0
 10
1.2738095237500311
 20
1.3988095237500171
 30
0.0
 11
1.3988095237500311
 21
1.3988095237500171
 31
0.0
  0
LINE
  5
A98
  8
0
 10
1.2738095237500311
 20
1.5238095237500171
 30
0.0
 11
1.5238095237500311
 21
1.5238095237500171
 31
0.0
  0
LINE
  5
A99
  8
0
 10
1.2738095237500311
 20
1.6488095237500171
 30
0.0
 11
1.3988095237500311
 21
1.6488095237500171
 31
0.0
  0
LINE
  5
A9A
  8
0
 10
1.2738095237500311
 20
1.7738095237500171
 30
0.0
 11
1.6488095237500311
 21
1.7738095237500171
 31
0.0
  0
LINE
  5
A9B
  8
0
 10
1.2738095237500311
 20
1.8988095237500171
 30
0.0
 11
1.3988095237500311
 21
1.8988095237500171
 31
0.0
  0
LINE
  5
A9C
  8
0
 10
1.2738095237500311
 20
2.0238095237500171
 30
0.0
 11
1.5238095237500311
 21
2.0238095237500171
 31
0.0
  0
LINE
  5
A9D
  8
0
 10
1.2738095237500311
 20
2.1488095237500171
 30
0.0
 11
1.3988095237500311
 21
2.1488095237500171
 31
0.0
  0
LINE
  5
A9E
  8
0
 10
1.2738095237500311
 20
2.2738095237500171
 30
0.0
 11
1.6488095237500311
 21
2.2738095237500171
 31
0.0
  0
LINE
  5
A9F
  8
0
 10
1.2738095237500311
 20
1.2738095237500171
 30
0.0
 11
1.6488095237500311
 21
1.2738095237500171
 31
0.0
  0
TEXT
  5
AA0
  8
0
 10
1.698078297376497
 20
1.740768962749534
 30
0.0
 40
0.0625
  1
1/2"
  0
TEXT
  5
AA1
  8
0
 10
1.448078297376497
 20
1.615768962749534
 30
0.0
 40
0.0625
  1
3/8"
  0
TEXT
  5
AA2
  8
0
 10
1.573078297376497
 20
1.490768962749534
 30
0.0
 40
0.0625
  1
1/4"
  0
TEXT
  5
AA3
  8
0
 10
1.448078297376497
 20
1.365768962749534
 30
0.0
 40
0.0625
  1
1/8"
  0
TEXT
  5
AA4
  8
0
 10
1.448078297376497
 20
1.865768962749534
 30
0.0
 40
0.0625
  1
5/8"
  0
TEXT
  5
AA5
  8
0
 10
1.573078297376497
 20
1.990768962749534
 30
0.0
 40
0.0625
  1
3/4"
  0
TEXT
  5
AA6
  8
0
 10
1.448078297376497
 20
2.115768962749534
 30
0.0
 40
0.0625
  1
7/8"
  0
TEXT
  5
AA7
  8
0
 10
1.698078297376497
 20
2.240768962749534
 30
0.0
 40
0.0625
  1
1"
  0
ENDSEC
  0
EOF
