  0
SECTION
  2
HEADER
  9
$ACADVER
  1
AC1009
  9
$INSBASE
 10
0.0
 20
0.0
 30
0.0
  9
$EXTMIN
 10
-5.6749086973383376
 20
-14.27118677874531
 30
-0.0000000000112498
  9
$EXTMAX
 10
62.327165991313898
 20
29.730155666853179
 30
0.0000000000002956
  9
$LIMMIN
 10
0.0
 20
0.0
  9
$LIMMAX
 10
12.0
 20
9.0
  9
$ORTHOMODE
 70
     0
  9
$REGENMODE
 70
     1
  9
$FILLMODE
 70
     1
  9
$QTEXTMODE
 70
     0
  9
$MIRRTEXT
 70
     1
  9
$DRAGMODE
 70
     2
  9
$LTSCALE
 40
1.0
  9
$OSMODE
 70
    39
  9
$ATTMODE
 70
     1
  9
$TEXTSIZE
 40
0.18
  9
$TRACEWID
 40
0.05
  9
$TEXTSTYLE
  7
STANDARD
  9
$CLAYER
  8
0
  9
$CELTYPE
  6
BYLAYER
  9
$CECOLOR
 62
   256
  9
$DIMSCALE
 40
1.0
  9
$DIMASZ
 40
0.18
  9
$DIMEXO
 40
0.0625
  9
$DIMDLI
 40
0.38
  9
$DIMRND
 40
0.0
  9
$DIMDLE
 40
0.0
  9
$DIMEXE
 40
0.0625
  9
$DIMTP
 40
0.0
  9
$DIMTM
 40
0.0
  9
$DIMTXT
 40
0.18
  9
$DIMCEN
 40
0.0
  9
$DIMTSZ
 40
0.0
  9
$DIMTOL
 70
     0
  9
$DIMLIM
 70
     0
  9
$DIMTIH
 70
     1
  9
$DIMTOH
 70
     1
  9
$DIMSE1
 70
     0
  9
$DIMSE2
 70
     0
  9
$DIMTAD
 70
     0
  9
$DIMZIN
 70
     0
  9
$DIMBLK
  1

  9
$DIMASO
 70
     1
  9
$DIMSHO
 70
     1
  9
$DIMPOST
  1

  9
$DIMAPOST
  1

  9
$DIMALT
 70
     0
  9
$DIMALTD
 70
     2
  9
$DIMALTF
 40
25.399999999999999
  9
$DIMLFAC
 40
1.0
  9
$DIMTOFL
 70
     0
  9
$DIMTVP
 40
0.0
  9
$DIMTIX
 70
     0
  9
$DIMSOXD
 70
     0
  9
$DIMSAH
 70
     0
  9
$DIMBLK1
  1

  9
$DIMBLK2
  1

  9
$DIMSTYLE
  2
STANDARD
  9
$DIMCLRD
 70
     0
  9
$DIMCLRE
 70
     0
  9
$DIMCLRT
 70
     0
  9
$DIMTFAC
 40
1.0
  9
$DIMGAP
 40
0.09
  9
$LUNITS
 70
     2
  9
$LUPREC
 70
     8
  9
$SKETCHINC
 40
0.1
  9
$FILLETRAD
 40
0.0
  9
$AUNITS
 70
     0
  9
$AUPREC
 70
     8
  9
$MENU
  1
.
  9
$ELEVATION
 40
0.0
  9
$PELEVATION
 40
0.0
  9
$THICKNESS
 40
0.0
  9
$LIMCHECK
 70
     0
  9
$BLIPMODE
 70
     0
  9
$CHAMFERA
 40
0.0
  9
$CHAMFERB
 40
0.0
  9
$SKPOLY
 70
     0
  9
$TDCREATE
 40
2452873.389539931
  9
$TDUPDATE
 40
2453508.5866145371
  9
$TDINDWG
 40
2.2809128935
  9
$TDUSRTIMER
 40
2.2809123148000001
  9
$USRTIMER
 70
     1
  9
$ANGBASE
 50
0.0
  9
$ANGDIR
 70
     0
  9
$PDMODE
 70
     0
  9
$PDSIZE
 40
0.0
  9
$PLINEWID
 40
0.0
  9
$COORDS
 70
     1
  9
$SPLFRAME
 70
     0
  9
$SPLINETYPE
 70
     6
  9
$SPLINESEGS
 70
     8
  9
$ATTDIA
 70
     0
  9
$ATTREQ
 70
     1
  9
$HANDLING
 70
     1
  9
$HANDSEED
  5
DA8
  9
$SURFTAB1
 70
     6
  9
$SURFTAB2
 70
     6
  9
$SURFTYPE
 70
     6
  9
$SURFU
 70
     6
  9
$SURFV
 70
     6
  9
$UCSNAME
  2

  9
$UCSORG
 10
0.0
 20
0.0
 30
0.0
  9
$UCSXDIR
 10
1.0
 20
0.0
 30
0.0
  9
$UCSYDIR
 10
0.0
 20
1.0
 30
0.0
  9
$PUCSNAME
  2

  9
$PUCSORG
 10
0.0
 20
0.0
 30
0.0
  9
$PUCSXDIR
 10
1.0
 20
0.0
 30
0.0
  9
$PUCSYDIR
 10
0.0
 20
1.0
 30
0.0
  9
$USERI1
 70
     0
  9
$USERI2
 70
     0
  9
$USERI3
 70
     0
  9
$USERI4
 70
     0
  9
$USERI5
 70
     0
  9
$USERR1
 40
0.0
  9
$USERR2
 40
0.0
  9
$USERR3
 40
0.0
  9
$USERR4
 40
0.0
  9
$USERR5
 40
0.0
  9
$WORLDVIEW
 70
     1
  9
$SHADEDGE
 70
     3
  9
$SHADEDIF
 70
    70
  9
$TILEMODE
 70
     1
  9
$MAXACTVP
 70
    64
  9
$PLIMCHECK
 70
     0
  9
$PEXTMIN
 10
1.0000000000000000E+020
 20
1.0000000000000000E+020
 30
1.0000000000000000E+020
  9
$PEXTMAX
 10
-1.0000000000000000E+020
 20
-1.0000000000000000E+020
 30
-1.0000000000000000E+020
  9
$PLIMMIN
 10
0.0
 20
0.0
  9
$PLIMMAX
 10
12.0
 20
9.0
  9
$UNITMODE
 70
     0
  9
$VISRETAIN
 70
     1
  9
$PLINEGEN
 70
     0
  9
$PSLTSCALE
 70
     1
  0
ENDSEC
  0
SECTION
  2
TABLES
  0
TABLE
  2
VPORT
 70
     3
  0
VPORT
  2
*ACTIVE
 70
     0
 10
0.0
 20
0.0
 11
1.0
 21
1.0
 12
28.32612864698779
 22
7.7294844440539281
 13
0.0
 23
0.0
 14
0.5
 24
0.5
 15
0.5
 25
0.5
 16
0.0
 26
0.0
 36
1.0
 17
0.0
 27
0.0
 37
0.0
 40
44.581579928397588
 41
2.2444933920704839
 42
50.0
 43
0.0
 44
0.0
 50
0.0
 51
0.0
 71
     0
 72
 20000
 73
     1
 74
     2
 75
     0
 76
     0
 77
     0
 78
     0
  0
ENDTAB
  0
TABLE
  2
LTYPE
 70
     1
  0
LTYPE
  2
CONTINUOUS
 70
     0
  3
Solid line
 72
    65
 73
     0
 40
0.0
  0
ENDTAB
  0
TABLE
  2
LAYER
 70
     8
  0
LAYER
  2
0
 70
     0
 62
     7
  6
CONTINUOUS
  0
LAYER
  2
BODY
 70
     0
 62
     7
  6
CONTINUOUS
  0
LAYER
  2
BODY_PANELS
 70
     0
 62
     2
  6
CONTINUOUS
  0
LAYER
  2
DIMENSIONS
 70
     0
 62
     1
  6
CONTINUOUS
  0
LAYER
  2
DIMENSIONS_BODY
 70
     0
 62
     7
  6
CONTINUOUS
  0
LAYER
  2
DIMENSIONS__BODY_PANELS
 70
     0
 62
     2
  6
CONTINUOUS
  0
LAYER
  2
DEFPOINTS
 70
     0
 62
     7
  6
CONTINUOUS
  0
LAYER
  2
FORM
 70
     0
 62
     5
  6
CONTINUOUS
  0
ENDTAB
  0
TABLE
  2
STYLE
 70
     1
  0
STYLE
  2
STANDARD
 70
     0
 40
0.0
 41
1.0
 50
0.0
 71
     0
 42
0.18
  3
simplex.shx
  4

  0
ENDTAB
  0
TABLE
  2
VIEW
 70
     0
  0
ENDTAB
  0
TABLE
  2
UCS
 70
     0
  0
ENDTAB
  0
TABLE
  2
APPID
 70
     3
  0
APPID
  2
ACAD
 70
     0
  0
APPID
  2
ACAD_PSEXT
 70
     0
  0
APPID
  2
DCO15
 70
     0
  0
ENDTAB
  0
TABLE
  2
DIMSTYLE
 70
     1
  0
DIMSTYLE
  2
STANDARD
 70
     0
  3

  4

  5

  6

  7

 40
1.0
 41
0.18
 42
0.0625
 43
0.38
 44
0.0625
 45
0.0
 46
0.0
 47
0.0
 48
0.0
140
0.18
141
0.0
142
0.0
143
25.399999999999999
144
1.0
145
0.0
146
1.0
147
0.09
 71
     0
 72
     0
 73
     1
 74
     1
 75
     0
 76
     0
 77
     0
 78
     0
170
     0
171
     2
172
     0
173
     0
174
     0
175
     0
176
     0
177
     0
178
     0
  0
ENDTAB
  0
ENDSEC
  0
SECTION
  2
BLOCKS
  0
BLOCK
  8
0
  2
$MODEL_SPACE
 70
     0
 10
0.0
 20
0.0
 30
0.0
  3
$MODEL_SPACE
  1

  0
ENDBLK
  5
B
  8
0
  0
BLOCK
 67
     1
  8
0
  2
$PAPER_SPACE
 70
     0
 10
0.0
 20
0.0
 30
0.0
  3
$PAPER_SPACE
  1

  0
ENDBLK
  5
11
 67
     1
  8
0
  0
ENDSEC
  0
SECTION
  2
ENTITIES
  0
LINE
  5
2E
  8
BODY
 10
12.00800000000004
 20
10.744
 30
0.0
 11
12.00800000000004
 21
13.205
 31
0.0
  0
LINE
  5
30
  8
BODY
 10
8.0150000000000432
 20
10.744
 30
0.0
 11
8.0150000000000432
 21
13.205
 31
0.0
  0
LINE
  5
31
  8
BODY
 10
4.3530000000000078
 20
5.594999999999998
 30
0.0
 11
4.3530000000000078
 21
18.449000000000002
 31
0.0
  0
LINE
  5
32
  8
BODY
 10
7.3530000000000078
 20
5.594999999999998
 30
0.0
 11
7.3530000000000078
 21
18.449000000000002
 31
0.0
  0
LINE
  5
33
  8
BODY
 10
21.132000000000001
 20
5.594999999999998
 30
0.0
 11
21.132000000000001
 21
18.449000000000002
 31
0.0
  0
LINE
  5
34
  8
BODY
 10
24.132000000000009
 20
5.594999999999998
 30
0.0
 11
24.132000000000009
 21
18.449000000000002
 31
0.0
  0
LINE
  5
35
  8
BODY
 10
12.44600000000003
 20
5.6710000000000056
 30
0.0
 11
12.44600000000003
 21
13.205
 31
0.0
  0
LINE
  5
36
  8
BODY
 10
16.039000000000041
 20
5.6710000000000056
 30
0.0
 11
16.039000000000041
 21
13.205
 31
0.0
  0
LINE
  5
37
  8
BODY
 10
16.477000000000029
 20
5.6710000000000056
 30
0.0
 11
16.477000000000029
 21
13.205
 31
0.0
  0
LINE
  5
38
  8
BODY
 10
20.470000000000031
 20
5.6710000000000056
 30
0.0
 11
20.470000000000031
 21
13.205
 31
0.0
  0
LINE
  5
39
  8
BODY
 10
2.149
 20
5.7259999999999991
 30
0.0
 11
2.149
 21
11.696999999999999
 31
0.0
  0
LINE
  5
3A
  8
BODY
 10
26.336000000000009
 20
5.7259999999999991
 30
0.0
 11
26.336000000000009
 21
11.696999999999999
 31
0.0
  0
LINE
  5
3B
  8
BODY
 10
26.064000000000021
 20
4.2169999999999979
 30
0.0
 11
30.906000000000009
 21
4.217000000000005
 31
0.0
  0
LINE
  5
3C
  8
BODY
 10
4.3530000000000078
 20
5.594999999999998
 30
0.0
 11
7.3530000000000078
 21
5.594999999999998
 31
0.0
  0
LINE
  5
3D
  8
BODY
 10
2.9940000000000282
 20
5.1650000000000063
 30
0.0
 11
7.3530000000000078
 21
5.1650000000000063
 31
0.0
  0
LINE
  5
3E
  8
BODY
 10
2.9940000000000282
 20
0.5939999999999941
 30
0.0
 11
7.3530000000000078
 21
0.5939999999999941
 31
0.0
  0
LINE
  5
3F
  8
BODY
 10
2.4209999999999918
 20
0.2800000000000011
 30
0.0
 11
26.064000000000021
 21
0.2800000000000011
 31
0.0
  0
LINE
  5
40
  8
BODY
 10
2.4209999999999918
 20
0.2800000000000011
 30
0.0
 11
2.4209999999999918
 21
4.2169999999999979
 31
0.0
  0
LINE
  5
41
  8
BODY
 10
2.9940000000000282
 20
0.5939999999999941
 30
0.0
 11
2.9940000000000282
 21
5.1650000000000063
 31
0.0
  0
LINE
  5
42
  8
BODY
 10
0.0
 20
4.2169999999999979
 30
0.0
 11
0.0
 21
5.7259999999999991
 31
0.0
  0
LINE
  5
43
  8
BODY
 10
0.0
 20
4.2169999999999979
 30
0.0
 11
2.4209999999999918
 21
4.2169999999999979
 31
0.0
  0
LINE
  5
44
  8
BODY
 10
15.68
 20
0.5940000000000083
 30
0.0
 11
15.68
 21
3.4690000000000079
 31
0.0
  0
LINE
  5
45
  8
BODY
 10
12.00800000000004
 20
0.5940000000000083
 30
0.0
 11
12.00800000000004
 21
3.4690000000000079
 31
0.0
  0
LINE
  5
46
  8
BODY
 10
12.80500000000001
 20
0.5940000000000083
 30
0.0
 11
12.80500000000001
 21
3.4690000000000079
 31
0.0
  0
LINE
  5
47
  8
BODY
 10
8.0150000000000432
 20
0.5940000000000083
 30
0.0
 11
8.0150000000000432
 21
3.4690000000000079
 31
0.0
  0
LINE
  5
48
  8
BODY
 10
7.3530000000000078
 20
0.5939999999999941
 30
0.0
 11
7.3530000000000078
 21
5.1650000000000063
 31
0.0
  0
LINE
  5
49
  8
BODY
 10
8.0150000000000432
 20
0.5940000000000083
 30
0.0
 11
12.00800000000004
 21
0.5940000000000083
 31
0.0
  0
LINE
  5
4A
  8
BODY
 10
12.80500000000001
 20
0.5940000000000083
 30
0.0
 11
15.68
 21
0.5940000000000083
 31
0.0
  0
LINE
  5
4B
  8
BODY
 10
8.0150000000000432
 20
10.744
 30
0.0
 11
12.00800000000004
 21
10.744
 31
0.0
  0
LINE
  5
4C
  8
BODY
 10
10.125
 20
10.021000000000001
 30
0.0
 11
12.00800000000004
 21
10.021000000000001
 31
0.0
  0
LINE
  5
4D
  8
BODY
 10
10.125
 20
5.6710000000000056
 30
0.0
 11
12.00800000000004
 21
5.6710000000000056
 31
0.0
  0
LINE
  5
4E
  8
BODY
 10
9.5380000000000091
 20
5.1650000000000063
 30
0.0
 11
11.507
 21
5.1650000000000063
 31
0.0
  0
LINE
  5
4F
  8
BODY
 10
9.5380000000000091
 20
3.9050000000000011
 30
0.0
 11
11.507
 21
3.9050000000000011
 31
0.0
  0
LINE
  5
50
  8
BODY
 10
8.0150000000000432
 20
3.4690000000000079
 30
0.0
 11
12.00800000000004
 21
3.4690000000000079
 31
0.0
  0
LINE
  5
51
  8
BODY
 10
9.5050000000000523
 20
6.4659999999999931
 30
0.0
 11
9.5050000000000523
 21
6.8409999999999931
 31
0.0
  0
LINE
  5
52
  8
BODY
 10
8.0150000000000432
 20
6.4659999999999931
 30
0.0
 11
8.0150000000000432
 21
6.8409999999999931
 31
0.0
  0
LINE
  5
53
  8
BODY
 10
10.125
 20
5.6710000000000056
 30
0.0
 11
10.125
 21
10.021000000000001
 31
0.0
  0
LINE
  5
54
  8
BODY
 10
8.0150000000000432
 20
6.0459999999999923
 30
0.0
 11
9.5050000000000523
 21
6.0459999999999923
 31
0.0
  0
LINE
  5
55
  8
BODY
 10
8.0150000000000432
 20
6.4659999999999931
 30
0.0
 11
9.5050000000000523
 21
6.4659999999999931
 31
0.0
  0
LINE
  5
56
  8
BODY
 10
8.0150000000000432
 20
5.6709999999999923
 30
0.0
 11
9.5050000000000523
 21
5.6709999999999923
 31
0.0
  0
LINE
  5
57
  8
BODY
 10
8.0150000000000432
 20
5.6709999999999923
 30
0.0
 11
8.0150000000000432
 21
6.0459999999999923
 31
0.0
  0
LINE
  5
58
  8
BODY
 10
9.5380000000000091
 20
3.9050000000000011
 30
0.0
 11
9.5380000000000091
 21
5.1650000000000063
 31
0.0
  0
LINE
  5
59
  8
BODY
 10
9.5050000000000523
 20
5.6709999999999923
 30
0.0
 11
9.5050000000000523
 21
6.0459999999999923
 31
0.0
  0
LINE
  5
5A
  8
BODY
 10
8.0150000000000432
 20
10.021000000000001
 30
0.0
 11
9.5050000000000523
 21
10.021000000000001
 31
0.0
  0
LINE
  5
5B
  8
BODY
 10
8.0150000000000432
 20
9.2259999999999991
 30
0.0
 11
9.5050000000000523
 21
9.2259999999999991
 31
0.0
  0
LINE
  5
5C
  8
BODY
 10
8.0150000000000432
 20
9.6460000000000008
 30
0.0
 11
9.5050000000000523
 21
9.6460000000000008
 31
0.0
  0
LINE
  5
5D
  8
BODY
 10
8.0150000000000432
 20
8.8509999999999991
 30
0.0
 11
9.5050000000000523
 21
8.8509999999999991
 31
0.0
  0
LINE
  5
5E
  8
BODY
 10
8.0150000000000432
 20
8.4309999999999974
 30
0.0
 11
9.5050000000000523
 21
8.4309999999999974
 31
0.0
  0
LINE
  5
5F
  8
BODY
 10
8.0150000000000432
 20
7.6359999999999948
 30
0.0
 11
9.5050000000000523
 21
7.6359999999999948
 31
0.0
  0
LINE
  5
60
  8
BODY
 10
8.0150000000000432
 20
6.8409999999999931
 30
0.0
 11
9.5050000000000523
 21
6.8409999999999931
 31
0.0
  0
LINE
  5
61
  8
BODY
 10
8.0150000000000432
 20
8.0559999999999974
 30
0.0
 11
9.5050000000000523
 21
8.0559999999999974
 31
0.0
  0
LINE
  5
62
  8
BODY
 10
8.0150000000000432
 20
7.2609999999999948
 30
0.0
 11
9.5050000000000523
 21
7.2609999999999948
 31
0.0
  0
LINE
  5
63
  8
BODY
 10
8.0150000000000432
 20
7.2609999999999948
 30
0.0
 11
8.0149999999999864
 21
7.6359999999999948
 31
0.0
  0
LINE
  5
64
  8
BODY
 10
8.0149999999999864
 20
8.0559999999999974
 30
0.0
 11
8.0149999999999864
 21
8.4309999999999974
 31
0.0
  0
LINE
  5
65
  8
BODY
 10
8.0150000000000432
 20
9.6460000000000008
 30
0.0
 11
8.0150000000000432
 21
10.021000000000001
 31
0.0
  0
LINE
  5
66
  8
BODY
 10
8.0149999999999864
 20
8.8509999999999991
 30
0.0
 11
8.0150000000000432
 21
9.2259999999999991
 31
0.0
  0
LINE
  5
67
  8
BODY
 10
9.5050000000000523
 20
7.2609999999999948
 30
0.0
 11
9.5050000000000523
 21
7.6359999999999948
 31
0.0
  0
LINE
  5
68
  8
BODY
 10
9.5050000000000523
 20
8.0559999999999974
 30
0.0
 11
9.5050000000000523
 21
8.4309999999999974
 31
0.0
  0
LINE
  5
69
  8
BODY
 10
9.5050000000000523
 20
9.6460000000000008
 30
0.0
 11
9.5050000000000523
 21
10.021000000000001
 31
0.0
  0
LINE
  5
6A
  8
BODY
 10
9.5050000000000523
 20
8.8509999999999991
 30
0.0
 11
9.5050000000000523
 21
9.2259999999999991
 31
0.0
  0
LINE
  5
6B
  8
BODY
 10
12.00800000000004
 20
5.6710000000000056
 30
0.0
 11
12.00800000000004
 21
10.021000000000001
 31
0.0
  0
LINE
  5
6C
  8
BODY
 10
12.44600000000003
 20
5.6710000000000056
 30
0.0
 11
16.039000000000041
 21
5.6710000000000056
 31
0.0
  0
LINE
  5
6D
  8
BODY
 10
12.44600000000003
 20
5.1650000000000063
 30
0.0
 11
16.039000000000041
 21
5.1650000000000063
 31
0.0
  0
LINE
  5
6E
  8
BODY
 10
12.44600000000003
 20
3.9050000000000011
 30
0.0
 11
16.039000000000041
 21
3.9050000000000011
 31
0.0
  0
LINE
  5
6F
  8
BODY
 10
12.80500000000001
 20
3.4690000000000079
 30
0.0
 11
15.68
 21
3.4690000000000079
 31
0.0
  0
LINE
  5
70
  8
BODY
 10
11.507
 20
3.9050000000000011
 30
0.0
 11
11.507
 21
5.1650000000000063
 31
0.0
  0
LINE
  5
71
  8
BODY
 10
12.44600000000003
 20
3.9050000000000011
 30
0.0
 11
12.44600000000003
 21
5.1650000000000063
 31
0.0
  0
LINE
  5
72
  8
BODY
 10
16.039000000000041
 20
3.9050000000000011
 30
0.0
 11
16.03899999999998
 21
5.1650000000000063
 31
0.0
  0
LINE
  5
73
  8
BODY
 10
25.096000000000011
 20
1.3130000000000019
 30
0.0
 11
25.096000000000011
 21
2.75
 31
0.0
  0
LINE
  5
74
  8
BODY
 10
26.064000000000021
 20
0.2800000000000011
 30
0.0
 11
26.064000000000021
 21
4.2169999999999979
 31
0.0
  0
LINE
  5
75
  8
BODY
 10
22.158999999999988
 20
1.3130000000000019
 30
0.0
 11
22.158999999999988
 21
2.7499999999999849
 31
0.0
  0
LINE
  5
76
  8
BODY
 10
19.759000000000011
 20
0.5940000000000083
 30
0.0
 11
19.759000000000011
 21
3.4690000000000079
 31
0.0
  0
LINE
  5
77
  8
BODY
 10
20.292999999999999
 20
0.5940000000000083
 30
0.0
 11
20.292999999999999
 21
3.4690000000000079
 31
0.0
  0
LINE
  5
78
  8
BODY
 10
21.30700000000002
 20
0.5940000000000083
 30
0.0
 11
21.30700000000002
 21
3.4690000000000079
 31
0.0
  0
LINE
  5
79
  8
BODY
 10
16.477000000000029
 20
0.5940000000000083
 30
0.0
 11
16.477000000000029
 21
3.4690000000000079
 31
0.0
  0
LINE
  5
7A
  8
BODY
 10
18.213000000000019
 20
0.5940000000000083
 30
0.0
 11
18.213000000000019
 21
3.4690000000000079
 31
0.0
  0
LINE
  5
7B
  8
BODY
 10
18.747000000000011
 20
0.5940000000000083
 30
0.0
 11
18.747000000000011
 21
3.4690000000000079
 31
0.0
  0
LINE
  5
7C
  8
BODY
 10
18.747000000000011
 20
0.5940000000000083
 30
0.0
 11
19.759000000000011
 21
0.5940000000000083
 31
0.0
  0
LINE
  5
7D
  8
BODY
 10
16.477000000000029
 20
0.5940000000000083
 30
0.0
 11
18.213000000000019
 21
0.5940000000000083
 31
0.0
  0
LINE
  5
7E
  8
BODY
 10
20.292999999999999
 20
0.5940000000000083
 30
0.0
 11
21.30700000000002
 21
0.5940000000000083
 31
0.0
  0
LINE
  5
7F
  8
BODY
 10
22.908999999999988
 20
0.5630000000000024
 30
0.0
 11
24.346
 21
0.5630000000000024
 31
0.0
  0
LINE
  5
80
  8
BODY
 10
21.132000000000001
 20
5.594999999999998
 30
0.0
 11
24.132000000000009
 21
5.594999999999998
 31
0.0
  0
LINE
  5
81
  8
BODY
 10
21.132000000000001
 20
5.1650000000000063
 30
0.0
 11
24.132000000000009
 21
5.1650000000000063
 31
0.0
  0
LINE
  5
82
  8
BODY
 10
21.132000000000001
 20
3.9050000000000011
 30
0.0
 11
24.132000000000009
 21
3.9050000000000011
 31
0.0
  0
LINE
  5
83
  8
BODY
 10
16.477000000000029
 20
5.6710000000000056
 30
0.0
 11
20.470000000000031
 21
5.6710000000000056
 31
0.0
  0
LINE
  5
84
  8
BODY
 10
17.076000000000018
 20
5.1650000000000063
 30
0.0
 11
20.468999999999991
 21
5.1650000000000063
 31
0.0
  0
LINE
  5
85
  8
BODY
 10
17.076000000000018
 20
3.9050000000000011
 30
0.0
 11
20.468999999999991
 21
3.9050000000000011
 31
0.0
  0
LINE
  5
86
  8
BODY
 10
18.747000000000011
 20
3.4690000000000079
 30
0.0
 11
19.759000000000011
 21
3.4690000000000079
 31
0.0
  0
LINE
  5
87
  8
BODY
 10
17.076000000000018
 20
3.9050000000000011
 30
0.0
 11
17.076000000000018
 21
5.1650000000000063
 31
0.0
  0
LINE
  5
88
  8
BODY
 10
16.477000000000029
 20
3.4690000000000079
 30
0.0
 11
18.213000000000019
 21
3.4690000000000079
 31
0.0
  0
LINE
  5
89
  8
BODY
 10
20.468999999999991
 20
3.9050000000000011
 30
0.0
 11
20.468999999999991
 21
5.1650000000000063
 31
0.0
  0
LINE
  5
8A
  8
BODY
 10
21.132000000000001
 20
3.9050000000000011
 30
0.0
 11
21.132000000000001
 21
5.1650000000000063
 31
0.0
  0
LINE
  5
8B
  8
BODY
 10
20.292999999999999
 20
3.4690000000000079
 30
0.0
 11
21.30700000000002
 21
3.4690000000000079
 31
0.0
  0
LINE
  5
8C
  8
BODY
 10
22.908999999999988
 20
3.5
 30
0.0
 11
24.346
 21
3.5
 31
0.0
  0
LINE
  5
8D
  8
BODY
 10
24.132000000000009
 20
3.9050000000000011
 30
0.0
 11
24.132000000000009
 21
5.1650000000000063
 31
0.0
  0
LINE
  5
8F
  8
BODY
 10
20.468999999999991
 20
19.629999999999988
 30
0.0
 11
56.97000000000002
 21
19.630000000000049
 31
0.0
  0
LINE
  5
90
  8
BODY
 10
0.0
 20
19.629999999999988
 30
0.0
 11
8.0150000000000432
 21
19.629999999999988
 31
0.0
  0
LINE
  5
91
  8
BODY
 10
4.3530000000000078
 20
18.449000000000002
 30
0.0
 11
7.3530000000000078
 21
18.449000000000002
 31
0.0
  0
LINE
  5
92
  8
BODY
 10
0.0
 20
11.696999999999999
 30
0.0
 11
0.0
 21
12.42136225428167
 31
0.0
  0
LINE
  5
93
  8
BODY
 10
9.0160000000000196
 20
18.449000000000002
 30
0.0
 11
19.468000000000021
 21
18.449000000000002
 31
0.0
  0
LINE
  5
94
  8
BODY
 10
8.0150000000000432
 20
13.742000000000001
 30
0.0
 11
20.468999999999991
 21
13.742000000000001
 31
0.0
  0
LINE
  5
95
  8
BODY
 10
9.0160000000000196
 20
19.629999999999988
 30
0.0
 11
9.0160000000000196
 21
18.449000000000002
 31
0.0
  0
LINE
  5
96
  8
BODY
 10
8.0150000000000432
 20
19.629999999999988
 30
0.0
 11
8.0150000000000432
 21
13.742000000000001
 31
0.0
  0
LINE
  5
97
  8
BODY
 10
8.0150000000000432
 20
13.205
 30
0.0
 11
12.00800000000004
 21
13.205
 31
0.0
  0
LINE
  5
98
  8
BODY
 10
12.44600000000003
 20
13.205
 30
0.0
 11
16.039000000000041
 21
13.205
 31
0.0
  0
LINE
  5
99
  8
BODY
 10
19.468000000000021
 20
19.629999999999988
 30
0.0
 11
19.468000000000021
 21
18.449000000000002
 31
0.0
  0
LINE
  5
9A
  8
BODY
 10
20.468999999999991
 20
19.629999999999988
 30
0.0
 11
20.468999999999991
 21
13.742000000000001
 31
0.0
  0
LINE
  5
9B
  8
BODY
 10
21.132000000000001
 20
18.449000000000002
 30
0.0
 11
24.132000000000009
 21
18.449000000000002
 31
0.0
  0
LINE
  5
9C
  8
BODY
 10
16.477000000000029
 20
13.205
 30
0.0
 11
20.470000000000031
 21
13.205
 31
0.0
  0
LINE
  5
9F
  8
BODY
 10
8.0749999999999886
 20
19.629999999999988
 30
0.0
 11
8.0750000000000455
 21
16.154499999999999
 31
0.0
  0
LINE
  5
A0
  8
BODY
 10
8.0750000000000455
 20
13.802
 30
0.0
 11
20.409000000000049
 21
13.802
 31
0.0
  0
LINE
  5
A1
  8
BODY
 10
20.409000000000049
 20
19.629999999999988
 30
0.0
 11
20.409000000000049
 21
16.154499999999999
 31
0.0
  0
LINE
  5
A2
  8
BODY
 10
20.409000000000049
 20
19.629999999999988
 30
0.0
 11
19.468000000000021
 21
19.629999999999988
 31
0.0
  0
LINE
  5
A3
  8
BODY
 10
8.0749999999999886
 20
19.629999999999988
 30
0.0
 11
9.0160000000000196
 21
19.629999999999988
 31
0.0
  0
LINE
  5
A4
  8
BODY_PANELS
 10
8.0750000000000455
 20
10.804
 30
0.0
 11
11.948000000000031
 21
10.804
 31
0.0
  0
LINE
  5
A6
  8
BODY_PANELS
 10
8.0750000000000455
 20
10.804
 30
0.0
 11
8.0750000000000455
 21
13.145
 31
0.0
  0
LINE
  5
A7
  8
BODY_PANELS
 10
8.0750000000000455
 20
13.145
 30
0.0
 11
11.948000000000031
 21
13.145
 31
0.0
  0
LINE
  5
A8
  8
BODY_PANELS
 10
11.948000000000031
 20
10.804
 30
0.0
 11
11.948000000000031
 21
13.145
 31
0.0
  0
LINE
  5
A9
  8
BODY_PANELS
 10
12.50600000000003
 20
5.7309999999999937
 30
0.0
 11
12.50600000000003
 21
13.145
 31
0.0
  0
LINE
  5
AA
  8
BODY_PANELS
 10
12.50600000000003
 20
13.145
 30
0.0
 11
15.97900000000004
 21
13.145
 31
0.0
  0
LINE
  5
AB
  8
BODY_PANELS
 10
15.97900000000004
 20
5.7309999999999937
 30
0.0
 11
15.97900000000004
 21
13.145
 31
0.0
  0
LINE
  5
AC
  8
BODY_PANELS
 10
16.537000000000031
 20
5.7309999999999937
 30
0.0
 11
16.537000000000031
 21
13.145
 31
0.0
  0
LINE
  5
AD
  8
BODY_PANELS
 10
16.537000000000031
 20
13.145
 30
0.0
 11
20.410000000000029
 21
13.145
 31
0.0
  0
LINE
  5
AE
  8
BODY_PANELS
 10
20.410000000000029
 20
5.7309999999999937
 30
0.0
 11
20.410000000000029
 21
13.145
 31
0.0
  0
LINE
  5
AF
  8
BODY_PANELS
 10
12.50600000000003
 20
5.7309999999999937
 30
0.0
 11
15.97900000000004
 21
5.7309999999999937
 31
0.0
  0
LINE
  5
B0
  8
BODY_PANELS
 10
16.537000000000031
 20
5.7309999999999937
 30
0.0
 11
20.410000000000029
 21
5.7309999999999937
 31
0.0
  0
LINE
  5
B1
  8
BODY_PANELS
 10
12.50600000000003
 20
3.965000000000003
 30
0.0
 11
12.50600000000003
 21
5.1050000000000031
 31
0.0
  0
LINE
  5
B2
  8
BODY_PANELS
 10
12.50600000000003
 20
3.965000000000003
 30
0.0
 11
15.97899999999998
 21
3.965000000000003
 31
0.0
  0
LINE
  5
B3
  8
BODY_PANELS
 10
12.50600000000003
 20
5.1050000000000031
 30
0.0
 11
15.97899999999998
 21
5.1050000000000031
 31
0.0
  0
LINE
  5
B4
  8
BODY_PANELS
 10
15.97899999999998
 20
3.965000000000003
 30
0.0
 11
15.97899999999998
 21
5.1050000000000031
 31
0.0
  0
LINE
  5
B5
  8
BODY_PANELS
 10
17.136000000000021
 20
3.965000000000003
 30
0.0
 11
17.136000000000021
 21
5.1050000000000031
 31
0.0
  0
LINE
  5
B6
  8
BODY_PANELS
 10
17.136000000000021
 20
5.1050000000000031
 30
0.0
 11
20.408999999999988
 21
5.1050000000000031
 31
0.0
  0
LINE
  5
B7
  8
BODY_PANELS
 10
17.136000000000021
 20
3.965000000000003
 30
0.0
 11
20.408999999999988
 21
3.965000000000003
 31
0.0
  0
LINE
  5
B8
  8
BODY_PANELS
 10
20.408999999999988
 20
3.965000000000003
 30
0.0
 11
20.408999999999988
 21
5.1050000000000031
 31
0.0
  0
LINE
  5
B9
  8
BODY_PANELS
 10
21.192000000000011
 20
3.965000000000003
 30
0.0
 11
24.071999999999999
 21
3.965000000000003
 31
0.0
  0
LINE
  5
BA
  8
BODY_PANELS
 10
21.192000000000011
 20
3.965000000000003
 30
0.0
 11
21.192000000000011
 21
5.1050000000000031
 31
0.0
  0
LINE
  5
BB
  8
BODY_PANELS
 10
21.192000000000011
 20
5.1050000000000031
 30
0.0
 11
24.071999999999999
 21
5.1050000000000031
 31
0.0
  0
LINE
  5
BC
  8
BODY_PANELS
 10
24.071999999999999
 20
3.965000000000003
 30
0.0
 11
24.071999999999999
 21
5.1050000000000031
 31
0.0
  0
LINE
  5
BD
  8
BODY_PANELS
 10
9.5980000000000132
 20
3.965000000000003
 30
0.0
 11
11.446999999999999
 21
3.965000000000003
 31
0.0
  0
LINE
  5
BE
  8
BODY_PANELS
 10
9.5980000000000132
 20
3.965000000000003
 30
0.0
 11
9.5980000000000132
 21
5.1050000000000031
 31
0.0
  0
LINE
  5
BF
  8
BODY_PANELS
 10
9.5980000000000132
 20
5.1050000000000031
 30
0.0
 11
11.446999999999999
 21
5.1050000000000031
 31
0.0
  0
LINE
  5
C0
  8
BODY_PANELS
 10
11.446999999999999
 20
3.965000000000003
 30
0.0
 11
11.446999999999999
 21
5.1050000000000031
 31
0.0
  0
LINE
  5
C1
  8
BODY_PANELS
 10
4.41300000000001
 20
5.6550000000000011
 30
0.0
 11
4.41300000000001
 21
18.388999999999989
 31
0.0
  0
LINE
  5
C2
  8
BODY_PANELS
 10
4.41300000000001
 20
18.388999999999989
 30
0.0
 11
7.2930000000000064
 21
18.388999999999989
 31
0.0
  0
LINE
  5
C3
  8
BODY_PANELS
 10
7.2930000000000064
 20
5.6550000000000011
 30
0.0
 11
7.2930000000000064
 21
18.388999999999989
 31
0.0
  0
LINE
  5
C4
  8
BODY_PANELS
 10
21.192000000000011
 20
5.654999999999986
 30
0.0
 11
21.192000000000011
 21
18.388999999999989
 31
0.0
  0
LINE
  5
C5
  8
BODY_PANELS
 10
21.192000000000011
 20
18.388999999999989
 30
0.0
 11
24.071999999999999
 21
18.388999999999989
 31
0.0
  0
LINE
  5
C6
  8
BODY_PANELS
 10
24.071999999999999
 20
5.6550000000000011
 30
0.0
 11
24.071999999999999
 21
18.388999999999989
 31
0.0
  0
LINE
  5
C7
  8
BODY_PANELS
 10
21.192000000000011
 20
5.654999999999986
 30
0.0
 11
24.071999999999999
 21
5.6550000000000011
 31
0.0
  0
LINE
  5
C8
  8
BODY_PANELS
 10
4.41300000000001
 20
5.6550000000000011
 30
0.0
 11
7.2930000000000064
 21
5.6550000000000011
 31
0.0
  0
LINE
  5
C9
  8
BODY_PANELS
 10
3.05400000000003
 20
0.6539999999999964
 30
0.0
 11
7.2930000000000064
 21
0.6539999999999964
 31
0.0
  0
LINE
  5
CA
  8
BODY_PANELS
 10
3.05400000000003
 20
0.6539999999999964
 30
0.0
 11
3.05400000000003
 21
5.1050000000000031
 31
0.0
  0
LINE
  5
CB
  8
BODY_PANELS
 10
3.05400000000003
 20
5.1050000000000031
 30
0.0
 11
7.2930000000000064
 21
5.1050000000000031
 31
0.0
  0
LINE
  5
CC
  8
BODY_PANELS
 10
7.2930000000000064
 20
0.6539999999999964
 30
0.0
 11
7.2930000000000064
 21
5.1050000000000031
 31
0.0
  0
LINE
  5
CD
  8
BODY_PANELS
 10
8.0750000000000455
 20
0.6539999999999964
 30
0.0
 11
11.948000000000031
 21
0.6539999999999964
 31
0.0
  0
LINE
  5
CE
  8
BODY_PANELS
 10
8.0750000000000455
 20
0.6539999999999964
 30
0.0
 11
8.0750000000000455
 21
3.409000000000006
 31
0.0
  0
LINE
  5
CF
  8
BODY_PANELS
 10
8.0750000000000455
 20
3.409000000000006
 30
0.0
 11
11.948000000000031
 21
3.409000000000006
 31
0.0
  0
LINE
  5
D0
  8
BODY_PANELS
 10
11.948000000000031
 20
0.6539999999999964
 30
0.0
 11
11.948000000000031
 21
3.409000000000006
 31
0.0
  0
LINE
  5
D1
  8
BODY_PANELS
 10
16.537000000000031
 20
0.6540000000000106
 30
0.0
 11
18.15300000000002
 21
0.6540000000000106
 31
0.0
  0
LINE
  5
D2
  8
BODY_PANELS
 10
16.537000000000031
 20
0.6540000000000106
 30
0.0
 11
16.537000000000031
 21
3.409000000000006
 31
0.0
  0
LINE
  5
D3
  8
BODY_PANELS
 10
16.537000000000031
 20
3.409000000000006
 30
0.0
 11
18.15300000000002
 21
3.409000000000006
 31
0.0
  0
LINE
  5
D4
  8
BODY_PANELS
 10
18.15300000000002
 20
0.6540000000000106
 30
0.0
 11
18.15300000000002
 21
3.409000000000006
 31
0.0
  0
LINE
  5
D5
  8
BODY_PANELS
 10
18.807000000000009
 20
0.6539999999999964
 30
0.0
 11
18.807000000000009
 21
3.409000000000006
 31
0.0
  0
LINE
  5
D6
  8
BODY_PANELS
 10
18.807000000000009
 20
3.409000000000006
 30
0.0
 11
19.699000000000009
 21
3.409000000000006
 31
0.0
  0
LINE
  5
D7
  8
BODY_PANELS
 10
18.807000000000009
 20
0.6539999999999964
 30
0.0
 11
19.699000000000009
 21
0.6540000000000106
 31
0.0
  0
LINE
  5
D8
  8
BODY_PANELS
 10
19.699000000000009
 20
0.6540000000000106
 30
0.0
 11
19.699000000000009
 21
3.409000000000006
 31
0.0
  0
LINE
  5
D9
  8
BODY_PANELS
 10
20.353000000000009
 20
0.6539999999999964
 30
0.0
 11
20.353000000000009
 21
3.409000000000006
 31
0.0
  0
LINE
  5
DA
  8
BODY_PANELS
 10
20.353000000000009
 20
3.409000000000006
 30
0.0
 11
21.247000000000021
 21
3.409000000000006
 31
0.0
  0
LINE
  5
DB
  8
BODY_PANELS
 10
21.247000000000021
 20
0.6539999999999964
 30
0.0
 11
21.247000000000021
 21
3.409000000000006
 31
0.0
  0
LINE
  5
DC
  8
BODY_PANELS
 10
20.353000000000009
 20
0.6539999999999964
 30
0.0
 11
21.247000000000021
 21
0.6539999999999964
 31
0.0
  0
LINE
  5
DD
  8
BODY
 10
22.158999999999988
 20
2.75
 30
0.0
 11
22.908999999999988
 21
3.5
 31
0.0
  0
LINE
  5
DE
  8
BODY
 10
24.346
 20
3.5
 30
0.0
 11
25.096000000000011
 21
2.75
 31
0.0
  0
LINE
  5
DF
  8
BODY
 10
25.096000000000011
 20
1.3130000000000019
 30
0.0
 11
24.346
 21
0.5630000000000024
 31
0.0
  0
LINE
  5
E0
  8
BODY
 10
22.908999999999988
 20
0.5630000000000024
 30
0.0
 11
22.158999999999988
 21
1.3130000000000019
 31
0.0
  0
LINE
  5
E1
  8
BODY_PANELS
 10
10.185
 20
5.7309999999999937
 30
0.0
 11
11.948000000000031
 21
5.7309999999999937
 31
0.0
  0
LINE
  5
E2
  8
BODY_PANELS
 10
10.185
 20
5.7309999999999937
 30
0.0
 11
10.185
 21
9.9609999999999985
 31
0.0
  0
LINE
  5
E3
  8
BODY_PANELS
 10
10.185
 20
9.9609999999999985
 30
0.0
 11
11.948000000000031
 21
9.9609999999999985
 31
0.0
  0
LINE
  5
E4
  8
BODY_PANELS
 10
11.948000000000031
 20
5.7309999999999937
 30
0.0
 11
11.948000000000031
 21
9.9609999999999985
 31
0.0
  0
LINE
  5
E5
  8
BODY
 10
0.0
 20
19.07899999999999
 30
0.0
 11
0.0
 21
19.629999999999988
 31
0.0
  0
LINE
  5
E6
  8
BODY_PANELS
 10
4.7070000000000496
 20
6.1459999999999999
 30
0.0
 11
4.7070000000000496
 21
17.897999999999989
 31
0.0
  0
LINE
  5
E7
  8
BODY_PANELS
 10
4.9040000000000532
 20
5.9489999999999981
 30
0.0
 11
6.80200000000002
 21
5.9489999999999981
 31
0.0
  0
LINE
  5
E8
  8
BODY_PANELS
 10
6.9990000000000228
 20
6.1459999999999999
 30
0.0
 11
6.9990000000000228
 21
17.89800000000001
 31
0.0
  0
LINE
  5
E9
  8
BODY_PANELS
 10
4.9040000000000532
 20
18.094999999999999
 30
0.0
 11
6.80200000000002
 21
18.094999999999999
 31
0.0
  0
LINE
  5
EA
  8
BODY_PANELS
 10
10.676000000000039
 20
9.6670000000000016
 30
0.0
 11
11.45700000000005
 21
9.6670000000000016
 31
0.0
  0
LINE
  5
EB
  8
BODY_PANELS
 10
10.47900000000004
 20
6.2219999999999942
 30
0.0
 11
10.47900000000004
 21
9.4699999999999989
 31
0.0
  0
LINE
  5
EC
  8
BODY_PANELS
 10
10.676000000000039
 20
6.0250000000000048
 30
0.0
 11
11.45700000000005
 21
6.0250000000000048
 31
0.0
  0
LINE
  5
ED
  8
BODY_PANELS
 10
11.653999999999989
 20
6.2219999999999942
 30
0.0
 11
11.653999999999989
 21
9.4699999999999989
 31
0.0
  0
LINE
  5
EE
  8
BODY_PANELS
 10
17.02800000000002
 20
12.851000000000001
 30
0.0
 11
19.91900000000004
 21
12.851000000000001
 31
0.0
  0
LINE
  5
EF
  8
BODY_PANELS
 10
16.831000000000021
 20
6.2219999999999942
 30
0.0
 11
16.831000000000021
 21
12.653999999999989
 31
0.0
  0
LINE
  5
F0
  8
BODY_PANELS
 10
17.02800000000002
 20
6.0250000000000048
 30
0.0
 11
19.91900000000004
 21
6.0250000000000048
 31
0.0
  0
LINE
  5
F1
  8
BODY_PANELS
 10
20.116000000000039
 20
6.2219999999999942
 30
0.0
 11
20.116000000000039
 21
12.653999999999989
 31
0.0
  0
LINE
  5
F2
  8
BODY_PANELS
 10
21.48599999999999
 20
6.1459999999999999
 30
0.0
 11
21.48599999999999
 21
17.897999999999989
 31
0.0
  0
LINE
  5
F3
  8
BODY_PANELS
 10
21.682999999999989
 20
5.9489999999999981
 30
0.0
 11
23.581000000000021
 21
5.9489999999999981
 31
0.0
  0
LINE
  5
F4
  8
BODY_PANELS
 10
23.77800000000002
 20
6.1459999999999999
 30
0.0
 11
23.77800000000002
 21
17.897999999999989
 31
0.0
  0
LINE
  5
F5
  8
BODY_PANELS
 10
21.682999999999989
 20
18.094999999999999
 30
0.0
 11
23.581000000000021
 21
18.094999999999999
 31
0.0
  0
ARC
  5
F6
  8
BODY_PANELS
 10
4.9040000000000532
 20
6.1459999999999999
 30
0.0
 40
0.197
 50
180.0
 51
270.0
  0
ARC
  5
F7
  8
BODY_PANELS
 10
4.9040000000000532
 20
17.897999999999989
 30
0.0
 40
0.197
 50
90.000000000000057
 51
180.0
  0
ARC
  5
F8
  8
BODY_PANELS
 10
6.80200000000002
 20
17.89800000000001
 30
0.0
 40
0.197
 50
0.0
 51
90.000000000000071
  0
ARC
  5
F9
  8
BODY_PANELS
 10
6.80200000000002
 20
6.1459999999999999
 30
0.0
 40
0.197
 50
270.0
 51
0.0
  0
ARC
  5
FA
  8
BODY_PANELS
 10
10.676000000000039
 20
9.4699999999999989
 30
0.0
 40
0.197
 50
90.000000000000057
 51
180.0
  0
ARC
  5
FB
  8
BODY_PANELS
 10
11.45700000000005
 20
9.4699999999999989
 30
0.0
 40
0.197
 50
0.0
 51
89.999999999999915
  0
ARC
  5
FC
  8
BODY_PANELS
 10
11.45700000000005
 20
6.2219999999999942
 30
0.0
 40
0.197
 50
270.0
 51
0.0
  0
ARC
  5
FD
  8
BODY_PANELS
 10
10.676000000000039
 20
6.2219999999999942
 30
0.0
 40
0.197
 50
180.0
 51
270.0
  0
ARC
  5
FE
  8
BODY_PANELS
 10
17.02800000000002
 20
6.2219999999999942
 30
0.0
 40
0.197
 50
180.0
 51
270.0
  0
ARC
  5
FF
  8
BODY_PANELS
 10
17.02800000000002
 20
12.653999999999989
 30
0.0
 40
0.197
 50
90.0
 51
180.0
  0
ARC
  5
100
  8
BODY_PANELS
 10
19.91900000000004
 20
12.653999999999989
 30
0.0
 40
0.197
 50
0.0
 51
90.0
  0
ARC
  5
101
  8
BODY_PANELS
 10
19.91900000000004
 20
6.2219999999999942
 30
0.0
 40
0.197
 50
270.0
 51
0.0
  0
ARC
  5
102
  8
BODY_PANELS
 10
21.682999999999989
 20
6.1459999999999999
 30
0.0
 40
0.197
 50
180.0
 51
270.00000000000011
  0
ARC
  5
103
  8
BODY_PANELS
 10
21.682999999999989
 20
17.897999999999989
 30
0.0
 40
0.197
 50
89.999999999999915
 51
180.0
  0
ARC
  5
104
  8
BODY_PANELS
 10
23.581000000000021
 20
17.897999999999989
 30
0.0
 40
0.197
 50
0.0
 51
89.999999999999915
  0
ARC
  5
105
  8
BODY_PANELS
 10
23.581000000000021
 20
6.1459999999999999
 30
0.0
 40
0.197
 50
270.00000000000011
 51
0.0
  0
LINE
  5
106
  8
BODY_PANELS
 10
13.89500000000004
 20
12.926
 30
0.0
 11
14.59000000000003
 21
12.926
 31
0.0
  0
LINE
  5
107
  8
BODY_PANELS
 10
13.89500000000004
 20
9.5510000000000002
 30
0.0
 11
14.59000000000003
 21
9.5510000000000002
 31
0.0
  0
LINE
  5
108
  8
BODY_PANELS
 10
13.89500000000004
 20
9.3259999999999934
 30
0.0
 11
14.59000000000003
 21
9.3259999999999934
 31
0.0
  0
LINE
  5
109
  8
BODY_PANELS
 10
13.89500000000004
 20
5.9509999999999934
 30
0.0
 11
14.59000000000003
 21
5.9509999999999934
 31
0.0
  0
LINE
  5
10A
  8
BODY_PANELS
 10
15.77800000000002
 20
7.1389999999999949
 30
0.0
 11
15.77800000000002
 21
8.1380000000000052
 31
0.0
  0
LINE
  5
10B
  8
BODY_PANELS
 10
12.70699999999999
 20
7.1389999999999949
 30
0.0
 11
12.70699999999999
 21
8.137999999999991
 31
0.0
  0
ARC
  5
10C
  8
BODY_PANELS
 10
13.89500000000004
 20
11.738
 30
0.0
 40
1.1879999999999991
 50
90.0
 51
180.0
  0
ARC
  5
10D
  8
BODY_PANELS
 10
14.59000000000003
 20
11.738
 30
0.0
 40
1.1879999999999991
 50
0.0
 51
90.0
  0
ARC
  5
10E
  8
BODY_PANELS
 10
14.59000000000003
 20
10.73899999999999
 30
0.0
 40
1.1879999999999991
 50
270.0
 51
0.0
  0
ARC
  5
10F
  8
BODY_PANELS
 10
14.59000000000003
 20
7.1389999999999949
 30
0.0
 40
1.1879999999999991
 50
270.0
 51
0.0
  0
ARC
  5
110
  8
BODY_PANELS
 10
13.89500000000004
 20
10.73899999999999
 30
0.0
 40
1.1879999999999991
 50
180.0
 51
269.99999999999989
  0
ARC
  5
111
  8
BODY_PANELS
 10
13.89500000000004
 20
7.1389999999999949
 30
0.0
 40
1.1879999999999991
 50
180.0
 51
269.99999999999989
  0
ARC
  5
112
  8
BODY_PANELS
 10
13.89500000000004
 20
8.137999999999991
 30
0.0
 40
1.1879999999999991
 50
90.0
 51
180.0
  0
ARC
  5
113
  8
BODY_PANELS
 10
14.59000000000003
 20
8.137999999999991
 30
0.0
 40
1.1879999999999991
 50
0.0
 51
90.0
  0
LINE
  5
114
  8
BODY_PANELS
 10
12.70699999999999
 20
10.73899999999999
 30
0.0
 11
12.70699999999999
 21
11.738
 31
0.0
  0
LINE
  5
115
  8
BODY_PANELS
 10
15.77800000000002
 20
10.73899999999999
 30
0.0
 11
15.77800000000002
 21
11.738
 31
0.0
  0
LINE
  5
116
  8
BODY
 10
0.6550124456700246
 20
12.500261001936209
 30
0.0
 11
0.4929181038237403
 21
12.46902767347221
 31
0.0
  0
LINE
  5
117
  8
BODY
 10
0.4929181038237403
 20
19.031435620866642
 30
0.0
 11
0.6550124456700246
 21
19.000235519059501
 31
0.0
  0
LINE
  5
118
  8
BODY
 10
0.4929181038237403
 20
12.46902767347221
 30
0.0
 11
0.329463844963584
 21
12.445433137880331
 31
0.0
  0
LINE
  5
119
  8
BODY
 10
0.329463844963584
 20
12.445433137880331
 30
0.0
 11
0.1650302050155687
 21
12.429532325321
 31
0.0
  0
LINE
  5
11A
  8
BODY
 10
0.1650302050155687
 20
12.429532325321
 30
0.0
 11
0.0
 21
12.42136225428167
 31
0.0
  0
LINE
  5
11B
  8
BODY
 10
0.1650302050155687
 20
19.07086375742459
 30
0.0
 11
0.329463844963584
 21
19.054996651041829
 31
0.0
  0
LINE
  5
11C
  8
BODY
 10
0.329463844963584
 20
19.054996651041829
 30
0.0
 11
0.4929181038237403
 21
19.031435620866642
 31
0.0
  0
LINE
  5
11D
  8
BODY
 10
0.0
 20
19.07899999999999
 30
0.0
 11
0.1650302050155687
 21
19.07086375742459
 31
0.0
  0
LINE
  5
11E
  8
BODY
 10
25.345045948598109
 20
16.85191493648335
 30
0.0
 11
25.40355221172257
 21
17.002214345264012
 31
0.0
  0
LINE
  5
11F
  8
BODY
 10
3.081458887635506
 20
17.004316701693011
 30
0.0
 11
3.1399653711694659
 21
16.854057476439142
 31
0.0
  0
LINE
  5
120
  8
BODY
 10
26.010164755003299
 20
13.543426946179011
 30
0.0
 11
25.903750963397609
 21
13.66628699918811
 31
0.0
  0
LINE
  5
121
  8
BODY
 10
2.5812582636102088
 20
13.668057828883191
 30
0.0
 11
2.474844076575323
 21
13.54512574439512
 31
0.0
  0
LINE
  5
122
  8
BODY
 10
1.720514181107148
 20
12.924482982012011
 30
0.0
 11
1.578218977916094
 21
12.842783533386511
 31
0.0
  0
LINE
  5
123
  8
BODY
 10
1.578218977916094
 20
12.842783533386511
 30
0.0
 11
1.4320371815501849
 21
12.767852741027511
 31
0.0
  0
LINE
  5
124
  8
BODY
 10
1.129383361783368
 20
12.63897874291886
 30
0.0
 11
0.9736159431724331
 21
12.585335567206849
 31
0.0
  0
LINE
  5
125
  8
BODY
 10
0.9736159431724331
 20
12.585335567206849
 30
0.0
 11
0.8153695005726717
 21
12.539060409328821
 31
0.0
  0
LINE
  5
126
  8
BODY
 10
0.8153695005726717
 20
12.539060409328821
 30
0.0
 11
0.6550124456700246
 21
12.500261001936209
 31
0.0
  0
LINE
  5
127
  8
BODY
 10
1.4320371815501849
 20
12.767852741027511
 30
0.0
 11
1.2823091161249061
 21
12.69986505042378
 31
0.0
  0
LINE
  5
128
  8
BODY
 10
1.2823091161249061
 20
12.69986505042378
 30
0.0
 11
1.129383361783368
 21
12.63897874291886
 31
0.0
  0
LINE
  5
129
  8
BODY
 10
2.2443553056919541
 20
13.314936445773849
 30
0.0
 11
2.1208173200341771
 21
13.208215132622721
 31
0.0
  0
LINE
  5
12A
  8
BODY
 10
1.992129524402344
 20
13.10741171874615
 30
0.0
 11
1.8585915153380479
 21
13.01276088337992
 31
0.0
  0
LINE
  5
12B
  8
BODY
 10
1.8585915153380479
 20
13.01276088337992
 30
0.0
 11
1.720514181107148
 21
12.924482982012011
 31
0.0
  0
LINE
  5
12C
  8
BODY
 10
2.1208173200341771
 20
13.208215132622721
 30
0.0
 11
1.992129524402344
 21
13.10741171874615
 31
0.0
  0
LINE
  5
12D
  8
BODY
 10
2.474844076575323
 20
13.54512574439512
 30
0.0
 11
2.3624558740504531
 21
13.427327201558549
 31
0.0
  0
LINE
  5
12E
  8
BODY
 10
2.3624558740504531
 20
13.427327201558549
 30
0.0
 11
2.2443553056919541
 21
13.314936445773849
 31
0.0
  0
LINE
  5
12F
  8
BODY
 10
2.7751881095745139
 20
13.92816655081991
 30
0.0
 11
2.6814506935493791
 21
13.79583725828409
 31
0.0
  0
LINE
  5
130
  8
BODY
 10
2.6814506935493791
 20
13.79583725828409
 30
0.0
 11
2.5812582636102088
 21
13.668057828883191
 31
0.0
  0
LINE
  5
131
  8
BODY
 10
25.187343146326729
 20
15.267880290298651
 30
0.0
 11
25.167457047448579
 21
15.42737485772926
 31
0.0
  0
LINE
  5
132
  8
BODY
 10
3.3175549430709448
 20
15.429641832564631
 30
0.0
 11
3.2976687689566111
 21
15.27013414797282
 31
0.0
  0
LINE
  5
133
  8
BODY
 10
3.081458887635506
 20
14.496677200687021
 30
0.0
 11
3.0155661358349439
 21
14.349324228508451
 31
0.0
  0
LINE
  5
134
  8
BODY
 10
3.0155661358349439
 20
14.349324228508451
 30
0.0
 11
2.942440519898696
 21
14.20523255297722
 31
0.0
  0
LINE
  5
135
  8
BODY
 10
2.942440519898696
 20
14.20523255297722
 30
0.0
 11
2.862252282717292
 21
14.0647376322248
 31
0.0
  0
LINE
  5
136
  8
BODY
 10
2.862252282717292
 20
14.0647376322248
 30
0.0
 11
2.7751881095745139
 21
13.92816655081991
 31
0.0
  0
LINE
  5
137
  8
BODY
 10
3.269892970900059
 20
15.111744033320621
 30
0.0
 11
3.2342922134039891
 21
14.954840234770399
 31
0.0
  0
LINE
  5
138
  8
BODY
 10
3.2342922134039891
 20
14.954840234770399
 30
0.0
 11
3.190949378183404
 21
14.799788038201131
 31
0.0
  0
LINE
  5
139
  8
BODY
 10
3.1399653711694659
 20
14.646948418802859
 30
0.0
 11
3.081458887635506
 21
14.496677200687021
 31
0.0
  0
LINE
  5
13A
  8
BODY
 10
3.190949378183404
 20
14.799788038201131
 30
0.0
 11
3.1399653711694659
 21
14.646948418802859
 31
0.0
  0
LINE
  5
13B
  8
BODY
 10
3.2976687689566111
 20
15.27013414797282
 30
0.0
 11
3.269892970900059
 21
15.111744033320621
 31
0.0
  0
LINE
  5
13C
  8
BODY
 10
25.469444715633418
 20
14.34725985121656
 30
0.0
 11
25.40355221172257
 21
14.494568394876289
 31
0.0
  0
LINE
  5
13D
  8
BODY
 10
25.709821840732442
 20
13.926264537024959
 30
0.0
 11
25.622757993408641
 21
14.06277677171442
 31
0.0
  0
LINE
  5
13E
  8
BODY
 10
25.803558906722181
 20
13.793998637373759
 30
0.0
 11
25.709821840732442
 21
13.926264537024959
 31
0.0
  0
LINE
  5
13F
  8
BODY
 10
25.903750963397609
 20
13.66628699918811
 30
0.0
 11
25.803558906722181
 21
13.793998637373759
 31
0.0
  0
LINE
  5
140
  8
BODY
 10
25.622757993408641
 20
14.06277677171442
 30
0.0
 11
25.542570056896469
 21
14.203217529176531
 31
0.0
  0
LINE
  5
141
  8
BODY
 10
25.542570056896469
 20
14.203217529176531
 30
0.0
 11
25.469444715633418
 21
14.34725985121656
 31
0.0
  0
LINE
  5
142
  8
BODY
 10
25.345045948598109
 20
14.64480021315825
 30
0.0
 11
25.29406213388728
 21
14.79760555342329
 31
0.0
  0
LINE
  5
143
  8
BODY
 10
25.40355221172257
 20
14.494568394876289
 30
0.0
 11
25.345045948598109
 21
14.64480021315825
 31
0.0
  0
LINE
  5
144
  8
BODY
 10
25.21511883935176
 20
15.109508660665769
 30
0.0
 11
25.187343146326729
 21
15.267880290298651
 31
0.0
  0
LINE
  5
145
  8
BODY
 10
25.250719462312361
 20
14.952628671658429
 30
0.0
 11
25.21511883935176
 21
15.109508660665769
 31
0.0
  0
LINE
  5
146
  8
BODY
 10
25.29406213388728
 20
14.79760555342329
 30
0.0
 11
25.250719462312361
 21
14.952628671658429
 31
0.0
  0
LINE
  5
147
  8
BODY
 10
3.2976687689566111
 20
16.230904073859151
 30
0.0
 11
3.3175549430709448
 21
16.071400465601911
 31
0.0
  0
LINE
  5
148
  8
BODY
 10
3.3175549430709448
 20
16.071400465601911
 30
0.0
 11
3.329505196476191
 21
15.911149008630369
 31
0.0
  0
LINE
  5
149
  8
BODY
 10
3.329505196476191
 20
15.911149008630369
 30
0.0
 11
3.333491707928828
 21
15.750522782469069
 31
0.0
  0
LINE
  5
14A
  8
BODY
 10
3.333491707928828
 20
15.750522782469069
 30
0.0
 11
3.329505196476191
 21
15.58989573913844
 31
0.0
  0
LINE
  5
14B
  8
BODY
 10
3.329505196476191
 20
15.58989573913844
 30
0.0
 11
3.3175549430709448
 21
15.429641832564631
 31
0.0
  0
LINE
  5
14C
  8
BODY
 10
3.2342922134039891
 20
16.546184995912181
 30
0.0
 11
3.269892970900059
 21
16.38928849492877
 31
0.0
  0
LINE
  5
14D
  8
BODY
 10
3.1399653711694659
 20
16.854057476439142
 30
0.0
 11
3.190949378183404
 21
16.70122830791864
 31
0.0
  0
LINE
  5
14E
  8
BODY
 10
3.190949378183404
 20
16.70122830791864
 30
0.0
 11
3.2342922134039891
 21
16.546184995912181
 31
0.0
  0
LINE
  5
14F
  8
BODY
 10
3.269892970900059
 20
16.38928849492877
 30
0.0
 11
3.2976687689566111
 21
16.230904073859151
 31
0.0
  0
LINE
  5
150
  8
BODY
 10
25.167457047448579
 20
16.069135128876781
 30
0.0
 11
25.187343146326729
 21
16.228652670114059
 31
0.0
  0
LINE
  5
151
  8
BODY
 10
25.167457047448579
 20
15.42737485772926
 30
0.0
 11
25.155506839271649
 21
15.58762104585054
 31
0.0
  0
LINE
  5
152
  8
BODY
 10
25.155506839271649
 20
15.908875135043219
 30
0.0
 11
25.167457047448579
 21
16.069135128876781
 31
0.0
  0
LINE
  5
153
  8
BODY
 10
25.151520342909631
 20
15.748245787708701
 30
0.0
 11
25.155506839271649
 21
15.908875135043219
 31
0.0
  0
LINE
  5
154
  8
BODY
 10
25.155506839271649
 20
15.58762104585054
 30
0.0
 11
25.151520342909631
 21
15.748245787708701
 31
0.0
  0
LINE
  5
155
  8
BODY
 10
25.21511883935176
 20
16.387056388151851
 30
0.0
 11
25.250719462312361
 21
16.543977505473379
 31
0.0
  0
LINE
  5
156
  8
BODY
 10
25.187343146326729
 20
16.228652670114059
 30
0.0
 11
25.21511883935176
 21
16.387056388151851
 31
0.0
  0
LINE
  5
157
  8
BODY
 10
25.29406213388728
 20
16.699050696172151
 30
0.0
 11
25.345045948598109
 21
16.85191493648335
 31
0.0
  0
LINE
  5
158
  8
BODY
 10
25.250719462312361
 20
16.543977505473379
 30
0.0
 11
25.29406213388728
 21
16.699050696172151
 31
0.0
  0
LINE
  5
159
  8
BODY
 10
28.155537281776621
 20
12.445189708317971
 30
0.0
 11
27.992083588609368
 21
12.468673227907971
 31
0.0
  0
LINE
  5
15A
  8
BODY
 10
27.20269536303255
 20
12.698974713739741
 30
0.0
 11
27.05296783539865
 21
12.766860811975279
 31
0.0
  0
LINE
  5
15B
  8
BODY
 10
27.05296783539865
 20
12.766860811975279
 30
0.0
 11
26.906786566662561
 21
12.841692437159001
 31
0.0
  0
LINE
  5
15C
  8
BODY
 10
26.626415048008369
 20
13.01147964625045
 30
0.0
 11
26.492877527180269
 21
13.106039950882179
 31
0.0
  0
LINE
  5
15D
  8
BODY
 10
26.492877527180269
 20
13.106039950882179
 30
0.0
 11
26.364190203808281
 21
13.20675614416194
 31
0.0
  0
LINE
  5
15E
  8
BODY
 10
26.2406526730914
 20
13.313393750102019
 30
0.0
 11
26.122552541055772
 21
13.42570450715203
 31
0.0
  0
LINE
  5
15F
  8
BODY
 10
26.364190203808281
 20
13.20675614416194
 30
0.0
 11
26.2406526730914
 21
13.313393750102019
 31
0.0
  0
LINE
  5
160
  8
BODY
 10
26.122552541055772
 20
13.42570450715203
 30
0.0
 11
26.010164755003299
 21
13.543426946179011
 31
0.0
  0
LINE
  5
161
  8
BODY
 10
26.764491879432232
 20
12.92329537480992
 30
0.0
 11
26.626415048008369
 21
13.01147964625045
 31
0.0
  0
LINE
  5
162
  8
BODY
 10
26.906786566662561
 20
12.841692437159001
 30
0.0
 11
26.764491879432232
 21
12.92329537480992
 31
0.0
  0
LINE
  5
163
  8
BODY
 10
27.669633319742331
 20
12.53848700957974
 30
0.0
 11
27.511387436091361
 21
12.584654739160611
 31
0.0
  0
LINE
  5
164
  8
BODY
 10
27.35562057095677
 20
12.63819218714621
 30
0.0
 11
27.20269536303255
 21
12.698974713739741
 31
0.0
  0
LINE
  5
165
  8
BODY
 10
27.511387436091361
 20
12.584654739160611
 30
0.0
 11
27.35562057095677
 21
12.63819218714621
 31
0.0
  0
LINE
  5
166
  8
BODY
 10
27.992083588609368
 20
12.468673227907971
 30
0.0
 11
27.829989811829989
 21
12.499796480866159
 31
0.0
  0
LINE
  5
167
  8
BODY
 10
27.829989811829989
 20
12.499796480866159
 30
0.0
 11
27.669633319742331
 21
12.53848700957974
 31
0.0
  0
LINE
  5
168
  8
BODY
 10
28.48500000000001
 20
12.421342642663941
 30
0.0
 11
28.319970357039612
 21
12.42940059376445
 31
0.0
  0
LINE
  5
169
  8
BODY
 10
28.319970357039612
 20
12.42940059376445
 30
0.0
 11
28.155537281776621
 21
12.445189708317971
 31
0.0
  0
LINE
  5
16A
  8
BODY
 10
25.903750963397609
 20
17.831073605295671
 30
0.0
 11
26.010164755003299
 21
17.95405659490876
 31
0.0
  0
LINE
  5
16B
  8
BODY
 10
2.6814506935493791
 20
17.705074649034529
 30
0.0
 11
2.7751881095745139
 21
17.572764571116451
 31
0.0
  0
LINE
  5
16C
  8
BODY
 10
1.5782189779161511
 20
18.65790222967648
 30
0.0
 11
1.720514181107148
 21
18.576231949215789
 31
0.0
  0
LINE
  5
16D
  8
BODY
 10
2.5812582636102088
 20
17.83283354064444
 30
0.0
 11
2.6814506935493791
 21
17.705074649034529
 31
0.0
  0
LINE
  5
16E
  8
BODY
 10
2.1208173200341771
 20
18.292581854127189
 30
0.0
 11
2.2443553056919541
 21
18.185885864223611
 31
0.0
  0
LINE
  5
16F
  8
BODY
 10
1.8585915153380479
 20
18.487982351418211
 30
0.0
 11
1.992129524402344
 21
18.393358889134149
 31
0.0
  0
LINE
  5
170
  8
BODY
 10
1.992129524402344
 20
18.393358889134149
 30
0.0
 11
2.1208173200341771
 21
18.292581854127189
 31
0.0
  0
LINE
  5
171
  8
BODY
 10
1.720514181107148
 20
18.576231949215789
 30
0.0
 11
1.8585915153380479
 21
18.487982351418211
 31
0.0
  0
LINE
  5
172
  8
BODY
 10
2.2443553056919541
 20
18.185885864223611
 30
0.0
 11
2.3624558740504531
 21
18.073519317095968
 31
0.0
  0
LINE
  5
173
  8
BODY
 10
2.474844076575323
 20
17.955743811983371
 30
0.0
 11
2.5812582636102088
 21
17.83283354064444
 31
0.0
  0
LINE
  5
174
  8
BODY
 10
2.3624558740504531
 20
18.073519317095968
 30
0.0
 11
2.474844076575323
 21
17.955743811983371
 31
0.0
  0
LINE
  5
175
  8
BODY
 10
0.9736159431724331
 20
18.915226262240349
 30
0.0
 11
1.129383361783368
 21
18.861615016271841
 31
0.0
  0
LINE
  5
176
  8
BODY
 10
0.8153695005726717
 20
18.961468982213528
 30
0.0
 11
0.9736159431724331
 21
18.915226262240349
 31
0.0
  0
LINE
  5
177
  8
BODY
 10
0.6550124456700246
 20
19.000235519059501
 30
0.0
 11
0.8153695005726717
 21
18.961468982213528
 31
0.0
  0
LINE
  5
178
  8
BODY
 10
1.2823091161249061
 20
18.800760056014369
 30
0.0
 11
1.4320371815501849
 21
18.732803057189571
 31
0.0
  0
LINE
  5
179
  8
BODY
 10
1.4320371815501849
 20
18.732803057189571
 30
0.0
 11
1.5782189779161511
 21
18.65790222967648
 31
0.0
  0
LINE
  5
17A
  8
BODY
 10
1.129383361783368
 20
18.861615016271841
 30
0.0
 11
1.2823091161249061
 21
18.800760056014369
 31
0.0
  0
LINE
  5
17B
  8
BODY
 10
2.862252282717292
 20
17.436211336427721
 30
0.0
 11
2.942440519898696
 21
17.295732852938819
 31
0.0
  0
LINE
  5
17C
  8
BODY
 10
2.7751881095745139
 20
17.572764571116451
 30
0.0
 11
2.862252282717292
 21
17.436211336427721
 31
0.0
  0
LINE
  5
17D
  8
BODY
 10
3.0155661358349439
 20
17.151656166946658
 30
0.0
 11
3.081458887635506
 21
17.004316701693011
 31
0.0
  0
LINE
  5
17E
  8
BODY
 10
2.942440519898696
 20
17.295732852938819
 30
0.0
 11
3.0155661358349439
 21
17.151656166946658
 31
0.0
  0
LINE
  5
17F
  8
BODY
 10
25.803558906722181
 20
17.703246218285411
 30
0.0
 11
25.903750963397609
 21
17.831073605295671
 31
0.0
  0
LINE
  5
180
  8
BODY
 10
25.40355221172257
 20
17.002214345264012
 30
0.0
 11
25.469444715633418
 21
17.149599012520749
 31
0.0
  0
LINE
  5
181
  8
BODY
 10
25.622757993408641
 20
17.434259210173082
 30
0.0
 11
25.709821840732442
 21
17.570872027065381
 31
0.0
  0
LINE
  5
182
  8
BODY
 10
25.542570056896469
 20
17.29372581403555
 30
0.0
 11
25.622757993408641
 21
17.434259210173082
 31
0.0
  0
LINE
  5
183
  8
BODY
 10
25.709821840732442
 20
17.570872027065381
 30
0.0
 11
25.803558906722181
 21
17.703246218285411
 31
0.0
  0
LINE
  5
184
  8
BODY
 10
25.469444715633418
 20
17.149599012520749
 30
0.0
 11
25.542570056896469
 21
17.29372581403555
 31
0.0
  0
LINE
  5
185
  8
BODY
 10
27.992083588609368
 20
19.031099963479221
 30
0.0
 11
28.155537281776621
 21
19.054772316128719
 31
0.0
  0
LINE
  5
186
  8
BODY
 10
26.764491879432232
 20
18.57505961736382
 30
0.0
 11
26.906786566662561
 21
18.656826943724241
 31
0.0
  0
LINE
  5
187
  8
BODY
 10
26.492877527180269
 20
18.392001253525791
 30
0.0
 11
26.626415048008369
 21
18.486715829981389
 31
0.0
  0
LINE
  5
188
  8
BODY
 10
26.122552541055772
 20
18.071908872110441
 30
0.0
 11
26.2406526730914
 21
18.18435606663428
 31
0.0
  0
LINE
  5
189
  8
BODY
 10
26.364190203808281
 20
18.291136391709468
 30
0.0
 11
26.492877527180269
 21
18.392001253525791
 31
0.0
  0
LINE
  5
18A
  8
BODY
 10
26.2406526730914
 20
18.18435606663428
 30
0.0
 11
26.364190203808281
 21
18.291136391709468
 31
0.0
  0
LINE
  5
18B
  8
BODY
 10
26.010164755003299
 20
17.95405659490876
 30
0.0
 11
26.122552541055772
 21
18.071908872110441
 31
0.0
  0
LINE
  5
18C
  8
BODY
 10
26.626415048008369
 20
18.486715829981389
 30
0.0
 11
26.764491879432232
 21
18.57505961736382
 31
0.0
  0
LINE
  5
18D
  8
BODY
 10
27.05296783539865
 20
18.731827447660692
 30
0.0
 11
27.20269536303255
 21
18.799886521538671
 31
0.0
  0
LINE
  5
18E
  8
BODY
 10
26.906786566662561
 20
18.656826943724241
 30
0.0
 11
27.05296783539865
 21
18.731827447660692
 31
0.0
  0
LINE
  5
18F
  8
BODY
 10
27.511387436091361
 20
18.914563118642601
 30
0.0
 11
27.669633319742331
 21
18.960913664857799
 31
0.0
  0
LINE
  5
190
  8
BODY
 10
27.20269536303255
 20
18.799886521538671
 30
0.0
 11
27.35562057095677
 21
18.860845717955609
 31
0.0
  0
LINE
  5
191
  8
BODY
 10
27.35562057095677
 20
18.860845717955609
 30
0.0
 11
27.511387436091361
 21
18.914563118642601
 31
0.0
  0
LINE
  5
192
  8
BODY
 10
27.829989811829989
 20
18.999789448528531
 30
0.0
 11
27.992083588609368
 21
19.031099963479221
 31
0.0
  0
LINE
  5
193
  8
BODY
 10
27.669633319742331
 20
18.960913664857799
 30
0.0
 11
27.829989811829989
 21
18.999789448528531
 31
0.0
  0
LINE
  5
194
  8
BODY
 10
28.319970357039612
 20
19.070751395190481
 30
0.0
 11
28.48500000000001
 21
19.079000000000011
 31
0.0
  0
LINE
  5
195
  8
BODY
 10
28.155537281776621
 20
19.054772316128719
 30
0.0
 11
28.319970357039612
 21
19.070751395190481
 31
0.0
  0
LINE
  5
196
  8
BODY
 10
19.468000000000021
 20
16.871446840973121
 30
0.0
 11
19.468000000000021
 21
17.871446840973121
 31
0.0
  0
LINE
  5
197
  8
BODY
 10
13.18200000000002
 20
16.622446840973119
 30
0.0
 11
13.18200000000002
 21
16.997946840973128
 31
0.0
  0
LINE
  5
198
  8
BODY
 10
9.0160000000000196
 20
16.891446840973131
 30
0.0
 11
9.0160000000000196
 21
17.851446840973122
 31
0.0
  0
LINE
  5
199
  8
BODY
 10
19.468000000000021
 20
16.871446840973121
 30
0.0
 11
18.283000000000008
 21
16.871446840973121
 31
0.0
  0
LINE
  5
19A
  8
BODY
 10
19.468000000000021
 20
17.871446840973121
 30
0.0
 11
18.283000000000008
 21
17.871446840973121
 31
0.0
  0
LINE
  5
19B
  8
BODY
 10
17.559000000000019
 20
16.622446840973119
 30
0.0
 11
13.18200000000002
 21
16.622446840973119
 31
0.0
  0
LINE
  5
19C
  8
BODY
 10
17.559000000000019
 20
18.120446840973131
 30
0.0
 11
13.18200000000002
 21
18.120446840973131
 31
0.0
  0
LINE
  5
19D
  8
BODY
 10
18.283000000000008
 20
16.871446840973121
 30
0.0
 11
17.559000000000019
 21
16.622446840973119
 31
0.0
  0
LINE
  5
19E
  8
BODY
 10
18.283000000000008
 20
17.871446840973121
 30
0.0
 11
17.559000000000019
 21
18.120446840973131
 31
0.0
  0
LINE
  5
19F
  8
BODY
 10
13.18200000000002
 20
17.744946840973121
 30
0.0
 11
13.18200000000002
 21
18.120446840973131
 31
0.0
  0
LINE
  5
1A0
  8
BODY
 10
13.18200000000002
 20
16.997946840973128
 30
0.0
 11
12.35300000000001
 21
16.89344684097313
 31
0.0
  0
LINE
  5
1A1
  8
BODY
 10
13.18200000000002
 20
17.744946840973121
 30
0.0
 11
12.35300000000001
 21
17.84944684097313
 31
0.0
  0
LINE
  5
1A2
  8
BODY
 10
12.35300000000001
 20
16.89344684097313
 30
0.0
 11
11.239000000000029
 21
16.683946840973121
 31
0.0
  0
LINE
  5
1A3
  8
BODY
 10
12.35300000000001
 20
17.84944684097313
 30
0.0
 11
11.239000000000029
 21
18.058946840973121
 31
0.0
  0
LINE
  5
1A4
  8
BODY
 10
11.239000000000029
 20
18.058946840973121
 30
0.0
 11
9.0160000000000196
 21
17.851446840973122
 31
0.0
  0
LINE
  5
1A5
  8
BODY
 10
11.239000000000029
 20
16.683946840973121
 30
0.0
 11
9.0160000000000196
 21
16.891446840973131
 31
0.0
  0
LINE
  5
1A6
  8
BODY
 10
16.131000000000029
 20
15.426
 30
0.0
 11
17.245000000000001
 21
15.63549999999999
 31
0.0
  0
LINE
  5
1A7
  8
BODY
 10
16.131000000000029
 20
14.470000000000001
 30
0.0
 11
17.245000000000001
 21
14.26049999999999
 31
0.0
  0
LINE
  5
1A8
  8
BODY
 10
10.92500000000001
 20
15.696999999999999
 30
0.0
 11
15.302000000000019
 21
15.696999999999999
 31
0.0
  0
LINE
  5
1A9
  8
BODY
 10
10.92500000000001
 20
14.199
 30
0.0
 11
15.302000000000019
 21
14.199
 31
0.0
  0
LINE
  5
1AA
  8
BODY
 10
9.0160000000000196
 20
15.44799999999999
 30
0.0
 11
10.20100000000002
 21
15.44799999999999
 31
0.0
  0
LINE
  5
1AB
  8
BODY
 10
9.0160000000000196
 20
14.44799999999999
 30
0.0
 11
10.20100000000002
 21
14.44799999999999
 31
0.0
  0
LINE
  5
1AC
  8
BODY
 10
9.0160000000000196
 20
15.44799999999999
 30
0.0
 11
9.0160000000000196
 21
14.44799999999999
 31
0.0
  0
LINE
  5
1AD
  8
BODY
 10
10.20100000000002
 20
15.44799999999999
 30
0.0
 11
10.92500000000001
 21
15.696999999999999
 31
0.0
  0
LINE
  5
1AE
  8
BODY
 10
10.20100000000002
 20
14.44799999999999
 30
0.0
 11
10.92500000000001
 21
14.199
 31
0.0
  0
LINE
  5
1AF
  8
BODY
 10
15.302000000000019
 20
15.3215
 30
0.0
 11
16.131000000000029
 21
15.426
 31
0.0
  0
LINE
  5
1B0
  8
BODY
 10
15.302000000000019
 20
14.5745
 30
0.0
 11
16.131000000000029
 21
14.470000000000001
 31
0.0
  0
LINE
  5
1B1
  8
BODY
 10
15.302000000000019
 20
14.5745
 30
0.0
 11
15.302000000000019
 21
14.199
 31
0.0
  0
LINE
  5
1B2
  8
BODY
 10
15.302000000000019
 20
15.696999999999999
 30
0.0
 11
15.302000000000019
 21
15.3215
 31
0.0
  0
LINE
  5
1B3
  8
BODY
 10
17.245000000000001
 20
14.26049999999999
 30
0.0
 11
19.468000000000021
 21
14.468
 31
0.0
  0
LINE
  5
1B4
  8
BODY
 10
17.245000000000001
 20
15.63549999999999
 30
0.0
 11
19.468000000000021
 21
15.42799999999999
 31
0.0
  0
LINE
  5
1B5
  8
BODY
 10
19.468000000000021
 20
15.42799999999999
 30
0.0
 11
19.468000000000021
 21
14.468
 31
0.0
  0
LINE
  5
1B6
  8
BODY
 10
8.0750000000000455
 20
16.154499999999999
 30
0.0
 11
20.409000000000049
 21
16.154499999999999
 31
0.0
  0
LINE
  5
1B7
  8
BODY
 10
8.0750000000000455
 20
16.0945
 30
0.0
 11
20.409000000000049
 21
16.0945
 31
0.0
  0
LINE
  5
1B8
  8
BODY
 10
8.0750000000000455
 20
16.0945
 30
0.0
 11
8.0750000000000455
 21
13.802
 31
0.0
  0
LINE
  5
1B9
  8
BODY
 10
20.409000000000049
 20
16.0945
 30
0.0
 11
20.409000000000049
 21
13.802
 31
0.0
  0
LINE
  5
1BA
  8
BODY
 10
31.369000000000032
 20
0.5940000000000865
 30
0.0
 11
35.837999999999958
 21
0.5940000000000723
 31
0.0
  0
LINE
  5
1BB
  8
BODY
 10
31.369000000000032
 20
5.1650000000000844
 30
0.0
 11
35.837999999999958
 21
5.1650000000000702
 31
0.0
  0
LINE
  5
1BC
  8
BODY
 10
32.838000000000022
 20
5.5950000000000477
 30
0.0
 11
35.838000000000022
 21
5.5950000000000477
 31
0.0
  0
LINE
  5
1BD
  8
BODY
 10
30.906000000000009
 20
0.2800000000000935
 30
0.0
 11
36.783000000000023
 21
0.2800000000001077
 31
0.0
  0
LINE
  5
1BF
  8
BODY
 10
32.837999999999973
 20
18.449000000000041
 30
0.0
 11
35.837999999999958
 21
18.449000000000069
 31
0.0
  0
LINE
  5
1C0
  8
BODY_PANELS
 10
31.42900000000003
 20
0.6540000000000603
 30
0.0
 11
35.77800000000002
 21
0.6540000000000461
 31
0.0
  0
LINE
  5
1C1
  8
BODY_PANELS
 10
32.898000000000032
 20
5.65500000000005
 30
0.0
 11
35.77800000000002
 21
5.65500000000005
 31
0.0
  0
LINE
  5
1C2
  8
BODY_PANELS
 10
31.429000000000091
 20
5.1050000000001097
 30
0.0
 11
35.77800000000002
 21
5.1050000000001239
 31
0.0
  0
LINE
  5
1C3
  8
BODY_PANELS
 10
32.898000000000032
 20
18.389000000000038
 30
0.0
 11
35.77800000000002
 21
18.38900000000007
 31
0.0
  0
LINE
  5
1C4
  8
BODY
 10
32.838000000000022
 20
18.449000000000069
 30
0.0
 11
32.838000000000022
 21
5.5950000000000477
 31
0.0
  0
LINE
  5
1C5
  8
BODY
 10
30.634000000000011
 20
5.7259999999999058
 30
0.0
 11
30.634000000000011
 21
11.69699999999991
 31
0.0
  0
LINE
  5
1C6
  8
BODY_PANELS
 10
32.898000000000032
 20
18.389000000000038
 30
0.0
 11
32.898000000000032
 21
5.65500000000005
 31
0.0
  0
LINE
  5
1C7
  8
BODY
 10
31.369000000000032
 20
5.1650000000000844
 30
0.0
 11
31.369000000000032
 21
0.5940000000000865
 31
0.0
  0
LINE
  5
1C8
  8
BODY
 10
30.906000000000009
 20
0.2800000000001219
 30
0.0
 11
30.906000000000009
 21
4.217000000000076
 31
0.0
  0
LINE
  5
1C9
  8
BODY_PANELS
 10
31.429000000000091
 20
5.1050000000001097
 30
0.0
 11
31.42900000000003
 21
0.6540000000000603
 31
0.0
  0
LINE
  5
1CE
  8
BODY
 10
48.672000000000033
 20
18.449000000000069
 30
0.0
 11
48.672000000000033
 21
0.2800000000001077
 31
0.0
  0
LINE
  5
1CF
  8
BODY
 10
36.783000000000023
 20
18.449000000000069
 30
0.0
 11
36.783000000000023
 21
0.2800000000001077
 31
0.0
  0
LINE
  5
1D0
  8
BODY
 10
35.838000000000022
 20
18.449000000000069
 30
0.0
 11
35.838000000000022
 21
5.5950000000000477
 31
0.0
  0
LINE
  5
1D1
  8
BODY
 10
49.617000000000019
 20
18.449000000000069
 30
0.0
 11
49.617000000000019
 21
5.5950000000000477
 31
0.0
  0
LINE
  5
1D2
  8
BODY
 10
41.29000000000002
 20
13.20500000000006
 30
0.0
 11
41.29000000000002
 21
5.6710000000000704
 31
0.0
  0
LINE
  5
1D3
  8
BODY
 10
37.156500000000001
 20
13.20500000000006
 30
0.0
 11
37.156500000000001
 21
5.6710000000000704
 31
0.0
  0
LINE
  5
1D4
  8
BODY
 10
44.165000000000013
 20
13.20500000000006
 30
0.0
 11
44.165000000000013
 21
5.6710000000000704
 31
0.0
  0
LINE
  5
1D5
  8
BODY
 10
44.952500000000043
 20
13.20500000000006
 30
0.0
 11
44.952500000000043
 21
5.6710000000000704
 31
0.0
  0
LINE
  5
1D6
  8
BODY
 10
54.821000000000019
 20
5.7260000000000204
 30
0.0
 11
54.821000000000019
 21
11.697000000000051
 31
0.0
  0
LINE
  5
1D7
  8
BODY
 10
48.611999999999959
 20
18.38900000000007
 30
0.0
 11
48.612000000000023
 21
0.2800000000001077
 31
0.0
  0
LINE
  5
1D8
  8
BODY
 10
36.843000000000018
 20
18.389000000000092
 30
0.0
 11
36.843000000000018
 21
0.2800000000001077
 31
0.0
  0
LINE
  5
1D9
  8
BODY
 10
52.617000000000019
 20
18.449000000000069
 30
0.0
 11
52.617000000000019
 21
5.5950000000000477
 31
0.0
  0
LINE
  5
1DA
  8
BODY
 10
48.29850000000004
 20
13.20500000000006
 30
0.0
 11
48.29850000000004
 21
5.6710000000000704
 31
0.0
  0
LINE
  5
1DB
  8
BODY
 10
40.502499999999998
 20
13.205000000000121
 30
0.0
 11
40.502499999999998
 21
5.6710000000000704
 31
0.0
  0
LINE
  5
1DC
  8
BODY_PANELS
 10
35.77800000000002
 20
18.38900000000007
 30
0.0
 11
35.77800000000002
 21
5.65500000000005
 31
0.0
  0
LINE
  5
1DD
  8
BODY_PANELS
 10
37.216500000000003
 20
13.14500000000009
 30
0.0
 11
37.216500000000003
 21
5.7310000000000718
 31
0.0
  0
LINE
  5
1DE
  8
BODY_PANELS
 10
40.442500000000052
 20
13.14500000000009
 30
0.0
 11
40.442499999999988
 21
5.7310000000000718
 31
0.0
  0
LINE
  5
1DF
  8
BODY_PANELS
 10
41.350000000000023
 20
13.14500000000014
 30
0.0
 11
41.350000000000023
 21
5.7310000000000443
 31
0.0
  0
LINE
  5
1E0
  8
BODY_PANELS
 10
44.105000000000011
 20
13.14500000000006
 30
0.0
 11
44.105000000000068
 21
5.7310000000000718
 31
0.0
  0
LINE
  5
1E1
  8
BODY_PANELS
 10
45.012500000000102
 20
13.14500000000009
 30
0.0
 11
45.012500000000053
 21
5.7310000000000718
 31
0.0
  0
LINE
  5
1E2
  8
BODY_PANELS
 10
48.238500000000101
 20
13.14500000000009
 30
0.0
 11
48.238500000000037
 21
5.7310000000000443
 31
0.0
  0
LINE
  5
1E3
  8
BODY_PANELS
 10
49.677000000000021
 20
18.38900000000007
 30
0.0
 11
49.677000000000021
 21
5.65500000000005
 31
0.0
  0
LINE
  5
1E4
  8
BODY_PANELS
 10
52.557000000000009
 20
18.389000000000038
 30
0.0
 11
52.55699999999996
 21
5.65500000000005
 31
0.0
  0
LINE
  5
1E5
  8
BODY
 10
48.672000000000033
 20
0.2800000000001077
 30
0.0
 11
54.548999999999978
 21
0.2800000000001077
 31
0.0
  0
LINE
  5
1E6
  8
BODY
 10
48.612000000000023
 20
0.2800000000001077
 30
0.0
 11
36.843000000000018
 21
0.2800000000001077
 31
0.0
  0
LINE
  5
1E7
  8
BODY
 10
37.156500000000001
 20
3.4690000000000998
 30
0.0
 11
37.156500000000001
 21
0.5940000000000723
 31
0.0
  0
LINE
  5
1E8
  8
BODY
 10
35.838000000000022
 20
5.1650000000000702
 30
0.0
 11
35.838000000000022
 21
0.5940000000000723
 31
0.0
  0
LINE
  5
1E9
  8
BODY
 10
40.502499999999998
 20
3.4690000000000998
 30
0.0
 11
40.502499999999998
 21
0.5940000000000723
 31
0.0
  0
LINE
  5
1EA
  8
BODY_PANELS
 10
35.77800000000002
 20
5.1050000000001239
 30
0.0
 11
35.77800000000002
 21
0.6540000000000461
 31
0.0
  0
LINE
  5
1EB
  8
BODY_PANELS
 10
40.442499999999988
 20
3.4090000000000691
 30
0.0
 11
40.442499999999988
 21
0.6540000000001031
 31
0.0
  0
LINE
  5
1EC
  8
BODY_PANELS
 10
37.21650000000006
 20
3.4090000000000691
 30
0.0
 11
37.216500000000003
 21
0.6540000000001031
 31
0.0
  0
LINE
  5
1ED
  8
BODY
 10
37.156500000000001
 20
0.5940000000000723
 30
0.0
 11
40.502499999999998
 21
0.5940000000000723
 31
0.0
  0
LINE
  5
1EE
  8
BODY_PANELS
 10
37.216500000000003
 20
0.6540000000001031
 30
0.0
 11
40.442499999999988
 21
0.6540000000001031
 31
0.0
  0
LINE
  5
1EF
  8
BODY
 10
37.156500000000001
 20
5.6710000000000704
 30
0.0
 11
40.502499999999998
 21
5.6710000000000704
 31
0.0
  0
LINE
  5
1F0
  8
BODY
 10
37.156500000000001
 20
5.1650000000000702
 30
0.0
 11
40.502499999999998
 21
5.1650000000000702
 31
0.0
  0
LINE
  5
1F1
  8
BODY
 10
37.156500000000001
 20
3.9050000000000789
 30
0.0
 11
40.502499999999998
 21
3.9050000000000789
 31
0.0
  0
LINE
  5
1F2
  8
BODY
 10
37.156500000000001
 20
3.4690000000000718
 30
0.0
 11
40.502499999999998
 21
3.4690000000000718
 31
0.0
  0
LINE
  5
1F3
  8
BODY_PANELS
 10
37.216500000000003
 20
5.7310000000000718
 30
0.0
 11
40.442499999999988
 21
5.7310000000000718
 31
0.0
  0
LINE
  5
1F4
  8
BODY_PANELS
 10
37.21650000000006
 20
3.4090000000000691
 30
0.0
 11
40.442499999999988
 21
3.4090000000000691
 31
0.0
  0
LINE
  5
1F5
  8
BODY_PANELS
 10
37.216500000000003
 20
5.1050000000000386
 30
0.0
 11
40.442499999999988
 21
5.1050000000000963
 31
0.0
  0
LINE
  5
1F6
  8
BODY_PANELS
 10
37.216500000000003
 20
3.9650000000000811
 30
0.0
 11
40.442499999999988
 21
3.9650000000000811
 31
0.0
  0
LINE
  5
1F7
  8
BODY
 10
37.156500000000001
 20
5.1650000000000702
 30
0.0
 11
37.156500000000001
 21
3.9050000000000789
 31
0.0
  0
LINE
  5
1F8
  8
BODY_PANELS
 10
37.216500000000003
 20
5.1050000000000386
 30
0.0
 11
37.216500000000003
 21
3.9650000000000811
 31
0.0
  0
LINE
  5
1F9
  8
BODY
 10
40.502499999999998
 20
5.1650000000000702
 30
0.0
 11
40.502499999999998
 21
3.9050000000000789
 31
0.0
  0
LINE
  5
1FA
  8
BODY_PANELS
 10
40.442499999999988
 20
5.1050000000000963
 30
0.0
 11
40.442499999999988
 21
3.9650000000000811
 31
0.0
  0
LINE
  5
1FB
  8
BODY
 10
41.29000000000007
 20
3.4690000000000718
 30
0.0
 11
41.29000000000002
 21
0.5940000000000723
 31
0.0
  0
LINE
  5
1FC
  8
BODY
 10
44.165000000000013
 20
3.4690000000000718
 30
0.0
 11
44.165000000000013
 21
0.5940000000000723
 31
0.0
  0
LINE
  5
1FD
  8
BODY
 10
44.952500000000043
 20
3.4690000000000998
 30
0.0
 11
44.952500000000043
 21
0.5940000000000723
 31
0.0
  0
LINE
  5
1FE
  8
BODY
 10
48.298500000000111
 20
3.4690000000000998
 30
0.0
 11
48.29850000000004
 21
0.5940000000000723
 31
0.0
  0
LINE
  5
1FF
  8
BODY_PANELS
 10
48.238500000000037
 20
3.4090000000000691
 30
0.0
 11
48.238500000000037
 21
0.6540000000001031
 31
0.0
  0
LINE
  5
200
  8
BODY_PANELS
 10
45.012500000000053
 20
3.4090000000001259
 30
0.0
 11
45.012500000000053
 21
0.6540000000000746
 31
0.0
  0
LINE
  5
201
  8
BODY
 10
44.952500000000043
 20
0.5940000000000723
 30
0.0
 11
48.29850000000004
 21
0.5940000000000723
 31
0.0
  0
LINE
  5
202
  8
BODY_PANELS
 10
45.012500000000053
 20
0.6540000000000746
 30
0.0
 11
48.238500000000037
 21
0.6540000000001031
 31
0.0
  0
LINE
  5
203
  8
BODY
 10
41.29000000000002
 20
0.5940000000000723
 30
0.0
 11
44.165000000000013
 21
0.5940000000000723
 31
0.0
  0
LINE
  5
204
  8
BODY
 10
44.952500000000043
 20
5.6710000000000704
 30
0.0
 11
48.29850000000004
 21
5.6710000000000704
 31
0.0
  0
LINE
  5
205
  8
BODY
 10
44.952500000000043
 20
3.9050000000000789
 30
0.0
 11
48.29850000000004
 21
3.9050000000001068
 31
0.0
  0
LINE
  5
206
  8
BODY
 10
44.952500000000043
 20
5.1650000000000702
 30
0.0
 11
48.29850000000004
 21
5.1650000000000702
 31
0.0
  0
LINE
  5
207
  8
BODY
 10
44.952500000000043
 20
3.4690000000000998
 30
0.0
 11
48.298500000000111
 21
3.4690000000000998
 31
0.0
  0
LINE
  5
208
  8
BODY_PANELS
 10
45.012500000000053
 20
5.7310000000000718
 30
0.0
 11
48.238500000000037
 21
5.7310000000000443
 31
0.0
  0
LINE
  5
209
  8
BODY_PANELS
 10
45.012500000000053
 20
5.1050000000000963
 30
0.0
 11
48.238500000000037
 21
5.105000000000067
 31
0.0
  0
LINE
  5
20A
  8
BODY_PANELS
 10
45.012500000000053
 20
3.9650000000000811
 30
0.0
 11
48.238499999999988
 21
3.9650000000001091
 31
0.0
  0
LINE
  5
20B
  8
BODY_PANELS
 10
45.012500000000053
 20
3.4090000000001259
 30
0.0
 11
48.238500000000037
 21
3.4090000000000691
 31
0.0
  0
LINE
  5
20C
  8
BODY
 10
41.29000000000002
 20
3.4690000000000998
 30
0.0
 11
44.165000000000013
 21
3.4690000000000998
 31
0.0
  0
LINE
  5
20D
  8
BODY
 10
41.29000000000002
 20
3.90500000000005
 30
0.0
 11
44.165000000000013
 21
3.9050000000000789
 31
0.0
  0
LINE
  5
20E
  8
BODY
 10
41.29000000000002
 20
5.1650000000000702
 30
0.0
 11
44.165000000000013
 21
5.1650000000000702
 31
0.0
  0
LINE
  5
20F
  8
BODY
 10
41.29000000000002
 20
5.6710000000000704
 30
0.0
 11
44.165000000000013
 21
5.6710000000000704
 31
0.0
  0
LINE
  5
210
  8
BODY
 10
41.29000000000002
 20
5.1650000000000702
 30
0.0
 11
41.29000000000002
 21
3.9050000000000789
 31
0.0
  0
LINE
  5
211
  8
BODY
 10
44.165000000000013
 20
5.1650000000000702
 30
0.0
 11
44.165000000000013
 21
3.9050000000000789
 31
0.0
  0
LINE
  5
212
  8
BODY
 10
44.952500000000043
 20
5.1650000000000702
 30
0.0
 11
44.952500000000043
 21
3.9050000000000789
 31
0.0
  0
LINE
  5
213
  8
BODY_PANELS
 10
41.350000000000023
 20
5.7310000000000443
 30
0.0
 11
44.105000000000068
 21
5.7310000000000718
 31
0.0
  0
LINE
  5
214
  8
BODY_PANELS
 10
41.350000000000023
 20
5.105000000000067
 30
0.0
 11
41.350000000000023
 21
3.9650000000000531
 31
0.0
  0
LINE
  5
215
  8
BODY_PANELS
 10
41.350000000000023
 20
5.105000000000067
 30
0.0
 11
44.105000000000068
 21
5.105000000000067
 31
0.0
  0
LINE
  5
216
  8
BODY_PANELS
 10
41.350000000000023
 20
3.9650000000000531
 30
0.0
 11
44.104999999999961
 21
3.9650000000000811
 31
0.0
  0
LINE
  5
217
  8
BODY_PANELS
 10
44.105000000000068
 20
5.105000000000067
 30
0.0
 11
44.104999999999961
 21
3.9650000000000811
 31
0.0
  0
LINE
  5
218
  8
BODY_PANELS
 10
45.012500000000053
 20
5.1050000000000963
 30
0.0
 11
45.012500000000053
 21
3.9650000000000811
 31
0.0
  0
LINE
  5
219
  8
BODY
 10
48.29850000000004
 20
5.1650000000000702
 30
0.0
 11
48.29850000000004
 21
3.9050000000000789
 31
0.0
  0
LINE
  5
21A
  8
BODY_PANELS
 10
48.238500000000037
 20
5.105000000000067
 30
0.0
 11
48.238499999999988
 21
3.9650000000001091
 31
0.0
  0
LINE
  5
21B
  8
BODY
 10
50.398000000000032
 20
3.5000000000000782
 30
0.0
 11
49.648000000000017
 21
2.7500000000000782
 31
0.0
  0
LINE
  5
21C
  8
BODY
 10
54.548999999999978
 20
0.2800000000000793
 30
0.0
 11
54.548999999999978
 21
4.2170000000000618
 31
0.0
  0
LINE
  5
21D
  8
BODY
 10
51.835000000000029
 20
3.5000000000000782
 30
0.0
 11
52.585000000000043
 21
2.7500000000000782
 31
0.0
  0
LINE
  5
21E
  8
BODY
 10
50.398000000000032
 20
0.5630000000000665
 30
0.0
 11
49.648000000000017
 21
1.3130000000000659
 31
0.0
  0
LINE
  5
21F
  8
BODY
 10
49.648000000000017
 20
2.7500000000000782
 30
0.0
 11
49.648000000000017
 21
1.3130000000000659
 31
0.0
  0
LINE
  5
220
  8
BODY
 10
52.585000000000043
 20
1.3130000000000659
 30
0.0
 11
51.835000000000029
 21
0.5630000000000665
 31
0.0
  0
LINE
  5
221
  8
BODY
 10
50.398000000000032
 20
0.5630000000000665
 30
0.0
 11
51.835000000000029
 21
0.5630000000000665
 31
0.0
  0
LINE
  5
222
  8
BODY
 10
52.585000000000043
 20
2.7500000000000782
 30
0.0
 11
52.585000000000043
 21
1.3130000000000659
 31
0.0
  0
LINE
  5
223
  8
BODY
 10
49.617000000000019
 20
3.9050000000000789
 30
0.0
 11
52.617000000000019
 21
3.9050000000000789
 31
0.0
  0
LINE
  5
224
  8
BODY
 10
49.616999999999962
 20
5.1650000000000702
 30
0.0
 11
49.616999999999962
 21
3.9050000000000789
 31
0.0
  0
LINE
  5
225
  8
BODY
 10
50.398000000000032
 20
3.5000000000000782
 30
0.0
 11
51.835000000000029
 21
3.5000000000000782
 31
0.0
  0
LINE
  5
226
  8
BODY
 10
49.617000000000019
 20
5.5950000000000477
 30
0.0
 11
52.617000000000019
 21
5.5950000000000477
 31
0.0
  0
LINE
  5
227
  8
BODY
 10
52.617000000000019
 20
5.1650000000000702
 30
0.0
 11
52.617000000000019
 21
3.9050000000000789
 31
0.0
  0
LINE
  5
228
  8
BODY
 10
49.617000000000019
 20
5.1650000000000702
 30
0.0
 11
52.617000000000019
 21
5.1650000000000702
 31
0.0
  0
LINE
  5
229
  8
BODY_PANELS
 10
49.677000000000021
 20
5.65500000000005
 30
0.0
 11
52.55699999999996
 21
5.65500000000005
 31
0.0
  0
LINE
  5
22A
  8
BODY_PANELS
 10
52.557000000000009
 20
5.1050000000000963
 30
0.0
 11
52.557000000000009
 21
3.9650000000000811
 31
0.0
  0
LINE
  5
22B
  8
BODY_PANELS
 10
49.676999999999971
 20
5.105000000000067
 30
0.0
 11
52.557000000000009
 21
5.1050000000000963
 31
0.0
  0
LINE
  5
22C
  8
BODY_PANELS
 10
49.676999999999971
 20
5.105000000000067
 30
0.0
 11
49.676999999999971
 21
3.9650000000000531
 31
0.0
  0
LINE
  5
22D
  8
BODY_PANELS
 10
49.676999999999971
 20
3.9650000000000531
 30
0.0
 11
52.557000000000009
 21
3.9650000000000811
 31
0.0
  0
LINE
  5
22E
  8
BODY
 10
54.548999999999978
 20
4.2170000000000618
 30
0.0
 11
56.97000000000002
 21
4.2170000000000911
 31
0.0
  0
LINE
  5
22F
  8
BODY
 10
56.97000000000002
 20
4.2170000000000911
 30
0.0
 11
56.97000000000002
 21
5.7260000000000773
 31
0.0
  0
LINE
  5
230
  8
BODY
 10
37.118000000000002
 20
13.7420000000001
 30
0.0
 11
48.336999999999989
 21
13.7420000000001
 31
0.0
  0
LINE
  5
231
  8
BODY
 10
37.118000000000002
 20
18.11400000000009
 30
0.0
 11
48.336999999999989
 21
18.11400000000009
 31
0.0
  0
LINE
  5
232
  8
BODY
 10
36.783000000000023
 20
18.449000000000069
 30
0.0
 11
48.672000000000033
 21
18.449000000000069
 31
0.0
  0
LINE
  5
233
  8
BODY
 10
36.843000000000018
 20
18.389000000000092
 30
0.0
 11
48.611999999999959
 21
18.38900000000007
 31
0.0
  0
LINE
  5
234
  8
BODY_PANELS
 10
37.177999999999997
 20
18.054000000000141
 30
0.0
 11
48.276999999999987
 21
18.054000000000109
 31
0.0
  0
LINE
  5
235
  8
BODY_PANELS
 10
37.177999999999997
 20
13.802000000000101
 30
0.0
 11
48.276999999999987
 21
13.80200000000012
 31
0.0
  0
LINE
  5
236
  8
BODY
 10
37.118000000000002
 20
18.11400000000009
 30
0.0
 11
37.118000000000002
 21
13.7420000000001
 31
0.0
  0
LINE
  5
237
  8
BODY_PANELS
 10
37.177999999999997
 20
18.054000000000141
 30
0.0
 11
37.177999999999997
 21
13.802000000000101
 31
0.0
  0
LINE
  5
238
  8
BODY
 10
37.156500000000001
 20
13.205000000000091
 30
0.0
 11
40.502499999999998
 21
13.205000000000121
 31
0.0
  0
LINE
  5
239
  8
BODY_PANELS
 10
37.216500000000003
 20
13.14500000000009
 30
0.0
 11
40.442500000000052
 21
13.14500000000009
 31
0.0
  0
LINE
  5
23A
  8
BODY
 10
48.336999999999989
 20
18.11400000000009
 30
0.0
 11
48.336999999999989
 21
13.7420000000001
 31
0.0
  0
LINE
  5
23B
  8
BODY_PANELS
 10
48.276999999999987
 20
18.054000000000109
 30
0.0
 11
48.276999999999987
 21
13.80200000000012
 31
0.0
  0
LINE
  5
23C
  8
BODY
 10
44.952500000000043
 20
13.205000000000091
 30
0.0
 11
48.29850000000004
 21
13.205000000000091
 31
0.0
  0
LINE
  5
23D
  8
BODY_PANELS
 10
45.012500000000102
 20
13.14500000000009
 30
0.0
 11
48.238500000000101
 21
13.14500000000009
 31
0.0
  0
LINE
  5
23E
  8
BODY
 10
41.29000000000002
 20
13.205000000000121
 30
0.0
 11
44.165000000000013
 21
13.205000000000091
 31
0.0
  0
LINE
  5
23F
  8
BODY_PANELS
 10
41.350000000000023
 20
13.14500000000014
 30
0.0
 11
44.105000000000011
 21
13.14500000000006
 31
0.0
  0
LINE
  5
240
  8
BODY
 10
56.97000000000002
 20
11.697000000000079
 30
0.0
 11
56.97000000000002
 21
12.423342642664
 31
0.0
  0
LINE
  5
241
  8
BODY
 10
49.617000000000019
 20
18.449000000000069
 30
0.0
 11
52.617000000000019
 21
18.449000000000069
 31
0.0
  0
LINE
  5
242
  8
BODY_PANELS
 10
49.677000000000021
 20
18.38900000000007
 30
0.0
 11
52.557000000000009
 21
18.389000000000038
 31
0.0
  0
LINE
  5
243
  8
BODY
 10
56.97000000000002
 20
19.081000000000071
 30
0.0
 11
56.97000000000002
 21
19.630000000000081
 31
0.0
  0
LINE
  5
244
  8
BODY_PANELS
 10
33.38900000000001
 20
18.095000000000031
 30
0.0
 11
35.287000000000042
 21
18.095000000000049
 31
0.0
  0
LINE
  5
245
  8
BODY_PANELS
 10
35.484000000000037
 20
17.898000000000049
 30
0.0
 11
35.484000000000037
 21
6.1460000000000639
 31
0.0
  0
LINE
  5
246
  8
BODY_PANELS
 10
33.192000000000007
 20
17.898000000000049
 30
0.0
 11
33.192000000000007
 21
6.1460000000000639
 31
0.0
  0
LINE
  5
247
  8
BODY_PANELS
 10
33.38900000000001
 20
5.949000000000062
 30
0.0
 11
35.287000000000042
 21
5.949000000000062
 31
0.0
  0
LINE
  5
248
  8
BODY_PANELS
 10
37.510500000000043
 20
12.654000000000099
 30
0.0
 11
37.510500000000043
 21
6.2220000000000857
 31
0.0
  0
LINE
  5
249
  8
BODY_PANELS
 10
37.707500000000039
 20
12.851000000000081
 30
0.0
 11
39.951500000000067
 21
12.8510000000001
 31
0.0
  0
LINE
  5
24A
  8
BODY_PANELS
 10
37.707500000000039
 20
6.025000000000083
 30
0.0
 11
39.95150000000001
 21
6.025000000000083
 31
0.0
  0
LINE
  5
24B
  8
BODY_PANELS
 10
40.14850000000007
 20
12.654000000000099
 30
0.0
 11
40.148500000000013
 21
6.2220000000000857
 31
0.0
  0
LINE
  5
24C
  8
BODY_PANELS
 10
41.841000000000001
 20
12.851000000000131
 30
0.0
 11
43.614000000000033
 21
12.851000000000081
 31
0.0
  0
LINE
  5
24D
  8
BODY_PANELS
 10
41.643999999999998
 20
12.65400000000013
 30
0.0
 11
41.643999999999998
 21
6.2220000000000582
 31
0.0
  0
LINE
  5
24E
  8
BODY_PANELS
 10
41.841000000000001
 20
6.0250000000000554
 30
0.0
 11
43.61400000000009
 21
6.025000000000083
 31
0.0
  0
LINE
  5
24F
  8
BODY_PANELS
 10
43.811000000000028
 20
12.654000000000069
 30
0.0
 11
43.811000000000092
 21
6.2220000000000857
 31
0.0
  0
LINE
  5
250
  8
BODY_PANELS
 10
45.503500000000081
 20
12.851000000000081
 30
0.0
 11
47.747500000000059
 21
12.851000000000081
 31
0.0
  0
LINE
  5
251
  8
BODY_PANELS
 10
45.306500000000078
 20
12.654000000000099
 30
0.0
 11
45.306500000000028
 21
6.2220000000000857
 31
0.0
  0
LINE
  5
252
  8
BODY_PANELS
 10
45.503500000000031
 20
6.025000000000083
 30
0.0
 11
47.747500000000002
 21
6.0250000000000554
 31
0.0
  0
LINE
  5
253
  8
BODY_PANELS
 10
47.944500000000062
 20
12.654000000000069
 30
0.0
 11
47.944499999999998
 21
6.2220000000000288
 31
0.0
  0
LINE
  5
254
  8
BODY_PANELS
 10
50.167999999999999
 20
5.949000000000062
 30
0.0
 11
52.065999999999981
 21
5.949000000000062
 31
0.0
  0
LINE
  5
255
  8
BODY_PANELS
 10
49.970999999999997
 20
17.898000000000049
 30
0.0
 11
49.970999999999997
 21
6.1460000000000639
 31
0.0
  0
LINE
  5
256
  8
BODY_PANELS
 10
52.263000000000027
 20
17.898000000000021
 30
0.0
 11
52.262999999999977
 21
6.1460000000000363
 31
0.0
  0
LINE
  5
257
  8
BODY_PANELS
 10
50.167999999999999
 20
18.095000000000049
 30
0.0
 11
52.066000000000031
 21
18.095000000000031
 31
0.0
  0
LINE
  5
258
  8
BODY_PANELS
 10
47.982999999999997
 20
17.563000000000098
 30
0.0
 11
47.982999999999997
 21
14.293000000000109
 31
0.0
  0
LINE
  5
259
  8
BODY_PANELS
 10
37.668999999999983
 20
14.09600000000011
 30
0.0
 11
47.785999999999987
 21
14.09600000000011
 31
0.0
  0
LINE
  5
25A
  8
BODY_PANELS
 10
37.668999999999983
 20
17.760000000000129
 30
0.0
 11
47.785999999999987
 21
17.760000000000101
 31
0.0
  0
LINE
  5
25B
  8
BODY_PANELS
 10
37.47199999999998
 20
17.56300000000013
 30
0.0
 11
37.47199999999998
 21
14.293000000000109
 31
0.0
  0
ARC
  5
25C
  8
BODY_PANELS
 10
33.38900000000001
 20
17.898000000000049
 30
0.0
 40
0.197
 50
90.000000000000469
 51
180.0
  0
ARC
  5
25D
  8
BODY_PANELS
 10
35.287000000000042
 20
17.898000000000049
 30
0.0
 40
0.197
 50
0.0
 51
90.000000000000469
  0
ARC
  5
25E
  8
BODY_PANELS
 10
33.38900000000001
 20
6.1460000000000781
 30
0.0
 40
0.197
 50
180.0
 51
270.0
  0
ARC
  5
25F
  8
BODY_PANELS
 10
35.287000000000042
 20
6.1460000000000781
 30
0.0
 40
0.197
 50
269.99999999999989
 51
0.0
  0
ARC
  5
260
  8
BODY_PANELS
 10
37.707500000000039
 20
6.2220000000000999
 30
0.0
 40
0.197
 50
180.0
 51
270.0
  0
ARC
  5
261
  8
BODY_PANELS
 10
39.95150000000001
 20
6.2220000000000999
 30
0.0
 40
0.197
 50
270.0
 51
359.9999999999996
  0
ARC
  5
262
  8
BODY_PANELS
 10
37.707500000000039
 20
12.654000000000121
 30
0.0
 40
0.197
 50
90.0
 51
180.0
  0
ARC
  5
263
  8
BODY_PANELS
 10
39.951500000000067
 20
12.654000000000121
 30
0.0
 40
0.197
 50
359.9999999999996
 51
90.0
  0
ARC
  5
264
  8
BODY_PANELS
 10
41.841000000000001
 20
6.2220000000000724
 30
0.0
 40
0.197
 50
180.0
 51
270.00000000000063
  0
ARC
  5
265
  8
BODY_PANELS
 10
41.841000000000001
 20
12.65400000000014
 30
0.0
 40
0.197
 50
89.999999999998238
 51
180.0
  0
ARC
  5
266
  8
BODY_PANELS
 10
43.614000000000033
 20
12.654000000000091
 30
0.0
 40
0.197
 50
0.0000000000003997
 51
89.999999999998153
  0
ARC
  5
267
  8
BODY_PANELS
 10
43.61400000000009
 20
6.2220000000000999
 30
0.0
 40
0.197
 50
270.00000000000051
 51
0.0000000000003997
  0
ARC
  5
268
  8
BODY_PANELS
 10
45.503500000000031
 20
6.2220000000000999
 30
0.0
 40
0.197
 50
179.9999999999996
 51
269.99999999999949
  0
ARC
  5
269
  8
BODY_PANELS
 10
45.503500000000081
 20
12.654000000000121
 30
0.0
 40
0.197
 50
90.0
 51
179.9999999999996
  0
ARC
  5
26A
  8
BODY_PANELS
 10
47.747500000000059
 20
12.654000000000091
 30
0.0
 40
0.197
 50
359.9999999999996
 51
90.0
  0
ARC
  5
26B
  8
BODY_PANELS
 10
47.747500000000002
 20
6.2220000000000724
 30
0.0
 40
0.197
 50
269.99999999999937
 51
359.9999999999996
  0
ARC
  5
26C
  8
BODY_PANELS
 10
50.167999999999999
 20
6.1460000000000781
 30
0.0
 40
0.197
 50
180.0
 51
270.0
  0
ARC
  5
26D
  8
BODY_PANELS
 10
52.065999999999981
 20
6.1460000000000496
 30
0.0
 40
0.197
 50
270.0
 51
359.99999999999977
  0
ARC
  5
26E
  8
BODY_PANELS
 10
52.066000000000031
 20
17.898000000000021
 30
0.0
 40
0.197
 50
359.99999999999977
 51
89.999999999999361
  0
ARC
  5
26F
  8
BODY_PANELS
 10
50.167999999999999
 20
17.898000000000049
 30
0.0
 40
0.197
 50
89.999999999999361
 51
180.0
  0
ARC
  5
270
  8
BODY_PANELS
 10
47.785999999999987
 20
14.293000000000131
 30
0.0
 40
0.197
 50
270.00000000000011
 51
0.0
  0
ARC
  5
271
  8
BODY_PANELS
 10
47.785999999999987
 20
17.563000000000098
 30
0.0
 40
0.197
 50
0.0
 51
89.999999999999758
  0
ARC
  5
272
  8
BODY_PANELS
 10
37.668999999999983
 20
17.56300000000013
 30
0.0
 40
0.197
 50
89.999999999999758
 51
180.0
  0
ARC
  5
273
  8
BODY_PANELS
 10
37.668999999999983
 20
14.293000000000131
 30
0.0
 40
0.197
 50
180.0
 51
270.00000000000011
  0
LINE
  5
274
  8
BODY
 10
29.140012445670038
 20
12.502261001936301
 30
0.0
 11
28.977918103823701
 21
12.4710276734723
 31
0.0
  0
LINE
  5
275
  8
BODY
 10
28.977918103823701
 20
19.033435620866719
 30
0.0
 11
29.140012445670038
 21
19.002235519059582
 31
0.0
  0
LINE
  5
276
  8
BODY
 10
28.977918103823701
 20
12.4710276734723
 30
0.0
 11
28.814463844963541
 21
12.44743313788041
 31
0.0
  0
LINE
  5
277
  8
BODY
 10
28.814463844963541
 20
12.44743313788041
 30
0.0
 11
28.650030205015529
 21
12.43153232532109
 31
0.0
  0
LINE
  5
278
  8
BODY
 10
28.650030205015529
 20
12.43153232532109
 30
0.0
 11
28.48500000000001
 21
12.423362254281759
 31
0.0
  0
LINE
  5
279
  8
BODY
 10
28.650030205015529
 20
19.07286375742467
 30
0.0
 11
28.814463844963601
 21
19.05699665104191
 31
0.0
  0
LINE
  5
27A
  8
BODY
 10
28.814463844963601
 20
19.05699665104191
 30
0.0
 11
28.977918103823701
 21
19.033435620866719
 31
0.0
  0
LINE
  5
27B
  8
BODY
 10
28.48500000000001
 20
19.081000000000071
 30
0.0
 11
28.650030205015529
 21
19.07286375742467
 31
0.0
  0
LINE
  5
27C
  8
BODY
 10
53.830045948598119
 20
16.85391493648341
 30
0.0
 11
53.888552211722583
 21
17.004214345264071
 31
0.0
  0
LINE
  5
27D
  8
BODY
 10
31.56645888763552
 20
17.006316701693091
 30
0.0
 11
31.62496537116948
 21
16.856057476439211
 31
0.0
  0
LINE
  5
27E
  8
BODY
 10
54.495164755003309
 20
13.54542694617907
 30
0.0
 11
54.388750963397626
 21
13.668286999188171
 31
0.0
  0
LINE
  5
27F
  8
BODY
 10
31.066258263610219
 20
13.67005782888328
 30
0.0
 11
30.95984407657528
 21
13.54712574439521
 31
0.0
  0
LINE
  5
280
  8
BODY
 10
30.205514181107159
 20
12.926482982012089
 30
0.0
 11
30.063218977916112
 21
12.84478353338659
 31
0.0
  0
LINE
  5
281
  8
BODY
 10
30.063218977916112
 20
12.84478353338659
 30
0.0
 11
29.917037181550139
 21
12.7698527410276
 31
0.0
  0
LINE
  5
282
  8
BODY
 10
29.614383361783378
 20
12.64097874291895
 30
0.0
 11
29.45861594317245
 21
12.58733556720694
 31
0.0
  0
LINE
  5
283
  8
BODY
 10
29.45861594317245
 20
12.58733556720694
 30
0.0
 11
29.300369500572689
 21
12.54106040932891
 31
0.0
  0
LINE
  5
284
  8
BODY
 10
29.300369500572689
 20
12.54106040932891
 30
0.0
 11
29.140012445670038
 21
12.502261001936301
 31
0.0
  0
LINE
  5
285
  8
BODY
 10
29.917037181550139
 20
12.7698527410276
 30
0.0
 11
29.767309116124871
 21
12.701865050423869
 31
0.0
  0
LINE
  5
286
  8
BODY
 10
29.767309116124871
 20
12.701865050423869
 30
0.0
 11
29.614383361783378
 21
12.64097874291895
 31
0.0
  0
LINE
  5
287
  8
BODY
 10
30.729355305691971
 20
13.316936445773941
 30
0.0
 11
30.605817320034191
 21
13.21021513262281
 31
0.0
  0
LINE
  5
288
  8
BODY
 10
30.477129524402301
 20
13.109411718746239
 30
0.0
 11
30.343591515338009
 21
13.01476088338001
 31
0.0
  0
LINE
  5
289
  8
BODY
 10
30.343591515338009
 20
13.01476088338001
 30
0.0
 11
30.205514181107159
 21
12.926482982012089
 31
0.0
  0
LINE
  5
28A
  8
BODY
 10
30.605817320034191
 20
13.21021513262281
 30
0.0
 11
30.477129524402301
 21
13.109411718746239
 31
0.0
  0
LINE
  5
28B
  8
BODY
 10
30.95984407657528
 20
13.54712574439521
 30
0.0
 11
30.847455874050471
 21
13.429327201558641
 31
0.0
  0
LINE
  5
28C
  8
BODY
 10
30.847455874050471
 20
13.429327201558641
 30
0.0
 11
30.729355305691971
 21
13.316936445773941
 31
0.0
  0
LINE
  5
28D
  8
BODY
 10
31.260188109574472
 20
13.930166550819999
 30
0.0
 11
31.1664506935494
 21
13.797837258284179
 31
0.0
  0
LINE
  5
28E
  8
BODY
 10
31.1664506935494
 20
13.797837258284179
 30
0.0
 11
31.066258263610219
 21
13.67005782888328
 31
0.0
  0
LINE
  5
28F
  8
BODY
 10
53.672343146326739
 20
15.26988029029871
 30
0.0
 11
53.652457047448593
 21
15.42937485772932
 31
0.0
  0
LINE
  5
290
  8
BODY
 10
31.802554943070898
 20
15.431641832564701
 30
0.0
 11
31.782668768956629
 21
15.272134147972899
 31
0.0
  0
LINE
  5
291
  8
BODY
 10
31.56645888763552
 20
14.498677200687091
 30
0.0
 11
31.500566135834958
 21
14.35132422850854
 31
0.0
  0
LINE
  5
292
  8
BODY
 10
31.500566135834958
 20
14.35132422850854
 30
0.0
 11
31.427440519898649
 21
14.20723255297731
 31
0.0
  0
LINE
  5
293
  8
BODY
 10
31.427440519898649
 20
14.20723255297731
 30
0.0
 11
31.34725228271731
 21
14.066737632224889
 31
0.0
  0
LINE
  5
294
  8
BODY
 10
31.34725228271731
 20
14.066737632224889
 30
0.0
 11
31.260188109574472
 21
13.930166550819999
 31
0.0
  0
LINE
  5
295
  8
BODY
 10
31.75489297090002
 20
15.113744033320691
 30
0.0
 11
31.71929221340401
 21
14.956840234770469
 31
0.0
  0
LINE
  5
296
  8
BODY
 10
31.71929221340401
 20
14.956840234770469
 30
0.0
 11
31.675949378183361
 21
14.801788038201201
 31
0.0
  0
LINE
  5
297
  8
BODY
 10
31.62496537116948
 20
14.64894841880294
 30
0.0
 11
31.56645888763552
 21
14.498677200687091
 31
0.0
  0
LINE
  5
298
  8
BODY
 10
31.675949378183361
 20
14.801788038201201
 30
0.0
 11
31.62496537116948
 21
14.64894841880294
 31
0.0
  0
LINE
  5
299
  8
BODY
 10
31.782668768956629
 20
15.272134147972899
 30
0.0
 11
31.75489297090002
 21
15.113744033320691
 31
0.0
  0
LINE
  5
29A
  8
BODY
 10
53.954444715633429
 20
14.349259851216621
 30
0.0
 11
53.888552211722583
 21
14.49656839487635
 31
0.0
  0
LINE
  5
29B
  8
BODY
 10
54.194821840732452
 20
13.92826453702502
 30
0.0
 11
54.107757993408647
 21
14.064776771714479
 31
0.0
  0
LINE
  5
29C
  8
BODY
 10
54.288558906722187
 20
13.79599863737382
 30
0.0
 11
54.194821840732452
 21
13.92826453702502
 31
0.0
  0
LINE
  5
29D
  8
BODY
 10
54.388750963397626
 20
13.668286999188171
 30
0.0
 11
54.288558906722187
 21
13.79599863737382
 31
0.0
  0
LINE
  5
29E
  8
BODY
 10
54.107757993408647
 20
14.064776771714479
 30
0.0
 11
54.027570056896479
 21
14.205217529176579
 31
0.0
  0
LINE
  5
29F
  8
BODY
 10
54.027570056896479
 20
14.205217529176579
 30
0.0
 11
53.954444715633429
 21
14.349259851216621
 31
0.0
  0
LINE
  5
2A0
  8
BODY
 10
53.830045948598119
 20
14.646800213158309
 30
0.0
 11
53.779062133887301
 21
14.799605553423349
 31
0.0
  0
LINE
  5
2A1
  8
BODY
 10
53.888552211722583
 20
14.49656839487635
 30
0.0
 11
53.830045948598119
 21
14.646800213158309
 31
0.0
  0
LINE
  5
2A2
  8
BODY
 10
53.700118839351767
 20
15.11150866066582
 30
0.0
 11
53.672343146326739
 21
15.26988029029871
 31
0.0
  0
LINE
  5
2A3
  8
BODY
 10
53.735719462312368
 20
14.95462867165849
 30
0.0
 11
53.700118839351767
 21
15.11150866066582
 31
0.0
  0
LINE
  5
2A4
  8
BODY
 10
53.779062133887301
 20
14.799605553423349
 30
0.0
 11
53.735719462312368
 21
14.95462867165849
 31
0.0
  0
LINE
  5
2A5
  8
BODY
 10
31.782668768956629
 20
16.232904073859221
 30
0.0
 11
31.802554943070898
 21
16.073400465601981
 31
0.0
  0
LINE
  5
2A6
  8
BODY
 10
31.802554943070898
 20
16.073400465601981
 30
0.0
 11
31.814505196476208
 21
15.91314900863045
 31
0.0
  0
LINE
  5
2A7
  8
BODY
 10
31.814505196476208
 20
15.91314900863045
 30
0.0
 11
31.818491707928789
 21
15.75252278246915
 31
0.0
  0
LINE
  5
2A8
  8
BODY
 10
31.818491707928789
 20
15.75252278246915
 30
0.0
 11
31.814505196476208
 21
15.59189573913851
 31
0.0
  0
LINE
  5
2A9
  8
BODY
 10
31.814505196476208
 20
15.59189573913851
 30
0.0
 11
31.802554943070898
 21
15.431641832564701
 31
0.0
  0
LINE
  5
2AA
  8
BODY
 10
31.71929221340401
 20
16.548184995912258
 30
0.0
 11
31.75489297090002
 21
16.391288494928851
 31
0.0
  0
LINE
  5
2AB
  8
BODY
 10
31.62496537116948
 20
16.856057476439211
 30
0.0
 11
31.675949378183361
 21
16.70322830791871
 31
0.0
  0
LINE
  5
2AC
  8
BODY
 10
31.675949378183361
 20
16.70322830791871
 30
0.0
 11
31.71929221340401
 21
16.548184995912258
 31
0.0
  0
LINE
  5
2AD
  8
BODY
 10
31.75489297090002
 20
16.391288494928851
 30
0.0
 11
31.782668768956629
 21
16.232904073859221
 31
0.0
  0
LINE
  5
2AE
  8
BODY
 10
53.652457047448593
 20
16.07113512887684
 30
0.0
 11
53.672343146326739
 21
16.230652670114122
 31
0.0
  0
LINE
  5
2AF
  8
BODY
 10
53.652457047448593
 20
15.42937485772932
 30
0.0
 11
53.640506839271673
 21
15.589621045850601
 31
0.0
  0
LINE
  5
2B0
  8
BODY
 10
53.640506839271673
 20
15.91087513504328
 30
0.0
 11
53.652457047448593
 21
16.07113512887684
 31
0.0
  0
LINE
  5
2B1
  8
BODY
 10
53.636520342909641
 20
15.750245787708749
 30
0.0
 11
53.640506839271673
 21
15.91087513504328
 31
0.0
  0
LINE
  5
2B2
  8
BODY
 10
53.640506839271673
 20
15.589621045850601
 30
0.0
 11
53.636520342909641
 21
15.750245787708749
 31
0.0
  0
LINE
  5
2B3
  8
BODY
 10
53.700118839351767
 20
16.389056388151911
 30
0.0
 11
53.735719462312368
 21
16.545977505473441
 31
0.0
  0
LINE
  5
2B4
  8
BODY
 10
53.672343146326739
 20
16.230652670114122
 30
0.0
 11
53.700118839351767
 21
16.389056388151911
 31
0.0
  0
LINE
  5
2B5
  8
BODY
 10
53.779062133887301
 20
16.70105069617221
 30
0.0
 11
53.830045948598119
 21
16.85391493648341
 31
0.0
  0
LINE
  5
2B6
  8
BODY
 10
53.735719462312368
 20
16.545977505473441
 30
0.0
 11
53.779062133887301
 21
16.70105069617221
 31
0.0
  0
LINE
  5
2B7
  8
BODY
 10
56.640537281776631
 20
12.44718970831803
 30
0.0
 11
56.477083588609382
 21
12.47067322790803
 31
0.0
  0
LINE
  5
2B8
  8
BODY
 10
55.68769536303256
 20
12.7009747137398
 30
0.0
 11
55.537967835398661
 21
12.76886081197533
 31
0.0
  0
LINE
  5
2B9
  8
BODY
 10
55.537967835398661
 20
12.76886081197533
 30
0.0
 11
55.391786566662567
 21
12.843692437159049
 31
0.0
  0
LINE
  5
2BA
  8
BODY
 10
55.111415048008382
 20
13.013479646250509
 30
0.0
 11
54.977877527180283
 21
13.10803995088223
 31
0.0
  0
LINE
  5
2BB
  8
BODY
 10
54.977877527180283
 20
13.10803995088223
 30
0.0
 11
54.849190203808291
 21
13.208756144162001
 31
0.0
  0
LINE
  5
2BC
  8
BODY
 10
54.725652673091417
 20
13.31539375010208
 30
0.0
 11
54.607552541055782
 21
13.42770450715209
 31
0.0
  0
LINE
  5
2BD
  8
BODY
 10
54.849190203808291
 20
13.208756144162001
 30
0.0
 11
54.725652673091417
 21
13.31539375010208
 31
0.0
  0
LINE
  5
2BE
  8
BODY
 10
54.607552541055782
 20
13.42770450715209
 30
0.0
 11
54.495164755003309
 21
13.54542694617907
 31
0.0
  0
LINE
  5
2BF
  8
BODY
 10
55.249491879432242
 20
12.925295374809981
 30
0.0
 11
55.111415048008382
 21
13.013479646250509
 31
0.0
  0
LINE
  5
2C0
  8
BODY
 10
55.391786566662567
 20
12.843692437159049
 30
0.0
 11
55.249491879432242
 21
12.925295374809981
 31
0.0
  0
LINE
  5
2C1
  8
BODY
 10
56.154633319742338
 20
12.540487009579801
 30
0.0
 11
55.996387436091368
 21
12.58665473916067
 31
0.0
  0
LINE
  5
2C2
  8
BODY
 10
55.84062057095678
 20
12.640192187146271
 30
0.0
 11
55.68769536303256
 21
12.7009747137398
 31
0.0
  0
LINE
  5
2C3
  8
BODY
 10
55.996387436091368
 20
12.58665473916067
 30
0.0
 11
55.84062057095678
 21
12.640192187146271
 31
0.0
  0
LINE
  5
2C4
  8
BODY
 10
56.477083588609382
 20
12.47067322790803
 30
0.0
 11
56.314989811830003
 21
12.50179648086622
 31
0.0
  0
LINE
  5
2C5
  8
BODY
 10
56.314989811830003
 20
12.50179648086622
 30
0.0
 11
56.154633319742338
 21
12.540487009579801
 31
0.0
  0
LINE
  5
2C6
  8
BODY
 10
56.97000000000002
 20
12.423342642664
 30
0.0
 11
56.804970357039622
 21
12.43140059376451
 31
0.0
  0
LINE
  5
2C7
  8
BODY
 10
56.804970357039622
 20
12.43140059376451
 30
0.0
 11
56.640537281776631
 21
12.44718970831803
 31
0.0
  0
LINE
  5
2C8
  8
BODY
 10
54.388750963397626
 20
17.833073605295741
 30
0.0
 11
54.495164755003309
 21
17.95605659490883
 31
0.0
  0
LINE
  5
2C9
  8
BODY
 10
31.1664506935494
 20
17.70707464903461
 30
0.0
 11
31.260188109574472
 21
17.574764571116528
 31
0.0
  0
LINE
  5
2CA
  8
BODY
 10
30.063218977916168
 20
18.659902229676561
 30
0.0
 11
30.205514181107159
 21
18.578231949215869
 31
0.0
  0
LINE
  5
2CB
  8
BODY
 10
31.066258263610219
 20
17.834833540644521
 30
0.0
 11
31.1664506935494
 21
17.70707464903461
 31
0.0
  0
LINE
  5
2CC
  8
BODY
 10
30.605817320034191
 20
18.294581854127269
 30
0.0
 11
30.729355305691971
 21
18.187885864223691
 31
0.0
  0
LINE
  5
2CD
  8
BODY
 10
30.343591515338009
 20
18.489982351418291
 30
0.0
 11
30.477129524402301
 21
18.395358889134229
 31
0.0
  0
LINE
  5
2CE
  8
BODY
 10
30.477129524402301
 20
18.395358889134229
 30
0.0
 11
30.605817320034191
 21
18.294581854127269
 31
0.0
  0
LINE
  5
2CF
  8
BODY
 10
30.205514181107159
 20
18.578231949215869
 30
0.0
 11
30.343591515338009
 21
18.489982351418291
 31
0.0
  0
LINE
  5
2D0
  8
BODY
 10
30.729355305691971
 20
18.187885864223691
 30
0.0
 11
30.847455874050471
 21
18.075519317096049
 31
0.0
  0
LINE
  5
2D1
  8
BODY
 10
30.95984407657528
 20
17.957743811983448
 30
0.0
 11
31.066258263610219
 21
17.834833540644521
 31
0.0
  0
LINE
  5
2D2
  8
BODY
 10
30.847455874050471
 20
18.075519317096049
 30
0.0
 11
30.95984407657528
 21
17.957743811983448
 31
0.0
  0
LINE
  5
2D3
  8
BODY
 10
29.45861594317245
 20
18.91722626224043
 30
0.0
 11
29.614383361783378
 21
18.863615016271918
 31
0.0
  0
LINE
  5
2D4
  8
BODY
 10
29.300369500572689
 20
18.963468982213609
 30
0.0
 11
29.45861594317245
 21
18.91722626224043
 31
0.0
  0
LINE
  5
2D5
  8
BODY
 10
29.140012445670038
 20
19.002235519059582
 30
0.0
 11
29.300369500572689
 21
18.963468982213609
 31
0.0
  0
LINE
  5
2D6
  8
BODY
 10
29.767309116124871
 20
18.802760056014449
 30
0.0
 11
29.917037181550139
 21
18.734803057189652
 31
0.0
  0
LINE
  5
2D7
  8
BODY
 10
29.917037181550139
 20
18.734803057189652
 30
0.0
 11
30.063218977916168
 21
18.659902229676561
 31
0.0
  0
LINE
  5
2D8
  8
BODY
 10
29.614383361783378
 20
18.863615016271918
 30
0.0
 11
29.767309116124871
 21
18.802760056014449
 31
0.0
  0
LINE
  5
2D9
  8
BODY
 10
31.34725228271731
 20
17.438211336427798
 30
0.0
 11
31.427440519898649
 21
17.2977328529389
 31
0.0
  0
LINE
  5
2DA
  8
BODY
 10
31.260188109574472
 20
17.574764571116528
 30
0.0
 11
31.34725228271731
 21
17.438211336427798
 31
0.0
  0
LINE
  5
2DB
  8
BODY
 10
31.500566135834958
 20
17.153656166946739
 30
0.0
 11
31.56645888763552
 21
17.006316701693091
 31
0.0
  0
LINE
  5
2DC
  8
BODY
 10
31.427440519898649
 20
17.2977328529389
 30
0.0
 11
31.500566135834958
 21
17.153656166946739
 31
0.0
  0
LINE
  5
2DD
  8
BODY
 10
54.288558906722187
 20
17.705246218285481
 30
0.0
 11
54.388750963397626
 21
17.833073605295741
 31
0.0
  0
LINE
  5
2DE
  8
BODY
 10
53.888552211722583
 20
17.004214345264071
 30
0.0
 11
53.954444715633429
 21
17.151599012520819
 31
0.0
  0
LINE
  5
2DF
  8
BODY
 10
54.107757993408647
 20
17.436259210173152
 30
0.0
 11
54.194821840732452
 21
17.57287202706544
 31
0.0
  0
LINE
  5
2E0
  8
BODY
 10
54.027570056896479
 20
17.29572581403562
 30
0.0
 11
54.107757993408647
 21
17.436259210173152
 31
0.0
  0
LINE
  5
2E1
  8
BODY
 10
54.194821840732452
 20
17.57287202706544
 30
0.0
 11
54.288558906722187
 21
17.705246218285481
 31
0.0
  0
LINE
  5
2E2
  8
BODY
 10
53.954444715633429
 20
17.151599012520819
 30
0.0
 11
54.027570056896479
 21
17.29572581403562
 31
0.0
  0
LINE
  5
2E3
  8
BODY
 10
56.477083588609382
 20
19.03309996347928
 30
0.0
 11
56.640537281776631
 21
19.056772316128779
 31
0.0
  0
LINE
  5
2E4
  8
BODY
 10
55.249491879432242
 20
18.577059617363879
 30
0.0
 11
55.391786566662567
 21
18.6588269437243
 31
0.0
  0
LINE
  5
2E5
  8
BODY
 10
54.977877527180283
 20
18.394001253525861
 30
0.0
 11
55.111415048008382
 21
18.488715829981459
 31
0.0
  0
LINE
  5
2E6
  8
BODY
 10
54.607552541055782
 20
18.073908872110511
 30
0.0
 11
54.725652673091417
 21
18.186356066634339
 31
0.0
  0
LINE
  5
2E7
  8
BODY
 10
54.849190203808291
 20
18.293136391709542
 30
0.0
 11
54.977877527180283
 21
18.394001253525861
 31
0.0
  0
LINE
  5
2E8
  8
BODY
 10
54.725652673091417
 20
18.186356066634339
 30
0.0
 11
54.849190203808291
 21
18.293136391709542
 31
0.0
  0
LINE
  5
2E9
  8
BODY
 10
54.495164755003309
 20
17.95605659490883
 30
0.0
 11
54.607552541055782
 21
18.073908872110511
 31
0.0
  0
LINE
  5
2EA
  8
BODY
 10
55.111415048008382
 20
18.488715829981459
 30
0.0
 11
55.249491879432242
 21
18.577059617363879
 31
0.0
  0
LINE
  5
2EB
  8
BODY
 10
55.537967835398661
 20
18.733827447660751
 30
0.0
 11
55.68769536303256
 21
18.80188652153873
 31
0.0
  0
LINE
  5
2EC
  8
BODY
 10
55.391786566662567
 20
18.6588269437243
 30
0.0
 11
55.537967835398661
 21
18.733827447660751
 31
0.0
  0
LINE
  5
2ED
  8
BODY
 10
55.996387436091368
 20
18.916563118642671
 30
0.0
 11
56.154633319742338
 21
18.962913664857862
 31
0.0
  0
LINE
  5
2EE
  8
BODY
 10
55.68769536303256
 20
18.80188652153873
 30
0.0
 11
55.84062057095678
 21
18.862845717955679
 31
0.0
  0
LINE
  5
2EF
  8
BODY
 10
55.84062057095678
 20
18.862845717955679
 30
0.0
 11
55.996387436091368
 21
18.916563118642671
 31
0.0
  0
LINE
  5
2F0
  8
BODY
 10
56.314989811830003
 20
19.001789448528601
 30
0.0
 11
56.477083588609382
 21
19.03309996347928
 31
0.0
  0
LINE
  5
2F1
  8
BODY
 10
56.154633319742338
 20
18.962913664857862
 30
0.0
 11
56.314989811830003
 21
19.001789448528601
 31
0.0
  0
LINE
  5
2F2
  8
BODY
 10
56.804970357039622
 20
19.072751395190551
 30
0.0
 11
56.97000000000002
 21
19.081000000000071
 31
0.0
  0
LINE
  5
2F3
  8
BODY
 10
56.640537281776631
 20
19.056772316128779
 30
0.0
 11
56.804970357039622
 21
19.072751395190551
 31
0.0
  0
LINE
  5
2F4
  8
BODY_PANELS
 10
8.5750000000000455
 20
0.8040000000000021
 30
0.0
 11
8.5750000000000455
 21
2.909000000000006
 31
0.0
  0
LINE
  5
2F5
  8
BODY_PANELS
 10
10.07500000000004
 20
0.8040000000000021
 30
0.0
 11
10.07500000000004
 21
2.909000000000006
 31
0.0
  0
LINE
  5
2F6
  8
BODY_PANELS
 10
8.5750000000000455
 20
0.8040000000000021
 30
0.0
 11
10.07500000000004
 21
0.8040000000000021
 31
0.0
  0
LINE
  5
2F7
  8
BODY_PANELS
 10
8.5750000000000455
 20
2.909000000000006
 30
0.0
 11
10.07500000000004
 21
2.909000000000006
 31
0.0
  0
LINE
  5
2F8
  8
BODY_PANELS
 10
45.512500000000038
 20
2.9090000000001259
 30
0.0
 11
47.012500000000038
 21
2.909000000000098
 31
0.0
  0
LINE
  5
2F9
  8
BODY_PANELS
 10
45.512500000000038
 20
2.9090000000001259
 30
0.0
 11
45.512500000000038
 21
0.8040000000001086
 31
0.0
  0
LINE
  5
2FA
  8
BODY_PANELS
 10
39.942500000000003
 20
2.9090000000000691
 30
0.0
 11
39.942500000000003
 21
0.8040000000001086
 31
0.0
  0
LINE
  5
2FB
  8
BODY_PANELS
 10
38.442500000000003
 20
2.9090000000000691
 30
0.0
 11
39.942500000000003
 21
2.9090000000000691
 31
0.0
  0
LINE
  5
2FC
  8
BODY_PANELS
 10
47.012500000000038
 20
2.909000000000098
 30
0.0
 11
47.012500000000038
 21
0.8040000000001086
 31
0.0
  0
LINE
  5
2FD
  8
BODY_PANELS
 10
38.442500000000003
 20
2.9090000000000691
 30
0.0
 11
38.442500000000003
 21
0.8040000000001086
 31
0.0
  0
LINE
  5
2FE
  8
BODY_PANELS
 10
45.512500000000038
 20
0.8040000000001086
 30
0.0
 11
47.012500000000038
 21
0.8040000000001086
 31
0.0
  0
LINE
  5
2FF
  8
BODY_PANELS
 10
38.442500000000003
 20
0.8040000000001086
 30
0.0
 11
39.942500000000003
 21
0.8040000000001086
 31
0.0
  0
LINE
  5
300
  8
BODY
 10
0.0
 20
11.696999999999999
 30
0.0
 11
2.149
 21
11.696999999999999
 31
0.0
  0
LINE
  5
301
  8
BODY
 10
26.336000000000009
 20
11.696999999999999
 30
0.0
 11
30.634000000000011
 21
11.696999999999999
 31
0.0
  0
LINE
  5
303
  8
BODY
 10
54.821000000000019
 20
11.69700000000002
 30
0.0
 11
56.97000000000002
 21
11.697000000000079
 31
0.0
  0
LINE
  5
304
  8
BODY
 10
0.0
 20
5.7259999999999991
 30
0.0
 11
2.149
 21
5.7259999999999991
 31
0.0
  0
LINE
  5
305
  8
BODY
 10
26.336000000000009
 20
5.7259999999999991
 30
0.0
 11
30.63399999999999
 21
5.7260000000000337
 31
0.0
  0
LINE
  5
306
  8
BODY
 10
54.821000000000019
 20
5.7260000000000204
 30
0.0
 11
56.97000000000002
 21
5.7260000000000773
 31
0.0
  0
LINE
  5
308
  8
BODY_PANELS
 10
0.2249999999999659
 20
6.0459999999999781
 30
0.0
 11
-0.2250000000000227
 21
6.0460000000000056
 31
0.0
  0
LINE
  5
309
  8
BODY_PANELS
 10
0.2249999999999659
 20
11.37699999999999
 30
0.0
 11
-0.2250000000000227
 21
11.37699999999999
 31
0.0
  0
LINE
  5
30A
  8
BODY_PANELS
 10
-1.64500000000001
 20
6.0460000000000056
 30
0.0
 11
-1.64500000000001
 21
11.37699999999999
 31
0.0
  0
LINE
  5
30B
  8
BODY_PANELS
 10
-1.194999999999993
 20
6.0460000000000056
 30
0.0
 11
-1.194999999999993
 21
11.37699999999999
 31
0.0
  0
LINE
  5
30C
  8
BODY_PANELS
 10
-0.9350000000000022
 20
6.0460000000000056
 30
0.0
 11
-0.9350000000000022
 21
11.37699999999999
 31
0.0
  0
LINE
  5
30D
  8
BODY_PANELS
 10
-0.4850000000000137
 20
6.0460000000000056
 30
0.0
 11
-0.4850000000000137
 21
11.37699999999999
 31
0.0
  0
LINE
  5
30E
  8
BODY_PANELS
 10
-0.2250000000000227
 20
6.0460000000000056
 30
0.0
 11
-0.2250000000000227
 21
11.37699999999999
 31
0.0
  0
LINE
  5
30F
  8
BODY_PANELS
 10
-1.194999999999993
 20
11.37699999999999
 30
0.0
 11
-1.645000000000038
 21
11.37699999999999
 31
0.0
  0
LINE
  5
310
  8
BODY_PANELS
 10
-0.4850000000000137
 20
11.37699999999999
 30
0.0
 11
-0.9350000000000022
 21
11.37699999999999
 31
0.0
  0
LINE
  5
311
  8
BODY_PANELS
 10
-0.4850000000000137
 20
6.0460000000000056
 30
0.0
 11
-0.9350000000000022
 21
6.0460000000000056
 31
0.0
  0
LINE
  5
312
  8
BODY_PANELS
 10
-1.194999999999993
 20
6.0460000000000056
 30
0.0
 11
-1.64500000000001
 21
6.0460000000000056
 31
0.0
  0
LINE
  5
313
  8
BODY_PANELS
 10
1.6449999999999809
 20
6.0460000000000056
 30
0.0
 11
1.6449999999999809
 21
11.37699999999999
 31
0.0
  0
LINE
  5
314
  8
BODY_PANELS
 10
1.194999999999993
 20
6.0460000000000056
 30
0.0
 11
1.194999999999993
 21
11.37699999999999
 31
0.0
  0
LINE
  5
315
  8
BODY_PANELS
 10
0.9350000000000022
 20
6.0460000000000056
 30
0.0
 11
0.9350000000000022
 21
11.37699999999999
 31
0.0
  0
LINE
  5
316
  8
BODY_PANELS
 10
0.4850000000000137
 20
6.0460000000000056
 30
0.0
 11
0.4850000000000137
 21
11.37699999999999
 31
0.0
  0
LINE
  5
317
  8
BODY_PANELS
 10
0.2249999999999659
 20
6.0460000000000056
 30
0.0
 11
0.2249999999999659
 21
11.37699999999999
 31
0.0
  0
LINE
  5
318
  8
BODY_PANELS
 10
1.6449999999999809
 20
11.37699999999999
 30
0.0
 11
1.194999999999993
 21
11.37699999999999
 31
0.0
  0
LINE
  5
319
  8
BODY_PANELS
 10
0.9350000000000022
 20
11.37699999999999
 30
0.0
 11
0.4850000000000137
 21
11.37699999999999
 31
0.0
  0
LINE
  5
31A
  8
BODY_PANELS
 10
1.6449999999999809
 20
6.0460000000000056
 30
0.0
 11
1.194999999999993
 21
6.0459999999999781
 31
0.0
  0
LINE
  5
31B
  8
BODY_PANELS
 10
0.9350000000000022
 20
6.0459999999999781
 30
0.0
 11
0.4850000000000137
 21
6.0459999999999781
 31
0.0
  0
LINE
  5
31C
  8
BODY_PANELS
 10
-2.0889999999999982
 20
5.7859999999999721
 30
0.0
 11
2.0889999999999982
 21
5.7860000000000014
 31
0.0
  0
LINE
  5
31D
  8
BODY_PANELS
 10
-2.0889999999999982
 20
11.637
 30
0.0
 11
2.0889999999999982
 21
11.637
 31
0.0
  0
LINE
  5
31E
  8
BODY_PANELS
 10
2.0889999999999982
 20
5.7860000000000014
 30
0.0
 11
2.0889999999999982
 21
11.637
 31
0.0
  0
LINE
  5
31F
  8
BODY_PANELS
 10
-2.0889999999999982
 20
5.7859999999999721
 30
0.0
 11
-2.0889999999999982
 21
11.637
 31
0.0
  0
LINE
  5
320
  8
BODY_PANELS
 10
5.3485000000000014
 20
4.7549999999999946
 30
0.0
 11
5.3485000000000014
 21
2.0349999999999961
 31
0.0
  0
LINE
  5
321
  8
BODY_PANELS
 10
4.998500000000007
 20
4.7549999999999946
 30
0.0
 11
4.998500000000007
 21
2.0349999999999961
 31
0.0
  0
LINE
  5
322
  8
BODY_PANELS
 10
5.7984999999999891
 20
4.7549999999999946
 30
0.0
 11
5.7984999999999891
 21
2.0349999999999961
 31
0.0
  0
LINE
  5
323
  8
BODY_PANELS
 10
4.5484999999999891
 20
4.7549999999999946
 30
0.0
 11
4.5484999999999891
 21
2.0349999999999961
 31
0.0
  0
LINE
  5
324
  8
BODY_PANELS
 10
4.1985000000000241
 20
4.7549999999999946
 30
0.0
 11
4.1985000000000241
 21
2.0349999999999961
 31
0.0
  0
LINE
  5
325
  8
BODY_PANELS
 10
6.1485000000000118
 20
4.7549999999999946
 30
0.0
 11
6.1485000000000118
 21
2.0349999999999961
 31
0.0
  0
LINE
  5
326
  8
BODY_PANELS
 10
3.748500000000007
 20
4.7549999999999946
 30
0.0
 11
3.748500000000007
 21
2.0349999999999961
 31
0.0
  0
LINE
  5
327
  8
BODY_PANELS
 10
6.5985000000000014
 20
4.7549999999999946
 30
0.0
 11
6.5985000000000014
 21
2.0349999999999961
 31
0.0
  0
LINE
  5
328
  8
BODY_PANELS
 10
6.9484999999999948
 20
4.7549999999999946
 30
0.0
 11
6.9485000000000241
 21
2.0350000000000099
 31
0.0
  0
LINE
  5
329
  8
BODY_PANELS
 10
3.3985000000000118
 20
4.7549999999999946
 30
0.0
 11
3.3985000000000118
 21
2.0349999999999961
 31
0.0
  0
LINE
  5
32A
  8
BODY_PANELS
 10
3.3985000000000118
 20
4.7549999999999946
 30
0.0
 11
3.748500000000007
 21
4.7549999999999946
 31
0.0
  0
LINE
  5
32B
  8
BODY_PANELS
 10
3.3985000000000118
 20
2.0349999999999961
 30
0.0
 11
3.748500000000007
 21
2.0349999999999961
 31
0.0
  0
LINE
  5
32C
  8
BODY_PANELS
 10
4.1985000000000241
 20
4.7549999999999946
 30
0.0
 11
4.5484999999999891
 21
4.7549999999999946
 31
0.0
  0
LINE
  5
32D
  8
BODY_PANELS
 10
4.9984999999999777
 20
4.7549999999999946
 30
0.0
 11
5.3485000000000014
 21
4.7550000000000088
 31
0.0
  0
LINE
  5
32E
  8
BODY_PANELS
 10
5.7984999999999891
 20
4.7550000000000088
 30
0.0
 11
6.1485000000000118
 21
4.7550000000000088
 31
0.0
  0
LINE
  5
32F
  8
BODY_PANELS
 10
6.5985000000000014
 20
4.7549999999999946
 30
0.0
 11
6.9484999999999948
 21
4.7549999999999946
 31
0.0
  0
LINE
  5
330
  8
BODY_PANELS
 10
6.5985000000000014
 20
2.0350000000000099
 30
0.0
 11
6.9484999999999948
 21
2.0350000000000099
 31
0.0
  0
LINE
  5
331
  8
BODY_PANELS
 10
5.7984999999999891
 20
2.0350000000000099
 30
0.0
 11
6.1485000000000118
 21
2.0350000000000099
 31
0.0
  0
LINE
  5
332
  8
BODY_PANELS
 10
4.9984999999999777
 20
2.0350000000000099
 30
0.0
 11
5.3485000000000014
 21
2.0350000000000099
 31
0.0
  0
LINE
  5
333
  8
BODY_PANELS
 10
4.1985000000000241
 20
2.0349999999999961
 30
0.0
 11
4.5484999999999891
 21
2.0350000000000099
 31
0.0
  0
LINE
  5
334
  8
BODY_PANELS
 10
3.3985000000000118
 20
1.8050000000000059
 30
0.0
 11
6.9484999999999673
 21
1.8050000000000059
 31
0.0
  0
LINE
  5
335
  8
BODY_PANELS
 10
3.3985000000000118
 20
1.1050000000000031
 30
0.0
 11
6.9484999999999948
 21
1.1050000000000031
 31
0.0
  0
LINE
  5
336
  8
BODY_PANELS
 10
3.3985000000000118
 20
1.8050000000000059
 30
0.0
 11
3.3985000000000118
 21
1.1050000000000031
 31
0.0
  0
LINE
  5
337
  8
BODY_PANELS
 10
6.9484999999999948
 20
1.8050000000000059
 30
0.0
 11
6.9484999999999948
 21
1.1050000000000031
 31
0.0
  0
LINE
  5
338
  8
BODY_PANELS
 10
31.82850000000008
 20
1.805000000000113
 30
0.0
 11
35.378500000000031
 21
1.8050000000000841
 31
0.0
  0
LINE
  5
339
  8
BODY_PANELS
 10
31.82850000000008
 20
1.1050000000001241
 30
0.0
 11
35.378500000000031
 21
1.1050000000000959
 31
0.0
  0
LINE
  5
33A
  8
BODY_PANELS
 10
31.82850000000008
 20
4.7550000000001296
 30
0.0
 11
31.82850000000008
 21
2.0350000000001032
 31
0.0
  0
LINE
  5
33B
  8
BODY_PANELS
 10
32.978500000000061
 20
4.7550000000001296
 30
0.0
 11
32.978500000000061
 21
2.0350000000001311
 31
0.0
  0
LINE
  5
33C
  8
BODY_PANELS
 10
32.628500000000031
 20
4.7550000000001296
 30
0.0
 11
32.628500000000059
 21
2.0350000000001311
 31
0.0
  0
LINE
  5
33D
  8
BODY_PANELS
 10
32.178500000000042
 20
4.7550000000001296
 30
0.0
 11
32.178500000000042
 21
2.0350000000001311
 31
0.0
  0
LINE
  5
33E
  8
BODY_PANELS
 10
31.82850000000008
 20
1.805000000000113
 30
0.0
 11
31.82850000000008
 21
1.1050000000001241
 31
0.0
  0
LINE
  5
33F
  8
BODY_PANELS
 10
31.82850000000008
 20
2.0350000000001311
 30
0.0
 11
32.178500000000042
 21
2.0350000000001311
 31
0.0
  0
LINE
  5
340
  8
BODY_PANELS
 10
32.628500000000031
 20
2.0350000000001311
 30
0.0
 11
32.978500000000061
 21
2.0350000000001311
 31
0.0
  0
LINE
  5
341
  8
BODY_PANELS
 10
32.628500000000031
 20
4.7550000000001296
 30
0.0
 11
32.978500000000061
 21
4.755000000000102
 31
0.0
  0
LINE
  5
342
  8
BODY_PANELS
 10
31.82850000000008
 20
4.7550000000001296
 30
0.0
 11
32.178500000000042
 21
4.7550000000001296
 31
0.0
  0
LINE
  5
343
  8
BODY_PANELS
 10
35.378500000000031
 20
4.755000000000102
 30
0.0
 11
35.378500000000031
 21
2.0350000000001032
 31
0.0
  0
LINE
  5
344
  8
BODY_PANELS
 10
33.428500000000042
 20
4.7550000000001296
 30
0.0
 11
33.428500000000042
 21
2.0350000000001311
 31
0.0
  0
LINE
  5
345
  8
BODY_PANELS
 10
33.778500000000072
 20
4.7550000000001296
 30
0.0
 11
33.778500000000072
 21
2.0350000000001311
 31
0.0
  0
LINE
  5
346
  8
BODY_PANELS
 10
34.228500000000061
 20
4.7550000000001296
 30
0.0
 11
34.228500000000061
 21
2.0350000000001311
 31
0.0
  0
LINE
  5
347
  8
BODY_PANELS
 10
34.57850000000002
 20
4.7550000000001296
 30
0.0
 11
34.57850000000002
 21
2.0350000000001311
 31
0.0
  0
LINE
  5
348
  8
BODY_PANELS
 10
35.028500000000072
 20
4.755000000000102
 30
0.0
 11
35.028500000000072
 21
2.0350000000001032
 31
0.0
  0
LINE
  5
349
  8
BODY_PANELS
 10
35.378500000000031
 20
1.8050000000000841
 30
0.0
 11
35.378500000000031
 21
1.1050000000000959
 31
0.0
  0
LINE
  5
34A
  8
BODY_PANELS
 10
33.428500000000042
 20
2.0350000000001311
 30
0.0
 11
33.778500000000072
 21
2.0350000000001311
 31
0.0
  0
LINE
  5
34B
  8
BODY_PANELS
 10
34.228500000000061
 20
2.0350000000001311
 30
0.0
 11
34.57850000000002
 21
2.0350000000001311
 31
0.0
  0
LINE
  5
34C
  8
BODY_PANELS
 10
35.028500000000072
 20
2.0350000000001032
 30
0.0
 11
35.378500000000031
 21
2.0350000000001032
 31
0.0
  0
LINE
  5
34D
  8
BODY_PANELS
 10
35.028500000000072
 20
4.755000000000102
 30
0.0
 11
35.378500000000031
 21
4.755000000000102
 31
0.0
  0
LINE
  5
34E
  8
BODY_PANELS
 10
34.228500000000061
 20
4.7550000000001296
 30
0.0
 11
34.57850000000002
 21
4.7550000000001296
 31
0.0
  0
LINE
  5
34F
  8
BODY_PANELS
 10
33.428500000000042
 20
4.755000000000102
 30
0.0
 11
33.778500000000072
 21
4.7550000000001296
 31
0.0
  0
LINE
  5
350
  8
BODY_PANELS
 10
28.259999999999991
 20
6.0460000000000056
 30
0.0
 11
28.259999999999991
 21
11.37699999999999
 31
0.0
  0
LINE
  5
351
  8
BODY_PANELS
 10
28.0
 20
6.0460000000000056
 30
0.0
 11
28.0
 21
11.37699999999999
 31
0.0
  0
LINE
  5
352
  8
BODY_PANELS
 10
27.550000000000011
 20
6.0460000000000056
 30
0.0
 11
27.550000000000011
 21
11.37699999999999
 31
0.0
  0
LINE
  5
353
  8
BODY_PANELS
 10
27.28999999999996
 20
6.0460000000000056
 30
0.0
 11
27.28999999999996
 21
11.37699999999999
 31
0.0
  0
LINE
  5
354
  8
BODY_PANELS
 10
28.70999999999998
 20
6.0460000000000056
 30
0.0
 11
28.70999999999998
 21
11.37699999999999
 31
0.0
  0
LINE
  5
355
  8
BODY_PANELS
 10
28.96999999999997
 20
6.0460000000000056
 30
0.0
 11
28.96999999999997
 21
11.37699999999999
 31
0.0
  0
LINE
  5
356
  8
BODY_PANELS
 10
29.420000000000019
 20
6.0460000000000056
 30
0.0
 11
29.420000000000019
 21
11.37699999999999
 31
0.0
  0
LINE
  5
357
  8
BODY_PANELS
 10
29.68000000000001
 20
6.0460000000000056
 30
0.0
 11
29.68000000000001
 21
11.37699999999999
 31
0.0
  0
LINE
  5
358
  8
BODY_PANELS
 10
30.129999999999999
 20
6.0460000000000056
 30
0.0
 11
30.129999999999999
 21
11.37699999999999
 31
0.0
  0
LINE
  5
359
  8
BODY_PANELS
 10
26.839999999999971
 20
6.0460000000000056
 30
0.0
 11
26.839999999999971
 21
11.37699999999999
 31
0.0
  0
LINE
  5
35A
  8
BODY_PANELS
 10
27.550000000000011
 20
6.0459999999999781
 30
0.0
 11
28.0
 21
6.0459999999999781
 31
0.0
  0
LINE
  5
35B
  8
BODY_PANELS
 10
29.68000000000001
 20
6.0460000000000056
 30
0.0
 11
30.129999999999999
 21
6.0460000000000056
 31
0.0
  0
LINE
  5
35C
  8
BODY_PANELS
 10
28.96999999999997
 20
6.0460000000000056
 30
0.0
 11
29.420000000000019
 21
6.0460000000000056
 31
0.0
  0
LINE
  5
35D
  8
BODY_PANELS
 10
28.259999999999991
 20
6.0459999999999781
 30
0.0
 11
28.70999999999998
 21
6.0460000000000056
 31
0.0
  0
LINE
  5
35E
  8
BODY_PANELS
 10
26.839999999999971
 20
6.0460000000000056
 30
0.0
 11
27.28999999999996
 21
6.0459999999999781
 31
0.0
  0
LINE
  5
35F
  8
BODY_PANELS
 10
27.550000000000011
 20
11.37699999999999
 30
0.0
 11
28.0
 21
11.37699999999999
 31
0.0
  0
LINE
  5
360
  8
BODY_PANELS
 10
28.96999999999997
 20
11.37699999999999
 30
0.0
 11
29.420000000000019
 21
11.37699999999999
 31
0.0
  0
LINE
  5
361
  8
BODY_PANELS
 10
29.68000000000001
 20
11.37699999999999
 30
0.0
 11
30.129999999999999
 21
11.37699999999999
 31
0.0
  0
LINE
  5
362
  8
BODY_PANELS
 10
28.259999999999991
 20
11.37699999999999
 30
0.0
 11
28.70999999999998
 21
11.37699999999999
 31
0.0
  0
LINE
  5
363
  8
BODY_PANELS
 10
26.839999999999971
 20
11.37699999999999
 30
0.0
 11
27.28999999999996
 21
11.37699999999999
 31
0.0
  0
LINE
  5
364
  8
BODY_PANELS
 10
30.574000000000009
 20
5.7859999999999721
 30
0.0
 11
30.574000000000009
 21
11.637
 31
0.0
  0
LINE
  5
365
  8
BODY_PANELS
 10
30.574000000000009
 20
5.7859999999999721
 30
0.0
 11
26.396000000000011
 21
5.7860000000000014
 31
0.0
  0
LINE
  5
366
  8
BODY_PANELS
 10
30.574000000000009
 20
11.637
 30
0.0
 11
26.396000000000011
 21
11.637
 31
0.0
  0
LINE
  5
367
  8
BODY_PANELS
 10
26.396000000000011
 20
5.7860000000000014
 30
0.0
 11
26.396000000000011
 21
11.637
 31
0.0
  0
ARC
  5
368
  8
BODY_PANELS
 10
14.2425
 20
2.0315000000000079
 30
0.0
 40
0.755
 50
209.60644929828919
 51
240.39355070171089
  0
ARC
  5
369
  8
BODY_PANELS
 10
14.2425
 20
2.0315000000000079
 30
0.0
 40
1.1999999999999991
 50
198.10945819435111
 51
251.89054180564889
  0
ARC
  5
36A
  8
BODY_PANELS
 10
14.2425
 20
2.0315000000000079
 30
0.0
 40
1.4330000000000001
 50
114.010873914321
 51
155.98912608567821
  0
ARC
  5
36B
  8
BODY_PANELS
 10
14.2425
 20
2.0315000000000079
 30
0.0
 40
0.755
 50
119.60644929828899
 51
150.3935507017103
  0
ARC
  5
36C
  8
BODY_PANELS
 10
14.2425
 20
2.0315000000000079
 30
0.0
 40
1.1999999999999991
 50
108.10945819435101
 51
161.8905418056485
  0
ARC
  5
36D
  8
BODY_PANELS
 10
14.2425
 20
2.0315000000000079
 30
0.0
 40
0.755
 50
29.606449298289451
 51
60.393550701710332
  0
ARC
  5
36E
  8
BODY_PANELS
 10
14.2425
 20
2.0315000000000079
 30
0.0
 40
1.1999999999999991
 50
18.10945819435128
 51
71.890541805648553
  0
ARC
  5
36F
  8
BODY_PANELS
 10
14.2425
 20
2.0315000000000079
 30
0.0
 40
0.755
 50
299.60644929828908
 51
330.39355070171109
  0
ARC
  5
370
  8
BODY_PANELS
 10
14.2425
 20
2.0315000000000079
 30
0.0
 40
1.1999999999999991
 50
288.10945819435108
 51
341.89054180564892
  0
LINE
  5
371
  8
BODY_PANELS
 10
13.586073309500589
 20
1.658500000000003
 30
0.0
 11
13.101942680090129
 21
1.658500000000003
 31
0.0
  0
LINE
  5
372
  8
BODY_PANELS
 10
13.869500000000009
 20
1.375073309500606
 30
0.0
 11
13.869500000000009
 21
0.8909426800901343
 31
0.0
  0
LINE
  5
373
  8
BODY_PANELS
 10
13.586073309500589
 20
2.4045000000000121
 30
0.0
 11
13.101942680090129
 21
2.4045000000000121
 31
0.0
  0
LINE
  5
374
  8
BODY_PANELS
 10
13.869500000000009
 20
2.6879266904994088
 30
0.0
 11
13.869500000000009
 21
3.1720573199098818
 31
0.0
  0
LINE
  5
375
  8
BODY_PANELS
 10
14.615500000000001
 20
2.6879266904994088
 30
0.0
 11
14.615500000000001
 21
3.1720573199098818
 31
0.0
  0
LINE
  5
376
  8
BODY_PANELS
 10
14.89892669049939
 20
2.4045000000000121
 30
0.0
 11
15.383057319909881
 21
2.4045000000000121
 31
0.0
  0
LINE
  5
377
  8
BODY_PANELS
 10
14.898926690499421
 20
1.658500000000003
 30
0.0
 11
15.383057319909881
 21
1.658500000000003
 31
0.0
  0
LINE
  5
378
  8
BODY_PANELS
 10
14.615500000000001
 20
1.375073309500606
 30
0.0
 11
14.615500000000001
 21
0.8909426800901343
 31
0.0
  0
LINE
  5
379
  8
BODY_PANELS
 10
13.6593979506124
 20
0.7225000000000108
 30
0.0
 11
12.933499999999979
 21
0.7225000000000108
 31
0.0
  0
LINE
  5
37A
  8
BODY_PANELS
 10
14.82560204938755
 20
0.7225000000000108
 30
0.0
 11
15.551499999999971
 21
0.7225000000000108
 31
0.0
  0
LINE
  5
37B
  8
BODY_PANELS
 10
15.551499999999971
 20
1.4483979506124021
 30
0.0
 11
15.551499999999971
 21
0.7225000000000108
 31
0.0
  0
LINE
  5
37C
  8
BODY_PANELS
 10
12.933499999999979
 20
1.4483979506124021
 30
0.0
 11
12.933499999999979
 21
0.7225000000000108
 31
0.0
  0
LINE
  5
37D
  8
BODY_PANELS
 10
12.933499999999979
 20
2.614602049387599
 30
0.0
 11
12.933499999999979
 21
3.3405000000000049
 31
0.0
  0
LINE
  5
37E
  8
BODY_PANELS
 10
15.551499999999971
 20
2.614602049387599
 30
0.0
 11
15.551499999999971
 21
3.3405000000000049
 31
0.0
  0
LINE
  5
37F
  8
BODY_PANELS
 10
14.82560204938758
 20
3.3405000000000049
 30
0.0
 11
15.551499999999971
 21
3.3405000000000049
 31
0.0
  0
LINE
  5
380
  8
BODY_PANELS
 10
13.6593979506124
 20
3.3405000000000049
 30
0.0
 11
12.933499999999979
 21
3.3405000000000049
 31
0.0
  0
ARC
  5
381
  8
BODY_PANELS
 10
14.2425
 20
2.0315000000000079
 30
0.0
 40
1.4330000000000001
 50
24.010873914320879
 51
65.989126085679004
  0
ARC
  5
382
  8
BODY_PANELS
 10
14.2425
 20
2.0315000000000079
 30
0.0
 40
1.4330000000000001
 50
294.01087391432139
 51
335.98912608567838
  0
ARC
  5
383
  8
BODY_PANELS
 10
14.2425
 20
2.0315000000000079
 30
0.0
 40
1.4330000000000001
 50
204.01087391432159
 51
245.98912608567889
  0
ARC
  5
384
  8
BODY_PANELS
 10
42.727500000000077
 20
2.031500000000086
 30
0.0
 40
1.1999999999999991
 50
18.109458194351109
 51
71.890541805648979
  0
ARC
  5
385
  8
BODY_PANELS
 10
42.727500000000077
 20
2.031500000000086
 30
0.0
 40
0.755
 50
29.606449298289249
 51
60.393550701710922
  0
ARC
  5
386
  8
BODY_PANELS
 10
42.727500000000077
 20
2.031500000000086
 30
0.0
 40
1.1999999999999991
 50
288.10945819435108
 51
341.89054180564858
  0
ARC
  5
387
  8
BODY_PANELS
 10
42.727500000000077
 20
2.031500000000086
 30
0.0
 40
0.755
 50
299.60644929828908
 51
330.3935507017103
  0
LINE
  5
388
  8
BODY_PANELS
 10
44.036500000000068
 20
1.4483979506124951
 30
0.0
 11
44.036500000000068
 21
0.7225000000000748
 31
0.0
  0
LINE
  5
389
  8
BODY_PANELS
 10
44.036500000000053
 20
2.6146020493876772
 30
0.0
 11
44.036500000000053
 21
3.3405000000000689
 31
0.0
  0
ARC
  5
38A
  8
BODY_PANELS
 10
42.727500000000077
 20
2.031500000000086
 30
0.0
 40
1.4330000000000001
 50
294.01087391432111
 51
335.98912608567821
  0
ARC
  5
38B
  8
BODY_PANELS
 10
42.727500000000077
 20
2.031500000000086
 30
0.0
 40
1.4330000000000001
 50
24.010873914321689
 51
65.989126085678947
  0
LINE
  5
38C
  8
BODY_PANELS
 10
43.310602049387647
 20
3.3405000000000689
 30
0.0
 11
44.036500000000053
 21
3.3405000000000689
 31
0.0
  0
LINE
  5
38D
  8
BODY_PANELS
 10
43.310602049387647
 20
0.7225000000000748
 30
0.0
 11
44.036500000000068
 21
0.7225000000000748
 31
0.0
  0
LINE
  5
38E
  8
BODY_PANELS
 10
43.383926690499457
 20
1.6585000000000809
 30
0.0
 11
43.868057319909951
 21
1.6585000000000809
 31
0.0
  0
LINE
  5
38F
  8
BODY_PANELS
 10
43.383926690499457
 20
2.4045000000000911
 30
0.0
 11
43.868057319909951
 21
2.4045000000000911
 31
0.0
  0
ARC
  5
390
  8
BODY_PANELS
 10
42.727500000000077
 20
2.031500000000086
 30
0.0
 40
1.4330000000000001
 50
114.01087391432129
 51
155.98912608567841
  0
LINE
  5
391
  8
BODY_PANELS
 10
42.144397950612472
 20
3.3405000000000689
 30
0.0
 11
41.418500000000073
 21
3.3405000000000689
 31
0.0
  0
LINE
  5
392
  8
BODY_PANELS
 10
41.418500000000073
 20
2.6146020493876772
 30
0.0
 11
41.418500000000073
 21
3.3405000000000689
 31
0.0
  0
ARC
  5
393
  8
BODY_PANELS
 10
42.727500000000077
 20
2.031500000000086
 30
0.0
 40
1.4330000000000001
 50
204.01087391432091
 51
245.989126085679
  0
LINE
  5
394
  8
BODY_PANELS
 10
41.418500000000073
 20
1.4483979506124951
 30
0.0
 11
41.418500000000073
 21
0.7225000000000748
 31
0.0
  0
LINE
  5
395
  8
BODY_PANELS
 10
42.144397950612472
 20
0.7225000000000748
 30
0.0
 11
41.418500000000073
 21
0.7225000000000748
 31
0.0
  0
LINE
  5
396
  8
BODY_PANELS
 10
42.071073309500662
 20
1.6585000000000809
 30
0.0
 11
41.586942680090203
 21
1.6585000000000809
 31
0.0
  0
LINE
  5
397
  8
BODY_PANELS
 10
42.354500000000058
 20
1.3750733095006851
 30
0.0
 11
42.354500000000058
 21
0.8909426800901982
 31
0.0
  0
LINE
  5
398
  8
BODY_PANELS
 10
43.100500000000061
 20
1.3750733095006851
 30
0.0
 11
43.100500000000061
 21
0.8909426800901982
 31
0.0
  0
LINE
  5
399
  8
BODY_PANELS
 10
43.100500000000061
 20
2.687926690499487
 30
0.0
 11
43.100500000000061
 21
3.1720573199099462
 31
0.0
  0
LINE
  5
39A
  8
BODY_PANELS
 10
42.354500000000087
 20
2.687926690499487
 30
0.0
 11
42.354500000000087
 21
3.1720573199099462
 31
0.0
  0
LINE
  5
39B
  8
BODY_PANELS
 10
42.071073309500662
 20
2.4045000000000911
 30
0.0
 11
41.586942680090203
 21
2.4045000000000911
 31
0.0
  0
ARC
  5
39C
  8
BODY_PANELS
 10
42.727500000000077
 20
2.031500000000086
 30
0.0
 40
1.1999999999999991
 50
108.10945819435111
 51
161.89054180564889
  0
ARC
  5
39D
  8
BODY_PANELS
 10
42.727500000000077
 20
2.031500000000086
 30
0.0
 40
0.755
 50
119.60644929828911
 51
150.39355070171109
  0
ARC
  5
39E
  8
BODY_PANELS
 10
42.727500000000077
 20
2.031500000000086
 30
0.0
 40
1.1999999999999991
 50
198.10945819435119
 51
251.89054180564861
  0
ARC
  5
39F
  8
BODY_PANELS
 10
42.727500000000077
 20
2.031500000000086
 30
0.0
 40
0.755
 50
209.6064492982895
 51
240.3935507017103
  0
LINE
  5
3A0
  8
DIMENSIONS
 10
10.125
 20
5.6085000000000056
 30
0.0
 11
10.125
 21
-0.7199999999999989
 31
0.0
  0
LINE
  5
3A2
  8
DIMENSIONS
 10
28.48500000000001
 20
19.770905697968431
 30
0.0
 11
28.48500000000001
 21
-0.7199999999999989
 31
0.0
  0
LINE
  5
3A3
  8
DIMENSIONS
 10
26.336000000000009
 20
5.6634999999999991
 30
0.0
 11
26.336000000000009
 21
0.0
 31
0.0
  0
LINE
  5
3A4
  8
DIMENSIONS
 10
26.336000000000009
 20
0.0
 30
0.0
 11
26.724637762350429
 21
-0.3599999999999994
 31
0.0
  0
LINE
  5
3A5
  8
DIMENSIONS
 10
26.724637762350429
 20
-0.3599999999999994
 30
0.0
 11
26.724637762350429
 21
-0.7199999999999989
 31
0.0
  0
LINE
  5
3A6
  8
DIMENSIONS
 10
26.064000000000021
 20
0.2175000000000011
 30
0.0
 11
26.064000000000021
 21
-0.7199999999999989
 31
0.0
  0
LINE
  5
3A7
  8
DIMENSIONS
 10
25.096000000000011
 20
1.2505000000000019
 30
0.0
 11
25.096000000000011
 21
-0.7199999999999989
 31
0.0
  0
LINE
  5
3A8
  8
DIMENSIONS
 10
24.346
 20
0.5005000000000024
 30
0.0
 11
24.346
 21
0.0
 31
0.0
  0
LINE
  5
3A9
  8
DIMENSIONS
 10
24.346
 20
0.0
 30
0.0
 11
24.649999295619871
 21
-0.3599999999999994
 31
0.0
  0
LINE
  5
3AA
  8
DIMENSIONS
 10
24.649999295619871
 20
-0.3599999999999994
 30
0.0
 11
24.649999295619871
 21
-0.7199999999999989
 31
0.0
  0
LINE
  5
3AB
  8
DIMENSIONS
 10
24.132000000000009
 20
3.8425000000000011
 30
0.0
 11
24.132000000000009
 21
-0.7199999999999989
 31
0.0
  0
LINE
  5
3AC
  8
DIMENSIONS
 10
22.908999999999988
 20
0.5005000000000024
 30
0.0
 11
22.908999999999988
 21
-0.7199999999999989
 31
0.0
  0
LINE
  5
3AD
  8
DIMENSIONS
 10
22.158999999999988
 20
1.2505000000000019
 30
0.0
 11
22.158999999999988
 21
-0.7199999999999989
 31
0.0
  0
LINE
  5
3AE
  8
DIMENSIONS
 10
21.30700000000002
 20
0.5315000000000083
 30
0.0
 11
21.30700000000002
 21
0.0
 31
0.0
  0
LINE
  5
3AF
  8
DIMENSIONS
 10
21.30700000000002
 20
0.0
 30
0.0
 11
21.64918233848903
 21
-0.3599999999999994
 31
0.0
  0
LINE
  5
3B0
  8
DIMENSIONS
 10
21.64918233848903
 20
-0.3599999999999994
 30
0.0
 11
21.64918233848903
 21
-0.7199999999999989
 31
0.0
  0
LINE
  5
3B1
  8
DIMENSIONS
 10
21.132000000000001
 20
3.8425000000000011
 30
0.0
 11
21.132000000000001
 21
-0.7199999999999989
 31
0.0
  0
LINE
  5
3B2
  8
DIMENSIONS
 10
20.468999999999991
 20
3.8425000000000011
 30
0.0
 11
20.468999999999991
 21
0.0
 31
0.0
  0
LINE
  5
3B3
  8
DIMENSIONS
 10
20.468999999999991
 20
0.0
 30
0.0
 11
20.72300463399927
 21
-0.3599999999999994
 31
0.0
  0
LINE
  5
3B4
  8
DIMENSIONS
 10
20.72300463399927
 20
-0.3599999999999994
 30
0.0
 11
20.72300463399927
 21
-0.7199999999999989
 31
0.0
  0
LINE
  5
3B5
  8
DIMENSIONS
 10
20.292999999999999
 20
0.5315000000000083
 30
0.0
 11
20.292999999999999
 21
-0.7199999999999989
 31
0.0
  0
LINE
  5
3B6
  8
DIMENSIONS
 10
19.759000000000011
 20
0.5315000000000083
 30
0.0
 11
19.759000000000011
 21
-0.7199999999999989
 31
0.0
  0
LINE
  5
3B7
  8
DIMENSIONS
 10
18.747000000000011
 20
0.5315000000000083
 30
0.0
 11
18.747000000000011
 21
-0.7199999999999989
 31
0.0
  0
LINE
  5
3B8
  8
DIMENSIONS
 10
18.213000000000019
 20
0.5315000000000083
 30
0.0
 11
18.213000000000019
 21
-0.7199999999999989
 31
0.0
  0
LINE
  5
3B9
  8
DIMENSIONS
 10
9.5380000000000091
 20
3.8425000000000011
 30
0.0
 11
9.5380000000000091
 21
-0.7199999999999989
 31
0.0
  0
LINE
  5
3BA
  8
DIMENSIONS
 10
9.5050000000000523
 20
5.6084999999999923
 30
0.0
 11
9.5050000000000523
 21
5.3726722673101222
 31
0.0
  0
LINE
  5
3BB
  8
DIMENSIONS
 10
9.5050000000000523
 20
5.3726722673101222
 30
0.0
 11
8.9790684803549539
 21
5.0126722673101218
 31
0.0
  0
LINE
  5
3BC
  8
DIMENSIONS
 10
8.9790684803549539
 20
5.0126722673101218
 30
0.0
 11
8.9790684803549539
 21
-0.7199999999999989
 31
0.0
  0
LINE
  5
3BD
  8
DIMENSIONS
 10
17.076000000000018
 20
3.8425000000000011
 30
0.0
 11
17.076000000000018
 21
-0.7199999999999989
 31
0.0
  0
LINE
  5
3BE
  8
DIMENSIONS
 10
16.477000000000029
 20
0.5315000000000083
 30
0.0
 11
16.477000000000029
 21
-0.7199999999999989
 31
0.0
  0
LINE
  5
3BF
  8
DIMENSIONS
 10
16.039000000000041
 20
3.8425000000000011
 30
0.0
 11
16.039000000000041
 21
-0.7199999999999989
 31
0.0
  0
LINE
  5
3C0
  8
DIMENSIONS
 10
15.68
 20
0.5315000000000083
 30
0.0
 11
15.68
 21
-0.7199999999999989
 31
0.0
  0
LINE
  5
3C1
  8
DIMENSIONS
 10
12.80500000000001
 20
0.5315000000000083
 30
0.0
 11
12.80500000000001
 21
-0.7199999999999989
 31
0.0
  0
LINE
  5
3C2
  8
DIMENSIONS
 10
12.44600000000003
 20
3.8425000000000011
 30
0.0
 11
12.44600000000003
 21
-0.7199999999999989
 31
0.0
  0
LINE
  5
3C3
  8
DIMENSIONS
 10
12.00800000000004
 20
0.5315000000000083
 30
0.0
 11
12.00800000000004
 21
-0.7199999999999989
 31
0.0
  0
LINE
  5
3C4
  8
DIMENSIONS
 10
11.507
 20
3.8425000000000011
 30
0.0
 11
11.507
 21
-0.7199999999999989
 31
0.0
  0
LINE
  5
3C5
  8
DIMENSIONS
 10
8.0150000000000432
 20
0.5315000000000083
 30
0.0
 11
8.0150000000000432
 21
-0.7199999999999989
 31
0.0
  0
LINE
  5
3C6
  8
DIMENSIONS
 10
7.3530000000000078
 20
0.5314999999999941
 30
0.0
 11
7.3530000000000078
 21
-0.7199999999999989
 31
0.0
  0
LINE
  5
3C7
  8
DIMENSIONS
 10
4.3530000000000078
 20
5.532499999999998
 30
0.0
 11
4.3530000000000078
 21
-0.7199999999999989
 31
0.0
  0
LINE
  5
3C8
  8
DIMENSIONS
 10
2.9940000000000282
 20
0.5314999999999941
 30
0.0
 11
2.9940000000000282
 21
-0.7199999999999989
 31
0.0
  0
LINE
  5
3C9
  8
DIMENSIONS
 10
2.4209999999999918
 20
0.2175000000000011
 30
0.0
 11
2.4209999999999918
 21
-0.7199999999999989
 31
0.0
  0
LINE
  5
3CA
  8
DIMENSIONS
 10
2.149
 20
5.6634999999999991
 30
0.0
 11
2.149
 21
0.0
 31
0.0
  0
LINE
  5
3CB
  8
DIMENSIONS
 10
2.149
 20
0.0
 30
0.0
 11
1.0139380211935529
 21
-0.3599999999999994
 31
0.0
  0
LINE
  5
3CC
  8
DIMENSIONS
 10
1.0139380211935529
 20
-0.3599999999999994
 30
0.0
 11
1.0139380211935529
 21
-0.7199999999999989
 31
0.0
  0
LINE
  5
3CD
  8
DIMENSIONS
 10
0.0
 20
4.1544999999999979
 30
0.0
 11
0.0
 21
0.0
 31
0.0
  0
LINE
  5
3CE
  8
DIMENSIONS
 10
0.0
 20
0.0
 30
0.0
 11
0.0
 21
-0.3599999999999994
 31
0.0
  0
LINE
  5
3CF
  8
DIMENSIONS
 10
0.0
 20
-0.3599999999999994
 30
0.0
 11
0.0
 21
-0.7199999999999989
 31
0.0
  0
TEXT
  5
3D0
  8
DIMENSIONS
 10
0.089999999999975
 20
-1.5300000000000009
 30
0.0
 40
0.18
  1
0.000
 50
90.0
  0
TEXT
  5
3D1
  8
DIMENSIONS
 10
1.1039380211935279
 20
-1.487142857142856
 30
0.0
 40
0.18
  1
2.149
 50
90.0
  0
TEXT
  5
3D2
  8
DIMENSIONS
 10
2.5109999999999668
 20
-1.4528571428571411
 30
0.0
 40
0.18
  1
2.421
 50
90.0
  0
TEXT
  5
3D3
  8
DIMENSIONS
 10
3.0840000000000032
 20
-1.53857142857143
 30
0.0
 40
0.18
  1
2.994
 50
90.0
  0
TEXT
  5
3D4
  8
DIMENSIONS
 10
4.4429999999999827
 20
-1.5300000000000009
 30
0.0
 40
0.18
  1
4.353
 50
90.0
  0
TEXT
  5
3D5
  8
DIMENSIONS
 10
7.4429999999999827
 20
-1.5300000000000009
 30
0.0
 40
0.18
  1
7.353
 50
90.0
  0
TEXT
  5
3D6
  8
DIMENSIONS
 10
8.1050000000000182
 20
-1.495714285714278
 30
0.0
 40
0.18
  1
8.015
 50
90.0
  0
TEXT
  5
3D7
  8
DIMENSIONS
 10
9.0690684803549289
 20
-1.529999999999994
 30
0.0
 40
0.18
  1
9.505
 50
90.0
  0
TEXT
  5
3D8
  8
DIMENSIONS
 10
9.6279999999999841
 20
-1.529999999999994
 30
0.0
 40
0.18
  1
9.538
 50
90.0
  0
TEXT
  5
3D9
  8
DIMENSIONS
 10
10.21499999999997
 20
-1.6328571428571399
 30
0.0
 40
0.18
  1
10.125
 50
90.0
  0
TEXT
  5
3DA
  8
DIMENSIONS
 10
11.59699999999998
 20
-1.6328571428571399
 30
0.0
 40
0.18
  1
11.507
 50
90.0
  0
TEXT
  5
3DB
  8
DIMENSIONS
 10
12.09800000000001
 20
-1.667142857142849
 30
0.0
 40
0.18
  1
12.008
 50
90.0
  0
TEXT
  5
3DC
  8
DIMENSIONS
 10
12.536
 20
-1.658571428571427
 30
0.0
 40
0.18
  1
12.446
 50
90.0
  0
TEXT
  5
3DD
  8
DIMENSIONS
 10
12.89499999999998
 20
-1.667142857142849
 30
0.0
 40
0.18
  1
12.805
 50
90.0
  0
TEXT
  5
3DE
  8
DIMENSIONS
 10
15.76999999999998
 20
-1.667142857142849
 30
0.0
 40
0.18
  1
15.680
 50
90.0
  0
TEXT
  5
3DF
  8
DIMENSIONS
 10
16.129000000000019
 20
-1.658571428571427
 30
0.0
 40
0.18
  1
16.039
 50
90.0
  0
TEXT
  5
3E0
  8
DIMENSIONS
 10
16.567
 20
-1.667142857142849
 30
0.0
 40
0.18
  1
16.477
 50
90.0
  0
TEXT
  5
3E1
  8
DIMENSIONS
 10
17.16599999999999
 20
-1.6585714285714199
 30
0.0
 40
0.18
  1
17.076
 50
90.0
  0
TEXT
  5
3E2
  8
DIMENSIONS
 10
20.382999999999981
 20
-1.701428571428564
 30
0.0
 40
0.18
  1
20.293
 50
90.0
  0
TEXT
  5
3E3
  8
DIMENSIONS
 10
18.303000000000001
 20
-1.6328571428571399
 30
0.0
 40
0.18
  1
18.213
 50
90.0
  0
TEXT
  5
3E4
  8
DIMENSIONS
 10
18.836999999999989
 20
-1.667142857142849
 30
0.0
 40
0.18
  1
18.747
 50
90.0
  0
TEXT
  5
3E5
  8
DIMENSIONS
 10
19.84899999999999
 20
-1.658571428571427
 30
0.0
 40
0.18
  1
19.759
 50
90.0
  0
TEXT
  5
3E6
  8
DIMENSIONS
 10
20.813004633999238
 20
-1.6928571428571351
 30
0.0
 40
0.18
  1
20.469
 50
90.0
  0
TEXT
  5
3E7
  8
DIMENSIONS
 10
21.22199999999998
 20
-1.6328571428571399
 30
0.0
 40
0.18
  1
21.132
 50
90.0
  0
TEXT
  5
3E8
  8
DIMENSIONS
 10
21.739182338489002
 20
-1.667142857142849
 30
0.0
 40
0.18
  1
21.307
 50
90.0
  0
TEXT
  5
3E9
  8
DIMENSIONS
 10
22.24899999999997
 20
-1.658571428571427
 30
0.0
 40
0.18
  1
22.159
 50
90.0
  0
TEXT
  5
3EA
  8
DIMENSIONS
 10
22.99899999999997
 20
-1.6928571428571351
 30
0.0
 40
0.18
  1
22.909
 50
90.0
  0
TEXT
  5
3EB
  8
DIMENSIONS
 10
24.22199999999998
 20
-1.667142857142849
 30
0.0
 40
0.18
  1
24.132
 50
90.0
  0
TEXT
  5
3EC
  8
DIMENSIONS
 10
24.739999295619839
 20
-1.6928571428571351
 30
0.0
 40
0.18
  1
24.346
 50
90.0
  0
TEXT
  5
3ED
  8
DIMENSIONS
 10
25.185999999999979
 20
-1.6928571428571351
 30
0.0
 40
0.18
  1
25.096
 50
90.0
  0
TEXT
  5
3EE
  8
DIMENSIONS
 10
26.154
 20
-1.7099999999999931
 30
0.0
 40
0.18
  1
26.064
 50
90.0
  0
TEXT
  5
3EF
  8
DIMENSIONS
 10
26.814637762350401
 20
-1.6928571428571351
 30
0.0
 40
0.18
  1
26.336
 50
90.0
  0
TEXT
  5
3F0
  8
DIMENSIONS
 10
28.574999999999989
 20
-1.701428571428564
 30
0.0
 40
0.18
  1
28.485
 50
90.0
  0
LINE
  5
3F1
  8
DIMENSIONS
 10
49.617000000000019
 20
3.8425000000000789
 30
0.0
 11
49.617000000000019
 21
3.404823854802252
 31
0.0
  0
LINE
  5
3F2
  8
DIMENSIONS
 10
49.617000000000019
 20
3.404823854802252
 30
0.0
 11
49.248771394731421
 21
3.044823854802253
 31
0.0
  0
LINE
  5
3F3
  8
DIMENSIONS
 10
49.248771394731421
 20
3.044823854802253
 30
0.0
 11
49.248771394731421
 21
-0.7199999999998923
 31
0.0
  0
LINE
  5
3F4
  8
DIMENSIONS
 10
48.672000000000033
 20
0.2175000000001077
 30
0.0
 11
48.672000000000033
 21
-0.0799999999998917
 31
0.0
  0
LINE
  5
3F5
  8
DIMENSIONS
 10
48.672000000000033
 20
-0.0799999999998917
 30
0.0
 11
48.935183587566833
 21
-0.3599999999998928
 31
0.0
  0
LINE
  5
3F6
  8
DIMENSIONS
 10
48.935183587566833
 20
-0.3599999999998928
 30
0.0
 11
48.935183587566833
 21
-0.7199999999998923
 31
0.0
  0
LINE
  5
3F7
  8
DIMENSIONS
 10
52.617000000000019
 20
3.8425000000000789
 30
0.0
 11
52.617000000000019
 21
3.357534614329829
 31
0.0
  0
LINE
  5
3F8
  8
DIMENSIONS
 10
52.617000000000019
 20
3.357534614329829
 30
0.0
 11
53.039807431798287
 21
2.9975346143298292
 31
0.0
  0
LINE
  5
3F9
  8
DIMENSIONS
 10
53.039807431798287
 20
2.9975346143298292
 30
0.0
 11
53.039807431798287
 21
-0.7199999999998923
 31
0.0
  0
LINE
  5
3FA
  8
DIMENSIONS
 10
56.97000000000002
 20
4.1545000000000911
 30
0.0
 11
56.97000000000002
 21
-0.7199999999998923
 31
0.0
  0
LINE
  5
3FB
  8
DIMENSIONS
 10
54.548999999999978
 20
0.2175000000000793
 30
0.0
 11
54.548999999999978
 21
-0.7199999999998923
 31
0.0
  0
LINE
  5
3FC
  8
DIMENSIONS
 10
52.585000000000043
 20
1.2505000000000659
 30
0.0
 11
52.585000000000043
 21
-0.7199999999998923
 31
0.0
  0
LINE
  5
3FD
  8
DIMENSIONS
 10
51.835000000000029
 20
0.5005000000000665
 30
0.0
 11
51.835000000000029
 21
-0.7199999999998923
 31
0.0
  0
LINE
  5
3FE
  8
DIMENSIONS
 10
50.398000000000032
 20
0.5005000000000665
 30
0.0
 11
50.398000000000032
 21
-0.7199999999998923
 31
0.0
  0
LINE
  5
3FF
  8
DIMENSIONS
 10
49.648000000000017
 20
1.2505000000000659
 30
0.0
 11
49.648000000000017
 21
-0.7199999999998923
 31
0.0
  0
LINE
  5
400
  8
DIMENSIONS
 10
48.612000000000023
 20
0.2175000000001077
 30
0.0
 11
48.612000000000023
 21
-0.7199999999998923
 31
0.0
  0
LINE
  5
401
  8
DIMENSIONS
 10
48.29850000000004
 20
0.5315000000000723
 30
0.0
 11
48.29850000000004
 21
-0.7199999999998923
 31
0.0
  0
LINE
  5
402
  8
DIMENSIONS
 10
44.952500000000043
 20
0.5315000000000723
 30
0.0
 11
44.952500000000043
 21
-0.7199999999998994
 31
0.0
  0
LINE
  5
403
  8
DIMENSIONS
 10
44.165000000000013
 20
0.5315000000000723
 30
0.0
 11
44.165000000000013
 21
-0.7199999999999065
 31
0.0
  0
LINE
  5
404
  8
DIMENSIONS
 10
41.29000000000002
 20
0.5315000000000723
 30
0.0
 11
41.29000000000002
 21
-0.7199999999999065
 31
0.0
  0
LINE
  5
405
  8
DIMENSIONS
 10
40.502499999999998
 20
0.5315000000000723
 30
0.0
 11
40.502499999999998
 21
-0.7199999999998994
 31
0.0
  0
LINE
  5
406
  8
DIMENSIONS
 10
36.783000000000023
 20
0.2175000000001077
 30
0.0
 11
36.783000000000023
 21
-0.0799999999998917
 31
0.0
  0
LINE
  5
407
  8
DIMENSIONS
 10
36.783000000000023
 20
-0.0799999999998917
 30
0.0
 11
36.391265771055153
 21
-0.3599999999999071
 31
0.0
  0
LINE
  5
408
  8
DIMENSIONS
 10
36.391265771055153
 20
-0.3599999999999071
 30
0.0
 11
36.391265771055153
 21
-0.7199999999999065
 31
0.0
  0
LINE
  5
409
  8
DIMENSIONS
 10
36.843000000000018
 20
0.2175000000001077
 30
0.0
 11
36.843000000000018
 21
-0.7199999999999065
 31
0.0
  0
LINE
  5
40A
  8
DIMENSIONS
 10
37.156500000000001
 20
0.5315000000000723
 30
0.0
 11
37.156500000000001
 21
-0.7199999999999065
 31
0.0
  0
LINE
  5
40B
  8
DIMENSIONS
 10
35.838000000000022
 20
0.5315000000000723
 30
0.0
 11
35.838000000000022
 21
-0.7199999999999065
 31
0.0
  0
LINE
  5
40C
  8
DIMENSIONS
 10
32.838000000000022
 20
5.5325000000000477
 30
0.0
 11
32.838000000000022
 21
-0.7199999999999065
 31
0.0
  0
LINE
  5
40D
  8
DIMENSIONS
 10
31.369000000000032
 20
0.5315000000000865
 30
0.0
 11
31.369000000000032
 21
-0.7199999999999065
 31
0.0
  0
LINE
  5
40E
  8
DIMENSIONS
 10
30.906000000000009
 20
0.2175000000001219
 30
0.0
 11
30.906000000000009
 21
-0.7199999999999065
 31
0.0
  0
LINE
  5
429
  8
DIMENSIONS
 10
48.336999999999989
 20
18.17650000000009
 30
0.0
 11
48.336999999999989
 21
20.630000000000081
 31
0.0
  0
LINE
  5
42A
  8
DIMENSIONS
 10
37.118000000000002
 20
18.17650000000009
 30
0.0
 11
37.118000000000002
 21
20.630000000000081
 31
0.0
  0
TEXT
  5
42B
  8
DIMENSIONS
 10
37.20799999999997
 20
20.720000000000081
 30
0.0
 40
0.18
  1
8.633
 50
90.0
  0
TEXT
  5
42C
  8
DIMENSIONS
 10
48.426999999999992
 20
20.720000000000081
 30
0.0
 40
0.18
  1
19.852
 50
90.0
  0
LINE
  5
42D
  8
DIMENSIONS
 10
28.48500000000001
 20
19.69250000000001
 30
0.0
 11
28.48500000000001
 21
20.692499999999999
 31
0.0
  0
LINE
  5
42E
  8
DIMENSIONS
 10
0.0
 20
19.692499999999988
 30
0.0
 11
0.0
 21
20.692499999999999
 31
0.0
  0
LINE
  5
42F
  8
DIMENSIONS
 10
28.30500000000001
 20
20.629999999999999
 30
0.0
 11
14.778214285714281
 21
20.629999999999999
 31
0.0
  0
LINE
  5
430
  8
DIMENSIONS
 10
0.1799999999999784
 20
20.629999999999999
 30
0.0
 11
13.706785714285701
 21
20.629999999999999
 31
0.0
  0
SOLID
  5
431
  8
DIMENSIONS
 10
28.30500000000001
 20
20.66
 30
0.0
 11
28.30500000000001
 21
20.600000000000001
 31
0.0
 12
28.48500000000001
 22
20.629999999999999
 32
0.0
 13
28.48500000000001
 23
20.629999999999999
 33
0.0
  0
SOLID
  5
432
  8
DIMENSIONS
 10
0.1799999999999784
 20
20.66
 30
0.0
 11
0.1799999999999784
 21
20.600000000000001
 31
0.0
 12
0.0
 22
20.629999999999999
 32
0.0
 13
0.0
 23
20.629999999999999
 33
0.0
  0
TEXT
  5
433
  8
DIMENSIONS
 10
13.796785714285701
 20
20.539999999999988
 30
0.0
 40
0.18
  1
28.485
  0
TEXT
  5
43A
  8
DIMENSIONS
 10
57.541428571428582
 20
9.8650000000001086
 30
0.0
 40
0.18
  1
19.350
  0
TEXT
  5
43B
  8
DIMENSIONS_BODY
 10
4.9419958997174538
 20
17.047153412915861
 30
0.0
 40
0.18
  1
3.000x12.854
  0
TEXT
  5
43D
  8
DIMENSIONS_BODY
 10
21.720995899717419
 20
17.047153412915861
 30
0.0
 40
0.18
  1
3.000x12.854
  0
TEXT
  5
43E
  8
DIMENSIONS_BODY
 10
33.42699589971744
 20
17.0471534129159
 30
0.0
 40
0.18
  1
3.000x12.854
  0
TEXT
  5
43F
  8
DIMENSIONS_BODY
 10
50.205995899717443
 20
17.0471534129159
 30
0.0
 40
0.18
  1
3.000x12.854
  0
TEXT
  5
440
  8
DIMENSIONS_BODY
 10
9.2121596528311613
 20
12.578705160922169
 30
0.0
 40
0.18
  1
3.993x2.461
  0
TEXT
  5
441
  8
DIMENSIONS_BODY
 10
17.69438999664359
 20
11.911339538386221
 30
0.0
 40
0.18
  1
3.993x7.534
  0
TEXT
  5
442
  8
DIMENSIONS_BODY
 10
13.42422624352983
 20
11.96937140750174
 30
0.0
 40
0.18
  1
3.593x7.534
  0
TEXT
  5
443
  8
DIMENSIONS_BODY
 10
13.22088453076921
 20
19.165314018754799
 30
0.0
 40
0.18
  1
10.452x1.181
  0
TEXT
  5
444
  8
DIMENSIONS_BODY
 10
13.42422624352983
 20
4.6227171506598452
 30
0.0
 40
0.18
  1
3.593x1.260
  0
TEXT
  5
445
  8
DIMENSIONS_BODY
 10
17.95582887181919
 20
4.6227171506598452
 30
0.0
 40
0.18
  1
3.393x1.260
  0
TEXT
  5
446
  8
DIMENSIONS_BODY
 10
21.81931060881854
 20
4.6227171506598452
 30
0.0
 40
0.18
  1
3.000x1.260
  0
TEXT
  5
447
  8
DIMENSIONS_BODY
 10
9.7059885870737901
 20
4.6227171506598452
 30
0.0
 40
0.18
  1
1.969x1.260
  0
TEXT
  5
448
  8
DIMENSIONS_BODY
 10
10.915387804385089
 20
7.0266905018115224
 30
0.0
 40
0.18
  1
1.883x4.350
 50
90.0
  0
TEXT
  5
449
  8
DIMENSIONS__BODY_PANELS
 10
4.9419958997174538
 20
16.62902503213596
 30
0.0
 40
0.18
  1
2.880x12.734
  0
TEXT
  5
44B
  8
DIMENSIONS__BODY_PANELS
 10
9.2121596528311613
 20
12.178705160922179
 30
0.0
 40
0.18
  1
3.873x2.341
  0
TEXT
  5
44C
  8
DIMENSIONS__BODY_PANELS
 10
13.42422624352983
 20
11.56937140750175
 30
0.0
 40
0.18
  1
3.473x7.414
  0
TEXT
  5
44D
  8
DIMENSIONS__BODY_PANELS
 10
17.69438999664359
 20
11.51133953838622
 30
0.0
 40
0.18
  1
3.873x7.414
  0
TEXT
  5
44E
  8
DIMENSIONS__BODY_PANELS
 10
21.81931060881854
 20
4.2227171506598458
 30
0.0
 40
0.18
  1
2.880x1.140
  0
TEXT
  5
44F
  8
DIMENSIONS__BODY_PANELS
 10
17.95582887181919
 20
4.2227171506598458
 30
0.0
 40
0.18
  1
3.273x1.140
  0
TEXT
  5
450
  8
DIMENSIONS__BODY_PANELS
 10
13.42422624352983
 20
4.2227171506598458
 30
0.0
 40
0.18
  1
3.473x1.140
  0
TEXT
  5
451
  8
DIMENSIONS__BODY_PANELS
 10
9.7059885870737901
 20
4.2227171506598458
 30
0.0
 40
0.18
  1
1.849x1.140
  0
TEXT
  5
452
  8
DIMENSIONS__BODY_PANELS
 10
21.745001029124442
 20
16.62902503213596
 30
0.0
 40
0.18
  1
2.880x12.734
  0
TEXT
  5
453
  8
DIMENSIONS__BODY_PANELS
 10
11.397953988111141
 20
7.0311275521637953
 30
0.0
 40
0.18
  1
1.763x4.230
 50
90.0
  0
TEXT
  5
454
  8
DIMENSIONS_BODY
 10
10.17513670938709
 20
2.0680532586336891
 30
0.0
 40
0.18
  1
3.993x2.875
  0
TEXT
  5
455
  8
DIMENSIONS__BODY_PANELS
 10
10.17513670938709
 20
1.66805325863369
 30
0.0
 40
0.18
  1
3.873x2.755
  0
TEXT
  5
456
  8
DIMENSIONS_BODY
 10
13.422801653293019
 20
2.0157345333381111
 30
0.0
 40
0.18
  1
2.875x2.875
  0
TEXT
  5
457
  8
DIMENSIONS__BODY_PANELS
 10
17.875823019890589
 20
1.2586404689652819
 30
0.0
 40
0.18
  1
1.616x2.755
 50
90.0
  0
TEXT
  5
458
  8
DIMENSIONS_BODY
 10
17.454882459036011
 20
1.2542034186130091
 30
0.0
 40
0.18
  1
1.736x2.875
 50
90.0
  0
TEXT
  5
459
  8
DIMENSIONS__BODY_PANELS
 10
19.53441924064051
 20
1.2817557766703509
 30
0.0
 40
0.18
  1
0.892x2.755
 50
90.0
  0
TEXT
  5
45A
  8
DIMENSIONS_BODY
 10
19.1675689212733
 20
1.2773187263180781
 30
0.0
 40
0.18
  1
1.012x2.875
 50
90.0
  0
TEXT
  5
45B
  8
DIMENSIONS__BODY_PANELS
 10
21.069585608134531
 20
1.2817557766703509
 30
0.0
 40
0.18
  1
0.894x2.875
 50
90.0
  0
TEXT
  5
45C
  8
DIMENSIONS_BODY
 10
20.702735288767311
 20
1.2773187263180781
 30
0.0
 40
0.18
  1
1.014x2.875
 50
90.0
  0
TEXT
  5
45D
  8
DIMENSIONS__BODY_PANELS
 10
0.0799303755021867
 20
7.820855666901493
 30
0.0
 40
0.18
  1
4.178x5.851
 50
90.0
  0
TEXT
  5
45E
  8
DIMENSIONS__BODY_PANELS
 10
29.300124582425351
 20
7.820855666901493
 30
0.0
 40
0.18
  1
4.178x5.851
 50
90.0
  0
TEXT
  5
45F
  8
DIMENSIONS_BODY
 10
4.6364931452171438
 20
1.3470612223876861
 30
0.0
 40
0.18
  1
4.359x4.571
  0
TEXT
  5
460
  8
DIMENSIONS__BODY_PANELS
 10
4.6364931452171438
 20
0.7897540412973996
 30
0.0
 40
0.18
  1
4.239x4.451
  0
TEXT
  5
461
  8
DIMENSIONS_BODY
 10
8.0934610428594453
 20
9.7459738117537782
 30
0.0
 40
0.18
  1
1.49x.375
  0
TEXT
  5
462
  8
DIMENSIONS__BODY_PANELS
 10
33.06649314521718
 20
0.7897540412974921
 30
0.0
 40
0.18
  1
4.349x4.451
  0
TEXT
  5
463
  8
DIMENSIONS_BODY
 10
33.06649314521718
 20
1.3470612223877789
 30
0.0
 40
0.18
  1
4.469x4.571
  0
TEXT
  5
464
  8
DIMENSIONS_BODY
 10
41.90780165329312
 20
2.0157345333381889
 30
0.0
 40
0.18
  1
2.875x2.875
  0
TEXT
  5
465
  8
DIMENSIONS__BODY_PANELS
 10
41.939978767884597
 20
11.646722676057291
 30
0.0
 40
0.18
  1
2.755x7.414
  0
TEXT
  5
466
  8
DIMENSIONS_BODY
 10
41.939978767884597
 20
12.04672267605728
 30
0.0
 40
0.18
  1
2.875x7.534
  0
TEXT
  5
467
  8
DIMENSIONS__BODY_PANELS
 10
38.041978767884558
 20
11.646722676057291
 30
0.0
 40
0.18
  1
3.226x7.414
  0
TEXT
  5
468
  8
DIMENSIONS_BODY
 10
38.041978767884558
 20
12.04672267605728
 30
0.0
 40
0.18
  1
3.346x7.534
  0
TEXT
  5
469
  8
DIMENSIONS__BODY_PANELS
 10
45.837978767884628
 20
11.646722676057291
 30
0.0
 40
0.18
  1
3.226x7.414
  0
TEXT
  5
46A
  8
DIMENSIONS_BODY
 10
45.837978767884628
 20
12.04672267605728
 30
0.0
 40
0.18
  1
3.346x7.534
  0
TEXT
  5
46B
  8
DIMENSIONS__BODY_PANELS
 10
41.939978767884547
 20
16.555722676057261
 30
0.0
 40
0.18
  1
11.099x4.252
  0
TEXT
  5
46C
  8
DIMENSIONS_BODY
 10
41.939978767884547
 20
16.95572267605726
 30
0.0
 40
0.18
  1
11.219x4.372
  0
TEXT
  5
46D
  8
DIMENSIONS__BODY_PANELS
 10
33.42699589971744
 20
16.647153412915898
 30
0.0
 40
0.18
  1
2.880x12.734
  0
TEXT
  5
46E
  8
DIMENSIONS__BODY_PANELS
 10
50.205995899717443
 20
16.647153412915898
 30
0.0
 40
0.18
  1
2.880x12.734
  0
TEXT
  5
46F
  8
DIMENSIONS__BODY_PANELS
 10
41.939978767884597
 20
4.2597867286818811
 30
0.0
 40
0.18
  1
2.755x1.140
  0
TEXT
  5
470
  8
DIMENSIONS_BODY
 10
41.939978767884597
 20
4.6597867286818788
 30
0.0
 40
0.18
  1
2.875x1.260
  0
TEXT
  5
471
  8
DIMENSIONS_BODY
 10
38.027223517729063
 20
4.6597867286818788
 30
0.0
 40
0.18
  1
3.346x1.260
  0
TEXT
  5
472
  8
DIMENSIONS__BODY_PANELS
 10
38.027223517729063
 20
4.2597867286818811
 30
0.0
 40
0.18
  1
3.226x1.140
  0
TEXT
  5
473
  8
DIMENSIONS__BODY_PANELS
 10
45.836362899794537
 20
4.2597867286818811
 30
0.0
 40
0.18
  1
3.226x1.140
  0
TEXT
  5
474
  8
DIMENSIONS_BODY
 10
45.836362899794537
 20
4.6597867286818788
 30
0.0
 40
0.18
  1
3.346x1.260
  0
TEXT
  5
475
  8
DIMENSIONS__BODY_PANELS
 10
50.305744520782298
 20
4.2597867286818811
 30
0.0
 40
0.18
  1
2.880x1.140
  0
TEXT
  5
476
  8
DIMENSIONS_BODY
 10
50.305744520782298
 20
4.6597867286818788
 30
0.0
 40
0.18
  1
3.000x1.260
  0
TEXT
  5
477
  8
DIMENSIONS__BODY_PANELS
 10
37.486968729058049
 20
1.7579848663245841
 30
0.0
 40
0.18
  1
3.226x 2.755
  0
TEXT
  5
478
  8
DIMENSIONS_BODY
 10
37.486968729058049
 20
2.1579848663245822
 30
0.0
 40
0.18
  1
3.346x 2.875
  0
TEXT
  5
479
  8
DIMENSIONS__BODY_PANELS
 10
46.032819102235642
 20
1.7579848663245841
 30
0.0
 40
0.18
  1
3.226x 2.755
  0
TEXT
  5
47A
  8
DIMENSIONS_BODY
 10
46.032819102235642
 20
2.1579848663245822
 30
0.0
 40
0.18
  1
3.346x 2.875
  0
TEXT
  5
47C
  8
DIMENSIONS_BODY
 10
55.25242845890957
 20
9.1198235799166252
 30
0.0
 40
0.18
  1
2.149x5.971
  0
TEXT
  5
47E
  8
DIMENSIONS_BODY
 10
55.044483386187181
 20
2.2439333355653011
 30
0.0
 40
0.18
  1
2.421x3.937
  0
TEXT
  5
47F
  8
DIMENSIONS_BODY
 10
41.939978767884547
 20
21.024796795856791
 30
0.0
 40
0.18
  1
11.889x18.169 DOOR OPENING
  0
TEXT
  5
480
  8
DIMENSIONS_BODY
 10
41.939978767884547
 20
20.624796795856781
 30
0.0
 40
0.18
  1
11.769x18.109 DOOR PANEL
  0
ARC
  5
481
  8
DIMENSIONS_BODY
 10
42.041098219139002
 20
20.191391256768839
 30
0.0
 40
0.9148355154895995
 50
101.18197235273161
 51
231.9545029181198
  0
ARC
  5
482
  8
DIMENSIONS_BODY
 10
40.776408735213032
 20
18.488512222533071
 30
0.0
 40
1.206816354225829
 50
358.12375077210379
 51
54.494960872708468
  0
TEXT
  5
483
  8
DIMENSIONS_BODY
 10
50.224535164010213
 20
2.158846444127775
 30
0.0
 40
0.18
  1
2.937x2.937
  0
TEXT
  5
484
  8
DIMENSIONS_BODY
 10
50.224535164010213
 20
1.758846444127776
 30
0.0
 40
0.18
  1
w/0.750x45%%D
  0
TEXT
  5
485
  8
DIMENSIONS_BODY
 10
22.369931297993361
 20
1.751686508555707
 30
0.0
 40
0.18
  1
w/0.750x45%%D
  0
TEXT
  5
486
  8
DIMENSIONS_BODY
 10
22.369931297993361
 20
2.1516865085557049
 30
0.0
 40
0.18
  1
2.937x2.937
  0
TEXT
  5
487
  8
DIMENSIONS_BODY
 10
0.2892019327188109
 20
2.2439333355652091
 30
0.0
 40
0.18
  1
2.421x3.937
  0
TEXT
  5
489
  8
DIMENSIONS_BODY
 10
27.157373137217778
 20
7.8255808599198744
 30
0.0
 40
0.18
  1
4.298x5.971
 50
90.0
  0
TEXT
  5
48A
  8
DIMENSIONS_BODY
 10
1.512373137217792
 20
7.8255808599198744
 30
0.0
 40
0.18
  1
2.149x5.971
 50
90.0
  0
TEXT
  5
48B
  8
DIMENSIONS__BODY_PANELS
 10
13.42422624352983
 20
8.1241670455024302
 30
0.0
 40
0.18
  1
3.071x3.375
  0
TEXT
  5
48C
  8
DIMENSIONS__BODY_PANELS
 10
13.601116804779419
 20
7.7884805273780406
 30
0.0
 40
0.18
  1
w/R1.188
  0
LINE
  5
494
  8
DIMENSIONS
 10
57.032500000000027
 20
19.630000000000081
 30
0.0
 11
58.03250000000002
 21
19.630000000000081
 31
0.0
  0
LINE
  5
495
  8
DIMENSIONS
 10
54.611500000000028
 20
0.2800000000001219
 30
0.0
 11
58.03250000000002
 21
0.2800000000001219
 31
0.0
  0
LINE
  5
496
  8
DIMENSIONS
 10
57.970000000000027
 20
19.450000000000092
 30
0.0
 11
57.970000000000027
 21
10.135000000000099
 31
0.0
  0
LINE
  5
497
  8
DIMENSIONS
 10
57.970000000000027
 20
0.4600000000001217
 30
0.0
 11
57.970000000000027
 21
9.7750000000001052
 31
0.0
  0
SOLID
  5
498
  8
DIMENSIONS
 10
58.000000000000028
 20
19.450000000000092
 30
0.0
 11
57.940000000000033
 21
19.450000000000092
 31
0.0
 12
57.970000000000027
 22
19.630000000000081
 32
0.0
 13
57.970000000000027
 23
19.630000000000081
 33
0.0
  0
SOLID
  5
499
  8
DIMENSIONS
 10
58.000000000000057
 20
0.4600000000001217
 30
0.0
 11
57.940000000000047
 21
0.4600000000001217
 31
0.0
 12
57.970000000000027
 22
0.2800000000001219
 32
0.0
 13
57.970000000000027
 23
0.2800000000001219
 33
0.0
  0
LINE
  5
4A9
  8
DIMENSIONS
 10
0.0
 20
19.692499999999988
 30
0.0
 11
0.0
 21
21.869749804504352
 31
0.0
  0
LINE
  5
4AA
  8
DIMENSIONS
 10
56.97000000000002
 20
19.692500000000049
 30
0.0
 11
56.97000000000002
 21
21.869749804504352
 31
0.0
  0
LINE
  5
4AB
  8
DIMENSIONS
 10
0.1799999999999784
 20
21.807249804504352
 30
0.0
 11
27.949285714285711
 21
21.807249804504352
 31
0.0
  0
LINE
  5
4AC
  8
DIMENSIONS
 10
56.79000000000002
 20
21.807249804504352
 30
0.0
 11
29.020714285714291
 21
21.807249804504352
 31
0.0
  0
SOLID
  5
4AD
  8
DIMENSIONS
 10
0.1799999999999784
 20
21.837249804504349
 30
0.0
 11
0.1799999999999784
 21
21.777249804504351
 31
0.0
 12
0.0
 22
21.807249804504352
 32
0.0
 13
0.0
 23
21.807249804504352
 33
0.0
  0
SOLID
  5
4AE
  8
DIMENSIONS
 10
56.79000000000002
 20
21.837249804504349
 30
0.0
 11
56.79000000000002
 21
21.777249804504351
 31
0.0
 12
56.97000000000002
 22
21.807249804504352
 32
0.0
 13
56.97000000000002
 23
21.807249804504352
 33
0.0
  0
TEXT
  5
4B0
  8
DIMENSIONS
 10
28.039285714285711
 20
21.717249804504348
 30
0.0
 40
0.18
  1
56.970
  0
TEXT
  5
84D
  8
0
  6
CONTINUOUS
 10
136.81770450533821
 20
44.18560045766769
 30
0.0
 40
0.12
  1
 
 51
7.0
  0
TEXT
  5
84E
  8
0
  6
CONTINUOUS
 10
149.2618012708181
 20
51.24847488739934
 30
0.0
 40
0.24
  1
 
 51
7.0
  0
TEXT
  5
84F
  8
0
  6
CONTINUOUS
 10
158.4715662827314
 20
50.92846490082227
 30
0.0
 40
0.24
  1
 
 51
7.0
  0
TEXT
  5
850
  8
0
  6
CONTINUOUS
 10
168.27552576716411
 20
34.065884101294941
 30
0.0
 40
0.24
  1
 
 51
7.0
  0
LINE
  5
904
  8
0
 10
-5.673871828015705
 20
-14.270515863301281
 30
0.0
 11
-5.673871828015705
 21
29.729484136698719
 31
0.0
  0
LINE
  5
905
  8
0
 10
62.326128171984287
 20
-14.270515863301281
 30
0.0
 11
62.326128171984287
 21
29.729484136698719
 31
0.0
  0
LINE
  5
906
  8
0
 10
-5.673871828015705
 20
-14.270515863301281
 30
0.0
 11
62.326128171984287
 21
-14.270515863301281
 31
0.0
  0
LINE
  5
907
  8
0
 10
-5.673871828015705
 20
29.729484136698719
 30
0.0
 11
62.326128171984287
 21
29.729484136698719
 31
0.0
  0
LINE
  5
910
  8
FORM
 10
60.738216040957688
 20
-12.199087292916429
 30
0.0
 11
60.738216062876177
 21
25.158055566313891
 31
0.0
  0
LINE
  5
911
  8
FORM
 10
60.254699579680903
 20
25.641572049509211
 30
0.0
 11
-3.6024432357122569
 21
25.641572049509211
 31
0.0
  0
LINE
  5
912
  8
FORM
 10
60.254699557762422
 20
-12.68260377611173
 30
0.0
 11
-3.602443257630739
 21
-12.68260377611176
 31
0.0
  0
LINE
  5
913
  8
FORM
 10
-4.0859597408261257
 20
-12.199087292916429
 30
0.0
 11
-4.0859597189076453
 21
25.158055566313891
 31
0.0
  0
TEXT
  5
914
  8
FORM
 10
50.498559589268368
 20
-6.1632094083382318
 30
0.0
 40
0.818767169785845
  1
FLAT LAYOUT
 72
     1
 11
54.611889894621072
 21
-6.1632094083382318
 31
0.0
  0
TEXT
  5
915
  8
FORM
 10
53.052333380743271
 20
-7.8955242117640116
 30
0.0
 40
0.818767169785845
  1
BODY
 72
     1
 11
54.611889894621072
 21
-7.8955242117640116
 31
0.0
  0
TEXT
  5
916
  8
FORM
 10
46.150534215514597
 20
-11.04326268221417
 30
0.0
 40
0.818767169785845
  1
ASTROMECH DROID
  0
TEXT
  5
917
  8
FORM
 10
59.020186509347411
 20
-11.011432031042229
 30
0.0
 40
0.818767169785845
  1
A
  0
TEXT
  5
918
  8
FORM
 10
47.69728895119357
 20
-11.99897713358248
 30
0.0
 40
0.327506867914338
  1
FULL
  0
TEXT
  5
919
  8
FORM
 10
58.190724168814143
 20
-11.98981003228603
 30
0.0
 40
0.327506867914338
  1
1   1
  0
TEXT
  5
91A
  8
FORM
 10
52.766444850712908
 20
-11.96451039156122
 30
0.0
 40
0.327506867914338
  1
APRIL 2005
 72
     2
 11
55.60483770597051
 21
-11.96451039156122
 31
0.0
  0
TEXT
  5
91B
  8
FORM
  6
CONTINUOUS
 10
50.413873043223077
 20
-11.96780545699951
 30
0.0
 40
0.282965933877988
  1
DRAWN:
  0
TEXT
  5
91C
  8
FORM
  6
CONTINUOUS
 10
46.033851419278513
 20
-11.967540103239269
 30
0.0
 40
0.282965933877988
  1
SCALE:
  0
TEXT
  5
91D
  8
FORM
  6
CONTINUOUS
 10
56.382563744849001
 20
-11.971086167580459
 30
0.0
 40
0.282965933877988
  1
SHEET:   OF
  0
TEXT
  5
91E
  8
FORM
  6
CONTINUOUS
 10
45.517119279649762
 20
-9.7231353714840054
 30
0.0
 40
0.282965933877988
  1
DRAWING NO.
  0
TEXT
  5
91F
  8
FORM
  6
CONTINUOUS
 10
58.910536851011152
 20
-9.7231353714840481
 30
0.0
 40
0.282965933877988
  1
REV.
 72
     1
 11
59.328248467688177
 21
-9.7231353714840481
 31
0.0
  0
LINE
  5
920
  8
FORM
  6
CONTINUOUS
 10
45.964919896924073
 20
-3.993075210454776
 30
0.0
 11
59.547284723067442
 21
-3.993075210454776
 31
0.0
  0
LINE
  5
921
  8
FORM
  6
CONTINUOUS
 10
45.257505062229079
 20
-11.491672458221471
 30
0.0
 11
45.257505062229029
 21
-4.7004900451497633
 31
0.0
  0
LINE
  5
922
  8
FORM
  6
CONTINUOUS
 10
45.257505062229079
 20
-9.2986864706670644
 30
0.0
 11
60.254699557762422
 21
-9.2986864706670644
 31
0.0
  0
LINE
  5
923
  8
FORM
  6
CONTINUOUS
 10
45.257505062229079
 20
-11.491672458221471
 30
0.0
 11
60.254699557762422
 21
-11.491672458221471
 31
0.0
  0
LINE
  5
924
  8
FORM
  6
CONTINUOUS
 10
49.971404209112791
 20
-11.491672458221471
 30
0.0
 11
49.971404209112791
 21
-12.199087292916429
 31
0.0
  0
LINE
  5
925
  8
FORM
  6
CONTINUOUS
 10
56.170339294440453
 20
-11.50038089958011
 30
0.0
 11
56.170339294440453
 21
-12.207795734275059
 31
0.0
  0
LINE
  5
926
  8
FORM
  6
CONTINUOUS
 10
58.385477884026443
 20
-9.2986864706670644
 30
0.0
 11
58.385477884026443
 21
-11.491672458221471
 31
0.0
  0
ARC
  5
927
  8
FORM
 62
     5
 10
46.66374023200472
 20
-6.1235570361576768
 30
0.0
 40
0.0771514191924642
 50
152.18113099770559
 51
330.9909881499326
  0
ARC
  5
928
  8
FORM
 62
     5
 10
46.997699142546651
 20
-5.4804256067961603
 30
0.0
 40
0.0676495356889315
 50
335.32315363464221
 51
152.67224926330371
  0
ARC
  5
929
  8
FORM
 62
     5
 10
52.150505596264964
 20
-8.6544963701619082
 30
0.0
 40
6.119414155820321
 50
148.41494327216171
 51
155.1985231324322
  0
ARC
  5
92A
  8
FORM
 62
     5
 10
53.334964861124661
 20
-9.0725479218062617
 30
0.0
 40
7.2171201387314028
 50
150.4087571020633
 51
156.2074475795113
  0
ARC
  5
92B
  8
FORM
 62
     7
 10
46.44557519655239
 20
-6.771712612430945
 30
0.0
 40
0.1030908568650854
 50
161.12872523797091
 51
346.89295927401378
  0
ARC
  5
92C
  8
FORM
 62
     7
 10
76.588070171371726
 20
-19.791161527508951
 30
0.0
 40
32.732629288835433
 50
153.58307292081321
 51
156.606911389662
  0
ARC
  5
92D
  8
FORM
 62
     7
 10
71.86053488520065
 20
-18.090437118019882
 30
0.0
 40
27.888605117073269
 50
152.34095999775931
 51
152.96941161274651
  0
ARC
  5
92E
  8
FORM
 62
     7
 10
72.173155508046932
 20
-18.998820304405012
 30
0.0
 40
28.58768974499641
 50
153.37112835275741
 51
154.60402195655351
  0
ARC
  5
92F
  8
FORM
 62
     7
 10
47.932808006408152
 20
-5.5668249286824221
 30
0.0
 40
0.7411982444756121
 50
23.46872592819097
 51
88.151617587882953
  0
ARC
  5
930
  8
FORM
 62
     7
 10
47.949373258707567
 20
-5.5190400868763732
 30
0.0
 40
0.8748210355668392
 50
18.23262529566556
 51
154.63608874642691
  0
ARC
  5
931
  8
FORM
 62
     7
 10
48.211479348527
 20
-5.4278558876253271
 30
0.0
 40
0.5973626102415068
 50
336.99722732837893
 51
341.11190659806499
  0
ARC
  5
932
  8
FORM
 62
     7
 10
48.247008589055717
 20
-5.401437375667399
 30
0.0
 40
0.3912539554073429
 50
333.24704424527528
 51
339.12675173356172
  0
ARC
  5
933
  8
FORM
 62
     7
 10
48.617079277421162
 20
-5.5861847363877644
 30
0.0
 40
0.0224239591196723
 50
157.3747590211585
 51
243.1831734142406
  0
ARC
  5
934
  8
FORM
 62
     7
 10
48.749524073018613
 20
-5.6578010504179579
 30
0.0
 40
0.0123235541018709
 50
246.7423667985764
 51
343.55073793579641
  0
ARC
  5
935
  8
FORM
 62
     7
 10
49.137313958531308
 20
-4.6277974966738213
 30
0.0
 40
1.112896192779387
 50
241.5396617947477
 51
249.33988332022531
  0
ARC
  5
936
  8
FORM
 62
     7
 10
48.35935259422132
 20
-5.808000661362243
 30
0.0
 40
0.2196955295237861
 50
210.28645373052609
 51
287.25915125833183
  0
ARC
  5
937
  8
FORM
 62
     7
 10
48.378229348125778
 20
-5.9030048687820624
 30
0.0
 40
0.123786185143917
 50
291.9673023282902
 51
10.201088362233779
  0
ARC
  5
938
  8
FORM
 62
     7
 10
47.399923577453421
 20
-6.1147267149995201
 30
0.0
 40
0.7942636775164282
 50
14.28109924276106
 51
24.947261539878319
  0
ARC
  5
939
  8
FORM
 62
     7
 10
47.863185325926388
 20
-5.8741515954382626
 30
0.0
 40
0.2737008613523453
 50
20.18306378886744
 51
47.833846572520187
  0
ARC
  5
93A
  8
FORM
 62
     7
 10
47.914352651336742
 20
-6.012787031694244
 30
0.0
 40
0.3663294322877009
 50
68.784960310906996
 51
94.742087985452173
  0
ARC
  5
93B
  8
FORM
 62
     7
 10
47.910366867554274
 20
-5.796291140615593
 30
0.0
 40
0.1508890977564403
 50
100.0375073429587
 51
170.98475346238999
  0
ARC
  5
93C
  8
FORM
 62
     7
 10
48.6200935232132
 20
-5.900591727582821
 30
0.0
 40
0.8682306147681597
 50
171.52589863719899
 51
197.49474109667489
  0
ARC
  5
93D
  8
FORM
 62
     7
 10
48.035234585894777
 20
-5.8883080802757197
 30
0.0
 40
0.4648803312949632
 50
0.8906501289531794
 51
49.113860192417441
  0
ARC
  5
93E
  8
FORM
 62
     7
 10
47.937299772405417
 20
-5.8030394877768003
 30
0.0
 40
0.365892574814731
 50
99.869748807366733
 51
175.59516845025641
  0
ARC
  5
93F
  8
FORM
 62
     7
 10
48.003274507427591
 20
-6.0014389583157586
 30
0.0
 40
0.5735023392024642
 50
54.104282451027821
 51
102.9674010870567
  0
ARC
  5
940
  8
FORM
 62
     7
 10
49.621865389778073
 20
-5.6602172412039371
 30
0.0
 40
1.897288699997687
 50
195.32307896217739
 51
209.290843156958
  0
ARC
  5
941
  8
FORM
 62
     7
 10
49.024888642701001
 20
-5.9713022834978773
 30
0.0
 40
1.4656148214588249
 50
172.3003020759547
 51
200.12627387409319
  0
ARC
  5
942
  8
FORM
 62
     7
 10
50.072774872297657
 20
-5.56224653306242
 30
0.0
 40
2.5903723187170171
 50
200.64629086238159
 51
210.04649609044409
  0
ARC
  5
943
  8
FORM
 62
     7
 10
46.5044162622209
 20
-7.5700893745567148
 30
0.0
 40
1.761590274763104
 50
28.431949107384149
 51
33.865461133002611
  0
ARC
  5
944
  8
FORM
 62
     7
 10
47.951301718788443
 20
-6.8115100019110741
 30
0.0
 40
0.1298953559893184
 50
201.5644604264042
 51
38.094090168146558
  0
ARC
  5
945
  8
FORM
 62
     5
 10
49.092805706324782
 20
-5.7323482993929806
 30
0.0
 40
0.0722551689172873
 50
227.62026965936079
 51
57.412112921203793
  0
ARC
  5
946
  8
FORM
 62
     5
 10
48.240660819371151
 20
-6.8439888062632539
 30
0.0
 40
1.472682412211493
 50
52.766851639305592
 51
65.063571515458193
  0
ARC
  5
947
  8
FORM
 62
     5
 10
47.555150424917372
 20
-7.9068451241689948
 30
0.0
 40
2.591551498592759
 50
54.932512589538533
 51
74.152868438598887
  0
ARC
  5
948
  8
FORM
 62
     5
 10
47.592516035774047
 20
-8.6772819688343645
 30
0.0
 40
3.3316223132964979
 50
78.393012355262755
 51
89.647961077025343
  0
ARC
  5
949
  8
FORM
 62
     5
 10
47.607387240404471
 20
-5.2490246239508727
 30
0.0
 40
0.0968598764566585
 50
183.99799442116571
 51
273.3138077458816
  0
ARC
  5
94A
  8
FORM
 62
     5
 10
47.93429223901154
 20
-5.2234365967225349
 30
0.0
 40
0.4247621811873005
 50
145.608591669193
 51
184.36670732083459
  0
ARC
  5
94B
  8
FORM
 62
     5
 10
47.672949361178041
 20
-5.0398988248128802
 30
0.0
 40
0.1055022386398662
 50
75.244714174010056
 51
147.692985011616
  0
ARC
  5
94C
  8
FORM
 62
     5
 10
46.415336859001002
 20
-9.8662627686052815
 30
0.0
 40
5.0930241255697579
 50
61.6372422415252
 51
75.392005557716686
  0
ARC
  5
94D
  8
FORM
 62
     5
 10
48.738554119273481
 20
-5.4702787374073969
 30
0.0
 40
0.1288375760554181
 50
342.69825742684031
 51
41.67278378767756
  0
ARC
  5
94E
  8
FORM
 62
     7
 10
48.211479348527
 20
-5.4278558876253271
 30
0.0
 40
0.5973626102415068
 50
5.6380312699922861
 51
17.791456368736871
  0
ARC
  5
94F
  8
FORM
 62
     7
 10
48.483323752335878
 20
-8.2428185097865292
 30
0.0
 40
0.1911510346570602
 50
88.432533024773406
 51
186.62631613112151
  0
ARC
  5
950
  8
FORM
 62
     7
 10
48.513324410018811
 20
-8.2029617796787448
 30
0.0
 40
0.2284256957285577
 50
195.72663051282731
 51
285.3806868435185
  0
ARC
  5
951
  8
FORM
 62
     7
 10
48.243948270084672
 20
-6.1814799887272889
 30
0.0
 40
2.2658799518275781
 50
278.37329371359471
 51
293.15208507016911
  0
ARC
  5
952
  8
FORM
 62
     7
 10
49.004151307474963
 20
-7.6076354995111179
 30
0.0
 40
0.4673284540570331
 50
257.51805604168283
 51
277.23103351305713
  0
ARC
  5
953
  8
FORM
 62
     7
 10
49.03035308336672
 20
-7.9915514151688853
 30
0.0
 40
0.0861135645514417
 50
292.26031345923383
 51
12.86737930052386
  0
ARC
  5
954
  8
FORM
 62
     7
 10
48.966323562638593
 20
-8.003897101924565
 30
0.0
 40
0.151300846597343
 50
12.025375527395409
 51
52.143631645158997
  0
ARC
  5
955
  8
FORM
 62
     7
 10
52.192427727910342
 20
-4.083469845418576
 30
0.0
 40
4.9259140486658151
 50
219.60277928185971
 51
230.50020204080539
  0
ARC
  5
956
  8
FORM
 62
     7
 10
49.151598730708827
 20
-6.6331142991816128
 30
0.0
 40
0.9580633112129898
 50
175.9752311543505
 51
218.04500009534141
  0
ARC
  5
957
  8
FORM
 62
     7
 10
48.745521258366971
 20
-6.5369076294270911
 30
0.0
 40
0.5503856226042344
 50
149.96078860476399
 51
183.01641230856211
  0
ARC
  5
958
  8
FORM
 62
     7
 10
48.361034770927397
 20
-6.310500124113914
 30
0.0
 40
0.1042639269391443
 50
69.764209445538711
 51
151.8988190455114
  0
ARC
  5
959
  8
FORM
 62
     7
 10
48.348733797230061
 20
-6.3175871134066881
 30
0.0
 40
0.1155264074768683
 50
357.6694469744499
 51
65.251102439515392
  0
ARC
  5
95A
  8
FORM
 62
     7
 10
48.076527855323718
 20
-6.3399260353278493
 30
0.0
 40
0.3880380012909595
 50
345.36193237678458
 51
2.6056939300728841
  0
ARC
  5
95B
  8
FORM
 62
     7
 10
49.320034404486762
 20
-6.7063895151286337
 30
0.0
 40
0.9086109956404614
 50
162.81861830880709
 51
185.3549666415731
  0
ARC
  5
95C
  8
FORM
 62
     7
 10
49.218738836446683
 20
-6.6152418084069771
 30
0.0
 40
0.8223913657117925
 50
192.3534994193023
 51
222.3020476696033
  0
ARC
  5
95D
  8
FORM
 62
     7
 10
52.051843661063913
 20
-4.331273526553133
 30
0.0
 40
4.4602839442001772
 50
219.50633019139829
 51
228.42762303996261
  0
ARC
  5
95E
  8
FORM
 62
     7
 10
48.610885598629061
 20
-8.323939853668719
 30
0.0
 40
0.8134823372280761
 50
32.971129457978869
 51
53.728419363024251
  0
ARC
  5
95F
  8
FORM
 62
     7
 10
49.052001892247681
 20
-8.0060778851932355
 30
0.0
 40
0.2717300614108477
 50
287.74749415951351
 51
27.352111896629602
  0
ARC
  5
960
  8
FORM
 62
     7
 10
48.645459605322287
 20
-9.7731555133977963
 30
0.0
 40
1.7285527594561461
 50
81.426570944509805
 51
95.208118001959363
  0
ARC
  5
961
  8
FORM
 62
     7
 10
47.899318150728902
 20
-7.0786426516658594
 30
0.0
 40
0.0769525284287425
 50
325.52447187114308
 51
75.340502228459755
  0
ARC
  5
962
  8
FORM
 62
     7
 10
47.804506843480958
 20
-7.0090306726793008
 30
0.0
 40
0.194551612991733
 50
277.78730616127859
 51
324.42957968808531
  0
ARC
  5
963
  8
FORM
 62
     7
 10
47.770100096157471
 20
-6.9766756082949684
 30
0.0
 40
0.2331702256248759
 50
243.4858187420015
 51
285.1065744639302
  0
ARC
  5
964
  8
FORM
 62
     7
 10
37.456947685906762
 20
-33.329998576493473
 30
0.0
 40
28.328397929685782
 50
68.327181839257449
 51
70.606105230637212
  0
ARC
  5
965
  8
FORM
 62
     7
 10
46.843689063358447
 20
-6.6919828957855136
 30
0.0
 40
0.0853509474269032
 50
76.445232091871915
 51
134.36352227876441
  0
ARC
  5
966
  8
FORM
 62
     7
 10
47.223161347905432
 20
-7.275827127134618
 30
0.0
 40
0.7801932754080996
 50
124.2547762008319
 51
135.0129319624364
  0
ARC
  5
967
  8
FORM
 62
     7
 10
46.686004028269899
 20
-6.7490889343328027
 30
0.0
 40
0.0288172461190549
 50
120.5491196217088
 51
251.48388650457531
  0
ARC
  5
968
  8
FORM
 62
     7
 10
42.808235347557847
 20
-17.53553063406245
 30
0.0
 40
11.433493777918439
 50
64.857428943178178
 51
67.515132469299616
  0
ARC
  5
969
  8
FORM
 62
     7
 10
47.63925082415733
 20
-7.3534455329676263
 30
0.0
 40
0.1079484692724341
 50
329.18566117941782
 51
69.527151249863394
  0
ARC
  5
96A
  8
FORM
 62
     7
 10
47.356055828237743
 20
-7.781184713139992
 30
0.0
 40
0.6186377569189299
 50
58.747973844557492
 51
81.106226592028094
  0
ARC
  5
96B
  8
FORM
 62
     7
 10
47.290247453580427
 20
-8.1912907136827044
 30
0.0
 40
1.0339883512605399
 50
81.016817915507374
 51
97.679603827268267
  0
ARC
  5
96C
  8
FORM
 62
     7
 10
47.399073772787972
 20
-7.8805731302294362
 30
0.0
 40
0.7669823852306594
 50
121.5050128230593
 51
139.0957881060701
  0
ARC
  5
96D
  8
FORM
 62
     7
 10
47.607293218534949
 20
-7.3699106145489131
 30
0.0
 40
0.1305751021873748
 50
277.70569210516868
 51
342.69880024124109
  0
ARC
  5
96E
  8
FORM
 62
     7
 10
47.567218507941377
 20
-7.2225764142189908
 30
0.0
 40
0.2826577120156703
 50
250.08394506358289
 51
281.75453717228322
  0
ARC
  5
96F
  8
FORM
 62
     7
 10
47.659568426541973
 20
-7.1901244561054511
 30
0.0
 40
0.3528587603317831
 50
221.18187885427261
 51
237.6837877598532
  0
ARC
  5
970
  8
FORM
 62
     7
 10
47.24572971545728
 20
-7.5991890690544182
 30
0.0
 40
0.2306841190873098
 50
50.003848755011752
 51
75.541683009840284
  0
ARC
  5
971
  8
FORM
 62
     7
 10
47.23352826237231
 20
-7.515575077106277
 30
0.0
 40
0.1562234256794286
 50
63.462660349847148
 51
100.74200229027051
  0
ARC
  5
972
  8
FORM
 62
     7
 10
47.204410262741533
 20
-7.626429115884747
 30
0.0
 40
0.2643398714423545
 50
89.999999999999204
 51
125.597461548903
  0
ARC
  5
973
  8
FORM
 62
     7
 10
50.340113867612729
 20
-5.7400572128603349
 30
0.0
 40
3.657578088371412
 50
197.51922498184919
 51
203.98148144473089
  0
ARC
  5
974
  8
FORM
 62
     7
 10
46.07092991140911
 20
-6.907498001382919
 30
0.0
 40
1.1117508566166261
 50
346.52409876011302
 51
356.71498770316703
  0
ARC
  5
975
  8
FORM
 62
     7
 10
42.808235347557847
 20
-17.53553063406245
 30
0.0
 40
11.433493777918439
 50
69.286600818944095
 51
70.223117600767665
  0
ARC
  5
976
  8
FORM
 62
     7
 10
46.670947092467479
 20
-7.8751771496340552
 30
0.0
 40
0.3352600217600381
 50
245.40259669902059
 51
275.40975098180542
  0
ARC
  5
977
  8
FORM
 62
     7
 10
47.846515066946097
 20
-8.4801288442490801
 30
0.0
 40
1.3325046370178399
 50
126.68044463040211
 51
139.78708822539869
  0
ARC
  5
978
  8
FORM
 62
     7
 10
46.66467541927841
 20
-6.9321270022349921
 30
0.0
 40
1.2773786555491351
 50
271.69929119420158
 51
283.3954084205688
  0
ARC
  5
979
  8
FORM
 62
     7
 10
49.053243075094883
 20
-9.8800433961436909
 30
0.0
 40
3.1711328180577252
 50
134.5410403491785
 51
138.91474429089899
  0
ARC
  5
97A
  8
FORM
 62
     7
 10
46.717237224844318
 20
-7.8411151099946181
 30
0.0
 40
0.083891748057509
 50
201.8252958964797
 51
267.16449786715492
  0
ARC
  5
97B
  8
FORM
 62
     7
 10
46.699177273043681
 20
-7.8490741116636817
 30
0.0
 40
0.0641708640242986
 50
124.254854327418
 51
201.22329273937871
  0
ARC
  5
97C
  8
FORM
 62
     7
 10
46.894571741806033
 20
-7.9012840050866506
 30
0.0
 40
0.2813294210123032
 50
283.575177031279
 51
324.58969283639942
  0
ARC
  5
97D
  8
FORM
 62
     7
 10
47.055019595025719
 20
-8.0352728734080472
 30
0.0
 40
0.0747093533223839
 50
337.14160324238759
 51
47.564966708928033
  0
ARC
  5
97E
  8
FORM
 62
     7
 10
46.940026806144942
 20
-8.1995577691403128
 30
0.0
 40
0.2747816207202772
 50
52.990730681111742
 51
91.748895977531376
  0
ARC
  5
97F
  8
FORM
 62
     7
 10
46.822363944793153
 20
-7.1789351290716601
 30
0.0
 40
0.7539304877822591
 50
261.66603807207321
 51
278.33396192792679
  0
ARC
  5
980
  8
FORM
 62
     7
 10
46.596016226891663
 20
-8.0182750723309084
 30
0.0
 40
0.1741692160950157
 50
192.64550774538381
 51
248.22239672568659
  0
ARC
  5
981
  8
FORM
 62
     7
 10
46.553210336035079
 20
-7.9985439519145407
 30
0.0
 40
0.1396852931356725
 50
178.88427582775461
 51
204.46998391858139
  0
ARC
  5
982
  8
FORM
 62
     7
 10
46.898755242148241
 20
-8.0338456096169466
 30
0.0
 40
0.4866911615937786
 50
140.5469001514941
 51
175.5193383191162
  0
ARC
  5
983
  8
FORM
 62
     7
 10
51.692498171124903
 20
-11.850562388970561
 30
0.0
 40
6.6142172078229233
 50
137.45643980933031
 51
141.40545593619061
  0
POLYLINE
  5
984
  8
FORM
 62
     1
 10
47.763798859947755
 20
-5.0010701742282384
 30
0.0
 66
     1
 70
     8
  0
VERTEX
  8
FORM
  5
D26
 10
47.7638
 20
-5.00107
 30
0.000000
  70
    32
  0
VERTEX
  8
FORM
  5
D27
 10
47.7609
 20
-4.99999
 30
0.000000
  70
    32
  0
VERTEX
  8
FORM
  5
D28
 10
47.7578
 20
-4.99925
 30
0.000000
  70
    32
  0
VERTEX
  8
FORM
  5
D29
 10
47.7546
 20
-4.99885
 30
0.000000
  70
    32
  0
VERTEX
  8
FORM
  5
D2A
 10
47.7513
 20
-4.99880
 30
0.000000
  70
    32
  0
VERTEX
  8
FORM
  5
D2B
 10
47.7478
 20
-4.99910
 30
0.000000
  70
    32
  0
VERTEX
  8
FORM
  5
D2C
 10
47.7443
 20
-4.99974
 30
0.000000
  70
    32
  0
VERTEX
  8
FORM
  5
D2D
 10
47.7406
 20
-5.00073
 30
0.000000
  70
    32
  0
VERTEX
  8
FORM
  5
D2E
 10
47.7368
 20
-5.00205
 30
0.000000
  70
    32
  0
VERTEX
  8
FORM
  5
D2F
 10
47.7330
 20
-5.00372
 30
0.000000
  70
    32
  0
VERTEX
  8
FORM
  5
D30
 10
47.7291
 20
-5.00571
 30
0.000000
  70
    32
  0
VERTEX
  8
FORM
  5
D31
 10
47.7251
 20
-5.00804
 30
0.000000
  70
    32
  0
VERTEX
  8
FORM
  5
D32
 10
47.7211
 20
-5.01069
 30
0.000000
  70
    32
  0
VERTEX
  8
FORM
  5
D33
 10
47.7170
 20
-5.01366
 30
0.000000
  70
    32
  0
VERTEX
  8
FORM
  5
D34
 10
47.7128
 20
-5.01693
 30
0.000000
  70
    32
  0
VERTEX
  8
FORM
  5
D35
 10
47.7087
 20
-5.02051
 30
0.000000
  70
    32
  0
VERTEX
  8
FORM
  5
D36
 10
47.7045
 20
-5.02438
 30
0.000000
  70
    32
  0
VERTEX
  8
FORM
  5
D37
 10
47.7004
 20
-5.02854
 30
0.000000
  70
    32
  0
VERTEX
  8
FORM
  5
D38
 10
47.6962
 20
-5.03297
 30
0.000000
  70
    32
  0
VERTEX
  8
FORM
  5
D39
 10
47.6920
 20
-5.03766
 30
0.000000
  70
    32
  0
VERTEX
  8
FORM
  5
D3A
 10
47.6879
 20
-5.04261
 30
0.000000
  70
    32
  0
VERTEX
  8
FORM
  5
D3B
 10
47.6838
 20
-5.04779
 30
0.000000
  70
    32
  0
VERTEX
  8
FORM
  5
D3C
 10
47.6798
 20
-5.05321
 30
0.000000
  70
    32
  0
VERTEX
  8
FORM
  5
D3D
 10
47.6758
 20
-5.05884
 30
0.000000
  70
    32
  0
VERTEX
  8
FORM
  5
D3E
 10
47.6718
 20
-5.06466
 30
0.000000
  70
    32
  0
VERTEX
  8
FORM
  5
D3F
 10
47.6679
 20
-5.07068
 30
0.000000
  70
    32
  0
VERTEX
  8
FORM
  5
D40
 10
47.6642
 20
-5.07687
 30
0.000000
  70
    32
  0
VERTEX
  8
FORM
  5
D41
 10
47.6605
 20
-5.08322
 30
0.000000
  70
    32
  0
VERTEX
  8
FORM
  5
D42
 10
47.6569
 20
-5.08970
 30
0.000000
  70
    32
  0
VERTEX
  8
FORM
  5
D43
 10
47.6534
 20
-5.09632
 30
0.000000
  70
    32
  0
VERTEX
  8
FORM
  5
D44
 10
47.6500
 20
-5.10305
 30
0.000000
  70
    32
  0
VERTEX
  8
FORM
  5
D45
 10
47.6468
 20
-5.10987
 30
0.000000
  70
    32
  0
VERTEX
  8
FORM
  5
D46
 10
47.6437
 20
-5.11676
 30
0.000000
  70
    32
  0
VERTEX
  8
FORM
  5
D47
 10
47.6407
 20
-5.12372
 30
0.000000
  70
    32
  0
VERTEX
  8
FORM
  5
D48
 10
47.6379
 20
-5.13073
 30
0.000000
  70
    32
  0
VERTEX
  8
FORM
  5
D49
 10
47.6352
 20
-5.13776
 30
0.000000
  70
    32
  0
VERTEX
  8
FORM
  5
D4A
 10
47.6327
 20
-5.14481
 30
0.000000
  70
    32
  0
VERTEX
  8
FORM
  5
D4B
 10
47.6303
 20
-5.15184
 30
0.000000
  70
    32
  0
VERTEX
  8
FORM
  5
D4C
 10
47.6282
 20
-5.15886
 30
0.000000
  70
    32
  0
VERTEX
  8
FORM
  5
D4D
 10
47.6262
 20
-5.16583
 30
0.000000
  70
    32
  0
VERTEX
  8
FORM
  5
D4E
 10
47.6244
 20
-5.17275
 30
0.000000
  70
    32
  0
VERTEX
  8
FORM
  5
D4F
 10
47.6227
 20
-5.17959
 30
0.000000
  70
    32
  0
VERTEX
  8
FORM
  5
D50
 10
47.6213
 20
-5.18635
 30
0.000000
  70
    32
  0
VERTEX
  8
FORM
  5
D51
 10
47.6200
 20
-5.19300
 30
0.000000
  70
    32
  0
VERTEX
  8
FORM
  5
D52
 10
47.6190
 20
-5.19952
 30
0.000000
  70
    32
  0
VERTEX
  8
FORM
  5
D53
 10
47.6182
 20
-5.20591
 30
0.000000
  70
    32
  0
VERTEX
  8
FORM
  5
D54
 10
47.6175
 20
-5.21215
 30
0.000000
  70
    32
  0
VERTEX
  8
FORM
  5
D55
 10
47.6171
 20
-5.21821
 30
0.000000
  70
    32
  0
VERTEX
  8
FORM
  5
D56
 10
47.6168
 20
-5.22410
 30
0.000000
  70
    32
  0
VERTEX
  8
FORM
  5
D57
 10
47.6168
 20
-5.22978
 30
0.000000
  70
    32
  0
VERTEX
  8
FORM
  5
D58
 10
47.6170
 20
-5.23526
 30
0.000000
  70
    32
  0
VERTEX
  8
FORM
  5
D59
 10
47.6173
 20
-5.24051
 30
0.000000
  70
    32
  0
VERTEX
  8
FORM
  5
D5A
 10
47.6179
 20
-5.24553
 30
0.000000
  70
    32
  0
VERTEX
  8
FORM
  5
D5B
 10
47.6187
 20
-5.25030
 30
0.000000
  70
    32
  0
VERTEX
  8
FORM
  5
D5C
 10
47.6197
 20
-5.25480
 30
0.000000
  70
    32
  0
VERTEX
  8
FORM
  5
D5D
 10
47.6209
 20
-5.25904
 30
0.000000
  70
    32
  0
VERTEX
  8
FORM
  5
D5E
 10
47.6222
 20
-5.26299
 30
0.000000
  70
    32
  0
VERTEX
  8
FORM
  5
D5F
 10
47.6238
 20
-5.26665
 30
0.000000
  70
    32
  0
VERTEX
  8
FORM
  5
D60
 10
47.6256
 20
-5.27002
 30
0.000000
  70
    32
  0
VERTEX
  8
FORM
  5
D61
 10
47.6275
 20
-5.27307
 30
0.000000
  70
    32
  0
VERTEX
  8
FORM
  5
D62
 10
47.6296
 20
-5.27582
 30
0.000000
  70
    32
  0
VERTEX
  8
FORM
  5
D63
 10
47.6319
 20
-5.27824
 30
0.000000
  70
    32
  0
VERTEX
  8
FORM
  5
D64
 10
47.6344
 20
-5.28033
 30
0.000000
  70
    32
  0
VERTEX
  8
FORM
  5
D65
 10
47.6370
 20
-5.28209
 30
0.000000
  70
    32
  0
VERTEX
  8
FORM
  5
D66
 10
47.6398
 20
-5.28351
 30
0.000000
  70
    32
  0
VERTEX
  8
FORM
  5
D67
 10
47.6427
 20
-5.28459
 30
0.000000
  70
    32
  0
VERTEX
  8
FORM
  5
D68
 10
47.6458
 20
-5.28533
 30
0.000000
  70
    32
  0
VERTEX
  8
FORM
  5
D69
 10
47.6490
 20
-5.28573
 30
0.000000
  70
    32
  0
VERTEX
  8
FORM
  5
D6A
 10
47.6523
 20
-5.28578
 30
0.000000
  70
    32
  0
VERTEX
  8
FORM
  5
D6B
 10
47.6558
 20
-5.28548
 30
0.000000
  70
    32
  0
VERTEX
  8
FORM
  5
D6C
 10
47.6593
 20
-5.28484
 30
0.000000
  70
    32
  0
VERTEX
  8
FORM
  5
D6D
 10
47.6630
 20
-5.28385
 30
0.000000
  70
    32
  0
VERTEX
  8
FORM
  5
D6E
 10
47.6667
 20
-5.28253
 30
0.000000
  70
    32
  0
VERTEX
  8
FORM
  5
D6F
 10
47.6706
 20
-5.28086
 30
0.000000
  70
    32
  0
VERTEX
  8
FORM
  5
D70
 10
47.6745
 20
-5.27887
 30
0.000000
  70
    32
  0
VERTEX
  8
FORM
  5
D71
 10
47.6785
 20
-5.27654
 30
0.000000
  70
    32
  0
VERTEX
  8
FORM
  5
D72
 10
47.6825
 20
-5.27389
 30
0.000000
  70
    32
  0
VERTEX
  8
FORM
  5
D73
 10
47.6866
 20
-5.27092
 30
0.000000
  70
    32
  0
VERTEX
  8
FORM
  5
D74
 10
47.6907
 20
-5.26765
 30
0.000000
  70
    32
  0
VERTEX
  8
FORM
  5
D75
 10
47.6949
 20
-5.26407
 30
0.000000
  70
    32
  0
VERTEX
  8
FORM
  5
D76
 10
47.6990
 20
-5.26020
 30
0.000000
  70
    32
  0
VERTEX
  8
FORM
  5
D77
 10
47.7032
 20
-5.25604
 30
0.000000
  70
    32
  0
VERTEX
  8
FORM
  5
D78
 10
47.7074
 20
-5.25161
 30
0.000000
  70
    32
  0
VERTEX
  8
FORM
  5
D79
 10
47.7115
 20
-5.24692
 30
0.000000
  70
    32
  0
VERTEX
  8
FORM
  5
D7A
 10
47.7157
 20
-5.24197
 30
0.000000
  70
    32
  0
VERTEX
  8
FORM
  5
D7B
 10
47.7198
 20
-5.23679
 30
0.000000
  70
    32
  0
VERTEX
  8
FORM
  5
D7C
 10
47.7238
 20
-5.23137
 30
0.000000
  70
    32
  0
VERTEX
  8
FORM
  5
D7D
 10
47.7278
 20
-5.22574
 30
0.000000
  70
    32
  0
VERTEX
  8
FORM
  5
D7E
 10
47.7318
 20
-5.21991
 30
0.000000
  70
    32
  0
VERTEX
  8
FORM
  5
D7F
 10
47.7356
 20
-5.21390
 30
0.000000
  70
    32
  0
VERTEX
  8
FORM
  5
D80
 10
47.7394
 20
-5.20771
 30
0.000000
  70
    32
  0
VERTEX
  8
FORM
  5
D81
 10
47.7431
 20
-5.20136
 30
0.000000
  70
    32
  0
VERTEX
  8
FORM
  5
D82
 10
47.7467
 20
-5.19488
 30
0.000000
  70
    32
  0
VERTEX
  8
FORM
  5
D83
 10
47.7502
 20
-5.18826
 30
0.000000
  70
    32
  0
VERTEX
  8
FORM
  5
D84
 10
47.7536
 20
-5.18153
 30
0.000000
  70
    32
  0
VERTEX
  8
FORM
  5
D85
 10
47.7568
 20
-5.17471
 30
0.000000
  70
    32
  0
VERTEX
  8
FORM
  5
D86
 10
47.7599
 20
-5.16782
 30
0.000000
  70
    32
  0
VERTEX
  8
FORM
  5
D87
 10
47.7629
 20
-5.16086
 30
0.000000
  70
    32
  0
VERTEX
  8
FORM
  5
D88
 10
47.7657
 20
-5.15385
 30
0.000000
  70
    32
  0
VERTEX
  8
FORM
  5
D89
 10
47.7684
 20
-5.14682
 30
0.000000
  70
    32
  0
VERTEX
  8
FORM
  5
D8A
 10
47.7709
 20
-5.13977
 30
0.000000
  70
    32
  0
VERTEX
  8
FORM
  5
D8B
 10
47.7732
 20
-5.13274
 30
0.000000
  70
    32
  0
VERTEX
  8
FORM
  5
D8C
 10
47.7754
 20
-5.12572
 30
0.000000
  70
    32
  0
VERTEX
  8
FORM
  5
D8D
 10
47.7774
 20
-5.11875
 30
0.000000
  70
    32
  0
VERTEX
  8
FORM
  5
D8E
 10
47.7792
 20
-5.11183
 30
0.000000
  70
    32
  0
VERTEX
  8
FORM
  5
D8F
 10
47.7808
 20
-5.10499
 30
0.000000
  70
    32
  0
VERTEX
  8
FORM
  5
D90
 10
47.7823
 20
-5.09823
 30
0.000000
  70
    32
  0
VERTEX
  8
FORM
  5
D91
 10
47.7835
 20
-5.09158
 30
0.000000
  70
    32
  0
VERTEX
  8
FORM
  5
D92
 10
47.7846
 20
-5.08506
 30
0.000000
  70
    32
  0
VERTEX
  8
FORM
  5
D93
 10
47.7854
 20
-5.07867
 30
0.000000
  70
    32
  0
VERTEX
  8
FORM
  5
D94
 10
47.7861
 20
-5.07243
 30
0.000000
  70
    32
  0
VERTEX
  8
FORM
  5
D95
 10
47.7865
 20
-5.06637
 30
0.000000
  70
    32
  0
VERTEX
  8
FORM
  5
D96
 10
47.7867
 20
-5.06048
 30
0.000000
  70
    32
  0
VERTEX
  8
FORM
  5
D97
 10
47.7868
 20
-5.05479
 30
0.000000
  70
    32
  0
VERTEX
  8
FORM
  5
D98
 10
47.7866
 20
-5.04932
 30
0.000000
  70
    32
  0
VERTEX
  8
FORM
  5
D99
 10
47.7862
 20
-5.04407
 30
0.000000
  70
    32
  0
VERTEX
  8
FORM
  5
D9A
 10
47.7856
 20
-5.03905
 30
0.000000
  70
    32
  0
VERTEX
  8
FORM
  5
D9B
 10
47.7849
 20
-5.03428
 30
0.000000
  70
    32
  0
VERTEX
  8
FORM
  5
D9C
 10
47.7839
 20
-5.02978
 30
0.000000
  70
    32
  0
VERTEX
  8
FORM
  5
D9D
 10
47.7827
 20
-5.02554
 30
0.000000
  70
    32
  0
VERTEX
  8
FORM
  5
D9E
 10
47.7813
 20
-5.02159
 30
0.000000
  70
    32
  0
VERTEX
  8
FORM
  5
D9F
 10
47.7798
 20
-5.01792
 30
0.000000
  70
    32
  0
VERTEX
  8
FORM
  5
DA0
 10
47.7780
 20
-5.01456
 30
0.000000
  70
    32
  0
VERTEX
  8
FORM
  5
DA1
 10
47.7761
 20
-5.01150
 30
0.000000
  70
    32
  0
VERTEX
  8
FORM
  5
DA2
 10
47.7739
 20
-5.00876
 30
0.000000
  70
    32
  0
VERTEX
  8
FORM
  5
DA3
 10
47.7717
 20
-5.00634
 30
0.000000
  70
    32
  0
VERTEX
  8
FORM
  5
DA4
 10
47.7692
 20
-5.00425
 30
0.000000
  70
    32
  0
VERTEX
  8
FORM
  5
DA5
 10
47.7666
 20
-5.00249
 30
0.000000
  70
    32
  0
VERTEX
  8
FORM
  5
DA6
 10
47.7638
 20
-5.00107
 30
0.000000
  70
    32
  0
SEQEND
  8
FORM
  5
DA7
  0
ARC
  5
985
  8
FORM
 62
     7
 10
47.902311604156857
 20
-5.5150379754716994
 30
0.0
 40
0.6911700724340929
 50
85.485448269952457
 51
155.5006785655421
  0
TEXT
  5
986
  8
FORM
 62
     7
 10
45.470408003914542
 20
-9.129375836441028
 30
0.0
 40
0.2707692305893858
  1
R2-D2 BUILDERS CLUB
  0
ARC
  5
987
  8
FORM
 10
-3.602443257630739
 20
-12.199087292916429
 30
0.0
 40
0.4835164831953318
 50
180.0
 51
270.0
  0
ARC
  5
988
  8
FORM
 10
-3.602443257630739
 20
-12.199087292916429
 30
0.0
 40
0.9670329663906635
 50
180.0
 51
270.0
  0
ARC
  5
989
  8
FORM
 10
-3.602443257630739
 20
-12.199087292916429
 30
0.0
 40
1.0879120871894961
 50
180.0
 51
270.0
  0
ARC
  5
98A
  8
FORM
 10
-3.602443257630739
 20
-12.199087292916429
 30
0.0
 40
1.5714285703848281
 50
180.0
 51
270.0
  0
ARC
  5
98B
  8
FORM
 10
-3.6024432357122569
 20
25.158055566313891
 30
0.0
 40
1.5714285703848281
 50
90.0
 51
180.0
  0
ARC
  5
98C
  8
FORM
 10
-3.6024432357122569
 20
25.158055566313891
 30
0.0
 40
1.0879120871894961
 50
90.0
 51
180.0
  0
ARC
  5
98D
  8
FORM
 10
-3.6024432357122569
 20
25.158055566313891
 30
0.0
 40
0.9670329663906635
 50
90.0
 51
180.0
  0
ARC
  5
98E
  8
FORM
 10
-3.6024432357122569
 20
25.158055566313891
 30
0.0
 40
0.4835164831953318
 50
90.0
 51
180.0
  0
ARC
  5
98F
  8
FORM
 10
60.254699579680903
 20
25.158055566313891
 30
0.0
 40
0.9670329663906635
 50
0.0
 51
90.0
  0
ARC
  5
990
  8
FORM
 10
60.254699579680903
 20
25.158055566313891
 30
0.0
 40
1.0879120871894961
 50
0.0
 51
90.0
  0
ARC
  5
991
  8
FORM
 10
60.254699579680903
 20
25.158055566313891
 30
0.0
 40
1.5714285703848281
 50
0.0
 51
90.0
  0
ARC
  5
992
  8
FORM
 10
60.254699579680903
 20
25.158055566313891
 30
0.0
 40
0.4835164831953318
 50
0.0
 51
90.0
  0
ARC
  5
993
  8
FORM
 10
60.254699557762422
 20
-12.199087292916429
 30
0.0
 40
1.5714285703848281
 50
270.0
 51
0.0
  0
ARC
  5
994
  8
FORM
 10
60.254699557762422
 20
-12.199087292916429
 30
0.0
 40
1.0879120871894961
 50
270.0
 51
0.0
  0
ARC
  5
995
  8
FORM
 10
60.254699557762422
 20
-12.199087292916429
 30
0.0
 40
0.9670329663906635
 50
270.0
 51
0.0
  0
ARC
  5
996
  8
FORM
 10
60.254699557762422
 20
-12.199087292916429
 30
0.0
 40
0.4835164831953318
 50
270.0
 51
0.0
  0
LINE
  5
997
  8
FORM
 10
60.254699557762422
 20
-13.166120259307061
 30
0.0
 11
-3.602443257630739
 21
-13.166120259307091
 31
0.0
  0
LINE
  5
998
  8
FORM
 10
60.254699557762422
 20
-13.28699938010589
 30
0.0
 11
-3.602443257630739
 21
-13.28699938010592
 31
0.0
  0
LINE
  5
999
  8
FORM
 10
60.254699557762422
 20
-13.770515863301251
 30
0.0
 11
-3.602443257630739
 21
-13.770515863301281
 31
0.0
  0
LINE
  5
99A
  8
FORM
 10
61.221732524153083
 20
-12.199087292916429
 30
0.0
 11
61.221732546071557
 21
25.158055566313891
 31
0.0
  0
LINE
  5
99B
  8
FORM
 10
61.342611644951887
 20
-12.199087292916429
 30
0.0
 11
61.342611666870368
 21
25.158055566313891
 31
0.0
  0
LINE
  5
99C
  8
FORM
 10
61.826128128147211
 20
-12.199087292916429
 30
0.0
 11
61.826128150065699
 21
25.158055566313891
 31
0.0
  0
LINE
  5
99D
  8
FORM
 10
60.254699579680903
 20
26.125088532704549
 30
0.0
 11
-3.6024432357122569
 21
26.125088532704549
 31
0.0
  0
LINE
  5
99E
  8
FORM
 10
60.254699579680903
 20
26.245967653503389
 30
0.0
 11
-3.6024432357122569
 21
26.245967653503389
 31
0.0
  0
LINE
  5
99F
  8
FORM
 10
60.254699579680903
 20
26.729484136698719
 30
0.0
 11
-3.6024432357122569
 21
26.729484136698719
 31
0.0
  0
LINE
  5
9A0
  8
FORM
 10
-4.5694762240214573
 20
-12.199087292916429
 30
0.0
 11
-4.569476202102976
 21
25.158055566313891
 31
0.0
  0
LINE
  5
9A1
  8
FORM
 10
-4.6903553448202606
 20
-12.199087292916429
 30
0.0
 11
-4.6903553229017803
 21
25.158055566313891
 31
0.0
  0
LINE
  5
9A2
  8
FORM
 10
-5.173871828015705
 20
-12.199087292916429
 30
0.0
 11
-5.1738718060971101
 21
25.158055566313891
 31
0.0
  0
LINE
  5
9A3
  8
FORM
  6
CONTINUOUS
 10
45.964919896924073
 20
-12.199087292916429
 30
0.0
 11
59.547284723067442
 21
-12.199087292916429
 31
0.0
  0
LINE
  5
9A4
  8
FORM
  6
CONTINUOUS
 10
60.254699557762422
 20
-4.7004900451497633
 30
0.0
 11
60.254699557762422
 21
-11.491672458221471
 31
0.0
  0
ARC
  5
9A5
  8
FORM
  6
CONTINUOUS
 10
59.547284723067442
 20
-11.491672458221471
 30
0.0
 40
0.7074148346949664
 50
270.0
 51
0.0
  0
ARC
  5
9A6
  8
FORM
  6
CONTINUOUS
 10
59.547284723067442
 20
-4.7004900451497633
 30
0.0
 40
0.7074148346949664
 50
359.99999999999977
 51
90.0
  0
ARC
  5
9A7
  8
FORM
  6
CONTINUOUS
 10
45.964919896924073
 20
-11.491672458221471
 30
0.0
 40
0.7074148346949664
 50
180.0
 51
270.0
  0
ARC
  5
9A8
  8
FORM
  6
CONTINUOUS
 10
45.964919896924073
 20
-4.7004900451497633
 30
0.0
 40
0.7074148346949664
 50
90.0
 51
180.0
  0
LINE
  5
B98
  8
0
 10
-3.602443257630739
 20
-12.199087292916429
 30
0.0
 11
-3.602443257630739
 21
-11.199087292916429
 31
0.0
  0
LINE
  5
B99
  8
0
 10
-3.602443257630739
 20
-12.074087292916429
 30
0.0
 11
-3.477443257630739
 21
-12.074087292916429
 31
0.0
  0
LINE
  5
B9A
  8
0
 10
-3.602443257630739
 20
-11.949087292916429
 30
0.0
 11
-3.352443257630739
 21
-11.949087292916429
 31
0.0
  0
LINE
  5
B9B
  8
0
 10
-3.602443257630739
 20
-11.824087292916429
 30
0.0
 11
-3.477443257630739
 21
-11.824087292916429
 31
0.0
  0
LINE
  5
B9C
  8
0
 10
-3.602443257630739
 20
-11.699087292916429
 30
0.0
 11
-3.227443257630739
 21
-11.699087292916429
 31
0.0
  0
LINE
  5
B9D
  8
0
 10
-3.602443257630739
 20
-11.574087292916429
 30
0.0
 11
-3.477443257630739
 21
-11.574087292916429
 31
0.0
  0
LINE
  5
B9E
  8
0
 10
-3.602443257630739
 20
-11.449087292916429
 30
0.0
 11
-3.352443257630739
 21
-11.449087292916429
 31
0.0
  0
LINE
  5
B9F
  8
0
 10
-3.602443257630739
 20
-11.324087292916429
 30
0.0
 11
-3.477443257630739
 21
-11.324087292916429
 31
0.0
  0
LINE
  5
BA0
  8
0
 10
-3.602443257630739
 20
-11.199087292916429
 30
0.0
 11
-3.227443257630739
 21
-11.199087292916429
 31
0.0
  0
LINE
  5
BA1
  8
0
 10
-3.602443257630739
 20
-12.199087292916429
 30
0.0
 11
-3.227443257630739
 21
-12.199087292916429
 31
0.0
  0
TEXT
  5
BA2
  8
0
 10
-3.1781744840043009
 20
-11.732127853916911
 30
0.0
 40
0.0625
  1
1/2"
  0
TEXT
  5
BA3
  8
0
 10
-3.4281744840043009
 20
-11.857127853916911
 30
0.0
 40
0.0625
  1
3/8"
  0
TEXT
  5
BA4
  8
0
 10
-3.3031744840043009
 20
-11.982127853916911
 30
0.0
 40
0.0625
  1
1/4"
  0
TEXT
  5
BA5
  8
0
 10
-3.4281744840043009
 20
-12.107127853916911
 30
0.0
 40
0.0625
  1
1/8"
  0
TEXT
  5
BA6
  8
0
 10
-3.4281744840043009
 20
-11.607127853916911
 30
0.0
 40
0.0625
  1
5/8"
  0
TEXT
  5
BA7
  8
0
 10
-3.3031744840043009
 20
-11.482127853916911
 30
0.0
 40
0.0625
  1
3/4"
  0
TEXT
  5
BA8
  8
0
 10
-3.4281744840043009
 20
-11.357127853916911
 30
0.0
 40
0.0625
  1
7/8"
  0
TEXT
  5
BA9
  8
0
 10
-3.1781744840043009
 20
-11.232127853916911
 30
0.0
 40
0.0625
  1
1"
  0
TEXT
  5
BBC
  8
DIMENSIONS_BODY
 10
26.64246110948034
 20
1.7887807762286121
 30
0.0
 40
0.18
  1
4.842x3.937
  0
TEXT
  5
C45
  8
DIMENSIONS
 10
45.042500000000047
 20
-1.728824330216822
 30
0.0
 40
0.18
  1
44.953
 50
90.0
  0
TEXT
  5
C46
  8
DIMENSIONS
 10
44.255000000000017
 20
-1.6945388408642961
 30
0.0
 40
0.18
  1
44.165
 50
90.0
  0
TEXT
  5
C47
  8
DIMENSIONS
 10
41.380000000000017
 20
-1.6945388408642961
 30
0.0
 40
0.18
  1
41.290
 50
90.0
  0
TEXT
  5
C48
  8
DIMENSIONS
 10
40.592500000000001
 20
-1.7288243302168229
 30
0.0
 40
0.18
  1
40.503
 50
90.0
  0
TEXT
  5
C49
  8
DIMENSIONS
 10
37.246499999999997
 20
-1.6945388408643269
 30
0.0
 40
0.18
  1
37.157
 50
90.0
  0
TEXT
  5
C4A
  8
DIMENSIONS
 10
36.933000000000021
 20
-1.7288245551500121
 30
0.0
 40
0.18
  1
36.843
 50
90.0
  0
TEXT
  5
C4B
  8
DIMENSIONS
 10
36.497117246297449
 20
-1.6999433569365141
 30
0.0
 40
0.18
  1
36.783
 50
90.0
  0
TEXT
  5
C4C
  8
DIMENSIONS
 10
35.928000000000033
 20
-1.7288245551500121
 30
0.0
 40
0.18
  1
35.838
 50
90.0
  0
TEXT
  5
C4D
  8
DIMENSIONS
 10
32.928000000000033
 20
-1.7288245551500121
 30
0.0
 40
0.18
  1
32.838
 50
90.0
  0
TEXT
  5
C4E
  8
DIMENSIONS
 10
31.459000000000032
 20
-1.6859671873596529
 30
0.0
 40
0.18
  1
31.369
 50
90.0
  0
TEXT
  5
C4F
  8
DIMENSIONS
 10
30.996000000000009
 20
-1.7202529016453949
 30
0.0
 40
0.18
  1
30.906
 50
90.0
  0
TEXT
  5
CCA
  8
DIMENSIONS
 10
49.05604317208369
 20
-1.70703212679997
 30
0.0
 40
0.18
  1
48.672
 50
90.0
  0
TEXT
  5
CCB
  8
DIMENSIONS
 10
57.060000000000031
 20
-1.7070321267999411
 30
0.0
 40
0.18
  1
56.970
 50
90.0
  0
TEXT
  5
CCC
  8
DIMENSIONS
 10
54.638999999999982
 20
-1.6984606982285131
 30
0.0
 40
0.18
  1
54.549
 50
90.0
  0
TEXT
  5
CCE
  8
DIMENSIONS
 10
52.67500000000004
 20
-1.707031901866781
 30
0.0
 40
0.18
  1
52.585
 50
90.0
  0
TEXT
  5
CCF
  8
DIMENSIONS
 10
51.92500000000004
 20
-1.658060973617024
 30
0.0
 40
0.18
  1
51.835
 50
90.0
  0
TEXT
  5
CD0
  8
DIMENSIONS
 10
50.488000000000028
 20
-1.70703212679997
 30
0.0
 40
0.18
  1
50.398
 50
90.0
  0
TEXT
  5
CD1
  8
DIMENSIONS
 10
49.738000000000028
 20
-1.7217173407640129
 30
0.0
 40
0.18
  1
49.648
 50
90.0
  0
TEXT
  5
CD3
  8
DIMENSIONS
 10
48.702000000000027
 20
-1.672746187581039
 30
0.0
 40
0.18
  1
48.612
 50
90.0
  0
TEXT
  5
CD4
  8
DIMENSIONS
 10
48.38850000000005
 20
-1.7131456872593389
 30
0.0
 40
0.18
  1
48.299
 50
90.0
  0
TEXT
  5
CF5
  8
DIMENSIONS
 10
53.156616522551161
 20
-1.663963670705966
 30
0.0
 40
0.18
  1
52.617
 50
90.0
  0
TEXT
  5
CF6
  8
DIMENSIONS
 10
49.36443533297458
 20
-1.685349194893446
 30
0.0
 40
0.18
  1
49.617
 50
90.0
  0
ENDSEC
  0
EOF
