  0
SECTION
  2
HEADER
  9
$ACADVER
  1
AC1009
  9
$INSBASE
 10
0.0
 20
0.0
 30
0.0
  9
$EXTMIN
 10
0.0
 20
0.0
 30
0.0
  9
$EXTMAX
 10
34.000000000000021
 20
22.0
 30
0.0
  9
$LIMMIN
 10
0.0
 20
0.0
  9
$LIMMAX
 10
12.0
 20
9.0
  9
$ORTHOMODE
 70
     1
  9
$REGENMODE
 70
     1
  9
$FILLMODE
 70
     1
  9
$QTEXTMODE
 70
     0
  9
$MIRRTEXT
 70
     1
  9
$DRAGMODE
 70
     2
  9
$LTSCALE
 40
1.0
  9
$OSMODE
 70
    39
  9
$ATTMODE
 70
     1
  9
$TEXTSIZE
 40
0.1875
  9
$TRACEWID
 40
0.05
  9
$TEXTSTYLE
  7
STANDARD
  9
$CLAYER
  8
0
  9
$CELTYPE
  6
BYLAYER
  9
$CECOLOR
 62
   256
  9
$DIMSCALE
 40
1.0
  9
$DIMASZ
 40
0.25
  9
$DIMEXO
 40
0.0625
  9
$DIMDLI
 40
1.0
  9
$DIMRND
 40
0.0
  9
$DIMDLE
 40
0.0
  9
$DIMEXE
 40
0.0625
  9
$DIMTP
 40
0.0
  9
$DIMTM
 40
0.0
  9
$DIMTXT
 40
0.25
  9
$DIMCEN
 40
0.0
  9
$DIMTSZ
 40
0.0
  9
$DIMTOL
 70
     0
  9
$DIMLIM
 70
     0
  9
$DIMTIH
 70
     1
  9
$DIMTOH
 70
     1
  9
$DIMSE1
 70
     0
  9
$DIMSE2
 70
     0
  9
$DIMTAD
 70
     0
  9
$DIMZIN
 70
     0
  9
$DIMBLK
  1

  9
$DIMASO
 70
     1
  9
$DIMSHO
 70
     1
  9
$DIMPOST
  1

  9
$DIMAPOST
  1

  9
$DIMALT
 70
     0
  9
$DIMALTD
 70
     2
  9
$DIMALTF
 40
25.399999999999999
  9
$DIMLFAC
 40
1.0
  9
$DIMTOFL
 70
     0
  9
$DIMTVP
 40
0.0
  9
$DIMTIX
 70
     0
  9
$DIMSOXD
 70
     0
  9
$DIMSAH
 70
     0
  9
$DIMBLK1
  1

  9
$DIMBLK2
  1

  9
$DIMSTYLE
  2
STANDARD
  9
$DIMCLRD
 70
   256
  9
$DIMCLRE
 70
   256
  9
$DIMCLRT
 70
   256
  9
$DIMTFAC
 40
1.0
  9
$DIMGAP
 40
0.0625
  9
$LUNITS
 70
     2
  9
$LUPREC
 70
     4
  9
$SKETCHINC
 40
0.1
  9
$FILLETRAD
 40
0.0
  9
$AUNITS
 70
     0
  9
$AUPREC
 70
     0
  9
$MENU
  1
.
  9
$ELEVATION
 40
0.0
  9
$PELEVATION
 40
0.0
  9
$THICKNESS
 40
0.0
  9
$LIMCHECK
 70
     0
  9
$BLIPMODE
 70
     0
  9
$CHAMFERA
 40
0.0
  9
$CHAMFERB
 40
0.0
  9
$SKPOLY
 70
     0
  9
$TDCREATE
 40
2452227.898066666
  9
$TDUPDATE
 40
2453462.4915333679
  9
$TDINDWG
 40
1.9451504630000001
  9
$TDUSRTIMER
 40
1.9451498842999999
  9
$USRTIMER
 70
     1
  9
$ANGBASE
 50
0.0
  9
$ANGDIR
 70
     0
  9
$PDMODE
 70
     0
  9
$PDSIZE
 40
0.0
  9
$PLINEWID
 40
0.0
  9
$COORDS
 70
     0
  9
$SPLFRAME
 70
     0
  9
$SPLINETYPE
 70
     6
  9
$SPLINESEGS
 70
     8
  9
$ATTDIA
 70
     0
  9
$ATTREQ
 70
     1
  9
$HANDLING
 70
     1
  9
$HANDSEED
  5
1287
  9
$SURFTAB1
 70
     6
  9
$SURFTAB2
 70
     6
  9
$SURFTYPE
 70
     6
  9
$SURFU
 70
     6
  9
$SURFV
 70
     6
  9
$UCSNAME
  2

  9
$UCSORG
 10
0.0
 20
0.0
 30
0.0
  9
$UCSXDIR
 10
1.0
 20
0.0
 30
0.0
  9
$UCSYDIR
 10
0.0
 20
1.0
 30
0.0
  9
$PUCSNAME
  2

  9
$PUCSORG
 10
0.0
 20
0.0
 30
0.0
  9
$PUCSXDIR
 10
1.0
 20
0.0
 30
0.0
  9
$PUCSYDIR
 10
0.0
 20
1.0
 30
0.0
  9
$USERI1
 70
     0
  9
$USERI2
 70
     0
  9
$USERI3
 70
     0
  9
$USERI4
 70
     0
  9
$USERI5
 70
     0
  9
$USERR1
 40
0.0
  9
$USERR2
 40
0.0
  9
$USERR3
 40
0.0
  9
$USERR4
 40
0.0
  9
$USERR5
 40
0.0
  9
$WORLDVIEW
 70
     1
  9
$SHADEDGE
 70
     3
  9
$SHADEDIF
 70
    70
  9
$TILEMODE
 70
     1
  9
$MAXACTVP
 70
    64
  9
$PLIMCHECK
 70
     0
  9
$PEXTMIN
 10
1.0000000000000000E+020
 20
1.0000000000000000E+020
 30
1.0000000000000000E+020
  9
$PEXTMAX
 10
-1.0000000000000000E+020
 20
-1.0000000000000000E+020
 30
-1.0000000000000000E+020
  9
$PLIMMIN
 10
0.0
 20
0.0
  9
$PLIMMAX
 10
12.0
 20
9.0
  9
$UNITMODE
 70
     0
  9
$VISRETAIN
 70
     1
  9
$PLINEGEN
 70
     0
  9
$PSLTSCALE
 70
     1
  0
ENDSEC
  0
SECTION
  2
TABLES
  0
TABLE
  2
VPORT
 70
     2
  0
VPORT
  2
*ACTIVE
 70
     0
 10
0.0
 20
0.0
 11
1.0
 21
1.0
 12
17.000886177330241
 22
11.00004839693019
 13
0.0
 23
0.0
 14
0.5
 24
0.5
 15
0.5
 25
0.5
 16
0.0
 26
0.0
 36
1.0
 17
0.0
 27
0.0
 37
0.0
 40
22.282003878810691
 41
2.1727078891257992
 42
50.0
 43
0.0
 44
0.0
 50
0.0
 51
0.0
 71
     0
 72
 20000
 73
     1
 74
     2
 75
     0
 76
     0
 77
     0
 78
     0
  0
ENDTAB
  0
TABLE
  2
LTYPE
 70
     1
  0
LTYPE
  2
CONTINUOUS
 70
     0
  3
Solid line
 72
    65
 73
     0
 40
0.0
  0
ENDTAB
  0
TABLE
  2
LAYER
 70
     5
  0
LAYER
  2
0
 70
     0
 62
     7
  6
CONTINUOUS
  0
LAYER
  2
BODY_-_SIDE_VENT
 70
     0
 62
     7
  6
CONTINUOUS
  0
LAYER
  2
DIMENSIONS
 70
     0
 62
     1
  6
CONTINUOUS
  0
LAYER
  2
DEFPOINTS
 70
     0
 62
     7
  6
CONTINUOUS
  0
LAYER
  2
FORM
 70
     0
 62
     5
  6
CONTINUOUS
  0
ENDTAB
  0
TABLE
  2
STYLE
 70
     1
  0
STYLE
  2
STANDARD
 70
     0
 40
0.0
 41
1.0
 50
0.0
 71
     0
 42
0.1875
  3
simplex.shx
  4

  0
ENDTAB
  0
TABLE
  2
VIEW
 70
     0
  0
ENDTAB
  0
TABLE
  2
UCS
 70
     0
  0
ENDTAB
  0
TABLE
  2
APPID
 70
     3
  0
APPID
  2
ACAD
 70
     0
  0
APPID
  2
DCO15
 70
     0
  0
APPID
  2
ACAD_PSEXT
 70
     0
  0
ENDTAB
  0
TABLE
  2
DIMSTYLE
 70
     1
  0
DIMSTYLE
  2
STANDARD
 70
     0
  3

  4

  5

  6

  7

 40
1.0
 41
0.25
 42
0.0625
 43
1.0
 44
0.0625
 45
0.0
 46
0.0
 47
0.0
 48
0.0
140
0.25
141
0.0
142
0.0
143
25.399999999999999
144
1.0
145
0.0
146
1.0
147
0.0625
 71
     0
 72
     0
 73
     1
 74
     1
 75
     0
 76
     0
 77
     0
 78
     0
170
     0
171
     2
172
     0
173
     0
174
     0
175
     0
176
   256
177
   256
178
   256
  0
ENDTAB
  0
ENDSEC
  0
SECTION
  2
BLOCKS
  0
BLOCK
  8
0
  2
$MODEL_SPACE
 70
     0
 10
0.0
 20
0.0
 30
0.0
  3
$MODEL_SPACE
  1

  0
ENDBLK
  5
9
  8
0
  0
BLOCK
 67
     1
  8
0
  2
$PAPER_SPACE
 70
     0
 10
0.0
 20
0.0
 30
0.0
  3
$PAPER_SPACE
  1

  0
ENDBLK
  5
E
 67
     1
  8
0
  0
BLOCK
  8
0
  2
*U0
 70
     1
 10
0.0
 20
0.0
 30
0.0
  3
*U0
  1

  0
TEXT
  5
11FA
  8
DIMENSIONS
 10
19.719816973259491
 20
11.46059822880988
 30
0.0
 40
0.25
  1
5.451
  0
ENDBLK
  5
11FC
  8
0
  0
BLOCK
  8
0
  2
*U1
 70
     1
 10
0.0
 20
0.0
 30
0.0
  3
*U1
  1

  0
TEXT
  5
11FE
  8
DIMENSIONS
 10
6.9571250135033837
 20
11.46059822880988
 30
0.0
 40
0.25
  1
5.851
  0
ENDBLK
  5
1200
  8
0
  0
BLOCK
  8
0
  2
*U2
 70
     1
 10
0.0
 20
0.0
 30
0.0
  3
*U2
  1

  0
TEXT
  5
1202
  8
DIMENSIONS
 10
12.63512501350338
 20
11.46059822880988
 30
0.0
 40
0.25
  1
5.331
  0
ENDBLK
  5
1204
  8
0
  0
ENDSEC
  0
SECTION
  2
ENTITIES
  0
LINE
  5
82
  8
BODY_-_SIDE_VENT
 10
11.88755358493195
 20
8.9200982288098771
 30
0.0
 11
11.43755358493196
 21
8.9200982288098771
 31
0.0
  0
LINE
  5
84
  8
BODY_-_SIDE_VENT
 10
10.467553584931959
 20
8.9200982288098771
 30
0.0
 11
10.467553584931959
 21
14.25109822880988
 31
0.0
  0
LINE
  5
85
  8
BODY_-_SIDE_VENT
 10
10.01755358493196
 20
8.9200982288098771
 30
0.0
 11
10.01755358493196
 21
14.25109822880988
 31
0.0
  0
LINE
  5
86
  8
BODY_-_SIDE_VENT
 10
10.72755358493195
 20
8.9200982288098771
 30
0.0
 11
10.72755358493195
 21
14.25109822880988
 31
0.0
  0
LINE
  5
87
  8
BODY_-_SIDE_VENT
 10
9.757553584931955
 20
8.9200982288098771
 30
0.0
 11
9.757553584931955
 21
14.25109822880988
 31
0.0
  0
LINE
  5
88
  8
BODY_-_SIDE_VENT
 10
11.17755358493195
 20
8.9200982288098771
 30
0.0
 11
11.17755358493195
 21
14.25109822880988
 31
0.0
  0
LINE
  5
89
  8
BODY_-_SIDE_VENT
 10
9.3075535849319522
 20
8.9200982288098771
 30
0.0
 11
9.3075535849319522
 21
14.25109822880988
 31
0.0
  0
LINE
  5
8A
  8
BODY_-_SIDE_VENT
 10
9.0475535849319613
 20
8.9200982288098771
 30
0.0
 11
9.0475535849319613
 21
14.25109822880988
 31
0.0
  0
LINE
  5
8C
  8
BODY_-_SIDE_VENT
 10
11.43755358493196
 20
8.9200982288098771
 30
0.0
 11
11.43755358493196
 21
14.25109822880988
 31
0.0
  0
LINE
  5
8D
  8
BODY_-_SIDE_VENT
 10
11.88755358493195
 20
8.9200982288098771
 30
0.0
 11
11.88755358493195
 21
14.25109822880988
 31
0.0
  0
LINE
  5
8E
  8
BODY_-_SIDE_VENT
 10
8.5975535849319584
 20
8.9200982288098771
 30
0.0
 11
8.5975535849319584
 21
14.25109822880988
 31
0.0
  0
LINE
  5
8F
  8
BODY_-_SIDE_VENT
 10
11.88755358493195
 20
14.25109822880988
 30
0.0
 11
11.43755358493196
 21
14.25109822880988
 31
0.0
  0
LINE
  5
90
  8
BODY_-_SIDE_VENT
 10
11.17755358493195
 20
8.9200982288098771
 30
0.0
 11
10.72755358493195
 21
8.9200982288098771
 31
0.0
  0
LINE
  5
91
  8
BODY_-_SIDE_VENT
 10
10.467553584931959
 20
8.9200982288098771
 30
0.0
 11
10.01755358493196
 21
8.9200982288098771
 31
0.0
  0
LINE
  5
92
  8
BODY_-_SIDE_VENT
 10
9.757553584931955
 20
8.9200982288098771
 30
0.0
 11
9.3075535849319522
 21
8.9200982288098771
 31
0.0
  0
LINE
  5
93
  8
BODY_-_SIDE_VENT
 10
9.0475535849319613
 20
8.9200982288098771
 30
0.0
 11
8.5975535849319584
 21
8.9200982288098771
 31
0.0
  0
LINE
  5
94
  8
BODY_-_SIDE_VENT
 10
9.0475535849319613
 20
14.25109822880988
 30
0.0
 11
8.5975535849319584
 21
14.25109822880988
 31
0.0
  0
LINE
  5
95
  8
BODY_-_SIDE_VENT
 10
9.757553584931955
 20
14.25109822880988
 30
0.0
 11
9.3075535849319522
 21
14.25109822880988
 31
0.0
  0
LINE
  5
96
  8
BODY_-_SIDE_VENT
 10
10.467553584931959
 20
14.25109822880988
 30
0.0
 11
10.01755358493196
 21
14.25109822880988
 31
0.0
  0
LINE
  5
97
  8
BODY_-_SIDE_VENT
 10
11.17755358493195
 20
14.25109822880988
 30
0.0
 11
10.72755358493195
 21
14.25109822880988
 31
0.0
  0
LINE
  5
98
  8
BODY_-_SIDE_VENT
 10
12.33155358493195
 20
14.51109822880988
 30
0.0
 11
8.1535535849319558
 21
14.51109822880988
 31
0.0
  0
LINE
  5
99
  8
BODY_-_SIDE_VENT
 10
12.33155358493195
 20
8.6600982288098773
 30
0.0
 11
8.1535535849319558
 21
8.6600982288098773
 31
0.0
  0
LINE
  5
9A
  8
BODY_-_SIDE_VENT
 10
12.33155358493195
 20
8.6600982288098773
 30
0.0
 11
12.33155358493195
 21
14.51109822880988
 31
0.0
  0
LINE
  5
9B
  8
BODY_-_SIDE_VENT
 10
8.1535535849319558
 20
8.6600982288098773
 30
0.0
 11
8.1535535849319558
 21
14.51109822880988
 31
0.0
  0
LINE
  5
A0
  8
BODY_-_SIDE_VENT
 10
20.916245544688071
 20
8.6600982288098773
 30
0.0
 11
20.916245544688071
 21
14.51109822880988
 31
0.0
  0
LINE
  5
A1
  8
BODY_-_SIDE_VENT
 10
25.094245544688079
 20
8.6600982288098773
 30
0.0
 11
25.094245544688079
 21
14.51109822880988
 31
0.0
  0
LINE
  5
AC
  8
BODY_-_SIDE_VENT
 10
25.094245544688079
 20
8.6600982288098773
 30
0.0
 11
20.916245544688071
 21
8.6600982288098773
 31
0.0
  0
LINE
  5
B2
  8
BODY_-_SIDE_VENT
 10
25.094245544688079
 20
14.51109822880988
 30
0.0
 11
20.916245544688071
 21
14.51109822880988
 31
0.0
  0
LINE
  5
B8
  8
BODY_-_SIDE_VENT
 10
24.710245544688082
 20
8.8600982288098784
 30
0.0
 11
21.300245544688082
 21
8.8600982288098784
 31
0.0
  0
LINE
  5
BA
  8
BODY_-_SIDE_VENT
 10
21.300245544688082
 20
8.8600982288098784
 30
0.0
 11
21.300245544688082
 21
14.311098228809881
 31
0.0
  0
LINE
  5
BB
  8
BODY_-_SIDE_VENT
 10
24.710245544688082
 20
14.31109822880987
 30
0.0
 11
21.300245544688082
 21
14.311098228809881
 31
0.0
  0
LINE
  5
C0
  8
BODY_-_SIDE_VENT
 10
24.710245544688082
 20
8.8600982288098784
 30
0.0
 11
24.710245544688082
 21
14.31109822880987
 31
0.0
  0
TEXT
  5
160
  8
DIMENSIONS
 10
9.7056735094832032
 20
16.165577910880071
 30
0.0
 40
0.25
  1
4.178
  0
TEXT
  5
161
  8
DIMENSIONS
 10
9.7145540462475566
 20
3.4039072818993641
 30
0.0
 40
0.25
  1
3.410
  0
LINE
  5
1C6
  8
BODY_-_SIDE_VENT
 10
16.449182807825089
 20
14.51109822880988
 30
0.0
 11
16.409182807825101
 21
14.51109822880988
 31
0.0
  0
LINE
  5
1C7
  8
BODY_-_SIDE_VENT
 10
16.596682807825101
 20
14.311098228809881
 30
0.0
 11
16.449182807825089
 21
14.311098228809881
 31
0.0
  0
LINE
  5
1C8
  8
BODY_-_SIDE_VENT
 10
16.449182807825089
 20
8.6600982288098791
 30
0.0
 11
16.409182807825101
 21
8.6600982288098791
 31
0.0
  0
LINE
  5
1C9
  8
BODY_-_SIDE_VENT
 10
16.596682807825101
 20
8.8600982288098784
 30
0.0
 11
16.449182807825089
 21
8.8600982288098784
 31
0.0
  0
LINE
  5
1CA
  8
BODY_-_SIDE_VENT
 10
16.409182807825101
 20
14.51109822880988
 30
0.0
 11
16.409182807825101
 21
8.6600982288098791
 31
0.0
  0
LINE
  5
1CB
  8
BODY_-_SIDE_VENT
 10
16.449182807825089
 20
14.51109822880988
 30
0.0
 11
16.449182807825089
 21
8.6600982288098791
 31
0.0
  0
LINE
  5
1CD
  8
BODY_-_SIDE_VENT
 10
16.596682807825101
 20
14.311098228809881
 30
0.0
 11
16.596682807825101
 21
8.8600982288098784
 31
0.0
  0
ARC
  5
2FA
  8
BODY_-_SIDE_VENT
 10
10.242553584931949
 20
26.090732521094701
 30
0.0
 40
9.0869999999999997
 50
256.82999999999998
 51
283.17000000000002
  0
LINE
  5
2FB
  8
BODY_-_SIDE_VENT
 10
12.303831782410651
 20
17.281683696584821
 30
0.0
 11
12.312945425375091
 21
17.242735763238919
 31
0.0
  0
LINE
  5
2FD
  8
BODY_-_SIDE_VENT
 10
8.1812753874532405
 20
17.281683696584821
 30
0.0
 11
8.1721617444888182
 21
17.242735763238919
 31
0.0
  0
ARC
  5
2FE
  8
BODY_-_SIDE_VENT
 10
10.242553584931949
 20
26.090732521094701
 30
0.0
 40
9.0470000000000006
 50
256.82999999999998
 51
283.17000000000002
  0
ARC
  5
386
  8
BODY_-_SIDE_VENT
 10
10.242553584931949
 20
26.090732521094701
 30
0.0
 40
8.8994999999999997
 50
259.25
 51
280.75
  0
LINE
  5
387
  8
BODY_-_SIDE_VENT
 10
11.90252424339168
 20
17.347415206536532
 30
0.0
 11
11.93003653870298
 21
17.20250377287201
 31
0.0
  0
LINE
  5
388
  8
BODY_-_SIDE_VENT
 10
8.5825829264722273
 20
17.347415206536532
 30
0.0
 11
8.5550706311609304
 21
17.20250377287201
 31
0.0
  0
ARC
  5
79E
  8
DIMENSIONS
 10
10.242553584931949
 20
-4.6208551000147011
 30
0.0
 40
9.0869999999999997
 50
69.909207499037663
 51
76.163403539401131
  0
LINE
  5
79F
  8
BODY_-_SIDE_VENT
 10
12.303831782410651
 20
4.1881937244951803
 30
0.0
 11
12.312945425375091
 21
4.2271416578410816
 31
0.0
  0
LINE
  5
7A0
  8
BODY_-_SIDE_VENT
 10
8.1812753874532405
 20
4.1881937244951803
 30
0.0
 11
8.1721617444888182
 21
4.2271416578410816
 31
0.0
  0
ARC
  5
7A1
  8
BODY_-_SIDE_VENT
 10
10.242553584931949
 20
-4.6208551000147011
 30
0.0
 40
9.0470000000000006
 50
76.830000000000013
 51
79.25
  0
ARC
  5
7A2
  8
BODY_-_SIDE_VENT
 10
10.242553584931949
 20
-4.6208551000147011
 30
0.0
 40
8.8994999999999997
 50
79.250000000000014
 51
100.75
  0
LINE
  5
7A3
  8
BODY_-_SIDE_VENT
 10
11.90252424339168
 20
4.1224622145434706
 30
0.0
 11
11.93003653870298
 21
4.267373648207986
 31
0.0
  0
LINE
  5
7A4
  8
BODY_-_SIDE_VENT
 10
8.5825829264722273
 20
4.1224622145434706
 30
0.0
 11
8.5550706311609304
 21
4.267373648207986
 31
0.0
  0
LINE
  5
7A6
  8
BODY_-_SIDE_VENT
 10
10.4644366838195
 20
4.3383977645063139
 30
0.0
 11
10.467531460360551
 21
4.4633594480663614
 31
0.0
  0
LINE
  5
7A7
  8
BODY_-_SIDE_VENT
 10
10.020670486044409
 20
4.3383977645063139
 30
0.0
 11
10.01757570950336
 21
4.4633594480663614
 31
0.0
  0
ARC
  5
7A8
  8
BODY_-_SIDE_VENT
 10
10.242553584931949
 20
-4.6208551000147011
 30
0.0
 40
8.9619999999999997
 50
97.534799163000031
 51
100.372171233
  0
LINE
  5
7A9
  8
BODY_-_SIDE_VENT
 10
10.72065673642531
 20
4.3283829332779709
 30
0.0
 11
10.72732521376706
 21
4.4532049321801788
 31
0.0
  0
LINE
  5
7AA
  8
BODY_-_SIDE_VENT
 10
9.7644504334385971
 20
4.3283829332779709
 30
0.0
 11
9.7577819560968493
 21
4.4532049321801788
 31
0.0
  0
LINE
  5
7AB
  8
BODY_-_SIDE_VENT
 10
11.1630690477204
 20
4.2937450190465771
 30
0.0
 11
11.17590819443414
 21
4.4180838959582767
 31
0.0
  0
LINE
  5
7AC
  8
BODY_-_SIDE_VENT
 10
9.3220381221435105
 20
4.2937450190465771
 30
0.0
 11
9.3091989754297657
 21
4.4180838959582767
 31
0.0
  0
LINE
  5
7AD
  8
BODY_-_SIDE_VENT
 10
11.41772569659304
 20
4.2637616338671833
 30
0.0
 11
11.4341167380969
 21
4.3876823091333348
 31
0.0
  0
LINE
  5
7AE
  8
BODY_-_SIDE_VENT
 10
9.0673814732708706
 20
4.2637616338671833
 30
0.0
 11
9.0509904317670031
 21
4.3876823091333348
 31
0.0
  0
LINE
  5
7AF
  8
BODY_-_SIDE_VENT
 10
11.85608460959376
 20
4.1946971590586779
 30
0.0
 11
11.878589784563941
 21
4.3176545382579841
 31
0.0
  0
LINE
  5
7B0
  8
BODY_-_SIDE_VENT
 10
8.629022560270144
 20
4.1946971590586779
 30
0.0
 11
8.6065173852999663
 21
4.3176545382579841
 31
0.0
  0
ARC
  5
7B1
  8
DIMENSIONS
 10
10.242553584931949
 20
-4.6208551000147011
 30
0.0
 40
8.9619999999999997
 50
69.909207499037663
 51
79.393124024535993
  0
ARC
  5
7B2
  8
BODY_-_SIDE_VENT
 10
10.242553584931949
 20
-4.6208551000147011
 30
0.0
 40
8.9619999999999997
 50
84.104571366000016
 51
86.941943436000031
  0
ARC
  5
7B3
  8
BODY_-_SIDE_VENT
 10
10.242553584931949
 20
-4.6208551000147011
 30
0.0
 40
8.9619999999999997
 50
88.581313965000007
 51
91.418686035000022
  0
ARC
  5
7B4
  8
BODY_-_SIDE_VENT
 10
10.242553584931949
 20
-4.6208551000147011
 30
0.0
 40
8.9619999999999997
 50
93.058056564000054
 51
95.895428634000069
  0
ARC
  5
7B5
  8
BODY_-_SIDE_VENT
 10
10.242553584931949
 20
-4.6208551000147011
 30
0.0
 40
9.0470000000000006
 50
100.75
 51
103.17
  0
LINE
  5
7E1
  8
DIMENSIONS
 10
8.5952647978148633
 20
4.379133227857638
 30
0.0
 11
8.1902350282519336
 21
6.592019776358196
 31
0.0
  0
LINE
  5
7E2
  8
DIMENSIONS
 10
8.1579216773569101
 20
4.2879978036940569
 30
0.0
 11
7.6453594674080838
 21
6.4784762837753638
 31
0.0
  0
ARC
  5
7E3
  8
DIMENSIONS
 10
10.24255358493201
 20
-4.6208551000148503
 30
0.0
 40
11.33664797040951
 50
97.844950463208292
 51
100.3721712330002
  0
LINE
  5
7E4
  8
DIMENSIONS
 10
8.6951826980088356
 20
6.6096938867129431
 30
0.0
 11
8.9451826980088356
 21
6.6096938867129431
 31
0.0
  0
ARC
  5
7E5
  8
DIMENSIONS
 10
10.24255358493201
 20
-4.6208551000148503
 30
0.0
 40
11.33664797040951
 50
97.845104118493921
 51
99.108637675747076
  0
ARC
  5
7E6
  8
DIMENSIONS
 10
10.24255358493201
 20
-4.6208551000148503
 30
0.0
 40
11.33664797040951
 50
104.4335335572532
 51
105.6970671145064
  0
SOLID
  5
7E7
  8
DIMENSIONS
 10
8.4549330693915437
 20
6.5317711814545456
 30
0.0
 11
8.4408343655088203
 21
6.6139032153589339
 31
0.0
 12
8.2014876157370082
 22
6.5305410867585421
 32
0.0
 13
8.2014876157370082
 23
6.5305410867585421
 33
0.0
  0
SOLID
  5
7E8
  8
DIMENSIONS
 10
7.406877661727691
 20
6.3984429088901944
 30
0.0
 11
7.426757945349606
 21
6.3175156652230804
 31
0.0
 12
7.6595995345399919
 22
6.4176201379223867
 32
0.0
 13
7.6595995345399919
 23
6.4176201379223867
 33
0.0
  0
LINE
  5
7FD
  8
DIMENSIONS
 10
9.0427949110150632
 20
4.4496426467664101
 30
0.0
 11
8.8469084398950457
 21
5.9305969699541503
 31
0.0
  0
LINE
  5
7FE
  8
DIMENSIONS
 10
8.5952647978148775
 20
4.379133227857638
 30
0.0
 11
8.3263093866649722
 21
5.8485753681780732
 31
0.0
  0
ARC
  5
7FF
  8
DIMENSIONS
 10
10.24255358493201
 20
-4.6208551000149827
 30
0.0
 40
10.580853144367669
 50
94.827025456691317
 51
97.534799163000116
  0
LINE
  5
800
  8
DIMENSIONS
 10
9.3521974046658443
 20
5.922470709943517
 30
0.0
 11
9.6021974046658443
 21
5.922470709943517
 31
0.0
  0
ARC
  5
801
  8
DIMENSIONS
 10
10.24255358493201
 20
-4.6208551000149827
 30
0.0
 40
10.580853144367669
 50
94.827214454605638
 51
96.181006808802906
  0
ARC
  5
802
  8
DIMENSIONS
 10
10.24255358493201
 20
-4.6208551000149827
 30
0.0
 40
10.580853144367669
 50
101.7259635871973
 51
103.0797559413945
  0
SOLID
  5
803
  8
DIMENSIONS
 10
9.1082906043998264
 20
5.8571199254880124
 30
0.0
 11
9.0983399880347093
 21
5.939857037344777
 31
0.0
 12
8.8551039606469715
 22
5.8686366323210741
 32
0.0
 13
8.8551039606469715
 23
5.8686366323210741
 33
0.0
  0
SOLID
  5
804
  8
DIMENSIONS
 10
8.0842107207795237
 20
5.7800785928928056
 30
0.0
 11
8.1001815190219162
 21
5.6982899748096933
 31
0.0
 12
8.3375619741500628
 22
5.787096678578421
 32
0.0
 13
8.3375619741500628
 23
5.787096678578421
 33
0.0
  0
LINE
  5
819
  8
DIMENSIONS
 10
9.3027794020729004
 20
4.4802533344141269
 30
0.0
 11
9.2250455161353813
 21
5.233056016005559
 31
0.0
  0
LINE
  5
81A
  8
DIMENSIONS
 10
9.0427949110150632
 20
4.4496426467664101
 30
0.0
 11
8.9435562794248256
 21
5.1999133502023671
 31
0.0
  0
ARC
  5
81B
  8
DIMENSIONS
 10
10.242553584932271
 20
-4.6208551000168869
 30
0.0
 40
9.8438054138532163
 50
92.984870262146814
 51
95.895428634000623
  0
LINE
  5
81C
  8
DIMENSIONS
 10
9.7299644631623181
 20
5.209595419570145
 30
0.0
 11
9.9799644631623181
 21
5.209595419570145
 31
0.0
  0
ARC
  5
81D
  8
DIMENSIONS
 10
10.242553584932271
 20
-4.620855100016886
 30
0.0
 40
9.8438054138532163
 50
92.985104982746847
 51
94.440266808373707
  0
ARC
  5
81E
  8
DIMENSIONS
 10
10.242553584932271
 20
-4.620855100016886
 30
0.0
 40
9.8438054138532163
 50
98.989960988627104
 51
100.44512281425401
  0
SOLID
  5
81F
  8
DIMENSIONS
 10
9.4842019362081658
 20
5.1519077097433827
 30
0.0
 11
9.4766957935120644
 21
5.2349023015326699
 31
0.0
 12
9.2314650894922607
 22
5.1708865775497079
 32
0.0
 13
9.2314650894922607
 23
5.1708865775497079
 33
0.0
  0
SOLID
  5
820
  8
DIMENSIONS
 10
8.6983589414845426
 20
5.1432605802700504
 30
0.0
 11
8.7103344794568471
 21
5.0607922170346953
 31
0.0
 12
8.9517518001767513
 22
5.1379530125692918
 32
0.0
 13
8.9517518001767513
 23
5.1379530125692918
 33
0.0
  0
TEXT
  5
823
  8
DIMENSIONS
 10
9.7174025966375268
 20
5.7851623068390259
 30
0.0
 40
0.25
  1
0.450, 5-PLACES
  0
TEXT
  5
824
  8
DIMENSIONS
 10
10.084342688554941
 20
5.0901474000372096
 30
0.0
 40
0.25
  1
0.260, 4-PLACES
  0
TEXT
  5
825
  8
DIMENSIONS
 10
9.0641400499597609
 20
6.5041774949436819
 30
0.0
 40
0.25
  1
0.444, 2-PLACES
  0
LINE
  5
837
  8
DIMENSIONS
 10
8.1579216773569101
 20
17.181879617385938
 30
0.0
 11
7.9891136125428233
 21
16.46046390225484
 31
0.0
  0
LINE
  5
838
  8
DIMENSIONS
 10
12.327185492507001
 20
17.181879617385938
 30
0.0
 11
12.49599355732108
 21
16.46046390225488
 31
0.0
  0
ARC
  5
839
  8
DIMENSIONS
 10
10.24255358493185
 20
26.090732521094221
 30
0.0
 40
9.827902690495625
 50
258.28751657858533
 51
266.34232457562439
  0
ARC
  5
83A
  8
DIMENSIONS
 10
10.24255358493185
 20
26.090732521094221
 30
0.0
 40
9.827902690495625
 50
273.19215856910841
 51
281.71248342141593
  0
SOLID
  5
83B
  8
DIMENSIONS
 10
8.2385064490343751
 20
16.426772249753739
 30
0.0
 11
8.2564596393459908
 21
16.50814870459223
 31
0.0
 12
8.0033536796747313
 22
16.521320048107821
 32
0.0
 13
8.0033536796747313
 23
16.521320048107821
 33
0.0
  0
SOLID
  5
83C
  8
DIMENSIONS
 10
12.22864753051792
 20
16.508148704592259
 30
0.0
 11
12.24660072082953
 21
16.426772249753789
 31
0.0
 12
12.48175349018916
 22
16.52132004810786
 32
0.0
 13
12.48175349018916
 23
16.52132004810786
 33
0.0
  0
LINE
  5
850
  8
DIMENSIONS
 10
11.890866491141139
 20
4.0610590646856268
 30
0.0
 11
11.75123119262342
 21
3.3255787614455641
 31
0.0
  0
LINE
  5
851
  8
DIMENSIONS
 10
8.5942406787227696
 20
4.0610590646856268
 30
0.0
 11
8.733875977240487
 21
3.3255787614455641
 31
0.0
  0
ARC
  5
852
  8
DIMENSIONS
 10
10.242553584931949
 20
-4.6208551000149072
 30
0.0
 40
8.1508817441139119
 50
81.007418013389341
 51
86.402107444110314
  0
ARC
  5
853
  8
DIMENSIONS
 10
10.242553584931949
 20
-4.6208551000149072
 30
0.0
 40
8.1508817441139119
 50
94.201103666744231
 51
98.992581986610645
  0
SOLID
  5
854
  8
DIMENSIONS
 10
11.52373325198454
 20
3.4708905858829122
 30
0.0
 11
11.50944696254737
 21
3.3887909733469099
 31
0.0
 12
11.762888944873961
 22
3.3869819113034079
 32
0.0
 13
11.762888944873961
 23
3.3869819113034079
 33
0.0
  0
SOLID
  5
855
  8
DIMENSIONS
 10
8.9756602073165368
 20
3.388790973346909
 30
0.0
 11
8.9613739178793708
 21
3.4708905858829122
 31
0.0
 12
8.7222182249899447
 22
3.3869819113034079
 32
0.0
 13
8.7222182249899447
 23
3.3869819113034079
 33
0.0
  0
LINE
  5
896
  8
DIMENSIONS
 10
21.237745544688082
 20
14.311098228809881
 30
0.0
 11
20.103745544688071
 21
14.311098228809881
 31
0.0
  0
LINE
  5
897
  8
DIMENSIONS
 10
21.237745544688082
 20
8.8600982288098784
 30
0.0
 11
20.103745544688071
 21
8.8600982288098784
 31
0.0
  0
LINE
  5
898
  8
DIMENSIONS
 10
20.166245544688071
 20
14.061098228809881
 30
0.0
 11
20.166245544688071
 21
11.77309822880988
 31
0.0
  0
LINE
  5
899
  8
DIMENSIONS
 10
20.166245544688071
 20
9.1100982288098784
 30
0.0
 11
20.166245544688071
 21
11.39809822880988
 31
0.0
  0
SOLID
  5
89A
  8
DIMENSIONS
 10
20.12457887802141
 20
14.061098228809881
 30
0.0
 11
20.207912211354738
 21
14.061098228809881
 31
0.0
 12
20.166245544688071
 22
14.311098228809881
 32
0.0
 13
20.166245544688071
 23
14.311098228809881
 33
0.0
  0
SOLID
  5
89B
  8
DIMENSIONS
 10
20.12457887802141
 20
9.1100982288098784
 30
0.0
 11
20.207912211354738
 21
9.1100982288098784
 31
0.0
 12
20.166245544688071
 22
8.8600982288098784
 32
0.0
 13
20.166245544688071
 23
8.8600982288098784
 33
0.0
  0
INSERT
  5
89C
  8
0
  2
*U0
 10
0.0
 20
0.0
 30
0.0
  0
LINE
  5
89D
  8
DIMENSIONS
 10
8.0910535849319558
 20
8.6600982288098773
 30
0.0
 11
7.3410535849319549
 21
8.6600982288098773
 31
0.0
  0
LINE
  5
89E
  8
DIMENSIONS
 10
8.0910535849319558
 20
14.51109822880988
 30
0.0
 11
7.3410535849319549
 21
14.51109822880988
 31
0.0
  0
LINE
  5
89F
  8
DIMENSIONS
 10
7.4035535849319549
 20
8.9100982288098773
 30
0.0
 11
7.4035535849319549
 21
11.39809822880988
 31
0.0
  0
LINE
  5
8A0
  8
DIMENSIONS
 10
7.4035535849319549
 20
14.26109822880988
 30
0.0
 11
7.4035535849319549
 21
11.77309822880988
 31
0.0
  0
SOLID
  5
8A1
  8
DIMENSIONS
 10
7.3618869182652844
 20
8.9100982288098773
 30
0.0
 11
7.4452202515986272
 21
8.9100982288098773
 31
0.0
 12
7.4035535849319549
 22
8.6600982288098773
 32
0.0
 13
7.4035535849319549
 23
8.6600982288098773
 33
0.0
  0
SOLID
  5
8A2
  8
DIMENSIONS
 10
7.3618869182652844
 20
14.26109822880988
 30
0.0
 11
7.4452202515986272
 21
14.26109822880988
 31
0.0
 12
7.4035535849319549
 22
14.51109822880988
 32
0.0
 13
7.4035535849319549
 23
14.51109822880988
 33
0.0
  0
INSERT
  5
8A3
  8
0
  2
*U1
 10
0.0
 20
0.0
 30
0.0
  0
LINE
  5
8AB
  8
DIMENSIONS
 10
11.95005358493195
 20
8.9200982288098771
 30
0.0
 11
13.14405358493195
 21
8.9200982288098771
 31
0.0
  0
LINE
  5
8AC
  8
DIMENSIONS
 10
11.95005358493195
 20
14.25109822880988
 30
0.0
 11
13.14405358493195
 21
14.25109822880988
 31
0.0
  0
LINE
  5
8AD
  8
DIMENSIONS
 10
13.08155358493195
 20
9.1700982288098771
 30
0.0
 11
13.08155358493195
 21
11.39809822880987
 31
0.0
  0
LINE
  5
8AE
  8
DIMENSIONS
 10
13.08155358493195
 20
14.00109822880988
 30
0.0
 11
13.08155358493195
 21
11.77309822880988
 31
0.0
  0
SOLID
  5
8AF
  8
DIMENSIONS
 10
13.039886918265291
 20
9.1700982288098771
 30
0.0
 11
13.123220251598619
 21
9.1700982288098771
 31
0.0
 12
13.08155358493195
 22
8.9200982288098771
 32
0.0
 13
13.08155358493195
 23
8.9200982288098771
 33
0.0
  0
SOLID
  5
8B0
  8
DIMENSIONS
 10
13.039886918265291
 20
14.00109822880988
 30
0.0
 11
13.123220251598619
 21
14.00109822880988
 31
0.0
 12
13.08155358493195
 22
14.25109822880988
 32
0.0
 13
13.08155358493195
 23
14.25109822880988
 33
0.0
  0
INSERT
  5
8B1
  8
0
  2
*U2
 10
0.0
 20
0.0
 30
0.0
  0
LINE
  5
8C3
  8
DIMENSIONS
 10
16.409182807825101
 20
8.5975982288098791
 30
0.0
 11
16.409182807825101
 21
7.8475982288098773
 31
0.0
  0
LINE
  5
8C4
  8
DIMENSIONS
 10
16.449182807825089
 20
8.5975982288098791
 30
0.0
 11
16.449182807825089
 21
7.8475982288098773
 31
0.0
  0
LINE
  5
8C5
  8
DIMENSIONS
 10
16.159182807825101
 20
7.9100982288098773
 30
0.0
 11
15.909182807825101
 21
7.9100982288098773
 31
0.0
  0
LINE
  5
8C6
  8
DIMENSIONS
 10
16.699182807825089
 20
7.9100982288098773
 30
0.0
 11
16.949182807825089
 21
7.9100982288098773
 31
0.0
  0
SOLID
  5
8C7
  8
DIMENSIONS
 10
16.159182807825101
 20
7.9517648954765434
 30
0.0
 11
16.159182807825101
 21
7.8684315621432113
 31
0.0
 12
16.409182807825101
 22
7.9100982288098773
 32
0.0
 13
16.409182807825101
 23
7.9100982288098773
 33
0.0
  0
SOLID
  5
8C8
  8
DIMENSIONS
 10
16.699182807825089
 20
7.9517648954765434
 30
0.0
 11
16.699182807825089
 21
7.8684315621432113
 31
0.0
 12
16.449182807825089
 22
7.9100982288098773
 32
0.0
 13
16.449182807825089
 23
7.9100982288098773
 33
0.0
  0
TEXT
  5
8CA
  8
DIMENSIONS
 10
17.011682807825089
 20
7.7850982288098773
 30
0.0
 40
0.25
  1
0.040
  0
ARC
  5
8CC
  8
BODY_-_SIDE_VENT
 10
10.242553584931949
 20
-4.6208551000147011
 30
0.0
 40
9.0869999999999997
 50
76.830000000000013
 51
103.17
  0
ARC
  5
8CD
  8
BODY_-_SIDE_VENT
 10
10.242553584931949
 20
-4.6208551000147011
 30
0.0
 40
8.9619999999999997
 50
79.627828767000011
 51
82.465200837000026
  0
LINE
  5
8D0
  8
DIMENSIONS
 10
13.304922946746681
 20
3.9345795991585919
 30
0.0
 11
13.485211441337849
 21
4.4382570659332021
 31
0.0
  0
SOLID
  5
8D1
  8
DIMENSIONS
 10
13.434272948380849
 20
4.1525353015119641
 30
0.0
 11
13.356592720502229
 21
4.182705264076918
 31
0.0
 12
13.304922946746681
 22
3.9345795991585941
 32
0.0
 13
13.304922946746681
 23
3.9345795991585941
 33
0.0
  0
SOLID
  5
8D2
  8
DIMENSIONS
 10
13.138248771394879
 20
3.596157114265881
 30
0.0
 11
13.216570738672971
 21
3.567694614619243
 31
0.0
 12
13.26279725397384
 22
3.8168917662768211
 32
0.0
 13
13.26279725397384
 23
3.8168917662768211
 33
0.0
  0
LINE
  5
8D3
  8
DIMENSIONS
 10
13.08261756503529
 20
3.3135182731728809
 30
0.0
 11
13.26279725397384
 21
3.8168917662768189
 31
0.0
  0
LINE
  5
8D4
  8
DIMENSIONS
 10
13.485211441337849
 20
4.4382570659332021
 30
0.0
 11
13.735211441337849
 21
4.4382570659332021
 31
0.0
  0
TEXT
  5
8D5
  8
DIMENSIONS
 10
13.83958966673049
 20
4.3188090464002657
 30
0.0
 40
0.25
  1
0.125 DEEP, 5-PLACES
  0
LINE
  5
8D6
  8
DIMENSIONS
 10
9.5782535022333093
 20
18.094816084973591
 30
0.0
 11
9.4901983845062006
 21
17.03493158178556
 31
0.0
  0
SOLID
  5
8D7
  8
DIMENSIONS
 10
9.5545012271456216
 20
17.280087155941249
 30
0.0
 11
9.4715154818713785
 21
17.287690479275351
 31
0.0
 12
9.4901983845062006
 22
17.034931581785571
 32
0.0
 13
9.4901983845062006
 23
17.034931581785571
 33
0.0
  0
LINE
  5
8D8
  8
DIMENSIONS
 10
9.5782535022333093
 20
18.094816084973591
 30
0.0
 11
9.8282535022333093
 21
18.094816084973591
 31
0.0
  0
TEXT
  5
8D9
  8
DIMENSIONS
 10
9.9326317276259442
 20
17.975368065440652
 30
0.0
 40
0.25
  1
R 9.087
  0
LINE
  5
A35
  8
DIMENSIONS
 10
11.95005358493195
 20
14.25109822880988
 30
0.0
 11
13.14405358493195
 21
14.25109822880988
 31
0.0
  0
LINE
  5
A36
  8
DIMENSIONS
 10
12.39405358493195
 20
14.51109822880988
 30
0.0
 11
13.14405358493195
 21
14.51109822880988
 31
0.0
  0
LINE
  5
A37
  8
DIMENSIONS
 10
13.08155358493195
 20
14.00109822880988
 30
0.0
 11
13.08155358493195
 21
13.75109822880987
 31
0.0
  0
LINE
  5
A38
  8
DIMENSIONS
 10
13.08155358493195
 20
14.76109822880988
 30
0.0
 11
13.08155358493195
 21
15.011098228809869
 31
0.0
  0
LINE
  5
A39
  8
DIMENSIONS
 10
13.08155358493195
 20
15.011098228809869
 30
0.0
 11
13.33155358493195
 21
15.011098228809869
 31
0.0
  0
SOLID
  5
A3A
  8
DIMENSIONS
 10
13.039886918265291
 20
14.00109822880988
 30
0.0
 11
13.123220251598619
 21
14.00109822880988
 31
0.0
 12
13.08155358493195
 22
14.25109822880988
 32
0.0
 13
13.08155358493195
 23
14.25109822880988
 33
0.0
  0
SOLID
  5
A3B
  8
DIMENSIONS
 10
13.039886918265291
 20
14.76109822880988
 30
0.0
 11
13.123220251598619
 21
14.76109822880988
 31
0.0
 12
13.08155358493195
 22
14.51109822880988
 32
0.0
 13
13.08155358493195
 23
14.51109822880988
 33
0.0
  0
LINE
  5
A3D
  8
DIMENSIONS
 10
21.237745544688071
 20
14.311098228809881
 30
0.0
 11
20.103745544688071
 21
14.311098228809881
 31
0.0
  0
LINE
  5
A3E
  8
DIMENSIONS
 10
20.853745544688071
 20
14.51109822880988
 30
0.0
 11
20.103745544688071
 21
14.51109822880988
 31
0.0
  0
LINE
  5
A3F
  8
DIMENSIONS
 10
20.166245544688071
 20
14.061098228809881
 30
0.0
 11
20.166245544688071
 21
13.811098228809881
 31
0.0
  0
LINE
  5
A40
  8
DIMENSIONS
 10
20.166245544688071
 20
14.76109822880988
 30
0.0
 11
20.166245544688081
 21
15.01109822880988
 31
0.0
  0
LINE
  5
A41
  8
DIMENSIONS
 10
19.916245544688081
 20
15.01109822880988
 30
0.0
 11
20.166245544688081
 21
15.01109822880988
 31
0.0
  0
SOLID
  5
A42
  8
DIMENSIONS
 10
20.12457887802141
 20
14.061098228809881
 30
0.0
 11
20.207912211354738
 21
14.061098228809881
 31
0.0
 12
20.166245544688071
 22
14.311098228809881
 32
0.0
 13
20.166245544688071
 23
14.311098228809881
 33
0.0
  0
SOLID
  5
A43
  8
DIMENSIONS
 10
20.12457887802141
 20
14.76109822880988
 30
0.0
 11
20.207912211354738
 21
14.76109822880988
 31
0.0
 12
20.166245544688071
 22
14.51109822880988
 32
0.0
 13
20.166245544688071
 23
14.51109822880988
 33
0.0
  0
TEXT
  5
A45
  8
DIMENSIONS
 10
18.839284632438471
 20
14.88609822880988
 30
0.0
 40
0.25
  1
0.200
  0
TEXT
  5
A46
  8
DIMENSIONS
 10
13.39405358493195
 20
14.88609822880988
 30
0.0
 40
0.25
  1
0.260
  0
LINE
  5
A85
  8
BODY_-_SIDE_VENT
 10
8.1796569220658171
 20
4.1951103748707057
 30
0.0
 11
8.2235573052239204
 21
4.239010758028809
 31
0.0
  0
LINE
  5
A86
  8
BODY_-_SIDE_VENT
 10
8.3412249902926874
 20
4.2240959216251071
 30
0.0
 11
8.3930699890506872
 21
4.2759409203830963
 31
0.0
  0
LINE
  5
A87
  8
BODY_-_SIDE_VENT
 10
8.5080240315329121
 20
4.2583124413928441
 30
0.0
 11
8.5584309442077
 21
4.3087193540676418
 31
0.0
  0
LINE
  5
A88
  8
BODY_-_SIDE_VENT
 10
8.5701647493240358
 20
4.1878706377114874
 30
0.0
 11
8.6209725622274647
 21
4.2386784506149162
 31
0.0
  0
LINE
  5
A89
  8
BODY_-_SIDE_VENT
 10
8.6498404649203167
 20
4.1349638318352913
 30
0.0
 11
8.7269339060669608
 21
4.2120572729819372
 31
0.0
  0
LINE
  5
A8A
  8
BODY_-_SIDE_VENT
 10
8.8100575536080186
 20
4.1625983990505233
 30
0.0
 11
8.8852208711914074
 21
4.2377617166339148
 31
0.0
  0
LINE
  5
A8B
  8
BODY_-_SIDE_VENT
 10
8.9667667287995698
 20
4.1867250527695941
 30
0.0
 11
9.0401603066576968
 21
4.2601186306277219
 31
0.0
  0
LINE
  5
A8C
  8
BODY_-_SIDE_VENT
 10
9.0646271013385729
 20
4.2845854253085998
 30
0.0
 11
9.1843625105998115
 21
4.404320834569833
 31
0.0
  0
LINE
  5
A8D
  8
BODY_-_SIDE_VENT
 10
9.1202149543990032
 20
4.207590756896546
 30
0.0
 11
9.3112121165640644
 21
4.3985879190616179
 31
0.0
  0
LINE
  5
A8E
  8
BODY_-_SIDE_VENT
 10
9.2706187990791591
 20
4.2254120801042241
 30
0.0
 11
9.3408769042688675
 21
4.2956701852939387
 31
0.0
  0
LINE
  5
A8F
  8
BODY_-_SIDE_VENT
 10
9.4181694398312317
 20
4.2403801993838259
 30
0.0
 11
9.4870309817974601
 21
4.3092417413500561
 31
0.0
  0
LINE
  5
A90
  8
BODY_-_SIDE_VENT
 10
9.5630366503674935
 20
4.2526648884476037
 30
0.0
 11
9.6305991326303086
 21
4.320227370710426
 31
0.0
  0
LINE
  5
A91
  8
BODY_-_SIDE_VENT
 10
9.7580758334952691
 20
4.4477040715753873
 30
0.0
 11
9.7639015576882286
 21
4.4535297957683406
 31
0.0
  0
LINE
  5
A92
  8
BODY_-_SIDE_VENT
 10
9.7053720155922463
 20
4.2624177321998822
 30
0.0
 11
9.9027433227384734
 21
4.4597890393461164
 31
0.0
  0
LINE
  5
A93
  8
BODY_-_SIDE_VENT
 10
9.8453115483642364
 20
4.2697747434993953
 30
0.0
 11
10.018090969081751
 21
4.4425541642169133
 31
0.0
  0
LINE
  5
A94
  8
BODY_-_SIDE_VENT
 10
9.9829778391939641
 20
4.2748585128566416
 30
0.0
 11
10.04713336245667
 21
4.3390140361193579
 31
0.0
  0
LINE
  5
A95
  8
BODY_-_SIDE_VENT
 10
10.118481837030551
 20
4.277779989220762
 30
0.0
 11
10.181639732605371
 21
4.3409378847955766
 31
0.0
  0
LINE
  5
A96
  8
BODY_-_SIDE_VENT
 10
10.25192433578839
 20
4.2786399665061161
 30
0.0
 11
10.314143330114669
 21
4.3408589608323993
 31
0.0
  0
LINE
  5
A97
  8
BODY_-_SIDE_VENT
 10
10.383397224026609
 20
4.2775303332718631
 30
0.0
 11
10.444730999129799
 21
4.3388641083750477
 31
0.0
  0
LINE
  5
A98
  8
BODY_-_SIDE_VENT
 10
10.464948946929271
 20
4.3590820561745209
 30
0.0
 11
10.566244801531919
 21
4.4603779107771722
 31
0.0
  0
LINE
  5
A99
  8
BODY_-_SIDE_VENT
 10
10.512984542396079
 20
4.2745351301688501
 30
0.0
 11
10.6934030245424
 21
4.4549536123151787
 31
0.0
  0
LINE
  5
A9A
  8
BODY_-_SIDE_VENT
 10
10.640763383853811
 20
4.2697314501541088
 30
0.0
 11
10.72185560822564
 21
4.3508236745259277
 31
0.0
  0
LINE
  5
A9B
  8
BODY_-_SIDE_VENT
 10
10.76680466434699
 20
4.263190209174808
 30
0.0
 11
10.82576282083695
 21
4.3221483656647726
 31
0.0
  0
LINE
  5
A9C
  8
BODY_-_SIDE_VENT
 10
10.891173786072191
 20
4.2549768094275207
 30
0.0
 11
10.94942165734612
 21
4.3132246807014658
 31
0.0
  0
LINE
  5
A9D
  8
BODY_-_SIDE_VENT
 10
11.01393121108589
 20
4.245151712968755
 30
0.0
 11
11.071504630500771
 21
4.3027251323836326
 31
0.0
  0
LINE
  5
A9E
  8
BODY_-_SIDE_VENT
 10
11.17464670783481
 20
4.4058672097176759
 30
0.0
 11
11.185833052541581
 21
4.417053554424446
 31
0.0
  0
LINE
  5
A9F
  8
BODY_-_SIDE_VENT
 10
11.13513295966294
 20
4.233770940073315
 30
0.0
 11
11.30516363748964
 21
4.4038016179000223
 31
0.0
  0
LINE
  5
AA0
  8
BODY_-_SIDE_VENT
 10
11.25483104514063
 20
4.2208865040785444
 30
0.0
 11
11.42307982880709
 21
4.3891352877449927
 31
0.0
  0
LINE
  5
AA1
  8
BODY_-_SIDE_VENT
 10
11.37307385487966
 20
4.2065467923450948
 30
0.0
 11
11.428814882355949
 21
4.2622878198213794
 31
0.0
  0
LINE
  5
AA2
  8
BODY_-_SIDE_VENT
 10
11.489906485289779
 20
4.1907969012827211
 30
0.0
 11
11.545093481997871
 21
4.2459838979908158
 31
0.0
  0
LINE
  5
AA3
  8
BODY_-_SIDE_VENT
 10
11.60537103751728
 20
4.1736789320377516
 30
0.0
 11
11.6600294135486
 21
4.2283373080690723
 31
0.0
  0
LINE
  5
AA4
  8
BODY_-_SIDE_VENT
 10
11.719506879297789
 20
4.1552322523457921
 30
0.0
 11
11.773660498662119
 21
4.209385871710114
 31
0.0
  0
LINE
  5
AA5
  8
BODY_-_SIDE_VENT
 10
11.87784163427388
 20
4.3135670073218746
 30
0.0
 11
11.881412125123971
 21
4.3171374981719657
 31
0.0
  0
LINE
  5
AA6
  8
BODY_-_SIDE_VENT
 10
11.83235087758861
 20
4.135493729164132
 30
0.0
 11
11.92202317050196
 21
4.2251660220774774
 31
0.0
  0
LINE
  5
AA7
  8
BODY_-_SIDE_VENT
 10
11.9587343235773
 20
4.2618771751528177
 30
0.0
 11
11.9928431597217
 21
4.2959860112972139
 31
0.0
  0
LINE
  5
AA8
  8
BODY_-_SIDE_VENT
 10
12.06924987567997
 20
4.2398102057830167
 30
0.0
 11
12.10307821025199
 21
4.2736385403550354
 31
0.0
  0
LINE
  5
AA9
  8
BODY_-_SIDE_VENT
 10
12.17858667392164
 20
4.2165644825522044
 30
0.0
 11
12.21214636533484
 21
4.2501241739654141
 31
0.0
  0
LINE
  5
AAA
  8
BODY_-_SIDE_VENT
 10
12.28677275869584
 20
4.1921680458539221
 30
0.0
 11
12.31025695273973
 21
4.2156522398978167
 31
0.0
  0
TEXT
  5
E7D
  8
0
  6
CONTINUOUS
 10
85.177106963197176
 20
17.186760945508599
 30
0.0
 40
0.12
  1
 
 51
7.0
  0
TEXT
  5
E7E
  8
0
  6
CONTINUOUS
 10
97.621203728677074
 20
24.249635375240249
 30
0.0
 40
0.24
  1
 
 51
7.0
  0
TEXT
  5
E7F
  8
0
  6
CONTINUOUS
 10
106.83096874059029
 20
23.929625388663169
 30
0.0
 40
0.24
  1
 
 51
7.0
  0
TEXT
  5
E80
  8
0
  6
CONTINUOUS
 10
116.634928225023
 20
7.067044589135846
 30
0.0
 40
0.24
  1
 
 51
7.0
  0
LINE
  5
F34
  8
0
 10
0.0
 20
0.0
 30
0.0
 11
0.0
 21
22.0
 31
0.0
  0
LINE
  5
F35
  8
0
 10
34.000000000000021
 20
0.0
 30
0.0
 11
34.000000000000021
 21
22.0
 31
0.0
  0
LINE
  5
F36
  8
0
 10
0.0
 20
0.0
 30
0.0
 11
34.000000000000021
 21
0.0
 31
0.0
  0
LINE
  5
F37
  8
0
 10
0.0
 20
22.0
 30
0.0
 11
34.000000000000021
 21
22.0
 31
0.0
  0
LINE
  5
F40
  8
FORM
 10
33.206043934486686
 20
1.0357142851924259
 30
0.0
 11
33.206043945445927
 21
19.714285714807591
 31
0.0
  0
LINE
  5
F41
  8
FORM
 10
32.964285703848262
 20
19.956043956405239
 30
0.0
 11
1.035714296151709
 21
19.956043956405239
 31
0.0
  0
LINE
  5
F42
  8
FORM
 10
32.964285692889021
 20
0.7939560435947755
 30
0.0
 11
1.035714285192469
 21
0.7939560435947614
 31
0.0
  0
LINE
  5
F43
  8
FORM
 10
0.7939560435947897
 20
1.0357142851924259
 30
0.0
 11
0.7939560545540303
 21
19.714285714807591
 31
0.0
  0
TEXT
  5
F44
  8
FORM
 10
28.231566096333989
 20
4.0536532274815249
 30
0.0
 40
0.4093835848929225
  1
SIDE VENT
 72
     1
 11
29.81061706663526
 21
4.0536532274815249
 31
0.0
  0
TEXT
  5
F45
  8
FORM
 10
29.030838809696359
 20
3.1874958257686319
 30
0.0
 40
0.4093835848929225
  1
BODY
 72
     1
 11
29.81061706663526
 21
3.1874958257686319
 31
0.0
  0
TEXT
  5
F46
  8
FORM
 10
25.912203021765141
 20
1.613626590543553
 30
0.0
 40
0.4093835848929225
  1
ASTROMECH DROID
  0
TEXT
  5
F47
  8
FORM
 10
32.347029168681523
 20
1.629541916129529
 30
0.0
 40
0.4093835848929225
  1
A
  0
TEXT
  5
F48
  8
FORM
 10
26.68558038960462
 20
1.1357693648593949
 30
0.0
 40
0.163753433957169
  1
FULL
  0
TEXT
  5
F49
  8
FORM
 10
31.93229799841491
 20
1.1403529155076271
 30
0.0
 40
0.163753433957169
  1
1   1
  0
TEXT
  5
F4A
  8
FORM
 10
29.220158339364279
 20
1.1530027358700321
 30
0.0
 40
0.163753433957169
  1
APRIL 2005
 72
     2
 11
30.63935476699308
 21
1.1530027358700321
 31
0.0
  0
TEXT
  5
F4B
  8
FORM
  6
CONTINUOUS
 10
28.043872435619381
 20
1.1513552031508809
 30
0.0
 40
0.141482966938994
  1
DRAWN:
  0
TEXT
  5
F4C
  8
FORM
  6
CONTINUOUS
 10
25.853861623647109
 20
1.1514878800310051
 30
0.0
 40
0.141482966938994
  1
SCALE:
  0
TEXT
  5
F4D
  8
FORM
  6
CONTINUOUS
 10
31.028217786432339
 20
1.149714847860408
 30
0.0
 40
0.141482966938994
  1
SHEET:   OF
  0
TEXT
  5
F4E
  8
FORM
  6
CONTINUOUS
 10
25.595495553832741
 20
2.273690245908635
 30
0.0
 40
0.141482966938994
  1
DRAWING NO.
  0
TEXT
  5
F4F
  8
FORM
  6
CONTINUOUS
 10
32.29220433951339
 20
2.2736902459086181
 30
0.0
 40
0.141482966938994
  1
REV.
 72
     1
 11
32.501060147851909
 21
2.2736902459086181
 31
0.0
  0
LINE
  5
F50
  8
FORM
  6
CONTINUOUS
 10
25.819395862469861
 20
5.138720326423253
 30
0.0
 11
32.610578275541563
 21
5.138720326423253
 31
0.0
  0
LINE
  5
F51
  8
FORM
  6
CONTINUOUS
 10
25.465688445122371
 20
1.3894217025399089
 30
0.0
 11
25.46568844512235
 21
4.785012909075756
 31
0.0
  0
LINE
  5
F52
  8
FORM
  6
CONTINUOUS
 10
25.465688445122371
 20
2.485914696317109
 30
0.0
 11
32.964285692889021
 21
2.485914696317109
 31
0.0
  0
LINE
  5
F53
  8
FORM
  6
CONTINUOUS
 10
25.465688445122371
 20
1.3894217025399089
 30
0.0
 11
32.964285692889021
 21
1.3894217025399089
 31
0.0
  0
LINE
  5
F54
  8
FORM
  6
CONTINUOUS
 10
27.822638018564248
 20
1.3894217025399089
 30
0.0
 11
27.822638018564248
 21
1.0357142851924259
 31
0.0
  0
LINE
  5
F55
  8
FORM
  6
CONTINUOUS
 10
30.922105561228079
 20
1.385067481860591
 30
0.0
 11
30.922105561228079
 21
1.031360064513112
 31
0.0
  0
LINE
  5
F56
  8
FORM
  6
CONTINUOUS
 10
32.02967485602106
 20
2.485914696317109
 30
0.0
 11
32.02967485602106
 21
1.3894217025399089
 31
0.0
  0
ARC
  5
F57
  8
FORM
 62
     5
 10
26.16880603001022
 20
4.0734794135718033
 30
0.0
 40
0.0385757095962321
 50
152.18113099770551
 51
330.99098814993278
  0
ARC
  5
F58
  8
FORM
 62
     5
 10
26.335785485281171
 20
4.3950451282525647
 30
0.0
 40
0.0338247678444657
 50
335.32315363464198
 51
152.67224926330371
  0
ARC
  5
F59
  8
FORM
 62
     5
 10
28.91218871214031
 20
2.808009746569688
 30
0.0
 40
3.0597070779101601
 50
148.41494327216151
 51
155.19852313243231
  0
ARC
  5
F5A
  8
FORM
 62
     5
 10
29.504418344570158
 20
2.5989839707475109
 30
0.0
 40
3.608560069365701
 50
150.40875710206339
 51
156.20744757951141
  0
ARC
  5
F5B
  8
FORM
 62
     7
 10
26.059723512284052
 20
3.7494016254351692
 30
0.0
 40
0.0515454284325427
 50
161.128725237971
 51
346.89295927401372
  0
ARC
  5
F5C
  8
FORM
 62
     7
 10
41.13097099969373
 20
-2.7603228321038351
 30
0.0
 40
16.366314644417709
 50
153.58307292081309
 51
156.60691138966209
  0
ARC
  5
F5D
  8
FORM
 62
     7
 10
38.767203356608171
 20
-1.9099606273592959
 30
0.0
 40
13.944302558536631
 50
152.3409599977594
 51
152.9694116127464
  0
ARC
  5
F5E
  8
FORM
 62
     7
 10
38.923513668031283
 20
-2.364152220551865
 30
0.0
 40
14.2938448724982
 50
153.3711283527573
 51
154.6040219565534
  0
ARC
  5
F5F
  8
FORM
 62
     7
 10
26.803339917211929
 20
4.3518454673094311
 30
0.0
 40
0.370599122237806
 50
23.46872592819097
 51
88.151617587883351
  0
ARC
  5
F60
  8
FORM
 62
     7
 10
26.81162254336164
 20
4.375737888212452
 30
0.0
 40
0.4374105177834197
 50
18.23262529566551
 51
154.63608874642691
  0
ARC
  5
F61
  8
FORM
 62
     7
 10
26.942675588271339
 20
4.4213299878379821
 30
0.0
 40
0.2986813051207534
 50
336.99722732837881
 51
341.11190659806488
  0
ARC
  5
F62
  8
FORM
 62
     7
 10
26.960440208535719
 20
4.4345392438169418
 30
0.0
 40
0.1956269777036715
 50
333.24704424527522
 51
339.12675173356178
  0
ARC
  5
F63
  8
FORM
 62
     7
 10
27.145475552718409
 20
4.3421655634567626
 30
0.0
 40
0.0112119795598362
 50
157.3747590211585
 51
243.18317341424029
  0
ARC
  5
F64
  8
FORM
 62
     7
 10
27.211697950517149
 20
4.3063574064416663
 30
0.0
 40
0.0061617770509355
 50
246.74236679857631
 51
343.55073793579641
  0
ARC
  5
F65
  8
FORM
 62
     7
 10
27.405592893273489
 20
4.8213591833137306
 30
0.0
 40
0.5564480963896937
 50
241.5396617947477
 51
249.33988332022491
  0
ARC
  5
F66
  8
FORM
 62
     7
 10
27.016612211118481
 20
4.2312576009695197
 30
0.0
 40
0.109847764761893
 50
210.28645373052609
 51
287.25915125833183
  0
ARC
  5
F67
  8
FORM
 62
     7
 10
27.026050588070749
 20
4.1837554972596136
 30
0.0
 40
0.0618930925719585
 50
291.96730232828992
 51
10.20108836223371
  0
ARC
  5
F68
  8
FORM
 62
     7
 10
26.536897702734549
 20
4.0778945741508821
 30
0.0
 40
0.3971318387582141
 50
14.28109924276111
 51
24.94726153987823
  0
ARC
  5
F69
  8
FORM
 62
     7
 10
26.768528576971018
 20
4.1981821339315104
 30
0.0
 40
0.1368504306761727
 50
20.183063788867621
 51
47.833846572520187
  0
ARC
  5
F6A
  8
FORM
 62
     7
 10
26.794112239676231
 20
4.1288644158035188
 30
0.0
 40
0.1831647161438505
 50
68.784960310907422
 51
94.742087985452599
  0
ARC
  5
F6B
  8
FORM
 62
     7
 10
26.792119347784979
 20
4.2371123613428452
 30
0.0
 40
0.0754445488782202
 50
100.0375073429591
 51
170.98475346238999
  0
ARC
  5
F6C
  8
FORM
 62
     7
 10
27.146982675614439
 20
4.1849620678592352
 30
0.0
 40
0.4341153073840799
 50
171.52589863719891
 51
197.494741096675
  0
ARC
  5
F6D
  8
FORM
 62
     7
 10
26.854553206955242
 20
4.191103891512781
 30
0.0
 40
0.2324401656474816
 50
0.8906501289532242
 51
49.113860192417171
  0
ARC
  5
F6E
  8
FORM
 62
     7
 10
26.80558580021054
 20
4.2337381877622411
 30
0.0
 40
0.1829462874073655
 50
99.869748807366761
 51
175.59516845025641
  0
ARC
  5
F6F
  8
FORM
 62
     7
 10
26.838573167721641
 20
4.1345384524927624
 30
0.0
 40
0.2867511696012321
 50
54.104282451028169
 51
102.9674010870567
  0
ARC
  5
F70
  8
FORM
 62
     7
 10
27.647868608896889
 20
4.3051493110486732
 30
0.0
 40
0.948644349998844
 50
195.32307896217739
 51
209.2908431569582
  0
ARC
  5
F71
  8
FORM
 62
     7
 10
27.349380235358321
 20
4.1496067899017026
 30
0.0
 40
0.7328074107294127
 50
172.3003020759547
 51
200.12627387409299
  0
ARC
  5
F72
  8
FORM
 62
     7
 10
27.873323350156671
 20
4.3541346651194281
 30
0.0
 40
1.2951861593585079
 50
200.64629086238159
 51
210.04649609044401
  0
ARC
  5
F73
  8
FORM
 62
     7
 10
26.089144045118271
 20
3.3502132443722799
 30
0.0
 40
0.8807951373815521
 50
28.431949107384391
 51
33.865461133002469
  0
ARC
  5
F74
  8
FORM
 62
     7
 10
26.81258677340205
 20
3.7295029306951011
 30
0.0
 40
0.0649476779946592
 50
201.5644604264042
 51
38.094090168146302
  0
ARC
  5
F75
  8
FORM
 62
     5
 10
27.383338767170208
 20
4.2690837819541541
 30
0.0
 40
0.0361275844586437
 50
227.6202696593605
 51
57.412112921204063
  0
ARC
  5
F76
  8
FORM
 62
     5
 10
26.957266323693428
 20
3.7132635285190139
 30
0.0
 40
0.7363412061057467
 50
52.766851639305898
 51
65.063571515457895
  0
ARC
  5
F77
  8
FORM
 62
     5
 10
26.614511126466521
 20
3.181835369566147
 30
0.0
 40
1.2957757492963791
 50
54.932512589538803
 51
74.152868438598929
  0
ARC
  5
F78
  8
FORM
 62
     5
 10
26.63319393189488
 20
2.796616947233463
 30
0.0
 40
1.665811156648249
 50
78.393012355262385
 51
89.647961077025343
  0
ARC
  5
F79
  8
FORM
 62
     5
 10
26.640629534210081
 20
4.5107456196752009
 30
0.0
 40
0.0484299382283293
 50
183.9979944211656
 51
273.313807745882
  0
ARC
  5
F7A
  8
FORM
 62
     5
 10
26.80408203351362
 20
4.5235396332893743
 30
0.0
 40
0.2123810905936502
 50
145.60859166919269
 51
184.36670732083471
  0
ARC
  5
F7B
  8
FORM
 62
     5
 10
26.673410594596859
 20
4.615308519244202
 30
0.0
 40
0.0527511193199331
 50
75.244714174009715
 51
147.6929850116162
  0
ARC
  5
F7C
  8
FORM
 62
     5
 10
26.044604343508361
 20
2.202126547347997
 30
0.0
 40
2.546512062784879
 50
61.637242241525243
 51
75.392005557716686
  0
ARC
  5
F7D
  8
FORM
 62
     5
 10
27.2062129736446
 20
4.4001185629469433
 30
0.0
 40
0.0644187880277091
 50
342.6982574268402
 51
41.67278378767756
  0
ARC
  5
F7E
  8
FORM
 62
     7
 10
26.942675588271339
 20
4.4213299878379821
 30
0.0
 40
0.2986813051207534
 50
5.6380312699922861
 51
17.79145636873681
  0
ARC
  5
F7F
  8
FORM
 62
     7
 10
27.078597790175781
 20
3.0138486767573762
 30
0.0
 40
0.0955755173285301
 50
88.432533024773406
 51
186.62631613112151
  0
ARC
  5
F80
  8
FORM
 62
     7
 10
27.093598119017251
 20
3.0337770418112688
 30
0.0
 40
0.1142128478642788
 50
195.7266305128272
 51
285.3806868435185
  0
ARC
  5
F81
  8
FORM
 62
     7
 10
26.958910049050161
 20
4.0445179372869999
 30
0.0
 40
1.132939975913789
 50
278.37329371359471
 51
293.15208507016871
  0
ARC
  5
F82
  8
FORM
 62
     7
 10
27.33901156774531
 20
3.3314401818950818
 30
0.0
 40
0.2336642270285165
 50
257.51805604168283
 51
277.23103351305667
  0
ARC
  5
F83
  8
FORM
 62
     7
 10
27.352112455691199
 20
3.139482224066195
 30
0.0
 40
0.0430567822757209
 50
292.26031345923337
 51
12.867379300523719
  0
ARC
  5
F84
  8
FORM
 62
     7
 10
27.320097695327121
 20
3.1333093806883632
 30
0.0
 40
0.0756504232986715
 50
12.02537552739555
 51
52.143631645159317
  0
ARC
  5
F85
  8
FORM
 62
     7
 10
28.93314977796301
 20
5.0935230089413528
 30
0.0
 40
2.4629570243329071
 50
219.60277928185971
 51
230.5002020408055
  0
ARC
  5
F86
  8
FORM
 62
     7
 10
27.41273527936227
 20
3.818700782059838
 30
0.0
 40
0.479031655606495
 50
175.97523115435061
 51
218.04500009534141
  0
ARC
  5
F87
  8
FORM
 62
     7
 10
27.209696543191338
 20
3.8668041169370961
 30
0.0
 40
0.2751928113021172
 50
149.96078860476399
 51
183.01641230856191
  0
ARC
  5
F88
  8
FORM
 62
     7
 10
27.017453299471541
 20
3.9800078695936838
 30
0.0
 40
0.0521319634695722
 50
69.764209445538683
 51
151.89881904551129
  0
ARC
  5
F89
  8
FORM
 62
     7
 10
27.011302812622858
 20
3.9764643749472981
 30
0.0
 40
0.0577632037384342
 50
357.6694469744499
 51
65.251102439515435
  0
ARC
  5
F8A
  8
FORM
 62
     7
 10
26.87519984166968
 20
3.9652949139867171
 30
0.0
 40
0.1940190006454797
 50
345.36193237678458
 51
2.6056939300727819
  0
ARC
  5
F8B
  8
FORM
 62
     7
 10
27.496953116251209
 20
3.782063174086324
 30
0.0
 40
0.4543054978202308
 50
162.81861830880729
 51
185.35496664157321
  0
ARC
  5
F8C
  8
FORM
 62
     7
 10
27.446305332231191
 20
3.8276370274471558
 30
0.0
 40
0.4111956828558963
 50
192.3534994193023
 51
222.3020476696031
  0
ARC
  5
F8D
  8
FORM
 62
     7
 10
28.862857744539799
 20
4.9696211683740721
 30
0.0
 40
2.2301419721000881
 50
219.50633019139829
 51
228.42762303996261
  0
ARC
  5
F8E
  8
FORM
 62
     7
 10
27.142378713322358
 20
2.9732880048162791
 30
0.0
 40
0.4067411686140381
 50
32.971129457978869
 51
53.728419363024337
  0
ARC
  5
F8F
  8
FORM
 62
     7
 10
27.362936860131679
 20
3.132218989054024
 30
0.0
 40
0.1358650307054239
 50
287.74749415951351
 51
27.35211189662947
  0
ARC
  5
F90
  8
FORM
 62
     7
 10
27.159665716668972
 20
2.2486801749517431
 30
0.0
 40
0.864276379728073
 50
81.426570944510203
 51
95.208118001959775
  0
ARC
  5
F91
  8
FORM
 62
     7
 10
26.786594989372311
 20
3.595936605817708
 30
0.0
 40
0.0384762642143712
 50
325.52447187114319
 51
75.340502228459783
  0
ARC
  5
F92
  8
FORM
 62
     7
 10
26.739189335748321
 20
3.6307425953109869
 30
0.0
 40
0.0972758064958665
 50
277.78730616127859
 51
324.42957968808531
  0
ARC
  5
F93
  8
FORM
 62
     7
 10
26.72198596208656
 20
3.6469201275031571
 30
0.0
 40
0.116585112812438
 50
243.48581874200181
 51
285.1065744639306
  0
ARC
  5
F94
  8
FORM
 62
     7
 10
21.565409756961198
 20
-9.5297413565960891
 30
0.0
 40
14.164198964842891
 50
68.327181839257534
 51
70.606105230637283
  0
ARC
  5
F95
  8
FORM
 62
     7
 10
26.25878044568708
 20
3.789266483757884
 30
0.0
 40
0.0426754737134516
 50
76.445232091872299
 51
134.36352227876461
  0
ARC
  5
F96
  8
FORM
 62
     7
 10
26.44851658796054
 20
3.4973443680833318
 30
0.0
 40
0.3900966377040498
 50
124.2547762008316
 51
135.012931962436
  0
ARC
  5
F97
  8
FORM
 62
     7
 10
26.17993792814281
 20
3.7607134644842399
 30
0.0
 40
0.0144086230595275
 50
120.5491196217084
 51
251.48388650457539
  0
ARC
  5
F98
  8
FORM
 62
     7
 10
24.241053587786752
 20
-1.632507385380584
 30
0.0
 40
5.7167468889592232
 50
64.85742894317822
 51
67.515132469299331
  0
ARC
  5
F99
  8
FORM
 62
     7
 10
26.6565613260865
 20
3.458535165166829
 30
0.0
 40
0.0539742346362171
 50
329.18566117941782
 51
69.527151249863806
  0
ARC
  5
F9A
  8
FORM
 62
     7
 10
26.514963828126721
 20
3.2446655750806448
 30
0.0
 40
0.3093188784594649
 50
58.747973844557571
 51
81.106226592028065
  0
ARC
  5
F9B
  8
FORM
 62
     7
 10
26.482059640798042
 20
3.039612574809289
 30
0.0
 40
0.5169941756302703
 50
81.016817915507374
 51
97.679603827268224
  0
ARC
  5
F9C
  8
FORM
 62
     7
 10
26.536472800401821
 20
3.1949713665359241
 30
0.0
 40
0.3834911926153297
 50
121.5050128230593
 51
139.0957881060705
  0
ARC
  5
F9D
  8
FORM
 62
     7
 10
26.64058252327532
 20
3.4503026243761852
 30
0.0
 40
0.0652875510936874
 50
277.70569210516868
 51
342.69880024124097
  0
ARC
  5
F9E
  8
FORM
 62
     7
 10
26.620545167978548
 20
3.5239697245411419
 30
0.0
 40
0.1413288560078351
 50
250.08394506358289
 51
281.75453717228322
  0
ARC
  5
F9F
  8
FORM
 62
     7
 10
26.666720127278811
 20
3.5401957035979161
 30
0.0
 40
0.1764293801658916
 50
221.18187885427241
 51
237.68378775985289
  0
ARC
  5
FA0
  8
FORM
 62
     7
 10
26.459800771736489
 20
3.3356633971234331
 30
0.0
 40
0.1153420595436549
 50
50.003848755011681
 51
75.5416830098399
  0
ARC
  5
FA1
  8
FORM
 62
     7
 10
26.45370004519398
 20
3.3774703930975032
 30
0.0
 40
0.0781117128397143
 50
63.4626603498468
 51
100.74200229027051
  0
ARC
  5
FA2
  8
FORM
 62
     7
 10
26.439141045378591
 20
3.3220433737082651
 30
0.0
 40
0.1321699357211772
 50
89.999999999999588
 51
125.5974615489027
  0
ARC
  5
FA3
  8
FORM
 62
     7
 10
28.006992847814189
 20
4.2652293252204743
 30
0.0
 40
1.828789044185706
 50
197.51922498184919
 51
203.981481444731
  0
ARC
  5
FA4
  8
FORM
 62
     7
 10
25.87240086971239
 20
3.6815089309591822
 30
0.0
 40
0.5558754283083133
 50
346.52409876011302
 51
356.71498770316703
  0
ARC
  5
FA5
  8
FORM
 62
     7
 10
24.241053587786752
 20
-1.632507385380584
 30
0.0
 40
5.7167468889592232
 50
69.286600818944052
 51
70.22311760076802
  0
ARC
  5
FA6
  8
FORM
 62
     7
 10
26.172409460241582
 20
3.1976693568336141
 30
0.0
 40
0.167630010880019
 50
245.40259669902051
 51
275.40975098180542
  0
ARC
  5
FA7
  8
FORM
 62
     7
 10
26.76019344748088
 20
2.8951935095261021
 30
0.0
 40
0.6662523185089205
 50
126.68044463040199
 51
139.78708822539889
  0
ARC
  5
FA8
  8
FORM
 62
     7
 10
26.16927362364704
 20
3.6691944305331461
 30
0.0
 40
0.6386893277745676
 50
271.69929119420118
 51
283.39540842056908
  0
ARC
  5
FA9
  8
FORM
 62
     7
 10
27.36355745155528
 20
2.1952362335787998
 30
0.0
 40
1.5855664090288619
 50
134.5410403491789
 51
138.91474429089911
  0
ARC
  5
FAA
  8
FORM
 62
     7
 10
26.195554526430001
 20
3.2147003766533331
 30
0.0
 40
0.0419458740287545
 50
201.8252958964795
 51
267.16449786715452
  0
ARC
  5
FAB
  8
FORM
 62
     7
 10
26.18652455052969
 20
3.2107208758187999
 30
0.0
 40
0.0320854320121493
 50
124.254854327418
 51
201.22329273937871
  0
ARC
  5
FAC
  8
FORM
 62
     7
 10
26.284221784910851
 20
3.1846159291073159
 30
0.0
 40
0.1406647105061516
 50
283.5751770312794
 51
324.58969283639942
  0
ARC
  5
FAD
  8
FORM
 62
     7
 10
26.364445711520698
 20
3.1176214949466221
 30
0.0
 40
0.037354676661192
 50
337.14160324238748
 51
47.56496670892831
  0
ARC
  5
FAE
  8
FORM
 62
     7
 10
26.30694931708031
 20
3.0354790470804822
 30
0.0
 40
0.1373908103601386
 50
52.990730681111657
 51
91.748895977531376
  0
ARC
  5
FAF
  8
FORM
 62
     7
 10
26.248117886404401
 20
3.5457903671148112
 30
0.0
 40
0.3769652438911295
 50
261.66603807207321
 51
278.33396192792679
  0
ARC
  5
FB0
  8
FORM
 62
     7
 10
26.13494402745366
 20
3.1261203954851911
 30
0.0
 40
0.0870846080475079
 50
192.64550774538381
 51
248.2223967256862
  0
ARC
  5
FB1
  8
FORM
 62
     7
 10
26.113541082025389
 20
3.1359859556933669
 30
0.0
 40
0.0698426465678363
 50
178.88427582775461
 51
204.46998391858131
  0
ARC
  5
FB2
  8
FORM
 62
     7
 10
26.286313535081959
 20
3.118335126842172
 30
0.0
 40
0.2433455807968893
 50
140.54690015149379
 51
175.5193383191162
  0
ARC
  5
FB3
  8
FORM
 62
     7
 10
28.683184999570301
 20
1.2099767371653589
 30
0.0
 40
3.3071086039114612
 50
137.45643980933039
 51
141.40545593619069
  0
POLYLINE
  5
FB4
  8
FORM
 62
     1
 10
26.718835343981716
 20
4.6347228445365252
 30
0.0
 66
     1
 70
     8
  0
VERTEX
  8
FORM
  5
1205
 10
26.7188
 20
4.63472
 30
0.000000
  70
    32
  0
VERTEX
  8
FORM
  5
1206
 10
26.7174
 20
4.63526
 30
0.000000
  70
    32
  0
VERTEX
  8
FORM
  5
1207
 10
26.7158
 20
4.63563
 30
0.000000
  70
    32
  0
VERTEX
  8
FORM
  5
1208
 10
26.7142
 20
4.63583
 30
0.000000
  70
    32
  0
VERTEX
  8
FORM
  5
1209
 10
26.7126
 20
4.63586
 30
0.000000
  70
    32
  0
VERTEX
  8
FORM
  5
120A
 10
26.7108
 20
4.63571
 30
0.000000
  70
    32
  0
VERTEX
  8
FORM
  5
120B
 10
26.7091
 20
4.63539
 30
0.000000
  70
    32
  0
VERTEX
  8
FORM
  5
120C
 10
26.7072
 20
4.63489
 30
0.000000
  70
    32
  0
VERTEX
  8
FORM
  5
120D
 10
26.7054
 20
4.63423
 30
0.000000
  70
    32
  0
VERTEX
  8
FORM
  5
120E
 10
26.7034
 20
4.63340
 30
0.000000
  70
    32
  0
VERTEX
  8
FORM
  5
120F
 10
26.7015
 20
4.63240
 30
0.000000
  70
    32
  0
VERTEX
  8
FORM
  5
1210
 10
26.6995
 20
4.63124
 30
0.000000
  70
    32
  0
VERTEX
  8
FORM
  5
1211
 10
26.6975
 20
4.62991
 30
0.000000
  70
    32
  0
VERTEX
  8
FORM
  5
1212
 10
26.6954
 20
4.62843
 30
0.000000
  70
    32
  0
VERTEX
  8
FORM
  5
1213
 10
26.6934
 20
4.62679
 30
0.000000
  70
    32
  0
VERTEX
  8
FORM
  5
1214
 10
26.6913
 20
4.62500
 30
0.000000
  70
    32
  0
VERTEX
  8
FORM
  5
1215
 10
26.6892
 20
4.62307
 30
0.000000
  70
    32
  0
VERTEX
  8
FORM
  5
1216
 10
26.6871
 20
4.62099
 30
0.000000
  70
    32
  0
VERTEX
  8
FORM
  5
1217
 10
26.6850
 20
4.61877
 30
0.000000
  70
    32
  0
VERTEX
  8
FORM
  5
1218
 10
26.6830
 20
4.61643
 30
0.000000
  70
    32
  0
VERTEX
  8
FORM
  5
1219
 10
26.6809
 20
4.61395
 30
0.000000
  70
    32
  0
VERTEX
  8
FORM
  5
121A
 10
26.6788
 20
4.61136
 30
0.000000
  70
    32
  0
VERTEX
  8
FORM
  5
121B
 10
26.6768
 20
4.60865
 30
0.000000
  70
    32
  0
VERTEX
  8
FORM
  5
121C
 10
26.6748
 20
4.60584
 30
0.000000
  70
    32
  0
VERTEX
  8
FORM
  5
121D
 10
26.6728
 20
4.60293
 30
0.000000
  70
    32
  0
VERTEX
  8
FORM
  5
121E
 10
26.6709
 20
4.59992
 30
0.000000
  70
    32
  0
VERTEX
  8
FORM
  5
121F
 10
26.6690
 20
4.59682
 30
0.000000
  70
    32
  0
VERTEX
  8
FORM
  5
1220
 10
26.6672
 20
4.59365
 30
0.000000
  70
    32
  0
VERTEX
  8
FORM
  5
1221
 10
26.6654
 20
4.59041
 30
0.000000
  70
    32
  0
VERTEX
  8
FORM
  5
1222
 10
26.6636
 20
4.58710
 30
0.000000
  70
    32
  0
VERTEX
  8
FORM
  5
1223
 10
26.6619
 20
4.58374
 30
0.000000
  70
    32
  0
VERTEX
  8
FORM
  5
1224
 10
26.6603
 20
4.58033
 30
0.000000
  70
    32
  0
VERTEX
  8
FORM
  5
1225
 10
26.6588
 20
4.57688
 30
0.000000
  70
    32
  0
VERTEX
  8
FORM
  5
1226
 10
26.6573
 20
4.57340
 30
0.000000
  70
    32
  0
VERTEX
  8
FORM
  5
1227
 10
26.6559
 20
4.56989
 30
0.000000
  70
    32
  0
VERTEX
  8
FORM
  5
1228
 10
26.6545
 20
4.56638
 30
0.000000
  70
    32
  0
VERTEX
  8
FORM
  5
1229
 10
26.6533
 20
4.56286
 30
0.000000
  70
    32
  0
VERTEX
  8
FORM
  5
122A
 10
26.6521
 20
4.55934
 30
0.000000
  70
    32
  0
VERTEX
  8
FORM
  5
122B
 10
26.6510
 20
4.55583
 30
0.000000
  70
    32
  0
VERTEX
  8
FORM
  5
122C
 10
26.6500
 20
4.55234
 30
0.000000
  70
    32
  0
VERTEX
  8
FORM
  5
122D
 10
26.6491
 20
4.54888
 30
0.000000
  70
    32
  0
VERTEX
  8
FORM
  5
122E
 10
26.6483
 20
4.54546
 30
0.000000
  70
    32
  0
VERTEX
  8
FORM
  5
122F
 10
26.6476
 20
4.54208
 30
0.000000
  70
    32
  0
VERTEX
  8
FORM
  5
1230
 10
26.6470
 20
4.53876
 30
0.000000
  70
    32
  0
VERTEX
  8
FORM
  5
1231
 10
26.6464
 20
4.53550
 30
0.000000
  70
    32
  0
VERTEX
  8
FORM
  5
1232
 10
26.6460
 20
4.53230
 30
0.000000
  70
    32
  0
VERTEX
  8
FORM
  5
1233
 10
26.6457
 20
4.52918
 30
0.000000
  70
    32
  0
VERTEX
  8
FORM
  5
1234
 10
26.6455
 20
4.52615
 30
0.000000
  70
    32
  0
VERTEX
  8
FORM
  5
1235
 10
26.6454
 20
4.52321
 30
0.000000
  70
    32
  0
VERTEX
  8
FORM
  5
1236
 10
26.6453
 20
4.52037
 30
0.000000
  70
    32
  0
VERTEX
  8
FORM
  5
1237
 10
26.6454
 20
4.51763
 30
0.000000
  70
    32
  0
VERTEX
  8
FORM
  5
1238
 10
26.6456
 20
4.51500
 30
0.000000
  70
    32
  0
VERTEX
  8
FORM
  5
1239
 10
26.6459
 20
4.51249
 30
0.000000
  70
    32
  0
VERTEX
  8
FORM
  5
123A
 10
26.6463
 20
4.51011
 30
0.000000
  70
    32
  0
VERTEX
  8
FORM
  5
123B
 10
26.6468
 20
4.50786
 30
0.000000
  70
    32
  0
VERTEX
  8
FORM
  5
123C
 10
26.6474
 20
4.50574
 30
0.000000
  70
    32
  0
VERTEX
  8
FORM
  5
123D
 10
26.6481
 20
4.50376
 30
0.000000
  70
    32
  0
VERTEX
  8
FORM
  5
123E
 10
26.6488
 20
4.50193
 30
0.000000
  70
    32
  0
VERTEX
  8
FORM
  5
123F
 10
26.6497
 20
4.50025
 30
0.000000
  70
    32
  0
VERTEX
  8
FORM
  5
1240
 10
26.6507
 20
4.49872
 30
0.000000
  70
    32
  0
VERTEX
  8
FORM
  5
1241
 10
26.6517
 20
4.49735
 30
0.000000
  70
    32
  0
VERTEX
  8
FORM
  5
1242
 10
26.6529
 20
4.49614
 30
0.000000
  70
    32
  0
VERTEX
  8
FORM
  5
1243
 10
26.6541
 20
4.49509
 30
0.000000
  70
    32
  0
VERTEX
  8
FORM
  5
1244
 10
26.6554
 20
4.49421
 30
0.000000
  70
    32
  0
VERTEX
  8
FORM
  5
1245
 10
26.6568
 20
4.49350
 30
0.000000
  70
    32
  0
VERTEX
  8
FORM
  5
1246
 10
26.6583
 20
4.49296
 30
0.000000
  70
    32
  0
VERTEX
  8
FORM
  5
1247
 10
26.6598
 20
4.49259
 30
0.000000
  70
    32
  0
VERTEX
  8
FORM
  5
1248
 10
26.6614
 20
4.49239
 30
0.000000
  70
    32
  0
VERTEX
  8
FORM
  5
1249
 10
26.6631
 20
4.49237
 30
0.000000
  70
    32
  0
VERTEX
  8
FORM
  5
124A
 10
26.6648
 20
4.49252
 30
0.000000
  70
    32
  0
VERTEX
  8
FORM
  5
124B
 10
26.6666
 20
4.49284
 30
0.000000
  70
    32
  0
VERTEX
  8
FORM
  5
124C
 10
26.6684
 20
4.49333
 30
0.000000
  70
    32
  0
VERTEX
  8
FORM
  5
124D
 10
26.6703
 20
4.49399
 30
0.000000
  70
    32
  0
VERTEX
  8
FORM
  5
124E
 10
26.6722
 20
4.49483
 30
0.000000
  70
    32
  0
VERTEX
  8
FORM
  5
124F
 10
26.6742
 20
4.49582
 30
0.000000
  70
    32
  0
VERTEX
  8
FORM
  5
1250
 10
26.6762
 20
4.49699
 30
0.000000
  70
    32
  0
VERTEX
  8
FORM
  5
1251
 10
26.6782
 20
4.49831
 30
0.000000
  70
    32
  0
VERTEX
  8
FORM
  5
1252
 10
26.6802
 20
4.49980
 30
0.000000
  70
    32
  0
VERTEX
  8
FORM
  5
1253
 10
26.6823
 20
4.50143
 30
0.000000
  70
    32
  0
VERTEX
  8
FORM
  5
1254
 10
26.6844
 20
4.50322
 30
0.000000
  70
    32
  0
VERTEX
  8
FORM
  5
1255
 10
26.6865
 20
4.50516
 30
0.000000
  70
    32
  0
VERTEX
  8
FORM
  5
1256
 10
26.6885
 20
4.50724
 30
0.000000
  70
    32
  0
VERTEX
  8
FORM
  5
1257
 10
26.6906
 20
4.50945
 30
0.000000
  70
    32
  0
VERTEX
  8
FORM
  5
1258
 10
26.6927
 20
4.51180
 30
0.000000
  70
    32
  0
VERTEX
  8
FORM
  5
1259
 10
26.6948
 20
4.51427
 30
0.000000
  70
    32
  0
VERTEX
  8
FORM
  5
125A
 10
26.6968
 20
4.51687
 30
0.000000
  70
    32
  0
VERTEX
  8
FORM
  5
125B
 10
26.6988
 20
4.51957
 30
0.000000
  70
    32
  0
VERTEX
  8
FORM
  5
125C
 10
26.7008
 20
4.52239
 30
0.000000
  70
    32
  0
VERTEX
  8
FORM
  5
125D
 10
26.7028
 20
4.52530
 30
0.000000
  70
    32
  0
VERTEX
  8
FORM
  5
125E
 10
26.7047
 20
4.52831
 30
0.000000
  70
    32
  0
VERTEX
  8
FORM
  5
125F
 10
26.7066
 20
4.53140
 30
0.000000
  70
    32
  0
VERTEX
  8
FORM
  5
1260
 10
26.7085
 20
4.53458
 30
0.000000
  70
    32
  0
VERTEX
  8
FORM
  5
1261
 10
26.7103
 20
4.53782
 30
0.000000
  70
    32
  0
VERTEX
  8
FORM
  5
1262
 10
26.7120
 20
4.54113
 30
0.000000
  70
    32
  0
VERTEX
  8
FORM
  5
1263
 10
26.7137
 20
4.54449
 30
0.000000
  70
    32
  0
VERTEX
  8
FORM
  5
1264
 10
26.7153
 20
4.54790
 30
0.000000
  70
    32
  0
VERTEX
  8
FORM
  5
1265
 10
26.7169
 20
4.55135
 30
0.000000
  70
    32
  0
VERTEX
  8
FORM
  5
1266
 10
26.7184
 20
4.55483
 30
0.000000
  70
    32
  0
VERTEX
  8
FORM
  5
1267
 10
26.7198
 20
4.55833
 30
0.000000
  70
    32
  0
VERTEX
  8
FORM
  5
1268
 10
26.7211
 20
4.56185
 30
0.000000
  70
    32
  0
VERTEX
  8
FORM
  5
1269
 10
26.7224
 20
4.56537
 30
0.000000
  70
    32
  0
VERTEX
  8
FORM
  5
126A
 10
26.7236
 20
4.56889
 30
0.000000
  70
    32
  0
VERTEX
  8
FORM
  5
126B
 10
26.7246
 20
4.57240
 30
0.000000
  70
    32
  0
VERTEX
  8
FORM
  5
126C
 10
26.7256
 20
4.57588
 30
0.000000
  70
    32
  0
VERTEX
  8
FORM
  5
126D
 10
26.7265
 20
4.57934
 30
0.000000
  70
    32
  0
VERTEX
  8
FORM
  5
126E
 10
26.7274
 20
4.58277
 30
0.000000
  70
    32
  0
VERTEX
  8
FORM
  5
126F
 10
26.7281
 20
4.58614
 30
0.000000
  70
    32
  0
VERTEX
  8
FORM
  5
1270
 10
26.7287
 20
4.58947
 30
0.000000
  70
    32
  0
VERTEX
  8
FORM
  5
1271
 10
26.7292
 20
4.59273
 30
0.000000
  70
    32
  0
VERTEX
  8
FORM
  5
1272
 10
26.7296
 20
4.59592
 30
0.000000
  70
    32
  0
VERTEX
  8
FORM
  5
1273
 10
26.7300
 20
4.59904
 30
0.000000
  70
    32
  0
VERTEX
  8
FORM
  5
1274
 10
26.7302
 20
4.60208
 30
0.000000
  70
    32
  0
VERTEX
  8
FORM
  5
1275
 10
26.7303
 20
4.60502
 30
0.000000
  70
    32
  0
VERTEX
  8
FORM
  5
1276
 10
26.7303
 20
4.60786
 30
0.000000
  70
    32
  0
VERTEX
  8
FORM
  5
1277
 10
26.7302
 20
4.61060
 30
0.000000
  70
    32
  0
VERTEX
  8
FORM
  5
1278
 10
26.7300
 20
4.61322
 30
0.000000
  70
    32
  0
VERTEX
  8
FORM
  5
1279
 10
26.7298
 20
4.61573
 30
0.000000
  70
    32
  0
VERTEX
  8
FORM
  5
127A
 10
26.7294
 20
4.61812
 30
0.000000
  70
    32
  0
VERTEX
  8
FORM
  5
127B
 10
26.7289
 20
4.62037
 30
0.000000
  70
    32
  0
VERTEX
  8
FORM
  5
127C
 10
26.7283
 20
4.62249
 30
0.000000
  70
    32
  0
VERTEX
  8
FORM
  5
127D
 10
26.7276
 20
4.62446
 30
0.000000
  70
    32
  0
VERTEX
  8
FORM
  5
127E
 10
26.7268
 20
4.62630
 30
0.000000
  70
    32
  0
VERTEX
  8
FORM
  5
127F
 10
26.7259
 20
4.62798
 30
0.000000
  70
    32
  0
VERTEX
  8
FORM
  5
1280
 10
26.7250
 20
4.62951
 30
0.000000
  70
    32
  0
VERTEX
  8
FORM
  5
1281
 10
26.7239
 20
4.63088
 30
0.000000
  70
    32
  0
VERTEX
  8
FORM
  5
1282
 10
26.7228
 20
4.63209
 30
0.000000
  70
    32
  0
VERTEX
  8
FORM
  5
1283
 10
26.7215
 20
4.63313
 30
0.000000
  70
    32
  0
VERTEX
  8
FORM
  5
1284
 10
26.7202
 20
4.63401
 30
0.000000
  70
    32
  0
VERTEX
  8
FORM
  5
1285
 10
26.7188
 20
4.63472
 30
0.000000
  70
    32
  0
SEQEND
  8
FORM
  5
1286
  0
ARC
  5
FB5
  8
FORM
 62
     7
 10
26.78809171608626
 20
4.3777389439147916
 30
0.0
 40
0.3455850362170464
 50
85.485448269952457
 51
155.5006785655419
  0
TEXT
  5
FB6
  8
FORM
 62
     7
 10
25.57213991596511
 20
2.5705700134301281
 30
0.0
 40
0.1353846152946929
  1
R2-D2 BUILDERS CLUB
  0
ARC
  5
FB7
  8
FORM
 10
1.035714285192469
 20
1.0357142851924259
 30
0.0
 40
0.2417582415976659
 50
180.0
 51
270.0
  0
ARC
  5
FB8
  8
FORM
 10
1.035714285192469
 20
1.0357142851924259
 30
0.0
 40
0.4835164831953318
 50
180.0
 51
270.0
  0
ARC
  5
FB9
  8
FORM
 10
1.035714285192469
 20
1.0357142851924259
 30
0.0
 40
0.5439560435947484
 50
180.0
 51
270.0
  0
ARC
  5
FBA
  8
FORM
 10
1.035714285192469
 20
1.0357142851924259
 30
0.0
 40
0.7857142851924143
 50
180.0
 51
270.0
  0
ARC
  5
FBB
  8
FORM
 10
1.035714296151709
 20
19.714285714807591
 30
0.0
 40
0.7857142851924143
 50
90.0
 51
180.0
  0
ARC
  5
FBC
  8
FORM
 10
1.035714296151709
 20
19.714285714807591
 30
0.0
 40
0.5439560435947484
 50
90.0
 51
180.0
  0
ARC
  5
FBD
  8
FORM
 10
1.035714296151709
 20
19.714285714807591
 30
0.0
 40
0.4835164831953318
 50
90.0
 51
180.0
  0
ARC
  5
FBE
  8
FORM
 10
1.035714296151709
 20
19.714285714807591
 30
0.0
 40
0.2417582415976659
 50
90.0
 51
180.0
  0
ARC
  5
FBF
  8
FORM
 10
32.964285703848262
 20
19.714285714807591
 30
0.0
 40
0.4835164831953318
 50
0.0
 51
90.0
  0
ARC
  5
FC0
  8
FORM
 10
32.964285703848262
 20
19.714285714807591
 30
0.0
 40
0.5439560435947484
 50
0.0
 51
90.0
  0
ARC
  5
FC1
  8
FORM
 10
32.964285703848262
 20
19.714285714807591
 30
0.0
 40
0.7857142851924143
 50
0.0
 51
90.0
  0
ARC
  5
FC2
  8
FORM
 10
32.964285703848262
 20
19.714285714807591
 30
0.0
 40
0.2417582415976659
 50
0.0
 51
90.0
  0
ARC
  5
FC3
  8
FORM
 10
32.964285692889021
 20
1.0357142851924259
 30
0.0
 40
0.7857142851924143
 50
270.0
 51
0.0
  0
ARC
  5
FC4
  8
FORM
 10
32.964285692889021
 20
1.0357142851924259
 30
0.0
 40
0.5439560435947484
 50
270.0
 51
0.0
  0
ARC
  5
FC5
  8
FORM
 10
32.964285692889021
 20
1.0357142851924259
 30
0.0
 40
0.4835164831953318
 50
270.0
 51
0.0
  0
ARC
  5
FC6
  8
FORM
 10
32.964285692889021
 20
1.0357142851924259
 30
0.0
 40
0.2417582415976659
 50
270.0
 51
0.0
  0
LINE
  5
FC7
  8
FORM
 10
32.964285692889021
 20
0.5521978019971101
 30
0.0
 11
1.035714285192469
 21
0.5521978019970959
 31
0.0
  0
LINE
  5
FC8
  8
FORM
 10
32.964285692889021
 20
0.4917582415976938
 30
0.0
 11
1.035714285192469
 21
0.4917582415976796
 31
0.0
  0
LINE
  5
FC9
  8
FORM
 10
32.964285692889021
 20
0.2500000000000142
 30
0.0
 11
1.035714285192469
 21
0.25
 31
0.0
  0
LINE
  5
FCA
  8
FORM
 10
33.44780217608438
 20
1.0357142851924259
 30
0.0
 11
33.447802187043621
 21
19.714285714807591
 31
0.0
  0
LINE
  5
FCB
  8
FORM
 10
33.508241736483811
 20
1.0357142851924259
 30
0.0
 11
33.508241747443051
 21
19.714285714807591
 31
0.0
  0
LINE
  5
FCC
  8
FORM
 10
33.749999978081483
 20
1.0357142851924259
 30
0.0
 11
33.749999989040717
 21
19.714285714807591
 31
0.0
  0
LINE
  5
FCD
  8
FORM
 10
32.964285703848262
 20
20.197802198002918
 30
0.0
 11
1.035714296151709
 21
20.197802198002918
 31
0.0
  0
LINE
  5
FCE
  8
FORM
 10
32.964285703848262
 20
20.258241758402331
 30
0.0
 11
1.035714296151709
 21
20.258241758402331
 31
0.0
  0
LINE
  5
FCF
  8
FORM
 10
32.964285703848262
 20
20.5
 30
0.0
 11
1.035714296151709
 21
20.5
 31
0.0
  0
LINE
  5
FD0
  8
FORM
 10
0.5521978019971244
 20
1.0357142851924259
 30
0.0
 11
0.5521978129563651
 21
19.714285714807591
 31
0.0
  0
LINE
  5
FD1
  8
FORM
 10
0.4917582415977222
 20
1.0357142851924259
 30
0.0
 11
0.4917582525569629
 21
19.714285714807591
 31
0.0
  0
LINE
  5
FD2
  8
FORM
 10
0.25
 20
1.0357142851924299
 30
0.0
 11
0.2500000109592975
 21
19.714285714807591
 31
0.0
  0
LINE
  5
FD3
  8
FORM
  6
CONTINUOUS
 10
25.819395862469861
 20
1.0357142851924259
 30
0.0
 11
32.610578275541563
 21
1.0357142851924259
 31
0.0
  0
LINE
  5
FD4
  8
FORM
  6
CONTINUOUS
 10
32.964285692889021
 20
4.785012909075756
 30
0.0
 11
32.964285692889021
 21
1.3894217025399089
 31
0.0
  0
ARC
  5
FD5
  8
FORM
  6
CONTINUOUS
 10
32.610578275541563
 20
1.3894217025399089
 30
0.0
 40
0.3537074173474831
 50
270.0
 51
0.0
  0
ARC
  5
FD6
  8
FORM
  6
CONTINUOUS
 10
32.610578275541563
 20
4.785012909075756
 30
0.0
 40
0.3537074173474831
 50
359.99999999999989
 51
90.0
  0
ARC
  5
FD7
  8
FORM
  6
CONTINUOUS
 10
25.819395862469861
 20
1.3894217025399089
 30
0.0
 40
0.3537074173474831
 50
180.0
 51
270.0
  0
ARC
  5
FD8
  8
FORM
  6
CONTINUOUS
 10
25.819395862469861
 20
4.785012909075756
 30
0.0
 40
0.3537074173474831
 50
90.0
 51
180.0
  0
LINE
  5
11C8
  8
0
 10
1.035714285192469
 20
1.0357142851924259
 30
0.0
 11
1.035714285192469
 21
2.0357142851924261
 31
0.0
  0
LINE
  5
11C9
  8
0
 10
1.035714285192469
 20
1.1607142851924259
 30
0.0
 11
1.160714285192469
 21
1.1607142851924259
 31
0.0
  0
LINE
  5
11CA
  8
0
 10
1.035714285192469
 20
1.2857142851924259
 30
0.0
 11
1.285714285192469
 21
1.2857142851924259
 31
0.0
  0
LINE
  5
11CB
  8
0
 10
1.035714285192469
 20
1.4107142851924259
 30
0.0
 11
1.160714285192469
 21
1.4107142851924259
 31
0.0
  0
LINE
  5
11CC
  8
0
 10
1.035714285192469
 20
1.5357142851924259
 30
0.0
 11
1.410714285192469
 21
1.5357142851924259
 31
0.0
  0
LINE
  5
11CD
  8
0
 10
1.035714285192469
 20
1.6607142851924259
 30
0.0
 11
1.160714285192469
 21
1.6607142851924259
 31
0.0
  0
LINE
  5
11CE
  8
0
 10
1.035714285192469
 20
1.7857142851924259
 30
0.0
 11
1.285714285192469
 21
1.7857142851924259
 31
0.0
  0
LINE
  5
11CF
  8
0
 10
1.035714285192469
 20
1.9107142851924259
 30
0.0
 11
1.160714285192469
 21
1.9107142851924259
 31
0.0
  0
LINE
  5
11D0
  8
0
 10
1.035714285192469
 20
2.0357142851924261
 30
0.0
 11
1.410714285192469
 21
2.0357142851924261
 31
0.0
  0
LINE
  5
11D1
  8
0
 10
1.035714285192469
 20
1.0357142851924259
 30
0.0
 11
1.410714285192469
 21
1.0357142851924259
 31
0.0
  0
TEXT
  5
11D2
  8
0
 10
1.459983058818906
 20
1.502673724191943
 30
0.0
 40
0.0625
  1
1/2"
  0
TEXT
  5
11D3
  8
0
 10
1.209983058818906
 20
1.377673724191943
 30
0.0
 40
0.0625
  1
3/8"
  0
TEXT
  5
11D4
  8
0
 10
1.334983058818906
 20
1.252673724191943
 30
0.0
 40
0.0625
  1
1/4"
  0
TEXT
  5
11D5
  8
0
 10
1.209983058818906
 20
1.127673724191943
 30
0.0
 40
0.0625
  1
1/8"
  0
TEXT
  5
11D6
  8
0
 10
1.209983058818906
 20
1.627673724191943
 30
0.0
 40
0.0625
  1
5/8"
  0
TEXT
  5
11D7
  8
0
 10
1.334983058818906
 20
1.752673724191943
 30
0.0
 40
0.0625
  1
3/4"
  0
TEXT
  5
11D8
  8
0
 10
1.209983058818906
 20
1.877673724191943
 30
0.0
 40
0.0625
  1
7/8"
  0
TEXT
  5
11D9
  8
0
 10
1.459983058818906
 20
2.002673724191943
 30
0.0
 40
0.0625
  1
1"
  0
ENDSEC
  0
EOF
