  0
SECTION
  2
HEADER
  9
$ACADVER
  1
AC1009
  9
$INSBASE
 10
0.0
 20
0.0
 30
0.0
  9
$EXTMIN
 10
-0.0052178363968096
 20
-0.0011292488892138
 30
-0.0015258207003583
  9
$EXTMAX
 10
22.002686037933358
 20
17.001009895450089
 30
0.0000000349246037
  9
$LIMMIN
 10
0.0
 20
0.0
  9
$LIMMAX
 10
12.0
 20
9.0
  9
$ORTHOMODE
 70
     0
  9
$REGENMODE
 70
     1
  9
$FILLMODE
 70
     1
  9
$QTEXTMODE
 70
     0
  9
$MIRRTEXT
 70
     1
  9
$DRAGMODE
 70
     2
  9
$LTSCALE
 40
1.0
  9
$OSMODE
 70
    39
  9
$ATTMODE
 70
     1
  9
$TEXTSIZE
 40
0.1875
  9
$TRACEWID
 40
0.05
  9
$TEXTSTYLE
  7
STANDARD
  9
$CLAYER
  8
0
  9
$CELTYPE
  6
BYLAYER
  9
$CECOLOR
 62
   256
  9
$DIMSCALE
 40
1.0
  9
$DIMASZ
 40
0.25
  9
$DIMEXO
 40
0.0625
  9
$DIMDLI
 40
0.38
  9
$DIMRND
 40
0.0
  9
$DIMDLE
 40
0.0
  9
$DIMEXE
 40
0.0625
  9
$DIMTP
 40
0.0
  9
$DIMTM
 40
0.0
  9
$DIMTXT
 40
0.25
  9
$DIMCEN
 40
0.0
  9
$DIMTSZ
 40
0.0
  9
$DIMTOL
 70
     0
  9
$DIMLIM
 70
     0
  9
$DIMTIH
 70
     1
  9
$DIMTOH
 70
     1
  9
$DIMSE1
 70
     0
  9
$DIMSE2
 70
     0
  9
$DIMTAD
 70
     0
  9
$DIMZIN
 70
     0
  9
$DIMBLK
  1

  9
$DIMASO
 70
     1
  9
$DIMSHO
 70
     1
  9
$DIMPOST
  1

  9
$DIMAPOST
  1

  9
$DIMALT
 70
     0
  9
$DIMALTD
 70
     2
  9
$DIMALTF
 40
25.399999999999999
  9
$DIMLFAC
 40
1.0
  9
$DIMTOFL
 70
     0
  9
$DIMTVP
 40
0.0
  9
$DIMTIX
 70
     0
  9
$DIMSOXD
 70
     0
  9
$DIMSAH
 70
     0
  9
$DIMBLK1
  1

  9
$DIMBLK2
  1

  9
$DIMSTYLE
  2
STANDARD
  9
$DIMCLRD
 70
     0
  9
$DIMCLRE
 70
     0
  9
$DIMCLRT
 70
     0
  9
$DIMTFAC
 40
1.0
  9
$DIMGAP
 40
0.09
  9
$LUNITS
 70
     2
  9
$LUPREC
 70
     7
  9
$SKETCHINC
 40
0.1
  9
$FILLETRAD
 40
0.182882812499999
  9
$AUNITS
 70
     0
  9
$AUPREC
 70
     8
  9
$MENU
  1
.
  9
$ELEVATION
 40
0.0
  9
$PELEVATION
 40
0.0
  9
$THICKNESS
 40
0.0
  9
$LIMCHECK
 70
     0
  9
$BLIPMODE
 70
     0
  9
$CHAMFERA
 40
0.0
  9
$CHAMFERB
 40
0.0
  9
$SKPOLY
 70
     0
  9
$TDCREATE
 40
2453087.4292295142
  9
$TDUPDATE
 40
2453635.4536115509
  9
$TDINDWG
 40
0.0514579977
  9
$TDUSRTIMER
 40
0.0514581134
  9
$USRTIMER
 70
     1
  9
$ANGBASE
 50
0.0
  9
$ANGDIR
 70
     0
  9
$PDMODE
 70
     0
  9
$PDSIZE
 40
0.0
  9
$PLINEWID
 40
0.0
  9
$COORDS
 70
     1
  9
$SPLFRAME
 70
     0
  9
$SPLINETYPE
 70
     6
  9
$SPLINESEGS
 70
     8
  9
$ATTDIA
 70
     0
  9
$ATTREQ
 70
     1
  9
$HANDLING
 70
     1
  9
$HANDSEED
  5
EFB
  9
$SURFTAB1
 70
     6
  9
$SURFTAB2
 70
     6
  9
$SURFTYPE
 70
     6
  9
$SURFU
 70
     6
  9
$SURFV
 70
     6
  9
$UCSNAME
  2

  9
$UCSORG
 10
0.0
 20
0.0
 30
0.0
  9
$UCSXDIR
 10
1.0
 20
0.0
 30
0.0
  9
$UCSYDIR
 10
0.0
 20
1.0
 30
0.0
  9
$PUCSNAME
  2

  9
$PUCSORG
 10
0.0
 20
0.0
 30
0.0
  9
$PUCSXDIR
 10
1.0
 20
0.0
 30
0.0
  9
$PUCSYDIR
 10
0.0
 20
1.0
 30
0.0
  9
$USERI1
 70
     0
  9
$USERI2
 70
     0
  9
$USERI3
 70
     0
  9
$USERI4
 70
     0
  9
$USERI5
 70
     0
  9
$USERR1
 40
0.0
  9
$USERR2
 40
0.0
  9
$USERR3
 40
0.0
  9
$USERR4
 40
0.0
  9
$USERR5
 40
0.0
  9
$WORLDVIEW
 70
     1
  9
$SHADEDGE
 70
     3
  9
$SHADEDIF
 70
    70
  9
$TILEMODE
 70
     1
  9
$MAXACTVP
 70
    64
  9
$PLIMCHECK
 70
     0
  9
$PEXTMIN
 10
1.0000000000000000E+020
 20
1.0000000000000000E+020
 30
1.0000000000000000E+020
  9
$PEXTMAX
 10
-1.0000000000000000E+020
 20
-1.0000000000000000E+020
 30
-1.0000000000000000E+020
  9
$PLIMMIN
 10
0.0
 20
0.0
  9
$PLIMMAX
 10
12.0
 20
9.0
  9
$UNITMODE
 70
     0
  9
$VISRETAIN
 70
     1
  9
$PLINEGEN
 70
     0
  9
$PSLTSCALE
 70
     1
  0
ENDSEC
  0
SECTION
  2
TABLES
  0
TABLE
  2
VPORT
 70
    12
  0
VPORT
  2
*ACTIVE
 70
     0
 10
0.0
 20
0.0
 11
1.0
 21
1.0
 12
10.998734100768271
 22
8.4999403232804394
 13
0.0
 23
0.0
 14
0.5
 24
0.5
 15
0.5
 25
0.5
 16
0.0
 26
0.0
 36
1.0
 17
0.0
 27
0.0
 37
0.0
 40
17.224874591645062
 41
2.2297592997811808
 42
50.0
 43
0.0
 44
0.0
 50
0.0
 51
0.0
 71
     0
 72
 20000
 73
     1
 74
     2
 75
     0
 76
     0
 77
     0
 78
     0
  0
ENDTAB
  0
TABLE
  2
LTYPE
 70
     2
  0
LTYPE
  2
CONTINUOUS
 70
     0
  3
Solid line
 72
    65
 73
     0
 40
0.0
  0
ENDTAB
  0
TABLE
  2
LAYER
 70
     6
  0
LAYER
  2
0
 70
     0
 62
     7
  6
CONTINUOUS
  0
LAYER
  2
FORM
 70
     0
 62
     5
  6
CONTINUOUS
  0
LAYER
  2
UTILITY_ARM
 70
     0
 62
   178
  6
CONTINUOUS
  0
LAYER
  2
DEFPOINTS
 70
     0
 62
     7
  6
CONTINUOUS
  0
LAYER
  2
DIMENSIONS
 70
     0
 62
     1
  6
CONTINUOUS
  0
LAYER
  2
CONSTRUCTION_LINES
 70
     0
 62
   -53
  6
CONTINUOUS
  0
ENDTAB
  0
TABLE
  2
STYLE
 70
     4
  0
STYLE
  2
STANDARD
 70
     0
 40
0.0
 41
1.0
 50
0.0
 71
     0
 42
0.1875
  3
simplex.shx
  4

  0
ENDTAB
  0
TABLE
  2
VIEW
 70
     0
  0
ENDTAB
  0
TABLE
  2
UCS
 70
     0
  0
ENDTAB
  0
TABLE
  2
APPID
 70
     4
  0
APPID
  2
ACAD
 70
     0
  0
APPID
  2
DCO15
 70
     0
  0
APPID
  2
ACAECLAYERSTANDARD
 70
     0
  0
APPID
  2
ACAD_DSTYLE_DIMTEXT_FILL
 70
     0
  0
ENDTAB
  0
TABLE
  2
DIMSTYLE
 70
     5
  0
DIMSTYLE
  2
STANDARD
 70
     0
  3

  4

  5

  6

  7

 40
1.0
 41
0.25
 42
0.0625
 43
0.38
 44
0.0625
 45
0.0
 46
0.0
 47
0.0
 48
0.0
140
0.25
141
0.0
142
0.0
143
25.399999999999999
144
1.0
145
0.0
146
1.0
147
0.09
 71
     0
 72
     0
 73
     1
 74
     1
 75
     0
 76
     0
 77
     0
 78
     0
170
     0
171
     2
172
     0
173
     0
174
     0
175
     0
176
     0
177
     0
178
     0
  0
ENDTAB
  0
ENDSEC
  0
SECTION
  2
BLOCKS
  0
BLOCK
  8
0
  2
$MODEL_SPACE
 70
     0
 10
0.0
 20
0.0
 30
0.0
  3
$MODEL_SPACE
  1

  0
ENDBLK
  5
21
  8
0
  0
BLOCK
 67
     1
  8
0
  2
$PAPER_SPACE
 70
     0
 10
0.0
 20
0.0
 30
0.0
  3
$PAPER_SPACE
  1

  0
ENDBLK
  5
1D
 67
     1
  8
0
  0
BLOCK
  8
0
  2
*U33
 70
     1
 10
0.0
 20
0.0
 30
0.0
  3
*U33
  1

  0
TEXT
  5
E0E
  8
DIMENSIONS
 62
     0
 10
4.4628338923535562
 20
5.8446490272525367
 30
0.0
 40
0.25
  1
0.875
  0
ENDBLK
  5
E10
  8
0
  0
BLOCK
  8
0
  2
*U34
 70
     1
 10
0.0
 20
0.0
 30
0.0
  3
*U34
  1

  0
TEXT
  5
E12
  8
DIMENSIONS
 62
     0
 10
3.0149216965072618
 20
5.8446490272525384
 30
0.0
 40
0.25
  1
1.375
  0
ENDBLK
  5
E14
  8
0
  0
BLOCK
  8
0
  2
*U35
 70
     1
 10
0.0
 20
0.0
 30
0.0
  3
*U35
  1

  0
TEXT
  5
E16
  8
DIMENSIONS
 62
     0
 10
15.61666522565468
 20
5.8446490284466011
 30
0.0
 40
0.25
  1
0.603
  0
ENDBLK
  5
E18
  8
0
  0
BLOCK
  8
0
  2
*U36
 70
     1
 10
0.0
 20
0.0
 30
0.0
  3
*U36
  1

  0
TEXT
  5
E1A
  8
DIMENSIONS
 62
     0
 10
16.959481846761431
 20
5.8446492638407346
 30
0.0
 40
0.25
  1
0.852
  0
ENDBLK
  5
E1C
  8
0
  0
BLOCK
  8
0
  2
*U37
 70
     1
 10
0.0
 20
0.0
 30
0.0
  3
*U37
  1

  0
TEXT
  5
E1E
  8
DIMENSIONS
 62
     0
 10
18.31226462631464
 20
5.8446491460791146
 30
0.0
 40
0.25
  1
1.250
  0
ENDBLK
  5
E20
  8
0
  0
BLOCK
  8
0
  2
*U38
 70
     1
 10
0.0
 20
0.0
 30
0.0
  3
*U38
  1

  0
TEXT
  5
E22
  8
DIMENSIONS
 62
     0
 10
9.0920170665686513
 20
14.96629121905521
 30
0.0
 40
0.25
  1
R8.422
  0
ENDBLK
  5
E24
  8
0
  0
BLOCK
  8
0
  2
*U39
 70
     1
 10
0.0
 20
0.0
 30
0.0
  3
*U39
  1

  0
TEXT
  5
E26
  8
DIMENSIONS
 62
     0
 10
9.8029021918225183
 20
14.41056266857054
 30
0.0
 40
0.25
  1
R9.087
  0
ENDBLK
  5
E28
  8
0
  0
BLOCK
  8
0
  2
*U40
 70
     1
 10
0.0
 20
0.0
 30
0.0
  3
*U40
  1

  0
TEXT
  5
E2A
  8
DIMENSIONS
 62
     0
 10
12.05643934697633
 20
14.56747753831489
 30
0.0
 40
0.25
  1
R9.087
  0
ENDBLK
  5
E2C
  8
0
  0
BLOCK
  8
0
  2
*U41
 70
     1
 10
0.0
 20
0.0
 30
0.0
  3
*U41
  1

  0
TEXT
  5
E2E
  8
DIMENSIONS
 62
     0
 10
12.68906712985139
 20
9.7777765059656474
 30
0.0
 40
0.25
  1
R8.422
  0
ENDBLK
  5
E30
  8
0
  0
BLOCK
  8
0
  2
*U42
 70
     1
 10
0.0
 20
0.0
 30
0.0
  3
*U42
  1

  0
TEXT
  5
E32
  8
DIMENSIONS
 62
     0
 10
12.09586394698265
 20
8.9946821300951072
 30
0.0
 40
0.25
  1
R9.087
  0
ENDBLK
  5
E34
  8
0
  0
BLOCK
  8
0
  2
*U43
 70
     1
 10
0.0
 20
0.0
 30
0.0
  3
*U43
  1

  0
TEXT
  5
E36
  8
DIMENSIONS
 62
     0
 10
12.23254007297145
 20
6.753829663768971
 30
0.0
 40
0.25
  1
R9.087
  0
ENDBLK
  5
E38
  8
0
  0
BLOCK
  8
0
  2
*U44
 70
     1
 10
0.0
 20
0.0
 30
0.0
  3
*U44
  1

  0
TEXT
  5
E3A
  8
DIMENSIONS
 62
     0
 10
5.1765561197371177
 20
14.377314714118709
 30
0.0
 40
0.25
  1
0.875
  0
ENDBLK
  5
E3C
  8
0
  0
BLOCK
  8
0
  2
*U45
 70
     1
 10
0.0
 20
0.0
 30
0.0
  3
*U45
  1

  0
TEXT
  5
E3E
  8
DIMENSIONS
 62
     0
 10
3.6728656435466398
 20
15.14113489064982
 30
0.0
 40
0.25
  1
1.375
  0
ENDBLK
  5
E40
  8
0
  0
BLOCK
  8
0
  2
*U46
 70
     1
 10
0.0
 20
0.0
 30
0.0
  3
*U46
  1

  0
TEXT
  5
E42
  8
DIMENSIONS
 62
     0
 10
5.1650563563253069
 20
3.3271365608124759
 30
0.0
 40
0.25
  1
0.852
  0
ENDBLK
  5
E44
  8
0
  0
BLOCK
  8
0
  2
*U47
 70
     1
 10
0.0
 20
0.0
 30
0.0
  3
*U47
  1

  0
TEXT
  5
E46
  8
DIMENSIONS
 62
     0
 10
3.6728657623732168
 20
2.5378423127499721
 30
0.0
 40
0.25
  1
1.250
  0
ENDBLK
  5
E48
  8
0
  0
BLOCK
  8
0
  2
*U48
 70
     1
 10
0.0
 20
0.0
 30
0.0
  3
*U48
  1

  0
TEXT
  5
E4A
  8
DIMENSIONS
 62
     0
 10
5.0404467328612297
 20
8.8108245638364338
 30
0.0
 40
0.25
  1
0.603
  0
ENDBLK
  5
E4C
  8
0
  0
BLOCK
  8
0
  2
*U49
 70
     1
 10
0.0
 20
0.0
 30
0.0
  3
*U49
  1

  0
TEXT
  5
E4E
  8
DIMENSIONS
 62
     0
 10
5.1580561738470987
 20
9.5624603491255868
 30
0.0
 40
0.25
  1
0.838
  0
ENDBLK
  5
E50
  8
0
  0
BLOCK
  8
0
  2
*U50
 70
     1
 10
0.0
 20
0.0
 30
0.0
  3
*U50
  1

  0
TEXT
  5
E52
  8
DIMENSIONS
 62
     0
 10
10.94044630404851
 20
12.009577402700639
 30
0.0
 40
0.25
  1
R0.125
  0
ENDBLK
  5
E54
  8
0
  0
BLOCK
  8
0
  2
*U51
 70
     1
 10
0.0
 20
0.0
 30
0.0
  3
*U51
  1

  0
TEXT
  5
E56
  8
DIMENSIONS
 62
     0
 10
10.96244484485922
 20
13.93295955618793
 30
0.0
 40
0.25
  1
R0.430
  0
ENDBLK
  5
E58
  8
0
  0
BLOCK
  8
0
  2
*U52
 70
     1
 10
0.0
 20
0.0
 30
0.0
  3
*U52
  1

  0
TEXT
  5
E5A
  8
DIMENSIONS
 62
     0
 10
7.3442587934835606
 20
10.40613681682286
 30
0.0
 40
0.25
  1
27°
  0
ENDBLK
  5
E5C
  8
0
  0
BLOCK
  8
0
  2
*U53
 70
     1
 10
0.0
 20
0.0
 30
0.0
  3
*U53
  1

  0
TEXT
  5
E5E
  8
DIMENSIONS
 62
     0
 10
6.7036525413809924
 20
10.98813498796884
 30
0.0
 40
0.25
  1
32°
  0
ENDBLK
  5
E60
  8
0
  0
BLOCK
  8
0
  2
*U54
 70
     1
 10
0.0
 20
0.0
 30
0.0
  3
*U54
  1

  0
TEXT
  5
E62
  8
DIMENSIONS
 62
     0
 10
6.2069749331892643
 20
11.561007477387321
 30
0.0
 40
0.25
  1
36°
  0
ENDBLK
  5
E64
  8
0
  0
BLOCK
  8
0
  2
*U55
 70
     1
 10
0.0
 20
0.0
 30
0.0
  3
*U55
  1

  0
TEXT
  5
E66
  8
DIMENSIONS
 62
     0
 10
8.9159157727114913
 20
7.3055070142100531
 30
0.0
 40
0.25
  1
10°
  0
ENDBLK
  5
E68
  8
0
  0
BLOCK
  8
0
  2
*U56
 70
     1
 10
0.0
 20
0.0
 30
0.0
  3
*U56
  1

  0
TEXT
  5
E6A
  8
DIMENSIONS
 62
     0
 10
8.1689304935643001
 20
6.9784391482394712
 30
0.0
 40
0.25
  1
13°
  0
ENDBLK
  5
E6C
  8
0
  0
BLOCK
  8
0
  2
*U57
 70
     1
 10
0.0
 20
0.0
 30
0.0
  3
*U57
  1

  0
TEXT
  5
E6E
  8
DIMENSIONS
 62
     0
 10
7.7365860880665327
 20
5.6146111790252622
 30
0.0
 40
0.25
  1
26°
  0
ENDBLK
  5
E70
  8
0
  0
BLOCK
  8
0
  2
*U58
 70
     1
 10
0.0
 20
0.0
 30
0.0
  3
*U58
  1

  0
TEXT
  5
E72
  8
DIMENSIONS
 62
     0
 10
12.01914502912013
 20
3.8018023395215068
 30
0.0
 40
0.25
  1
0.250
  0
ENDBLK
  5
E74
  8
0
  0
BLOCK
  8
0
  2
*U59
 70
     1
 10
0.0
 20
0.0
 30
0.0
  3
*U59
  1

  0
TEXT
  5
E76
  8
DIMENSIONS
 62
     0
 10
10.93261913167659
 20
7.7538847995819884
 30
0.0
 40
0.25
  1
6°
  0
ENDBLK
  5
E78
  8
0
  0
ENDSEC
  0
SECTION
  2
ENTITIES
  0
LINE
  5
3AF
  8
UTILITY_ARM
 10
10.908089283733551
 20
3.4598091153422512
 30
0.0
 11
11.134042670740479
 21
3.957294295879604
 31
0.0
  0
ARC
  5
3B0
  8
UTILITY_ARM
 10
18.83957368324338
 20
7.3559459862151
 30
0.0
 40
9.0867599999999982
 50
192.63642187750011
 51
206.1613865923
  0
LINE
  5
3B1
  8
UTILITY_ARM
 10
3.7230563563253178
 20
3.349583849765009
 30
0.0
 11
3.52405623856369
 21
5.3680939317247702
 31
0.0
  0
LINE
  5
3B2
  8
UTILITY_ARM
 10
4.575056356325307
 20
3.349583849765009
 30
0.0
 11
4.7740562385636967
 21
5.3680940045922627
 31
0.0
  0
LINE
  5
3B3
  8
UTILITY_ARM
 10
10.479608655387599
 20
4.7231435412792973
 30
0.0
 11
10.67288786374319
 21
4.4201336242636389
 31
0.0
  0
LINE
  5
3B4
  8
UTILITY_ARM
 10
10.563451107678141
 20
5.2821779258976971
 30
0.0
 11
10.631013844406811
 21
5.0707085980680073
 31
0.0
  0
LINE
  5
3B5
  8
UTILITY_ARM
 10
10.488129163481441
 20
5.0250581002521653
 30
0.0
 11
10.631013844406811
 21
5.0707085980680073
 31
0.0
  0
LINE
  5
3B6
  8
UTILITY_ARM
 10
10.54003197087461
 20
5.9263835141058632
 30
0.0
 11
10.74377867426173
 21
5.5409171517619997
 31
0.0
  0
LINE
  5
3B7
  8
UTILITY_ARM
 10
10.74377867426173
 20
5.5409171517619997
 30
0.0
 11
10.563451107678141
 21
5.2821779258976971
 31
0.0
  0
LINE
  5
3B8
  8
UTILITY_ARM
 10
9.9729141371703776
 20
5.368093931714907
 30
0.0
 11
10.74377867426173
 21
5.5409171517619997
 31
0.0
  0
ARC
  5
3B9
  8
UTILITY_ARM
 10
18.839119707414689
 20
7.3559459862150716
 30
0.0
 40
9.0867599999999982
 50
144.1178720055
 51
180.00000000069991
  0
ARC
  5
3BA
  8
UTILITY_ARM
 10
18.839119707414689
 20
7.3559459862150716
 30
0.0
 40
8.4217600000000008
 50
146.97390681740231
 51
180.00000000069991
  0
LINE
  5
3BB
  8
UTILITY_ARM
 10
3.4615561197371179
 20
11.48809802318145
 30
0.0
 11
3.461556119737117
 21
7.355945986104059
 31
0.0
  0
LINE
  5
3BC
  8
UTILITY_ARM
 10
4.8365561197371179
 20
11.48809802318145
 30
0.0
 11
4.836556119737117
 21
7.355945986104059
 31
0.0
  0
LINE
  5
3BD
  8
UTILITY_ARM
 10
3.4615561197371179
 20
11.48809802318145
 30
0.0
 11
3.7115561197371179
 21
12.11683629487649
 31
0.0
  0
LINE
  5
3BE
  8
UTILITY_ARM
 10
4.8365561197371152
 20
11.48809802318145
 30
0.0
 11
4.5865561197371179
 21
12.11683629487649
 31
0.0
  0
LINE
  5
3BF
  8
UTILITY_ARM
 10
4.7115561197371223
 20
12.42984317683775
 30
0.0
 11
3.5865561197371179
 21
12.42984317683775
 31
0.0
  0
LINE
  5
3C2
  8
UTILITY_ARM
 10
4.5865561197371179
 20
12.859843176837749
 30
0.0
 11
3.7115561197371179
 21
12.859843176837749
 31
0.0
  0
LINE
  5
3C3
  8
UTILITY_ARM
 10
3.7115561197371179
 20
12.11683629487649
 30
0.0
 11
3.7115561197371179
 21
12.859843176837749
 31
0.0
  0
LINE
  5
3C4
  8
UTILITY_ARM
 10
4.5865561197371179
 20
12.11683629487649
 30
0.0
 11
4.5865561197371179
 21
12.859843176837741
 31
0.0
  0
LINE
  5
3C5
  8
UTILITY_ARM
 10
4.5680562073360687
 20
5.8510161635991667
 30
0.0
 11
4.5680561738470988
 21
6.491831718086968
 31
0.0
  0
LINE
  5
3C6
  8
UTILITY_ARM
 10
3.7300562073360721
 20
5.8510161148125066
 30
0.0
 11
3.7300561738470979
 21
6.491831669300308
 31
0.0
  0
LINE
  5
3C7
  8
UTILITY_ARM
 10
4.836556119737117
 20
7.355945986104059
 30
0.0
 11
3.461556119737117
 21
7.355945986104059
 31
0.0
  0
LINE
  5
3C8
  8
UTILITY_ARM
 10
4.5680561738471059
 20
6.4918317180869973
 30
0.0
 11
4.4504467328612298
 21
7.3559460036504278
 31
0.0
  0
LINE
  5
3C9
  8
UTILITY_ARM
 10
3.7300561738470952
 20
6.491831669300308
 30
0.0
 11
3.8476655066130041
 21
7.3559459685577169
 31
0.0
  0
LINE
  5
3CA
  8
UTILITY_ARM
 10
3.52405623856369
 20
5.3680939317247702
 30
0.0
 11
3.7300562073360788
 21
5.8510161147806459
 31
0.0
  0
LINE
  5
3CB
  8
UTILITY_ARM
 10
4.7740562385636967
 20
5.3680940045922627
 30
0.0
 11
3.52405623856369
 21
5.3680939317247702
 31
0.0
  0
LINE
  5
3CC
  8
UTILITY_ARM
 10
4.5680562073360687
 20
5.8510161635991667
 30
0.0
 11
3.7300562073360721
 21
5.8510161148125066
 31
0.0
  0
LINE
  5
3CD
  8
UTILITY_ARM
 10
4.5680562073360624
 20
5.851016163630999
 30
0.0
 11
3.7300562073360788
 21
5.8510161147806459
 31
0.0
  0
LINE
  5
3CE
  8
UTILITY_ARM
 10
4.7740562385636967
 20
5.3680940045922627
 30
0.0
 11
4.5680562073360624
 21
5.851016163630999
 31
0.0
  0
LINE
  5
3CF
  8
UTILITY_ARM
 10
9.9079057317743278
 20
7.3559459860942251
 30
0.0
 11
10.11233644742874
 21
5.8527146910185026
 31
0.0
  0
LINE
  5
3D0
  8
UTILITY_ARM
 10
10.30081368326441
 20
7.3559459861228174
 30
0.0
 11
10.42768636196363
 21
5.907032437666186
 31
0.0
  0
LINE
  5
3D1
  8
UTILITY_ARM
 10
10.41735970745593
 20
7.3559459861312577
 30
0.0
 11
9.7523597074951667
 21
7.3559459860829408
 31
0.0
  0
LINE
  5
3D2
  8
UTILITY_ARM
 10
10.373490971221729
 20
6.5259555712949409
 30
0.0
 11
10.02542024781606
 21
6.4918317180772203
 31
0.0
  0
LINE
  5
3D3
  8
UTILITY_ARM
 10
10.488129163481441
 20
5.0250581002521653
 30
0.0
 11
10.5748651092643
 21
4.7535772064309016
 31
0.0
  0
LINE
  5
3D4
  8
UTILITY_ARM
 10
10.10247538887662
 20
5.8510161635892759
 30
0.0
 11
9.9729141371703776
 21
5.368093931714907
 31
0.0
  0
LINE
  5
3D5
  8
UTILITY_ARM
 10
10.54003197087461
 20
5.9263835141058632
 30
0.0
 11
10.102475388876631
 21
5.8510161635893052
 31
0.0
  0
LINE
  5
3D6
  8
UTILITY_ARM
 10
10.479608655387599
 20
4.7231435412792973
 30
0.0
 11
10.5748651092643
 21
4.7535772064309016
 31
0.0
  0
ARC
  5
3D7
  8
UTILITY_ARM
 10
11.82520061785646
 20
12.429843176837741
 30
0.0
 40
0.43
 50
275.97051835709362
 51
51.270695027699887
  0
ARC
  5
3D8
  8
UTILITY_ARM
 10
11.82520061785646
 20
12.429843176837741
 30
0.0
 40
0.43
 50
51.270695027699887
 51
144.1178720055
  0
LINE
  5
3D9
  8
UTILITY_ARM
 10
11.665826816815761
 20
11.768418150775499
 30
0.0
 11
11.09940842303817
 21
12.11683629487649
 31
0.0
  0
ARC
  5
3DB
  8
UTILITY_ARM
 10
11.882929895504651
 20
11.87785374713622
 30
0.0
 40
0.125
 50
95.970518357095102
 51
146.97390681740319
  0
LINE
  5
3DC
  8
UTILITY_ARM
 10
11.33851448767037
 20
11.18569308413953
 30
0.0
 11
10.74625081926218
 21
11.48809802318145
 31
0.0
  0
LINE
  5
3DD
  8
UTILITY_ARM
 10
10.627054545856661
 20
4.3312555788514091
 30
0.0
 11
10.67288786374319
 21
4.4201336242636389
 31
0.0
  0
LINE
  5
3DE
  8
UTILITY_ARM
 10
10.84924965951986
 20
4.2166722839695696
 30
0.0
 11
10.627054545856661
 21
4.3312555788514091
 31
0.0
  0
LINE
  5
3DF
  8
UTILITY_ARM
 10
10.80341634153393
 20
4.1277942385683106
 30
0.0
 11
10.84924965951986
 21
4.2166722839695696
 31
0.0
  0
LINE
  5
3E0
  8
UTILITY_ARM
 10
11.134042670740479
 20
3.957294295879604
 30
0.0
 11
10.80341634153393
 21
4.1277942385683106
 31
0.0
  0
LINE
  5
3E1
  8
UTILITY_ARM
 10
4.575056356325307
 20
3.349583849765009
 30
0.0
 11
3.7230563563253178
 21
3.349583849765009
 31
0.0
  0
LINE
  5
3E2
  8
UTILITY_ARM
 10
10.908089283733551
 20
3.4598091153422512
 30
0.0
 11
10.68370035612533
 21
3.3495838497415611
 31
0.0
  0
TEXT
  5
7BA
  8
0
  6
CONTINUOUS
 10
77.196160853355209
 20
15.647815359972499
 30
0.0
 40
0.12
  1
 
 51
7.0
  0
TEXT
  5
7BB
  8
0
  6
CONTINUOUS
 10
89.640257618835093
 20
22.710689789704151
 30
0.0
 40
0.24
  1
 
 51
7.0
  0
TEXT
  5
7BC
  8
0
  6
CONTINUOUS
 10
98.850022630748384
 20
22.390679803127071
 30
0.0
 40
0.24
  1
 
 51
7.0
  0
TEXT
  5
7BD
  8
0
  6
CONTINUOUS
 10
108.65398211518109
 20
5.528099003599749
 30
0.0
 40
0.24
  1
 
 51
7.0
  0
LINE
  5
875
  8
0
 10
0.0
 20
0.0
 30
0.0
 11
0.0
 21
17.0
 31
0.0
  0
LINE
  5
876
  8
0
 10
22.0
 20
0.0
 30
0.0
 11
22.0
 21
17.0
 31
0.0
  0
LINE
  5
877
  8
0
 10
0.0
 20
0.0
 30
0.0
 11
22.0
 21
0.0
 31
0.0
  0
LINE
  5
878
  8
0
 10
0.0
 20
17.0
 30
0.0
 11
22.0
 21
17.0
 31
0.0
  0
LINE
  5
916
  8
FORM
 10
21.403846140107252
 20
0.7499999996674092
 30
0.0
 11
21.403846140107252
 21
15.153846144098431
 31
0.0
  0
LINE
  5
917
  8
FORM
 10
21.249999986363441
 20
15.307692297842239
 30
0.0
 11
0.7499999996674376
 21
15.307692297842239
 31
0.0
  0
LINE
  5
918
  8
FORM
 10
21.249999986363441
 20
0.5961538459236025
 30
0.0
 11
0.7499999996674376
 21
0.5961538459235954
 31
0.0
  0
LINE
  5
919
  8
FORM
 10
0.5961538459236168
 20
0.7499999996674092
 30
0.0
 11
0.5961538459236168
 21
15.153846144098431
 31
0.0
  0
TEXT
  5
91A
  8
FORM
 10
18.070794231102649
 20
2.6705065993040051
 30
0.0
 40
0.260516826749781
  1
UTILITY ARM
 72
     1
 11
19.243119951476672
 21
2.6705065993040051
 31
0.0
  0
TEXT
  5
91B
  8
FORM
 10
18.746897424334229
 20
2.1193155254872589
 30
0.0
 40
0.260516826749781
  1
BODY
 72
     1
 11
19.243119951476672
 21
2.1193155254872589
 31
0.0
  0
TEXT
  5
91C
  8
FORM
 10
16.770574233580561
 20
1.1177623757995749
 30
0.0
 40
0.260516826749781
  1
ASTROMECH DROID
  0
TEXT
  5
91D
  8
FORM
 10
20.85720038004996
 20
1.1278903102633671
 30
0.0
 40
0.260516826749781
  1
A
  0
TEXT
  5
91E
  8
FORM
 10
17.25446024791373
 20
0.813671414000872
 30
0.0
 40
0.1042067306999124
  1
FULL
  0
TEXT
  5
91F
  8
FORM
 10
20.593280544426019
 20
0.8165882189588344
 30
0.0
 40
0.1042067306999124
  1
1   1
  0
TEXT
  5
920
  8
FORM
 10
18.867373488668239
 20
0.8246381046439915
 30
0.0
 40
0.1042067306999124
  1
APRIL 2005
 72
     2
 11
19.770498488067489
 21
0.8246381046439915
 31
0.0
  0
TEXT
  5
921
  8
FORM
  6
CONTINUOUS
 10
18.118827913558601
 20
0.8235896747318066
 30
0.0
 40
0.0900346153247244
  1
DRAWN:
  0
TEXT
  5
922
  8
FORM
  6
CONTINUOUS
 10
16.72518466957764
 20
0.8236741054737031
 30
0.0
 40
0.0900346153247244
  1
SCALE:
  0
TEXT
  5
923
  8
FORM
  6
CONTINUOUS
 10
20.01795677316494
 20
0.8225458122742352
 30
0.0
 40
0.0900346153247244
  1
SHEET:   OF
  0
TEXT
  5
924
  8
FORM
  6
CONTINUOUS
 10
16.560769897877751
 20
1.5378028837587541
 30
0.0
 40
0.0900346153247244
  1
DRAWING NO.
  0
TEXT
  5
925
  8
FORM
  6
CONTINUOUS
 10
20.822311852397561
 20
1.537802883758743
 30
0.0
 40
0.0900346153247244
  1
REV.
 72
     1
 11
20.955220094067389
 21
1.537802883758743
 31
0.0
  0
LINE
  5
926
  8
FORM
  6
CONTINUOUS
 10
16.703251912464879
 20
3.3610038440844141
 30
0.0
 11
21.02491344805162
 21
3.3610038440844141
 31
0.0
  0
LINE
  5
927
  8
FORM
  6
CONTINUOUS
 10
16.478165374153061
 20
0.9750865379792159
 30
0.0
 11
16.478165374153029
 21
3.1359173057725931
 31
0.0
  0
LINE
  5
928
  8
FORM
  6
CONTINUOUS
 10
16.478165374153061
 20
1.672854806745828
 30
0.0
 11
21.249999986363441
 21
1.672854806745828
 31
0.0
  0
LINE
  5
929
  8
FORM
  6
CONTINUOUS
 10
16.478165374153061
 20
0.9750865379792159
 30
0.0
 11
21.249999986363441
 21
0.9750865379792159
 31
0.0
  0
LINE
  5
92A
  8
FORM
  6
CONTINUOUS
 10
17.97804237543275
 20
0.9750865379792159
 30
0.0
 11
17.97804237543275
 21
0.7499999996674092
 31
0.0
  0
LINE
  5
92B
  8
FORM
  6
CONTINUOUS
 10
19.950430811671389
 20
0.9723156702741989
 30
0.0
 11
19.950430811671389
 21
0.7472291319623921
 31
0.0
  0
LINE
  5
92C
  8
FORM
  6
CONTINUOUS
 10
20.65524763562988
 20
1.672854806745828
 30
0.0
 11
20.65524763562988
 21
0.9750865379792159
 31
0.0
  0
ARC
  5
92D
  8
FORM
 62
     5
 10
16.925603837263051
 20
2.683123263179624
 30
0.0
 40
0.0245481788339413
 50
152.18113099770551
 51
330.99098814993278
  0
ARC
  5
92E
  8
FORM
 62
     5
 10
17.03186349061718
 20
2.8877559907035391
 30
0.0
 40
0.0215248522646385
 50
335.32315363464198
 51
152.67224926330371
  0
ARC
  5
92F
  8
FORM
 62
     5
 10
18.67139281679863
 20
1.8778243841790809
 30
0.0
 40
1.9470863223045181
 50
148.41494327216151
 51
155.19852313243231
  0
ARC
  5
930
  8
FORM
 62
     5
 10
19.04826621925363
 20
1.7448079813832851
 30
0.0
 40
2.2963564077758769
 50
150.40875710206339
 51
156.20744757951141
  0
ARC
  5
931
  8
FORM
 62
     7
 10
16.856187689619201
 20
2.476891943456518
 30
0.0
 40
0.0328016362752216
 50
161.128725237971
 51
346.89295927401372
  0
ARC
  5
932
  8
FORM
 62
     7
 10
26.446981545233939
 20
-1.665659984064163
 30
0.0
 40
10.414927500982669
 50
153.58307292081309
 51
156.60691138966209
  0
ARC
  5
933
  8
FORM
 62
     7
 10
24.942765772362829
 20
-1.1245203992272681
 30
0.0
 40
8.873647082696257
 50
152.34095999775931
 51
152.9694116127464
  0
ARC
  5
934
  8
FORM
 62
     7
 10
25.042235970541071
 20
-1.413551413076795
 30
0.0
 40
9.0960831006715779
 50
153.37112835275721
 51
154.60402195655351
  0
ARC
  5
935
  8
FORM
 62
     7
 10
17.329398129118289
 20
2.8602652973761158
 30
0.0
 40
0.2358358050601862
 50
23.468725928191049
 51
88.151617587883351
  0
ARC
  5
936
  8
FORM
 62
     7
 10
17.33466889121355
 20
2.8754695652234821
 30
0.0
 40
0.2783521476800796
 50
18.232625295665532
 51
154.63608874642679
  0
ARC
  5
937
  8
FORM
 62
     7
 10
17.41806628342874
 20
2.9044827195306051
 30
0.0
 40
0.1900699214402894
 50
336.99722732837893
 51
341.11190659806488
  0
ARC
  5
938
  8
FORM
 62
     7
 10
17.429371041778779
 20
2.912888609699027
 30
0.0
 40
0.1244898949022119
 50
333.24704424527522
 51
339.12675173356178
  0
ARC
  5
939
  8
FORM
 62
     7
 10
17.547120806258562
 20
2.8541053585607901
 30
0.0
 40
0.007134896083525
 50
157.37475902115841
 51
243.18317341424029
  0
ARC
  5
93A
  8
FORM
 62
     7
 10
17.589262332130431
 20
2.8313183495512071
 30
0.0
 40
0.0039211308505914
 50
246.74236679857631
 51
343.55073793579641
  0
ARC
  5
93B
  8
FORM
 62
     7
 10
17.71265002297525
 20
3.1590467530149189
 30
0.0
 40
0.3541033340658146
 50
241.5396617947477
 51
249.33988332022491
  0
ARC
  5
93C
  8
FORM
 62
     7
 10
17.465116861604141
 20
2.7835275642507962
 30
0.0
 40
0.0699031230302257
 50
210.28645373052609
 51
287.25915125833183
  0
ARC
  5
93D
  8
FORM
 62
     7
 10
17.471123101482839
 20
2.7532989527990699
 30
0.0
 40
0.0393865134548433
 50
291.96730232828992
 51
10.20108836223371
  0
ARC
  5
93E
  8
FORM
 62
     7
 10
17.159843992632862
 20
2.6859329108208518
 30
0.0
 40
0.2527202610277017
 50
14.28109924276106
 51
24.947261539878259
  0
ARC
  5
93F
  8
FORM
 62
     7
 10
17.30724545805592
 20
2.7624795397720869
 30
0.0
 40
0.0870866377029319
 50
20.183063788867599
 51
47.833846572520173
  0
ARC
  5
940
  8
FORM
 62
     7
 10
17.323525970686489
 20
2.7183682645997709
 30
0.0
 40
0.1165593648186974
 50
68.784960310907394
 51
94.742087985452599
  0
ARC
  5
941
  8
FORM
 62
     7
 10
17.32225776675568
 20
2.7872533208520021
 30
0.0
 40
0.0480101674679103
 50
100.0375073429591
 51
170.98475346238999
  0
ARC
  5
942
  8
FORM
 62
     7
 10
17.548079884465121
 20
2.754066770453373
 30
0.0
 40
0.2762551956077745
 50
171.52589863719891
 51
197.494741096675
  0
ARC
  5
943
  8
FORM
 62
     7
 10
17.361988404409459
 20
2.757975203687443
 30
0.0
 40
0.1479164690482495
 50
0.8906501289532242
 51
49.113860192417171
  0
ARC
  5
944
  8
FORM
 62
     7
 10
17.330827327390121
 20
2.7851061194825268
 30
0.0
 40
0.1164203647136616
 50
99.869748807366761
 51
175.59516845025641
  0
ARC
  5
945
  8
FORM
 62
     7
 10
17.35181928853353
 20
2.721979015220195
 30
0.0
 40
0.1824780170187834
 50
54.104282451028169
 51
102.9674010870567
  0
ARC
  5
946
  8
FORM
 62
     7
 10
17.866825478371819
 20
2.8305495615738461
 30
0.0
 40
0.603682768180479
 50
195.32307896217739
 51
209.290843156958
  0
ARC
  5
947
  8
FORM
 62
     7
 10
17.676878331574731
 20
2.7315679572076941
 30
0.0
 40
0.4663319886455236
 50
172.3003020759547
 51
200.12627387409299
  0
ARC
  5
948
  8
FORM
 62
     7
 10
18.010296677355171
 20
2.8617220596188409
 30
0.0
 40
0.8242093741364085
 50
200.64629086238159
 51
210.0464960904439
  0
ARC
  5
949
  8
FORM
 62
     7
 10
16.87490984687733
 20
2.2228629736894798
 30
0.0
 40
0.5605059965149727
 50
28.43194910738432
 51
33.865461133002448
  0
ARC
  5
94A
  8
FORM
 62
     7
 10
17.335282492148359
 20
2.4642291377128478
 30
0.0
 40
0.0413303405420145
 50
201.56446042640411
 51
38.094090168146302
  0
ARC
  5
94B
  8
FORM
 62
     5
 10
17.698488306364109
 20
2.8075987703319072
 30
0.0
 40
0.0229902810191139
 50
227.6202696593605
 51
57.412112921204063
  0
ARC
  5
94C
  8
FORM
 62
     5
 10
17.427351296879149
 20
2.453894972691713
 30
0.0
 40
0.4685807675213703
 50
52.766851639305898
 51
65.063571515457895
  0
ARC
  5
94D
  8
FORM
 62
     5
 10
17.209234353189508
 20
2.115713416994772
 30
0.0
 40
0.8245845677332351
 50
54.932512589538817
 51
74.152868438598915
  0
ARC
  5
94E
  8
FORM
 62
     5
 10
17.22112341118936
 20
1.8705744209651269
 30
0.0
 40
1.0600616451387339
 50
78.393012355262385
 51
89.647961077025343
  0
ARC
  5
94F
  8
FORM
 62
     5
 10
17.225855158117209
 20
2.9613835761542329
 30
0.0
 40
0.0308190515998151
 50
183.9979944211656
 51
273.313807745882
  0
ARC
  5
950
  8
FORM
 62
     5
 10
17.329870384946641
 20
2.9695252211814269
 30
0.0
 40
0.135151603104915
 50
145.60859166919269
 51
184.36670732083471
  0
ARC
  5
951
  8
FORM
 62
     5
 10
17.246715832908791
 20
3.027923603152622
 30
0.0
 40
0.0335688941126511
 50
75.244714174009715
 51
147.6929850116162
  0
ARC
  5
952
  8
FORM
 62
     5
 10
16.846566400398309
 20
1.4922623483111219
 30
0.0
 40
1.6205076763160291
 50
61.637242241525243
 51
75.392005557716701
  0
ARC
  5
953
  8
FORM
 62
     5
 10
17.585771892302461
 20
2.8909845400545029
 30
0.0
 40
0.0409937741994102
 50
342.69825742684009
 51
41.67278378767756
  0
ARC
  5
954
  8
FORM
 62
     7
 10
17.41806628342874
 20
2.9044827195306051
 30
0.0
 40
0.1900699214402894
 50
5.6380312699922799
 51
17.791456368736839
  0
ARC
  5
955
  8
FORM
 62
     7
 10
17.5045622300951
 20
2.0088127942983891
 30
0.0
 40
0.0608207837544583
 50
88.432533024773406
 51
186.62631613112151
  0
ARC
  5
956
  8
FORM
 62
     7
 10
17.514107893903311
 20
2.0214944811508531
 30
0.0
 40
0.0726809031862866
 50
195.7266305128272
 51
285.3806868435185
  0
ARC
  5
957
  8
FORM
 62
     7
 10
17.428397303924321
 20
2.6646932328165849
 30
0.0
 40
0.7209618028535085
 50
278.37329371359471
 51
293.15208507016871
  0
ARC
  5
958
  8
FORM
 62
     7
 10
17.670280088548282
 20
2.2109164793858191
 30
0.0
 40
0.1486954171998164
 50
257.51805604168283
 51
277.23103351305667
  0
ARC
  5
959
  8
FORM
 62
     7
 10
17.67861701724112
 20
2.0887614153130118
 30
0.0
 40
0.0273997705390677
 50
292.26031345923337
 51
12.867379300523719
  0
ARC
  5
95A
  8
FORM
 62
     7
 10
17.658243987918521
 20
2.0848332422543971
 30
0.0
 40
0.0481411784627428
 50
12.02537552739555
 51
52.143631645159331
  0
ARC
  5
95B
  8
FORM
 62
     7
 10
18.68473167686761
 20
3.3322419147777782
 30
0.0
 40
1.5673362882102819
 50
219.60277928185971
 51
230.5002020408055
  0
ARC
  5
95C
  8
FORM
 62
     7
 10
17.71719517775902
 20
2.5209914067630801
 30
0.0
 40
0.3048383262947374
 50
175.97523115435061
 51
218.04500009534141
  0
ARC
  5
95D
  8
FORM
 62
     7
 10
17.587988709286751
 20
2.5516026198667592
 30
0.0
 40
0.1751226981011722
 50
149.96078860476399
 51
183.01641230856191
  0
ARC
  5
95E
  8
FORM
 62
     7
 10
17.465652099646999
 20
2.6236413715572442
 30
0.0
 40
0.03317488584424
 50
69.764209445538683
 51
151.8988190455112
  0
ARC
  5
95F
  8
FORM
 62
     7
 10
17.461738153470581
 20
2.621386420418637
 30
0.0
 40
0.0367584023789668
 50
357.6694469744499
 51
65.251102439515435
  0
ARC
  5
960
  8
FORM
 62
     7
 10
17.375127171955
 20
2.6142785816255478
 30
0.0
 40
0.1234666367742727
 50
345.36193237678458
 51
2.6056939300727819
  0
ARC
  5
961
  8
FORM
 62
     7
 10
17.770788346688299
 20
2.4976765653254129
 30
0.0
 40
0.289103498612585
 50
162.81861830880709
 51
185.35496664157321
  0
ARC
  5
962
  8
FORM
 62
     7
 10
17.738557938675601
 20
2.526678108373186
 30
0.0
 40
0.261669979998945
 50
192.3534994193023
 51
222.3020476696033
  0
ARC
  5
963
  8
FORM
 62
     7
 10
18.640000382871079
 20
3.2533952889623161
 30
0.0
 40
1.419181254971364
 50
219.50633019139829
 51
228.42762303996261
  0
ARC
  5
964
  8
FORM
 62
     7
 10
17.545150090279261
 20
1.9830014576086259
 30
0.0
 40
0.2588352891177654
 50
32.971129457978869
 51
53.728419363024337
  0
ARC
  5
965
  8
FORM
 62
     7
 10
17.685505274612321
 20
2.0841393566689059
 30
0.0
 40
0.0864595649942742
 50
287.74749415951351
 51
27.35211189662947
  0
ARC
  5
966
  8
FORM
 62
     7
 10
17.556150910590731
 20
1.521887384058928
 30
0.0
 40
0.5499940598264056
 50
81.426570944510203
 51
95.208118001959775
  0
ARC
  5
967
  8
FORM
 62
     7
 10
17.31874226594763
 20
2.379232385518228
 30
0.0
 40
0.0244848954091209
 50
325.52447187114308
 51
75.340502228459783
  0
ARC
  5
968
  8
FORM
 62
     7
 10
17.28857503182331
 20
2.4013816515593862
 30
0.0
 40
0.0619027859518531
 50
277.78730616127859
 51
324.42957968808531
  0
ARC
  5
969
  8
FORM
 62
     7
 10
17.277627430402191
 20
2.4116764447725738
 30
0.0
 40
0.0741905263351136
 50
243.48581874200181
 51
285.1065744639306
  0
ARC
  5
96A
  8
FORM
 62
     7
 10
13.99616984532571
 20
-5.9734717723731041
 30
0.0
 40
9.0135811594364625
 50
68.327181839257534
 51
70.606105230637283
  0
ARC
  5
96B
  8
FORM
 62
     7
 10
16.982860283602829
 20
2.502260489661857
 30
0.0
 40
0.0271571196358057
 50
76.445232091872299
 51
134.36352227876461
  0
ARC
  5
96C
  8
FORM
 62
     7
 10
17.103601465049451
 20
2.316491870596419
 30
0.0
 40
0.2482433149023289
 50
124.2547762008316
 51
135.012931962436
  0
ARC
  5
96D
  8
FORM
 62
     7
 10
16.932687772438332
 20
2.4840903864877362
 30
0.0
 40
0.0091691237651447
 50
120.5491196217084
 51
251.48388650457539
  0
ARC
  5
96E
  8
FORM
 62
     7
 10
15.698852283122079
 20
-0.947959245240991
 30
0.0
 40
3.6379298384249581
 50
64.85742894317822
 51
67.515132469299331
  0
ARC
  5
96F
  8
FORM
 62
     7
 10
17.23599357112948
 20
2.291795105104121
 30
0.0
 40
0.0343472402230129
 50
329.18566117941782
 51
69.527151249863806
  0
ARC
  5
970
  8
FORM
 62
     7
 10
17.145886072427881
 20
2.1556962750494151
 30
0.0
 40
0.1968392862921899
 50
58.747973844557563
 51
81.106226592028094
  0
ARC
  5
971
  8
FORM
 62
     7
 10
17.124947044127829
 20
2.0252080021495891
 30
0.0
 40
0.3289962935825703
 50
81.016817915507374
 51
97.679603827268224
  0
ARC
  5
972
  8
FORM
 62
     7
 10
17.159573600239298
 20
2.1240726877937131
 30
0.0
 40
0.2440398498458748
 50
121.5050128230593
 51
139.09578810607039
  0
ARC
  5
973
  8
FORM
 62
     7
 10
17.225825242067831
 20
2.2865562155100809
 30
0.0
 40
0.0415466234232141
 50
277.70569210516868
 51
342.69880024124109
  0
ARC
  5
974
  8
FORM
 62
     7
 10
17.213074197788071
 20
2.3334352792513711
 30
0.0
 40
0.0899365447321688
 50
250.08394506358289
 51
281.75453717228322
  0
ARC
  5
975
  8
FORM
 62
     7
 10
17.2424582627973
 20
2.3437609022874879
 30
0.0
 40
0.1122732419236369
 50
221.18187885427241
 51
237.68378775985289
  0
ARC
  5
976
  8
FORM
 62
     7
 10
17.11078230927049
 20
2.213603979985677
 30
0.0
 40
0.0733994924367979
 50
50.003848755011681
 51
75.5416830098399
  0
ARC
  5
977
  8
FORM
 62
     7
 10
17.10690002874345
 20
2.2402084319691471
 30
0.0
 40
0.0497074536252231
 50
63.4626603498468
 51
100.74200229027051
  0
ARC
  5
978
  8
FORM
 62
     7
 10
17.09763521067913
 20
2.2049366923578511
 30
0.0
 40
0.0841081409133923
 50
89.999999999999588
 51
125.5974615489027
  0
ARC
  5
979
  8
FORM
 62
     7
 10
18.09535908495533
 20
2.805145934228654
 30
0.0
 40
1.1637748462988311
 50
197.51922498184919
 51
203.981481444731
  0
ARC
  5
97A
  8
FORM
 62
     7
 10
16.736982371619181
 20
2.433687501517297
 30
0.0
 40
0.3537389089231183
 50
346.52409876011302
 51
356.71498770316703
  0
ARC
  5
97B
  8
FORM
 62
     7
 10
15.698852283122079
 20
-0.947959245240991
 30
0.0
 40
3.6379298384249581
 50
69.286600818944052
 51
70.22311760076802
  0
ARC
  5
97C
  8
FORM
 62
     7
 10
16.92789692922846
 20
2.1257895907104252
 30
0.0
 40
0.1066736432871782
 50
245.40259669902051
 51
275.40975098180542
  0
ARC
  5
97D
  8
FORM
 62
     7
 10
17.301941284744
 20
1.9333049606058379
 30
0.0
 40
0.4239787481416163
 50
126.68044463040199
 51
139.78708822539889
  0
ARC
  5
97E
  8
FORM
 62
     7
 10
16.925901396850119
 20
2.42585100124619
 30
0.0
 40
0.4064386631288638
 50
271.69929119420118
 51
283.39540842056908
  0
ARC
  5
97F
  8
FORM
 62
     7
 10
17.685900196427319
 20
1.487877603185271
 30
0.0
 40
1.0089968057446299
 50
134.5410403491789
 51
138.91474429089899
  0
ARC
  5
980
  8
FORM
 62
     7
 10
16.942625607711989
 20
2.1366275124138698
 30
0.0
 40
0.0266928289273625
 50
201.8252958964795
 51
267.16449786715452
  0
ARC
  5
981
  8
FORM
 62
     7
 10
16.936879259411789
 20
2.1340951027918962
 30
0.0
 40
0.0204180021895292
 50
124.254854327418
 51
201.22329273937871
  0
ARC
  5
982
  8
FORM
 62
     7
 10
16.999050226745201
 20
2.1174828639755172
 30
0.0
 40
0.0895139066856433
 50
283.5751770312794
 51
324.58969283639942
  0
ARC
  5
983
  8
FORM
 62
     7
 10
17.05010181640597
 20
2.0748500422369349
 30
0.0
 40
0.0237711578752802
 50
337.14160324238759
 51
47.56496670892831
  0
ARC
  5
984
  8
FORM
 62
     7
 10
17.01351320176212
 20
2.0225775754130799
 30
0.0
 40
0.0874305156836371
 50
52.990730681111657
 51
91.748895977531376
  0
ARC
  5
985
  8
FORM
 62
     7
 10
16.97607501860476
 20
2.3473211427073291
 30
0.0
 40
0.2398869733850244
 50
261.66603807207321
 51
278.33396192792679
  0
ARC
  5
986
  8
FORM
 62
     7
 10
16.904055290181631
 20
2.0802584334887442
 30
0.0
 40
0.0554174778483587
 50
192.64550774538381
 51
248.2223967256862
  0
ARC
  5
987
  8
FORM
 62
     7
 10
16.890435234000019
 20
2.0865365172575769
 30
0.0
 40
0.0444453205431241
 50
178.88427582775461
 51
204.46998391858139
  0
ARC
  5
988
  8
FORM
 62
     7
 10
17.00038134049046
 20
2.0753041716250129
 30
0.0
 40
0.1548562786887746
 50
140.54690015149379
 51
175.5193383191162
  0
ARC
  5
989
  8
FORM
 62
     7
 10
18.525663181526959
 20
0.8608942872864346
 30
0.0
 40
2.1045236570324608
 50
137.45643980933039
 51
141.40545593619069
  0
POLYLINE
  5
98A
  8
FORM
 62
     1
 10
17.275622491608207
 20
3.0402781737931805
 30
0.0
 66
     1
 70
     8
  0
VERTEX
  8
FORM
  5
E79
 10
17.2756
 20
3.04028
 30
0.000000
  70
    32
  0
VERTEX
  8
FORM
  5
E7A
 10
17.2747
 20
3.04062
 30
0.000000
  70
    32
  0
VERTEX
  8
FORM
  5
E7B
 10
17.2737
 20
3.04086
 30
0.000000
  70
    32
  0
VERTEX
  8
FORM
  5
E7C
 10
17.2727
 20
3.04098
 30
0.000000
  70
    32
  0
VERTEX
  8
FORM
  5
E7D
 10
17.2716
 20
3.04100
 30
0.000000
  70
    32
  0
VERTEX
  8
FORM
  5
E7E
 10
17.2705
 20
3.04091
 30
0.000000
  70
    32
  0
VERTEX
  8
FORM
  5
E7F
 10
17.2694
 20
3.04070
 30
0.000000
  70
    32
  0
VERTEX
  8
FORM
  5
E80
 10
17.2682
 20
3.04039
 30
0.000000
  70
    32
  0
VERTEX
  8
FORM
  5
E81
 10
17.2670
 20
3.03997
 30
0.000000
  70
    32
  0
VERTEX
  8
FORM
  5
E82
 10
17.2658
 20
3.03944
 30
0.000000
  70
    32
  0
VERTEX
  8
FORM
  5
E83
 10
17.2646
 20
3.03880
 30
0.000000
  70
    32
  0
VERTEX
  8
FORM
  5
E84
 10
17.2633
 20
3.03806
 30
0.000000
  70
    32
  0
VERTEX
  8
FORM
  5
E85
 10
17.2620
 20
3.03722
 30
0.000000
  70
    32
  0
VERTEX
  8
FORM
  5
E86
 10
17.2607
 20
3.03627
 30
0.000000
  70
    32
  0
VERTEX
  8
FORM
  5
E87
 10
17.2594
 20
3.03523
 30
0.000000
  70
    32
  0
VERTEX
  8
FORM
  5
E88
 10
17.2581
 20
3.03409
 30
0.000000
  70
    32
  0
VERTEX
  8
FORM
  5
E89
 10
17.2568
 20
3.03286
 30
0.000000
  70
    32
  0
VERTEX
  8
FORM
  5
E8A
 10
17.2554
 20
3.03154
 30
0.000000
  70
    32
  0
VERTEX
  8
FORM
  5
E8B
 10
17.2541
 20
3.03013
 30
0.000000
  70
    32
  0
VERTEX
  8
FORM
  5
E8C
 10
17.2528
 20
3.02864
 30
0.000000
  70
    32
  0
VERTEX
  8
FORM
  5
E8D
 10
17.2515
 20
3.02706
 30
0.000000
  70
    32
  0
VERTEX
  8
FORM
  5
E8E
 10
17.2502
 20
3.02541
 30
0.000000
  70
    32
  0
VERTEX
  8
FORM
  5
E8F
 10
17.2489
 20
3.02369
 30
0.000000
  70
    32
  0
VERTEX
  8
FORM
  5
E90
 10
17.2476
 20
3.02190
 30
0.000000
  70
    32
  0
VERTEX
  8
FORM
  5
E91
 10
17.2464
 20
3.02004
 30
0.000000
  70
    32
  0
VERTEX
  8
FORM
  5
E92
 10
17.2451
 20
3.01813
 30
0.000000
  70
    32
  0
VERTEX
  8
FORM
  5
E93
 10
17.2439
 20
3.01616
 30
0.000000
  70
    32
  0
VERTEX
  8
FORM
  5
E94
 10
17.2427
 20
3.01414
 30
0.000000
  70
    32
  0
VERTEX
  8
FORM
  5
E95
 10
17.2416
 20
3.01208
 30
0.000000
  70
    32
  0
VERTEX
  8
FORM
  5
E96
 10
17.2405
 20
3.00997
 30
0.000000
  70
    32
  0
VERTEX
  8
FORM
  5
E97
 10
17.2394
 20
3.00783
 30
0.000000
  70
    32
  0
VERTEX
  8
FORM
  5
E98
 10
17.2384
 20
3.00566
 30
0.000000
  70
    32
  0
VERTEX
  8
FORM
  5
E99
 10
17.2374
 20
3.00347
 30
0.000000
  70
    32
  0
VERTEX
  8
FORM
  5
E9A
 10
17.2364
 20
3.00125
 30
0.000000
  70
    32
  0
VERTEX
  8
FORM
  5
E9B
 10
17.2356
 20
2.99902
 30
0.000000
  70
    32
  0
VERTEX
  8
FORM
  5
E9C
 10
17.2347
 20
2.99679
 30
0.000000
  70
    32
  0
VERTEX
  8
FORM
  5
E9D
 10
17.2339
 20
2.99454
 30
0.000000
  70
    32
  0
VERTEX
  8
FORM
  5
E9E
 10
17.2332
 20
2.99231
 30
0.000000
  70
    32
  0
VERTEX
  8
FORM
  5
E9F
 10
17.2325
 20
2.99007
 30
0.000000
  70
    32
  0
VERTEX
  8
FORM
  5
EA0
 10
17.2318
 20
2.98785
 30
0.000000
  70
    32
  0
VERTEX
  8
FORM
  5
EA1
 10
17.2313
 20
2.98565
 30
0.000000
  70
    32
  0
VERTEX
  8
FORM
  5
EA2
 10
17.2307
 20
2.98348
 30
0.000000
  70
    32
  0
VERTEX
  8
FORM
  5
EA3
 10
17.2303
 20
2.98133
 30
0.000000
  70
    32
  0
VERTEX
  8
FORM
  5
EA4
 10
17.2299
 20
2.97921
 30
0.000000
  70
    32
  0
VERTEX
  8
FORM
  5
EA5
 10
17.2296
 20
2.97713
 30
0.000000
  70
    32
  0
VERTEX
  8
FORM
  5
EA6
 10
17.2293
 20
2.97510
 30
0.000000
  70
    32
  0
VERTEX
  8
FORM
  5
EA7
 10
17.2291
 20
2.97312
 30
0.000000
  70
    32
  0
VERTEX
  8
FORM
  5
EA8
 10
17.2289
 20
2.97119
 30
0.000000
  70
    32
  0
VERTEX
  8
FORM
  5
EA9
 10
17.2289
 20
2.96931
 30
0.000000
  70
    32
  0
VERTEX
  8
FORM
  5
EAA
 10
17.2289
 20
2.96751
 30
0.000000
  70
    32
  0
VERTEX
  8
FORM
  5
EAB
 10
17.2289
 20
2.96576
 30
0.000000
  70
    32
  0
VERTEX
  8
FORM
  5
EAC
 10
17.2290
 20
2.96409
 30
0.000000
  70
    32
  0
VERTEX
  8
FORM
  5
EAD
 10
17.2292
 20
2.96250
 30
0.000000
  70
    32
  0
VERTEX
  8
FORM
  5
EAE
 10
17.2295
 20
2.96098
 30
0.000000
  70
    32
  0
VERTEX
  8
FORM
  5
EAF
 10
17.2298
 20
2.95955
 30
0.000000
  70
    32
  0
VERTEX
  8
FORM
  5
EB0
 10
17.2301
 20
2.95820
 30
0.000000
  70
    32
  0
VERTEX
  8
FORM
  5
EB1
 10
17.2306
 20
2.95694
 30
0.000000
  70
    32
  0
VERTEX
  8
FORM
  5
EB2
 10
17.2311
 20
2.95577
 30
0.000000
  70
    32
  0
VERTEX
  8
FORM
  5
EB3
 10
17.2316
 20
2.95470
 30
0.000000
  70
    32
  0
VERTEX
  8
FORM
  5
EB4
 10
17.2323
 20
2.95373
 30
0.000000
  70
    32
  0
VERTEX
  8
FORM
  5
EB5
 10
17.2329
 20
2.95286
 30
0.000000
  70
    32
  0
VERTEX
  8
FORM
  5
EB6
 10
17.2337
 20
2.95209
 30
0.000000
  70
    32
  0
VERTEX
  8
FORM
  5
EB7
 10
17.2344
 20
2.95142
 30
0.000000
  70
    32
  0
VERTEX
  8
FORM
  5
EB8
 10
17.2353
 20
2.95086
 30
0.000000
  70
    32
  0
VERTEX
  8
FORM
  5
EB9
 10
17.2362
 20
2.95041
 30
0.000000
  70
    32
  0
VERTEX
  8
FORM
  5
EBA
 10
17.2371
 20
2.95007
 30
0.000000
  70
    32
  0
VERTEX
  8
FORM
  5
EBB
 10
17.2381
 20
2.94983
 30
0.000000
  70
    32
  0
VERTEX
  8
FORM
  5
EBC
 10
17.2391
 20
2.94971
 30
0.000000
  70
    32
  0
VERTEX
  8
FORM
  5
EBD
 10
17.2401
 20
2.94969
 30
0.000000
  70
    32
  0
VERTEX
  8
FORM
  5
EBE
 10
17.2412
 20
2.94978
 30
0.000000
  70
    32
  0
VERTEX
  8
FORM
  5
EBF
 10
17.2424
 20
2.94999
 30
0.000000
  70
    32
  0
VERTEX
  8
FORM
  5
EC0
 10
17.2435
 20
2.95030
 30
0.000000
  70
    32
  0
VERTEX
  8
FORM
  5
EC1
 10
17.2447
 20
2.95072
 30
0.000000
  70
    32
  0
VERTEX
  8
FORM
  5
EC2
 10
17.2460
 20
2.95125
 30
0.000000
  70
    32
  0
VERTEX
  8
FORM
  5
EC3
 10
17.2472
 20
2.95189
 30
0.000000
  70
    32
  0
VERTEX
  8
FORM
  5
EC4
 10
17.2485
 20
2.95263
 30
0.000000
  70
    32
  0
VERTEX
  8
FORM
  5
EC5
 10
17.2498
 20
2.95347
 30
0.000000
  70
    32
  0
VERTEX
  8
FORM
  5
EC6
 10
17.2511
 20
2.95442
 30
0.000000
  70
    32
  0
VERTEX
  8
FORM
  5
EC7
 10
17.2524
 20
2.95546
 30
0.000000
  70
    32
  0
VERTEX
  8
FORM
  5
EC8
 10
17.2537
 20
2.95660
 30
0.000000
  70
    32
  0
VERTEX
  8
FORM
  5
EC9
 10
17.2550
 20
2.95783
 30
0.000000
  70
    32
  0
VERTEX
  8
FORM
  5
ECA
 10
17.2563
 20
2.95915
 30
0.000000
  70
    32
  0
VERTEX
  8
FORM
  5
ECB
 10
17.2577
 20
2.96056
 30
0.000000
  70
    32
  0
VERTEX
  8
FORM
  5
ECC
 10
17.2590
 20
2.96205
 30
0.000000
  70
    32
  0
VERTEX
  8
FORM
  5
ECD
 10
17.2603
 20
2.96363
 30
0.000000
  70
    32
  0
VERTEX
  8
FORM
  5
ECE
 10
17.2616
 20
2.96528
 30
0.000000
  70
    32
  0
VERTEX
  8
FORM
  5
ECF
 10
17.2629
 20
2.96700
 30
0.000000
  70
    32
  0
VERTEX
  8
FORM
  5
ED0
 10
17.2642
 20
2.96879
 30
0.000000
  70
    32
  0
VERTEX
  8
FORM
  5
ED1
 10
17.2654
 20
2.97065
 30
0.000000
  70
    32
  0
VERTEX
  8
FORM
  5
ED2
 10
17.2667
 20
2.97256
 30
0.000000
  70
    32
  0
VERTEX
  8
FORM
  5
ED3
 10
17.2679
 20
2.97453
 30
0.000000
  70
    32
  0
VERTEX
  8
FORM
  5
ED4
 10
17.2690
 20
2.97655
 30
0.000000
  70
    32
  0
VERTEX
  8
FORM
  5
ED5
 10
17.2702
 20
2.97861
 30
0.000000
  70
    32
  0
VERTEX
  8
FORM
  5
ED6
 10
17.2713
 20
2.98072
 30
0.000000
  70
    32
  0
VERTEX
  8
FORM
  5
ED7
 10
17.2724
 20
2.98286
 30
0.000000
  70
    32
  0
VERTEX
  8
FORM
  5
ED8
 10
17.2734
 20
2.98503
 30
0.000000
  70
    32
  0
VERTEX
  8
FORM
  5
ED9
 10
17.2744
 20
2.98722
 30
0.000000
  70
    32
  0
VERTEX
  8
FORM
  5
EDA
 10
17.2753
 20
2.98944
 30
0.000000
  70
    32
  0
VERTEX
  8
FORM
  5
EDB
 10
17.2762
 20
2.99167
 30
0.000000
  70
    32
  0
VERTEX
  8
FORM
  5
EDC
 10
17.2771
 20
2.99390
 30
0.000000
  70
    32
  0
VERTEX
  8
FORM
  5
EDD
 10
17.2779
 20
2.99615
 30
0.000000
  70
    32
  0
VERTEX
  8
FORM
  5
EDE
 10
17.2786
 20
2.99838
 30
0.000000
  70
    32
  0
VERTEX
  8
FORM
  5
EDF
 10
17.2793
 20
3.00062
 30
0.000000
  70
    32
  0
VERTEX
  8
FORM
  5
EE0
 10
17.2800
 20
3.00284
 30
0.000000
  70
    32
  0
VERTEX
  8
FORM
  5
EE1
 10
17.2805
 20
3.00504
 30
0.000000
  70
    32
  0
VERTEX
  8
FORM
  5
EE2
 10
17.2810
 20
3.00721
 30
0.000000
  70
    32
  0
VERTEX
  8
FORM
  5
EE3
 10
17.2815
 20
3.00936
 30
0.000000
  70
    32
  0
VERTEX
  8
FORM
  5
EE4
 10
17.2819
 20
3.01148
 30
0.000000
  70
    32
  0
VERTEX
  8
FORM
  5
EE5
 10
17.2822
 20
3.01356
 30
0.000000
  70
    32
  0
VERTEX
  8
FORM
  5
EE6
 10
17.2825
 20
3.01559
 30
0.000000
  70
    32
  0
VERTEX
  8
FORM
  5
EE7
 10
17.2827
 20
3.01757
 30
0.000000
  70
    32
  0
VERTEX
  8
FORM
  5
EE8
 10
17.2828
 20
3.01950
 30
0.000000
  70
    32
  0
VERTEX
  8
FORM
  5
EE9
 10
17.2829
 20
3.02137
 30
0.000000
  70
    32
  0
VERTEX
  8
FORM
  5
EEA
 10
17.2829
 20
3.02318
 30
0.000000
  70
    32
  0
VERTEX
  8
FORM
  5
EEB
 10
17.2829
 20
3.02493
 30
0.000000
  70
    32
  0
VERTEX
  8
FORM
  5
EEC
 10
17.2828
 20
3.02660
 30
0.000000
  70
    32
  0
VERTEX
  8
FORM
  5
EED
 10
17.2826
 20
3.02819
 30
0.000000
  70
    32
  0
VERTEX
  8
FORM
  5
EEE
 10
17.2823
 20
3.02971
 30
0.000000
  70
    32
  0
VERTEX
  8
FORM
  5
EEF
 10
17.2820
 20
3.03114
 30
0.000000
  70
    32
  0
VERTEX
  8
FORM
  5
EF0
 10
17.2816
 20
3.03249
 30
0.000000
  70
    32
  0
VERTEX
  8
FORM
  5
EF1
 10
17.2812
 20
3.03375
 30
0.000000
  70
    32
  0
VERTEX
  8
FORM
  5
EF2
 10
17.2807
 20
3.03492
 30
0.000000
  70
    32
  0
VERTEX
  8
FORM
  5
EF3
 10
17.2801
 20
3.03599
 30
0.000000
  70
    32
  0
VERTEX
  8
FORM
  5
EF4
 10
17.2795
 20
3.03696
 30
0.000000
  70
    32
  0
VERTEX
  8
FORM
  5
EF5
 10
17.2789
 20
3.03783
 30
0.000000
  70
    32
  0
VERTEX
  8
FORM
  5
EF6
 10
17.2781
 20
3.03860
 30
0.000000
  70
    32
  0
VERTEX
  8
FORM
  5
EF7
 10
17.2773
 20
3.03927
 30
0.000000
  70
    32
  0
VERTEX
  8
FORM
  5
EF8
 10
17.2765
 20
3.03983
 30
0.000000
  70
    32
  0
VERTEX
  8
FORM
  5
EF9
 10
17.2756
 20
3.04028
 30
0.000000
  70
    32
  0
SEQEND
  8
FORM
  5
EFA
  0
ARC
  5
98B
  8
FORM
 62
     7
 10
17.31969472840197
 20
2.8767429643067852
 30
0.0
 40
0.2199177503197187
 50
85.485448269952457
 51
155.5006785655419
  0
TEXT
  5
98C
  8
FORM
 62
     7
 10
16.545907219234731
 20
1.726726372181332
 30
0.0
 40
0.0861538460965367
  1
R2-D2 BUILDERS CLUB
  0
ARC
  5
98D
  8
FORM
 10
0.7499999996674376
 20
0.7499999996674092
 30
0.0
 40
0.1538461537438154
 50
180.0
 51
270.0
  0
ARC
  5
98E
  8
FORM
 10
0.7499999996674376
 20
0.7499999996674092
 30
0.0
 40
0.3076923074876307
 50
180.0
 51
270.0
  0
ARC
  5
98F
  8
FORM
 10
0.7499999996674376
 20
0.7499999996674092
 30
0.0
 40
0.3461538459235846
 50
180.0
 51
270.0
  0
ARC
  5
990
  8
FORM
 10
0.7499999996674376
 20
0.7499999996674092
 30
0.0
 40
0.4999999996674
 50
180.0
 51
270.0
  0
ARC
  5
991
  8
FORM
 10
0.7499999996674376
 20
15.153846144098431
 30
0.0
 40
0.4999999996674
 50
90.0
 51
180.0
  0
ARC
  5
992
  8
FORM
 10
0.7499999996674376
 20
15.153846144098431
 30
0.0
 40
0.3461538459235846
 50
90.0
 51
180.0
  0
ARC
  5
993
  8
FORM
 10
0.7499999996674376
 20
15.153846144098431
 30
0.0
 40
0.3076923074876307
 50
90.0
 51
180.0
  0
ARC
  5
994
  8
FORM
 10
0.7499999996674376
 20
15.153846144098431
 30
0.0
 40
0.1538461537438154
 50
90.0
 51
180.0
  0
ARC
  5
995
  8
FORM
 10
21.249999986363441
 20
15.153846144098431
 30
0.0
 40
0.3076923074876307
 50
0.0
 51
90.0
  0
ARC
  5
996
  8
FORM
 10
21.249999986363441
 20
15.153846144098431
 30
0.0
 40
0.3461538459235846
 50
0.0
 51
90.0
  0
ARC
  5
997
  8
FORM
 10
21.249999986363441
 20
15.153846144098431
 30
0.0
 40
0.4999999996674
 50
0.0
 51
90.0
  0
ARC
  5
998
  8
FORM
 10
21.249999986363441
 20
15.153846144098431
 30
0.0
 40
0.1538461537438154
 50
0.0
 51
90.0
  0
ARC
  5
999
  8
FORM
 10
21.249999986363441
 20
0.7499999996674092
 30
0.0
 40
0.4999999996674
 50
270.0
 51
0.0
  0
ARC
  5
99A
  8
FORM
 10
21.249999986363441
 20
0.7499999996674092
 30
0.0
 40
0.3461538459235846
 50
270.0
 51
0.0
  0
ARC
  5
99B
  8
FORM
 10
21.249999986363441
 20
0.7499999996674092
 30
0.0
 40
0.3076923074876307
 50
270.0
 51
0.0
  0
ARC
  5
99C
  8
FORM
 10
21.249999986363441
 20
0.7499999996674092
 30
0.0
 40
0.1538461537438154
 50
270.0
 51
0.0
  0
LINE
  5
99D
  8
FORM
 10
21.249999986363441
 20
0.4423076921797886
 30
0.0
 11
0.7499999996674376
 21
0.442307692179778
 31
0.0
  0
LINE
  5
99E
  8
FORM
 10
21.249999986363441
 20
0.4038461537438352
 30
0.0
 11
0.7499999996674376
 21
0.4038461537438245
 31
0.0
  0
LINE
  5
99F
  8
FORM
 10
21.249999986363441
 20
0.2500000000000071
 30
0.0
 11
0.7499999996674376
 21
0.25
 31
0.0
  0
LINE
  5
9A0
  8
FORM
 10
21.55769229385108
 20
0.7499999996674092
 30
0.0
 11
21.55769229385108
 21
15.153846144098431
 31
0.0
  0
LINE
  5
9A1
  8
FORM
 10
21.59615383228703
 20
0.7499999996674092
 30
0.0
 11
21.59615383228703
 21
15.153846144098431
 31
0.0
  0
LINE
  5
9A2
  8
FORM
 10
21.74999998603084
 20
0.7499999996674092
 30
0.0
 11
21.74999998603084
 21
15.153846144098431
 31
0.0
  0
LINE
  5
9A3
  8
FORM
 10
21.249999986363441
 20
15.46153845158606
 30
0.0
 11
0.7499999996674376
 21
15.46153845158606
 31
0.0
  0
LINE
  5
9A4
  8
FORM
 10
21.249999986363441
 20
15.499999990022021
 30
0.0
 11
0.7499999996674376
 21
15.499999990022021
 31
0.0
  0
LINE
  5
9A5
  8
FORM
 10
21.249999986363441
 20
15.653846143765829
 30
0.0
 11
0.7499999996674376
 21
15.653846143765829
 31
0.0
  0
LINE
  5
9A6
  8
FORM
 10
0.4423076921798029
 20
0.7499999996674092
 30
0.0
 11
0.4423076921798029
 21
15.153846144098431
 31
0.0
  0
LINE
  5
9A7
  8
FORM
 10
0.4038461537438565
 20
0.7499999996674092
 30
0.0
 11
0.4038461537438565
 21
15.153846144098431
 31
0.0
  0
LINE
  5
9A8
  8
FORM
 10
0.25
 20
0.7499999996674092
 30
0.0
 11
0.2500000000000426
 21
15.153846144098431
 31
0.0
  0
LINE
  5
9A9
  8
FORM
  6
CONTINUOUS
 10
16.703251912464879
 20
0.7499999996674092
 30
0.0
 11
21.02491344805162
 21
0.7499999996674092
 31
0.0
  0
LINE
  5
9AA
  8
FORM
  6
CONTINUOUS
 10
21.249999986363441
 20
3.1359173057725931
 30
0.0
 11
21.249999986363441
 21
0.9750865379792159
 31
0.0
  0
ARC
  5
9AB
  8
FORM
  6
CONTINUOUS
 10
21.02491344805162
 20
0.9750865379792159
 30
0.0
 40
0.2250865383118096
 50
270.0
 51
0.0
  0
ARC
  5
9AC
  8
FORM
  6
CONTINUOUS
 10
21.02491344805162
 20
3.1359173057725931
 30
0.0
 40
0.2250865383118096
 50
359.99999999999989
 51
90.0
  0
ARC
  5
9AD
  8
FORM
  6
CONTINUOUS
 10
16.703251912464879
 20
0.9750865379792159
 30
0.0
 40
0.2250865383118096
 50
180.0
 51
270.0
  0
ARC
  5
9AE
  8
FORM
  6
CONTINUOUS
 10
16.703251912464879
 20
3.1359173057725931
 30
0.0
 40
0.2250865383118096
 50
90.0
 51
180.0
  0
LINE
  5
AF3
  8
0
 10
0.7499999996674376
 20
0.7499999996674092
 30
0.0
 11
0.7499999996674376
 21
1.7499999996674089
 31
0.0
  0
LINE
  5
AF4
  8
0
 10
0.7499999996674376
 20
0.8749999996674091
 30
0.0
 11
0.8749999996674375
 21
0.8749999996674091
 31
0.0
  0
LINE
  5
AF5
  8
0
 10
0.7499999996674376
 20
0.9999999996674091
 30
0.0
 11
0.9999999996674375
 21
0.9999999996674091
 31
0.0
  0
LINE
  5
AF6
  8
0
 10
0.7499999996674376
 20
1.1249999996674089
 30
0.0
 11
0.8749999996674375
 21
1.1249999996674089
 31
0.0
  0
LINE
  5
AF7
  8
0
 10
0.7499999996674376
 20
1.2499999996674089
 30
0.0
 11
1.1249999996674369
 21
1.2499999996674089
 31
0.0
  0
LINE
  5
AF8
  8
0
 10
0.7499999996674376
 20
1.3749999996674089
 30
0.0
 11
0.8749999996674375
 21
1.3749999996674089
 31
0.0
  0
LINE
  5
AF9
  8
0
 10
0.7499999996674376
 20
1.4999999996674089
 30
0.0
 11
0.9999999996674375
 21
1.4999999996674089
 31
0.0
  0
LINE
  5
AFA
  8
0
 10
0.7499999996674376
 20
1.6249999996674089
 30
0.0
 11
0.8749999996674375
 21
1.6249999996674089
 31
0.0
  0
LINE
  5
AFB
  8
0
 10
0.7499999996674376
 20
1.7499999996674089
 30
0.0
 11
1.1249999996674369
 21
1.7499999996674089
 31
0.0
  0
LINE
  5
AFC
  8
0
 10
0.7499999996674376
 20
0.7499999996674092
 30
0.0
 11
1.1249999996674369
 21
0.7499999996674092
 31
0.0
  0
TEXT
  5
AFD
  8
0
 10
1.1742687732938739
 20
1.216959438666926
 30
0.0
 40
0.0625
  1
1/2"
  0
TEXT
  5
AFE
  8
0
 10
0.9242687732938748
 20
1.091959438666926
 30
0.0
 40
0.0625
  1
3/8"
  0
TEXT
  5
AFF
  8
0
 10
1.0492687732938739
 20
0.966959438666926
 30
0.0
 40
0.0625
  1
1/4"
  0
TEXT
  5
B00
  8
0
 10
0.9242687732938748
 20
0.841959438666926
 30
0.0
 40
0.0625
  1
1/8"
  0
TEXT
  5
B01
  8
0
 10
0.9242687732938748
 20
1.341959438666926
 30
0.0
 40
0.0625
  1
5/8"
  0
TEXT
  5
B02
  8
0
 10
1.0492687732938739
 20
1.466959438666926
 30
0.0
 40
0.0625
  1
3/4"
  0
TEXT
  5
B03
  8
0
 10
0.9242687732938748
 20
1.591959438666926
 30
0.0
 40
0.0625
  1
7/8"
  0
TEXT
  5
B04
  8
0
 10
1.1742687732938739
 20
1.716959438666926
 30
0.0
 40
0.0625
  1
1"
  0
LINE
  5
C7E
  8
DIMENSIONS
 10
3.4615561197371179
 20
11.55059802318145
 30
0.0
 11
3.4615561197371179
 21
14.42602128885687
 31
0.0
  0
LINE
  5
C7F
  8
DIMENSIONS
 10
4.8365561197371152
 20
11.55059802318145
 30
0.0
 11
4.8365561197371152
 21
14.42602128885687
 31
0.0
  0
LINE
  5
C80
  8
DIMENSIONS
 10
3.2115561197371179
 20
14.36352128885687
 30
0.0
 11
2.9615561197371179
 21
14.36352128885687
 31
0.0
  0
LINE
  5
C81
  8
DIMENSIONS
 10
5.0865561197371152
 20
14.36352128885687
 30
0.0
 11
5.3365561197371152
 21
14.36352128885687
 31
0.0
  0
SOLID
  5
C82
  8
DIMENSIONS
 10
3.2115561197371179
 20
14.405187955523539
 30
0.0
 11
3.2115561197371179
 21
14.321854622190211
 31
0.0
 12
3.4615561197371179
 22
14.36352128885687
 32
0.0
 13
3.4615561197371179
 23
14.36352128885687
 33
0.0
  0
SOLID
  5
C83
  8
DIMENSIONS
 10
5.0865561197371152
 20
14.405187955523539
 30
0.0
 11
5.0865561197371152
 21
14.321854622190211
 31
0.0
 12
4.8365561197371152
 22
14.36352128885687
 32
0.0
 13
4.8365561197371152
 23
14.36352128885687
 33
0.0
  0
LINE
  5
C85
  8
DIMENSIONS
 10
3.7115561197371179
 20
12.92234317683776
 30
0.0
 11
3.7115561197371179
 21
13.662201112325761
 31
0.0
  0
LINE
  5
C86
  8
DIMENSIONS
 10
4.5865561197371179
 20
12.92234317683776
 30
0.0
 11
4.5865561197371179
 21
13.662201112325761
 31
0.0
  0
LINE
  5
C87
  8
DIMENSIONS
 10
3.4615561197371179
 20
13.599701112325761
 30
0.0
 11
3.2115561197371179
 21
13.599701112325761
 31
0.0
  0
LINE
  5
C88
  8
DIMENSIONS
 10
4.8365561197371179
 20
13.599701112325761
 30
0.0
 11
5.0865561197371179
 21
13.599701112325761
 31
0.0
  0
SOLID
  5
C89
  8
DIMENSIONS
 10
3.4615561197371179
 20
13.64136777899243
 30
0.0
 11
3.4615561197371179
 21
13.558034445659089
 31
0.0
 12
3.7115561197371179
 22
13.599701112325761
 32
0.0
 13
3.7115561197371179
 23
13.599701112325761
 33
0.0
  0
SOLID
  5
C8A
  8
DIMENSIONS
 10
4.8365561197371179
 20
13.64136777899243
 30
0.0
 11
4.8365561197371179
 21
13.558034445659089
 31
0.0
 12
4.5865561197371179
 22
13.599701112325761
 32
0.0
 13
4.5865561197371179
 23
13.599701112325761
 33
0.0
  0
TEXT
  5
C8C
  8
DIMENSIONS
 10
3.6728656435466398
 20
14.23852128885687
 30
0.0
 40
0.25
  1
1.375
  0
TEXT
  5
C8D
  8
DIMENSIONS
 10
5.1765561197371177
 20
13.474701112325761
 30
0.0
 40
0.25
  1
0.875
  0
LINE
  5
CAA
  8
DIMENSIONS
 10
3.52405623856369
 20
5.3055939317247702
 30
0.0
 11
3.5240562385636891
 21
1.697728710957022
 31
0.0
  0
LINE
  5
CAB
  8
DIMENSIONS
 10
4.7740562385636967
 20
5.3055940045922627
 30
0.0
 11
4.7740562385636967
 21
1.697728710957022
 31
0.0
  0
LINE
  5
CAC
  8
DIMENSIONS
 10
3.27405623856369
 20
1.760228710957022
 30
0.0
 11
3.02405623856369
 21
1.760228710957022
 31
0.0
  0
LINE
  5
CAD
  8
DIMENSIONS
 10
5.0240562385636967
 20
1.760228710957022
 30
0.0
 11
5.2740562385636967
 21
1.760228710957022
 31
0.0
  0
SOLID
  5
CAE
  8
DIMENSIONS
 10
3.27405623856369
 20
1.801895377623689
 30
0.0
 11
3.27405623856369
 21
1.718562044290356
 31
0.0
 12
3.52405623856369
 22
1.760228710957022
 32
0.0
 13
3.52405623856369
 23
1.760228710957022
 33
0.0
  0
SOLID
  5
CAF
  8
DIMENSIONS
 10
5.0240562385636967
 20
1.801895377623689
 30
0.0
 11
5.0240562385636967
 21
1.718562044290356
 31
0.0
 12
4.7740562385636967
 22
1.760228710957022
 32
0.0
 13
4.7740562385636967
 23
1.760228710957022
 33
0.0
  0
LINE
  5
CB1
  8
DIMENSIONS
 10
3.7230563563253178
 20
3.287083849765009
 30
0.0
 11
3.7230563563253178
 21
2.4870229590195261
 31
0.0
  0
LINE
  5
CB2
  8
DIMENSIONS
 10
4.575056356325307
 20
3.287083849765009
 30
0.0
 11
4.575056356325307
 21
2.4870229590195261
 31
0.0
  0
LINE
  5
CB3
  8
DIMENSIONS
 10
3.4730563563253178
 20
2.5495229590195261
 30
0.0
 11
3.2230563563253178
 21
2.5495229590195261
 31
0.0
  0
LINE
  5
CB4
  8
DIMENSIONS
 10
4.825056356325307
 20
2.5495229590195261
 30
0.0
 11
5.075056356325307
 21
2.5495229590195261
 31
0.0
  0
SOLID
  5
CB5
  8
DIMENSIONS
 10
3.4730563563253178
 20
2.591189625686193
 30
0.0
 11
3.4730563563253178
 21
2.50785629235286
 31
0.0
 12
3.7230563563253178
 22
2.5495229590195261
 32
0.0
 13
3.7230563563253178
 23
2.5495229590195261
 33
0.0
  0
SOLID
  5
CB6
  8
DIMENSIONS
 10
4.825056356325307
 20
2.591189625686193
 30
0.0
 11
4.825056356325307
 21
2.50785629235286
 31
0.0
 12
4.575056356325307
 22
2.5495229590195261
 32
0.0
 13
4.575056356325307
 23
2.5495229590195261
 33
0.0
  0
TEXT
  5
CB8
  8
DIMENSIONS
 10
3.6728657623732168
 20
1.635228710957022
 30
0.0
 40
0.25
  1
1.250
  0
TEXT
  5
CB9
  8
DIMENSIONS
 10
5.1650563563253069
 20
2.4245229590195261
 30
0.0
 40
0.25
  1
0.852
  0
LINE
  5
CD6
  8
DIMENSIONS
 10
3.7300561738470952
 20
6.554331669300308
 30
0.0
 11
3.7300561738470952
 21
8.8473467473326366
 31
0.0
  0
LINE
  5
CD7
  8
DIMENSIONS
 10
4.5680561738470988
 20
6.554331718086968
 30
0.0
 11
4.5680561738470988
 21
8.8473467473326366
 31
0.0
  0
LINE
  5
CD8
  8
DIMENSIONS
 10
3.4800561738470952
 20
8.7848467473326366
 30
0.0
 11
3.2300561738470952
 21
8.7848467473326366
 31
0.0
  0
LINE
  5
CD9
  8
DIMENSIONS
 10
4.8180561738470988
 20
8.7848467473326366
 30
0.0
 11
5.0680561738470988
 21
8.7848467473326366
 31
0.0
  0
SOLID
  5
CDA
  8
DIMENSIONS
 10
3.4800561738470952
 20
8.8265134139993027
 30
0.0
 11
3.4800561738470952
 21
8.7431800806659705
 31
0.0
 12
3.7300561738470952
 22
8.7848467473326366
 32
0.0
 13
3.7300561738470952
 23
8.7848467473326366
 33
0.0
  0
SOLID
  5
CDB
  8
DIMENSIONS
 10
4.8180561738470988
 20
8.8265134139993027
 30
0.0
 11
4.8180561738470988
 21
8.7431800806659705
 31
0.0
 12
4.5680561738470988
 22
8.7848467473326366
 32
0.0
 13
4.5680561738470988
 23
8.7848467473326366
 33
0.0
  0
LINE
  5
CDD
  8
DIMENSIONS
 10
3.8476655090011298
 20
7.418445986104059
 30
0.0
 11
3.8476655090011298
 21
8.0957109620434835
 31
0.0
  0
LINE
  5
CDE
  8
DIMENSIONS
 10
4.4504467328612298
 20
7.4184460036504278
 30
0.0
 11
4.4504467328612298
 21
8.0957109620434835
 31
0.0
  0
LINE
  5
CDF
  8
DIMENSIONS
 10
3.5976655090011298
 20
8.0332109620434835
 30
0.0
 11
3.3476655090011298
 21
8.0332109620434835
 31
0.0
  0
LINE
  5
CE0
  8
DIMENSIONS
 10
4.7004467328612298
 20
8.0332109620434835
 30
0.0
 11
4.9504467328612298
 21
8.0332109620434835
 31
0.0
  0
SOLID
  5
CE1
  8
DIMENSIONS
 10
3.5976655090011298
 20
8.0748776287101496
 30
0.0
 11
3.5976655090011298
 21
7.9915442953768174
 31
0.0
 12
3.8476655090011298
 22
8.0332109620434835
 32
0.0
 13
3.8476655090011298
 23
8.0332109620434835
 33
0.0
  0
SOLID
  5
CE2
  8
DIMENSIONS
 10
4.7004467328612298
 20
8.0748776287101496
 30
0.0
 11
4.7004467328612298
 21
7.9915442953768174
 31
0.0
 12
4.4504467328612298
 22
8.0332109620434835
 32
0.0
 13
4.4504467328612298
 23
8.0332109620434835
 33
0.0
  0
TEXT
  5
CE4
  8
DIMENSIONS
 10
5.1580561738470987
 20
8.6598467473326366
 30
0.0
 40
0.25
  1
0.838
  0
TEXT
  5
CE5
  8
DIMENSIONS
 10
5.0404467328612297
 20
7.9082109620434826
 30
0.0
 40
0.25
  1
0.603
  0
LINE
  5
CE6
  8
DIMENSIONS
 10
18.839573683243369
 20
7.3559459862150973
 30
0.0
 11
15.29621825762657
 21
6.191216061976017
 31
0.0
  0
LINE
  5
CE7
  8
DIMENSIONS
 10
10.44471164493466
 20
4.596486137736929
 30
0.0
 11
13.988067070551489
 21
5.7612160619760182
 31
0.0
  0
SOLID
  5
CE8
  8
DIMENSIONS
 10
10.431700372286469
 20
4.6360691883417822
 30
0.0
 11
10.45772291758284
 21
4.5569030871320928
 31
0.0
 12
10.207213341305589
 22
4.518418501847818
 32
0.0
 13
10.207213341305589
 23
4.518418501847818
 33
0.0
  0
LINE
  5
CEA
  8
DIMENSIONS
 10
18.839119707414699
 20
7.3559459862150716
 30
0.0
 11
15.22046653810021
 21
8.0749937951527908
 31
0.0
  0
LINE
  5
CEB
  8
DIMENSIONS
 10
10.17181336878572
 20
9.0781910703892432
 30
0.0
 11
13.79046653810021
 21
8.3591432614515249
 31
0.0
  0
SOLID
  5
CEC
  8
DIMENSIONS
 10
10.179934016154281
 20
9.119058737284071
 30
0.0
 11
10.163692721417171
 21
9.0373234034944154
 31
0.0
 12
9.9266073674167572
 22
9.1269149546006005
 32
0.0
 13
9.9266073674167572
 23
9.1269149546006005
 33
0.0
  0
LINE
  5
CEE
  8
DIMENSIONS
 10
18.839119707414682
 20
7.3559459862150609
 30
0.0
 11
15.587775956467819
 21
8.7851629041726937
 31
0.0
  0
LINE
  5
CEF
  8
DIMENSIONS
 10
11.35821973452321
 20
10.64437982213032
 30
0.0
 11
14.60956348547006
 21
9.2151629041726952
 31
0.0
  0
SOLID
  5
CF0
  8
DIMENSIONS
 10
11.37498700087666
 20
10.68252388969192
 30
0.0
 11
11.341452468169759
 21
10.60623575456872
 31
0.0
 12
11.12935532915364
 22
10.744983420251019
 32
0.0
 13
11.12935532915364
 23
10.744983420251019
 33
0.0
  0
TEXT
  5
CF2
  8
DIMENSIONS
 10
14.017142664089009
 20
5.8512160619760207
 30
0.0
 40
0.25
  1
R9.087
  0
TEXT
  5
CF3
  8
DIMENSIONS
 10
13.88046653810021
 20
8.0920685283021552
 30
0.0
 40
0.25
  1
R9.087
  0
TEXT
  5
CF4
  8
DIMENSIONS
 10
14.47366972096895
 20
8.8751629041726972
 30
0.0
 40
0.25
  1
R8.422
  0
LINE
  5
D09
  8
DIMENSIONS
 10
12.65704743597678
 20
13.15534595439498
 30
0.0
 11
12.40704743597678
 21
13.15534595439498
 31
0.0
  0
LINE
  5
D0A
  8
DIMENSIONS
 10
12.40704743597678
 20
13.15534595439498
 30
0.0
 11
11.825200617856449
 21
12.42984317683775
 31
0.0
  0
SOLID
  5
D0C
  8
DIMENSIONS
 10
11.970320735770279
 20
12.54419466343839
 30
0.0
 11
11.905311526311751
 21
12.596331475097919
 31
0.0
 12
12.094226566019589
 22
12.765290697643749
 32
0.0
 13
12.094226566019589
 23
12.765290697643749
 33
0.0
  0
LINE
  5
D0D
  8
DIMENSIONS
 10
12.63504889516607
 20
11.231963800907691
 30
0.0
 11
12.38504889516607
 21
11.231963800907691
 31
0.0
  0
LINE
  5
D0E
  8
DIMENSIONS
 10
12.38504889516607
 20
11.231963800907691
 30
0.0
 11
11.959649636393189
 21
11.779166963026119
 31
0.0
  0
SOLID
  5
D10
  8
DIMENSIONS
 10
11.99254523109656
 20
11.804740209988969
 30
0.0
 11
11.926754041689829
 21
11.75359371606327
 31
0.0
 12
11.80621015461611
 22
11.97654053124633
 32
0.0
 13
11.80621015461611
 23
11.97654053124633
 33
0.0
  0
TEXT
  5
D11
  8
DIMENSIONS
 10
12.74704743597678
 20
13.03034595439498
 30
0.0
 40
0.25
  1
R0.430
  0
TEXT
  5
D12
  8
DIMENSIONS
 10
12.72504889516607
 20
11.106963800907691
 30
0.0
 40
0.25
  1
R0.125
  0
LINE
  5
D45
  8
DIMENSIONS
 10
11.825200617856449
 20
12.42984317683775
 30
0.0
 11
9.7733678406527762
 21
13.914147234376699
 31
0.0
  0
LINE
  5
D46
  8
DIMENSIONS
 10
9.6898597074951667
 20
7.3559459860783987
 30
0.0
 11
7.649934727387798
 21
7.355945985930167
 31
0.0
  0
ARC
  5
D47
  8
DIMENSIONS
 10
18.839119706684681
 20
7.3559459867431647
 30
0.0
 40
11.12668497929689
 50
145.40524971250699
 51
160.8912948630466
  0
ARC
  5
D48
  8
DIMENSIONS
 10
18.839119706684681
 20
7.3559459867431647
 30
0.0
 40
11.12668497929689
 50
163.21892158144991
 51
178.7126222970991
  0
SOLID
  5
D49
  8
DIMENSIONS
 10
9.6457301891415952
 20
13.697366107902329
 30
0.0
 11
9.7137933551447961
 21
13.64928440786931
 31
0.0
 12
9.8240068722422436
 22
13.877514755895429
 32
0.0
 13
9.8240068722422436
 23
13.877514755895429
 33
0.0
  0
SOLID
  5
D4A
  8
DIMENSIONS
 10
7.7569073279929777
 20
7.6054621154865334
 30
0.0
 11
7.6735792535110248
 21
7.6063983032746023
 31
0.0
 12
7.712434727387798
 22
7.3559459859347101
 32
0.0
 13
7.712434727387798
 23
7.3559459859347101
 33
0.0
  0
LINE
  5
D4C
  8
DIMENSIONS
 10
11.046173611589801
 20
12.14958236105331
 30
0.0
 11
9.8551931942930207
 21
12.88218425254149
 31
0.0
  0
LINE
  5
D4D
  8
DIMENSIONS
 10
9.6898597074951685
 20
7.3559459860784031
 30
0.0
 11
8.2915965400450808
 21
7.3559459859768204
 31
0.0
  0
ARC
  5
D4E
  8
DIMENSIONS
 10
18.83911970656586
 20
7.3559459867431647
 30
0.0
 40
10.48502316652077
 50
149.76945209072261
 51
162.97684853924471
  0
ARC
  5
D4F
  8
DIMENSIONS
 10
18.83911970656586
 20
7.3559459867431647
 30
0.0
 40
10.48502316652077
 50
165.41907241383149
 51
178.63383380888331
  0
SOLID
  5
D50
  8
DIMENSIONS
 10
9.7442440488853066
 20
12.65635856697881
 30
0.0
 11
9.8157392744621301
 21
12.61354645228959
 31
0.0
 12
9.908428005741392
 22
12.849438186364679
 32
0.0
 13
9.908428005741392
 23
12.849438186364679
 33
0.0
  0
SOLID
  5
D51
  8
DIMENSIONS
 10
8.3987406872517028
 20
7.6054314790091206
 30
0.0
 11
8.3154132761504478
 21
7.60642495956112
 31
0.0
 12
8.3540965400450808
 22
7.3559459859813643
 32
0.0
 13
8.3540965400450808
 23
7.3559459859813643
 33
0.0
  0
LINE
  5
D53
  8
DIMENSIONS
 10
10.690586940657001
 20
11.516519540006341
 30
0.0
 11
10.128552509656251
 21
11.80348968001686
 31
0.0
  0
LINE
  5
D54
  8
DIMENSIONS
 10
9.6898597074951667
 20
7.3559459860783987
 30
0.0
 11
9.0588014198990692
 21
7.3559459860325527
 31
0.0
  0
ARC
  5
D55
  8
DIMENSIONS
 10
18.839119709813168
 20
7.3559459867431558
 30
0.0
 40
9.717818289914101
 50
154.4255471075102
 51
165.1682758770626
  0
ARC
  5
D56
  8
DIMENSIONS
 10
18.839119709813168
 20
7.3559459867431558
 30
0.0
 40
9.717818289914101
 50
167.7761039023207
 51
178.52597162892411
  0
SOLID
  5
D57
  8
DIMENSIONS
 10
10.036053831751071
 20
11.56943750409798
 30
0.0
 11
10.110753643160489
 21
11.532499953829429
 31
0.0
 12
10.184216388261429
 22
11.77506816319196
 32
0.0
 13
10.184216388261429
 23
11.77506816319196
 33
0.0
  0
SOLID
  5
D58
  8
DIMENSIONS
 10
9.1661803817734224
 20
7.6053893461254933
 30
0.0
 11
9.0828539427245154
 21
7.6064612602421242
 31
0.0
 12
9.1213014198990692
 22
7.3559459860370922
 32
0.0
 13
9.1213014198990692
 23
7.3559459860370922
 33
0.0
  0
TEXT
  5
D5A
  8
DIMENSIONS
 10
7.9915775243068259
 20
10.658393875594371
 30
0.0
 40
0.25
  1
36°
  0
TEXT
  5
D5B
  8
DIMENSIONS
 10
8.4882551324985531
 20
10.085521386175889
 30
0.0
 40
0.25
  1
32°
  0
TEXT
  5
D5C
  8
DIMENSIONS
 10
9.1288613846011231
 20
9.5035232150299134
 30
0.0
 40
0.25
  1
27°
  0
LINE
  5
D8D
  8
DIMENSIONS
 10
9.6898597074951667
 20
7.3559459860784013
 30
0.0
 11
7.647195962061649
 21
7.3559459859299841
 31
0.0
  0
LINE
  5
D8E
  8
DIMENSIONS
 10
10.62760312422772
 20
3.3220275333435731
 30
0.0
 11
8.793791146927143
 21
2.421214759673183
 31
0.0
  0
ARC
  5
D8F
  8
DIMENSIONS
 10
18.839573681835311
 20
7.3559459867431967
 30
0.0
 40
11.129877719773649
 50
181.2870083957792
 51
191.94693755701391
  0
ARC
  5
D90
  8
DIMENSIONS
 10
18.839573681835311
 20
7.3559459867431967
 30
0.0
 40
11.129877719773649
 50
194.2196867452169
 51
204.87437820785911
  0
SOLID
  5
D91
  8
DIMENSIONS
 10
7.6708396810423922
 20
7.1054937938170211
 30
0.0
 11
7.7541677585410014
 21
7.1064297130603711
 31
0.0
 12
7.7096959620616499
 22
7.3559459859345271
 32
0.0
 13
7.7096959620616499
 23
7.3559459859345271
 33
0.0
  0
SOLID
  5
D92
  8
DIMENSIONS
 10
8.7797923038988692
 20
2.6923334939256018
 30
0.0
 11
8.7045880643204558
 21
2.6564340956872381
 31
0.0
 12
8.8498883788247547
 22
2.4487710760711709
 32
0.0
 13
8.8498883788247547
 23
2.4487710760711709
 33
0.0
  0
LINE
  5
D94
  8
DIMENSIONS
 10
9.6898597074951667
 20
7.3559459860784013
 30
0.0
 11
8.2807714775426398
 21
7.3559459859760237
 31
0.0
  0
LINE
  5
D95
  8
DIMENSIONS
 10
9.911928018726309
 20
5.3544212086091783
 30
0.0
 11
8.5365278921884933
 21
5.0460647240595806
 31
0.0
  0
ARC
  5
D96
  8
DIMENSIONS
 10
18.839573685510739
 20
7.355945986743186
 30
0.0
 40
10.4963022079681
 50
181.3646980848859
 51
185.13868722386351
  0
ARC
  5
D97
  8
DIMENSIONS
 10
18.839573685510739
 20
7.355945986743186
 30
0.0
 40
10.4963022079681
 50
187.50042989426419
 51
191.27172379695071
  0
SOLID
  5
D98
  8
DIMENSIONS
 10
8.3045850046220053
 20
7.1054675080147467
 30
0.0
 11
8.3879124284444675
 21
7.1064599210116137
 31
0.0
 12
8.3432714775426398
 22
7.355945985980564
 32
0.0
 13
8.3432714775426398
 23
7.355945985980564
 33
0.0
  0
SOLID
  5
D99
  8
DIMENSIONS
 10
8.5864952015596998
 20
5.312946248271686
 30
0.0
 11
8.5049690395291382
 21
5.2956856182423051
 31
0.0
 12
8.5975140106325636
 22
5.059737447165312
 32
0.0
 13
8.5975140106325636
 23
5.059737447165312
 33
0.0
  0
LINE
  5
D9B
  8
DIMENSIONS
 10
9.6898597074951631
 20
7.3559459860783987
 30
0.0
 11
9.0561789020195782
 21
7.3559459860323653
 31
0.0
  0
LINE
  5
D9C
  8
DIMENSIONS
 10
10.04088240154171
 20
5.840407020779395
 30
0.0
 11
9.1981575095891852
 21
5.6952510685347804
 31
0.0
  0
ARC
  5
D9D
  8
DIMENSIONS
 10
18.83957368214039
 20
7.3559459867431807
 30
0.0
 40
9.7208947801208154
 50
181.47356184993291
 51
183.61578346419751
  0
ARC
  5
D9E
  8
DIMENSIONS
 10
18.83957368214039
 20
7.3559459867431807
 30
0.0
 40
9.7208947801208154
 50
186.15969900184211
 51
188.2995060150341
  0
SOLID
  5
D9F
  8
DIMENSIONS
 10
9.0802304049745306
 20
7.1054308683571756
 30
0.0
 11
9.163556848386607
 21
7.1065024432441737
 31
0.0
 12
9.1186789020195782
 22
7.3559459860369047
 32
0.0
 13
9.1186789020195782
 23
7.3559459860369047
 33
0.0
  0
SOLID
  5
DA0
  8
DIMENSIONS
 10
9.2616350507249408
 20
5.9593016435693409
 30
0.0
 11
9.1793359616898726
 21
5.9462133133304436
 31
0.0
 12
9.2597504969240987
 22
5.7058602113446888
 32
0.0
 13
9.2597504969240987
 23
5.7058602113446888
 33
0.0
  0
TEXT
  5
DA2
  8
DIMENSIONS
 10
7.7365860880665327
 20
4.7119975772323111
 30
0.0
 40
0.25
  1
26°
  0
TEXT
  5
DA3
  8
DIMENSIONS
 10
8.1689304935643001
 20
6.0758255464465201
 30
0.0
 40
0.25
  1
13°
  0
TEXT
  5
DA4
  8
DIMENSIONS
 10
8.9159157727114913
 20
6.4028934124171029
 30
0.0
 40
0.25
  1
10°
  0
LINE
  5
DA6
  8
DIMENSIONS
 10
9.7345403761879457
 20
10.29574593369197
 30
0.0
 11
10.191960034345581
 21
10.148048578536351
 31
0.0
  0
SOLID
  5
DA7
  8
DIMENSIONS
 10
11.07542798327689
 20
9.9060831820899473
 30
0.0
 11
11.04967563763924
 21
9.8268287743979847
 31
0.0
 12
10.824788587382191
 22
9.9437130151569217
 32
0.0
 13
10.824788587382191
 23
9.9437130151569217
 33
0.0
  0
SOLID
  5
DA8
  8
DIMENSIONS
 10
9.9416008189664957
 20
10.187499489626999
 30
0.0
 11
9.9679286396109799
 21
10.26656459131261
 31
0.0
 12
10.19196003434557
 22
10.148048578536359
 32
0.0
 13
10.19196003434557
 23
10.148048578536359
 33
0.0
  0
LINE
  5
DAA
  8
DIMENSIONS
 10
10.824788587382191
 20
9.9437130151569235
 30
0.0
 11
11.605739013598949
 21
9.6915500169061541
 31
0.0
  0
TEXT
  5
DAC
  8
DIMENSIONS
 10
11.04580766331909
 20
9.2576015390903024
 30
0.0
 40
0.25
  1
0.665 REF.
  0
LINE
  5
DBC
  8
DIMENSIONS
 10
10.711256672523319
 20
3.2934866178439521
 30
0.0
 11
11.03353456272904
 21
2.6374157090463539
 31
0.0
  0
LINE
  5
DBD
  8
DIMENSIONS
 10
10.93564560013154
 20
3.4037118834446431
 30
0.0
 11
11.25792349033726
 21
2.747640974647044
 31
0.0
  0
LINE
  5
DBE
  8
DIMENSIONS
 10
10.78158931874062
 20
2.5832876753520089
 30
0.0
 11
10.557200391150189
 21
2.4730624097600571
 31
0.0
  0
LINE
  5
DBF
  8
DIMENSIONS
 10
11.4547561015297
 20
2.9139634721366039
 30
0.0
 11
11.67914502912013
 21
3.024188737728557
 31
0.0
  0
LINE
  5
DC0
  8
DIMENSIONS
 10
11.67914502912013
 20
3.024188737728557
 30
0.0
 11
11.92914502912013
 21
3.024188737728557
 31
0.0
  0
SOLID
  5
DC1
  8
DIMENSIONS
 10
10.763218441141969
 20
2.6206858299504141
 30
0.0
 11
10.79996019633928
 21
2.5458895207536041
 31
0.0
 12
11.00597824633105
 22
2.693512940943962
 32
0.0
 13
11.00597824633105
 23
2.693512940943962
 33
0.0
  0
SOLID
  5
DC2
  8
DIMENSIONS
 10
11.43638522393104
 20
2.95136162673501
 30
0.0
 11
11.473126979128359
 21
2.8765653175381991
 31
0.0
 12
11.230367173939269
 22
2.8037382065446521
 32
0.0
 13
11.230367173939269
 23
2.8037382065446521
 33
0.0
  0
TEXT
  5
DC4
  8
DIMENSIONS
 10
12.01914502912013
 20
2.899188737728557
 30
0.0
 40
0.25
  1
0.250
  0
LINE
  5
DD5
  8
DIMENSIONS
 10
10.47985970745593
 20
7.3559459861357999
 30
0.0
 11
11.12869851430867
 21
7.3559459861829479
 31
0.0
  0
LINE
  5
DD6
  8
DIMENSIONS
 10
10.43569276666623
 20
6.5320536565256067
 30
0.0
 11
11.165489204019041
 21
6.6036008014948164
 31
0.0
  0
ARC
  5
DD7
  8
DIMENSIONS
 10
18.839573698796428
 20
7.3559459867431993
 30
0.0
 40
7.7733751844877501
 50
176.31445493970421
 51
178.15722747193351
  0
ARC
  5
DD8
  8
DIMENSIONS
 10
18.839573698796428
 20
7.3559459867431993
 30
0.0
 40
7.7733751844877501
 50
187.44199325396599
 51
189.28476578619541
  0
SOLID
  5
DD9
  8
DIMENSIONS
 10
11.111879926182979
 20
7.6052436390359519
 30
0.0
 11
11.0285573678576
 21
7.6065836832731568
 31
0.0
 12
11.06619851430867
 22
7.3559459861784076
 32
0.0
 13
11.06619851430867
 23
7.3559459861784076
 33
0.0
  0
SOLID
  5
DDA
  8
DIMENSIONS
 10
11.09028041894581
 20
6.3443882573094932
 30
0.0
 11
11.17307467534347
 21
6.353851636832859
 31
0.0
 12
11.103287408574539
 22
6.5975027162641506
 32
0.0
 13
11.103287408574539
 23
6.5975027162641506
 33
0.0
  0
TEXT
  5
DDC
  8
DIMENSIONS
 10
10.93261913167659
 20
6.8512711977890381
 30
0.0
 40
0.25
  1
6°
  0
LINE
  5
DE2
  8
CONSTRUCTION_LINES
 10
10.68370035605516
 20
3.3495838497551671
 30
0.0
 11
18.83957368324338
 21
7.3559459862151
 31
0.0
  0
LINE
  5
DE3
  8
CONSTRUCTION_LINES
 10
9.9729141371703776
 20
5.368093931714907
 30
0.0
 11
18.83957368324338
 21
7.3559459862151
 31
0.0
  0
LINE
  5
DE4
  8
CONSTRUCTION_LINES
 10
10.10247538887662
 20
5.8510161635892759
 30
0.0
 11
18.83957368324338
 21
7.3559459862151
 31
0.0
  0
LINE
  5
DE5
  8
CONSTRUCTION_LINES
 10
9.7523597074951667
 20
7.3559459860829408
 30
0.0
 11
18.839119707414689
 21
7.3559459862150716
 31
0.0
  0
LINE
  5
DE6
  8
CONSTRUCTION_LINES
 10
10.02542024781606
 20
6.4918317180772203
 30
0.0
 11
18.839119707414689
 21
7.3559459862150716
 31
0.0
  0
LINE
  5
DE7
  8
CONSTRUCTION_LINES
 10
10.74625081926218
 20
11.48809802318145
 30
0.0
 11
18.839119707414689
 21
7.3559459862150716
 31
0.0
  0
LINE
  5
DE8
  8
CONSTRUCTION_LINES
 10
11.09940842303817
 20
12.11683629487649
 30
0.0
 11
18.839119707414689
 21
7.3559459862150716
 31
0.0
  0
LINE
  5
DE9
  8
CONSTRUCTION_LINES
 10
11.82520061785646
 20
12.429843176837741
 30
0.0
 11
18.839119707414689
 21
7.3559459862150716
 31
0.0
  0
ENDSEC
  0
EOF
