  0
SECTION
  2
HEADER
  9
$ACADVER
  1
AC1009
  9
$INSBASE
 10
0.0
 20
0.0
 30
0.0
  9
$EXTMIN
 10
-0.0011039230789365
 20
-0.0012172124296512
 30
-0.0000000000112498
  9
$EXTMAX
 10
15.88527864661658
 20
12.27499842381523
 30
0.0000000000002956
  9
$LIMMIN
 10
0.0
 20
0.0
  9
$LIMMAX
 10
12.0
 20
9.0
  9
$ORTHOMODE
 70
     0
  9
$REGENMODE
 70
     1
  9
$FILLMODE
 70
     1
  9
$QTEXTMODE
 70
     0
  9
$MIRRTEXT
 70
     1
  9
$DRAGMODE
 70
     2
  9
$LTSCALE
 40
1.0
  9
$OSMODE
 70
    39
  9
$ATTMODE
 70
     1
  9
$TEXTSIZE
 40
0.3125
  9
$TRACEWID
 40
0.05
  9
$TEXTSTYLE
  7
STANDARD
  9
$CLAYER
  8
0
  9
$CELTYPE
  6
BYLAYER
  9
$CECOLOR
 62
   256
  9
$DIMSCALE
 40
1.0
  9
$DIMASZ
 40
0.25
  9
$DIMEXO
 40
0.0625
  9
$DIMDLI
 40
1.0
  9
$DIMRND
 40
0.0
  9
$DIMDLE
 40
0.0
  9
$DIMEXE
 40
0.0625
  9
$DIMTP
 40
0.0
  9
$DIMTM
 40
0.0
  9
$DIMTXT
 40
0.25
  9
$DIMCEN
 40
0.0
  9
$DIMTSZ
 40
0.0
  9
$DIMTOL
 70
     0
  9
$DIMLIM
 70
     0
  9
$DIMTIH
 70
     1
  9
$DIMTOH
 70
     1
  9
$DIMSE1
 70
     0
  9
$DIMSE2
 70
     0
  9
$DIMTAD
 70
     0
  9
$DIMZIN
 70
     0
  9
$DIMBLK
  1

  9
$DIMASO
 70
     1
  9
$DIMSHO
 70
     1
  9
$DIMPOST
  1

  9
$DIMAPOST
  1

  9
$DIMALT
 70
     0
  9
$DIMALTD
 70
     2
  9
$DIMALTF
 40
25.399999999999999
  9
$DIMLFAC
 40
1.0
  9
$DIMTOFL
 70
     0
  9
$DIMTVP
 40
0.0
  9
$DIMTIX
 70
     0
  9
$DIMSOXD
 70
     0
  9
$DIMSAH
 70
     0
  9
$DIMBLK1
  1

  9
$DIMBLK2
  1

  9
$DIMSTYLE
  2
STANDARD
  9
$DIMCLRD
 70
   256
  9
$DIMCLRE
 70
   256
  9
$DIMCLRT
 70
   256
  9
$DIMTFAC
 40
1.0
  9
$DIMGAP
 40
0.0625
  9
$LUNITS
 70
     2
  9
$LUPREC
 70
     8
  9
$SKETCHINC
 40
0.1
  9
$FILLETRAD
 40
0.0
  9
$AUNITS
 70
     0
  9
$AUPREC
 70
     0
  9
$MENU
  1
.
  9
$ELEVATION
 40
0.0
  9
$PELEVATION
 40
0.0
  9
$THICKNESS
 40
0.0
  9
$LIMCHECK
 70
     0
  9
$BLIPMODE
 70
     0
  9
$CHAMFERA
 40
0.0
  9
$CHAMFERB
 40
0.0
  9
$SKPOLY
 70
     0
  9
$TDCREATE
 40
2452227.939733333
  9
$TDUPDATE
 40
2453472.3997722799
  9
$TDINDWG
 40
2.0357576504999999
  9
$TDUSRTIMER
 40
2.0357570718
  9
$USRTIMER
 70
     1
  9
$ANGBASE
 50
0.0
  9
$ANGDIR
 70
     0
  9
$PDMODE
 70
     0
  9
$PDSIZE
 40
0.0
  9
$PLINEWID
 40
0.0
  9
$COORDS
 70
     0
  9
$SPLFRAME
 70
     0
  9
$SPLINETYPE
 70
     6
  9
$SPLINESEGS
 70
     8
  9
$ATTDIA
 70
     0
  9
$ATTREQ
 70
     1
  9
$HANDLING
 70
     1
  9
$HANDSEED
  5
1439
  9
$SURFTAB1
 70
     6
  9
$SURFTAB2
 70
     6
  9
$SURFTYPE
 70
     6
  9
$SURFU
 70
     6
  9
$SURFV
 70
     6
  9
$UCSNAME
  2

  9
$UCSORG
 10
0.0
 20
0.0
 30
0.0
  9
$UCSXDIR
 10
1.0
 20
0.0
 30
0.0
  9
$UCSYDIR
 10
0.0
 20
1.0
 30
0.0
  9
$PUCSNAME
  2

  9
$PUCSORG
 10
0.0
 20
0.0
 30
0.0
  9
$PUCSXDIR
 10
1.0
 20
0.0
 30
0.0
  9
$PUCSYDIR
 10
0.0
 20
1.0
 30
0.0
  9
$USERI1
 70
     0
  9
$USERI2
 70
     0
  9
$USERI3
 70
     0
  9
$USERI4
 70
     0
  9
$USERI5
 70
     0
  9
$USERR1
 40
0.0
  9
$USERR2
 40
0.0
  9
$USERR3
 40
0.0
  9
$USERR4
 40
0.0
  9
$USERR5
 40
0.0
  9
$WORLDVIEW
 70
     1
  9
$SHADEDGE
 70
     3
  9
$SHADEDIF
 70
    70
  9
$TILEMODE
 70
     1
  9
$MAXACTVP
 70
    64
  9
$PLIMCHECK
 70
     0
  9
$PEXTMIN
 10
1.0000000000000000E+020
 20
1.0000000000000000E+020
 30
1.0000000000000000E+020
  9
$PEXTMAX
 10
-1.0000000000000000E+020
 20
-1.0000000000000000E+020
 30
-1.0000000000000000E+020
  9
$PLIMMIN
 10
0.0
 20
0.0
  9
$PLIMMAX
 10
12.0
 20
9.0
  9
$UNITMODE
 70
     0
  9
$VISRETAIN
 70
     1
  9
$PLINEGEN
 70
     0
  9
$PSLTSCALE
 70
     1
  0
ENDSEC
  0
SECTION
  2
TABLES
  0
TABLE
  2
VPORT
 70
     7
  0
VPORT
  2
*ACTIVE
 70
     0
 10
0.0
 20
0.0
 11
1.0
 21
1.0
 12
7.9420873617688237
 22
6.1368906056927912
 13
0.0
 23
0.0
 14
0.5
 24
0.5
 15
0.5
 25
0.5
 16
0.0
 26
0.0
 36
1.0
 17
0.0
 27
0.0
 37
0.0
 40
12.432933282665029
 41
2.1727078891257992
 42
50.0
 43
0.0
 44
0.0
 50
0.0
 51
0.0
 71
     0
 72
 20000
 73
     1
 74
     2
 75
     0
 76
     0
 77
     0
 78
     0
  0
ENDTAB
  0
TABLE
  2
LTYPE
 70
     1
  0
LTYPE
  2
CONTINUOUS
 70
     0
  3
Solid line
 72
    65
 73
     0
 40
0.0
  0
ENDTAB
  0
TABLE
  2
LAYER
 70
     5
  0
LAYER
  2
0
 70
     0
 62
     7
  6
CONTINUOUS
  0
LAYER
  2
BODY_-_POWER_COUPLING
 70
     0
 62
     7
  6
CONTINUOUS
  0
LAYER
  2
DIMENSIONS
 70
     0
 62
     1
  6
CONTINUOUS
  0
LAYER
  2
DEFPOINTS
 70
     0
 62
     7
  6
CONTINUOUS
  0
LAYER
  2
FORM
 70
     0
 62
     5
  6
CONTINUOUS
  0
ENDTAB
  0
TABLE
  2
STYLE
 70
     1
  0
STYLE
  2
STANDARD
 70
     0
 40
0.0
 41
1.0
 50
0.0
 71
     0
 42
0.3125
  3
simplex.shx
  4

  0
ENDTAB
  0
TABLE
  2
VIEW
 70
     0
  0
ENDTAB
  0
TABLE
  2
UCS
 70
     0
  0
ENDTAB
  0
TABLE
  2
APPID
 70
     5
  0
APPID
  2
ACAD
 70
     0
  0
APPID
  2
ACAD_DSTYLE_DIMTEXT_FILL
 70
     0
  0
APPID
  2
ACAECLAYERSTANDARD
 70
     0
  0
APPID
  2
DCO15
 70
     0
  0
APPID
  2
ACAD_PSEXT
 70
     0
  0
ENDTAB
  0
TABLE
  2
DIMSTYLE
 70
     1
  0
DIMSTYLE
  2
STANDARD
 70
     0
  3

  4

  5

  6

  7

 40
1.0
 41
0.25
 42
0.0625
 43
1.0
 44
0.0625
 45
0.0
 46
0.0
 47
0.0
 48
0.0
140
0.25
141
0.0
142
0.0
143
25.399999999999999
144
1.0
145
0.0
146
1.0
147
0.0625
 71
     0
 72
     0
 73
     1
 74
     1
 75
     0
 76
     0
 77
     0
 78
     0
170
     0
171
     2
172
     0
173
     0
174
     0
175
     0
176
   256
177
   256
178
   256
  0
ENDTAB
  0
ENDSEC
  0
SECTION
  2
BLOCKS
  0
BLOCK
  8
0
  2
$MODEL_SPACE
 70
     0
 10
0.0
 20
0.0
 30
0.0
  3
$MODEL_SPACE
  1

  0
ENDBLK
  5
9
  8
0
  0
BLOCK
 67
     1
  8
0
  2
$PAPER_SPACE
 70
     0
 10
0.0
 20
0.0
 30
0.0
  3
$PAPER_SPACE
  1

  0
ENDBLK
  5
E
 67
     1
  8
0
  0
BLOCK
  8
0
  2
*U9
 70
     1
 10
0.0
 20
0.0
 30
0.0
  3
*U9
  1

  0
TEXT
  5
1394
  8
DIMENSIONS
 10
7.622557955879155
 20
9.2264267195949898
 30
0.0
 40
0.25
  1
1.344
  0
ENDBLK
  5
1396
  8
0
  0
BLOCK
  8
0
  2
*U10
 70
     1
 10
0.0
 20
0.0
 30
0.0
  3
*U10
  1

  0
TEXT
  5
1398
  8
DIMENSIONS
 10
9.0229154242030507
 20
10.5321102064312
 30
0.0
 40
0.25
  1
1.344
  0
ENDBLK
  5
139A
  8
0
  0
BLOCK
  8
0
  2
*U11
 70
     1
 10
0.0
 20
0.0
 30
0.0
  3
*U11
  1

  0
TEXT
  5
139C
  8
DIMENSIONS
 10
7.6855669772443793
 20
10.19551230376579
 30
0.0
 40
0.25
  1
R1.438
  0
ENDBLK
  5
139E
  8
0
  0
BLOCK
  8
0
  2
*U12
 70
     1
 10
0.0
 20
0.0
 30
0.0
  3
*U12
  1

  0
TEXT
  5
13A0
  8
DIMENSIONS
 10
3.6166200833071609
 20
9.2264267195949898
 30
0.0
 40
0.25
  1
0.040
  0
ENDBLK
  5
13A2
  8
0
  0
BLOCK
  8
0
  2
*U13
 70
     1
 10
0.0
 20
0.0
 30
0.0
  3
*U13
  1

  0
TEXT
  5
13A4
  8
DIMENSIONS
 10
15.4211639800433
 20
10.0476102064312
 30
0.0
 40
0.25
  1
0.375
  0
ENDBLK
  5
13A6
  8
0
  0
BLOCK
  8
0
  2
*U14
 70
     1
 10
0.0
 20
0.0
 30
0.0
  3
*U14
  1

  0
TEXT
  5
13A8
  8
DIMENSIONS
 10
18.471974321938291
 20
11.567615850879591
 30
0.0
 40
0.25
  1
0.375
  0
ENDBLK
  5
13AA
  8
0
  0
BLOCK
  8
0
  2
*U15
 70
     1
 10
0.0
 20
0.0
 30
0.0
  3
*U15
  1

  0
TEXT
  5
13AC
  8
DIMENSIONS
 10
18.715892987570069
 20
9.398159733421231
 30
0.0
 40
0.25
  1
R0.750
  0
ENDBLK
  5
13AE
  8
0
  0
BLOCK
  8
0
  2
*U16
 70
     1
 10
0.0
 20
0.0
 30
0.0
  3
*U16
  1

  0
TEXT
  5
13B0
  8
DIMENSIONS
 10
15.21149505024203
 20
11.01466250612409
 30
0.0
 40
0.25
  1
R1.187
  0
ENDBLK
  5
13B2
  8
0
  0
BLOCK
  8
0
  2
*U17
 70
     1
 10
0.0
 20
0.0
 30
0.0
  3
*U17
  1

  0
TEXT
  5
13B4
  8
DIMENSIONS
 10
18.600358054979679
 20
11.567615850879591
 30
0.0
 40
0.25
  1
0.040
  0
ENDBLK
  5
13B6
  8
0
  0
ENDSEC
  0
SECTION
  2
ENTITIES
  0
TEXT
  5
F41
  8
0
  6
CONTINUOUS
 10
72.336633369901421
 20
16.471658419875538
 30
0.0
 40
0.12
  1
 
 51
7.0
  0
TEXT
  5
F42
  8
0
  6
CONTINUOUS
 10
84.780730135381319
 20
23.534532849607199
 30
0.0
 40
0.24
  1
 
 51
7.0
  0
TEXT
  5
F43
  8
0
  6
CONTINUOUS
 10
93.990495147294595
 20
23.214522863030119
 30
0.0
 40
0.24
  1
 
 51
7.0
  0
TEXT
  5
F44
  8
0
  6
CONTINUOUS
 10
103.79445463172731
 20
6.3519420635027926
 30
0.0
 40
0.24
  1
 
 51
7.0
  0
LINE
  5
FFC
  8
0
 10
0.0
 20
0.0
 30
0.0
 11
0.0
 21
12.273999999999999
 31
0.0
  0
LINE
  5
FFD
  8
0
 10
15.884
 20
0.0
 30
0.0
 11
15.884
 21
12.273999999999999
 31
0.0
  0
LINE
  5
FFE
  8
0
 10
0.0
 20
0.0
 30
0.0
 11
15.884
 21
0.0
 31
0.0
  0
LINE
  5
FFF
  8
0
 10
0.0
 20
12.273999999999999
 30
0.0
 11
15.884
 21
12.273999999999999
 31
0.0
  0
LINE
  5
109D
  8
FORM
 10
15.453576913157431
 20
0.5414999997598695
 30
0.0
 11
15.453576913157431
 21
10.94107691603906
 31
0.0
  0
LINE
  5
109E
  8
FORM
 10
15.342499990154391
 20
11.0521538390421
 30
0.0
 11
0.5414999997598901
 21
11.0521538390421
 31
0.0
  0
LINE
  5
109F
  8
FORM
 10
15.342499990154391
 20
0.4304230767568411
 30
0.0
 11
0.5414999997598901
 21
0.4304230767568359
 31
0.0
  0
LINE
  5
10A0
  8
FORM
 10
0.4304230767568511
 20
0.5414999997598695
 30
0.0
 11
0.4304230767568511
 21
10.94107691603906
 31
0.0
  0
TEXT
  5
10A1
  8
FORM
 10
13.84615806107713
 20
1.795850954955446
 30
0.0
 40
0.16
  1
TABS
 72
     1
 11
14.131872346791409
 21
1.795850954955446
 31
0.0
  0
TEXT
  5
10A2
  8
FORM
 10
13.77359968219457
 20
1.3978909996597551
 30
0.0
 40
0.1880931489133419
  1
BODY
 72
     1
 11
14.131872346791409
 21
1.3978909996597551
 31
0.0
  0
TEXT
  5
10A3
  8
FORM
 10
12.10835459664516
 20
0.8070244353272936
 30
0.0
 40
0.1880931489133419
  1
ASTROMECH DROID
  0
TEXT
  5
10A4
  8
FORM
 10
15.058898674396071
 20
0.8143368040101515
 30
0.0
 40
0.1880931489133419
  1
A
  0
TEXT
  5
10A5
  8
FORM
 10
12.45772029899371
 20
0.5874707609086296
 30
0.0
 40
0.0752372595653368
  1
FULL
  0
TEXT
  5
10A6
  8
FORM
 10
14.86834855307559
 20
0.5895766940882785
 30
0.0
 40
0.0752372595653368
  1
1   1
  0
TEXT
  5
10A7
  8
FORM
 10
13.622243658818469
 20
0.595388711552962
 30
0.0
 40
0.0752372595653368
  1
APRIL 2005
 72
     2
 11
14.27429990838472
 21
0.595388711552962
 31
0.0
  0
TEXT
  5
10A8
  8
FORM
  6
CONTINUOUS
 10
13.081793753589309
 20
0.5946317451563643
 30
0.0
 40
0.065004992264451
  1
DRAWN:
  0
TEXT
  5
10A9
  8
FORM
  6
CONTINUOUS
 10
12.075583331435061
 20
0.5946927041520138
 30
0.0
 40
0.065004992264451
  1
SCALE:
  0
TEXT
  5
10AA
  8
FORM
  6
CONTINUOUS
 10
14.45296479022508
 20
0.5938780764619979
 30
0.0
 40
0.065004992264451
  1
SHEET:   OF
  0
TEXT
  5
10AB
  8
FORM
  6
CONTINUOUS
 10
11.95687586626773
 20
1.1102936820738201
 30
0.0
 40
0.065004992264451
  1
DRAWING NO.
  0
TEXT
  5
10AC
  8
FORM
  6
CONTINUOUS
 10
15.03370915743103
 20
1.1102936820738121
 30
0.0
 40
0.065004992264451
  1
REV.
 72
     1
 11
15.129668907916651
 21
1.1102936820738121
 31
0.0
  0
LINE
  5
10AD
  8
FORM
  6
CONTINUOUS
 10
12.059747880799639
 20
2.4266447754289469
 30
0.0
 11
15.179987509493261
 21
2.4266447754289469
 31
0.0
  0
LINE
  5
10AE
  8
FORM
  6
CONTINUOUS
 10
11.897235400138509
 20
0.704012480420994
 30
0.0
 11
11.89723540013849
 21
2.264132294767812
 31
0.0
  0
LINE
  5
10AF
  8
FORM
  6
CONTINUOUS
 10
11.897235400138509
 20
1.207801170470487
 30
0.0
 11
15.342499990154391
 21
1.207801170470487
 31
0.0
  0
LINE
  5
10B0
  8
FORM
  6
CONTINUOUS
 10
11.897235400138509
 20
0.704012480420994
 30
0.0
 11
15.342499990154391
 21
0.704012480420994
 31
0.0
  0
LINE
  5
10B1
  8
FORM
  6
CONTINUOUS
 10
12.98014659506244
 20
0.704012480420994
 30
0.0
 11
12.98014659506244
 21
0.5414999997598695
 31
0.0
  0
LINE
  5
10B2
  8
FORM
  6
CONTINUOUS
 10
14.404211046026751
 20
0.7020119139379716
 30
0.0
 11
14.404211046026751
 21
0.5394994332768471
 31
0.0
  0
LINE
  5
10B3
  8
FORM
  6
CONTINUOUS
 10
14.91308879292477
 20
1.207801170470487
 30
0.0
 11
14.91308879292477
 21
0.704012480420994
 31
0.0
  0
ARC
  5
10B4
  8
FORM
 62
     5
 10
12.22028597050393
 20
1.9372149960156879
 30
0.0
 40
0.0177237851181057
 50
152.18113099770551
 51
330.99098814993278
  0
ARC
  5
10B5
  8
FORM
 62
     5
 10
12.297005440225609
 20
2.084959825287954
 30
0.0
 40
0.015540943335069
 50
335.32315363464198
 51
152.6722492633036
  0
ARC
  5
10B6
  8
FORM
 62
     5
 10
13.48074561372861
 20
1.355789205377296
 30
0.0
 40
1.4057963247038621
 50
148.41494327216151
 51
155.19852313243231
  0
ARC
  5
10B7
  8
FORM
 62
     5
 10
13.752848210301121
 20
1.2597513625587311
 30
0.0
 40
1.657969326414183
 50
150.40875710206339
 51
156.20744757951141
  0
ARC
  5
10B8
  8
FORM
 62
     7
 10
12.17016751190506
 20
1.7883159831756059
 30
0.0
 40
0.02368278139071
 50
161.128725237971
 51
346.89295927401372
  0
ARC
  5
10B9
  8
FORM
 62
     7
 10
19.094720675658898
 20
-1.2026065084943249
 30
0.0
 40
7.5195776557094911
 50
153.58307292081309
 51
156.60691138966209
  0
ARC
  5
10BA
  8
FORM
 62
     7
 10
18.008676887645962
 20
-0.8119037282420878
 30
0.0
 40
6.4067731937066972
 50
152.3409599977594
 51
152.9694116127464
  0
ARC
  5
10BB
  8
FORM
 62
     7
 10
18.080494370730651
 20
-1.0205841202414461
 30
0.0
 40
6.5673719986848793
 50
153.3711283527573
 51
154.60402195655351
  0
ARC
  5
10BC
  8
FORM
 62
     7
 10
12.5118254492234
 20
2.0651115447055561
 30
0.0
 40
0.1702734512534544
 50
23.468725928191049
 51
88.151617587883351
  0
ARC
  5
10BD
  8
FORM
 62
     7
 10
12.51563093945618
 20
2.076089026091354
 30
0.0
 40
0.2009702506250174
 50
18.23262529566551
 51
154.63608874642679
  0
ARC
  5
10BE
  8
FORM
 62
     7
 10
12.575843856635551
 20
2.0970365235010959
 30
0.0
 40
0.1372304832798889
 50
336.99722732837893
 51
341.11190659806488
  0
ARC
  5
10BF
  8
FORM
 62
     7
 10
12.58400589216428
 20
2.1031055762026978
 30
0.0
 40
0.089881704119397
 50
333.24704424527522
 51
339.12675173356178
  0
ARC
  5
10C0
  8
FORM
 62
     7
 10
12.66902122211868
 20
2.0606640688808899
 30
0.0
 40
0.005151394972305
 50
157.3747590211585
 51
243.18317341424029
  0
ARC
  5
10C1
  8
FORM
 62
     7
 10
12.699447403798169
 20
2.044211848375971
 30
0.0
 40
0.002831056474127
 50
246.74236679857631
 51
343.55073793579641
  0
ARC
  5
10C2
  8
FORM
 62
     7
 10
12.788533316588129
 20
2.280831755676771
 30
0.0
 40
0.2556626071955181
 50
241.5396617947477
 51
249.33988332022491
  0
ARC
  5
10C3
  8
FORM
 62
     7
 10
12.609814374078191
 20
2.009706901389074
 30
0.0
 40
0.0504700548278229
 50
210.28645373052609
 51
287.25915125833183
  0
ARC
  5
10C4
  8
FORM
 62
     7
 10
12.614150879270611
 20
1.987881843920928
 30
0.0
 40
0.0284370627143969
 50
291.96730232828992
 51
10.20108836223371
  0
ARC
  5
10C5
  8
FORM
 62
     7
 10
12.38940736268092
 20
1.9392435616126551
 30
0.0
 40
0.1824640284620006
 50
14.28109924276106
 51
24.94726153987823
  0
ARC
  5
10C6
  8
FORM
 62
     7
 10
12.49583122071637
 20
1.9945102277154461
 30
0.0
 40
0.0628765524215168
 50
20.183063788867621
 51
47.833846572520187
  0
ARC
  5
10C7
  8
FORM
 62
     7
 10
12.50758575083564
 20
1.9626618870410351
 30
0.0
 40
0.0841558613990995
 50
68.784960310907422
 51
94.742087985452599
  0
ARC
  5
10C8
  8
FORM
 62
     7
 10
12.5066701075976
 20
2.0123968976551452
 30
0.0
 40
0.0346633409118312
 50
100.0375073429591
 51
170.98475346238999
  0
ARC
  5
10C9
  8
FORM
 62
     7
 10
12.66971367658382
 20
1.988436208267335
 30
0.0
 40
0.1994562512288132
 50
171.52589863719891
 51
197.494741096675
  0
ARC
  5
10CA
  8
FORM
 62
     7
 10
12.53535562798363
 20
1.9912580970623339
 30
0.0
 40
0.1067956906528361
 50
0.8906501289532242
 51
49.113860192417171
  0
ARC
  5
10CB
  8
FORM
 62
     7
 10
12.51285733037567
 20
2.0108466182663851
 30
0.0
 40
0.0840555033232637
 50
99.869748807366761
 51
175.59516845025641
  0
ARC
  5
10CC
  8
FORM
 62
     7
 10
12.52801352632121
 20
1.9652688489889809
 30
0.0
 40
0.1317491282875616
 50
54.104282451028169
 51
102.9674010870567
  0
ARC
  5
10CD
  8
FORM
 62
     7
 10
12.89984799538445
 20
2.0436567834563171
 30
0.0
 40
0.4358589586263057
 50
195.32307896217739
 51
209.290843156958
  0
ARC
  5
10CE
  8
FORM
 62
     7
 10
12.76270615539695
 20
1.9721920651039551
 30
0.0
 40
0.336691695802068
 50
172.3003020759547
 51
200.12627387409299
  0
ARC
  5
10CF
  8
FORM
 62
     7
 10
13.00343420105043
 20
2.0661633270448041
 30
0.0
 40
0.5950791681264871
 50
200.64629086238159
 51
210.0464960904439
  0
ARC
  5
10D0
  8
FORM
 62
     7
 10
12.18368490944543
 20
1.6049070670038039
 30
0.0
 40
0.4046853294838103
 50
28.431949107384298
 51
33.865461133002469
  0
ARC
  5
10D1
  8
FORM
 62
     7
 10
12.51607395933112
 20
1.7791734374286761
 30
0.0
 40
0.0298405058713345
 50
201.56446042640411
 51
38.094090168146302
  0
ARC
  5
10D2
  8
FORM
 62
     5
 10
12.77830855719489
 20
2.027086312179637
 30
0.0
 40
0.0165989828958002
 50
227.6202696593605
 51
57.412112921204063
  0
ARC
  5
10D3
  8
FORM
 62
     5
 10
12.582547636346741
 20
1.7717121702834171
 30
0.0
 40
0.3383153141504293
 50
52.766851639305898
 51
65.063571515457895
  0
ARC
  5
10D4
  8
FORM
 62
     5
 10
12.425067203002831
 20
1.527545087070225
 30
0.0
 40
0.5953500579033957
 50
54.932512589538803
 51
74.152868438598929
  0
ARC
  5
10D5
  8
FORM
 62
     5
 10
12.43365110287872
 20
1.3505547319368221
 30
0.0
 40
0.7653645077901665
 50
78.393012355262385
 51
89.647961077025343
  0
ARC
  5
10D6
  8
FORM
 62
     5
 10
12.437067424160629
 20
2.1381189419833562
 30
0.0
 40
0.0222513552550665
 50
183.9979944211656
 51
273.313807745882
  0
ARC
  5
10D7
  8
FORM
 62
     5
 10
12.51216641793148
 20
2.1439972096929898
 30
0.0
 40
0.0975794574417487
 50
145.60859166919269
 51
184.36670732083471
  0
ARC
  5
10D8
  8
FORM
 62
     5
 10
12.45212883136014
 20
2.1861608414761928
 30
0.0
 40
0.0242367415493341
 50
75.244714174009715
 51
147.6929850116162
  0
ARC
  5
10D9
  8
FORM
 62
     5
 10
12.16322094108758
 20
1.0774134154806301
 30
0.0
 40
1.1700065423001731
 50
61.637242241525243
 51
75.392005557716686
  0
ARC
  5
10DA
  8
FORM
 62
     5
 10
12.696927306242371
 20
2.0872908379193511
 30
0.0
 40
0.0295975049719742
 50
342.69825742684009
 51
41.67278378767756
  0
ARC
  5
10DB
  8
FORM
 62
     7
 10
12.575843856635551
 20
2.0970365235010959
 30
0.0
 40
0.1372304832798889
 50
5.6380312699922799
 51
17.79145636873681
  0
ARC
  5
10DC
  8
FORM
 62
     7
 10
12.638293930128659
 20
1.450362837483437
 30
0.0
 40
0.0439126058707189
 50
88.432533024773406
 51
186.62631613112151
  0
ARC
  5
10DD
  8
FORM
 62
     7
 10
12.645185899398189
 20
1.459519015390915
 30
0.0
 40
0.0524756121004989
 50
195.7266305128272
 51
285.3806868435185
  0
ARC
  5
10DE
  8
FORM
 62
     7
 10
12.583302853433359
 20
1.9239085140935741
 30
0.0
 40
0.5205344216602331
 50
278.37329371359471
 51
293.15208507016871
  0
ARC
  5
10DF
  8
FORM
 62
     7
 10
12.75794222393186
 20
1.5962816981165611
 30
0.0
 40
0.1073580912182674
 50
257.51805604168283
 51
277.23103351305667
  0
ARC
  5
10E0
  8
FORM
 62
     7
 10
12.763961486448091
 20
1.5080857418559941
 30
0.0
 40
0.0197826343292069
 50
292.26031345923337
 51
12.867379300523719
  0
ARC
  5
10E1
  8
FORM
 62
     7
 10
12.74925215927718
 20
1.505249600907675
 30
0.0
 40
0.0347579308501003
 50
12.02537552739555
 51
52.143631645159317
  0
ARC
  5
10E2
  8
FORM
 62
     7
 10
13.490376270698411
 20
2.4058786624695561
 30
0.0
 40
1.1316168000878239
 50
219.60277928185971
 51
230.5002020408055
  0
ARC
  5
10E3
  8
FORM
 62
     7
 10
12.791814918342009
 20
1.8201557956829439
 30
0.0
 40
0.2200932715848004
 50
175.97523115435061
 51
218.04500009534141
  0
ARC
  5
10E4
  8
FORM
 62
     7
 10
12.69852784810503
 20
1.842257091543801
 30
0.0
 40
0.1264385880290463
 50
149.96078860476399
 51
183.01641230856191
  0
ARC
  5
10E5
  8
FORM
 62
     7
 10
12.610200815945131
 20
1.8942690702643299
 30
0.0
 40
0.0239522675795413
 50
69.764209445538683
 51
151.8988190455112
  0
ARC
  5
10E6
  8
FORM
 62
     7
 10
12.60737494680575
 20
1.8926409955422561
 30
0.0
 40
0.026539566517614
 50
357.6694469744499
 51
65.251102439515435
  0
ARC
  5
10E7
  8
FORM
 62
     7
 10
12.544841818151509
 20
1.887509135933646
 30
0.0
 40
0.0891429117510249
 50
345.36193237678458
 51
2.6056939300727819
  0
ARC
  5
10E8
  8
FORM
 62
     7
 10
12.83050918630895
 20
1.8033224801649479
 30
0.0
 40
0.2087327259982863
 50
162.8186183088072
 51
185.35496664157321
  0
ARC
  5
10E9
  8
FORM
 62
     7
 10
12.80723883172378
 20
1.8242615942454401
 30
0.0
 40
0.1889257255592383
 50
192.3534994193023
 51
222.3020476696033
  0
ARC
  5
10EA
  8
FORM
 62
     7
 10
13.45808027643292
 20
2.3489513986307919
 30
0.0
 40
1.0246488660893249
 50
219.50633019139829
 51
228.42762303996261
  0
ARC
  5
10EB
  8
FORM
 62
     7
 10
12.667598365181631
 20
1.431727052393428
 30
0.0
 40
0.1868790787430266
 50
32.971129457978869
 51
53.728419363024337
  0
ARC
  5
10EC
  8
FORM
 62
     7
 10
12.7689348082701
 20
1.5047486155149501
 30
0.0
 40
0.062423805925866
 50
287.74749415951351
 51
27.35211189662947
  0
ARC
  5
10ED
  8
FORM
 62
     7
 10
12.675540957446509
 20
1.098802691290546
 30
0.0
 40
0.3970957111946648
 50
81.426570944510203
 51
95.208118001959775
  0
ARC
  5
10EE
  8
FORM
 62
     7
 10
12.50413191601419
 20
1.7178057823441599
 30
0.0
 40
0.0176780944853853
 50
325.52447187114308
 51
75.340502228459783
  0
ARC
  5
10EF
  8
FORM
 62
     7
 10
12.482351172976429
 20
1.7337975524258771
 30
0.0
 40
0.044693811457238
 50
277.78730616127859
 51
324.42957968808531
  0
ARC
  5
10F0
  8
FORM
 62
     7
 10
12.474447004750379
 20
1.741230393125798
 30
0.0
 40
0.053565560013952
 50
243.48581874200181
 51
285.1065744639306
  0
ARC
  5
10F1
  8
FORM
 62
     7
 10
10.10523462832516
 20
-4.3128466196533806
 30
0.0
 40
6.5078055971131263
 50
68.327181839257534
 51
70.606105230637283
  0
ARC
  5
10F2
  8
FORM
 62
     7
 10
12.26162512476124
 20
1.8066320735358601
 30
0.0
 40
0.0196074403770517
 50
76.445232091872299
 51
134.36352227876461
  0
ARC
  5
10F3
  8
FORM
 62
     7
 10
12.348800257765699
 20
1.6725071305706141
 30
0.0
 40
0.1792316733594814
 50
124.2547762008316
 51
135.012931962436
  0
ARC
  5
10F4
  8
FORM
 62
     7
 10
12.225400571700471
 20
1.7935132590441449
 30
0.0
 40
0.0066201073584344
 50
120.5491196217084
 51
251.48388650457539
  0
ARC
  5
10F5
  8
FORM
 62
     7
 10
11.334571348414141
 20
-0.6844265750639954
 30
0.0
 40
2.626585343342819
 50
64.85742894317822
 51
67.515132469299331
  0
ARC
  5
10F6
  8
FORM
 62
     7
 10
12.44438735835549
 20
1.6546760658851749
 30
0.0
 40
0.0247987074410153
 50
329.18566117941782
 51
69.527151249863806
  0
ARC
  5
10F7
  8
FORM
 62
     7
 10
12.37932974429293
 20
1.5564127105856771
 30
0.0
 40
0.1421179647029611
 50
58.747973844557571
 51
81.106226592028065
  0
ARC
  5
10F8
  8
FORM
 62
     7
 10
12.364211765860301
 20
1.462200177552003
 30
0.0
 40
0.2375353239666157
 50
81.016817915507374
 51
97.679603827268224
  0
ARC
  5
10F9
  8
FORM
 62
     7
 10
12.38921213937277
 20
1.5335804805870601
 30
0.0
 40
0.1761967715887216
 50
121.5050128230593
 51
139.0957881060705
  0
ARC
  5
10FA
  8
FORM
 62
     7
 10
12.437045824772969
 20
1.650893587598278
 30
0.0
 40
0.0299966621115606
 50
277.70569210516868
 51
342.69880024124109
  0
ARC
  5
10FB
  8
FORM
 62
     7
 10
12.427839570802981
 20
1.6847402716194899
 30
0.0
 40
0.0649341852966259
 50
250.08394506358289
 51
281.75453717228322
  0
ARC
  5
10FC
  8
FORM
 62
     7
 10
12.449054865739649
 20
1.6921953714515661
 30
0.0
 40
0.0810612806688659
 50
221.18187885427241
 51
237.68378775985289
  0
ARC
  5
10FD
  8
FORM
 62
     7
 10
12.35398482729329
 20
1.5982220735496591
 30
0.0
 40
0.0529944335393681
 50
50.003848755011681
 51
75.5416830098399
  0
ARC
  5
10FE
  8
FORM
 62
     7
 10
12.351181820752769
 20
1.6174304878817241
 30
0.0
 40
0.0358887815174111
 50
63.4626603498468
 51
100.74200229027051
  0
ARC
  5
10FF
  8
FORM
 62
     7
 10
12.34449262211033
 20
1.591964291882368
 30
0.0
 40
0.0607260777394693
 50
89.999999999999588
 51
125.5974615489027
  0
ARC
  5
1100
  8
FORM
 62
     7
 10
13.06484925933775
 20
2.025315364513089
 30
0.0
 40
0.840245439027756
 50
197.51922498184919
 51
203.981481444731
  0
ARC
  5
1101
  8
FORM
 62
     7
 10
12.08410127230904
 20
1.757122376095489
 30
0.0
 40
0.2553994922424914
 50
346.52409876011302
 51
356.71498770316703
  0
ARC
  5
1102
  8
FORM
 62
     7
 10
11.334571348414141
 20
-0.6844265750639954
 30
0.0
 40
2.626585343342819
 50
69.286600818944052
 51
70.22311760076802
  0
ARC
  5
1103
  8
FORM
 62
     7
 10
12.22194158290295
 20
1.534820084492927
 30
0.0
 40
0.0770183704533426
 50
245.40259669902051
 51
275.40975098180542
  0
ARC
  5
1104
  8
FORM
 62
     7
 10
12.49200160758517
 20
1.395846181557415
 30
0.0
 40
0.306112656158247
 50
126.68044463040199
 51
139.78708822539889
  0
ARC
  5
1105
  8
FORM
 62
     7
 10
12.22050080852579
 20
1.7514644228997489
 30
0.0
 40
0.2934487147790397
 50
271.69929119420118
 51
283.39540842056908
  0
ARC
  5
1106
  8
FORM
 62
     7
 10
12.769219941820531
 20
1.0742476294997649
 30
0.0
 40
0.7284956937476234
 50
134.5410403491789
 51
138.91474429089899
  0
ARC
  5
1107
  8
FORM
 62
     7
 10
12.23257568876806
 20
1.5426450639628131
 30
0.0
 40
0.0192722224855558
 50
201.8252958964795
 51
267.16449786715452
  0
ARC
  5
1108
  8
FORM
 62
     7
 10
12.22842682529531
 20
1.540816664215749
 30
0.0
 40
0.0147417975808401
 50
124.254854327418
 51
201.22329273937871
  0
ARC
  5
1109
  8
FORM
 62
     7
 10
12.273314263710031
 20
1.528822627790323
 30
0.0
 40
0.0646290406270345
 50
283.5751770312794
 51
324.58969283639942
  0
ARC
  5
110A
  8
FORM
 62
     7
 10
12.310173511445109
 20
1.4980417304950671
 30
0.0
 40
0.0171627759859523
 50
337.14160324238759
 51
47.56496670892831
  0
ARC
  5
110B
  8
FORM
 62
     7
 10
12.28375653167225
 20
1.460301009448244
 30
0.0
 40
0.063124832323586
 50
52.990730681111657
 51
91.748895977531376
  0
ARC
  5
110C
  8
FORM
 62
     7
 10
12.25672616343263
 20
1.6947658650346911
 30
0.0
 40
0.1731983947839876
 50
261.66603807207321
 51
278.33396192792679
  0
ARC
  5
110D
  8
FORM
 62
     7
 10
12.204727919511139
 20
1.501946588978873
 30
0.0
 40
0.040011419006515
 50
192.64550774538381
 51
248.2223967256862
  0
ARC
  5
110E
  8
FORM
 62
     7
 10
12.19489423894801
 20
1.5064793654599711
 30
0.0
 40
0.0320895214321356
 50
178.88427582775461
 51
204.46998391858139
  0
ARC
  5
110F
  8
FORM
 62
     7
 10
12.274275327834109
 20
1.498369611913259
 30
0.0
 40
0.1118062332132953
 50
140.54690015149379
 51
175.5193383191162
  0
ARC
  5
1110
  8
FORM
 62
     7
 10
13.37552881706247
 20
0.6215656754208058
 30
0.0
 40
1.5194660803774369
 50
137.45643980933039
 51
141.40545593619069
  0
POLYLINE
  5
1111
  8
FORM
 62
     1
 10
12.472999438941121
 20
2.195080841478676
 30
0.0
 66
     1
 70
     8
  0
VERTEX
  8
FORM
  5
13B7
 10
12.4730
 20
2.19508
 30
0.000000
  70
    32
  0
VERTEX
  8
FORM
  5
13B8
 10
12.4723
 20
2.19533
 30
0.000000
  70
    32
  0
VERTEX
  8
FORM
  5
13B9
 10
12.4716
 20
2.19550
 30
0.000000
  70
    32
  0
VERTEX
  8
FORM
  5
13BA
 10
12.4709
 20
2.19559
 30
0.000000
  70
    32
  0
VERTEX
  8
FORM
  5
13BB
 10
12.4701
 20
2.19560
 30
0.000000
  70
    32
  0
VERTEX
  8
FORM
  5
13BC
 10
12.4693
 20
2.19553
 30
0.000000
  70
    32
  0
VERTEX
  8
FORM
  5
13BD
 10
12.4685
 20
2.19539
 30
0.000000
  70
    32
  0
VERTEX
  8
FORM
  5
13BE
 10
12.4677
 20
2.19516
 30
0.000000
  70
    32
  0
VERTEX
  8
FORM
  5
13BF
 10
12.4668
 20
2.19486
 30
0.000000
  70
    32
  0
VERTEX
  8
FORM
  5
13C0
 10
12.4659
 20
2.19447
 30
0.000000
  70
    32
  0
VERTEX
  8
FORM
  5
13C1
 10
12.4650
 20
2.19401
 30
0.000000
  70
    32
  0
VERTEX
  8
FORM
  5
13C2
 10
12.4641
 20
2.19348
 30
0.000000
  70
    32
  0
VERTEX
  8
FORM
  5
13C3
 10
12.4632
 20
2.19287
 30
0.000000
  70
    32
  0
VERTEX
  8
FORM
  5
13C4
 10
12.4622
 20
2.19219
 30
0.000000
  70
    32
  0
VERTEX
  8
FORM
  5
13C5
 10
12.4613
 20
2.19144
 30
0.000000
  70
    32
  0
VERTEX
  8
FORM
  5
13C6
 10
12.4603
 20
2.19061
 30
0.000000
  70
    32
  0
VERTEX
  8
FORM
  5
13C7
 10
12.4594
 20
2.18973
 30
0.000000
  70
    32
  0
VERTEX
  8
FORM
  5
13C8
 10
12.4584
 20
2.18877
 30
0.000000
  70
    32
  0
VERTEX
  8
FORM
  5
13C9
 10
12.4575
 20
2.18775
 30
0.000000
  70
    32
  0
VERTEX
  8
FORM
  5
13CA
 10
12.4565
 20
2.18667
 30
0.000000
  70
    32
  0
VERTEX
  8
FORM
  5
13CB
 10
12.4556
 20
2.18554
 30
0.000000
  70
    32
  0
VERTEX
  8
FORM
  5
13CC
 10
12.4546
 20
2.18435
 30
0.000000
  70
    32
  0
VERTEX
  8
FORM
  5
13CD
 10
12.4537
 20
2.18310
 30
0.000000
  70
    32
  0
VERTEX
  8
FORM
  5
13CE
 10
12.4528
 20
2.18181
 30
0.000000
  70
    32
  0
VERTEX
  8
FORM
  5
13CF
 10
12.4519
 20
2.18047
 30
0.000000
  70
    32
  0
VERTEX
  8
FORM
  5
13D0
 10
12.4510
 20
2.17909
 30
0.000000
  70
    32
  0
VERTEX
  8
FORM
  5
13D1
 10
12.4501
 20
2.17767
 30
0.000000
  70
    32
  0
VERTEX
  8
FORM
  5
13D2
 10
12.4493
 20
2.17621
 30
0.000000
  70
    32
  0
VERTEX
  8
FORM
  5
13D3
 10
12.4484
 20
2.17472
 30
0.000000
  70
    32
  0
VERTEX
  8
FORM
  5
13D4
 10
12.4476
 20
2.17320
 30
0.000000
  70
    32
  0
VERTEX
  8
FORM
  5
13D5
 10
12.4469
 20
2.17165
 30
0.000000
  70
    32
  0
VERTEX
  8
FORM
  5
13D6
 10
12.4461
 20
2.17009
 30
0.000000
  70
    32
  0
VERTEX
  8
FORM
  5
13D7
 10
12.4454
 20
2.16850
 30
0.000000
  70
    32
  0
VERTEX
  8
FORM
  5
13D8
 10
12.4447
 20
2.16690
 30
0.000000
  70
    32
  0
VERTEX
  8
FORM
  5
13D9
 10
12.4441
 20
2.16529
 30
0.000000
  70
    32
  0
VERTEX
  8
FORM
  5
13DA
 10
12.4435
 20
2.16368
 30
0.000000
  70
    32
  0
VERTEX
  8
FORM
  5
13DB
 10
12.4429
 20
2.16206
 30
0.000000
  70
    32
  0
VERTEX
  8
FORM
  5
13DC
 10
12.4423
 20
2.16044
 30
0.000000
  70
    32
  0
VERTEX
  8
FORM
  5
13DD
 10
12.4418
 20
2.15883
 30
0.000000
  70
    32
  0
VERTEX
  8
FORM
  5
13DE
 10
12.4414
 20
2.15723
 30
0.000000
  70
    32
  0
VERTEX
  8
FORM
  5
13DF
 10
12.4410
 20
2.15564
 30
0.000000
  70
    32
  0
VERTEX
  8
FORM
  5
13E0
 10
12.4406
 20
2.15407
 30
0.000000
  70
    32
  0
VERTEX
  8
FORM
  5
13E1
 10
12.4403
 20
2.15252
 30
0.000000
  70
    32
  0
VERTEX
  8
FORM
  5
13E2
 10
12.4400
 20
2.15099
 30
0.000000
  70
    32
  0
VERTEX
  8
FORM
  5
13E3
 10
12.4397
 20
2.14949
 30
0.000000
  70
    32
  0
VERTEX
  8
FORM
  5
13E4
 10
12.4395
 20
2.14802
 30
0.000000
  70
    32
  0
VERTEX
  8
FORM
  5
13E5
 10
12.4394
 20
2.14659
 30
0.000000
  70
    32
  0
VERTEX
  8
FORM
  5
13E6
 10
12.4393
 20
2.14520
 30
0.000000
  70
    32
  0
VERTEX
  8
FORM
  5
13E7
 10
12.4392
 20
2.14385
 30
0.000000
  70
    32
  0
VERTEX
  8
FORM
  5
13E8
 10
12.4392
 20
2.14254
 30
0.000000
  70
    32
  0
VERTEX
  8
FORM
  5
13E9
 10
12.4393
 20
2.14128
 30
0.000000
  70
    32
  0
VERTEX
  8
FORM
  5
13EA
 10
12.4394
 20
2.14007
 30
0.000000
  70
    32
  0
VERTEX
  8
FORM
  5
13EB
 10
12.4395
 20
2.13892
 30
0.000000
  70
    32
  0
VERTEX
  8
FORM
  5
13EC
 10
12.4397
 20
2.13783
 30
0.000000
  70
    32
  0
VERTEX
  8
FORM
  5
13ED
 10
12.4399
 20
2.13679
 30
0.000000
  70
    32
  0
VERTEX
  8
FORM
  5
13EE
 10
12.4402
 20
2.13582
 30
0.000000
  70
    32
  0
VERTEX
  8
FORM
  5
13EF
 10
12.4405
 20
2.13491
 30
0.000000
  70
    32
  0
VERTEX
  8
FORM
  5
13F0
 10
12.4408
 20
2.13407
 30
0.000000
  70
    32
  0
VERTEX
  8
FORM
  5
13F1
 10
12.4412
 20
2.13330
 30
0.000000
  70
    32
  0
VERTEX
  8
FORM
  5
13F2
 10
12.4417
 20
2.13259
 30
0.000000
  70
    32
  0
VERTEX
  8
FORM
  5
13F3
 10
12.4422
 20
2.13196
 30
0.000000
  70
    32
  0
VERTEX
  8
FORM
  5
13F4
 10
12.4427
 20
2.13141
 30
0.000000
  70
    32
  0
VERTEX
  8
FORM
  5
13F5
 10
12.4433
 20
2.13093
 30
0.000000
  70
    32
  0
VERTEX
  8
FORM
  5
13F6
 10
12.4439
 20
2.13052
 30
0.000000
  70
    32
  0
VERTEX
  8
FORM
  5
13F7
 10
12.4445
 20
2.13020
 30
0.000000
  70
    32
  0
VERTEX
  8
FORM
  5
13F8
 10
12.4452
 20
2.12995
 30
0.000000
  70
    32
  0
VERTEX
  8
FORM
  5
13F9
 10
12.4459
 20
2.12978
 30
0.000000
  70
    32
  0
VERTEX
  8
FORM
  5
13FA
 10
12.4466
 20
2.12969
 30
0.000000
  70
    32
  0
VERTEX
  8
FORM
  5
13FB
 10
12.4474
 20
2.12968
 30
0.000000
  70
    32
  0
VERTEX
  8
FORM
  5
13FC
 10
12.4482
 20
2.12974
 30
0.000000
  70
    32
  0
VERTEX
  8
FORM
  5
13FD
 10
12.4490
 20
2.12989
 30
0.000000
  70
    32
  0
VERTEX
  8
FORM
  5
13FE
 10
12.4498
 20
2.13012
 30
0.000000
  70
    32
  0
VERTEX
  8
FORM
  5
13FF
 10
12.4507
 20
2.13042
 30
0.000000
  70
    32
  0
VERTEX
  8
FORM
  5
1400
 10
12.4516
 20
2.13080
 30
0.000000
  70
    32
  0
VERTEX
  8
FORM
  5
1401
 10
12.4525
 20
2.13126
 30
0.000000
  70
    32
  0
VERTEX
  8
FORM
  5
1402
 10
12.4534
 20
2.13180
 30
0.000000
  70
    32
  0
VERTEX
  8
FORM
  5
1403
 10
12.4543
 20
2.13241
 30
0.000000
  70
    32
  0
VERTEX
  8
FORM
  5
1404
 10
12.4553
 20
2.13309
 30
0.000000
  70
    32
  0
VERTEX
  8
FORM
  5
1405
 10
12.4562
 20
2.13384
 30
0.000000
  70
    32
  0
VERTEX
  8
FORM
  5
1406
 10
12.4572
 20
2.13466
 30
0.000000
  70
    32
  0
VERTEX
  8
FORM
  5
1407
 10
12.4581
 20
2.13555
 30
0.000000
  70
    32
  0
VERTEX
  8
FORM
  5
1408
 10
12.4591
 20
2.13651
 30
0.000000
  70
    32
  0
VERTEX
  8
FORM
  5
1409
 10
12.4600
 20
2.13752
 30
0.000000
  70
    32
  0
VERTEX
  8
FORM
  5
140A
 10
12.4610
 20
2.13860
 30
0.000000
  70
    32
  0
VERTEX
  8
FORM
  5
140B
 10
12.4619
 20
2.13974
 30
0.000000
  70
    32
  0
VERTEX
  8
FORM
  5
140C
 10
12.4629
 20
2.14093
 30
0.000000
  70
    32
  0
VERTEX
  8
FORM
  5
140D
 10
12.4638
 20
2.14217
 30
0.000000
  70
    32
  0
VERTEX
  8
FORM
  5
140E
 10
12.4647
 20
2.14347
 30
0.000000
  70
    32
  0
VERTEX
  8
FORM
  5
140F
 10
12.4656
 20
2.14481
 30
0.000000
  70
    32
  0
VERTEX
  8
FORM
  5
1410
 10
12.4665
 20
2.14619
 30
0.000000
  70
    32
  0
VERTEX
  8
FORM
  5
1411
 10
12.4674
 20
2.14761
 30
0.000000
  70
    32
  0
VERTEX
  8
FORM
  5
1412
 10
12.4682
 20
2.14907
 30
0.000000
  70
    32
  0
VERTEX
  8
FORM
  5
1413
 10
12.4691
 20
2.15056
 30
0.000000
  70
    32
  0
VERTEX
  8
FORM
  5
1414
 10
12.4699
 20
2.15208
 30
0.000000
  70
    32
  0
VERTEX
  8
FORM
  5
1415
 10
12.4706
 20
2.15362
 30
0.000000
  70
    32
  0
VERTEX
  8
FORM
  5
1416
 10
12.4714
 20
2.15519
 30
0.000000
  70
    32
  0
VERTEX
  8
FORM
  5
1417
 10
12.4721
 20
2.15677
 30
0.000000
  70
    32
  0
VERTEX
  8
FORM
  5
1418
 10
12.4728
 20
2.15837
 30
0.000000
  70
    32
  0
VERTEX
  8
FORM
  5
1419
 10
12.4734
 20
2.15998
 30
0.000000
  70
    32
  0
VERTEX
  8
FORM
  5
141A
 10
12.4741
 20
2.16160
 30
0.000000
  70
    32
  0
VERTEX
  8
FORM
  5
141B
 10
12.4746
 20
2.16322
 30
0.000000
  70
    32
  0
VERTEX
  8
FORM
  5
141C
 10
12.4752
 20
2.16483
 30
0.000000
  70
    32
  0
VERTEX
  8
FORM
  5
141D
 10
12.4757
 20
2.16644
 30
0.000000
  70
    32
  0
VERTEX
  8
FORM
  5
141E
 10
12.4761
 20
2.16805
 30
0.000000
  70
    32
  0
VERTEX
  8
FORM
  5
141F
 10
12.4765
 20
2.16964
 30
0.000000
  70
    32
  0
VERTEX
  8
FORM
  5
1420
 10
12.4769
 20
2.17121
 30
0.000000
  70
    32
  0
VERTEX
  8
FORM
  5
1421
 10
12.4772
 20
2.17276
 30
0.000000
  70
    32
  0
VERTEX
  8
FORM
  5
1422
 10
12.4775
 20
2.17429
 30
0.000000
  70
    32
  0
VERTEX
  8
FORM
  5
1423
 10
12.4778
 20
2.17579
 30
0.000000
  70
    32
  0
VERTEX
  8
FORM
  5
1424
 10
12.4780
 20
2.17725
 30
0.000000
  70
    32
  0
VERTEX
  8
FORM
  5
1425
 10
12.4781
 20
2.17869
 30
0.000000
  70
    32
  0
VERTEX
  8
FORM
  5
1426
 10
12.4782
 20
2.18008
 30
0.000000
  70
    32
  0
VERTEX
  8
FORM
  5
1427
 10
12.4783
 20
2.18143
 30
0.000000
  70
    32
  0
VERTEX
  8
FORM
  5
1428
 10
12.4783
 20
2.18274
 30
0.000000
  70
    32
  0
VERTEX
  8
FORM
  5
1429
 10
12.4782
 20
2.18400
 30
0.000000
  70
    32
  0
VERTEX
  8
FORM
  5
142A
 10
12.4782
 20
2.18520
 30
0.000000
  70
    32
  0
VERTEX
  8
FORM
  5
142B
 10
12.4780
 20
2.18636
 30
0.000000
  70
    32
  0
VERTEX
  8
FORM
  5
142C
 10
12.4778
 20
2.18745
 30
0.000000
  70
    32
  0
VERTEX
  8
FORM
  5
142D
 10
12.4776
 20
2.18849
 30
0.000000
  70
    32
  0
VERTEX
  8
FORM
  5
142E
 10
12.4773
 20
2.18946
 30
0.000000
  70
    32
  0
VERTEX
  8
FORM
  5
142F
 10
12.4770
 20
2.19037
 30
0.000000
  70
    32
  0
VERTEX
  8
FORM
  5
1430
 10
12.4767
 20
2.19121
 30
0.000000
  70
    32
  0
VERTEX
  8
FORM
  5
1431
 10
12.4763
 20
2.19198
 30
0.000000
  70
    32
  0
VERTEX
  8
FORM
  5
1432
 10
12.4758
 20
2.19268
 30
0.000000
  70
    32
  0
VERTEX
  8
FORM
  5
1433
 10
12.4753
 20
2.19331
 30
0.000000
  70
    32
  0
VERTEX
  8
FORM
  5
1434
 10
12.4748
 20
2.19387
 30
0.000000
  70
    32
  0
VERTEX
  8
FORM
  5
1435
 10
12.4742
 20
2.19435
 30
0.000000
  70
    32
  0
VERTEX
  8
FORM
  5
1436
 10
12.4736
 20
2.19475
 30
0.000000
  70
    32
  0
VERTEX
  8
FORM
  5
1437
 10
12.4730
 20
2.19508
 30
0.000000
  70
    32
  0
SEQEND
  8
FORM
  5
1438
  0
ARC
  5
1112
  8
FORM
 62
     7
 10
12.50481959390622
 20
2.0770084202294989
 30
0.0
 40
0.1587806157308369
 50
85.485448269952457
 51
155.5006785655419
  0
TEXT
  5
1113
  8
FORM
 62
     7
 10
11.94614501228747
 20
1.246696440714921
 30
0.0
 40
0.0622030768816995
  1
R2-D2 BUILDERS CLUB
  0
ARC
  5
1114
  8
FORM
 10
0.5414999997598901
 20
0.5414999997598695
 30
0.0
 40
0.1110769230030347
 50
180.0
 51
270.0
  0
ARC
  5
1115
  8
FORM
 10
0.5414999997598901
 20
0.5414999997598695
 30
0.0
 40
0.2221538460060694
 50
180.0
 51
270.0
  0
ARC
  5
1116
  8
FORM
 10
0.5414999997598901
 20
0.5414999997598695
 30
0.0
 40
0.2499230767568281
 50
180.0
 51
270.0
  0
ARC
  5
1117
  8
FORM
 10
0.5414999997598901
 20
0.5414999997598695
 30
0.0
 40
0.3609999997598627
 50
180.0
 51
270.0
  0
ARC
  5
1118
  8
FORM
 10
0.5414999997598901
 20
10.94107691603906
 30
0.0
 40
0.3609999997598627
 50
90.0
 51
180.0
  0
ARC
  5
1119
  8
FORM
 10
0.5414999997598901
 20
10.94107691603906
 30
0.0
 40
0.2499230767568281
 50
90.0
 51
180.0
  0
ARC
  5
111A
  8
FORM
 10
0.5414999997598901
 20
10.94107691603906
 30
0.0
 40
0.2221538460060694
 50
90.0
 51
180.0
  0
ARC
  5
111B
  8
FORM
 10
0.5414999997598901
 20
10.94107691603906
 30
0.0
 40
0.1110769230030347
 50
90.0
 51
180.0
  0
ARC
  5
111C
  8
FORM
 10
15.342499990154391
 20
10.94107691603906
 30
0.0
 40
0.2221538460060694
 50
0.0
 51
90.0
  0
ARC
  5
111D
  8
FORM
 10
15.342499990154391
 20
10.94107691603906
 30
0.0
 40
0.2499230767568281
 50
0.0
 51
90.0
  0
ARC
  5
111E
  8
FORM
 10
15.342499990154391
 20
10.94107691603906
 30
0.0
 40
0.3609999997598627
 50
0.0
 51
90.0
  0
ARC
  5
111F
  8
FORM
 10
15.342499990154391
 20
10.94107691603906
 30
0.0
 40
0.1110769230030347
 50
0.0
 51
90.0
  0
ARC
  5
1120
  8
FORM
 10
15.342499990154391
 20
0.5414999997598695
 30
0.0
 40
0.3609999997598627
 50
270.0
 51
0.0
  0
ARC
  5
1121
  8
FORM
 10
15.342499990154391
 20
0.5414999997598695
 30
0.0
 40
0.2499230767568281
 50
270.0
 51
0.0
  0
ARC
  5
1122
  8
FORM
 10
15.342499990154391
 20
0.5414999997598695
 30
0.0
 40
0.2221538460060694
 50
270.0
 51
0.0
  0
ARC
  5
1123
  8
FORM
 10
15.342499990154391
 20
0.5414999997598695
 30
0.0
 40
0.1110769230030347
 50
270.0
 51
0.0
  0
LINE
  5
1124
  8
FORM
 10
15.342499990154391
 20
0.3193461537538074
 30
0.0
 11
0.5414999997598901
 21
0.3193461537537997
 31
0.0
  0
LINE
  5
1125
  8
FORM
 10
15.342499990154391
 20
0.2915769230030489
 30
0.0
 11
0.5414999997598901
 21
0.2915769230030413
 31
0.0
  0
LINE
  5
1126
  8
FORM
 10
15.342499990154391
 20
0.1805000000000052
 30
0.0
 11
0.5414999997598901
 21
0.1805
 31
0.0
  0
LINE
  5
1127
  8
FORM
 10
15.564653836160479
 20
0.5414999997598695
 30
0.0
 11
15.564653836160479
 21
10.94107691603906
 31
0.0
  0
LINE
  5
1128
  8
FORM
 10
15.592423066911239
 20
0.5414999997598695
 30
0.0
 11
15.592423066911239
 21
10.94107691603906
 31
0.0
  0
LINE
  5
1129
  8
FORM
 10
15.70349998991426
 20
0.5414999997598695
 30
0.0
 11
15.70349998991426
 21
10.94107691603906
 31
0.0
  0
LINE
  5
112A
  8
FORM
 10
15.342499990154391
 20
11.16323076204514
 30
0.0
 11
0.5414999997598901
 21
11.16323076204514
 31
0.0
  0
LINE
  5
112B
  8
FORM
 10
15.342499990154391
 20
11.1909999927959
 30
0.0
 11
0.5414999997598901
 21
11.1909999927959
 31
0.0
  0
LINE
  5
112C
  8
FORM
 10
15.342499990154391
 20
11.30207691579893
 30
0.0
 11
0.5414999997598901
 21
11.30207691579893
 31
0.0
  0
LINE
  5
112D
  8
FORM
 10
0.3193461537538176
 20
0.5414999997598695
 30
0.0
 11
0.3193461537538176
 21
10.94107691603906
 31
0.0
  0
LINE
  5
112E
  8
FORM
 10
0.2915769230030644
 20
0.5414999997598695
 30
0.0
 11
0.2915769230030644
 21
10.94107691603906
 31
0.0
  0
LINE
  5
112F
  8
FORM
 10
0.1805000000000001
 20
0.5414999997598695
 30
0.0
 11
0.1805000000000308
 21
10.94107691603906
 31
0.0
  0
LINE
  5
1130
  8
FORM
  6
CONTINUOUS
 10
12.059747880799639
 20
0.5414999997598695
 30
0.0
 11
15.179987509493261
 21
0.5414999997598695
 31
0.0
  0
LINE
  5
1131
  8
FORM
  6
CONTINUOUS
 10
15.342499990154391
 20
2.264132294767812
 30
0.0
 11
15.342499990154391
 21
0.704012480420994
 31
0.0
  0
ARC
  5
1132
  8
FORM
  6
CONTINUOUS
 10
15.179987509493261
 20
0.704012480420994
 30
0.0
 40
0.1625124806611265
 50
270.0
 51
0.0
  0
ARC
  5
1133
  8
FORM
  6
CONTINUOUS
 10
15.179987509493261
 20
2.264132294767812
 30
0.0
 40
0.1625124806611265
 50
359.99999999999989
 51
90.0
  0
ARC
  5
1134
  8
FORM
  6
CONTINUOUS
 10
12.059747880799639
 20
0.704012480420994
 30
0.0
 40
0.1625124806611265
 50
180.0
 51
270.0
  0
ARC
  5
1135
  8
FORM
  6
CONTINUOUS
 10
12.059747880799639
 20
2.264132294767812
 30
0.0
 40
0.1625124806611265
 50
90.0
 51
180.0
  0
LINE
  5
127A
  8
0
 10
0.5414999997598901
 20
0.5414999997598695
 30
0.0
 11
0.5414999997598901
 21
1.5414999997598691
 31
0.0
  0
LINE
  5
127B
  8
0
 10
0.5414999997598901
 20
0.6664999997598695
 30
0.0
 11
0.6664999997598901
 21
0.6664999997598695
 31
0.0
  0
LINE
  5
127C
  8
0
 10
0.5414999997598901
 20
0.7914999997598695
 30
0.0
 11
0.7914999997598901
 21
0.7914999997598695
 31
0.0
  0
LINE
  5
127D
  8
0
 10
0.5414999997598901
 20
0.9164999997598693
 30
0.0
 11
0.6664999997598901
 21
0.9164999997598693
 31
0.0
  0
LINE
  5
127E
  8
0
 10
0.5414999997598901
 20
1.0414999997598691
 30
0.0
 11
0.9164999997598899
 21
1.0414999997598691
 31
0.0
  0
LINE
  5
127F
  8
0
 10
0.5414999997598901
 20
1.1664999997598691
 30
0.0
 11
0.6664999997598901
 21
1.1664999997598691
 31
0.0
  0
LINE
  5
1280
  8
0
 10
0.5414999997598901
 20
1.2914999997598691
 30
0.0
 11
0.7914999997598901
 21
1.2914999997598691
 31
0.0
  0
LINE
  5
1281
  8
0
 10
0.5414999997598901
 20
1.4164999997598691
 30
0.0
 11
0.6664999997598901
 21
1.4164999997598691
 31
0.0
  0
LINE
  5
1282
  8
0
 10
0.5414999997598901
 20
1.5414999997598691
 30
0.0
 11
0.9164999997598899
 21
1.5414999997598691
 31
0.0
  0
LINE
  5
1283
  8
0
 10
0.5414999997598901
 20
0.5414999997598695
 30
0.0
 11
0.9164999997598899
 21
0.5414999997598695
 31
0.0
  0
TEXT
  5
1284
  8
0
 10
0.9657687733863271
 20
1.0084594387593859
 30
0.0
 40
0.0625
  1
1/2"
  0
TEXT
  5
1285
  8
0
 10
0.7157687733863272
 20
0.8834594387593862
 30
0.0
 40
0.0625
  1
3/8"
  0
TEXT
  5
1286
  8
0
 10
0.8407687733863271
 20
0.7584594387593863
 30
0.0
 40
0.0625
  1
1/4"
  0
TEXT
  5
1287
  8
0
 10
0.7157687733863272
 20
0.6334594387593863
 30
0.0
 40
0.0625
  1
1/8"
  0
TEXT
  5
1288
  8
0
 10
0.7157687733863272
 20
1.1334594387593859
 30
0.0
 40
0.0625
  1
5/8"
  0
TEXT
  5
1289
  8
0
 10
0.8407687733863271
 20
1.2584594387593859
 30
0.0
 40
0.0625
  1
3/4"
  0
TEXT
  5
128A
  8
0
 10
0.7157687733863272
 20
1.3834594387593859
 30
0.0
 40
0.0625
  1
7/8"
  0
TEXT
  5
128B
  8
0
 10
0.9657687733863271
 20
1.5084594387593859
 30
0.0
 40
0.0625
  1
1"
  0
TEXT
  5
12BE
  8
FORM
 10
13.08806282298189
 20
2.1132625388605271
 30
0.0
 40
0.16
  1
POWER COUPLING
 72
     1
 11
14.131872346791409
 21
2.1132625388605271
 31
0.0
  0
LINE
  5
12BF
  8
0
 10
4.9510290578044156
 20
8.8712288959154844
 30
0.0
 11
4.1169998903036849
 21
8.8712288959154844
 31
0.0
  0
LINE
  5
12C0
  8
0
 10
4.1169998903036849
 20
8.0371997284147412
 30
0.0
 11
4.1169998903036849
 21
8.8712288959154844
 31
0.0
  0
ARC
  5
12C1
  8
BODY_-_POWER_COUPLING
 10
10.38812451952108
 20
4.3914915318897361
 30
0.0
 40
0.75
 50
120.0000000000001
 51
149.9999999999998
  0
ARC
  5
12C2
  8
BODY_-_POWER_COUPLING
 10
10.38812451952108
 20
4.3914915318897361
 30
0.0
 40
1.1875
 50
108.4084801705859
 51
161.59151982941401
  0
ARC
  5
12C3
  8
BODY_-_POWER_COUPLING
 10
5.460999890303694
 20
7.5272288959154858
 30
0.0
 40
1.4375
 50
110.7788781229201
 51
159.22112187708069
  0
LINE
  5
12C4
  8
BODY_-_POWER_COUPLING
 10
9.7386054666827526
 20
4.766491531889737
 30
0.0
 11
9.2613897459385832
 21
4.766491531889737
 31
0.0
  0
LINE
  5
12C5
  8
BODY_-_POWER_COUPLING
 10
10.01312451952108
 20
5.0410105847280651
 30
0.0
 11
10.01312451952108
 21
5.5182263054722318
 31
0.0
  0
LINE
  5
12E2
  8
DIMENSIONS
 10
5.460999890303694
 20
7.5272288959154858
 30
0.0
 11
6.2518573586275856
 21
7.5272288959154858
 31
0.0
  0
LINE
  5
12E3
  8
DIMENSIONS
 10
5.0135290578044183
 20
8.8712288959154844
 30
0.0
 11
6.2518573586275856
 21
8.8712288959154844
 31
0.0
  0
LINE
  5
12E4
  8
DIMENSIONS
 10
6.1893573586275856
 20
7.7772288959154858
 30
0.0
 11
6.1893573586275856
 21
8.0117288959154855
 31
0.0
  0
LINE
  5
12E5
  8
DIMENSIONS
 10
6.1893573586275856
 20
8.6212288959154844
 30
0.0
 11
6.1893573586275856
 21
8.3867288959154855
 31
0.0
  0
SOLID
  5
12E6
  8
DIMENSIONS
 10
6.1476906919609204
 20
7.7772288959154858
 30
0.0
 11
6.2310240252942517
 21
7.7772288959154858
 31
0.0
 12
6.1893573586275856
 22
7.5272288959154858
 32
0.0
 13
6.1893573586275856
 23
7.5272288959154858
 33
0.0
  0
SOLID
  5
12E7
  8
DIMENSIONS
 10
6.1476906919609204
 20
8.6212288959154844
 30
0.0
 11
6.2310240252942517
 21
8.6212288959154844
 31
0.0
 12
6.1893573586275856
 22
8.8712288959154844
 32
0.0
 13
6.1893573586275856
 23
8.8712288959154844
 33
0.0
  0
LINE
  5
12E9
  8
DIMENSIONS
 10
5.460999890303694
 20
7.5272288959154858
 30
0.0
 11
5.460999890303694
 21
6.8310454090792776
 31
0.0
  0
LINE
  5
12EA
  8
DIMENSIONS
 10
4.1169998903036866
 20
7.9746997284147412
 30
0.0
 11
4.1169998903036866
 21
6.8310454090792776
 31
0.0
  0
LINE
  5
12EB
  8
DIMENSIONS
 10
5.710999890303694
 20
6.8935454090792776
 30
0.0
 11
5.960999890303694
 21
6.8935454090792776
 31
0.0
  0
LINE
  5
12EC
  8
DIMENSIONS
 10
3.8669998903036871
 20
6.8935454090792776
 30
0.0
 11
3.6169998903036871
 21
6.8935454090792776
 31
0.0
  0
SOLID
  5
12ED
  8
DIMENSIONS
 10
5.710999890303694
 20
6.9352120757459437
 30
0.0
 11
5.710999890303694
 21
6.8518787424126124
 31
0.0
 12
5.460999890303694
 22
6.8935454090792776
 32
0.0
 13
5.460999890303694
 23
6.8935454090792776
 33
0.0
  0
SOLID
  5
12EE
  8
DIMENSIONS
 10
3.8669998903036871
 20
6.9352120757459437
 30
0.0
 11
3.8669998903036871
 21
6.8518787424126124
 31
0.0
 12
4.1169998903036866
 22
6.8935454090792776
 32
0.0
 13
4.1169998903036866
 23
6.8935454090792776
 33
0.0
  0
TEXT
  5
12F0
  8
DIMENSIONS
 10
5.7072145014847271
 20
8.0742288959154873
 30
0.0
 40
0.25
  1
1.344
  0
TEXT
  5
12F1
  8
DIMENSIONS
 10
4.3068570331608322
 20
6.7685454090792776
 30
0.0
 40
0.25
  1
1.344
  0
LINE
  5
12FC
  8
DIMENSIONS
 10
5.4609998903036994
 20
7.5272288959154929
 30
0.0
 11
5.2449498088225219
 21
7.6751309932500771
 31
0.0
  0
LINE
  5
12FD
  8
DIMENSIONS
 10
4.481113171129361
 20
8.1980330905846657
 30
0.0
 11
4.697163252610542
 21
8.0501309932500771
 31
0.0
  0
SOLID
  5
12FE
  8
DIMENSIONS
 10
4.5046501604159994
 20
8.2324150807311334
 30
0.0
 11
4.4575761818427244
 21
8.1636511004381962
 31
0.0
 12
4.2748212302505531
 22
8.3392550263044907
 32
0.0
 13
4.2748212302505531
 23
8.3392550263044907
 33
0.0
  0
TEXT
  5
1300
  8
DIMENSIONS
 10
4.3698660545260548
 20
7.7376309932500771
 30
0.0
 40
0.25
  1
R1.438
  0
LINE
  5
1301
  8
BODY_-_POWER_COUPLING
 10
2.6369752671219788
 20
8.8712288959154861
 30
0.0
 11
2.596975267121981
 21
8.8712288959154861
 31
0.0
  0
LINE
  5
1302
  8
BODY_-_POWER_COUPLING
 10
2.6369752671219802
 20
8.0371997284147394
 30
0.0
 11
2.596975267121981
 21
8.0371997284147394
 31
0.0
  0
LINE
  5
1303
  8
BODY_-_POWER_COUPLING
 10
2.6369752671219802
 20
8.8712288959154844
 30
0.0
 11
2.6369752671219802
 21
8.0371997284147394
 31
0.0
  0
LINE
  5
1304
  8
BODY_-_POWER_COUPLING
 10
2.596975267121981
 20
8.8712288959154844
 30
0.0
 11
2.596975267121981
 21
8.0371997284147394
 31
0.0
  0
LINE
  5
1313
  8
DIMENSIONS
 10
2.6369752671219802
 20
7.9746997284147394
 30
0.0
 11
2.6369752671219802
 21
6.8310454090792776
 31
0.0
  0
LINE
  5
1314
  8
DIMENSIONS
 10
2.596975267121981
 20
7.9746997284147394
 30
0.0
 11
2.596975267121981
 21
6.8310454090792776
 31
0.0
  0
LINE
  5
1315
  8
DIMENSIONS
 10
2.8869752671219802
 20
6.8935454090792776
 30
0.0
 11
3.1369752671219802
 21
6.8935454090792776
 31
0.0
  0
LINE
  5
1316
  8
DIMENSIONS
 10
2.346975267121981
 20
6.8935454090792776
 30
0.0
 11
2.096975267121981
 21
6.8935454090792776
 31
0.0
  0
SOLID
  5
1317
  8
DIMENSIONS
 10
2.8869752671219802
 20
6.9352120757459437
 30
0.0
 11
2.8869752671219802
 21
6.8518787424126124
 31
0.0
 12
2.6369752671219802
 22
6.8935454090792776
 32
0.0
 13
2.6369752671219802
 23
6.8935454090792776
 33
0.0
  0
SOLID
  5
1318
  8
DIMENSIONS
 10
2.346975267121981
 20
6.9352120757459437
 30
0.0
 11
2.346975267121981
 21
6.8518787424126124
 31
0.0
 12
2.596975267121981
 22
6.8935454090792776
 32
0.0
 13
2.596975267121981
 23
6.8935454090792776
 33
0.0
  0
TEXT
  5
131A
  8
DIMENSIONS
 10
1.034475267121981
 20
6.7685454090792776
 30
0.0
 40
0.25
  1
0.040
  0
LINE
  5
1338
  8
DIMENSIONS
 10
10.01312451952108
 20
5.5807263054722318
 30
0.0
 11
10.01312451952108
 21
6.1614971763381279
 31
0.0
  0
LINE
  5
1339
  8
DIMENSIONS
 10
10.38812451952108
 20
4.3914915318897361
 30
0.0
 11
10.38812451952108
 21
6.1614971763381279
 31
0.0
  0
LINE
  5
133A
  8
DIMENSIONS
 10
9.7631245195210816
 20
6.0989971763381279
 30
0.0
 11
9.5131245195210816
 21
6.0989971763381279
 31
0.0
  0
LINE
  5
133B
  8
DIMENSIONS
 10
10.63812451952108
 20
6.0989971763381279
 30
0.0
 11
10.88812451952108
 21
6.0989971763381279
 31
0.0
  0
SOLID
  5
133C
  8
DIMENSIONS
 10
9.7631245195210816
 20
6.140663843004794
 30
0.0
 11
9.7631245195210816
 21
6.0573305096714618
 31
0.0
 12
10.01312451952108
 22
6.0989971763381279
 32
0.0
 13
10.01312451952108
 23
6.0989971763381279
 33
0.0
  0
SOLID
  5
133D
  8
DIMENSIONS
 10
10.63812451952108
 20
6.140663843004794
 30
0.0
 11
10.63812451952108
 21
6.0573305096714618
 31
0.0
 12
10.38812451952108
 22
6.0989971763381279
 32
0.0
 13
10.38812451952108
 23
6.0989971763381279
 33
0.0
  0
LINE
  5
133F
  8
DIMENSIONS
 10
10.38812451952108
 20
4.3914915318897361
 30
0.0
 11
8.3373141776260944
 21
4.3914915318897361
 31
0.0
  0
LINE
  5
1340
  8
DIMENSIONS
 10
9.1988897459385832
 20
4.766491531889737
 30
0.0
 11
8.3373141776260944
 21
4.766491531889737
 31
0.0
  0
LINE
  5
1341
  8
DIMENSIONS
 10
8.3998141776260944
 20
4.1414915318897361
 30
0.0
 11
8.3998141776260944
 21
3.8914915318897361
 31
0.0
  0
LINE
  5
1342
  8
DIMENSIONS
 10
8.3998141776260944
 20
5.016491531889737
 30
0.0
 11
8.3998141776260944
 21
5.266491531889737
 31
0.0
  0
SOLID
  5
1343
  8
DIMENSIONS
 10
8.3581475109594301
 20
4.1414915318897361
 30
0.0
 11
8.4414808442927622
 21
4.1414915318897361
 31
0.0
 12
8.3998141776260944
 22
4.3914915318897361
 32
0.0
 13
8.3998141776260944
 23
4.3914915318897361
 33
0.0
  0
SOLID
  5
1344
  8
DIMENSIONS
 10
8.3581475109594301
 20
5.016491531889737
 30
0.0
 11
8.4414808442927622
 21
5.016491531889737
 31
0.0
 12
8.3998141776260944
 22
4.766491531889737
 32
0.0
 13
8.3998141776260944
 23
4.766491531889737
 33
0.0
  0
TEXT
  5
1346
  8
DIMENSIONS
 10
10.95062451952108
 20
5.9739971763381279
 30
0.0
 40
0.25
  1
0.375
  0
TEXT
  5
1347
  8
DIMENSIONS
 10
7.8998141776260944
 20
4.453991531889737
 30
0.0
 40
0.25
  1
0.375
  0
LINE
  5
135C
  8
DIMENSIONS
 10
9.3397356513918162
 20
5.3749990464429489
 30
0.0
 11
8.8028030086543154
 21
5.8854825389288949
 31
0.0
  0
LINE
  5
135D
  8
DIMENSIONS
 10
8.8028030086543154
 20
5.8854825389288949
 30
0.0
 11
8.5528030086543154
 21
5.8854825389288949
 31
0.0
  0
SOLID
  5
135E
  8
DIMENSIONS
 10
9.3682431155817625
 20
5.4053871295771296
 30
0.0
 11
9.3112281872018663
 21
5.3446109633087646
 31
0.0
 12
9.5220641501969077
 22
5.2039542613032639
 32
0.0
 13
9.5220641501969077
 23
5.2039542613032639
 33
0.0
  0
LINE
  5
1360
  8
DIMENSIONS
 10
11.13204318515286
 20
3.9295410588797668
 30
0.0
 11
10.88204318515286
 21
3.929541058879769
 31
0.0
  0
LINE
  5
1361
  8
DIMENSIONS
 10
10.88204318515286
 20
3.929541058879769
 30
0.0
 11
10.022951018197251
 21
4.7330296907108158
 31
0.0
  0
SOLID
  5
1363
  8
DIMENSIONS
 10
10.051412531432341
 20
4.763460815821138
 30
0.0
 11
9.9944895049621572
 21
4.702598565600498
 31
0.0
 12
9.8403642675353389
 22
4.9037987701213597
 32
0.0
 13
9.8403642675353389
 23
4.9037987701213597
 33
0.0
  0
TEXT
  5
1364
  8
DIMENSIONS
 10
7.335541103892413
 20
5.7604825389288949
 30
0.0
 40
0.25
  1
R1.187
  0
TEXT
  5
1365
  8
DIMENSIONS
 10
11.19454318515286
 20
3.804541058879769
 30
0.0
 40
0.25
  1
R0.750
  0
LINE
  5
1366
  8
BODY_-_POWER_COUPLING
 10
12.82388786315367
 20
5.5182263054722336
 30
0.0
 11
12.863887863153669
 21
5.5182263054722318
 31
0.0
  0
LINE
  5
1367
  8
BODY_-_POWER_COUPLING
 10
12.82388786315367
 20
4.766491531889737
 30
0.0
 11
12.863887863153669
 21
4.766491531889737
 31
0.0
  0
LINE
  5
1368
  8
BODY_-_POWER_COUPLING
 10
12.82388786315366
 20
5.5182263054722318
 30
0.0
 11
12.82388786315367
 21
4.766491531889737
 31
0.0
  0
LINE
  5
1369
  8
BODY_-_POWER_COUPLING
 10
12.863887863153661
 20
5.5182263054722318
 30
0.0
 11
12.863887863153669
 21
4.766491531889737
 31
0.0
  0
LINE
  5
1378
  8
DIMENSIONS
 10
12.82388786315366
 20
5.5807263054722336
 30
0.0
 11
12.82388786315366
 21
6.1614971763381279
 31
0.0
  0
LINE
  5
1379
  8
DIMENSIONS
 10
12.863887863153669
 20
5.5807263054722318
 30
0.0
 11
12.863887863153669
 21
6.1614971763381279
 31
0.0
  0
LINE
  5
137A
  8
DIMENSIONS
 10
12.57388786315366
 20
6.0989971763381279
 30
0.0
 11
12.32388786315366
 21
6.0989971763381279
 31
0.0
  0
LINE
  5
137B
  8
DIMENSIONS
 10
13.113887863153669
 20
6.0989971763381279
 30
0.0
 11
13.363887863153669
 21
6.0989971763381279
 31
0.0
  0
SOLID
  5
137C
  8
DIMENSIONS
 10
12.57388786315366
 20
6.140663843004794
 30
0.0
 11
12.57388786315366
 21
6.0573305096714618
 31
0.0
 12
12.82388786315366
 22
6.0989971763381279
 32
0.0
 13
12.82388786315366
 23
6.0989971763381279
 33
0.0
  0
SOLID
  5
137D
  8
DIMENSIONS
 10
13.113887863153669
 20
6.140663843004794
 30
0.0
 11
13.113887863153669
 21
6.0573305096714618
 31
0.0
 12
12.863887863153669
 22
6.0989971763381279
 32
0.0
 13
12.863887863153669
 23
6.0989971763381279
 33
0.0
  0
TEXT
  5
137F
  8
DIMENSIONS
 10
13.426387863153669
 20
5.9739971763381279
 30
0.0
 40
0.25
  1
0.040
  0
TEXT
  5
1380
  8
DIMENSIONS
 10
9.7168875180549641
 20
7.3934104507971341
 30
0.0
 40
0.3125
  1
OUTER SURFACE
 72
     1
 11
11.63653037519782
 21
7.3934104507971341
 31
0.0
  0
TEXT
  5
1381
  8
DIMENSIONS
 10
11.07849466091211
 20
6.8576961650828476
 30
0.0
 40
0.3125
  1
TABS
 72
     1
 11
11.63653037519782
 21
6.8576961650828476
 31
0.0
  0
TEXT
  5
1382
  8
DIMENSIONS
 10
1.7403195543357191
 20
5.5548434313137038
 30
0.0
 40
0.3125
  1
INNER SURFACE
 72
     1
 11
3.585557649573814
 21
5.5548434313137038
 31
0.0
  0
TEXT
  5
1383
  8
DIMENSIONS
 10
3.0275219352881
 20
5.0191291455994191
 30
0.0
 40
0.3125
  1
TABS
 72
     1
 11
3.585557649573814
 21
5.0191291455994191
 31
0.0
  0
LINE
  5
1384
  8
DIMENSIONS
 10
1.7052318096682191
 20
5.4623378264303346
 30
0.0
 11
5.4394000821538242
 21
5.4623378264303346
 31
0.0
  0
LINE
  5
1385
  8
DIMENSIONS
 10
9.6767541391026271
 20
7.2875982565952517
 30
0.0
 11
13.56982329107389
 21
7.2875982565952517
 31
0.0
  0
ENDSEC
  0
EOF
