  0
SECTION
  2
HEADER
  9
$ACADVER
  1
AC1009
  9
$INSBASE
 10
0.0
 20
0.0
 30
0.0
  9
$EXTMIN
 10
0.0
 20
0.0
 30
0.0
  9
$EXTMAX
 10
22.0
 20
17.0
 30
0.0
  9
$LIMMIN
 10
0.0
 20
0.0
  9
$LIMMAX
 10
12.0
 20
9.0
  9
$ORTHOMODE
 70
     1
  9
$REGENMODE
 70
     1
  9
$FILLMODE
 70
     1
  9
$QTEXTMODE
 70
     0
  9
$MIRRTEXT
 70
     1
  9
$DRAGMODE
 70
     2
  9
$LTSCALE
 40
1.0
  9
$OSMODE
 70
    39
  9
$ATTMODE
 70
     1
  9
$TEXTSIZE
 40
0.375
  9
$TRACEWID
 40
0.05
  9
$TEXTSTYLE
  7
STANDARD
  9
$CLAYER
  8
0
  9
$CELTYPE
  6
BYLAYER
  9
$CECOLOR
 62
   256
  9
$DIMSCALE
 40
1.0
  9
$DIMASZ
 40
0.25
  9
$DIMEXO
 40
0.0625
  9
$DIMDLI
 40
1.0
  9
$DIMRND
 40
0.0
  9
$DIMDLE
 40
0.0
  9
$DIMEXE
 40
0.0625
  9
$DIMTP
 40
0.0
  9
$DIMTM
 40
0.0
  9
$DIMTXT
 40
0.25
  9
$DIMCEN
 40
0.0
  9
$DIMTSZ
 40
0.0
  9
$DIMTOL
 70
     0
  9
$DIMLIM
 70
     0
  9
$DIMTIH
 70
     1
  9
$DIMTOH
 70
     1
  9
$DIMSE1
 70
     0
  9
$DIMSE2
 70
     0
  9
$DIMTAD
 70
     0
  9
$DIMZIN
 70
     0
  9
$DIMBLK
  1

  9
$DIMASO
 70
     1
  9
$DIMSHO
 70
     1
  9
$DIMPOST
  1

  9
$DIMAPOST
  1

  9
$DIMALT
 70
     0
  9
$DIMALTD
 70
     2
  9
$DIMALTF
 40
25.399999999999999
  9
$DIMLFAC
 40
1.0
  9
$DIMTOFL
 70
     0
  9
$DIMTVP
 40
0.0
  9
$DIMTIX
 70
     0
  9
$DIMSOXD
 70
     0
  9
$DIMSAH
 70
     0
  9
$DIMBLK1
  1

  9
$DIMBLK2
  1

  9
$DIMSTYLE
  2
STANDARD
  9
$DIMCLRD
 70
   256
  9
$DIMCLRE
 70
   256
  9
$DIMCLRT
 70
   256
  9
$DIMTFAC
 40
1.0
  9
$DIMGAP
 40
0.0625
  9
$LUNITS
 70
     2
  9
$LUPREC
 70
     8
  9
$SKETCHINC
 40
0.1
  9
$FILLETRAD
 40
0.0
  9
$AUNITS
 70
     0
  9
$AUPREC
 70
     8
  9
$MENU
  1
.
  9
$ELEVATION
 40
0.0
  9
$PELEVATION
 40
0.0
  9
$THICKNESS
 40
0.0
  9
$LIMCHECK
 70
     0
  9
$BLIPMODE
 70
     0
  9
$CHAMFERA
 40
0.0
  9
$CHAMFERB
 40
0.0
  9
$SKPOLY
 70
     0
  9
$TDCREATE
 40
2452227.898066666
  9
$TDUPDATE
 40
2453462.4895571531
  9
$TDINDWG
 40
2.2118397917000001
  9
$TDUSRTIMER
 40
2.2118392130000002
  9
$USRTIMER
 70
     1
  9
$ANGBASE
 50
0.0
  9
$ANGDIR
 70
     0
  9
$PDMODE
 70
     0
  9
$PDSIZE
 40
0.0
  9
$PLINEWID
 40
0.0
  9
$COORDS
 70
     0
  9
$SPLFRAME
 70
     0
  9
$SPLINETYPE
 70
     6
  9
$SPLINESEGS
 70
     8
  9
$ATTDIA
 70
     0
  9
$ATTREQ
 70
     1
  9
$HANDLING
 70
     1
  9
$HANDSEED
  5
1A14
  9
$SURFTAB1
 70
     6
  9
$SURFTAB2
 70
     6
  9
$SURFTYPE
 70
     6
  9
$SURFU
 70
     6
  9
$SURFV
 70
     6
  9
$UCSNAME
  2

  9
$UCSORG
 10
0.0
 20
0.0
 30
0.0
  9
$UCSXDIR
 10
1.0
 20
0.0
 30
0.0
  9
$UCSYDIR
 10
0.0
 20
1.0
 30
0.0
  9
$PUCSNAME
  2

  9
$PUCSORG
 10
0.0
 20
0.0
 30
0.0
  9
$PUCSXDIR
 10
1.0
 20
0.0
 30
0.0
  9
$PUCSYDIR
 10
0.0
 20
1.0
 30
0.0
  9
$USERI1
 70
     0
  9
$USERI2
 70
     0
  9
$USERI3
 70
     0
  9
$USERI4
 70
     0
  9
$USERI5
 70
     0
  9
$USERR1
 40
0.0
  9
$USERR2
 40
0.0
  9
$USERR3
 40
0.0
  9
$USERR4
 40
0.0
  9
$USERR5
 40
0.0
  9
$WORLDVIEW
 70
     1
  9
$SHADEDGE
 70
     3
  9
$SHADEDIF
 70
    70
  9
$TILEMODE
 70
     1
  9
$MAXACTVP
 70
    64
  9
$PLIMCHECK
 70
     0
  9
$PEXTMIN
 10
1.0000000000000000E+020
 20
1.0000000000000000E+020
 30
1.0000000000000000E+020
  9
$PEXTMAX
 10
-1.0000000000000000E+020
 20
-1.0000000000000000E+020
 30
-1.0000000000000000E+020
  9
$PLIMMIN
 10
0.0
 20
0.0
  9
$PLIMMAX
 10
12.0
 20
9.0
  9
$UNITMODE
 70
     0
  9
$VISRETAIN
 70
     1
  9
$PLINEGEN
 70
     0
  9
$PSLTSCALE
 70
     1
  0
ENDSEC
  0
SECTION
  2
TABLES
  0
TABLE
  2
VPORT
 70
     2
  0
VPORT
  2
*ACTIVE
 70
     0
 10
0.0
 20
0.0
 11
1.0
 21
1.0
 12
11.00034933963329
 22
8.5003626847428126
 13
0.0
 23
0.0
 14
0.5
 24
0.5
 15
0.5
 25
0.5
 16
0.0
 26
0.0
 36
1.0
 17
0.0
 27
0.0
 37
0.0
 40
17.220364892018999
 41
2.1727078891257992
 42
50.0
 43
0.0
 44
0.0
 50
0.0
 51
0.0
 71
     0
 72
 20000
 73
     1
 74
     2
 75
     0
 76
     0
 77
     0
 78
     1
  0
ENDTAB
  0
TABLE
  2
LTYPE
 70
     3
  0
LTYPE
  2
CONTINUOUS
 70
     0
  3
Solid line
 72
    65
 73
     0
 40
0.0
  0
LTYPE
  2
HIDDEN
 70
     0
  3
Hidden __ __ __ __ __ __ __ __ __ __ __ __ __ _
 72
    65
 73
     2
 40
0.375
 49
0.25
 49
-0.125
  0
LTYPE
  2
PHANTOM2
 70
     0
  3
Phantom (.5x) ___ _ _ ___ _ _ ___ _ _ ___ _ _
 72
    65
 73
     6
 40
1.25
 49
0.625
 49
-0.125
 49
0.125
 49
-0.125
 49
0.125
 49
-0.125
  0
ENDTAB
  0
TABLE
  2
LAYER
 70
     5
  0
LAYER
  2
0
 70
     0
 62
     7
  6
CONTINUOUS
  0
LAYER
  2
FORM
 70
     0
 62
     5
  6
CONTINUOUS
  0
LAYER
  2
DIMENSIONS
 70
     0
 62
     1
  6
CONTINUOUS
  0
LAYER
  2
BODY_-_COIN_RETURN_PANEL_-
 70
     0
 62
     7
  6
CONTINUOUS
  0
LAYER
  2
DEFPOINTS
 70
     0
 62
     7
  6
CONTINUOUS
  0
ENDTAB
  0
TABLE
  2
STYLE
 70
     1
  0
STYLE
  2
STANDARD
 70
     0
 40
0.0
 41
1.0
 50
0.0
 71
     0
 42
0.375
  3
simplex.shx
  4

  0
ENDTAB
  0
TABLE
  2
VIEW
 70
     0
  0
ENDTAB
  0
TABLE
  2
UCS
 70
     0
  0
ENDTAB
  0
TABLE
  2
APPID
 70
     3
  0
APPID
  2
ACAD
 70
     0
  0
APPID
  2
DCO15
 70
     0
  0
APPID
  2
ACAECLAYERSTANDARD
 70
     0
  0
ENDTAB
  0
TABLE
  2
DIMSTYLE
 70
     1
  0
DIMSTYLE
  2
STANDARD
 70
     0
  3

  4

  5

  6

  7

 40
1.0
 41
0.25
 42
0.0625
 43
1.0
 44
0.0625
 45
0.0
 46
0.0
 47
0.0
 48
0.0
140
0.25
141
0.0
142
0.0
143
25.399999999999999
144
1.0
145
0.0
146
1.0
147
0.0625
 71
     0
 72
     0
 73
     1
 74
     1
 75
     0
 76
     0
 77
     0
 78
     0
170
     0
171
     2
172
     0
173
     0
174
     0
175
     0
176
   256
177
   256
178
   256
  0
ENDTAB
  0
ENDSEC
  0
SECTION
  2
BLOCKS
  0
BLOCK
  8
0
  2
$MODEL_SPACE
 70
     0
 10
0.0
 20
0.0
 30
0.0
  3
$MODEL_SPACE
  1

  0
ENDBLK
  5
9
  8
0
  0
BLOCK
 67
     1
  8
0
  2
$PAPER_SPACE
 70
     0
 10
0.0
 20
0.0
 30
0.0
  3
$PAPER_SPACE
  1

  0
ENDBLK
  5
E
 67
     1
  8
0
  0
ENDSEC
  0
SECTION
  2
ENTITIES
  0
TEXT
  5
E0D
  8
FORM
 10
18.486317551531741
 20
2.7734919123047499
 30
0.0
 40
0.211669921875
  1
COIN RETURN
 72
     1
 11
19.52954788077281
 21
2.7734919123047499
 31
0.0
  0
TEXT
  5
E0E
  8
FORM
 10
19.12636707720138
 20
2.0221534743386451
 30
0.0
 40
0.211669921875
  1
BODY
 72
     1
 11
19.52954788077281
 21
2.0221534743386451
 31
0.0
  0
TEXT
  5
EA4
  8
FORM
 10
19.040691156442449
 20
2.380732794284194
 30
0.0
 40
0.211669921875
  1
FRONT
 72
     1
 11
19.52954788077281
 21
2.380732794284194
 31
0.0
  0
TEXT
  5
1187
  8
DIMENSIONS
 10
11.02941886635487
 20
6.1374124029411092
 30
0.0
 40
0.25
  1
2.100
  0
TEXT
  5
1188
  8
DIMENSIONS
 10
10.255609342545339
 20
6.6864820336460147
 30
0.0
 40
0.25
  1
2.750
  0
TEXT
  5
1189
  8
DIMENSIONS
 10
14.703349930472809
 20
10.974114600402929
 30
0.0
 40
0.25
  1
1.500
  0
TEXT
  5
118A
  8
DIMENSIONS
 10
13.64491273815625
 20
10.442413445322151
 30
0.0
 40
0.25
  1
3.875
  0
TEXT
  5
118B
  8
DIMENSIONS
 10
15.26749866194592
 20
13.110023268584181
 30
0.0
 40
0.25
  1
R9.087 OUTSIDE
  0
TEXT
  5
118C
  8
DIMENSIONS
 10
13.829088362443979
 20
8.3700422567682953
 30
0.0
 40
0.375
  1
A
  0
TEXT
  5
118D
  8
DIMENSIONS
 10
13.829088362443979
 20
4.6072165526708933
 30
0.0
 40
0.375
  1
A
  0
TEXT
  5
118E
  8
DIMENSIONS
 10
10.24665314926682
 20
11.29309532087081
 30
0.0
 40
0.25
  1
0.500
  0
LINE
  5
118F
  8
BODY_-_COIN_RETURN_PANEL_-
 10
5.1499370652123062
 20
7.9850599280697274
 30
0.0
 11
5.1099370652123071
 21
7.9850599280697274
 31
0.0
  0
LINE
  5
1190
  8
BODY_-_COIN_RETURN_PANEL_-
 10
5.1499370652123062
 20
5.2350599280697274
 30
0.0
 11
5.1099370652123071
 21
5.2350599280697274
 31
0.0
  0
LINE
  5
1191
  8
BODY_-_COIN_RETURN_PANEL_-
 10
5.1499370652123062
 20
7.4850599280697274
 30
0.0
 11
4.8999370652123062
 21
7.4850599280697274
 31
0.0
  0
LINE
  5
1192
  8
BODY_-_COIN_RETURN_PANEL_-
 10
5.1499370652123062
 20
5.3850599280697287
 30
0.0
 11
4.8999370652123062
 21
5.3850599280697269
 31
0.0
  0
LINE
  5
1193
  8
BODY_-_COIN_RETURN_PANEL_-
 10
5.1499370652123062
 20
7.9850599280697274
 30
0.0
 11
5.1499370652123062
 21
5.2350599280697274
 31
0.0
  0
LINE
  5
1194
  8
BODY_-_COIN_RETURN_PANEL_-
 10
4.8999370652123062
 20
7.4850599280697274
 30
0.0
 11
4.1899370652123054
 21
7.360059928069723
 31
0.0
  0
LINE
  5
1195
  8
BODY_-_COIN_RETURN_PANEL_-
 10
4.1899370652123054
 20
7.360059928069723
 30
0.0
 11
4.8999370652123062
 21
5.3850599280697269
 31
0.0
  0
LINE
  5
1196
  8
BODY_-_COIN_RETURN_PANEL_-
 10
5.1099370652123071
 20
7.9850599280697274
 30
0.0
 11
5.1099370652123071
 21
7.5250599280697257
 31
0.0
  0
LINE
  5
1197
  8
BODY_-_COIN_RETURN_PANEL_-
 10
5.1099370652123071
 20
7.5250599280697257
 30
0.0
 11
4.8964428086734841
 21
7.5250599280697257
 31
0.0
  0
LINE
  5
1198
  8
BODY_-_COIN_RETURN_PANEL_-
 10
4.8964428086734841
 20
7.5250599280697257
 30
0.0
 11
4.1362291942884459
 21
7.3912195030019339
 31
0.0
  0
LINE
  5
1199
  8
BODY_-_COIN_RETURN_PANEL_-
 10
4.1362291942884459
 20
7.3912195030019339
 30
0.0
 11
4.8718106110995194
 21
5.3450599280697277
 31
0.0
  0
LINE
  5
119A
  8
BODY_-_COIN_RETURN_PANEL_-
 10
5.1099370652123071
 20
5.3450599280697277
 30
0.0
 11
4.8718106110995194
 21
5.3450599280697277
 31
0.0
  0
LINE
  5
119B
  8
BODY_-_COIN_RETURN_PANEL_-
 10
5.1099370652123071
 20
5.3450599280697277
 30
0.0
 11
5.1099370652123071
 21
5.2350599280697274
 31
0.0
  0
LINE
  5
119C
  8
DIMENSIONS
 10
4.1899370652123054
 20
7.422559928069723
 30
0.0
 11
4.1899370652123054
 21
10.297559928069729
 31
0.0
  0
LINE
  5
119D
  8
DIMENSIONS
 10
5.1499370652123062
 20
8.0475599280697274
 30
0.0
 11
5.1499370652123062
 21
10.297559928069729
 31
0.0
  0
LINE
  5
119E
  8
DIMENSIONS
 10
3.9399370652123049
 20
10.23505992806972
 30
0.0
 11
3.6899370652123049
 21
10.23505992806972
 31
0.0
  0
LINE
  5
119F
  8
DIMENSIONS
 10
5.3999370652123133
 20
10.23505992806972
 30
0.0
 11
5.6499370652123133
 21
10.23505992806972
 31
0.0
  0
SOLID
  5
11A0
  8
DIMENSIONS
 10
3.9399370652123049
 20
10.27672659473639
 30
0.0
 11
3.9399370652123049
 21
10.19339326140306
 31
0.0
 12
4.1899370652123054
 22
10.23505992806972
 32
0.0
 13
4.1899370652123054
 23
10.23505992806972
 33
0.0
  0
SOLID
  5
11A1
  8
DIMENSIONS
 10
5.3999370652123133
 20
10.27672659473639
 30
0.0
 11
5.3999370652123133
 21
10.19339326140306
 31
0.0
 12
5.1499370652123062
 22
10.23505992806972
 32
0.0
 13
5.1499370652123062
 23
10.23505992806972
 33
0.0
  0
LINE
  5
11A2
  8
DIMENSIONS
 10
4.8999370652123062
 20
7.5475599280697274
 30
0.0
 11
4.8999370652123062
 21
9.5475599280697274
 31
0.0
  0
LINE
  5
11A3
  8
DIMENSIONS
 10
5.1499370652123062
 20
8.0475599280697274
 30
0.0
 11
5.1499370652123062
 21
9.5475599280697274
 31
0.0
  0
LINE
  5
11A4
  8
DIMENSIONS
 10
4.6499370652123062
 20
9.4850599280697274
 30
0.0
 11
4.3999370652123062
 21
9.4850599280697274
 31
0.0
  0
LINE
  5
11A5
  8
DIMENSIONS
 10
5.3999370652123133
 20
9.4850599280697274
 30
0.0
 11
5.6499370652123133
 21
9.4850599280697274
 31
0.0
  0
SOLID
  5
11A6
  8
DIMENSIONS
 10
4.6499370652123062
 20
9.5267265947363935
 30
0.0
 11
4.6499370652123062
 21
9.4433932614030596
 31
0.0
 12
4.8999370652123062
 22
9.4850599280697274
 32
0.0
 13
4.8999370652123062
 23
9.4850599280697274
 33
0.0
  0
SOLID
  5
11A7
  8
DIMENSIONS
 10
5.3999370652123133
 20
9.5267265947363935
 30
0.0
 11
5.3999370652123133
 21
9.4433932614030596
 31
0.0
 12
5.1499370652123062
 22
9.4850599280697274
 32
0.0
 13
5.1499370652123062
 23
9.4850599280697274
 33
0.0
  0
LINE
  5
11A8
  8
DIMENSIONS
 10
5.1099370652123071
 20
8.0475599280697274
 30
0.0
 11
5.1099370652123071
 21
8.7975599280697274
 31
0.0
  0
LINE
  5
11A9
  8
DIMENSIONS
 10
5.1499370652123062
 20
8.0475599280697274
 30
0.0
 11
5.1499370652123062
 21
8.7975599280697274
 31
0.0
  0
LINE
  5
11AA
  8
DIMENSIONS
 10
4.8599370652123071
 20
8.7350599280697274
 30
0.0
 11
4.6099370652123071
 21
8.7350599280697274
 31
0.0
  0
LINE
  5
11AB
  8
DIMENSIONS
 10
5.3999370652123133
 20
8.7350599280697274
 30
0.0
 11
5.6499370652123133
 21
8.7350599280697274
 31
0.0
  0
SOLID
  5
11AC
  8
DIMENSIONS
 10
4.8599370652123071
 20
8.7767265947363935
 30
0.0
 11
4.8599370652123071
 21
8.6933932614030596
 31
0.0
 12
5.1099370652123071
 22
8.7350599280697274
 32
0.0
 13
5.1099370652123071
 23
8.7350599280697274
 33
0.0
  0
SOLID
  5
11AD
  8
DIMENSIONS
 10
5.3999370652123133
 20
8.7767265947363935
 30
0.0
 11
5.3999370652123133
 21
8.6933932614030596
 31
0.0
 12
5.1499370652123062
 22
8.7350599280697274
 32
0.0
 13
5.1499370652123062
 23
8.7350599280697274
 33
0.0
  0
TEXT
  5
11AE
  8
DIMENSIONS
 10
5.7124370652123133
 20
8.6100599280697274
 30
0.0
 40
0.25
  1
0.040 THICK
  0
TEXT
  5
11AF
  8
DIMENSIONS
 10
5.7124370652123133
 20
9.3600599280697274
 30
0.0
 40
0.25
  1
0.250 INSIDE
  0
TEXT
  5
11B0
  8
DIMENSIONS
 10
5.7124370652123133
 20
10.110059928069729
 30
0.0
 40
0.25
  1
0.960 INSIDE
  0
LINE
  5
11B1
  8
DIMENSIONS
 10
4.2524370652123054
 20
7.360059928069723
 30
0.0
 11
5.9624370652123133
 21
7.360059928069723
 31
0.0
  0
LINE
  5
11B2
  8
DIMENSIONS
 10
5.2124370652123062
 20
7.4850599280697274
 30
0.0
 11
5.9624370652123133
 21
7.4850599280697274
 31
0.0
  0
LINE
  5
11B3
  8
DIMENSIONS
 10
5.8999370652123133
 20
7.110059928069723
 30
0.0
 11
5.8999370652123133
 21
6.860059928069723
 31
0.0
  0
LINE
  5
11B4
  8
DIMENSIONS
 10
5.8999370652123133
 20
7.7350599280697274
 30
0.0
 11
5.8999370652123133
 21
8.0618488507783361
 31
0.0
  0
SOLID
  5
11B5
  8
DIMENSIONS
 10
5.858270398545641
 20
7.110059928069723
 30
0.0
 11
5.9416037318789696
 21
7.110059928069723
 31
0.0
 12
5.8999370652123133
 22
7.360059928069723
 32
0.0
 13
5.8999370652123133
 23
7.360059928069723
 33
0.0
  0
SOLID
  5
11B6
  8
DIMENSIONS
 10
5.858270398545641
 20
7.7350599280697274
 30
0.0
 11
5.9416037318789696
 21
7.7350599280697274
 31
0.0
 12
5.8999370652123133
 22
7.4850599280697274
 32
0.0
 13
5.8999370652123133
 23
7.4850599280697274
 33
0.0
  0
LINE
  5
11B7
  8
DIMENSIONS
 10
5.2124370652123062
 20
7.4850599280697274
 30
0.0
 11
6.7124370652123133
 21
7.4850599280697274
 31
0.0
  0
LINE
  5
11B8
  8
DIMENSIONS
 10
5.2124370652123062
 20
5.3850599280697287
 30
0.0
 11
6.7124370652123133
 21
5.3850599280697269
 31
0.0
  0
LINE
  5
11B9
  8
DIMENSIONS
 10
6.6499370652123133
 20
7.2350599280697274
 30
0.0
 11
6.6499370652123133
 21
6.3321994189800073
 31
0.0
  0
LINE
  5
11BA
  8
DIMENSIONS
 10
6.6499370652123133
 20
5.6350599280697269
 30
0.0
 11
6.6499370652123133
 21
5.9571994189800073
 31
0.0
  0
SOLID
  5
11BB
  8
DIMENSIONS
 10
6.608270398545641
 20
7.2350599280697274
 30
0.0
 11
6.6916037318789696
 21
7.2350599280697274
 31
0.0
 12
6.6499370652123133
 22
7.4850599280697274
 32
0.0
 13
6.6499370652123133
 23
7.4850599280697274
 33
0.0
  0
SOLID
  5
11BC
  8
DIMENSIONS
 10
6.608270398545641
 20
5.6350599280697269
 30
0.0
 11
6.6916037318789696
 21
5.6350599280697269
 31
0.0
 12
6.6499370652123133
 22
5.3850599280697269
 32
0.0
 13
6.6499370652123133
 23
5.3850599280697269
 33
0.0
  0
TEXT
  5
11BD
  8
DIMENSIONS
 10
6.1737465890218308
 20
6.019699418980009
 30
0.0
 40
0.25
  1
2.100
  0
TEXT
  5
11BE
  8
DIMENSIONS
 10
5.3830568950799096
 20
6.5278175922463184
 30
0.0
 40
0.25
  1
0.125
  0
LINE
  5
11BF
  8
DIMENSIONS
 10
5.2124370652123062
 20
5.3850599280697287
 30
0.0
 11
6.7124370652123133
 21
5.3850599280697269
 31
0.0
  0
LINE
  5
11C0
  8
DIMENSIONS
 10
5.2124370652123062
 20
5.2350599280697274
 30
0.0
 11
6.7124370652123133
 21
5.2350599280697274
 31
0.0
  0
LINE
  5
11C1
  8
DIMENSIONS
 10
6.6499370652123133
 20
5.6350599280697269
 30
0.0
 11
6.6499370652123133
 21
5.8850599280697269
 31
0.0
  0
LINE
  5
11C2
  8
DIMENSIONS
 10
6.6499370652123133
 20
4.9850599280697274
 30
0.0
 11
6.6499370652123133
 21
4.7350599280697274
 31
0.0
  0
LINE
  5
11C3
  8
DIMENSIONS
 10
6.8999370652123133
 20
4.7350599280697274
 30
0.0
 11
6.6499370652123133
 21
4.7350599280697274
 31
0.0
  0
SOLID
  5
11C4
  8
DIMENSIONS
 10
6.608270398545641
 20
5.6350599280697269
 30
0.0
 11
6.6916037318789696
 21
5.6350599280697269
 31
0.0
 12
6.6499370652123133
 22
5.3850599280697269
 32
0.0
 13
6.6499370652123133
 23
5.3850599280697269
 33
0.0
  0
SOLID
  5
11C5
  8
DIMENSIONS
 10
6.608270398545641
 20
4.9850599280697274
 30
0.0
 11
6.6916037318789696
 21
4.9850599280697274
 31
0.0
 12
6.6499370652123133
 22
5.2350599280697274
 32
0.0
 13
6.6499370652123133
 23
5.2350599280697274
 33
0.0
  0
TEXT
  5
11C6
  8
DIMENSIONS
 10
6.9860052846157847
 20
4.6100599280697274
 30
0.0
 40
0.25
  1
0.150
  0
LINE
  5
11C7
  8
DIMENSIONS
 10
5.2124370652123062
 20
7.4850599280697274
 30
0.0
 11
6.7124370652123133
 21
7.4850599280697274
 31
0.0
  0
LINE
  5
11C8
  8
DIMENSIONS
 10
5.2124370652123062
 20
7.9850599280697274
 30
0.0
 11
6.7124370652123133
 21
7.9850599280697274
 31
0.0
  0
LINE
  5
11C9
  8
DIMENSIONS
 10
6.6499370652123133
 20
7.2350599280697274
 30
0.0
 11
6.6499370652123133
 21
6.9850599280697274
 31
0.0
  0
LINE
  5
11CA
  8
DIMENSIONS
 10
6.6499370652123133
 20
8.2350599280697274
 30
0.0
 11
6.6499370652123133
 21
8.4850599280697274
 31
0.0
  0
SOLID
  5
11CB
  8
DIMENSIONS
 10
6.608270398545641
 20
7.2350599280697274
 30
0.0
 11
6.6916037318789696
 21
7.2350599280697274
 31
0.0
 12
6.6499370652123133
 22
7.4850599280697274
 32
0.0
 13
6.6499370652123133
 23
7.4850599280697274
 33
0.0
  0
SOLID
  5
11CC
  8
DIMENSIONS
 10
6.608270398545641
 20
8.2350599280697274
 30
0.0
 11
6.6916037318789696
 21
8.2350599280697274
 31
0.0
 12
6.6499370652123133
 22
7.9850599280697274
 32
0.0
 13
6.6499370652123133
 23
7.9850599280697274
 33
0.0
  0
TEXT
  5
11CD
  8
DIMENSIONS
 10
6.1499370652123133
 20
7.6100599280697274
 30
0.0
 40
0.25
  1
0.500
  0
TEXT
  5
11CE
  8
DIMENSIONS
 10
11.005609342545339
 20
7.6100599280697274
 30
0.0
 40
0.25
  1
0.500
  0
TEXT
  5
11CF
  8
DIMENSIONS
 10
10.104797778398749
 20
4.6100599280697292
 30
0.0
 40
0.25
  1
0.150
  0
LINE
  5
11D0
  8
BODY_-_COIN_RETURN_PANEL_-
 10
4.1386771018054409
 20
7.3844101827962074
 30
0.0
 11
4.147464462122862
 21
7.3931975431136268
 31
0.0
  0
LINE
  5
11D1
  8
BODY_-_COIN_RETURN_PANEL_-
 10
4.1854225221632069
 20
7.2543789078573404
 30
0.0
 11
4.2166887221158191
 21
7.2856451078099509
 31
0.0
  0
LINE
  5
11D2
  8
BODY_-_COIN_RETURN_PANEL_-
 10
4.312720311000227
 20
7.381676696694357
 30
0.0
 11
4.3620139555598021
 21
7.4309703412539347
 31
0.0
  0
LINE
  5
11D3
  8
BODY_-_COIN_RETURN_PANEL_-
 10
4.2321679425209799
 20
7.1243476329184752
 30
0.0
 11
4.2634341424735922
 21
7.1556138328710821
 31
0.0
  0
LINE
  5
11D4
  8
BODY_-_COIN_RETURN_PANEL_-
 10
4.5272698044371671
 20
7.419449494834665
 30
0.0
 11
4.576563448996751
 21
7.4687431393942427
 31
0.0
  0
LINE
  5
11D5
  8
BODY_-_COIN_RETURN_PANEL_-
 10
4.278913362878753
 20
6.9943163579796064
 30
0.0
 11
4.3101795628313582
 21
7.0255825579322151
 31
0.0
  0
LINE
  5
11D6
  8
BODY_-_COIN_RETURN_PANEL_-
 10
5.1099370652123071
 20
7.8253400603131631
 30
0.0
 11
5.1499370652123062
 21
7.865340060313164
 31
0.0
  0
LINE
  5
11D7
  8
BODY_-_COIN_RETURN_PANEL_-
 10
4.741819297874116
 20
7.4572222929749747
 30
0.0
 11
4.7911129424336991
 21
7.5065159375345507
 31
0.0
  0
LINE
  5
11D8
  8
BODY_-_COIN_RETURN_PANEL_-
 10
4.325658783236519
 20
6.8642850830407411
 30
0.0
 11
4.3569249831891312
 21
6.8955512829933481
 31
0.0
  0
LINE
  5
11D9
  8
BODY_-_COIN_RETURN_PANEL_-
 10
5.1099370652123071
 20
7.6485633650165239
 30
0.0
 11
5.1499370652123062
 21
7.6885633650165266
 31
0.0
  0
LINE
  5
11DA
  8
BODY_-_COIN_RETURN_PANEL_-
 10
4.9464336282655088
 20
7.4850599280697274
 30
0.0
 11
4.9864336282655009
 21
7.5250599280697257
 31
0.0
  0
LINE
  5
11DB
  8
BODY_-_COIN_RETURN_PANEL_-
 10
4.3724042035942849
 20
6.7342538081018741
 30
0.0
 11
4.4036704035468972
 21
6.7655200080544828
 31
0.0
  0
LINE
  5
11DC
  8
BODY_-_COIN_RETURN_PANEL_-
 10
5.123210323562148
 20
7.4850599280697274
 30
0.0
 11
5.1499370652123062
 21
7.5117866697198901
 31
0.0
  0
LINE
  5
11DD
  8
BODY_-_COIN_RETURN_PANEL_-
 10
4.419149623952058
 20
6.6042225331630071
 30
0.0
 11
4.4504158239046703
 21
6.6354887331156158
 31
0.0
  0
LINE
  5
11DE
  8
BODY_-_COIN_RETURN_PANEL_-
 10
4.4658950443098311
 20
6.4741912582241383
 30
0.0
 11
4.4971612442624433
 21
6.5054574581767488
 31
0.0
  0
LINE
  5
11DF
  8
BODY_-_COIN_RETURN_PANEL_-
 10
4.5126404646675971
 20
6.3441599832852731
 30
0.0
 11
4.5439066646202093
 21
6.3754261832378818
 31
0.0
  0
LINE
  5
11E0
  8
BODY_-_COIN_RETURN_PANEL_-
 10
4.559385885025371
 20
6.2141287083464061
 30
0.0
 11
4.5906520849779753
 21
6.2453949082990148
 31
0.0
  0
LINE
  5
11E1
  8
BODY_-_COIN_RETURN_PANEL_-
 10
4.6061313053831441
 20
6.0840974334075391
 30
0.0
 11
4.6373975053357483
 21
6.1153636333601504
 31
0.0
  0
LINE
  5
11E2
  8
BODY_-_COIN_RETURN_PANEL_-
 10
4.65287672574091
 20
5.954066158468672
 30
0.0
 11
4.6841429256935214
 21
5.9853323584212808
 31
0.0
  0
LINE
  5
11E3
  8
BODY_-_COIN_RETURN_PANEL_-
 10
4.699622146098676
 20
5.824034883529805
 30
0.0
 11
4.7308883460512874
 21
5.8553010834824164
 31
0.0
  0
LINE
  5
11E4
  8
BODY_-_COIN_RETURN_PANEL_-
 10
4.7463675664564491
 20
5.694003608590938
 30
0.0
 11
4.7776337664090596
 21
5.7252698085435467
 31
0.0
  0
LINE
  5
11E5
  8
BODY_-_COIN_RETURN_PANEL_-
 10
4.7931129868142222
 20
5.563972333652071
 30
0.0
 11
4.8243791867668326
 21
5.5952385336046824
 31
0.0
  0
LINE
  5
11E6
  8
BODY_-_COIN_RETURN_PANEL_-
 10
4.8398584071719881
 20
5.4339410587132049
 30
0.0
 11
4.8711246071245986
 21
5.4652072586658127
 31
0.0
  0
LINE
  5
11E7
  8
BODY_-_COIN_RETURN_PANEL_-
 10
4.9277539718251537
 20
5.3450599280697277
 30
0.0
 11
4.9677539718251458
 21
5.3850599280697269
 31
0.0
  0
LINE
  5
11E8
  8
BODY_-_COIN_RETURN_PANEL_-
 10
5.1045306671217849
 20
5.3450599280697277
 30
0.0
 11
5.1445306671217841
 21
5.3850599280697287
 31
0.0
  0
TEXT
  5
11E9
  8
DIMENSIONS
 10
4.217058760094722
 20
3.439565476427858
 30
0.0
 40
0.375
  1
SECTION A-A
  0
LINE
  5
11EA
  8
DIMENSIONS
 10
4.1605722961713312
 20
3.3267286092335802
 30
0.0
 11
8.0298950409954681
 21
3.3267286092335802
 31
0.0
  0
LINE
  5
11EB
  8
DIMENSIONS
 10
4.1605722961713312
 20
3.2908863138227882
 30
0.0
 11
8.0298950409954681
 21
3.2908863138227882
 31
0.0
  0
LINE
  5
11EC
  8
DIMENSIONS
 10
11.505609342545339
 20
4.9850599280697274
 30
0.0
 11
11.505609342545339
 21
4.7350599280697274
 31
0.0
  0
LINE
  5
11ED
  8
DIMENSIONS
  6
PHANTOM2
 10
13.49396091784849
 20
4.7322165526708933
 30
0.0
 11
13.49396091784849
 21
8.4950422567682953
 31
0.0
  0
SOLID
  5
11EE
  8
DIMENSIONS
 10
13.243960917848501
 20
4.7738832193375593
 30
0.0
 11
13.243960917848501
 21
4.6905498860042272
 31
0.0
 12
12.99396091784849
 22
4.7322165526708933
 32
0.0
 13
12.99396091784849
 23
4.7322165526708933
 33
0.0
  0
LINE
  5
11EF
  8
DIMENSIONS
 10
13.243960917848501
 20
4.7322165526708933
 30
0.0
 11
13.49396091784849
 21
4.7322165526708933
 31
0.0
  0
LINE
  5
11F0
  8
DIMENSIONS
 10
11.255609342545339
 20
4.7350599280697274
 30
0.0
 11
11.505609342545339
 21
4.7350599280697274
 31
0.0
  0
LINE
  5
11F1
  8
DIMENSIONS
 10
12.193109342545339
 20
7.9850599280697248
 30
0.0
 11
10.693109342545339
 21
7.9850599280697274
 31
0.0
  0
LINE
  5
11F2
  8
DIMENSIONS
 10
12.193109342545339
 20
5.2350599280697274
 30
0.0
 11
10.693109342545339
 21
5.2350599280697274
 31
0.0
  0
LINE
  5
11F3
  8
BODY_-_COIN_RETURN_PANEL_-
 10
12.255609342545339
 20
7.9850599280697248
 30
0.0
 11
16.10133012533818
 21
7.9850599280697274
 31
0.0
  0
LINE
  5
11F4
  8
BODY_-_COIN_RETURN_PANEL_-
 10
12.746952354204611
 20
7.485059928069723
 30
0.0
 11
14.240969481492399
 21
7.4850599280697274
 31
0.0
  0
LINE
  5
11F5
  8
BODY_-_COIN_RETURN_PANEL_-
 10
12.746952354204611
 20
7.3600599280697274
 30
0.0
 11
14.240969481492399
 21
7.3600599280697248
 31
0.0
  0
LINE
  5
11F6
  8
BODY_-_COIN_RETURN_PANEL_-
 10
12.255609342545339
 20
5.2350599280697274
 30
0.0
 11
16.10133012533818
 21
5.2350599280697274
 31
0.0
  0
LINE
  5
11F7
  8
BODY_-_COIN_RETURN_PANEL_-
 10
12.746952354204611
 20
5.3850599280697269
 30
0.0
 11
14.240969481492399
 21
5.3850599280697269
 31
0.0
  0
LINE
  5
11F8
  8
BODY_-_COIN_RETURN_PANEL_-
 10
14.240969481492399
 20
7.4850599280697248
 30
0.0
 11
14.240969481492399
 21
5.3850599280697269
 31
0.0
  0
LINE
  5
11F9
  8
BODY_-_COIN_RETURN_PANEL_-
 10
16.10133012533818
 20
7.9850599280697248
 30
0.0
 11
16.10133012533818
 21
5.2350599280697274
 31
0.0
  0
LINE
  5
11FA
  8
DIMENSIONS
 10
11.505609342545339
 20
7.2350599280697248
 30
0.0
 11
11.505609342545339
 21
6.9850599280697248
 31
0.0
  0
LINE
  5
11FB
  8
BODY_-_COIN_RETURN_PANEL_-
 10
12.746952354204611
 20
7.4850599280697248
 30
0.0
 11
12.746952354204611
 21
5.3850599280697269
 31
0.0
  0
LINE
  5
11FC
  8
DIMENSIONS
 10
11.505609342545339
 20
7.2350599280697248
 30
0.0
 11
11.505609342545339
 21
6.4499124241624131
 31
0.0
  0
LINE
  5
11FD
  8
BODY_-_COIN_RETURN_PANEL_-
 10
12.255609342545339
 20
7.9850599280697274
 30
0.0
 11
12.255609342545339
 21
5.2350599280697274
 31
0.0
  0
LINE
  5
11FE
  8
DIMENSIONS
 10
12.684452354204611
 20
5.3850599280697269
 30
0.0
 11
11.443109342545339
 21
5.3850599280697269
 31
0.0
  0
LINE
  5
11FF
  8
DIMENSIONS
 10
12.684452354204611
 20
5.3850599280697269
 30
0.0
 11
11.443109342545339
 21
5.3850599280697269
 31
0.0
  0
LINE
  5
1200
  8
DIMENSIONS
 10
11.505609342545339
 20
5.6350599280697269
 30
0.0
 11
11.505609342545339
 21
6.0749124241624131
 31
0.0
  0
LINE
  5
1201
  8
DIMENSIONS
 10
12.193109342545339
 20
5.2350599280697274
 30
0.0
 11
11.443109342545339
 21
5.2350599280697274
 31
0.0
  0
SOLID
  5
1202
  8
DIMENSIONS
 10
11.547276009212011
 20
5.6350599280697269
 30
0.0
 11
11.46394267587867
 21
5.6350599280697269
 31
0.0
 12
11.505609342545339
 22
5.3850599280697269
 32
0.0
 13
11.505609342545339
 23
5.3850599280697269
 33
0.0
  0
SOLID
  5
1203
  8
DIMENSIONS
 10
11.46394267587867
 20
5.6350599280697269
 30
0.0
 11
11.547276009212011
 21
5.6350599280697269
 31
0.0
 12
11.505609342545339
 22
5.3850599280697269
 32
0.0
 13
11.505609342545339
 23
5.3850599280697269
 33
0.0
  0
SOLID
  5
1204
  8
DIMENSIONS
 10
11.547276009212011
 20
4.9850599280697274
 30
0.0
 11
11.46394267587867
 21
4.9850599280697274
 31
0.0
 12
11.505609342545339
 22
5.2350599280697274
 32
0.0
 13
11.505609342545339
 23
5.2350599280697274
 33
0.0
  0
LINE
  5
1205
  8
DIMENSIONS
 10
11.505609342545339
 20
5.6350599280697269
 30
0.0
 11
11.505609342545339
 21
5.8850599280697269
 31
0.0
  0
LINE
  5
1206
  8
DIMENSIONS
 10
12.684452354204611
 20
7.4850599280697248
 30
0.0
 11
11.443109342545339
 21
7.4850599280697248
 31
0.0
  0
LINE
  5
1207
  8
DIMENSIONS
 10
12.684452354204611
 20
7.485059928069723
 30
0.0
 11
11.443109342545339
 21
7.4850599280697248
 31
0.0
  0
SOLID
  5
1208
  8
DIMENSIONS
 10
13.243960917848501
 20
8.5367089234349613
 30
0.0
 11
13.243960917848501
 21
8.4533755901016292
 31
0.0
 12
12.99396091784849
 22
8.4950422567682953
 32
0.0
 13
12.99396091784849
 23
8.4950422567682953
 33
0.0
  0
LINE
  5
1209
  8
DIMENSIONS
 10
13.243960917848501
 20
8.4950422567682953
 30
0.0
 11
13.49396091784849
 21
8.4950422567682953
 31
0.0
  0
SOLID
  5
120A
  8
DIMENSIONS
 10
11.547276009212011
 20
8.2350599280697256
 30
0.0
 11
11.46394267587867
 21
8.2350599280697256
 31
0.0
 12
11.505609342545339
 22
7.9850599280697248
 32
0.0
 13
11.505609342545339
 23
7.9850599280697248
 33
0.0
  0
LINE
  5
120B
  8
DIMENSIONS
 10
12.193109342545339
 20
7.9850599280697248
 30
0.0
 11
11.443109342545339
 21
7.9850599280697248
 31
0.0
  0
SOLID
  5
120C
  8
DIMENSIONS
 10
11.547276009212011
 20
7.2350599280697248
 30
0.0
 11
11.46394267587867
 21
7.2350599280697248
 31
0.0
 12
11.505609342545339
 22
7.4850599280697248
 32
0.0
 13
11.505609342545339
 23
7.4850599280697248
 33
0.0
  0
SOLID
  5
120D
  8
DIMENSIONS
 10
11.46394267587867
 20
7.2350599280697248
 30
0.0
 11
11.547276009212011
 21
7.2350599280697248
 31
0.0
 12
11.505609342545339
 22
7.4850599280697248
 32
0.0
 13
11.505609342545339
 23
7.4850599280697248
 33
0.0
  0
LINE
  5
120E
  8
DIMENSIONS
 10
11.505609342545339
 20
8.2350599280697256
 30
0.0
 11
11.505609342545339
 21
8.4850599280697256
 31
0.0
  0
LINE
  5
120F
  8
BODY_-_COIN_RETURN_PANEL_-
 10
14.355984630646001
 20
12.628774101952621
 30
0.0
 11
12.78050451799394
 21
12.7481994536911
 31
0.0
  0
LINE
  5
1210
  8
BODY_-_COIN_RETURN_PANEL_-
  6
HIDDEN
 10
14.312039512998989
 20
12.57824329912737
 30
0.0
 11
12.816330545291329
 21
12.691621797613269
 31
0.0
  0
LINE
  5
1211
  8
BODY_-_COIN_RETURN_PANEL_-
  6
HIDDEN
 10
14.25837369038233
 20
11.870274387745759
 30
0.0
 11
12.76266472267468
 21
11.983652886231649
 31
0.0
  0
ARC
  5
1212
  8
BODY_-_COIN_RETURN_PANEL_-
 10
14.17846973394176
 20
20.738683735410369
 30
0.0
 40
9.0470000000000006
 50
257.78353692000002
 51
282.21646307999998
  0
ARC
  5
1213
  8
DIMENSIONS
 10
14.17846973394191
 20
20.738683735409332
 30
0.0
 40
9.6577031227853176
 50
262.41937664987898
 51
272.28237026141397
  0
ARC
  5
1214
  8
BODY_-_COIN_RETURN_PANEL_-
 10
14.17846973394176
 20
20.738683735410369
 30
0.0
 40
9.0869999999999997
 50
260.93080522329132
 51
270.39944678270871
  0
ARC
  5
1215
  8
BODY_-_COIN_RETURN_PANEL_-
 10
14.17846973394176
 20
20.738683735410369
 30
0.0
 40
9.0869999999999997
 50
270.39944678270871
 51
282.21646307999998
  0
LINE
  5
1216
  8
DIMENSIONS
 10
16.114555477430439
 20
11.796372946589621
 30
0.0
 11
16.343993179023752
 21
10.736655813079169
 31
0.0
  0
ARC
  5
1217
  8
DIMENSIONS
 10
14.17846973394186
 20
20.738683735410461
 30
0.0
 40
10.1712702900883
 50
273.68674050058132
 51
280.80815270606041
  0
SOLID
  5
1218
  8
DIMENSIONS
 10
16.077481595204301
 20
10.78867431186015
 30
0.0
 11
16.09411313109042
 21
10.707017490598769
 31
0.0
 12
16.330767826931499
 22
10.79774050888782
 32
0.0
 13
16.330767826931499
 23
10.79774050888782
 33
0.0
  0
LINE
  5
1219
  8
DIMENSIONS
 10
14.241399352101171
 20
11.58940015071598
 30
0.0
 11
14.24532460808228
 21
11.018710526906681
 31
0.0
  0
SOLID
  5
121A
  8
DIMENSIONS
 10
13.995152060128101
 20
11.12439129288709
 30
0.0
 11
13.994646612101009
 21
11.041059492434099
 31
0.0
 12
14.24489473747351
 22
11.08120904857928
 32
0.0
 13
14.24489473747351
 23
11.08120904857928
 33
0.0
  0
LINE
  5
121B
  8
DIMENSIONS
 10
15.21417202196214
 20
11.96008723660953
 30
0.0
 11
14.87878049979556
 21
13.2301995035606
 31
0.0
1001
ACAD
1000
DSTYLE
1002
{
1070
   147
1040
0.0625
1070
    77
1070
     0
1002
}
  0
LINE
  5
121C
  8
BODY_-_COIN_RETURN_PANEL_-
 10
16.092865899999151
 20
11.89655184771582
 30
0.0
 11
16.10133012533819
 21
11.85745764239828
 31
0.0
  0
SOLID
  5
121D
  8
DIMENSIONS
 10
15.254433668297381
 20
11.970816213517329
 30
0.0
 11
15.278545883408951
 21
11.718517358598159
 31
0.0
 12
15.173910375626919
 22
11.94935825970173
 32
0.0
 13
15.173910375626919
 23
11.94935825970173
 33
0.0
1001
ACAD
1000
DSTYLE
1002
{
1070
   147
1040
0.0625
1070
    77
1070
     0
1002
}
  0
LINE
  5
121E
  8
BODY_-_COIN_RETURN_PANEL_-
  6
HIDDEN
 10
14.24182070921033
 20
11.65190456708387
 30
0.0
 11
14.312039512998989
 21
12.57824329912737
 31
0.0
  0
LINE
  5
121F
  8
BODY_-_COIN_RETURN_PANEL_-
 10
14.28499837006254
 20
11.69231094574012
 30
0.0
 11
14.355984630646001
 21
12.628774101952621
 31
0.0
  0
LINE
  5
1220
  8
DIMENSIONS
 10
14.87878049979556
 20
13.2301995035606
 30
0.0
 11
15.06931120507511
 21
13.2301995035606
 31
0.0
1001
ACAD
1000
DSTYLE
1002
{
1070
   147
1040
0.0625
1070
    77
1070
     0
1002
}
  0
LINE
  5
1221
  8
DIMENSIONS
 10
12.24238399045309
 20
11.79637294658963
 30
0.0
 11
12.12161999462913
 21
11.23859332015039
 31
0.0
  0
LINE
  5
1222
  8
DIMENSIONS
 10
12.73710643847515
 20
11.703429333874039
 30
0.0
 11
12.647200920819269
 21
11.139852318504261
 31
0.0
  0
LINE
  5
1223
  8
DIMENSIONS
 10
12.73710643847515
 20
11.703429333874039
 30
0.0
 11
12.647200920819261
 21
11.139852318504269
 31
0.0
  0
LINE
  5
1224
  8
DIMENSIONS
 10
12.24238399045309
 20
11.796372946589621
 30
0.0
 11
12.01294628885975
 21
10.73665581307921
 31
0.0
  0
ARC
  5
1225
  8
DIMENSIONS
 10
14.17846973394186
 20
20.738683735410461
 30
0.0
 40
10.1712702900883
 50
259.19184729393839
 51
266.03699997507539
  0
ARC
  5
1226
  8
DIMENSIONS
 10
14.17846973394081
 20
20.7386837354039
 30
0.0
 40
9.657703122779802
 50
262.4193766498812
 51
263.90258074676308
  0
SOLID
  5
1227
  8
DIMENSIONS
 10
12.89838343130233
 20
11.12415899646051
 30
0.0
 11
12.91044510076064
 21
11.206614806288099
 31
0.0
 12
12.65704683654873
 22
11.20157190974925
 32
0.0
 13
12.65704683654873
 23
11.20157190974925
 33
0.0
  0
ARC
  5
1228
  8
DIMENSIONS
 10
14.17846973394081
 20
20.7386837354039
 30
0.0
 40
9.657703122779802
 50
254.81712872623359
 51
256.3003328231153
  0
ARC
  5
1229
  8
DIMENSIONS
 10
14.17846973394081
 20
20.7386837354039
 30
0.0
 40
9.657703122779802
 50
254.81688016989219
 51
257.78353691999712
  0
SOLID
  5
122A
  8
DIMENSIONS
 10
12.262826336793079
 20
10.70701749059881
 30
0.0
 11
12.279457872679201
 21
10.78867431186019
 31
0.0
 12
12.026171640952001
 22
10.79774050888787
 32
0.0
 13
12.026171640952001
 23
10.79774050888787
 33
0.0
  0
SOLID
  5
122B
  8
DIMENSIONS
 10
11.900554979063131
 20
11.39634308066019
 30
0.0
 11
11.881868491465911
 21
11.315131876841241
 31
0.0
 12
12.134845346721381
 22
11.29967801595904
 32
0.0
 13
12.134845346721381
 23
11.29967801595904
 33
0.0
  0
LINE
  5
122C
  8
DIMENSIONS
 10
11.649070355704509
 20
11.41809532087081
 30
0.0
 11
11.399070355704509
 21
11.41809532087081
 31
0.0
  0
ARC
  5
122D
  8
BODY_-_COIN_RETURN_PANEL_-
 10
14.17846973394176
 20
20.738683735410369
 30
0.0
 40
9.0869999999999997
 50
257.78353692000002
 51
260.93080522329132
  0
LINE
  5
122E
  8
BODY_-_COIN_RETURN_PANEL_-
  6
HIDDEN
 10
12.74611174150267
 20
11.76528306556976
 30
0.0
 11
12.816330545291329
 21
12.691621797613269
 31
0.0
  0
LINE
  5
122F
  8
BODY_-_COIN_RETURN_PANEL_-
 10
12.70951825741048
 20
11.8117362974786
 30
0.0
 11
12.78050451799394
 21
12.7481994536911
 31
0.0
  0
LINE
  5
1230
  8
BODY_-_COIN_RETURN_PANEL_-
 10
12.264073567884379
 20
11.89655184771582
 30
0.0
 11
12.255609342545339
 21
11.85745764239828
 31
0.0
  0
LINE
  5
1231
  8
DIMENSIONS
 10
10.755609342545339
 20
5.4850599280697274
 30
0.0
 11
10.755609342545339
 21
6.638369334480501
 31
0.0
  0
SOLID
  5
1232
  8
DIMENSIONS
 10
10.71394267587867
 20
5.4850599280697274
 30
0.0
 11
10.797276009212011
 21
5.4850599280697274
 31
0.0
 12
10.755609342545339
 22
5.2350599280697274
 32
0.0
 13
10.755609342545339
 23
5.2350599280697274
 33
0.0
  0
LINE
  5
1233
  8
DIMENSIONS
 10
10.755609342545339
 20
7.7350599280697274
 30
0.0
 11
10.755609342545339
 21
7.013369334480501
 31
0.0
  0
SOLID
  5
1234
  8
DIMENSIONS
 10
10.71394267587867
 20
7.7350599280697274
 30
0.0
 11
10.797276009212011
 21
7.7350599280697274
 31
0.0
 12
10.755609342545339
 22
7.9850599280697274
 32
0.0
 13
10.755609342545339
 23
7.9850599280697274
 33
0.0
  0
TEXT
  5
1616
  8
0
  6
CONTINUOUS
 10
72.651219705037093
 20
16.011464365168049
 30
0.0
 40
0.12
  1
 
 51
7.0
  0
TEXT
  5
1617
  8
0
  6
CONTINUOUS
 10
85.095316470517005
 20
23.07433879489971
 30
0.0
 40
0.24
  1
 
 51
7.0
  0
TEXT
  5
1618
  8
0
  6
CONTINUOUS
 10
94.305081482430253
 20
22.754328808322629
 30
0.0
 40
0.24
  1
 
 51
7.0
  0
TEXT
  5
1619
  8
0
  6
CONTINUOUS
 10
104.10904096686291
 20
5.8917480087953029
 30
0.0
 40
0.24
  1
 
 51
7.0
  0
LINE
  5
16D1
  8
0
 10
0.0
 20
0.0
 30
0.0
 11
0.0
 21
17.0
 31
0.0
  0
LINE
  5
16D2
  8
0
 10
22.0
 20
0.0
 30
0.0
 11
22.0
 21
17.0
 31
0.0
  0
LINE
  5
16D3
  8
0
 10
0.0
 20
0.0
 30
0.0
 11
22.0
 21
0.0
 31
0.0
  0
LINE
  5
16D4
  8
0
 10
0.0
 20
17.0
 30
0.0
 11
22.0
 21
17.0
 31
0.0
  0
LINE
  5
1772
  8
FORM
 10
21.403846140107252
 20
0.7499999996674092
 30
0.0
 11
21.403846140107252
 21
15.153846144098431
 31
0.0
  0
LINE
  5
1773
  8
FORM
 10
21.249999986363441
 20
15.307692297842239
 30
0.0
 11
0.7499999996674376
 21
15.307692297842239
 31
0.0
  0
LINE
  5
1774
  8
FORM
 10
21.249999986363441
 20
0.5961538459236025
 30
0.0
 11
0.7499999996674376
 21
0.5961538459235954
 31
0.0
  0
LINE
  5
1775
  8
FORM
 10
0.5961538459236168
 20
0.7499999996674092
 30
0.0
 11
0.5961538459236168
 21
15.153846144098431
 31
0.0
  0
TEXT
  5
1778
  8
FORM
 10
16.770574233580561
 20
1.1177623757995749
 30
0.0
 40
0.260516826749781
  1
ASTROMECH DROID
  0
TEXT
  5
1779
  8
FORM
 10
20.85720038004996
 20
1.1278903102633671
 30
0.0
 40
0.260516826749781
  1
A
  0
TEXT
  5
177A
  8
FORM
 10
17.25446024791373
 20
0.813671414000872
 30
0.0
 40
0.1042067306999124
  1
FULL
  0
TEXT
  5
177B
  8
FORM
 10
20.593280544426019
 20
0.8165882189588344
 30
0.0
 40
0.1042067306999124
  1
1   1
  0
TEXT
  5
177C
  8
FORM
 10
18.867373488668239
 20
0.8246381046439915
 30
0.0
 40
0.1042067306999124
  1
APRIL 2005
 72
     2
 11
19.770498488067489
 21
0.8246381046439915
 31
0.0
  0
TEXT
  5
177D
  8
FORM
  6
CONTINUOUS
 10
18.118827913558601
 20
0.8235896747318066
 30
0.0
 40
0.0900346153247244
  1
DRAWN:
  0
TEXT
  5
177E
  8
FORM
  6
CONTINUOUS
 10
16.72518466957764
 20
0.8236741054737031
 30
0.0
 40
0.0900346153247244
  1
SCALE:
  0
TEXT
  5
177F
  8
FORM
  6
CONTINUOUS
 10
20.01795677316494
 20
0.8225458122742352
 30
0.0
 40
0.0900346153247244
  1
SHEET:   OF
  0
TEXT
  5
1780
  8
FORM
  6
CONTINUOUS
 10
16.560769897877751
 20
1.5378028837587541
 30
0.0
 40
0.0900346153247244
  1
DRAWING NO.
  0
TEXT
  5
1781
  8
FORM
  6
CONTINUOUS
 10
20.822311852397561
 20
1.537802883758743
 30
0.0
 40
0.0900346153247244
  1
REV.
 72
     1
 11
20.955220094067389
 21
1.537802883758743
 31
0.0
  0
LINE
  5
1782
  8
FORM
  6
CONTINUOUS
 10
16.703251912464879
 20
3.3610038440844141
 30
0.0
 11
21.02491344805162
 21
3.3610038440844141
 31
0.0
  0
LINE
  5
1783
  8
FORM
  6
CONTINUOUS
 10
16.478165374153061
 20
0.9750865379792159
 30
0.0
 11
16.478165374153029
 21
3.1359173057725931
 31
0.0
  0
LINE
  5
1784
  8
FORM
  6
CONTINUOUS
 10
16.478165374153061
 20
1.672854806745828
 30
0.0
 11
21.249999986363441
 21
1.672854806745828
 31
0.0
  0
LINE
  5
1785
  8
FORM
  6
CONTINUOUS
 10
16.478165374153061
 20
0.9750865379792159
 30
0.0
 11
21.249999986363441
 21
0.9750865379792159
 31
0.0
  0
LINE
  5
1786
  8
FORM
  6
CONTINUOUS
 10
17.97804237543275
 20
0.9750865379792159
 30
0.0
 11
17.97804237543275
 21
0.7499999996674092
 31
0.0
  0
LINE
  5
1787
  8
FORM
  6
CONTINUOUS
 10
19.950430811671389
 20
0.9723156702741989
 30
0.0
 11
19.950430811671389
 21
0.7472291319623921
 31
0.0
  0
LINE
  5
1788
  8
FORM
  6
CONTINUOUS
 10
20.65524763562988
 20
1.672854806745828
 30
0.0
 11
20.65524763562988
 21
0.9750865379792159
 31
0.0
  0
ARC
  5
1789
  8
FORM
 62
     5
 10
16.925603837263051
 20
2.683123263179624
 30
0.0
 40
0.0245481788339413
 50
152.18113099770551
 51
330.99098814993278
  0
ARC
  5
178A
  8
FORM
 62
     5
 10
17.03186349061718
 20
2.8877559907035391
 30
0.0
 40
0.0215248522646385
 50
335.32315363464198
 51
152.67224926330371
  0
ARC
  5
178B
  8
FORM
 62
     5
 10
18.67139281679863
 20
1.8778243841790809
 30
0.0
 40
1.9470863223045181
 50
148.41494327216151
 51
155.19852313243231
  0
ARC
  5
178C
  8
FORM
 62
     5
 10
19.04826621925363
 20
1.7448079813832851
 30
0.0
 40
2.2963564077758769
 50
150.40875710206339
 51
156.20744757951141
  0
ARC
  5
178D
  8
FORM
 62
     7
 10
16.856187689619201
 20
2.476891943456518
 30
0.0
 40
0.0328016362752216
 50
161.128725237971
 51
346.89295927401372
  0
ARC
  5
178E
  8
FORM
 62
     7
 10
26.446981545233939
 20
-1.665659984064163
 30
0.0
 40
10.414927500982669
 50
153.58307292081309
 51
156.60691138966209
  0
ARC
  5
178F
  8
FORM
 62
     7
 10
24.942765772362829
 20
-1.1245203992272681
 30
0.0
 40
8.873647082696257
 50
152.34095999775931
 51
152.9694116127464
  0
ARC
  5
1790
  8
FORM
 62
     7
 10
25.042235970541071
 20
-1.413551413076795
 30
0.0
 40
9.0960831006715779
 50
153.37112835275721
 51
154.60402195655351
  0
ARC
  5
1791
  8
FORM
 62
     7
 10
17.329398129118289
 20
2.8602652973761158
 30
0.0
 40
0.2358358050601862
 50
23.468725928191049
 51
88.151617587883351
  0
ARC
  5
1792
  8
FORM
 62
     7
 10
17.33466889121355
 20
2.8754695652234821
 30
0.0
 40
0.2783521476800796
 50
18.232625295665532
 51
154.63608874642679
  0
ARC
  5
1793
  8
FORM
 62
     7
 10
17.41806628342874
 20
2.9044827195306051
 30
0.0
 40
0.1900699214402894
 50
336.99722732837893
 51
341.11190659806488
  0
ARC
  5
1794
  8
FORM
 62
     7
 10
17.429371041778779
 20
2.912888609699027
 30
0.0
 40
0.1244898949022119
 50
333.24704424527522
 51
339.12675173356178
  0
ARC
  5
1795
  8
FORM
 62
     7
 10
17.547120806258562
 20
2.8541053585607901
 30
0.0
 40
0.007134896083525
 50
157.37475902115841
 51
243.18317341424029
  0
ARC
  5
1796
  8
FORM
 62
     7
 10
17.589262332130431
 20
2.8313183495512071
 30
0.0
 40
0.0039211308505914
 50
246.74236679857631
 51
343.55073793579641
  0
ARC
  5
1797
  8
FORM
 62
     7
 10
17.71265002297525
 20
3.1590467530149189
 30
0.0
 40
0.3541033340658146
 50
241.5396617947477
 51
249.33988332022491
  0
ARC
  5
1798
  8
FORM
 62
     7
 10
17.465116861604141
 20
2.7835275642507962
 30
0.0
 40
0.0699031230302257
 50
210.28645373052609
 51
287.25915125833183
  0
ARC
  5
1799
  8
FORM
 62
     7
 10
17.471123101482839
 20
2.7532989527990699
 30
0.0
 40
0.0393865134548433
 50
291.96730232828992
 51
10.20108836223371
  0
ARC
  5
179A
  8
FORM
 62
     7
 10
17.159843992632862
 20
2.6859329108208518
 30
0.0
 40
0.2527202610277017
 50
14.28109924276106
 51
24.947261539878259
  0
ARC
  5
179B
  8
FORM
 62
     7
 10
17.30724545805592
 20
2.7624795397720869
 30
0.0
 40
0.0870866377029319
 50
20.183063788867599
 51
47.833846572520187
  0
ARC
  5
179C
  8
FORM
 62
     7
 10
17.323525970686489
 20
2.7183682645997709
 30
0.0
 40
0.1165593648186974
 50
68.784960310907422
 51
94.742087985452599
  0
ARC
  5
179D
  8
FORM
 62
     7
 10
17.32225776675568
 20
2.7872533208520021
 30
0.0
 40
0.0480101674679103
 50
100.0375073429591
 51
170.98475346238999
  0
ARC
  5
179E
  8
FORM
 62
     7
 10
17.548079884465121
 20
2.754066770453373
 30
0.0
 40
0.2762551956077745
 50
171.52589863719891
 51
197.494741096675
  0
ARC
  5
179F
  8
FORM
 62
     7
 10
17.361988404409459
 20
2.757975203687443
 30
0.0
 40
0.1479164690482495
 50
0.8906501289532242
 51
49.113860192417171
  0
ARC
  5
17A0
  8
FORM
 62
     7
 10
17.330827327390121
 20
2.7851061194825268
 30
0.0
 40
0.1164203647136616
 50
99.869748807366761
 51
175.59516845025641
  0
ARC
  5
17A1
  8
FORM
 62
     7
 10
17.35181928853353
 20
2.721979015220195
 30
0.0
 40
0.1824780170187834
 50
54.104282451028169
 51
102.9674010870567
  0
ARC
  5
17A2
  8
FORM
 62
     7
 10
17.866825478371819
 20
2.8305495615738461
 30
0.0
 40
0.603682768180479
 50
195.32307896217739
 51
209.290843156958
  0
ARC
  5
17A3
  8
FORM
 62
     7
 10
17.676878331574731
 20
2.7315679572076941
 30
0.0
 40
0.4663319886455236
 50
172.3003020759547
 51
200.12627387409299
  0
ARC
  5
17A4
  8
FORM
 62
     7
 10
18.010296677355171
 20
2.8617220596188409
 30
0.0
 40
0.8242093741364085
 50
200.64629086238159
 51
210.0464960904439
  0
ARC
  5
17A5
  8
FORM
 62
     7
 10
16.87490984687733
 20
2.2228629736894798
 30
0.0
 40
0.5605059965149727
 50
28.43194910738432
 51
33.865461133002448
  0
ARC
  5
17A6
  8
FORM
 62
     7
 10
17.335282492148359
 20
2.4642291377128478
 30
0.0
 40
0.0413303405420145
 50
201.56446042640411
 51
38.094090168146302
  0
ARC
  5
17A7
  8
FORM
 62
     5
 10
17.698488306364109
 20
2.8075987703319072
 30
0.0
 40
0.0229902810191139
 50
227.6202696593605
 51
57.412112921204063
  0
ARC
  5
17A8
  8
FORM
 62
     5
 10
17.427351296879149
 20
2.453894972691713
 30
0.0
 40
0.4685807675213703
 50
52.766851639305898
 51
65.063571515457895
  0
ARC
  5
17A9
  8
FORM
 62
     5
 10
17.209234353189508
 20
2.115713416994772
 30
0.0
 40
0.8245845677332351
 50
54.932512589538803
 51
74.152868438598929
  0
ARC
  5
17AA
  8
FORM
 62
     5
 10
17.22112341118936
 20
1.8705744209651269
 30
0.0
 40
1.0600616451387339
 50
78.393012355262385
 51
89.647961077025343
  0
ARC
  5
17AB
  8
FORM
 62
     5
 10
17.225855158117209
 20
2.9613835761542329
 30
0.0
 40
0.0308190515998151
 50
183.9979944211656
 51
273.313807745882
  0
ARC
  5
17AC
  8
FORM
 62
     5
 10
17.329870384946641
 20
2.9695252211814269
 30
0.0
 40
0.135151603104915
 50
145.60859166919269
 51
184.36670732083471
  0
ARC
  5
17AD
  8
FORM
 62
     5
 10
17.246715832908791
 20
3.027923603152622
 30
0.0
 40
0.0335688941126511
 50
75.244714174009715
 51
147.6929850116162
  0
ARC
  5
17AE
  8
FORM
 62
     5
 10
16.846566400398309
 20
1.4922623483111219
 30
0.0
 40
1.6205076763160291
 50
61.637242241525243
 51
75.392005557716686
  0
ARC
  5
17AF
  8
FORM
 62
     5
 10
17.585771892302461
 20
2.8909845400545029
 30
0.0
 40
0.0409937741994102
 50
342.69825742684009
 51
41.67278378767756
  0
ARC
  5
17B0
  8
FORM
 62
     7
 10
17.41806628342874
 20
2.9044827195306051
 30
0.0
 40
0.1900699214402894
 50
5.6380312699922799
 51
17.791456368736839
  0
ARC
  5
17B1
  8
FORM
 62
     7
 10
17.5045622300951
 20
2.0088127942983891
 30
0.0
 40
0.0608207837544583
 50
88.432533024773406
 51
186.62631613112151
  0
ARC
  5
17B2
  8
FORM
 62
     7
 10
17.514107893903311
 20
2.0214944811508531
 30
0.0
 40
0.0726809031862866
 50
195.7266305128272
 51
285.3806868435185
  0
ARC
  5
17B3
  8
FORM
 62
     7
 10
17.428397303924321
 20
2.6646932328165849
 30
0.0
 40
0.7209618028535085
 50
278.37329371359471
 51
293.15208507016871
  0
ARC
  5
17B4
  8
FORM
 62
     7
 10
17.670280088548282
 20
2.2109164793858191
 30
0.0
 40
0.1486954171998164
 50
257.51805604168283
 51
277.23103351305667
  0
ARC
  5
17B5
  8
FORM
 62
     7
 10
17.67861701724112
 20
2.0887614153130118
 30
0.0
 40
0.0273997705390677
 50
292.26031345923337
 51
12.867379300523719
  0
ARC
  5
17B6
  8
FORM
 62
     7
 10
17.658243987918521
 20
2.0848332422543971
 30
0.0
 40
0.0481411784627428
 50
12.02537552739555
 51
52.143631645159317
  0
ARC
  5
17B7
  8
FORM
 62
     7
 10
18.68473167686761
 20
3.3322419147777782
 30
0.0
 40
1.5673362882102819
 50
219.60277928185971
 51
230.5002020408055
  0
ARC
  5
17B8
  8
FORM
 62
     7
 10
17.71719517775902
 20
2.5209914067630801
 30
0.0
 40
0.3048383262947374
 50
175.97523115435061
 51
218.04500009534141
  0
ARC
  5
17B9
  8
FORM
 62
     7
 10
17.587988709286751
 20
2.5516026198667592
 30
0.0
 40
0.1751226981011722
 50
149.96078860476399
 51
183.01641230856191
  0
ARC
  5
17BA
  8
FORM
 62
     7
 10
17.465652099646999
 20
2.6236413715572442
 30
0.0
 40
0.03317488584424
 50
69.764209445538683
 51
151.8988190455112
  0
ARC
  5
17BB
  8
FORM
 62
     7
 10
17.461738153470581
 20
2.621386420418637
 30
0.0
 40
0.0367584023789668
 50
357.6694469744499
 51
65.251102439515435
  0
ARC
  5
17BC
  8
FORM
 62
     7
 10
17.375127171955
 20
2.6142785816255478
 30
0.0
 40
0.1234666367742727
 50
345.36193237678458
 51
2.6056939300727819
  0
ARC
  5
17BD
  8
FORM
 62
     7
 10
17.770788346688299
 20
2.4976765653254129
 30
0.0
 40
0.289103498612585
 50
162.81861830880709
 51
185.35496664157321
  0
ARC
  5
17BE
  8
FORM
 62
     7
 10
17.738557938675601
 20
2.526678108373186
 30
0.0
 40
0.261669979998945
 50
192.3534994193023
 51
222.3020476696033
  0
ARC
  5
17BF
  8
FORM
 62
     7
 10
18.640000382871079
 20
3.2533952889623161
 30
0.0
 40
1.419181254971364
 50
219.50633019139829
 51
228.42762303996261
  0
ARC
  5
17C0
  8
FORM
 62
     7
 10
17.545150090279261
 20
1.9830014576086259
 30
0.0
 40
0.2588352891177654
 50
32.971129457978869
 51
53.728419363024337
  0
ARC
  5
17C1
  8
FORM
 62
     7
 10
17.685505274612321
 20
2.0841393566689059
 30
0.0
 40
0.0864595649942742
 50
287.74749415951351
 51
27.35211189662947
  0
ARC
  5
17C2
  8
FORM
 62
     7
 10
17.556150910590731
 20
1.521887384058928
 30
0.0
 40
0.5499940598264056
 50
81.426570944510203
 51
95.208118001959775
  0
ARC
  5
17C3
  8
FORM
 62
     7
 10
17.31874226594763
 20
2.379232385518228
 30
0.0
 40
0.0244848954091209
 50
325.52447187114308
 51
75.340502228459783
  0
ARC
  5
17C4
  8
FORM
 62
     7
 10
17.28857503182331
 20
2.4013816515593862
 30
0.0
 40
0.0619027859518531
 50
277.78730616127859
 51
324.42957968808531
  0
ARC
  5
17C5
  8
FORM
 62
     7
 10
17.277627430402191
 20
2.4116764447725738
 30
0.0
 40
0.0741905263351136
 50
243.48581874200181
 51
285.1065744639306
  0
ARC
  5
17C6
  8
FORM
 62
     7
 10
13.99616984532571
 20
-5.9734717723731041
 30
0.0
 40
9.0135811594364625
 50
68.327181839257534
 51
70.606105230637283
  0
ARC
  5
17C7
  8
FORM
 62
     7
 10
16.982860283602829
 20
2.502260489661857
 30
0.0
 40
0.0271571196358057
 50
76.445232091872299
 51
134.36352227876461
  0
ARC
  5
17C8
  8
FORM
 62
     7
 10
17.103601465049451
 20
2.316491870596419
 30
0.0
 40
0.2482433149023289
 50
124.2547762008316
 51
135.012931962436
  0
ARC
  5
17C9
  8
FORM
 62
     7
 10
16.932687772438332
 20
2.4840903864877362
 30
0.0
 40
0.0091691237651447
 50
120.5491196217084
 51
251.48388650457539
  0
ARC
  5
17CA
  8
FORM
 62
     7
 10
15.698852283122079
 20
-0.947959245240991
 30
0.0
 40
3.6379298384249581
 50
64.85742894317822
 51
67.515132469299331
  0
ARC
  5
17CB
  8
FORM
 62
     7
 10
17.23599357112948
 20
2.291795105104121
 30
0.0
 40
0.0343472402230129
 50
329.18566117941782
 51
69.527151249863806
  0
ARC
  5
17CC
  8
FORM
 62
     7
 10
17.145886072427881
 20
2.1556962750494151
 30
0.0
 40
0.1968392862921899
 50
58.747973844557571
 51
81.106226592028065
  0
ARC
  5
17CD
  8
FORM
 62
     7
 10
17.124947044127829
 20
2.0252080021495891
 30
0.0
 40
0.3289962935825703
 50
81.016817915507374
 51
97.679603827268224
  0
ARC
  5
17CE
  8
FORM
 62
     7
 10
17.159573600239298
 20
2.1240726877937131
 30
0.0
 40
0.2440398498458748
 50
121.5050128230593
 51
139.0957881060705
  0
ARC
  5
17CF
  8
FORM
 62
     7
 10
17.225825242067831
 20
2.2865562155100809
 30
0.0
 40
0.0415466234232141
 50
277.70569210516868
 51
342.69880024124109
  0
ARC
  5
17D0
  8
FORM
 62
     7
 10
17.213074197788071
 20
2.3334352792513711
 30
0.0
 40
0.0899365447321688
 50
250.08394506358289
 51
281.75453717228322
  0
ARC
  5
17D1
  8
FORM
 62
     7
 10
17.2424582627973
 20
2.3437609022874879
 30
0.0
 40
0.1122732419236369
 50
221.18187885427241
 51
237.68378775985289
  0
ARC
  5
17D2
  8
FORM
 62
     7
 10
17.11078230927049
 20
2.213603979985677
 30
0.0
 40
0.0733994924367979
 50
50.003848755011681
 51
75.5416830098399
  0
ARC
  5
17D3
  8
FORM
 62
     7
 10
17.10690002874345
 20
2.2402084319691471
 30
0.0
 40
0.0497074536252231
 50
63.4626603498468
 51
100.74200229027051
  0
ARC
  5
17D4
  8
FORM
 62
     7
 10
17.09763521067913
 20
2.2049366923578511
 30
0.0
 40
0.0841081409133923
 50
89.999999999999588
 51
125.5974615489027
  0
ARC
  5
17D5
  8
FORM
 62
     7
 10
18.09535908495533
 20
2.805145934228654
 30
0.0
 40
1.1637748462988311
 50
197.51922498184919
 51
203.981481444731
  0
ARC
  5
17D6
  8
FORM
 62
     7
 10
16.736982371619181
 20
2.433687501517297
 30
0.0
 40
0.3537389089231183
 50
346.52409876011302
 51
356.71498770316703
  0
ARC
  5
17D7
  8
FORM
 62
     7
 10
15.698852283122079
 20
-0.947959245240991
 30
0.0
 40
3.6379298384249581
 50
69.286600818944052
 51
70.22311760076802
  0
ARC
  5
17D8
  8
FORM
 62
     7
 10
16.92789692922846
 20
2.1257895907104252
 30
0.0
 40
0.1066736432871782
 50
245.40259669902051
 51
275.40975098180542
  0
ARC
  5
17D9
  8
FORM
 62
     7
 10
17.301941284744
 20
1.9333049606058379
 30
0.0
 40
0.4239787481416163
 50
126.68044463040199
 51
139.78708822539889
  0
ARC
  5
17DA
  8
FORM
 62
     7
 10
16.925901396850119
 20
2.42585100124619
 30
0.0
 40
0.4064386631288638
 50
271.69929119420118
 51
283.39540842056908
  0
ARC
  5
17DB
  8
FORM
 62
     7
 10
17.685900196427319
 20
1.487877603185271
 30
0.0
 40
1.0089968057446299
 50
134.5410403491789
 51
138.91474429089899
  0
ARC
  5
17DC
  8
FORM
 62
     7
 10
16.942625607711989
 20
2.1366275124138698
 30
0.0
 40
0.0266928289273625
 50
201.8252958964795
 51
267.16449786715452
  0
ARC
  5
17DD
  8
FORM
 62
     7
 10
16.936879259411789
 20
2.1340951027918962
 30
0.0
 40
0.0204180021895292
 50
124.254854327418
 51
201.22329273937871
  0
ARC
  5
17DE
  8
FORM
 62
     7
 10
16.999050226745201
 20
2.1174828639755172
 30
0.0
 40
0.0895139066856433
 50
283.5751770312794
 51
324.58969283639942
  0
ARC
  5
17DF
  8
FORM
 62
     7
 10
17.05010181640597
 20
2.0748500422369349
 30
0.0
 40
0.0237711578752802
 50
337.14160324238759
 51
47.56496670892831
  0
ARC
  5
17E0
  8
FORM
 62
     7
 10
17.01351320176212
 20
2.0225775754130799
 30
0.0
 40
0.0874305156836371
 50
52.990730681111657
 51
91.748895977531376
  0
ARC
  5
17E1
  8
FORM
 62
     7
 10
16.97607501860476
 20
2.3473211427073291
 30
0.0
 40
0.2398869733850244
 50
261.66603807207321
 51
278.33396192792679
  0
ARC
  5
17E2
  8
FORM
 62
     7
 10
16.904055290181631
 20
2.0802584334887442
 30
0.0
 40
0.0554174778483587
 50
192.64550774538381
 51
248.2223967256862
  0
ARC
  5
17E3
  8
FORM
 62
     7
 10
16.890435234000019
 20
2.0865365172575769
 30
0.0
 40
0.0444453205431241
 50
178.88427582775461
 51
204.46998391858139
  0
ARC
  5
17E4
  8
FORM
 62
     7
 10
17.00038134049046
 20
2.0753041716250129
 30
0.0
 40
0.1548562786887746
 50
140.54690015149379
 51
175.5193383191162
  0
ARC
  5
17E5
  8
FORM
 62
     7
 10
18.525663181526959
 20
0.8608942872864346
 30
0.0
 40
2.1045236570324608
 50
137.45643980933039
 51
141.40545593619069
  0
POLYLINE
  5
17E6
  8
FORM
 62
     1
 10
17.275622491608207
 20
3.0402781737931805
 30
0.0
 66
     1
 70
     8
  0
VERTEX
  8
FORM
  5
1992
 10
17.2756
 20
3.04028
 30
0.000000
  70
    32
  0
VERTEX
  8
FORM
  5
1993
 10
17.2747
 20
3.04062
 30
0.000000
  70
    32
  0
VERTEX
  8
FORM
  5
1994
 10
17.2737
 20
3.04086
 30
0.000000
  70
    32
  0
VERTEX
  8
FORM
  5
1995
 10
17.2727
 20
3.04098
 30
0.000000
  70
    32
  0
VERTEX
  8
FORM
  5
1996
 10
17.2716
 20
3.04100
 30
0.000000
  70
    32
  0
VERTEX
  8
FORM
  5
1997
 10
17.2705
 20
3.04091
 30
0.000000
  70
    32
  0
VERTEX
  8
FORM
  5
1998
 10
17.2694
 20
3.04070
 30
0.000000
  70
    32
  0
VERTEX
  8
FORM
  5
1999
 10
17.2682
 20
3.04039
 30
0.000000
  70
    32
  0
VERTEX
  8
FORM
  5
199A
 10
17.2670
 20
3.03997
 30
0.000000
  70
    32
  0
VERTEX
  8
FORM
  5
199B
 10
17.2658
 20
3.03944
 30
0.000000
  70
    32
  0
VERTEX
  8
FORM
  5
199C
 10
17.2646
 20
3.03880
 30
0.000000
  70
    32
  0
VERTEX
  8
FORM
  5
199D
 10
17.2633
 20
3.03806
 30
0.000000
  70
    32
  0
VERTEX
  8
FORM
  5
199E
 10
17.2620
 20
3.03722
 30
0.000000
  70
    32
  0
VERTEX
  8
FORM
  5
199F
 10
17.2607
 20
3.03627
 30
0.000000
  70
    32
  0
VERTEX
  8
FORM
  5
19A0
 10
17.2594
 20
3.03523
 30
0.000000
  70
    32
  0
VERTEX
  8
FORM
  5
19A1
 10
17.2581
 20
3.03409
 30
0.000000
  70
    32
  0
VERTEX
  8
FORM
  5
19A2
 10
17.2568
 20
3.03286
 30
0.000000
  70
    32
  0
VERTEX
  8
FORM
  5
19A3
 10
17.2554
 20
3.03154
 30
0.000000
  70
    32
  0
VERTEX
  8
FORM
  5
19A4
 10
17.2541
 20
3.03013
 30
0.000000
  70
    32
  0
VERTEX
  8
FORM
  5
19A5
 10
17.2528
 20
3.02864
 30
0.000000
  70
    32
  0
VERTEX
  8
FORM
  5
19A6
 10
17.2515
 20
3.02706
 30
0.000000
  70
    32
  0
VERTEX
  8
FORM
  5
19A7
 10
17.2502
 20
3.02541
 30
0.000000
  70
    32
  0
VERTEX
  8
FORM
  5
19A8
 10
17.2489
 20
3.02369
 30
0.000000
  70
    32
  0
VERTEX
  8
FORM
  5
19A9
 10
17.2476
 20
3.02190
 30
0.000000
  70
    32
  0
VERTEX
  8
FORM
  5
19AA
 10
17.2464
 20
3.02004
 30
0.000000
  70
    32
  0
VERTEX
  8
FORM
  5
19AB
 10
17.2451
 20
3.01813
 30
0.000000
  70
    32
  0
VERTEX
  8
FORM
  5
19AC
 10
17.2439
 20
3.01616
 30
0.000000
  70
    32
  0
VERTEX
  8
FORM
  5
19AD
 10
17.2427
 20
3.01414
 30
0.000000
  70
    32
  0
VERTEX
  8
FORM
  5
19AE
 10
17.2416
 20
3.01208
 30
0.000000
  70
    32
  0
VERTEX
  8
FORM
  5
19AF
 10
17.2405
 20
3.00997
 30
0.000000
  70
    32
  0
VERTEX
  8
FORM
  5
19B0
 10
17.2394
 20
3.00783
 30
0.000000
  70
    32
  0
VERTEX
  8
FORM
  5
19B1
 10
17.2384
 20
3.00566
 30
0.000000
  70
    32
  0
VERTEX
  8
FORM
  5
19B2
 10
17.2374
 20
3.00347
 30
0.000000
  70
    32
  0
VERTEX
  8
FORM
  5
19B3
 10
17.2364
 20
3.00125
 30
0.000000
  70
    32
  0
VERTEX
  8
FORM
  5
19B4
 10
17.2356
 20
2.99902
 30
0.000000
  70
    32
  0
VERTEX
  8
FORM
  5
19B5
 10
17.2347
 20
2.99679
 30
0.000000
  70
    32
  0
VERTEX
  8
FORM
  5
19B6
 10
17.2339
 20
2.99454
 30
0.000000
  70
    32
  0
VERTEX
  8
FORM
  5
19B7
 10
17.2332
 20
2.99231
 30
0.000000
  70
    32
  0
VERTEX
  8
FORM
  5
19B8
 10
17.2325
 20
2.99007
 30
0.000000
  70
    32
  0
VERTEX
  8
FORM
  5
19B9
 10
17.2318
 20
2.98785
 30
0.000000
  70
    32
  0
VERTEX
  8
FORM
  5
19BA
 10
17.2313
 20
2.98565
 30
0.000000
  70
    32
  0
VERTEX
  8
FORM
  5
19BB
 10
17.2307
 20
2.98348
 30
0.000000
  70
    32
  0
VERTEX
  8
FORM
  5
19BC
 10
17.2303
 20
2.98133
 30
0.000000
  70
    32
  0
VERTEX
  8
FORM
  5
19BD
 10
17.2299
 20
2.97921
 30
0.000000
  70
    32
  0
VERTEX
  8
FORM
  5
19BE
 10
17.2296
 20
2.97713
 30
0.000000
  70
    32
  0
VERTEX
  8
FORM
  5
19BF
 10
17.2293
 20
2.97510
 30
0.000000
  70
    32
  0
VERTEX
  8
FORM
  5
19C0
 10
17.2291
 20
2.97312
 30
0.000000
  70
    32
  0
VERTEX
  8
FORM
  5
19C1
 10
17.2289
 20
2.97119
 30
0.000000
  70
    32
  0
VERTEX
  8
FORM
  5
19C2
 10
17.2289
 20
2.96931
 30
0.000000
  70
    32
  0
VERTEX
  8
FORM
  5
19C3
 10
17.2289
 20
2.96751
 30
0.000000
  70
    32
  0
VERTEX
  8
FORM
  5
19C4
 10
17.2289
 20
2.96576
 30
0.000000
  70
    32
  0
VERTEX
  8
FORM
  5
19C5
 10
17.2290
 20
2.96409
 30
0.000000
  70
    32
  0
VERTEX
  8
FORM
  5
19C6
 10
17.2292
 20
2.96250
 30
0.000000
  70
    32
  0
VERTEX
  8
FORM
  5
19C7
 10
17.2295
 20
2.96098
 30
0.000000
  70
    32
  0
VERTEX
  8
FORM
  5
19C8
 10
17.2298
 20
2.95955
 30
0.000000
  70
    32
  0
VERTEX
  8
FORM
  5
19C9
 10
17.2301
 20
2.95820
 30
0.000000
  70
    32
  0
VERTEX
  8
FORM
  5
19CA
 10
17.2306
 20
2.95694
 30
0.000000
  70
    32
  0
VERTEX
  8
FORM
  5
19CB
 10
17.2311
 20
2.95577
 30
0.000000
  70
    32
  0
VERTEX
  8
FORM
  5
19CC
 10
17.2316
 20
2.95470
 30
0.000000
  70
    32
  0
VERTEX
  8
FORM
  5
19CD
 10
17.2323
 20
2.95373
 30
0.000000
  70
    32
  0
VERTEX
  8
FORM
  5
19CE
 10
17.2329
 20
2.95286
 30
0.000000
  70
    32
  0
VERTEX
  8
FORM
  5
19CF
 10
17.2337
 20
2.95209
 30
0.000000
  70
    32
  0
VERTEX
  8
FORM
  5
19D0
 10
17.2344
 20
2.95142
 30
0.000000
  70
    32
  0
VERTEX
  8
FORM
  5
19D1
 10
17.2353
 20
2.95086
 30
0.000000
  70
    32
  0
VERTEX
  8
FORM
  5
19D2
 10
17.2362
 20
2.95041
 30
0.000000
  70
    32
  0
VERTEX
  8
FORM
  5
19D3
 10
17.2371
 20
2.95007
 30
0.000000
  70
    32
  0
VERTEX
  8
FORM
  5
19D4
 10
17.2381
 20
2.94983
 30
0.000000
  70
    32
  0
VERTEX
  8
FORM
  5
19D5
 10
17.2391
 20
2.94971
 30
0.000000
  70
    32
  0
VERTEX
  8
FORM
  5
19D6
 10
17.2401
 20
2.94969
 30
0.000000
  70
    32
  0
VERTEX
  8
FORM
  5
19D7
 10
17.2412
 20
2.94978
 30
0.000000
  70
    32
  0
VERTEX
  8
FORM
  5
19D8
 10
17.2424
 20
2.94999
 30
0.000000
  70
    32
  0
VERTEX
  8
FORM
  5
19D9
 10
17.2435
 20
2.95030
 30
0.000000
  70
    32
  0
VERTEX
  8
FORM
  5
19DA
 10
17.2447
 20
2.95072
 30
0.000000
  70
    32
  0
VERTEX
  8
FORM
  5
19DB
 10
17.2460
 20
2.95125
 30
0.000000
  70
    32
  0
VERTEX
  8
FORM
  5
19DC
 10
17.2472
 20
2.95189
 30
0.000000
  70
    32
  0
VERTEX
  8
FORM
  5
19DD
 10
17.2485
 20
2.95263
 30
0.000000
  70
    32
  0
VERTEX
  8
FORM
  5
19DE
 10
17.2498
 20
2.95347
 30
0.000000
  70
    32
  0
VERTEX
  8
FORM
  5
19DF
 10
17.2511
 20
2.95442
 30
0.000000
  70
    32
  0
VERTEX
  8
FORM
  5
19E0
 10
17.2524
 20
2.95546
 30
0.000000
  70
    32
  0
VERTEX
  8
FORM
  5
19E1
 10
17.2537
 20
2.95660
 30
0.000000
  70
    32
  0
VERTEX
  8
FORM
  5
19E2
 10
17.2550
 20
2.95783
 30
0.000000
  70
    32
  0
VERTEX
  8
FORM
  5
19E3
 10
17.2563
 20
2.95915
 30
0.000000
  70
    32
  0
VERTEX
  8
FORM
  5
19E4
 10
17.2577
 20
2.96056
 30
0.000000
  70
    32
  0
VERTEX
  8
FORM
  5
19E5
 10
17.2590
 20
2.96205
 30
0.000000
  70
    32
  0
VERTEX
  8
FORM
  5
19E6
 10
17.2603
 20
2.96363
 30
0.000000
  70
    32
  0
VERTEX
  8
FORM
  5
19E7
 10
17.2616
 20
2.96528
 30
0.000000
  70
    32
  0
VERTEX
  8
FORM
  5
19E8
 10
17.2629
 20
2.96700
 30
0.000000
  70
    32
  0
VERTEX
  8
FORM
  5
19E9
 10
17.2642
 20
2.96879
 30
0.000000
  70
    32
  0
VERTEX
  8
FORM
  5
19EA
 10
17.2654
 20
2.97065
 30
0.000000
  70
    32
  0
VERTEX
  8
FORM
  5
19EB
 10
17.2667
 20
2.97256
 30
0.000000
  70
    32
  0
VERTEX
  8
FORM
  5
19EC
 10
17.2679
 20
2.97453
 30
0.000000
  70
    32
  0
VERTEX
  8
FORM
  5
19ED
 10
17.2690
 20
2.97655
 30
0.000000
  70
    32
  0
VERTEX
  8
FORM
  5
19EE
 10
17.2702
 20
2.97861
 30
0.000000
  70
    32
  0
VERTEX
  8
FORM
  5
19EF
 10
17.2713
 20
2.98072
 30
0.000000
  70
    32
  0
VERTEX
  8
FORM
  5
19F0
 10
17.2724
 20
2.98286
 30
0.000000
  70
    32
  0
VERTEX
  8
FORM
  5
19F1
 10
17.2734
 20
2.98503
 30
0.000000
  70
    32
  0
VERTEX
  8
FORM
  5
19F2
 10
17.2744
 20
2.98722
 30
0.000000
  70
    32
  0
VERTEX
  8
FORM
  5
19F3
 10
17.2753
 20
2.98944
 30
0.000000
  70
    32
  0
VERTEX
  8
FORM
  5
19F4
 10
17.2762
 20
2.99167
 30
0.000000
  70
    32
  0
VERTEX
  8
FORM
  5
19F5
 10
17.2771
 20
2.99390
 30
0.000000
  70
    32
  0
VERTEX
  8
FORM
  5
19F6
 10
17.2779
 20
2.99615
 30
0.000000
  70
    32
  0
VERTEX
  8
FORM
  5
19F7
 10
17.2786
 20
2.99838
 30
0.000000
  70
    32
  0
VERTEX
  8
FORM
  5
19F8
 10
17.2793
 20
3.00062
 30
0.000000
  70
    32
  0
VERTEX
  8
FORM
  5
19F9
 10
17.2800
 20
3.00284
 30
0.000000
  70
    32
  0
VERTEX
  8
FORM
  5
19FA
 10
17.2805
 20
3.00504
 30
0.000000
  70
    32
  0
VERTEX
  8
FORM
  5
19FB
 10
17.2810
 20
3.00721
 30
0.000000
  70
    32
  0
VERTEX
  8
FORM
  5
19FC
 10
17.2815
 20
3.00936
 30
0.000000
  70
    32
  0
VERTEX
  8
FORM
  5
19FD
 10
17.2819
 20
3.01148
 30
0.000000
  70
    32
  0
VERTEX
  8
FORM
  5
19FE
 10
17.2822
 20
3.01356
 30
0.000000
  70
    32
  0
VERTEX
  8
FORM
  5
19FF
 10
17.2825
 20
3.01559
 30
0.000000
  70
    32
  0
VERTEX
  8
FORM
  5
1A00
 10
17.2827
 20
3.01757
 30
0.000000
  70
    32
  0
VERTEX
  8
FORM
  5
1A01
 10
17.2828
 20
3.01950
 30
0.000000
  70
    32
  0
VERTEX
  8
FORM
  5
1A02
 10
17.2829
 20
3.02137
 30
0.000000
  70
    32
  0
VERTEX
  8
FORM
  5
1A03
 10
17.2829
 20
3.02318
 30
0.000000
  70
    32
  0
VERTEX
  8
FORM
  5
1A04
 10
17.2829
 20
3.02493
 30
0.000000
  70
    32
  0
VERTEX
  8
FORM
  5
1A05
 10
17.2828
 20
3.02660
 30
0.000000
  70
    32
  0
VERTEX
  8
FORM
  5
1A06
 10
17.2826
 20
3.02819
 30
0.000000
  70
    32
  0
VERTEX
  8
FORM
  5
1A07
 10
17.2823
 20
3.02971
 30
0.000000
  70
    32
  0
VERTEX
  8
FORM
  5
1A08
 10
17.2820
 20
3.03114
 30
0.000000
  70
    32
  0
VERTEX
  8
FORM
  5
1A09
 10
17.2816
 20
3.03249
 30
0.000000
  70
    32
  0
VERTEX
  8
FORM
  5
1A0A
 10
17.2812
 20
3.03375
 30
0.000000
  70
    32
  0
VERTEX
  8
FORM
  5
1A0B
 10
17.2807
 20
3.03492
 30
0.000000
  70
    32
  0
VERTEX
  8
FORM
  5
1A0C
 10
17.2801
 20
3.03599
 30
0.000000
  70
    32
  0
VERTEX
  8
FORM
  5
1A0D
 10
17.2795
 20
3.03696
 30
0.000000
  70
    32
  0
VERTEX
  8
FORM
  5
1A0E
 10
17.2789
 20
3.03783
 30
0.000000
  70
    32
  0
VERTEX
  8
FORM
  5
1A0F
 10
17.2781
 20
3.03860
 30
0.000000
  70
    32
  0
VERTEX
  8
FORM
  5
1A10
 10
17.2773
 20
3.03927
 30
0.000000
  70
    32
  0
VERTEX
  8
FORM
  5
1A11
 10
17.2765
 20
3.03983
 30
0.000000
  70
    32
  0
VERTEX
  8
FORM
  5
1A12
 10
17.2756
 20
3.04028
 30
0.000000
  70
    32
  0
SEQEND
  8
FORM
  5
1A13
  0
ARC
  5
17E7
  8
FORM
 62
     7
 10
17.31969472840197
 20
2.8767429643067852
 30
0.0
 40
0.2199177503197187
 50
85.485448269952457
 51
155.5006785655419
  0
TEXT
  5
17E8
  8
FORM
 62
     7
 10
16.545907219234731
 20
1.726726372181332
 30
0.0
 40
0.0861538460965367
  1
R2-D2 BUILDERS CLUB
  0
ARC
  5
17E9
  8
FORM
 10
0.7499999996674376
 20
0.7499999996674092
 30
0.0
 40
0.1538461537438154
 50
180.0
 51
270.0
  0
ARC
  5
17EA
  8
FORM
 10
0.7499999996674376
 20
0.7499999996674092
 30
0.0
 40
0.3076923074876307
 50
180.0
 51
270.0
  0
ARC
  5
17EB
  8
FORM
 10
0.7499999996674376
 20
0.7499999996674092
 30
0.0
 40
0.3461538459235846
 50
180.0
 51
270.0
  0
ARC
  5
17EC
  8
FORM
 10
0.7499999996674376
 20
0.7499999996674092
 30
0.0
 40
0.4999999996674
 50
180.0
 51
270.0
  0
ARC
  5
17ED
  8
FORM
 10
0.7499999996674376
 20
15.153846144098431
 30
0.0
 40
0.4999999996674
 50
90.0
 51
180.0
  0
ARC
  5
17EE
  8
FORM
 10
0.7499999996674376
 20
15.153846144098431
 30
0.0
 40
0.3461538459235846
 50
90.0
 51
180.0
  0
ARC
  5
17EF
  8
FORM
 10
0.7499999996674376
 20
15.153846144098431
 30
0.0
 40
0.3076923074876307
 50
90.0
 51
180.0
  0
ARC
  5
17F0
  8
FORM
 10
0.7499999996674376
 20
15.153846144098431
 30
0.0
 40
0.1538461537438154
 50
90.0
 51
180.0
  0
ARC
  5
17F1
  8
FORM
 10
21.249999986363441
 20
15.153846144098431
 30
0.0
 40
0.3076923074876307
 50
0.0
 51
90.0
  0
ARC
  5
17F2
  8
FORM
 10
21.249999986363441
 20
15.153846144098431
 30
0.0
 40
0.3461538459235846
 50
0.0
 51
90.0
  0
ARC
  5
17F3
  8
FORM
 10
21.249999986363441
 20
15.153846144098431
 30
0.0
 40
0.4999999996674
 50
0.0
 51
90.0
  0
ARC
  5
17F4
  8
FORM
 10
21.249999986363441
 20
15.153846144098431
 30
0.0
 40
0.1538461537438154
 50
0.0
 51
90.0
  0
ARC
  5
17F5
  8
FORM
 10
21.249999986363441
 20
0.7499999996674092
 30
0.0
 40
0.4999999996674
 50
270.0
 51
0.0
  0
ARC
  5
17F6
  8
FORM
 10
21.249999986363441
 20
0.7499999996674092
 30
0.0
 40
0.3461538459235846
 50
270.0
 51
0.0
  0
ARC
  5
17F7
  8
FORM
 10
21.249999986363441
 20
0.7499999996674092
 30
0.0
 40
0.3076923074876307
 50
270.0
 51
0.0
  0
ARC
  5
17F8
  8
FORM
 10
21.249999986363441
 20
0.7499999996674092
 30
0.0
 40
0.1538461537438154
 50
270.0
 51
0.0
  0
LINE
  5
17F9
  8
FORM
 10
21.249999986363441
 20
0.4423076921797886
 30
0.0
 11
0.7499999996674376
 21
0.442307692179778
 31
0.0
  0
LINE
  5
17FA
  8
FORM
 10
21.249999986363441
 20
0.4038461537438352
 30
0.0
 11
0.7499999996674376
 21
0.4038461537438245
 31
0.0
  0
LINE
  5
17FB
  8
FORM
 10
21.249999986363441
 20
0.2500000000000071
 30
0.0
 11
0.7499999996674376
 21
0.25
 31
0.0
  0
LINE
  5
17FC
  8
FORM
 10
21.55769229385108
 20
0.7499999996674092
 30
0.0
 11
21.55769229385108
 21
15.153846144098431
 31
0.0
  0
LINE
  5
17FD
  8
FORM
 10
21.59615383228703
 20
0.7499999996674092
 30
0.0
 11
21.59615383228703
 21
15.153846144098431
 31
0.0
  0
LINE
  5
17FE
  8
FORM
 10
21.74999998603084
 20
0.7499999996674092
 30
0.0
 11
21.74999998603084
 21
15.153846144098431
 31
0.0
  0
LINE
  5
17FF
  8
FORM
 10
21.249999986363441
 20
15.46153845158606
 30
0.0
 11
0.7499999996674376
 21
15.46153845158606
 31
0.0
  0
LINE
  5
1800
  8
FORM
 10
21.249999986363441
 20
15.499999990022021
 30
0.0
 11
0.7499999996674376
 21
15.499999990022021
 31
0.0
  0
LINE
  5
1801
  8
FORM
 10
21.249999986363441
 20
15.653846143765829
 30
0.0
 11
0.7499999996674376
 21
15.653846143765829
 31
0.0
  0
LINE
  5
1802
  8
FORM
 10
0.4423076921798029
 20
0.7499999996674092
 30
0.0
 11
0.4423076921798029
 21
15.153846144098431
 31
0.0
  0
LINE
  5
1803
  8
FORM
 10
0.4038461537438565
 20
0.7499999996674092
 30
0.0
 11
0.4038461537438565
 21
15.153846144098431
 31
0.0
  0
LINE
  5
1804
  8
FORM
 10
0.25
 20
0.7499999996674092
 30
0.0
 11
0.2500000000000426
 21
15.153846144098431
 31
0.0
  0
LINE
  5
1805
  8
FORM
  6
CONTINUOUS
 10
16.703251912464879
 20
0.7499999996674092
 30
0.0
 11
21.02491344805162
 21
0.7499999996674092
 31
0.0
  0
LINE
  5
1806
  8
FORM
  6
CONTINUOUS
 10
21.249999986363441
 20
3.1359173057725931
 30
0.0
 11
21.249999986363441
 21
0.9750865379792159
 31
0.0
  0
ARC
  5
1807
  8
FORM
  6
CONTINUOUS
 10
21.02491344805162
 20
0.9750865379792159
 30
0.0
 40
0.2250865383118096
 50
270.0
 51
0.0
  0
ARC
  5
1808
  8
FORM
  6
CONTINUOUS
 10
21.02491344805162
 20
3.1359173057725931
 30
0.0
 40
0.2250865383118096
 50
359.99999999999989
 51
90.0
  0
ARC
  5
1809
  8
FORM
  6
CONTINUOUS
 10
16.703251912464879
 20
0.9750865379792159
 30
0.0
 40
0.2250865383118096
 50
180.0
 51
270.0
  0
ARC
  5
180A
  8
FORM
  6
CONTINUOUS
 10
16.703251912464879
 20
3.1359173057725931
 30
0.0
 40
0.2250865383118096
 50
90.0
 51
180.0
  0
LINE
  5
194F
  8
0
 10
0.7499999996674376
 20
0.7499999996674092
 30
0.0
 11
0.7499999996674376
 21
1.7499999996674089
 31
0.0
  0
LINE
  5
1950
  8
0
 10
0.7499999996674376
 20
0.8749999996674091
 30
0.0
 11
0.8749999996674375
 21
0.8749999996674091
 31
0.0
  0
LINE
  5
1951
  8
0
 10
0.7499999996674376
 20
0.9999999996674091
 30
0.0
 11
0.9999999996674375
 21
0.9999999996674091
 31
0.0
  0
LINE
  5
1952
  8
0
 10
0.7499999996674376
 20
1.1249999996674089
 30
0.0
 11
0.8749999996674375
 21
1.1249999996674089
 31
0.0
  0
LINE
  5
1953
  8
0
 10
0.7499999996674376
 20
1.2499999996674089
 30
0.0
 11
1.1249999996674369
 21
1.2499999996674089
 31
0.0
  0
LINE
  5
1954
  8
0
 10
0.7499999996674376
 20
1.3749999996674089
 30
0.0
 11
0.8749999996674375
 21
1.3749999996674089
 31
0.0
  0
LINE
  5
1955
  8
0
 10
0.7499999996674376
 20
1.4999999996674089
 30
0.0
 11
0.9999999996674375
 21
1.4999999996674089
 31
0.0
  0
LINE
  5
1956
  8
0
 10
0.7499999996674376
 20
1.6249999996674089
 30
0.0
 11
0.8749999996674375
 21
1.6249999996674089
 31
0.0
  0
LINE
  5
1957
  8
0
 10
0.7499999996674376
 20
1.7499999996674089
 30
0.0
 11
1.1249999996674369
 21
1.7499999996674089
 31
0.0
  0
LINE
  5
1958
  8
0
 10
0.7499999996674376
 20
0.7499999996674092
 30
0.0
 11
1.1249999996674369
 21
0.7499999996674092
 31
0.0
  0
TEXT
  5
1959
  8
0
 10
1.1742687732938739
 20
1.216959438666926
 30
0.0
 40
0.0625
  1
1/2"
  0
TEXT
  5
195A
  8
0
 10
0.9242687732938748
 20
1.091959438666926
 30
0.0
 40
0.0625
  1
3/8"
  0
TEXT
  5
195B
  8
0
 10
1.0492687732938739
 20
0.966959438666926
 30
0.0
 40
0.0625
  1
1/4"
  0
TEXT
  5
195C
  8
0
 10
0.9242687732938748
 20
0.841959438666926
 30
0.0
 40
0.0625
  1
1/8"
  0
TEXT
  5
195D
  8
0
 10
0.9242687732938748
 20
1.341959438666926
 30
0.0
 40
0.0625
  1
5/8"
  0
TEXT
  5
195E
  8
0
 10
1.0492687732938739
 20
1.466959438666926
 30
0.0
 40
0.0625
  1
3/4"
  0
TEXT
  5
195F
  8
0
 10
0.9242687732938748
 20
1.591959438666926
 30
0.0
 40
0.0625
  1
7/8"
  0
TEXT
  5
1960
  8
0
 10
1.1742687732938739
 20
1.716959438666926
 30
0.0
 40
0.0625
  1
1"
  0
ENDSEC
  0
EOF
