  0
SECTION
  2
HEADER
  9
$ACADVER
  1
AC1009
  9
$INSBASE
 10
0.0
 20
0.0
 30
0.0
  9
$EXTMIN
 10
0.0
 20
0.0
 30
0.0
  9
$EXTMAX
 10
67.999999999999972
 20
44.0
 30
0.0
  9
$LIMMIN
 10
0.0
 20
0.0
  9
$LIMMAX
 10
12.0
 20
9.0
  9
$ORTHOMODE
 70
     1
  9
$REGENMODE
 70
     1
  9
$FILLMODE
 70
     1
  9
$QTEXTMODE
 70
     0
  9
$MIRRTEXT
 70
     1
  9
$DRAGMODE
 70
     2
  9
$LTSCALE
 40
1.0
  9
$OSMODE
 70
    39
  9
$ATTMODE
 70
     1
  9
$TEXTSIZE
 40
0.18
  9
$TRACEWID
 40
0.05
  9
$TEXTSTYLE
  7
STANDARD
  9
$CLAYER
  8
0
  9
$CELTYPE
  6
BYLAYER
  9
$CECOLOR
 62
   256
  9
$DIMSCALE
 40
1.0
  9
$DIMASZ
 40
0.18
  9
$DIMEXO
 40
0.0625
  9
$DIMDLI
 40
0.38
  9
$DIMRND
 40
0.0
  9
$DIMDLE
 40
0.0
  9
$DIMEXE
 40
0.0625
  9
$DIMTP
 40
0.0
  9
$DIMTM
 40
0.0
  9
$DIMTXT
 40
0.18
  9
$DIMCEN
 40
0.0
  9
$DIMTSZ
 40
0.0
  9
$DIMTOL
 70
     0
  9
$DIMLIM
 70
     0
  9
$DIMTIH
 70
     1
  9
$DIMTOH
 70
     1
  9
$DIMSE1
 70
     0
  9
$DIMSE2
 70
     0
  9
$DIMTAD
 70
     0
  9
$DIMZIN
 70
     0
  9
$DIMBLK
  1

  9
$DIMASO
 70
     1
  9
$DIMSHO
 70
     1
  9
$DIMPOST
  1

  9
$DIMAPOST
  1

  9
$DIMALT
 70
     0
  9
$DIMALTD
 70
     2
  9
$DIMALTF
 40
25.399999999999999
  9
$DIMLFAC
 40
1.0
  9
$DIMTOFL
 70
     0
  9
$DIMTVP
 40
0.0
  9
$DIMTIX
 70
     0
  9
$DIMSOXD
 70
     0
  9
$DIMSAH
 70
     0
  9
$DIMBLK1
  1

  9
$DIMBLK2
  1

  9
$DIMSTYLE
  2
STANDARD
  9
$DIMCLRD
 70
     0
  9
$DIMCLRE
 70
     0
  9
$DIMCLRT
 70
     0
  9
$DIMTFAC
 40
1.0
  9
$DIMGAP
 40
0.09
  9
$LUNITS
 70
     2
  9
$LUPREC
 70
     8
  9
$SKETCHINC
 40
0.1
  9
$FILLETRAD
 40
0.0
  9
$AUNITS
 70
     0
  9
$AUPREC
 70
     8
  9
$MENU
  1
.
  9
$ELEVATION
 40
0.0
  9
$PELEVATION
 40
0.0
  9
$THICKNESS
 40
0.0
  9
$LIMCHECK
 70
     0
  9
$BLIPMODE
 70
     0
  9
$CHAMFERA
 40
0.0
  9
$CHAMFERB
 40
0.0
  9
$SKPOLY
 70
     0
  9
$TDCREATE
 40
2452873.389539931
  9
$TDUPDATE
 40
2453468.6868205909
  9
$TDINDWG
 40
2.2622120369999998
  9
$TDUSRTIMER
 40
2.2622114582999999
  9
$USRTIMER
 70
     1
  9
$ANGBASE
 50
0.0
  9
$ANGDIR
 70
     0
  9
$PDMODE
 70
     0
  9
$PDSIZE
 40
0.0
  9
$PLINEWID
 40
0.0
  9
$COORDS
 70
     0
  9
$SPLFRAME
 70
     0
  9
$SPLINETYPE
 70
     6
  9
$SPLINESEGS
 70
     8
  9
$ATTDIA
 70
     0
  9
$ATTREQ
 70
     1
  9
$HANDLING
 70
     1
  9
$HANDSEED
  5
1036
  9
$SURFTAB1
 70
     6
  9
$SURFTAB2
 70
     6
  9
$SURFTYPE
 70
     6
  9
$SURFU
 70
     6
  9
$SURFV
 70
     6
  9
$UCSNAME
  2

  9
$UCSORG
 10
0.0
 20
0.0
 30
0.0
  9
$UCSXDIR
 10
1.0
 20
0.0
 30
0.0
  9
$UCSYDIR
 10
0.0
 20
1.0
 30
0.0
  9
$PUCSNAME
  2

  9
$PUCSORG
 10
0.0
 20
0.0
 30
0.0
  9
$PUCSXDIR
 10
1.0
 20
0.0
 30
0.0
  9
$PUCSYDIR
 10
0.0
 20
1.0
 30
0.0
  9
$USERI1
 70
     0
  9
$USERI2
 70
     0
  9
$USERI3
 70
     0
  9
$USERI4
 70
     0
  9
$USERI5
 70
     0
  9
$USERR1
 40
0.0
  9
$USERR2
 40
0.0
  9
$USERR3
 40
0.0
  9
$USERR4
 40
0.0
  9
$USERR5
 40
0.0
  9
$WORLDVIEW
 70
     1
  9
$SHADEDGE
 70
     3
  9
$SHADEDIF
 70
    70
  9
$TILEMODE
 70
     1
  9
$MAXACTVP
 70
    64
  9
$PLIMCHECK
 70
     0
  9
$PEXTMIN
 10
1.0000000000000000E+020
 20
1.0000000000000000E+020
 30
1.0000000000000000E+020
  9
$PEXTMAX
 10
-1.0000000000000000E+020
 20
-1.0000000000000000E+020
 30
-1.0000000000000000E+020
  9
$PLIMMIN
 10
0.0
 20
0.0
  9
$PLIMMAX
 10
12.0
 20
9.0
  9
$UNITMODE
 70
     0
  9
$VISRETAIN
 70
     1
  9
$PLINEGEN
 70
     0
  9
$PSLTSCALE
 70
     1
  0
ENDSEC
  0
SECTION
  2
TABLES
  0
TABLE
  2
VPORT
 70
     2
  0
VPORT
  2
*ACTIVE
 70
     0
 10
0.0
 20
0.0
 11
1.0
 21
1.0
 12
34.00076502662057
 22
21.99903368792333
 13
0.0
 23
0.0
 14
0.5
 24
0.5
 15
0.5
 25
0.5
 16
0.0
 26
0.0
 36
1.0
 17
0.0
 27
0.0
 37
0.0
 40
44.563686948608982
 41
2.1727078891257992
 42
50.0
 43
0.0
 44
0.0
 50
0.0
 51
0.0
 71
     0
 72
 20000
 73
     1
 74
     2
 75
     0
 76
     0
 77
     0
 78
     0
  0
ENDTAB
  0
TABLE
  2
LTYPE
 70
     1
  0
LTYPE
  2
CONTINUOUS
 70
     0
  3
Solid line
 72
    65
 73
     0
 40
0.0
  0
ENDTAB
  0
TABLE
  2
LAYER
 70
     8
  0
LAYER
  2
0
 70
     0
 62
     7
  6
CONTINUOUS
  0
LAYER
  2
OUTER_SKIN
 70
     0
 62
     7
  6
CONTINUOUS
  0
LAYER
  2
OUTER_SKIN_PANELS
 70
     0
 62
     2
  6
CONTINUOUS
  0
LAYER
  2
DIMENSIONS
 70
     0
 62
     1
  6
CONTINUOUS
  0
LAYER
  2
BODY_PANELS
 70
     0
 62
     2
  6
CONTINUOUS
  0
LAYER
  2
INNER_SKIN
 70
     0
 62
     7
  6
CONTINUOUS
  0
LAYER
  2
DEFPOINTS
 70
     0
 62
     7
  6
CONTINUOUS
  0
LAYER
  2
FORM
 70
     0
 62
     5
  6
CONTINUOUS
  0
ENDTAB
  0
TABLE
  2
STYLE
 70
     1
  0
STYLE
  2
STANDARD
 70
     0
 40
0.0
 41
1.0
 50
0.0
 71
     0
 42
0.18
  3
simplex.shx
  4

  0
ENDTAB
  0
TABLE
  2
VIEW
 70
     0
  0
ENDTAB
  0
TABLE
  2
UCS
 70
     0
  0
ENDTAB
  0
TABLE
  2
APPID
 70
     3
  0
APPID
  2
ACAD
 70
     0
  0
APPID
  2
ACAD_PSEXT
 70
     0
  0
APPID
  2
DCO15
 70
     0
  0
ENDTAB
  0
TABLE
  2
DIMSTYLE
 70
     1
  0
DIMSTYLE
  2
STANDARD
 70
     0
  3

  4

  5

  6

  7

 40
1.0
 41
0.18
 42
0.0625
 43
0.38
 44
0.0625
 45
0.0
 46
0.0
 47
0.0
 48
0.0
140
0.18
141
0.0
142
0.0
143
25.399999999999999
144
1.0
145
0.0
146
1.0
147
0.09
 71
     0
 72
     0
 73
     1
 74
     1
 75
     0
 76
     0
 77
     0
 78
     0
170
     0
171
     2
172
     0
173
     0
174
     0
175
     0
176
     0
177
     0
178
     0
  0
ENDTAB
  0
ENDSEC
  0
SECTION
  2
BLOCKS
  0
BLOCK
  8
0
  2
$MODEL_SPACE
 70
     0
 10
0.0
 20
0.0
 30
0.0
  3
$MODEL_SPACE
  1

  0
ENDBLK
  5
B
  8
0
  0
BLOCK
 67
     1
  8
0
  2
$PAPER_SPACE
 70
     0
 10
0.0
 20
0.0
 30
0.0
  3
$PAPER_SPACE
  1

  0
ENDBLK
  5
11
 67
     1
  8
0
  0
ENDSEC
  0
SECTION
  2
ENTITIES
  0
LINE
  5
2E
  8
OUTER_SKIN
 10
38.29881946044086
 20
20.171150621765271
 30
0.0
 11
38.263342133405757
 21
20.152674711329212
 31
0.0
  0
LINE
  5
30
  8
OUTER_SKIN
 10
40.091601166128918
 20
17.7910468307646
 30
0.0
 11
40.064050363712759
 21
17.762047636185741
 31
0.0
  0
LINE
  5
31
  8
OUTER_SKIN
 10
38.263110686441543
 20
28.546760165029951
 30
0.0
 11
38.298589032281342
 21
28.528286211028021
 31
0.0
  0
LINE
  5
32
  8
OUTER_SKIN
 10
40.586657206325611
 20
17.353963475478679
 30
0.0
 11
40.56129522247997
 21
17.323031780157969
 31
0.0
  0
LINE
  5
33
  8
OUTER_SKIN
 10
40.633077840744669
 20
17.316157724199709
 30
0.0
 11
40.607921099009872
 21
17.285058876226088
 31
0.0
  0
LINE
  5
34
  8
OUTER_SKIN
 10
41.392372555773342
 20
16.764554398365249
 30
0.0
 11
41.370572925633688
 21
16.731016716188719
 31
0.0
  0
LINE
  5
35
  8
OUTER_SKIN
 10
40.063687082286457
 20
30.937486537041309
 30
0.0
 11
40.091239483828502
 21
30.908488861802368
 31
0.0
  0
LINE
  5
36
  8
OUTER_SKIN
 10
40.807380050895603
 20
31.521216095031122
 30
0.0
 11
40.782993961134451
 21
31.552922854975382
 31
0.0
  0
LINE
  5
37
  8
OUTER_SKIN
 10
40.854955881020217
 20
31.55755740097328
 30
0.0
 11
40.830780140900373
 21
31.58942483873756
 31
0.0
  0
LINE
  5
38
  8
OUTER_SKIN
 10
41.076043371848947
 20
31.720059308896651
 30
0.0
 11
41.052845138044262
 21
31.752645225307649
 31
0.0
  0
ARC
  5
39
  8
OUTER_SKIN
 10
46.322903902616268
 20
24.349939664638779
 30
0.0
 40
9.0670000000000002
 50
152.49352508999999
 51
158.48235654764119
  0
ARC
  5
3A
  8
OUTER_SKIN
 10
46.322903902616268
 20
24.349939664638779
 30
0.0
 40
9.0470000000000006
 50
152.49352508999999
 51
158.48235654764119
  0
ARC
  5
3B
  8
OUTER_SKIN
 10
46.322903902616268
 20
24.349939664638779
 30
0.0
 40
9.0869999999999997
 50
152.49352508999999
 51
158.48235654764119
  0
ARC
  5
3C
  8
OUTER_SKIN
 10
46.322903902616268
 20
24.349939664638779
 30
0.0
 40
9.0869999999999997
 50
231.02962038000001
 51
236.97596823999999
  0
ARC
  5
3D
  8
OUTER_SKIN
 10
46.322903902616268
 20
24.349939664638779
 30
0.0
 40
9.0470000000000006
 50
231.02962038000001
 51
236.97596823999999
  0
ARC
  5
3E
  8
OUTER_SKIN
 10
46.322903902616268
 20
24.349939664638779
 30
0.0
 40
9.0670000000000002
 50
231.02962038000001
 51
236.97596823999999
  0
ARC
  5
3F
  8
OUTER_SKIN
 10
46.322903902616268
 20
24.349939664638779
 30
0.0
 40
9.0869999999999997
 50
226.46717282
 51
230.65046962
  0
ARC
  5
40
  8
OUTER_SKIN
 10
46.322903902616268
 20
24.349939664638779
 30
0.0
 40
9.0470000000000006
 50
226.46717282
 51
230.65046962
  0
ARC
  5
41
  8
OUTER_SKIN
 10
46.322903902616268
 20
24.349939664638779
 30
0.0
 40
9.0670000000000002
 50
226.46717282
 51
230.65046962
  0
ARC
  5
42
  8
OUTER_SKIN
 10
46.322903902616268
 20
24.349939664638779
 30
0.0
 40
9.0869999999999997
 50
127.56436219
 51
133.53598676999999
  0
ARC
  5
43
  8
OUTER_SKIN
 10
46.322903902616268
 20
24.349939664638779
 30
0.0
 40
9.0670000000000002
 50
127.56436219
 51
133.53598676999999
  0
ARC
  5
44
  8
OUTER_SKIN
 10
46.322903902616268
 20
24.349939664638779
 30
0.0
 40
9.0470000000000006
 50
127.56436219
 51
133.53598676999999
  0
ARC
  5
45
  8
OUTER_SKIN
 10
46.322903902616268
 20
24.349939664638779
 30
0.0
 40
9.0869999999999997
 50
125.44743708
 51
127.18521143
  0
ARC
  5
46
  8
OUTER_SKIN
 10
46.322903902616268
 20
24.349939664638779
 30
0.0
 40
9.0670000000000002
 50
125.44743708
 51
127.18521143
  0
ARC
  5
47
  8
OUTER_SKIN
 10
46.322903902616268
 20
24.349939664638779
 30
0.0
 40
9.0470000000000006
 50
125.44743708
 51
127.18521143
  0
ARC
  5
48
  8
OUTER_SKIN
 10
46.322903902616268
 20
24.349939664638779
 30
0.0
 40
9.0869999999999997
 50
332.4903655
 51
338.48235654764107
  0
ARC
  5
49
  8
OUTER_SKIN
 10
46.322903902616268
 20
24.349939664638779
 30
0.0
 40
9.0470000000000006
 50
332.4903655
 51
338.48235654764107
  0
ARC
  5
4A
  8
OUTER_SKIN
 10
46.322903902616268
 20
24.349939664638779
 30
0.0
 40
9.0670000000000002
 50
332.4903655
 51
338.48235654764107
  0
LINE
  5
4B
  8
OUTER_SKIN
 10
52.059150598906818
 20
17.353963475478679
 30
0.0
 11
52.08451258275246
 21
17.323031780157969
 31
0.0
  0
LINE
  5
4C
  8
OUTER_SKIN
 10
52.012729964487868
 20
17.316157724199709
 30
0.0
 11
52.037886706222679
 21
17.285058876226088
 31
0.0
  0
LINE
  5
4D
  8
OUTER_SKIN
 10
51.253435249459102
 20
16.764554398365249
 30
0.0
 11
51.275234879598848
 21
16.731016716188719
 31
0.0
  0
LINE
  5
4E
  8
OUTER_SKIN
 10
54.346988344791583
 20
20.171150621765271
 30
0.0
 11
54.382465671826679
 21
20.152674711329212
 31
0.0
  0
LINE
  5
4F
  8
OUTER_SKIN
 10
52.554206639103512
 20
17.7910468307646
 30
0.0
 11
52.581757441519777
 21
17.762047636185741
 31
0.0
  0
ARC
  5
50
  8
OUTER_SKIN
 10
46.322903902616268
 20
24.349939664638779
 30
0.0
 40
9.0470000000000006
 50
303.02403176000001
 51
308.97037962000002
  0
ARC
  5
51
  8
OUTER_SKIN
 10
46.322903902616268
 20
24.349939664638779
 30
0.0
 40
9.0670000000000002
 50
303.02403176000001
 51
308.97037962000002
  0
ARC
  5
52
  8
OUTER_SKIN
 10
46.322903902616268
 20
24.349939664638779
 30
0.0
 40
9.0869999999999997
 50
303.02403176000001
 51
308.97037962000002
  0
ARC
  5
53
  8
OUTER_SKIN
 10
46.322903902616268
 20
24.349939664638779
 30
0.0
 40
9.0470000000000006
 50
309.34953037999998
 51
313.53282718000003
  0
ARC
  5
54
  8
OUTER_SKIN
 10
46.322903902616268
 20
24.349939664638779
 30
0.0
 40
9.0670000000000002
 50
309.34953037999998
 51
313.53282718000003
  0
ARC
  5
55
  8
OUTER_SKIN
 10
46.322903902616268
 20
24.349939664638779
 30
0.0
 40
9.0869999999999997
 50
309.34953037999998
 51
313.53282718000003
  0
LINE
  5
56
  8
OUTER_SKIN
 10
51.838427754336948
 20
31.521216095031122
 30
0.0
 11
51.862813844097992
 21
31.552922854975382
 31
0.0
  0
LINE
  5
57
  8
OUTER_SKIN
 10
51.790851924212319
 20
31.55755740097328
 30
0.0
 11
51.815027664332057
 21
31.58942483873756
 31
0.0
  0
LINE
  5
58
  8
OUTER_SKIN
 10
51.569764433383597
 20
31.720059308896651
 30
0.0
 11
51.592962667188289
 21
31.752645225307649
 31
0.0
  0
ARC
  5
59
  8
OUTER_SKIN
 10
46.322903902616268
 20
24.349939664638779
 30
0.0
 40
9.0869999999999997
 50
46.464013229999964
 51
52.435637810000003
  0
ARC
  5
5A
  8
OUTER_SKIN
 10
46.322903902616268
 20
24.349939664638779
 30
0.0
 40
9.0670000000000002
 50
46.464013229999978
 51
52.435637810000003
  0
ARC
  5
5B
  8
OUTER_SKIN
 10
46.322903902616268
 20
24.349939664638779
 30
0.0
 40
9.0470000000000006
 50
46.464013229999964
 51
52.435637810000003
  0
LINE
  5
5C
  8
OUTER_SKIN
 10
54.347218772951102
 20
28.528286211028021
 30
0.0
 11
54.382697118791008
 21
28.546760165029951
 31
0.0
  0
LINE
  5
5D
  8
OUTER_SKIN
 10
52.554568321403927
 20
30.908488861802368
 30
0.0
 11
52.58212072294608
 21
30.937486537041309
 31
0.0
  0
ARC
  5
5E
  8
OUTER_SKIN
 10
46.322903902616268
 20
24.349939664638779
 30
0.0
 40
9.0869999999999997
 50
52.81478856999999
 51
54.55256292
  0
ARC
  5
5F
  8
OUTER_SKIN
 10
46.322903902616268
 20
24.349939664638779
 30
0.0
 40
9.0670000000000002
 50
52.81478856999999
 51
54.55256292
  0
ARC
  5
60
  8
OUTER_SKIN
 10
46.322903902616268
 20
24.349939664638779
 30
0.0
 40
9.0470000000000006
 50
52.81478856999999
 51
54.55256292
  0
LINE
  5
61
  8
OUTER_SKIN
 10
11.494778797761651
 20
26.474047819774711
 30
0.0
 11
11.45589691354709
 21
26.483439256295728
 31
0.0
  0
LINE
  5
62
  8
OUTER_SKIN
 10
11.494778797761651
 20
22.225831509493648
 30
0.0
 11
11.45589691354709
 21
22.216440072972631
 31
0.0
  0
LINE
  5
63
  8
OUTER_SKIN
 10
14.05758622349455
 20
17.791046830759988
 30
0.0
 11
14.03003542107839
 21
17.76204763618113
 31
0.0
  0
LINE
  5
64
  8
OUTER_SKIN
 10
12.26480451780659
 20
20.17115062176066
 30
0.0
 11
12.229327190771381
 21
20.152674711324611
 31
0.0
  0
LINE
  5
65
  8
OUTER_SKIN
 10
12.26457408964697
 20
28.528286211023421
 30
0.0
 11
12.229095743807161
 21
28.546760165025351
 31
0.0
  0
LINE
  5
66
  8
OUTER_SKIN
 10
14.55225647756785
 20
17.354279812860881
 30
0.0
 11
14.52689278802481
 21
17.323349516180109
 31
0.0
  0
LINE
  5
67
  8
OUTER_SKIN
 10
18.081809613020219
 20
15.57628536575646
 30
0.0
 11
18.07205133139334
 21
15.537493924178589
 31
0.0
  0
LINE
  5
68
  8
OUTER_SKIN
 10
18.50805046352647
 20
15.47994399104209
 30
0.0
 11
18.500176744077152
 21
15.440726590031399
 31
0.0
  0
LINE
  5
69
  8
OUTER_SKIN
 10
14.057224541194129
 20
30.90848886179776
 30
0.0
 11
14.02967213965209
 21
30.937486537036701
 31
0.0
  0
LINE
  5
6A
  8
OUTER_SKIN
 10
14.773365108261229
 20
31.521216095026521
 30
0.0
 11
14.74897901850008
 21
31.552922854970781
 31
0.0
  0
LINE
  5
6B
  8
OUTER_SKIN
 10
14.82094093838586
 20
31.55755740096868
 30
0.0
 11
14.796765198266
 21
31.589424838732949
 31
0.0
  0
LINE
  5
6C
  8
OUTER_SKIN
 10
15.07296287421897
 20
31.741984311946432
 30
0.0
 11
15.049901412581869
 21
31.7746671665825
 31
0.0
  0
LINE
  5
6D
  8
OUTER_SKIN
 10
18.090519553598
 20
33.125780419403782
 30
0.0
 11
18.08079978171164
 21
33.16458152807968
 31
0.0
  0
LINE
  5
6E
  8
OUTER_SKIN
 10
18.860555578214839
 20
33.283476072492483
 30
0.0
 11
18.854240409068069
 21
33.322974409655558
 31
0.0
  0
ARC
  5
6F
  8
OUTER_SKIN
 10
20.2888889599819
 20
24.349939664634181
 30
0.0
 40
9.0470000000000006
 50
193.57900341999999
 51
207.5096345
  0
ARC
  5
70
  8
OUTER_SKIN
 10
20.2888889599819
 20
24.349939664634181
 30
0.0
 40
9.0670000000000002
 50
193.57900341999999
 51
207.5096345
  0
ARC
  5
71
  8
OUTER_SKIN
 10
20.2888889599819
 20
24.349939664634181
 30
0.0
 40
9.0869999999999997
 50
193.57900341999999
 51
207.5096345
  0
ARC
  5
72
  8
OUTER_SKIN
 10
20.2888889599819
 20
24.349939664634181
 30
0.0
 40
9.0470000000000006
 50
255.87979354000001
 51
258.64759413000002
  0
ARC
  5
73
  8
OUTER_SKIN
 10
20.2888889599819
 20
24.349939664634181
 30
0.0
 40
9.0670000000000002
 50
255.87979354000001
 51
258.64759413000002
  0
ARC
  5
74
  8
OUTER_SKIN
 10
20.2888889599819
 20
24.349939664634181
 30
0.0
 40
9.0869999999999997
 50
255.87979354000001
 51
258.64759413000002
  0
ARC
  5
75
  8
OUTER_SKIN
 10
20.2888889599819
 20
24.349939664634181
 30
0.0
 40
9.0869999999999997
 50
226.46717282
 51
230.64731003
  0
ARC
  5
76
  8
OUTER_SKIN
 10
20.2888889599819
 20
24.349939664634181
 30
0.0
 40
9.0670000000000002
 50
226.46717282
 51
230.64731003
  0
ARC
  5
77
  8
OUTER_SKIN
 10
20.2888889599819
 20
24.349939664634181
 30
0.0
 40
9.0470000000000006
 50
226.46717282
 51
230.64731003
  0
ARC
  5
78
  8
OUTER_SKIN
 10
20.2888889599819
 20
24.349939664634181
 30
0.0
 40
9.0470000000000006
 50
127.56436219
 51
133.53598676999999
  0
ARC
  5
79
  8
OUTER_SKIN
 10
20.2888889599819
 20
24.349939664634181
 30
0.0
 40
9.0869999999999997
 50
127.56436219
 51
133.53598676999999
  0
ARC
  5
7A
  8
OUTER_SKIN
 10
20.2888889599819
 20
24.349939664634181
 30
0.0
 40
9.0670000000000002
 50
127.56436219
 51
133.53598676999999
  0
ARC
  5
7B
  8
OUTER_SKIN
 10
20.2888889599819
 20
24.349939664634181
 30
0.0
 40
9.0470000000000006
 50
152.49352508999999
 51
166.42099658000001
  0
ARC
  5
7C
  8
OUTER_SKIN
 10
20.2888889599819
 20
24.349939664634181
 30
0.0
 40
9.0670000000000002
 50
152.49352508999999
 51
166.42099658000001
  0
ARC
  5
7D
  8
OUTER_SKIN
 10
20.2888889599819
 20
24.349939664634181
 30
0.0
 40
9.0869999999999997
 50
152.49352508999999
 51
166.42099658000001
  0
ARC
  5
7E
  8
OUTER_SKIN
 10
20.2888889599819
 20
24.349939664634181
 30
0.0
 40
9.0869999999999997
 50
125.20730825999991
 51
127.18521143
  0
ARC
  5
7F
  8
OUTER_SKIN
 10
20.2888889599819
 20
24.349939664634181
 30
0.0
 40
9.0670000000000002
 50
125.20730825999991
 51
127.18521143
  0
ARC
  5
80
  8
OUTER_SKIN
 10
20.2888889599819
 20
24.349939664634181
 30
0.0
 40
9.0470000000000006
 50
125.20730826
 51
127.18521143
  0
ARC
  5
81
  8
OUTER_SKIN
 10
20.2888889599819
 20
24.349939664634181
 30
0.0
 40
9.0670000000000002
 50
99.083820447999983
 51
104.06333384999991
  0
ARC
  5
82
  8
OUTER_SKIN
 10
20.2888889599819
 20
24.349939664634181
 30
0.0
 40
9.0869999999999997
 50
99.083820447999983
 51
104.06333384999991
  0
ARC
  5
83
  8
OUTER_SKIN
 10
20.2888889599819
 20
24.349939664634181
 30
0.0
 40
9.0470000000000006
 50
99.083820447999983
 51
104.06333384999991
  0
ARC
  5
84
  8
OUTER_SKIN
 10
20.2888889599819
 20
24.349939664634181
 30
0.0
 40
9.0470000000000006
 50
332.4903655
 51
346.42099658000001
  0
ARC
  5
85
  8
OUTER_SKIN
 10
20.2888889599819
 20
24.349939664634181
 30
0.0
 40
9.0670000000000002
 50
332.4903655
 51
346.42099658000001
  0
ARC
  5
86
  8
OUTER_SKIN
 10
20.2888889599819
 20
24.349939664634181
 30
0.0
 40
9.0869999999999997
 50
332.4903655
 51
346.42099658000001
  0
LINE
  5
87
  8
OUTER_SKIN
 10
26.025521442395839
 20
17.354279812860881
 30
0.0
 11
26.050885131939001
 21
17.323349516180109
 31
0.0
  0
LINE
  5
88
  8
OUTER_SKIN
 10
22.495968306943581
 20
15.57628536575646
 30
0.0
 11
22.505726588570472
 21
15.537493924178589
 31
0.0
  0
LINE
  5
89
  8
OUTER_SKIN
 10
22.069727456437221
 20
15.47994399104209
 30
0.0
 11
22.077601175886659
 21
15.440726590031399
 31
0.0
  0
LINE
  5
8A
  8
OUTER_SKIN
 10
26.520191696469141
 20
17.791046830759988
 30
0.0
 11
26.54774249888542
 21
17.76204763618113
 31
0.0
  0
LINE
  5
8B
  8
OUTER_SKIN
 10
28.312973402157208
 20
20.17115062176066
 30
0.0
 11
28.348450729192422
 21
20.152674711324611
 31
0.0
  0
ARC
  5
8C
  8
OUTER_SKIN
 10
20.2888889599819
 20
24.349939664634181
 30
0.0
 40
9.0470000000000006
 50
281.35240586999998
 51
284.12020646000002
  0
ARC
  5
8D
  8
OUTER_SKIN
 10
20.2888889599819
 20
24.349939664634181
 30
0.0
 40
9.0670000000000002
 50
281.35240586999998
 51
284.12020646000002
  0
ARC
  5
8E
  8
OUTER_SKIN
 10
20.2888889599819
 20
24.349939664634181
 30
0.0
 40
9.0869999999999997
 50
281.35240586999998
 51
284.12020646000002
  0
ARC
  5
8F
  8
OUTER_SKIN
 10
20.2888889599819
 20
24.349939664634181
 30
0.0
 40
9.0869999999999997
 50
309.35268996999997
 51
313.53282718000003
  0
ARC
  5
90
  8
OUTER_SKIN
 10
20.2888889599819
 20
24.349939664634181
 30
0.0
 40
9.0670000000000002
 50
309.35268996999997
 51
313.53282718000003
  0
ARC
  5
91
  8
OUTER_SKIN
 10
20.2888889599819
 20
24.349939664634181
 30
0.0
 40
9.0470000000000006
 50
309.35268996999997
 51
313.53282718000003
  0
LINE
  5
92
  8
OUTER_SKIN
 10
25.80441281170258
 20
31.521216095026521
 30
0.0
 11
25.828798901463621
 21
31.552922854970781
 31
0.0
  0
LINE
  5
93
  8
OUTER_SKIN
 10
25.756836981577951
 20
31.55755740096868
 30
0.0
 11
25.781012721697699
 21
31.589424838732949
 31
0.0
  0
LINE
  5
94
  8
OUTER_SKIN
 10
25.504815045744831
 20
31.741984311946432
 30
0.0
 11
25.527876507381929
 21
31.7746671665825
 31
0.0
  0
LINE
  5
95
  8
OUTER_SKIN
 10
22.487258366365811
 20
33.125780419403782
 30
0.0
 11
22.49697813825205
 21
33.16458152807968
 31
0.0
  0
LINE
  5
96
  8
OUTER_SKIN
 10
21.717222341748851
 20
33.283476072492483
 30
0.0
 11
21.723537510895628
 21
33.322974409655558
 31
0.0
  0
ARC
  5
97
  8
OUTER_SKIN
 10
20.2888889599819
 20
24.349939664634181
 30
0.0
 40
9.0470000000000006
 50
46.464013229999964
 51
52.435637810000003
  0
ARC
  5
98
  8
OUTER_SKIN
 10
20.2888889599819
 20
24.349939664634181
 30
0.0
 40
9.0670000000000002
 50
46.464013229999978
 51
52.435637810000003
  0
ARC
  5
99
  8
OUTER_SKIN
 10
20.2888889599819
 20
24.349939664634181
 30
0.0
 40
9.0869999999999997
 50
46.464013229999964
 51
52.435637810000003
  0
LINE
  5
9A
  8
OUTER_SKIN
 10
29.08299912220215
 20
26.474047819774711
 30
0.0
 11
29.121881006416711
 21
26.483439256295728
 31
0.0
  0
LINE
  5
9B
  8
OUTER_SKIN
 10
29.08299912220215
 20
22.225831509493648
 30
0.0
 11
29.121881006416711
 21
22.216440072972631
 31
0.0
  0
LINE
  5
9C
  8
OUTER_SKIN
 10
26.520553378769559
 20
30.90848886179776
 30
0.0
 11
26.548105780311719
 21
30.937486537036701
 31
0.0
  0
LINE
  5
9D
  8
OUTER_SKIN
 10
28.31320383031672
 20
28.528286211023421
 30
0.0
 11
28.34868217615664
 21
28.546760165025351
 31
0.0
  0
ARC
  5
9E
  8
OUTER_SKIN
 10
20.2888889599819
 20
24.349939664634181
 30
0.0
 40
9.0470000000000006
 50
13.57900342000001
 51
27.506474909999959
  0
ARC
  5
9F
  8
OUTER_SKIN
 10
20.2888889599819
 20
24.349939664634181
 30
0.0
 40
9.0670000000000002
 50
13.57900342000001
 51
27.506474909999959
  0
ARC
  5
A0
  8
OUTER_SKIN
 10
20.2888889599819
 20
24.349939664634181
 30
0.0
 40
9.0869999999999997
 50
13.57900342000001
 51
27.506474909999959
  0
ARC
  5
A1
  8
OUTER_SKIN
 10
20.2888889599819
 20
24.349939664634181
 30
0.0
 40
9.0869999999999997
 50
75.936666149999994
 51
80.916179552000003
  0
ARC
  5
A2
  8
OUTER_SKIN
 10
20.2888889599819
 20
24.349939664634181
 30
0.0
 40
9.0670000000000002
 50
75.936666149999994
 51
80.916179552000003
  0
ARC
  5
A3
  8
OUTER_SKIN
 10
20.2888889599819
 20
24.349939664634181
 30
0.0
 40
9.0470000000000006
 50
75.936666149999994
 51
80.916179552000003
  0
ARC
  5
A4
  8
OUTER_SKIN
 10
20.2888889599819
 20
24.349939664634181
 30
0.0
 40
9.0869999999999997
 50
52.81478856999999
 51
54.792691740000024
  0
ARC
  5
A5
  8
OUTER_SKIN
 10
20.2888889599819
 20
24.349939664634181
 30
0.0
 40
9.0670000000000002
 50
52.81478856999999
 51
54.792691740000024
  0
ARC
  5
A6
  8
OUTER_SKIN
 10
20.2888889599819
 20
24.349939664634181
 30
0.0
 40
9.0470000000000006
 50
52.81478856999999
 51
54.792691740000002
  0
TEXT
  5
132
  8
DIMENSIONS
 10
43.794278207464771
 20
23.267493104941732
 30
0.0
 40
0.5
  1
SECTION D-D
  0
LINE
  5
134
  8
DIMENSIONS
 10
43.785565982857833
 20
23.168847599032539
 30
0.0
 11
48.860241822374597
 21
23.168847599032539
 31
0.0
  0
LINE
  5
135
  8
DIMENSIONS
 10
43.785565982857833
 20
23.136725026122321
 30
0.0
 11
48.860241822374597
 21
23.136725026122321
 31
0.0
  0
TEXT
  5
136
  8
DIMENSIONS
 10
17.7602632648304
 20
23.267493104937131
 30
0.0
 40
0.5
  1
SECTION C-C
  0
LINE
  5
137
  8
DIMENSIONS
 10
17.751551040223461
 20
23.168847599027941
 30
0.0
 11
22.826226879740229
 21
23.168847599027941
 31
0.0
  0
LINE
  5
138
  8
DIMENSIONS
 10
17.751551040223461
 20
23.13672502611772
 30
0.0
 11
22.826226879740229
 21
23.13672502611772
 31
0.0
  0
LINE
  5
13F
  8
DIMENSIONS
 10
51.629209907508049
 20
31.803560719699849
 30
0.0
 11
52.158709594099349
 21
32.547334261781231
 31
0.0
  0
LINE
  5
140
  8
DIMENSIONS
 10
41.016597897724488
 20
31.803560719699849
 30
0.0
 11
40.487098211133308
 21
32.547334261780811
 31
0.0
  0
ARC
  5
141
  8
DIMENSIONS
 10
46.322903902616609
 20
24.349939664638239
 30
0.0
 40
10.000000000000529
 50
55.583900874621392
 51
86.964440172875427
  0
ARC
  5
142
  8
DIMENSIONS
 10
46.322903902616609
 20
24.349939664638239
 30
0.0
 40
10.000000000000529
 50
93.093390511793118
 51
124.4160991253828
  0
SOLID
  5
143
  8
DIMENSIONS
 10
51.992070156121571
 20
32.624081897500758
 30
0.0
 11
51.95771412460747
 21
32.574891826362403
 31
0.0
 12
52.122462353779582
 22
32.496418767389031
 32
0.0
 13
52.122462353779582
 23
32.496418767389031
 33
0.0
  0
SOLID
  5
144
  8
DIMENSIONS
 10
40.688093680625308
 20
32.574891826362013
 30
0.0
 11
40.653737649111093
 21
32.624081897500361
 31
0.0
 12
40.523345451453082
 22
32.496418767388612
 32
0.0
 13
40.523345451453082
 23
32.496418767388612
 33
0.0
  0
ARC
  5
145
  8
DIMENSIONS
 10
46.322903902616609
 20
24.349939664638239
 30
0.0
 40
11.000000000000529
 50
92.811935860355177
 51
127.18521143000009
  0
LINE
  5
146
  8
DIMENSIONS
 10
51.852802258269293
 20
31.639217710244228
 30
0.0
 11
53.00900702949874
 21
33.163277921320521
 31
0.0
  0
LINE
  5
147
  8
DIMENSIONS
 10
40.793005546963137
 20
31.639217710244228
 30
0.0
 11
39.63680077573369
 21
33.163277921320521
 31
0.0
  0
ARC
  5
148
  8
DIMENSIONS
 10
46.322903902616268
 20
24.349939664638921
 30
0.0
 40
10.999999999999799
 50
53.752366331899417
 51
87.240624418115019
  0
SOLID
  5
149
  8
DIMENSIONS
 10
52.844879306777983
 20
33.245147067292692
 30
0.0
 11
52.809008010773113
 21
33.197050808364033
 31
0.0
 12
52.971232435561518
 22
33.113485049813853
 32
0.0
 13
52.971232435561518
 23
33.113485049813853
 33
0.0
  0
SOLID
  5
14A
  8
DIMENSIONS
 10
39.836799794459331
 20
33.197050808364033
 30
0.0
 11
39.800928498454567
 21
33.245147067292692
 31
0.0
 12
39.674575369670919
 22
33.113485049813853
 32
0.0
 13
39.674575369670919
 23
33.113485049813853
 33
0.0
  0
ARC
  5
14B
  8
DIMENSIONS
 10
46.322903902616268
 20
24.349939664638921
 30
0.0
 40
11.999999999999799
 50
92.577442470336194
 51
127.56436219000049
  0
LINE
  5
14C
  8
DIMENSIONS
 10
51.900917109349713
 20
31.602464667388261
 30
0.0
 11
53.676834096203123
 21
33.911509460328723
 31
0.0
  0
LINE
  5
14D
  8
DIMENSIONS
 10
40.744890695882731
 20
31.602464667388261
 30
0.0
 11
38.968973709029427
 21
33.911509460328723
 31
0.0
  0
ARC
  5
14E
  8
DIMENSIONS
 10
46.322903902616268
 20
24.349939664638871
 30
0.0
 40
11.999999999999851
 50
53.295082560118843
 51
87.470728677647315
  0
SOLID
  5
14F
  8
DIMENSIONS
 10
53.513342096010859
 20
33.994548435174067
 30
0.0
 11
53.477120691221188
 21
33.946715289395598
 31
0.0
 12
53.638730830951282
 22
33.861967647915812
 32
0.0
 13
53.638730830951282
 23
33.861967647915812
 33
0.0
  0
SOLID
  5
150
  8
DIMENSIONS
 10
39.168687114011362
 20
33.946715289395598
 30
0.0
 11
39.132465709221691
 21
33.994548435174067
 31
0.0
 12
39.007076974281148
 22
33.861967647915812
 32
0.0
 13
39.007076974281148
 23
33.861967647915812
 33
0.0
  0
TEXT
  5
151
  8
DIMENSIONS
 10
45.927327657927968
 20
34.280293598108052
 30
0.0
 40
0.18
  1
11.219
  0
LINE
  5
152
  8
DIMENSIONS
 10
41.33651100354038
 20
16.678614087787931
 30
0.0
 11
40.838934445602121
 21
15.913116492108941
 31
0.0
  0
LINE
  5
153
  8
DIMENSIONS
 10
51.309296801692057
 20
16.678614087787931
 30
0.0
 11
51.806873359630323
 21
15.913116492108941
 31
0.0
  0
ARC
  5
154
  8
DIMENSIONS
 10
46.322903902616268
 20
24.349939664638729
 30
0.0
 40
9.9999999999999538
 50
238.00730619461731
 51
266.90300497303559
  0
SOLID
  5
155
  8
DIMENSIONS
 10
41.008670029071112
 20
15.84348364366428
 30
0.0
 11
41.040915391216892
 21
15.894082424480469
 31
0.0
 12
40.872996367695428
 22
15.96551912050975
 32
0.0
 13
40.872996367695428
 23
15.96551912050975
 33
0.0
  0
SOLID
  5
156
  8
DIMENSIONS
 10
51.604892414015552
 20
15.894082424480469
 30
0.0
 11
51.637137776161318
 21
15.84348364366428
 31
0.0
 12
51.772811437537108
 22
15.96551912050975
 32
0.0
 13
51.772811437537108
 23
15.96551912050975
 33
0.0
  0
LINE
  5
157
  8
DIMENSIONS
 10
38.207908809913278
 20
20.123806101272891
 30
0.0
 11
37.398138820336008
 21
19.70209344557005
 31
0.0
  0
LINE
  5
158
  8
DIMENSIONS
 10
40.021002234937413
 20
17.716736394656259
 30
0.0
 11
39.392155169787181
 21
17.054829778393749
 31
0.0
  0
ARC
  5
159
  8
DIMENSIONS
 10
46.322903902618549
 20
24.349939664640289
 30
0.0
 40
10.00000000000273
 50
208.54097245461881
 51
215.70791374769789
  0
ARC
  5
15A
  8
DIMENSIONS
 10
46.322903902618549
 20
24.349939664640289
 30
0.0
 40
10.00000000000273
 50
218.29082624380081
 51
225.43583486537889
  0
SOLID
  5
15B
  8
DIMENSIONS
 10
37.511664999997457
 20
19.557972980647261
 30
0.0
 11
37.564629410467973
 21
19.58616466778204
 31
0.0
 12
37.453572143828382
 22
19.730962055626382
 32
0.0
 13
37.453572143828382
 23
19.730962055626382
 33
0.0
  0
SOLID
  5
15C
  8
DIMENSIONS
 10
39.326686025168748
 20
17.246851624090649
 30
0.0
 11
39.284970006162752
 21
17.203726529791741
 31
0.0
 12
39.435203298562527
 22
17.1001410199232
 32
0.0
 13
39.435203298562527
 23
17.1001410199232
 33
0.0
  0
LINE
  5
15D
  8
DIMENSIONS
 10
38.207675771066732
 20
28.575625718158001
 30
0.0
 11
37.397882527271427
 21
28.997293718252308
 31
0.0
  0
LINE
  5
15E
  8
DIMENSIONS
 10
38.207908809913278
 20
20.123806101272891
 30
0.0
 11
37.398138820336008
 21
19.70209344557005
 31
0.0
  0
ARC
  5
15F
  8
DIMENSIONS
 10
46.322903902616389
 20
24.349939664638779
 30
0.0
 40
10.000000000000091
 50
153.52486304461769
 51
178.9702003197423
  0
ARC
  5
160
  8
DIMENSIONS
 10
46.322903902616389
 20
24.349939664638779
 30
0.0
 40
10.000000000000091
 50
181.03295978223579
 51
206.47829654538239
  0
SOLID
  5
161
  8
DIMENSIONS
 10
37.344892508697477
 20
28.821649305276541
 30
0.0
 11
37.39835727048316
 21
28.79441845425788
 31
0.0
 12
37.453317442646238
 22
28.968428165124301
 32
0.0
 13
37.453317442646238
 23
28.968428165124301
 33
0.0
  0
SOLID
  5
162
  8
DIMENSIONS
 10
37.398602375940158
 20
19.904968735435862
 30
0.0
 11
37.345139115887811
 21
19.877734936131048
 31
0.0
 12
37.453572143828382
 22
19.730962055626399
 32
0.0
 13
37.453572143828382
 23
19.730962055626399
 33
0.0
  0
LINE
  5
163
  8
DIMENSIONS
 10
54.437898995319159
 20
20.123806101272891
 30
0.0
 11
55.247668984896421
 21
19.70209344557005
 31
0.0
  0
LINE
  5
164
  8
DIMENSIONS
 10
54.438132034165811
 20
28.575625718158001
 30
0.0
 11
55.247925277961002
 21
28.997293718252308
 31
0.0
  0
ARC
  5
165
  8
DIMENSIONS
 10
46.322903902616723
 20
24.349939664638761
 30
0.0
 40
9.9999999999994955
 50
333.52170345461622
 51
358.96704021776429
  0
ARC
  5
166
  8
DIMENSIONS
 10
46.322903902616723
 20
24.349939664638761
 30
0.0
 40
9.9999999999994955
 50
1.029799680258038
 51
26.47513695538413
  0
SOLID
  5
167
  8
DIMENSIONS
 10
55.300668689344633
 20
19.87773493613102
 30
0.0
 11
55.247205429292279
 21
19.90496873543583
 31
0.0
 12
55.192235661404048
 22
19.730962055626382
 32
0.0
 13
55.192235661404048
 23
19.730962055626382
 33
0.0
  0
SOLID
  5
168
  8
DIMENSIONS
 10
55.247450534749269
 20
28.79441845425788
 30
0.0
 11
55.300915296534953
 21
28.821649305276541
 31
0.0
 12
55.192490362586199
 22
28.968428165124269
 32
0.0
 13
55.192490362586199
 23
28.968428165124269
 33
0.0
  0
TEXT
  5
169
  8
DIMENSIONS
 10
45.915243421341728
 20
14.259939664638781
 30
0.0
 40
0.18
  1
10.452
  0
TEXT
  5
16A
  8
DIMENSIONS
 10
37.898680627993002
 20
18.243405949232759
 30
0.0
 40
0.18
  1
3.000
  0
LINE
  5
16B
  8
DIMENSIONS
 10
52.624805570295017
 20
17.716736394656259
 30
0.0
 11
53.253652635445263
 21
17.054829778393721
 31
0.0
  0
LINE
  5
16C
  8
DIMENSIONS
 10
54.437898995319159
 20
20.123806101272891
 30
0.0
 11
55.247668984896421
 21
19.70209344557011
 31
0.0
  0
ARC
  5
16D
  8
DIMENSIONS
 10
46.322903902614676
 20
24.349939664639319
 30
0.0
 40
10.000000000001551
 50
314.56416513462182
 51
321.70917375620098
  0
ARC
  5
16E
  8
DIMENSIONS
 10
46.322903902614676
 20
24.349939664639319
 30
0.0
 40
10.000000000001551
 50
324.2920862523041
 51
331.45902754538417
  0
SOLID
  5
16F
  8
DIMENSIONS
 10
53.360837799069678
 20
17.203726529791709
 30
0.0
 11
53.319121780063682
 21
17.24685162409062
 31
0.0
 12
53.210604506669902
 22
17.100141019923171
 32
0.0
 13
53.210604506669902
 23
17.100141019923171
 33
0.0
  0
SOLID
  5
170
  8
DIMENSIONS
 10
55.081178394764457
 20
19.5861646677821
 30
0.0
 11
55.134142805235093
 21
19.557972980647321
 31
0.0
 12
55.192235661404048
 22
19.730962055626431
 32
0.0
 13
55.192235661404048
 23
19.730962055626431
 33
0.0
  0
LINE
  5
171
  8
DIMENSIONS
 10
40.020636454876893
 20
30.982795404602111
 30
0.0
 11
39.391752889678152
 21
31.64466734193056
 31
0.0
  0
LINE
  5
172
  8
DIMENSIONS
 10
38.207675771066732
 20
28.575625718158001
 30
0.0
 11
37.397882527271427
 21
28.997293718252308
 31
0.0
  0
ARC
  5
173
  8
DIMENSIONS
 10
46.322903902614897
 20
24.349939664639521
 30
0.0
 40
9.9999999999985256
 50
134.56732472461479
 51
141.71238922383569
  0
ARC
  5
174
  8
DIMENSIONS
 10
46.322903902614897
 20
24.349939664639521
 30
0.0
 40
9.9999999999985256
 50
144.29519430612831
 51
151.46218713538281
  0
SOLID
  5
175
  8
DIMENSIONS
 10
39.284575937165052
 20
31.495764680006491
 30
0.0
 11
39.326294334251628
 21
31.452641886213371
 31
0.0
 12
39.434803517087708
 22
31.599358474369751
 32
0.0
 13
39.434803517087708
 23
31.599358474369751
 33
0.0
  0
SOLID
  5
176
  8
DIMENSIONS
 10
37.564366724228961
 20
29.113231677029031
 30
0.0
 11
37.511400759201337
 21
29.141420443385361
 31
0.0
 12
37.453317442646238
 22
28.968428165124269
 32
0.0
 13
37.453317442646238
 23
28.968428165124269
 33
0.0
  0
LINE
  5
177
  8
DIMENSIONS
 10
54.438132034165811
 20
28.575625718158001
 30
0.0
 11
55.247925277961002
 21
28.997293718252219
 31
0.0
  0
LINE
  5
178
  8
DIMENSIONS
 10
52.62517135035565
 20
30.982795404602111
 30
0.0
 11
53.254054915554399
 21
31.64466734193056
 31
0.0
  0
ARC
  5
179
  8
DIMENSIONS
 10
46.322903902617412
 20
24.349939664639951
 30
0.0
 40
9.9999999999983107
 50
28.537812864614551
 51
35.704805693869297
  0
ARC
  5
17A
  8
DIMENSIONS
 10
46.322903902617412
 20
24.349939664639951
 30
0.0
 40
9.9999999999983107
 50
38.287610776161777
 51
45.432675275382863
  0
SOLID
  5
17B
  8
DIMENSIONS
 10
55.1344070460311
 20
29.141420443385272
 30
0.0
 11
55.081441081003469
 21
29.113231677028949
 31
0.0
 12
55.192490362586199
 22
28.968428165124209
 32
0.0
 13
55.192490362586199
 23
28.968428165124209
 33
0.0
  0
SOLID
  5
17C
  8
DIMENSIONS
 10
53.319513470980922
 20
31.452641886213371
 30
0.0
 11
53.361231868067513
 21
31.495764680006491
 31
0.0
 12
53.211004288144828
 22
31.599358474369751
 32
0.0
 13
53.211004288144828
 23
31.599358474369751
 33
0.0
  0
TEXT
  5
17D
  8
DIMENSIONS
 10
53.947017123120617
 20
18.243405949232791
 30
0.0
 40
0.18
  1
3.000
  0
TEXT
  5
17E
  8
DIMENSIONS
 10
35.953222826289881
 20
24.259663938396251
 30
0.0
 40
0.18
  1
8.706
  0
TEXT
  5
17F
  8
DIMENSIONS
 10
38.01844612647708
 20
30.276032894200121
 30
0.0
 40
0.18
  1
3.000
  0
TEXT
  5
180
  8
DIMENSIONS
 10
55.980714713835567
 20
24.259663938396251
 30
0.0
 40
0.18
  1
8.706
  0
TEXT
  5
181
  8
DIMENSIONS
 10
53.945880906041992
 20
30.276032894200089
 30
0.0
 40
0.18
  1
3.000
  0
ARC
  5
182
  8
DIMENSIONS
 10
46.322903902616268
 20
24.349939664638729
 30
0.0
 40
9.9999999999999538
 50
273.39745121845328
 51
301.99269380538271
  0
LINE
  5
183
  8
DIMENSIONS
 10
40.521667122721126
 20
17.27470100621937
 30
0.0
 11
38.674680649161452
 21
15.022100294488951
 31
0.0
  0
LINE
  5
184
  8
DIMENSIONS
 10
52.124140682511289
 20
17.27470100621937
 30
0.0
 11
53.971127156070757
 21
15.0221002944898
 31
0.0
  0
ARC
  5
185
  8
DIMENSIONS
 10
46.322903902615593
 20
24.349939664638409
 30
0.0
 40
11.999999999999449
 50
231.50991437012101
 51
267.41955510796618
  0
ARC
  5
186
  8
DIMENSIONS
 10
46.322903902615593
 20
24.349939664638409
 30
0.0
 40
11.999999999999449
 50
272.83070192229962
 51
308.49008562988541
  0
SOLID
  5
187
  8
DIMENSIONS
 10
38.83550646785929
 20
14.93400851558539
 30
0.0
 11
38.873200392081657
 21
14.980690075935451
 31
0.0
 12
38.714308748920267
 22
15.070431068427551
 32
0.0
 13
38.714308748920267
 23
15.070431068427551
 33
0.0
  0
SOLID
  5
188
  8
DIMENSIONS
 10
53.772607413150553
 20
14.98069007593628
 30
0.0
 11
53.81030133737292
 21
14.934008515586211
 31
0.0
 12
53.931499056311942
 22
15.0704310684284
 32
0.0
 13
53.931499056311942
 23
15.0704310684284
 33
0.0
  0
LINE
  5
189
  8
DIMENSIONS
 10
40.568613690049197
 20
17.236466926267241
 30
0.0
 11
39.365492516581732
 21
15.749164521927581
 31
0.0
  0
LINE
  5
18A
  8
DIMENSIONS
 10
52.077194115183339
 20
17.236466926267241
 30
0.0
 11
53.280315288650819
 21
15.749164521927501
 31
0.0
  0
ARC
  5
18B
  8
DIMENSIONS
 10
46.322903902616268
 20
24.349939664639521
 30
0.0
 40
11.000000000000711
 50
231.96719814190229
 51
267.18478813879989
  0
ARC
  5
18C
  8
DIMENSIONS
 10
46.322903902616268
 20
24.349939664639521
 30
0.0
 40
11.000000000000711
 50
273.08827753448139
 51
308.03280185809678
  0
SOLID
  5
18D
  8
DIMENSIONS
 10
39.526990191799861
 20
15.662222200088021
 30
0.0
 11
39.564342373666449
 21
15.70917765248495
 31
0.0
 12
39.404799925542392
 22
15.7977564718864
 32
0.0
 13
39.404799925542392
 23
15.7977564718864
 33
0.0
  0
SOLID
  5
18E
  8
DIMENSIONS
 10
53.081465431565988
 20
15.70917765248484
 30
0.0
 11
53.118817613432689
 21
15.662222200087911
 31
0.0
 12
53.241007879690152
 22
15.797756471886309
 32
0.0
 13
53.241007879690152
 23
15.797756471886309
 33
0.0
  0
TEXT
  5
18F
  8
DIMENSIONS
 10
45.934776798149272
 20
13.259939664638811
 30
0.0
 40
0.18
  1
12.334
  0
TEXT
  5
190
  8
DIMENSIONS
 10
45.934776798149272
 20
12.25993966463898
 30
0.0
 40
0.18
  1
12.455
  0
LINE
  5
191
  8
DIMENSIONS
 10
40.744890695882731
 20
31.60246466738829
 30
0.0
 11
38.968973709029662
 21
33.911509460328858
 31
0.0
  0
LINE
  5
192
  8
DIMENSIONS
 10
40.020636454876893
 20
30.982795404602111
 30
0.0
 11
38.014132812572569
 21
33.09455110387691
 31
0.0
  0
ARC
  5
193
  8
DIMENSIONS
 10
46.322903902616503
 20
24.349939664637361
 30
0.0
 40
12.00000000000121
 50
128.4238069401151
 51
129.34898724315579
  0
ARC
  5
194
  8
DIMENSIONS
 10
46.322903902616503
 20
24.349939664637361
 30
0.0
 40
12.00000000000121
 50
131.77330913501751
 51
132.67654201987611
  0
SOLID
  5
195
  8
DIMENSIONS
 10
38.846756194560697
 20
33.774805456630112
 30
0.0
 11
38.88369100144903
 21
33.727520997871302
 31
0.0
 12
39.007076974281382
 22
33.861967647915947
 32
0.0
 13
39.007076974281382
 23
33.861967647915947
 33
0.0
  0
SOLID
  5
196
  8
DIMENSIONS
 10
38.209099810081142
 20
33.15034325755687
 30
0.0
 11
38.168098593997769
 21
33.194148511575982
 31
0.0
 12
38.05718343998214
 22
33.049242236316083
 32
0.0
 13
38.05718343998214
 23
33.049242236316083
 33
0.0
  0
TEXT
  5
197
  8
DIMENSIONS
 10
38.172610013921677
 20
33.377983017084553
 30
0.0
 40
0.18
  1
0.945
  0
LINE
  5
198
  8
DIMENSIONS
 10
52.62517135035565
 20
30.982795404602111
 30
0.0
 11
54.631674992660102
 21
33.094551103876569
 31
0.0
  0
LINE
  5
199
  8
DIMENSIONS
 10
51.900917109349713
 20
31.602464667388261
 30
0.0
 11
53.676834096203009
 21
33.911509460328752
 31
0.0
  0
ARC
  5
19A
  8
DIMENSIONS
 10
46.322903902619913
 20
24.349939664643362
 30
0.0
 40
11.999999999994049
 50
47.323457980116508
 51
48.22669086497617
  0
ARC
  5
19B
  8
DIMENSIONS
 10
46.322903902619913
 20
24.349939664643362
 30
0.0
 40
11.999999999994049
 50
50.651012756839428
 51
51.57619305988112
  0
SOLID
  5
19C
  8
DIMENSIONS
 10
54.477709211235009
 20
33.194148511575641
 30
0.0
 11
54.436707995151522
 21
33.150343257556528
 31
0.0
 12
54.588624365250517
 22
33.049242236315727
 32
0.0
 13
54.588624365250517
 23
33.049242236315727
 33
0.0
  0
SOLID
  5
19D
  8
DIMENSIONS
 10
53.762116803783528
 20
33.727520997871181
 30
0.0
 11
53.79905161067196
 21
33.774805456629991
 31
0.0
 12
53.638730830951282
 22
33.861967647915833
 32
0.0
 13
53.638730830951282
 23
33.861967647915833
 33
0.0
  0
TEXT
  5
19E
  8
DIMENSIONS
 10
53.794844619258207
 20
33.377983017084347
 30
0.0
 40
0.18
  1
0.945
  0
LINE
  5
19F
  8
DIMENSIONS
 10
52.124140682511289
 20
17.27470100621937
 30
0.0
 11
53.966578208589993
 21
15.02764823026504
 31
0.0
  0
LINE
  5
1A0
  8
DIMENSIONS
 10
52.624805570295017
 20
17.716736394656259
 30
0.0
 11
54.626251220372041
 21
15.61007137021247
 31
0.0
  0
ARC
  5
1A1
  8
DIMENSIONS
 10
46.322903902605127
 20
24.349939664650751
 30
0.0
 40
11.9928255652261
 50
314.3927860830164
 51
315.25274498603392
  0
SOLID
  5
1A2
  8
DIMENSIONS
 10
54.733591134721081
 20
15.75874332229097
 30
0.0
 11
54.69193965869848
 21
15.80193075732867
 31
0.0
 12
54.583203091596687
 22
15.65538261174194
 32
0.0
 13
54.583203091596687
 23
15.65538261174194
 33
0.0
  0
TEXT
  5
1A3
  8
DIMENSIONS
 10
54.006323292065503
 20
15.26969082503882
 30
0.0
 40
0.18
  1
0.662
  0
LINE
  5
1A4
  8
DIMENSIONS
 10
40.021002234937413
 20
17.716736394656259
 30
0.0
 11
38.016303937216179
 21
15.60664772539439
 31
0.0
  0
LINE
  5
1A5
  8
DIMENSIONS
 10
40.521667122721126
 20
17.27470100621937
 30
0.0
 11
38.676235360912052
 21
15.02399643441532
 31
0.0
  0
ARC
  5
1A6
  8
DIMENSIONS
 10
46.322903902612751
 20
24.349939664634661
 30
0.0
 40
11.997547965074981
 50
224.7479320099628
 51
225.60755241498049
  0
SOLID
  5
1A7
  8
DIMENSIONS
 10
37.950615065994022
 20
15.79850679130732
 30
0.0
 11
37.90896371754522
 21
15.75531923323334
 31
0.0
 12
38.059352065991533
 22
15.651958966923839
 32
0.0
 13
38.059352065991533
 23
15.651958966923839
 33
0.0
  0
TEXT
  5
1A8
  8
DIMENSIONS
 10
37.96445729613194
 20
15.26615074603685
 30
0.0
 40
0.18
  1
0.662
  0
LINE
  5
1A9
  8
DIMENSIONS
 10
18.487874057437551
 20
15.379449400952179
 30
0.0
 11
18.308156411006252
 21
14.484312222883229
 31
0.0
  0
LINE
  5
1AA
  8
DIMENSIONS
 10
22.08990386252626
 20
15.379449400952179
 30
0.0
 11
22.269621508957439
 21
14.484312222883229
 31
0.0
  0
ARC
  5
1AB
  8
DIMENSIONS
 10
20.2888889599819
 20
24.34993966463551
 30
0.0
 40
10.000000000001339
 50
259.67893208461902
 51
266.89429473785691
  0
SOLID
  5
1AC
  8
DIMENSIONS
 10
18.491608807354481
 20
14.48228240708414
 30
0.0
 11
18.502889473276781
 21
14.54121242130736
 31
0.0
 12
18.320459097645848
 22
14.545589411962419
 32
0.0
 13
18.320459097645848
 23
14.545589411962419
 33
0.0
  0
SOLID
  5
1AD
  8
DIMENSIONS
 10
22.07488844668703
 20
14.54121242130736
 30
0.0
 11
22.086169112609209
 21
14.48228240708414
 31
0.0
 12
22.257318822317838
 22
14.545589411962419
 32
0.0
 13
22.257318822317838
 23
14.545589411962419
 33
0.0
  0
LINE
  5
1AE
  8
DIMENSIONS
 10
14.48726202311363
 20
17.275020927616389
 30
0.0
 11
13.90833580929208
 21
16.569036905877791
 31
0.0
  0
LINE
  5
1AF
  8
DIMENSIONS
 10
18.056804016351261
 20
15.476882296713139
 30
0.0
 11
17.834071238217319
 21
14.591467642697809
 31
0.0
  0
ARC
  5
1B0
  8
DIMENSIONS
 10
20.288888959983719
 20
24.349939664636711
 30
0.0
 40
10.00000000000307
 50
231.67864798461849
 51
240.83330625792459
  0
SOLID
  5
1B1
  8
DIMENSIONS
 10
14.069361284315359
 20
16.481118203250901
 30
0.0
 11
14.10698771874954
 21
16.527854179027312
 31
0.0
 12
13.94796657420326
 22
16.617365494441511
 32
0.0
 13
13.94796657420326
 23
16.617365494441511
 33
0.0
  0
SOLID
  5
1B2
  8
DIMENSIONS
 10
17.68273960348526
 20
14.72658734685387
 30
0.0
 11
17.667579089411191
 21
14.66853427791682
 31
0.0
 12
17.849318553259391
 22
14.652079270163251
 32
0.0
 13
17.849318553259391
 23
14.652079270163251
 33
0.0
  0
LINE
  5
1B3
  8
DIMENSIONS
 10
12.17389386727902
 20
20.12380610126829
 30
0.0
 11
11.36412387770164
 21
19.702093445565389
 31
0.0
  0
LINE
  5
1B4
  8
DIMENSIONS
 10
13.98698729230304
 20
17.716736394651662
 30
0.0
 11
13.358140227153029
 21
17.054829778389148
 31
0.0
  0
ARC
  5
1B5
  8
DIMENSIONS
 10
20.288888959980881
 20
24.349939664634011
 30
0.0
 40
9.9999999999991118
 50
208.54097245461929
 51
215.70791374770121
  0
ARC
  5
1B6
  8
DIMENSIONS
 10
20.288888959980881
 20
24.349939664634011
 30
0.0
 40
9.9999999999991118
 50
218.29082624380521
 51
225.4358348653862
  0
SOLID
  5
1B7
  8
DIMENSIONS
 10
11.477650057362981
 20
19.557972980642631
 30
0.0
 11
11.530614467833599
 21
19.586164667777378
 31
0.0
 12
11.41955720119401
 22
19.730962055621742
 32
0.0
 13
11.41955720119401
 23
19.730962055621742
 33
0.0
  0
SOLID
  5
1B8
  8
DIMENSIONS
 10
13.292671082534611
 20
17.246851624086069
 30
0.0
 11
13.250955063528609
 21
17.203726529787129
 31
0.0
 12
13.40118835592838
 22
17.10014101991862
 32
0.0
 13
13.40118835592838
 23
17.10014101991862
 33
0.0
  0
LINE
  5
1B9
  8
DIMENSIONS
 10
11.395143969461939
 20
26.49811337585982
 30
0.0
 11
10.50766496226535
 21
26.712472914451951
 31
0.0
  0
LINE
  5
1BA
  8
DIMENSIONS
 10
11.395143969461939
 20
22.20176595340854
 30
0.0
 11
10.50766496226535
 21
21.987406414816409
 31
0.0
  0
ARC
  5
1BB
  8
DIMENSIONS
 10
20.288888959982579
 20
24.349939664634231
 30
0.0
 40
10.000000000000689
 50
167.45233453461859
 51
178.96862026914579
  0
ARC
  5
1BC
  8
DIMENSIONS
 10
20.288888959982579
 20
24.349939664634231
 30
0.0
 40
10.000000000000689
 50
181.03137973085481
 51
192.5476654653819
  0
SOLID
  5
1BD
  8
DIMENSIONS
 10
10.49850924564438
 20
26.52923788851194
 30
0.0
 11
10.556956494236911
 21
26.515676209708658
 31
0.0
 12
10.568417906350501
 22
26.697798794887859
 32
0.0
 13
10.568417906350501
 23
26.697798794887859
 33
0.0
  0
SOLID
  5
1BE
  8
DIMENSIONS
 10
10.556956494236911
 20
22.184203119559701
 30
0.0
 11
10.49850924564438
 21
22.170641440756391
 31
0.0
 12
10.568417906350501
 22
22.002080534380472
 32
0.0
 13
10.568417906350501
 23
22.002080534380472
 33
0.0
  0
LINE
  5
1BF
  8
DIMENSIONS
 10
13.98662151224252
 20
30.98279540459751
 30
0.0
 11
13.35773794704366
 21
31.644667341925981
 31
0.0
  0
LINE
  5
1C0
  8
DIMENSIONS
 10
12.173660828432361
 20
28.575625718153361
 30
0.0
 11
11.36386758463717
 21
28.997293718247509
 31
0.0
  0
ARC
  5
1C1
  8
DIMENSIONS
 10
20.288888959981112
 20
24.349939664636
 30
0.0
 40
9.9999999999983142
 50
134.56732472462221
 51
141.7123892238433
  0
ARC
  5
1C2
  8
DIMENSIONS
 10
20.288888959981112
 20
24.349939664636
 30
0.0
 40
9.9999999999983142
 50
144.29519430613561
 51
151.46218713539039
  0
SOLID
  5
1C3
  8
DIMENSIONS
 10
13.25056099453044
 20
31.49576468000188
 30
0.0
 11
13.292279391617139
 21
31.45264188620877
 31
0.0
 12
13.400788574453109
 22
31.599358474365179
 32
0.0
 13
13.400788574453109
 23
31.599358474365179
 33
0.0
  0
SOLID
  5
1C4
  8
DIMENSIONS
 10
11.53035178159481
 20
29.113231677024231
 30
0.0
 11
11.477385816567081
 21
29.14142044338055
 31
0.0
 12
11.41930250001198
 22
28.968428165119459
 32
0.0
 13
11.41930250001198
 23
28.968428165119459
 33
0.0
  0
LINE
  5
1C5
  8
DIMENSIONS
 10
18.065612638139299
 20
33.225208260385763
 30
0.0
 11
17.843758844834689
 21
34.110843565912887
 31
0.0
  0
LINE
  5
1C6
  8
DIMENSIONS
 10
15.01386787877399
 20
31.82573412695135
 30
0.0
 11
14.487490016908019
 21
32.571720284019619
 31
0.0
  0
ARC
  5
1C7
  8
DIMENSIONS
 10
20.288888959980881
 20
24.349939664635261
 30
0.0
 40
9.9999999999986287
 50
105.0946718046131
 51
112.4830142157095
  0
SOLID
  5
1C8
  8
DIMENSIONS
 10
17.67719028061785
 20
34.033942231120541
 30
0.0
 11
17.692293162926351
 21
33.975874142242247
 31
0.0
 12
17.85894598840693
 22
34.050216833606811
 32
0.0
 13
17.85894598840693
 23
34.050216833606811
 33
0.0
  0
SOLID
  5
1C9
  8
DIMENSIONS
 10
14.68859921565647
 20
32.598435229286991
 30
0.0
 11
14.65444964275067
 21
32.647768855449591
 31
0.0
 12
14.523523550715909
 22
32.520653323650748
 32
0.0
 13
14.523523550715909
 23
32.520653323650748
 33
0.0
  0
LINE
  5
1CA
  8
DIMENSIONS
 10
21.733404962687441
 20
33.384690561472873
 30
0.0
 11
21.87754869846205
 21
34.286240107220067
 31
0.0
  0
LINE
  5
1CB
  8
DIMENSIONS
 10
18.844372957276249
 20
33.384690561472873
 30
0.0
 11
18.70022922150164
 21
34.286240107220067
 31
0.0
  0
ARC
  5
1CC
  8
DIMENSIONS
 10
20.2888889599819
 20
24.349939664632789
 30
0.0
 40
10.0000000000014
 50
81.947517506618652
 51
86.952586701893054
  0
SOLID
  5
1CD
  8
DIMENSIONS
 10
21.694159735060762
 20
34.28100656342292
 30
0.0
 11
21.685220592546639
 21
34.221676202467393
 31
0.0
 12
21.86768124667023
 22
34.224523955402759
 32
0.0
 13
21.86768124667023
 23
34.224523955402759
 33
0.0
  0
SOLID
  5
1CE
  8
DIMENSIONS
 10
18.892557327417052
 20
34.221676202467393
 30
0.0
 11
18.883618184902929
 21
34.28100656342292
 31
0.0
 12
18.71009667329346
 22
34.224523955402759
 32
0.0
 13
18.71009667329346
 23
34.224523955402759
 33
0.0
  0
LINE
  5
1CF
  8
DIMENSIONS
 10
26.59079062766077
 20
17.716736394651662
 30
0.0
 11
27.219637692811009
 21
17.054829778389031
 31
0.0
  0
LINE
  5
1D0
  8
DIMENSIONS
 10
28.403884052684791
 20
20.123806101268318
 30
0.0
 11
29.21365404226205
 21
19.70209344556568
 31
0.0
  0
ARC
  5
1D1
  8
DIMENSIONS
 10
20.288888959982469
 20
24.349939664632188
 30
0.0
 40
9.9999999999983871
 50
314.56416513462352
 51
321.7091737562053
  0
ARC
  5
1D2
  8
DIMENSIONS
 10
20.288888959982469
 20
24.349939664632188
 30
0.0
 40
9.9999999999983871
 50
324.29208625230899
 51
331.45902754539179
  0
SOLID
  5
1D3
  8
DIMENSIONS
 10
27.326822856435431
 20
17.203726529787019
 30
0.0
 11
27.285106837429431
 21
17.246851624085959
 31
0.0
 12
27.176589564035648
 22
17.10014101991851
 32
0.0
 13
27.176589564035648
 23
17.10014101991851
 33
0.0
  0
SOLID
  5
1D4
  8
DIMENSIONS
 10
29.047163452130089
 20
19.586164667777641
 30
0.0
 11
29.100127862600601
 21
19.557972980642891
 31
0.0
 12
29.15822071876957
 22
19.730962055622001
 32
0.0
 13
29.15822071876957
 23
19.730962055622001
 33
0.0
  0
LINE
  5
1D5
  8
DIMENSIONS
 10
22.520973903612429
 20
15.476882296713139
 30
0.0
 11
22.743706681746151
 21
14.59146764269798
 31
0.0
  0
LINE
  5
1D6
  8
DIMENSIONS
 10
26.090515896850071
 20
17.275020927616389
 30
0.0
 11
26.669442110671731
 21
16.569036905878079
 31
0.0
  0
ARC
  5
1D7
  8
DIMENSIONS
 10
20.28888895998395
 20
24.349939664629229
 30
0.0
 40
9.9999999999946674
 50
285.15154441461277
 51
294.55395758498543
  0
SOLID
  5
1D8
  8
DIMENSIONS
 10
22.910198830552272
 20
14.66853427791696
 30
0.0
 11
22.89503831647832
 21
14.72658734685402
 31
0.0
 12
22.728459366704069
 22
14.652079270163419
 32
0.0
 13
22.728459366704069
 23
14.652079270163419
 33
0.0
  0
SOLID
  5
1D9
  8
DIMENSIONS
 10
26.470790201214271
 20
16.527854179027539
 30
0.0
 11
26.508416635648452
 21
16.481118203251128
 31
0.0
 12
26.629811345760551
 22
16.617365494441771
 32
0.0
 13
26.629811345760551
 23
16.617365494441771
 33
0.0
  0
LINE
  5
1DA
  8
DIMENSIONS
 10
28.40411709153145
 20
28.57562571815339
 30
0.0
 11
29.213910335326752
 21
28.997293718247651
 31
0.0
  0
LINE
  5
1DB
  8
DIMENSIONS
 10
26.591156407721289
 20
30.98279540459751
 30
0.0
 11
27.22003997291981
 21
31.64466734192596
 31
0.0
  0
ARC
  5
1DC
  8
DIMENSIONS
 10
20.288888959987361
 20
24.349939664637791
 30
0.0
 40
9.9999999999934897
 50
28.537812864613731
 51
35.704805693872267
  0
ARC
  5
1DD
  8
DIMENSIONS
 10
20.288888959987361
 20
24.349939664637791
 30
0.0
 40
9.9999999999934897
 50
38.287610776166133
 51
45.432675275390963
  0
SOLID
  5
1DE
  8
DIMENSIONS
 10
29.100392103396729
 20
29.141420443380699
 30
0.0
 11
29.047426138369111
 21
29.11323167702438
 31
0.0
 12
29.158475419951941
 22
28.968428165119612
 32
0.0
 13
29.158475419951941
 23
28.968428165119612
 33
0.0
  0
SOLID
  5
1DF
  8
DIMENSIONS
 10
27.28549852834632
 20
31.45264188620877
 30
0.0
 11
27.327216925432911
 21
31.49576468000188
 31
0.0
 12
27.17698934551024
 22
31.599358474365118
 32
0.0
 13
27.17698934551024
 23
31.599358474365118
 33
0.0
  0
LINE
  5
1E0
  8
DIMENSIONS
 10
29.18263395050187
 20
22.20176595340854
 30
0.0
 11
30.070112957698459
 21
21.987406414816409
 31
0.0
  0
LINE
  5
1E1
  8
DIMENSIONS
 10
29.18263395050187
 20
26.498113375859791
 30
0.0
 11
30.070112957698459
 21
26.712472914451951
 31
0.0
  0
ARC
  5
1E2
  8
DIMENSIONS
 10
20.288888959980991
 20
24.349939664634181
 30
0.0
 40
10.00000000000083
 50
347.45233453461861
 51
358.9686202691455
  0
ARC
  5
1E3
  8
DIMENSIONS
 10
20.288888959980991
 20
24.349939664634181
 30
0.0
 40
10.00000000000083
 50
1.0313797308543999
 51
12.54766546538138
  0
SOLID
  5
1E4
  8
DIMENSIONS
 10
30.07926867431943
 20
22.170641440756409
 30
0.0
 11
30.02082142572689
 21
22.184203119559701
 31
0.0
 12
30.00936001361319
 22
22.0020805343805
 32
0.0
 13
30.00936001361319
 23
22.0020805343805
 33
0.0
  0
SOLID
  5
1E5
  8
DIMENSIONS
 10
30.02082142572689
 20
26.51567620970863
 30
0.0
 11
30.07926867431943
 21
26.52923788851194
 31
0.0
 12
30.00936001361319
 22
26.697798794887859
 32
0.0
 13
30.00936001361319
 23
26.697798794887859
 33
0.0
  0
LINE
  5
1E6
  8
DIMENSIONS
 10
25.563910041189821
 20
31.82573412695135
 30
0.0
 11
26.090287903055781
 21
32.57172028401925
 31
0.0
  0
LINE
  5
1E7
  8
DIMENSIONS
 10
22.512165281824391
 20
33.225208260385763
 30
0.0
 11
22.734019075129229
 21
34.110843565913029
 31
0.0
  0
ARC
  5
1E8
  8
DIMENSIONS
 10
20.288888959983382
 20
24.349939664639319
 30
0.0
 40
9.9999999999947118
 50
55.824029694606871
 51
63.15516065330425
  0
SOLID
  5
1E9
  8
DIMENSIONS
 10
25.92332827721313
 20
32.647768855449243
 30
0.0
 11
25.889178704307231
 21
32.598435229286679
 31
0.0
 12
26.0542543692479
 22
32.520653323650407
 32
0.0
 13
26.0542543692479
 23
32.520653323650407
 33
0.0
  0
SOLID
  5
1EA
  8
DIMENSIONS
 10
22.88548475703757
 20
33.97587414224239
 30
0.0
 11
22.900587639345961
 21
34.033942231120683
 31
0.0
 12
22.718831931556881
 22
34.05021683360696
 32
0.0
 13
22.718831931556881
 23
34.05021683360696
 33
0.0
  0
TEXT
  5
1EB
  8
DIMENSIONS
 10
15.41444628812266
 20
15.32908589277255
 30
0.0
 40
0.18
  1
3.993
  0
TEXT
  5
1EC
  8
DIMENSIONS
 10
11.942888350503351
 20
18.24340594922813
 30
0.0
 40
0.18
  1
3.000
  0
TEXT
  5
1ED
  8
DIMENSIONS
 10
19.913318469639389
 20
14.259939664634169
 30
0.0
 40
0.18
  1
3.593
  0
TEXT
  5
1EE
  8
DIMENSIONS
 10
9.9133184696393926
 20
24.259939664634182
 30
0.0
 40
0.18
  1
4.298
  0
TEXT
  5
1EF
  8
DIMENSIONS
 10
11.972300407869371
 20
30.276032894195431
 30
0.0
 40
0.18
  1
3.000
  0
TEXT
  5
1F0
  8
DIMENSIONS
 10
15.811449694165249
 20
33.349732786756512
 30
0.0
 40
0.18
  1
3.346
  0
TEXT
  5
1F1
  8
DIMENSIONS
 10
19.979861981477679
 20
34.259939664634182
 30
0.0
 40
0.18
  1
2.875
  0
TEXT
  5
1F2
  8
DIMENSIONS
 10
24.412190651156131
 20
15.32908589277255
 30
0.0
 40
0.18
  1
3.993
  0
TEXT
  5
1F3
  8
DIMENSIONS
 10
27.918034303061379
 20
18.24340594922819
 30
0.0
 40
0.18
  1
3.000
  0
TEXT
  5
1F4
  8
DIMENSIONS
 10
29.913318469639389
 20
24.259939664634182
 30
0.0
 40
0.18
  1
4.298
  0
TEXT
  5
1F5
  8
DIMENSIONS
 10
27.948109902630652
 20
30.276032894195509
 30
0.0
 40
0.18
  1
3.000
  0
TEXT
  5
1F6
  8
DIMENSIONS
 10
24.148274268790349
 20
33.349732786756448
 30
0.0
 40
0.18
  1
3.346
  0
ARC
  5
1F7
  8
DIMENSIONS
 10
20.288888959980881
 20
24.349939664635261
 30
0.0
 40
9.9999999999986287
 50
116.87699489920141
 51
124.1759703053813
  0
ARC
  5
1F8
  8
DIMENSIONS
 10
20.2888889599819
 20
24.349939664632789
 30
0.0
 40
10.0000000000014
 50
92.266463907136142
 51
98.052482493381405
  0
ARC
  5
1F9
  8
DIMENSIONS
 10
20.288888959983382
 20
24.349939664639319
 30
0.0
 40
9.9999999999947118
 50
67.71697354142924
 51
74.905328195383063
  0
ARC
  5
1FA
  8
DIMENSIONS
 10
20.2888889599819
 20
24.34993966463551
 30
0.0
 40
10.000000000001339
 50
272.71716202080171
 51
280.32106791538098
  0
ARC
  5
1FB
  8
DIMENSIONS
 10
20.288888959983719
 20
24.349939664636711
 30
0.0
 40
10.00000000000307
 50
245.65650975570611
 51
254.848455585376
  0
ARC
  5
1FC
  8
DIMENSIONS
 10
20.28888895998395
 20
24.349939664629229
 30
0.0
 40
9.9999999999946674
 50
299.099013619576
 51
308.3213520153916
  0
TEXT
  5
1FD
  8
DIMENSIONS
 10
19.843847976440841
 20
35.280293598103377
 30
0.0
 40
0.18
  1
11.769
 72
     1
 11
20.2509908335837
 21
35.280293598103377
 31
0.0
  0
TEXT
  5
1FE
  8
DIMENSIONS
 10
19.843847976440841
 20
36.280293598103391
 30
0.0
 40
0.18
  1
11.889
 72
     1
 11
20.2509908335837
 21
36.280293598103391
 31
0.0
  0
ARC
  5
1FF
  8
DIMENSIONS
 10
20.288888959982248
 20
24.349939664633641
 30
0.0
 40
11.000000000000529
 50
92.811935860355177
 51
127.18521143000009
  0
ARC
  5
200
  8
DIMENSIONS
 10
20.2888889599819
 20
24.34993966463432
 30
0.0
 40
11.999999999999799
 50
92.577442470336194
 51
127.56436219000049
  0
ARC
  5
201
  8
DIMENSIONS
 10
20.2888889599819
 20
24.34993966463427
 30
0.0
 40
11.999999999999851
 50
53.295082560118843
 51
87.470728677647315
  0
ARC
  5
202
  8
DIMENSIONS
 10
20.2888889599819
 20
24.34993966463432
 30
0.0
 40
10.999999999999799
 50
53.752366331899417
 51
87.240624418115019
  0
LINE
  5
203
  8
DIMENSIONS
 10
14.710875753248359
 20
31.602464667383689
 30
0.0
 11
12.93495876639528
 21
33.911509460324247
 31
0.0
  0
LINE
  5
204
  8
DIMENSIONS
 10
14.710875753248359
 20
31.602464667383661
 30
0.0
 11
12.93495876639505
 21
33.911509460324112
 31
0.0
  0
LINE
  5
205
  8
DIMENSIONS
 10
14.758990604328879
 20
31.63921771023962
 30
0.0
 11
13.60278583309943
 21
33.16327792131591
 31
0.0
  0
SOLID
  5
206
  8
DIMENSIONS
 10
13.802784851824949
 20
33.197050808359421
 30
0.0
 11
13.76691355582019
 21
33.245147067288087
 31
0.0
 12
13.64056042703654
 22
33.113485049809242
 32
0.0
 13
13.64056042703654
 23
33.113485049809242
 33
0.0
  0
SOLID
  5
207
  8
DIMENSIONS
 10
13.134672171376989
 20
33.946715289390987
 30
0.0
 11
13.09845076658732
 21
33.994548435169463
 31
0.0
 12
12.97306203164678
 22
33.8619676479112
 32
0.0
 13
12.97306203164678
 23
33.8619676479112
 33
0.0
  0
LINE
  5
208
  8
DIMENSIONS
 10
25.866902166715452
 20
31.602464667383661
 30
0.0
 11
27.642819153568642
 21
33.91150946032414
 31
0.0
  0
LINE
  5
209
  8
DIMENSIONS
 10
25.866902166715452
 20
31.602464667383661
 30
0.0
 11
27.642819153568752
 21
33.911509460324112
 31
0.0
  0
LINE
  5
20A
  8
DIMENSIONS
 10
25.818787315634921
 20
31.63921771023962
 30
0.0
 11
26.974992086864368
 21
33.16327792131591
 31
0.0
  0
SOLID
  5
20B
  8
DIMENSIONS
 10
26.810864364143612
 20
33.245147067288087
 30
0.0
 11
26.774993068138741
 21
33.197050808359421
 31
0.0
 12
26.93721749292715
 22
33.113485049809242
 32
0.0
 13
26.93721749292715
 23
33.113485049809242
 33
0.0
  0
SOLID
  5
20C
  8
DIMENSIONS
 10
27.479327153376492
 20
33.994548435169463
 30
0.0
 11
27.44310574858682
 21
33.946715289390987
 31
0.0
 12
27.604715888317031
 22
33.8619676479112
 32
0.0
 13
27.604715888317031
 23
33.8619676479112
 33
0.0
  0
LINE
  5
20D
  8
DIMENSIONS
 10
13.98662151224252
 20
30.98279540459751
 30
0.0
 11
11.9801178699382
 21
33.094551103872313
 31
0.0
  0
TEXT
  5
20E
  8
DIMENSIONS
 10
12.138595071287311
 20
33.377983017079941
 30
0.0
 40
0.18
  1
0.945
  0
ARC
  5
20F
  8
DIMENSIONS
 10
20.288888959982131
 20
24.34993966463276
 30
0.0
 40
12.00000000000121
 50
131.77330913501751
 51
132.67654201987611
  0
SOLID
  5
210
  8
DIMENSIONS
 10
12.175084867446881
 20
33.150343257552272
 30
0.0
 11
12.134083651363399
 21
33.19414851157137
 31
0.0
 12
12.02316849734777
 22
33.049242236311471
 32
0.0
 13
12.02316849734777
 23
33.049242236311471
 33
0.0
  0
SOLID
  5
211
  8
DIMENSIONS
 10
12.812741251926321
 20
33.774805456625501
 30
0.0
 11
12.84967605881465
 21
33.727520997866691
 31
0.0
 12
12.973062031647
 22
33.861967647911342
 32
0.0
 13
12.973062031647
 23
33.861967647911342
 33
0.0
  0
ARC
  5
212
  8
DIMENSIONS
 10
20.288888959982131
 20
24.34993966463276
 30
0.0
 40
12.00000000000121
 50
128.4238069401151
 51
129.34898724315579
  0
LINE
  5
213
  8
DIMENSIONS
 10
26.591156407721289
 20
30.98279540459751
 30
0.0
 11
28.597660050025731
 21
33.094551103871957
 31
0.0
  0
TEXT
  5
214
  8
DIMENSIONS
 10
27.76082967662385
 20
33.377983017079742
 30
0.0
 40
0.18
  1
0.945
  0
SOLID
  5
215
  8
DIMENSIONS
 10
28.443694268600641
 20
33.194148511571029
 30
0.0
 11
28.402693052517151
 21
33.150343257551917
 31
0.0
 12
28.55460942261627
 22
33.04924223631113
 32
0.0
 13
28.55460942261627
 23
33.04924223631113
 33
0.0
  0
SOLID
  5
216
  8
DIMENSIONS
 10
27.72810186114916
 20
33.727520997866577
 30
0.0
 11
27.765036668037599
 21
33.774805456625387
 31
0.0
 12
27.604715888316921
 22
33.861967647911229
 32
0.0
 13
27.604715888316921
 23
33.861967647911229
 33
0.0
  0
ARC
  5
217
  8
DIMENSIONS
 10
20.288888959985542
 20
24.349939664638761
 30
0.0
 40
11.999999999994049
 50
50.651012756839428
 51
51.57619305988112
  0
ARC
  5
218
  8
DIMENSIONS
 10
20.288888959985542
 20
24.349939664638761
 30
0.0
 40
11.999999999994049
 50
47.323457980116508
 51
48.22669086497617
  0
TEXT
  5
293
  8
DIMENSIONS
 10
10.59203870638177
 20
20.842101231334961
 30
0.0
 40
0.18
  1
2.204
  0
TEXT
  5
294
  8
DIMENSIONS
 10
29.17872836036404
 20
20.842101231334961
 30
0.0
 40
0.18
  1
2.204
  0
TEXT
  5
295
  8
DIMENSIONS
 10
13.018564872786641
 20
16.644208919333519
 30
0.0
 40
0.18
  1
0.662
  0
TEXT
  5
296
  8
DIMENSIONS
 10
26.777218159029051
 20
16.644208919333519
 30
0.0
 40
0.18
  1
0.662
  0
TEXT
  5
297
  8
DIMENSIONS
 10
17.471365505373541
 20
14.220425871157429
 30
0.0
 40
0.18
  1
0.438
  0
TEXT
  5
298
  8
DIMENSIONS
 10
22.349433491511689
 20
14.220425871157429
 30
0.0
 40
0.18
  1
0.438
  0
TEXT
  5
299
  8
DIMENSIONS
 10
10.59203870638177
 20
27.662048697103192
 30
0.0
 40
0.18
  1
2.204
  0
TEXT
  5
29A
  8
DIMENSIONS
 10
29.17872836036404
 20
27.662048697103192
 30
0.0
 40
0.18
  1
2.204
  0
LINE
  5
324
  8
OUTER_SKIN_PANELS
 10
38.326647787541191
 20
20.11814369340809
 30
0.0
 11
38.291293499423183
 21
20.09943342051659
 31
0.0
  0
LINE
  5
326
  8
OUTER_SKIN_PANELS
 10
40.048334908784419
 20
17.83242534231897
 30
0.0
 11
40.020592810878583
 21
17.803609096835089
 31
0.0
  0
LINE
  5
327
  8
OUTER_SKIN_PANELS
 10
40.047975508378009
 20
30.867107964382399
 30
0.0
 11
40.020231821435431
 21
30.895922679977591
 31
0.0
  0
LINE
  5
328
  8
OUTER_SKIN_PANELS
 10
38.326414436259121
 20
28.581294673904608
 30
0.0
 11
38.291059116412242
 21
28.60000299714665
 31
0.0
  0
LINE
  5
329
  8
OUTER_SKIN_PANELS
 10
52.597832296854421
 20
30.867107964382399
 30
0.0
 11
52.625575983796999
 21
30.895922679977591
 31
0.0
  0
LINE
  5
32A
  8
OUTER_SKIN_PANELS
 10
54.319393368973429
 20
28.581294673904608
 30
0.0
 11
54.354748688820187
 21
28.60000299714665
 31
0.0
  0
LINE
  5
32B
  8
OUTER_SKIN_PANELS
 10
54.31916001769136
 20
20.11814369340809
 30
0.0
 11
54.354514305809261
 21
20.09943342051659
 31
0.0
  0
LINE
  5
32C
  8
OUTER_SKIN_PANELS
 10
52.597472896448117
 20
17.83242534231897
 30
0.0
 11
52.625214994353847
 21
17.803609096835089
 31
0.0
  0
ARC
  5
32D
  8
OUTER_SKIN_PANELS
 10
46.322903902616268
 20
24.349939664638779
 30
0.0
 40
9.0869999999999997
 50
133.915137536
 51
135.77297629200001
  0
ARC
  5
32E
  8
OUTER_SKIN_PANELS
 10
46.322903902616268
 20
24.349939664638779
 30
0.0
 40
9.0670000000000002
 50
133.915137536
 51
135.77297629200001
  0
ARC
  5
32F
  8
OUTER_SKIN_PANELS
 10
46.322903902616268
 20
24.349939664638779
 30
0.0
 40
9.0470000000000006
 50
133.915137536
 51
135.77297629200001
  0
LINE
  5
330
  8
OUTER_SKIN_PANELS
 10
41.101947049153488
 20
31.787357128670269
 30
0.0
 11
41.124929141608469
 21
31.754618414181301
 31
0.0
  0
LINE
  5
331
  8
OUTER_SKIN_PANELS
 10
51.520878663623961
 20
31.754618414181301
 30
0.0
 11
51.543860756078942
 21
31.787357128670269
 31
0.0
  0
ARC
  5
332
  8
OUTER_SKIN_PANELS
 10
46.322903902616268
 20
24.349939664638779
 30
0.0
 40
9.0869999999999997
 50
207.88878526600001
 51
209.74662402199999
  0
ARC
  5
333
  8
OUTER_SKIN_PANELS
 10
46.322903902616268
 20
24.349939664638779
 30
0.0
 40
9.0670000000000002
 50
207.88878526600001
 51
209.74662402199999
  0
ARC
  5
334
  8
OUTER_SKIN_PANELS
 10
46.322903902616268
 20
24.349939664638779
 30
0.0
 40
9.0470000000000006
 50
207.88878526600001
 51
209.74662402199999
  0
ARC
  5
335
  8
OUTER_SKIN_PANELS
 10
46.322903902616268
 20
24.349939664638779
 30
0.0
 40
9.0470000000000006
 50
313.91197794599998
 51
315.76981670200001
  0
ARC
  5
336
  8
OUTER_SKIN_PANELS
 10
46.322903902616268
 20
24.349939664638779
 30
0.0
 40
9.0670000000000002
 50
313.91197794599998
 51
315.7698167019999
  0
ARC
  5
337
  8
OUTER_SKIN_PANELS
 10
46.322903902616268
 20
24.349939664638779
 30
0.0
 40
9.0869999999999997
 50
313.91197794599998
 51
315.7698167019999
  0
ARC
  5
338
  8
OUTER_SKIN_PANELS
 10
46.322903902616268
 20
24.349939664638779
 30
0.0
 40
9.0869999999999997
 50
27.885625676
 51
29.743464432
  0
ARC
  5
339
  8
OUTER_SKIN_PANELS
 10
46.322903902616268
 20
24.349939664638779
 30
0.0
 40
9.0670000000000002
 50
27.885625676
 51
29.74346443200001
  0
ARC
  5
33A
  8
OUTER_SKIN_PANELS
 10
46.322903902616268
 20
24.349939664638779
 30
0.0
 40
9.0470000000000006
 50
27.885625675999979
 51
29.743464432
  0
ARC
  5
33B
  8
OUTER_SKIN_PANELS
 10
46.322903902616268
 20
24.349939664638779
 30
0.0
 40
9.0470000000000006
 50
54.931713686000009
 51
56.789552441999938
  0
ARC
  5
33C
  8
OUTER_SKIN_PANELS
 10
46.322903902616268
 20
24.349939664638779
 30
0.0
 40
9.0670000000000002
 50
54.931713686000002
 51
56.789552441999959
  0
ARC
  5
33D
  8
OUTER_SKIN_PANELS
 10
46.322903902616268
 20
24.349939664638779
 30
0.0
 40
9.0869999999999997
 50
54.931713685999981
 51
56.78955244199993
  0
LINE
  5
33E
  8
OUTER_SKIN_PANELS
 10
38.468044725066392
 20
19.861131771571792
 30
0.0
 11
38.433315603025648
 21
19.841285157697278
 31
0.0
  0
LINE
  5
33F
  8
OUTER_SKIN_PANELS
 10
39.840337182671732
 20
18.03927110089154
 30
0.0
 11
39.811675452949402
 21
18.011369393966621
 31
0.0
  0
LINE
  5
340
  8
OUTER_SKIN_PANELS
 10
38.467797200583021
 20
28.838314392719379
 30
0.0
 11
38.433066984148667
 21
28.858159091417662
 31
0.0
  0
LINE
  5
341
  8
OUTER_SKIN_PANELS
 10
39.839989189142422
 20
30.660250736038051
 30
0.0
 11
39.811325920817097
 21
30.68815086236237
 31
0.0
  0
LINE
  5
342
  8
OUTER_SKIN_PANELS
 10
41.367719118099643
 20
31.919242984713549
 30
0.0
 11
41.345810486356378
 21
31.952709562894508
 31
0.0
  0
LINE
  5
343
  8
OUTER_SKIN_PANELS
 10
51.278088687132907
 20
31.919242984713549
 30
0.0
 11
51.299997318876052
 21
31.952709562894508
 31
0.0
  0
LINE
  5
344
  8
OUTER_SKIN_PANELS
 10
52.805818616090143
 20
30.660250736038051
 30
0.0
 11
52.834481884415339
 21
30.68815086236237
 31
0.0
  0
LINE
  5
345
  8
OUTER_SKIN_PANELS
 10
54.178010604649522
 20
28.838314392719379
 30
0.0
 11
54.21274082108377
 21
28.858159091417662
 31
0.0
  0
LINE
  5
346
  8
OUTER_SKIN_PANELS
 10
54.177763080166159
 20
19.861131771571792
 30
0.0
 11
54.212492202206789
 21
19.84128515769725
 31
0.0
  0
LINE
  5
347
  8
OUTER_SKIN_PANELS
 10
52.834132352283028
 20
18.011369393966589
 30
0.0
 11
52.805470622560819
 21
18.03927110089154
 31
0.0
  0
ARC
  5
348
  8
OUTER_SKIN_PANELS
 10
46.322903902616268
 20
24.349939664638779
 30
0.0
 40
9.0470000000000006
 50
150.256535568
 51
152.11437432400001
  0
ARC
  5
349
  8
OUTER_SKIN_PANELS
 10
46.322903902616268
 20
24.349939664638779
 30
0.0
 40
9.0670000000000002
 50
150.256535568
 51
152.11437432400001
  0
ARC
  5
34A
  8
OUTER_SKIN_PANELS
 10
46.322903902616268
 20
24.349939664638779
 30
0.0
 40
9.0869999999999997
 50
150.256535568
 51
152.11437432400001
  0
ARC
  5
34B
  8
OUTER_SKIN_PANELS
 10
46.322903902616268
 20
24.349939664638779
 30
0.0
 40
9.0869999999999997
 50
123.2104475579999
 51
125.06828631400001
  0
ARC
  5
34C
  8
OUTER_SKIN_PANELS
 10
46.322903902616268
 20
24.349939664638779
 30
0.0
 40
9.0670000000000002
 50
123.2104475579999
 51
125.06828631399991
  0
ARC
  5
34D
  8
OUTER_SKIN_PANELS
 10
46.322903902616268
 20
24.349939664638779
 30
0.0
 40
9.0470000000000006
 50
123.2104475579999
 51
125.06828631400001
  0
ARC
  5
34E
  8
OUTER_SKIN_PANELS
 10
46.322903902616268
 20
24.349939664638779
 30
0.0
 40
9.0869999999999997
 50
44.227023707999912
 51
46.084862463999947
  0
ARC
  5
34F
  8
OUTER_SKIN_PANELS
 10
46.322903902616268
 20
24.349939664638779
 30
0.0
 40
9.0670000000000002
 50
44.227023707999898
 51
46.084862463999961
  0
ARC
  5
350
  8
OUTER_SKIN_PANELS
 10
46.322903902616268
 20
24.349939664638779
 30
0.0
 40
9.0470000000000006
 50
44.227023707999912
 51
46.084862463999947
  0
ARC
  5
351
  8
OUTER_SKIN_PANELS
 10
46.322903902616268
 20
24.349939664638779
 30
0.0
 40
9.0470000000000006
 50
330.25337597800001
 51
332.11121473399999
  0
ARC
  5
352
  8
OUTER_SKIN_PANELS
 10
46.322903902616268
 20
24.349939664638779
 30
0.0
 40
9.0670000000000002
 50
330.25337597799989
 51
332.11121473399999
  0
ARC
  5
353
  8
OUTER_SKIN_PANELS
 10
46.322903902616268
 20
24.349939664638779
 30
0.0
 40
9.0869999999999997
 50
330.25337597799989
 51
332.11121473399999
  0
ARC
  5
354
  8
OUTER_SKIN_PANELS
 10
46.322903902616268
 20
24.349939664638779
 30
0.0
 40
9.0869999999999997
 50
224.2301832979999
 51
226.08802205399999
  0
ARC
  5
355
  8
OUTER_SKIN_PANELS
 10
46.322903902616268
 20
24.349939664638779
 30
0.0
 40
9.0670000000000002
 50
224.2301832979999
 51
226.08802205399999
  0
ARC
  5
356
  8
OUTER_SKIN_PANELS
 10
46.322903902616268
 20
24.349939664638779
 30
0.0
 40
9.0470000000000006
 50
224.2301832979999
 51
226.08802205399999
  0
LINE
  5
357
  8
OUTER_SKIN_PANELS
 10
18.5591715648346
 20
15.429085068076461
 30
0.0
 11
18.566785595406461
 21
15.468353713818971
 31
0.0
  0
LINE
  5
358
  8
OUTER_SKIN_PANELS
 10
18.023799324595728
 20
15.5910825506229
 30
0.0
 11
18.013784558881611
 21
15.552356532654439
 31
0.0
  0
LINE
  5
359
  8
OUTER_SKIN_PANELS
 10
22.01099232455735
 20
15.468353713818971
 30
0.0
 11
22.018606355129091
 21
15.429085068076461
 31
0.0
  0
LINE
  5
35A
  8
OUTER_SKIN_PANELS
 10
22.553978595368079
 20
15.5910825506229
 30
0.0
 11
22.563993361082201
 21
15.552356532654439
 31
0.0
  0
LINE
  5
35B
  8
OUTER_SKIN_PANELS
 10
26.004261348765422
 20
17.285374040511901
 30
0.0
 11
25.979102892118451
 21
17.31647150116612
 31
0.0
  0
ARC
  5
35C
  8
OUTER_SKIN
 10
20.2888889599819
 20
24.349939664634181
 30
0.0
 40
9.0869999999999997
 50
240.0660469799999
 51
243.9839382400001
  0
ARC
  5
35D
  8
OUTER_SKIN
 10
20.2888889599819
 20
24.349939664634181
 30
0.0
 40
9.0670000000000002
 50
240.0660469799999
 51
243.9839382400001
  0
ARC
  5
35E
  8
OUTER_SKIN
 10
20.2888889599819
 20
24.349939664634181
 30
0.0
 40
9.0470000000000006
 50
240.0660469799999
 51
243.9839382400001
  0
ARC
  5
35F
  8
OUTER_SKIN_PANELS
 10
20.2888889599819
 20
24.349939664634181
 30
0.0
 40
9.0869999999999997
 50
259.02674489600003
 51
260.29689996699989
  0
ARC
  5
360
  8
OUTER_SKIN_PANELS
 10
20.2888889599819
 20
24.349939664634181
 30
0.0
 40
9.0670000000000002
 50
259.02674489600003
 51
260.296899967
  0
ARC
  5
361
  8
OUTER_SKIN_PANELS
 10
20.2888889599819
 20
24.349939664634181
 30
0.0
 40
9.0470000000000006
 50
259.02674489600003
 51
260.29689996699989
  0
ARC
  5
362
  8
OUTER_SKIN_PANELS
 10
20.2888889599819
 20
24.349939664634181
 30
0.0
 40
9.0470000000000006
 50
284.49935722599997
 51
286.35719598200001
  0
ARC
  5
363
  8
OUTER_SKIN_PANELS
 10
20.2888889599819
 20
24.349939664634181
 30
0.0
 40
9.0670000000000002
 50
284.49935722599997
 51
286.35719598200001
  0
ARC
  5
364
  8
OUTER_SKIN_PANELS
 10
20.2888889599819
 20
24.349939664634181
 30
0.0
 40
9.0869999999999997
 50
284.49935722599997
 51
286.35719598200012
  0
LINE
  5
365
  8
OUTER_SKIN_PANELS
 10
25.772225771228449
 20
17.103796800017989
 30
0.0
 11
25.748088710322779
 21
17.135693544222299
 31
0.0
  0
LINE
  5
366
  8
OUTER_SKIN_PANELS
 10
22.836747642816221
 20
15.66912028324478
 30
0.0
 11
22.848012630913189
 21
15.63073929780699
 31
0.0
  0
ARC
  5
367
  8
OUTER_SKIN_PANELS
 10
20.2888889599819
 20
24.349939664634181
 30
0.0
 40
9.0869999999999997
 50
307.11570044799998
 51
308.97353920400002
  0
ARC
  5
368
  8
OUTER_SKIN_PANELS
 10
20.2888889599819
 20
24.349939664634181
 30
0.0
 40
9.0670000000000002
 50
307.11570044799998
 51
308.97353920400002
  0
ARC
  5
369
  8
OUTER_SKIN_PANELS
 10
20.2888889599819
 20
24.349939664634181
 30
0.0
 40
9.0470000000000006
 50
307.11570044799998
 51
308.97353920400002
  0
LINE
  5
36A
  8
OUTER_SKIN_PANELS
 10
20.635538899383821
 20
15.30958332102068
 30
0.0
 11
20.63707156187704
 21
15.26961269498503
 31
0.0
  0
LINE
  5
36B
  8
OUTER_SKIN_PANELS
 10
21.813694871611091
 20
15.43236286755188
 30
0.0
 11
21.82043658007419
 21
15.392935093496019
 31
0.0
  0
LINE
  5
36C
  8
OUTER_SKIN_PANELS
 10
18.7640830483526
 20
15.43236286755188
 30
0.0
 11
18.757341339889621
 21
15.392935093496019
 31
0.0
  0
LINE
  5
36D
  8
OUTER_SKIN_PANELS
 10
19.94223902057999
 20
15.30958332102068
 30
0.0
 11
19.940706358086771
 21
15.26961269498503
 31
0.0
  0
ARC
  5
36E
  8
OUTER_SKIN_PANELS
 10
20.2888889599819
 20
24.349939664634181
 30
0.0
 40
9.0869999999999997
 50
279.703100033
 51
280.97325510399997
  0
ARC
  5
36F
  8
OUTER_SKIN_PANELS
 10
20.2888889599819
 20
24.349939664634181
 30
0.0
 40
9.0670000000000002
 50
279.703100033
 51
280.97325510399997
  0
ARC
  5
370
  8
OUTER_SKIN_PANELS
 10
20.2888889599819
 20
24.349939664634181
 30
0.0
 40
9.0470000000000006
 50
279.703100033
 51
280.97325510399997
  0
LINE
  5
371
  8
OUTER_SKIN_PANELS
 10
15.09914837095786
 20
31.809172977692359
 30
0.0
 11
15.1219930527628
 21
31.776338232174339
 31
0.0
  0
LINE
  5
372
  8
OUTER_SKIN_PANELS
 10
18.03249460585684
 20
33.11104082365938
 30
0.0
 11
18.022518285069371
 21
33.149776763347802
 31
0.0
  0
LINE
  5
373
  8
OUTER_SKIN_PANELS
 10
18.91364980986938
 20
33.332271560083029
 30
0.0
 11
18.91970346520165
 21
33.292732297860312
 31
0.0
  0
LINE
  5
374
  8
OUTER_SKIN_PANELS
 10
21.658074454762041
 20
33.292732297860312
 30
0.0
 11
21.664128110094421
 21
33.332271560083029
 31
0.0
  0
LINE
  5
375
  8
OUTER_SKIN_PANELS
 10
22.555259634894441
 20
33.149776763347802
 30
0.0
 11
22.545283314106861
 21
33.11104082365938
 31
0.0
  0
LINE
  5
376
  8
OUTER_SKIN_PANELS
 10
25.455784867201011
 20
31.776338232174311
 30
0.0
 11
25.478629549005831
 21
31.809172977692359
 31
0.0
  0
LINE
  5
377
  8
OUTER_SKIN_PANELS
 10
17.74964823635602
 20
33.033283810035762
 30
0.0
 11
17.738421351317331
 21
33.071675958351911
 31
0.0
  0
LINE
  5
378
  8
OUTER_SKIN_PANELS
 10
15.34370266285268
 20
31.973501921655838
 30
0.0
 11
15.365470842877439
 21
31.939943817740271
 31
0.0
  0
LINE
  5
379
  8
OUTER_SKIN_PANELS
 10
25.212307077086368
 20
31.939943817740271
 30
0.0
 11
25.23407525711113
 21
31.973501921655838
 31
0.0
  0
LINE
  5
37A
  8
OUTER_SKIN_PANELS
 10
21.367431885645459
 20
33.332420065809629
 30
0.0
 11
21.372200506959391
 21
33.372134801749382
 31
0.0
  0
LINE
  5
37B
  8
OUTER_SKIN_PANELS
 10
22.83935656864648
 20
33.071675958351911
 30
0.0
 11
22.828129683607781
 21
33.033283810035762
 31
0.0
  0
LINE
  5
37C
  8
OUTER_SKIN_PANELS
 10
19.20557741300442
 20
33.372134801749382
 30
0.0
 11
19.210346034318231
 21
33.332420065809629
 31
0.0
  0
ARC
  5
37D
  8
OUTER_SKIN_PANELS
 10
20.2888889599819
 20
24.349939664634181
 30
0.0
 40
9.0869999999999997
 50
55.171842506000019
 51
57.029681262000011
  0
ARC
  5
37E
  8
OUTER_SKIN_PANELS
 10
20.2888889599819
 20
24.349939664634181
 30
0.0
 40
9.0670000000000002
 50
55.171842506000033
 51
57.029681262000011
  0
ARC
  5
37F
  8
OUTER_SKIN_PANELS
 10
20.2888889599819
 20
24.349939664634181
 30
0.0
 40
9.0470000000000006
 50
55.171842506000033
 51
57.029681262000011
  0
ARC
  5
380
  8
OUTER_SKIN_PANELS
 10
20.2888889599819
 20
24.349939664634181
 30
0.0
 40
9.0869999999999997
 50
122.9703187379999
 51
124.8281574939999
  0
ARC
  5
381
  8
OUTER_SKIN_PANELS
 10
20.2888889599819
 20
24.349939664634181
 30
0.0
 40
9.0670000000000002
 50
122.9703187379999
 51
124.828157494
  0
ARC
  5
382
  8
OUTER_SKIN_PANELS
 10
20.2888889599819
 20
24.349939664634181
 30
0.0
 40
9.0470000000000006
 50
122.9703187379999
 51
124.8281574939999
  0
ARC
  5
383
  8
OUTER_SKIN_PANELS
 10
20.2888889599819
 20
24.349939664634181
 30
0.0
 40
9.0470000000000006
 50
104.442484616
 51
106.30032337199999
  0
ARC
  5
384
  8
OUTER_SKIN_PANELS
 10
20.2888889599819
 20
24.349939664634181
 30
0.0
 40
9.0670000000000002
 50
104.442484616
 51
106.30032337199999
  0
ARC
  5
385
  8
OUTER_SKIN_PANELS
 10
20.2888889599819
 20
24.349939664634181
 30
0.0
 40
9.0869999999999997
 50
104.442484616
 51
106.30032337199999
  0
ARC
  5
386
  8
OUTER_SKIN_PANELS
 10
20.2888889599819
 20
24.349939664634181
 30
0.0
 40
9.0869999999999997
 50
96.846830925999939
 51
98.704669681999974
  0
ARC
  5
387
  8
OUTER_SKIN_PANELS
 10
20.2888889599819
 20
24.349939664634181
 30
0.0
 40
9.0670000000000002
 50
96.846830925999939
 51
98.704669682000002
  0
ARC
  5
388
  8
OUTER_SKIN_PANELS
 10
20.2888889599819
 20
24.349939664634181
 30
0.0
 40
9.0470000000000006
 50
96.846830925999953
 51
98.704669681999974
  0
ARC
  5
389
  8
OUTER_SKIN_PANELS
 10
20.2888889599819
 20
24.349939664634181
 30
0.0
 40
9.0470000000000006
 50
81.295330318000026
 51
83.153169074000004
  0
ARC
  5
38A
  8
OUTER_SKIN_PANELS
 10
20.2888889599819
 20
24.349939664634181
 30
0.0
 40
9.0670000000000002
 50
81.295330317999984
 51
83.153169074000004
  0
ARC
  5
38B
  8
OUTER_SKIN_PANELS
 10
20.2888889599819
 20
24.349939664634181
 30
0.0
 40
9.0869999999999997
 50
81.295330318000026
 51
83.153169074000004
  0
ARC
  5
38C
  8
OUTER_SKIN_PANELS
 10
20.2888889599819
 20
24.349939664634181
 30
0.0
 40
9.0869999999999997
 50
73.699676627999992
 51
75.557515384000027
  0
ARC
  5
38D
  8
OUTER_SKIN_PANELS
 10
20.2888889599819
 20
24.349939664634181
 30
0.0
 40
9.0670000000000002
 50
73.699676628000006
 51
75.557515384000055
  0
ARC
  5
38E
  8
OUTER_SKIN_PANELS
 10
20.2888889599819
 20
24.349939664634181
 30
0.0
 40
9.0470000000000006
 50
73.699676627999963
 51
75.557515384000013
  0
ARC
  5
3B2
  8
OUTER_SKIN_PANELS
 10
20.2888889599819
 20
24.349939664634181
 30
0.0
 40
9.0470000000000006
 50
150.256535568
 51
152.11437432400001
  0
LINE
  5
3B3
  8
OUTER_SKIN_PANELS
 10
12.43378225794865
 20
28.838314392714778
 30
0.0
 11
12.39905204151429
 21
28.858159091413061
 31
0.0
  0
ARC
  5
3B4
  8
OUTER_SKIN_PANELS
 10
20.2888889599819
 20
24.349939664634181
 30
0.0
 40
9.0869999999999997
 50
150.256535568
 51
152.11437432400001
  0
ARC
  5
3B5
  8
OUTER_SKIN_PANELS
 10
20.2888889599819
 20
24.349939664634181
 30
0.0
 40
9.0670000000000002
 50
150.256535568
 51
152.11437432400001
  0
LINE
  5
3B6
  8
OUTER_SKIN_PANELS
 10
12.292399493624741
 20
28.5812946739
 30
0.0
 11
12.257044173777871
 21
28.600002997142042
 31
0.0
  0
ARC
  5
3B7
  8
OUTER_SKIN_PANELS
 10
20.2888889599819
 20
24.349939664634181
 30
0.0
 40
9.0869999999999997
 50
133.915137536
 51
135.77297629200001
  0
LINE
  5
3B8
  8
OUTER_SKIN_PANELS
 10
13.80597424650804
 20
30.660250736033451
 30
0.0
 11
13.777310978182721
 21
30.688150862357759
 31
0.0
  0
ARC
  5
3B9
  8
OUTER_SKIN_PANELS
 10
20.2888889599819
 20
24.349939664634181
 30
0.0
 40
9.0670000000000002
 50
133.915137536
 51
135.77297629200001
  0
ARC
  5
3BA
  8
OUTER_SKIN_PANELS
 10
20.2888889599819
 20
24.349939664634181
 30
0.0
 40
9.0470000000000006
 50
133.915137536
 51
135.77297629200001
  0
LINE
  5
3BB
  8
OUTER_SKIN_PANELS
 10
14.013960565743639
 20
30.867107964377801
 30
0.0
 11
13.986216878801059
 21
30.89592267997299
 31
0.0
  0
LINE
  5
3BC
  8
OUTER_SKIN_PANELS
 10
28.143995662015161
 20
28.838314392714778
 30
0.0
 11
28.178725878449399
 21
28.858159091413061
 31
0.0
  0
ARC
  5
3BD
  8
OUTER_SKIN_PANELS
 10
20.2888889599819
 20
24.349939664634181
 30
0.0
 40
9.0470000000000006
 50
27.885625675999979
 51
29.743464432
  0
ARC
  5
3BE
  8
OUTER_SKIN_PANELS
 10
20.2888889599819
 20
24.349939664634181
 30
0.0
 40
9.0670000000000002
 50
27.885625676
 51
29.74346443200001
  0
ARC
  5
3BF
  8
OUTER_SKIN_PANELS
 10
20.2888889599819
 20
24.349939664634181
 30
0.0
 40
9.0869999999999997
 50
27.885625676
 51
29.743464432
  0
LINE
  5
3C0
  8
OUTER_SKIN_PANELS
 10
28.285378426339062
 20
28.5812946739
 30
0.0
 11
28.32073374618583
 21
28.600002997142042
 31
0.0
  0
ARC
  5
3C1
  8
OUTER_SKIN_PANELS
 10
20.2888889599819
 20
24.349939664634181
 30
0.0
 40
9.0470000000000006
 50
44.227023707999912
 51
46.084862463999947
  0
ARC
  5
3C2
  8
OUTER_SKIN_PANELS
 10
20.2888889599819
 20
24.349939664634181
 30
0.0
 40
9.0670000000000002
 50
44.227023707999898
 51
46.084862463999961
  0
ARC
  5
3C3
  8
OUTER_SKIN_PANELS
 10
20.2888889599819
 20
24.349939664634181
 30
0.0
 40
9.0869999999999997
 50
44.227023707999912
 51
46.084862463999947
  0
LINE
  5
3C4
  8
OUTER_SKIN_PANELS
 10
26.771803673455761
 20
30.660250736033451
 30
0.0
 11
26.800466941781082
 21
30.688150862357759
 31
0.0
  0
LINE
  5
3C5
  8
OUTER_SKIN_PANELS
 10
26.563817354220049
 20
30.867107964377801
 30
0.0
 11
26.591561041162631
 21
30.89592267997299
 31
0.0
  0
ARC
  5
3C6
  8
OUTER_SKIN_PANELS
 10
20.2888889599819
 20
24.349939664634181
 30
0.0
 40
9.0470000000000006
 50
207.88878526600001
 51
209.74662402199999
  0
ARC
  5
3C7
  8
OUTER_SKIN_PANELS
 10
20.2888889599819
 20
24.349939664634181
 30
0.0
 40
9.0670000000000002
 50
207.88878526600001
 51
209.74662402199999
  0
ARC
  5
3C8
  8
OUTER_SKIN_PANELS
 10
20.2888889599819
 20
24.349939664634181
 30
0.0
 40
9.0869999999999997
 50
207.88878526600001
 51
209.74662402199999
  0
LINE
  5
3C9
  8
OUTER_SKIN_PANELS
 10
12.43402978243202
 20
19.861131771567191
 30
0.0
 11
12.39930066039139
 21
19.841285157692681
 31
0.0
  0
LINE
  5
3CA
  8
OUTER_SKIN_PANELS
 10
12.292632844906819
 20
20.118143693403479
 30
0.0
 11
12.257278556788799
 21
20.099433420511989
 31
0.0
  0
LINE
  5
3CB
  8
OUTER_SKIN_PANELS
 10
13.80632224003736
 20
18.039271100886928
 30
0.0
 11
13.77766051031503
 21
18.01136939396201
 31
0.0
  0
ARC
  5
3CC
  8
OUTER_SKIN_PANELS
 10
20.2888889599819
 20
24.349939664634181
 30
0.0
 40
9.0869999999999997
 50
224.2301832979999
 51
226.08802205399999
  0
ARC
  5
3CD
  8
OUTER_SKIN_PANELS
 10
20.2888889599819
 20
24.349939664634181
 30
0.0
 40
9.0470000000000006
 50
224.2301832979999
 51
226.08802205399999
  0
ARC
  5
3CE
  8
OUTER_SKIN_PANELS
 10
20.2888889599819
 20
24.349939664634181
 30
0.0
 40
9.0670000000000002
 50
224.2301832979999
 51
226.08802205399999
  0
LINE
  5
3CF
  8
OUTER_SKIN_PANELS
 10
14.014319966150049
 20
17.832425342314359
 30
0.0
 11
13.986577868244209
 21
17.803609096830481
 31
0.0
  0
ARC
  5
3D0
  8
OUTER_SKIN_PANELS
 10
20.2888889599819
 20
24.349939664634181
 30
0.0
 40
9.0869999999999997
 50
330.25337597799989
 51
332.11121473399999
  0
ARC
  5
3D1
  8
OUTER_SKIN_PANELS
 10
20.2888889599819
 20
24.349939664634181
 30
0.0
 40
9.0670000000000002
 50
330.25337597799989
 51
332.11121473399999
  0
ARC
  5
3D2
  8
OUTER_SKIN_PANELS
 10
20.2888889599819
 20
24.349939664634181
 30
0.0
 40
9.0470000000000006
 50
330.25337597800001
 51
332.11121473399999
  0
LINE
  5
3D3
  8
OUTER_SKIN_PANELS
 10
28.143748137531791
 20
19.861131771567159
 30
0.0
 11
28.178477259572421
 21
19.841285157692649
 31
0.0
  0
LINE
  5
3D4
  8
OUTER_SKIN_PANELS
 10
28.285145075056992
 20
20.118143693403479
 30
0.0
 11
28.320499363174889
 21
20.099433420511989
 31
0.0
  0
LINE
  5
3D5
  8
OUTER_SKIN_PANELS
 10
26.800117409648781
 20
18.011369393961981
 30
0.0
 11
26.771455679926451
 21
18.039271100886928
 31
0.0
  0
ARC
  5
3D6
  8
OUTER_SKIN_PANELS
 10
20.2888889599819
 20
24.349939664634181
 30
0.0
 40
9.0869999999999997
 50
313.91197794599998
 51
315.7698167019999
  0
ARC
  5
3D7
  8
OUTER_SKIN_PANELS
 10
20.2888889599819
 20
24.349939664634181
 30
0.0
 40
9.0670000000000002
 50
313.91197794599998
 51
315.7698167019999
  0
ARC
  5
3D8
  8
OUTER_SKIN_PANELS
 10
20.2888889599819
 20
24.349939664634181
 30
0.0
 40
9.0470000000000006
 50
313.91197794599998
 51
315.76981670200001
  0
LINE
  5
3D9
  8
OUTER_SKIN_PANELS
 10
26.563457953813749
 20
17.832425342314359
 30
0.0
 11
26.591200051719479
 21
17.803609096830481
 31
0.0
  0
LINE
  5
407
  8
OUTER_SKIN_PANELS
 10
11.480915312923541
 20
22.28407199396284
 30
0.0
 11
11.441972133318901
 21
22.274938059307519
 31
0.0
  0
LINE
  5
408
  8
OUTER_SKIN_PANELS
 10
11.441972133318901
 20
26.42494126996084
 30
0.0
 11
11.480915312923541
 21
26.415807335305519
 31
0.0
  0
ARC
  5
409
  8
OUTER_SKIN_PANELS
 10
20.2888889599819
 20
24.349939664634181
 30
0.0
 40
9.0869999999999997
 50
166.80014734599999
 51
169.604949817999
  0
ARC
  5
40A
  8
OUTER_SKIN_PANELS
 10
20.2888889599819
 20
24.349939664634181
 30
0.0
 40
9.0670000000000002
 50
166.80014734599999
 51
169.604949817999
  0
ARC
  5
40B
  8
OUTER_SKIN_PANELS
 10
20.2888889599819
 20
24.349939664634181
 30
0.0
 40
9.0470000000000006
 50
166.80014734599999
 51
169.604949817999
  0
ARC
  5
40C
  8
OUTER_SKIN_PANELS
 10
20.2888889599819
 20
24.349939664634181
 30
0.0
 40
9.0470000000000006
 50
346.80014734600002
 51
349.604949817999
  0
ARC
  5
40D
  8
OUTER_SKIN_PANELS
 10
20.2888889599819
 20
24.349939664634181
 30
0.0
 40
9.0869999999999997
 50
346.80014734600002
 51
349.604949817999
  0
ARC
  5
40E
  8
OUTER_SKIN_PANELS
 10
20.2888889599819
 20
24.349939664634181
 30
0.0
 40
9.0670000000000002
 50
346.80014734600002
 51
349.60494981799889
  0
LINE
  5
40F
  8
OUTER_SKIN_PANELS
 10
29.135805786644791
 20
26.42494126996084
 30
0.0
 11
29.096862607040269
 21
26.415807335305519
 31
0.0
  0
LINE
  5
410
  8
OUTER_SKIN_PANELS
 10
29.096862607040269
 20
22.28407199396284
 30
0.0
 11
29.135805786644791
 21
22.274938059307519
 31
0.0
  0
LINE
  5
428
  8
OUTER_SKIN_PANELS
 10
11.24467439771777
 20
24.125458147064851
 30
0.0
 11
11.20468671312724
 21
24.124465634552109
 31
0.0
  0
LINE
  5
429
  8
OUTER_SKIN_PANELS
 10
11.25482885125947
 20
23.866238360118121
 30
0.0
 11
11.21488606311433
 21
23.864099744866579
 31
0.0
  0
LINE
  5
42A
  8
OUTER_SKIN_PANELS
 10
11.289949542863409
 20
23.418651112663468
 30
0.0
 11
11.250162035768851
 21
23.414533555232399
 31
0.0
  0
LINE
  5
42B
  8
OUTER_SKIN_PANELS
 10
11.320350669533269
 20
23.161020015222419
 30
0.0
 11
11.28069757661652
 21
23.155763379213081
 31
0.0
  0
LINE
  5
42C
  8
OUTER_SKIN_PANELS
 10
11.390376807316301
 20
22.717551699454791
 30
0.0
 11
11.351033324824099
 21
22.710334332525729
 31
0.0
  0
LINE
  5
42D
  8
OUTER_SKIN_PANELS
 10
11.390376807316301
 20
25.982327629813572
 30
0.0
 11
11.351033324824099
 21
25.98954499674262
 31
0.0
  0
LINE
  5
42E
  8
OUTER_SKIN_PANELS
 10
11.320350669533269
 20
25.53885931404594
 30
0.0
 11
11.28069757661652
 21
25.544115950055271
 31
0.0
  0
LINE
  5
42F
  8
OUTER_SKIN_PANELS
 10
11.289949542863409
 20
25.281228216604902
 30
0.0
 11
11.250162035768851
 21
25.28534577403596
 31
0.0
  0
LINE
  5
430
  8
OUTER_SKIN_PANELS
 10
11.25482885125947
 20
24.833640969150242
 30
0.0
 11
11.21488606311433
 21
24.835779584401781
 31
0.0
  0
LINE
  5
431
  8
OUTER_SKIN_PANELS
 10
11.24467439771777
 20
24.574421182203508
 30
0.0
 11
11.20468671312724
 21
24.57541369471625
 31
0.0
  0
ARC
  5
432
  8
OUTER_SKIN_PANELS
 10
20.2888889599819
 20
24.349939664634181
 30
0.0
 40
9.0470000000000006
 50
181.421815374
 51
183.06480202899999
  0
ARC
  5
433
  8
OUTER_SKIN_PANELS
 10
20.2888889599819
 20
24.349939664634181
 30
0.0
 40
9.0670000000000002
 50
181.421815374
 51
183.06480202900011
  0
ARC
  5
434
  8
OUTER_SKIN_PANELS
 10
20.2888889599819
 20
24.349939664634181
 30
0.0
 40
9.0869999999999997
 50
181.42181537399989
 51
183.06480202900011
  0
ARC
  5
435
  8
OUTER_SKIN_PANELS
 10
20.2888889599819
 20
24.349939664634181
 30
0.0
 40
9.0470000000000006
 50
176.93519797099989
 51
178.57818462599991
  0
ARC
  5
436
  8
OUTER_SKIN_PANELS
 10
20.2888889599819
 20
24.349939664634181
 30
0.0
 40
9.0869999999999997
 50
176.93519797099989
 51
178.578184626
  0
ARC
  5
437
  8
OUTER_SKIN_PANELS
 10
20.2888889599819
 20
24.349939664634181
 30
0.0
 40
9.0670000000000002
 50
176.93519797099989
 51
178.57818462599991
  0
ARC
  5
438
  8
OUTER_SKIN_PANELS
 10
20.2888889599819
 20
24.349939664634181
 30
0.0
 40
9.0670000000000002
 50
172.44858056699849
 51
174.09156722199899
  0
ARC
  5
439
  8
OUTER_SKIN_PANELS
 10
20.2888889599819
 20
24.349939664634181
 30
0.0
 40
9.0869999999999997
 50
172.44858056699849
 51
174.09156722199899
  0
ARC
  5
43A
  8
OUTER_SKIN_PANELS
 10
20.2888889599819
 20
24.349939664634181
 30
0.0
 40
9.0470000000000006
 50
172.44858056699849
 51
174.09156722199899
  0
ARC
  5
43B
  8
OUTER_SKIN_PANELS
 10
20.2888889599819
 20
24.349939664634181
 30
0.0
 40
9.0869999999999997
 50
185.90843277800101
 51
187.5514194330014
  0
ARC
  5
43C
  8
OUTER_SKIN_PANELS
 10
20.2888889599819
 20
24.349939664634181
 30
0.0
 40
9.0670000000000002
 50
185.90843277800101
 51
187.5514194330014
  0
ARC
  5
43D
  8
OUTER_SKIN_PANELS
 10
20.2888889599819
 20
24.349939664634181
 30
0.0
 40
9.0470000000000006
 50
185.90843277800101
 51
187.5514194330014
  0
ARC
  5
43E
  8
OUTER_SKIN_PANELS
 10
20.2888889599819
 20
24.349939664634181
 30
0.0
 40
9.0470000000000006
 50
190.395050182001
 51
193.19985265400001
  0
ARC
  5
43F
  8
OUTER_SKIN_PANELS
 10
20.2888889599819
 20
24.349939664634181
 30
0.0
 40
9.0670000000000002
 50
190.39505018200089
 51
193.19985265400001
  0
ARC
  5
440
  8
OUTER_SKIN_PANELS
 10
20.2888889599819
 20
24.349939664634181
 30
0.0
 40
9.0869999999999997
 50
190.39505018200089
 51
193.19985265400001
  0
LINE
  5
441
  8
OUTER_SKIN_PANELS
 10
29.22674459513965
 20
25.98954499674262
 30
0.0
 11
29.18740111264751
 21
25.982327629813561
 31
0.0
  0
LINE
  5
442
  8
OUTER_SKIN_PANELS
 10
29.297080343347229
 20
25.544115950055271
 30
0.0
 11
29.257427250430482
 21
25.53885931404594
 31
0.0
  0
LINE
  5
443
  8
OUTER_SKIN_PANELS
 10
29.327615884194952
 20
25.28534577403596
 30
0.0
 11
29.28782837710034
 21
25.281228216604902
 31
0.0
  0
LINE
  5
444
  8
OUTER_SKIN_PANELS
 10
29.362891856849409
 20
24.835779584401781
 30
0.0
 11
29.322949068704279
 21
24.833640969150249
 31
0.0
  0
LINE
  5
445
  8
OUTER_SKIN_PANELS
 10
29.373091206836499
 20
24.57541369471625
 30
0.0
 11
29.333103522245981
 21
24.574421182203491
 31
0.0
  0
LINE
  5
446
  8
OUTER_SKIN_PANELS
 10
29.373091206836499
 20
24.124465634552109
 30
0.0
 11
29.333103522245981
 21
24.125458147064851
 31
0.0
  0
LINE
  5
447
  8
OUTER_SKIN_PANELS
 10
29.362891856849409
 20
23.864099744866579
 30
0.0
 11
29.322949068704279
 21
23.866238360118121
 31
0.0
  0
LINE
  5
448
  8
OUTER_SKIN_PANELS
 10
29.327615884194952
 20
23.414533555232399
 30
0.0
 11
29.28782837710034
 21
23.418651112663468
 31
0.0
  0
LINE
  5
449
  8
OUTER_SKIN_PANELS
 10
29.297080343347229
 20
23.155763379213081
 30
0.0
 11
29.257427250430482
 21
23.161020015222419
 31
0.0
  0
LINE
  5
44A
  8
OUTER_SKIN_PANELS
 10
29.22674459513965
 20
22.710334332525751
 30
0.0
 11
29.18740111264751
 21
22.717551699454791
 31
0.0
  0
ARC
  5
44B
  8
OUTER_SKIN_PANELS
 10
20.2888889599819
 20
24.349939664634181
 30
0.0
 40
9.0670000000000002
 50
352.4485805669986
 51
354.09156722199901
  0
ARC
  5
44C
  8
OUTER_SKIN_PANELS
 10
20.2888889599819
 20
24.349939664634181
 30
0.0
 40
9.0869999999999997
 50
352.4485805669986
 51
354.09156722199913
  0
ARC
  5
44D
  8
OUTER_SKIN_PANELS
 10
20.2888889599819
 20
24.349939664634181
 30
0.0
 40
9.0470000000000006
 50
352.4485805669986
 51
354.09156722199913
  0
ARC
  5
44E
  8
OUTER_SKIN_PANELS
 10
20.2888889599819
 20
24.349939664634181
 30
0.0
 40
9.0470000000000006
 50
356.93519797099992
 51
358.57818462599988
  0
ARC
  5
44F
  8
OUTER_SKIN_PANELS
 10
20.2888889599819
 20
24.349939664634181
 30
0.0
 40
9.0869999999999997
 50
356.93519797099992
 51
358.57818462599988
  0
ARC
  5
450
  8
OUTER_SKIN_PANELS
 10
20.2888889599819
 20
24.349939664634181
 30
0.0
 40
9.0670000000000002
 50
356.93519797099992
 51
358.57818462599988
  0
ARC
  5
451
  8
OUTER_SKIN_PANELS
 10
20.2888889599819
 20
24.349939664634181
 30
0.0
 40
9.0470000000000006
 50
1.4218153739999491
 51
3.0648020290001599
  0
ARC
  5
452
  8
OUTER_SKIN_PANELS
 10
20.2888889599819
 20
24.349939664634181
 30
0.0
 40
9.0670000000000002
 50
1.4218153739999391
 51
3.0648020290001661
  0
ARC
  5
453
  8
OUTER_SKIN_PANELS
 10
20.2888889599819
 20
24.349939664634181
 30
0.0
 40
9.0869999999999997
 50
1.4218153739999291
 51
3.0648020290001781
  0
ARC
  5
454
  8
OUTER_SKIN_PANELS
 10
20.2888889599819
 20
24.349939664634181
 30
0.0
 40
9.0670000000000002
 50
5.9084327780009707
 51
7.5514194330014197
  0
ARC
  5
455
  8
OUTER_SKIN_PANELS
 10
20.2888889599819
 20
24.349939664634181
 30
0.0
 40
9.0869999999999997
 50
5.908432778000992
 51
7.5514194330014179
  0
ARC
  5
456
  8
OUTER_SKIN_PANELS
 10
20.2888889599819
 20
24.349939664634181
 30
0.0
 40
9.0470000000000006
 50
5.9084327780010213
 51
7.551419433001433
  0
ARC
  5
457
  8
OUTER_SKIN_PANELS
 10
20.2888889599819
 20
24.349939664634181
 30
0.0
 40
9.0470000000000006
 50
10.39505018200089
 51
13.199852654000029
  0
ARC
  5
458
  8
OUTER_SKIN_PANELS
 10
20.2888889599819
 20
24.349939664634181
 30
0.0
 40
9.0670000000000002
 50
10.395050182000929
 51
13.199852654000029
  0
ARC
  5
459
  8
OUTER_SKIN_PANELS
 10
20.2888889599819
 20
24.349939664634181
 30
0.0
 40
9.0869999999999997
 50
10.39505018200097
 51
13.199852654000029
  0
LINE
  5
464
  8
OUTER_SKIN_PANELS
 10
16.641038384250489
 20
16.070966589600271
 30
0.0
 11
16.624909941338021
 21
16.034362309396752
 31
0.0
  0
LINE
  5
465
  8
OUTER_SKIN_PANELS
 10
17.74150898575132
 20
15.668979794499471
 30
0.0
 11
17.730246114195069
 21
15.63059818791106
 31
0.0
  0
LINE
  5
466
  8
OUTER_SKIN_PANELS
 10
16.374553901558532
 20
16.193580792539461
 30
0.0
 11
16.35724723610738
 21
16.157518633273
 31
0.0
  0
LINE
  5
467
  8
OUTER_SKIN
 10
16.320665873514798
 20
16.219662022632669
 30
0.0
 11
16.30312094995352
 21
16.183715177747072
 31
0.0
  0
LINE
  5
468
  8
OUTER_SKIN
 10
15.774423581265379
 20
16.50979863628719
 30
0.0
 11
15.75446352653463
 21
16.475134588411219
 31
0.0
  0
LINE
  5
4A4
  8
BODY_PANELS
 10
50.999719296290287
 20
17.148275497691429
 30
0.0
 11
51.40819857255152
 21
16.519272571732358
 31
0.0
  0
ARC
  5
4A5
  8
BODY_PANELS
 10
46.322903902616268
 20
24.349939664638779
 30
0.0
 40
9.1489999999999991
 50
237.0
 51
303.0
  0
ARC
  5
4A6
  8
BODY_PANELS
 10
46.322903902616268
 20
24.349939664638779
 30
0.0
 40
9.3369999999999997
 50
237.0
 51
303.0
  0
ARC
  5
4A7
  8
BODY_PANELS
 10
46.322903902616268
 20
24.349939664638779
 30
0.0
 40
8.5869999999999997
 50
237.0
 51
303.0
  0
LINE
  5
4A8
  8
BODY_PANELS
 10
41.646088508942199
 20
17.148275497691429
 30
0.0
 11
41.23760923268091
 21
16.519272571732358
 31
0.0
  0
LINE
  5
4A9
  8
BODY_PANELS
 10
51.06364855154888
 20
16.892965327044379
 30
0.0
 11
50.544422350431397
 21
17.063114056182538
 31
0.0
  0
ARC
  5
4AA
  8
BODY_PANELS
 10
46.32285421718322
 20
24.350390913363668
 30
0.0
 40
9.0867599999999982
 50
288.9197514275001
 51
302.44471614230002
  0
LINE
  5
4AB
  8
BODY_PANELS
 10
49.854798285520559
 20
16.328792875617779
 30
0.0
 11
50.134834509717081
 21
16.5540739785318
 31
0.0
  0
LINE
  5
4AC
  8
BODY_PANELS
 10
49.28994596295658
 20
16.35094809364573
 30
0.0
 11
49.492750549814588
 21
16.441249253972529
 31
0.0
  0
LINE
  5
4AD
  8
BODY_PANELS
 10
49.553764847354302
 20
16.304219127760391
 30
0.0
 11
49.492750549814588
 21
16.441249253972529
 31
0.0
  0
LINE
  5
4AE
  8
BODY_PANELS
 10
48.652173330102727
 20
16.257164488309179
 30
0.0
 11
49.01302505451585
 21
16.501874661019311
 31
0.0
  0
LINE
  5
4AF
  8
BODY_PANELS
 10
49.01302505451585
 20
16.501874661019311
 30
0.0
 11
49.28994596295658
 21
16.35094809364573
 31
0.0
  0
LINE
  5
4B0
  8
BODY_PANELS
 10
49.26917745152334
 20
15.754555485940919
 30
0.0
 11
49.01302505451585
 21
16.501874661019311
 31
0.0
  0
ARC
  5
4B1
  8
BODY_PANELS
 10
46.322903902617412
 20
24.349939664639951
 30
0.0
 40
9.0867599999999982
 50
240.4012015543419
 51
276.28332955069982
  0
ARC
  5
4B2
  8
BODY_PANELS
 10
46.322903902617412
 20
24.349939664639951
 30
0.0
 40
8.4217600000000008
 50
243.2572363674025
 51
276.28332955069982
  0
LINE
  5
4B3
  8
BODY_PANELS
 10
47.300381592444893
 20
15.47237691101418
 30
0.0
 11
48.772208796168648
 21
15.840100892250939
 31
0.0
  0
LINE
  5
4B4
  8
BODY_PANELS
 10
47.257379738722499
 20
15.86292460198236
 30
0.0
 11
48.683703838996479
 21
16.14761163800463
 31
0.0
  0
LINE
  5
4B5
  8
BODY_PANELS
 10
47.244624346358449
 20
15.97877051568021
 30
0.0
 11
47.31740534408388
 21
15.31776527642873
 31
0.0
  0
LINE
  5
4B6
  8
BODY_PANELS
 10
48.074430095474639
 20
16.026003697583828
 30
0.0
 11
48.146443599647711
 21
15.68375857918579
 31
0.0
  0
LINE
  5
4B7
  8
BODY_PANELS
 10
49.553764847354302
 20
16.304219127760391
 30
0.0
 11
49.814122087227389
 21
16.420146293025891
 31
0.0
  0
LINE
  5
4B8
  8
BODY_PANELS
 10
48.774976364904688
 20
15.830484966165111
 30
0.0
 11
49.26917745152334
 21
15.754555485940919
 31
0.0
  0
LINE
  5
4B9
  8
BODY_PANELS
 10
48.652173330102727
 20
16.257164488309179
 30
0.0
 11
48.774976364904632
 21
15.83048496616513
 31
0.0
  0
LINE
  5
4BA
  8
BODY_PANELS
 10
49.854798285520559
 20
16.328792875617779
 30
0.0
 11
49.814122087227389
 21
16.420146293025891
 31
0.0
  0
ARC
  5
4BB
  8
BODY_PANELS
 10
42.047125560281607
 20
16.822841069358329
 30
0.0
 40
0.43
 50
12.253847907093659
 51
147.55402457769981
  0
ARC
  5
4BC
  8
BODY_PANELS
 10
42.047125560281607
 20
16.822841069358329
 30
0.0
 40
0.43
 50
147.55402457769981
 51
240.40120155550011
  0
LINE
  5
4BD
  8
BODY_PANELS
 10
42.72201998415013
 20
16.736814386341859
 30
0.0
 11
42.437686566237197
 21
16.13566589602825
 31
0.0
  0
CIRCLE
  5
4BE
  8
BODY_PANELS
 10
42.047125560281607
 20
16.822841069358329
 30
0.0
 40
0.1089376131
  0
ARC
  5
4BF
  8
BODY_PANELS
 10
42.589480914636432
 20
16.940636101523179
 30
0.0
 40
0.125
 50
192.25384790709509
 51
243.25723636740321
  0
LINE
  5
4C0
  8
BODY_PANELS
 10
43.337067262321654
 20
16.475244682992471
 30
0.0
 11
43.101299279737781
 21
15.853442094977931
 31
0.0
  0
LINE
  5
4C1
  8
BODY_PANELS
 10
50.228194883068483
 20
16.518243256065318
 30
0.0
 11
50.134834509717081
 21
16.5540739785318
 31
0.0
  0
LINE
  5
4C2
  8
BODY_PANELS
 10
50.317771689384671
 20
16.751644189593801
 30
0.0
 11
50.228194883068483
 21
16.518243256065318
 31
0.0
  0
LINE
  5
4C3
  8
BODY_PANELS
 10
50.411132062736073
 20
16.715813467027331
 30
0.0
 11
50.317771689384671
 21
16.751644189593801
 31
0.0
  0
LINE
  5
4C4
  8
BODY_PANELS
 10
50.544422350431397
 20
17.063114056182538
 30
0.0
 11
50.411132062736073
 21
16.715813467027331
 31
0.0
  0
LINE
  5
4C5
  8
BODY_PANELS
 10
51.06364855154888
 20
16.892965327044379
 30
0.0
 11
51.197769947165199
 21
16.681987955632589
 31
0.0
  0
LINE
  5
4C6
  8
BODY_PANELS
 10
21.788888959987361
 20
15.111597950554369
 30
0.0
 11
21.788888959987361
 21
16.925300414741312
 31
0.0
  0
LINE
  5
4C7
  8
BODY_PANELS
 10
18.788888959987361
 20
15.111597950554369
 30
0.0
 11
18.788888959987361
 21
16.925300414741312
 31
0.0
  0
LINE
  5
4C8
  8
BODY_PANELS
 10
21.788888959987361
 20
16.925300414741312
 30
0.0
 11
18.788888959987361
 21
16.925300414741312
 31
0.0
  0
ARC
  5
4C9
  8
BODY_PANELS
 10
20.288888959987361
 20
24.201718428441328
 30
0.0
 40
9.2130500000000008
 50
260.62981647818992
 51
279.37018352181008
  0
ARC
  5
4CA
  8
BODY_PANELS
 10
20.288888959987361
 20
24.349939664637791
 30
0.0
 40
9.0869999999999997
 50
260.498642105214
 51
279.501357894786
  0
ARC
  5
54A
  8
OUTER_SKIN_PANELS
 10
20.2888889599819
 20
24.349939664634181
 30
0.0
 40
9.0670000000000002
 50
253.64596359999999
 51
255.50064277399991
  0
ARC
  5
54B
  8
OUTER_SKIN_PANELS
 10
20.2888889599819
 20
24.349939664634181
 30
0.0
 40
9.0470000000000006
 50
253.64596359999999
 51
255.50064277399991
  0
ARC
  5
54C
  8
OUTER_SKIN_PANELS
 10
20.2888889599819
 20
24.349939664634181
 30
0.0
 40
9.0869999999999997
 50
253.64596359999999
 51
255.5006427739998
  0
ARC
  5
54D
  8
OUTER_SKIN_PANELS
 10
20.2888889599819
 20
24.349939664634181
 30
0.0
 40
9.0470000000000006
 50
244.363089
 51
246.22092776
  0
ARC
  5
54E
  8
OUTER_SKIN_PANELS
 10
20.2888889599819
 20
24.349939664634181
 30
0.0
 40
9.0670000000000002
 50
244.363089
 51
246.22092776
  0
ARC
  5
54F
  8
OUTER_SKIN_PANELS
 10
20.2888889599819
 20
24.349939664634181
 30
0.0
 40
9.0869999999999997
 50
244.363089
 51
246.22092776
  0
LINE
  5
550
  8
OUTER_SKIN
 10
37.869225413343059
 20
27.68293966463877
 30
0.0
 11
37.906437599936091
 21
27.668268155890011
 31
0.0
  0
LINE
  5
551
  8
OUTER_SKIN
 10
37.906437599936091
 20
21.031611173387532
 30
0.0
 11
37.869225413343059
 21
21.01693966463877
 31
0.0
  0
LINE
  5
552
  8
OUTER_SKIN
 10
54.776582391889441
 20
27.682939664638781
 30
0.0
 11
54.73937020529636
 21
27.668268155890019
 31
0.0
  0
LINE
  5
553
  8
OUTER_SKIN
 10
54.73937020529636
 20
21.031611173387549
 30
0.0
 11
54.776582391889441
 21
21.01693966463878
 31
0.0
  0
ARC
  5
554
  8
OUTER_SKIN
 10
46.322903902616268
 20
24.349939664638779
 30
0.0
 40
9.0869999999999997
 50
201.51764345235901
 51
207.5096345
  0
ARC
  5
555
  8
OUTER_SKIN
 10
46.322903902616268
 20
24.349939664638779
 30
0.0
 40
9.0470000000000006
 50
201.51764345235901
 51
207.5096345
  0
ARC
  5
556
  8
OUTER_SKIN
 10
46.322903902616268
 20
24.349939664638779
 30
0.0
 40
9.0670000000000002
 50
201.51764345235901
 51
207.5096345
  0
ARC
  5
557
  8
OUTER_SKIN
 10
46.322903902616268
 20
24.349939664638779
 30
0.0
 40
9.0670000000000002
 50
21.5176434523589
 51
27.506474909999959
  0
ARC
  5
558
  8
OUTER_SKIN
 10
46.322903902616268
 20
24.349939664638779
 30
0.0
 40
9.0470000000000006
 50
21.51764345235889
 51
27.506474909999959
  0
ARC
  5
559
  8
OUTER_SKIN
 10
46.322903902616268
 20
24.349939664638779
 30
0.0
 40
9.0869999999999997
 50
21.5176434523589
 51
27.506474909999959
  0
ARC
  5
561
  8
BODY_PANELS
 10
20.2888889599819
 20
24.349939664634181
 30
0.0
 40
9.0869999999999997
 50
230.68562317904261
 51
240.02773383095729
  0
LINE
  5
562
  8
BODY_PANELS
 10
14.43692447491153
 20
16.956443490679771
 30
0.0
 11
15.44309487306756
 21
16.26120962364325
 31
0.0
  0
LINE
  5
563
  8
BODY_PANELS
 10
15.29377359157505
 20
16.36438619507997
 30
0.0
 11
15.482789456955659
 21
16.637937553184059
 31
0.0
  0
LINE
  5
564
  8
BODY_PANELS
 10
14.58624575640399
 20
16.85326691924304
 30
0.0
 11
14.77526162178461
 21
17.12681827734712
 31
0.0
  0
LINE
  5
565
  8
BODY_PANELS
 10
14.43692447491153
 20
16.956443490679771
 30
0.0
 11
14.53159269067001
 21
17.31949809476335
 31
0.0
  0
LINE
  5
566
  8
BODY_PANELS
 10
15.44309487306756
 20
16.261209623643239
 30
0.0
 11
15.74919873259225
 21
16.478168476436242
 31
0.0
  0
ARC
  5
5B8
  8
BODY_PANELS
 10
20.2888889599819
 20
24.349939664634181
 30
0.0
 40
9.0869999999999997
 50
346.80014734600002
 51
349.60494981799911
  0
ARC
  5
5B9
  8
BODY_PANELS
 10
20.2888889599819
 20
24.349939664634181
 30
0.0
 40
8.9619999999999997
 50
349.60494981799923
 51
352.44858056699832
  0
ARC
  5
5BA
  8
BODY_PANELS
 10
20.2888889599819
 20
24.349939664634181
 30
0.0
 40
8.8994999999999997
 50
349.2025659024626
 51
352.85096448253512
  0
LINE
  5
5BB
  8
BODY_PANELS
 10
29.22674459513965
 20
25.98954499674262
 30
0.0
 11
29.103796212351629
 21
25.966990725089321
 31
0.0
  0
LINE
  5
5BC
  8
BODY_PANELS
 10
29.173164427982361
 20
25.527688962526099
 30
0.0
 11
29.297080343347229
 21
25.544115950055271
 31
0.0
  0
LINE
  5
5BD
  8
BODY_PANELS
 10
29.327615884194952
 20
25.28534577403596
 30
0.0
 11
29.20327992452437
 21
25.27247840706389
 31
0.0
  0
LINE
  5
5BE
  8
BODY_PANELS
 10
29.238070643895899
 20
24.829096411740739
 30
0.0
 11
29.362891856849359
 21
24.835779584401781
 31
0.0
  0
LINE
  5
5BF
  8
BODY_PANELS
 10
29.373091206836499
 20
24.575413694716229
 30
0.0
 11
29.248129692491059
 21
24.572312093113919
 31
0.0
  0
LINE
  5
5C0
  8
BODY_PANELS
 10
29.248129692491059
 20
24.12756723615443
 30
0.0
 11
29.373091206836499
 21
24.124465634552109
 31
0.0
  0
LINE
  5
5C1
  8
BODY_PANELS
 10
29.362891856849409
 20
23.864099744866579
 30
0.0
 11
29.238070643895899
 21
23.87078291752762
 31
0.0
  0
LINE
  5
5C2
  8
BODY_PANELS
 10
29.20327992452437
 20
23.42740092220447
 30
0.0
 11
29.327615884194952
 21
23.414533555232399
 31
0.0
  0
LINE
  5
5C3
  8
BODY_PANELS
 10
29.297080343347229
 20
23.15576337921307
 30
0.0
 11
29.173164427982361
 21
23.172190366742239
 31
0.0
  0
LINE
  5
5C4
  8
BODY_PANELS
 10
29.103796212351629
 20
22.732888604179049
 30
0.0
 11
29.22674459513965
 21
22.710334332525751
 31
0.0
  0
LINE
  5
5C5
  8
BODY_PANELS
 10
29.17591163113687
 20
26.043762867443959
 30
0.0
 11
29.030829019951032
 21
26.017148181258971
 31
0.0
  0
LINE
  5
5C6
  8
BODY_PANELS
 10
29.119202400150609
 20
25.457488669588528
 30
0.0
 11
29.265426727473571
 21
25.47687298510866
 31
0.0
  0
LINE
  5
5C7
  8
BODY_PANELS
 10
29.321182200708879
 20
25.347513753871262
 30
0.0
 11
29.320968403818121
 21
25.34749162830872
 31
0.0
  0
LINE
  5
5C8
  8
BODY_PANELS
 10
29.17878247037018
 20
24.763332485031508
 30
0.0
 11
29.326075074762539
 21
24.771218820082719
 31
0.0
  0
LINE
  5
5C9
  8
BODY_PANELS
 10
29.18387873480518
 20
24.066642725383488
 30
0.0
 11
29.331336898856279
 21
24.062982746706918
 31
0.0
  0
LINE
  5
5CA
  8
BODY_PANELS
 10
29.326075074762539
 20
23.928660509185651
 30
0.0
 11
29.17878247037018
 21
23.936546844236862
 31
0.0
  0
LINE
  5
5CB
  8
BODY_PANELS
 10
29.134459959801259
 20
23.371689217583722
 30
0.0
 11
29.281179951429039
 21
23.356505356218008
 31
0.0
  0
LINE
  5
5CC
  8
BODY_PANELS
 10
29.265426727473571
 20
23.2230063441597
 30
0.0
 11
29.119202400150609
 21
23.24239065967981
 31
0.0
  0
LINE
  5
5CD
  8
BODY_PANELS
 10
29.030829019951032
 20
22.68273114800941
 30
0.0
 11
29.17591163113687
 21
22.656116461824411
 31
0.0
  0
ARC
  5
5CE
  8
BODY_PANELS
 10
20.2888889599819
 20
24.349939664634181
 30
0.0
 40
8.8994999999999997
 50
353.6891833064625
 51
357.3375818865365
  0
ARC
  5
5CF
  8
BODY_PANELS
 10
20.2888889599819
 20
24.349939664634181
 30
0.0
 40
8.8994999999999997
 50
358.17580071046342
 51
1.8241992895364441
  0
ARC
  5
5D0
  8
BODY_PANELS
 10
20.2888889599819
 20
24.349939664634181
 30
0.0
 40
8.8994999999999997
 50
2.6624181134636009
 51
6.3108166935374594
  0
ARC
  5
5D1
  8
BODY_PANELS
 10
20.2888889599819
 20
24.349939664634181
 30
0.0
 40
8.8994999999999997
 50
7.1490355174649514
 51
10.79743409753768
  0
ARC
  5
5D2
  8
BODY_PANELS
 10
20.2888889599819
 20
24.349939664634181
 30
0.0
 40
8.9619999999999997
 50
354.0915672219989
 51
356.93519797099992
  0
ARC
  5
5D3
  8
BODY_PANELS
 10
20.2888889599819
 20
24.349939664634181
 30
0.0
 40
8.9619999999999997
 50
358.578184626
 51
1.4218153740000641
  0
ARC
  5
5D4
  8
BODY_PANELS
 10
20.2888889599819
 20
24.349939664634181
 30
0.0
 40
8.9619999999999997
 50
3.0648020290001341
 51
5.9084327780009884
  0
ARC
  5
5D5
  8
BODY_PANELS
 10
20.2888889599819
 20
24.349939664634181
 30
0.0
 40
8.9619999999999997
 50
7.5514194330015449
 51
10.39505018200094
  0
ARC
  5
5D6
  8
BODY_PANELS
 10
20.2888889599819
 20
24.349939664634181
 30
0.0
 40
9.0869999999999997
 50
356.93519797099992
 51
358.57818462599988
  0
ARC
  5
5D7
  8
BODY_PANELS
 10
20.2888889599819
 20
24.349939664634181
 30
0.0
 40
9.0869999999999997
 50
1.4218153740000159
 51
3.0648020290001781
  0
ARC
  5
5D8
  8
BODY_PANELS
 10
20.2888889599819
 20
24.349939664634181
 30
0.0
 40
9.0869999999999997
 50
10.39505018200097
 51
10.789131226794311
  0
ARC
  5
5D9
  8
BODY_PANELS
 10
20.2888889599819
 20
24.349939664634181
 30
0.0
 40
9.0869999999999997
 50
349.21086877320579
 51
349.60494981799911
  0
ARC
  5
5DA
  8
BODY_PANELS
 10
20.2888889599819
 20
24.349939664634181
 30
0.0
 40
9.0470000000000006
 50
346.80014734600002
 51
349.20912637329218
  0
ARC
  5
5DB
  8
BODY_PANELS
 10
20.2888889599819
 20
24.349939664634181
 30
0.0
 40
9.0470000000000006
 50
357.3310214157068
 51
358.18236118129317
  0
ARC
  5
5DC
  8
BODY_PANELS
 10
20.2888889599819
 20
24.349939664634181
 30
0.0
 40
9.0470000000000006
 50
1.8176388187067709
 51
2.6689785842932801
  0
LINE
  5
5DD
  8
BODY_PANELS
 10
29.331336898856279
 20
24.63689658256142
 30
0.0
 11
29.18387873480518
 21
24.63323660388486
 31
0.0
  0
LINE
  5
5DE
  8
BODY_PANELS
 10
29.305080762491318
 20
25.482129746008169
 30
0.0
 11
29.305293837111801
 21
25.48215799237283
 31
0.0
  0
LINE
  5
5DF
  8
BODY_PANELS
 10
29.281179951429039
 20
25.343373973050351
 30
0.0
 11
29.134459959801259
 21
25.328190111684609
 31
0.0
  0
ARC
  5
5E0
  8
BODY_PANELS
 10
20.2888889599819
 20
24.349939664634181
 30
0.0
 40
9.0470000000000006
 50
6.3042562227078172
 51
7.1555959882946452
  0
ARC
  5
5E1
  8
BODY_PANELS
 10
20.2888889599819
 20
24.349939664634181
 30
0.0
 40
9.0869999999999997
 50
5.9084327780009973
 51
7.5514194330015068
  0
LINE
  5
5E2
  8
BODY_PANELS
 10
29.135805786644791
 20
26.42494126996084
 30
0.0
 11
29.096862607040269
 21
26.415807335305519
 31
0.0
  0
LINE
  5
5E3
  8
BODY_PANELS
 10
29.135805786644791
 20
22.274938059307502
 30
0.0
 11
29.096862607040269
 21
22.28407199396284
 31
0.0
  0
ARC
  5
5E4
  8
BODY_PANELS
 10
20.2888889599819
 20
24.349939664634181
 30
0.0
 40
9.0470000000000006
 50
10.790873626707929
 51
13.19985265400005
  0
ARC
  5
5E5
  8
BODY_PANELS
 10
20.2888889599819
 20
24.349939664634181
 30
0.0
 40
9.0869999999999997
 50
10.39505018200097
 51
13.19985265400002
  0
ARC
  5
5E6
  8
BODY_PANELS
 10
20.2888889599819
 20
24.349939664634181
 30
0.0
 40
9.0470000000000006
 50
352.84440401170531
 51
353.69574377729219
  0
ARC
  5
5E7
  8
BODY_PANELS
 10
20.2888889599819
 20
24.349939664634181
 30
0.0
 40
9.0869999999999997
 50
352.44858056699837
 51
354.0915672219989
  0
ARC
  5
622
  8
BODY_PANELS
 10
20.2888889599819
 20
24.349939664634181
 30
0.0
 40
9.0470000000000006
 50
166.8001473459999
 51
169.20912637329201
  0
ARC
  5
623
  8
BODY_PANELS
 10
20.2888889599819
 20
24.349939664634181
 30
0.0
 40
9.0869999999999997
 50
166.80014734599999
 51
169.604949817999
  0
LINE
  5
624
  8
BODY_PANELS
 10
11.401866288826881
 20
26.043762867443959
 30
0.0
 11
11.546948900012721
 21
26.017148181258971
 31
0.0
  0
ARC
  5
625
  8
BODY_PANELS
 10
20.2888889599819
 20
24.349939664634181
 30
0.0
 40
9.0869999999999997
 50
169.2108687732057
 51
169.604949817999
  0
ARC
  5
626
  8
BODY_PANELS
 10
20.2888889599819
 20
24.349939664634181
 30
0.0
 40
8.9619999999999997
 50
169.604949817999
 51
172.4485805669984
  0
ARC
  5
627
  8
BODY_PANELS
 10
20.2888889599819
 20
24.349939664634181
 30
0.0
 40
8.8994999999999997
 50
169.20256590246231
 51
172.85096448253501
  0
LINE
  5
628
  8
BODY_PANELS
 10
11.351033324824099
 20
25.98954499674262
 30
0.0
 11
11.47398170761212
 21
25.966990725089321
 31
0.0
  0
LINE
  5
629
  8
BODY_PANELS
 10
11.441972133319011
 20
26.42494126996084
 30
0.0
 11
11.48091531292348
 21
26.415807335305519
 31
0.0
  0
LINE
  5
62A
  8
BODY_PANELS
 10
11.40461349198139
 20
25.527688962526099
 30
0.0
 11
11.28069757661652
 21
25.544115950055271
 31
0.0
  0
ARC
  5
62B
  8
BODY_PANELS
 10
20.2888889599819
 20
24.349939664634181
 30
0.0
 40
9.0470000000000006
 50
172.84440401170539
 51
173.69574377729219
  0
LINE
  5
62C
  8
BODY_PANELS
 10
11.45857551981314
 20
25.457488669588528
 30
0.0
 11
11.31235119249024
 21
25.47687298510866
 31
0.0
  0
ARC
  5
62D
  8
BODY_PANELS
 10
20.2888889599819
 20
24.349939664634181
 30
0.0
 40
9.0869999999999997
 50
172.44858056699849
 51
174.09156722199899
  0
LINE
  5
62E
  8
BODY_PANELS
 10
11.272697157472431
 20
25.482129746008169
 30
0.0
 11
11.272484082851941
 21
25.48215799237283
 31
0.0
  0
LINE
  5
62F
  8
BODY_PANELS
 10
11.33970727606785
 20
24.829096411740739
 30
0.0
 11
11.21488606311433
 21
24.835779584401781
 31
0.0
  0
LINE
  5
630
  8
BODY_PANELS
 10
11.398995449593571
 20
24.763332485031508
 30
0.0
 11
11.25170284520121
 21
24.771218820082719
 31
0.0
  0
LINE
  5
631
  8
BODY_PANELS
 10
11.250162035768851
 20
25.28534577403596
 30
0.0
 11
11.374497995439439
 21
25.27247840706389
 31
0.0
  0
LINE
  5
632
  8
BODY_PANELS
 10
11.29659796853471
 20
25.343373973050351
 30
0.0
 11
11.44331796016249
 21
25.328190111684609
 31
0.0
  0
ARC
  5
633
  8
BODY_PANELS
 10
20.2888889599819
 20
24.349939664634181
 30
0.0
 40
8.9619999999999997
 50
174.09156722199899
 51
176.93519797099981
  0
ARC
  5
634
  8
BODY_PANELS
 10
20.2888889599819
 20
24.349939664634181
 30
0.0
 40
8.8994999999999997
 50
173.6891833064625
 51
177.33758188653641
  0
ARC
  5
635
  8
BODY_PANELS
 10
20.2888889599819
 20
24.349939664634181
 30
0.0
 40
9.0869999999999997
 50
176.93519797099981
 51
178.578184626
  0
ARC
  5
636
  8
BODY_PANELS
 10
20.2888889599819
 20
24.349939664634181
 30
0.0
 40
9.0470000000000006
 50
177.33102141570669
 51
178.1823611812932
  0
LINE
  5
637
  8
BODY_PANELS
 10
11.25659571925487
 20
25.347513753871262
 30
0.0
 11
11.256809516145641
 21
25.34749162830872
 31
0.0
  0
ARC
  5
638
  8
BODY_PANELS
 10
20.2888889599819
 20
24.349939664634181
 30
0.0
 40
8.9619999999999997
 50
178.57818462599991
 51
181.42181537399989
  0
ARC
  5
639
  8
BODY_PANELS
 10
20.2888889599819
 20
24.349939664634181
 30
0.0
 40
8.8994999999999997
 50
178.17580071046351
 51
181.82419928953661
  0
LINE
  5
63A
  8
BODY_PANELS
 10
11.39389918515857
 20
24.066642725383488
 30
0.0
 11
11.24644102110747
 21
24.062982746706918
 31
0.0
  0
LINE
  5
63B
  8
BODY_PANELS
 10
11.32964822747269
 20
24.12756723615443
 30
0.0
 11
11.20468671312724
 21
24.124465634552109
 31
0.0
  0
ARC
  5
63C
  8
BODY_PANELS
 10
20.2888889599819
 20
24.349939664634181
 30
0.0
 40
9.0470000000000006
 50
181.81763881870691
 51
182.6689785842932
  0
ARC
  5
63D
  8
BODY_PANELS
 10
20.2888889599819
 20
24.349939664634181
 30
0.0
 40
9.0869999999999997
 50
181.421815374
 51
183.06480202900011
  0
LINE
  5
63E
  8
BODY_PANELS
 10
11.24644102110747
 20
24.63689658256142
 30
0.0
 11
11.39389918515857
 21
24.63323660388486
 31
0.0
  0
LINE
  5
63F
  8
BODY_PANELS
 10
11.20468671312724
 20
24.575413694716229
 30
0.0
 11
11.32964822747269
 21
24.572312093113919
 31
0.0
  0
LINE
  5
640
  8
BODY_PANELS
 10
11.25170284520121
 20
23.928660509185651
 30
0.0
 11
11.398995449593571
 21
23.936546844236862
 31
0.0
  0
LINE
  5
641
  8
BODY_PANELS
 10
11.28069757661652
 20
23.15576337921307
 30
0.0
 11
11.40461349198139
 21
23.172190366742239
 31
0.0
  0
LINE
  5
642
  8
BODY_PANELS
 10
11.374497995439439
 20
23.42740092220447
 30
0.0
 11
11.250162035768851
 21
23.414533555232399
 31
0.0
  0
LINE
  5
643
  8
BODY_PANELS
 10
11.21488606311433
 20
23.864099744866579
 30
0.0
 11
11.33970727606785
 21
23.87078291752762
 31
0.0
  0
ARC
  5
644
  8
BODY_PANELS
 10
20.2888889599819
 20
24.349939664634181
 30
0.0
 40
9.0470000000000006
 50
186.30425622270789
 51
187.15559598829481
  0
LINE
  5
645
  8
BODY_PANELS
 10
11.44331796016249
 20
23.371689217583722
 30
0.0
 11
11.29659796853471
 21
23.356505356218008
 31
0.0
  0
LINE
  5
646
  8
BODY_PANELS
 10
11.31235119249024
 20
23.2230063441597
 30
0.0
 11
11.45857551981314
 21
23.24239065967981
 31
0.0
  0
ARC
  5
647
  8
BODY_PANELS
 10
20.2888889599819
 20
24.349939664634181
 30
0.0
 40
8.9619999999999997
 50
183.06480202900011
 51
185.9084327780011
  0
ARC
  5
648
  8
BODY_PANELS
 10
20.2888889599819
 20
24.349939664634181
 30
0.0
 40
8.9619999999999997
 50
187.55141943300171
 51
190.3950501820008
  0
ARC
  5
649
  8
BODY_PANELS
 10
20.2888889599819
 20
24.349939664634181
 30
0.0
 40
8.8994999999999997
 50
182.6624181134635
 51
186.3108166935375
  0
ARC
  5
64A
  8
BODY_PANELS
 10
20.2888889599819
 20
24.349939664634181
 30
0.0
 40
8.8994999999999997
 50
187.14903551746499
 51
190.7974340975374
  0
ARC
  5
64B
  8
BODY_PANELS
 10
20.2888889599819
 20
24.349939664634181
 30
0.0
 40
9.0869999999999997
 50
185.9084327780011
 51
187.5514194330016
  0
ARC
  5
64C
  8
BODY_PANELS
 10
20.2888889599819
 20
24.349939664634181
 30
0.0
 40
9.0470000000000006
 50
190.79087362670771
 51
193.19985265400001
  0
ARC
  5
64D
  8
BODY_PANELS
 10
20.2888889599819
 20
24.349939664634181
 30
0.0
 40
9.0869999999999997
 50
190.39505018200089
 51
193.1998526540001
  0
LINE
  5
64E
  8
BODY_PANELS
 10
11.44197213331895
 20
22.274938059307502
 30
0.0
 11
11.48091531292348
 21
22.28407199396284
 31
0.0
  0
LINE
  5
64F
  8
BODY_PANELS
 10
11.54694890001266
 20
22.68273114800941
 30
0.0
 11
11.401866288826881
 21
22.656116461824411
 31
0.0
  0
ARC
  5
650
  8
BODY_PANELS
 10
20.2888889599819
 20
24.349939664634181
 30
0.0
 40
9.0869999999999997
 50
190.39505018200089
 51
190.78913122679421
  0
LINE
  5
651
  8
BODY_PANELS
 10
11.47398170761212
 20
22.732888604179049
 30
0.0
 11
11.351033324824099
 21
22.710334332525751
 31
0.0
  0
TEXT
  5
652
  8
DIMENSIONS
 10
19.389562262155131
 20
34.939070070291649
 30
0.0
 40
0.18
  1
DOOR PANEL
 72
     1
 11
20.2509908335837
 21
34.939070070291649
 31
0.0
  0
TEXT
  5
653
  8
DIMENSIONS
 10
19.248133690726561
 20
35.939070070291649
 30
0.0
 40
0.18
  1
DOOR OPENING
 72
     1
 11
20.2509908335837
 21
35.939070070291649
 31
0.0
  0
LINE
  5
65D
  8
BODY_PANELS
 10
54.784636157302621
 20
27.662439664638779
 30
0.0
 11
55.809403902616253
 21
27.662439664638779
 31
0.0
  0
LINE
  5
65E
  8
BODY_PANELS
 10
54.784636157302621
 20
21.037439664638779
 30
0.0
 11
55.809403902616253
 21
21.037439664638779
 31
0.0
  0
ARC
  5
65F
  8
BODY_PANELS
 10
46.322903902616268
 20
24.349939664638779
 30
0.0
 40
9.0869999999999997
 50
338.62123143785311
 51
21.378768562146941
  0
LINE
  5
660
  8
BODY_PANELS
 10
55.409903902616257
 20
24.349939664638779
 30
0.0
 11
55.809403902616253
 21
24.349939664638779
 31
0.0
  0
LINE
  5
661
  8
BODY_PANELS
 10
55.809403902616253
 20
27.662439664638779
 30
0.0
 11
55.809403902616253
 21
21.037439664638779
 31
0.0
  0
LINE
  5
662
  8
BODY_PANELS
 10
36.83640390261624
 20
27.662439664638779
 30
0.0
 11
36.83640390261624
 21
21.037439664638779
 31
0.0
  0
ARC
  5
663
  8
BODY_PANELS
 10
46.322903902616268
 20
24.349939664638779
 30
0.0
 40
9.0869999999999997
 50
158.621231437853
 51
201.37876856214689
  0
LINE
  5
664
  8
BODY_PANELS
 10
37.235903902616229
 20
24.349939664638779
 30
0.0
 11
36.83640390261624
 21
24.349939664638779
 31
0.0
  0
LINE
  5
665
  8
BODY_PANELS
 10
37.861171647929872
 20
27.662439664638779
 30
0.0
 11
36.83640390261624
 21
27.662439664638779
 31
0.0
  0
LINE
  5
666
  8
BODY_PANELS
 10
37.861171647929872
 20
21.037439664638779
 30
0.0
 11
36.83640390261624
 21
21.037439664638779
 31
0.0
  0
TEXT
  5
667
  8
DIMENSIONS
 10
45.327496167309
 20
35.939070070291649
 30
0.0
 40
0.18
  1
DOOR OPENING
 72
     1
 11
46.330353310166139
 21
35.939070070291649
 31
0.0
  0
TEXT
  5
668
  8
DIMENSIONS
 10
45.46892473873757
 20
34.939070070291649
 30
0.0
 40
0.18
  1
DOOR PANEL
 72
     1
 11
46.330353310166139
 21
34.939070070291649
 31
0.0
  0
TEXT
  5
669
  8
DIMENSIONS
 10
45.923210453023287
 20
35.280293598103377
 30
0.0
 40
0.18
  1
11.769
 72
     1
 11
46.330353310166139
 21
35.280293598103377
 31
0.0
  0
TEXT
  5
66A
  8
DIMENSIONS
 10
45.923210453023287
 20
36.280293598103391
 30
0.0
 40
0.18
  1
11.889
 72
     1
 11
46.330353310166139
 21
36.280293598103391
 31
0.0
  0
ARC
  5
73D
  8
INNER_SKIN
 10
20.288888959987361
 20
24.349939664637791
 30
0.0
 40
9.0274999999999999
 50
124.6122994869997
 51
126.1545730299999
  0
ARC
  5
73E
  8
INNER_SKIN
 10
20.288888959987361
 20
24.349939664637791
 30
0.0
 40
9.0474999999999994
 50
124.6122994869997
 51
126.1545730299999
  0
ARC
  5
73F
  8
INNER_SKIN
 10
20.288888959987361
 20
24.349939664637791
 30
0.0
 40
9.0075000000000003
 50
124.6122994869997
 51
126.1545730299999
  0
LINE
  5
740
  8
INNER_SKIN
 10
14.97477306662833
 20
31.62285025957496
 30
0.0
 11
14.951174439291741
 21
31.65514739238623
 31
0.0
  0
LINE
  5
741
  8
INNER_SKIN
 10
14.926552425433069
 20
31.58737036483689
 30
0.0
 11
14.90273966258186
 21
31.619509940524701
 31
0.0
  0
LINE
  5
742
  8
INNER_SKIN
 10
15.199330115801301
 20
31.830156708385111
 30
0.0
 11
15.22183161939537
 21
31.797085839996061
 31
0.0
  0
LINE
  5
743
  8
INNER_SKIN
 10
15.17244492047692
 20
31.76324234566723
 30
0.0
 11
15.149724103204591
 21
31.796162923767831
 31
0.0
  0
ARC
  5
744
  8
INNER_SKIN
 10
20.288888959987361
 20
24.349939664637791
 30
0.0
 40
9.0075000000000003
 50
105.25456503700001
 51
124.23147128699981
  0
ARC
  5
745
  8
INNER_SKIN
 10
20.288888959987361
 20
24.349939664637791
 30
0.0
 40
9.0274999999999999
 50
105.25456503700001
 51
124.23147128699981
  0
ARC
  5
746
  8
INNER_SKIN
 10
20.288888959987361
 20
24.349939664637791
 30
0.0
 40
9.0474999999999994
 50
105.25456503700001
 51
124.23147128699981
  0
ARC
  5
747
  8
INNER_SKIN
 10
20.288888959987361
 20
24.349939664637791
 30
0.0
 40
9.0075000000000003
 50
82.006219385000264
 51
97.993780614999721
  0
ARC
  5
748
  8
INNER_SKIN
 10
20.288888959987361
 20
24.349939664637791
 30
0.0
 40
9.0274999999999999
 50
82.006219385000264
 51
97.993780614999721
  0
ARC
  5
749
  8
INNER_SKIN
 10
20.288888959987361
 20
24.349939664637791
 30
0.0
 40
9.0474999999999994
 50
82.006219385000264
 51
97.993780614999721
  0
LINE
  5
74A
  8
INNER_SKIN
 10
17.918942902528979
 20
33.040072686331847
 30
0.0
 11
17.908418579209719
 21
33.078663340882812
 31
0.0
  0
ARC
  5
74B
  8
INNER_SKIN
 10
20.288888959987361
 20
24.349939664637791
 30
0.0
 40
9.0274999999999999
 50
98.37460881499959
 51
104.873736837
  0
ARC
  5
74C
  8
INNER_SKIN
 10
20.288888959987361
 20
24.349939664637791
 30
0.0
 40
9.0474999999999994
 50
98.37460881499959
 51
104.873736837
  0
ARC
  5
74D
  8
INNER_SKIN
 10
20.288888959987361
 20
24.349939664637791
 30
0.0
 40
9.0075000000000003
 50
98.37460881499959
 51
104.873736837
  0
LINE
  5
74E
  8
INNER_SKIN
 10
17.976755586680351
 20
33.055632946280539
 30
0.0
 11
17.96648799468116
 21
33.09429269995978
 31
0.0
  0
LINE
  5
74F
  8
INNER_SKIN
 10
19.030692873565361
 20
33.309526644968543
 30
0.0
 11
19.036255497876681
 21
33.269915318169623
 31
0.0
  0
LINE
  5
750
  8
INNER_SKIN
 10
18.976995148712628
 20
33.261392457417379
 30
0.0
 11
18.971169364371718
 21
33.300965936375043
 31
0.0
  0
ARC
  5
751
  8
INNER_SKIN
 10
20.288888959987361
 20
24.349939664637791
 30
0.0
 40
9.0474999999999994
 50
55.768528713000208
 51
74.745434962999994
  0
ARC
  5
752
  8
INNER_SKIN
 10
20.288888959987361
 20
24.349939664637791
 30
0.0
 40
9.0274999999999999
 50
55.768528713000208
 51
74.745434962999994
  0
ARC
  5
753
  8
INNER_SKIN
 10
20.288888959987361
 20
24.349939664637791
 30
0.0
 40
9.0075000000000003
 50
55.768528713000208
 51
74.745434962999994
  0
ARC
  5
754
  8
INNER_SKIN
 10
20.288888959987361
 20
24.349939664637791
 30
0.0
 40
9.0075000000000003
 50
75.126263163000004
 51
81.625391185000396
  0
ARC
  5
755
  8
INNER_SKIN
 10
20.288888959987361
 20
24.349939664637791
 30
0.0
 40
9.0474999999999994
 50
75.126263163000004
 51
81.625391185000396
  0
ARC
  5
756
  8
INNER_SKIN
 10
20.288888959987361
 20
24.349939664637791
 30
0.0
 40
9.0274999999999999
 50
75.126263163000004
 51
81.625391185000396
  0
LINE
  5
757
  8
INNER_SKIN
 10
21.54152242209793
 20
33.269915318169623
 30
0.0
 11
21.547085046409311
 21
33.309526644968543
 31
0.0
  0
LINE
  5
758
  8
INNER_SKIN
 10
21.600782771262029
 20
33.261392457417379
 30
0.0
 11
21.60660855560295
 21
33.300965936375043
 31
0.0
  0
LINE
  5
759
  8
INNER_SKIN
 10
22.669359340764942
 20
33.078663340882812
 30
0.0
 11
22.658835017445622
 21
33.040072686331847
 31
0.0
  0
LINE
  5
75A
  8
INNER_SKIN
 10
22.60102233329437
 20
33.055632946280539
 30
0.0
 11
22.611289925293448
 21
33.09429269995978
 31
0.0
  0
LINE
  5
75B
  8
INNER_SKIN
 10
25.355946300579241
 20
31.797085839996061
 30
0.0
 11
25.378447804173359
 21
31.830156708385111
 31
0.0
  0
LINE
  5
75C
  8
INNER_SKIN
 10
25.603004853346281
 20
31.62285025957496
 30
0.0
 11
25.62660348068292
 21
31.65514739238623
 31
0.0
  0
ARC
  5
75D
  8
INNER_SKIN
 10
20.288888959987361
 20
24.349939664637791
 30
0.0
 40
9.0474999999999994
 50
53.845426970000062
 51
55.387700513000269
  0
LINE
  5
75E
  8
INNER_SKIN
 10
25.405332999497752
 20
31.76324234566723
 30
0.0
 11
25.428053816770081
 21
31.796162923767831
 31
0.0
  0
ARC
  5
75F
  8
INNER_SKIN
 10
20.288888959987361
 20
24.349939664637791
 30
0.0
 40
9.0075000000000003
 50
53.845426970000062
 51
55.387700513000269
  0
ARC
  5
760
  8
INNER_SKIN
 10
20.288888959987361
 20
24.349939664637791
 30
0.0
 40
9.0274999999999999
 50
53.845426970000062
 51
55.387700513000269
  0
LINE
  5
761
  8
INNER_SKIN
 10
25.651225494541588
 20
31.58737036483689
 30
0.0
 11
25.675038257392799
 21
31.619509940524701
 31
0.0
  0
ARC
  5
762
  8
INNER_SKIN
 10
20.288888959987361
 20
24.349939664637791
 30
0.0
 40
9.0274999999999999
 50
126.53538131000001
 51
134.8488313000002
  0
ARC
  5
763
  8
INNER_SKIN
 10
20.288888959987361
 20
24.349939664637791
 30
0.0
 40
9.0474999999999994
 50
126.53538131000001
 51
134.8488313000002
  0
ARC
  5
764
  8
INNER_SKIN
 10
20.288888959987361
 20
24.349939664637791
 30
0.0
 40
9.0075000000000003
 50
126.53538131000001
 51
134.8488313000002
  0
LINE
  5
765
  8
INNER_SKIN
 10
11.472720941823381
 20
26.196622562566699
 30
0.0
 11
11.433570598140159
 21
26.20482320824166
 31
0.0
  0
LINE
  5
766
  8
INNER_SKIN
 10
12.362280512015239
 20
28.62824946671353
 30
0.0
 11
12.327080474499979
 21
28.647248344546782
 31
0.0
  0
LINE
  5
767
  8
INNER_SKIN
 10
13.936451390649241
 20
30.735986421251908
 30
0.0
 11
13.90824184274206
 21
30.764345218949899
 31
0.0
  0
LINE
  5
768
  8
INNER_SKIN
 10
28.215497407959418
 20
28.62824946671353
 30
0.0
 11
28.250697445474739
 21
28.647248344546782
 31
0.0
  0
LINE
  5
769
  8
INNER_SKIN
 10
29.105056978151278
 20
26.196622562566699
 30
0.0
 11
29.1442073218345
 21
26.20482320824166
 31
0.0
  0
LINE
  5
76A
  8
INNER_SKIN
 10
26.641326529325429
 20
30.735986421251908
 30
0.0
 11
26.66953607723255
 21
30.764345218949899
 31
0.0
  0
ARC
  5
76B
  8
INNER_SKIN
 10
20.288888959987361
 20
24.349939664637791
 30
0.0
 40
9.0474999999999994
 50
192.12239699999969
 51
208.23058734999969
  0
ARC
  5
76C
  8
INNER_SKIN
 10
20.288888959987361
 20
24.349939664637791
 30
0.0
 40
9.0274999999999999
 50
192.12239699999969
 51
208.23058734999969
  0
ARC
  5
76D
  8
INNER_SKIN
 10
20.288888959987361
 20
24.349939664637791
 30
0.0
 40
9.0075000000000003
 50
192.12239699999969
 51
208.23058734999969
  0
ARC
  5
76E
  8
INNER_SKIN
 10
20.288888959987361
 20
24.349939664637791
 30
0.0
 40
9.0075000000000003
 50
151.64247656000049
 51
168.16955602000019
  0
ARC
  5
76F
  8
INNER_SKIN
 10
20.288888959987361
 20
24.349939664637791
 30
0.0
 40
9.0274999999999999
 50
151.64247656000049
 51
168.16955602000019
  0
ARC
  5
770
  8
INNER_SKIN
 10
20.288888959987361
 20
24.349939664637791
 30
0.0
 40
9.0474999999999994
 50
151.64247656000049
 51
168.16955602000019
  0
ARC
  5
771
  8
INNER_SKIN
 10
20.288888959987361
 20
24.349939664637791
 30
0.0
 40
9.0075000000000003
 50
28.738331722000101
 51
44.770360418000152
  0
ARC
  5
772
  8
INNER_SKIN
 10
20.288888959987361
 20
24.349939664637791
 30
0.0
 40
9.0274999999999999
 50
28.738331722000101
 51
44.770360418000152
  0
ARC
  5
773
  8
INNER_SKIN
 10
20.288888959987361
 20
24.349939664637791
 30
0.0
 40
9.0474999999999994
 50
28.738331722000101
 51
44.770360418000152
  0
ARC
  5
774
  8
INNER_SKIN
 10
20.288888959987361
 20
24.349939664637791
 30
0.0
 40
9.0474999999999994
 50
11.830443979999799
 51
28.357523439999511
  0
ARC
  5
775
  8
INNER_SKIN
 10
20.288888959987361
 20
24.349939664637791
 30
0.0
 40
9.0274999999999999
 50
11.830443979999799
 51
28.357523439999511
  0
ARC
  5
776
  8
INNER_SKIN
 10
20.288888959987361
 20
24.349939664637791
 30
0.0
 40
9.0075000000000003
 50
11.830443979999799
 51
28.357523439999511
  0
LINE
  5
777
  8
INNER_SKIN
 10
12.355817569736219
 20
28.700070072703681
 30
0.0
 11
12.390890557369261
 21
28.680837664157401
 31
0.0
  0
LINE
  5
778
  8
INNER_SKIN
 10
13.894148054040301
 20
30.693625107328629
 30
0.0
 11
13.86575064785236
 21
30.721795789283409
 31
0.0
  0
LINE
  5
779
  8
INNER_SKIN
 10
26.712027272122299
 20
30.721795789283409
 30
0.0
 11
26.68362986593436
 21
30.693625107328621
 31
0.0
  0
LINE
  5
77A
  8
INNER_SKIN
 10
28.186887362605351
 20
28.680837664157401
 30
0.0
 11
28.22196035023839
 21
28.700070072703681
 31
0.0
  0
ARC
  5
77B
  8
INNER_SKIN
 10
20.288888959987361
 20
24.349939664637791
 30
0.0
 40
9.0075000000000003
 50
45.151168699999737
 51
53.464618689999959
  0
ARC
  5
77C
  8
INNER_SKIN
 10
20.288888959987361
 20
24.349939664637791
 30
0.0
 40
9.0274999999999999
 50
45.151168699999737
 51
53.464618689999959
  0
ARC
  5
77D
  8
INNER_SKIN
 10
20.288888959987361
 20
24.349939664637791
 30
0.0
 40
9.0474999999999994
 50
45.151168699999737
 51
53.464618689999959
  0
ARC
  5
77E
  8
INNER_SKIN
 10
20.288888959987361
 20
24.349939664637791
 30
0.0
 40
9.0075000000000003
 50
135.22963958199981
 51
151.26166827799989
  0
ARC
  5
77F
  8
INNER_SKIN
 10
20.288888959987361
 20
24.349939664637791
 30
0.0
 40
9.0274999999999999
 50
135.22963958199981
 51
151.26166827799989
  0
ARC
  5
780
  8
INNER_SKIN
 10
20.288888959987361
 20
24.349939664637791
 30
0.0
 40
9.0474999999999994
 50
135.22963958199981
 51
151.26166827799989
  0
LINE
  5
781
  8
INNER_SKIN
 10
11.482245204011321
 20
22.45835778554067
 30
0.0
 11
11.443137155136551
 21
22.449957754992351
 31
0.0
  0
LINE
  5
782
  8
INNER_SKIN
 10
12.35282157952676
 20
20.08920137382594
 30
0.0
 11
12.317579537315479
 21
20.07028052657283
 31
0.0
  0
LINE
  5
783
  8
INNER_SKIN
 10
13.949906036215021
 20
17.950537212680018
 30
0.0
 11
13.921756236942111
 21
17.922119105760409
 31
0.0
  0
LINE
  5
784
  8
INNER_SKIN
 10
14.57115627865849
 20
17.38986859927758
 30
0.0
 11
14.54576529256323
 21
17.358960706675369
 31
0.0
  0
LINE
  5
785
  8
INNER_SKIN
 10
15.801068723435909
 20
16.540040447976949
 30
0.0
 11
15.781139463434529
 21
16.505358686259889
 31
0.0
  0
LINE
  5
786
  8
INNER_SKIN
 10
16.46374057562511
 20
16.19498435589384
 30
0.0
 11
16.44675407155907
 21
16.158770288466741
 31
0.0
  0
LINE
  5
787
  8
INNER_SKIN
 10
17.911376862394292
 20
15.661873569366699
 30
0.0
 11
17.900818940229009
 21
15.6232920935065
 31
0.0
  0
LINE
  5
788
  8
INNER_SKIN
 10
18.681764117753879
 20
15.486971426430211
 30
0.0
 11
18.674627288035389
 21
15.44761325495886
 31
0.0
  0
LINE
  5
789
  8
INNER_SKIN
 10
21.89529937893062
 20
15.48684190956871
 30
0.0
 11
21.902433036078349
 21
15.447483162946151
 31
0.0
  0
LINE
  5
78A
  8
INNER_SKIN
 10
22.647409475815579
 20
15.656698771483059
 30
0.0
 11
22.657883061231392
 21
15.61809431567111
 31
0.0
  0
LINE
  5
78B
  8
INNER_SKIN
 10
25.86771366078418
 20
17.278039551671039
 30
0.0
 11
25.892487792122751
 21
17.246635054916279
 31
0.0
  0
LINE
  5
78C
  8
INNER_SKIN
 10
26.627356025628188
 20
17.9500262661779
 30
0.0
 11
26.655503534107279
 21
17.921605890275782
 31
0.0
  0
LINE
  5
78D
  8
INNER_SKIN
 10
28.22461286873212
 20
20.088561683963359
 30
0.0
 11
28.259853385673491
 21
20.069637996011451
 31
0.0
  0
LINE
  5
78E
  8
INNER_SKIN
 10
29.095589772640121
 20
22.458623444007092
 30
0.0
 11
29.13469807488892
 21
22.450224593179978
 31
0.0
  0
ARC
  5
78F
  8
INNER_SKIN
 10
20.288888959987361
 20
24.349939664637791
 30
0.0
 40
9.0075000000000003
 50
315.10443184299999
 51
331.38398591899988
  0
ARC
  5
790
  8
INNER_SKIN
 10
20.288888959987361
 20
24.349939664637791
 30
0.0
 40
9.0474999999999994
 50
315.10443184299999
 51
331.38398591899988
  0
ARC
  5
791
  8
INNER_SKIN
 10
20.288888959987361
 20
24.349939664637791
 30
0.0
 40
9.0274999999999999
 50
315.10443184299999
 51
331.38398591899988
  0
ARC
  5
792
  8
INNER_SKIN
 10
20.288888959987361
 20
24.349939664637791
 30
0.0
 40
9.0274999999999999
 50
280.27316760199977
 51
285.17924764199989
  0
ARC
  5
793
  8
INNER_SKIN
 10
20.288888959987361
 20
24.349939664637791
 30
0.0
 40
9.0474999999999994
 50
280.27316760199977
 51
285.17924764199989
  0
ARC
  5
794
  8
INNER_SKIN
 10
20.288888959987361
 20
24.349939664637791
 30
0.0
 40
9.0075000000000003
 50
280.27316760199977
 51
285.17924764199989
  0
ARC
  5
795
  8
INNER_SKIN
 10
20.288888959987361
 20
24.349939664637791
 30
0.0
 40
9.0075000000000003
 50
285.56005592400021
 51
307.88811488999988
  0
ARC
  5
796
  8
INNER_SKIN
 10
20.288888959987361
 20
24.349939664637791
 30
0.0
 40
9.0474999999999994
 50
285.56005592400021
 51
307.88811488999988
  0
ARC
  5
797
  8
INNER_SKIN
 10
20.288888959987361
 20
24.349939664637791
 30
0.0
 40
9.0274999999999999
 50
285.56005592400021
 51
307.88811488999988
  0
ARC
  5
798
  8
INNER_SKIN
 10
20.288888959987361
 20
24.349939664637791
 30
0.0
 40
9.0075000000000003
 50
254.69554462200031
 51
259.72221395200012
  0
ARC
  5
799
  8
INNER_SKIN
 10
20.288888959987361
 20
24.349939664637791
 30
0.0
 40
9.0474999999999994
 50
254.69554462200031
 51
259.72221395200012
  0
ARC
  5
79A
  8
INNER_SKIN
 10
20.288888959987361
 20
24.349939664637791
 30
0.0
 40
9.0274999999999999
 50
254.69554462200031
 51
259.72221395200012
  0
ARC
  5
79B
  8
INNER_SKIN
 10
20.288888959987361
 20
24.349939664637791
 30
0.0
 40
9.0274999999999999
 50
240.11693420499969
 51
244.8706909320002
  0
ARC
  5
79C
  8
INNER_SKIN
 10
20.288888959987361
 20
24.349939664637791
 30
0.0
 40
9.0474999999999994
 50
240.11693420499969
 51
244.8706909320002
  0
ARC
  5
79D
  8
INNER_SKIN
 10
20.288888959987361
 20
24.349939664637791
 30
0.0
 40
9.0075000000000003
 50
240.11693420499969
 51
244.8706909320002
  0
ARC
  5
79E
  8
INNER_SKIN
 10
20.288888959987361
 20
24.349939664637791
 30
0.0
 40
9.0075000000000003
 50
208.6113956320001
 51
224.89094970800039
  0
ARC
  5
79F
  8
INNER_SKIN
 10
20.288888959987361
 20
24.349939664637791
 30
0.0
 40
9.0274999999999999
 50
208.6113956320001
 51
224.89094970800039
  0
ARC
  5
7A0
  8
INNER_SKIN
 10
20.288888959987361
 20
24.349939664637791
 30
0.0
 40
9.0474999999999994
 50
208.6113956320001
 51
224.89094970800039
  0
LINE
  5
7A1
  8
INNER_SKIN
 10
12.346199538082571
 20
20.017395262423051
 30
0.0
 11
12.38131504809925
 21
20.036549921288881
 31
0.0
  0
LINE
  5
7A2
  8
INNER_SKIN
 10
13.90751363635033
 20
17.992809397852579
 30
0.0
 11
13.879175583289481
 21
17.964579010878239
 31
0.0
  0
LINE
  5
7A3
  8
INNER_SKIN
 10
16.501279978711889
 20
16.13341518923081
 30
0.0
 11
16.51802541770067
 21
16.169741354361111
 31
0.0
  0
LINE
  5
7A4
  8
INNER_SKIN
 10
17.853685798986501
 20
15.677867143339791
 30
0.0
 11
17.842871685587649
 21
15.63935669084443
 31
0.0
  0
LINE
  5
7A5
  8
INNER_SKIN
 10
28.23122912206944
 20
20.016755039009912
 30
0.0
 11
28.1961151561691
 21
20.035912528374389
 31
0.0
  0
LINE
  5
7A6
  8
INNER_SKIN
 10
26.669751832795178
 20
17.992295034082971
 30
0.0
 11
26.698087610193141
 21
17.964062362950902
 31
0.0
  0
LINE
  5
7A7
  8
INNER_SKIN
 10
22.71586528324147
 20
15.63403224335549
 30
0.0
 11
22.70513535199748
 21
15.672566235823149
 31
0.0
  0
LINE
  5
7A8
  8
INNER_SKIN
 10
25.820588405269039
 20
17.24111715334449
 30
0.0
 11
25.84515326542018
 21
17.209548693677348
 31
0.0
  0
ARC
  5
7A9
  8
INNER_SKIN
 10
20.288888959987361
 20
24.349939664637791
 30
0.0
 40
9.0274999999999999
 50
331.76479420100031
 51
347.87933136100042
  0
ARC
  5
7AA
  8
INNER_SKIN
 10
20.288888959987361
 20
24.349939664637791
 30
0.0
 40
9.0075000000000003
 50
331.76479420100031
 51
347.87933136100042
  0
ARC
  5
7AB
  8
INNER_SKIN
 10
20.288888959987361
 20
24.349939664637791
 30
0.0
 40
9.0474999999999994
 50
331.76479420100031
 51
347.87933136100042
  0
ARC
  5
7AC
  8
INNER_SKIN
 10
20.288888959987361
 20
24.349939664637791
 30
0.0
 40
9.0075000000000003
 50
308.26892317199957
 51
314.72362356100012
  0
ARC
  5
7AD
  8
INNER_SKIN
 10
20.288888959987361
 20
24.349939664637791
 30
0.0
 40
9.0274999999999999
 50
308.26892317199957
 51
314.72362356100012
  0
ARC
  5
7AE
  8
INNER_SKIN
 10
20.288888959987361
 20
24.349939664637791
 30
0.0
 40
9.0474999999999994
 50
308.26892317199957
 51
314.72362356100012
  0
ARC
  5
7AF
  8
INNER_SKIN
 10
20.288888959987361
 20
24.349939664637791
 30
0.0
 40
9.0075000000000003
 50
245.25149921400029
 51
254.31473634
  0
ARC
  5
7B0
  8
INNER_SKIN
 10
20.288888959987361
 20
24.349939664637791
 30
0.0
 40
9.0274999999999999
 50
245.25149921400029
 51
254.31473634
  0
ARC
  5
7B1
  8
INNER_SKIN
 10
20.288888959987361
 20
24.349939664637791
 30
0.0
 40
9.0474999999999994
 50
245.25149921400029
 51
254.31473634
  0
ARC
  5
7B2
  8
INNER_SKIN
 10
20.288888959987361
 20
24.349939664637791
 30
0.0
 40
9.0474999999999994
 50
225.2717579900004
 51
230.59672714099989
  0
ARC
  5
7B3
  8
INNER_SKIN
 10
20.288888959987361
 20
24.349939664637791
 30
0.0
 40
9.0274999999999999
 50
225.2717579900004
 51
230.59672714099989
  0
ARC
  5
7B4
  8
INNER_SKIN
 10
20.288888959987361
 20
24.349939664637791
 30
0.0
 40
9.0075000000000003
 50
225.2717579900004
 51
230.59672714099989
  0
TEXT
  5
7B5
  8
OUTER_SKIN_PANELS
 10
38.796979014718183
 20
19.140672439133031
 30
0.0
 40
0.18
  1
DOOR
  0
TEXT
  5
7B6
  8
OUTER_SKIN_PANELS
 10
53.247862314638922
 20
19.140672439133031
 30
0.0
 40
0.18
  1
DOOR
  0
TEXT
  5
7B7
  8
OUTER_SKIN_PANELS
 10
38.796979014718183
 20
29.67380173759404
 30
0.0
 40
0.18
  1
DOOR
  0
TEXT
  5
7B8
  8
OUTER_SKIN_PANELS
 10
53.247862314638922
 20
29.67380173759404
 30
0.0
 40
0.18
  1
DOOR
  0
TEXT
  5
7B9
  8
OUTER_SKIN_PANELS
 10
13.29314085927782
 20
19.140672439133031
 30
0.0
 40
0.18
  1
DOOR
  0
TEXT
  5
7BA
  8
OUTER_SKIN_PANELS
 10
26.554925276269021
 20
19.140672439133031
 30
0.0
 40
0.18
  1
DOOR
  0
TEXT
  5
7BB
  8
OUTER_SKIN_PANELS
 10
13.29314085927782
 20
29.261635502240779
 30
0.0
 40
0.18
  1
DOOR
  0
TEXT
  5
7BC
  8
OUTER_SKIN_PANELS
 10
26.554925276269021
 20
29.261635502240779
 30
0.0
 40
0.18
  1
DOOR
  0
TEXT
  5
7BD
  8
OUTER_SKIN_PANELS
 10
17.124252650778509
 20
16.108183651906021
 30
0.0
 40
0.18
  1
DOOR
  0
TEXT
  5
B60
  8
0
  6
CONTINUOUS
 10
158.469114403699
 20
38.512376240048702
 30
0.0
 40
0.12
  1
 
 51
7.0
  0
TEXT
  5
B61
  8
0
  6
CONTINUOUS
 10
170.91321116917891
 20
45.575250669780353
 30
0.0
 40
0.24
  1
 
 51
7.0
  0
TEXT
  5
B62
  8
0
  6
CONTINUOUS
 10
180.12297618109221
 20
45.255240683203269
 30
0.0
 40
0.24
  1
 
 51
7.0
  0
TEXT
  5
B63
  8
0
  6
CONTINUOUS
 10
189.92693566552489
 20
28.39265988367595
 30
0.0
 40
0.24
  1
 
 51
7.0
  0
LINE
  5
ECF
  8
0
 10
0.0
 20
0.0
 30
0.0
 11
0.0
 21
44.0
 31
0.0
  0
LINE
  5
ED0
  8
0
 10
67.999999999999972
 20
0.0
 30
0.0
 11
67.999999999999972
 21
44.0
 31
0.0
  0
LINE
  5
ED1
  8
0
 10
0.0
 20
0.0
 30
0.0
 11
67.999999999999972
 21
0.0
 31
0.0
  0
LINE
  5
ED2
  8
0
 10
0.0
 20
44.0
 30
0.0
 11
67.999999999999972
 21
44.0
 31
0.0
  0
LINE
  5
ED3
  8
FORM
 10
66.41208786897343
 20
2.0714285703848532
 30
0.0
 11
66.412087890891911
 21
39.428571429615182
 31
0.0
  0
LINE
  5
ED4
  8
FORM
 10
65.92857140769658
 20
39.912087912810492
 30
0.0
 11
2.0714285923034481
 21
39.912087912810492
 31
0.0
  0
LINE
  5
ED5
  8
FORM
 10
65.928571385778099
 20
1.58791208718955
 30
0.0
 11
2.071428570384966
 21
1.587912087189522
 31
0.0
  0
LINE
  5
ED6
  8
FORM
 10
1.5879120871895791
 20
2.0714285703848532
 30
0.0
 11
1.5879121091080599
 21
39.428571429615182
 31
0.0
  0
TEXT
  5
ED7
  8
FORM
 10
55.720240927622271
 20
8.1073064549630516
 30
0.0
 40
0.818767169785845
  1
ROLLED LAYOUT
 72
     1
 11
60.652338402760819
 21
8.1073064549630516
 31
0.0
  0
TEXT
  5
ED8
  8
FORM
 10
59.09278188888301
 20
6.3749916515372638
 30
0.0
 40
0.818767169785845
  1
BODY
 72
     1
 11
60.652338402760819
 21
6.3749916515372638
 31
0.0
  0
TEXT
  5
ED9
  8
FORM
 10
51.824406043530267
 20
3.2272531810871068
 30
0.0
 40
0.818767169785845
  1
ASTROMECH DROID
  0
TEXT
  5
EDA
  8
FORM
 10
64.694058337363089
 20
3.2590838322590581
 30
0.0
 40
0.818767169785845
  1
A
  0
TEXT
  5
EDB
  8
FORM
 10
53.371160779209241
 20
2.2715387297187908
 30
0.0
 40
0.327506867914338
  1
FULL
  0
TEXT
  5
EDC
  8
FORM
 10
63.86459599682982
 20
2.2807058310152541
 30
0.0
 40
0.327506867914338
  1
2   4
  0
TEXT
  5
EDD
  8
FORM
 10
58.440316678728593
 20
2.3060054717400642
 30
0.0
 40
0.327506867914338
  1
APRIL 2005
 72
     2
 11
61.278709533986188
 21
2.3060054717400642
 31
0.0
  0
TEXT
  5
EDE
  8
FORM
  6
CONTINUOUS
 10
56.087744871238748
 20
2.3027104063017632
 30
0.0
 40
0.282965933877988
  1
DRAWN:
  0
TEXT
  5
EDF
  8
FORM
  6
CONTINUOUS
 10
51.707723247294183
 20
2.3029757600620111
 30
0.0
 40
0.282965933877988
  1
SCALE:
  0
TEXT
  5
EE0
  8
FORM
  6
CONTINUOUS
 10
62.056435572864729
 20
2.2994296957208169
 30
0.0
 40
0.282965933877988
  1
SHEET:   OF
  0
TEXT
  5
EE1
  8
FORM
  6
CONTINUOUS
 10
51.19099110766544
 20
4.5473804918172709
 30
0.0
 40
0.282965933877988
  1
DRAWING NO.
  0
TEXT
  5
EE2
  8
FORM
  6
CONTINUOUS
 10
64.584408679026836
 20
4.5473804918172362
 30
0.0
 40
0.282965933877988
  1
REV.
 72
     1
 11
65.002120295703861
 21
4.5473804918172362
 31
0.0
  0
LINE
  5
EE3
  8
FORM
  6
CONTINUOUS
 10
51.63879172493975
 20
10.27744065284651
 30
0.0
 11
65.221156551083112
 21
10.27744065284651
 31
0.0
  0
LINE
  5
EE4
  8
FORM
  6
CONTINUOUS
 10
50.931376890244771
 20
2.7788434050798179
 30
0.0
 11
50.931376890244771
 21
9.5700258181515139
 31
0.0
  0
LINE
  5
EE5
  8
FORM
  6
CONTINUOUS
 10
50.931376890244771
 20
4.971829392634219
 30
0.0
 11
65.928571385778099
 21
4.971829392634219
 31
0.0
  0
LINE
  5
EE6
  8
FORM
  6
CONTINUOUS
 10
50.931376890244771
 20
2.7788434050798179
 30
0.0
 11
65.928571385778099
 21
2.7788434050798179
 31
0.0
  0
LINE
  5
EE7
  8
FORM
  6
CONTINUOUS
 10
55.645276037128461
 20
2.7788434050798179
 30
0.0
 11
55.645276037128461
 21
2.0714285703848532
 31
0.0
  0
LINE
  5
EE8
  8
FORM
  6
CONTINUOUS
 10
61.84421112245613
 20
2.770134963721183
 30
0.0
 11
61.84421112245613
 21
2.062720129026224
 31
0.0
  0
LINE
  5
EE9
  8
FORM
  6
CONTINUOUS
 10
64.05934971204212
 20
4.971829392634219
 30
0.0
 11
64.05934971204212
 21
2.7788434050798179
 31
0.0
  0
ARC
  5
EEA
  8
FORM
 62
     5
 10
52.337612060020398
 20
8.1469588271436066
 30
0.0
 40
0.0771514191924642
 50
152.1811309977054
 51
330.9909881499326
  0
ARC
  5
EEB
  8
FORM
 62
     5
 10
52.671570970562328
 20
8.7900902565051311
 30
0.0
 40
0.0676495356889315
 50
335.32315363464221
 51
152.67224926330371
  0
ARC
  5
EEC
  8
FORM
 62
     5
 10
57.824377424280641
 20
5.6160194931393761
 30
0.0
 40
6.119414155820321
 50
148.41494327216171
 51
155.1985231324322
  0
ARC
  5
EED
  8
FORM
 62
     5
 10
59.008836689140331
 20
5.1979679414950217
 30
0.0
 40
7.2171201387314028
 50
150.4087571020633
 51
156.2074475795113
  0
ARC
  5
EEE
  8
FORM
 62
     7
 10
52.119447024568082
 20
7.4988032508703384
 30
0.0
 40
0.1030908568650854
 50
161.12872523797091
 51
346.89295927401378
  0
ARC
  5
EEF
  8
FORM
 62
     7
 10
82.261941999387403
 20
-5.5206456642076702
 30
0.0
 40
32.732629288835433
 50
153.58307292081321
 51
156.606911389662
  0
ARC
  5
EF0
  8
FORM
 62
     7
 10
77.534406713216384
 20
-3.8199212547185928
 30
0.0
 40
27.888605117073269
 50
152.34095999775931
 51
152.96941161274651
  0
ARC
  5
EF1
  8
FORM
 62
     7
 10
77.847027336062609
 20
-4.72830444110373
 30
0.0
 40
28.58768974499641
 50
153.37112835275741
 51
154.60402195655351
  0
ARC
  5
EF2
  8
FORM
 62
     7
 10
53.606679834423822
 20
8.7036909346188622
 30
0.0
 40
0.7411982444756121
 50
23.46872592819097
 51
88.151617587882953
  0
ARC
  5
EF3
  8
FORM
 62
     7
 10
53.623245086723237
 20
8.751475776424904
 30
0.0
 40
0.8748210355668392
 50
18.23262529566556
 51
154.63608874642691
  0
ARC
  5
EF4
  8
FORM
 62
     7
 10
53.885351176542677
 20
8.8426599756759643
 30
0.0
 40
0.5973626102415068
 50
336.99722732837893
 51
341.11190659806499
  0
ARC
  5
EF5
  8
FORM
 62
     7
 10
53.920880417071402
 20
8.8690784876338853
 30
0.0
 40
0.3912539554073429
 50
333.24704424527528
 51
339.12675173356172
  0
ARC
  5
EF6
  8
FORM
 62
     7
 10
54.290951105436839
 20
8.684331126913527
 30
0.0
 40
0.0224239591196723
 50
157.3747590211585
 51
243.1831734142406
  0
ARC
  5
EF7
  8
FORM
 62
     7
 10
54.423395901034347
 20
8.6127148128833326
 30
0.0
 40
0.0123235541018709
 50
246.7423667985764
 51
343.55073793579641
  0
ARC
  5
EF8
  8
FORM
 62
     7
 10
54.811185786547043
 20
9.6427183666274612
 30
0.0
 40
1.112896192779387
 50
241.5396617947477
 51
249.3398833202246
  0
ARC
  5
EF9
  8
FORM
 62
     7
 10
54.033224422236998
 20
8.4625152019390413
 30
0.0
 40
0.2196955295237861
 50
210.28645373052609
 51
287.25915125833183
  0
ARC
  5
EFA
  8
FORM
 62
     7
 10
54.052101176141463
 20
8.3675109945192272
 30
0.0
 40
0.123786185143917
 50
291.9673023282902
 51
10.201088362233779
  0
ARC
  5
EFB
  8
FORM
 62
     7
 10
53.073795405469099
 20
8.1557891483017642
 30
0.0
 40
0.7942636775164282
 50
14.28109924276106
 51
24.947261539878319
  0
ARC
  5
EFC
  8
FORM
 62
     7
 10
53.537057153942072
 20
8.3963642678630208
 30
0.0
 40
0.2737008613523453
 50
20.18306378886744
 51
47.833846572520187
  0
ARC
  5
EFD
  8
FORM
 62
     7
 10
53.588224479352419
 20
8.2577288316070394
 30
0.0
 40
0.3663294322877009
 50
68.784960310906996
 51
94.742087985452173
  0
ARC
  5
EFE
  8
FORM
 62
     7
 10
53.584238695569951
 20
8.4742247226856904
 30
0.0
 40
0.1508890977564403
 50
100.0375073429587
 51
170.98475346238999
  0
ARC
  5
EFF
  8
FORM
 62
     7
 10
54.293965351228941
 20
8.3699241357184704
 30
0.0
 40
0.8682306147681597
 50
171.52589863719899
 51
197.49474109667489
  0
ARC
  5
F00
  8
FORM
 62
     7
 10
53.709106413910462
 20
8.3822077830255637
 30
0.0
 40
0.4648803312949632
 50
0.8906501289531794
 51
49.113860192417441
  0
ARC
  5
F01
  8
FORM
 62
     7
 10
53.611171600421102
 20
8.4674763755244822
 30
0.0
 40
0.365892574814731
 50
99.869748807366776
 51
175.59516845025641
  0
ARC
  5
F02
  8
FORM
 62
     7
 10
53.677146335443318
 20
8.2690769049855248
 30
0.0
 40
0.5735023392024642
 50
54.104282451027821
 51
102.9674010870567
  0
ARC
  5
F03
  8
FORM
 62
     7
 10
55.29573721779375
 20
8.6102986220973463
 30
0.0
 40
1.897288699997687
 50
195.32307896217739
 51
209.290843156958
  0
ARC
  5
F04
  8
FORM
 62
     7
 10
54.698760470716678
 20
8.299213579803407
 30
0.0
 40
1.4656148214588249
 50
172.3003020759547
 51
200.12627387409319
  0
ARC
  5
F05
  8
FORM
 62
     7
 10
55.746646700313327
 20
8.7082693302388563
 30
0.0
 40
2.5903723187170171
 50
200.64629086238159
 51
210.04649609044409
  0
ARC
  5
F06
  8
FORM
 62
     7
 10
52.17828809023657
 20
6.7004264887445606
 30
0.0
 40
1.761590274763104
 50
28.431949107384149
 51
33.865461133002611
  0
ARC
  5
F07
  8
FORM
 62
     7
 10
53.62517354680412
 20
7.4590058613902031
 30
0.0
 40
0.1298953559893184
 50
201.5644604264042
 51
38.094090168146558
  0
ARC
  5
F08
  8
FORM
 62
     5
 10
54.766677534340459
 20
8.5381675639083099
 30
0.0
 40
0.0722551689172873
 50
227.62026965936079
 51
57.412112921203693
  0
ARC
  5
F09
  8
FORM
 62
     5
 10
53.914532647386828
 20
7.4265270570380286
 30
0.0
 40
1.472682412211493
 50
52.766851639305592
 51
65.063571515458193
  0
ARC
  5
F0A
  8
FORM
 62
     5
 10
53.229022252933042
 20
6.3636707391322949
 30
0.0
 40
2.591551498592759
 50
54.932512589538533
 51
74.152868438598929
  0
ARC
  5
F0B
  8
FORM
 62
     5
 10
53.266387863789731
 20
5.593233894466926
 30
0.0
 40
3.3316223132964979
 50
78.393012355262798
 51
89.647961077025343
  0
ARC
  5
F0C
  8
FORM
 62
     5
 10
53.281259068420212
 20
9.0214912393504036
 30
0.0
 40
0.0968598764566585
 50
183.99799442116571
 51
273.3138077458816
  0
ARC
  5
F0D
  8
FORM
 62
     5
 10
53.608164067027211
 20
9.0470792665787485
 30
0.0
 40
0.4247621811873005
 50
145.608591669193
 51
184.36670732083459
  0
ARC
  5
F0E
  8
FORM
 62
     5
 10
53.346821189193719
 20
9.2306170384884041
 30
0.0
 40
0.1055022386398662
 50
75.244714174010113
 51
147.692985011616
  0
ARC
  5
F0F
  8
FORM
 62
     5
 10
52.089208687016672
 20
4.4042530946959948
 30
0.0
 40
5.0930241255697579
 50
61.6372422415252
 51
75.392005557716686
  0
ARC
  5
F10
  8
FORM
 62
     5
 10
54.412425947289158
 20
8.8002371258938865
 30
0.0
 40
0.1288375760554181
 50
342.69825742684031
 51
41.67278378767756
  0
ARC
  5
F11
  8
FORM
 62
     7
 10
53.885351176542677
 20
8.8426599756759643
 30
0.0
 40
0.5973626102415068
 50
5.6380312699922861
 51
17.791456368736871
  0
ARC
  5
F12
  8
FORM
 62
     7
 10
54.157195580351612
 20
6.0276973535147533
 30
0.0
 40
0.1911510346570602
 50
88.432533024773406
 51
186.62631613112151
  0
ARC
  5
F13
  8
FORM
 62
     7
 10
54.187196238034488
 20
6.0675540836225386
 30
0.0
 40
0.2284256957285577
 50
195.72663051282731
 51
285.3806868435185
  0
ARC
  5
F14
  8
FORM
 62
     7
 10
53.91782009810035
 20
8.0890358745740016
 30
0.0
 40
2.2658799518275781
 50
278.37329371359471
 51
293.15208507016911
  0
ARC
  5
F15
  8
FORM
 62
     7
 10
54.678023135490633
 20
6.6628803637901646
 30
0.0
 40
0.4673284540570331
 50
257.51805604168283
 51
277.23103351305713
  0
ARC
  5
F16
  8
FORM
 62
     7
 10
54.704224911382397
 20
6.278964448132391
 30
0.0
 40
0.0861135645514417
 50
292.26031345923383
 51
12.86737930052386
  0
ARC
  5
F17
  8
FORM
 62
     7
 10
54.64019539065427
 20
6.2666187613767264
 30
0.0
 40
0.151300846597343
 50
12.025375527395409
 51
52.143631645158997
  0
ARC
  5
F18
  8
FORM
 62
     7
 10
57.866299555926012
 20
10.187046017882709
 30
0.0
 40
4.9259140486658151
 50
219.60277928185971
 51
230.50020204080539
  0
ARC
  5
F19
  8
FORM
 62
     7
 10
54.825470558724497
 20
7.6374015641196769
 30
0.0
 40
0.9580633112129898
 50
175.9752311543505
 51
218.04500009534141
  0
ARC
  5
F1A
  8
FORM
 62
     7
 10
54.419393086382648
 20
7.7336082338741932
 30
0.0
 40
0.5503856226042344
 50
149.96078860476399
 51
183.01641230856211
  0
ARC
  5
F1B
  8
FORM
 62
     7
 10
54.034906598943131
 20
7.9600157391873694
 30
0.0
 40
0.1042639269391443
 50
69.764209445538711
 51
151.8988190455112
  0
ARC
  5
F1C
  8
FORM
 62
     7
 10
54.022605625245738
 20
7.9529287498945962
 30
0.0
 40
0.1155264074768683
 50
357.6694469744499
 51
65.251102439515478
  0
ARC
  5
F1D
  8
FORM
 62
     7
 10
53.750399683339403
 20
7.930589827973435
 30
0.0
 40
0.3880380012909595
 50
345.36193237678458
 51
2.6056939300728841
  0
ARC
  5
F1E
  8
FORM
 62
     7
 10
54.993906232502439
 20
7.5641263481726488
 30
0.0
 40
0.9086109956404614
 50
162.81861830880709
 51
185.3549666415731
  0
ARC
  5
F1F
  8
FORM
 62
     7
 10
54.89261066446236
 20
7.6552740548943126
 30
0.0
 40
0.8223913657117925
 50
192.3534994193023
 51
222.3020476696033
  0
ARC
  5
F20
  8
FORM
 62
     7
 10
57.725715489079647
 20
9.9392423367481442
 30
0.0
 40
4.4602839442001772
 50
219.50633019139829
 51
228.42762303996261
  0
ARC
  5
F21
  8
FORM
 62
     7
 10
54.284757426644738
 20
5.9465760096325582
 30
0.0
 40
0.8134823372280761
 50
32.971129457978869
 51
53.728419363024372
  0
ARC
  5
F22
  8
FORM
 62
     7
 10
54.725873720263358
 20
6.2644379781080479
 30
0.0
 40
0.2717300614108477
 50
287.74749415951351
 51
27.352111896629431
  0
ARC
  5
F23
  8
FORM
 62
     7
 10
54.319331433337972
 20
4.4973603499034871
 30
0.0
 40
1.7285527594561461
 50
81.426570944509805
 51
95.208118001959363
  0
ARC
  5
F24
  8
FORM
 62
     7
 10
53.573189978744573
 20
7.1918732116354169
 30
0.0
 40
0.0769525284287425
 50
325.52447187114308
 51
75.340502228459755
  0
ARC
  5
F25
  8
FORM
 62
     7
 10
53.478378671496642
 20
7.2614851906219746
 30
0.0
 40
0.194551612991733
 50
277.78730616127859
 51
324.42957968808531
  0
ARC
  5
F26
  8
FORM
 62
     7
 10
53.443971924173148
 20
7.2938402550063151
 30
0.0
 40
0.2331702256248759
 50
243.4858187420015
 51
285.1065744639302
  0
ARC
  5
F27
  8
FORM
 62
     7
 10
43.130819513922432
 20
-19.059482713192178
 30
0.0
 40
28.328397929685782
 50
68.327181839257534
 51
70.606105230637283
  0
ARC
  5
F28
  8
FORM
 62
     7
 10
52.517560891374131
 20
7.5785329675157689
 30
0.0
 40
0.0853509474269032
 50
76.445232091871915
 51
134.36352227876429
  0
ARC
  5
F29
  8
FORM
 62
     7
 10
52.897033175921109
 20
6.9946887361666654
 30
0.0
 40
0.7801932754080996
 50
124.2547762008319
 51
135.0129319624362
  0
ARC
  5
F2A
  8
FORM
 62
     7
 10
52.359875856285583
 20
7.5214269289684799
 30
0.0
 40
0.0288172461190549
 50
120.5491196217087
 51
251.48388650457531
  0
ARC
  5
F2B
  8
FORM
 62
     7
 10
48.482107175573532
 20
-3.265014770761169
 30
0.0
 40
11.433493777918439
 50
64.857428943178178
 51
67.515132469298948
  0
ARC
  5
F2C
  8
FORM
 62
     7
 10
53.313122652173057
 20
6.917070330333658
 30
0.0
 40
0.1079484692724341
 50
329.18566117941782
 51
69.527151249863394
  0
ARC
  5
F2D
  8
FORM
 62
     7
 10
53.02992765625342
 20
6.4893311501612914
 30
0.0
 40
0.6186377569189299
 50
58.747973844557592
 51
81.106226592028065
  0
ARC
  5
F2E
  8
FORM
 62
     7
 10
52.964119281596112
 20
6.079225149618579
 30
0.0
 40
1.0339883512605399
 50
81.016817915507374
 51
97.679603827268224
  0
ARC
  5
F2F
  8
FORM
 62
     7
 10
53.072945600803642
 20
6.3899427330718481
 30
0.0
 40
0.7669823852306594
 50
121.5050128230593
 51
139.0957881060701
  0
ARC
  5
F30
  8
FORM
 62
     7
 10
53.281165046550633
 20
6.9006052487523704
 30
0.0
 40
0.1305751021873748
 50
277.70569210516868
 51
342.69880024124109
  0
ARC
  5
F31
  8
FORM
 62
     7
 10
53.241090335957068
 20
7.0479394490822846
 30
0.0
 40
0.2826577120156703
 50
250.08394506358289
 51
281.75453717228322
  0
ARC
  5
F32
  8
FORM
 62
     7
 10
53.333440254557637
 20
7.0803914071958332
 30
0.0
 40
0.3528587603317831
 50
221.18187885427261
 51
237.6837877598532
  0
ARC
  5
F33
  8
FORM
 62
     7
 10
52.919601543473021
 20
6.6713267942468661
 30
0.0
 40
0.2306841190873098
 50
50.003848755011632
 51
75.541683009840284
  0
ARC
  5
F34
  8
FORM
 62
     7
 10
52.907400090387988
 20
6.7549407861950073
 30
0.0
 40
0.1562234256794286
 50
63.462660349847148
 51
100.74200229027051
  0
ARC
  5
F35
  8
FORM
 62
     7
 10
52.87828209075721
 20
6.6440867474165302
 30
0.0
 40
0.2643398714423545
 50
89.999999999999204
 51
125.597461548903
  0
ARC
  5
F36
  8
FORM
 62
     7
 10
56.013985695628399
 20
8.5304586504409485
 30
0.0
 40
3.657578088371412
 50
197.51922498184919
 51
203.98148144473089
  0
ARC
  5
F37
  8
FORM
 62
     7
 10
51.744801739424787
 20
7.3630178619183653
 30
0.0
 40
1.1117508566166261
 50
346.52409876011302
 51
356.71498770316703
  0
ARC
  5
F38
  8
FORM
 62
     7
 10
48.482107175573532
 20
-3.265014770761169
 30
0.0
 40
11.433493777918439
 50
69.286600818944024
 51
70.223117600767665
  0
ARC
  5
F39
  8
FORM
 62
     7
 10
52.34481892048322
 20
6.3953387136672291
 30
0.0
 40
0.3352600217600381
 50
245.40259669902059
 51
275.40975098180542
  0
ARC
  5
F3A
  8
FORM
 62
     7
 10
53.520386894961767
 20
5.7903870190522042
 30
0.0
 40
1.3325046370178399
 50
126.68044463040199
 51
139.78708822539889
  0
ARC
  5
F3B
  8
FORM
 62
     7
 10
52.338547247294152
 20
7.3383888610662922
 30
0.0
 40
1.2773786555491351
 50
271.69929119420158
 51
283.3954084205688
  0
ARC
  5
F3C
  8
FORM
 62
     7
 10
54.727114903110618
 20
4.3904724671575996
 30
0.0
 40
3.1711328180577252
 50
134.5410403491787
 51
138.91474429089911
  0
ARC
  5
F3D
  8
FORM
 62
     7
 10
52.39110905286006
 20
6.4294007533066662
 30
0.0
 40
0.083891748057509
 50
201.8252958964797
 51
267.16449786715492
  0
ARC
  5
F3E
  8
FORM
 62
     7
 10
52.373049101059422
 20
6.4214417516376008
 30
0.0
 40
0.0641708640242986
 50
124.254854327418
 51
201.22329273937871
  0
ARC
  5
F3F
  8
FORM
 62
     7
 10
52.56844356982171
 20
6.3692318582146319
 30
0.0
 40
0.2813294210123032
 50
283.575177031279
 51
324.58969283639942
  0
ARC
  5
F40
  8
FORM
 62
     7
 10
52.728891423041411
 20
6.2352429898932442
 30
0.0
 40
0.0747093533223839
 50
337.14160324238759
 51
47.564966708928033
  0
ARC
  5
F41
  8
FORM
 62
     7
 10
52.61389863416067
 20
6.0709580941609644
 30
0.0
 40
0.2747816207202772
 50
52.990730681111621
 51
91.748895977531376
  0
ARC
  5
F42
  8
FORM
 62
     7
 10
52.496235772808831
 20
7.0915807342296233
 30
0.0
 40
0.7539304877822591
 50
261.66603807207321
 51
278.33396192792679
  0
ARC
  5
F43
  8
FORM
 62
     7
 10
52.269888054907341
 20
6.2522407909703821
 30
0.0
 40
0.1741692160950157
 50
192.64550774538381
 51
248.22239672568659
  0
ARC
  5
F44
  8
FORM
 62
     7
 10
52.227082164050749
 20
6.2719719113867347
 30
0.0
 40
0.1396852931356725
 50
178.88427582775461
 51
204.46998391858139
  0
ARC
  5
F45
  8
FORM
 62
     7
 10
52.572627070163982
 20
6.2366702536843439
 30
0.0
 40
0.4866911615937786
 50
140.5469001514941
 51
175.5193383191162
  0
ARC
  5
F46
  8
FORM
 62
     7
 10
57.366369999140581
 20
2.4199534743307178
 30
0.0
 40
6.6142172078229233
 50
137.4564398093305
 51
141.40545593619069
  0
POLYLINE
  5
F47
  8
FORM
 62
     1
 10
53.437670687963482
 20
9.2694456890730521
 30
0.0
 66
     1
 70
     8
  0
VERTEX
  8
FORM
  5
FB4
 10
53.4377
 20
9.26945
 30
0.000000
  70
    32
  0
VERTEX
  8
FORM
  5
FB5
 10
53.4347
 20
9.27053
 30
0.000000
  70
    32
  0
VERTEX
  8
FORM
  5
FB6
 10
53.4317
 20
9.27127
 30
0.000000
  70
    32
  0
VERTEX
  8
FORM
  5
FB7
 10
53.4285
 20
9.27166
 30
0.000000
  70
    32
  0
VERTEX
  8
FORM
  5
FB8
 10
53.4251
 20
9.27171
 30
0.000000
  70
    32
  0
VERTEX
  8
FORM
  5
FB9
 10
53.4217
 20
9.27142
 30
0.000000
  70
    32
  0
VERTEX
  8
FORM
  5
FBA
 10
53.4181
 20
9.27077
 30
0.000000
  70
    32
  0
VERTEX
  8
FORM
  5
FBB
 10
53.4145
 20
9.26979
 30
0.000000
  70
    32
  0
VERTEX
  8
FORM
  5
FBC
 10
53.4107
 20
9.26846
 30
0.000000
  70
    32
  0
VERTEX
  8
FORM
  5
FBD
 10
53.4069
 20
9.26680
 30
0.000000
  70
    32
  0
VERTEX
  8
FORM
  5
FBE
 10
53.4029
 20
9.26480
 30
0.000000
  70
    32
  0
VERTEX
  8
FORM
  5
FBF
 10
53.3990
 20
9.26248
 30
0.000000
  70
    32
  0
VERTEX
  8
FORM
  5
FC0
 10
53.3949
 20
9.25983
 30
0.000000
  70
    32
  0
VERTEX
  8
FORM
  5
FC1
 10
53.3908
 20
9.25686
 30
0.000000
  70
    32
  0
VERTEX
  8
FORM
  5
FC2
 10
53.3867
 20
9.25358
 30
0.000000
  70
    32
  0
VERTEX
  8
FORM
  5
FC3
 10
53.3826
 20
9.25000
 30
0.000000
  70
    32
  0
VERTEX
  8
FORM
  5
FC4
 10
53.3784
 20
9.24613
 30
0.000000
  70
    32
  0
VERTEX
  8
FORM
  5
FC5
 10
53.3742
 20
9.24198
 30
0.000000
  70
    32
  0
VERTEX
  8
FORM
  5
FC6
 10
53.3701
 20
9.23755
 30
0.000000
  70
    32
  0
VERTEX
  8
FORM
  5
FC7
 10
53.3659
 20
9.23285
 30
0.000000
  70
    32
  0
VERTEX
  8
FORM
  5
FC8
 10
53.3618
 20
9.22791
 30
0.000000
  70
    32
  0
VERTEX
  8
FORM
  5
FC9
 10
53.3577
 20
9.22272
 30
0.000000
  70
    32
  0
VERTEX
  8
FORM
  5
FCA
 10
53.3536
 20
9.21731
 30
0.000000
  70
    32
  0
VERTEX
  8
FORM
  5
FCB
 10
53.3496
 20
9.21168
 30
0.000000
  70
    32
  0
VERTEX
  8
FORM
  5
FCC
 10
53.3457
 20
9.20585
 30
0.000000
  70
    32
  0
VERTEX
  8
FORM
  5
FCD
 10
53.3418
 20
9.19984
 30
0.000000
  70
    32
  0
VERTEX
  8
FORM
  5
FCE
 10
53.3380
 20
9.19365
 30
0.000000
  70
    32
  0
VERTEX
  8
FORM
  5
FCF
 10
53.3343
 20
9.18730
 30
0.000000
  70
    32
  0
VERTEX
  8
FORM
  5
FD0
 10
53.3307
 20
9.18081
 30
0.000000
  70
    32
  0
VERTEX
  8
FORM
  5
FD1
 10
53.3273
 20
9.17420
 30
0.000000
  70
    32
  0
VERTEX
  8
FORM
  5
FD2
 10
53.3239
 20
9.16747
 30
0.000000
  70
    32
  0
VERTEX
  8
FORM
  5
FD3
 10
53.3206
 20
9.16065
 30
0.000000
  70
    32
  0
VERTEX
  8
FORM
  5
FD4
 10
53.3175
 20
9.15375
 30
0.000000
  70
    32
  0
VERTEX
  8
FORM
  5
FD5
 10
53.3146
 20
9.14679
 30
0.000000
  70
    32
  0
VERTEX
  8
FORM
  5
FD6
 10
53.3117
 20
9.13979
 30
0.000000
  70
    32
  0
VERTEX
  8
FORM
  5
FD7
 10
53.3091
 20
9.13275
 30
0.000000
  70
    32
  0
VERTEX
  8
FORM
  5
FD8
 10
53.3065
 20
9.12571
 30
0.000000
  70
    32
  0
VERTEX
  8
FORM
  5
FD9
 10
53.3042
 20
9.11867
 30
0.000000
  70
    32
  0
VERTEX
  8
FORM
  5
FDA
 10
53.3020
 20
9.11166
 30
0.000000
  70
    32
  0
VERTEX
  8
FORM
  5
FDB
 10
53.3000
 20
9.10468
 30
0.000000
  70
    32
  0
VERTEX
  8
FORM
  5
FDC
 10
53.2982
 20
9.09777
 30
0.000000
  70
    32
  0
VERTEX
  8
FORM
  5
FDD
 10
53.2966
 20
9.09092
 30
0.000000
  70
    32
  0
VERTEX
  8
FORM
  5
FDE
 10
53.2952
 20
9.08417
 30
0.000000
  70
    32
  0
VERTEX
  8
FORM
  5
FDF
 10
53.2939
 20
9.07752
 30
0.000000
  70
    32
  0
VERTEX
  8
FORM
  5
FE0
 10
53.2929
 20
9.07099
 30
0.000000
  70
    32
  0
VERTEX
  8
FORM
  5
FE1
 10
53.2920
 20
9.06460
 30
0.000000
  70
    32
  0
VERTEX
  8
FORM
  5
FE2
 10
53.2914
 20
9.05837
 30
0.000000
  70
    32
  0
VERTEX
  8
FORM
  5
FE3
 10
53.2909
 20
9.05230
 30
0.000000
  70
    32
  0
VERTEX
  8
FORM
  5
FE4
 10
53.2907
 20
9.04642
 30
0.000000
  70
    32
  0
VERTEX
  8
FORM
  5
FE5
 10
53.2907
 20
9.04073
 30
0.000000
  70
    32
  0
VERTEX
  8
FORM
  5
FE6
 10
53.2908
 20
9.03526
 30
0.000000
  70
    32
  0
VERTEX
  8
FORM
  5
FE7
 10
53.2912
 20
9.03000
 30
0.000000
  70
    32
  0
VERTEX
  8
FORM
  5
FE8
 10
53.2918
 20
9.02499
 30
0.000000
  70
    32
  0
VERTEX
  8
FORM
  5
FE9
 10
53.2926
 20
9.02022
 30
0.000000
  70
    32
  0
VERTEX
  8
FORM
  5
FEA
 10
53.2936
 20
9.01571
 30
0.000000
  70
    32
  0
VERTEX
  8
FORM
  5
FEB
 10
53.2947
 20
9.01148
 30
0.000000
  70
    32
  0
VERTEX
  8
FORM
  5
FEC
 10
53.2961
 20
9.00752
 30
0.000000
  70
    32
  0
VERTEX
  8
FORM
  5
FED
 10
53.2977
 20
9.00386
 30
0.000000
  70
    32
  0
VERTEX
  8
FORM
  5
FEE
 10
53.2994
 20
9.00050
 30
0.000000
  70
    32
  0
VERTEX
  8
FORM
  5
FEF
 10
53.3014
 20
8.99744
 30
0.000000
  70
    32
  0
VERTEX
  8
FORM
  5
FF0
 10
53.3035
 20
8.99470
 30
0.000000
  70
    32
  0
VERTEX
  8
FORM
  5
FF1
 10
53.3058
 20
8.99228
 30
0.000000
  70
    32
  0
VERTEX
  8
FORM
  5
FF2
 10
53.3082
 20
8.99019
 30
0.000000
  70
    32
  0
VERTEX
  8
FORM
  5
FF3
 10
53.3109
 20
8.98843
 30
0.000000
  70
    32
  0
VERTEX
  8
FORM
  5
FF4
 10
53.3136
 20
8.98701
 30
0.000000
  70
    32
  0
VERTEX
  8
FORM
  5
FF5
 10
53.3166
 20
8.98592
 30
0.000000
  70
    32
  0
VERTEX
  8
FORM
  5
FF6
 10
53.3196
 20
8.98518
 30
0.000000
  70
    32
  0
VERTEX
  8
FORM
  5
FF7
 10
53.3228
 20
8.98479
 30
0.000000
  70
    32
  0
VERTEX
  8
FORM
  5
FF8
 10
53.3262
 20
8.98474
 30
0.000000
  70
    32
  0
VERTEX
  8
FORM
  5
FF9
 10
53.3296
 20
8.98504
 30
0.000000
  70
    32
  0
VERTEX
  8
FORM
  5
FFA
 10
53.3332
 20
8.98568
 30
0.000000
  70
    32
  0
VERTEX
  8
FORM
  5
FFB
 10
53.3369
 20
8.98666
 30
0.000000
  70
    32
  0
VERTEX
  8
FORM
  5
FFC
 10
53.3406
 20
8.98799
 30
0.000000
  70
    32
  0
VERTEX
  8
FORM
  5
FFD
 10
53.3445
 20
8.98965
 30
0.000000
  70
    32
  0
VERTEX
  8
FORM
  5
FFE
 10
53.3484
 20
8.99165
 30
0.000000
  70
    32
  0
VERTEX
  8
FORM
  5
FFF
 10
53.3524
 20
8.99398
 30
0.000000
  70
    32
  0
VERTEX
  8
FORM
  5
1000
 10
53.3564
 20
8.99662
 30
0.000000
  70
    32
  0
VERTEX
  8
FORM
  5
1001
 10
53.3605
 20
8.99959
 30
0.000000
  70
    32
  0
VERTEX
  8
FORM
  5
1002
 10
53.3646
 20
9.00287
 30
0.000000
  70
    32
  0
VERTEX
  8
FORM
  5
1003
 10
53.3687
 20
9.00645
 30
0.000000
  70
    32
  0
VERTEX
  8
FORM
  5
1004
 10
53.3729
 20
9.01032
 30
0.000000
  70
    32
  0
VERTEX
  8
FORM
  5
1005
 10
53.3771
 20
9.01448
 30
0.000000
  70
    32
  0
VERTEX
  8
FORM
  5
1006
 10
53.3813
 20
9.01891
 30
0.000000
  70
    32
  0
VERTEX
  8
FORM
  5
1007
 10
53.3854
 20
9.02360
 30
0.000000
  70
    32
  0
VERTEX
  8
FORM
  5
1008
 10
53.3895
 20
9.02854
 30
0.000000
  70
    32
  0
VERTEX
  8
FORM
  5
1009
 10
53.3936
 20
9.03373
 30
0.000000
  70
    32
  0
VERTEX
  8
FORM
  5
100A
 10
53.3977
 20
9.03914
 30
0.000000
  70
    32
  0
VERTEX
  8
FORM
  5
100B
 10
53.4017
 20
9.04477
 30
0.000000
  70
    32
  0
VERTEX
  8
FORM
  5
100C
 10
53.4056
 20
9.05060
 30
0.000000
  70
    32
  0
VERTEX
  8
FORM
  5
100D
 10
53.4095
 20
9.05662
 30
0.000000
  70
    32
  0
VERTEX
  8
FORM
  5
100E
 10
53.4133
 20
9.06281
 30
0.000000
  70
    32
  0
VERTEX
  8
FORM
  5
100F
 10
53.4170
 20
9.06915
 30
0.000000
  70
    32
  0
VERTEX
  8
FORM
  5
1010
 10
53.4206
 20
9.07564
 30
0.000000
  70
    32
  0
VERTEX
  8
FORM
  5
1011
 10
53.4241
 20
9.08226
 30
0.000000
  70
    32
  0
VERTEX
  8
FORM
  5
1012
 10
53.4274
 20
9.08898
 30
0.000000
  70
    32
  0
VERTEX
  8
FORM
  5
1013
 10
53.4307
 20
9.09580
 30
0.000000
  70
    32
  0
VERTEX
  8
FORM
  5
1014
 10
53.4338
 20
9.10270
 30
0.000000
  70
    32
  0
VERTEX
  8
FORM
  5
1015
 10
53.4368
 20
9.10966
 30
0.000000
  70
    32
  0
VERTEX
  8
FORM
  5
1016
 10
53.4396
 20
9.11667
 30
0.000000
  70
    32
  0
VERTEX
  8
FORM
  5
1017
 10
53.4423
 20
9.12370
 30
0.000000
  70
    32
  0
VERTEX
  8
FORM
  5
1018
 10
53.4448
 20
9.13074
 30
0.000000
  70
    32
  0
VERTEX
  8
FORM
  5
1019
 10
53.4471
 20
9.13778
 30
0.000000
  70
    32
  0
VERTEX
  8
FORM
  5
101A
 10
53.4493
 20
9.14479
 30
0.000000
  70
    32
  0
VERTEX
  8
FORM
  5
101B
 10
53.4513
 20
9.15177
 30
0.000000
  70
    32
  0
VERTEX
  8
FORM
  5
101C
 10
53.4531
 20
9.15869
 30
0.000000
  70
    32
  0
VERTEX
  8
FORM
  5
101D
 10
53.4547
 20
9.16553
 30
0.000000
  70
    32
  0
VERTEX
  8
FORM
  5
101E
 10
53.4562
 20
9.17228
 30
0.000000
  70
    32
  0
VERTEX
  8
FORM
  5
101F
 10
53.4574
 20
9.17893
 30
0.000000
  70
    32
  0
VERTEX
  8
FORM
  5
1020
 10
53.4584
 20
9.18546
 30
0.000000
  70
    32
  0
VERTEX
  8
FORM
  5
1021
 10
53.4593
 20
9.19185
 30
0.000000
  70
    32
  0
VERTEX
  8
FORM
  5
1022
 10
53.4599
 20
9.19808
 30
0.000000
  70
    32
  0
VERTEX
  8
FORM
  5
1023
 10
53.4604
 20
9.20415
 30
0.000000
  70
    32
  0
VERTEX
  8
FORM
  5
1024
 10
53.4606
 20
9.21003
 30
0.000000
  70
    32
  0
VERTEX
  8
FORM
  5
1025
 10
53.4606
 20
9.21572
 30
0.000000
  70
    32
  0
VERTEX
  8
FORM
  5
1026
 10
53.4605
 20
9.22120
 30
0.000000
  70
    32
  0
VERTEX
  8
FORM
  5
1027
 10
53.4601
 20
9.22645
 30
0.000000
  70
    32
  0
VERTEX
  8
FORM
  5
1028
 10
53.4595
 20
9.23146
 30
0.000000
  70
    32
  0
VERTEX
  8
FORM
  5
1029
 10
53.4587
 20
9.23623
 30
0.000000
  70
    32
  0
VERTEX
  8
FORM
  5
102A
 10
53.4577
 20
9.24074
 30
0.000000
  70
    32
  0
VERTEX
  8
FORM
  5
102B
 10
53.4566
 20
9.24497
 30
0.000000
  70
    32
  0
VERTEX
  8
FORM
  5
102C
 10
53.4552
 20
9.24893
 30
0.000000
  70
    32
  0
VERTEX
  8
FORM
  5
102D
 10
53.4536
 20
9.25259
 30
0.000000
  70
    32
  0
VERTEX
  8
FORM
  5
102E
 10
53.4519
 20
9.25596
 30
0.000000
  70
    32
  0
VERTEX
  8
FORM
  5
102F
 10
53.4499
 20
9.25901
 30
0.000000
  70
    32
  0
VERTEX
  8
FORM
  5
1030
 10
53.4478
 20
9.26175
 30
0.000000
  70
    32
  0
VERTEX
  8
FORM
  5
1031
 10
53.4455
 20
9.26417
 30
0.000000
  70
    32
  0
VERTEX
  8
FORM
  5
1032
 10
53.4431
 20
9.26626
 30
0.000000
  70
    32
  0
VERTEX
  8
FORM
  5
1033
 10
53.4404
 20
9.26802
 30
0.000000
  70
    32
  0
VERTEX
  8
FORM
  5
1034
 10
53.4377
 20
9.26945
 30
0.000000
  70
    32
  0
SEQEND
  8
FORM
  5
1035
  0
ARC
  5
F48
  8
FORM
 62
     7
 10
53.576183432172542
 20
8.7554778878295831
 30
0.0
 40
0.6911700724340929
 50
85.485448269952457
 51
155.5006785655421
  0
TEXT
  5
F49
  8
FORM
 62
     7
 10
51.14427983193022
 20
5.1411400268602563
 30
0.0
 40
0.2707692305893858
  1
R2-D2 BUILDERS CLUB
  0
ARC
  5
F4A
  8
FORM
 10
2.071428570384966
 20
2.0714285703848532
 30
0.0
 40
0.4835164831953318
 50
180.0
 51
270.0
  0
ARC
  5
F4B
  8
FORM
 10
2.071428570384966
 20
2.0714285703848532
 30
0.0
 40
0.9670329663906635
 50
180.0
 51
270.0
  0
ARC
  5
F4C
  8
FORM
 10
2.071428570384966
 20
2.0714285703848532
 30
0.0
 40
1.0879120871894961
 50
180.0
 51
270.0
  0
ARC
  5
F4D
  8
FORM
 10
2.071428570384966
 20
2.0714285703848532
 30
0.0
 40
1.5714285703848281
 50
180.0
 51
270.0
  0
ARC
  5
F4E
  8
FORM
 10
2.0714285923034481
 20
39.428571429615182
 30
0.0
 40
1.5714285703848281
 50
90.0
 51
180.0
  0
ARC
  5
F4F
  8
FORM
 10
2.0714285923034481
 20
39.428571429615182
 30
0.0
 40
1.0879120871894961
 50
90.0
 51
180.0
  0
ARC
  5
F50
  8
FORM
 10
2.0714285923034481
 20
39.428571429615182
 30
0.0
 40
0.9670329663906635
 50
90.0
 51
180.0
  0
ARC
  5
F51
  8
FORM
 10
2.0714285923034481
 20
39.428571429615182
 30
0.0
 40
0.4835164831953318
 50
90.0
 51
180.0
  0
ARC
  5
F52
  8
FORM
 10
65.92857140769658
 20
39.428571429615182
 30
0.0
 40
0.9670329663906635
 50
0.0
 51
90.0
  0
ARC
  5
F53
  8
FORM
 10
65.92857140769658
 20
39.428571429615182
 30
0.0
 40
1.0879120871894961
 50
0.0
 51
90.0
  0
ARC
  5
F54
  8
FORM
 10
65.92857140769658
 20
39.428571429615182
 30
0.0
 40
1.5714285703848281
 50
0.0
 51
90.0
  0
ARC
  5
F55
  8
FORM
 10
65.92857140769658
 20
39.428571429615182
 30
0.0
 40
0.4835164831953318
 50
0.0
 51
90.0
  0
ARC
  5
F56
  8
FORM
 10
65.928571385778099
 20
2.0714285703848532
 30
0.0
 40
1.5714285703848281
 50
270.0
 51
0.0
  0
ARC
  5
F57
  8
FORM
 10
65.928571385778099
 20
2.0714285703848532
 30
0.0
 40
1.0879120871894961
 50
270.0
 51
0.0
  0
ARC
  5
F58
  8
FORM
 10
65.928571385778099
 20
2.0714285703848532
 30
0.0
 40
0.9670329663906635
 50
270.0
 51
0.0
  0
ARC
  5
F59
  8
FORM
 10
65.928571385778099
 20
2.0714285703848532
 30
0.0
 40
0.4835164831953318
 50
270.0
 51
0.0
  0
LINE
  5
F5A
  8
FORM
 10
65.928571385778099
 20
1.10439560399422
 30
0.0
 11
2.071428570384966
 21
1.1043956039941909
 31
0.0
  0
LINE
  5
F5B
  8
FORM
 10
65.928571385778099
 20
0.9835164831953875
 30
0.0
 11
2.071428570384966
 21
0.9835164831953591
 31
0.0
  0
LINE
  5
F5C
  8
FORM
 10
65.928571385778099
 20
0.5000000000000285
 30
0.0
 11
2.071428570384966
 21
0.5
 31
0.0
  0
LINE
  5
F5D
  8
FORM
 10
66.89560435216876
 20
2.0714285703848532
 30
0.0
 11
66.895604374087242
 21
39.428571429615182
 31
0.0
  0
LINE
  5
F5E
  8
FORM
 10
67.016483472967565
 20
2.0714285703848532
 30
0.0
 11
67.016483494886046
 21
39.428571429615182
 31
0.0
  0
LINE
  5
F5F
  8
FORM
 10
67.499999956162895
 20
2.0714285703848532
 30
0.0
 11
67.499999978081377
 21
39.428571429615182
 31
0.0
  0
LINE
  5
F60
  8
FORM
 10
65.92857140769658
 20
40.395604396005837
 30
0.0
 11
2.0714285923034481
 21
40.395604396005837
 31
0.0
  0
LINE
  5
F61
  8
FORM
 10
65.92857140769658
 20
40.516483516804669
 30
0.0
 11
2.0714285923034481
 21
40.516483516804669
 31
0.0
  0
LINE
  5
F62
  8
FORM
 10
65.92857140769658
 20
41.0
 30
0.0
 11
2.0714285923034481
 21
41.0
 31
0.0
  0
LINE
  5
F63
  8
FORM
 10
1.104395603994248
 20
2.0714285703848532
 30
0.0
 11
1.104395625912729
 21
39.428571429615182
 31
0.0
  0
LINE
  5
F64
  8
FORM
 10
0.9835164831954443
 20
2.0714285703848532
 30
0.0
 11
0.9835165051139256
 21
39.428571429615182
 31
0.0
  0
LINE
  5
F65
  8
FORM
 10
0.5
 20
2.0714285703848598
 30
0.0
 11
0.5000000219185951
 21
39.428571429615182
 31
0.0
  0
LINE
  5
F66
  8
FORM
  6
CONTINUOUS
 10
51.63879172493975
 20
2.0714285703848532
 30
0.0
 11
65.221156551083112
 21
2.0714285703848532
 31
0.0
  0
LINE
  5
F67
  8
FORM
  6
CONTINUOUS
 10
65.928571385778099
 20
9.5700258181515139
 30
0.0
 11
65.928571385778099
 21
2.7788434050798179
 31
0.0
  0
ARC
  5
F68
  8
FORM
  6
CONTINUOUS
 10
65.221156551083112
 20
2.7788434050798179
 30
0.0
 40
0.7074148346949664
 50
270.0
 51
0.0
  0
ARC
  5
F69
  8
FORM
  6
CONTINUOUS
 10
65.221156551083112
 20
9.5700258181515139
 30
0.0
 40
0.7074148346949664
 50
359.99999999999977
 51
90.0
  0
ARC
  5
F6A
  8
FORM
  6
CONTINUOUS
 10
51.63879172493975
 20
2.7788434050798179
 30
0.0
 40
0.7074148346949664
 50
180.0
 51
270.0
  0
ARC
  5
F6B
  8
FORM
  6
CONTINUOUS
 10
51.63879172493975
 20
9.5700258181515139
 30
0.0
 40
0.7074148346949664
 50
90.0
 51
180.0
  0
LINE
  5
F6C
  8
0
 10
2.071428570384966
 20
2.0714285703848532
 30
0.0
 11
2.071428570384966
 21
3.0714285703848532
 31
0.0
  0
LINE
  5
F6D
  8
0
 10
2.071428570384966
 20
2.1964285703848532
 30
0.0
 11
2.196428570384966
 21
2.1964285703848532
 31
0.0
  0
LINE
  5
F6E
  8
0
 10
2.071428570384966
 20
2.3214285703848532
 30
0.0
 11
2.321428570384966
 21
2.3214285703848532
 31
0.0
  0
LINE
  5
F6F
  8
0
 10
2.071428570384966
 20
2.4464285703848532
 30
0.0
 11
2.196428570384966
 21
2.4464285703848532
 31
0.0
  0
LINE
  5
F70
  8
0
 10
2.071428570384966
 20
2.5714285703848532
 30
0.0
 11
2.446428570384966
 21
2.5714285703848532
 31
0.0
  0
LINE
  5
F71
  8
0
 10
2.071428570384966
 20
2.6964285703848532
 30
0.0
 11
2.196428570384966
 21
2.6964285703848532
 31
0.0
  0
LINE
  5
F72
  8
0
 10
2.071428570384966
 20
2.8214285703848532
 30
0.0
 11
2.321428570384966
 21
2.8214285703848532
 31
0.0
  0
LINE
  5
F73
  8
0
 10
2.071428570384966
 20
2.9464285703848532
 30
0.0
 11
2.196428570384966
 21
2.9464285703848532
 31
0.0
  0
LINE
  5
F74
  8
0
 10
2.071428570384966
 20
3.0714285703848532
 30
0.0
 11
2.446428570384966
 21
3.0714285703848532
 31
0.0
  0
LINE
  5
F75
  8
0
 10
2.071428570384966
 20
2.0714285703848532
 30
0.0
 11
2.446428570384966
 21
2.0714285703848532
 31
0.0
  0
TEXT
  5
F76
  8
0
 10
2.4956973440113752
 20
2.53838800938437
 30
0.0
 40
0.0625
  1
1/2"
  0
TEXT
  5
F77
  8
0
 10
2.2456973440113752
 20
2.41338800938437
 30
0.0
 40
0.0625
  1
3/8"
  0
TEXT
  5
F78
  8
0
 10
2.3706973440113752
 20
2.28838800938437
 30
0.0
 40
0.0625
  1
1/4"
  0
TEXT
  5
F79
  8
0
 10
2.2456973440113752
 20
2.16338800938437
 30
0.0
 40
0.0625
  1
1/8"
  0
TEXT
  5
F7A
  8
0
 10
2.2456973440113752
 20
2.66338800938437
 30
0.0
 40
0.0625
  1
5/8"
  0
TEXT
  5
F7B
  8
0
 10
2.3706973440113752
 20
2.78838800938437
 30
0.0
 40
0.0625
  1
3/4"
  0
TEXT
  5
F7C
  8
0
 10
2.2456973440113752
 20
2.91338800938437
 30
0.0
 40
0.0625
  1
7/8"
  0
TEXT
  5
F7D
  8
0
 10
2.4956973440113752
 20
3.03838800938437
 30
0.0
 40
0.0625
  1
1"
  0
TEXT
  5
F8B
  8
BODY_PANELS
 10
44.878977494162399
 20
17.049099802633119
 30
0.0
 40
0.18
  1
LARGE DATA PORT
  0
TEXT
  5
F8C
  8
BODY_PANELS
 10
11.769280972564699
 20
24.240651438392259
 30
0.0
 40
0.18
  1
SIDE VENT
  0
TEXT
  5
F8D
  8
BODY_PANELS
 10
27.30573425364307
 20
24.382589753015509
 30
0.0
 40
0.18
  1
SIDE VENT
  0
TEXT
  5
F8E
  8
BODY_PANELS
 10
19.395405194350779
 20
17.23835143994182
 30
0.0
 40
0.18
  1
FRONT VENTS
  0
TEXT
  5
F8F
  8
BODY_PANELS
 10
14.800783911607221
 20
17.427602746563931
 30
0.0
 40
0.18
  1
COIN SLOTS
  0
TEXT
  5
F91
  8
BODY_PANELS
 10
52.50510243443383
 20
24.287964099704482
 30
0.0
 40
0.18
  1
SHOULDER FLANGE
  0
TEXT
  5
F92
  8
BODY_PANELS
 10
45.21054776887749
 20
16.623284528076741
 30
0.0
 40
0.18
  1
UTILITY ARMS
  0
TEXT
  5
F93
  8
BODY_PANELS
 10
37.537056672911568
 20
24.287964099704482
 30
0.0
 40
0.18
  1
SHOULDER FLANGE
  0
ENDSEC
  0
EOF
