  0
SECTION
  2
HEADER
  9
$ACADVER
  1
AC1009
  9
$INSBASE
 10
0.0
 20
0.0
 30
0.0
  9
$EXTMIN
 10
0.0
 20
0.0
 30
0.0
  9
$EXTMAX
 10
22.0
 20
17.0
 30
0.0
  9
$LIMMIN
 10
0.0
 20
0.0
  9
$LIMMAX
 10
12.0
 20
9.0
  9
$ORTHOMODE
 70
     1
  9
$REGENMODE
 70
     1
  9
$FILLMODE
 70
     1
  9
$QTEXTMODE
 70
     0
  9
$MIRRTEXT
 70
     1
  9
$DRAGMODE
 70
     2
  9
$LTSCALE
 40
1.0
  9
$OSMODE
 70
    39
  9
$ATTMODE
 70
     1
  9
$TEXTSIZE
 40
0.125
  9
$TRACEWID
 40
0.05
  9
$TEXTSTYLE
  7
STANDARD
  9
$CLAYER
  8
DIMENSIONS
  9
$CELTYPE
  6
BYLAYER
  9
$CECOLOR
 62
   256
  9
$DIMSCALE
 40
1.0
  9
$DIMASZ
 40
0.25
  9
$DIMEXO
 40
0.0625
  9
$DIMDLI
 40
1.0
  9
$DIMRND
 40
0.0
  9
$DIMDLE
 40
0.0
  9
$DIMEXE
 40
0.0625
  9
$DIMTP
 40
0.0
  9
$DIMTM
 40
0.0
  9
$DIMTXT
 40
0.25
  9
$DIMCEN
 40
0.0
  9
$DIMTSZ
 40
0.0
  9
$DIMTOL
 70
     0
  9
$DIMLIM
 70
     0
  9
$DIMTIH
 70
     1
  9
$DIMTOH
 70
     1
  9
$DIMSE1
 70
     0
  9
$DIMSE2
 70
     0
  9
$DIMTAD
 70
     0
  9
$DIMZIN
 70
     0
  9
$DIMBLK
  1

  9
$DIMASO
 70
     1
  9
$DIMSHO
 70
     1
  9
$DIMPOST
  1

  9
$DIMAPOST
  1

  9
$DIMALT
 70
     0
  9
$DIMALTD
 70
     2
  9
$DIMALTF
 40
25.399999999999999
  9
$DIMLFAC
 40
1.0
  9
$DIMTOFL
 70
     0
  9
$DIMTVP
 40
0.0
  9
$DIMTIX
 70
     0
  9
$DIMSOXD
 70
     0
  9
$DIMSAH
 70
     0
  9
$DIMBLK1
  1

  9
$DIMBLK2
  1

  9
$DIMSTYLE
  2
STANDARD
  9
$DIMCLRD
 70
   256
  9
$DIMCLRE
 70
   256
  9
$DIMCLRT
 70
   256
  9
$DIMTFAC
 40
1.0
  9
$DIMGAP
 40
0.0625
  9
$LUNITS
 70
     2
  9
$LUPREC
 70
     8
  9
$SKETCHINC
 40
0.1
  9
$FILLETRAD
 40
0.0
  9
$AUNITS
 70
     0
  9
$AUPREC
 70
     0
  9
$MENU
  1
.
  9
$ELEVATION
 40
0.0
  9
$PELEVATION
 40
0.0
  9
$THICKNESS
 40
0.0
  9
$LIMCHECK
 70
     0
  9
$BLIPMODE
 70
     0
  9
$CHAMFERA
 40
0.0
  9
$CHAMFERB
 40
0.0
  9
$SKPOLY
 70
     0
  9
$TDCREATE
 40
2452227.898066666
  9
$TDUPDATE
 40
2453462.4912012969
  9
$TDINDWG
 40
1.9792350462999999
  9
$TDUSRTIMER
 40
1.9792344676
  9
$USRTIMER
 70
     1
  9
$ANGBASE
 50
0.0
  9
$ANGDIR
 70
     0
  9
$PDMODE
 70
     0
  9
$PDSIZE
 40
0.0
  9
$PLINEWID
 40
0.0
  9
$COORDS
 70
     0
  9
$SPLFRAME
 70
     0
  9
$SPLINETYPE
 70
     6
  9
$SPLINESEGS
 70
     8
  9
$ATTDIA
 70
     0
  9
$ATTREQ
 70
     1
  9
$HANDLING
 70
     1
  9
$HANDSEED
  5
1341
  9
$SURFTAB1
 70
     6
  9
$SURFTAB2
 70
     6
  9
$SURFTYPE
 70
     6
  9
$SURFU
 70
     6
  9
$SURFV
 70
     6
  9
$UCSNAME
  2

  9
$UCSORG
 10
0.0
 20
0.0
 30
0.0
  9
$UCSXDIR
 10
1.0
 20
0.0
 30
0.0
  9
$UCSYDIR
 10
0.0
 20
1.0
 30
0.0
  9
$PUCSNAME
  2

  9
$PUCSORG
 10
0.0
 20
0.0
 30
0.0
  9
$PUCSXDIR
 10
1.0
 20
0.0
 30
0.0
  9
$PUCSYDIR
 10
0.0
 20
1.0
 30
0.0
  9
$USERI1
 70
     0
  9
$USERI2
 70
     0
  9
$USERI3
 70
     0
  9
$USERI4
 70
     0
  9
$USERI5
 70
     0
  9
$USERR1
 40
0.0
  9
$USERR2
 40
0.0
  9
$USERR3
 40
0.0
  9
$USERR4
 40
0.0
  9
$USERR5
 40
0.0
  9
$WORLDVIEW
 70
     1
  9
$SHADEDGE
 70
     3
  9
$SHADEDIF
 70
    70
  9
$TILEMODE
 70
     1
  9
$MAXACTVP
 70
    64
  9
$PLIMCHECK
 70
     0
  9
$PEXTMIN
 10
1.0000000000000000E+020
 20
1.0000000000000000E+020
 30
1.0000000000000000E+020
  9
$PEXTMAX
 10
-1.0000000000000000E+020
 20
-1.0000000000000000E+020
 30
-1.0000000000000000E+020
  9
$PLIMMIN
 10
0.0
 20
0.0
  9
$PLIMMAX
 10
12.0
 20
9.0
  9
$UNITMODE
 70
     0
  9
$VISRETAIN
 70
     1
  9
$PLINEGEN
 70
     0
  9
$PSLTSCALE
 70
     1
  0
ENDSEC
  0
SECTION
  2
TABLES
  0
TABLE
  2
VPORT
 70
     2
  0
VPORT
  2
*ACTIVE
 70
     0
 10
0.0
 20
0.0
 11
1.0
 21
1.0
 12
11.00135776214705
 22
8.5009441113462056
 13
0.0
 23
0.0
 14
0.5
 24
0.5
 15
0.5
 25
0.5
 16
0.0
 26
0.0
 36
1.0
 17
0.0
 27
0.0
 37
0.0
 40
17.219297318277739
 41
2.1727078891257992
 42
50.0
 43
0.0
 44
0.0
 50
0.0
 51
0.0
 71
     0
 72
 20000
 73
     1
 74
     2
 75
     0
 76
     0
 77
     0
 78
     0
  0
ENDTAB
  0
TABLE
  2
LTYPE
 70
     1
  0
LTYPE
  2
CONTINUOUS
 70
     0
  3
Solid line
 72
    65
 73
     0
 40
0.0
  0
ENDTAB
  0
TABLE
  2
LAYER
 70
     5
  0
LAYER
  2
0
 70
     0
 62
     7
  6
CONTINUOUS
  0
LAYER
  2
BODY_-_POWER_COUPLING
 70
     0
 62
     7
  6
CONTINUOUS
  0
LAYER
  2
DIMENSIONS
 70
     0
 62
     1
  6
CONTINUOUS
  0
LAYER
  2
DEFPOINTS
 70
     0
 62
     7
  6
CONTINUOUS
  0
LAYER
  2
FORM
 70
     0
 62
     5
  6
CONTINUOUS
  0
ENDTAB
  0
TABLE
  2
STYLE
 70
     1
  0
STYLE
  2
STANDARD
 70
     0
 40
0.0
 41
1.0
 50
0.0
 71
     0
 42
0.125
  3
simplex.shx
  4

  0
ENDTAB
  0
TABLE
  2
VIEW
 70
     0
  0
ENDTAB
  0
TABLE
  2
UCS
 70
     0
  0
ENDTAB
  0
TABLE
  2
APPID
 70
     5
  0
APPID
  2
ACAD
 70
     0
  0
APPID
  2
ACAD_DSTYLE_DIMTEXT_FILL
 70
     0
  0
APPID
  2
ACAECLAYERSTANDARD
 70
     0
  0
APPID
  2
DCO15
 70
     0
  0
APPID
  2
ACAD_PSEXT
 70
     0
  0
ENDTAB
  0
TABLE
  2
DIMSTYLE
 70
     1
  0
DIMSTYLE
  2
STANDARD
 70
     0
  3

  4

  5

  6

  7

 40
1.0
 41
0.25
 42
0.0625
 43
1.0
 44
0.0625
 45
0.0
 46
0.0
 47
0.0
 48
0.0
140
0.25
141
0.0
142
0.0
143
25.399999999999999
144
1.0
145
0.0
146
1.0
147
0.0625
 71
     0
 72
     0
 73
     1
 74
     1
 75
     0
 76
     0
 77
     0
 78
     0
170
     0
171
     2
172
     0
173
     0
174
     0
175
     0
176
   256
177
   256
178
   256
  0
ENDTAB
  0
ENDSEC
  0
SECTION
  2
BLOCKS
  0
BLOCK
  8
0
  2
$MODEL_SPACE
 70
     0
 10
0.0
 20
0.0
 30
0.0
  3
$MODEL_SPACE
  1

  0
ENDBLK
  5
9
  8
0
  0
BLOCK
 67
     1
  8
0
  2
$PAPER_SPACE
 70
     0
 10
0.0
 20
0.0
 30
0.0
  3
$PAPER_SPACE
  1

  0
ENDBLK
  5
E
 67
     1
  8
0
  0
ENDSEC
  0
SECTION
  2
ENTITIES
  0
LINE
  5
656
  8
BODY_-_POWER_COUPLING
 10
5.7744992252773377
 20
2.280017207006626
 30
0.0
 11
5.6110308432932277
 21
3.3681746222131181
 31
0.0
  0
LINE
  5
657
  8
BODY_-_POWER_COUPLING
 10
10.728623020203999
 20
1.8885516390199819
 30
0.0
 11
10.95089929349777
 21
3.368174622213119
 31
0.0
  0
LINE
  5
658
  8
BODY_-_POWER_COUPLING
 10
5.7744992252773377
 20
2.280017207006626
 30
0.0
 11
6.4517468817991519
 21
1.890507511411488
 31
0.0
  0
LINE
  5
659
  8
BODY_-_POWER_COUPLING
 10
6.4517468817991519
 20
1.890507511411488
 30
0.0
 11
7.0735592533267493
 21
2.2158476690492712
 31
0.0
  0
LINE
  5
65A
  8
BODY_-_POWER_COUPLING
 10
7.0735592533267493
 20
2.2158476690492712
 30
0.0
 11
7.576931256941605
 21
2.1862713042879949
 31
0.0
  0
LINE
  5
65B
  8
BODY_-_POWER_COUPLING
 10
7.576931256941605
 20
2.1862713042879949
 30
0.0
 11
7.9618627040784267
 21
2.3933059447751752
 31
0.0
  0
LINE
  5
65C
  8
BODY_-_POWER_COUPLING
 10
7.9618627040784267
 20
2.3933059447751752
 30
0.0
 11
8.9093864016415552
 21
2.3933059447751752
 31
0.0
  0
LINE
  5
65D
  8
BODY_-_POWER_COUPLING
 10
8.9093864016415552
 20
2.3933059447751752
 30
0.0
 11
9.2647077568001919
 21
2.0679657871373922
 31
0.0
  0
LINE
  5
65E
  8
BODY_-_POWER_COUPLING
 10
9.2647077568001919
 20
2.0679657871373922
 30
0.0
 11
10.06418086876219
 21
2.2750004276245721
 31
0.0
  0
LINE
  5
65F
  8
BODY_-_POWER_COUPLING
 10
10.06418086876219
 20
2.2750004276245721
 30
0.0
 11
10.728623020203999
 21
1.888551639019981
 31
0.0
  0
ARC
  5
87F
  8
BODY_-_POWER_COUPLING
 10
8.2809650683955027
 20
-5.3177346700617854
 30
0.0
 40
9.0869999999999997
 50
72.913260633911804
 51
107.0867393660882
  0
LINE
  5
882
  8
DIMENSIONS
 10
6.6524915607950561
 20
1.613050548029956
 30
0.0
 11
6.0009630003618213
 21
4.3859568892998011
 31
0.0
  0
LINE
  5
884
  8
DIMENSIONS
 10
6.0009630003618213
 20
4.3859568892998011
 30
0.0
 11
5.7509630003618213
 21
4.3859568892998011
 31
0.0
  0
TEXT
  5
885
  8
DIMENSIONS
 10
3.02716695180851
 20
4.2609568892998011
 30
0.0
 40
0.25
  1
BODY %%c18.174
  0
SOLID
  5
886
  8
DIMENSIONS
 10
6.2214347245128181
 20
3.2756234619266009
 30
0.0
 11
6.3023783205067474
 21
3.295437061095245
 31
0.0
 12
6.2024657250038473
 22
3.528361049492716
 32
0.0
 13
6.2024657250038473
 23
3.528361049492716
 33
0.0
  0
LINE
  5
91F
  8
BODY_-_POWER_COUPLING
 10
5.6298163006773967
 20
3.2431257625956338
 30
0.0
 11
5.8149440545778361
 21
3.4282535164960759
 31
0.0
  0
LINE
  5
920
  8
BODY_-_POWER_COUPLING
 10
5.6990799745745866
 20
2.7820593506029141
 30
0.0
 11
6.5125500833151966
 21
3.5955294593435241
 31
0.0
  0
LINE
  5
921
  8
BODY_-_POWER_COUPLING
 10
5.7683436484717774
 20
2.3209929386101931
 30
0.0
 11
6.9999650683954959
 21
3.5526143585339169
 31
0.0
  0
LINE
  5
922
  8
BODY_-_POWER_COUPLING
 10
6.0812655569399752
 20
2.1035847611884808
 30
0.0
 11
6.9999650683954959
 21
3.022284272644006
 31
0.0
  0
LINE
  5
923
  8
BODY_-_POWER_COUPLING
 10
6.4179539398596708
 20
1.9099430582182659
 30
0.0
 11
7.1628545896156623
 21
2.6548437079742611
 31
0.0
  0
LINE
  5
925
  8
BODY_-_POWER_COUPLING
 10
7.2441644750619067
 20
2.2058235075305901
 30
0.0
 11
7.6931846755055773
 21
2.6548437079742611
 31
0.0
  0
LINE
  5
927
  8
BODY_-_POWER_COUPLING
 10
7.9619769981964046
 20
2.3933059447751752
 30
0.0
 11
8.2235147613954922
 21
2.6548437079742611
 31
0.0
  0
LINE
  5
929
  8
BODY_-_POWER_COUPLING
 10
8.4923070840863062
 20
2.3933059447751752
 30
0.0
 11
8.7538448472853911
 21
2.6548437079742611
 31
0.0
  0
LINE
  5
92B
  8
BODY_-_POWER_COUPLING
 10
8.9685059724133822
 20
2.3391747472123399
 30
0.0
 11
9.2841749331753078
 21
2.6548437079742611
 31
0.0
  0
LINE
  5
92D
  8
BODY_-_POWER_COUPLING
 10
9.5619650683954944
 20
2.9326338431944521
 30
0.0
 11
10.19477691083128
 21
3.5654456856302321
 31
0.0
  0
LINE
  5
92E
  8
BODY_-_POWER_COUPLING
 10
9.245350778909966
 20
2.085689467819015
 30
0.0
 11
10.622154490554079
 21
3.4624931794631211
 31
0.0
  0
LINE
  5
930
  8
BODY_-_POWER_COUPLING
 10
9.9303290383651444
 20
2.2403376413842748
 30
0.0
 11
10.93193646657941
 21
3.2419450695985499
 31
0.0
  0
LINE
  5
932
  8
BODY_-_POWER_COUPLING
 10
10.33677650207443
 20
2.11645501920365
 30
0.0
 11
10.838183650288499
 21
2.6178621674177229
 31
0.0
  0
LINE
  5
935
  8
BODY_-_POWER_COUPLING
 10
10.67208595219439
 20
1.9214343834337031
 30
0.0
 11
10.74443083399758
 21
1.993779265236898
 31
0.0
  0
TEXT
  5
939
  8
DIMENSIONS
 10
4.3750277998428251
 20
3.8714576380380481
 30
0.0
 40
0.25
  1
R9.087
  0
LINE
  5
949
  8
BODY_-_POWER_COUPLING
 10
6.9999650683954959
 20
2.6548437079742611
 30
0.0
 11
6.9999650683954959
 21
3.6548437079742611
 31
0.0
  0
LINE
  5
94A
  8
BODY_-_POWER_COUPLING
 10
9.5619650683954944
 20
2.6548437079742611
 30
0.0
 11
9.5619650683954944
 21
3.6548437079742611
 31
0.0
  0
LINE
  5
94D
  8
BODY_-_POWER_COUPLING
 10
9.5619650683954944
 20
3.462963929084367
 30
0.0
 11
9.7489136501600342
 21
3.6499125108489059
 31
0.0
  0
LINE
  5
94E
  8
BODY_-_POWER_COUPLING
 10
7.7499650683954959
 20
3.5608437079742612
 30
0.0
 11
8.8119650683954944
 21
3.5608437079742621
 31
0.0
  0
LINE
  5
959
  8
BODY_-_POWER_COUPLING
 10
7.0934650683955018
 20
2.6548437079742611
 30
0.0
 11
7.4214650683954906
 21
3.1858437079742599
 31
0.0
  0
LINE
  5
95A
  8
BODY_-_POWER_COUPLING
 10
9.4684650683955027
 20
2.6548437079742611
 30
0.0
 11
9.1404650683954998
 21
3.1858437079742621
 31
0.0
  0
LINE
  5
95B
  8
BODY_-_POWER_COUPLING
 10
9.1404650683954998
 20
3.1858437079742621
 30
0.0
 11
8.8119650683954944
 21
3.5608437079742621
 31
0.0
  0
LINE
  5
95C
  8
BODY_-_POWER_COUPLING
 10
7.4214650683954906
 20
3.1858437079742599
 30
0.0
 11
7.7499650683954959
 21
3.5608437079742612
 31
0.0
  0
LINE
  5
965
  8
BODY_-_POWER_COUPLING
 10
7.6559650683955018
 20
2.6548437079742611
 30
0.0
 11
7.7499650683954959
 21
3.5608437079742612
 31
0.0
  0
LINE
  5
966
  8
BODY_-_POWER_COUPLING
 10
8.9059650683955027
 20
2.6548437079742611
 30
0.0
 11
8.8119650683954944
 21
3.5608437079742621
 31
0.0
  0
CIRCLE
  5
968
  8
0
 10
8.2809650683955027
 20
9.9851102064311981
 30
0.0
 40
0.3439999999999999
  0
CIRCLE
  5
969
  8
0
 10
8.2809650683955027
 20
9.9851102064311981
 30
0.0
 40
0.5310000000000001
  0
ARC
  5
96A
  8
0
 10
8.2809650683955027
 20
9.9851102064311981
 30
0.0
 40
0.625
 50
116.7180232628085
 51
153.28197673719151
  0
ARC
  5
96C
  8
0
 10
8.2809650683955027
 20
9.9851102064311981
 30
0.0
 40
1.1875
 50
76.312181697463231
 51
103.6878183025367
  0
CIRCLE
  5
96D
  8
0
 10
8.2809650683955027
 20
9.9851102064311981
 30
0.0
 40
1.280999999999999
  0
LINE
  5
96F
  8
BODY_-_POWER_COUPLING
 10
8.0729643742807724
 20
3.1858437079742612
 30
0.0
 11
8.4887034789915248
 21
3.1858437079742621
 31
0.0
  0
LINE
  5
973
  8
BODY_-_POWER_COUPLING
 10
6.8434650683955018
 20
3.6548437079742611
 30
0.0
 11
9.7184650683955027
 21
3.6548437079742611
 31
0.0
  0
LINE
  5
975
  8
BODY_-_POWER_COUPLING
 10
15.42078673106985
 20
7.333961438713092
 30
0.0
 11
14.894647163727271
 21
7.8601010060556771
 31
0.0
  0
LINE
  5
976
  8
BODY_-_POWER_COUPLING
 10
15.881853143062569
 20
7.4032251126102819
 30
0.0
 11
14.894647163727271
 21
8.3904310919455884
 31
0.0
  0
LINE
  5
977
  8
BODY_-_POWER_COUPLING
 10
16.342919555055289
 20
7.4724887865074718
 30
0.0
 11
15.111298135131561
 21
8.7041102064311957
 31
0.0
  0
LINE
  5
978
  8
BODY_-_POWER_COUPLING
 10
16.560327732476999
 20
7.7854106949756696
 30
0.0
 11
15.64162822102147
 21
8.7041102064311957
 31
0.0
  0
LINE
  5
979
  8
BODY_-_POWER_COUPLING
 10
16.753969435447221
 20
8.122099077895367
 30
0.0
 11
15.228068785691219
 21
9.6479997276513654
 31
0.0
  0
LINE
  5
97A
  8
BODY_-_POWER_COUPLING
 10
16.4580889861349
 20
8.9483096130976012
 30
0.0
 11
15.228068785691219
 21
10.178329813541261
 31
0.0
  0
LINE
  5
97B
  8
BODY_-_POWER_COUPLING
 10
16.27060654889031
 20
9.6661221362320973
 30
0.0
 11
15.27233834485966
 21
10.66439034026275
 31
0.0
  0
LINE
  5
97C
  8
BODY_-_POWER_COUPLING
 10
16.27060654889031
 20
10.19645222212201
 30
0.0
 11
15.567318683933991
 21
10.899740087078319
 31
0.0
  0
LINE
  5
97D
  8
BODY_-_POWER_COUPLING
 10
16.324737746453138
 20
10.672651110449079
 30
0.0
 11
15.895147875560919
 21
11.102240981341289
 31
0.0
  0
LINE
  5
97E
  8
BODY_-_POWER_COUPLING
 10
15.73127865047104
 20
11.26611020643119
 30
0.0
 11
14.894647163727271
 21
12.10274169317495
 31
0.0
  0
LINE
  5
97F
  8
BODY_-_POWER_COUPLING
 10
16.578223025846469
 20
10.94949591694567
 30
0.0
 11
14.894647163727271
 21
12.633071779064871
 31
0.0
  0
LINE
  5
980
  8
BODY_-_POWER_COUPLING
 10
16.423574852281199
 20
11.63447417640084
 30
0.0
 11
15.42196742406693
 21
12.636081604615111
 31
0.0
  0
LINE
  5
981
  8
BODY_-_POWER_COUPLING
 10
16.54745747446184
 20
12.04092164011012
 30
0.0
 11
16.046050326247759
 21
12.5423287883242
 31
0.0
  0
LINE
  5
982
  8
BODY_-_POWER_COUPLING
 10
16.742478110231779
 20
12.376231090230091
 30
0.0
 11
16.670133228428579
 21
12.44857597203328
 31
0.0
  0
LINE
  5
983
  8
BODY_-_POWER_COUPLING
 10
16.383895286658849
 20
7.4786443633130393
 30
0.0
 11
14.894647163727271
 21
7.2549221539833262
 31
0.0
  0
LINE
  5
984
  8
BODY_-_POWER_COUPLING
 10
16.775360854645498
 20
12.432768158239689
 30
0.0
 11
14.894647163727271
 21
12.715298258879059
 31
0.0
  0
LINE
  5
985
  8
BODY_-_POWER_COUPLING
 10
16.383895286658849
 20
7.4786443633130393
 30
0.0
 11
16.773404982253989
 21
8.1558920198348464
 31
0.0
  0
LINE
  5
986
  8
BODY_-_POWER_COUPLING
 10
16.773404982253989
 20
8.1558920198348464
 30
0.0
 11
16.44806482461621
 21
8.7777043913624482
 31
0.0
  0
LINE
  5
987
  8
BODY_-_POWER_COUPLING
 10
16.44806482461621
 20
8.7777043913624482
 30
0.0
 11
16.47764118937749
 21
9.2810763949772994
 31
0.0
  0
LINE
  5
988
  8
BODY_-_POWER_COUPLING
 10
16.47764118937749
 20
9.2810763949772994
 30
0.0
 11
16.27060654889031
 21
9.6660078421141211
 31
0.0
  0
LINE
  5
989
  8
BODY_-_POWER_COUPLING
 10
16.27060654889031
 20
9.6660078421141211
 30
0.0
 11
16.27060654889031
 21
10.61353153967725
 31
0.0
  0
LINE
  5
98A
  8
BODY_-_POWER_COUPLING
 10
16.27060654889031
 20
10.61353153967725
 30
0.0
 11
16.595946706528089
 21
10.96885289483588
 31
0.0
  0
LINE
  5
98B
  8
BODY_-_POWER_COUPLING
 10
16.595946706528089
 20
10.96885289483588
 30
0.0
 11
16.388912066040909
 21
11.76832600679788
 31
0.0
  0
LINE
  5
98C
  8
BODY_-_POWER_COUPLING
 10
16.388912066040909
 20
11.76832600679788
 30
0.0
 11
16.775360854645498
 21
12.432768158239689
 31
0.0
  0
LINE
  5
98F
  8
BODY_-_POWER_COUPLING
 10
15.228068785691219
 20
9.6411102064311951
 30
0.0
 11
15.103068785691219
 21
9.6411102064311969
 31
0.0
  0
LINE
  5
990
  8
BODY_-_POWER_COUPLING
 10
15.228068785691219
 20
10.32911020643119
 30
0.0
 11
15.103068785691219
 21
10.32911020643119
 31
0.0
  0
LINE
  5
991
  8
BODY_-_POWER_COUPLING
 10
16.00906878569122
 20
11.26611020643119
 30
0.0
 11
15.00906878569123
 21
11.26611020643119
 31
0.0
  0
LINE
  5
992
  8
BODY_-_POWER_COUPLING
 10
16.00906878569122
 20
8.7041102064311975
 30
0.0
 11
15.00906878569123
 21
8.7041102064311975
 31
0.0
  0
LINE
  5
993
  8
BODY_-_POWER_COUPLING
 10
16.00906878569122
 20
8.7041102064311957
 30
0.0
 11
16.00906878569122
 21
8.7976102064311945
 31
0.0
  0
LINE
  5
994
  8
BODY_-_POWER_COUPLING
 10
15.103068785691219
 20
9.4541102064311957
 30
0.0
 11
15.103068785691219
 21
10.51611020643119
 31
0.0
  0
LINE
  5
995
  8
BODY_-_POWER_COUPLING
 10
15.228068785691219
 20
9.6411102064311969
 30
0.0
 11
15.228068785691219
 21
10.32911020643119
 31
0.0
  0
LINE
  5
996
  8
BODY_-_POWER_COUPLING
 10
15.20094856458112
 20
11.26611020643119
 30
0.0
 11
14.894647163727271
 21
11.572411607285041
 31
0.0
  0
LINE
  5
997
  8
BODY_-_POWER_COUPLING
 10
16.00906878569122
 20
8.7976102064311963
 30
0.0
 11
15.478068785691219
 21
9.1256102064311975
 31
0.0
  0
LINE
  5
998
  8
BODY_-_POWER_COUPLING
 10
16.00906878569122
 20
11.172610206431189
 30
0.0
 11
15.478068785691219
 21
10.8446102064312
 31
0.0
  0
LINE
  5
999
  8
BODY_-_POWER_COUPLING
 10
15.478068785691219
 20
10.8446102064312
 30
0.0
 11
15.103068785691219
 21
10.51611020643119
 31
0.0
  0
LINE
  5
99A
  8
BODY_-_POWER_COUPLING
 10
15.478068785691219
 20
9.1256102064311975
 30
0.0
 11
15.103068785691219
 21
9.4541102064311957
 31
0.0
  0
LINE
  5
99E
  8
BODY_-_POWER_COUPLING
 10
15.00906878569123
 20
8.5476102064311945
 30
0.0
 11
15.00906878569123
 21
11.422610206431189
 31
0.0
  0
LINE
  5
9A0
  8
BODY_-_POWER_COUPLING
 10
14.894647163727271
 20
12.715298258879059
 30
0.0
 11
14.894647163727271
 21
11.422610206431189
 31
0.0
  0
LINE
  5
9A1
  8
BODY_-_POWER_COUPLING
 10
15.00906878569123
 20
8.5476102064311981
 30
0.0
 11
14.894647163727271
 21
8.5476102064311963
 31
0.0
  0
LINE
  5
9A2
  8
BODY_-_POWER_COUPLING
 10
15.00906878569123
 20
11.422610206431189
 30
0.0
 11
14.894647163727271
 21
11.422610206431189
 31
0.0
  0
LINE
  5
9A3
  8
BODY_-_POWER_COUPLING
 10
14.894647163727271
 20
8.5476102064311945
 30
0.0
 11
14.894647163727271
 21
7.2549221539833262
 31
0.0
  0
LINE
  5
9A4
  8
BODY_-_POWER_COUPLING
 10
14.95972031907713
 20
7.264697764815903
 30
0.0
 11
14.894647163727271
 21
7.329770920165763
 31
0.0
  0
LINE
  5
9A5
  8
0
 10
9.7184650683955027
 20
11.422610206431189
 30
0.0
 11
6.8434650683954876
 21
11.422610206431189
 31
0.0
  0
LINE
  5
9A6
  8
0
 10
9.7184650683955027
 20
8.5476102064311981
 30
0.0
 11
6.8434650683954876
 21
8.5476102064311945
 31
0.0
  0
LINE
  5
9A7
  8
0
 10
6.8434650683954876
 20
8.5476102064311945
 30
0.0
 11
6.8434650683954876
 21
11.422610206431189
 31
0.0
  0
LINE
  5
9A8
  8
0
 10
9.7184650683955027
 20
8.5476102064311981
 30
0.0
 11
9.7184650683955027
 21
11.422610206431189
 31
0.0
  0
LINE
  5
9B4
  8
BODY_-_POWER_COUPLING
 10
8.5619650683954944
 20
10.543378958915159
 30
0.0
 11
8.5619650683954944
 21
11.138884556120081
 31
0.0
  0
LINE
  5
9B5
  8
BODY_-_POWER_COUPLING
 10
7.9999650683954959
 20
10.543378958915159
 30
0.0
 11
7.9999650683954959
 21
11.138884556120081
 31
0.0
  0
LINE
  5
9B6
  8
BODY_-_POWER_COUPLING
 10
8.1249650683954968
 20
10.492677935901851
 30
0.0
 11
7.9999650683954959
 21
10.543378958915159
 31
0.0
  0
LINE
  5
9B7
  8
BODY_-_POWER_COUPLING
 10
8.4369650683954944
 20
10.492677935901851
 30
0.0
 11
8.5619650683954944
 21
10.543378958915159
 31
0.0
  0
LINE
  5
9BC
  8
BODY_-_POWER_COUPLING
 10
7.9999650683954959
 20
2.6548437079742611
 30
0.0
 11
8.1249650683954968
 21
3.5640989288981331
 31
0.0
  0
LINE
  5
9BD
  8
BODY_-_POWER_COUPLING
 10
8.5619650683954944
 20
2.6548437079742619
 30
0.0
 11
8.4369650683954944
 21
3.5608437079742612
 31
0.0
  0
ARC
  5
9C0
  8
0
 10
8.2809650683955027
 20
9.9851102064311981
 30
0.0
 40
0.8595
 50
76.013290713003357
 51
104.0047284886941
  0
LINE
  5
9C1
  8
BODY_-_POWER_COUPLING
 10
8.1249650683954968
 20
10.492677935901851
 30
0.0
 11
8.0729643742807724
 21
10.819062220187259
 31
0.0
  0
LINE
  5
9C2
  8
BODY_-_POWER_COUPLING
 10
8.0729643742807724
 20
10.819062220187259
 30
0.0
 11
7.9999650683954959
 21
11.138884556120081
 31
0.0
  0
LINE
  5
9C3
  8
BODY_-_POWER_COUPLING
 10
8.4369650683954944
 20
10.492677935901851
 30
0.0
 11
8.4887034789915248
 21
10.819127593997569
 31
0.0
  0
LINE
  5
9C4
  8
BODY_-_POWER_COUPLING
 10
8.4887034789915248
 20
10.819127593997569
 30
0.0
 11
8.5619650683954944
 21
11.138884556120081
 31
0.0
  0
ARC
  5
9C5
  8
0
 10
8.2809650683955027
 20
9.9851102064311981
 30
0.0
 40
0.8595
 50
166.0132907130033
 51
194.0047284886941
  0
ARC
  5
9C6
  8
0
 10
8.2809650683955027
 20
9.9851102064311981
 30
0.0
 40
1.1875
 50
166.31218169746319
 51
193.6878183025367
  0
LINE
  5
9C7
  8
BODY_-_POWER_COUPLING
 10
7.7226963159115343
 20
9.7041102064311993
 30
0.0
 11
7.1271907187066139
 21
9.7041102064311993
 31
0.0
  0
LINE
  5
9C8
  8
BODY_-_POWER_COUPLING
 10
7.7226963159115343
 20
10.2661102064312
 30
0.0
 11
7.1271907187066139
 21
10.2661102064312
 31
0.0
  0
LINE
  5
9C9
  8
BODY_-_POWER_COUPLING
 10
7.7733973389248368
 20
9.8291102064311993
 30
0.0
 11
7.7226963159115343
 21
9.7041102064311993
 31
0.0
  0
LINE
  5
9CA
  8
BODY_-_POWER_COUPLING
 10
7.7733973389248368
 20
10.1411102064312
 30
0.0
 11
7.7226963159115343
 21
10.2661102064312
 31
0.0
  0
LINE
  5
9CB
  8
BODY_-_POWER_COUPLING
 10
7.7733973389248368
 20
9.8291102064311993
 30
0.0
 11
7.4470130546394406
 21
9.7771095123164677
 31
0.0
  0
LINE
  5
9CC
  8
BODY_-_POWER_COUPLING
 10
7.4470130546394406
 20
9.7771095123164677
 30
0.0
 11
7.1271907187066139
 21
9.7041102064311993
 31
0.0
  0
LINE
  5
9CD
  8
BODY_-_POWER_COUPLING
 10
7.7733973389248368
 20
10.14111020643119
 30
0.0
 11
7.4469476808291262
 21
10.19284861702722
 31
0.0
  0
LINE
  5
9CE
  8
BODY_-_POWER_COUPLING
 10
7.4469476808291262
 20
10.19284861702722
 30
0.0
 11
7.1271907187066139
 21
10.2661102064312
 31
0.0
  0
ARC
  5
9CF
  8
0
 10
8.2809650683955027
 20
9.9851102064311981
 30
0.0
 40
0.8595
 50
256.01329071300341
 51
284.00472848869413
  0
ARC
  5
9D0
  8
0
 10
8.2809650683955027
 20
9.9851102064311981
 30
0.0
 40
1.1875
 50
256.31218169746319
 51
283.68781830253681
  0
LINE
  5
9D1
  8
BODY_-_POWER_COUPLING
 10
8.5619650683954944
 20
9.4268414539472332
 30
0.0
 11
8.5619650683954944
 21
8.8313358567423172
 31
0.0
  0
LINE
  5
9D2
  8
BODY_-_POWER_COUPLING
 10
7.9999650683954959
 20
9.4268414539472332
 30
0.0
 11
7.9999650683954959
 21
8.8313358567423172
 31
0.0
  0
LINE
  5
9D3
  8
BODY_-_POWER_COUPLING
 10
8.4369650683954944
 20
9.4775424769605383
 30
0.0
 11
8.5619650683954944
 21
9.4268414539472332
 31
0.0
  0
LINE
  5
9D4
  8
BODY_-_POWER_COUPLING
 10
8.1249650683954968
 20
9.4775424769605383
 30
0.0
 11
7.9999650683954959
 21
9.4268414539472332
 31
0.0
  0
LINE
  5
9D5
  8
BODY_-_POWER_COUPLING
 10
8.4369650683954944
 20
9.4775424769605383
 30
0.0
 11
8.488965762510233
 21
9.1511581926751369
 31
0.0
  0
LINE
  5
9D6
  8
BODY_-_POWER_COUPLING
 10
8.488965762510233
 20
9.1511581926751369
 30
0.0
 11
8.5619650683954944
 21
8.8313358567423172
 31
0.0
  0
LINE
  5
9D7
  8
BODY_-_POWER_COUPLING
 10
8.1249650683954968
 20
9.4775424769605383
 30
0.0
 11
8.0732266577994665
 21
9.1510928188648251
 31
0.0
  0
LINE
  5
9D8
  8
BODY_-_POWER_COUPLING
 10
8.0732266577994665
 20
9.1510928188648251
 30
0.0
 11
7.9999650683954959
 21
8.8313358567423172
 31
0.0
  0
ARC
  5
9D9
  8
0
 10
8.2809650683955027
 20
9.9851102064311981
 30
0.0
 40
0.8595
 50
346.0132907130033
 51
14.00472848869404
  0
ARC
  5
9DA
  8
0
 10
8.2809650683955027
 20
9.9851102064311981
 30
0.0
 40
1.1875
 50
346.31218169746307
 51
13.6878183025367
  0
LINE
  5
9DB
  8
BODY_-_POWER_COUPLING
 10
8.8392338208794552
 20
10.2661102064312
 30
0.0
 11
9.4347394180843764
 21
10.2661102064312
 31
0.0
  0
LINE
  5
9DC
  8
BODY_-_POWER_COUPLING
 10
8.8392338208794552
 20
9.7041102064311975
 30
0.0
 11
9.4347394180843764
 21
9.7041102064311957
 31
0.0
  0
LINE
  5
9DD
  8
BODY_-_POWER_COUPLING
 10
8.7885327978661536
 20
10.14111020643119
 30
0.0
 11
8.8392338208794552
 21
10.2661102064312
 31
0.0
  0
LINE
  5
9DE
  8
BODY_-_POWER_COUPLING
 10
8.7885327978661536
 20
9.8291102064311975
 30
0.0
 11
8.8392338208794552
 21
9.7041102064311975
 31
0.0
  0
LINE
  5
9DF
  8
BODY_-_POWER_COUPLING
 10
8.7885327978661536
 20
10.14111020643119
 30
0.0
 11
9.1149170821515622
 21
10.19311090054592
 31
0.0
  0
LINE
  5
9E0
  8
BODY_-_POWER_COUPLING
 10
9.1149170821515622
 20
10.19311090054592
 30
0.0
 11
9.4347394180843764
 21
10.2661102064312
 31
0.0
  0
LINE
  5
9E1
  8
BODY_-_POWER_COUPLING
 10
8.7885327978661536
 20
9.8291102064311993
 30
0.0
 11
9.1149824559618651
 21
9.7773717958351725
 31
0.0
  0
LINE
  5
9E2
  8
BODY_-_POWER_COUPLING
 10
9.1149824559618651
 20
9.7773717958351725
 30
0.0
 11
9.4347394180843764
 21
9.7041102064311957
 31
0.0
  0
ARC
  5
9E3
  8
0
 10
8.2809650683955027
 20
9.9851102064311981
 30
0.0
 40
0.625
 50
206.71802326280829
 51
243.2819767371912
  0
ARC
  5
9E4
  8
0
 10
8.2809650683955027
 20
9.9851102064311981
 30
0.0
 40
0.625
 50
26.71802326280848
 51
63.281976737191592
  0
ARC
  5
9E5
  8
0
 10
8.2809650683955027
 20
9.9851102064311981
 30
0.0
 40
0.625
 50
296.71802326280817
 51
333.28197673719148
  0
ARC
  5
9E6
  8
BODY_-_POWER_COUPLING
 10
8.2809650683955027
 20
9.9851102064311981
 30
0.0
 40
0.75
 50
120.0000000000001
 51
149.9999999999998
  0
ARC
  5
9E7
  8
BODY_-_POWER_COUPLING
 10
8.2809650683955027
 20
9.9851102064311981
 30
0.0
 40
1.1875
 50
108.4084801705859
 51
161.59151982941401
  0
ARC
  5
9E8
  8
BODY_-_POWER_COUPLING
 10
8.2809650683955027
 20
9.9851102064311981
 30
0.0
 40
1.4375
 50
290.77887812291988
 51
339.22112187708001
  0
LINE
  5
9ED
  8
BODY_-_POWER_COUPLING
 10
7.6314460155571728
 20
10.3601102064312
 30
0.0
 11
7.1542302948130043
 21
10.3601102064312
 31
0.0
  0
LINE
  5
9EE
  8
BODY_-_POWER_COUPLING
 10
7.6314460155571728
 20
9.6101102064311981
 30
0.0
 11
7.1542302948130043
 21
9.6101102064311981
 31
0.0
  0
LINE
  5
9EF
  8
BODY_-_POWER_COUPLING
 10
7.9059650683955018
 20
9.3355911535928691
 30
0.0
 11
7.9059650683955018
 21
8.8583754328487014
 31
0.0
  0
LINE
  5
9F0
  8
BODY_-_POWER_COUPLING
 10
8.6559650683955027
 20
9.3355911535928691
 30
0.0
 11
8.6559650683955027
 21
8.8583754328487014
 31
0.0
  0
LINE
  5
9F1
  8
BODY_-_POWER_COUPLING
 10
8.9304841212338317
 20
9.6101102064311981
 30
0.0
 11
9.4076998419780011
 21
9.6101102064311981
 31
0.0
  0
LINE
  5
9F2
  8
BODY_-_POWER_COUPLING
 10
8.9304841212338317
 20
10.3601102064312
 30
0.0
 11
9.4076998419780011
 21
10.3601102064312
 31
0.0
  0
LINE
  5
9F3
  8
BODY_-_POWER_COUPLING
 10
7.9059650683955018
 20
10.634629259269531
 30
0.0
 11
7.9059650683955018
 21
11.111844980013689
 31
0.0
  0
LINE
  5
9F4
  8
BODY_-_POWER_COUPLING
 10
8.6559650683955027
 20
10.634629259269531
 30
0.0
 11
8.6559650683955027
 21
11.111844980013689
 31
0.0
  0
ARC
  5
9F5
  8
BODY_-_POWER_COUPLING
 10
8.2809650683955027
 20
9.9851102064311981
 30
0.0
 40
0.75
 50
210.0
 51
240.0
  0
ARC
  5
9F6
  8
BODY_-_POWER_COUPLING
 10
8.2809650683955027
 20
9.9851102064311981
 30
0.0
 40
0.75
 50
300.0
 51
330.00000000000011
  0
ARC
  5
9F7
  8
BODY_-_POWER_COUPLING
 10
8.2809650683955027
 20
9.9851102064311981
 30
0.0
 40
0.75
 50
30.0
 51
60.0
  0
ARC
  5
9F8
  8
BODY_-_POWER_COUPLING
 10
8.2809650683955027
 20
9.9851102064311981
 30
0.0
 40
1.1875
 50
18.40848017058584
 51
71.591519829414153
  0
ARC
  5
9F9
  8
BODY_-_POWER_COUPLING
 10
8.2809650683955027
 20
9.9851102064311981
 30
0.0
 40
1.1875
 50
288.4084801705859
 51
341.59151982941421
  0
ARC
  5
9FA
  8
BODY_-_POWER_COUPLING
 10
8.2809650683955027
 20
9.9851102064311981
 30
0.0
 40
1.1875
 50
198.40848017058579
 51
251.59151982941421
  0
LINE
  5
9FB
  8
0
 10
6.9369650683954944
 20
8.6411102064311933
 30
0.0
 11
6.9369650683954944
 21
9.4751393739319454
 31
0.0
  0
LINE
  5
9FC
  8
0
 10
9.6249650683954968
 20
11.32911020643119
 30
0.0
 11
8.7909359008947803
 21
11.32911020643119
 31
0.0
  0
LINE
  5
9FD
  8
0
 10
9.6249650683954968
 20
8.6411102064311969
 30
0.0
 11
9.6249650683954968
 21
9.4751393739319258
 31
0.0
  0
LINE
  5
9FE
  8
0
 10
9.6249650683954968
 20
8.6411102064311969
 30
0.0
 11
8.7909359008947661
 21
8.6411102064311969
 31
0.0
  0
LINE
  5
9FF
  8
0
 10
7.7709942358962394
 20
8.6411102064311969
 30
0.0
 11
6.9369650683954944
 21
8.6411102064311933
 31
0.0
  0
LINE
  5
A00
  8
0
 10
6.9369650683954944
 20
10.495081038930451
 30
0.0
 11
6.9369650683954944
 21
11.32911020643119
 31
0.0
  0
ARC
  5
A01
  8
BODY_-_POWER_COUPLING
 10
8.2809650683955027
 20
9.9851102064311981
 30
0.0
 40
1.4375
 50
200.77887812291911
 51
249.22112187708021
  0
LINE
  5
A02
  8
0
 10
7.7709942358962252
 20
11.32911020643119
 30
0.0
 11
6.9369650683954944
 21
11.32911020643119
 31
0.0
  0
ARC
  5
A03
  8
BODY_-_POWER_COUPLING
 10
8.2809650683955027
 20
9.9851102064311981
 30
0.0
 40
1.4375
 50
110.7788781229201
 51
159.22112187708069
  0
LINE
  5
A04
  8
0
 10
9.6249650683954968
 20
10.49508103893047
 30
0.0
 11
9.6249650683954968
 21
11.32911020643119
 31
0.0
  0
ARC
  5
A05
  8
BODY_-_POWER_COUPLING
 10
8.2809650683955027
 20
9.9851102064311981
 30
0.0
 40
1.4375
 50
20.778878122919991
 51
69.221121877079838
  0
LINE
  5
A06
  8
BODY_-_POWER_COUPLING
 10
16.00906878569122
 20
11.1726102064312
 30
0.0
 11
16.00906878569122
 21
11.26611020643119
 31
0.0
  0
LINE
  5
A07
  8
BODY_-_POWER_COUPLING
 10
14.969068785691221
 20
11.329110206431199
 30
0.0
 11
15.00906878569123
 21
11.329110206431199
 31
0.0
  0
LINE
  5
A08
  8
BODY_-_POWER_COUPLING
 10
14.969068785691221
 20
10.495081038930451
 30
0.0
 11
15.00906878569123
 21
10.495081038930451
 31
0.0
  0
LINE
  5
A09
  8
BODY_-_POWER_COUPLING
 10
14.969068785691221
 20
9.4751393739319454
 30
0.0
 11
15.00906878569123
 21
9.4751393739319454
 31
0.0
  0
LINE
  5
A0A
  8
BODY_-_POWER_COUPLING
 10
14.969068785691221
 20
8.6411102064311933
 30
0.0
 11
15.00906878569123
 21
8.6411102064311933
 31
0.0
  0
LINE
  5
A0B
  8
BODY_-_POWER_COUPLING
 10
14.969068785691221
 20
8.6411102064311933
 30
0.0
 11
14.969068785691221
 21
9.4751393739319454
 31
0.0
  0
LINE
  5
A0C
  8
BODY_-_POWER_COUPLING
 10
14.969068785691221
 20
10.495081038930451
 30
0.0
 11
14.969068785691221
 21
11.329110206431199
 31
0.0
  0
LINE
  5
A3E
  8
DIMENSIONS
 10
8.6559650683955027
 20
11.174344980013689
 30
0.0
 11
8.6559650683955027
 21
14.4851102064312
 31
0.0
  0
LINE
  5
A3F
  8
DIMENSIONS
 10
7.9059650683955018
 20
11.174344980013689
 30
0.0
 11
7.9059650683955018
 21
14.4851102064312
 31
0.0
  0
LINE
  5
A40
  8
DIMENSIONS
 10
8.9059650683955027
 20
14.4226102064312
 30
0.0
 11
9.1559650683955027
 21
14.4226102064312
 31
0.0
  0
LINE
  5
A41
  8
DIMENSIONS
 10
7.6559650683955018
 20
14.4226102064312
 30
0.0
 11
7.4059650683955018
 21
14.4226102064312
 31
0.0
  0
SOLID
  5
A42
  8
DIMENSIONS
 10
8.9059650683955027
 20
14.464276873097861
 30
0.0
 11
8.9059650683955027
 21
14.38094353976453
 31
0.0
 12
8.6559650683955027
 22
14.4226102064312
 32
0.0
 13
8.6559650683955027
 23
14.4226102064312
 33
0.0
  0
SOLID
  5
A43
  8
DIMENSIONS
 10
7.6559650683955018
 20
14.464276873097861
 30
0.0
 11
7.6559650683955018
 21
14.38094353976453
 31
0.0
 12
7.9059650683955018
 22
14.4226102064312
 32
0.0
 13
7.9059650683955018
 23
14.4226102064312
 33
0.0
  0
LINE
  5
A45
  8
DIMENSIONS
 10
8.5619650683954944
 20
11.201384556120081
 30
0.0
 11
8.5619650683954944
 21
13.4851102064312
 31
0.0
  0
LINE
  5
A46
  8
DIMENSIONS
 10
7.9999650683954959
 20
11.201384556120081
 30
0.0
 11
7.9999650683954959
 21
13.4851102064312
 31
0.0
  0
LINE
  5
A47
  8
DIMENSIONS
 10
8.8119650683954944
 20
13.4226102064312
 30
0.0
 11
9.0619650683954944
 21
13.4226102064312
 31
0.0
  0
LINE
  5
A48
  8
DIMENSIONS
 10
7.7499650683954959
 20
13.4226102064312
 30
0.0
 11
7.4999650683954959
 21
13.4226102064312
 31
0.0
  0
SOLID
  5
A49
  8
DIMENSIONS
 10
8.8119650683954944
 20
13.464276873097861
 30
0.0
 11
8.8119650683954944
 21
13.38094353976453
 31
0.0
 12
8.5619650683954944
 22
13.4226102064312
 32
0.0
 13
8.5619650683954944
 23
13.4226102064312
 33
0.0
  0
SOLID
  5
A4A
  8
DIMENSIONS
 10
7.7499650683954959
 20
13.464276873097861
 30
0.0
 11
7.7499650683954959
 21
13.38094353976453
 31
0.0
 12
7.9999650683954959
 22
13.4226102064312
 32
0.0
 13
7.9999650683954959
 23
13.4226102064312
 33
0.0
  0
LINE
  5
A4C
  8
DIMENSIONS
 10
8.4369650683954944
 20
10.55517793590186
 30
0.0
 11
8.4369650683954944
 21
12.4851102064312
 31
0.0
  0
LINE
  5
A4D
  8
DIMENSIONS
 10
8.1249650683954968
 20
10.55517793590186
 30
0.0
 11
8.1249650683954968
 21
12.4851102064312
 31
0.0
  0
LINE
  5
A4E
  8
DIMENSIONS
 10
8.6869650683954944
 20
12.422610206431189
 30
0.0
 11
8.9369650683954944
 21
12.422610206431189
 31
0.0
  0
LINE
  5
A4F
  8
DIMENSIONS
 10
7.8749650683954959
 20
12.422610206431189
 30
0.0
 11
7.6249650683954959
 21
12.422610206431189
 31
0.0
  0
SOLID
  5
A50
  8
DIMENSIONS
 10
8.6869650683954944
 20
12.464276873097861
 30
0.0
 11
8.6869650683954944
 21
12.38094353976453
 31
0.0
 12
8.4369650683954944
 22
12.422610206431189
 32
0.0
 13
8.4369650683954944
 23
12.422610206431189
 33
0.0
  0
SOLID
  5
A51
  8
DIMENSIONS
 10
7.8749650683954959
 20
12.464276873097861
 30
0.0
 11
7.8749650683954959
 21
12.38094353976453
 31
0.0
 12
8.1249650683954968
 22
12.422610206431189
 32
0.0
 13
8.1249650683954968
 23
12.422610206431189
 33
0.0
  0
TEXT
  5
A53
  8
DIMENSIONS
 10
6.3434650683955018
 20
14.2976102064312
 30
0.0
 40
0.25
  1
0.750
  0
TEXT
  5
A54
  8
DIMENSIONS
 10
6.4374650683954959
 20
13.2976102064312
 30
0.0
 40
0.25
  1
0.562
  0
TEXT
  5
A55
  8
DIMENSIONS
 10
6.6100841160145469
 20
12.297610206431189
 30
0.0
 40
0.25
  1
0.312
  0
LINE
  5
A74
  8
DIMENSIONS
 10
9.7809650683955027
 20
8.5476102064311981
 30
0.0
 11
10.780965068395499
 21
8.5476102064311981
 31
0.0
  0
LINE
  5
A75
  8
DIMENSIONS
 10
9.7809650683955027
 20
11.422610206431189
 30
0.0
 11
10.780965068395499
 21
11.422610206431189
 31
0.0
  0
LINE
  5
A76
  8
DIMENSIONS
 10
10.718465068395499
 20
8.7976102064311981
 30
0.0
 11
10.718465068395499
 21
9.544557816107563
 31
0.0
  0
LINE
  5
A77
  8
DIMENSIONS
 10
10.718465068395499
 20
11.172610206431189
 30
0.0
 11
10.718465068395499
 21
10.446000798549431
 31
0.0
  0
SOLID
  5
A78
  8
DIMENSIONS
 10
10.67679840172883
 20
8.7976102064311981
 30
0.0
 11
10.76013173506216
 21
8.7976102064311981
 31
0.0
 12
10.718465068395499
 22
8.5476102064311981
 32
0.0
 13
10.718465068395499
 23
8.5476102064311981
 33
0.0
  0
SOLID
  5
A79
  8
DIMENSIONS
 10
10.67679840172883
 20
11.172610206431189
 30
0.0
 11
10.76013173506216
 21
11.172610206431189
 31
0.0
 12
10.718465068395499
 22
11.422610206431189
 32
0.0
 13
10.718465068395499
 23
11.422610206431189
 33
0.0
  0
TEXT
  5
A7C
  8
DIMENSIONS
 10
10.218465068395499
 20
10.080348301669289
 30
0.0
 40
0.25
  1
2.875
  0
TEXT
  5
A7D
  8
DIMENSIONS
 10
10.00417935410978
 20
9.6636816350026251
 30
0.0
 40
0.25
  1
SQUARE
  0
LINE
  5
A8D
  8
DIMENSIONS
 10
9.6249650683954968
 20
8.5786102064311969
 30
0.0
 11
9.6249650683954968
 21
7.4851102064311963
 31
0.0
  0
LINE
  5
A8E
  8
DIMENSIONS
 10
6.9369650683954944
 20
8.5786102064311933
 30
0.0
 11
6.9369650683954944
 21
7.4851102064311963
 31
0.0
  0
LINE
  5
A8F
  8
DIMENSIONS
 10
9.3749650683954968
 20
7.5476102064311963
 30
0.0
 11
9.1054205316334134
 21
7.5476102064311963
 31
0.0
  0
LINE
  5
A90
  8
DIMENSIONS
 10
7.1869650683954944
 20
7.5476102064311963
 30
0.0
 11
7.4876572564185153
 21
7.5476102064311963
 31
0.0
  0
SOLID
  5
A91
  8
DIMENSIONS
 10
9.3749650683954968
 20
7.5892768730978624
 30
0.0
 11
9.3749650683954968
 21
7.5059435397645302
 31
0.0
 12
9.6249650683954968
 22
7.5476102064311963
 32
0.0
 13
9.6249650683954968
 23
7.5476102064311963
 33
0.0
  0
SOLID
  5
A92
  8
DIMENSIONS
 10
7.1869650683954944
 20
7.5892768730978624
 30
0.0
 11
7.1869650683954944
 21
7.5059435397645302
 31
0.0
 12
6.9369650683954944
 22
7.5476102064311963
 32
0.0
 13
6.9369650683954944
 23
7.5476102064311963
 33
0.0
  0
TEXT
  5
A94
  8
DIMENSIONS
 10
7.7809650683955018
 20
7.6428483016692912
 30
0.0
 40
0.25
  1
2.688
  0
TEXT
  5
A95
  8
DIMENSIONS
 10
7.5666793541097803
 20
7.2261816350026251
 30
0.0
 40
0.25
  1
SQUARE
  0
LINE
  5
AB2
  8
DIMENSIONS
 10
16.07156878569123
 20
8.7976102064311963
 30
0.0
 11
18.468993815972642
 21
8.7976102064311945
 31
0.0
  0
LINE
  5
AB3
  8
DIMENSIONS
 10
16.07156878569123
 20
11.1726102064312
 30
0.0
 11
18.468993815972642
 21
11.1726102064312
 31
0.0
  0
LINE
  5
AB4
  8
DIMENSIONS
 10
18.406493815972642
 20
9.0476102064311945
 30
0.0
 11
18.406493815972642
 21
10.32406359431204
 31
0.0
  0
LINE
  5
AB5
  8
DIMENSIONS
 10
18.406493815972642
 20
10.9226102064312
 30
0.0
 11
18.406493815972642
 21
10.69906359431204
 31
0.0
  0
SOLID
  5
AB6
  8
DIMENSIONS
 10
18.36482714930596
 20
9.0476102064311945
 30
0.0
 11
18.44816048263931
 21
9.0476102064311945
 31
0.0
 12
18.406493815972642
 22
8.7976102064311945
 32
0.0
 13
18.406493815972642
 23
8.7976102064311945
 33
0.0
  0
SOLID
  5
AB7
  8
DIMENSIONS
 10
18.36482714930596
 20
10.9226102064312
 30
0.0
 11
18.44816048263931
 21
10.9226102064312
 31
0.0
 12
18.406493815972642
 22
11.1726102064312
 32
0.0
 13
18.406493815972642
 23
11.1726102064312
 33
0.0
  0
TEXT
  5
AB9
  8
DIMENSIONS
 10
17.759615778964331
 20
10.386563594312049
 30
0.0
 40
0.25
  1
%%c2.375
  0
LINE
  5
AD6
  8
DIMENSIONS
 10
15.32482400661509
 20
10.8446102064312
 30
0.0
 11
13.75457564196711
 21
10.8446102064312
 31
0.0
  0
LINE
  5
AD7
  8
DIMENSIONS
 10
15.324824006615099
 20
9.1256102064311975
 30
0.0
 11
13.75457564196711
 21
9.1256102064311975
 31
0.0
  0
LINE
  5
AD8
  8
DIMENSIONS
 10
13.81707564196711
 20
10.59461020643119
 30
0.0
 11
13.81707564196711
 21
10.17100506797229
 31
0.0
  0
LINE
  5
AD9
  8
DIMENSIONS
 10
13.81707564196711
 20
9.3756102064311975
 30
0.0
 11
13.81707564196711
 21
9.7960050679722919
 31
0.0
  0
SOLID
  5
ADA
  8
DIMENSIONS
 10
13.77540897530044
 20
10.59461020643119
 30
0.0
 11
13.858742308633779
 21
10.59461020643119
 31
0.0
 12
13.81707564196711
 22
10.8446102064312
 32
0.0
 13
13.81707564196711
 23
10.8446102064312
 33
0.0
  0
SOLID
  5
ADB
  8
DIMENSIONS
 10
13.77540897530044
 20
9.3756102064311975
 30
0.0
 11
13.858742308633779
 21
9.3756102064311975
 31
0.0
 12
13.81707564196711
 22
9.1256102064311975
 32
0.0
 13
13.81707564196711
 23
9.1256102064311975
 33
0.0
  0
TEXT
  5
AE5
  8
DIMENSIONS
 10
13.21152914978428
 20
9.8585050679722919
 30
0.0
 40
0.25
  1
%%c1.719
  0
LINE
  5
AF4
  8
DIMENSIONS
 10
15.478068785691219
 20
9.0631102064311975
 30
0.0
 11
15.478068785691219
 21
6.209714450745401
 31
0.0
  0
LINE
  5
AF5
  8
DIMENSIONS
 10
15.103068785691219
 20
9.3916102064311957
 30
0.0
 11
15.103068785691219
 21
6.209714450745401
 31
0.0
  0
LINE
  5
AF6
  8
DIMENSIONS
 10
15.728068785691219
 20
6.272214450745401
 30
0.0
 11
15.978068785691219
 21
6.272214450745401
 31
0.0
  0
LINE
  5
AF7
  8
DIMENSIONS
 10
14.853068785691219
 20
6.272214450745401
 30
0.0
 11
14.603068785691219
 21
6.272214450745401
 31
0.0
  0
SOLID
  5
AF8
  8
DIMENSIONS
 10
15.728068785691219
 20
6.3138811174120688
 30
0.0
 11
15.728068785691219
 21
6.2305477840787331
 31
0.0
 12
15.478068785691219
 22
6.272214450745401
 32
0.0
 13
15.478068785691219
 23
6.272214450745401
 33
0.0
  0
SOLID
  5
AF9
  8
DIMENSIONS
 10
14.853068785691219
 20
6.3138811174120688
 30
0.0
 11
14.853068785691219
 21
6.2305477840787331
 31
0.0
 12
15.103068785691219
 22
6.272214450745401
 32
0.0
 13
15.103068785691219
 23
6.272214450745401
 33
0.0
  0
TEXT
  5
AFB
  8
DIMENSIONS
 10
13.540568785691219
 20
6.147214450745401
 30
0.0
 40
0.25
  1
0.375
  0
LINE
  5
B0B
  8
DIMENSIONS
 10
16.00906878569122
 20
8.6416102064311957
 30
0.0
 11
16.00906878569122
 21
5.209714450745401
 31
0.0
  0
LINE
  5
B0C
  8
DIMENSIONS
 10
15.103068785691219
 20
9.3916102064311957
 30
0.0
 11
15.103068785691219
 21
5.209714450745401
 31
0.0
  0
LINE
  5
B0D
  8
DIMENSIONS
 10
16.25906878569123
 20
5.272214450745401
 30
0.0
 11
16.50906878569123
 21
5.272214450745401
 31
0.0
  0
LINE
  5
B0E
  8
DIMENSIONS
 10
14.853068785691219
 20
5.272214450745401
 30
0.0
 11
14.603068785691219
 21
5.272214450745401
 31
0.0
  0
SOLID
  5
B0F
  8
DIMENSIONS
 10
16.25906878569123
 20
5.313881117412067
 30
0.0
 11
16.25906878569123
 21
5.2305477840787349
 31
0.0
 12
16.00906878569122
 22
5.272214450745401
 32
0.0
 13
16.00906878569122
 23
5.272214450745401
 33
0.0
  0
SOLID
  5
B10
  8
DIMENSIONS
 10
14.853068785691219
 20
5.313881117412067
 30
0.0
 11
14.853068785691219
 21
5.2305477840787349
 31
0.0
 12
15.103068785691219
 22
5.272214450745401
 32
0.0
 13
15.103068785691219
 23
5.272214450745401
 33
0.0
  0
TEXT
  5
B12
  8
DIMENSIONS
 10
13.552473547595991
 20
5.147214450745401
 30
0.0
 40
0.25
  1
0.906
  0
LINE
  5
B13
  8
DIMENSIONS
 10
8.486600944614878
 20
10.26088164514719
 30
0.0
 11
10.0985479573941
 21
12.422610206431189
 31
0.0
  0
LINE
  5
B14
  8
DIMENSIONS
 10
8.2809650683955027
 20
9.9851102064311981
 30
0.0
 11
5.8740524687841571
 21
8.3017880710274738
 31
0.0
  0
SOLID
  5
B17
  8
DIMENSIONS
 10
7.8480987979516348
 20
9.7319279965875491
 30
0.0
 11
7.8955684173186711
 21
9.6634365395903963
 31
0.0
 12
7.666359236643685
 22
9.5552734099878656
 32
0.0
 13
7.666359236643685
 23
9.5552734099878656
 33
0.0
  0
SOLID
  5
B18
  8
DIMENSIONS
 10
8.6051399252878582
 20
10.484900888008429
 30
0.0
 11
8.671387302395658
 21
10.4343466649328
 31
0.0
 12
8.486600944614878
 22
10.26088164514719
 32
0.0
 13
8.486600944614878
 23
10.26088164514719
 33
0.0
  0
LINE
  5
B19
  8
DIMENSIONS
 10
10.3485479573941
 20
12.422610206431189
 30
0.0
 11
10.0985479573941
 21
12.422610206431189
 31
0.0
  0
TEXT
  5
B1A
  8
DIMENSIONS
 10
10.551364301591731
 20
12.297610206431189
 30
0.0
 40
0.25
  1
%%c.688x0.125 DP
  0
LINE
  5
B1B
  8
DIMENSIONS
 10
5.8740524687841571
 20
8.3017880710274738
 30
0.0
 11
5.6240524687841571
 21
8.3017880710274738
 31
0.0
  0
TEXT
  5
B1C
  8
DIMENSIONS
 10
4.2558808008586757
 20
8.1767880710274738
 30
0.0
 40
0.25
  1
R0.750
  0
LINE
  5
B1D
  8
DIMENSIONS
 10
8.2809650683955027
 20
9.9851102064311981
 30
0.0
 11
10.718465068395499
 21
7.5476102064311981
 31
0.0
  0
SOLID
  5
B1F
  8
DIMENSIONS
 10
9.0898906796782626
 20
9.1141196325538942
 30
0.0
 11
9.148290297577887
 21
9.1735664917949205
 31
0.0
 12
9.2974310663511517
 22
8.9686442084755331
 32
0.0
 13
9.2974310663511517
 23
8.9686442084755331
 33
0.0
  0
LINE
  5
B20
  8
DIMENSIONS
 10
10.968465068395499
 20
7.5476102064311981
 30
0.0
 11
10.718465068395499
 21
7.5476102064311981
 31
0.0
  0
TEXT
  5
B21
  8
DIMENSIONS
 10
11.110581783791879
 20
7.4226102064311963
 30
0.0
 40
0.25
  1
R1.438
  0
LINE
  5
B22
  8
DIMENSIONS
 10
8.2809650683955027
 20
9.9851102064311981
 30
0.0
 11
5.4471834948896207
 21
7.4264899008582361
 31
0.0
  0
SOLID
  5
B23
  8
DIMENSIONS
 10
7.5534761401093391
 20
9.3906754321831567
 30
0.0
 11
7.6104669473962332
 21
9.3298766465930374
 31
0.0
 12
7.3995751869824167
 22
9.1893036175274379
 32
0.0
 13
7.3995751869824167
 23
9.1893036175274379
 33
0.0
  0
LINE
  5
B24
  8
DIMENSIONS
 10
5.4471834948896207
 20
7.4264899008582361
 30
0.0
 11
5.1971834948896207
 21
7.4264899008582361
 31
0.0
  0
TEXT
  5
B25
  8
DIMENSIONS
 10
3.8290118269641411
 20
7.3014899008582361
 30
0.0
 40
0.25
  1
R1.188
  0
LINE
  5
B26
  8
BODY_-_POWER_COUPLING
 10
6.9999650683954959
 20
2.6548437079742611
 30
0.0
 11
9.5619650683954944
 21
2.6548437079742611
 31
0.0
  0
LINE
  5
B45
  8
DIMENSIONS
 10
15.165568785691219
 20
9.4541102064311957
 30
0.0
 11
17.39612831876466
 21
9.4541102064311957
 31
0.0
  0
LINE
  5
B46
  8
DIMENSIONS
 10
15.165568785691219
 20
10.51611020643119
 30
0.0
 11
17.39612831876466
 21
10.51611020643119
 31
0.0
  0
LINE
  5
B47
  8
DIMENSIONS
 10
17.333628318764671
 20
9.7041102064311957
 30
0.0
 11
17.333628318764671
 21
9.7976102064311963
 31
0.0
  0
LINE
  5
B48
  8
DIMENSIONS
 10
17.333628318764671
 20
10.2661102064312
 30
0.0
 11
17.333628318764671
 21
10.172610206431189
 31
0.0
  0
SOLID
  5
B49
  8
DIMENSIONS
 10
17.291961652097989
 20
9.7041102064311957
 30
0.0
 11
17.375294985431339
 21
9.7041102064311957
 31
0.0
 12
17.333628318764671
 22
9.4541102064311957
 32
0.0
 13
17.333628318764671
 23
9.4541102064311957
 33
0.0
  0
SOLID
  5
B4A
  8
DIMENSIONS
 10
17.291961652097989
 20
10.2661102064312
 30
0.0
 11
17.375294985431339
 21
10.2661102064312
 31
0.0
 12
17.333628318764671
 22
10.51611020643119
 32
0.0
 13
17.333628318764671
 23
10.51611020643119
 33
0.0
  0
TEXT
  5
B4C
  8
DIMENSIONS
 10
16.747634918191789
 20
9.8601102064311981
 30
0.0
 40
0.25
  1
%%c1.062
  0
LINE
  5
B5C
  8
DIMENSIONS
 10
8.9059650683955027
 20
2.7173437079742611
 30
0.0
 11
8.9059650683955027
 21
4.625108552331187
 31
0.0
  0
LINE
  5
B5D
  8
DIMENSIONS
 10
7.6559650683955018
 20
2.7173437079742611
 30
0.0
 11
7.6559650683955018
 21
4.625108552331187
 31
0.0
  0
LINE
  5
B5E
  8
DIMENSIONS
 10
9.1559650683955027
 20
4.562608552331187
 30
0.0
 11
9.4059650683955027
 21
4.562608552331187
 31
0.0
  0
LINE
  5
B5F
  8
DIMENSIONS
 10
7.4059650683955018
 20
4.562608552331187
 30
0.0
 11
7.1559650683955018
 21
4.562608552331187
 31
0.0
  0
SOLID
  5
B60
  8
DIMENSIONS
 10
9.1559650683955027
 20
4.6042752189978531
 30
0.0
 11
9.1559650683955027
 21
4.5209418856645209
 31
0.0
 12
8.9059650683955027
 22
4.562608552331187
 32
0.0
 13
8.9059650683955027
 23
4.562608552331187
 33
0.0
  0
SOLID
  5
B61
  8
DIMENSIONS
 10
7.4059650683955018
 20
4.6042752189978531
 30
0.0
 11
7.4059650683955018
 21
4.5209418856645209
 31
0.0
 12
7.6559650683955018
 22
4.562608552331187
 32
0.0
 13
7.6559650683955018
 23
4.562608552331187
 33
0.0
  0
TEXT
  5
B63
  8
DIMENSIONS
 10
7.8047745922050211
 20
4.437608552331187
 30
0.0
 40
0.25
  1
1.250
  0
LINE
  5
B66
  8
DIMENSIONS
 10
9.1559650683955027
 20
5.562608552331187
 30
0.0
 11
9.4059650683955027
 21
5.562608552331187
 31
0.0
  0
LINE
  5
B75
  8
DIMENSIONS
 10
6.9999650683954959
 20
3.7173437079742611
 30
0.0
 11
6.9999650683954959
 21
5.625108552331187
 31
0.0
  0
LINE
  5
B76
  8
DIMENSIONS
 10
9.5619650683954944
 20
3.7173437079742611
 30
0.0
 11
9.5619650683954944
 21
5.625108552331187
 31
0.0
  0
LINE
  5
B77
  8
DIMENSIONS
 10
7.2499650683954959
 20
5.562608552331187
 30
0.0
 11
7.6091650621461318
 21
5.562608552331187
 31
0.0
  0
LINE
  5
B78
  8
DIMENSIONS
 10
9.3119650683954944
 20
5.562608552331187
 30
0.0
 11
9.0184922255549793
 21
5.562608552331187
 31
0.0
  0
SOLID
  5
B79
  8
DIMENSIONS
 10
7.2499650683954959
 20
5.6042752189978549
 30
0.0
 11
7.2499650683954959
 21
5.52094188566452
 31
0.0
 12
6.9999650683954959
 22
5.562608552331187
 32
0.0
 13
6.9999650683954959
 23
5.562608552331187
 33
0.0
  0
SOLID
  5
B7A
  8
DIMENSIONS
 10
9.3119650683954944
 20
5.6042752189978549
 30
0.0
 11
9.3119650683954944
 21
5.52094188566452
 31
0.0
 12
9.5619650683954944
 22
5.562608552331187
 32
0.0
 13
9.5619650683954944
 23
5.562608552331187
 33
0.0
  0
TEXT
  5
B7C
  8
DIMENSIONS
 10
7.7034521230381321
 20
5.437608552331187
 30
0.0
 40
0.25
  1
%%c2.562
  0
LINE
  5
B8E
  8
DIMENSIONS
 10
9.6244650683954944
 20
2.6548437079742611
 30
0.0
 11
11.956949739446801
 21
2.6548437079742611
 31
0.0
  0
LINE
  5
B8F
  8
DIMENSIONS
 10
9.7809650683955027
 20
3.6548437079742611
 30
0.0
 11
11.956949739446801
 21
3.6548437079742611
 31
0.0
  0
LINE
  5
B90
  8
DIMENSIONS
 10
11.894449739446801
 20
2.9048437079742611
 30
0.0
 11
11.894449739446801
 21
2.9673437079742611
 31
0.0
  0
LINE
  5
B91
  8
DIMENSIONS
 10
11.894449739446801
 20
3.4048437079742611
 30
0.0
 11
11.894449739446801
 21
3.3423437079742611
 31
0.0
  0
SOLID
  5
B92
  8
DIMENSIONS
 10
11.852783072780131
 20
2.9048437079742611
 30
0.0
 11
11.93611640611347
 21
2.9048437079742611
 31
0.0
 12
11.894449739446801
 22
2.6548437079742611
 32
0.0
 13
11.894449739446801
 23
2.6548437079742611
 33
0.0
  0
SOLID
  5
B93
  8
DIMENSIONS
 10
11.852783072780131
 20
3.4048437079742611
 30
0.0
 11
11.93611640611347
 21
3.4048437079742611
 31
0.0
 12
11.894449739446801
 22
3.6548437079742611
 32
0.0
 13
11.894449739446801
 23
3.6548437079742611
 33
0.0
  0
TEXT
  5
B95
  8
DIMENSIONS
 10
11.418259263256321
 20
3.0298437079742628
 30
0.0
 40
0.25
  1
1.000
  0
TEXT
  5
F41
  8
0
  6
CONTINUOUS
 10
72.336633369901421
 20
16.471658419875538
 30
0.0
 40
0.12
  1
 
 51
7.0
  0
TEXT
  5
F42
  8
0
  6
CONTINUOUS
 10
84.780730135381319
 20
23.534532849607199
 30
0.0
 40
0.24
  1
 
 51
7.0
  0
TEXT
  5
F43
  8
0
  6
CONTINUOUS
 10
93.990495147294595
 20
23.214522863030119
 30
0.0
 40
0.24
  1
 
 51
7.0
  0
TEXT
  5
F44
  8
0
  6
CONTINUOUS
 10
103.79445463172731
 20
6.3519420635027926
 30
0.0
 40
0.24
  1
 
 51
7.0
  0
LINE
  5
FFC
  8
0
 10
0.0
 20
0.0
 30
0.0
 11
0.0
 21
17.0
 31
0.0
  0
LINE
  5
FFD
  8
0
 10
22.0
 20
0.0
 30
0.0
 11
22.0
 21
17.0
 31
0.0
  0
LINE
  5
FFE
  8
0
 10
0.0
 20
0.0
 30
0.0
 11
22.0
 21
0.0
 31
0.0
  0
LINE
  5
FFF
  8
0
 10
0.0
 20
17.0
 30
0.0
 11
22.0
 21
17.0
 31
0.0
  0
LINE
  5
109D
  8
FORM
 10
21.403846140107252
 20
0.7499999996674092
 30
0.0
 11
21.403846140107252
 21
15.153846144098431
 31
0.0
  0
LINE
  5
109E
  8
FORM
 10
21.249999986363441
 20
15.307692297842239
 30
0.0
 11
0.7499999996674376
 21
15.307692297842239
 31
0.0
  0
LINE
  5
109F
  8
FORM
 10
21.249999986363441
 20
0.5961538459236025
 30
0.0
 11
0.7499999996674376
 21
0.5961538459235954
 31
0.0
  0
LINE
  5
10A0
  8
FORM
 10
0.5961538459236168
 20
0.7499999996674092
 30
0.0
 11
0.5961538459236168
 21
15.153846144098431
 31
0.0
  0
TEXT
  5
10A1
  8
FORM
 10
18.268468492456119
 20
2.6705065993040051
 30
0.0
 40
0.2
  1
POWER COUPLING
 72
     1
 11
19.573230397218019
 21
2.6705065993040051
 31
0.0
  0
TEXT
  5
10A2
  8
FORM
 10
19.07700787007559
 20
2.1193155254872589
 30
0.0
 40
0.260516826749781
  1
BODY
 72
     1
 11
19.573230397218019
 21
2.1193155254872589
 31
0.0
  0
TEXT
  5
10A3
  8
FORM
 10
16.770574233580561
 20
1.1177623757995749
 30
0.0
 40
0.260516826749781
  1
ASTROMECH DROID
  0
TEXT
  5
10A4
  8
FORM
 10
20.85720038004996
 20
1.1278903102633671
 30
0.0
 40
0.260516826749781
  1
A
  0
TEXT
  5
10A5
  8
FORM
 10
17.25446024791373
 20
0.813671414000872
 30
0.0
 40
0.1042067306999124
  1
FULL
  0
TEXT
  5
10A6
  8
FORM
 10
20.593280544426019
 20
0.8165882189588344
 30
0.0
 40
0.1042067306999124
  1
1   1
  0
TEXT
  5
10A7
  8
FORM
 10
18.867373488668239
 20
0.8246381046439915
 30
0.0
 40
0.1042067306999124
  1
APRIL 2005
 72
     2
 11
19.770498488067489
 21
0.8246381046439915
 31
0.0
  0
TEXT
  5
10A8
  8
FORM
  6
CONTINUOUS
 10
18.118827913558601
 20
0.8235896747318066
 30
0.0
 40
0.0900346153247244
  1
DRAWN:
  0
TEXT
  5
10A9
  8
FORM
  6
CONTINUOUS
 10
16.72518466957764
 20
0.8236741054737031
 30
0.0
 40
0.0900346153247244
  1
SCALE:
  0
TEXT
  5
10AA
  8
FORM
  6
CONTINUOUS
 10
20.01795677316494
 20
0.8225458122742352
 30
0.0
 40
0.0900346153247244
  1
SHEET:   OF
  0
TEXT
  5
10AB
  8
FORM
  6
CONTINUOUS
 10
16.560769897877751
 20
1.5378028837587541
 30
0.0
 40
0.0900346153247244
  1
DRAWING NO.
  0
TEXT
  5
10AC
  8
FORM
  6
CONTINUOUS
 10
20.822311852397561
 20
1.537802883758743
 30
0.0
 40
0.0900346153247244
  1
REV.
 72
     1
 11
20.955220094067389
 21
1.537802883758743
 31
0.0
  0
LINE
  5
10AD
  8
FORM
  6
CONTINUOUS
 10
16.703251912464879
 20
3.3610038440844141
 30
0.0
 11
21.02491344805162
 21
3.3610038440844141
 31
0.0
  0
LINE
  5
10AE
  8
FORM
  6
CONTINUOUS
 10
16.478165374153061
 20
0.9750865379792159
 30
0.0
 11
16.478165374153029
 21
3.1359173057725931
 31
0.0
  0
LINE
  5
10AF
  8
FORM
  6
CONTINUOUS
 10
16.478165374153061
 20
1.672854806745828
 30
0.0
 11
21.249999986363441
 21
1.672854806745828
 31
0.0
  0
LINE
  5
10B0
  8
FORM
  6
CONTINUOUS
 10
16.478165374153061
 20
0.9750865379792159
 30
0.0
 11
21.249999986363441
 21
0.9750865379792159
 31
0.0
  0
LINE
  5
10B1
  8
FORM
  6
CONTINUOUS
 10
17.97804237543275
 20
0.9750865379792159
 30
0.0
 11
17.97804237543275
 21
0.7499999996674092
 31
0.0
  0
LINE
  5
10B2
  8
FORM
  6
CONTINUOUS
 10
19.950430811671389
 20
0.9723156702741989
 30
0.0
 11
19.950430811671389
 21
0.7472291319623921
 31
0.0
  0
LINE
  5
10B3
  8
FORM
  6
CONTINUOUS
 10
20.65524763562988
 20
1.672854806745828
 30
0.0
 11
20.65524763562988
 21
0.9750865379792159
 31
0.0
  0
ARC
  5
10B4
  8
FORM
 62
     5
 10
16.925603837263051
 20
2.683123263179624
 30
0.0
 40
0.0245481788339413
 50
152.18113099770551
 51
330.99098814993278
  0
ARC
  5
10B5
  8
FORM
 62
     5
 10
17.03186349061718
 20
2.8877559907035391
 30
0.0
 40
0.0215248522646385
 50
335.32315363464198
 51
152.6722492633036
  0
ARC
  5
10B6
  8
FORM
 62
     5
 10
18.67139281679863
 20
1.8778243841790809
 30
0.0
 40
1.9470863223045181
 50
148.41494327216151
 51
155.19852313243231
  0
ARC
  5
10B7
  8
FORM
 62
     5
 10
19.04826621925363
 20
1.7448079813832851
 30
0.0
 40
2.2963564077758769
 50
150.40875710206339
 51
156.20744757951141
  0
ARC
  5
10B8
  8
FORM
 62
     7
 10
16.856187689619201
 20
2.476891943456518
 30
0.0
 40
0.0328016362752216
 50
161.128725237971
 51
346.89295927401372
  0
ARC
  5
10B9
  8
FORM
 62
     7
 10
26.446981545233939
 20
-1.665659984064163
 30
0.0
 40
10.414927500982669
 50
153.58307292081309
 51
156.60691138966209
  0
ARC
  5
10BA
  8
FORM
 62
     7
 10
24.942765772362829
 20
-1.1245203992272681
 30
0.0
 40
8.873647082696257
 50
152.3409599977594
 51
152.9694116127464
  0
ARC
  5
10BB
  8
FORM
 62
     7
 10
25.042235970541071
 20
-1.413551413076795
 30
0.0
 40
9.0960831006715779
 50
153.3711283527573
 51
154.60402195655351
  0
ARC
  5
10BC
  8
FORM
 62
     7
 10
17.329398129118289
 20
2.8602652973761158
 30
0.0
 40
0.2358358050601862
 50
23.468725928191049
 51
88.151617587883351
  0
ARC
  5
10BD
  8
FORM
 62
     7
 10
17.33466889121355
 20
2.8754695652234821
 30
0.0
 40
0.2783521476800796
 50
18.23262529566551
 51
154.63608874642679
  0
ARC
  5
10BE
  8
FORM
 62
     7
 10
17.41806628342874
 20
2.9044827195306051
 30
0.0
 40
0.1900699214402894
 50
336.99722732837893
 51
341.11190659806488
  0
ARC
  5
10BF
  8
FORM
 62
     7
 10
17.429371041778779
 20
2.912888609699027
 30
0.0
 40
0.1244898949022119
 50
333.24704424527522
 51
339.12675173356178
  0
ARC
  5
10C0
  8
FORM
 62
     7
 10
17.547120806258562
 20
2.8541053585607901
 30
0.0
 40
0.007134896083525
 50
157.3747590211585
 51
243.18317341424029
  0
ARC
  5
10C1
  8
FORM
 62
     7
 10
17.589262332130431
 20
2.8313183495512071
 30
0.0
 40
0.0039211308505914
 50
246.74236679857631
 51
343.55073793579641
  0
ARC
  5
10C2
  8
FORM
 62
     7
 10
17.71265002297525
 20
3.1590467530149189
 30
0.0
 40
0.3541033340658146
 50
241.5396617947477
 51
249.33988332022491
  0
ARC
  5
10C3
  8
FORM
 62
     7
 10
17.465116861604141
 20
2.7835275642507962
 30
0.0
 40
0.0699031230302257
 50
210.28645373052609
 51
287.25915125833183
  0
ARC
  5
10C4
  8
FORM
 62
     7
 10
17.471123101482839
 20
2.7532989527990699
 30
0.0
 40
0.0393865134548433
 50
291.96730232828992
 51
10.20108836223371
  0
ARC
  5
10C5
  8
FORM
 62
     7
 10
17.159843992632862
 20
2.6859329108208518
 30
0.0
 40
0.2527202610277017
 50
14.28109924276106
 51
24.94726153987823
  0
ARC
  5
10C6
  8
FORM
 62
     7
 10
17.30724545805592
 20
2.7624795397720869
 30
0.0
 40
0.0870866377029319
 50
20.183063788867621
 51
47.833846572520187
  0
ARC
  5
10C7
  8
FORM
 62
     7
 10
17.323525970686489
 20
2.7183682645997709
 30
0.0
 40
0.1165593648186974
 50
68.784960310907422
 51
94.742087985452599
  0
ARC
  5
10C8
  8
FORM
 62
     7
 10
17.32225776675568
 20
2.7872533208520021
 30
0.0
 40
0.0480101674679103
 50
100.0375073429591
 51
170.98475346238999
  0
ARC
  5
10C9
  8
FORM
 62
     7
 10
17.548079884465121
 20
2.754066770453373
 30
0.0
 40
0.2762551956077745
 50
171.52589863719891
 51
197.494741096675
  0
ARC
  5
10CA
  8
FORM
 62
     7
 10
17.361988404409459
 20
2.757975203687443
 30
0.0
 40
0.1479164690482495
 50
0.8906501289532242
 51
49.113860192417171
  0
ARC
  5
10CB
  8
FORM
 62
     7
 10
17.330827327390121
 20
2.7851061194825268
 30
0.0
 40
0.1164203647136616
 50
99.869748807366761
 51
175.59516845025641
  0
ARC
  5
10CC
  8
FORM
 62
     7
 10
17.35181928853353
 20
2.721979015220195
 30
0.0
 40
0.1824780170187834
 50
54.104282451028169
 51
102.9674010870567
  0
ARC
  5
10CD
  8
FORM
 62
     7
 10
17.866825478371819
 20
2.8305495615738461
 30
0.0
 40
0.603682768180479
 50
195.32307896217739
 51
209.290843156958
  0
ARC
  5
10CE
  8
FORM
 62
     7
 10
17.676878331574731
 20
2.7315679572076941
 30
0.0
 40
0.4663319886455236
 50
172.3003020759547
 51
200.12627387409299
  0
ARC
  5
10CF
  8
FORM
 62
     7
 10
18.010296677355171
 20
2.8617220596188409
 30
0.0
 40
0.8242093741364085
 50
200.64629086238159
 51
210.0464960904439
  0
ARC
  5
10D0
  8
FORM
 62
     7
 10
16.87490984687733
 20
2.2228629736894798
 30
0.0
 40
0.5605059965149727
 50
28.431949107384298
 51
33.865461133002469
  0
ARC
  5
10D1
  8
FORM
 62
     7
 10
17.335282492148359
 20
2.4642291377128478
 30
0.0
 40
0.0413303405420145
 50
201.56446042640411
 51
38.094090168146302
  0
ARC
  5
10D2
  8
FORM
 62
     5
 10
17.698488306364109
 20
2.8075987703319072
 30
0.0
 40
0.0229902810191139
 50
227.6202696593605
 51
57.412112921204063
  0
ARC
  5
10D3
  8
FORM
 62
     5
 10
17.427351296879149
 20
2.453894972691713
 30
0.0
 40
0.4685807675213703
 50
52.766851639305898
 51
65.063571515457895
  0
ARC
  5
10D4
  8
FORM
 62
     5
 10
17.209234353189508
 20
2.115713416994772
 30
0.0
 40
0.8245845677332351
 50
54.932512589538803
 51
74.152868438598929
  0
ARC
  5
10D5
  8
FORM
 62
     5
 10
17.22112341118936
 20
1.8705744209651269
 30
0.0
 40
1.0600616451387339
 50
78.393012355262385
 51
89.647961077025343
  0
ARC
  5
10D6
  8
FORM
 62
     5
 10
17.225855158117209
 20
2.9613835761542329
 30
0.0
 40
0.0308190515998151
 50
183.9979944211656
 51
273.313807745882
  0
ARC
  5
10D7
  8
FORM
 62
     5
 10
17.329870384946641
 20
2.9695252211814269
 30
0.0
 40
0.135151603104915
 50
145.60859166919269
 51
184.36670732083471
  0
ARC
  5
10D8
  8
FORM
 62
     5
 10
17.246715832908791
 20
3.027923603152622
 30
0.0
 40
0.0335688941126511
 50
75.244714174009715
 51
147.6929850116162
  0
ARC
  5
10D9
  8
FORM
 62
     5
 10
16.846566400398309
 20
1.4922623483111219
 30
0.0
 40
1.6205076763160291
 50
61.637242241525243
 51
75.392005557716686
  0
ARC
  5
10DA
  8
FORM
 62
     5
 10
17.585771892302461
 20
2.8909845400545029
 30
0.0
 40
0.0409937741994102
 50
342.69825742684009
 51
41.67278378767756
  0
ARC
  5
10DB
  8
FORM
 62
     7
 10
17.41806628342874
 20
2.9044827195306051
 30
0.0
 40
0.1900699214402894
 50
5.6380312699922799
 51
17.79145636873681
  0
ARC
  5
10DC
  8
FORM
 62
     7
 10
17.5045622300951
 20
2.0088127942983891
 30
0.0
 40
0.0608207837544583
 50
88.432533024773406
 51
186.62631613112151
  0
ARC
  5
10DD
  8
FORM
 62
     7
 10
17.514107893903311
 20
2.0214944811508531
 30
0.0
 40
0.0726809031862866
 50
195.7266305128272
 51
285.3806868435185
  0
ARC
  5
10DE
  8
FORM
 62
     7
 10
17.428397303924321
 20
2.6646932328165849
 30
0.0
 40
0.7209618028535085
 50
278.37329371359471
 51
293.15208507016871
  0
ARC
  5
10DF
  8
FORM
 62
     7
 10
17.670280088548282
 20
2.2109164793858191
 30
0.0
 40
0.1486954171998164
 50
257.51805604168283
 51
277.23103351305667
  0
ARC
  5
10E0
  8
FORM
 62
     7
 10
17.67861701724112
 20
2.0887614153130118
 30
0.0
 40
0.0273997705390677
 50
292.26031345923337
 51
12.867379300523719
  0
ARC
  5
10E1
  8
FORM
 62
     7
 10
17.658243987918521
 20
2.0848332422543971
 30
0.0
 40
0.0481411784627428
 50
12.02537552739555
 51
52.143631645159317
  0
ARC
  5
10E2
  8
FORM
 62
     7
 10
18.68473167686761
 20
3.3322419147777782
 30
0.0
 40
1.5673362882102819
 50
219.60277928185971
 51
230.5002020408055
  0
ARC
  5
10E3
  8
FORM
 62
     7
 10
17.71719517775902
 20
2.5209914067630801
 30
0.0
 40
0.3048383262947374
 50
175.97523115435061
 51
218.04500009534141
  0
ARC
  5
10E4
  8
FORM
 62
     7
 10
17.587988709286751
 20
2.5516026198667592
 30
0.0
 40
0.1751226981011722
 50
149.96078860476399
 51
183.01641230856191
  0
ARC
  5
10E5
  8
FORM
 62
     7
 10
17.465652099646999
 20
2.6236413715572442
 30
0.0
 40
0.03317488584424
 50
69.764209445538683
 51
151.8988190455112
  0
ARC
  5
10E6
  8
FORM
 62
     7
 10
17.461738153470581
 20
2.621386420418637
 30
0.0
 40
0.0367584023789668
 50
357.6694469744499
 51
65.251102439515435
  0
ARC
  5
10E7
  8
FORM
 62
     7
 10
17.375127171955
 20
2.6142785816255478
 30
0.0
 40
0.1234666367742727
 50
345.36193237678458
 51
2.6056939300727819
  0
ARC
  5
10E8
  8
FORM
 62
     7
 10
17.770788346688299
 20
2.4976765653254129
 30
0.0
 40
0.289103498612585
 50
162.8186183088072
 51
185.35496664157321
  0
ARC
  5
10E9
  8
FORM
 62
     7
 10
17.738557938675601
 20
2.526678108373186
 30
0.0
 40
0.261669979998945
 50
192.3534994193023
 51
222.3020476696033
  0
ARC
  5
10EA
  8
FORM
 62
     7
 10
18.640000382871079
 20
3.2533952889623161
 30
0.0
 40
1.419181254971364
 50
219.50633019139829
 51
228.42762303996261
  0
ARC
  5
10EB
  8
FORM
 62
     7
 10
17.545150090279261
 20
1.9830014576086259
 30
0.0
 40
0.2588352891177654
 50
32.971129457978869
 51
53.728419363024337
  0
ARC
  5
10EC
  8
FORM
 62
     7
 10
17.685505274612321
 20
2.0841393566689059
 30
0.0
 40
0.0864595649942742
 50
287.74749415951351
 51
27.35211189662947
  0
ARC
  5
10ED
  8
FORM
 62
     7
 10
17.556150910590731
 20
1.521887384058928
 30
0.0
 40
0.5499940598264056
 50
81.426570944510203
 51
95.208118001959775
  0
ARC
  5
10EE
  8
FORM
 62
     7
 10
17.31874226594763
 20
2.379232385518228
 30
0.0
 40
0.0244848954091209
 50
325.52447187114308
 51
75.340502228459783
  0
ARC
  5
10EF
  8
FORM
 62
     7
 10
17.28857503182331
 20
2.4013816515593862
 30
0.0
 40
0.0619027859518531
 50
277.78730616127859
 51
324.42957968808531
  0
ARC
  5
10F0
  8
FORM
 62
     7
 10
17.277627430402191
 20
2.4116764447725738
 30
0.0
 40
0.0741905263351136
 50
243.48581874200181
 51
285.1065744639306
  0
ARC
  5
10F1
  8
FORM
 62
     7
 10
13.99616984532571
 20
-5.9734717723731041
 30
0.0
 40
9.0135811594364625
 50
68.327181839257534
 51
70.606105230637283
  0
ARC
  5
10F2
  8
FORM
 62
     7
 10
16.982860283602829
 20
2.502260489661857
 30
0.0
 40
0.0271571196358057
 50
76.445232091872299
 51
134.36352227876461
  0
ARC
  5
10F3
  8
FORM
 62
     7
 10
17.103601465049451
 20
2.316491870596419
 30
0.0
 40
0.2482433149023289
 50
124.2547762008316
 51
135.012931962436
  0
ARC
  5
10F4
  8
FORM
 62
     7
 10
16.932687772438332
 20
2.4840903864877362
 30
0.0
 40
0.0091691237651447
 50
120.5491196217084
 51
251.48388650457539
  0
ARC
  5
10F5
  8
FORM
 62
     7
 10
15.698852283122079
 20
-0.947959245240991
 30
0.0
 40
3.6379298384249581
 50
64.85742894317822
 51
67.515132469299331
  0
ARC
  5
10F6
  8
FORM
 62
     7
 10
17.23599357112948
 20
2.291795105104121
 30
0.0
 40
0.0343472402230129
 50
329.18566117941782
 51
69.527151249863806
  0
ARC
  5
10F7
  8
FORM
 62
     7
 10
17.145886072427881
 20
2.1556962750494151
 30
0.0
 40
0.1968392862921899
 50
58.747973844557571
 51
81.106226592028065
  0
ARC
  5
10F8
  8
FORM
 62
     7
 10
17.124947044127829
 20
2.0252080021495891
 30
0.0
 40
0.3289962935825703
 50
81.016817915507374
 51
97.679603827268224
  0
ARC
  5
10F9
  8
FORM
 62
     7
 10
17.159573600239298
 20
2.1240726877937131
 30
0.0
 40
0.2440398498458748
 50
121.5050128230593
 51
139.0957881060705
  0
ARC
  5
10FA
  8
FORM
 62
     7
 10
17.225825242067831
 20
2.2865562155100809
 30
0.0
 40
0.0415466234232141
 50
277.70569210516868
 51
342.69880024124109
  0
ARC
  5
10FB
  8
FORM
 62
     7
 10
17.213074197788071
 20
2.3334352792513711
 30
0.0
 40
0.0899365447321688
 50
250.08394506358289
 51
281.75453717228322
  0
ARC
  5
10FC
  8
FORM
 62
     7
 10
17.2424582627973
 20
2.3437609022874879
 30
0.0
 40
0.1122732419236369
 50
221.18187885427241
 51
237.68378775985289
  0
ARC
  5
10FD
  8
FORM
 62
     7
 10
17.11078230927049
 20
2.213603979985677
 30
0.0
 40
0.0733994924367979
 50
50.003848755011681
 51
75.5416830098399
  0
ARC
  5
10FE
  8
FORM
 62
     7
 10
17.10690002874345
 20
2.2402084319691471
 30
0.0
 40
0.0497074536252231
 50
63.4626603498468
 51
100.74200229027051
  0
ARC
  5
10FF
  8
FORM
 62
     7
 10
17.09763521067913
 20
2.2049366923578511
 30
0.0
 40
0.0841081409133923
 50
89.999999999999588
 51
125.5974615489027
  0
ARC
  5
1100
  8
FORM
 62
     7
 10
18.09535908495533
 20
2.805145934228654
 30
0.0
 40
1.1637748462988311
 50
197.51922498184919
 51
203.981481444731
  0
ARC
  5
1101
  8
FORM
 62
     7
 10
16.736982371619181
 20
2.433687501517297
 30
0.0
 40
0.3537389089231183
 50
346.52409876011302
 51
356.71498770316703
  0
ARC
  5
1102
  8
FORM
 62
     7
 10
15.698852283122079
 20
-0.947959245240991
 30
0.0
 40
3.6379298384249581
 50
69.286600818944052
 51
70.22311760076802
  0
ARC
  5
1103
  8
FORM
 62
     7
 10
16.92789692922846
 20
2.1257895907104252
 30
0.0
 40
0.1066736432871782
 50
245.40259669902051
 51
275.40975098180542
  0
ARC
  5
1104
  8
FORM
 62
     7
 10
17.301941284744
 20
1.9333049606058379
 30
0.0
 40
0.4239787481416163
 50
126.68044463040199
 51
139.78708822539889
  0
ARC
  5
1105
  8
FORM
 62
     7
 10
16.925901396850119
 20
2.42585100124619
 30
0.0
 40
0.4064386631288638
 50
271.69929119420118
 51
283.39540842056908
  0
ARC
  5
1106
  8
FORM
 62
     7
 10
17.685900196427319
 20
1.487877603185271
 30
0.0
 40
1.0089968057446299
 50
134.5410403491789
 51
138.91474429089899
  0
ARC
  5
1107
  8
FORM
 62
     7
 10
16.942625607711989
 20
2.1366275124138698
 30
0.0
 40
0.0266928289273625
 50
201.8252958964795
 51
267.16449786715452
  0
ARC
  5
1108
  8
FORM
 62
     7
 10
16.936879259411789
 20
2.1340951027918962
 30
0.0
 40
0.0204180021895292
 50
124.254854327418
 51
201.22329273937871
  0
ARC
  5
1109
  8
FORM
 62
     7
 10
16.999050226745201
 20
2.1174828639755172
 30
0.0
 40
0.0895139066856433
 50
283.5751770312794
 51
324.58969283639942
  0
ARC
  5
110A
  8
FORM
 62
     7
 10
17.05010181640597
 20
2.0748500422369349
 30
0.0
 40
0.0237711578752802
 50
337.14160324238759
 51
47.56496670892831
  0
ARC
  5
110B
  8
FORM
 62
     7
 10
17.01351320176212
 20
2.0225775754130799
 30
0.0
 40
0.0874305156836371
 50
52.990730681111657
 51
91.748895977531376
  0
ARC
  5
110C
  8
FORM
 62
     7
 10
16.97607501860476
 20
2.3473211427073291
 30
0.0
 40
0.2398869733850244
 50
261.66603807207321
 51
278.33396192792679
  0
ARC
  5
110D
  8
FORM
 62
     7
 10
16.904055290181631
 20
2.0802584334887442
 30
0.0
 40
0.0554174778483587
 50
192.64550774538381
 51
248.2223967256862
  0
ARC
  5
110E
  8
FORM
 62
     7
 10
16.890435234000019
 20
2.0865365172575769
 30
0.0
 40
0.0444453205431241
 50
178.88427582775461
 51
204.46998391858139
  0
ARC
  5
110F
  8
FORM
 62
     7
 10
17.00038134049046
 20
2.0753041716250129
 30
0.0
 40
0.1548562786887746
 50
140.54690015149379
 51
175.5193383191162
  0
ARC
  5
1110
  8
FORM
 62
     7
 10
18.525663181526959
 20
0.8608942872864346
 30
0.0
 40
2.1045236570324608
 50
137.45643980933039
 51
141.40545593619069
  0
POLYLINE
  5
1111
  8
FORM
 62
     1
 10
17.275622491608207
 20
3.0402781737931805
 30
0.0
 66
     1
 70
     8
  0
VERTEX
  8
FORM
  5
12BF
 10
17.2756
 20
3.04028
 30
0.000000
  70
    32
  0
VERTEX
  8
FORM
  5
12C0
 10
17.2747
 20
3.04062
 30
0.000000
  70
    32
  0
VERTEX
  8
FORM
  5
12C1
 10
17.2737
 20
3.04086
 30
0.000000
  70
    32
  0
VERTEX
  8
FORM
  5
12C2
 10
17.2727
 20
3.04098
 30
0.000000
  70
    32
  0
VERTEX
  8
FORM
  5
12C3
 10
17.2716
 20
3.04100
 30
0.000000
  70
    32
  0
VERTEX
  8
FORM
  5
12C4
 10
17.2705
 20
3.04091
 30
0.000000
  70
    32
  0
VERTEX
  8
FORM
  5
12C5
 10
17.2694
 20
3.04070
 30
0.000000
  70
    32
  0
VERTEX
  8
FORM
  5
12C6
 10
17.2682
 20
3.04039
 30
0.000000
  70
    32
  0
VERTEX
  8
FORM
  5
12C7
 10
17.2670
 20
3.03997
 30
0.000000
  70
    32
  0
VERTEX
  8
FORM
  5
12C8
 10
17.2658
 20
3.03944
 30
0.000000
  70
    32
  0
VERTEX
  8
FORM
  5
12C9
 10
17.2646
 20
3.03880
 30
0.000000
  70
    32
  0
VERTEX
  8
FORM
  5
12CA
 10
17.2633
 20
3.03806
 30
0.000000
  70
    32
  0
VERTEX
  8
FORM
  5
12CB
 10
17.2620
 20
3.03722
 30
0.000000
  70
    32
  0
VERTEX
  8
FORM
  5
12CC
 10
17.2607
 20
3.03627
 30
0.000000
  70
    32
  0
VERTEX
  8
FORM
  5
12CD
 10
17.2594
 20
3.03523
 30
0.000000
  70
    32
  0
VERTEX
  8
FORM
  5
12CE
 10
17.2581
 20
3.03409
 30
0.000000
  70
    32
  0
VERTEX
  8
FORM
  5
12CF
 10
17.2568
 20
3.03286
 30
0.000000
  70
    32
  0
VERTEX
  8
FORM
  5
12D0
 10
17.2554
 20
3.03154
 30
0.000000
  70
    32
  0
VERTEX
  8
FORM
  5
12D1
 10
17.2541
 20
3.03013
 30
0.000000
  70
    32
  0
VERTEX
  8
FORM
  5
12D2
 10
17.2528
 20
3.02864
 30
0.000000
  70
    32
  0
VERTEX
  8
FORM
  5
12D3
 10
17.2515
 20
3.02706
 30
0.000000
  70
    32
  0
VERTEX
  8
FORM
  5
12D4
 10
17.2502
 20
3.02541
 30
0.000000
  70
    32
  0
VERTEX
  8
FORM
  5
12D5
 10
17.2489
 20
3.02369
 30
0.000000
  70
    32
  0
VERTEX
  8
FORM
  5
12D6
 10
17.2476
 20
3.02190
 30
0.000000
  70
    32
  0
VERTEX
  8
FORM
  5
12D7
 10
17.2464
 20
3.02004
 30
0.000000
  70
    32
  0
VERTEX
  8
FORM
  5
12D8
 10
17.2451
 20
3.01813
 30
0.000000
  70
    32
  0
VERTEX
  8
FORM
  5
12D9
 10
17.2439
 20
3.01616
 30
0.000000
  70
    32
  0
VERTEX
  8
FORM
  5
12DA
 10
17.2427
 20
3.01414
 30
0.000000
  70
    32
  0
VERTEX
  8
FORM
  5
12DB
 10
17.2416
 20
3.01208
 30
0.000000
  70
    32
  0
VERTEX
  8
FORM
  5
12DC
 10
17.2405
 20
3.00997
 30
0.000000
  70
    32
  0
VERTEX
  8
FORM
  5
12DD
 10
17.2394
 20
3.00783
 30
0.000000
  70
    32
  0
VERTEX
  8
FORM
  5
12DE
 10
17.2384
 20
3.00566
 30
0.000000
  70
    32
  0
VERTEX
  8
FORM
  5
12DF
 10
17.2374
 20
3.00347
 30
0.000000
  70
    32
  0
VERTEX
  8
FORM
  5
12E0
 10
17.2364
 20
3.00125
 30
0.000000
  70
    32
  0
VERTEX
  8
FORM
  5
12E1
 10
17.2356
 20
2.99902
 30
0.000000
  70
    32
  0
VERTEX
  8
FORM
  5
12E2
 10
17.2347
 20
2.99679
 30
0.000000
  70
    32
  0
VERTEX
  8
FORM
  5
12E3
 10
17.2339
 20
2.99454
 30
0.000000
  70
    32
  0
VERTEX
  8
FORM
  5
12E4
 10
17.2332
 20
2.99231
 30
0.000000
  70
    32
  0
VERTEX
  8
FORM
  5
12E5
 10
17.2325
 20
2.99007
 30
0.000000
  70
    32
  0
VERTEX
  8
FORM
  5
12E6
 10
17.2318
 20
2.98785
 30
0.000000
  70
    32
  0
VERTEX
  8
FORM
  5
12E7
 10
17.2313
 20
2.98565
 30
0.000000
  70
    32
  0
VERTEX
  8
FORM
  5
12E8
 10
17.2307
 20
2.98348
 30
0.000000
  70
    32
  0
VERTEX
  8
FORM
  5
12E9
 10
17.2303
 20
2.98133
 30
0.000000
  70
    32
  0
VERTEX
  8
FORM
  5
12EA
 10
17.2299
 20
2.97921
 30
0.000000
  70
    32
  0
VERTEX
  8
FORM
  5
12EB
 10
17.2296
 20
2.97713
 30
0.000000
  70
    32
  0
VERTEX
  8
FORM
  5
12EC
 10
17.2293
 20
2.97510
 30
0.000000
  70
    32
  0
VERTEX
  8
FORM
  5
12ED
 10
17.2291
 20
2.97312
 30
0.000000
  70
    32
  0
VERTEX
  8
FORM
  5
12EE
 10
17.2289
 20
2.97119
 30
0.000000
  70
    32
  0
VERTEX
  8
FORM
  5
12EF
 10
17.2289
 20
2.96931
 30
0.000000
  70
    32
  0
VERTEX
  8
FORM
  5
12F0
 10
17.2289
 20
2.96751
 30
0.000000
  70
    32
  0
VERTEX
  8
FORM
  5
12F1
 10
17.2289
 20
2.96576
 30
0.000000
  70
    32
  0
VERTEX
  8
FORM
  5
12F2
 10
17.2290
 20
2.96409
 30
0.000000
  70
    32
  0
VERTEX
  8
FORM
  5
12F3
 10
17.2292
 20
2.96250
 30
0.000000
  70
    32
  0
VERTEX
  8
FORM
  5
12F4
 10
17.2295
 20
2.96098
 30
0.000000
  70
    32
  0
VERTEX
  8
FORM
  5
12F5
 10
17.2298
 20
2.95955
 30
0.000000
  70
    32
  0
VERTEX
  8
FORM
  5
12F6
 10
17.2301
 20
2.95820
 30
0.000000
  70
    32
  0
VERTEX
  8
FORM
  5
12F7
 10
17.2306
 20
2.95694
 30
0.000000
  70
    32
  0
VERTEX
  8
FORM
  5
12F8
 10
17.2311
 20
2.95577
 30
0.000000
  70
    32
  0
VERTEX
  8
FORM
  5
12F9
 10
17.2316
 20
2.95470
 30
0.000000
  70
    32
  0
VERTEX
  8
FORM
  5
12FA
 10
17.2323
 20
2.95373
 30
0.000000
  70
    32
  0
VERTEX
  8
FORM
  5
12FB
 10
17.2329
 20
2.95286
 30
0.000000
  70
    32
  0
VERTEX
  8
FORM
  5
12FC
 10
17.2337
 20
2.95209
 30
0.000000
  70
    32
  0
VERTEX
  8
FORM
  5
12FD
 10
17.2344
 20
2.95142
 30
0.000000
  70
    32
  0
VERTEX
  8
FORM
  5
12FE
 10
17.2353
 20
2.95086
 30
0.000000
  70
    32
  0
VERTEX
  8
FORM
  5
12FF
 10
17.2362
 20
2.95041
 30
0.000000
  70
    32
  0
VERTEX
  8
FORM
  5
1300
 10
17.2371
 20
2.95007
 30
0.000000
  70
    32
  0
VERTEX
  8
FORM
  5
1301
 10
17.2381
 20
2.94983
 30
0.000000
  70
    32
  0
VERTEX
  8
FORM
  5
1302
 10
17.2391
 20
2.94971
 30
0.000000
  70
    32
  0
VERTEX
  8
FORM
  5
1303
 10
17.2401
 20
2.94969
 30
0.000000
  70
    32
  0
VERTEX
  8
FORM
  5
1304
 10
17.2412
 20
2.94978
 30
0.000000
  70
    32
  0
VERTEX
  8
FORM
  5
1305
 10
17.2424
 20
2.94999
 30
0.000000
  70
    32
  0
VERTEX
  8
FORM
  5
1306
 10
17.2435
 20
2.95030
 30
0.000000
  70
    32
  0
VERTEX
  8
FORM
  5
1307
 10
17.2447
 20
2.95072
 30
0.000000
  70
    32
  0
VERTEX
  8
FORM
  5
1308
 10
17.2460
 20
2.95125
 30
0.000000
  70
    32
  0
VERTEX
  8
FORM
  5
1309
 10
17.2472
 20
2.95189
 30
0.000000
  70
    32
  0
VERTEX
  8
FORM
  5
130A
 10
17.2485
 20
2.95263
 30
0.000000
  70
    32
  0
VERTEX
  8
FORM
  5
130B
 10
17.2498
 20
2.95347
 30
0.000000
  70
    32
  0
VERTEX
  8
FORM
  5
130C
 10
17.2511
 20
2.95442
 30
0.000000
  70
    32
  0
VERTEX
  8
FORM
  5
130D
 10
17.2524
 20
2.95546
 30
0.000000
  70
    32
  0
VERTEX
  8
FORM
  5
130E
 10
17.2537
 20
2.95660
 30
0.000000
  70
    32
  0
VERTEX
  8
FORM
  5
130F
 10
17.2550
 20
2.95783
 30
0.000000
  70
    32
  0
VERTEX
  8
FORM
  5
1310
 10
17.2563
 20
2.95915
 30
0.000000
  70
    32
  0
VERTEX
  8
FORM
  5
1311
 10
17.2577
 20
2.96056
 30
0.000000
  70
    32
  0
VERTEX
  8
FORM
  5
1312
 10
17.2590
 20
2.96205
 30
0.000000
  70
    32
  0
VERTEX
  8
FORM
  5
1313
 10
17.2603
 20
2.96363
 30
0.000000
  70
    32
  0
VERTEX
  8
FORM
  5
1314
 10
17.2616
 20
2.96528
 30
0.000000
  70
    32
  0
VERTEX
  8
FORM
  5
1315
 10
17.2629
 20
2.96700
 30
0.000000
  70
    32
  0
VERTEX
  8
FORM
  5
1316
 10
17.2642
 20
2.96879
 30
0.000000
  70
    32
  0
VERTEX
  8
FORM
  5
1317
 10
17.2654
 20
2.97065
 30
0.000000
  70
    32
  0
VERTEX
  8
FORM
  5
1318
 10
17.2667
 20
2.97256
 30
0.000000
  70
    32
  0
VERTEX
  8
FORM
  5
1319
 10
17.2679
 20
2.97453
 30
0.000000
  70
    32
  0
VERTEX
  8
FORM
  5
131A
 10
17.2690
 20
2.97655
 30
0.000000
  70
    32
  0
VERTEX
  8
FORM
  5
131B
 10
17.2702
 20
2.97861
 30
0.000000
  70
    32
  0
VERTEX
  8
FORM
  5
131C
 10
17.2713
 20
2.98072
 30
0.000000
  70
    32
  0
VERTEX
  8
FORM
  5
131D
 10
17.2724
 20
2.98286
 30
0.000000
  70
    32
  0
VERTEX
  8
FORM
  5
131E
 10
17.2734
 20
2.98503
 30
0.000000
  70
    32
  0
VERTEX
  8
FORM
  5
131F
 10
17.2744
 20
2.98722
 30
0.000000
  70
    32
  0
VERTEX
  8
FORM
  5
1320
 10
17.2753
 20
2.98944
 30
0.000000
  70
    32
  0
VERTEX
  8
FORM
  5
1321
 10
17.2762
 20
2.99167
 30
0.000000
  70
    32
  0
VERTEX
  8
FORM
  5
1322
 10
17.2771
 20
2.99390
 30
0.000000
  70
    32
  0
VERTEX
  8
FORM
  5
1323
 10
17.2779
 20
2.99615
 30
0.000000
  70
    32
  0
VERTEX
  8
FORM
  5
1324
 10
17.2786
 20
2.99838
 30
0.000000
  70
    32
  0
VERTEX
  8
FORM
  5
1325
 10
17.2793
 20
3.00062
 30
0.000000
  70
    32
  0
VERTEX
  8
FORM
  5
1326
 10
17.2800
 20
3.00284
 30
0.000000
  70
    32
  0
VERTEX
  8
FORM
  5
1327
 10
17.2805
 20
3.00504
 30
0.000000
  70
    32
  0
VERTEX
  8
FORM
  5
1328
 10
17.2810
 20
3.00721
 30
0.000000
  70
    32
  0
VERTEX
  8
FORM
  5
1329
 10
17.2815
 20
3.00936
 30
0.000000
  70
    32
  0
VERTEX
  8
FORM
  5
132A
 10
17.2819
 20
3.01148
 30
0.000000
  70
    32
  0
VERTEX
  8
FORM
  5
132B
 10
17.2822
 20
3.01356
 30
0.000000
  70
    32
  0
VERTEX
  8
FORM
  5
132C
 10
17.2825
 20
3.01559
 30
0.000000
  70
    32
  0
VERTEX
  8
FORM
  5
132D
 10
17.2827
 20
3.01757
 30
0.000000
  70
    32
  0
VERTEX
  8
FORM
  5
132E
 10
17.2828
 20
3.01950
 30
0.000000
  70
    32
  0
VERTEX
  8
FORM
  5
132F
 10
17.2829
 20
3.02137
 30
0.000000
  70
    32
  0
VERTEX
  8
FORM
  5
1330
 10
17.2829
 20
3.02318
 30
0.000000
  70
    32
  0
VERTEX
  8
FORM
  5
1331
 10
17.2829
 20
3.02493
 30
0.000000
  70
    32
  0
VERTEX
  8
FORM
  5
1332
 10
17.2828
 20
3.02660
 30
0.000000
  70
    32
  0
VERTEX
  8
FORM
  5
1333
 10
17.2826
 20
3.02819
 30
0.000000
  70
    32
  0
VERTEX
  8
FORM
  5
1334
 10
17.2823
 20
3.02971
 30
0.000000
  70
    32
  0
VERTEX
  8
FORM
  5
1335
 10
17.2820
 20
3.03114
 30
0.000000
  70
    32
  0
VERTEX
  8
FORM
  5
1336
 10
17.2816
 20
3.03249
 30
0.000000
  70
    32
  0
VERTEX
  8
FORM
  5
1337
 10
17.2812
 20
3.03375
 30
0.000000
  70
    32
  0
VERTEX
  8
FORM
  5
1338
 10
17.2807
 20
3.03492
 30
0.000000
  70
    32
  0
VERTEX
  8
FORM
  5
1339
 10
17.2801
 20
3.03599
 30
0.000000
  70
    32
  0
VERTEX
  8
FORM
  5
133A
 10
17.2795
 20
3.03696
 30
0.000000
  70
    32
  0
VERTEX
  8
FORM
  5
133B
 10
17.2789
 20
3.03783
 30
0.000000
  70
    32
  0
VERTEX
  8
FORM
  5
133C
 10
17.2781
 20
3.03860
 30
0.000000
  70
    32
  0
VERTEX
  8
FORM
  5
133D
 10
17.2773
 20
3.03927
 30
0.000000
  70
    32
  0
VERTEX
  8
FORM
  5
133E
 10
17.2765
 20
3.03983
 30
0.000000
  70
    32
  0
VERTEX
  8
FORM
  5
133F
 10
17.2756
 20
3.04028
 30
0.000000
  70
    32
  0
SEQEND
  8
FORM
  5
1340
  0
ARC
  5
1112
  8
FORM
 62
     7
 10
17.31969472840197
 20
2.8767429643067852
 30
0.0
 40
0.2199177503197187
 50
85.485448269952457
 51
155.5006785655419
  0
TEXT
  5
1113
  8
FORM
 62
     7
 10
16.545907219234731
 20
1.726726372181332
 30
0.0
 40
0.0861538460965367
  1
R2-D2 BUILDERS CLUB
  0
ARC
  5
1114
  8
FORM
 10
0.7499999996674376
 20
0.7499999996674092
 30
0.0
 40
0.1538461537438154
 50
180.0
 51
270.0
  0
ARC
  5
1115
  8
FORM
 10
0.7499999996674376
 20
0.7499999996674092
 30
0.0
 40
0.3076923074876307
 50
180.0
 51
270.0
  0
ARC
  5
1116
  8
FORM
 10
0.7499999996674376
 20
0.7499999996674092
 30
0.0
 40
0.3461538459235846
 50
180.0
 51
270.0
  0
ARC
  5
1117
  8
FORM
 10
0.7499999996674376
 20
0.7499999996674092
 30
0.0
 40
0.4999999996674
 50
180.0
 51
270.0
  0
ARC
  5
1118
  8
FORM
 10
0.7499999996674376
 20
15.153846144098431
 30
0.0
 40
0.4999999996674
 50
90.0
 51
180.0
  0
ARC
  5
1119
  8
FORM
 10
0.7499999996674376
 20
15.153846144098431
 30
0.0
 40
0.3461538459235846
 50
90.0
 51
180.0
  0
ARC
  5
111A
  8
FORM
 10
0.7499999996674376
 20
15.153846144098431
 30
0.0
 40
0.3076923074876307
 50
90.0
 51
180.0
  0
ARC
  5
111B
  8
FORM
 10
0.7499999996674376
 20
15.153846144098431
 30
0.0
 40
0.1538461537438154
 50
90.0
 51
180.0
  0
ARC
  5
111C
  8
FORM
 10
21.249999986363441
 20
15.153846144098431
 30
0.0
 40
0.3076923074876307
 50
0.0
 51
90.0
  0
ARC
  5
111D
  8
FORM
 10
21.249999986363441
 20
15.153846144098431
 30
0.0
 40
0.3461538459235846
 50
0.0
 51
90.0
  0
ARC
  5
111E
  8
FORM
 10
21.249999986363441
 20
15.153846144098431
 30
0.0
 40
0.4999999996674
 50
0.0
 51
90.0
  0
ARC
  5
111F
  8
FORM
 10
21.249999986363441
 20
15.153846144098431
 30
0.0
 40
0.1538461537438154
 50
0.0
 51
90.0
  0
ARC
  5
1120
  8
FORM
 10
21.249999986363441
 20
0.7499999996674092
 30
0.0
 40
0.4999999996674
 50
270.0
 51
0.0
  0
ARC
  5
1121
  8
FORM
 10
21.249999986363441
 20
0.7499999996674092
 30
0.0
 40
0.3461538459235846
 50
270.0
 51
0.0
  0
ARC
  5
1122
  8
FORM
 10
21.249999986363441
 20
0.7499999996674092
 30
0.0
 40
0.3076923074876307
 50
270.0
 51
0.0
  0
ARC
  5
1123
  8
FORM
 10
21.249999986363441
 20
0.7499999996674092
 30
0.0
 40
0.1538461537438154
 50
270.0
 51
0.0
  0
LINE
  5
1124
  8
FORM
 10
21.249999986363441
 20
0.4423076921797886
 30
0.0
 11
0.7499999996674376
 21
0.442307692179778
 31
0.0
  0
LINE
  5
1125
  8
FORM
 10
21.249999986363441
 20
0.4038461537438352
 30
0.0
 11
0.7499999996674376
 21
0.4038461537438245
 31
0.0
  0
LINE
  5
1126
  8
FORM
 10
21.249999986363441
 20
0.2500000000000071
 30
0.0
 11
0.7499999996674376
 21
0.25
 31
0.0
  0
LINE
  5
1127
  8
FORM
 10
21.55769229385108
 20
0.7499999996674092
 30
0.0
 11
21.55769229385108
 21
15.153846144098431
 31
0.0
  0
LINE
  5
1128
  8
FORM
 10
21.59615383228703
 20
0.7499999996674092
 30
0.0
 11
21.59615383228703
 21
15.153846144098431
 31
0.0
  0
LINE
  5
1129
  8
FORM
 10
21.74999998603084
 20
0.7499999996674092
 30
0.0
 11
21.74999998603084
 21
15.153846144098431
 31
0.0
  0
LINE
  5
112A
  8
FORM
 10
21.249999986363441
 20
15.46153845158606
 30
0.0
 11
0.7499999996674376
 21
15.46153845158606
 31
0.0
  0
LINE
  5
112B
  8
FORM
 10
21.249999986363441
 20
15.499999990022021
 30
0.0
 11
0.7499999996674376
 21
15.499999990022021
 31
0.0
  0
LINE
  5
112C
  8
FORM
 10
21.249999986363441
 20
15.653846143765829
 30
0.0
 11
0.7499999996674376
 21
15.653846143765829
 31
0.0
  0
LINE
  5
112D
  8
FORM
 10
0.4423076921798029
 20
0.7499999996674092
 30
0.0
 11
0.4423076921798029
 21
15.153846144098431
 31
0.0
  0
LINE
  5
112E
  8
FORM
 10
0.4038461537438565
 20
0.7499999996674092
 30
0.0
 11
0.4038461537438565
 21
15.153846144098431
 31
0.0
  0
LINE
  5
112F
  8
FORM
 10
0.25
 20
0.7499999996674092
 30
0.0
 11
0.2500000000000426
 21
15.153846144098431
 31
0.0
  0
LINE
  5
1130
  8
FORM
  6
CONTINUOUS
 10
16.703251912464879
 20
0.7499999996674092
 30
0.0
 11
21.02491344805162
 21
0.7499999996674092
 31
0.0
  0
LINE
  5
1131
  8
FORM
  6
CONTINUOUS
 10
21.249999986363441
 20
3.1359173057725931
 30
0.0
 11
21.249999986363441
 21
0.9750865379792159
 31
0.0
  0
ARC
  5
1132
  8
FORM
  6
CONTINUOUS
 10
21.02491344805162
 20
0.9750865379792159
 30
0.0
 40
0.2250865383118096
 50
270.0
 51
0.0
  0
ARC
  5
1133
  8
FORM
  6
CONTINUOUS
 10
21.02491344805162
 20
3.1359173057725931
 30
0.0
 40
0.2250865383118096
 50
359.99999999999989
 51
90.0
  0
ARC
  5
1134
  8
FORM
  6
CONTINUOUS
 10
16.703251912464879
 20
0.9750865379792159
 30
0.0
 40
0.2250865383118096
 50
180.0
 51
270.0
  0
ARC
  5
1135
  8
FORM
  6
CONTINUOUS
 10
16.703251912464879
 20
3.1359173057725931
 30
0.0
 40
0.2250865383118096
 50
90.0
 51
180.0
  0
LINE
  5
127A
  8
0
 10
0.7499999996674376
 20
0.7499999996674092
 30
0.0
 11
0.7499999996674376
 21
1.7499999996674089
 31
0.0
  0
LINE
  5
127B
  8
0
 10
0.7499999996674376
 20
0.8749999996674091
 30
0.0
 11
0.8749999996674375
 21
0.8749999996674091
 31
0.0
  0
LINE
  5
127C
  8
0
 10
0.7499999996674376
 20
0.9999999996674091
 30
0.0
 11
0.9999999996674375
 21
0.9999999996674091
 31
0.0
  0
LINE
  5
127D
  8
0
 10
0.7499999996674376
 20
1.1249999996674089
 30
0.0
 11
0.8749999996674375
 21
1.1249999996674089
 31
0.0
  0
LINE
  5
127E
  8
0
 10
0.7499999996674376
 20
1.2499999996674089
 30
0.0
 11
1.1249999996674369
 21
1.2499999996674089
 31
0.0
  0
LINE
  5
127F
  8
0
 10
0.7499999996674376
 20
1.3749999996674089
 30
0.0
 11
0.8749999996674375
 21
1.3749999996674089
 31
0.0
  0
LINE
  5
1280
  8
0
 10
0.7499999996674376
 20
1.4999999996674089
 30
0.0
 11
0.9999999996674375
 21
1.4999999996674089
 31
0.0
  0
LINE
  5
1281
  8
0
 10
0.7499999996674376
 20
1.6249999996674089
 30
0.0
 11
0.8749999996674375
 21
1.6249999996674089
 31
0.0
  0
LINE
  5
1282
  8
0
 10
0.7499999996674376
 20
1.7499999996674089
 30
0.0
 11
1.1249999996674369
 21
1.7499999996674089
 31
0.0
  0
LINE
  5
1283
  8
0
 10
0.7499999996674376
 20
0.7499999996674092
 30
0.0
 11
1.1249999996674369
 21
0.7499999996674092
 31
0.0
  0
TEXT
  5
1284
  8
0
 10
1.1742687732938739
 20
1.216959438666926
 30
0.0
 40
0.0625
  1
1/2"
  0
TEXT
  5
1285
  8
0
 10
0.9242687732938748
 20
1.091959438666926
 30
0.0
 40
0.0625
  1
3/8"
  0
TEXT
  5
1286
  8
0
 10
1.0492687732938739
 20
0.966959438666926
 30
0.0
 40
0.0625
  1
1/4"
  0
TEXT
  5
1287
  8
0
 10
0.9242687732938748
 20
0.841959438666926
 30
0.0
 40
0.0625
  1
1/8"
  0
TEXT
  5
1288
  8
0
 10
0.9242687732938748
 20
1.341959438666926
 30
0.0
 40
0.0625
  1
5/8"
  0
TEXT
  5
1289
  8
0
 10
1.0492687732938739
 20
1.466959438666926
 30
0.0
 40
0.0625
  1
3/4"
  0
TEXT
  5
128A
  8
0
 10
0.9242687732938748
 20
1.591959438666926
 30
0.0
 40
0.0625
  1
7/8"
  0
TEXT
  5
128B
  8
0
 10
1.1742687732938739
 20
1.716959438666926
 30
0.0
 40
0.0625
  1
1"
  0
ENDSEC
  0
EOF
