  0
SECTION
  2
HEADER
  9
$ACADVER
  1
AC1009
  9
$INSBASE
 10
0.0
 20
0.0
 30
0.0
  9
$EXTMIN
 10
-0.0007745452176593
 20
-0.0007804152119348
 30
-0.0000000349181948
  9
$EXTMAX
 10
22.000236576923601
 20
17.00054596254477
 30
0.0000000814935746
  9
$LIMMIN
 10
0.0
 20
0.0
  9
$LIMMAX
 10
12.0
 20
9.0
  9
$ORTHOMODE
 70
     1
  9
$REGENMODE
 70
     1
  9
$FILLMODE
 70
     1
  9
$QTEXTMODE
 70
     0
  9
$MIRRTEXT
 70
     1
  9
$DRAGMODE
 70
     2
  9
$LTSCALE
 40
1.0
  9
$OSMODE
 70
    39
  9
$ATTMODE
 70
     1
  9
$TEXTSIZE
 40
0.375
  9
$TRACEWID
 40
0.05
  9
$TEXTSTYLE
  7
STANDARD
  9
$CLAYER
  8
0
  9
$CELTYPE
  6
BYLAYER
  9
$CECOLOR
 62
   256
  9
$DIMSCALE
 40
1.0
  9
$DIMASZ
 40
0.25
  9
$DIMEXO
 40
0.0625
  9
$DIMDLI
 40
1.0
  9
$DIMRND
 40
0.0
  9
$DIMDLE
 40
0.0
  9
$DIMEXE
 40
0.0625
  9
$DIMTP
 40
0.0
  9
$DIMTM
 40
0.0
  9
$DIMTXT
 40
0.25
  9
$DIMCEN
 40
0.0
  9
$DIMTSZ
 40
0.0
  9
$DIMTOL
 70
     0
  9
$DIMLIM
 70
     0
  9
$DIMTIH
 70
     1
  9
$DIMTOH
 70
     1
  9
$DIMSE1
 70
     0
  9
$DIMSE2
 70
     0
  9
$DIMTAD
 70
     0
  9
$DIMZIN
 70
     0
  9
$DIMBLK
  1

  9
$DIMASO
 70
     1
  9
$DIMSHO
 70
     1
  9
$DIMPOST
  1

  9
$DIMAPOST
  1

  9
$DIMALT
 70
     0
  9
$DIMALTD
 70
     2
  9
$DIMALTF
 40
25.399999999999999
  9
$DIMLFAC
 40
1.0
  9
$DIMTOFL
 70
     0
  9
$DIMTVP
 40
0.0
  9
$DIMTIX
 70
     0
  9
$DIMSOXD
 70
     0
  9
$DIMSAH
 70
     0
  9
$DIMBLK1
  1

  9
$DIMBLK2
  1

  9
$DIMSTYLE
  2
STANDARD
  9
$DIMCLRD
 70
   256
  9
$DIMCLRE
 70
   256
  9
$DIMCLRT
 70
   256
  9
$DIMTFAC
 40
1.0
  9
$DIMGAP
 40
0.0625
  9
$LUNITS
 70
     2
  9
$LUPREC
 70
     8
  9
$SKETCHINC
 40
0.1
  9
$FILLETRAD
 40
0.0
  9
$AUNITS
 70
     0
  9
$AUPREC
 70
     8
  9
$MENU
  1
.
  9
$ELEVATION
 40
0.0
  9
$PELEVATION
 40
0.0
  9
$THICKNESS
 40
0.0
  9
$LIMCHECK
 70
     0
  9
$BLIPMODE
 70
     0
  9
$CHAMFERA
 40
0.0
  9
$CHAMFERB
 40
0.0
  9
$SKPOLY
 70
     0
  9
$TDCREATE
 40
2452227.939733333
  9
$TDUPDATE
 40
2453473.6146753361
  9
$TDINDWG
 40
2.2143001505000002
  9
$TDUSRTIMER
 40
2.2142995717999998
  9
$USRTIMER
 70
     1
  9
$ANGBASE
 50
0.0
  9
$ANGDIR
 70
     0
  9
$PDMODE
 70
     0
  9
$PDSIZE
 40
0.0
  9
$PLINEWID
 40
0.0
  9
$COORDS
 70
     0
  9
$SPLFRAME
 70
     0
  9
$SPLINETYPE
 70
     6
  9
$SPLINESEGS
 70
     8
  9
$ATTDIA
 70
     0
  9
$ATTREQ
 70
     1
  9
$HANDLING
 70
     1
  9
$HANDSEED
  5
1900
  9
$SURFTAB1
 70
     6
  9
$SURFTAB2
 70
     6
  9
$SURFTYPE
 70
     6
  9
$SURFU
 70
     6
  9
$SURFV
 70
     6
  9
$UCSNAME
  2

  9
$UCSORG
 10
0.0
 20
0.0
 30
0.0
  9
$UCSXDIR
 10
1.0
 20
0.0
 30
0.0
  9
$UCSYDIR
 10
0.0
 20
1.0
 30
0.0
  9
$PUCSNAME
  2

  9
$PUCSORG
 10
0.0
 20
0.0
 30
0.0
  9
$PUCSXDIR
 10
1.0
 20
0.0
 30
0.0
  9
$PUCSYDIR
 10
0.0
 20
1.0
 30
0.0
  9
$USERI1
 70
     0
  9
$USERI2
 70
     0
  9
$USERI3
 70
     0
  9
$USERI4
 70
     0
  9
$USERI5
 70
     0
  9
$USERR1
 40
0.0
  9
$USERR2
 40
0.0
  9
$USERR3
 40
0.0
  9
$USERR4
 40
0.0
  9
$USERR5
 40
0.0
  9
$WORLDVIEW
 70
     1
  9
$SHADEDGE
 70
     3
  9
$SHADEDIF
 70
    70
  9
$TILEMODE
 70
     1
  9
$MAXACTVP
 70
    64
  9
$PLIMCHECK
 70
     0
  9
$PEXTMIN
 10
1.0000000000000000E+020
 20
1.0000000000000000E+020
 30
1.0000000000000000E+020
  9
$PEXTMAX
 10
-1.0000000000000000E+020
 20
-1.0000000000000000E+020
 30
-1.0000000000000000E+020
  9
$PLIMMIN
 10
0.0
 20
0.0
  9
$PLIMMAX
 10
12.0
 20
9.0
  9
$UNITMODE
 70
     0
  9
$VISRETAIN
 70
     1
  9
$PLINEGEN
 70
     0
  9
$PSLTSCALE
 70
     1
  0
ENDSEC
  0
SECTION
  2
TABLES
  0
TABLE
  2
VPORT
 70
     3
  0
VPORT
  2
*ACTIVE
 70
     0
 10
0.0
 20
0.0
 11
1.0
 21
1.0
 12
10.999731015852969
 22
8.4998827736664193
 13
0.0
 23
0.0
 14
0.5
 24
0.5
 15
0.5
 25
0.5
 16
0.0
 26
0.0
 36
1.0
 17
0.0
 27
0.0
 37
0.0
 40
17.218364586834451
 41
2.1727078891257992
 42
50.0
 43
0.0
 44
0.0
 50
0.0
 51
0.0
 71
     0
 72
 20000
 73
     1
 74
     2
 75
     0
 76
     0
 77
     0
 78
     1
  0
ENDTAB
  0
TABLE
  2
LTYPE
 70
     3
  0
LTYPE
  2
CONTINUOUS
 70
     0
  3
Solid line
 72
    65
 73
     0
 40
0.0
  0
LTYPE
  2
HIDDEN
 70
     0
  3
Hidden __ __ __ __ __ __ __ __ __ __ __ __ __ _
 72
    65
 73
     2
 40
0.375
 49
0.25
 49
-0.125
  0
LTYPE
  2
PHANTOM2
 70
     0
  3
Phantom (.5x) ___ _ _ ___ _ _ ___ _ _ ___ _ _
 72
    65
 73
     6
 40
1.25
 49
0.625
 49
-0.125
 49
0.125
 49
-0.125
 49
0.125
 49
-0.125
  0
ENDTAB
  0
TABLE
  2
LAYER
 70
     5
  0
LAYER
  2
0
 70
     0
 62
     7
  6
CONTINUOUS
  0
LAYER
  2
FORM
 70
     0
 62
     5
  6
CONTINUOUS
  0
LAYER
  2
DIMENSIONS
 70
     0
 62
     1
  6
CONTINUOUS
  0
LAYER
  2
BODY_-_COIN_RETURN_PANEL_-
 70
     0
 62
     7
  6
CONTINUOUS
  0
LAYER
  2
DEFPOINTS
 70
     0
 62
     7
  6
CONTINUOUS
  0
ENDTAB
  0
TABLE
  2
STYLE
 70
     1
  0
STYLE
  2
STANDARD
 70
     0
 40
0.0
 41
1.0
 50
0.0
 71
     0
 42
0.375
  3
simplex.shx
  4

  0
ENDTAB
  0
TABLE
  2
VIEW
 70
     0
  0
ENDTAB
  0
TABLE
  2
UCS
 70
     0
  0
ENDTAB
  0
TABLE
  2
APPID
 70
     4
  0
APPID
  2
ACAD
 70
     0
  0
APPID
  2
DCO15
 70
     0
  0
APPID
  2
ACAECLAYERSTANDARD
 70
     0
  0
APPID
  2
ACAD_DSTYLE_DIMTEXT_FILL
 70
     0
  0
ENDTAB
  0
TABLE
  2
DIMSTYLE
 70
     1
  0
DIMSTYLE
  2
STANDARD
 70
     0
  3

  4

  5

  6

  7

 40
1.0
 41
0.25
 42
0.0625
 43
1.0
 44
0.0625
 45
0.0
 46
0.0
 47
0.0
 48
0.0
140
0.25
141
0.0
142
0.0
143
25.399999999999999
144
1.0
145
0.0
146
1.0
147
0.0625
 71
     0
 72
     0
 73
     1
 74
     1
 75
     0
 76
     0
 77
     0
 78
     0
170
     0
171
     2
172
     0
173
     0
174
     0
175
     0
176
   256
177
   256
178
   256
  0
ENDTAB
  0
ENDSEC
  0
SECTION
  2
BLOCKS
  0
BLOCK
  8
0
  2
$MODEL_SPACE
 70
     0
 10
0.0
 20
0.0
 30
0.0
  3
$MODEL_SPACE
  1

  0
ENDBLK
  5
9
  8
0
  0
BLOCK
 67
     1
  8
0
  2
$PAPER_SPACE
 70
     0
 10
0.0
 20
0.0
 30
0.0
  3
$PAPER_SPACE
  1

  0
ENDBLK
  5
E
 67
     1
  8
0
  0
BLOCK
  8
0
  2
*U5
 70
     1
 10
0.0
 20
0.0
 30
0.0
  3
*U5
  1

  0
TEXT
  5
186B
  8
DIMENSIONS
 10
13.16458500718274
 20
10.53722012632092
 30
0.0
 40
0.25
  1
20.348°
  0
ENDBLK
  5
186D
  8
0
  0
BLOCK
  8
0
  2
*U6
 70
     1
 10
0.0
 20
0.0
 30
0.0
  3
*U6
  1

  0
TEXT
  5
186F
  8
DIMENSIONS
 10
12.477353001682969
 20
10.529603916492711
 30
0.0
 40
0.25
  1
12.216°
  0
ENDBLK
  5
1871
  8
0
  0
BLOCK
  8
0
  2
*U7
 70
     1
 10
0.0
 20
0.0
 30
0.0
  3
*U7
  1

  0
TEXT
  5
1873
  8
DIMENSIONS
 10
14.43781284613838
 20
10.08365674264688
 30
0.0
 40
0.25
  1
8.132°
  0
ENDBLK
  5
1875
  8
0
  0
BLOCK
  8
0
  2
*U8
 70
     1
 10
0.0
 20
0.0
 30
0.0
  3
*U8
  1

  0
TEXT
  5
1877
  8
DIMENSIONS
 10
13.53138570587277
 20
10.43108619226717
 30
0.0
 40
0.25
  1
20.348°
  0
ENDBLK
  5
1879
  8
0
  0
BLOCK
  8
0
  2
*U9
 70
     1
 10
0.0
 20
0.0
 30
0.0
  3
*U9
  1

  0
TEXT
  5
187B
  8
DIMENSIONS
 10
13.26336436933585
 20
11.155528422458501
 30
0.0
 40
0.25
  1
9.469°
  0
ENDBLK
  5
187D
  8
0
  0
ENDSEC
  0
SECTION
  2
ENTITIES
  0
TEXT
  5
E0D
  8
FORM
 10
18.52814749859639
 20
2.813641760947581
 30
0.0
 40
0.211669921875
  1
COIN RETURN
 72
     1
 11
19.571377827837459
 21
2.813641760947581
 31
0.0
  0
TEXT
  5
E0E
  8
FORM
 10
19.168197024266039
 20
2.0623033229814749
 30
0.0
 40
0.211669921875
  1
BODY
 72
     1
 11
19.571377827837459
 21
2.0623033229814749
 31
0.0
  0
TEXT
  5
EA4
  8
FORM
 10
18.714618620248181
 20
2.4208826429270238
 30
0.0
 40
0.211669921875
  1
REAR LEFT
 72
     1
 11
19.571377827837459
 21
2.4208826429270238
 31
0.0
  0
TEXT
  5
FA3
  8
DIMENSIONS
 10
11.333025243261771
 20
6.348562924575293
 30
0.0
 40
0.25
  1
2.100
  0
TEXT
  5
FA4
  8
DIMENSIONS
 10
10.55921571945224
 20
6.8976325552802003
 30
0.0
 40
0.25
  1
2.750
  0
TEXT
  5
FA7
  8
DIMENSIONS
 10
15.299071408087279
 20
13.32115851082021
 30
0.0
 40
0.25
  1
R9.087 OUTSIDE
  0
TEXT
  5
FA8
  8
DIMENSIONS
 10
13.860661108585351
 20
8.5811927784024782
 30
0.0
 40
0.375
  1
A
  0
TEXT
  5
FA9
  8
DIMENSIONS
 10
13.860661108585351
 20
4.818367074305077
 30
0.0
 40
0.375
  1
A
  0
LINE
  5
FAB
  8
BODY_-_COIN_RETURN_PANEL_-
 10
5.4016122180670294
 20
8.1962104497039121
 30
0.0
 11
5.3616122180670232
 21
8.1962104497039121
 31
0.0
  0
LINE
  5
FAC
  8
BODY_-_COIN_RETURN_PANEL_-
 10
5.4016122180670294
 20
5.4462104497039121
 30
0.0
 11
5.3616122180670232
 21
5.4462104497039121
 31
0.0
  0
LINE
  5
FAD
  8
BODY_-_COIN_RETURN_PANEL_-
 10
5.4016122180670294
 20
7.6962104497039121
 30
0.0
 11
5.1516122180670294
 21
7.6962104497039121
 31
0.0
  0
LINE
  5
FAE
  8
BODY_-_COIN_RETURN_PANEL_-
 10
5.4016122180670294
 20
5.5962104497039142
 30
0.0
 11
5.1516122180670294
 21
5.5962104497039116
 31
0.0
  0
LINE
  5
FAF
  8
BODY_-_COIN_RETURN_PANEL_-
 10
5.4016122180670294
 20
8.1962104497039121
 30
0.0
 11
5.4016122180670294
 21
5.4462104497039121
 31
0.0
  0
LINE
  5
FB0
  8
BODY_-_COIN_RETURN_PANEL_-
 10
5.1516122180670294
 20
7.6962104497039121
 30
0.0
 11
4.4416122180670206
 21
7.5712104497039077
 31
0.0
  0
LINE
  5
FB1
  8
BODY_-_COIN_RETURN_PANEL_-
 10
4.4416122180670206
 20
7.5712104497039077
 30
0.0
 11
5.1516122180670294
 21
5.5962104497039116
 31
0.0
  0
LINE
  5
FB2
  8
BODY_-_COIN_RETURN_PANEL_-
 10
5.3616122180670232
 20
8.1962104497039121
 30
0.0
 11
5.3616122180670232
 21
7.7362104497039113
 31
0.0
  0
LINE
  5
FB3
  8
BODY_-_COIN_RETURN_PANEL_-
 10
5.3616122180670232
 20
7.7362104497039113
 30
0.0
 11
5.1481179615282002
 21
7.7362104497039113
 31
0.0
  0
LINE
  5
FB4
  8
BODY_-_COIN_RETURN_PANEL_-
 10
5.1481179615282002
 20
7.7362104497039113
 30
0.0
 11
4.387904347143162
 21
7.6023700246361194
 31
0.0
  0
LINE
  5
FB5
  8
BODY_-_COIN_RETURN_PANEL_-
 10
4.387904347143162
 20
7.6023700246361194
 30
0.0
 11
5.1234857639542346
 21
5.5562104497039133
 31
0.0
  0
LINE
  5
FB6
  8
BODY_-_COIN_RETURN_PANEL_-
 10
5.3616122180670232
 20
5.5562104497039133
 30
0.0
 11
5.1234857639542346
 21
5.5562104497039133
 31
0.0
  0
LINE
  5
FB7
  8
BODY_-_COIN_RETURN_PANEL_-
 10
5.3616122180670232
 20
5.5562104497039133
 30
0.0
 11
5.3616122180670232
 21
5.4462104497039121
 31
0.0
  0
LINE
  5
FB8
  8
DIMENSIONS
 10
4.4416122180670206
 20
7.6337104497039077
 30
0.0
 11
4.4416122180670206
 21
10.50871044970391
 31
0.0
  0
LINE
  5
FB9
  8
DIMENSIONS
 10
5.4016122180670294
 20
8.2587104497039121
 30
0.0
 11
5.4016122180670294
 21
10.50871044970391
 31
0.0
  0
LINE
  5
FBA
  8
DIMENSIONS
 10
4.1916122180670206
 20
10.44621044970391
 30
0.0
 11
3.941612218067021
 21
10.44621044970391
 31
0.0
  0
LINE
  5
FBB
  8
DIMENSIONS
 10
5.6516122180670294
 20
10.44621044970391
 30
0.0
 11
5.9016122180670294
 21
10.44621044970391
 31
0.0
  0
SOLID
  5
FBC
  8
DIMENSIONS
 10
4.1916122180670206
 20
10.48787711637058
 30
0.0
 11
4.1916122180670206
 21
10.404543783037241
 31
0.0
 12
4.4416122180670206
 22
10.44621044970391
 32
0.0
 13
4.4416122180670206
 23
10.44621044970391
 33
0.0
  0
SOLID
  5
FBD
  8
DIMENSIONS
 10
5.6516122180670294
 20
10.48787711637058
 30
0.0
 11
5.6516122180670294
 21
10.404543783037241
 31
0.0
 12
5.4016122180670294
 22
10.44621044970391
 32
0.0
 13
5.4016122180670294
 23
10.44621044970391
 33
0.0
  0
LINE
  5
FBE
  8
DIMENSIONS
 10
5.1516122180670294
 20
7.7587104497039121
 30
0.0
 11
5.1516122180670294
 21
9.7587104497039121
 31
0.0
  0
LINE
  5
FBF
  8
DIMENSIONS
 10
5.4016122180670294
 20
8.2587104497039121
 30
0.0
 11
5.4016122180670294
 21
9.7587104497039121
 31
0.0
  0
LINE
  5
FC0
  8
DIMENSIONS
 10
4.9016122180670294
 20
9.6962104497039121
 30
0.0
 11
4.6516122180670294
 21
9.6962104497039121
 31
0.0
  0
LINE
  5
FC1
  8
DIMENSIONS
 10
5.6516122180670294
 20
9.6962104497039121
 30
0.0
 11
5.9016122180670294
 21
9.6962104497039121
 31
0.0
  0
SOLID
  5
FC2
  8
DIMENSIONS
 10
4.9016122180670294
 20
9.7378771163705782
 30
0.0
 11
4.9016122180670294
 21
9.6545437830372443
 31
0.0
 12
5.1516122180670294
 22
9.6962104497039121
 32
0.0
 13
5.1516122180670294
 23
9.6962104497039121
 33
0.0
  0
SOLID
  5
FC3
  8
DIMENSIONS
 10
5.6516122180670294
 20
9.7378771163705782
 30
0.0
 11
5.6516122180670294
 21
9.6545437830372443
 31
0.0
 12
5.4016122180670294
 22
9.6962104497039121
 32
0.0
 13
5.4016122180670294
 23
9.6962104497039121
 33
0.0
  0
LINE
  5
FC4
  8
DIMENSIONS
 10
5.3616122180670232
 20
8.2587104497039121
 30
0.0
 11
5.3616122180670232
 21
9.0087104497039121
 31
0.0
  0
LINE
  5
FC5
  8
DIMENSIONS
 10
5.4016122180670294
 20
8.2587104497039121
 30
0.0
 11
5.4016122180670294
 21
9.0087104497039121
 31
0.0
  0
LINE
  5
FC6
  8
DIMENSIONS
 10
5.1116122180670232
 20
8.9462104497039121
 30
0.0
 11
4.8616122180670232
 21
8.9462104497039121
 31
0.0
  0
LINE
  5
FC7
  8
DIMENSIONS
 10
5.6516122180670294
 20
8.9462104497039121
 30
0.0
 11
5.9016122180670294
 21
8.9462104497039121
 31
0.0
  0
SOLID
  5
FC8
  8
DIMENSIONS
 10
5.1116122180670232
 20
8.9878771163705782
 30
0.0
 11
5.1116122180670232
 21
8.9045437830372443
 31
0.0
 12
5.3616122180670232
 22
8.9462104497039121
 32
0.0
 13
5.3616122180670232
 23
8.9462104497039121
 33
0.0
  0
SOLID
  5
FC9
  8
DIMENSIONS
 10
5.6516122180670294
 20
8.9878771163705782
 30
0.0
 11
5.6516122180670294
 21
8.9045437830372443
 31
0.0
 12
5.4016122180670294
 22
8.9462104497039121
 32
0.0
 13
5.4016122180670294
 23
8.9462104497039121
 33
0.0
  0
TEXT
  5
FCA
  8
DIMENSIONS
 10
5.9641122180670294
 20
8.8212104497039121
 30
0.0
 40
0.25
  1
0.040 THICK
  0
TEXT
  5
FCB
  8
DIMENSIONS
 10
5.9641122180670294
 20
9.5712104497039121
 30
0.0
 40
0.25
  1
0.250 INSIDE
  0
TEXT
  5
FCC
  8
DIMENSIONS
 10
5.9641122180670294
 20
10.32121044970391
 30
0.0
 40
0.25
  1
0.960 INSIDE
  0
LINE
  5
FCD
  8
DIMENSIONS
 10
4.5041122180670206
 20
7.5712104497039077
 30
0.0
 11
6.2141122180670294
 21
7.5712104497039077
 31
0.0
  0
LINE
  5
FCE
  8
DIMENSIONS
 10
5.4641122180670294
 20
7.6962104497039121
 30
0.0
 11
6.2141122180670294
 21
7.6962104497039121
 31
0.0
  0
LINE
  5
FCF
  8
DIMENSIONS
 10
6.1516122180670294
 20
7.3212104497039077
 30
0.0
 11
6.1516122180670294
 21
7.0712104497039077
 31
0.0
  0
LINE
  5
FD0
  8
DIMENSIONS
 10
6.1516122180670294
 20
7.9462104497039121
 30
0.0
 11
6.1516122180670294
 21
8.2729993724125208
 31
0.0
  0
SOLID
  5
FD1
  8
DIMENSIONS
 10
6.1099455514003571
 20
7.3212104497039077
 30
0.0
 11
6.1932788847336857
 21
7.3212104497039077
 31
0.0
 12
6.1516122180670294
 22
7.5712104497039077
 32
0.0
 13
6.1516122180670294
 23
7.5712104497039077
 33
0.0
  0
SOLID
  5
FD2
  8
DIMENSIONS
 10
6.1099455514003571
 20
7.9462104497039121
 30
0.0
 11
6.1932788847336857
 21
7.9462104497039121
 31
0.0
 12
6.1516122180670294
 22
7.6962104497039121
 32
0.0
 13
6.1516122180670294
 23
7.6962104497039121
 33
0.0
  0
LINE
  5
FD3
  8
DIMENSIONS
 10
5.4641122180670294
 20
7.6962104497039121
 30
0.0
 11
6.9641122180670294
 21
7.6962104497039121
 31
0.0
  0
LINE
  5
FD4
  8
DIMENSIONS
 10
5.4641122180670294
 20
5.5962104497039142
 30
0.0
 11
6.9641122180670294
 21
5.5962104497039116
 31
0.0
  0
LINE
  5
FD5
  8
DIMENSIONS
 10
6.9016122180670294
 20
7.4462104497039121
 30
0.0
 11
6.9016122180670294
 21
6.5433499406141911
 31
0.0
  0
LINE
  5
FD6
  8
DIMENSIONS
 10
6.9016122180670294
 20
5.8462104497039116
 30
0.0
 11
6.9016122180670294
 21
6.1683499406141911
 31
0.0
  0
SOLID
  5
FD7
  8
DIMENSIONS
 10
6.8599455514003571
 20
7.4462104497039121
 30
0.0
 11
6.9432788847336857
 21
7.4462104497039121
 31
0.0
 12
6.9016122180670294
 22
7.6962104497039121
 32
0.0
 13
6.9016122180670294
 23
7.6962104497039121
 33
0.0
  0
SOLID
  5
FD8
  8
DIMENSIONS
 10
6.8599455514003571
 20
5.8462104497039116
 30
0.0
 11
6.9432788847336857
 21
5.8462104497039116
 31
0.0
 12
6.9016122180670294
 22
5.5962104497039116
 32
0.0
 13
6.9016122180670294
 23
5.5962104497039116
 33
0.0
  0
TEXT
  5
FD9
  8
DIMENSIONS
 10
6.4254217418765469
 20
6.2308499406141928
 30
0.0
 40
0.25
  1
2.100
  0
TEXT
  5
FDA
  8
DIMENSIONS
 10
5.6347320479346328
 20
6.7389681138805031
 30
0.0
 40
0.25
  1
0.125
  0
LINE
  5
FDB
  8
DIMENSIONS
 10
5.4641122180670294
 20
5.5962104497039142
 30
0.0
 11
6.9641122180670294
 21
5.5962104497039116
 31
0.0
  0
LINE
  5
FDC
  8
DIMENSIONS
 10
5.4641122180670294
 20
5.4462104497039121
 30
0.0
 11
6.9641122180670294
 21
5.4462104497039121
 31
0.0
  0
LINE
  5
FDD
  8
DIMENSIONS
 10
6.9016122180670294
 20
5.8462104497039116
 30
0.0
 11
6.9016122180670294
 21
6.0962104497039116
 31
0.0
  0
LINE
  5
FDE
  8
DIMENSIONS
 10
6.9016122180670294
 20
5.1962104497039121
 30
0.0
 11
6.9016122180670294
 21
4.9462104497039121
 31
0.0
  0
LINE
  5
FDF
  8
DIMENSIONS
 10
7.1516122180670294
 20
4.9462104497039121
 30
0.0
 11
6.9016122180670294
 21
4.9462104497039121
 31
0.0
  0
SOLID
  5
FE0
  8
DIMENSIONS
 10
6.8599455514003571
 20
5.8462104497039116
 30
0.0
 11
6.9432788847336857
 21
5.8462104497039116
 31
0.0
 12
6.9016122180670294
 22
5.5962104497039116
 32
0.0
 13
6.9016122180670294
 23
5.5962104497039116
 33
0.0
  0
SOLID
  5
FE1
  8
DIMENSIONS
 10
6.8599455514003571
 20
5.1962104497039121
 30
0.0
 11
6.9432788847336857
 21
5.1962104497039121
 31
0.0
 12
6.9016122180670294
 22
5.4462104497039121
 32
0.0
 13
6.9016122180670294
 23
5.4462104497039121
 33
0.0
  0
TEXT
  5
FE2
  8
DIMENSIONS
 10
7.2376804374705008
 20
4.8212104497039121
 30
0.0
 40
0.25
  1
0.150
  0
LINE
  5
FE3
  8
DIMENSIONS
 10
5.4641122180670294
 20
7.6962104497039121
 30
0.0
 11
6.9641122180670294
 21
7.6962104497039121
 31
0.0
  0
LINE
  5
FE4
  8
DIMENSIONS
 10
5.4641122180670294
 20
8.1962104497039121
 30
0.0
 11
6.9641122180670294
 21
8.1962104497039121
 31
0.0
  0
LINE
  5
FE5
  8
DIMENSIONS
 10
6.9016122180670294
 20
7.4462104497039121
 30
0.0
 11
6.9016122180670294
 21
7.1962104497039121
 31
0.0
  0
LINE
  5
FE6
  8
DIMENSIONS
 10
6.9016122180670294
 20
8.4462104497039121
 30
0.0
 11
6.9016122180670294
 21
8.6962104497039121
 31
0.0
  0
SOLID
  5
FE7
  8
DIMENSIONS
 10
6.8599455514003571
 20
7.4462104497039121
 30
0.0
 11
6.9432788847336857
 21
7.4462104497039121
 31
0.0
 12
6.9016122180670294
 22
7.6962104497039121
 32
0.0
 13
6.9016122180670294
 23
7.6962104497039121
 33
0.0
  0
SOLID
  5
FE8
  8
DIMENSIONS
 10
6.8599455514003571
 20
8.4462104497039121
 30
0.0
 11
6.9432788847336857
 21
8.4462104497039121
 31
0.0
 12
6.9016122180670294
 22
8.1962104497039121
 32
0.0
 13
6.9016122180670294
 23
8.1962104497039121
 33
0.0
  0
TEXT
  5
FE9
  8
DIMENSIONS
 10
6.4016122180670294
 20
7.8212104497039121
 30
0.0
 40
0.25
  1
0.500
  0
TEXT
  5
FEA
  8
DIMENSIONS
 10
11.30921571945224
 20
7.8212104497039121
 30
0.0
 40
0.25
  1
0.500
  0
TEXT
  5
FEB
  8
DIMENSIONS
 10
10.408404155305639
 20
4.821210449703913
 30
0.0
 40
0.25
  1
0.150
  0
LINE
  5
FEC
  8
BODY_-_COIN_RETURN_PANEL_-
 10
4.390352254660157
 20
7.5955607044303921
 30
0.0
 11
4.3991396149775852
 21
7.6043480647478123
 31
0.0
  0
LINE
  5
FED
  8
BODY_-_COIN_RETURN_PANEL_-
 10
4.437097675017923
 20
7.4655294294915251
 30
0.0
 11
4.4683638749705352
 21
7.4967956294441356
 31
0.0
  0
LINE
  5
FEE
  8
BODY_-_COIN_RETURN_PANEL_-
 10
4.5643954638549502
 20
7.5928272183285417
 30
0.0
 11
4.6136891084145191
 21
7.6421208628881203
 31
0.0
  0
LINE
  5
FEF
  8
BODY_-_COIN_RETURN_PANEL_-
 10
4.4838430953756889
 20
7.335498154552659
 30
0.0
 11
4.5151092953283154
 21
7.3667643545052668
 31
0.0
  0
LINE
  5
FF0
  8
BODY_-_COIN_RETURN_PANEL_-
 10
4.7789449572918841
 20
7.6306000164688497
 30
0.0
 11
4.8282386018514671
 21
7.6798936610284283
 31
0.0
  0
LINE
  5
FF1
  8
BODY_-_COIN_RETURN_PANEL_-
 10
4.5305885157334691
 20
7.2054668796137911
 30
0.0
 11
4.5618547156860672
 21
7.2367330795663998
 31
0.0
  0
LINE
  5
FF2
  8
BODY_-_COIN_RETURN_PANEL_-
 10
5.3616122180670232
 20
8.0364905819473478
 30
0.0
 11
5.4016122180670294
 21
8.0764905819473487
 31
0.0
  0
LINE
  5
FF3
  8
BODY_-_COIN_RETURN_PANEL_-
 10
4.9934944507288321
 20
7.6683728146091603
 30
0.0
 11
5.0427880952884152
 21
7.7176664591687363
 31
0.0
  0
LINE
  5
FF4
  8
BODY_-_COIN_RETURN_PANEL_-
 10
4.5773339360912351
 20
7.0754356046749249
 30
0.0
 11
4.6086001360438473
 21
7.1067018046275328
 31
0.0
  0
LINE
  5
FF5
  8
BODY_-_COIN_RETURN_PANEL_-
 10
5.3616122180670232
 20
7.8597138866507086
 30
0.0
 11
5.4016122180670294
 21
7.8997138866507122
 31
0.0
  0
LINE
  5
FF6
  8
BODY_-_COIN_RETURN_PANEL_-
 10
5.1981087811202249
 20
7.6962104497039121
 30
0.0
 11
5.2381087811202169
 21
7.7362104497039113
 31
0.0
  0
LINE
  5
FF7
  8
BODY_-_COIN_RETURN_PANEL_-
 10
4.624079356449001
 20
6.9454043297360579
 30
0.0
 11
4.6553455564016133
 21
6.9766705296886684
 31
0.0
  0
LINE
  5
FF8
  8
BODY_-_COIN_RETURN_PANEL_-
 10
5.3748854764168641
 20
7.6962104497039121
 30
0.0
 11
5.4016122180670294
 21
7.7229371913540747
 31
0.0
  0
LINE
  5
FF9
  8
BODY_-_COIN_RETURN_PANEL_-
 10
4.6708247768067821
 20
6.8153730547971909
 30
0.0
 11
4.7020909767593793
 21
6.8466392547498014
 31
0.0
  0
LINE
  5
FFA
  8
BODY_-_COIN_RETURN_PANEL_-
 10
4.7175701971645481
 20
6.685341779858323
 30
0.0
 11
4.7488363971171594
 21
6.7166079798109344
 31
0.0
  0
LINE
  5
FFB
  8
BODY_-_COIN_RETURN_PANEL_-
 10
4.764315617522314
 20
6.5553105049194569
 30
0.0
 11
4.7955818174749254
 21
6.5865767048720674
 31
0.0
  0
LINE
  5
FFC
  8
BODY_-_COIN_RETURN_PANEL_-
 10
4.8110610378800942
 20
6.4252792299805899
 30
0.0
 11
4.8423272378326914
 21
6.4565454299332004
 31
0.0
  0
LINE
  5
FFD
  8
BODY_-_COIN_RETURN_PANEL_-
 10
4.8578064582378602
 20
6.2952479550417229
 30
0.0
 11
4.8890726581904707
 21
6.3265141549943351
 31
0.0
  0
LINE
  5
FFE
  8
BODY_-_COIN_RETURN_PANEL_-
 10
4.9045518785956261
 20
6.1652166801028558
 30
0.0
 11
4.9358180785482366
 21
6.1964828800554663
 31
0.0
  0
LINE
  5
FFF
  8
BODY_-_COIN_RETURN_PANEL_-
 10
4.9512972989533921
 20
6.0351854051639888
 30
0.0
 11
4.9825634989060026
 21
6.0664516051166011
 31
0.0
  0
LINE
  5
1000
  8
BODY_-_COIN_RETURN_PANEL_-
 10
4.9980427193111581
 20
5.9051541302251218
 30
0.0
 11
5.0293089192637828
 21
5.9364203301777323
 31
0.0
  0
LINE
  5
1001
  8
BODY_-_COIN_RETURN_PANEL_-
 10
5.0447881396689382
 20
5.7751228552862548
 30
0.0
 11
5.0760543396215487
 21
5.8063890552388671
 31
0.0
  0
LINE
  5
1002
  8
BODY_-_COIN_RETURN_PANEL_-
 10
5.0915335600267042
 20
5.6450915803473896
 30
0.0
 11
5.1227997599793147
 21
5.6763577802999983
 31
0.0
  0
LINE
  5
1003
  8
BODY_-_COIN_RETURN_PANEL_-
 10
5.1794291246798698
 20
5.5562104497039133
 30
0.0
 11
5.2194291246798619
 21
5.5962104497039116
 31
0.0
  0
LINE
  5
1004
  8
BODY_-_COIN_RETURN_PANEL_-
 10
5.3562058199764939
 20
5.5562104497039133
 30
0.0
 11
5.3962058199765011
 21
5.5962104497039142
 31
0.0
  0
TEXT
  5
1005
  8
DIMENSIONS
 10
4.4687339129494461
 20
3.6507159980620432
 30
0.0
 40
0.375
  1
SECTION A-A
  0
LINE
  5
1006
  8
DIMENSIONS
 10
4.4122474490260544
 20
3.537879130867764
 30
0.0
 11
8.281570193850186
 21
3.537879130867764
 31
0.0
  0
LINE
  5
1007
  8
DIMENSIONS
 10
4.4122474490260544
 20
3.5020368354569729
 30
0.0
 11
8.281570193850186
 21
3.5020368354569729
 31
0.0
  0
LINE
  5
1008
  8
DIMENSIONS
 10
11.80921571945224
 20
5.1962104497039121
 30
0.0
 11
11.80921571945224
 21
4.9462104497039121
 31
0.0
  0
LINE
  5
1009
  8
DIMENSIONS
  6
PHANTOM2
 10
13.52553366398986
 20
4.943367074305077
 30
0.0
 11
13.52553366398986
 21
8.7061927784024782
 31
0.0
  0
SOLID
  5
100A
  8
DIMENSIONS
 10
13.27553366398986
 20
4.985033740971744
 30
0.0
 11
13.27553366398986
 21
4.901700407638411
 31
0.0
 12
13.02553366398986
 22
4.943367074305077
 32
0.0
 13
13.02553366398986
 23
4.943367074305077
 33
0.0
  0
LINE
  5
100B
  8
DIMENSIONS
 10
13.27553366398986
 20
4.943367074305077
 30
0.0
 11
13.52553366398986
 21
4.943367074305077
 31
0.0
  0
LINE
  5
100C
  8
DIMENSIONS
 10
11.55921571945224
 20
4.9462104497039121
 30
0.0
 11
11.80921571945224
 21
4.9462104497039121
 31
0.0
  0
LINE
  5
100D
  8
DIMENSIONS
 10
12.542359701236281
 20
8.1962104497039103
 30
0.0
 11
10.99671571945224
 21
8.1962104497039121
 31
0.0
  0
LINE
  5
100E
  8
DIMENSIONS
 10
12.542359701236281
 20
5.4462104497039121
 30
0.0
 11
10.99671571945224
 21
5.4462104497039121
 31
0.0
  0
LINE
  5
100F
  8
BODY_-_COIN_RETURN_PANEL_-
 10
12.604859701236281
 20
8.1962104497039103
 30
0.0
 11
15.81507837402836
 21
8.1962104497039121
 31
0.0
  0
LINE
  5
1010
  8
BODY_-_COIN_RETURN_PANEL_-
 10
13.09833499112557
 20
7.6962104497039077
 30
0.0
 11
14.59713405912513
 21
7.6962104497039121
 31
0.0
  0
LINE
  5
1011
  8
BODY_-_COIN_RETURN_PANEL_-
 10
13.09833499112557
 20
7.5712104497039112
 30
0.0
 11
14.59713405912513
 21
7.5712104497039103
 31
0.0
  0
LINE
  5
1012
  8
BODY_-_COIN_RETURN_PANEL_-
 10
12.604859701236281
 20
5.4462104497039121
 30
0.0
 11
15.81507837402836
 21
5.4462104497039121
 31
0.0
  0
LINE
  5
1013
  8
BODY_-_COIN_RETURN_PANEL_-
 10
13.09833499112557
 20
5.5962104497039107
 30
0.0
 11
14.59713405912513
 21
5.5962104497039116
 31
0.0
  0
LINE
  5
1016
  8
DIMENSIONS
 10
11.80921571945224
 20
7.4462104497039103
 30
0.0
 11
11.80921571945224
 21
7.1962104497039103
 31
0.0
  0
LINE
  5
1018
  8
DIMENSIONS
 10
11.80921571945224
 20
7.4462104497039103
 30
0.0
 11
11.80921571945224
 21
6.6610629457965969
 31
0.0
  0
LINE
  5
101A
  8
DIMENSIONS
 10
12.98805873111151
 20
5.5962104497039116
 30
0.0
 11
11.74671571945224
 21
5.5962104497039116
 31
0.0
  0
LINE
  5
101B
  8
DIMENSIONS
 10
12.98805873111151
 20
5.5962104497039116
 30
0.0
 11
11.74671571945224
 21
5.5962104497039116
 31
0.0
  0
LINE
  5
101C
  8
DIMENSIONS
 10
11.80921571945224
 20
5.8462104497039116
 30
0.0
 11
11.80921571945224
 21
6.2860629457965969
 31
0.0
  0
LINE
  5
101D
  8
DIMENSIONS
 10
12.542359701236281
 20
5.4462104497039121
 30
0.0
 11
11.74671571945224
 21
5.4462104497039121
 31
0.0
  0
SOLID
  5
101E
  8
DIMENSIONS
 10
11.85088238611891
 20
5.8462104497039116
 30
0.0
 11
11.76754905278557
 21
5.8462104497039116
 31
0.0
 12
11.80921571945224
 22
5.5962104497039116
 32
0.0
 13
11.80921571945224
 23
5.5962104497039116
 33
0.0
  0
SOLID
  5
101F
  8
DIMENSIONS
 10
11.76754905278557
 20
5.8462104497039116
 30
0.0
 11
11.85088238611891
 21
5.8462104497039116
 31
0.0
 12
11.80921571945224
 22
5.5962104497039116
 32
0.0
 13
11.80921571945224
 23
5.5962104497039116
 33
0.0
  0
SOLID
  5
1020
  8
DIMENSIONS
 10
11.85088238611891
 20
5.1962104497039121
 30
0.0
 11
11.76754905278557
 21
5.1962104497039121
 31
0.0
 12
11.80921571945224
 22
5.4462104497039121
 32
0.0
 13
11.80921571945224
 23
5.4462104497039121
 33
0.0
  0
LINE
  5
1021
  8
DIMENSIONS
 10
11.80921571945224
 20
5.8462104497039116
 30
0.0
 11
11.80921571945224
 21
6.0962104497039116
 31
0.0
  0
LINE
  5
1022
  8
DIMENSIONS
 10
12.98805873111151
 20
7.6962104497039103
 30
0.0
 11
11.74671571945224
 21
7.6962104497039103
 31
0.0
  0
LINE
  5
1023
  8
DIMENSIONS
 10
12.98805873111151
 20
7.6962104497039077
 30
0.0
 11
11.74671571945224
 21
7.6962104497039103
 31
0.0
  0
SOLID
  5
1024
  8
DIMENSIONS
 10
13.27553366398986
 20
8.747859445069146
 30
0.0
 11
13.27553366398986
 21
8.6645261117358139
 31
0.0
 12
13.02553366398986
 22
8.7061927784024782
 32
0.0
 13
13.02553366398986
 23
8.7061927784024782
 33
0.0
  0
LINE
  5
1025
  8
DIMENSIONS
 10
13.27553366398986
 20
8.7061927784024782
 30
0.0
 11
13.52553366398986
 21
8.7061927784024782
 31
0.0
  0
SOLID
  5
1026
  8
DIMENSIONS
 10
11.85088238611891
 20
8.4462104497039103
 30
0.0
 11
11.76754905278557
 21
8.4462104497039103
 31
0.0
 12
11.80921571945224
 22
8.1962104497039103
 32
0.0
 13
11.80921571945224
 23
8.1962104497039103
 33
0.0
  0
LINE
  5
1027
  8
DIMENSIONS
 10
12.542359701236281
 20
8.1962104497039103
 30
0.0
 11
11.74671571945224
 21
8.1962104497039103
 31
0.0
  0
SOLID
  5
1028
  8
DIMENSIONS
 10
11.85088238611891
 20
7.4462104497039103
 30
0.0
 11
11.76754905278557
 21
7.4462104497039103
 31
0.0
 12
11.80921571945224
 22
7.6962104497039103
 32
0.0
 13
11.80921571945224
 23
7.6962104497039103
 33
0.0
  0
SOLID
  5
1029
  8
DIMENSIONS
 10
11.76754905278557
 20
7.4462104497039103
 30
0.0
 11
11.85088238611891
 21
7.4462104497039103
 31
0.0
 12
11.80921571945224
 22
7.6962104497039103
 32
0.0
 13
11.80921571945224
 23
7.6962104497039103
 33
0.0
  0
LINE
  5
102A
  8
DIMENSIONS
 10
11.80921571945224
 20
8.4462104497039103
 30
0.0
 11
11.80921571945224
 21
8.6962104497039103
 31
0.0
  0
LINE
  5
102B
  8
BODY_-_COIN_RETURN_PANEL_-
 10
14.676417591274859
 20
12.851384557521509
 30
0.0
 11
13.097682572982009
 21
12.91459643944145
 31
0.0
  0
LINE
  5
102C
  8
BODY_-_COIN_RETURN_PANEL_-
  6
HIDDEN
 10
14.634300897397191
 20
12.799319987072989
 30
0.0
 11
13.13550182939764
 21
12.85933126737674
 31
0.0
  0
LINE
  5
102D
  8
BODY_-_COIN_RETURN_PANEL_-
  6
HIDDEN
 10
14.60589555805341
 20
12.08988842821987
 30
0.0
 11
13.10709649005387
 21
12.14989970852362
 31
0.0
  0
ARC
  5
102E
  8
BODY_-_COIN_RETURN_PANEL_-
 10
14.21004248008313
 20
20.949818977646402
 30
0.0
 40
9.0470000000000006
 50
259.82553691999999
 51
280.1735221389518
  0
ARC
  5
1030
  8
BODY_-_COIN_RETURN_PANEL_-
 10
14.21004248008313
 20
20.949818977646402
 30
0.0
 40
9.0869999999999997
 50
262.97280522329129
 51
272.44144678270879
  0
ARC
  5
1031
  8
BODY_-_COIN_RETURN_PANEL_-
 10
14.21004248008313
 20
20.949818977646402
 30
0.0
 40
9.0869999999999997
 50
272.44144678270879
 51
280.17352213895191
  0
LINE
  5
1037
  8
DIMENSIONS
 10
15.245744768103499
 20
12.171222478845561
 30
0.0
 11
14.91035324593693
 21
13.441334745796629
 31
0.0
1001
ACAD
1000
DSTYLE
1002
{
1070
   147
1040
0.0625
1070
    77
1070
     0
1002
}
  0
SOLID
  5
1039
  8
DIMENSIONS
 10
15.28600641443874
 20
12.18195145575336
 30
0.0
 11
15.31011862955032
 21
11.92965260083419
 31
0.0
 12
15.20548312176828
 22
12.16049350193776
 32
0.0
 13
15.20548312176828
 23
12.16049350193776
 33
0.0
1001
ACAD
1000
DSTYLE
1002
{
1070
   147
1040
0.0625
1070
    77
1070
     0
1002
}
  0
LINE
  5
103A
  8
BODY_-_COIN_RETURN_PANEL_-
  6
HIDDEN
 10
14.59713405912513
 20
11.871067460535979
 30
0.0
 11
14.634300897397191
 21
12.799319987072989
 31
0.0
  0
LINE
  5
103B
  8
BODY_-_COIN_RETURN_PANEL_-
 10
14.63884453784341
 20
11.91298668998826
 30
0.0
 11
14.676417591274859
 21
12.851384557521509
 31
0.0
  0
LINE
  5
103C
  8
DIMENSIONS
 10
14.91035324593693
 20
13.441334745796629
 30
0.0
 11
15.100883951216471
 21
13.441334745796629
 31
0.0
1001
ACAD
1000
DSTYLE
1002
{
1070
   147
1040
0.0625
1070
    77
1070
     0
1002
}
  0
ARC
  5
1049
  8
BODY_-_COIN_RETURN_PANEL_-
 10
14.21004248008313
 20
20.949818977646402
 30
0.0
 40
9.0869999999999997
 50
259.82553691999999
 51
262.97280522329129
  0
LINE
  5
104A
  8
BODY_-_COIN_RETURN_PANEL_-
  6
HIDDEN
 10
13.098334991125579
 20
11.93107874083972
 30
0.0
 11
13.13550182939764
 21
12.85933126737674
 31
0.0
  0
LINE
  5
104B
  8
BODY_-_COIN_RETURN_PANEL_-
 10
13.060109519550551
 20
11.97619857190821
 30
0.0
 11
13.097682572982009
 21
12.91459643944145
 31
0.0
  0
LINE
  5
104C
  8
BODY_-_COIN_RETURN_PANEL_-
 10
12.6119255437755
 20
12.04508814185542
 30
0.0
 11
12.604859701236281
 21
12.00571716435662
 31
0.0
  0
LINE
  5
104D
  8
DIMENSIONS
 10
11.05921571945224
 20
5.6962104497039121
 30
0.0
 11
11.05921571945224
 21
6.8495198561146848
 31
0.0
  0
SOLID
  5
104E
  8
DIMENSIONS
 10
11.01754905278557
 20
5.6962104497039121
 30
0.0
 11
11.10088238611891
 21
5.6962104497039121
 31
0.0
 12
11.05921571945224
 22
5.4462104497039121
 32
0.0
 13
11.05921571945224
 23
5.4462104497039121
 33
0.0
  0
LINE
  5
104F
  8
DIMENSIONS
 10
11.05921571945224
 20
7.9462104497039121
 30
0.0
 11
11.05921571945224
 21
7.2245198561146848
 31
0.0
  0
SOLID
  5
1050
  8
DIMENSIONS
 10
11.01754905278557
 20
7.9462104497039121
 30
0.0
 11
11.10088238611891
 21
7.9462104497039121
 31
0.0
 12
11.05921571945224
 22
8.1962104497039121
 32
0.0
 13
11.05921571945224
 23
8.1962104497039121
 33
0.0
  0
TEXT
  5
1433
  8
0
  6
CONTINUOUS
 10
76.920374468751774
 20
17.034671053777359
 30
0.0
 40
0.12
  1
 
 51
7.0
  0
TEXT
  5
1434
  8
0
  6
CONTINUOUS
 10
89.364471234231672
 20
24.097545483509009
 30
0.0
 40
0.24
  1
 
 51
7.0
  0
TEXT
  5
1435
  8
0
  6
CONTINUOUS
 10
98.574236246144949
 20
23.777535496931929
 30
0.0
 40
0.24
  1
 
 51
7.0
  0
TEXT
  5
1436
  8
0
  6
CONTINUOUS
 10
108.3781957305776
 20
6.9149546974046059
 30
0.0
 40
0.24
  1
 
 51
7.0
  0
LINE
  5
14EE
  8
0
 10
0.0
 20
0.0
 30
0.0
 11
0.0
 21
17.0
 31
0.0
  0
LINE
  5
14EF
  8
0
 10
22.0
 20
0.0
 30
0.0
 11
22.0
 21
17.0
 31
0.0
  0
LINE
  5
14F0
  8
0
 10
0.0
 20
0.0
 30
0.0
 11
22.0
 21
0.0
 31
0.0
  0
LINE
  5
14F1
  8
0
 10
0.0
 20
17.0
 30
0.0
 11
22.0
 21
17.0
 31
0.0
  0
LINE
  5
158F
  8
FORM
 10
21.403846140107252
 20
0.7499999996674092
 30
0.0
 11
21.403846140107252
 21
15.153846144098431
 31
0.0
  0
LINE
  5
1590
  8
FORM
 10
21.249999986363441
 20
15.307692297842239
 30
0.0
 11
0.7499999996674376
 21
15.307692297842239
 31
0.0
  0
LINE
  5
1591
  8
FORM
 10
21.249999986363441
 20
0.5961538459236025
 30
0.0
 11
0.7499999996674376
 21
0.5961538459235954
 31
0.0
  0
LINE
  5
1592
  8
FORM
 10
0.5961538459236168
 20
0.7499999996674092
 30
0.0
 11
0.5961538459236168
 21
15.153846144098431
 31
0.0
  0
TEXT
  5
1595
  8
FORM
 10
16.770574233580561
 20
1.1177623757995749
 30
0.0
 40
0.260516826749781
  1
ASTROMECH DROID
  0
TEXT
  5
1596
  8
FORM
 10
20.85720038004996
 20
1.1278903102633671
 30
0.0
 40
0.260516826749781
  1
A
  0
TEXT
  5
1597
  8
FORM
 10
17.25446024791373
 20
0.813671414000872
 30
0.0
 40
0.1042067306999124
  1
FULL
  0
TEXT
  5
1598
  8
FORM
 10
20.593280544426019
 20
0.8165882189588344
 30
0.0
 40
0.1042067306999124
  1
1   1
  0
TEXT
  5
1599
  8
FORM
 10
18.867373488668239
 20
0.8246381046439915
 30
0.0
 40
0.1042067306999124
  1
APRIL 2005
 72
     2
 11
19.770498488067489
 21
0.8246381046439915
 31
0.0
  0
TEXT
  5
159A
  8
FORM
  6
CONTINUOUS
 10
18.118827913558601
 20
0.8235896747318066
 30
0.0
 40
0.0900346153247244
  1
DRAWN:
  0
TEXT
  5
159B
  8
FORM
  6
CONTINUOUS
 10
16.72518466957764
 20
0.8236741054737031
 30
0.0
 40
0.0900346153247244
  1
SCALE:
  0
TEXT
  5
159C
  8
FORM
  6
CONTINUOUS
 10
20.01795677316494
 20
0.8225458122742352
 30
0.0
 40
0.0900346153247244
  1
SHEET:   OF
  0
TEXT
  5
159D
  8
FORM
  6
CONTINUOUS
 10
16.560769897877751
 20
1.5378028837587541
 30
0.0
 40
0.0900346153247244
  1
DRAWING NO.
  0
TEXT
  5
159E
  8
FORM
  6
CONTINUOUS
 10
20.822311852397561
 20
1.537802883758743
 30
0.0
 40
0.0900346153247244
  1
REV.
 72
     1
 11
20.955220094067389
 21
1.537802883758743
 31
0.0
  0
LINE
  5
159F
  8
FORM
  6
CONTINUOUS
 10
16.703251912464879
 20
3.3610038440844141
 30
0.0
 11
21.02491344805162
 21
3.3610038440844141
 31
0.0
  0
LINE
  5
15A0
  8
FORM
  6
CONTINUOUS
 10
16.478165374153061
 20
0.9750865379792159
 30
0.0
 11
16.478165374153029
 21
3.1359173057725931
 31
0.0
  0
LINE
  5
15A1
  8
FORM
  6
CONTINUOUS
 10
16.478165374153061
 20
1.672854806745828
 30
0.0
 11
21.249999986363441
 21
1.672854806745828
 31
0.0
  0
LINE
  5
15A2
  8
FORM
  6
CONTINUOUS
 10
16.478165374153061
 20
0.9750865379792159
 30
0.0
 11
21.249999986363441
 21
0.9750865379792159
 31
0.0
  0
LINE
  5
15A3
  8
FORM
  6
CONTINUOUS
 10
17.97804237543275
 20
0.9750865379792159
 30
0.0
 11
17.97804237543275
 21
0.7499999996674092
 31
0.0
  0
LINE
  5
15A4
  8
FORM
  6
CONTINUOUS
 10
19.950430811671389
 20
0.9723156702741989
 30
0.0
 11
19.950430811671389
 21
0.7472291319623921
 31
0.0
  0
LINE
  5
15A5
  8
FORM
  6
CONTINUOUS
 10
20.65524763562988
 20
1.672854806745828
 30
0.0
 11
20.65524763562988
 21
0.9750865379792159
 31
0.0
  0
ARC
  5
15A6
  8
FORM
 62
     5
 10
16.925603837263051
 20
2.683123263179624
 30
0.0
 40
0.0245481788339413
 50
152.18113099770551
 51
330.99098814993278
  0
ARC
  5
15A7
  8
FORM
 62
     5
 10
17.03186349061718
 20
2.8877559907035391
 30
0.0
 40
0.0215248522646385
 50
335.32315363464198
 51
152.6722492633036
  0
ARC
  5
15A8
  8
FORM
 62
     5
 10
18.67139281679863
 20
1.8778243841790809
 30
0.0
 40
1.9470863223045181
 50
148.41494327216151
 51
155.19852313243231
  0
ARC
  5
15A9
  8
FORM
 62
     5
 10
19.04826621925363
 20
1.7448079813832851
 30
0.0
 40
2.2963564077758769
 50
150.40875710206339
 51
156.20744757951141
  0
ARC
  5
15AA
  8
FORM
 62
     7
 10
16.856187689619201
 20
2.476891943456518
 30
0.0
 40
0.0328016362752216
 50
161.128725237971
 51
346.89295927401372
  0
ARC
  5
15AB
  8
FORM
 62
     7
 10
26.446981545233939
 20
-1.665659984064163
 30
0.0
 40
10.414927500982669
 50
153.58307292081309
 51
156.60691138966209
  0
ARC
  5
15AC
  8
FORM
 62
     7
 10
24.942765772362829
 20
-1.1245203992272681
 30
0.0
 40
8.873647082696257
 50
152.3409599977594
 51
152.9694116127464
  0
ARC
  5
15AD
  8
FORM
 62
     7
 10
25.042235970541071
 20
-1.413551413076795
 30
0.0
 40
9.0960831006715779
 50
153.3711283527573
 51
154.60402195655351
  0
ARC
  5
15AE
  8
FORM
 62
     7
 10
17.329398129118289
 20
2.8602652973761158
 30
0.0
 40
0.2358358050601862
 50
23.468725928191049
 51
88.151617587883351
  0
ARC
  5
15AF
  8
FORM
 62
     7
 10
17.33466889121355
 20
2.8754695652234821
 30
0.0
 40
0.2783521476800796
 50
18.23262529566551
 51
154.63608874642679
  0
ARC
  5
15B0
  8
FORM
 62
     7
 10
17.41806628342874
 20
2.9044827195306051
 30
0.0
 40
0.1900699214402894
 50
336.99722732837893
 51
341.11190659806488
  0
ARC
  5
15B1
  8
FORM
 62
     7
 10
17.429371041778779
 20
2.912888609699027
 30
0.0
 40
0.1244898949022119
 50
333.24704424527522
 51
339.12675173356178
  0
ARC
  5
15B2
  8
FORM
 62
     7
 10
17.547120806258562
 20
2.8541053585607901
 30
0.0
 40
0.007134896083525
 50
157.3747590211585
 51
243.18317341424029
  0
ARC
  5
15B3
  8
FORM
 62
     7
 10
17.589262332130431
 20
2.8313183495512071
 30
0.0
 40
0.0039211308505914
 50
246.74236679857631
 51
343.55073793579641
  0
ARC
  5
15B4
  8
FORM
 62
     7
 10
17.71265002297525
 20
3.1590467530149189
 30
0.0
 40
0.3541033340658146
 50
241.5396617947477
 51
249.33988332022491
  0
ARC
  5
15B5
  8
FORM
 62
     7
 10
17.465116861604141
 20
2.7835275642507962
 30
0.0
 40
0.0699031230302257
 50
210.28645373052609
 51
287.25915125833183
  0
ARC
  5
15B6
  8
FORM
 62
     7
 10
17.471123101482839
 20
2.7532989527990699
 30
0.0
 40
0.0393865134548433
 50
291.96730232828992
 51
10.20108836223371
  0
ARC
  5
15B7
  8
FORM
 62
     7
 10
17.159843992632862
 20
2.6859329108208518
 30
0.0
 40
0.2527202610277017
 50
14.28109924276106
 51
24.94726153987823
  0
ARC
  5
15B8
  8
FORM
 62
     7
 10
17.30724545805592
 20
2.7624795397720869
 30
0.0
 40
0.0870866377029319
 50
20.183063788867621
 51
47.833846572520187
  0
ARC
  5
15B9
  8
FORM
 62
     7
 10
17.323525970686489
 20
2.7183682645997709
 30
0.0
 40
0.1165593648186974
 50
68.784960310907422
 51
94.742087985452599
  0
ARC
  5
15BA
  8
FORM
 62
     7
 10
17.32225776675568
 20
2.7872533208520021
 30
0.0
 40
0.0480101674679103
 50
100.0375073429591
 51
170.98475346238999
  0
ARC
  5
15BB
  8
FORM
 62
     7
 10
17.548079884465121
 20
2.754066770453373
 30
0.0
 40
0.2762551956077745
 50
171.52589863719891
 51
197.494741096675
  0
ARC
  5
15BC
  8
FORM
 62
     7
 10
17.361988404409459
 20
2.757975203687443
 30
0.0
 40
0.1479164690482495
 50
0.8906501289532242
 51
49.113860192417171
  0
ARC
  5
15BD
  8
FORM
 62
     7
 10
17.330827327390121
 20
2.7851061194825268
 30
0.0
 40
0.1164203647136616
 50
99.869748807366761
 51
175.59516845025641
  0
ARC
  5
15BE
  8
FORM
 62
     7
 10
17.35181928853353
 20
2.721979015220195
 30
0.0
 40
0.1824780170187834
 50
54.104282451028169
 51
102.9674010870567
  0
ARC
  5
15BF
  8
FORM
 62
     7
 10
17.866825478371819
 20
2.8305495615738461
 30
0.0
 40
0.603682768180479
 50
195.32307896217739
 51
209.290843156958
  0
ARC
  5
15C0
  8
FORM
 62
     7
 10
17.676878331574731
 20
2.7315679572076941
 30
0.0
 40
0.4663319886455236
 50
172.3003020759547
 51
200.12627387409299
  0
ARC
  5
15C1
  8
FORM
 62
     7
 10
18.010296677355171
 20
2.8617220596188409
 30
0.0
 40
0.8242093741364085
 50
200.64629086238159
 51
210.0464960904439
  0
ARC
  5
15C2
  8
FORM
 62
     7
 10
16.87490984687733
 20
2.2228629736894798
 30
0.0
 40
0.5605059965149727
 50
28.431949107384298
 51
33.865461133002469
  0
ARC
  5
15C3
  8
FORM
 62
     7
 10
17.335282492148359
 20
2.4642291377128478
 30
0.0
 40
0.0413303405420145
 50
201.56446042640411
 51
38.094090168146302
  0
ARC
  5
15C4
  8
FORM
 62
     5
 10
17.698488306364109
 20
2.8075987703319072
 30
0.0
 40
0.0229902810191139
 50
227.6202696593605
 51
57.412112921204063
  0
ARC
  5
15C5
  8
FORM
 62
     5
 10
17.427351296879149
 20
2.453894972691713
 30
0.0
 40
0.4685807675213703
 50
52.766851639305898
 51
65.063571515457895
  0
ARC
  5
15C6
  8
FORM
 62
     5
 10
17.209234353189508
 20
2.115713416994772
 30
0.0
 40
0.8245845677332351
 50
54.932512589538803
 51
74.152868438598929
  0
ARC
  5
15C7
  8
FORM
 62
     5
 10
17.22112341118936
 20
1.8705744209651269
 30
0.0
 40
1.0600616451387339
 50
78.393012355262385
 51
89.647961077025343
  0
ARC
  5
15C8
  8
FORM
 62
     5
 10
17.225855158117209
 20
2.9613835761542329
 30
0.0
 40
0.0308190515998151
 50
183.9979944211656
 51
273.313807745882
  0
ARC
  5
15C9
  8
FORM
 62
     5
 10
17.329870384946641
 20
2.9695252211814269
 30
0.0
 40
0.135151603104915
 50
145.60859166919269
 51
184.36670732083471
  0
ARC
  5
15CA
  8
FORM
 62
     5
 10
17.246715832908791
 20
3.027923603152622
 30
0.0
 40
0.0335688941126511
 50
75.244714174009715
 51
147.6929850116162
  0
ARC
  5
15CB
  8
FORM
 62
     5
 10
16.846566400398309
 20
1.4922623483111219
 30
0.0
 40
1.6205076763160291
 50
61.637242241525243
 51
75.392005557716686
  0
ARC
  5
15CC
  8
FORM
 62
     5
 10
17.585771892302461
 20
2.8909845400545029
 30
0.0
 40
0.0409937741994102
 50
342.6982574268402
 51
41.67278378767756
  0
ARC
  5
15CD
  8
FORM
 62
     7
 10
17.41806628342874
 20
2.9044827195306051
 30
0.0
 40
0.1900699214402894
 50
5.6380312699923048
 51
17.79145636873681
  0
ARC
  5
15CE
  8
FORM
 62
     7
 10
17.5045622300951
 20
2.0088127942983891
 30
0.0
 40
0.0608207837544583
 50
88.432533024773406
 51
186.62631613112151
  0
ARC
  5
15CF
  8
FORM
 62
     7
 10
17.514107893903311
 20
2.0214944811508531
 30
0.0
 40
0.0726809031862866
 50
195.7266305128272
 51
285.3806868435185
  0
ARC
  5
15D0
  8
FORM
 62
     7
 10
17.428397303924321
 20
2.6646932328165849
 30
0.0
 40
0.7209618028535085
 50
278.37329371359471
 51
293.15208507016871
  0
ARC
  5
15D1
  8
FORM
 62
     7
 10
17.670280088548282
 20
2.2109164793858191
 30
0.0
 40
0.1486954171998164
 50
257.51805604168283
 51
277.23103351305667
  0
ARC
  5
15D2
  8
FORM
 62
     7
 10
17.67861701724112
 20
2.0887614153130118
 30
0.0
 40
0.0273997705390677
 50
292.26031345923337
 51
12.867379300523719
  0
ARC
  5
15D3
  8
FORM
 62
     7
 10
17.658243987918521
 20
2.0848332422543971
 30
0.0
 40
0.0481411784627428
 50
12.02537552739555
 51
52.143631645159317
  0
ARC
  5
15D4
  8
FORM
 62
     7
 10
18.68473167686761
 20
3.3322419147777782
 30
0.0
 40
1.5673362882102819
 50
219.60277928185971
 51
230.5002020408055
  0
ARC
  5
15D5
  8
FORM
 62
     7
 10
17.71719517775902
 20
2.5209914067630801
 30
0.0
 40
0.3048383262947374
 50
175.97523115435061
 51
218.04500009534141
  0
ARC
  5
15D6
  8
FORM
 62
     7
 10
17.587988709286751
 20
2.5516026198667592
 30
0.0
 40
0.1751226981011722
 50
149.96078860476399
 51
183.01641230856191
  0
ARC
  5
15D7
  8
FORM
 62
     7
 10
17.465652099646999
 20
2.6236413715572442
 30
0.0
 40
0.03317488584424
 50
69.764209445538683
 51
151.8988190455112
  0
ARC
  5
15D8
  8
FORM
 62
     7
 10
17.461738153470581
 20
2.621386420418637
 30
0.0
 40
0.0367584023789668
 50
357.6694469744499
 51
65.251102439515435
  0
ARC
  5
15D9
  8
FORM
 62
     7
 10
17.375127171955
 20
2.6142785816255478
 30
0.0
 40
0.1234666367742727
 50
345.36193237678458
 51
2.6056939300727819
  0
ARC
  5
15DA
  8
FORM
 62
     7
 10
17.770788346688299
 20
2.4976765653254129
 30
0.0
 40
0.289103498612585
 50
162.8186183088072
 51
185.35496664157321
  0
ARC
  5
15DB
  8
FORM
 62
     7
 10
17.738557938675601
 20
2.526678108373186
 30
0.0
 40
0.261669979998945
 50
192.3534994193023
 51
222.3020476696033
  0
ARC
  5
15DC
  8
FORM
 62
     7
 10
18.640000382871079
 20
3.2533952889623161
 30
0.0
 40
1.419181254971364
 50
219.50633019139829
 51
228.42762303996261
  0
ARC
  5
15DD
  8
FORM
 62
     7
 10
17.545150090279261
 20
1.9830014576086259
 30
0.0
 40
0.2588352891177654
 50
32.971129457978869
 51
53.728419363024337
  0
ARC
  5
15DE
  8
FORM
 62
     7
 10
17.685505274612321
 20
2.0841393566689059
 30
0.0
 40
0.0864595649942742
 50
287.74749415951351
 51
27.35211189662947
  0
ARC
  5
15DF
  8
FORM
 62
     7
 10
17.556150910590731
 20
1.521887384058928
 30
0.0
 40
0.5499940598264056
 50
81.426570944510203
 51
95.208118001959775
  0
ARC
  5
15E0
  8
FORM
 62
     7
 10
17.31874226594763
 20
2.379232385518228
 30
0.0
 40
0.0244848954091209
 50
325.52447187114308
 51
75.340502228459783
  0
ARC
  5
15E1
  8
FORM
 62
     7
 10
17.28857503182331
 20
2.4013816515593862
 30
0.0
 40
0.0619027859518531
 50
277.78730616127859
 51
324.42957968808531
  0
ARC
  5
15E2
  8
FORM
 62
     7
 10
17.277627430402191
 20
2.4116764447725738
 30
0.0
 40
0.0741905263351136
 50
243.48581874200181
 51
285.1065744639306
  0
ARC
  5
15E3
  8
FORM
 62
     7
 10
13.99616984532571
 20
-5.9734717723731041
 30
0.0
 40
9.0135811594364625
 50
68.327181839257534
 51
70.606105230637283
  0
ARC
  5
15E4
  8
FORM
 62
     7
 10
16.982860283602829
 20
2.502260489661857
 30
0.0
 40
0.0271571196358057
 50
76.445232091872299
 51
134.36352227876461
  0
ARC
  5
15E5
  8
FORM
 62
     7
 10
17.103601465049451
 20
2.316491870596419
 30
0.0
 40
0.2482433149023289
 50
124.2547762008316
 51
135.012931962436
  0
ARC
  5
15E6
  8
FORM
 62
     7
 10
16.932687772438332
 20
2.4840903864877362
 30
0.0
 40
0.0091691237651447
 50
120.5491196217084
 51
251.48388650457539
  0
ARC
  5
15E7
  8
FORM
 62
     7
 10
15.698852283122079
 20
-0.947959245240991
 30
0.0
 40
3.6379298384249581
 50
64.85742894317822
 51
67.515132469299331
  0
ARC
  5
15E8
  8
FORM
 62
     7
 10
17.23599357112948
 20
2.291795105104121
 30
0.0
 40
0.0343472402230129
 50
329.18566117941782
 51
69.527151249863806
  0
ARC
  5
15E9
  8
FORM
 62
     7
 10
17.145886072427881
 20
2.1556962750494151
 30
0.0
 40
0.1968392862921899
 50
58.747973844557571
 51
81.106226592028065
  0
ARC
  5
15EA
  8
FORM
 62
     7
 10
17.124947044127829
 20
2.0252080021495891
 30
0.0
 40
0.3289962935825703
 50
81.016817915507374
 51
97.679603827268224
  0
ARC
  5
15EB
  8
FORM
 62
     7
 10
17.159573600239298
 20
2.1240726877937131
 30
0.0
 40
0.2440398498458748
 50
121.5050128230593
 51
139.0957881060705
  0
ARC
  5
15EC
  8
FORM
 62
     7
 10
17.225825242067831
 20
2.2865562155100809
 30
0.0
 40
0.0415466234232141
 50
277.70569210516868
 51
342.69880024124109
  0
ARC
  5
15ED
  8
FORM
 62
     7
 10
17.213074197788071
 20
2.3334352792513711
 30
0.0
 40
0.0899365447321688
 50
250.08394506358289
 51
281.75453717228322
  0
ARC
  5
15EE
  8
FORM
 62
     7
 10
17.2424582627973
 20
2.3437609022874879
 30
0.0
 40
0.1122732419236369
 50
221.18187885427241
 51
237.68378775985289
  0
ARC
  5
15EF
  8
FORM
 62
     7
 10
17.11078230927049
 20
2.213603979985677
 30
0.0
 40
0.0733994924367979
 50
50.003848755011681
 51
75.5416830098399
  0
ARC
  5
15F0
  8
FORM
 62
     7
 10
17.10690002874345
 20
2.2402084319691471
 30
0.0
 40
0.0497074536252231
 50
63.4626603498468
 51
100.74200229027051
  0
ARC
  5
15F1
  8
FORM
 62
     7
 10
17.09763521067913
 20
2.2049366923578511
 30
0.0
 40
0.0841081409133923
 50
89.999999999999588
 51
125.5974615489027
  0
ARC
  5
15F2
  8
FORM
 62
     7
 10
18.09535908495533
 20
2.805145934228654
 30
0.0
 40
1.1637748462988311
 50
197.51922498184919
 51
203.981481444731
  0
ARC
  5
15F3
  8
FORM
 62
     7
 10
16.736982371619181
 20
2.433687501517297
 30
0.0
 40
0.3537389089231183
 50
346.52409876011302
 51
356.71498770316703
  0
ARC
  5
15F4
  8
FORM
 62
     7
 10
15.698852283122079
 20
-0.947959245240991
 30
0.0
 40
3.6379298384249581
 50
69.286600818944052
 51
70.22311760076802
  0
ARC
  5
15F5
  8
FORM
 62
     7
 10
16.92789692922846
 20
2.1257895907104252
 30
0.0
 40
0.1066736432871782
 50
245.40259669902051
 51
275.40975098180542
  0
ARC
  5
15F6
  8
FORM
 62
     7
 10
17.301941284744
 20
1.9333049606058379
 30
0.0
 40
0.4239787481416163
 50
126.68044463040199
 51
139.78708822539889
  0
ARC
  5
15F7
  8
FORM
 62
     7
 10
16.925901396850119
 20
2.42585100124619
 30
0.0
 40
0.4064386631288638
 50
271.69929119420118
 51
283.39540842056908
  0
ARC
  5
15F8
  8
FORM
 62
     7
 10
17.685900196427319
 20
1.487877603185271
 30
0.0
 40
1.0089968057446299
 50
134.5410403491789
 51
138.91474429089899
  0
ARC
  5
15F9
  8
FORM
 62
     7
 10
16.942625607711989
 20
2.1366275124138698
 30
0.0
 40
0.0266928289273625
 50
201.8252958964795
 51
267.16449786715452
  0
ARC
  5
15FA
  8
FORM
 62
     7
 10
16.936879259411789
 20
2.1340951027918962
 30
0.0
 40
0.0204180021895292
 50
124.254854327418
 51
201.22329273937859
  0
ARC
  5
15FB
  8
FORM
 62
     7
 10
16.999050226745201
 20
2.1174828639755172
 30
0.0
 40
0.0895139066856433
 50
283.5751770312794
 51
324.58969283639942
  0
ARC
  5
15FC
  8
FORM
 62
     7
 10
17.05010181640597
 20
2.0748500422369349
 30
0.0
 40
0.0237711578752802
 50
337.14160324238759
 51
47.56496670892831
  0
ARC
  5
15FD
  8
FORM
 62
     7
 10
17.01351320176212
 20
2.0225775754130799
 30
0.0
 40
0.0874305156836371
 50
52.990730681111657
 51
91.748895977531376
  0
ARC
  5
15FE
  8
FORM
 62
     7
 10
16.97607501860476
 20
2.3473211427073291
 30
0.0
 40
0.2398869733850244
 50
261.66603807207321
 51
278.33396192792679
  0
ARC
  5
15FF
  8
FORM
 62
     7
 10
16.904055290181631
 20
2.0802584334887442
 30
0.0
 40
0.0554174778483587
 50
192.64550774538381
 51
248.2223967256862
  0
ARC
  5
1600
  8
FORM
 62
     7
 10
16.890435234000019
 20
2.0865365172575769
 30
0.0
 40
0.0444453205431241
 50
178.88427582775461
 51
204.46998391858139
  0
ARC
  5
1601
  8
FORM
 62
     7
 10
17.00038134049046
 20
2.0753041716250129
 30
0.0
 40
0.1548562786887746
 50
140.54690015149379
 51
175.5193383191162
  0
ARC
  5
1602
  8
FORM
 62
     7
 10
18.525663181526959
 20
0.8608942872864346
 30
0.0
 40
2.1045236570324608
 50
137.45643980933039
 51
141.40545593619069
  0
POLYLINE
  5
1603
  8
FORM
 62
     1
 10
17.275622491608207
 20
3.0402781737931805
 30
0.0
 66
     1
 70
     8
  0
VERTEX
  8
FORM
  5
187E
 10
17.2756
 20
3.04028
 30
0.000000
  70
    32
  0
VERTEX
  8
FORM
  5
187F
 10
17.2747
 20
3.04062
 30
0.000000
  70
    32
  0
VERTEX
  8
FORM
  5
1880
 10
17.2737
 20
3.04086
 30
0.000000
  70
    32
  0
VERTEX
  8
FORM
  5
1881
 10
17.2727
 20
3.04098
 30
0.000000
  70
    32
  0
VERTEX
  8
FORM
  5
1882
 10
17.2716
 20
3.04100
 30
0.000000
  70
    32
  0
VERTEX
  8
FORM
  5
1883
 10
17.2705
 20
3.04091
 30
0.000000
  70
    32
  0
VERTEX
  8
FORM
  5
1884
 10
17.2694
 20
3.04070
 30
0.000000
  70
    32
  0
VERTEX
  8
FORM
  5
1885
 10
17.2682
 20
3.04039
 30
0.000000
  70
    32
  0
VERTEX
  8
FORM
  5
1886
 10
17.2670
 20
3.03997
 30
0.000000
  70
    32
  0
VERTEX
  8
FORM
  5
1887
 10
17.2658
 20
3.03944
 30
0.000000
  70
    32
  0
VERTEX
  8
FORM
  5
1888
 10
17.2646
 20
3.03880
 30
0.000000
  70
    32
  0
VERTEX
  8
FORM
  5
1889
 10
17.2633
 20
3.03806
 30
0.000000
  70
    32
  0
VERTEX
  8
FORM
  5
188A
 10
17.2620
 20
3.03722
 30
0.000000
  70
    32
  0
VERTEX
  8
FORM
  5
188B
 10
17.2607
 20
3.03627
 30
0.000000
  70
    32
  0
VERTEX
  8
FORM
  5
188C
 10
17.2594
 20
3.03523
 30
0.000000
  70
    32
  0
VERTEX
  8
FORM
  5
188D
 10
17.2581
 20
3.03409
 30
0.000000
  70
    32
  0
VERTEX
  8
FORM
  5
188E
 10
17.2568
 20
3.03286
 30
0.000000
  70
    32
  0
VERTEX
  8
FORM
  5
188F
 10
17.2554
 20
3.03154
 30
0.000000
  70
    32
  0
VERTEX
  8
FORM
  5
1890
 10
17.2541
 20
3.03013
 30
0.000000
  70
    32
  0
VERTEX
  8
FORM
  5
1891
 10
17.2528
 20
3.02864
 30
0.000000
  70
    32
  0
VERTEX
  8
FORM
  5
1892
 10
17.2515
 20
3.02706
 30
0.000000
  70
    32
  0
VERTEX
  8
FORM
  5
1893
 10
17.2502
 20
3.02541
 30
0.000000
  70
    32
  0
VERTEX
  8
FORM
  5
1894
 10
17.2489
 20
3.02369
 30
0.000000
  70
    32
  0
VERTEX
  8
FORM
  5
1895
 10
17.2476
 20
3.02190
 30
0.000000
  70
    32
  0
VERTEX
  8
FORM
  5
1896
 10
17.2464
 20
3.02004
 30
0.000000
  70
    32
  0
VERTEX
  8
FORM
  5
1897
 10
17.2451
 20
3.01813
 30
0.000000
  70
    32
  0
VERTEX
  8
FORM
  5
1898
 10
17.2439
 20
3.01616
 30
0.000000
  70
    32
  0
VERTEX
  8
FORM
  5
1899
 10
17.2427
 20
3.01414
 30
0.000000
  70
    32
  0
VERTEX
  8
FORM
  5
189A
 10
17.2416
 20
3.01208
 30
0.000000
  70
    32
  0
VERTEX
  8
FORM
  5
189B
 10
17.2405
 20
3.00997
 30
0.000000
  70
    32
  0
VERTEX
  8
FORM
  5
189C
 10
17.2394
 20
3.00783
 30
0.000000
  70
    32
  0
VERTEX
  8
FORM
  5
189D
 10
17.2384
 20
3.00566
 30
0.000000
  70
    32
  0
VERTEX
  8
FORM
  5
189E
 10
17.2374
 20
3.00347
 30
0.000000
  70
    32
  0
VERTEX
  8
FORM
  5
189F
 10
17.2364
 20
3.00125
 30
0.000000
  70
    32
  0
VERTEX
  8
FORM
  5
18A0
 10
17.2356
 20
2.99902
 30
0.000000
  70
    32
  0
VERTEX
  8
FORM
  5
18A1
 10
17.2347
 20
2.99679
 30
0.000000
  70
    32
  0
VERTEX
  8
FORM
  5
18A2
 10
17.2339
 20
2.99454
 30
0.000000
  70
    32
  0
VERTEX
  8
FORM
  5
18A3
 10
17.2332
 20
2.99231
 30
0.000000
  70
    32
  0
VERTEX
  8
FORM
  5
18A4
 10
17.2325
 20
2.99007
 30
0.000000
  70
    32
  0
VERTEX
  8
FORM
  5
18A5
 10
17.2318
 20
2.98785
 30
0.000000
  70
    32
  0
VERTEX
  8
FORM
  5
18A6
 10
17.2313
 20
2.98565
 30
0.000000
  70
    32
  0
VERTEX
  8
FORM
  5
18A7
 10
17.2307
 20
2.98348
 30
0.000000
  70
    32
  0
VERTEX
  8
FORM
  5
18A8
 10
17.2303
 20
2.98133
 30
0.000000
  70
    32
  0
VERTEX
  8
FORM
  5
18A9
 10
17.2299
 20
2.97921
 30
0.000000
  70
    32
  0
VERTEX
  8
FORM
  5
18AA
 10
17.2296
 20
2.97713
 30
0.000000
  70
    32
  0
VERTEX
  8
FORM
  5
18AB
 10
17.2293
 20
2.97510
 30
0.000000
  70
    32
  0
VERTEX
  8
FORM
  5
18AC
 10
17.2291
 20
2.97312
 30
0.000000
  70
    32
  0
VERTEX
  8
FORM
  5
18AD
 10
17.2289
 20
2.97119
 30
0.000000
  70
    32
  0
VERTEX
  8
FORM
  5
18AE
 10
17.2289
 20
2.96931
 30
0.000000
  70
    32
  0
VERTEX
  8
FORM
  5
18AF
 10
17.2289
 20
2.96751
 30
0.000000
  70
    32
  0
VERTEX
  8
FORM
  5
18B0
 10
17.2289
 20
2.96576
 30
0.000000
  70
    32
  0
VERTEX
  8
FORM
  5
18B1
 10
17.2290
 20
2.96409
 30
0.000000
  70
    32
  0
VERTEX
  8
FORM
  5
18B2
 10
17.2292
 20
2.96250
 30
0.000000
  70
    32
  0
VERTEX
  8
FORM
  5
18B3
 10
17.2295
 20
2.96098
 30
0.000000
  70
    32
  0
VERTEX
  8
FORM
  5
18B4
 10
17.2298
 20
2.95955
 30
0.000000
  70
    32
  0
VERTEX
  8
FORM
  5
18B5
 10
17.2301
 20
2.95820
 30
0.000000
  70
    32
  0
VERTEX
  8
FORM
  5
18B6
 10
17.2306
 20
2.95694
 30
0.000000
  70
    32
  0
VERTEX
  8
FORM
  5
18B7
 10
17.2311
 20
2.95577
 30
0.000000
  70
    32
  0
VERTEX
  8
FORM
  5
18B8
 10
17.2316
 20
2.95470
 30
0.000000
  70
    32
  0
VERTEX
  8
FORM
  5
18B9
 10
17.2323
 20
2.95373
 30
0.000000
  70
    32
  0
VERTEX
  8
FORM
  5
18BA
 10
17.2329
 20
2.95286
 30
0.000000
  70
    32
  0
VERTEX
  8
FORM
  5
18BB
 10
17.2337
 20
2.95209
 30
0.000000
  70
    32
  0
VERTEX
  8
FORM
  5
18BC
 10
17.2344
 20
2.95142
 30
0.000000
  70
    32
  0
VERTEX
  8
FORM
  5
18BD
 10
17.2353
 20
2.95086
 30
0.000000
  70
    32
  0
VERTEX
  8
FORM
  5
18BE
 10
17.2362
 20
2.95041
 30
0.000000
  70
    32
  0
VERTEX
  8
FORM
  5
18BF
 10
17.2371
 20
2.95007
 30
0.000000
  70
    32
  0
VERTEX
  8
FORM
  5
18C0
 10
17.2381
 20
2.94983
 30
0.000000
  70
    32
  0
VERTEX
  8
FORM
  5
18C1
 10
17.2391
 20
2.94971
 30
0.000000
  70
    32
  0
VERTEX
  8
FORM
  5
18C2
 10
17.2401
 20
2.94969
 30
0.000000
  70
    32
  0
VERTEX
  8
FORM
  5
18C3
 10
17.2412
 20
2.94978
 30
0.000000
  70
    32
  0
VERTEX
  8
FORM
  5
18C4
 10
17.2424
 20
2.94999
 30
0.000000
  70
    32
  0
VERTEX
  8
FORM
  5
18C5
 10
17.2435
 20
2.95030
 30
0.000000
  70
    32
  0
VERTEX
  8
FORM
  5
18C6
 10
17.2447
 20
2.95072
 30
0.000000
  70
    32
  0
VERTEX
  8
FORM
  5
18C7
 10
17.2460
 20
2.95125
 30
0.000000
  70
    32
  0
VERTEX
  8
FORM
  5
18C8
 10
17.2472
 20
2.95189
 30
0.000000
  70
    32
  0
VERTEX
  8
FORM
  5
18C9
 10
17.2485
 20
2.95263
 30
0.000000
  70
    32
  0
VERTEX
  8
FORM
  5
18CA
 10
17.2498
 20
2.95347
 30
0.000000
  70
    32
  0
VERTEX
  8
FORM
  5
18CB
 10
17.2511
 20
2.95442
 30
0.000000
  70
    32
  0
VERTEX
  8
FORM
  5
18CC
 10
17.2524
 20
2.95546
 30
0.000000
  70
    32
  0
VERTEX
  8
FORM
  5
18CD
 10
17.2537
 20
2.95660
 30
0.000000
  70
    32
  0
VERTEX
  8
FORM
  5
18CE
 10
17.2550
 20
2.95783
 30
0.000000
  70
    32
  0
VERTEX
  8
FORM
  5
18CF
 10
17.2563
 20
2.95915
 30
0.000000
  70
    32
  0
VERTEX
  8
FORM
  5
18D0
 10
17.2577
 20
2.96056
 30
0.000000
  70
    32
  0
VERTEX
  8
FORM
  5
18D1
 10
17.2590
 20
2.96205
 30
0.000000
  70
    32
  0
VERTEX
  8
FORM
  5
18D2
 10
17.2603
 20
2.96363
 30
0.000000
  70
    32
  0
VERTEX
  8
FORM
  5
18D3
 10
17.2616
 20
2.96528
 30
0.000000
  70
    32
  0
VERTEX
  8
FORM
  5
18D4
 10
17.2629
 20
2.96700
 30
0.000000
  70
    32
  0
VERTEX
  8
FORM
  5
18D5
 10
17.2642
 20
2.96879
 30
0.000000
  70
    32
  0
VERTEX
  8
FORM
  5
18D6
 10
17.2654
 20
2.97065
 30
0.000000
  70
    32
  0
VERTEX
  8
FORM
  5
18D7
 10
17.2667
 20
2.97256
 30
0.000000
  70
    32
  0
VERTEX
  8
FORM
  5
18D8
 10
17.2679
 20
2.97453
 30
0.000000
  70
    32
  0
VERTEX
  8
FORM
  5
18D9
 10
17.2690
 20
2.97655
 30
0.000000
  70
    32
  0
VERTEX
  8
FORM
  5
18DA
 10
17.2702
 20
2.97861
 30
0.000000
  70
    32
  0
VERTEX
  8
FORM
  5
18DB
 10
17.2713
 20
2.98072
 30
0.000000
  70
    32
  0
VERTEX
  8
FORM
  5
18DC
 10
17.2724
 20
2.98286
 30
0.000000
  70
    32
  0
VERTEX
  8
FORM
  5
18DD
 10
17.2734
 20
2.98503
 30
0.000000
  70
    32
  0
VERTEX
  8
FORM
  5
18DE
 10
17.2744
 20
2.98722
 30
0.000000
  70
    32
  0
VERTEX
  8
FORM
  5
18DF
 10
17.2753
 20
2.98944
 30
0.000000
  70
    32
  0
VERTEX
  8
FORM
  5
18E0
 10
17.2762
 20
2.99167
 30
0.000000
  70
    32
  0
VERTEX
  8
FORM
  5
18E1
 10
17.2771
 20
2.99390
 30
0.000000
  70
    32
  0
VERTEX
  8
FORM
  5
18E2
 10
17.2779
 20
2.99615
 30
0.000000
  70
    32
  0
VERTEX
  8
FORM
  5
18E3
 10
17.2786
 20
2.99838
 30
0.000000
  70
    32
  0
VERTEX
  8
FORM
  5
18E4
 10
17.2793
 20
3.00062
 30
0.000000
  70
    32
  0
VERTEX
  8
FORM
  5
18E5
 10
17.2800
 20
3.00284
 30
0.000000
  70
    32
  0
VERTEX
  8
FORM
  5
18E6
 10
17.2805
 20
3.00504
 30
0.000000
  70
    32
  0
VERTEX
  8
FORM
  5
18E7
 10
17.2810
 20
3.00721
 30
0.000000
  70
    32
  0
VERTEX
  8
FORM
  5
18E8
 10
17.2815
 20
3.00936
 30
0.000000
  70
    32
  0
VERTEX
  8
FORM
  5
18E9
 10
17.2819
 20
3.01148
 30
0.000000
  70
    32
  0
VERTEX
  8
FORM
  5
18EA
 10
17.2822
 20
3.01356
 30
0.000000
  70
    32
  0
VERTEX
  8
FORM
  5
18EB
 10
17.2825
 20
3.01559
 30
0.000000
  70
    32
  0
VERTEX
  8
FORM
  5
18EC
 10
17.2827
 20
3.01757
 30
0.000000
  70
    32
  0
VERTEX
  8
FORM
  5
18ED
 10
17.2828
 20
3.01950
 30
0.000000
  70
    32
  0
VERTEX
  8
FORM
  5
18EE
 10
17.2829
 20
3.02137
 30
0.000000
  70
    32
  0
VERTEX
  8
FORM
  5
18EF
 10
17.2829
 20
3.02318
 30
0.000000
  70
    32
  0
VERTEX
  8
FORM
  5
18F0
 10
17.2829
 20
3.02493
 30
0.000000
  70
    32
  0
VERTEX
  8
FORM
  5
18F1
 10
17.2828
 20
3.02660
 30
0.000000
  70
    32
  0
VERTEX
  8
FORM
  5
18F2
 10
17.2826
 20
3.02819
 30
0.000000
  70
    32
  0
VERTEX
  8
FORM
  5
18F3
 10
17.2823
 20
3.02971
 30
0.000000
  70
    32
  0
VERTEX
  8
FORM
  5
18F4
 10
17.2820
 20
3.03114
 30
0.000000
  70
    32
  0
VERTEX
  8
FORM
  5
18F5
 10
17.2816
 20
3.03249
 30
0.000000
  70
    32
  0
VERTEX
  8
FORM
  5
18F6
 10
17.2812
 20
3.03375
 30
0.000000
  70
    32
  0
VERTEX
  8
FORM
  5
18F7
 10
17.2807
 20
3.03492
 30
0.000000
  70
    32
  0
VERTEX
  8
FORM
  5
18F8
 10
17.2801
 20
3.03599
 30
0.000000
  70
    32
  0
VERTEX
  8
FORM
  5
18F9
 10
17.2795
 20
3.03696
 30
0.000000
  70
    32
  0
VERTEX
  8
FORM
  5
18FA
 10
17.2789
 20
3.03783
 30
0.000000
  70
    32
  0
VERTEX
  8
FORM
  5
18FB
 10
17.2781
 20
3.03860
 30
0.000000
  70
    32
  0
VERTEX
  8
FORM
  5
18FC
 10
17.2773
 20
3.03927
 30
0.000000
  70
    32
  0
VERTEX
  8
FORM
  5
18FD
 10
17.2765
 20
3.03983
 30
0.000000
  70
    32
  0
VERTEX
  8
FORM
  5
18FE
 10
17.2756
 20
3.04028
 30
0.000000
  70
    32
  0
SEQEND
  8
FORM
  5
18FF
  0
ARC
  5
1604
  8
FORM
 62
     7
 10
17.31969472840197
 20
2.8767429643067852
 30
0.0
 40
0.2199177503197187
 50
85.485448269952457
 51
155.5006785655419
  0
TEXT
  5
1605
  8
FORM
 62
     7
 10
16.545907219234731
 20
1.726726372181332
 30
0.0
 40
0.0861538460965367
  1
R2-D2 BUILDERS CLUB
  0
ARC
  5
1606
  8
FORM
 10
0.7499999996674376
 20
0.7499999996674092
 30
0.0
 40
0.1538461537438154
 50
180.0
 51
270.0
  0
ARC
  5
1607
  8
FORM
 10
0.7499999996674376
 20
0.7499999996674092
 30
0.0
 40
0.3076923074876307
 50
180.0
 51
270.0
  0
ARC
  5
1608
  8
FORM
 10
0.7499999996674376
 20
0.7499999996674092
 30
0.0
 40
0.3461538459235846
 50
180.0
 51
270.0
  0
ARC
  5
1609
  8
FORM
 10
0.7499999996674376
 20
0.7499999996674092
 30
0.0
 40
0.4999999996674
 50
180.0
 51
270.0
  0
ARC
  5
160A
  8
FORM
 10
0.7499999996674376
 20
15.153846144098431
 30
0.0
 40
0.4999999996674
 50
90.0
 51
180.0
  0
ARC
  5
160B
  8
FORM
 10
0.7499999996674376
 20
15.153846144098431
 30
0.0
 40
0.3461538459235846
 50
90.0
 51
180.0
  0
ARC
  5
160C
  8
FORM
 10
0.7499999996674376
 20
15.153846144098431
 30
0.0
 40
0.3076923074876307
 50
90.0
 51
180.0
  0
ARC
  5
160D
  8
FORM
 10
0.7499999996674376
 20
15.153846144098431
 30
0.0
 40
0.1538461537438154
 50
90.0
 51
180.0
  0
ARC
  5
160E
  8
FORM
 10
21.249999986363441
 20
15.153846144098431
 30
0.0
 40
0.3076923074876307
 50
0.0
 51
90.0
  0
ARC
  5
160F
  8
FORM
 10
21.249999986363441
 20
15.153846144098431
 30
0.0
 40
0.3461538459235846
 50
0.0
 51
90.0
  0
ARC
  5
1610
  8
FORM
 10
21.249999986363441
 20
15.153846144098431
 30
0.0
 40
0.4999999996674
 50
0.0
 51
90.0
  0
ARC
  5
1611
  8
FORM
 10
21.249999986363441
 20
15.153846144098431
 30
0.0
 40
0.1538461537438154
 50
0.0
 51
90.0
  0
ARC
  5
1612
  8
FORM
 10
21.249999986363441
 20
0.7499999996674092
 30
0.0
 40
0.4999999996674
 50
270.0
 51
0.0
  0
ARC
  5
1613
  8
FORM
 10
21.249999986363441
 20
0.7499999996674092
 30
0.0
 40
0.3461538459235846
 50
270.0
 51
0.0
  0
ARC
  5
1614
  8
FORM
 10
21.249999986363441
 20
0.7499999996674092
 30
0.0
 40
0.3076923074876307
 50
270.0
 51
0.0
  0
ARC
  5
1615
  8
FORM
 10
21.249999986363441
 20
0.7499999996674092
 30
0.0
 40
0.1538461537438154
 50
270.0
 51
0.0
  0
LINE
  5
1616
  8
FORM
 10
21.249999986363441
 20
0.4423076921797886
 30
0.0
 11
0.7499999996674376
 21
0.442307692179778
 31
0.0
  0
LINE
  5
1617
  8
FORM
 10
21.249999986363441
 20
0.4038461537438352
 30
0.0
 11
0.7499999996674376
 21
0.4038461537438245
 31
0.0
  0
LINE
  5
1618
  8
FORM
 10
21.249999986363441
 20
0.2500000000000071
 30
0.0
 11
0.7499999996674376
 21
0.25
 31
0.0
  0
LINE
  5
1619
  8
FORM
 10
21.55769229385108
 20
0.7499999996674092
 30
0.0
 11
21.55769229385108
 21
15.153846144098431
 31
0.0
  0
LINE
  5
161A
  8
FORM
 10
21.59615383228703
 20
0.7499999996674092
 30
0.0
 11
21.59615383228703
 21
15.153846144098431
 31
0.0
  0
LINE
  5
161B
  8
FORM
 10
21.74999998603084
 20
0.7499999996674092
 30
0.0
 11
21.74999998603084
 21
15.153846144098431
 31
0.0
  0
LINE
  5
161C
  8
FORM
 10
21.249999986363441
 20
15.46153845158606
 30
0.0
 11
0.7499999996674376
 21
15.46153845158606
 31
0.0
  0
LINE
  5
161D
  8
FORM
 10
21.249999986363441
 20
15.499999990022021
 30
0.0
 11
0.7499999996674376
 21
15.499999990022021
 31
0.0
  0
LINE
  5
161E
  8
FORM
 10
21.249999986363441
 20
15.653846143765829
 30
0.0
 11
0.7499999996674376
 21
15.653846143765829
 31
0.0
  0
LINE
  5
161F
  8
FORM
 10
0.4423076921798029
 20
0.7499999996674092
 30
0.0
 11
0.4423076921798029
 21
15.153846144098431
 31
0.0
  0
LINE
  5
1620
  8
FORM
 10
0.4038461537438565
 20
0.7499999996674092
 30
0.0
 11
0.4038461537438565
 21
15.153846144098431
 31
0.0
  0
LINE
  5
1621
  8
FORM
 10
0.25
 20
0.7499999996674092
 30
0.0
 11
0.2500000000000426
 21
15.153846144098431
 31
0.0
  0
LINE
  5
1622
  8
FORM
  6
CONTINUOUS
 10
16.703251912464879
 20
0.7499999996674092
 30
0.0
 11
21.02491344805162
 21
0.7499999996674092
 31
0.0
  0
LINE
  5
1623
  8
FORM
  6
CONTINUOUS
 10
21.249999986363441
 20
3.1359173057725931
 30
0.0
 11
21.249999986363441
 21
0.9750865379792159
 31
0.0
  0
ARC
  5
1624
  8
FORM
  6
CONTINUOUS
 10
21.02491344805162
 20
0.9750865379792159
 30
0.0
 40
0.2250865383118096
 50
270.0
 51
0.0
  0
ARC
  5
1625
  8
FORM
  6
CONTINUOUS
 10
21.02491344805162
 20
3.1359173057725931
 30
0.0
 40
0.2250865383118096
 50
359.99999999999989
 51
90.0
  0
ARC
  5
1626
  8
FORM
  6
CONTINUOUS
 10
16.703251912464879
 20
0.9750865379792159
 30
0.0
 40
0.2250865383118096
 50
180.0
 51
270.0
  0
ARC
  5
1627
  8
FORM
  6
CONTINUOUS
 10
16.703251912464879
 20
3.1359173057725931
 30
0.0
 40
0.2250865383118096
 50
90.0
 51
180.0
  0
LINE
  5
176C
  8
0
 10
0.7499999996674376
 20
0.7499999996674092
 30
0.0
 11
0.7499999996674376
 21
1.7499999996674089
 31
0.0
  0
LINE
  5
176D
  8
0
 10
0.7499999996674376
 20
0.8749999996674091
 30
0.0
 11
0.8749999996674375
 21
0.8749999996674091
 31
0.0
  0
LINE
  5
176E
  8
0
 10
0.7499999996674376
 20
0.9999999996674091
 30
0.0
 11
0.9999999996674375
 21
0.9999999996674091
 31
0.0
  0
LINE
  5
176F
  8
0
 10
0.7499999996674376
 20
1.1249999996674089
 30
0.0
 11
0.8749999996674375
 21
1.1249999996674089
 31
0.0
  0
LINE
  5
1770
  8
0
 10
0.7499999996674376
 20
1.2499999996674089
 30
0.0
 11
1.1249999996674369
 21
1.2499999996674089
 31
0.0
  0
LINE
  5
1771
  8
0
 10
0.7499999996674376
 20
1.3749999996674089
 30
0.0
 11
0.8749999996674375
 21
1.3749999996674089
 31
0.0
  0
LINE
  5
1772
  8
0
 10
0.7499999996674376
 20
1.4999999996674089
 30
0.0
 11
0.9999999996674375
 21
1.4999999996674089
 31
0.0
  0
LINE
  5
1773
  8
0
 10
0.7499999996674376
 20
1.6249999996674089
 30
0.0
 11
0.8749999996674375
 21
1.6249999996674089
 31
0.0
  0
LINE
  5
1774
  8
0
 10
0.7499999996674376
 20
1.7499999996674089
 30
0.0
 11
1.1249999996674369
 21
1.7499999996674089
 31
0.0
  0
LINE
  5
1775
  8
0
 10
0.7499999996674376
 20
0.7499999996674092
 30
0.0
 11
1.1249999996674369
 21
0.7499999996674092
 31
0.0
  0
TEXT
  5
1776
  8
0
 10
1.1742687732938739
 20
1.216959438666926
 30
0.0
 40
0.0625
  1
1/2"
  0
TEXT
  5
1777
  8
0
 10
0.9242687732938748
 20
1.091959438666926
 30
0.0
 40
0.0625
  1
3/8"
  0
TEXT
  5
1778
  8
0
 10
1.0492687732938739
 20
0.966959438666926
 30
0.0
 40
0.0625
  1
1/4"
  0
TEXT
  5
1779
  8
0
 10
0.9242687732938748
 20
0.841959438666926
 30
0.0
 40
0.0625
  1
1/8"
  0
TEXT
  5
177A
  8
0
 10
0.9242687732938748
 20
1.341959438666926
 30
0.0
 40
0.0625
  1
5/8"
  0
TEXT
  5
177B
  8
0
 10
1.0492687732938739
 20
1.466959438666926
 30
0.0
 40
0.0625
  1
3/4"
  0
TEXT
  5
177C
  8
0
 10
0.9242687732938748
 20
1.591959438666926
 30
0.0
 40
0.0625
  1
7/8"
  0
TEXT
  5
177D
  8
0
 10
1.1742687732938739
 20
1.716959438666926
 30
0.0
 40
0.0625
  1
1"
  0
LINE
  5
17A9
  8
BODY_-_COIN_RETURN_PANEL_-
 10
15.81507837402836
 20
12.005690804417471
 30
0.0
 11
15.80801317806074
 21
12.0450618979499
 31
0.0
  0
LINE
  5
1833
  8
DIMENSIONS
 10
12.59381932226875
 20
11.94420001201475
 30
0.0
 11
12.36299011964879
 21
10.6580163344171
 31
0.0
  0
LINE
  5
1834
  8
DIMENSIONS
 10
15.82611774272778
 20
11.944173470773061
 30
0.0
 11
16.056925822940279
 21
10.65798600255185
 31
0.0
  0
ARC
  5
1835
  8
DIMENSIONS
 10
14.210042480083009
 20
20.9498189776468
 30
0.0
 40
10.39373278573002
 50
261.20370302158199
 51
266.7989223714672
  0
ARC
  5
1836
  8
DIMENSIONS
 10
14.210042480083009
 20
20.9498189776468
 30
0.0
 40
10.39373278573002
 50
273.12400649697389
 51
278.79535603737139
  0
SOLID
  5
1837
  8
DIMENSIONS
 10
12.613745922411921
 20
10.637237516592711
 30
0.0
 11
12.627478916855271
 21
10.71943149026513
 31
0.0
 12
12.374030498616319
 22
10.71953348675898
 32
0.0
 13
12.374030498616319
 23
10.71953348675898
 33
0.0
  0
SOLID
  5
1838
  8
DIMENSIONS
 10
15.79243803436106
 20
10.71940550196399
 30
0.0
 11
15.80616967897044
 21
10.637211302772281
 31
0.0
 12
16.045886454240868
 22
10.71950333619627
 32
0.0
 13
16.045886454240868
 23
10.71950333619627
 33
0.0
  0
TEXT
  5
183A
  8
DIMENSIONS
 10
13.71590951539658
 20
10.43108619226717
 30
0.0
 40
0.25
  1
3.226
  0
LINE
  5
184F
  8
DIMENSIONS
 10
13.09068871423993
 20
11.86904822859141
 30
0.0
 11
13.018503187228809
 21
11.283442281490389
 31
0.0
  0
LINE
  5
1850
  8
DIMENSIONS
 10
14.5997964585628
 20
11.80862419325091
 30
0.0
 11
14.624931136445481
 21
11.21912158633751
 31
0.0
  0
ARC
  5
1852
  8
DIMENSIONS
 10
14.21004248008313
 20
20.949818977646402
 30
0.0
 40
9.6770381984159677
 50
256.72922888103591
 51
259.82553691999999
  0
SOLID
  5
1853
  8
DIMENSIONS
 10
14.37063150053733
 20
11.31181071834175
 30
0.0
 11
14.37442404368087
 21
11.228563730042181
 31
0.0
 12
14.622268737007809
 22
11.28156485362258
 32
0.0
 13
14.622268737007809
 23
11.28156485362258
 33
0.0
  0
SOLID
  5
1854
  8
DIMENSIONS
 10
13.27121859324375
 20
11.280841276203359
 30
0.0
 11
13.278933186545521
 21
11.36381675146343
 31
0.0
 12
13.026149464114461
 22
11.345472793738701
 32
0.0
 13
13.026149464114461
 23
11.345472793738701
 33
0.0
  0
TEXT
  5
1856
  8
DIMENSIONS
 10
14.883972895558291
 20
11.16539883155882
 30
0.0
 40
0.25
  1
1.500
  0
SOLID
  5
1858
  8
DIMENSIONS
 10
12.262966120237669
 20
11.512998247655
 30
0.0
 11
12.24725920462496
 21
11.431158543071099
 31
0.0
 12
12.50063177618301
 22
11.42495764852494
 32
0.0
 13
12.50063177618301
 23
11.42495764852494
 33
0.0
  0
ARC
  5
1859
  8
DIMENSIONS
 10
14.21004248008313
 20
20.949818977646402
 30
0.0
 40
9.6770381984159677
 50
262.9728052232914
 51
273.66217553186561
  0
LINE
  5
185A
  8
DIMENSIONS
 10
11.98864691513378
 20
11.531195403173051
 30
0.0
 11
11.76635111804886
 21
11.531195403173051
 31
0.0
  0
TEXT
  5
185B
  8
DIMENSIONS
 10
10.64469804376378
 20
11.422029508260421
 30
0.0
 40
0.25
  1
0.500
  0
LINE
  5
185C
  8
BODY_-_COIN_RETURN_PANEL_-
 10
15.81507837402836
 20
8.1962104497039121
 30
0.0
 11
15.81507837402836
 21
5.4462104497039121
 31
0.0
  0
LINE
  5
185D
  8
BODY_-_COIN_RETURN_PANEL_-
 10
14.59713405912513
 20
7.6962104497039121
 30
0.0
 11
14.59713405912513
 21
5.5962104497039116
 31
0.0
  0
LINE
  5
185E
  8
BODY_-_COIN_RETURN_PANEL_-
 10
13.09833499112557
 20
7.6962104497039077
 30
0.0
 11
13.098334991125579
 21
5.5962104497039133
 31
0.0
  0
LINE
  5
185F
  8
BODY_-_COIN_RETURN_PANEL_-
 10
12.604859701236281
 20
8.1962104497039103
 30
0.0
 11
12.604859701236281
 21
5.4462104497039121
 31
0.0
  0
ENDSEC
  0
EOF
