  0
SECTION
  2
HEADER
  9
$ACADVER
  1
AC1009
  9
$INSBASE
 10
0.0
 20
0.0
 30
0.0
  9
$EXTMIN
 10
-0.0010466195513956
 20
-0.0004568457649654
 30
-0.0000000349181948
  9
$EXTMAX
 10
22.00063731806743
 20
17.000008730093629
 30
0.0000000814935746
  9
$LIMMIN
 10
0.0
 20
0.0
  9
$LIMMAX
 10
12.0
 20
9.0
  9
$ORTHOMODE
 70
     1
  9
$REGENMODE
 70
     1
  9
$FILLMODE
 70
     1
  9
$QTEXTMODE
 70
     0
  9
$MIRRTEXT
 70
     1
  9
$DRAGMODE
 70
     2
  9
$LTSCALE
 40
1.0
  9
$OSMODE
 70
    39
  9
$ATTMODE
 70
     1
  9
$TEXTSIZE
 40
0.1875
  9
$TRACEWID
 40
0.05
  9
$TEXTSTYLE
  7
STANDARD
  9
$CLAYER
  8
0
  9
$CELTYPE
  6
BYLAYER
  9
$CECOLOR
 62
   256
  9
$DIMSCALE
 40
1.0
  9
$DIMASZ
 40
0.25
  9
$DIMEXO
 40
0.0625
  9
$DIMDLI
 40
1.0
  9
$DIMRND
 40
0.0
  9
$DIMDLE
 40
0.0
  9
$DIMEXE
 40
0.0625
  9
$DIMTP
 40
0.0
  9
$DIMTM
 40
0.0
  9
$DIMTXT
 40
0.25
  9
$DIMCEN
 40
0.0
  9
$DIMTSZ
 40
0.0
  9
$DIMTOL
 70
     0
  9
$DIMLIM
 70
     0
  9
$DIMTIH
 70
     1
  9
$DIMTOH
 70
     1
  9
$DIMSE1
 70
     0
  9
$DIMSE2
 70
     0
  9
$DIMTAD
 70
     0
  9
$DIMZIN
 70
     0
  9
$DIMBLK
  1

  9
$DIMASO
 70
     1
  9
$DIMSHO
 70
     1
  9
$DIMPOST
  1

  9
$DIMAPOST
  1

  9
$DIMALT
 70
     0
  9
$DIMALTD
 70
     2
  9
$DIMALTF
 40
25.399999999999999
  9
$DIMLFAC
 40
1.0
  9
$DIMTOFL
 70
     0
  9
$DIMTVP
 40
0.0
  9
$DIMTIX
 70
     0
  9
$DIMSOXD
 70
     0
  9
$DIMSAH
 70
     0
  9
$DIMBLK1
  1

  9
$DIMBLK2
  1

  9
$DIMSTYLE
  2
STANDARD
  9
$DIMCLRD
 70
   256
  9
$DIMCLRE
 70
   256
  9
$DIMCLRT
 70
   256
  9
$DIMTFAC
 40
1.0
  9
$DIMGAP
 40
0.0625
  9
$LUNITS
 70
     2
  9
$LUPREC
 70
     8
  9
$SKETCHINC
 40
0.1
  9
$FILLETRAD
 40
0.0
  9
$AUNITS
 70
     0
  9
$AUPREC
 70
     0
  9
$MENU
  1
.
  9
$ELEVATION
 40
0.0
  9
$PELEVATION
 40
0.0
  9
$THICKNESS
 40
0.0
  9
$LIMCHECK
 70
     0
  9
$BLIPMODE
 70
     0
  9
$CHAMFERA
 40
0.0
  9
$CHAMFERB
 40
0.0
  9
$SKPOLY
 70
     0
  9
$TDCREATE
 40
2452227.898066666
  9
$TDUPDATE
 40
2453462.490290266
  9
$TDINDWG
 40
1.8247991781999999
  9
$TDUSRTIMER
 40
1.8247985995
  9
$USRTIMER
 70
     1
  9
$ANGBASE
 50
0.0
  9
$ANGDIR
 70
     0
  9
$PDMODE
 70
     0
  9
$PDSIZE
 40
0.0
  9
$PLINEWID
 40
0.0
  9
$COORDS
 70
     0
  9
$SPLFRAME
 70
     0
  9
$SPLINETYPE
 70
     6
  9
$SPLINESEGS
 70
     8
  9
$ATTDIA
 70
     0
  9
$ATTREQ
 70
     1
  9
$HANDLING
 70
     1
  9
$HANDSEED
  5
DD1
  9
$SURFTAB1
 70
     6
  9
$SURFTAB2
 70
     6
  9
$SURFTYPE
 70
     6
  9
$SURFU
 70
     6
  9
$SURFV
 70
     6
  9
$UCSNAME
  2

  9
$UCSORG
 10
0.0
 20
0.0
 30
0.0
  9
$UCSXDIR
 10
1.0
 20
0.0
 30
0.0
  9
$UCSYDIR
 10
0.0
 20
1.0
 30
0.0
  9
$PUCSNAME
  2

  9
$PUCSORG
 10
0.0
 20
0.0
 30
0.0
  9
$PUCSXDIR
 10
1.0
 20
0.0
 30
0.0
  9
$PUCSYDIR
 10
0.0
 20
1.0
 30
0.0
  9
$USERI1
 70
     0
  9
$USERI2
 70
     0
  9
$USERI3
 70
     0
  9
$USERI4
 70
     0
  9
$USERI5
 70
     0
  9
$USERR1
 40
0.0
  9
$USERR2
 40
0.0
  9
$USERR3
 40
0.0
  9
$USERR4
 40
0.0
  9
$USERR5
 40
0.0
  9
$WORLDVIEW
 70
     1
  9
$SHADEDGE
 70
     3
  9
$SHADEDIF
 70
    70
  9
$TILEMODE
 70
     1
  9
$MAXACTVP
 70
    64
  9
$PLIMCHECK
 70
     0
  9
$PEXTMIN
 10
1.0000000000000000E+020
 20
1.0000000000000000E+020
 30
1.0000000000000000E+020
  9
$PEXTMAX
 10
-1.0000000000000000E+020
 20
-1.0000000000000000E+020
 30
-1.0000000000000000E+020
  9
$PLIMMIN
 10
0.0
 20
0.0
  9
$PLIMMAX
 10
12.0
 20
9.0
  9
$UNITMODE
 70
     0
  9
$VISRETAIN
 70
     1
  9
$PLINEGEN
 70
     0
  9
$PSLTSCALE
 70
     1
  0
ENDSEC
  0
SECTION
  2
TABLES
  0
TABLE
  2
VPORT
 70
     2
  0
VPORT
  2
*ACTIVE
 70
     0
 10
0.0
 20
0.0
 11
1.0
 21
1.0
 12
11.000634992838171
 22
8.499775902572372
 13
0.0
 23
0.0
 14
0.5
 24
0.5
 15
0.5
 25
0.5
 16
0.0
 26
0.0
 36
1.0
 17
0.0
 27
0.0
 37
0.0
 40
17.221697311926128
 41
2.1727078891257992
 42
50.0
 43
0.0
 44
0.0
 50
0.0
 51
0.0
 71
     0
 72
 20000
 73
     1
 74
     2
 75
     0
 76
     0
 77
     0
 78
     0
  0
ENDTAB
  0
TABLE
  2
LTYPE
 70
     2
  0
LTYPE
  2
CONTINUOUS
 70
     0
  3
Solid line
 72
    65
 73
     0
 40
0.0
  0
LTYPE
  2
HIDDEN2
 70
     0
  3
Hidden (.5x) _ _ _ _ _ _ _ _ _ _ _ _ _ _ _ _ _
 72
    65
 73
     2
 40
0.1875
 49
0.125
 49
-0.0625
  0
ENDTAB
  0
TABLE
  2
LAYER
 70
     5
  0
LAYER
  2
0
 70
     0
 62
     7
  6
CONTINUOUS
  0
LAYER
  2
BODY_-_COIN_SLOT_STRIP
 70
     0
 62
     7
  6
CONTINUOUS
  0
LAYER
  2
DIMENSIONS
 70
     0
 62
     1
  6
CONTINUOUS
  0
LAYER
  2
DEFPOINTS
 70
     0
 62
     7
  6
CONTINUOUS
  0
LAYER
  2
FORM
 70
     0
 62
     5
  6
CONTINUOUS
  0
ENDTAB
  0
TABLE
  2
STYLE
 70
     2
  0
STYLE
  2
STANDARD
 70
     0
 40
0.0
 41
1.0
 50
0.0
 71
     0
 42
0.1875
  3
simplex.shx
  4

  0
ENDTAB
  0
TABLE
  2
VIEW
 70
     0
  0
ENDTAB
  0
TABLE
  2
UCS
 70
     0
  0
ENDTAB
  0
TABLE
  2
APPID
 70
     5
  0
APPID
  2
ACAD
 70
     0
  0
APPID
  2
ACAD_DSTYLE_DIMTEXT_FILL
 70
     0
  0
APPID
  2
ACAECLAYERSTANDARD
 70
     0
  0
APPID
  2
DCO15
 70
     0
  0
APPID
  2
ACAD_PSEXT
 70
     0
  0
ENDTAB
  0
TABLE
  2
DIMSTYLE
 70
     2
  0
DIMSTYLE
  2
STANDARD
 70
     0
  3

  4

  5

  6

  7

 40
1.0
 41
0.25
 42
0.0625
 43
1.0
 44
0.0625
 45
0.0
 46
0.0
 47
0.0
 48
0.0
140
0.25
141
0.0
142
0.0
143
25.399999999999999
144
1.0
145
0.0
146
1.0
147
0.0625
 71
     0
 72
     0
 73
     1
 74
     1
 75
     0
 76
     0
 77
     0
 78
     0
170
     0
171
     2
172
     0
173
     0
174
     0
175
     0
176
   256
177
   256
178
   256
  0
ENDTAB
  0
ENDSEC
  0
SECTION
  2
BLOCKS
  0
BLOCK
  8
0
  2
$MODEL_SPACE
 70
     0
 10
0.0
 20
0.0
 30
0.0
  3
$MODEL_SPACE
  1

  0
ENDBLK
  5
9
  8
0
  0
BLOCK
 67
     1
  8
0
  2
$PAPER_SPACE
 70
     0
 10
0.0
 20
0.0
 30
0.0
  3
$PAPER_SPACE
  1

  0
ENDBLK
  5
E
 67
     1
  8
0
  0
BLOCK
  8
0
  2
*U1
 70
     1
 10
0.0
 20
0.0
 30
0.0
  3
*U1
  1

  0
TEXT
  5
D4C
  8
DIMENSIONS
 10
5.0002272960312171
 20
2.8376947257454681
 30
0.0
 40
0.25
  1
1.480
  0
ENDBLK
  5
D4E
  8
0
  0
ENDSEC
  0
SECTION
  2
ENTITIES
  0
LINE
  5
305
  8
BODY_-_COIN_SLOT_STRIP
 10
11.519141178825061
 20
9.6908975894155596
 30
0.0
 11
11.519141178825061
 21
9.4408975894155596
 31
0.0
  0
LINE
  5
306
  8
BODY_-_COIN_SLOT_STRIP
 10
4.7364177722216851
 20
3.8376947257454681
 30
0.0
 11
6.2164177722216891
 21
3.8376947257454672
 31
0.0
  0
LINE
  5
309
  8
BODY_-_COIN_SLOT_STRIP
 10
4.8649177722216868
 20
4.6906947257454661
 30
0.0
 11
6.0879177722216857
 21
4.6906947257454661
 31
0.0
  0
LINE
  5
311
  8
BODY_-_COIN_SLOT_STRIP
 10
5.03891777222168
 20
9.6283975894155596
 30
0.0
 11
5.91391777222168
 21
9.6283975894155596
 31
0.0
  0
LINE
  5
312
  8
BODY_-_COIN_SLOT_STRIP
 10
5.03891777222168
 20
9.5033975894155596
 30
0.0
 11
5.91391777222168
 21
9.5033975894155596
 31
0.0
  0
LINE
  5
313
  8
BODY_-_COIN_SLOT_STRIP
 10
5.91391777222168
 20
9.6283975894155596
 30
0.0
 11
5.91391777222168
 21
9.5033975894155596
 31
0.0
  0
LINE
  5
314
  8
BODY_-_COIN_SLOT_STRIP
 10
5.03891777222168
 20
9.6283975894155596
 30
0.0
 11
5.03891777222168
 21
9.5033975894155596
 31
0.0
  0
LINE
  5
319
  8
BODY_-_COIN_SLOT_STRIP
 10
4.8649177722216868
 20
9.6908975894155578
 30
0.0
 11
6.0879177722216857
 21
9.6908975894155596
 31
0.0
  0
LINE
  5
31A
  8
BODY_-_COIN_SLOT_STRIP
 10
4.8649177722216868
 20
9.4408975894155596
 30
0.0
 11
6.0879177722216857
 21
9.4408975894155596
 31
0.0
  0
LINE
  5
31F
  8
BODY_-_COIN_SLOT_STRIP
 10
6.0879177722216857
 20
9.4408975894155596
 30
0.0
 11
6.0879177722216857
 21
9.6908975894155596
 31
0.0
  0
LINE
  5
321
  8
BODY_-_COIN_SLOT_STRIP
 10
4.8649177722216868
 20
9.4408975894155596
 30
0.0
 11
4.8649177722216868
 21
9.6908975894155578
 31
0.0
  0
LINE
  5
3A4
  8
DIMENSIONS
 10
6.1504177722216857
 20
4.6906947257454661
 30
0.0
 11
7.03891777222168
 21
4.6906947257454661
 31
0.0
  0
LINE
  5
3A5
  8
DIMENSIONS
 10
6.28891777222168
 20
4.3376947257454672
 30
0.0
 11
7.03891777222168
 21
4.3376947257454672
 31
0.0
  0
LINE
  5
3A6
  8
DIMENSIONS
 10
6.97641777222168
 20
4.9406947257454661
 30
0.0
 11
6.97641777222168
 21
5.4406947257454661
 31
0.0
  0
LINE
  5
3A7
  8
DIMENSIONS
 10
6.97641777222168
 20
4.0876947257454672
 30
0.0
 11
6.97641777222168
 21
3.8376947257454672
 31
0.0
  0
LINE
  5
3A8
  8
DIMENSIONS
 10
7.22641777222168
 20
5.4406947257454661
 30
0.0
 11
6.97641777222168
 21
5.4406947257454661
 31
0.0
  0
SOLID
  5
3A9
  8
DIMENSIONS
 10
6.9347511055550219
 20
4.9406947257454661
 30
0.0
 11
7.0180844388883514
 21
4.9406947257454661
 31
0.0
 12
6.97641777222168
 22
4.6906947257454661
 32
0.0
 13
6.97641777222168
 23
4.6906947257454661
 33
0.0
  0
SOLID
  5
3AA
  8
DIMENSIONS
 10
6.9347511055550219
 20
4.0876947257454672
 30
0.0
 11
7.0180844388883514
 21
4.0876947257454672
 31
0.0
 12
6.97641777222168
 22
4.3376947257454672
 32
0.0
 13
6.97641777222168
 23
4.3376947257454672
 33
0.0
  0
LINE
  5
3AC
  8
DIMENSIONS
 10
5.97641777222168
 20
11.888397589415559
 30
0.0
 11
7.03891777222168
 21
11.888397589415559
 31
0.0
  0
LINE
  5
3AD
  8
DIMENSIONS
 10
5.97641777222168
 20
12.01339758941555
 30
0.0
 11
7.03891777222168
 21
12.01339758941555
 31
0.0
  0
LINE
  5
3AE
  8
DIMENSIONS
 10
6.97641777222168
 20
11.638397589415559
 30
0.0
 11
6.97641777222168
 21
11.013397589415559
 31
0.0
  0
LINE
  5
3AF
  8
DIMENSIONS
 10
6.97641777222168
 20
12.263397589415559
 30
0.0
 11
6.97641777222168
 21
12.513397589415559
 31
0.0
  0
LINE
  5
3B0
  8
DIMENSIONS
 10
6.97641777222168
 20
11.013397589415559
 30
0.0
 11
7.22641777222168
 21
11.013397589415559
 31
0.0
  0
SOLID
  5
3B1
  8
DIMENSIONS
 10
6.9347511055550219
 20
11.638397589415559
 30
0.0
 11
7.0180844388883514
 21
11.638397589415559
 31
0.0
 12
6.97641777222168
 22
11.888397589415559
 32
0.0
 13
6.97641777222168
 23
11.888397589415559
 33
0.0
  0
SOLID
  5
3B2
  8
DIMENSIONS
 10
6.9347511055550219
 20
12.263397589415559
 30
0.0
 11
7.0180844388883514
 21
12.263397589415559
 31
0.0
 12
6.97641777222168
 22
12.01339758941555
 32
0.0
 13
6.97641777222168
 23
12.01339758941555
 33
0.0
  0
LINE
  5
3BC
  8
DIMENSIONS
 10
5.03891777222168
 20
12.075897589415559
 30
0.0
 11
5.03891777222168
 21
12.95089758941555
 31
0.0
  0
LINE
  5
3BD
  8
DIMENSIONS
 10
5.91391777222168
 20
12.075897589415559
 30
0.0
 11
5.91391777222168
 21
12.95089758941555
 31
0.0
  0
LINE
  5
3BE
  8
DIMENSIONS
 10
4.78891777222168
 20
12.888397589415559
 30
0.0
 11
4.53891777222168
 21
12.888397589415559
 31
0.0
  0
LINE
  5
3BF
  8
DIMENSIONS
 10
6.16391777222168
 20
12.888397589415559
 30
0.0
 11
6.41391777222168
 21
12.888397589415559
 31
0.0
  0
SOLID
  5
3C0
  8
DIMENSIONS
 10
4.78891777222168
 20
12.93006425608222
 30
0.0
 11
4.78891777222168
 21
12.84673092274889
 31
0.0
 12
5.03891777222168
 22
12.888397589415559
 32
0.0
 13
5.03891777222168
 23
12.888397589415559
 33
0.0
  0
SOLID
  5
3C1
  8
DIMENSIONS
 10
6.16391777222168
 20
12.93006425608222
 30
0.0
 11
6.16391777222168
 21
12.84673092274889
 31
0.0
 12
5.91391777222168
 22
12.888397589415559
 32
0.0
 13
5.91391777222168
 23
12.888397589415559
 33
0.0
  0
LINE
  5
3CA
  8
DIMENSIONS
 10
11.456641178825061
 20
12.075897589415559
 30
0.0
 11
10.706641178825061
 21
12.075897589415559
 31
0.0
  0
LINE
  5
3CB
  8
DIMENSIONS
 10
11.456641178825061
 20
11.82589758941555
 30
0.0
 11
10.706641178825061
 21
11.82589758941555
 31
0.0
  0
LINE
  5
3CC
  8
DIMENSIONS
 10
10.769141178825061
 20
12.32589758941555
 30
0.0
 11
10.769141178825061
 21
12.888397589415559
 31
0.0
  0
LINE
  5
3CD
  8
DIMENSIONS
 10
10.769141178825061
 20
11.575897589415559
 30
0.0
 11
10.769141178825061
 21
11.30804936206702
 31
0.0
  0
LINE
  5
3CE
  8
DIMENSIONS
 10
10.769141178825061
 20
12.888397589415559
 30
0.0
 11
10.519141178825061
 21
12.888397589415559
 31
0.0
  0
SOLID
  5
3CF
  8
DIMENSIONS
 10
10.727474512158389
 20
12.32589758941555
 30
0.0
 11
10.810807845491739
 21
12.32589758941555
 31
0.0
 12
10.769141178825061
 22
12.075897589415559
 32
0.0
 13
10.769141178825061
 23
12.075897589415559
 33
0.0
  0
SOLID
  5
3D0
  8
DIMENSIONS
 10
10.727474512158389
 20
11.575897589415559
 30
0.0
 11
10.81080784549172
 21
11.575897589415559
 31
0.0
 12
10.769141178825061
 22
11.82589758941555
 32
0.0
 13
10.769141178825061
 23
11.82589758941555
 33
0.0
  0
LINE
  5
3D2
  8
DIMENSIONS
 10
6.0879177722216857
 20
4.7531947257454661
 30
0.0
 11
6.0879177722216857
 21
5.5031947257454661
 31
0.0
  0
LINE
  5
3D3
  8
DIMENSIONS
 10
4.8649177722216868
 20
4.7531947257454661
 30
0.0
 11
4.8649177722216868
 21
5.5031947257454661
 31
0.0
  0
LINE
  5
3D4
  8
DIMENSIONS
 10
6.3379177722216857
 20
5.4406947257454661
 30
0.0
 11
6.5879177722216857
 21
5.4406947257454661
 31
0.0
  0
LINE
  5
3D5
  8
DIMENSIONS
 10
4.6149177722216868
 20
5.4406947257454661
 30
0.0
 11
4.3649177722216868
 21
5.4406947257454661
 31
0.0
  0
SOLID
  5
3D6
  8
DIMENSIONS
 10
6.3379177722216857
 20
5.482361392412133
 30
0.0
 11
6.3379177722216857
 21
5.3990280590788
 31
0.0
 12
6.0879177722216857
 22
5.4406947257454661
 32
0.0
 13
6.0879177722216857
 23
5.4406947257454661
 33
0.0
  0
SOLID
  5
3D7
  8
DIMENSIONS
 10
4.6149177722216868
 20
5.482361392412133
 30
0.0
 11
4.6149177722216868
 21
5.3990280590788
 31
0.0
 12
4.8649177722216868
 22
5.4406947257454661
 32
0.0
 13
4.8649177722216868
 23
5.4406947257454661
 33
0.0
  0
TEXT
  5
3D9
  8
DIMENSIONS
 10
7.334985352489837
 20
5.3156947257454661
 30
0.0
 40
0.25
  1
0.353
  0
TEXT
  5
3DA
  8
DIMENSIONS
 10
7.28891777222168
 20
10.88839758941555
 30
0.0
 40
0.25
  1
0.125
  0
TEXT
  5
3DC
  8
DIMENSIONS
 10
6.47641777222168
 20
12.763397589415559
 30
0.0
 40
0.25
  1
0.875
  0
TEXT
  5
3DE
  8
DIMENSIONS
 10
9.4566411788250662
 20
12.763397589415559
 30
0.0
 40
0.25
  1
0.250
  0
TEXT
  5
3DF
  8
DIMENSIONS
 10
5.0002272960312117
 20
5.3156947257454661
 30
0.0
 40
0.25
  1
1.223
  0
LINE
  5
3EA
  8
BODY_-_COIN_SLOT_STRIP
  6
HIDDEN2
 10
11.519141178825061
 20
9.6283975894155578
 30
0.0
 11
12.497141178825061
 21
9.6283975894155596
 31
0.0
  0
LINE
  5
3EB
  8
BODY_-_COIN_SLOT_STRIP
  6
HIDDEN2
 10
11.519141178825061
 20
9.5033975894155578
 30
0.0
 11
12.497141178825061
 21
9.5033975894155596
 31
0.0
  0
LINE
  5
3EC
  8
BODY_-_COIN_SLOT_STRIP
  6
HIDDEN2
 10
5.03891777222168
 20
4.6906947257454661
 30
0.0
 11
5.03891777222168
 21
3.7126947257454681
 31
0.0
  0
LINE
  5
3ED
  8
BODY_-_COIN_SLOT_STRIP
  6
HIDDEN2
 10
5.91391777222168
 20
4.6906947257454661
 30
0.0
 11
5.9139177722216942
 21
3.7126947257454672
 31
0.0
  0
LINE
  5
414
  8
BODY_-_COIN_SLOT_STRIP
 10
4.7364177722216851
 20
3.7126947257454681
 30
0.0
 11
6.2164177722216891
 21
3.7126947257454672
 31
0.0
  0
LINE
  5
415
  8
BODY_-_COIN_SLOT_STRIP
 10
4.7364177722216851
 20
4.3376947257454743
 30
0.0
 11
4.7364177722216851
 21
3.7126947257454681
 31
0.0
  0
LINE
  5
416
  8
BODY_-_COIN_SLOT_STRIP
 10
6.2164177722216891
 20
4.3376947257454672
 30
0.0
 11
6.2164177722216891
 21
3.7126947257454672
 31
0.0
  0
LINE
  5
417
  8
BODY_-_COIN_SLOT_STRIP
 10
4.7364177722216851
 20
4.3376947257454681
 30
0.0
 11
4.8649177722216868
 21
4.6906947257454661
 31
0.0
  0
LINE
  5
418
  8
BODY_-_COIN_SLOT_STRIP
 10
6.2164177722216891
 20
4.3376947257454672
 30
0.0
 11
6.0879177722216857
 21
4.6906947257454661
 31
0.0
  0
LINE
  5
419
  8
BODY_-_COIN_SLOT_STRIP
 10
4.7364177722216851
 20
4.3376947257454743
 30
0.0
 11
6.2164177722216891
 21
4.3376947257454717
 31
0.0
  0
LINE
  5
41A
  8
BODY_-_COIN_SLOT_STRIP
 10
11.872141178825069
 20
9.3858975894155598
 30
0.0
 11
11.872141178825061
 21
9.7458975894155593
 31
0.0
  0
LINE
  5
41B
  8
BODY_-_COIN_SLOT_STRIP
 10
12.372141178825061
 20
8.9508975894155611
 30
0.0
 11
12.372141178825061
 21
9.3858975894155598
 31
0.0
  0
LINE
  5
41C
  8
BODY_-_COIN_SLOT_STRIP
 10
12.497141178825061
 20
7.463397589415556
 30
0.0
 11
12.497141178825061
 21
12.46339758941555
 31
0.0
  0
LINE
  5
41E
  8
BODY_-_COIN_SLOT_STRIP
 10
11.872141178825061
 20
9.7458975894155593
 30
0.0
 11
12.372141178825061
 21
9.7458975894155593
 31
0.0
  0
LINE
  5
41F
  8
BODY_-_COIN_SLOT_STRIP
 10
11.872141178825069
 20
9.3858975894155598
 30
0.0
 11
12.372141178825061
 21
9.3858975894155598
 31
0.0
  0
LINE
  5
420
  8
BODY_-_COIN_SLOT_STRIP
 10
11.519141178825061
 20
9.6908975894155596
 30
0.0
 11
11.872141178825061
 21
9.7458975894155593
 31
0.0
  0
LINE
  5
421
  8
BODY_-_COIN_SLOT_STRIP
 10
11.519141178825061
 20
9.4408975894155596
 30
0.0
 11
11.872141178825061
 21
9.3858975894155598
 31
0.0
  0
LINE
  5
422
  8
BODY_-_COIN_SLOT_STRIP
 10
12.372141178825061
 20
9.7458975894155575
 30
0.0
 11
12.372141178825061
 21
10.18089758941556
 31
0.0
  0
LINE
  5
425
  8
BODY_-_COIN_SLOT_STRIP
 10
11.519141178825061
 20
10.485897589415559
 30
0.0
 11
11.519141178825061
 21
10.235897589415559
 31
0.0
  0
LINE
  5
426
  8
BODY_-_COIN_SLOT_STRIP
  6
HIDDEN2
 10
11.519141178825061
 20
10.423397589415551
 30
0.0
 11
12.497141178825061
 21
10.423397589415551
 31
0.0
  0
LINE
  5
427
  8
BODY_-_COIN_SLOT_STRIP
  6
HIDDEN2
 10
11.519141178825061
 20
10.298397589415551
 30
0.0
 11
12.497141178825061
 21
10.298397589415551
 31
0.0
  0
LINE
  5
428
  8
BODY_-_COIN_SLOT_STRIP
 10
11.872141178825069
 20
10.18089758941556
 30
0.0
 11
11.872141178825061
 21
10.540897589415559
 31
0.0
  0
LINE
  5
429
  8
BODY_-_COIN_SLOT_STRIP
 10
11.872141178825069
 20
10.18089758941556
 30
0.0
 11
12.372141178825061
 21
10.18089758941556
 31
0.0
  0
LINE
  5
42A
  8
BODY_-_COIN_SLOT_STRIP
 10
11.872141178825061
 20
10.540897589415559
 30
0.0
 11
12.372141178825061
 21
10.540897589415559
 31
0.0
  0
LINE
  5
42B
  8
BODY_-_COIN_SLOT_STRIP
 10
11.519141178825061
 20
10.485897589415559
 30
0.0
 11
11.872141178825061
 21
10.540897589415559
 31
0.0
  0
LINE
  5
42C
  8
BODY_-_COIN_SLOT_STRIP
 10
11.519141178825061
 20
10.235897589415559
 30
0.0
 11
11.872141178825061
 21
10.18089758941556
 31
0.0
  0
LINE
  5
42D
  8
BODY_-_COIN_SLOT_STRIP
 10
11.519141178825061
 20
8.8958975894155614
 30
0.0
 11
11.519141178825061
 21
8.6458975894155614
 31
0.0
  0
LINE
  5
42E
  8
BODY_-_COIN_SLOT_STRIP
  6
HIDDEN2
 10
11.519141178825061
 20
8.8333975894155614
 30
0.0
 11
12.497141178825061
 21
8.8333975894155614
 31
0.0
  0
LINE
  5
42F
  8
BODY_-_COIN_SLOT_STRIP
  6
HIDDEN2
 10
11.519141178825061
 20
8.7083975894155614
 30
0.0
 11
12.497141178825061
 21
8.7083975894155614
 31
0.0
  0
LINE
  5
430
  8
BODY_-_COIN_SLOT_STRIP
 10
11.872141178825061
 20
8.5908975894155617
 30
0.0
 11
11.872141178825061
 21
8.9508975894155611
 31
0.0
  0
LINE
  5
431
  8
BODY_-_COIN_SLOT_STRIP
 10
11.872141178825061
 20
8.5908975894155617
 30
0.0
 11
12.372141178825061
 21
8.5908975894155617
 31
0.0
  0
LINE
  5
432
  8
BODY_-_COIN_SLOT_STRIP
 10
11.872141178825061
 20
8.9508975894155611
 30
0.0
 11
12.372141178825061
 21
8.9508975894155611
 31
0.0
  0
LINE
  5
433
  8
BODY_-_COIN_SLOT_STRIP
 10
11.519141178825061
 20
8.8958975894155614
 30
0.0
 11
11.872141178825061
 21
8.9508975894155611
 31
0.0
  0
LINE
  5
434
  8
BODY_-_COIN_SLOT_STRIP
 10
11.519141178825061
 20
8.6458975894155614
 30
0.0
 11
11.872141178825061
 21
8.5908975894155617
 31
0.0
  0
LINE
  5
435
  8
BODY_-_COIN_SLOT_STRIP
 10
12.372141178825061
 20
10.540897589415559
 30
0.0
 11
12.372141178825061
 21
10.975897589415551
 31
0.0
  0
LINE
  5
436
  8
BODY_-_COIN_SLOT_STRIP
 10
11.519141178825061
 20
11.280897589415551
 30
0.0
 11
11.519141178825061
 21
11.030897589415551
 31
0.0
  0
LINE
  5
437
  8
BODY_-_COIN_SLOT_STRIP
  6
HIDDEN2
 10
11.519141178825061
 20
11.218397589415551
 30
0.0
 11
12.497141178825061
 21
11.218397589415559
 31
0.0
  0
LINE
  5
438
  8
BODY_-_COIN_SLOT_STRIP
  6
HIDDEN2
 10
11.519141178825061
 20
11.093397589415551
 30
0.0
 11
12.497141178825061
 21
11.093397589415559
 31
0.0
  0
LINE
  5
439
  8
BODY_-_COIN_SLOT_STRIP
 10
11.872141178825069
 20
10.975897589415551
 30
0.0
 11
11.872141178825061
 21
11.33589758941555
 31
0.0
  0
LINE
  5
43A
  8
BODY_-_COIN_SLOT_STRIP
 10
11.872141178825069
 20
10.975897589415551
 30
0.0
 11
12.372141178825061
 21
10.975897589415551
 31
0.0
  0
LINE
  5
43B
  8
BODY_-_COIN_SLOT_STRIP
 10
11.872141178825061
 20
11.33589758941555
 30
0.0
 11
12.372141178825061
 21
11.33589758941555
 31
0.0
  0
LINE
  5
43C
  8
BODY_-_COIN_SLOT_STRIP
 10
11.519141178825061
 20
11.280897589415551
 30
0.0
 11
11.872141178825061
 21
11.33589758941555
 31
0.0
  0
LINE
  5
43D
  8
BODY_-_COIN_SLOT_STRIP
 10
11.519141178825061
 20
11.030897589415551
 30
0.0
 11
11.872141178825061
 21
10.975897589415551
 31
0.0
  0
LINE
  5
43E
  8
BODY_-_COIN_SLOT_STRIP
 10
12.372141178825061
 20
8.1558975894155612
 30
0.0
 11
12.372141178825061
 21
8.5908975894155617
 31
0.0
  0
LINE
  5
43F
  8
BODY_-_COIN_SLOT_STRIP
 10
11.519141178825061
 20
8.1008975894155633
 30
0.0
 11
11.519141178825061
 21
7.8508975894155633
 31
0.0
  0
LINE
  5
440
  8
BODY_-_COIN_SLOT_STRIP
  6
HIDDEN2
 10
11.519141178825061
 20
8.0383975894155633
 30
0.0
 11
12.497141178825061
 21
8.0383975894155633
 31
0.0
  0
LINE
  5
441
  8
BODY_-_COIN_SLOT_STRIP
  6
HIDDEN2
 10
11.519141178825061
 20
7.9133975894155633
 30
0.0
 11
12.497141178825061
 21
7.9133975894155633
 31
0.0
  0
LINE
  5
442
  8
BODY_-_COIN_SLOT_STRIP
 10
11.872141178825061
 20
7.7958975894155627
 30
0.0
 11
11.872141178825061
 21
8.1558975894155612
 31
0.0
  0
LINE
  5
443
  8
BODY_-_COIN_SLOT_STRIP
 10
11.872141178825061
 20
7.7958975894155627
 30
0.0
 11
12.372141178825061
 21
7.7958975894155627
 31
0.0
  0
LINE
  5
444
  8
BODY_-_COIN_SLOT_STRIP
 10
11.872141178825061
 20
8.1558975894155612
 30
0.0
 11
12.372141178825061
 21
8.1558975894155612
 31
0.0
  0
LINE
  5
445
  8
BODY_-_COIN_SLOT_STRIP
 10
11.519141178825061
 20
8.1008975894155633
 30
0.0
 11
11.872141178825061
 21
8.1558975894155612
 31
0.0
  0
LINE
  5
446
  8
BODY_-_COIN_SLOT_STRIP
 10
11.519141178825061
 20
7.8508975894155633
 30
0.0
 11
11.872141178825061
 21
7.7958975894155627
 31
0.0
  0
LINE
  5
447
  8
BODY_-_COIN_SLOT_STRIP
 10
12.372141178825061
 20
11.33589758941555
 30
0.0
 11
12.372141178825061
 21
11.77089758941556
 31
0.0
  0
LINE
  5
448
  8
BODY_-_COIN_SLOT_STRIP
 10
11.519141178825061
 20
12.075897589415559
 30
0.0
 11
11.519141178825061
 21
11.82589758941555
 31
0.0
  0
LINE
  5
449
  8
BODY_-_COIN_SLOT_STRIP
  6
HIDDEN2
 10
11.519141178825061
 20
12.01339758941555
 30
0.0
 11
12.497141178825061
 21
12.01339758941555
 31
0.0
  0
LINE
  5
44A
  8
BODY_-_COIN_SLOT_STRIP
  6
HIDDEN2
 10
11.519141178825061
 20
11.88839758941555
 30
0.0
 11
12.497141178825061
 21
11.888397589415559
 31
0.0
  0
LINE
  5
44B
  8
BODY_-_COIN_SLOT_STRIP
 10
11.872141178825069
 20
11.77089758941556
 30
0.0
 11
11.872141178825061
 21
12.130897589415561
 31
0.0
  0
LINE
  5
44C
  8
BODY_-_COIN_SLOT_STRIP
 10
11.872141178825069
 20
11.77089758941556
 30
0.0
 11
12.372141178825061
 21
11.77089758941556
 31
0.0
  0
LINE
  5
44D
  8
BODY_-_COIN_SLOT_STRIP
 10
11.872141178825061
 20
12.130897589415561
 30
0.0
 11
12.372141178825061
 21
12.130897589415561
 31
0.0
  0
LINE
  5
44E
  8
BODY_-_COIN_SLOT_STRIP
 10
11.519141178825061
 20
12.075897589415559
 30
0.0
 11
11.872141178825061
 21
12.130897589415561
 31
0.0
  0
LINE
  5
44F
  8
BODY_-_COIN_SLOT_STRIP
 10
11.519141178825061
 20
11.82589758941555
 30
0.0
 11
11.872141178825061
 21
11.77089758941556
 31
0.0
  0
LINE
  5
454
  8
BODY_-_COIN_SLOT_STRIP
 10
12.372141178825061
 20
12.46339758941555
 30
0.0
 11
12.497141178825061
 21
12.46339758941555
 31
0.0
  0
LINE
  5
455
  8
BODY_-_COIN_SLOT_STRIP
 10
12.372141178825061
 20
7.463397589415556
 30
0.0
 11
12.497141178825061
 21
7.463397589415556
 31
0.0
  0
LINE
  5
456
  8
BODY_-_COIN_SLOT_STRIP
 10
12.372141178825061
 20
7.7958975894155627
 30
0.0
 11
12.372141178825061
 21
7.463397589415556
 31
0.0
  0
LINE
  5
457
  8
BODY_-_COIN_SLOT_STRIP
 10
12.372141178825061
 20
12.130897589415561
 30
0.0
 11
12.372141178825061
 21
12.46339758941555
 31
0.0
  0
LINE
  5
458
  8
BODY_-_COIN_SLOT_STRIP
 10
6.2164177722216891
 20
9.7458975894155575
 30
0.0
 11
4.7364177722216851
 21
9.7458975894155575
 31
0.0
  0
LINE
  5
459
  8
BODY_-_COIN_SLOT_STRIP
 10
6.2164177722216891
 20
9.3858975894155598
 30
0.0
 11
4.7364177722216851
 21
9.3858975894155598
 31
0.0
  0
LINE
  5
45A
  8
BODY_-_COIN_SLOT_STRIP
 10
4.7364177722216851
 20
7.463397589415556
 30
0.0
 11
4.7364177722216851
 21
12.46339758941555
 31
0.0
  0
LINE
  5
45B
  8
BODY_-_COIN_SLOT_STRIP
 10
6.2164177722216891
 20
7.463397589415556
 30
0.0
 11
6.2164177722216891
 21
12.46339758941555
 31
0.0
  0
LINE
  5
45C
  8
BODY_-_COIN_SLOT_STRIP
 10
4.8649177722216868
 20
8.6458975894155614
 30
0.0
 11
4.8649177722216868
 21
8.8958975894155596
 31
0.0
  0
LINE
  5
45D
  8
BODY_-_COIN_SLOT_STRIP
 10
6.0879177722216857
 20
8.6458975894155614
 30
0.0
 11
6.0879177722216857
 21
8.8958975894155614
 31
0.0
  0
LINE
  5
45E
  8
BODY_-_COIN_SLOT_STRIP
 10
4.8649177722216868
 20
8.6458975894155614
 30
0.0
 11
6.0879177722216857
 21
8.6458975894155614
 31
0.0
  0
LINE
  5
45F
  8
BODY_-_COIN_SLOT_STRIP
 10
4.8649177722216868
 20
8.8958975894155596
 30
0.0
 11
6.0879177722216857
 21
8.8958975894155614
 31
0.0
  0
LINE
  5
460
  8
BODY_-_COIN_SLOT_STRIP
 10
5.03891777222168
 20
8.7083975894155614
 30
0.0
 11
5.91391777222168
 21
8.7083975894155614
 31
0.0
  0
LINE
  5
461
  8
BODY_-_COIN_SLOT_STRIP
 10
5.03891777222168
 20
8.8333975894155614
 30
0.0
 11
5.91391777222168
 21
8.8333975894155614
 31
0.0
  0
LINE
  5
462
  8
BODY_-_COIN_SLOT_STRIP
 10
5.03891777222168
 20
8.8333975894155614
 30
0.0
 11
5.03891777222168
 21
8.7083975894155614
 31
0.0
  0
LINE
  5
463
  8
BODY_-_COIN_SLOT_STRIP
 10
5.91391777222168
 20
8.8333975894155614
 30
0.0
 11
5.91391777222168
 21
8.7083975894155614
 31
0.0
  0
LINE
  5
464
  8
BODY_-_COIN_SLOT_STRIP
 10
6.2164177722216891
 20
8.9508975894155594
 30
0.0
 11
4.7364177722216851
 21
8.9508975894155594
 31
0.0
  0
LINE
  5
465
  8
BODY_-_COIN_SLOT_STRIP
 10
6.2164177722216891
 20
8.5908975894155617
 30
0.0
 11
4.7364177722216851
 21
8.5908975894155617
 31
0.0
  0
LINE
  5
466
  8
BODY_-_COIN_SLOT_STRIP
 10
4.8649177722216868
 20
7.8508975894155633
 30
0.0
 11
4.8649177722216868
 21
8.1008975894155633
 31
0.0
  0
LINE
  5
467
  8
BODY_-_COIN_SLOT_STRIP
 10
6.0879177722216857
 20
7.8508975894155633
 30
0.0
 11
6.0879177722216857
 21
8.1008975894155633
 31
0.0
  0
LINE
  5
468
  8
BODY_-_COIN_SLOT_STRIP
 10
4.8649177722216868
 20
7.8508975894155633
 30
0.0
 11
6.0879177722216857
 21
7.8508975894155633
 31
0.0
  0
LINE
  5
469
  8
BODY_-_COIN_SLOT_STRIP
 10
4.8649177722216868
 20
8.1008975894155633
 30
0.0
 11
6.0879177722216857
 21
8.1008975894155633
 31
0.0
  0
LINE
  5
46A
  8
BODY_-_COIN_SLOT_STRIP
 10
5.03891777222168
 20
7.9133975894155633
 30
0.0
 11
5.91391777222168
 21
7.9133975894155633
 31
0.0
  0
LINE
  5
46B
  8
BODY_-_COIN_SLOT_STRIP
 10
5.03891777222168
 20
8.0383975894155633
 30
0.0
 11
5.91391777222168
 21
8.0383975894155633
 31
0.0
  0
LINE
  5
46C
  8
BODY_-_COIN_SLOT_STRIP
 10
5.03891777222168
 20
8.0383975894155633
 30
0.0
 11
5.03891777222168
 21
7.9133975894155633
 31
0.0
  0
LINE
  5
46D
  8
BODY_-_COIN_SLOT_STRIP
 10
5.91391777222168
 20
8.0383975894155633
 30
0.0
 11
5.91391777222168
 21
7.9133975894155633
 31
0.0
  0
LINE
  5
46E
  8
BODY_-_COIN_SLOT_STRIP
 10
6.2164177722216891
 20
8.1558975894155612
 30
0.0
 11
4.7364177722216851
 21
8.1558975894155612
 31
0.0
  0
LINE
  5
46F
  8
BODY_-_COIN_SLOT_STRIP
 10
6.2164177722216891
 20
7.7958975894155627
 30
0.0
 11
4.7364177722216851
 21
7.7958975894155627
 31
0.0
  0
LINE
  5
470
  8
BODY_-_COIN_SLOT_STRIP
 10
4.8649177722216868
 20
11.030897589415559
 30
0.0
 11
4.8649177722216868
 21
11.280897589415551
 31
0.0
  0
LINE
  5
471
  8
BODY_-_COIN_SLOT_STRIP
 10
6.0879177722216857
 20
11.030897589415551
 30
0.0
 11
6.0879177722216857
 21
11.280897589415551
 31
0.0
  0
LINE
  5
472
  8
BODY_-_COIN_SLOT_STRIP
 10
4.8649177722216868
 20
11.030897589415559
 30
0.0
 11
6.0879177722216857
 21
11.030897589415551
 31
0.0
  0
LINE
  5
473
  8
BODY_-_COIN_SLOT_STRIP
 10
4.8649177722216868
 20
11.280897589415551
 30
0.0
 11
6.0879177722216857
 21
11.280897589415551
 31
0.0
  0
LINE
  5
474
  8
BODY_-_COIN_SLOT_STRIP
 10
5.03891777222168
 20
11.093397589415551
 30
0.0
 11
5.91391777222168
 21
11.093397589415551
 31
0.0
  0
LINE
  5
475
  8
BODY_-_COIN_SLOT_STRIP
 10
5.03891777222168
 20
11.218397589415551
 30
0.0
 11
5.91391777222168
 21
11.218397589415551
 31
0.0
  0
LINE
  5
476
  8
BODY_-_COIN_SLOT_STRIP
 10
5.03891777222168
 20
11.218397589415551
 30
0.0
 11
5.03891777222168
 21
11.093397589415551
 31
0.0
  0
LINE
  5
477
  8
BODY_-_COIN_SLOT_STRIP
 10
5.91391777222168
 20
11.218397589415551
 30
0.0
 11
5.91391777222168
 21
11.093397589415551
 31
0.0
  0
LINE
  5
478
  8
BODY_-_COIN_SLOT_STRIP
 10
6.2164177722216891
 20
11.33589758941555
 30
0.0
 11
4.7364177722216851
 21
11.33589758941555
 31
0.0
  0
LINE
  5
479
  8
BODY_-_COIN_SLOT_STRIP
 10
6.2164177722216891
 20
10.975897589415551
 30
0.0
 11
4.7364177722216851
 21
10.975897589415551
 31
0.0
  0
LINE
  5
47A
  8
BODY_-_COIN_SLOT_STRIP
 10
4.8649177722216868
 20
10.235897589415559
 30
0.0
 11
4.8649177722216868
 21
10.485897589415559
 31
0.0
  0
LINE
  5
47B
  8
BODY_-_COIN_SLOT_STRIP
 10
6.0879177722216857
 20
10.235897589415559
 30
0.0
 11
6.0879177722216857
 21
10.485897589415559
 31
0.0
  0
LINE
  5
47C
  8
BODY_-_COIN_SLOT_STRIP
 10
4.8649177722216868
 20
10.235897589415559
 30
0.0
 11
6.0879177722216857
 21
10.235897589415559
 31
0.0
  0
LINE
  5
47D
  8
BODY_-_COIN_SLOT_STRIP
 10
4.8649177722216868
 20
10.485897589415559
 30
0.0
 11
6.0879177722216857
 21
10.485897589415559
 31
0.0
  0
LINE
  5
47E
  8
BODY_-_COIN_SLOT_STRIP
 10
5.03891777222168
 20
10.298397589415551
 30
0.0
 11
5.91391777222168
 21
10.298397589415551
 31
0.0
  0
LINE
  5
47F
  8
BODY_-_COIN_SLOT_STRIP
 10
5.03891777222168
 20
10.423397589415551
 30
0.0
 11
5.91391777222168
 21
10.423397589415551
 31
0.0
  0
LINE
  5
480
  8
BODY_-_COIN_SLOT_STRIP
 10
5.03891777222168
 20
10.423397589415551
 30
0.0
 11
5.03891777222168
 21
10.298397589415551
 31
0.0
  0
LINE
  5
481
  8
BODY_-_COIN_SLOT_STRIP
 10
5.91391777222168
 20
10.423397589415551
 30
0.0
 11
5.91391777222168
 21
10.298397589415551
 31
0.0
  0
LINE
  5
482
  8
BODY_-_COIN_SLOT_STRIP
 10
6.2164177722216891
 20
10.540897589415559
 30
0.0
 11
4.7364177722216851
 21
10.540897589415559
 31
0.0
  0
LINE
  5
483
  8
BODY_-_COIN_SLOT_STRIP
 10
6.2164177722216891
 20
10.18089758941556
 30
0.0
 11
4.7364177722216851
 21
10.18089758941556
 31
0.0
  0
LINE
  5
484
  8
BODY_-_COIN_SLOT_STRIP
 10
4.8649177722216868
 20
11.82589758941555
 30
0.0
 11
4.8649177722216868
 21
12.07589758941555
 31
0.0
  0
LINE
  5
485
  8
BODY_-_COIN_SLOT_STRIP
 10
6.0879177722216857
 20
11.82589758941555
 30
0.0
 11
6.0879177722216857
 21
12.075897589415559
 31
0.0
  0
LINE
  5
486
  8
BODY_-_COIN_SLOT_STRIP
 10
4.8649177722216868
 20
11.82589758941555
 30
0.0
 11
6.0879177722216857
 21
11.82589758941555
 31
0.0
  0
LINE
  5
487
  8
BODY_-_COIN_SLOT_STRIP
 10
4.8649177722216868
 20
12.07589758941555
 30
0.0
 11
6.0879177722216857
 21
12.075897589415559
 31
0.0
  0
LINE
  5
488
  8
BODY_-_COIN_SLOT_STRIP
 10
5.03891777222168
 20
11.888397589415559
 30
0.0
 11
5.91391777222168
 21
11.888397589415559
 31
0.0
  0
LINE
  5
489
  8
BODY_-_COIN_SLOT_STRIP
 10
5.03891777222168
 20
12.01339758941555
 30
0.0
 11
5.91391777222168
 21
12.01339758941555
 31
0.0
  0
LINE
  5
48A
  8
BODY_-_COIN_SLOT_STRIP
 10
5.03891777222168
 20
12.01339758941555
 30
0.0
 11
5.03891777222168
 21
11.888397589415559
 31
0.0
  0
LINE
  5
48B
  8
BODY_-_COIN_SLOT_STRIP
 10
5.91391777222168
 20
12.01339758941555
 30
0.0
 11
5.91391777222168
 21
11.888397589415559
 31
0.0
  0
LINE
  5
48C
  8
BODY_-_COIN_SLOT_STRIP
 10
6.2164177722216891
 20
12.13089758941555
 30
0.0
 11
4.7364177722216851
 21
12.13089758941555
 31
0.0
  0
LINE
  5
48D
  8
BODY_-_COIN_SLOT_STRIP
 10
6.2164177722216891
 20
11.77089758941556
 30
0.0
 11
4.7364177722216851
 21
11.77089758941556
 31
0.0
  0
LINE
  5
48E
  8
BODY_-_COIN_SLOT_STRIP
 10
6.2164177722216891
 20
7.4633975894155578
 30
0.0
 11
4.7364177722216851
 21
7.463397589415556
 31
0.0
  0
LINE
  5
48F
  8
BODY_-_COIN_SLOT_STRIP
 10
6.2164177722216891
 20
12.46339758941556
 30
0.0
 11
4.7364177722216851
 21
12.46339758941555
 31
0.0
  0
LINE
  5
490
  8
BODY_-_COIN_SLOT_STRIP
 10
4.7364177722216851
 20
7.7958975894155627
 30
0.0
 11
4.8649177722216868
 21
7.8508975894155633
 31
0.0
  0
LINE
  5
491
  8
BODY_-_COIN_SLOT_STRIP
 10
6.2164177722216891
 20
7.7958975894155627
 30
0.0
 11
6.0879177722216857
 21
7.8508975894155633
 31
0.0
  0
LINE
  5
492
  8
BODY_-_COIN_SLOT_STRIP
 10
6.0879177722216857
 20
8.1008975894155633
 30
0.0
 11
6.2164177722216891
 21
8.1558975894155612
 31
0.0
  0
LINE
  5
493
  8
BODY_-_COIN_SLOT_STRIP
 10
4.8649177722216868
 20
8.1008975894155633
 30
0.0
 11
4.7364177722216851
 21
8.1558975894155612
 31
0.0
  0
LINE
  5
494
  8
BODY_-_COIN_SLOT_STRIP
 10
6.0879177722216857
 20
8.6458975894155614
 30
0.0
 11
6.2164177722216891
 21
8.5908975894155617
 31
0.0
  0
LINE
  5
495
  8
BODY_-_COIN_SLOT_STRIP
 10
6.0879177722216857
 20
8.8958975894155614
 30
0.0
 11
6.2164177722216891
 21
8.9508975894155594
 31
0.0
  0
LINE
  5
496
  8
BODY_-_COIN_SLOT_STRIP
 10
4.8649177722216868
 20
8.8958975894155596
 30
0.0
 11
4.7364177722216851
 21
8.9508975894155594
 31
0.0
  0
LINE
  5
497
  8
BODY_-_COIN_SLOT_STRIP
 10
4.8649177722216868
 20
8.6458975894155614
 30
0.0
 11
4.7364177722216851
 21
8.5908975894155617
 31
0.0
  0
LINE
  5
498
  8
BODY_-_COIN_SLOT_STRIP
 10
6.0879177722216857
 20
9.4408975894155596
 30
0.0
 11
6.2164177722216891
 21
9.3858975894155598
 31
0.0
  0
LINE
  5
499
  8
BODY_-_COIN_SLOT_STRIP
 10
6.0879177722216857
 20
9.6908975894155596
 30
0.0
 11
6.2164177722216891
 21
9.7458975894155575
 31
0.0
  0
LINE
  5
49A
  8
BODY_-_COIN_SLOT_STRIP
 10
4.8649177722216868
 20
9.6908975894155578
 30
0.0
 11
4.7364177722216851
 21
9.7458975894155575
 31
0.0
  0
LINE
  5
49B
  8
BODY_-_COIN_SLOT_STRIP
 10
4.8649177722216868
 20
9.4408975894155596
 30
0.0
 11
4.7364177722216851
 21
9.3858975894155598
 31
0.0
  0
LINE
  5
49C
  8
BODY_-_COIN_SLOT_STRIP
 10
6.2164177722216891
 20
10.18089758941556
 30
0.0
 11
6.0879177722216857
 21
10.235897589415559
 31
0.0
  0
LINE
  5
49D
  8
BODY_-_COIN_SLOT_STRIP
 10
6.2164177722216891
 20
10.540897589415559
 30
0.0
 11
6.0879177722216857
 21
10.485897589415559
 31
0.0
  0
LINE
  5
49E
  8
BODY_-_COIN_SLOT_STRIP
 10
4.7364177722216851
 20
10.540897589415559
 30
0.0
 11
4.8649177722216868
 21
10.485897589415559
 31
0.0
  0
LINE
  5
49F
  8
BODY_-_COIN_SLOT_STRIP
 10
4.7364177722216851
 20
10.18089758941556
 30
0.0
 11
4.8649177722216868
 21
10.235897589415559
 31
0.0
  0
LINE
  5
4A0
  8
BODY_-_COIN_SLOT_STRIP
 10
6.0879177722216857
 20
11.030897589415551
 30
0.0
 11
6.2164177722216891
 21
10.975897589415551
 31
0.0
  0
LINE
  5
4A1
  8
BODY_-_COIN_SLOT_STRIP
 10
6.2164177722216891
 20
11.33589758941555
 30
0.0
 11
6.0879177722216857
 21
11.280897589415551
 31
0.0
  0
LINE
  5
4A2
  8
BODY_-_COIN_SLOT_STRIP
 10
4.7364177722216851
 20
10.975897589415551
 30
0.0
 11
4.8649177722216868
 21
11.030897589415559
 31
0.0
  0
LINE
  5
4A3
  8
BODY_-_COIN_SLOT_STRIP
 10
4.7364177722216851
 20
11.33589758941555
 30
0.0
 11
4.8649177722216868
 21
11.280897589415551
 31
0.0
  0
LINE
  5
4A4
  8
BODY_-_COIN_SLOT_STRIP
 10
4.7364177722216851
 20
11.77089758941556
 30
0.0
 11
4.8649177722216868
 21
11.82589758941555
 31
0.0
  0
LINE
  5
4A5
  8
BODY_-_COIN_SLOT_STRIP
 10
6.2164177722216891
 20
11.77089758941556
 30
0.0
 11
6.0879177722216857
 21
11.82589758941555
 31
0.0
  0
LINE
  5
4C3
  8
DIMENSIONS
 10
11.809641178825061
 20
8.5908975894155617
 30
0.0
 11
10.706641178825061
 21
8.5908975894155617
 31
0.0
  0
LINE
  5
4C4
  8
DIMENSIONS
 10
11.809641178825061
 20
8.1558975894155612
 30
0.0
 11
10.706641178825061
 21
8.1558975894155612
 31
0.0
  0
LINE
  5
4C5
  8
DIMENSIONS
 10
10.769141178825061
 20
8.8408975894155617
 30
0.0
 11
10.769141178825061
 21
9.0908975894155617
 31
0.0
  0
LINE
  5
4C6
  8
DIMENSIONS
 10
10.769141178825061
 20
7.9058975894155621
 30
0.0
 11
10.769141178825061
 21
7.6558975894155621
 31
0.0
  0
SOLID
  5
4C7
  8
DIMENSIONS
 10
10.727474512158389
 20
8.8408975894155617
 30
0.0
 11
10.81080784549172
 21
8.8408975894155617
 31
0.0
 12
10.769141178825061
 22
8.5908975894155617
 32
0.0
 13
10.769141178825061
 23
8.5908975894155617
 33
0.0
  0
SOLID
  5
4C8
  8
DIMENSIONS
 10
10.727474512158389
 20
7.9058975894155621
 30
0.0
 11
10.81080784549172
 21
7.9058975894155621
 31
0.0
 12
10.769141178825061
 22
8.1558975894155612
 32
0.0
 13
10.769141178825061
 23
8.1558975894155612
 33
0.0
  0
LINE
  5
4CA
  8
DIMENSIONS
 10
11.809641178825061
 20
10.540897589415559
 30
0.0
 11
10.706641178825061
 21
10.540897589415559
 31
0.0
  0
LINE
  5
4CB
  8
DIMENSIONS
 10
11.809641178825069
 20
10.18089758941556
 30
0.0
 11
10.706641178825061
 21
10.18089758941556
 31
0.0
  0
LINE
  5
4CC
  8
DIMENSIONS
 10
10.769141178825061
 20
10.790897589415559
 30
0.0
 11
10.769141178825061
 21
11.04089758941555
 31
0.0
  0
LINE
  5
4CD
  8
DIMENSIONS
 10
10.769141178825061
 20
9.930897589415558
 30
0.0
 11
10.769141178825061
 21
9.680897589415558
 31
0.0
  0
LINE
  5
4CE
  8
DIMENSIONS
 10
10.769141178825061
 20
9.680897589415558
 30
0.0
 11
10.519141178825061
 21
9.680897589415558
 31
0.0
  0
SOLID
  5
4CF
  8
DIMENSIONS
 10
10.727474512158389
 20
10.790897589415559
 30
0.0
 11
10.81080784549172
 21
10.790897589415559
 31
0.0
 12
10.769141178825061
 22
10.540897589415559
 32
0.0
 13
10.769141178825061
 23
10.540897589415559
 33
0.0
  0
SOLID
  5
4D0
  8
DIMENSIONS
 10
10.727474512158389
 20
9.930897589415558
 30
0.0
 11
10.81080784549172
 21
9.930897589415558
 31
0.0
 12
10.769141178825061
 22
10.18089758941556
 32
0.0
 13
10.769141178825061
 23
10.18089758941556
 33
0.0
  0
TEXT
  5
4D2
  8
DIMENSIONS
 10
10.269141178825061
 20
8.2483975894155641
 30
0.0
 40
0.25
  1
0.435
  0
TEXT
  5
4D3
  8
DIMENSIONS
 10
9.4566411788250662
 20
9.5558975894155598
 30
0.0
 40
0.25
  1
0.360
  0
LINE
  5
4E3
  8
DIMENSIONS
 10
4.6739177722216851
 20
7.463397589415556
 30
0.0
 11
3.9239177722216851
 21
7.4633975894155578
 31
0.0
  0
LINE
  5
4E4
  8
DIMENSIONS
 10
4.6739177722216851
 20
12.46339758941555
 30
0.0
 11
3.9239177722216851
 21
12.46339758941555
 31
0.0
  0
LINE
  5
4E5
  8
DIMENSIONS
 10
3.9864177722216851
 20
7.7133975894155578
 30
0.0
 11
3.9864177722216851
 21
9.7758975894155569
 31
0.0
  0
LINE
  5
4E6
  8
DIMENSIONS
 10
3.9864177722216851
 20
12.21339758941555
 30
0.0
 11
3.9864177722216851
 21
10.15089758941555
 31
0.0
  0
SOLID
  5
4E7
  8
DIMENSIONS
 10
3.9447511055550128
 20
7.7133975894155578
 30
0.0
 11
4.0280844388883557
 21
7.7133975894155578
 31
0.0
 12
3.9864177722216851
 22
7.4633975894155578
 32
0.0
 13
3.9864177722216851
 23
7.4633975894155578
 33
0.0
  0
SOLID
  5
4E8
  8
DIMENSIONS
 10
3.9447511055550271
 20
12.21339758941555
 30
0.0
 11
4.0280844388883557
 21
12.21339758941555
 31
0.0
 12
3.9864177722216851
 22
12.46339758941555
 32
0.0
 13
3.9864177722216851
 23
12.46339758941555
 33
0.0
  0
TEXT
  5
4EA
  8
DIMENSIONS
 10
3.4864177722216851
 20
9.8383975894155569
 30
0.0
 40
0.25
  1
5.000
  0
LINE
  5
4F9
  8
DIMENSIONS
 10
4.6739177722216851
 20
3.7126947257454681
 30
0.0
 11
3.9239177722216851
 21
3.7126947257454681
 31
0.0
  0
LINE
  5
4FA
  8
DIMENSIONS
 10
4.8024177722216868
 20
4.6906947257454661
 30
0.0
 11
3.9239177722216851
 21
4.6906947257454661
 31
0.0
  0
LINE
  5
4FB
  8
DIMENSIONS
 10
3.9864177722216851
 20
3.4626947257454681
 30
0.0
 11
3.9864177722216851
 21
3.2126947257454681
 31
0.0
  0
LINE
  5
4FC
  8
DIMENSIONS
 10
3.9864177722216851
 20
4.9406947257454661
 30
0.0
 11
3.9864177722216851
 21
5.1906947257454661
 31
0.0
  0
SOLID
  5
4FD
  8
DIMENSIONS
 10
3.9447511055550128
 20
3.4626947257454681
 30
0.0
 11
4.0280844388883557
 21
3.4626947257454681
 31
0.0
 12
3.9864177722216851
 22
3.7126947257454681
 32
0.0
 13
3.9864177722216851
 23
3.7126947257454681
 33
0.0
  0
SOLID
  5
4FE
  8
DIMENSIONS
 10
3.9447511055550128
 20
4.9406947257454661
 30
0.0
 11
4.0280844388883557
 21
4.9406947257454661
 31
0.0
 12
3.9864177722216851
 22
4.6906947257454661
 32
0.0
 13
3.9864177722216851
 23
4.6906947257454661
 33
0.0
  0
TEXT
  5
500
  8
DIMENSIONS
 10
3.4864177722216851
 20
4.0766947257454671
 30
0.0
 40
0.25
  1
0.978
  0
LINE
  5
50F
  8
DIMENSIONS
 10
12.372141178825061
 20
12.52589758941555
 30
0.0
 11
12.372141178825061
 21
12.95089758941555
 31
0.0
  0
LINE
  5
510
  8
DIMENSIONS
 10
12.497141178825061
 20
12.52589758941555
 30
0.0
 11
12.497141178825061
 21
12.95089758941555
 31
0.0
  0
LINE
  5
511
  8
DIMENSIONS
 10
12.122141178825061
 20
12.888397589415559
 30
0.0
 11
11.872141178825061
 21
12.888397589415559
 31
0.0
  0
LINE
  5
512
  8
DIMENSIONS
 10
12.747141178825061
 20
12.888397589415559
 30
0.0
 11
12.997141178825061
 21
12.888397589415559
 31
0.0
  0
SOLID
  5
513
  8
DIMENSIONS
 10
12.122141178825061
 20
12.93006425608222
 30
0.0
 11
12.122141178825061
 21
12.84673092274889
 31
0.0
 12
12.372141178825061
 22
12.888397589415559
 32
0.0
 13
12.372141178825061
 23
12.888397589415559
 33
0.0
  0
SOLID
  5
514
  8
DIMENSIONS
 10
12.747141178825061
 20
12.93006425608222
 30
0.0
 11
12.747141178825061
 21
12.84673092274889
 31
0.0
 12
12.497141178825061
 22
12.888397589415559
 32
0.0
 13
12.497141178825061
 23
12.888397589415559
 33
0.0
  0
TEXT
  5
516
  8
DIMENSIONS
 10
13.059641178825061
 20
12.763397589415559
 30
0.0
 40
0.25
  1
0.125
  0
LINE
  5
526
  8
DIMENSIONS
 10
4.7364177722216851
 20
3.6501947257454681
 30
0.0
 11
4.7364177722216851
 21
2.9001947257454672
 31
0.0
  0
LINE
  5
527
  8
DIMENSIONS
 10
6.2164177722216891
 20
3.6501947257454672
 30
0.0
 11
6.2164177722216891
 21
2.9001947257454672
 31
0.0
  0
LINE
  5
528
  8
DIMENSIONS
 10
4.4864177722216851
 20
2.9626947257454672
 30
0.0
 11
4.2364177722216851
 21
2.9626947257454672
 31
0.0
  0
LINE
  5
529
  8
DIMENSIONS
 10
6.4664177722216891
 20
2.9626947257454672
 30
0.0
 11
6.7164177722216891
 21
2.9626947257454672
 31
0.0
  0
SOLID
  5
52A
  8
DIMENSIONS
 10
4.4864177722216851
 20
3.0043613924121342
 30
0.0
 11
4.4864177722216851
 21
2.9210280590788011
 31
0.0
 12
4.7364177722216851
 22
2.9626947257454672
 32
0.0
 13
4.7364177722216851
 23
2.9626947257454672
 33
0.0
  0
SOLID
  5
52B
  8
DIMENSIONS
 10
6.4664177722216891
 20
3.0043613924121342
 30
0.0
 11
6.4664177722216891
 21
2.9210280590788011
 31
0.0
 12
6.2164177722216891
 22
2.9626947257454672
 32
0.0
 13
6.2164177722216891
 23
2.9626947257454672
 33
0.0
  0
INSERT
  5
52C
  8
0
  2
*U1
 10
0.0
 20
0.0
 30
0.0
  0
LINE
  5
52D
  8
BODY_-_COIN_SLOT_STRIP
 10
15.95541780604451
 20
9.5033975894155596
 30
0.0
 11
16.830417806044512
 21
9.5033975894155596
 31
0.0
  0
LINE
  5
52E
  8
BODY_-_COIN_SLOT_STRIP
 10
15.95541780604451
 20
9.6283975894155596
 30
0.0
 11
16.830417806044512
 21
9.6283975894155596
 31
0.0
  0
LINE
  5
52F
  8
BODY_-_COIN_SLOT_STRIP
 10
15.95541780604451
 20
9.6283975894155596
 30
0.0
 11
15.95541780604451
 21
9.5033975894155596
 31
0.0
  0
LINE
  5
530
  8
BODY_-_COIN_SLOT_STRIP
 10
16.830417806044512
 20
9.6283975894155596
 30
0.0
 11
16.830417806044512
 21
9.5033975894155596
 31
0.0
  0
LINE
  5
531
  8
BODY_-_COIN_SLOT_STRIP
 10
15.65291780604451
 20
7.463397589415556
 30
0.0
 11
15.65291780604451
 21
12.46339758941555
 31
0.0
  0
LINE
  5
532
  8
BODY_-_COIN_SLOT_STRIP
 10
17.1329178060445
 20
7.463397589415556
 30
0.0
 11
17.1329178060445
 21
12.46339758941555
 31
0.0
  0
LINE
  5
533
  8
BODY_-_COIN_SLOT_STRIP
 10
15.95541780604451
 20
8.7083975894155614
 30
0.0
 11
16.830417806044512
 21
8.7083975894155614
 31
0.0
  0
LINE
  5
534
  8
BODY_-_COIN_SLOT_STRIP
 10
15.95541780604451
 20
8.8333975894155614
 30
0.0
 11
16.830417806044512
 21
8.8333975894155614
 31
0.0
  0
LINE
  5
535
  8
BODY_-_COIN_SLOT_STRIP
 10
15.95541780604451
 20
8.8333975894155614
 30
0.0
 11
15.95541780604451
 21
8.7083975894155614
 31
0.0
  0
LINE
  5
536
  8
BODY_-_COIN_SLOT_STRIP
 10
16.830417806044512
 20
8.8333975894155614
 30
0.0
 11
16.830417806044512
 21
8.7083975894155614
 31
0.0
  0
LINE
  5
537
  8
BODY_-_COIN_SLOT_STRIP
 10
15.95541780604451
 20
7.9133975894155633
 30
0.0
 11
16.830417806044512
 21
7.9133975894155633
 31
0.0
  0
LINE
  5
538
  8
BODY_-_COIN_SLOT_STRIP
 10
15.95541780604451
 20
8.0383975894155633
 30
0.0
 11
16.830417806044512
 21
8.0383975894155633
 31
0.0
  0
LINE
  5
539
  8
BODY_-_COIN_SLOT_STRIP
 10
15.95541780604451
 20
8.0383975894155633
 30
0.0
 11
15.95541780604451
 21
7.9133975894155633
 31
0.0
  0
LINE
  5
53A
  8
BODY_-_COIN_SLOT_STRIP
 10
16.830417806044512
 20
8.0383975894155633
 30
0.0
 11
16.830417806044512
 21
7.9133975894155633
 31
0.0
  0
LINE
  5
53B
  8
BODY_-_COIN_SLOT_STRIP
 10
15.95541780604451
 20
11.093397589415551
 30
0.0
 11
16.830417806044512
 21
11.093397589415551
 31
0.0
  0
LINE
  5
53C
  8
BODY_-_COIN_SLOT_STRIP
 10
15.95541780604451
 20
11.218397589415551
 30
0.0
 11
16.830417806044512
 21
11.218397589415551
 31
0.0
  0
LINE
  5
53D
  8
BODY_-_COIN_SLOT_STRIP
 10
15.95541780604451
 20
11.218397589415551
 30
0.0
 11
15.95541780604451
 21
11.093397589415551
 31
0.0
  0
LINE
  5
53E
  8
BODY_-_COIN_SLOT_STRIP
 10
16.830417806044512
 20
11.218397589415551
 30
0.0
 11
16.830417806044512
 21
11.093397589415551
 31
0.0
  0
LINE
  5
53F
  8
BODY_-_COIN_SLOT_STRIP
 10
15.95541780604451
 20
10.298397589415551
 30
0.0
 11
16.830417806044512
 21
10.298397589415551
 31
0.0
  0
LINE
  5
540
  8
BODY_-_COIN_SLOT_STRIP
 10
15.95541780604451
 20
10.423397589415551
 30
0.0
 11
16.830417806044512
 21
10.423397589415551
 31
0.0
  0
LINE
  5
541
  8
BODY_-_COIN_SLOT_STRIP
 10
15.95541780604451
 20
10.423397589415551
 30
0.0
 11
15.95541780604451
 21
10.298397589415551
 31
0.0
  0
LINE
  5
542
  8
BODY_-_COIN_SLOT_STRIP
 10
16.830417806044512
 20
10.423397589415551
 30
0.0
 11
16.830417806044512
 21
10.298397589415551
 31
0.0
  0
LINE
  5
543
  8
BODY_-_COIN_SLOT_STRIP
 10
15.95541780604451
 20
11.888397589415559
 30
0.0
 11
16.830417806044512
 21
11.888397589415559
 31
0.0
  0
LINE
  5
544
  8
BODY_-_COIN_SLOT_STRIP
 10
15.95541780604451
 20
12.01339758941555
 30
0.0
 11
16.830417806044512
 21
12.01339758941555
 31
0.0
  0
LINE
  5
545
  8
BODY_-_COIN_SLOT_STRIP
 10
15.95541780604451
 20
12.01339758941555
 30
0.0
 11
15.95541780604451
 21
11.888397589415559
 31
0.0
  0
LINE
  5
546
  8
BODY_-_COIN_SLOT_STRIP
 10
16.830417806044512
 20
12.01339758941555
 30
0.0
 11
16.830417806044512
 21
11.888397589415559
 31
0.0
  0
LINE
  5
547
  8
BODY_-_COIN_SLOT_STRIP
 10
17.1329178060445
 20
7.4633975894155578
 30
0.0
 11
15.65291780604451
 21
7.463397589415556
 31
0.0
  0
LINE
  5
548
  8
BODY_-_COIN_SLOT_STRIP
 10
17.1329178060445
 20
12.46339758941556
 30
0.0
 11
15.65291780604451
 21
12.46339758941555
 31
0.0
  0
LINE
  5
558
  8
DIMENSIONS
 10
12.372141178825061
 20
7.400897589415556
 30
0.0
 11
12.372141178825061
 21
6.6508975894155569
 31
0.0
  0
LINE
  5
559
  8
DIMENSIONS
 10
11.872141178825061
 20
7.7333975894155627
 30
0.0
 11
11.872141178825061
 21
6.6508975894155569
 31
0.0
  0
LINE
  5
55A
  8
DIMENSIONS
 10
12.622141178825061
 20
6.7133975894155569
 30
0.0
 11
12.872141178825061
 21
6.7133975894155569
 31
0.0
  0
LINE
  5
55B
  8
DIMENSIONS
 10
11.622141178825061
 20
6.7133975894155569
 30
0.0
 11
11.372141178825061
 21
6.7133975894155569
 31
0.0
  0
SOLID
  5
55C
  8
DIMENSIONS
 10
12.622141178825061
 20
6.7550642560822247
 30
0.0
 11
12.622141178825061
 21
6.6717309227488908
 31
0.0
 12
12.372141178825061
 22
6.7133975894155569
 32
0.0
 13
12.372141178825061
 23
6.7133975894155569
 33
0.0
  0
SOLID
  5
55D
  8
DIMENSIONS
 10
11.622141178825061
 20
6.7550642560822247
 30
0.0
 11
11.622141178825061
 21
6.6717309227488908
 31
0.0
 12
11.872141178825061
 22
6.7133975894155569
 32
0.0
 13
11.872141178825061
 23
6.7133975894155569
 33
0.0
  0
TEXT
  5
55F
  8
DIMENSIONS
 10
10.309641178825061
 20
6.5883975894155569
 30
0.0
 40
0.25
  1
0.500
  0
CIRCLE
  5
562
  8
BODY_-_COIN_SLOT_STRIP
 10
16.392917806044512
 20
7.6193975894155592
 30
0.0
 40
0.0625
  0
CIRCLE
  5
563
  8
BODY_-_COIN_SLOT_STRIP
 10
16.392917806044512
 20
12.30739758941556
 30
0.0
 40
0.0625
  0
LINE
  5
597
  8
DIMENSIONS
 10
16.392917806044512
 20
12.30739758941556
 30
0.0
 11
17.974715962934489
 21
12.30739758941556
 31
0.0
  0
LINE
  5
598
  8
DIMENSIONS
 10
16.455417806044512
 20
7.6193975894155592
 30
0.0
 11
17.974715962934479
 21
7.6193975894155566
 31
0.0
  0
LINE
  5
599
  8
DIMENSIONS
 10
17.912215962934489
 20
12.05739758941556
 30
0.0
 11
17.912215962934489
 21
10.15089758941556
 31
0.0
  0
LINE
  5
59A
  8
DIMENSIONS
 10
17.912215962934479
 20
7.8693975894155566
 30
0.0
 11
17.912215962934489
 21
9.7758975894155586
 31
0.0
  0
SOLID
  5
59B
  8
DIMENSIONS
 10
17.870549296267821
 20
12.05739758941556
 30
0.0
 11
17.95388262960115
 21
12.05739758941556
 31
0.0
 12
17.912215962934489
 22
12.30739758941556
 32
0.0
 13
17.912215962934489
 23
12.30739758941556
 33
0.0
  0
SOLID
  5
59C
  8
DIMENSIONS
 10
17.870549296267821
 20
7.8693975894155566
 30
0.0
 11
17.95388262960115
 21
7.8693975894155566
 31
0.0
 12
17.912215962934479
 22
7.6193975894155566
 32
0.0
 13
17.912215962934479
 23
7.6193975894155566
 33
0.0
  0
TEXT
  5
5A6
  8
DIMENSIONS
 10
17.412215962934479
 20
9.8383975894155604
 30
0.0
 40
0.25
  1
4.688
  0
LINE
  5
5B8
  8
DIMENSIONS
 10
16.392917806044512
 20
7.6193975894155592
 30
0.0
 11
17.974715962934479
 21
7.6193975894155566
 31
0.0
  0
LINE
  5
5B9
  8
DIMENSIONS
 10
17.1954178060445
 20
7.463397589415556
 30
0.0
 11
17.974715962934479
 21
7.463397589415556
 31
0.0
  0
LINE
  5
5BA
  8
DIMENSIONS
 10
17.912215962934479
 20
7.8693975894155566
 30
0.0
 11
17.912215962934479
 21
8.1193975894155574
 31
0.0
  0
LINE
  5
5BB
  8
DIMENSIONS
 10
17.912215962934479
 20
7.213397589415556
 30
0.0
 11
17.912215962934489
 21
6.7133975894155578
 31
0.0
  0
LINE
  5
5BC
  8
DIMENSIONS
 10
18.162215962934489
 20
6.7133975894155578
 30
0.0
 11
17.912215962934489
 21
6.7133975894155578
 31
0.0
  0
SOLID
  5
5BD
  8
DIMENSIONS
 10
17.870549296267821
 20
7.8693975894155566
 30
0.0
 11
17.95388262960115
 21
7.8693975894155566
 31
0.0
 12
17.912215962934479
 22
7.6193975894155566
 32
0.0
 13
17.912215962934479
 23
7.6193975894155566
 33
0.0
  0
SOLID
  5
5BE
  8
DIMENSIONS
 10
17.870549296267821
 20
7.213397589415556
 30
0.0
 11
17.95388262960115
 21
7.213397589415556
 31
0.0
 12
17.912215962934479
 22
7.463397589415556
 32
0.0
 13
17.912215962934479
 23
7.463397589415556
 33
0.0
  0
TEXT
  5
5C0
  8
DIMENSIONS
 10
18.320285145304151
 20
6.5883975894155604
 30
0.0
 40
0.25
  1
0.156
  0
LINE
  5
5CF
  8
DIMENSIONS
 10
17.1329178060445
 20
7.400897589415556
 30
0.0
 11
17.1329178060445
 21
6.6508975894155578
 31
0.0
  0
LINE
  5
5D0
  8
DIMENSIONS
 10
16.392917806044512
 20
7.6193975894155592
 30
0.0
 11
16.392917806044512
 21
6.6508975894155578
 31
0.0
  0
LINE
  5
5D1
  8
DIMENSIONS
 10
17.3829178060445
 20
6.7133975894155578
 30
0.0
 11
17.6329178060445
 21
6.7133975894155578
 31
0.0
  0
LINE
  5
5D2
  8
DIMENSIONS
 10
16.142917806044512
 20
6.7133975894155578
 30
0.0
 11
15.89291780604451
 21
6.7133975894155578
 31
0.0
  0
SOLID
  5
5D3
  8
DIMENSIONS
 10
17.3829178060445
 20
6.7550642560822238
 30
0.0
 11
17.3829178060445
 21
6.6717309227488908
 31
0.0
 12
17.1329178060445
 22
6.7133975894155578
 32
0.0
 13
17.1329178060445
 23
6.7133975894155578
 33
0.0
  0
SOLID
  5
5D4
  8
DIMENSIONS
 10
16.142917806044512
 20
6.7550642560822238
 30
0.0
 11
16.142917806044512
 21
6.6717309227488908
 31
0.0
 12
16.392917806044512
 22
6.7133975894155578
 32
0.0
 13
16.392917806044512
 23
6.7133975894155578
 33
0.0
  0
TEXT
  5
5D6
  8
DIMENSIONS
 10
14.83041780604451
 20
6.5883975894155578
 30
0.0
 40
0.25
  1
0.740
  0
LINE
  5
5D9
  8
DIMENSIONS
 10
12.622141178825061
 20
5.9633975894155569
 30
0.0
 11
12.872141178825061
 21
5.9633975894155569
 31
0.0
  0
LINE
  5
5E8
  8
DIMENSIONS
 10
12.372141178825061
 20
7.400897589415556
 30
0.0
 11
12.372141178825061
 21
5.9008975894155569
 31
0.0
  0
LINE
  5
5E9
  8
DIMENSIONS
 10
11.519141178825061
 20
7.7883975894155633
 30
0.0
 11
11.519141178825061
 21
5.9008975894155569
 31
0.0
  0
LINE
  5
5EA
  8
DIMENSIONS
 10
12.622141178825061
 20
5.9633975894155569
 30
0.0
 11
12.872141178825061
 21
5.9633975894155569
 31
0.0
  0
LINE
  5
5EB
  8
DIMENSIONS
 10
11.269141178825061
 20
5.9633975894155569
 30
0.0
 11
11.019141178825061
 21
5.9633975894155569
 31
0.0
  0
SOLID
  5
5EC
  8
DIMENSIONS
 10
12.622141178825061
 20
6.0050642560822238
 30
0.0
 11
12.622141178825061
 21
5.9217309227488899
 31
0.0
 12
12.372141178825061
 22
5.9633975894155569
 32
0.0
 13
12.372141178825061
 23
5.9633975894155569
 33
0.0
  0
SOLID
  5
5ED
  8
DIMENSIONS
 10
11.269141178825061
 20
6.0050642560822238
 30
0.0
 11
11.269141178825061
 21
5.9217309227488899
 31
0.0
 12
11.519141178825061
 22
5.9633975894155569
 32
0.0
 13
11.519141178825061
 23
5.9633975894155569
 33
0.0
  0
TEXT
  5
5EF
  8
DIMENSIONS
 10
9.9566411788250662
 20
5.8383975894155569
 30
0.0
 40
0.25
  1
0.853
  0
LINE
  5
5FC
  8
DIMENSIONS
 10
16.57079012451625
 20
12.5643366645316
 30
0.0
 11
16.795129174577738
 21
12.888397589415559
 31
0.0
  0
LINE
  5
5FD
  8
DIMENSIONS
 10
16.795129174577738
 20
12.888397589415559
 30
0.0
 11
17.045129174577738
 21
12.888397589415559
 31
0.0
  0
SOLID
  5
5FE
  8
DIMENSIONS
 10
16.536531581167448
 20
12.588052973661171
 30
0.0
 11
16.605048667865059
 21
12.54062035540203
 31
0.0
 12
16.42849226973885
 22
12.35878540443877
 32
0.0
 13
16.42849226973885
 23
12.35878540443877
 33
0.0
  0
TEXT
  5
600
  8
DIMENSIONS
 10
17.107629174577738
 20
12.763397589415559
 30
0.0
 40
0.25
  1
\U+22050.125
  0
LINE
  5
613
  8
DIMENSIONS
 10
6.2789177722216891
 20
7.463397589415556
 30
0.0
 11
7.03891777222168
 21
7.463397589415556
 31
0.0
  0
LINE
  5
614
  8
DIMENSIONS
 10
6.2789177722216891
 20
7.7958975894155627
 30
0.0
 11
7.03891777222168
 21
7.7958975894155627
 31
0.0
  0
LINE
  5
615
  8
DIMENSIONS
 10
6.97641777222168
 20
7.213397589415556
 30
0.0
 11
6.97641777222168
 21
6.963397589415556
 31
0.0
  0
LINE
  5
616
  8
DIMENSIONS
 10
6.97641777222168
 20
8.0458975894155635
 30
0.0
 11
6.97641777222168
 21
8.2958975894155635
 31
0.0
  0
LINE
  5
617
  8
DIMENSIONS
 10
6.97641777222168
 20
8.2958975894155635
 30
0.0
 11
7.22641777222168
 21
8.2958975894155635
 31
0.0
  0
SOLID
  5
618
  8
DIMENSIONS
 10
6.9347511055550219
 20
7.213397589415556
 30
0.0
 11
7.0180844388883514
 21
7.213397589415556
 31
0.0
 12
6.97641777222168
 22
7.463397589415556
 32
0.0
 13
6.97641777222168
 23
7.463397589415556
 33
0.0
  0
SOLID
  5
619
  8
DIMENSIONS
 10
6.9347511055550219
 20
8.0458975894155635
 30
0.0
 11
7.0180844388883514
 21
8.0458975894155635
 31
0.0
 12
6.97641777222168
 22
7.7958975894155627
 32
0.0
 13
6.97641777222168
 23
7.7958975894155627
 33
0.0
  0
TEXT
  5
61C
  8
DIMENSIONS
 10
7.28891777222168
 20
8.1708975894155653
 30
0.0
 40
0.25
  1
0.333
  0
TEXT
  5
9C4
  8
0
  6
CONTINUOUS
 10
87.06408303267483
 20
13.69949285127773
 30
0.0
 40
0.12
  1
 
 51
7.0
  0
TEXT
  5
9C5
  8
0
  6
CONTINUOUS
 10
99.508179798154728
 20
20.762367281009379
 30
0.0
 40
0.24
  1
 
 51
7.0
  0
TEXT
  5
9C6
  8
0
  6
CONTINUOUS
 10
108.717944810068
 20
20.442357294432298
 30
0.0
 40
0.24
  1
 
 51
7.0
  0
TEXT
  5
9C7
  8
0
  6
CONTINUOUS
 10
118.5219042945007
 20
3.579776494904976
 30
0.0
 40
0.24
  1
 
 51
7.0
  0
LINE
  5
A7F
  8
0
 10
0.0
 20
0.0
 30
0.0
 11
0.0
 21
17.0
 31
0.0
  0
LINE
  5
A80
  8
0
 10
22.0
 20
0.0
 30
0.0
 11
22.0
 21
17.0
 31
0.0
  0
LINE
  5
A81
  8
0
 10
0.0
 20
0.0
 30
0.0
 11
22.0
 21
0.0
 31
0.0
  0
LINE
  5
A82
  8
0
 10
0.0
 20
17.0
 30
0.0
 11
22.0
 21
17.0
 31
0.0
  0
LINE
  5
B20
  8
FORM
 10
21.403846140107252
 20
0.7499999996674092
 30
0.0
 11
21.403846140107252
 21
15.153846144098431
 31
0.0
  0
LINE
  5
B21
  8
FORM
 10
21.249999986363441
 20
15.307692297842239
 30
0.0
 11
0.7499999996674376
 21
15.307692297842239
 31
0.0
  0
LINE
  5
B22
  8
FORM
 10
21.249999986363441
 20
0.5961538459236025
 30
0.0
 11
0.7499999996674376
 21
0.5961538459235954
 31
0.0
  0
LINE
  5
B23
  8
FORM
 10
0.5961538459236238
 20
0.7499999996674092
 30
0.0
 11
0.5961538459236238
 21
15.153846144098431
 31
0.0
  0
TEXT
  5
B24
  8
FORM
 10
17.7579916851608
 20
2.6705065993040051
 30
0.0
 40
0.260516826749781
  1
COIN SLOT STRIP
 72
     1
 11
19.426539932677251
 21
2.6705065993040051
 31
0.0
  0
TEXT
  5
B25
  8
FORM
 10
18.930317405534819
 20
2.1193155254872589
 30
0.0
 40
0.260516826749781
  1
BODY
 72
     1
 11
19.426539932677251
 21
2.1193155254872589
 31
0.0
  0
TEXT
  5
B26
  8
FORM
 10
16.770574233580561
 20
1.1177623757995749
 30
0.0
 40
0.260516826749781
  1
ASTROMECH DROID
  0
TEXT
  5
B27
  8
FORM
 10
20.85720038004996
 20
1.1278903102633671
 30
0.0
 40
0.260516826749781
  1
A
  0
TEXT
  5
B28
  8
FORM
 10
17.25446024791373
 20
0.813671414000872
 30
0.0
 40
0.1042067306999124
  1
FULL
  0
TEXT
  5
B29
  8
FORM
 10
20.593280544426019
 20
0.8165882189588344
 30
0.0
 40
0.1042067306999124
  1
1   1
  0
TEXT
  5
B2A
  8
FORM
 10
18.867373488668239
 20
0.8246381046439915
 30
0.0
 40
0.1042067306999124
  1
APRIL 2005
 72
     2
 11
19.770498488067489
 21
0.8246381046439915
 31
0.0
  0
TEXT
  5
B2B
  8
FORM
  6
CONTINUOUS
 10
18.118827913558601
 20
0.8235896747318066
 30
0.0
 40
0.0900346153247244
  1
DRAWN:
  0
TEXT
  5
B2C
  8
FORM
  6
CONTINUOUS
 10
16.72518466957764
 20
0.8236741054737031
 30
0.0
 40
0.0900346153247244
  1
SCALE:
  0
TEXT
  5
B2D
  8
FORM
  6
CONTINUOUS
 10
20.01795677316494
 20
0.8225458122742352
 30
0.0
 40
0.0900346153247244
  1
SHEET:   OF
  0
TEXT
  5
B2E
  8
FORM
  6
CONTINUOUS
 10
16.560769897877751
 20
1.5378028837587541
 30
0.0
 40
0.0900346153247244
  1
DRAWING NO.
  0
TEXT
  5
B2F
  8
FORM
  6
CONTINUOUS
 10
20.822311852397561
 20
1.537802883758743
 30
0.0
 40
0.0900346153247244
  1
REV.
 72
     1
 11
20.955220094067389
 21
1.537802883758743
 31
0.0
  0
LINE
  5
B30
  8
FORM
  6
CONTINUOUS
 10
16.703251912464879
 20
3.3610038440844141
 30
0.0
 11
21.02491344805162
 21
3.3610038440844141
 31
0.0
  0
LINE
  5
B31
  8
FORM
  6
CONTINUOUS
 10
16.478165374153061
 20
0.9750865379792159
 30
0.0
 11
16.478165374153029
 21
3.1359173057725931
 31
0.0
  0
LINE
  5
B32
  8
FORM
  6
CONTINUOUS
 10
16.478165374153061
 20
1.672854806745828
 30
0.0
 11
21.249999986363441
 21
1.672854806745828
 31
0.0
  0
LINE
  5
B33
  8
FORM
  6
CONTINUOUS
 10
16.478165374153061
 20
0.9750865379792159
 30
0.0
 11
21.249999986363441
 21
0.9750865379792159
 31
0.0
  0
LINE
  5
B34
  8
FORM
  6
CONTINUOUS
 10
17.97804237543275
 20
0.9750865379792159
 30
0.0
 11
17.97804237543275
 21
0.7499999996674092
 31
0.0
  0
LINE
  5
B35
  8
FORM
  6
CONTINUOUS
 10
19.950430811671389
 20
0.9723156702741989
 30
0.0
 11
19.950430811671389
 21
0.7472291319623921
 31
0.0
  0
LINE
  5
B36
  8
FORM
  6
CONTINUOUS
 10
20.65524763562988
 20
1.672854806745828
 30
0.0
 11
20.65524763562988
 21
0.9750865379792159
 31
0.0
  0
ARC
  5
B37
  8
FORM
 62
     5
 10
16.925603837263051
 20
2.683123263179624
 30
0.0
 40
0.0245481788339413
 50
152.18113099770551
 51
330.99098814993278
  0
ARC
  5
B38
  8
FORM
 62
     5
 10
17.03186349061718
 20
2.8877559907035391
 30
0.0
 40
0.0215248522646385
 50
335.32315363464198
 51
152.6722492633038
  0
ARC
  5
B39
  8
FORM
 62
     5
 10
18.67139281679863
 20
1.8778243841790809
 30
0.0
 40
1.9470863223045181
 50
148.41494327216151
 51
155.19852313243231
  0
ARC
  5
B3A
  8
FORM
 62
     5
 10
19.04826621925363
 20
1.7448079813832851
 30
0.0
 40
2.2963564077758769
 50
150.40875710206339
 51
156.20744757951141
  0
ARC
  5
B3B
  8
FORM
 62
     7
 10
16.856187689619201
 20
2.476891943456518
 30
0.0
 40
0.0328016362752216
 50
161.128725237971
 51
346.89295927401372
  0
ARC
  5
B3C
  8
FORM
 62
     7
 10
26.446981545233939
 20
-1.665659984064163
 30
0.0
 40
10.414927500982669
 50
153.58307292081309
 51
156.60691138966209
  0
ARC
  5
B3D
  8
FORM
 62
     7
 10
24.942765772362829
 20
-1.1245203992272681
 30
0.0
 40
8.873647082696257
 50
152.3409599977594
 51
152.9694116127464
  0
ARC
  5
B3E
  8
FORM
 62
     7
 10
25.042235970541071
 20
-1.413551413076795
 30
0.0
 40
9.0960831006715779
 50
153.37112835275721
 51
154.6040219565534
  0
ARC
  5
B3F
  8
FORM
 62
     7
 10
17.329398129118289
 20
2.8602652973761158
 30
0.0
 40
0.2358358050601862
 50
23.468725928190949
 51
88.151617587883351
  0
ARC
  5
B40
  8
FORM
 62
     7
 10
17.33466889121355
 20
2.8754695652234821
 30
0.0
 40
0.2783521476800796
 50
18.232625295665532
 51
154.63608874642691
  0
ARC
  5
B41
  8
FORM
 62
     7
 10
17.41806628342874
 20
2.9044827195306051
 30
0.0
 40
0.1900699214402894
 50
336.99722732837881
 51
341.11190659806488
  0
ARC
  5
B42
  8
FORM
 62
     7
 10
17.429371041778779
 20
2.912888609699027
 30
0.0
 40
0.1244898949022119
 50
333.24704424527522
 51
339.12675173356178
  0
ARC
  5
B43
  8
FORM
 62
     7
 10
17.547120806258562
 20
2.8541053585607901
 30
0.0
 40
0.007134896083525
 50
157.37475902115841
 51
243.18317341424029
  0
ARC
  5
B44
  8
FORM
 62
     7
 10
17.589262332130431
 20
2.8313183495512071
 30
0.0
 40
0.0039211308505914
 50
246.74236679857631
 51
343.55073793579652
  0
ARC
  5
B45
  8
FORM
 62
     7
 10
17.71265002297525
 20
3.1590467530149189
 30
0.0
 40
0.3541033340658146
 50
241.5396617947477
 51
249.33988332022491
  0
ARC
  5
B46
  8
FORM
 62
     7
 10
17.465116861604141
 20
2.7835275642507962
 30
0.0
 40
0.0699031230302257
 50
210.28645373052609
 51
287.25915125833183
  0
ARC
  5
B47
  8
FORM
 62
     7
 10
17.471123101482839
 20
2.7532989527990699
 30
0.0
 40
0.0393865134548433
 50
291.96730232828992
 51
10.20108836223371
  0
ARC
  5
B48
  8
FORM
 62
     7
 10
17.159843992632862
 20
2.6859329108208518
 30
0.0
 40
0.2527202610277017
 50
14.28109924276111
 51
24.947261539878241
  0
ARC
  5
B49
  8
FORM
 62
     7
 10
17.30724545805592
 20
2.7624795397720869
 30
0.0
 40
0.0870866377029319
 50
20.183063788867599
 51
47.833846572520173
  0
ARC
  5
B4A
  8
FORM
 62
     7
 10
17.323525970686489
 20
2.7183682645997709
 30
0.0
 40
0.1165593648186974
 50
68.784960310907394
 51
94.742087985452599
  0
ARC
  5
B4B
  8
FORM
 62
     7
 10
17.32225776675568
 20
2.7872533208520021
 30
0.0
 40
0.0480101674679103
 50
100.0375073429591
 51
170.98475346238999
  0
ARC
  5
B4C
  8
FORM
 62
     7
 10
17.548079884465121
 20
2.754066770453373
 30
0.0
 40
0.2762551956077745
 50
171.52589863719891
 51
197.494741096675
  0
ARC
  5
B4D
  8
FORM
 62
     7
 10
17.361988404409459
 20
2.757975203687443
 30
0.0
 40
0.1479164690482495
 50
0.8906501289532242
 51
49.113860192417171
  0
ARC
  5
B4E
  8
FORM
 62
     7
 10
17.330827327390121
 20
2.7851061194825268
 30
0.0
 40
0.1164203647136616
 50
99.869748807366761
 51
175.59516845025641
  0
ARC
  5
B4F
  8
FORM
 62
     7
 10
17.35181928853353
 20
2.721979015220195
 30
0.0
 40
0.1824780170187834
 50
54.104282451028169
 51
102.9674010870567
  0
ARC
  5
B50
  8
FORM
 62
     7
 10
17.866825478371819
 20
2.8305495615738461
 30
0.0
 40
0.603682768180479
 50
195.32307896217739
 51
209.2908431569582
  0
ARC
  5
B51
  8
FORM
 62
     7
 10
17.676878331574731
 20
2.7315679572076941
 30
0.0
 40
0.4663319886455236
 50
172.3003020759547
 51
200.12627387409299
  0
ARC
  5
B52
  8
FORM
 62
     7
 10
18.010296677355171
 20
2.8617220596188409
 30
0.0
 40
0.8242093741364085
 50
200.64629086238159
 51
210.04649609044401
  0
ARC
  5
B53
  8
FORM
 62
     7
 10
16.87490984687733
 20
2.2228629736894798
 30
0.0
 40
0.5605059965149727
 50
28.431949107384401
 51
33.865461133002448
  0
ARC
  5
B54
  8
FORM
 62
     7
 10
17.335282492148359
 20
2.4642291377128478
 30
0.0
 40
0.0413303405420145
 50
201.5644604264042
 51
38.094090168146302
  0
ARC
  5
B55
  8
FORM
 62
     5
 10
17.698488306364109
 20
2.8075987703319072
 30
0.0
 40
0.0229902810191139
 50
227.6202696593605
 51
57.412112921204063
  0
ARC
  5
B56
  8
FORM
 62
     5
 10
17.427351296879149
 20
2.453894972691713
 30
0.0
 40
0.4685807675213703
 50
52.766851639305898
 51
65.063571515457895
  0
ARC
  5
B57
  8
FORM
 62
     5
 10
17.209234353189508
 20
2.115713416994772
 30
0.0
 40
0.8245845677332351
 50
54.932512589538817
 51
74.152868438598915
  0
ARC
  5
B58
  8
FORM
 62
     5
 10
17.22112341118936
 20
1.8705744209651269
 30
0.0
 40
1.0600616451387339
 50
78.393012355262385
 51
89.647961077025343
  0
ARC
  5
B59
  8
FORM
 62
     5
 10
17.225855158117209
 20
2.9613835761542329
 30
0.0
 40
0.0308190515998151
 50
183.9979944211656
 51
273.313807745882
  0
ARC
  5
B5A
  8
FORM
 62
     5
 10
17.329870384946641
 20
2.9695252211814269
 30
0.0
 40
0.135151603104915
 50
145.60859166919269
 51
184.36670732083471
  0
ARC
  5
B5B
  8
FORM
 62
     5
 10
17.246715832908791
 20
3.027923603152622
 30
0.0
 40
0.0335688941126511
 50
75.244714174009715
 51
147.6929850116162
  0
ARC
  5
B5C
  8
FORM
 62
     5
 10
16.846566400398309
 20
1.4922623483111219
 30
0.0
 40
1.6205076763160291
 50
61.637242241525243
 51
75.392005557716701
  0
ARC
  5
B5D
  8
FORM
 62
     5
 10
17.585771892302461
 20
2.8909845400545029
 30
0.0
 40
0.0409937741994102
 50
342.6982574268402
 51
41.67278378767756
  0
ARC
  5
B5E
  8
FORM
 62
     7
 10
17.41806628342874
 20
2.9044827195306051
 30
0.0
 40
0.1900699214402894
 50
5.6380312699922719
 51
17.791456368736831
  0
ARC
  5
B5F
  8
FORM
 62
     7
 10
17.5045622300951
 20
2.0088127942983891
 30
0.0
 40
0.0608207837544583
 50
88.432533024773406
 51
186.62631613112151
  0
ARC
  5
B60
  8
FORM
 62
     7
 10
17.514107893903311
 20
2.0214944811508531
 30
0.0
 40
0.0726809031862866
 50
195.7266305128272
 51
285.3806868435185
  0
ARC
  5
B61
  8
FORM
 62
     7
 10
17.428397303924321
 20
2.6646932328165849
 30
0.0
 40
0.7209618028535085
 50
278.37329371359459
 51
293.15208507016871
  0
ARC
  5
B62
  8
FORM
 62
     7
 10
17.670280088548282
 20
2.2109164793858191
 30
0.0
 40
0.1486954171998164
 50
257.51805604168283
 51
277.23103351305667
  0
ARC
  5
B63
  8
FORM
 62
     7
 10
17.67861701724112
 20
2.0887614153130118
 30
0.0
 40
0.0273997705390677
 50
292.26031345923337
 51
12.8673793005237
  0
ARC
  5
B64
  8
FORM
 62
     7
 10
17.658243987918521
 20
2.0848332422543971
 30
0.0
 40
0.0481411784627428
 50
12.02537552739556
 51
52.143631645159331
  0
ARC
  5
B65
  8
FORM
 62
     7
 10
18.68473167686761
 20
3.3322419147777782
 30
0.0
 40
1.5673362882102819
 50
219.60277928185971
 51
230.5002020408055
  0
ARC
  5
B66
  8
FORM
 62
     7
 10
17.71719517775902
 20
2.5209914067630801
 30
0.0
 40
0.3048383262947374
 50
175.97523115435061
 51
218.04500009534141
  0
ARC
  5
B67
  8
FORM
 62
     7
 10
17.587988709286751
 20
2.5516026198667592
 30
0.0
 40
0.1751226981011722
 50
149.96078860476399
 51
183.01641230856191
  0
ARC
  5
B68
  8
FORM
 62
     7
 10
17.465652099646999
 20
2.6236413715572442
 30
0.0
 40
0.03317488584424
 50
69.764209445538683
 51
151.89881904551129
  0
ARC
  5
B69
  8
FORM
 62
     7
 10
17.461738153470581
 20
2.621386420418637
 30
0.0
 40
0.0367584023789668
 50
357.6694469744499
 51
65.251102439515435
  0
ARC
  5
B6A
  8
FORM
 62
     7
 10
17.375127171955
 20
2.6142785816255478
 30
0.0
 40
0.1234666367742727
 50
345.36193237678458
 51
2.6056939300727819
  0
ARC
  5
B6B
  8
FORM
 62
     7
 10
17.770788346688299
 20
2.4976765653254129
 30
0.0
 40
0.289103498612585
 50
162.8186183088072
 51
185.35496664157321
  0
ARC
  5
B6C
  8
FORM
 62
     7
 10
17.738557938675601
 20
2.526678108373186
 30
0.0
 40
0.261669979998945
 50
192.35349941930221
 51
222.3020476696031
  0
ARC
  5
B6D
  8
FORM
 62
     7
 10
18.640000382871079
 20
3.2533952889623161
 30
0.0
 40
1.419181254971364
 50
219.50633019139829
 51
228.42762303996261
  0
ARC
  5
B6E
  8
FORM
 62
     7
 10
17.545150090279261
 20
1.9830014576086259
 30
0.0
 40
0.2588352891177654
 50
32.971129457978869
 51
53.728419363024351
  0
ARC
  5
B6F
  8
FORM
 62
     7
 10
17.685505274612321
 20
2.0841393566689059
 30
0.0
 40
0.0864595649942742
 50
287.74749415951351
 51
27.35211189662947
  0
ARC
  5
B70
  8
FORM
 62
     7
 10
17.556150910590731
 20
1.521887384058928
 30
0.0
 40
0.5499940598264056
 50
81.426570944510203
 51
95.208118001959775
  0
ARC
  5
B71
  8
FORM
 62
     7
 10
17.31874226594763
 20
2.379232385518228
 30
0.0
 40
0.0244848954091209
 50
325.52447187114319
 51
75.340502228459783
  0
ARC
  5
B72
  8
FORM
 62
     7
 10
17.28857503182331
 20
2.4013816515593862
 30
0.0
 40
0.0619027859518531
 50
277.78730616127859
 51
324.42957968808531
  0
ARC
  5
B73
  8
FORM
 62
     7
 10
17.277627430402191
 20
2.4116764447725738
 30
0.0
 40
0.0741905263351136
 50
243.48581874200181
 51
285.1065744639306
  0
ARC
  5
B74
  8
FORM
 62
     7
 10
13.99616984532571
 20
-5.9734717723731041
 30
0.0
 40
9.0135811594364625
 50
68.327181839257534
 51
70.606105230637283
  0
ARC
  5
B75
  8
FORM
 62
     7
 10
16.982860283602829
 20
2.502260489661857
 30
0.0
 40
0.0271571196358057
 50
76.445232091872299
 51
134.36352227876461
  0
ARC
  5
B76
  8
FORM
 62
     7
 10
17.103601465049451
 20
2.316491870596419
 30
0.0
 40
0.2482433149023289
 50
124.2547762008316
 51
135.012931962436
  0
ARC
  5
B77
  8
FORM
 62
     7
 10
16.932687772438332
 20
2.4840903864877362
 30
0.0
 40
0.0091691237651447
 50
120.5491196217084
 51
251.48388650457539
  0
ARC
  5
B78
  8
FORM
 62
     7
 10
15.698852283122079
 20
-0.947959245240991
 30
0.0
 40
3.6379298384249581
 50
64.85742894317822
 51
67.515132469299331
  0
ARC
  5
B79
  8
FORM
 62
     7
 10
17.23599357112948
 20
2.291795105104121
 30
0.0
 40
0.0343472402230129
 50
329.18566117941782
 51
69.527151249863806
  0
ARC
  5
B7A
  8
FORM
 62
     7
 10
17.145886072427881
 20
2.1556962750494151
 30
0.0
 40
0.1968392862921899
 50
58.747973844557563
 51
81.106226592028094
  0
ARC
  5
B7B
  8
FORM
 62
     7
 10
17.124947044127829
 20
2.0252080021495891
 30
0.0
 40
0.3289962935825703
 50
81.016817915507374
 51
97.679603827268224
  0
ARC
  5
B7C
  8
FORM
 62
     7
 10
17.159573600239298
 20
2.1240726877937131
 30
0.0
 40
0.2440398498458748
 50
121.5050128230593
 51
139.09578810607039
  0
ARC
  5
B7D
  8
FORM
 62
     7
 10
17.225825242067831
 20
2.2865562155100809
 30
0.0
 40
0.0415466234232141
 50
277.70569210516868
 51
342.69880024124109
  0
ARC
  5
B7E
  8
FORM
 62
     7
 10
17.213074197788071
 20
2.3334352792513711
 30
0.0
 40
0.0899365447321688
 50
250.08394506358289
 51
281.75453717228322
  0
ARC
  5
B7F
  8
FORM
 62
     7
 10
17.2424582627973
 20
2.3437609022874879
 30
0.0
 40
0.1122732419236369
 50
221.18187885427241
 51
237.68378775985289
  0
ARC
  5
B80
  8
FORM
 62
     7
 10
17.11078230927049
 20
2.213603979985677
 30
0.0
 40
0.0733994924367979
 50
50.003848755011681
 51
75.5416830098399
  0
ARC
  5
B81
  8
FORM
 62
     7
 10
17.10690002874345
 20
2.2402084319691471
 30
0.0
 40
0.0497074536252231
 50
63.4626603498468
 51
100.74200229027051
  0
ARC
  5
B82
  8
FORM
 62
     7
 10
17.09763521067913
 20
2.2049366923578511
 30
0.0
 40
0.0841081409133923
 50
89.999999999999588
 51
125.5974615489027
  0
ARC
  5
B83
  8
FORM
 62
     7
 10
18.09535908495533
 20
2.805145934228654
 30
0.0
 40
1.1637748462988311
 50
197.51922498184919
 51
203.981481444731
  0
ARC
  5
B84
  8
FORM
 62
     7
 10
16.736982371619181
 20
2.433687501517297
 30
0.0
 40
0.3537389089231183
 50
346.52409876011302
 51
356.71498770316703
  0
ARC
  5
B85
  8
FORM
 62
     7
 10
15.698852283122079
 20
-0.947959245240991
 30
0.0
 40
3.6379298384249581
 50
69.286600818944052
 51
70.223117600768035
  0
ARC
  5
B86
  8
FORM
 62
     7
 10
16.92789692922846
 20
2.1257895907104252
 30
0.0
 40
0.1066736432871782
 50
245.40259669902051
 51
275.40975098180542
  0
ARC
  5
B87
  8
FORM
 62
     7
 10
17.301941284744
 20
1.9333049606058379
 30
0.0
 40
0.4239787481416163
 50
126.68044463040199
 51
139.78708822539889
  0
ARC
  5
B88
  8
FORM
 62
     7
 10
16.925901396850119
 20
2.42585100124619
 30
0.0
 40
0.4064386631288638
 50
271.69929119420118
 51
283.39540842056908
  0
ARC
  5
B89
  8
FORM
 62
     7
 10
17.685900196427319
 20
1.487877603185271
 30
0.0
 40
1.0089968057446299
 50
134.5410403491789
 51
138.91474429089911
  0
ARC
  5
B8A
  8
FORM
 62
     7
 10
16.942625607711989
 20
2.1366275124138698
 30
0.0
 40
0.0266928289273625
 50
201.8252958964795
 51
267.16449786715452
  0
ARC
  5
B8B
  8
FORM
 62
     7
 10
16.936879259411789
 20
2.1340951027918962
 30
0.0
 40
0.0204180021895292
 50
124.254854327418
 51
201.22329273937871
  0
ARC
  5
B8C
  8
FORM
 62
     7
 10
16.999050226745201
 20
2.1174828639755172
 30
0.0
 40
0.0895139066856433
 50
283.5751770312794
 51
324.58969283639931
  0
ARC
  5
B8D
  8
FORM
 62
     7
 10
17.05010181640597
 20
2.0748500422369349
 30
0.0
 40
0.0237711578752802
 50
337.14160324238748
 51
47.56496670892831
  0
ARC
  5
B8E
  8
FORM
 62
     7
 10
17.01351320176212
 20
2.0225775754130799
 30
0.0
 40
0.0874305156836371
 50
52.990730681111657
 51
91.748895977531376
  0
ARC
  5
B8F
  8
FORM
 62
     7
 10
16.97607501860476
 20
2.3473211427073291
 30
0.0
 40
0.2398869733850244
 50
261.66603807207321
 51
278.33396192792679
  0
ARC
  5
B90
  8
FORM
 62
     7
 10
16.904055290181631
 20
2.0802584334887442
 30
0.0
 40
0.0554174778483587
 50
192.64550774538381
 51
248.2223967256862
  0
ARC
  5
B91
  8
FORM
 62
     7
 10
16.890435234000019
 20
2.0865365172575769
 30
0.0
 40
0.0444453205431241
 50
178.88427582775461
 51
204.46998391858139
  0
ARC
  5
B92
  8
FORM
 62
     7
 10
17.00038134049046
 20
2.0753041716250129
 30
0.0
 40
0.1548562786887746
 50
140.54690015149379
 51
175.5193383191162
  0
ARC
  5
B93
  8
FORM
 62
     7
 10
18.525663181526959
 20
0.8608942872864346
 30
0.0
 40
2.1045236570324608
 50
137.45643980933039
 51
141.40545593619069
  0
POLYLINE
  5
B94
  8
FORM
 62
     1
 10
17.275622491608207
 20
3.0402781737931805
 30
0.0
 66
     1
 70
     8
  0
VERTEX
  8
FORM
  5
D4F
 10
17.2756
 20
3.04028
 30
0.000000
  70
    32
  0
VERTEX
  8
FORM
  5
D50
 10
17.2747
 20
3.04062
 30
0.000000
  70
    32
  0
VERTEX
  8
FORM
  5
D51
 10
17.2737
 20
3.04086
 30
0.000000
  70
    32
  0
VERTEX
  8
FORM
  5
D52
 10
17.2727
 20
3.04098
 30
0.000000
  70
    32
  0
VERTEX
  8
FORM
  5
D53
 10
17.2716
 20
3.04100
 30
0.000000
  70
    32
  0
VERTEX
  8
FORM
  5
D54
 10
17.2705
 20
3.04091
 30
0.000000
  70
    32
  0
VERTEX
  8
FORM
  5
D55
 10
17.2694
 20
3.04070
 30
0.000000
  70
    32
  0
VERTEX
  8
FORM
  5
D56
 10
17.2682
 20
3.04039
 30
0.000000
  70
    32
  0
VERTEX
  8
FORM
  5
D57
 10
17.2670
 20
3.03997
 30
0.000000
  70
    32
  0
VERTEX
  8
FORM
  5
D58
 10
17.2658
 20
3.03944
 30
0.000000
  70
    32
  0
VERTEX
  8
FORM
  5
D59
 10
17.2646
 20
3.03880
 30
0.000000
  70
    32
  0
VERTEX
  8
FORM
  5
D5A
 10
17.2633
 20
3.03806
 30
0.000000
  70
    32
  0
VERTEX
  8
FORM
  5
D5B
 10
17.2620
 20
3.03722
 30
0.000000
  70
    32
  0
VERTEX
  8
FORM
  5
D5C
 10
17.2607
 20
3.03627
 30
0.000000
  70
    32
  0
VERTEX
  8
FORM
  5
D5D
 10
17.2594
 20
3.03523
 30
0.000000
  70
    32
  0
VERTEX
  8
FORM
  5
D5E
 10
17.2581
 20
3.03409
 30
0.000000
  70
    32
  0
VERTEX
  8
FORM
  5
D5F
 10
17.2568
 20
3.03286
 30
0.000000
  70
    32
  0
VERTEX
  8
FORM
  5
D60
 10
17.2554
 20
3.03154
 30
0.000000
  70
    32
  0
VERTEX
  8
FORM
  5
D61
 10
17.2541
 20
3.03013
 30
0.000000
  70
    32
  0
VERTEX
  8
FORM
  5
D62
 10
17.2528
 20
3.02864
 30
0.000000
  70
    32
  0
VERTEX
  8
FORM
  5
D63
 10
17.2515
 20
3.02706
 30
0.000000
  70
    32
  0
VERTEX
  8
FORM
  5
D64
 10
17.2502
 20
3.02541
 30
0.000000
  70
    32
  0
VERTEX
  8
FORM
  5
D65
 10
17.2489
 20
3.02369
 30
0.000000
  70
    32
  0
VERTEX
  8
FORM
  5
D66
 10
17.2476
 20
3.02190
 30
0.000000
  70
    32
  0
VERTEX
  8
FORM
  5
D67
 10
17.2464
 20
3.02004
 30
0.000000
  70
    32
  0
VERTEX
  8
FORM
  5
D68
 10
17.2451
 20
3.01813
 30
0.000000
  70
    32
  0
VERTEX
  8
FORM
  5
D69
 10
17.2439
 20
3.01616
 30
0.000000
  70
    32
  0
VERTEX
  8
FORM
  5
D6A
 10
17.2427
 20
3.01414
 30
0.000000
  70
    32
  0
VERTEX
  8
FORM
  5
D6B
 10
17.2416
 20
3.01208
 30
0.000000
  70
    32
  0
VERTEX
  8
FORM
  5
D6C
 10
17.2405
 20
3.00997
 30
0.000000
  70
    32
  0
VERTEX
  8
FORM
  5
D6D
 10
17.2394
 20
3.00783
 30
0.000000
  70
    32
  0
VERTEX
  8
FORM
  5
D6E
 10
17.2384
 20
3.00566
 30
0.000000
  70
    32
  0
VERTEX
  8
FORM
  5
D6F
 10
17.2374
 20
3.00347
 30
0.000000
  70
    32
  0
VERTEX
  8
FORM
  5
D70
 10
17.2364
 20
3.00125
 30
0.000000
  70
    32
  0
VERTEX
  8
FORM
  5
D71
 10
17.2356
 20
2.99902
 30
0.000000
  70
    32
  0
VERTEX
  8
FORM
  5
D72
 10
17.2347
 20
2.99679
 30
0.000000
  70
    32
  0
VERTEX
  8
FORM
  5
D73
 10
17.2339
 20
2.99454
 30
0.000000
  70
    32
  0
VERTEX
  8
FORM
  5
D74
 10
17.2332
 20
2.99231
 30
0.000000
  70
    32
  0
VERTEX
  8
FORM
  5
D75
 10
17.2325
 20
2.99007
 30
0.000000
  70
    32
  0
VERTEX
  8
FORM
  5
D76
 10
17.2318
 20
2.98785
 30
0.000000
  70
    32
  0
VERTEX
  8
FORM
  5
D77
 10
17.2313
 20
2.98565
 30
0.000000
  70
    32
  0
VERTEX
  8
FORM
  5
D78
 10
17.2307
 20
2.98348
 30
0.000000
  70
    32
  0
VERTEX
  8
FORM
  5
D79
 10
17.2303
 20
2.98133
 30
0.000000
  70
    32
  0
VERTEX
  8
FORM
  5
D7A
 10
17.2299
 20
2.97921
 30
0.000000
  70
    32
  0
VERTEX
  8
FORM
  5
D7B
 10
17.2296
 20
2.97713
 30
0.000000
  70
    32
  0
VERTEX
  8
FORM
  5
D7C
 10
17.2293
 20
2.97510
 30
0.000000
  70
    32
  0
VERTEX
  8
FORM
  5
D7D
 10
17.2291
 20
2.97312
 30
0.000000
  70
    32
  0
VERTEX
  8
FORM
  5
D7E
 10
17.2289
 20
2.97119
 30
0.000000
  70
    32
  0
VERTEX
  8
FORM
  5
D7F
 10
17.2289
 20
2.96931
 30
0.000000
  70
    32
  0
VERTEX
  8
FORM
  5
D80
 10
17.2289
 20
2.96751
 30
0.000000
  70
    32
  0
VERTEX
  8
FORM
  5
D81
 10
17.2289
 20
2.96576
 30
0.000000
  70
    32
  0
VERTEX
  8
FORM
  5
D82
 10
17.2290
 20
2.96409
 30
0.000000
  70
    32
  0
VERTEX
  8
FORM
  5
D83
 10
17.2292
 20
2.96250
 30
0.000000
  70
    32
  0
VERTEX
  8
FORM
  5
D84
 10
17.2295
 20
2.96098
 30
0.000000
  70
    32
  0
VERTEX
  8
FORM
  5
D85
 10
17.2298
 20
2.95955
 30
0.000000
  70
    32
  0
VERTEX
  8
FORM
  5
D86
 10
17.2301
 20
2.95820
 30
0.000000
  70
    32
  0
VERTEX
  8
FORM
  5
D87
 10
17.2306
 20
2.95694
 30
0.000000
  70
    32
  0
VERTEX
  8
FORM
  5
D88
 10
17.2311
 20
2.95577
 30
0.000000
  70
    32
  0
VERTEX
  8
FORM
  5
D89
 10
17.2316
 20
2.95470
 30
0.000000
  70
    32
  0
VERTEX
  8
FORM
  5
D8A
 10
17.2323
 20
2.95373
 30
0.000000
  70
    32
  0
VERTEX
  8
FORM
  5
D8B
 10
17.2329
 20
2.95286
 30
0.000000
  70
    32
  0
VERTEX
  8
FORM
  5
D8C
 10
17.2337
 20
2.95209
 30
0.000000
  70
    32
  0
VERTEX
  8
FORM
  5
D8D
 10
17.2344
 20
2.95142
 30
0.000000
  70
    32
  0
VERTEX
  8
FORM
  5
D8E
 10
17.2353
 20
2.95086
 30
0.000000
  70
    32
  0
VERTEX
  8
FORM
  5
D8F
 10
17.2362
 20
2.95041
 30
0.000000
  70
    32
  0
VERTEX
  8
FORM
  5
D90
 10
17.2371
 20
2.95007
 30
0.000000
  70
    32
  0
VERTEX
  8
FORM
  5
D91
 10
17.2381
 20
2.94983
 30
0.000000
  70
    32
  0
VERTEX
  8
FORM
  5
D92
 10
17.2391
 20
2.94971
 30
0.000000
  70
    32
  0
VERTEX
  8
FORM
  5
D93
 10
17.2401
 20
2.94969
 30
0.000000
  70
    32
  0
VERTEX
  8
FORM
  5
D94
 10
17.2412
 20
2.94978
 30
0.000000
  70
    32
  0
VERTEX
  8
FORM
  5
D95
 10
17.2424
 20
2.94999
 30
0.000000
  70
    32
  0
VERTEX
  8
FORM
  5
D96
 10
17.2435
 20
2.95030
 30
0.000000
  70
    32
  0
VERTEX
  8
FORM
  5
D97
 10
17.2447
 20
2.95072
 30
0.000000
  70
    32
  0
VERTEX
  8
FORM
  5
D98
 10
17.2460
 20
2.95125
 30
0.000000
  70
    32
  0
VERTEX
  8
FORM
  5
D99
 10
17.2472
 20
2.95189
 30
0.000000
  70
    32
  0
VERTEX
  8
FORM
  5
D9A
 10
17.2485
 20
2.95263
 30
0.000000
  70
    32
  0
VERTEX
  8
FORM
  5
D9B
 10
17.2498
 20
2.95347
 30
0.000000
  70
    32
  0
VERTEX
  8
FORM
  5
D9C
 10
17.2511
 20
2.95442
 30
0.000000
  70
    32
  0
VERTEX
  8
FORM
  5
D9D
 10
17.2524
 20
2.95546
 30
0.000000
  70
    32
  0
VERTEX
  8
FORM
  5
D9E
 10
17.2537
 20
2.95660
 30
0.000000
  70
    32
  0
VERTEX
  8
FORM
  5
D9F
 10
17.2550
 20
2.95783
 30
0.000000
  70
    32
  0
VERTEX
  8
FORM
  5
DA0
 10
17.2563
 20
2.95915
 30
0.000000
  70
    32
  0
VERTEX
  8
FORM
  5
DA1
 10
17.2577
 20
2.96056
 30
0.000000
  70
    32
  0
VERTEX
  8
FORM
  5
DA2
 10
17.2590
 20
2.96205
 30
0.000000
  70
    32
  0
VERTEX
  8
FORM
  5
DA3
 10
17.2603
 20
2.96363
 30
0.000000
  70
    32
  0
VERTEX
  8
FORM
  5
DA4
 10
17.2616
 20
2.96528
 30
0.000000
  70
    32
  0
VERTEX
  8
FORM
  5
DA5
 10
17.2629
 20
2.96700
 30
0.000000
  70
    32
  0
VERTEX
  8
FORM
  5
DA6
 10
17.2642
 20
2.96879
 30
0.000000
  70
    32
  0
VERTEX
  8
FORM
  5
DA7
 10
17.2654
 20
2.97065
 30
0.000000
  70
    32
  0
VERTEX
  8
FORM
  5
DA8
 10
17.2667
 20
2.97256
 30
0.000000
  70
    32
  0
VERTEX
  8
FORM
  5
DA9
 10
17.2679
 20
2.97453
 30
0.000000
  70
    32
  0
VERTEX
  8
FORM
  5
DAA
 10
17.2690
 20
2.97655
 30
0.000000
  70
    32
  0
VERTEX
  8
FORM
  5
DAB
 10
17.2702
 20
2.97861
 30
0.000000
  70
    32
  0
VERTEX
  8
FORM
  5
DAC
 10
17.2713
 20
2.98072
 30
0.000000
  70
    32
  0
VERTEX
  8
FORM
  5
DAD
 10
17.2724
 20
2.98286
 30
0.000000
  70
    32
  0
VERTEX
  8
FORM
  5
DAE
 10
17.2734
 20
2.98503
 30
0.000000
  70
    32
  0
VERTEX
  8
FORM
  5
DAF
 10
17.2744
 20
2.98722
 30
0.000000
  70
    32
  0
VERTEX
  8
FORM
  5
DB0
 10
17.2753
 20
2.98944
 30
0.000000
  70
    32
  0
VERTEX
  8
FORM
  5
DB1
 10
17.2762
 20
2.99167
 30
0.000000
  70
    32
  0
VERTEX
  8
FORM
  5
DB2
 10
17.2771
 20
2.99390
 30
0.000000
  70
    32
  0
VERTEX
  8
FORM
  5
DB3
 10
17.2779
 20
2.99615
 30
0.000000
  70
    32
  0
VERTEX
  8
FORM
  5
DB4
 10
17.2786
 20
2.99838
 30
0.000000
  70
    32
  0
VERTEX
  8
FORM
  5
DB5
 10
17.2793
 20
3.00062
 30
0.000000
  70
    32
  0
VERTEX
  8
FORM
  5
DB6
 10
17.2800
 20
3.00284
 30
0.000000
  70
    32
  0
VERTEX
  8
FORM
  5
DB7
 10
17.2805
 20
3.00504
 30
0.000000
  70
    32
  0
VERTEX
  8
FORM
  5
DB8
 10
17.2810
 20
3.00721
 30
0.000000
  70
    32
  0
VERTEX
  8
FORM
  5
DB9
 10
17.2815
 20
3.00936
 30
0.000000
  70
    32
  0
VERTEX
  8
FORM
  5
DBA
 10
17.2819
 20
3.01148
 30
0.000000
  70
    32
  0
VERTEX
  8
FORM
  5
DBB
 10
17.2822
 20
3.01356
 30
0.000000
  70
    32
  0
VERTEX
  8
FORM
  5
DBC
 10
17.2825
 20
3.01559
 30
0.000000
  70
    32
  0
VERTEX
  8
FORM
  5
DBD
 10
17.2827
 20
3.01757
 30
0.000000
  70
    32
  0
VERTEX
  8
FORM
  5
DBE
 10
17.2828
 20
3.01950
 30
0.000000
  70
    32
  0
VERTEX
  8
FORM
  5
DBF
 10
17.2829
 20
3.02137
 30
0.000000
  70
    32
  0
VERTEX
  8
FORM
  5
DC0
 10
17.2829
 20
3.02318
 30
0.000000
  70
    32
  0
VERTEX
  8
FORM
  5
DC1
 10
17.2829
 20
3.02493
 30
0.000000
  70
    32
  0
VERTEX
  8
FORM
  5
DC2
 10
17.2828
 20
3.02660
 30
0.000000
  70
    32
  0
VERTEX
  8
FORM
  5
DC3
 10
17.2826
 20
3.02819
 30
0.000000
  70
    32
  0
VERTEX
  8
FORM
  5
DC4
 10
17.2823
 20
3.02971
 30
0.000000
  70
    32
  0
VERTEX
  8
FORM
  5
DC5
 10
17.2820
 20
3.03114
 30
0.000000
  70
    32
  0
VERTEX
  8
FORM
  5
DC6
 10
17.2816
 20
3.03249
 30
0.000000
  70
    32
  0
VERTEX
  8
FORM
  5
DC7
 10
17.2812
 20
3.03375
 30
0.000000
  70
    32
  0
VERTEX
  8
FORM
  5
DC8
 10
17.2807
 20
3.03492
 30
0.000000
  70
    32
  0
VERTEX
  8
FORM
  5
DC9
 10
17.2801
 20
3.03599
 30
0.000000
  70
    32
  0
VERTEX
  8
FORM
  5
DCA
 10
17.2795
 20
3.03696
 30
0.000000
  70
    32
  0
VERTEX
  8
FORM
  5
DCB
 10
17.2789
 20
3.03783
 30
0.000000
  70
    32
  0
VERTEX
  8
FORM
  5
DCC
 10
17.2781
 20
3.03860
 30
0.000000
  70
    32
  0
VERTEX
  8
FORM
  5
DCD
 10
17.2773
 20
3.03927
 30
0.000000
  70
    32
  0
VERTEX
  8
FORM
  5
DCE
 10
17.2765
 20
3.03983
 30
0.000000
  70
    32
  0
VERTEX
  8
FORM
  5
DCF
 10
17.2756
 20
3.04028
 30
0.000000
  70
    32
  0
SEQEND
  8
FORM
  5
DD0
  0
ARC
  5
B95
  8
FORM
 62
     7
 10
17.31969472840197
 20
2.8767429643067852
 30
0.0
 40
0.2199177503197187
 50
85.485448269952457
 51
155.5006785655419
  0
TEXT
  5
B96
  8
FORM
 62
     7
 10
16.545907219234731
 20
1.726726372181332
 30
0.0
 40
0.0861538460965367
  1
R2-D2 BUILDERS CLUB
  0
ARC
  5
B97
  8
FORM
 10
0.7499999996674376
 20
0.7499999996674092
 30
0.0
 40
0.1538461537438154
 50
180.0
 51
270.0
  0
ARC
  5
B98
  8
FORM
 10
0.7499999996674376
 20
0.7499999996674092
 30
0.0
 40
0.3076923074876307
 50
180.0
 51
270.0
  0
ARC
  5
B99
  8
FORM
 10
0.7499999996674376
 20
0.7499999996674092
 30
0.0
 40
0.3461538459235846
 50
180.0
 51
270.0
  0
ARC
  5
B9A
  8
FORM
 10
0.7499999996674376
 20
0.7499999996674092
 30
0.0
 40
0.4999999996674
 50
180.0
 51
270.0
  0
ARC
  5
B9B
  8
FORM
 10
0.7499999996674376
 20
15.153846144098431
 30
0.0
 40
0.4999999996674
 50
90.0
 51
180.0
  0
ARC
  5
B9C
  8
FORM
 10
0.7499999996674376
 20
15.153846144098431
 30
0.0
 40
0.3461538459235846
 50
90.0
 51
180.0
  0
ARC
  5
B9D
  8
FORM
 10
0.7499999996674376
 20
15.153846144098431
 30
0.0
 40
0.3076923074876307
 50
90.0
 51
180.0
  0
ARC
  5
B9E
  8
FORM
 10
0.7499999996674376
 20
15.153846144098431
 30
0.0
 40
0.1538461537438154
 50
90.0
 51
180.0
  0
ARC
  5
B9F
  8
FORM
 10
21.249999986363441
 20
15.153846144098431
 30
0.0
 40
0.3076923074876307
 50
0.0
 51
90.0
  0
ARC
  5
BA0
  8
FORM
 10
21.249999986363441
 20
15.153846144098431
 30
0.0
 40
0.3461538459235846
 50
0.0
 51
90.0
  0
ARC
  5
BA1
  8
FORM
 10
21.249999986363441
 20
15.153846144098431
 30
0.0
 40
0.4999999996674
 50
0.0
 51
90.0
  0
ARC
  5
BA2
  8
FORM
 10
21.249999986363441
 20
15.153846144098431
 30
0.0
 40
0.1538461537438154
 50
0.0
 51
90.0
  0
ARC
  5
BA3
  8
FORM
 10
21.249999986363441
 20
0.7499999996674092
 30
0.0
 40
0.4999999996674
 50
270.0
 51
0.0
  0
ARC
  5
BA4
  8
FORM
 10
21.249999986363441
 20
0.7499999996674092
 30
0.0
 40
0.3461538459235846
 50
270.0
 51
0.0
  0
ARC
  5
BA5
  8
FORM
 10
21.249999986363441
 20
0.7499999996674092
 30
0.0
 40
0.3076923074876307
 50
270.0
 51
0.0
  0
ARC
  5
BA6
  8
FORM
 10
21.249999986363441
 20
0.7499999996674092
 30
0.0
 40
0.1538461537438154
 50
270.0
 51
0.0
  0
LINE
  5
BA7
  8
FORM
 10
21.249999986363441
 20
0.4423076921797886
 30
0.0
 11
0.7499999996674376
 21
0.442307692179778
 31
0.0
  0
LINE
  5
BA8
  8
FORM
 10
21.249999986363441
 20
0.4038461537438352
 30
0.0
 11
0.7499999996674376
 21
0.4038461537438245
 31
0.0
  0
LINE
  5
BA9
  8
FORM
 10
21.249999986363441
 20
0.2500000000000071
 30
0.0
 11
0.7499999996674376
 21
0.25
 31
0.0
  0
LINE
  5
BAA
  8
FORM
 10
21.55769229385108
 20
0.7499999996674092
 30
0.0
 11
21.55769229385108
 21
15.153846144098431
 31
0.0
  0
LINE
  5
BAB
  8
FORM
 10
21.59615383228703
 20
0.7499999996674092
 30
0.0
 11
21.59615383228703
 21
15.153846144098431
 31
0.0
  0
LINE
  5
BAC
  8
FORM
 10
21.74999998603084
 20
0.7499999996674092
 30
0.0
 11
21.74999998603084
 21
15.153846144098431
 31
0.0
  0
LINE
  5
BAD
  8
FORM
 10
21.249999986363441
 20
15.46153845158606
 30
0.0
 11
0.7499999996674376
 21
15.46153845158606
 31
0.0
  0
LINE
  5
BAE
  8
FORM
 10
21.249999986363441
 20
15.499999990022021
 30
0.0
 11
0.7499999996674376
 21
15.499999990022021
 31
0.0
  0
LINE
  5
BAF
  8
FORM
 10
21.249999986363441
 20
15.653846143765829
 30
0.0
 11
0.7499999996674376
 21
15.653846143765829
 31
0.0
  0
LINE
  5
BB0
  8
FORM
 10
0.44230769217981
 20
0.7499999996674092
 30
0.0
 11
0.44230769217981
 21
15.153846144098431
 31
0.0
  0
LINE
  5
BB1
  8
FORM
 10
0.4038461537438565
 20
0.7499999996674092
 30
0.0
 11
0.4038461537438565
 21
15.153846144098431
 31
0.0
  0
LINE
  5
BB2
  8
FORM
 10
0.25
 20
0.7499999996674092
 30
0.0
 11
0.2500000000000426
 21
15.153846144098431
 31
0.0
  0
LINE
  5
BB3
  8
FORM
  6
CONTINUOUS
 10
16.703251912464879
 20
0.7499999996674092
 30
0.0
 11
21.02491344805162
 21
0.7499999996674092
 31
0.0
  0
LINE
  5
BB4
  8
FORM
  6
CONTINUOUS
 10
21.249999986363441
 20
3.1359173057725931
 30
0.0
 11
21.249999986363441
 21
0.9750865379792159
 31
0.0
  0
ARC
  5
BB5
  8
FORM
  6
CONTINUOUS
 10
21.02491344805162
 20
0.9750865379792159
 30
0.0
 40
0.2250865383118096
 50
270.0
 51
0.0
  0
ARC
  5
BB6
  8
FORM
  6
CONTINUOUS
 10
21.02491344805162
 20
3.1359173057725931
 30
0.0
 40
0.2250865383118096
 50
359.99999999999989
 51
90.0
  0
ARC
  5
BB7
  8
FORM
  6
CONTINUOUS
 10
16.703251912464879
 20
0.9750865379792159
 30
0.0
 40
0.2250865383118096
 50
180.0
 51
270.0
  0
ARC
  5
BB8
  8
FORM
  6
CONTINUOUS
 10
16.703251912464879
 20
3.1359173057725931
 30
0.0
 40
0.2250865383118096
 50
90.0
 51
180.0
  0
LINE
  5
CFD
  8
0
 10
0.7499999996674376
 20
0.7499999996674092
 30
0.0
 11
0.7499999996674376
 21
1.7499999996674089
 31
0.0
  0
LINE
  5
CFE
  8
0
 10
0.7499999996674376
 20
0.8749999996674091
 30
0.0
 11
0.8749999996674375
 21
0.8749999996674091
 31
0.0
  0
LINE
  5
CFF
  8
0
 10
0.7499999996674376
 20
0.9999999996674091
 30
0.0
 11
0.9999999996674375
 21
0.9999999996674091
 31
0.0
  0
LINE
  5
D00
  8
0
 10
0.7499999996674376
 20
1.1249999996674089
 30
0.0
 11
0.8749999996674375
 21
1.1249999996674089
 31
0.0
  0
LINE
  5
D01
  8
0
 10
0.7499999996674376
 20
1.2499999996674089
 30
0.0
 11
1.1249999996674369
 21
1.2499999996674089
 31
0.0
  0
LINE
  5
D02
  8
0
 10
0.7499999996674376
 20
1.3749999996674089
 30
0.0
 11
0.8749999996674375
 21
1.3749999996674089
 31
0.0
  0
LINE
  5
D03
  8
0
 10
0.7499999996674376
 20
1.4999999996674089
 30
0.0
 11
0.9999999996674375
 21
1.4999999996674089
 31
0.0
  0
LINE
  5
D04
  8
0
 10
0.7499999996674376
 20
1.6249999996674089
 30
0.0
 11
0.8749999996674375
 21
1.6249999996674089
 31
0.0
  0
LINE
  5
D05
  8
0
 10
0.7499999996674376
 20
1.7499999996674089
 30
0.0
 11
1.1249999996674369
 21
1.7499999996674089
 31
0.0
  0
LINE
  5
D06
  8
0
 10
0.7499999996674376
 20
0.7499999996674092
 30
0.0
 11
1.1249999996674369
 21
0.7499999996674092
 31
0.0
  0
TEXT
  5
D07
  8
0
 10
1.1742687732938739
 20
1.216959438666926
 30
0.0
 40
0.0625
  1
1/2"
  0
TEXT
  5
D08
  8
0
 10
0.9242687732938748
 20
1.091959438666926
 30
0.0
 40
0.0625
  1
3/8"
  0
TEXT
  5
D09
  8
0
 10
1.0492687732938739
 20
0.966959438666926
 30
0.0
 40
0.0625
  1
1/4"
  0
TEXT
  5
D0A
  8
0
 10
0.9242687732938748
 20
0.841959438666926
 30
0.0
 40
0.0625
  1
1/8"
  0
TEXT
  5
D0B
  8
0
 10
0.9242687732938748
 20
1.341959438666926
 30
0.0
 40
0.0625
  1
5/8"
  0
TEXT
  5
D0C
  8
0
 10
1.0492687732938739
 20
1.466959438666926
 30
0.0
 40
0.0625
  1
3/4"
  0
TEXT
  5
D0D
  8
0
 10
0.9242687732938748
 20
1.591959438666926
 30
0.0
 40
0.0625
  1
7/8"
  0
TEXT
  5
D0E
  8
0
 10
1.1742687732938739
 20
1.716959438666926
 30
0.0
 40
0.0625
  1
1"
  0
ENDSEC
  0
EOF
