  0
SECTION
  2
HEADER
  9
$ACADVER
  1
AC1009
  9
$INSBASE
 10
0.0
 20
0.0
 30
0.0
  9
$EXTMIN
 10
0.0
 20
0.0
 30
0.0
  9
$EXTMAX
 10
44.0
 20
34.0
 30
0.0
  9
$LIMMIN
 10
0.0
 20
0.0
  9
$LIMMAX
 10
12.0
 20
9.0
  9
$ORTHOMODE
 70
     0
  9
$REGENMODE
 70
     1
  9
$FILLMODE
 70
     1
  9
$QTEXTMODE
 70
     0
  9
$MIRRTEXT
 70
     0
  9
$DRAGMODE
 70
     2
  9
$LTSCALE
 40
1.0
  9
$OSMODE
 70
    39
  9
$ATTMODE
 70
     1
  9
$TEXTSIZE
 40
0.2
  9
$TRACEWID
 40
0.05
  9
$TEXTSTYLE
  7
STANDARD
  9
$CLAYER
  8
0
  9
$CELTYPE
  6
BYLAYER
  9
$CECOLOR
 62
   256
  9
$DIMSCALE
 40
1.0
  9
$DIMASZ
 40
0.3125
  9
$DIMEXO
 40
0.0625
  9
$DIMDLI
 40
0.38
  9
$DIMRND
 40
0.0
  9
$DIMDLE
 40
0.0
  9
$DIMEXE
 40
0.0625
  9
$DIMTP
 40
0.0
  9
$DIMTM
 40
0.0
  9
$DIMTXT
 40
0.3125
  9
$DIMCEN
 40
0.0
  9
$DIMTSZ
 40
0.0
  9
$DIMTOL
 70
     0
  9
$DIMLIM
 70
     0
  9
$DIMTIH
 70
     1
  9
$DIMTOH
 70
     1
  9
$DIMSE1
 70
     0
  9
$DIMSE2
 70
     0
  9
$DIMTAD
 70
     0
  9
$DIMZIN
 70
     0
  9
$DIMBLK
  1

  9
$DIMASO
 70
     1
  9
$DIMSHO
 70
     1
  9
$DIMPOST
  1

  9
$DIMAPOST
  1

  9
$DIMALT
 70
     0
  9
$DIMALTD
 70
     2
  9
$DIMALTF
 40
25.399999999999999
  9
$DIMLFAC
 40
1.0
  9
$DIMTOFL
 70
     0
  9
$DIMTVP
 40
0.0
  9
$DIMTIX
 70
     0
  9
$DIMSOXD
 70
     0
  9
$DIMSAH
 70
     0
  9
$DIMBLK1
  1

  9
$DIMBLK2
  1

  9
$DIMSTYLE
  2
STANDARD
  9
$DIMCLRD
 70
     0
  9
$DIMCLRE
 70
     0
  9
$DIMCLRT
 70
     0
  9
$DIMTFAC
 40
1.0
  9
$DIMGAP
 40
0.09375
  9
$LUNITS
 70
     2
  9
$LUPREC
 70
     8
  9
$SKETCHINC
 40
0.1
  9
$FILLETRAD
 40
0.0
  9
$AUNITS
 70
     0
  9
$AUPREC
 70
     8
  9
$MENU
  1
.
  9
$ELEVATION
 40
0.0
  9
$PELEVATION
 40
0.0
  9
$THICKNESS
 40
0.0
  9
$LIMCHECK
 70
     0
  9
$BLIPMODE
 70
     0
  9
$CHAMFERA
 40
0.0
  9
$CHAMFERB
 40
0.0
  9
$SKPOLY
 70
     0
  9
$TDCREATE
 40
2453392.3745916551
  9
$TDUPDATE
 40
2453462.4941380438
  9
$TDINDWG
 40
0.2541760069
  9
$TDUSRTIMER
 40
0.2541706713
  9
$USRTIMER
 70
     1
  9
$ANGBASE
 50
0.0
  9
$ANGDIR
 70
     0
  9
$PDMODE
 70
     0
  9
$PDSIZE
 40
0.0
  9
$PLINEWID
 40
0.0
  9
$COORDS
 70
     0
  9
$SPLFRAME
 70
     0
  9
$SPLINETYPE
 70
     6
  9
$SPLINESEGS
 70
     8
  9
$ATTDIA
 70
     0
  9
$ATTREQ
 70
     1
  9
$HANDLING
 70
     1
  9
$HANDSEED
  5
8FC
  9
$SURFTAB1
 70
     6
  9
$SURFTAB2
 70
     6
  9
$SURFTYPE
 70
     6
  9
$SURFU
 70
     6
  9
$SURFV
 70
     6
  9
$UCSNAME
  2

  9
$UCSORG
 10
0.0
 20
0.0
 30
0.0
  9
$UCSXDIR
 10
1.0
 20
0.0
 30
0.0
  9
$UCSYDIR
 10
0.0
 20
1.0
 30
0.0
  9
$PUCSNAME
  2

  9
$PUCSORG
 10
0.0
 20
0.0
 30
0.0
  9
$PUCSXDIR
 10
1.0
 20
0.0
 30
0.0
  9
$PUCSYDIR
 10
0.0
 20
1.0
 30
0.0
  9
$USERI1
 70
     0
  9
$USERI2
 70
     0
  9
$USERI3
 70
     0
  9
$USERI4
 70
     0
  9
$USERI5
 70
     0
  9
$USERR1
 40
0.0
  9
$USERR2
 40
0.0
  9
$USERR3
 40
0.0
  9
$USERR4
 40
0.0
  9
$USERR5
 40
0.0
  9
$WORLDVIEW
 70
     1
  9
$SHADEDGE
 70
     3
  9
$SHADEDIF
 70
    70
  9
$TILEMODE
 70
     1
  9
$MAXACTVP
 70
    64
  9
$PLIMCHECK
 70
     0
  9
$PEXTMIN
 10
0.0
 20
0.0
 30
0.0
  9
$PEXTMAX
 10
0.0
 20
0.0
 30
0.0
  9
$PLIMMIN
 10
0.0
 20
0.0
  9
$PLIMMAX
 10
12.0
 20
9.0
  9
$UNITMODE
 70
     0
  9
$VISRETAIN
 70
     1
  9
$PLINEGEN
 70
     0
  9
$PSLTSCALE
 70
     1
  0
ENDSEC
  0
SECTION
  2
TABLES
  0
TABLE
  2
VPORT
 70
     2
  0
VPORT
  2
*ACTIVE
 70
     0
 10
0.0
 20
0.0
 11
1.0
 21
1.0
 12
21.999681499729999
 22
16.9997729382378
 13
0.0
 23
0.0
 14
0.5
 24
0.5
 15
0.5
 25
0.5
 16
0.0
 26
0.0
 36
1.0
 17
0.0
 27
0.0
 37
0.0
 40
34.438777511741108
 41
2.1727078891257992
 42
50.0
 43
0.0
 44
0.0
 50
0.0
 51
0.0
 71
     0
 72
 20000
 73
     1
 74
     2
 75
     0
 76
     0
 77
     0
 78
     0
  0
ENDTAB
  0
TABLE
  2
LTYPE
 70
     1
  0
LTYPE
  2
CONTINUOUS
 70
     0
  3
Solid line
 72
    65
 73
     0
 40
0.0
  0
ENDTAB
  0
TABLE
  2
LAYER
 70
     5
  0
LAYER
  2
0
 70
     0
 62
     7
  6
CONTINUOUS
  0
LAYER
  2
ANKLE_-_CENTER
 70
     0
 62
     7
  6
CONTINUOUS
  0
LAYER
  2
DIMENSIONS
 70
     0
 62
     1
  6
CONTINUOUS
  0
LAYER
  2
FORM
 70
     0
 62
     5
  6
CONTINUOUS
  0
LAYER
  2
DEFPOINTS
 70
     0
 62
     7
  6
CONTINUOUS
  0
ENDTAB
  0
TABLE
  2
STYLE
 70
     1
  0
STYLE
  2
STANDARD
 70
     0
 40
0.0
 41
1.0
 50
0.0
 71
     0
 42
0.2
  3
simplex.shx
  4

  0
ENDTAB
  0
TABLE
  2
VIEW
 70
     0
  0
ENDTAB
  0
TABLE
  2
UCS
 70
     0
  0
ENDTAB
  0
TABLE
  2
APPID
 70
     4
  0
APPID
  2
ACAD
 70
     0
  0
APPID
  2
ACAECLAYERSTANDARD
 70
     0
  0
APPID
  2
DCO15
 70
     0
  0
APPID
  2
ACAD_PSEXT
 70
     0
  0
ENDTAB
  0
TABLE
  2
DIMSTYLE
 70
     1
  0
DIMSTYLE
  2
STANDARD
 70
     0
  3

  4

  5

  6

  7

 40
1.0
 41
0.3125
 42
0.0625
 43
0.38
 44
0.0625
 45
0.0
 46
0.0
 47
0.0
 48
0.0
140
0.3125
141
0.0
142
0.0
143
25.399999999999999
144
1.0
145
0.0
146
1.0
147
0.09375
 71
     0
 72
     0
 73
     1
 74
     1
 75
     0
 76
     0
 77
     0
 78
     0
170
     0
171
     2
172
     0
173
     0
174
     0
175
     0
176
     0
177
     0
178
     0
  0
ENDTAB
  0
ENDSEC
  0
SECTION
  2
BLOCKS
  0
BLOCK
  8
0
  2
$MODEL_SPACE
 70
     0
 10
0.0
 20
0.0
 30
0.0
  3
$MODEL_SPACE
  1

  0
ENDBLK
  5
B
  8
0
  0
BLOCK
 67
     1
  8
0
  2
$PAPER_SPACE
 70
     0
 10
0.0
 20
0.0
 30
0.0
  3
$PAPER_SPACE
  1

  0
ENDBLK
  5
10
 67
     1
  8
0
  0
ENDSEC
  0
SECTION
  2
ENTITIES
  0
LINE
  5
2D
  8
ANKLE_-_CENTER
 10
13.74685624047868
 20
25.515950580286049
 30
0.0
 11
13.74685624047868
 21
23.015950580286042
 31
0.0
  0
LINE
  5
30
  8
ANKLE_-_CENTER
 10
18.621856240478671
 20
25.515950580286031
 30
0.0
 11
18.621856240478671
 21
23.015950580286042
 31
0.0
  0
LINE
  5
31
  8
ANKLE_-_CENTER
 10
13.74685624047868
 20
18.5445965770509
 30
0.0
 11
18.621856240478671
 21
18.5445965770509
 31
0.0
  0
LINE
  5
32
  8
ANKLE_-_CENTER
 10
13.74685624047868
 20
14.5445965770509
 30
0.0
 11
18.621856240478671
 21
14.5445965770509
 31
0.0
  0
LINE
  5
33
  8
ANKLE_-_CENTER
 10
13.74685624047868
 20
18.5445965770509
 30
0.0
 11
13.74685624047868
 21
13.2975965770509
 31
0.0
  0
LINE
  5
34
  8
ANKLE_-_CENTER
 10
18.621856240478671
 20
18.5445965770509
 30
0.0
 11
18.621856240478671
 21
13.297596577050889
 31
0.0
  0
ARC
  5
35
  8
ANKLE_-_CENTER
 10
16.184356240478682
 20
11.148596577050901
 30
0.0
 40
0.625
 50
217.25885563384321
 51
322.46073218654391
  0
LINE
  5
36
  8
ANKLE_-_CENTER
 10
26.391080654488071
 20
18.5445965770509
 30
0.0
 11
31.391080654488071
 21
18.5445965770509
 31
0.0
  0
LINE
  5
37
  8
ANKLE_-_CENTER
 10
31.391080654488071
 20
18.5445965770509
 30
0.0
 11
31.391080654488071
 21
16.32978158547855
 31
0.0
  0
LINE
  5
38
  8
ANKLE_-_CENTER
 10
26.391080654488071
 20
18.5445965770509
 30
0.0
 11
26.391080654488071
 21
16.329781585478511
 31
0.0
  0
LINE
  5
39
  8
ANKLE_-_CENTER
 10
26.391080654488071
 20
16.329781585478511
 30
0.0
 11
27.641080654488071
 21
14.54459657705091
 31
0.0
  0
LINE
  5
3A
  8
ANKLE_-_CENTER
 10
30.141080654488071
 20
14.54459657705091
 30
0.0
 11
31.391080654488071
 21
16.32978158547855
 31
0.0
  0
LINE
  5
3B
  8
ANKLE_-_CENTER
 10
28.391080654488071
 20
13.2185651111105
 30
0.0
 11
28.391080654488071
 21
10.52359844832883
 31
0.0
  0
LINE
  5
3C
  8
ANKLE_-_CENTER
 10
27.641080654488071
 20
18.5445965770509
 30
0.0
 11
27.641080654488071
 21
12.046480149505051
 31
0.0
  0
LINE
  5
3D
  8
ANKLE_-_CENTER
 10
29.391080654488061
 20
13.2185651111105
 30
0.0
 11
29.391080654488061
 21
10.52359844832883
 31
0.0
  0
LINE
  5
3E
  8
ANKLE_-_CENTER
 10
30.141080654488071
 20
18.5445965770509
 30
0.0
 11
30.141080654488071
 21
12.046480149505051
 31
0.0
  0
ARC
  5
3F
  8
ANKLE_-_CENTER
 10
16.184356240478682
 20
15.046480149505051
 30
0.0
 40
3.0
 50
215.6590876961387
 51
324.34091230386139
  0
LINE
  5
40
  8
ANKLE_-_CENTER
 10
15.68691346622375
 20
10.770210945265591
 30
0.0
 11
13.99102315569723
 21
12.99970464173602
 31
0.0
  0
LINE
  5
41
  8
ANKLE_-_CENTER
 10
16.679941201573818
 20
10.76778094405204
 30
0.0
 11
18.56316405373536
 21
13.2185651111105
 31
0.0
  0
LINE
  5
42
  8
ANKLE_-_CENTER
 10
28.391080654488071
 20
10.52359844832883
 30
0.0
 11
29.391080654488061
 21
10.52359844832883
 31
0.0
  0
LINE
  5
43
  8
ANKLE_-_CENTER
 10
27.641080654488071
 20
13.297596577050889
 30
0.0
 11
30.141080654488071
 21
13.297596577050889
 31
0.0
  0
LINE
  5
44
  8
ANKLE_-_CENTER
 10
28.391080654488071
 20
13.2185651111105
 30
0.0
 11
29.391080654488061
 21
13.2185651111105
 31
0.0
  0
LINE
  5
45
  8
ANKLE_-_CENTER
 10
27.641080654488071
 20
12.046480149505051
 30
0.0
 11
28.391080654488071
 21
12.046480149505051
 31
0.0
  0
LINE
  5
46
  8
ANKLE_-_CENTER
 10
29.391080654488061
 20
12.046480149505051
 30
0.0
 11
30.141080654488071
 21
12.046480149505051
 31
0.0
  0
ARC
  5
47
  8
ANKLE_-_CENTER
 10
16.184356240478682
 20
24.765950580286049
 30
0.0
 40
3.0
 50
215.68533471265209
 51
324.31466528734791
  0
ARC
  5
48
  8
ANKLE_-_CENTER
 10
16.184356240478682
 20
23.765950580286031
 30
0.0
 40
3.0
 50
35.685334712652093
 51
144.31466528734791
  0
LINE
  5
49
  8
DIMENSIONS
 10
18.621856240478671
 20
18.6070965770509
 30
0.0
 11
18.621856240478671
 21
19.8570965770509
 31
0.0
  0
LINE
  5
4B
  8
DIMENSIONS
 10
13.74685624047868
 20
18.6070965770509
 30
0.0
 11
13.74685624047868
 21
19.8570965770509
 31
0.0
  0
LINE
  5
4C
  8
DIMENSIONS
 10
18.309356240478671
 20
19.7945965770509
 30
0.0
 11
16.903106240478671
 21
19.7945965770509
 31
0.0
  0
LINE
  5
4D
  8
DIMENSIONS
 10
14.05935624047868
 20
19.7945965770509
 30
0.0
 11
15.46560624047868
 21
19.7945965770509
 31
0.0
  0
SOLID
  5
4E
  8
DIMENSIONS
 10
18.309356240478671
 20
19.846679910384239
 30
0.0
 11
18.309356240478671
 21
19.742513243717561
 31
0.0
 12
18.621856240478671
 22
19.7945965770509
 32
0.0
 13
18.621856240478671
 23
19.7945965770509
 33
0.0
  0
SOLID
  5
4F
  8
DIMENSIONS
 10
14.05935624047868
 20
19.846679910384239
 30
0.0
 11
14.05935624047868
 21
19.742513243717561
 31
0.0
 12
13.74685624047868
 22
19.7945965770509
 32
0.0
 13
13.74685624047868
 23
19.7945965770509
 33
0.0
  0
TEXT
  5
50
  8
DIMENSIONS
 10
15.55935624047868
 20
19.6383465770509
 30
0.0
 40
0.3125
  1
4.875
  0
LINE
  5
51
  8
DIMENSIONS
 10
31.391080654488071
 20
18.6070965770509
 30
0.0
 11
31.391080654488071
 21
19.8570965770509
 31
0.0
  0
LINE
  5
52
  8
DIMENSIONS
 10
26.391080654488071
 20
18.6070965770509
 30
0.0
 11
26.391080654488071
 21
19.8570965770509
 31
0.0
  0
LINE
  5
53
  8
DIMENSIONS
 10
31.078580654488071
 20
19.7945965770509
 30
0.0
 11
29.609830654488061
 21
19.7945965770509
 31
0.0
  0
LINE
  5
54
  8
DIMENSIONS
 10
26.703580654488071
 20
19.7945965770509
 30
0.0
 11
28.172330654488071
 21
19.7945965770509
 31
0.0
  0
SOLID
  5
55
  8
DIMENSIONS
 10
31.078580654488071
 20
19.846679910384239
 30
0.0
 11
31.078580654488071
 21
19.742513243717561
 31
0.0
 12
31.391080654488071
 22
19.7945965770509
 32
0.0
 13
31.391080654488071
 23
19.7945965770509
 33
0.0
  0
SOLID
  5
56
  8
DIMENSIONS
 10
26.703580654488071
 20
19.846679910384239
 30
0.0
 11
26.703580654488071
 21
19.742513243717561
 31
0.0
 12
26.391080654488071
 22
19.7945965770509
 32
0.0
 13
26.391080654488071
 23
19.7945965770509
 33
0.0
  0
TEXT
  5
57
  8
DIMENSIONS
 10
28.266080654488071
 20
19.6383465770509
 30
0.0
 40
0.3125
  1
5.000
  0
LINE
  5
58
  8
DIMENSIONS
 10
18.684356240478682
 20
18.5445965770509
 30
0.0
 11
19.934356240478682
 21
18.5445965770509
 31
0.0
  0
LINE
  5
59
  8
DIMENSIONS
 10
16.184356240478682
 20
11.14859657705091
 30
0.0
 11
19.934356240478682
 21
11.148596577050901
 31
0.0
  0
LINE
  5
5A
  8
DIMENSIONS
 10
19.871856240478671
 20
18.2320965770509
 30
0.0
 11
19.871856240478671
 21
15.096596577050899
 31
0.0
  0
LINE
  5
5B
  8
DIMENSIONS
 10
19.871856240478671
 20
11.461096577050901
 30
0.0
 11
19.871856240478671
 21
14.596596577050899
 31
0.0
  0
SOLID
  5
5C
  8
DIMENSIONS
 10
19.819772907145332
 20
18.2320965770509
 30
0.0
 11
19.923939573811989
 21
18.2320965770509
 31
0.0
 12
19.871856240478671
 22
18.5445965770509
 32
0.0
 13
19.871856240478671
 23
18.5445965770509
 33
0.0
  0
SOLID
  5
5D
  8
DIMENSIONS
 10
19.819772907145332
 20
11.461096577050901
 30
0.0
 11
19.923939573811989
 21
11.461096577050901
 31
0.0
 12
19.871856240478671
 22
11.148596577050901
 32
0.0
 13
19.871856240478671
 23
11.148596577050901
 33
0.0
  0
TEXT
  5
5E
  8
DIMENSIONS
 10
19.254296716669131
 20
14.69034657705091
 30
0.0
 40
0.3125
  1
7.396
  0
LINE
  5
5F
  8
DIMENSIONS
 10
18.621856240478671
 20
13.2350965770509
 30
0.0
 11
18.621856240478671
 21
9.2110984483288334
 31
0.0
  0
LINE
  5
60
  8
DIMENSIONS
 10
16.184356240478682
 20
11.14859657705091
 30
0.0
 11
16.184356240478682
 21
9.2110984483288334
 31
0.0
  0
LINE
  5
61
  8
DIMENSIONS
 10
18.309356240478671
 20
9.2735984483288334
 30
0.0
 11
18.121856240478682
 21
9.2735984483288334
 31
0.0
  0
LINE
  5
62
  8
DIMENSIONS
 10
16.496856240478682
 20
9.2735984483288334
 30
0.0
 11
16.684356240478682
 21
9.2735984483288334
 31
0.0
  0
SOLID
  5
63
  8
DIMENSIONS
 10
18.309356240478671
 20
9.3256817816621691
 30
0.0
 11
18.309356240478671
 21
9.2215151149954977
 31
0.0
 12
18.621856240478671
 22
9.2735984483288334
 32
0.0
 13
18.621856240478671
 23
9.2735984483288334
 33
0.0
  0
SOLID
  5
64
  8
DIMENSIONS
 10
16.496856240478682
 20
9.3256817816621691
 30
0.0
 11
16.496856240478682
 21
9.2215151149954977
 31
0.0
 12
16.184356240478682
 22
9.2735984483288334
 32
0.0
 13
16.184356240478682
 23
9.2735984483288334
 33
0.0
  0
TEXT
  5
65
  8
DIMENSIONS
 10
16.778106240478682
 20
9.1173484483288334
 30
0.0
 40
0.3125
  1
2.438
  0
LINE
  5
66
  8
DIMENSIONS
 10
26.328580654488061
 20
18.5445965770509
 30
0.0
 11
25.078580654488061
 21
18.54459657705091
 31
0.0
  0
LINE
  5
67
  8
DIMENSIONS
 10
27.578580654488061
 20
14.54459657705091
 30
0.0
 11
25.078580654488061
 21
14.54459657705091
 31
0.0
  0
LINE
  5
68
  8
DIMENSIONS
 10
25.141080654488071
 20
18.23209657705091
 30
0.0
 11
25.141080654488071
 21
16.79459657705091
 31
0.0
  0
LINE
  5
69
  8
DIMENSIONS
 10
25.141080654488071
 20
14.85709657705091
 30
0.0
 11
25.141080654488071
 21
16.29459657705091
 31
0.0
  0
SOLID
  5
6A
  8
DIMENSIONS
 10
25.088997321154721
 20
18.23209657705091
 30
0.0
 11
25.193163987821411
 21
18.23209657705091
 31
0.0
 12
25.141080654488071
 22
18.54459657705091
 32
0.0
 13
25.141080654488071
 23
18.54459657705091
 33
0.0
  0
SOLID
  5
6B
  8
DIMENSIONS
 10
25.088997321154721
 20
14.85709657705091
 30
0.0
 11
25.193163987821411
 21
14.85709657705091
 31
0.0
 12
25.141080654488071
 22
14.54459657705091
 32
0.0
 13
25.141080654488071
 23
14.54459657705091
 33
0.0
  0
TEXT
  5
6C
  8
DIMENSIONS
 10
24.516080654488071
 20
16.388346577050921
 30
0.0
 40
0.3125
  1
4.000
  0
LINE
  5
6D
  8
DIMENSIONS
 10
13.68435624047868
 20
18.5445965770509
 30
0.0
 11
12.43435624047868
 21
18.5445965770509
 31
0.0
  0
LINE
  5
6E
  8
DIMENSIONS
 10
16.18435624047871
 20
15.046480149505051
 30
0.0
 11
12.43435624047868
 21
15.046480149505051
 31
0.0
  0
LINE
  5
6F
  8
DIMENSIONS
 10
12.49685624047868
 20
18.2320965770509
 30
0.0
 11
12.49685624047868
 21
17.045538363277981
 31
0.0
  0
LINE
  5
70
  8
DIMENSIONS
 10
12.49685624047868
 20
15.358980149505051
 30
0.0
 11
12.49685624047868
 21
16.545538363277981
 31
0.0
  0
SOLID
  5
71
  8
DIMENSIONS
 10
12.44477290714533
 20
18.2320965770509
 30
0.0
 11
12.548939573811991
 21
18.2320965770509
 31
0.0
 12
12.49685624047868
 22
18.5445965770509
 32
0.0
 13
12.49685624047868
 23
18.5445965770509
 33
0.0
  0
SOLID
  5
72
  8
DIMENSIONS
 10
12.44477290714533
 20
15.358980149505051
 30
0.0
 11
12.548939573811991
 21
15.358980149505051
 31
0.0
 12
12.49685624047868
 22
15.046480149505051
 32
0.0
 13
12.49685624047868
 23
15.046480149505051
 33
0.0
  0
TEXT
  5
73
  8
DIMENSIONS
 10
11.871856240478669
 20
16.639288363277981
 30
0.0
 40
0.3125
  1
3.498
  0
LINE
  5
74
  8
DIMENSIONS
 10
13.68435624047868
 20
18.5445965770509
 30
0.0
 11
11.18435624047868
 21
18.5445965770509
 31
0.0
  0
LINE
  5
75
  8
DIMENSIONS
 10
13.68435624047868
 20
13.2975965770509
 30
0.0
 11
11.18435624047868
 21
13.2975965770509
 31
0.0
  0
LINE
  5
76
  8
DIMENSIONS
 10
11.246856240478669
 20
18.2320965770509
 30
0.0
 11
11.246856240478669
 21
16.1710965770509
 31
0.0
  0
LINE
  5
77
  8
DIMENSIONS
 10
11.246856240478669
 20
13.6100965770509
 30
0.0
 11
11.246856240478669
 21
15.6710965770509
 31
0.0
  0
SOLID
  5
78
  8
DIMENSIONS
 10
11.19477290714533
 20
18.2320965770509
 30
0.0
 11
11.298939573811991
 21
18.2320965770509
 31
0.0
 12
11.246856240478669
 22
18.5445965770509
 32
0.0
 13
11.246856240478669
 23
18.5445965770509
 33
0.0
  0
SOLID
  5
79
  8
DIMENSIONS
 10
11.19477290714533
 20
13.6100965770509
 30
0.0
 11
11.298939573811991
 21
13.6100965770509
 31
0.0
 12
11.246856240478669
 22
13.2975965770509
 32
0.0
 13
11.246856240478669
 23
13.2975965770509
 33
0.0
  0
TEXT
  5
7A
  8
DIMENSIONS
 10
10.621856240478669
 20
15.764846577050911
 30
0.0
 40
0.3125
  1
5.247
  0
LINE
  5
7B
  8
DIMENSIONS
 10
16.18435624047871
 20
15.046480149505051
 30
0.0
 11
15.712537238665391
 21
14.091826365428609
 31
0.0
  0
LINE
  5
7C
  8
DIMENSIONS
 10
14.993602994822311
 20
12.63717258135215
 30
0.0
 11
15.46542199663565
 21
13.591826365428609
 31
0.0
  0
SOLID
  5
7D
  8
DIMENSIONS
 10
14.94691098768757
 20
12.660249194640061
 30
0.0
 11
15.04029500195708
 21
12.61409596806423
 31
0.0
 12
14.85514331509483
 22
12.357020538543679
 32
0.0
 13
14.85514331509483
 23
12.357020538543679
 33
0.0
  0
TEXT
  5
7E
  8
DIMENSIONS
 10
14.807729617650519
 20
13.6855763654286
 30
0.0
 40
0.3125
  1
R3.000
  0
LINE
  5
7F
  8
DIMENSIONS
 10
15.79641331579108
 20
10.295129215528011
 30
0.0
 11
15.33207730090413
 21
9.2735984483288405
 31
0.0
  0
LINE
  5
80
  8
DIMENSIONS
 10
15.33207730090413
 20
9.2735984483288405
 30
0.0
 11
15.01957730090413
 21
9.2735984483288405
 31
0.0
  0
SOLID
  5
81
  8
DIMENSIONS
 10
15.74899846237315
 20
10.316681600232879
 30
0.0
 11
15.84382816920902
 21
10.27357683082314
 31
0.0
 12
15.925727624020279
 22
10.57961833603563
 32
0.0
 13
15.925727624020279
 23
10.57961833603563
 33
0.0
  0
TEXT
  5
82
  8
DIMENSIONS
 10
13.36332730090413
 20
9.1173484483288405
 30
0.0
 40
0.3125
  1
R0.625
  0
LINE
  5
83
  8
DIMENSIONS
 10
28.391080654488071
 20
10.46109844832883
 30
0.0
 11
28.391080654488071
 21
9.2110984483288334
 31
0.0
  0
LINE
  5
84
  8
DIMENSIONS
 10
27.641080654488071
 20
11.983980149505051
 30
0.0
 11
27.641080654488071
 21
9.2110984483288334
 31
0.0
  0
LINE
  5
85
  8
DIMENSIONS
 10
28.703580654488071
 20
9.2735984483288334
 30
0.0
 11
29.016080654488071
 21
9.2735984483288334
 31
0.0
  0
LINE
  5
86
  8
DIMENSIONS
 10
27.328580654488071
 20
9.2735984483288334
 30
0.0
 11
27.016080654488071
 21
9.2735984483288334
 31
0.0
  0
SOLID
  5
87
  8
DIMENSIONS
 10
28.703580654488071
 20
9.3256817816621691
 30
0.0
 11
28.703580654488071
 21
9.2215151149954977
 31
0.0
 12
28.391080654488071
 22
9.2735984483288334
 32
0.0
 13
28.391080654488071
 23
9.2735984483288334
 33
0.0
  0
SOLID
  5
88
  8
DIMENSIONS
 10
27.328580654488071
 20
9.3256817816621691
 30
0.0
 11
27.328580654488071
 21
9.2215151149954977
 31
0.0
 12
27.641080654488071
 22
9.2735984483288334
 32
0.0
 13
27.641080654488071
 23
9.2735984483288334
 33
0.0
  0
TEXT
  5
89
  8
DIMENSIONS
 10
25.672330654488071
 20
9.1173484483288334
 30
0.0
 40
0.3125
  1
0.750
  0
LINE
  5
8A
  8
DIMENSIONS
 10
29.391080654488061
 20
10.46109844832883
 30
0.0
 11
29.391080654488061
 21
7.9610984483288334
 31
0.0
  0
LINE
  5
8B
  8
DIMENSIONS
 10
28.391080654488071
 20
10.46109844832883
 30
0.0
 11
28.391080654488071
 21
7.9610984483288334
 31
0.0
  0
LINE
  5
8C
  8
DIMENSIONS
 10
29.703580654488061
 20
8.0235984483288334
 30
0.0
 11
30.016080654488061
 21
8.0235984483288334
 31
0.0
  0
LINE
  5
8D
  8
DIMENSIONS
 10
28.078580654488071
 20
8.0235984483288334
 30
0.0
 11
27.766080654488071
 21
8.0235984483288334
 31
0.0
  0
SOLID
  5
8E
  8
DIMENSIONS
 10
29.703580654488061
 20
8.0756817816621691
 30
0.0
 11
29.703580654488061
 21
7.9715151149954968
 31
0.0
 12
29.391080654488061
 22
8.0235984483288334
 32
0.0
 13
29.391080654488061
 23
8.0235984483288334
 33
0.0
  0
SOLID
  5
8F
  8
DIMENSIONS
 10
28.078580654488071
 20
8.0756817816621691
 30
0.0
 11
28.078580654488071
 21
7.9715151149954968
 31
0.0
 12
28.391080654488071
 22
8.0235984483288334
 32
0.0
 13
28.391080654488071
 23
8.0235984483288334
 33
0.0
  0
TEXT
  5
90
  8
DIMENSIONS
 10
26.48185446401186
 20
7.8673484483288334
 30
0.0
 40
0.3125
  1
1.000
  0
LINE
  5
91
  8
DIMENSIONS
 10
18.684356240478682
 20
25.515950580286031
 30
0.0
 11
19.934356240478682
 21
25.515950580286031
 31
0.0
  0
LINE
  5
92
  8
DIMENSIONS
 10
18.684356240478682
 20
23.015950580286042
 30
0.0
 11
19.934356240478682
 21
23.015950580286042
 31
0.0
  0
LINE
  5
93
  8
DIMENSIONS
 10
19.871856240478671
 20
25.203450580286031
 30
0.0
 11
19.871856240478671
 21
24.515950580286049
 31
0.0
  0
LINE
  5
94
  8
DIMENSIONS
 10
19.871856240478671
 20
23.328450580286042
 30
0.0
 11
19.871856240478671
 21
24.015950580286042
 31
0.0
  0
SOLID
  5
95
  8
DIMENSIONS
 10
19.819772907145332
 20
25.203450580286031
 30
0.0
 11
19.923939573811989
 21
25.203450580286031
 31
0.0
 12
19.871856240478671
 22
25.515950580286031
 32
0.0
 13
19.871856240478671
 23
25.515950580286031
 33
0.0
  0
SOLID
  5
96
  8
DIMENSIONS
 10
19.819772907145332
 20
23.328450580286042
 30
0.0
 11
19.923939573811989
 21
23.328450580286042
 31
0.0
 12
19.871856240478671
 22
23.015950580286042
 32
0.0
 13
19.871856240478671
 23
23.015950580286042
 33
0.0
  0
TEXT
  5
97
  8
DIMENSIONS
 10
19.246856240478671
 20
24.109700580286049
 30
0.0
 40
0.3125
  1
2.500
  0
LINE
  5
98
  8
DIMENSIONS
 10
13.68515765427645
 20
25.515950580286049
 30
0.0
 11
12.43435624047868
 21
25.515950580286049
 31
0.0
  0
LINE
  5
99
  8
DIMENSIONS
 10
16.184356240478682
 20
23.765950580286031
 30
0.0
 11
12.43435624047868
 21
23.765950580286031
 31
0.0
  0
LINE
  5
9A
  8
DIMENSIONS
 10
12.49685624047868
 20
25.203450580286049
 30
0.0
 11
12.49685624047868
 21
24.890950580286031
 31
0.0
  0
LINE
  5
9B
  8
DIMENSIONS
 10
12.49685624047868
 20
24.078450580286031
 30
0.0
 11
12.49685624047868
 21
24.390950580286031
 31
0.0
  0
SOLID
  5
9C
  8
DIMENSIONS
 10
12.44477290714533
 20
25.203450580286049
 30
0.0
 11
12.548939573811991
 21
25.203450580286049
 31
0.0
 12
12.49685624047868
 22
25.515950580286049
 32
0.0
 13
12.49685624047868
 23
25.515950580286049
 33
0.0
  0
SOLID
  5
9D
  8
DIMENSIONS
 10
12.44477290714533
 20
24.078450580286031
 30
0.0
 11
12.548939573811991
 21
24.078450580286031
 31
0.0
 12
12.49685624047868
 22
23.765950580286031
 32
0.0
 13
12.49685624047868
 23
23.765950580286031
 33
0.0
  0
TEXT
  5
9E
  8
DIMENSIONS
 10
11.901618145240571
 20
24.484700580286042
 30
0.0
 40
0.3125
  1
1.750
  0
LINE
  5
9F
  8
DIMENSIONS
 10
16.184356240478682
 20
23.765950580286031
 30
0.0
 11
16.587759631407408
 21
24.76130884041504
 31
0.0
  0
LINE
  5
A0
  8
DIMENSIONS
 10
17.193805330682689
 20
26.25666710054405
 30
0.0
 11
16.790401939753959
 21
25.26130884041504
 31
0.0
  0
SOLID
  5
A1
  8
DIMENSIONS
 10
17.145535630677699
 20
26.276230067408481
 30
0.0
 11
17.242075030687712
 21
26.237104133679619
 31
0.0
 12
17.311183131869232
 22
26.546285300574059
 32
0.0
 13
17.311183131869232
 23
26.546285300574059
 33
0.0
  0
TEXT
  5
A2
  8
DIMENSIONS
 10
15.9078307855807
 20
24.85505884041504
 30
0.0
 40
0.3125
  1
R3.000
  0
ARC
  5
A3
  8
DIMENSIONS
 10
27.641080654488071
 20
14.5445965770509
 30
0.0
 40
1.507213087663398
 50
101.1982451998077
 51
113.09912259990411
  0
ARC
  5
A4
  8
DIMENSIONS
 10
27.641080654488071
 20
14.5445965770509
 30
0.0
 40
1.507213087663398
 50
191.90087740009619
 51
203.80175480019261
  0
SOLID
  5
A5
  8
DIMENSIONS
 10
27.075056143196999
 20
15.88544138057099
 30
0.0
 11
27.024476352394771
 21
15.976503882221481
 31
0.0
 12
26.776578742844439
 22
15.779233258989491
 32
0.0
 13
26.776578742844439
 23
15.779233258989491
 33
0.0
  0
SOLID
  5
A6
  8
DIMENSIONS
 10
26.114461159991858
 20
14.228380962343239
 30
0.0
 11
26.218066570536649
 21
14.23917972848977
 31
0.0
 12
26.13386756682468
 22
14.544596577050919
 32
0.0
 13
26.13386756682468
 23
14.544596577050919
 33
0.0
  0
TEXT
  5
A7
  8
DIMENSIONS
 10
25.976785365441689
 20
15.084300130129179
 30
0.0
 40
0.3125
  1
55°
  0
ARC
  5
A8
  8
ANKLE_-_CENTER
 10
16.24167236124384
 20
13.85136180438638
 30
0.0
 40
2.4790824409447421
 50
16.238338637578391
 51
91.324790331071185
  0
ARC
  5
A9
  8
ANKLE_-_CENTER
 10
16.127040119713509
 20
13.85136180438638
 30
0.0
 40
2.4790824409447421
 50
88.675209668928815
 51
163.76166136242159
  0
CIRCLE
  5
AA
  8
ANKLE_-_CENTER
 10
16.184356240478682
 20
11.148596577050901
 30
0.0
 40
0.125
  0
TEXT
  5
4FC
  8
0
  6
CONTINUOUS
 10
85.745214423122974
 20
23.11319735626536
 30
0.0
 40
0.12
  1
 
 51
7.0
  0
TEXT
  5
4FD
  8
0
  6
CONTINUOUS
 10
98.189311188602872
 20
30.176071785997021
 30
0.0
 40
0.24
  1
 
 51
7.0
  0
TEXT
  5
4FE
  8
0
  6
CONTINUOUS
 10
107.39907620051611
 20
29.85606179941994
 30
0.0
 40
0.24
  1
 
 51
7.0
  0
TEXT
  5
4FF
  8
0
  6
CONTINUOUS
 10
117.2030356849488
 20
12.99348099989261
 30
0.0
 40
0.24
  1
 
 51
7.0
  0
LINE
  5
516
  8
FORM
 10
43.041208788750033
 20
1.2738095237500171
 30
0.0
 11
43.041208788750033
 21
30.47619047625
 31
0.0
  0
LINE
  5
517
  8
FORM
 10
42.726190473750037
 20
30.79120879125
 30
0.0
 11
1.27380952375006
 21
30.79120879125
 31
0.0
  0
LINE
  5
518
  8
FORM
 10
42.726190473750037
 20
0.9587912087500357
 30
0.0
 11
1.27380952375006
 21
0.9587912087500178
 31
0.0
  0
LINE
  5
519
  8
FORM
 10
0.9587912087500286
 20
1.2738095237500171
 30
0.0
 11
0.9587912087500286
 21
30.47619047625
 31
0.0
  0
TEXT
  5
51A
  8
FORM
 10
37.181659173124913
 20
5.206275420631246
 30
0.0
 40
0.5334392170019531
  1
CENTER
 72
     1
 11
38.616864685534921
 21
5.206275420631246
 31
0.0
  0
TEXT
  5
51B
  8
FORM
 10
37.410275980411463
 20
4.0776460783213357
 30
0.0
 40
0.5334392170019531
  1
ANKLE
 72
     1
 11
38.616864685534921
 21
4.0776460783213357
 31
0.0
  0
TEXT
  5
51C
  8
FORM
 10
33.49885480611826
 20
2.0268467705730191
 30
0.0
 40
0.5334392170019531
  1
ASTROMECH DROID
  0
TEXT
  5
51D
  8
FORM
 10
41.921886517477049
 20
2.0475849221067111
 30
0.0
 40
0.5334392170019531
  1
A
  0
TEXT
  5
51E
  8
FORM
 10
34.544847194814992
 20
1.4041843246072041
 30
0.0
 40
0.2133756868007812
  1
FULL
  0
TEXT
  5
51F
  8
FORM
 10
41.38147923468091
 20
1.4101568300009391
 30
0.0
 40
0.2133756868007812
  1
1   1
  0
TEXT
  5
520
  8
FORM
 10
37.847479070745841
 20
1.4266399292710359
 30
0.0
 40
0.2133756868007812
  1
APRIL 2005
 72
     2
 11
39.696735023019272
 21
1.4266399292710359
 31
0.0
  0
TEXT
  5
521
  8
FORM
  6
CONTINUOUS
 10
36.314742892209921
 20
1.4244931442114459
 30
0.0
 40
0.184356593395875
  1
DRAWN:
  0
TEXT
  5
522
  8
FORM
  6
CONTINUOUS
 10
33.461092438516573
 20
1.424666026206864
 30
0.0
 40
0.184356593395875
  1
SCALE:
  0
TEXT
  5
523
  8
FORM
  6
CONTINUOUS
 10
40.203435321383573
 20
1.422355711558928
 30
0.0
 40
0.184356593395875
  1
SHEET:   OF
  0
TEXT
  5
524
  8
FORM
  6
CONTINUOUS
 10
33.124433620069567
 20
2.8869297159639369
 30
0.0
 40
0.184356593395875
  1
DRAWING NO.
  0
TEXT
  5
525
  8
FORM
  6
CONTINUOUS
 10
41.850448103669237
 20
2.886929715963916
 30
0.0
 40
0.184356593395875
  1
REV.
 72
     1
 11
42.12259355106314
 21
2.886929715963916
 31
0.0
  0
LINE
  5
526
  8
FORM
  6
CONTINUOUS
 10
33.416182507258391
 20
6.6201507322303881
 30
0.0
 11
42.265298990260362
 21
6.6201507322303881
 31
0.0
  0
LINE
  5
527
  8
FORM
  6
CONTINUOUS
 10
32.955291023768702
 20
1.7347010072396991
 30
0.0
 11
32.955291023768673
 21
6.1592592487406881
 31
0.0
  0
LINE
  5
528
  8
FORM
  6
CONTINUOUS
 10
32.955291023768702
 20
3.1634646060577292
 30
0.0
 11
42.726190473750037
 21
3.1634646060577292
 31
0.0
  0
LINE
  5
529
  8
FORM
  6
CONTINUOUS
 10
32.955291023768702
 20
1.7347010072396991
 30
0.0
 11
42.726190473750037
 21
1.7347010072396991
 31
0.0
  0
LINE
  5
52A
  8
FORM
  6
CONTINUOUS
 10
36.026467742539118
 20
1.7347010072396991
 30
0.0
 11
36.026467742539118
 21
1.2738095237500171
 31
0.0
  0
LINE
  5
52B
  8
FORM
  6
CONTINUOUS
 10
40.065167876336659
 20
1.729027325745029
 30
0.0
 11
40.065167876336659
 21
1.2681358422553499
 31
0.0
  0
LINE
  5
52C
  8
FORM
  6
CONTINUOUS
 10
41.508364231032488
 20
3.1634646060577292
 30
0.0
 11
41.508364231032488
 21
1.7347010072396991
 31
0.0
  0
ARC
  5
52D
  8
FORM
 62
     5
 10
33.87147454402632
 20
5.2321095419160519
 30
0.0
 40
0.0502653185952511
 50
152.18113099770551
 51
330.99098814993278
  0
ARC
  5
52E
  8
FORM
 62
     5
 10
34.089053834359703
 20
5.6511194128146256
 30
0.0
 40
0.0440746975210158
 50
335.32315363464198
 51
152.6722492633038
  0
ARC
  5
52F
  8
FORM
 62
     5
 10
37.446185313816841
 20
3.5831642172472651
 30
0.0
 40
3.9868910433295368
 50
148.41494327216151
 51
155.19852313243231
  0
ARC
  5
530
  8
FORM
 62
     5
 10
38.217878471693133
 20
3.3107972970714812
 30
0.0
 40
4.7020631235383759
 50
150.40875710206339
 51
156.20744757951141
  0
ARC
  5
531
  8
FORM
 62
     7
 10
33.729336717812117
 20
4.809826363179055
 30
0.0
 40
0.0671652552709891
 50
161.128725237971
 51
346.89295927401372
  0
ARC
  5
532
  8
FORM
 62
     7
 10
53.367628910278228
 20
-3.6725418745125959
 30
0.0
 40
21.325803943529628
 50
153.58307292081321
 51
156.60691138966209
  0
ARC
  5
533
  8
FORM
 62
     7
 10
50.287568040148528
 20
-2.5644941525072609
 30
0.0
 40
18.16984879940825
 50
152.34095999775931
 51
152.9694116127464
  0
ARC
  5
534
  8
FORM
 62
     7
 10
50.4912451127324
 20
-3.156319562177472
 30
0.0
 40
18.62531302696754
 50
153.3711283527573
 51
154.6040219565534
  0
ARC
  5
535
  8
FORM
 62
     7
 10
34.698291427850847
 20
5.5948289454909697
 30
0.0
 40
0.4829018868449606
 50
23.46872592819097
 51
88.151617587883351
  0
ARC
  5
536
  8
FORM
 62
     7
 10
34.709083940719118
 20
5.6259614939592311
 30
0.0
 40
0.5699591598814008
 50
18.23262529566556
 51
154.63608874642691
  0
ARC
  5
537
  8
FORM
 62
     7
 10
34.879850029644359
 20
5.6853693813860771
 30
0.0
 40
0.3891907917568549
 50
336.99722732837881
 51
341.11190659806482
  0
ARC
  5
538
  8
FORM
 62
     7
 10
34.902997868184677
 20
5.7025814422175776
 30
0.0
 40
0.254907880192607
 50
333.24704424527522
 51
339.12675173356178
  0
ARC
  5
539
  8
FORM
 62
     7
 10
35.144104528932502
 20
5.5822157374328816
 30
0.0
 40
0.0146095491322771
 50
157.37475902115841
 51
243.18317341424029
  0
ARC
  5
53A
  8
FORM
 62
     7
 10
35.230394320055893
 20
5.5355566237182643
 30
0.0
 40
0.0080289822227516
 50
246.7423667985764
 51
343.55073793579641
  0
ARC
  5
53B
  8
FORM
 62
     7
 10
35.483045306224852
 20
6.206619545503723
 30
0.0
 40
0.7250687320987334
 50
241.5396617947477
 51
249.33988332022491
  0
ARC
  5
53C
  8
FORM
 62
     7
 10
34.9761916897763
 20
5.437699301377072
 30
0.0
 40
0.1431349662916394
 50
210.28645373052609
 51
287.25915125833183
  0
ARC
  5
53D
  8
FORM
 62
     7
 10
34.988490180963971
 20
5.3758026207478622
 30
0.0
 40
0.0806485752183996
 50
291.96730232828992
 51
10.20108836223371
  0
ARC
  5
53E
  8
FORM
 62
     7
 10
34.351109148169911
 20
5.2378626299468207
 30
0.0
 40
0.5174748205137182
 50
14.28109924276106
 51
24.94726153987823
  0
ARC
  5
53F
  8
FORM
 62
     7
 10
34.652931196600349
 20
5.3946009655135461
 30
0.0
 40
0.1783202582618736
 50
20.183063788867571
 51
47.833846572520187
  0
ARC
  5
540
  8
FORM
 62
     7
 10
34.68626748438794
 20
5.3042778782011162
 30
0.0
 40
0.2386691757260289
 50
68.784960310907422
 51
94.742087985452599
  0
ARC
  5
541
  8
FORM
 62
     7
 10
34.683670685861422
 20
5.4453282315651172
 30
0.0
 40
0.0983065334463515
 50
100.0375073429591
 51
170.98475346238999
  0
ARC
  5
542
  8
FORM
 62
     7
 10
35.146068355737611
 20
5.3773748188028661
 30
0.0
 40
0.5656654008735983
 50
171.52589863719891
 51
197.494741096675
  0
ARC
  5
543
  8
FORM
 62
     7
 10
34.765023896344701
 20
5.3853778011441547
 30
0.0
 40
0.3028765796636133
 50
0.8906501289531732
 51
49.113860192417143
  0
ARC
  5
544
  8
FORM
 62
     7
 10
34.70121788145687
 20
5.440931581139246
 30
0.0
 40
0.2383845564631639
 50
99.869748807366761
 51
175.59516845025641
  0
ARC
  5
545
  8
FORM
 62
     7
 10
34.74420142096708
 20
5.3116713199521888
 30
0.0
 40
0.373645463646239
 50
54.104282451028212
 51
102.9674010870567
  0
ARC
  5
546
  8
FORM
 62
     7
 10
35.798737905561808
 20
5.5339824388112886
 30
0.0
 40
1.236112335596137
 50
195.32307896217739
 51
209.29084315695809
  0
ARC
  5
547
  8
FORM
 62
     7
 10
35.409798509503133
 20
5.3313058202242232
 30
0.0
 40
0.9548702630443076
 50
172.3003020759547
 51
200.12627387409299
  0
ARC
  5
548
  8
FORM
 62
     7
 10
36.092512265563222
 20
5.5978118396088368
 30
0.0
 40
1.6876668147324001
 50
200.64629086238159
 51
210.04649609044409
  0
ARC
  5
549
  8
FORM
 62
     7
 10
33.767672563649661
 20
4.2896718057212553
 30
0.0
 40
1.147702755465478
 50
28.43194910738443
 51
33.865461133002469
  0
ARC
  5
54A
  8
FORM
 62
     7
 10
34.710340361681631
 20
4.7838977609262834
 30
0.0
 40
0.0846287925897855
 50
201.5644604264042
 51
38.094090168146302
  0
ARC
  5
54B
  8
FORM
 62
     5
 10
35.454047505527257
 20
5.486987961477829
 30
0.0
 40
0.0470753373534298
 50
227.6202696593605
 51
57.41211292120402
  0
ARC
  5
54C
  8
FORM
 62
     5
 10
34.898862200054367
 20
4.7627373277749214
 30
0.0
 40
0.9594749055071699
 50
52.766851639305919
 51
65.063571515457895
  0
ARC
  5
54D
  8
FORM
 62
     5
 10
34.452241791275902
 20
4.0702703323560518
 30
0.0
 40
1.6884350682882729
 50
54.932512589538803
 51
74.152868438598929
  0
ARC
  5
54E
  8
FORM
 62
     5
 10
34.476586052909433
 20
3.568319054466826
 30
0.0
 40
2.1706024175541438
 50
78.393012355262385
 51
89.647961077025343
  0
ARC
  5
54F
  8
FORM
 62
     5
 10
34.486274868053272
 20
5.8018806593051897
 30
0.0
 40
0.0631056771236446
 50
183.9979944211656
 51
273.313807745882
  0
ARC
  5
550
  8
FORM
 62
     5
 10
34.69925842788092
 20
5.818551646751942
 30
0.0
 40
0.2767389970018709
 50
145.6085916691928
 51
184.36670732083459
  0
ARC
  5
551
  8
FORM
 62
     5
 10
34.528989583128613
 20
5.938129286098885
 30
0.0
 40
0.0687363070342985
 50
75.244714174009715
 51
147.6929850116162
  0
ARC
  5
552
  8
FORM
 62
     5
 10
33.709635982728827
 20
2.7936800480859851
 30
0.0
 40
3.3181823868519218
 50
61.63724224152525
 51
75.392005557716686
  0
ARC
  5
553
  8
FORM
 62
     5
 10
35.223247228975197
 20
5.6577302519658508
 30
0.0
 40
0.0839396329354631
 50
342.69825742684009
 51
41.67278378767756
  0
ARC
  5
554
  8
FORM
 62
     7
 10
34.879850029644359
 20
5.6853693813860771
 30
0.0
 40
0.3891907917568549
 50
5.6380312699922861
 51
17.791456368736871
  0
ARC
  5
555
  8
FORM
 62
     7
 10
35.056960777687777
 20
3.851378580987717
 30
0.0
 40
0.12453779538235
 50
88.432533024773406
 51
186.62631613112151
  0
ARC
  5
556
  8
FORM
 62
     7
 10
35.076506660735483
 20
3.8773458445585289
 30
0.0
 40
0.1488228018527408
 50
195.7266305128272
 51
285.3806868435185
  0
ARC
  5
557
  8
FORM
 62
     7
 10
34.901004024005353
 20
5.1943718606735914
 30
0.0
 40
1.4762551210247881
 50
278.37329371359459
 51
293.15208507016871
  0
ARC
  5
558
  8
FORM
 62
     7
 10
35.396287821393123
 20
4.2652099364179641
 30
0.0
 40
0.3044715687368376
 50
257.51805604168283
 51
277.23103351305667
  0
ARC
  5
559
  8
FORM
 62
     7
 10
35.413358675393567
 20
4.0150829003075179
 30
0.0
 40
0.0561042920902449
 50
292.26031345923337
 51
12.86737930052367
  0
ARC
  5
55A
  8
FORM
 62
     7
 10
35.371642472469631
 20
4.0070394983254651
 30
0.0
 40
0.0985747940549809
 50
12.0253755273956
 51
52.143631645159317
  0
ARC
  5
55B
  8
FORM
 62
     7
 10
37.473498217784197
 20
6.5612572579000981
 30
0.0
 40
3.209307639712156
 50
219.60277928185971
 51
230.5002020408055
  0
ARC
  5
55C
  8
FORM
 62
     7
 10
35.492352051740113
 20
4.9001252642901667
 30
0.0
 40
0.6241927637443375
 50
175.97523115435061
 51
218.04500009534149
  0
ARC
  5
55D
  8
FORM
 62
     7
 10
35.227786425660071
 20
4.9628053673500361
 30
0.0
 40
0.3585845725200827
 50
149.96078860476399
 51
183.01641230856191
  0
ARC
  5
55E
  8
FORM
 62
     7
 10
34.977287653388522
 20
5.1103132875677204
 30
0.0
 40
0.0679295281984907
 50
69.764209445538683
 51
151.89881904551129
  0
ARC
  5
55F
  8
FORM
 62
     7
 10
34.969273382641433
 20
5.1056960066620496
 30
0.0
 40
0.0752672049169095
 50
357.6694469744499
 51
65.251102439515421
  0
ARC
  5
560
  8
FORM
 62
     7
 10
34.791927087049523
 20
5.0911418605530789
 30
0.0
 40
0.2528126373579358
 50
345.36193237678458
 51
2.6056939300727819
  0
ARC
  5
561
  8
FORM
 62
     7
 10
35.602090445328571
 20
4.8523853508412031
 30
0.0
 40
0.5919738308518
 50
162.81861830880729
 51
185.35496664157321
  0
ARC
  5
562
  8
FORM
 62
     7
 10
35.536094847929149
 20
4.9117694628322139
 30
0.0
 40
0.5358004355611984
 50
192.3534994193023
 51
222.3020476696031
  0
ARC
  5
563
  8
FORM
 62
     7
 10
37.381905568116622
 20
6.3998094049418546
 30
0.0
 40
2.905942571467353
 50
219.50633019139821
 51
228.42762303996261
  0
ARC
  5
564
  8
FORM
 62
     7
 10
35.140069253353403
 20
3.7985267963051679
 30
0.0
 40
0.5299960685152594
 50
32.971129457978869
 51
53.728419363024372
  0
ARC
  5
565
  8
FORM
 62
     7
 10
35.427463202400332
 20
4.005618684982891
 30
0.0
 40
0.1770362522386045
 50
287.74749415951351
 51
27.352111896629431
  0
ARC
  5
566
  8
FORM
 62
     7
 10
35.16259474257626
 20
2.8543408356064179
 30
0.0
 40
1.126178313661536
 50
81.426570944510217
 51
95.208118001959775
  0
ARC
  5
567
  8
FORM
 62
     7
 10
34.676472279440532
 20
4.609856792041171
 30
0.0
 40
0.0501357382491115
 50
325.52447187114319
 51
75.340502228459755
  0
ARC
  5
568
  8
FORM
 62
     7
 10
34.614701276196087
 20
4.6552100511053531
 30
0.0
 40
0.1267533236926462
 50
277.78730616127859
 51
324.42957968808531
  0
ARC
  5
569
  8
FORM
 62
     7
 10
34.592284758986892
 20
4.6762898657927741
 30
0.0
 40
0.1519139349688822
 50
243.48581874200181
 51
285.1065744639306
  0
ARC
  5
56A
  8
FORM
 62
     7
 10
27.8731096997513
 20
-12.4932993511666
 30
0.0
 40
18.45638048052642
 50
68.327181839257534
 51
70.606105230637283
  0
ARC
  5
56B
  8
FORM
 62
     7
 10
33.988713934221749
 20
4.8617714816310453
 30
0.0
 40
0.055607435478502
 50
76.445232091872313
 51
134.36352227876461
  0
ARC
  5
56C
  8
FORM
 62
     7
 10
34.23594587733399
 20
4.4813881185518483
 30
0.0
 40
0.5083077403466757
 50
124.2547762008316
 51
135.012931962436
  0
ARC
  5
56D
  8
FORM
 62
     7
 10
33.885979744632088
 20
4.8245660322519264
 30
0.0
 40
0.0187748724828842
 50
120.5491196217084
 51
251.48388650457539
  0
ARC
  5
56E
  8
FORM
 62
     7
 10
31.35955469354608
 20
-2.20296417031589
 30
0.0
 40
7.4490944355826798
 50
64.85742894317822
 51
67.515132469299331
  0
ARC
  5
56F
  8
FORM
 62
     7
 10
34.507034475662408
 20
4.4308185510845446
 30
0.0
 40
0.0703300633564829
 50
329.18566117941782
 51
69.52715124986382
  0
ARC
  5
570
  8
FORM
 62
     7
 10
34.322528644875717
 20
4.1521399941366823
 30
0.0
 40
0.403051872176304
 50
58.747973844557542
 51
81.106226592028094
  0
ARC
  5
571
  8
FORM
 62
     7
 10
34.279653491663879
 20
3.8849497208938919
 30
0.0
 40
0.673659077744691
 50
81.016817915507374
 51
97.679603827268224
  0
ARC
  5
572
  8
FORM
 62
     7
 10
34.350555487554203
 20
4.0873869344785581
 30
0.0
 40
0.4997006452258542
 50
121.5050128230593
 51
139.09578810607039
  0
ARC
  5
573
  8
FORM
 62
     7
 10
34.486213611380663
 20
4.4200913009569014
 30
0.0
 40
0.0850716575372725
 50
277.70569210516868
 51
342.69880024124109
  0
ARC
  5
574
  8
FORM
 62
     7
 10
34.46010433022056
 20
4.5160817648663851
 30
0.0
 40
0.184155782182425
 50
250.08394506358289
 51
281.75453717228322
  0
ARC
  5
575
  8
FORM
 62
     7
 10
34.52027170146647
 20
4.5372247072865122
 30
0.0
 40
0.2298928288403392
 50
221.18187885427241
 51
237.68378775985289
  0
ARC
  5
576
  8
FORM
 62
     7
 10
34.250649510747913
 20
4.2707129138400566
 30
0.0
 40
0.1502941988903953
 50
50.003848755011681
 51
75.5416830098399
  0
ARC
  5
577
  8
FORM
 62
     7
 10
34.242700079187699
 20
4.3251886965059541
 30
0.0
 40
0.101781928913435
 50
63.4626603498468
 51
100.74200229027051
  0
ARC
  5
578
  8
FORM
 62
     7
 10
34.223729261234951
 20
4.2529656105913531
 30
0.0
 40
0.1722214314986379
 50
89.999999999999588
 51
125.5974615489027
  0
ARC
  5
579
  8
FORM
 62
     7
 10
36.266687671707359
 20
5.4819654875490791
 30
0.0
 40
2.382967543868022
 50
197.51922498184919
 51
203.981481444731
  0
ARC
  5
57A
  8
FORM
 62
     7
 10
33.485249637949607
 20
4.721360124868851
 30
0.0
 40
0.7243225282346643
 50
346.52409876011302
 51
356.71498770316703
  0
ARC
  5
57B
  8
FORM
 62
     7
 10
31.35955469354608
 20
-2.20296417031589
 30
0.0
 40
7.4490944355826798
 50
69.286600818944066
 51
70.22311760076802
  0
ARC
  5
57C
  8
FORM
 62
     7
 10
33.876169922815478
 20
4.0909024975958621
 30
0.0
 40
0.2184269840063441
 50
245.40259669902051
 51
275.40975098180542
  0
ARC
  5
57D
  8
FORM
 62
     7
 10
34.642070270288428
 20
3.6967673023805361
 30
0.0
 40
0.8681469610074701
 50
126.68044463040199
 51
139.78708822539889
  0
ARC
  5
57E
  8
FORM
 62
     7
 10
33.872083832704959
 20
4.7053139576373191
 30
0.0
 40
0.832231548816698
 50
271.69929119420118
 51
283.39540842056908
  0
ARC
  5
57F
  8
FORM
 62
     7
 10
35.428271851831568
 20
2.78470176044189
 30
0.0
 40
2.0660410796836941
 50
134.5410403491789
 51
138.91474429089911
  0
ARC
  5
580
  8
FORM
 62
     7
 10
33.906328645442898
 20
4.1130944325259122
 30
0.0
 40
0.0546567449796842
 50
201.8252958964795
 51
267.16449786715452
  0
ARC
  5
581
  8
FORM
 62
     7
 10
33.894562313202023
 20
4.107909022344443
 30
0.0
 40
0.0418082902229875
 50
124.254854327418
 51
201.22329273937871
  0
ARC
  5
582
  8
FORM
 62
     7
 10
34.021864770200096
 20
4.0738934856997728
 30
0.0
 40
0.1832903804675856
 50
283.5751770312794
 51
324.58969283639942
  0
ARC
  5
583
  8
FORM
 62
     7
 10
34.126398977664167
 20
3.986597707801109
 30
0.0
 40
0.0486742756789315
 50
337.14160324238748
 51
47.564966708928338
  0
ARC
  5
584
  8
FORM
 62
     7
 10
34.051479433347943
 20
3.879563609001575
 30
0.0
 40
0.1790243893656499
 50
52.990730681111621
 51
91.748895977531333
  0
ARC
  5
585
  8
FORM
 62
     7
 10
33.97482029636015
 20
4.5445147233887013
 30
0.0
 40
0.4911971362770459
 50
261.66603807207321
 51
278.33396192792679
  0
ARC
  5
586
  8
FORM
 62
     7
 10
33.827351328547081
 20
3.9976720327520212
 30
0.0
 40
0.1134738832821913
 50
192.64550774538381
 51
248.2223967256862
  0
ARC
  5
587
  8
FORM
 62
     7
 10
33.799462642063048
 20
4.0105271566674361
 30
0.0
 40
0.0910070849768819
 50
178.88427582775449
 51
204.46998391858139
  0
ARC
  5
588
  8
FORM
 62
     7
 10
34.024590384061071
 20
3.9875275917867858
 30
0.0
 40
0.3170866660790294
 50
140.54690015149379
 51
175.51933831911609
  0
ARC
  5
589
  8
FORM
 62
     7
 10
37.147786536650841
 20
1.5008787794887259
 30
0.0
 40
4.3092627289205483
 50
137.45643980933039
 51
141.40545593619061
  0
POLYLINE
  5
58A
  8
FORM
 62
     1
 10
34.588179408120517
 20
5.9634267402830048
 30
0.0
 66
     1
 70
     8
  0
VERTEX
  8
FORM
  5
87A
 10
34.5882
 20
5.96343
 30
0.000000
  70
    32
  0
VERTEX
  8
FORM
  5
87B
 10
34.5863
 20
5.96413
 30
0.000000
  70
    32
  0
VERTEX
  8
FORM
  5
87C
 10
34.5843
 20
5.96461
 30
0.000000
  70
    32
  0
VERTEX
  8
FORM
  5
87D
 10
34.5822
 20
5.96487
 30
0.000000
  70
    32
  0
VERTEX
  8
FORM
  5
87E
 10
34.5800
 20
5.96490
 30
0.000000
  70
    32
  0
VERTEX
  8
FORM
  5
87F
 10
34.5778
 20
5.96471
 30
0.000000
  70
    32
  0
VERTEX
  8
FORM
  5
880
 10
34.5754
 20
5.96429
 30
0.000000
  70
    32
  0
VERTEX
  8
FORM
  5
881
 10
34.5731
 20
5.96365
 30
0.000000
  70
    32
  0
VERTEX
  8
FORM
  5
882
 10
34.5706
 20
5.96279
 30
0.000000
  70
    32
  0
VERTEX
  8
FORM
  5
883
 10
34.5681
 20
5.96170
 30
0.000000
  70
    32
  0
VERTEX
  8
FORM
  5
884
 10
34.5656
 20
5.96040
 30
0.000000
  70
    32
  0
VERTEX
  8
FORM
  5
885
 10
34.5630
 20
5.95889
 30
0.000000
  70
    32
  0
VERTEX
  8
FORM
  5
886
 10
34.5603
 20
5.95716
 30
0.000000
  70
    32
  0
VERTEX
  8
FORM
  5
887
 10
34.5577
 20
5.95523
 30
0.000000
  70
    32
  0
VERTEX
  8
FORM
  5
888
 10
34.5550
 20
5.95309
 30
0.000000
  70
    32
  0
VERTEX
  8
FORM
  5
889
 10
34.5523
 20
5.95076
 30
0.000000
  70
    32
  0
VERTEX
  8
FORM
  5
88A
 10
34.5496
 20
5.94824
 30
0.000000
  70
    32
  0
VERTEX
  8
FORM
  5
88B
 10
34.5468
 20
5.94553
 30
0.000000
  70
    32
  0
VERTEX
  8
FORM
  5
88C
 10
34.5441
 20
5.94264
 30
0.000000
  70
    32
  0
VERTEX
  8
FORM
  5
88D
 10
34.5414
 20
5.93959
 30
0.000000
  70
    32
  0
VERTEX
  8
FORM
  5
88E
 10
34.5387
 20
5.93636
 30
0.000000
  70
    32
  0
VERTEX
  8
FORM
  5
88F
 10
34.5361
 20
5.93299
 30
0.000000
  70
    32
  0
VERTEX
  8
FORM
  5
890
 10
34.5334
 20
5.92946
 30
0.000000
  70
    32
  0
VERTEX
  8
FORM
  5
891
 10
34.5308
 20
5.92579
 30
0.000000
  70
    32
  0
VERTEX
  8
FORM
  5
892
 10
34.5282
 20
5.92199
 30
0.000000
  70
    32
  0
VERTEX
  8
FORM
  5
893
 10
34.5257
 20
5.91807
 30
0.000000
  70
    32
  0
VERTEX
  8
FORM
  5
894
 10
34.5233
 20
5.91404
 30
0.000000
  70
    32
  0
VERTEX
  8
FORM
  5
895
 10
34.5209
 20
5.90991
 30
0.000000
  70
    32
  0
VERTEX
  8
FORM
  5
896
 10
34.5185
 20
5.90568
 30
0.000000
  70
    32
  0
VERTEX
  8
FORM
  5
897
 10
34.5162
 20
5.90137
 30
0.000000
  70
    32
  0
VERTEX
  8
FORM
  5
898
 10
34.5140
 20
5.89699
 30
0.000000
  70
    32
  0
VERTEX
  8
FORM
  5
899
 10
34.5119
 20
5.89254
 30
0.000000
  70
    32
  0
VERTEX
  8
FORM
  5
89A
 10
34.5099
 20
5.88805
 30
0.000000
  70
    32
  0
VERTEX
  8
FORM
  5
89B
 10
34.5080
 20
5.88352
 30
0.000000
  70
    32
  0
VERTEX
  8
FORM
  5
89C
 10
34.5061
 20
5.87895
 30
0.000000
  70
    32
  0
VERTEX
  8
FORM
  5
89D
 10
34.5044
 20
5.87437
 30
0.000000
  70
    32
  0
VERTEX
  8
FORM
  5
89E
 10
34.5028
 20
5.86978
 30
0.000000
  70
    32
  0
VERTEX
  8
FORM
  5
89F
 10
34.5012
 20
5.86520
 30
0.000000
  70
    32
  0
VERTEX
  8
FORM
  5
8A0
 10
34.4998
 20
5.86063
 30
0.000000
  70
    32
  0
VERTEX
  8
FORM
  5
8A1
 10
34.4985
 20
5.85608
 30
0.000000
  70
    32
  0
VERTEX
  8
FORM
  5
8A2
 10
34.4973
 20
5.85158
 30
0.000000
  70
    32
  0
VERTEX
  8
FORM
  5
8A3
 10
34.4963
 20
5.84712
 30
0.000000
  70
    32
  0
VERTEX
  8
FORM
  5
8A4
 10
34.4953
 20
5.84272
 30
0.000000
  70
    32
  0
VERTEX
  8
FORM
  5
8A5
 10
34.4945
 20
5.83838
 30
0.000000
  70
    32
  0
VERTEX
  8
FORM
  5
8A6
 10
34.4938
 20
5.83413
 30
0.000000
  70
    32
  0
VERTEX
  8
FORM
  5
8A7
 10
34.4933
 20
5.82997
 30
0.000000
  70
    32
  0
VERTEX
  8
FORM
  5
8A8
 10
34.4929
 20
5.82591
 30
0.000000
  70
    32
  0
VERTEX
  8
FORM
  5
8A9
 10
34.4926
 20
5.82195
 30
0.000000
  70
    32
  0
VERTEX
  8
FORM
  5
8AA
 10
34.4924
 20
5.81812
 30
0.000000
  70
    32
  0
VERTEX
  8
FORM
  5
8AB
 10
34.4924
 20
5.81442
 30
0.000000
  70
    32
  0
VERTEX
  8
FORM
  5
8AC
 10
34.4925
 20
5.81085
 30
0.000000
  70
    32
  0
VERTEX
  8
FORM
  5
8AD
 10
34.4928
 20
5.80743
 30
0.000000
  70
    32
  0
VERTEX
  8
FORM
  5
8AE
 10
34.4931
 20
5.80416
 30
0.000000
  70
    32
  0
VERTEX
  8
FORM
  5
8AF
 10
34.4937
 20
5.80105
 30
0.000000
  70
    32
  0
VERTEX
  8
FORM
  5
8B0
 10
34.4943
 20
5.79812
 30
0.000000
  70
    32
  0
VERTEX
  8
FORM
  5
8B1
 10
34.4951
 20
5.79536
 30
0.000000
  70
    32
  0
VERTEX
  8
FORM
  5
8B2
 10
34.4960
 20
5.79278
 30
0.000000
  70
    32
  0
VERTEX
  8
FORM
  5
8B3
 10
34.4970
 20
5.79039
 30
0.000000
  70
    32
  0
VERTEX
  8
FORM
  5
8B4
 10
34.4981
 20
5.78820
 30
0.000000
  70
    32
  0
VERTEX
  8
FORM
  5
8B5
 10
34.4994
 20
5.78621
 30
0.000000
  70
    32
  0
VERTEX
  8
FORM
  5
8B6
 10
34.5008
 20
5.78443
 30
0.000000
  70
    32
  0
VERTEX
  8
FORM
  5
8B7
 10
34.5023
 20
5.78285
 30
0.000000
  70
    32
  0
VERTEX
  8
FORM
  5
8B8
 10
34.5039
 20
5.78149
 30
0.000000
  70
    32
  0
VERTEX
  8
FORM
  5
8B9
 10
34.5056
 20
5.78034
 30
0.000000
  70
    32
  0
VERTEX
  8
FORM
  5
8BA
 10
34.5074
 20
5.77941
 30
0.000000
  70
    32
  0
VERTEX
  8
FORM
  5
8BB
 10
34.5093
 20
5.77871
 30
0.000000
  70
    32
  0
VERTEX
  8
FORM
  5
8BC
 10
34.5113
 20
5.77823
 30
0.000000
  70
    32
  0
VERTEX
  8
FORM
  5
8BD
 10
34.5134
 20
5.77797
 30
0.000000
  70
    32
  0
VERTEX
  8
FORM
  5
8BE
 10
34.5155
 20
5.77794
 30
0.000000
  70
    32
  0
VERTEX
  8
FORM
  5
8BF
 10
34.5178
 20
5.77813
 30
0.000000
  70
    32
  0
VERTEX
  8
FORM
  5
8C0
 10
34.5201
 20
5.77855
 30
0.000000
  70
    32
  0
VERTEX
  8
FORM
  5
8C1
 10
34.5225
 20
5.77919
 30
0.000000
  70
    32
  0
VERTEX
  8
FORM
  5
8C2
 10
34.5249
 20
5.78005
 30
0.000000
  70
    32
  0
VERTEX
  8
FORM
  5
8C3
 10
34.5274
 20
5.78114
 30
0.000000
  70
    32
  0
VERTEX
  8
FORM
  5
8C4
 10
34.5300
 20
5.78244
 30
0.000000
  70
    32
  0
VERTEX
  8
FORM
  5
8C5
 10
34.5326
 20
5.78395
 30
0.000000
  70
    32
  0
VERTEX
  8
FORM
  5
8C6
 10
34.5352
 20
5.78568
 30
0.000000
  70
    32
  0
VERTEX
  8
FORM
  5
8C7
 10
34.5379
 20
5.78761
 30
0.000000
  70
    32
  0
VERTEX
  8
FORM
  5
8C8
 10
34.5406
 20
5.78975
 30
0.000000
  70
    32
  0
VERTEX
  8
FORM
  5
8C9
 10
34.5433
 20
5.79208
 30
0.000000
  70
    32
  0
VERTEX
  8
FORM
  5
8CA
 10
34.5460
 20
5.79460
 30
0.000000
  70
    32
  0
VERTEX
  8
FORM
  5
8CB
 10
34.5487
 20
5.79731
 30
0.000000
  70
    32
  0
VERTEX
  8
FORM
  5
8CC
 10
34.5514
 20
5.80020
 30
0.000000
  70
    32
  0
VERTEX
  8
FORM
  5
8CD
 10
34.5541
 20
5.80325
 30
0.000000
  70
    32
  0
VERTEX
  8
FORM
  5
8CE
 10
34.5568
 20
5.80648
 30
0.000000
  70
    32
  0
VERTEX
  8
FORM
  5
8CF
 10
34.5595
 20
5.80985
 30
0.000000
  70
    32
  0
VERTEX
  8
FORM
  5
8D0
 10
34.5621
 20
5.81338
 30
0.000000
  70
    32
  0
VERTEX
  8
FORM
  5
8D1
 10
34.5647
 20
5.81705
 30
0.000000
  70
    32
  0
VERTEX
  8
FORM
  5
8D2
 10
34.5673
 20
5.82085
 30
0.000000
  70
    32
  0
VERTEX
  8
FORM
  5
8D3
 10
34.5698
 20
5.82477
 30
0.000000
  70
    32
  0
VERTEX
  8
FORM
  5
8D4
 10
34.5723
 20
5.82880
 30
0.000000
  70
    32
  0
VERTEX
  8
FORM
  5
8D5
 10
34.5747
 20
5.83293
 30
0.000000
  70
    32
  0
VERTEX
  8
FORM
  5
8D6
 10
34.5770
 20
5.83716
 30
0.000000
  70
    32
  0
VERTEX
  8
FORM
  5
8D7
 10
34.5793
 20
5.84147
 30
0.000000
  70
    32
  0
VERTEX
  8
FORM
  5
8D8
 10
34.5815
 20
5.84585
 30
0.000000
  70
    32
  0
VERTEX
  8
FORM
  5
8D9
 10
34.5836
 20
5.85030
 30
0.000000
  70
    32
  0
VERTEX
  8
FORM
  5
8DA
 10
34.5856
 20
5.85479
 30
0.000000
  70
    32
  0
VERTEX
  8
FORM
  5
8DB
 10
34.5876
 20
5.85932
 30
0.000000
  70
    32
  0
VERTEX
  8
FORM
  5
8DC
 10
34.5894
 20
5.86389
 30
0.000000
  70
    32
  0
VERTEX
  8
FORM
  5
8DD
 10
34.5912
 20
5.86847
 30
0.000000
  70
    32
  0
VERTEX
  8
FORM
  5
8DE
 10
34.5928
 20
5.87306
 30
0.000000
  70
    32
  0
VERTEX
  8
FORM
  5
8DF
 10
34.5943
 20
5.87764
 30
0.000000
  70
    32
  0
VERTEX
  8
FORM
  5
8E0
 10
34.5957
 20
5.88221
 30
0.000000
  70
    32
  0
VERTEX
  8
FORM
  5
8E1
 10
34.5970
 20
5.88676
 30
0.000000
  70
    32
  0
VERTEX
  8
FORM
  5
8E2
 10
34.5982
 20
5.89127
 30
0.000000
  70
    32
  0
VERTEX
  8
FORM
  5
8E3
 10
34.5993
 20
5.89572
 30
0.000000
  70
    32
  0
VERTEX
  8
FORM
  5
8E4
 10
34.6002
 20
5.90013
 30
0.000000
  70
    32
  0
VERTEX
  8
FORM
  5
8E5
 10
34.6010
 20
5.90446
 30
0.000000
  70
    32
  0
VERTEX
  8
FORM
  5
8E6
 10
34.6017
 20
5.90871
 30
0.000000
  70
    32
  0
VERTEX
  8
FORM
  5
8E7
 10
34.6023
 20
5.91287
 30
0.000000
  70
    32
  0
VERTEX
  8
FORM
  5
8E8
 10
34.6027
 20
5.91693
 30
0.000000
  70
    32
  0
VERTEX
  8
FORM
  5
8E9
 10
34.6030
 20
5.92089
 30
0.000000
  70
    32
  0
VERTEX
  8
FORM
  5
8EA
 10
34.6031
 20
5.92472
 30
0.000000
  70
    32
  0
VERTEX
  8
FORM
  5
8EB
 10
34.6031
 20
5.92842
 30
0.000000
  70
    32
  0
VERTEX
  8
FORM
  5
8EC
 10
34.6030
 20
5.93199
 30
0.000000
  70
    32
  0
VERTEX
  8
FORM
  5
8ED
 10
34.6028
 20
5.93541
 30
0.000000
  70
    32
  0
VERTEX
  8
FORM
  5
8EE
 10
34.6024
 20
5.93868
 30
0.000000
  70
    32
  0
VERTEX
  8
FORM
  5
8EF
 10
34.6019
 20
5.94179
 30
0.000000
  70
    32
  0
VERTEX
  8
FORM
  5
8F0
 10
34.6013
 20
5.94472
 30
0.000000
  70
    32
  0
VERTEX
  8
FORM
  5
8F1
 10
34.6005
 20
5.94748
 30
0.000000
  70
    32
  0
VERTEX
  8
FORM
  5
8F2
 10
34.5996
 20
5.95006
 30
0.000000
  70
    32
  0
VERTEX
  8
FORM
  5
8F3
 10
34.5986
 20
5.95245
 30
0.000000
  70
    32
  0
VERTEX
  8
FORM
  5
8F4
 10
34.5974
 20
5.95464
 30
0.000000
  70
    32
  0
VERTEX
  8
FORM
  5
8F5
 10
34.5962
 20
5.95663
 30
0.000000
  70
    32
  0
VERTEX
  8
FORM
  5
8F6
 10
34.5948
 20
5.95841
 30
0.000000
  70
    32
  0
VERTEX
  8
FORM
  5
8F7
 10
34.5933
 20
5.95999
 30
0.000000
  70
    32
  0
VERTEX
  8
FORM
  5
8F8
 10
34.5917
 20
5.96135
 30
0.000000
  70
    32
  0
VERTEX
  8
FORM
  5
8F9
 10
34.5900
 20
5.96250
 30
0.000000
  70
    32
  0
VERTEX
  8
FORM
  5
8FA
 10
34.5882
 20
5.96343
 30
0.000000
  70
    32
  0
SEQEND
  8
FORM
  5
8FB
  0
ARC
  5
58B
  8
FORM
 62
     7
 10
34.678422559705353
 20
5.6285689301790143
 30
0.0
 40
0.45030777473755
 50
85.485448269952457
 51
155.5006785655419
  0
TEXT
  5
58C
  8
FORM
 62
     7
 10
33.094000516162993
 20
3.2737730496354831
 30
0.0
 40
0.1764102564
  1
R2-D2 BUILDERS CLUB
  0
ARC
  5
58D
  8
FORM
 10
1.27380952375006
 20
1.2738095237500171
 30
0.0
 40
0.315018315
 50
180.0
 51
270.0
  0
ARC
  5
58E
  8
FORM
 10
1.27380952375006
 20
1.2738095237500171
 30
0.0
 40
0.6300366300000001
 50
180.0
 51
270.0
  0
ARC
  5
58F
  8
FORM
 10
1.27380952375006
 20
1.2738095237500171
 30
0.0
 40
0.7087912087500001
 50
180.0
 51
270.0
  0
ARC
  5
590
  8
FORM
 10
1.27380952375006
 20
1.2738095237500171
 30
0.0
 40
1.02380952375
 50
180.0
 51
270.0
  0
ARC
  5
591
  8
FORM
 10
1.27380952375006
 20
30.47619047625
 30
0.0
 40
1.02380952375
 50
90.0
 51
180.0
  0
ARC
  5
592
  8
FORM
 10
1.27380952375006
 20
30.47619047625
 30
0.0
 40
0.7087912087500001
 50
90.0
 51
180.0
  0
ARC
  5
593
  8
FORM
 10
1.27380952375006
 20
30.47619047625
 30
0.0
 40
0.6300366300000001
 50
90.0
 51
180.0
  0
ARC
  5
594
  8
FORM
 10
1.27380952375006
 20
30.47619047625
 30
0.0
 40
0.315018315
 50
90.0
 51
180.0
  0
ARC
  5
595
  8
FORM
 10
42.726190473750037
 20
30.47619047625
 30
0.0
 40
0.6300366300000001
 50
0.0
 51
90.0
  0
ARC
  5
596
  8
FORM
 10
42.726190473750037
 20
30.47619047625
 30
0.0
 40
0.7087912087500001
 50
0.0
 51
90.0
  0
ARC
  5
597
  8
FORM
 10
42.726190473750037
 20
30.47619047625
 30
0.0
 40
1.02380952375
 50
0.0
 51
90.0
  0
ARC
  5
598
  8
FORM
 10
42.726190473750037
 20
30.47619047625
 30
0.0
 40
0.315018315
 50
0.0
 51
90.0
  0
ARC
  5
599
  8
FORM
 10
42.726190473750037
 20
1.2738095237500171
 30
0.0
 40
1.02380952375
 50
270.0
 51
0.0
  0
ARC
  5
59A
  8
FORM
 10
42.726190473750037
 20
1.2738095237500171
 30
0.0
 40
0.7087912087500001
 50
270.0
 51
0.0
  0
ARC
  5
59B
  8
FORM
 10
42.726190473750037
 20
1.2738095237500171
 30
0.0
 40
0.6300366300000001
 50
270.0
 51
0.0
  0
ARC
  5
59C
  8
FORM
 10
42.726190473750037
 20
1.2738095237500171
 30
0.0
 40
0.315018315
 50
270.0
 51
0.0
  0
LINE
  5
59D
  8
FORM
 10
42.726190473750037
 20
0.643772893750036
 30
0.0
 11
1.27380952375006
 21
0.6437728937500183
 31
0.0
  0
LINE
  5
59E
  8
FORM
 10
42.726190473750037
 20
0.5650183150000352
 30
0.0
 11
1.27380952375006
 21
0.5650183150000175
 31
0.0
  0
LINE
  5
59F
  8
FORM
 10
42.726190473750037
 20
0.2500000000000178
 30
0.0
 11
1.27380952375006
 21
0.25
 31
0.0
  0
LINE
  5
5A0
  8
FORM
 10
43.356227103750051
 20
1.2738095237500171
 30
0.0
 11
43.356227103750051
 21
30.47619047625
 31
0.0
  0
LINE
  5
5A1
  8
FORM
 10
43.434981682500052
 20
1.2738095237500171
 30
0.0
 11
43.434981682500052
 21
30.47619047625
 31
0.0
  0
LINE
  5
5A2
  8
FORM
 10
43.749999997500048
 20
1.2738095237500171
 30
0.0
 11
43.749999997500048
 21
30.47619047625
 31
0.0
  0
LINE
  5
5A3
  8
FORM
 10
42.726190473750037
 20
31.10622710625
 30
0.0
 11
1.27380952375006
 21
31.10622710625
 31
0.0
  0
LINE
  5
5A4
  8
FORM
 10
42.726190473750037
 20
31.184981685
 30
0.0
 11
1.27380952375006
 21
31.184981685
 31
0.0
  0
LINE
  5
5A5
  8
FORM
 10
42.726190473750037
 20
31.5
 30
0.0
 11
1.27380952375006
 21
31.5
 31
0.0
  0
LINE
  5
5A6
  8
FORM
 10
0.6437728937500538
 20
1.2738095237500171
 30
0.0
 11
0.6437728937500538
 21
30.47619047625
 31
0.0
  0
LINE
  5
5A7
  8
FORM
 10
0.5650183150000318
 20
1.2738095237500171
 30
0.0
 11
0.5650183150000318
 21
30.47619047625
 31
0.0
  0
LINE
  5
5A8
  8
FORM
 10
0.2499999999999716
 20
1.2738095237500211
 30
0.0
 11
0.2500000000000568
 21
30.47619047625
 31
0.0
  0
LINE
  5
5A9
  8
FORM
  6
CONTINUOUS
 10
33.416182507258391
 20
1.2738095237500171
 30
0.0
 11
42.265298990260362
 21
1.2738095237500171
 31
0.0
  0
LINE
  5
5AA
  8
FORM
  6
CONTINUOUS
 10
42.726190473750037
 20
6.1592592487406881
 30
0.0
 11
42.726190473750037
 21
1.7347010072396991
 31
0.0
  0
ARC
  5
5AB
  8
FORM
  6
CONTINUOUS
 10
42.265298990260362
 20
1.7347010072396991
 30
0.0
 40
0.460891483489685
 50
270.0
 51
0.0
  0
ARC
  5
5AC
  8
FORM
  6
CONTINUOUS
 10
42.265298990260362
 20
6.1592592487406881
 30
0.0
 40
0.460891483489685
 50
359.99999999999989
 51
90.0
  0
ARC
  5
5AD
  8
FORM
  6
CONTINUOUS
 10
33.416182507258391
 20
1.7347010072396991
 30
0.0
 40
0.460891483489685
 50
180.0
 51
270.0
  0
ARC
  5
5AE
  8
FORM
  6
CONTINUOUS
 10
33.416182507258391
 20
6.1592592487406881
 30
0.0
 40
0.460891483489685
 50
90.0
 51
180.0
  0
LINE
  5
5AF
  8
0
 10
0.0
 20
0.0
 30
0.0
 11
0.0
 21
34.0
 31
0.0
  0
LINE
  5
5B0
  8
0
 10
0.0
 20
0.0
 30
0.0
 11
44.0
 21
0.0
 31
0.0
  0
LINE
  5
5B1
  8
0
 10
0.0
 20
34.0
 30
0.0
 11
44.0
 21
34.0
 31
0.0
  0
LINE
  5
5B2
  8
0
 10
44.0
 20
0.0
 30
0.0
 11
44.0
 21
34.0
 31
0.0
  0
LINE
  5
859
  8
0
 10
1.27380952375006
 20
1.2738095237500171
 30
0.0
 11
1.27380952375006
 21
2.2738095237500171
 31
0.0
  0
LINE
  5
85A
  8
0
 10
1.27380952375006
 20
1.3988095237500171
 30
0.0
 11
1.39880952375006
 21
1.3988095237500171
 31
0.0
  0
LINE
  5
85B
  8
0
 10
1.27380952375006
 20
1.5238095237500171
 30
0.0
 11
1.52380952375006
 21
1.5238095237500171
 31
0.0
  0
LINE
  5
85C
  8
0
 10
1.27380952375006
 20
1.6488095237500171
 30
0.0
 11
1.39880952375006
 21
1.6488095237500171
 31
0.0
  0
LINE
  5
85D
  8
0
 10
1.27380952375006
 20
1.7738095237500171
 30
0.0
 11
1.64880952375006
 21
1.7738095237500171
 31
0.0
  0
LINE
  5
85E
  8
0
 10
1.27380952375006
 20
1.8988095237500171
 30
0.0
 11
1.39880952375006
 21
1.8988095237500171
 31
0.0
  0
LINE
  5
85F
  8
0
 10
1.27380952375006
 20
2.0238095237500171
 30
0.0
 11
1.52380952375006
 21
2.0238095237500171
 31
0.0
  0
LINE
  5
860
  8
0
 10
1.27380952375006
 20
2.1488095237500171
 30
0.0
 11
1.39880952375006
 21
2.1488095237500171
 31
0.0
  0
LINE
  5
861
  8
0
 10
1.27380952375006
 20
2.2738095237500171
 30
0.0
 11
1.64880952375006
 21
2.2738095237500171
 31
0.0
  0
LINE
  5
862
  8
0
 10
1.27380952375006
 20
1.2738095237500171
 30
0.0
 11
1.64880952375006
 21
1.2738095237500171
 31
0.0
  0
TEXT
  5
863
  8
0
 10
1.6980782973764681
 20
1.740768962749534
 30
0.0
 40
0.0625
  1
1/2"
  0
TEXT
  5
864
  8
0
 10
1.4480782973764681
 20
1.615768962749534
 30
0.0
 40
0.0625
  1
3/8"
  0
TEXT
  5
865
  8
0
 10
1.5730782973764681
 20
1.490768962749534
 30
0.0
 40
0.0625
  1
1/4"
  0
TEXT
  5
866
  8
0
 10
1.4480782973764681
 20
1.365768962749534
 30
0.0
 40
0.0625
  1
1/8"
  0
TEXT
  5
867
  8
0
 10
1.4480782973764681
 20
1.865768962749534
 30
0.0
 40
0.0625
  1
5/8"
  0
TEXT
  5
868
  8
0
 10
1.5730782973764681
 20
1.990768962749534
 30
0.0
 40
0.0625
  1
3/4"
  0
TEXT
  5
869
  8
0
 10
1.4480782973764681
 20
2.115768962749534
 30
0.0
 40
0.0625
  1
7/8"
  0
TEXT
  5
86A
  8
0
 10
1.6980782973764681
 20
2.240768962749534
 30
0.0
 40
0.0625
  1
1"
  0
ENDSEC
  0
EOF
