  0
SECTION
  2
HEADER
  9
$ACADVER
  1
AC1009
  9
$INSBASE
 10
0.0
 20
0.0
 30
0.0
  9
$EXTMIN
 10
0.0
 20
0.0
 30
0.0
  9
$EXTMAX
 10
44.0
 20
34.0
 30
0.0
  9
$LIMMIN
 10
0.0
 20
0.0
  9
$LIMMAX
 10
12.0
 20
9.0
  9
$ORTHOMODE
 70
     1
  9
$REGENMODE
 70
     1
  9
$FILLMODE
 70
     1
  9
$QTEXTMODE
 70
     0
  9
$MIRRTEXT
 70
     0
  9
$DRAGMODE
 70
     2
  9
$LTSCALE
 40
1.0
  9
$OSMODE
 70
    39
  9
$ATTMODE
 70
     1
  9
$TEXTSIZE
 40
0.2
  9
$TRACEWID
 40
0.05
  9
$TEXTSTYLE
  7
STANDARD
  9
$CLAYER
  8
0
  9
$CELTYPE
  6
BYLAYER
  9
$CECOLOR
 62
   256
  9
$DIMSCALE
 40
1.0
  9
$DIMASZ
 40
0.3125
  9
$DIMEXO
 40
0.0625
  9
$DIMDLI
 40
0.38
  9
$DIMRND
 40
0.0
  9
$DIMDLE
 40
0.0
  9
$DIMEXE
 40
0.0625
  9
$DIMTP
 40
0.0
  9
$DIMTM
 40
0.0
  9
$DIMTXT
 40
0.3125
  9
$DIMCEN
 40
0.0
  9
$DIMTSZ
 40
0.0
  9
$DIMTOL
 70
     0
  9
$DIMLIM
 70
     0
  9
$DIMTIH
 70
     1
  9
$DIMTOH
 70
     1
  9
$DIMSE1
 70
     0
  9
$DIMSE2
 70
     0
  9
$DIMTAD
 70
     0
  9
$DIMZIN
 70
     0
  9
$DIMBLK
  1

  9
$DIMASO
 70
     1
  9
$DIMSHO
 70
     1
  9
$DIMPOST
  1

  9
$DIMAPOST
  1

  9
$DIMALT
 70
     0
  9
$DIMALTD
 70
     2
  9
$DIMALTF
 40
25.399999999999999
  9
$DIMLFAC
 40
1.0
  9
$DIMTOFL
 70
     0
  9
$DIMTVP
 40
0.0
  9
$DIMTIX
 70
     0
  9
$DIMSOXD
 70
     0
  9
$DIMSAH
 70
     0
  9
$DIMBLK1
  1

  9
$DIMBLK2
  1

  9
$DIMSTYLE
  2
STANDARD
  9
$DIMCLRD
 70
     0
  9
$DIMCLRE
 70
     0
  9
$DIMCLRT
 70
     0
  9
$DIMTFAC
 40
1.0
  9
$DIMGAP
 40
0.09375
  9
$LUNITS
 70
     2
  9
$LUPREC
 70
     8
  9
$SKETCHINC
 40
0.1
  9
$FILLETRAD
 40
0.0
  9
$AUNITS
 70
     0
  9
$AUPREC
 70
     8
  9
$MENU
  1
.
  9
$ELEVATION
 40
0.0
  9
$PELEVATION
 40
0.0
  9
$THICKNESS
 40
0.0
  9
$LIMCHECK
 70
     0
  9
$BLIPMODE
 70
     0
  9
$CHAMFERA
 40
0.0
  9
$CHAMFERB
 40
0.0
  9
$SKPOLY
 70
     0
  9
$TDCREATE
 40
2453392.3745916551
  9
$TDUPDATE
 40
2453462.4938282291
  9
$TDINDWG
 40
0.255833287
  9
$TDUSRTIMER
 40
0.2558279514
  9
$USRTIMER
 70
     1
  9
$ANGBASE
 50
0.0
  9
$ANGDIR
 70
     0
  9
$PDMODE
 70
     0
  9
$PDSIZE
 40
0.0
  9
$PLINEWID
 40
0.0
  9
$COORDS
 70
     0
  9
$SPLFRAME
 70
     0
  9
$SPLINETYPE
 70
     6
  9
$SPLINESEGS
 70
     8
  9
$ATTDIA
 70
     0
  9
$ATTREQ
 70
     1
  9
$HANDLING
 70
     1
  9
$HANDSEED
  5
9A0
  9
$SURFTAB1
 70
     6
  9
$SURFTAB2
 70
     6
  9
$SURFTYPE
 70
     6
  9
$SURFU
 70
     6
  9
$SURFV
 70
     6
  9
$UCSNAME
  2

  9
$UCSORG
 10
0.0
 20
0.0
 30
0.0
  9
$UCSXDIR
 10
1.0
 20
0.0
 30
0.0
  9
$UCSYDIR
 10
0.0
 20
1.0
 30
0.0
  9
$PUCSNAME
  2

  9
$PUCSORG
 10
0.0
 20
0.0
 30
0.0
  9
$PUCSXDIR
 10
1.0
 20
0.0
 30
0.0
  9
$PUCSYDIR
 10
0.0
 20
1.0
 30
0.0
  9
$USERI1
 70
     0
  9
$USERI2
 70
     0
  9
$USERI3
 70
     0
  9
$USERI4
 70
     0
  9
$USERI5
 70
     0
  9
$USERR1
 40
0.0
  9
$USERR2
 40
0.0
  9
$USERR3
 40
0.0
  9
$USERR4
 40
0.0
  9
$USERR5
 40
0.0
  9
$WORLDVIEW
 70
     1
  9
$SHADEDGE
 70
     3
  9
$SHADEDIF
 70
    70
  9
$TILEMODE
 70
     1
  9
$MAXACTVP
 70
    64
  9
$PLIMCHECK
 70
     0
  9
$PEXTMIN
 10
0.0
 20
0.0
 30
0.0
  9
$PEXTMAX
 10
0.0
 20
0.0
 30
0.0
  9
$PLIMMIN
 10
0.0
 20
0.0
  9
$PLIMMAX
 10
12.0
 20
9.0
  9
$UNITMODE
 70
     0
  9
$VISRETAIN
 70
     1
  9
$PLINEGEN
 70
     0
  9
$PSLTSCALE
 70
     1
  0
ENDSEC
  0
SECTION
  2
TABLES
  0
TABLE
  2
VPORT
 70
     2
  0
VPORT
  2
*ACTIVE
 70
     0
 10
0.0
 20
0.0
 11
1.0
 21
1.0
 12
21.99884201895691
 22
16.99865812390755
 13
0.0
 23
0.0
 14
0.5
 24
0.5
 15
0.5
 25
0.5
 16
0.0
 26
0.0
 36
1.0
 17
0.0
 27
0.0
 37
0.0
 40
34.437457981206407
 41
2.1727078891257992
 42
50.0
 43
0.0
 44
0.0
 50
0.0
 51
0.0
 71
     0
 72
 20000
 73
     1
 74
     2
 75
     0
 76
     0
 77
     0
 78
     0
  0
ENDTAB
  0
TABLE
  2
LTYPE
 70
     2
  0
LTYPE
  2
CONTINUOUS
 70
     0
  3
Solid line
 72
    65
 73
     0
 40
0.0
  0
LTYPE
  2
PHANTOM2
 70
     0
  3
Phantom (.5x) ___ _ _ ___ _ _ ___ _ _ ___ _ _
 72
    65
 73
     6
 40
1.25
 49
0.625
 49
-0.125
 49
0.125
 49
-0.125
 49
0.125
 49
-0.125
  0
ENDTAB
  0
TABLE
  2
LAYER
 70
    10
  0
LAYER
  2
0
 70
     0
 62
     7
  6
CONTINUOUS
  0
LAYER
  2
ANKLE_-_OUTER
 70
     0
 62
     7
  6
CONTINUOUS
  0
LAYER
  2
ANKLE_-_CYLINDER
 70
     0
 62
     7
  6
CONTINUOUS
  0
LAYER
  2
ANKLE_-_CYLINDER_HOLDER
 70
     0
 62
     7
  6
CONTINUOUS
  0
LAYER
  2
ANKLE_-_BRACKET
 70
     0
 62
     7
  6
CONTINUOUS
  0
LAYER
  2
DIMENSIONS
 70
     0
 62
     1
  6
CONTINUOUS
  0
LAYER
  2
ANKLE_-_LH_SIDE_DETAIL
 70
     0
 62
     7
  6
CONTINUOUS
  0
LAYER
  2
FORM
 70
     0
 62
     5
  6
CONTINUOUS
  0
LAYER
  2
ANKLE_-_WEDGE
 70
     0
 62
     7
  6
CONTINUOUS
  0
LAYER
  2
DEFPOINTS
 70
     0
 62
     7
  6
CONTINUOUS
  0
ENDTAB
  0
TABLE
  2
STYLE
 70
     1
  0
STYLE
  2
STANDARD
 70
     0
 40
0.0
 41
1.0
 50
0.0
 71
     0
 42
0.2
  3
simplex.shx
  4

  0
ENDTAB
  0
TABLE
  2
VIEW
 70
     0
  0
ENDTAB
  0
TABLE
  2
UCS
 70
     0
  0
ENDTAB
  0
TABLE
  2
APPID
 70
     4
  0
APPID
  2
ACAD
 70
     0
  0
APPID
  2
ACAECLAYERSTANDARD
 70
     0
  0
APPID
  2
DCO15
 70
     0
  0
APPID
  2
ACAD_PSEXT
 70
     0
  0
ENDTAB
  0
TABLE
  2
DIMSTYLE
 70
     1
  0
DIMSTYLE
  2
STANDARD
 70
     0
  3

  4

  5

  6

  7

 40
1.0
 41
0.3125
 42
0.0625
 43
0.38
 44
0.0625
 45
0.0
 46
0.0
 47
0.0
 48
0.0
140
0.3125
141
0.0
142
0.0
143
25.399999999999999
144
1.0
145
0.0
146
1.0
147
0.09375
 71
     0
 72
     0
 73
     1
 74
     1
 75
     0
 76
     0
 77
     0
 78
     0
170
     0
171
     2
172
     0
173
     0
174
     0
175
     0
176
     0
177
     0
178
     0
  0
ENDTAB
  0
ENDSEC
  0
SECTION
  2
BLOCKS
  0
BLOCK
  8
0
  2
$MODEL_SPACE
 70
     0
 10
0.0
 20
0.0
 30
0.0
  3
$MODEL_SPACE
  1

  0
ENDBLK
  5
B
  8
0
  0
BLOCK
 67
     1
  8
0
  2
$PAPER_SPACE
 70
     0
 10
0.0
 20
0.0
 30
0.0
  3
$PAPER_SPACE
  1

  0
ENDBLK
  5
10
 67
     1
  8
0
  0
ENDSEC
  0
SECTION
  2
ENTITIES
  0
LINE
  5
2D
  8
ANKLE_-_OUTER
 10
12.73532686441572
 20
12.183764507749579
 30
0.0
 11
12.73532686441572
 21
16.271264507749589
 31
0.0
  0
LINE
  5
30
  8
ANKLE_-_OUTER
 10
17.78532686441574
 20
12.183764507749579
 30
0.0
 11
17.78532686441574
 21
16.271264507749589
 31
0.0
  0
LINE
  5
31
  8
ANKLE_-_OUTER
 10
12.73532686441572
 20
16.271264507749589
 30
0.0
 11
17.78532686441574
 21
16.271264507749589
 31
0.0
  0
ARC
  5
32
  8
ANKLE_-_OUTER
 10
15.260326864415729
 20
8.7962645077495907
 30
0.0
 40
0.675
 50
218.11436139583861
 51
321.88563860416127
  0
LINE
  5
33
  8
ANKLE_-_OUTER
 10
12.73532686441572
 20
10.921264507749591
 30
0.0
 11
14.729250138322611
 21
8.3796321626271713
 31
0.0
  0
LINE
  5
34
  8
ANKLE_-_OUTER
 10
17.78532686441574
 20
10.921264507749591
 30
0.0
 11
15.79140359050885
 21
8.3796321626271713
 31
0.0
  0
LINE
  5
35
  8
ANKLE_-_OUTER
 10
28.627154603240371
 20
16.271264507749581
 30
0.0
 11
32.502154603240371
 21
16.271264507749589
 31
0.0
  0
LINE
  5
36
  8
ANKLE_-_OUTER
 10
28.627154603240371
 20
14.134968017020009
 30
0.0
 11
30.002154603240371
 21
12.17126450774958
 31
0.0
  0
LINE
  5
37
  8
ANKLE_-_OUTER
 10
32.502154603240371
 20
16.271264507749589
 30
0.0
 11
32.502154603240371
 21
10.171264507749591
 31
0.0
  0
LINE
  5
38
  8
ANKLE_-_OUTER
 10
28.627154603240371
 20
16.271264507749581
 30
0.0
 11
28.627154603240371
 21
14.134968017020009
 31
0.0
  0
LINE
  5
39
  8
ANKLE_-_OUTER
 10
30.002154603240371
 20
16.271264507749589
 30
0.0
 11
30.002154603240371
 21
12.05896447220667
 31
0.0
  0
LINE
  5
3A
  8
ANKLE_-_OUTER
 10
30.002154603240371
 20
10.93356454329251
 30
0.0
 11
30.002154603240371
 21
8.1212645077495882
 31
0.0
  0
LINE
  5
3B
  8
ANKLE_-_OUTER
 10
31.002154603240371
 20
10.921264507749591
 30
0.0
 11
31.002154603240371
 21
8.1212645077495882
 31
0.0
  0
LINE
  5
3C
  8
ANKLE_-_OUTER
 10
30.002154603240371
 20
8.1212645077495882
 30
0.0
 11
31.002154603240371
 21
8.1212645077495935
 31
0.0
  0
LINE
  5
3D
  8
ANKLE_-_OUTER
 10
32.502154603240371
 20
10.171264507749591
 30
0.0
 11
31.002154603240371
 21
10.171264507749591
 31
0.0
  0
LINE
  5
3E
  8
ANKLE_-_OUTER
 10
32.502154603240371
 20
10.921264507749591
 30
0.0
 11
31.002154603240371
 21
10.921264507749591
 31
0.0
  0
ARC
  5
3F
  8
ANKLE_-_OUTER
 10
15.260326864415729
 20
11.50292413528248
 30
0.0
 40
2.6119540297389419
 50
15.109419461154641
 51
164.8905805388452
  0
LINE
  5
40
  8
ANKLE_-_BRACKET
 10
12.552326864415731
 20
26.449478351677389
 30
0.0
 11
12.552326864415731
 21
23.77264207590461
 31
0.0
  0
LINE
  5
42
  8
ANKLE_-_BRACKET
  6
PHANTOM2
 10
13.072826864415729
 20
26.074478351677381
 30
0.0
 11
13.072826864415759
 21
24.324478351677389
 31
0.0
  0
LINE
  5
44
  8
ANKLE_-_BRACKET
 10
17.968326864415729
 20
26.449478351677389
 30
0.0
 11
17.968326864415729
 21
23.77264207590461
 31
0.0
  0
LINE
  5
45
  8
ANKLE_-_BRACKET
  6
PHANTOM2
 10
17.447826864415731
 20
26.074478351677389
 30
0.0
 11
17.447826864415699
 21
24.324478351677389
 31
0.0
  0
ARC
  5
46
  8
ANKLE_-_BRACKET
 10
15.260326864415729
 20
25.580478351677389
 30
0.0
 40
3.2559999999999998
 50
213.7267145494701
 51
326.27328545053001
  0
LINE
  5
47
  8
ANKLE_-_BRACKET
 10
12.552326864415731
 20
26.449478351677389
 30
0.0
 11
17.968326864415729
 21
26.449478351677389
 31
0.0
  0
LINE
  5
48
  8
ANKLE_-_BRACKET
  6
PHANTOM2
 10
13.072826864415759
 20
26.074478351677389
 30
0.0
 11
17.447826864415731
 21
26.074478351677389
 31
0.0
  0
LINE
  5
49
  8
ANKLE_-_BRACKET
  6
PHANTOM2
 10
13.072826864415759
 20
24.324478351677389
 30
0.0
 11
17.447826864415731
 21
24.324478351677389
 31
0.0
  0
LINE
  5
4A
  8
ANKLE_-_BRACKET
 10
12.552326864415731
 20
16.396264507749589
 30
0.0
 11
12.552326864415731
 21
16.271264507749589
 31
0.0
  0
LINE
  5
4B
  8
ANKLE_-_BRACKET
 10
17.968326864415729
 20
16.396264507749589
 30
0.0
 11
17.968326864415729
 21
16.271264507749589
 31
0.0
  0
LINE
  5
4C
  8
ANKLE_-_BRACKET
 10
12.552326864415731
 20
16.396264507749589
 30
0.0
 11
17.968326864415729
 21
16.396264507749589
 31
0.0
  0
LINE
  5
4D
  8
ANKLE_-_BRACKET
 10
12.552326864415731
 20
16.271264507749589
 30
0.0
 11
17.968326864415729
 21
16.271264507749589
 31
0.0
  0
LINE
  5
4E
  8
ANKLE_-_BRACKET
 10
32.502154603240371
 20
16.396264507749589
 30
0.0
 11
28.377154603240371
 21
16.396264507749589
 31
0.0
  0
LINE
  5
4F
  8
ANKLE_-_BRACKET
 10
32.502154603240371
 20
16.271264507749589
 30
0.0
 11
28.377154603240371
 21
16.271264507749589
 31
0.0
  0
LINE
  5
50
  8
ANKLE_-_BRACKET
 10
32.502154603240371
 20
16.396264507749589
 30
0.0
 11
32.502154603240371
 21
16.271264507749589
 31
0.0
  0
LINE
  5
51
  8
ANKLE_-_BRACKET
 10
28.377154603240371
 20
16.396264507749581
 30
0.0
 11
28.377154603240371
 21
16.271264507749589
 31
0.0
  0
LINE
  5
52
  8
ANKLE_-_BRACKET
 10
29.825318327467581
 20
16.396264507749589
 30
0.0
 11
29.82531832746762
 21
16.271264507749589
 31
0.0
  0
LINE
  5
53
  8
ANKLE_-_CYLINDER
 10
12.010326864415729
 20
22.866978351677389
 30
0.0
 11
12.135326864415729
 21
22.8669783516774
 31
0.0
  0
LINE
  5
55
  8
ANKLE_-_CYLINDER
 10
12.16632686441573
 20
22.8669783516774
 30
0.0
 11
12.635326864415729
 21
22.8669783516774
 31
0.0
  0
LINE
  5
56
  8
ANKLE_-_CYLINDER
 10
12.666326864415741
 20
22.8669783516774
 30
0.0
 11
13.46075642956191
 21
22.866978351677378
 31
0.0
  0
LINE
  5
57
  8
ANKLE_-_CYLINDER
 10
17.059897299269579
 20
22.8669783516774
 30
0.0
 11
17.854326864415722
 21
22.866978351677389
 31
0.0
  0
LINE
  5
58
  8
ANKLE_-_CYLINDER
 10
17.885326864415731
 20
22.866978351677389
 30
0.0
 11
18.354326864415722
 21
22.866978351677378
 31
0.0
  0
LINE
  5
59
  8
ANKLE_-_CYLINDER
 10
18.385326864415731
 20
22.866978351677378
 30
0.0
 11
18.510326864415731
 21
22.866978351677378
 31
0.0
  0
LINE
  5
5A
  8
ANKLE_-_CYLINDER
 10
12.135326864415729
 20
22.897978351677391
 30
0.0
 11
12.16632686441573
 21
22.897978351677391
 31
0.0
  0
LINE
  5
5B
  8
ANKLE_-_CYLINDER
 10
12.635326864415729
 20
22.897978351677391
 30
0.0
 11
12.666326864415741
 21
22.897978351677391
 31
0.0
  0
LINE
  5
5C
  8
ANKLE_-_CYLINDER
 10
17.854326864415722
 20
22.897978351677381
 30
0.0
 11
17.885326864415731
 21
22.897978351677391
 31
0.0
  0
LINE
  5
5D
  8
ANKLE_-_CYLINDER
 10
18.354326864415722
 20
22.897978351677381
 30
0.0
 11
18.385326864415731
 21
22.897978351677381
 31
0.0
  0
LINE
  5
5E
  8
ANKLE_-_CYLINDER
 10
12.010326864415729
 20
24.241978351677389
 30
0.0
 11
12.135326864415729
 21
24.241978351677389
 31
0.0
  0
LINE
  5
5F
  8
ANKLE_-_CYLINDER
 10
12.16632686441573
 20
24.241978351677389
 30
0.0
 11
12.552326864415731
 21
24.241978351677378
 31
0.0
  0
LINE
  5
60
  8
ANKLE_-_CYLINDER
 10
17.968326864415729
 20
24.241978351677378
 30
0.0
 11
18.354326864415722
 21
24.241978351677389
 31
0.0
  0
LINE
  5
61
  8
ANKLE_-_CYLINDER
 10
18.385326864415731
 20
24.241978351677389
 30
0.0
 11
18.510326864415731
 21
24.241978351677389
 31
0.0
  0
LINE
  5
62
  8
ANKLE_-_CYLINDER
 10
12.135326864415729
 20
24.210978351677412
 30
0.0
 11
12.16632686441573
 21
24.210978351677401
 31
0.0
  0
LINE
  5
63
  8
ANKLE_-_CYLINDER
 10
18.354326864415722
 20
24.21097835167739
 30
0.0
 11
18.385326864415731
 21
24.21097835167739
 31
0.0
  0
LINE
  5
64
  8
ANKLE_-_CYLINDER
 10
11.635326864415729
 20
23.366978351677389
 30
0.0
 11
11.635326864415729
 21
23.741978351677389
 31
0.0
  0
LINE
  5
65
  8
ANKLE_-_CYLINDER
 10
18.510326864415731
 20
22.866978351677389
 30
0.0
 11
18.510326864415731
 21
24.241978351677378
 31
0.0
  0
LINE
  5
66
  8
ANKLE_-_CYLINDER
 10
18.385326864415731
 20
22.866978351677389
 30
0.0
 11
18.385326864415731
 21
24.241978351677378
 31
0.0
  0
LINE
  5
67
  8
ANKLE_-_CYLINDER
 10
18.354326864415722
 20
22.866978351677389
 30
0.0
 11
18.354326864415722
 21
24.241978351677378
 31
0.0
  0
LINE
  5
68
  8
ANKLE_-_CYLINDER
 10
12.010326864415729
 20
22.866978351677378
 30
0.0
 11
12.010326864415729
 21
24.241978351677389
 31
0.0
  0
LINE
  5
69
  8
ANKLE_-_CYLINDER
 10
12.135326864415729
 20
22.866978351677378
 30
0.0
 11
12.135326864415729
 21
24.241978351677389
 31
0.0
  0
LINE
  5
6A
  8
ANKLE_-_CYLINDER
 10
12.16632686441573
 20
22.866978351677378
 30
0.0
 11
12.16632686441573
 21
24.241978351677389
 31
0.0
  0
LINE
  5
6B
  8
ANKLE_-_CYLINDER
 10
11.97932686441575
 20
23.001278351677382
 30
0.0
 11
11.97932686441572
 21
23.366978351677378
 31
0.0
  0
LINE
  5
6C
  8
ANKLE_-_CYLINDER
 10
11.97932686441575
 20
23.741978351677378
 30
0.0
 11
11.97932686441575
 21
24.107678351677389
 31
0.0
  0
LINE
  5
6D
  8
ANKLE_-_CYLINDER
 10
17.854326864415722
 20
22.866978351677378
 30
0.0
 11
17.85432686441575
 21
23.61256067047221
 31
0.0
  0
LINE
  5
6E
  8
ANKLE_-_CYLINDER
 10
17.885326864415731
 20
22.866978351677378
 30
0.0
 11
17.885326864415731
 21
23.65410585395011
 31
0.0
  0
LINE
  5
6F
  8
ANKLE_-_CYLINDER
 10
12.666326864415741
 20
22.8669783516774
 30
0.0
 11
12.666326864415741
 21
23.612560670472199
 31
0.0
  0
LINE
  5
70
  8
ANKLE_-_CYLINDER
 10
12.635326864415729
 20
22.8669783516774
 30
0.0
 11
12.635326864415729
 21
23.65410585395011
 31
0.0
  0
LINE
  5
71
  8
ANKLE_-_CYLINDER
 10
12.010326864415729
 20
22.991978351677378
 30
0.0
 11
11.97932686441575
 21
23.001278351677382
 31
0.0
  0
LINE
  5
72
  8
ANKLE_-_CYLINDER
 10
12.010326864415729
 20
24.116978351677389
 30
0.0
 11
11.97932686441575
 21
24.107678351677389
 31
0.0
  0
LINE
  5
73
  8
ANKLE_-_CYLINDER
 10
18.885326864415731
 20
23.366978351677389
 30
0.0
 11
18.885326864415731
 21
23.741978351677389
 31
0.0
  0
LINE
  5
74
  8
ANKLE_-_CYLINDER
 10
18.541326864415709
 20
23.001278351677382
 30
0.0
 11
18.541326864415709
 21
23.366978351677378
 31
0.0
  0
LINE
  5
75
  8
ANKLE_-_CYLINDER
 10
18.541326864415709
 20
23.741978351677378
 30
0.0
 11
18.541326864415709
 21
24.107678351677389
 31
0.0
  0
LINE
  5
76
  8
ANKLE_-_CYLINDER
 10
18.510326864415731
 20
22.991978351677378
 30
0.0
 11
18.541326864415709
 21
23.001278351677382
 31
0.0
  0
LINE
  5
77
  8
ANKLE_-_CYLINDER
 10
18.510326864415731
 20
24.116978351677389
 30
0.0
 11
18.541326864415709
 21
24.107678351677389
 31
0.0
  0
LINE
  5
78
  8
ANKLE_-_CYLINDER
 10
11.635326864415729
 20
23.741978351677378
 30
0.0
 11
11.97932686441575
 21
23.741978351677389
 31
0.0
  0
LINE
  5
79
  8
ANKLE_-_CYLINDER
 10
18.541326864415709
 20
23.741978351677389
 30
0.0
 11
18.885326864415731
 21
23.741978351677378
 31
0.0
  0
LINE
  5
7A
  8
ANKLE_-_CYLINDER
 10
11.635326864415729
 20
23.366978351677378
 30
0.0
 11
11.97932686441575
 21
23.366978351677378
 31
0.0
  0
LINE
  5
7B
  8
ANKLE_-_CYLINDER
 10
18.541326864415709
 20
23.366978351677378
 30
0.0
 11
18.885326864415731
 21
23.366978351677378
 31
0.0
  0
LINE
  5
7C
  8
ANKLE_-_CYLINDER
 10
18.510326864415731
 20
12.18376450774959
 30
0.0
 11
18.385326864415731
 21
12.183764507749579
 31
0.0
  0
LINE
  5
7D
  8
ANKLE_-_CYLINDER
 10
18.354326864415722
 20
12.183764507749579
 30
0.0
 11
17.885326864415731
 21
12.183764507749579
 31
0.0
  0
LINE
  5
7E
  8
ANKLE_-_CYLINDER
 10
17.854326864415722
 20
12.183764507749579
 30
0.0
 11
16.54132686441573
 21
12.18376450774959
 31
0.0
  0
LINE
  5
7F
  8
ANKLE_-_CYLINDER
 10
16.510326864415731
 20
12.18376450774959
 30
0.0
 11
16.339693880599949
 21
12.18376450774959
 31
0.0
  0
LINE
  5
80
  8
ANKLE_-_CYLINDER
 10
14.18095984823151
 20
12.18376450774959
 30
0.0
 11
14.010326864415729
 21
12.18376450774959
 31
0.0
  0
LINE
  5
81
  8
ANKLE_-_CYLINDER
 10
13.97932686441572
 20
12.18376450774959
 30
0.0
 11
12.666326864415741
 21
12.18376450774959
 31
0.0
  0
LINE
  5
82
  8
ANKLE_-_CYLINDER
 10
12.635326864415729
 20
12.18376450774959
 30
0.0
 11
12.16632686441573
 21
12.18376450774959
 31
0.0
  0
LINE
  5
83
  8
ANKLE_-_CYLINDER
 10
12.135326864415729
 20
12.18376450774959
 30
0.0
 11
12.010326864415729
 21
12.18376450774959
 31
0.0
  0
LINE
  5
84
  8
ANKLE_-_CYLINDER
 10
18.385326864415731
 20
12.152764507749589
 30
0.0
 11
18.354326864415722
 21
12.152764507749581
 31
0.0
  0
LINE
  5
85
  8
ANKLE_-_CYLINDER
 10
17.885326864415731
 20
12.152764507749589
 30
0.0
 11
17.854326864415722
 21
12.152764507749589
 31
0.0
  0
LINE
  5
86
  8
ANKLE_-_CYLINDER
 10
16.54132686441573
 20
12.152764507749589
 30
0.0
 11
16.510326864415731
 21
12.152764507749581
 31
0.0
  0
LINE
  5
87
  8
ANKLE_-_CYLINDER
 10
14.010326864415729
 20
12.152764507749589
 30
0.0
 11
13.97932686441572
 21
12.152764507749589
 31
0.0
  0
LINE
  5
88
  8
ANKLE_-_CYLINDER
 10
12.666326864415741
 20
12.152764507749589
 30
0.0
 11
12.635326864415729
 21
12.152764507749589
 31
0.0
  0
LINE
  5
89
  8
ANKLE_-_CYLINDER
 10
12.16632686441573
 20
12.152764507749589
 30
0.0
 11
12.135326864415729
 21
12.152764507749589
 31
0.0
  0
LINE
  5
8A
  8
ANKLE_-_CYLINDER
 10
18.510326864415731
 20
10.808764507749579
 30
0.0
 11
18.385326864415731
 21
10.808764507749579
 31
0.0
  0
LINE
  5
8B
  8
ANKLE_-_CYLINDER
 10
18.354326864415722
 20
10.808764507749579
 30
0.0
 11
17.885326864415731
 21
10.80876450774959
 31
0.0
  0
LINE
  5
8C
  8
ANKLE_-_CYLINDER
 10
17.85432686441575
 20
10.80876450774959
 30
0.0
 11
17.677273969951781
 21
10.80876450774959
 31
0.0
  0
LINE
  5
8D
  8
ANKLE_-_CYLINDER
 10
12.84337975887968
 20
10.80876450774959
 30
0.0
 11
12.66632686441571
 21
10.80876450774959
 31
0.0
  0
LINE
  5
8E
  8
ANKLE_-_CYLINDER
 10
12.635326864415729
 20
10.80876450774959
 30
0.0
 11
12.16632686441573
 21
10.808764507749579
 31
0.0
  0
LINE
  5
8F
  8
ANKLE_-_CYLINDER
 10
12.135326864415729
 20
10.808764507749579
 30
0.0
 11
12.010326864415729
 21
10.808764507749579
 31
0.0
  0
LINE
  5
90
  8
ANKLE_-_CYLINDER
 10
18.385326864415731
 20
10.839764507749569
 30
0.0
 11
18.354326864415722
 21
10.83976450774958
 31
0.0
  0
LINE
  5
91
  8
ANKLE_-_CYLINDER
 10
17.885326864415731
 20
10.839764507749569
 30
0.0
 11
17.854326864415722
 21
10.83976450774958
 31
0.0
  0
LINE
  5
92
  8
ANKLE_-_CYLINDER
 10
12.666326864415741
 20
10.83976450774958
 30
0.0
 11
12.635326864415729
 21
10.83976450774958
 31
0.0
  0
LINE
  5
93
  8
ANKLE_-_CYLINDER
 10
12.16632686441573
 20
10.839764507749591
 30
0.0
 11
12.135326864415729
 21
10.83976450774958
 31
0.0
  0
LINE
  5
94
  8
ANKLE_-_CYLINDER
 10
14.010326864415729
 20
12.18376450774959
 30
0.0
 11
14.010326864415729
 21
10.921264507749591
 31
0.0
  0
LINE
  5
95
  8
ANKLE_-_CYLINDER
 10
13.97932686441572
 20
12.18376450774959
 30
0.0
 11
13.97932686441572
 21
10.921264507749591
 31
0.0
  0
LINE
  5
96
  8
ANKLE_-_CYLINDER
 10
16.510326864415731
 20
12.183764507749579
 30
0.0
 11
16.510326864415731
 21
10.921264507749591
 31
0.0
  0
LINE
  5
97
  8
ANKLE_-_CYLINDER
 10
16.54132686441573
 20
12.183764507749579
 30
0.0
 11
16.541326864415709
 21
10.921264507749591
 31
0.0
  0
LINE
  5
98
  8
ANKLE_-_CYLINDER
 10
18.885326864415731
 20
11.946264507749589
 30
0.0
 11
18.885326864415731
 21
11.0462645077496
 31
0.0
  0
LINE
  5
99
  8
ANKLE_-_CYLINDER
 10
12.010326864415729
 20
12.18376450774959
 30
0.0
 11
12.010326864415729
 21
10.80876450774959
 31
0.0
  0
LINE
  5
9A
  8
ANKLE_-_CYLINDER
 10
12.135326864415729
 20
12.18376450774959
 30
0.0
 11
12.135326864415729
 21
10.80876450774959
 31
0.0
  0
LINE
  5
9B
  8
ANKLE_-_CYLINDER
 10
12.16632686441573
 20
12.18376450774959
 30
0.0
 11
12.16632686441573
 21
10.80876450774959
 31
0.0
  0
LINE
  5
9C
  8
ANKLE_-_CYLINDER
 10
18.510326864415731
 20
12.18376450774959
 30
0.0
 11
18.510326864415731
 21
10.808764507749579
 31
0.0
  0
LINE
  5
9D
  8
ANKLE_-_CYLINDER
 10
18.385326864415731
 20
12.18376450774959
 30
0.0
 11
18.385326864415731
 21
10.808764507749579
 31
0.0
  0
LINE
  5
9E
  8
ANKLE_-_CYLINDER
 10
18.354326864415722
 20
12.18376450774959
 30
0.0
 11
18.354326864415722
 21
10.808764507749579
 31
0.0
  0
LINE
  5
9F
  8
ANKLE_-_CYLINDER
 10
18.541326864415709
 20
12.026594593639491
 30
0.0
 11
18.541326864415709
 21
10.96593442185968
 31
0.0
  0
LINE
  5
A0
  8
ANKLE_-_CYLINDER
 10
12.666326864415741
 20
12.18376450774959
 30
0.0
 11
12.66632686441571
 21
10.808764507749579
 31
0.0
  0
LINE
  5
A1
  8
ANKLE_-_CYLINDER
 10
12.635326864415729
 20
12.18376450774959
 30
0.0
 11
12.635326864415729
 21
10.808764507749579
 31
0.0
  0
LINE
  5
A2
  8
ANKLE_-_CYLINDER
 10
17.854326864415722
 20
12.183764507749579
 30
0.0
 11
17.854326864415722
 21
10.808764507749579
 31
0.0
  0
LINE
  5
A3
  8
ANKLE_-_CYLINDER
 10
17.885326864415731
 20
12.183764507749579
 30
0.0
 11
17.885326864415731
 21
10.808764507749579
 31
0.0
  0
LINE
  5
A4
  8
ANKLE_-_CYLINDER
 10
18.510326864415731
 20
12.05876450774959
 30
0.0
 11
18.885326864415731
 21
11.946264507749589
 31
0.0
  0
LINE
  5
A5
  8
ANKLE_-_CYLINDER
 10
18.510326864415731
 20
10.933764507749579
 30
0.0
 11
18.885326864415731
 21
11.046264507749591
 31
0.0
  0
LINE
  5
A6
  8
ANKLE_-_CYLINDER
 10
18.885326864415731
 20
11.90534121204843
 30
0.0
 11
18.541326864415709
 21
12.026594593639491
 31
0.0
  0
LINE
  5
A7
  8
ANKLE_-_CYLINDER
 10
18.885326864415731
 20
11.08718780345075
 30
0.0
 11
18.541326864415709
 21
10.96593442185968
 31
0.0
  0
LINE
  5
A8
  8
ANKLE_-_CYLINDER
 10
11.635326864415729
 20
11.946264507749589
 30
0.0
 11
11.635326864415729
 21
11.0462645077496
 31
0.0
  0
LINE
  5
A9
  8
ANKLE_-_CYLINDER
 10
11.97932686441575
 20
12.026594593639491
 30
0.0
 11
11.97932686441575
 21
10.96593442185968
 31
0.0
  0
LINE
  5
AA
  8
ANKLE_-_CYLINDER
 10
12.010326864415729
 20
12.05876450774959
 30
0.0
 11
11.635326864415729
 21
11.946264507749589
 31
0.0
  0
LINE
  5
AB
  8
ANKLE_-_CYLINDER
 10
12.010326864415729
 20
10.933764507749579
 30
0.0
 11
11.635326864415729
 21
11.046264507749591
 31
0.0
  0
LINE
  5
AC
  8
ANKLE_-_CYLINDER
 10
11.635326864415729
 20
11.90534121204843
 30
0.0
 11
11.97932686441575
 21
12.026594593639491
 31
0.0
  0
LINE
  5
AD
  8
ANKLE_-_CYLINDER
 10
11.635326864415729
 20
11.08718780345075
 30
0.0
 11
11.97932686441575
 21
10.96593442185968
 31
0.0
  0
CIRCLE
  5
AE
  8
ANKLE_-_CYLINDER
 10
29.607154603240389
 20
11.49626450774959
 30
0.0
 40
0.6875
  0
ARC
  5
AF
  8
ANKLE_-_CYLINDER
 10
29.607154603240389
 20
11.49626450774959
 30
0.0
 40
0.45
 50
245.37568164783599
 51
294.6243183521641
  0
ARC
  5
B0
  8
ANKLE_-_CYLINDER
 10
29.607154603240389
 20
11.49626450774959
 30
0.0
 40
0.45
 50
65.375681647835989
 51
114.624318352164
  0
CIRCLE
  5
B1
  8
ANKLE_-_CYLINDER
 10
29.607154603240389
 20
11.49626450774959
 30
0.0
 40
0.5625
  0
LINE
  5
B2
  8
ANKLE_-_CYLINDER
 10
29.419654603240389
 20
12.01672006781213
 30
0.0
 11
29.419654603240389
 21
10.97580894768705
 31
0.0
  0
LINE
  5
B3
  8
ANKLE_-_CYLINDER
 10
29.794654603240389
 20
12.01672006781213
 30
0.0
 11
29.794654603240389
 21
10.97580894768705
 31
0.0
  0
ARC
  5
B4
  8
ANKLE_-_CYLINDER
 10
29.607154603240389
 20
11.49626450774959
 30
0.0
 40
0.5532000000000111
 50
109.81212928287761
 51
250.18787071712239
  0
ARC
  5
B5
  8
ANKLE_-_CYLINDER
 10
29.607154603240389
 20
11.49626450774959
 30
0.0
 40
0.5532000000000111
 50
289.81212928287601
 51
70.187870717124056
  0
ARC
  5
B6
  8
ANKLE_-_CYLINDER_HOLDER
 10
15.260326864415729
 20
13.23831090348706
 30
0.0
 40
3.427
 50
222.54080291922841
 51
317.4591970807715
  0
LINE
  5
B8
  8
ANKLE_-_CYLINDER_HOLDER
 10
12.73532686441572
 20
10.921264507749591
 30
0.0
 11
17.78532686441574
 21
10.921264507749591
 31
0.0
  0
LINE
  5
B9
  8
ANKLE_-_CYLINDER_HOLDER
 10
29.212154603240378
 20
10.921264507749591
 30
0.0
 11
29.212154603240378
 21
9.8113109034870618
 31
0.0
  0
LINE
  5
BA
  8
ANKLE_-_CYLINDER_HOLDER
 10
30.002154603240371
 20
10.921264507749591
 30
0.0
 11
30.002154603240371
 21
9.8113109034870618
 31
0.0
  0
LINE
  5
BB
  8
ANKLE_-_CYLINDER_HOLDER
 10
29.212154603240378
 20
10.921264507749591
 30
0.0
 11
29.230284267448351
 21
10.921264507749591
 31
0.0
  0
LINE
  5
BC
  8
ANKLE_-_CYLINDER_HOLDER
 10
29.984024939032398
 20
10.921264507749591
 30
0.0
 11
30.002154603240371
 21
10.921264507749591
 31
0.0
  0
LINE
  5
BD
  8
ANKLE_-_CYLINDER_HOLDER
 10
29.212154603240378
 20
9.8113109034870618
 30
0.0
 11
30.002154603240371
 21
9.8113109034870671
 31
0.0
  0
ARC
  5
BE
  8
ANKLE_-_CYLINDER_HOLDER
 10
29.607154603240389
 20
11.49626450774959
 30
0.0
 40
0.6875
 50
236.75809746473351
 51
303.24190253526649
  0
CIRCLE
  5
BF
  8
ANKLE_-_OUTER
 10
15.260326864415729
 20
8.7962645077495907
 30
0.0
 40
0.125
  0
LINE
  5
C0
  8
ANKLE_-_LH_SIDE_DETAIL
 10
31.197154603240399
 20
10.921264507749591
 30
0.0
 11
32.422154603240386
 21
10.921264507749591
 31
0.0
  0
LINE
  5
C2
  8
ANKLE_-_LH_SIDE_DETAIL
 10
30.002154603240371
 20
12.171264507749591
 30
0.0
 11
31.485829737835189
 21
12.171264507749591
 31
0.0
  0
LINE
  5
C3
  8
ANKLE_-_LH_SIDE_DETAIL
 10
30.002154603240371
 20
13.87126450774959
 30
0.0
 11
31.252265719627928
 21
13.87126450774959
 31
0.0
  0
LINE
  5
C4
  8
ANKLE_-_LH_SIDE_DETAIL
 10
30.190154603240359
 20
13.62126450774959
 30
0.0
 11
31.065154603240391
 21
13.62126450774959
 31
0.0
  0
LINE
  5
C5
  8
ANKLE_-_LH_SIDE_DETAIL
 10
30.190154603240391
 20
13.37126450774959
 30
0.0
 11
31.065154603240391
 21
13.37126450774959
 31
0.0
  0
LINE
  5
C6
  8
ANKLE_-_LH_SIDE_DETAIL
 10
30.190154603240359
 20
14.746264507749601
 30
0.0
 11
31.065154603240359
 21
14.74626450774959
 31
0.0
  0
LINE
  5
C7
  8
ANKLE_-_LH_SIDE_DETAIL
 10
30.376181274649468
 20
14.56023783634051
 30
0.0
 11
30.879127931831281
 21
14.56023783634051
 31
0.0
  0
LINE
  5
C8
  8
ANKLE_-_LH_SIDE_DETAIL
 10
32.422154603240386
 20
10.921264507749591
 30
0.0
 11
32.422154603240386
 21
12.7512645077496
 31
0.0
  0
LINE
  5
C9
  8
ANKLE_-_LH_SIDE_DETAIL
 10
31.197154603240399
 20
10.921264507749591
 30
0.0
 11
31.197154603240399
 21
12.171264507749591
 31
0.0
  0
LINE
  5
CA
  8
ANKLE_-_LH_SIDE_DETAIL
 10
30.002154603240399
 20
12.171264507749591
 30
0.0
 11
30.002154603240371
 21
13.871264507749601
 31
0.0
  0
LINE
  5
CB
  8
ANKLE_-_LH_SIDE_DETAIL
 10
30.190154603240391
 20
13.37126450774959
 30
0.0
 11
30.190154603240391
 21
13.62126450774959
 31
0.0
  0
LINE
  5
CC
  8
ANKLE_-_LH_SIDE_DETAIL
 10
30.190154603240359
 20
13.87126450774959
 30
0.0
 11
30.190154603240359
 21
14.746264507749601
 31
0.0
  0
LINE
  5
CD
  8
ANKLE_-_LH_SIDE_DETAIL
 10
30.376181274649468
 20
13.87126450774959
 30
0.0
 11
30.376181274649468
 21
14.56023783634051
 31
0.0
  0
LINE
  5
CE
  8
ANKLE_-_LH_SIDE_DETAIL
 10
31.065154603240391
 20
13.371264507749579
 30
0.0
 11
31.065154603240391
 21
13.62126450774959
 31
0.0
  0
LINE
  5
CF
  8
ANKLE_-_LH_SIDE_DETAIL
 10
31.065154603240359
 20
13.87126450774959
 30
0.0
 11
31.065154603240359
 21
14.74626450774959
 31
0.0
  0
LINE
  5
D0
  8
ANKLE_-_LH_SIDE_DETAIL
 10
30.879127931831281
 20
13.87126450774959
 30
0.0
 11
30.879127931831281
 21
14.56023783634051
 31
0.0
  0
LINE
  5
D1
  8
ANKLE_-_LH_SIDE_DETAIL
 10
31.485829737835189
 20
10.921264507749591
 30
0.0
 11
31.485829737835189
 21
12.171264507749591
 31
0.0
  0
ARC
  5
D2
  8
ANKLE_-_LH_SIDE_DETAIL
 10
32.422154603240386
 20
13.92226450774959
 30
0.0
 40
1.171
 50
182.49616509277769
 51
270.0
  0
LINE
  5
D3
  8
ANKLE_-_LH_SIDE_DETAIL
 10
30.879127931831281
 20
14.56023783634051
 30
0.0
 11
31.065154603240359
 21
14.74626450774959
 31
0.0
  0
LINE
  5
D4
  8
ANKLE_-_LH_SIDE_DETAIL
 10
30.376181274649468
 20
14.56023783634051
 30
0.0
 11
30.190154603240359
 21
14.746264507749601
 31
0.0
  0
LINE
  5
D5
  8
ANKLE_-_LH_SIDE_DETAIL
 10
12.73532686441572
 20
13.87126450774959
 30
0.0
 11
12.23532686441572
 21
13.87126450774959
 31
0.0
  0
LINE
  5
D6
  8
ANKLE_-_LH_SIDE_DETAIL
 10
12.73532686441572
 20
12.18376450774959
 30
0.0
 11
12.73532686441572
 21
14.74626450774959
 31
0.0
  0
LINE
  5
D7
  8
ANKLE_-_LH_SIDE_DETAIL
 10
12.23532686441572
 20
12.18376450774959
 30
0.0
 11
12.23532686441572
 21
13.871264507749601
 31
0.0
  0
LINE
  5
D8
  8
ANKLE_-_LH_SIDE_DETAIL
 10
12.48532686441572
 20
13.87126450774959
 30
0.0
 11
12.48532686441572
 21
14.5602378363405
 31
0.0
  0
ARC
  5
D9
  8
ANKLE_-_LH_SIDE_DETAIL
 10
12.73532686441572
 20
14.485264507749591
 30
0.0
 40
0.261
 50
90.0
 51
163.30636385423489
  0
LINE
  5
DA
  8
ANKLE_-_LH_SIDE_DETAIL
 10
17.78532686441574
 20
13.87126450774959
 30
0.0
 11
18.285326864415762
 21
13.87126450774959
 31
0.0
  0
LINE
  5
DB
  8
ANKLE_-_LH_SIDE_DETAIL
 10
17.78532686441574
 20
12.18376450774957
 30
0.0
 11
17.78532686441574
 21
14.74626450774959
 31
0.0
  0
LINE
  5
DC
  8
ANKLE_-_LH_SIDE_DETAIL
 10
18.28532686441574
 20
12.183764507749579
 30
0.0
 11
18.28532686441574
 21
13.871264507749601
 31
0.0
  0
LINE
  5
DD
  8
ANKLE_-_LH_SIDE_DETAIL
 10
18.035326864415762
 20
13.87126450774959
 30
0.0
 11
18.03532686441574
 21
14.5602378363405
 31
0.0
  0
ARC
  5
DE
  8
ANKLE_-_LH_SIDE_DETAIL
 10
17.78532686441574
 20
14.485264507749591
 30
0.0
 40
0.261
 50
16.69363614576509
 51
90.0
  0
SOLID
  5
179
  8
DIMENSIONS
 10
18.12297526609532
 20
16.63996579394243
 30
0.0
 11
17.952276455515371
 21
16.3730747306269
 31
0.0
 12
18.027189039583281
 22
16.68090102638374
 32
0.0
 13
18.027189039583281
 23
16.68090102638374
 33
0.0
1001
ACAD
1000
DSTYLE
1002
{
1070
   147
1040
0.09375
1070
    77
1070
     0
1002
}
  0
LINE
  5
17B
  8
DIMENSIONS
 10
18.075082152839311
 20
16.66043341016308
 30
0.0
 11
18.644885280370001
 21
17.993741863197648
 31
0.0
1001
ACAD
1000
DSTYLE
1002
{
1070
   147
1040
0.09375
1070
    77
1070
     0
1002
}
  0
LINE
  5
17C
  8
DIMENSIONS
 10
18.644885280370001
 20
17.993741863197648
 30
0.0
 11
18.957385280370001
 21
17.993741863197648
 31
0.0
1001
ACAD
1000
DSTYLE
1002
{
1070
   147
1040
0.09375
1070
    77
1070
     0
1002
}
  0
TEXT
  5
17D
  8
DIMENSIONS
 10
19.051135280370001
 20
17.837491863197648
 30
0.0
 40
0.3125
  1
BRACKET
  0
SOLID
  5
17E
  8
DIMENSIONS
 10
32.637487535520478
 20
13.00413709316309
 30
0.0
 11
32.466788724940528
 21
12.737246029847549
 31
0.0
 12
32.541701309008431
 22
13.0450723256044
 32
0.0
 13
32.541701309008431
 23
13.0450723256044
 33
0.0
1001
ACAD
1000
DSTYLE
1002
{
1070
   147
1040
0.09375
1070
    77
1070
     0
1002
}
  0
LINE
  5
17F
  8
DIMENSIONS
 10
32.589594422264469
 20
13.024604709383739
 30
0.0
 11
33.159397549795159
 21
14.357913162418299
 31
0.0
1001
ACAD
1000
DSTYLE
1002
{
1070
   147
1040
0.09375
1070
    77
1070
     0
1002
}
  0
LINE
  5
180
  8
DIMENSIONS
 10
33.159397549795159
 20
14.357913162418299
 30
0.0
 11
33.471897549795159
 21
14.357913162418299
 31
0.0
1001
ACAD
1000
DSTYLE
1002
{
1070
   147
1040
0.09375
1070
    77
1070
     0
1002
}
  0
TEXT
  5
181
  8
DIMENSIONS
 10
33.565647549795159
 20
14.201663162418299
 30
0.0
 40
0.3125
  1
SIDE DETAIL
  0
SOLID
  5
182
  8
DIMENSIONS
 10
18.88037025580795
 20
12.29210701240425
 30
0.0
 11
18.709671445228
 21
12.02521594908872
 31
0.0
 12
18.7845840292959
 22
12.33304224484556
 32
0.0
 13
18.7845840292959
 23
12.33304224484556
 33
0.0
1001
ACAD
1000
DSTYLE
1002
{
1070
   147
1040
0.09375
1070
    77
1070
     0
1002
}
  0
LINE
  5
183
  8
DIMENSIONS
 10
18.832477142551941
 20
12.31257462862491
 30
0.0
 11
19.402280270082631
 21
13.64588308165947
 31
0.0
1001
ACAD
1000
DSTYLE
1002
{
1070
   147
1040
0.09375
1070
    77
1070
     0
1002
}
  0
LINE
  5
184
  8
DIMENSIONS
 10
19.402280270082631
 20
13.64588308165947
 30
0.0
 11
19.714780270082631
 21
13.64588308165947
 31
0.0
1001
ACAD
1000
DSTYLE
1002
{
1070
   147
1040
0.09375
1070
    77
1070
     0
1002
}
  0
TEXT
  5
185
  8
DIMENSIONS
 10
19.808530270082631
 20
13.48963308165947
 30
0.0
 40
0.3125
  1
CYLINDER
  0
SOLID
  5
186
  8
DIMENSIONS
 10
32.726592673803999
 20
15.674250047882319
 30
0.0
 11
32.555893863224043
 21
15.40735898456678
 31
0.0
 12
32.630806447291953
 22
15.715185280323629
 32
0.0
 13
32.630806447291953
 23
15.715185280323629
 33
0.0
1001
ACAD
1000
DSTYLE
1002
{
1070
   147
1040
0.09375
1070
    77
1070
     0
1002
}
  0
LINE
  5
187
  8
DIMENSIONS
 10
32.67869956054799
 20
15.694717664102971
 30
0.0
 11
33.24850268807868
 21
17.028026117137529
 31
0.0
1001
ACAD
1000
DSTYLE
1002
{
1070
   147
1040
0.09375
1070
    77
1070
     0
1002
}
  0
LINE
  5
188
  8
DIMENSIONS
 10
33.24850268807868
 20
17.028026117137529
 30
0.0
 11
33.56100268807868
 21
17.028026117137529
 31
0.0
1001
ACAD
1000
DSTYLE
1002
{
1070
   147
1040
0.09375
1070
    77
1070
     0
1002
}
  0
TEXT
  5
189
  8
DIMENSIONS
 10
33.654752688078673
 20
16.871776117137529
 30
0.0
 40
0.3125
  1
OUTER ANKLE
  0
LINE
  5
18A
  8
DIMENSIONS
 10
12.489826864415731
 20
16.396264507749589
 30
0.0
 11
10.357484966610031
 21
16.396264507749589
 31
0.0
  0
LINE
  5
18B
  8
DIMENSIONS
 10
15.197826864415729
 20
8.7962645077495907
 30
0.0
 11
10.357484966610031
 21
8.7962645077495907
 31
0.0
  0
LINE
  5
18C
  8
DIMENSIONS
 10
10.419984966610031
 20
16.083764507749589
 30
0.0
 11
10.419984966610031
 21
12.84626450774959
 31
0.0
  0
LINE
  5
18D
  8
DIMENSIONS
 10
10.419984966610031
 20
9.1087645077495907
 30
0.0
 11
10.419984966610031
 21
12.34626450774959
 31
0.0
  0
SOLID
  5
18E
  8
DIMENSIONS
 10
10.367901633276711
 20
16.083764507749589
 30
0.0
 11
10.47206829994334
 21
16.083764507749589
 31
0.0
 12
10.419984966610031
 22
16.396264507749589
 32
0.0
 13
10.419984966610031
 23
16.396264507749589
 33
0.0
  0
SOLID
  5
18F
  8
DIMENSIONS
 10
10.367901633276711
 20
9.1087645077495907
 30
0.0
 11
10.47206829994334
 21
9.1087645077495907
 31
0.0
 12
10.419984966610031
 22
8.7962645077495907
 32
0.0
 13
10.419984966610031
 23
8.7962645077495907
 33
0.0
  0
TEXT
  5
190
  8
DIMENSIONS
 10
9.7949849666100306
 20
12.440014507749609
 30
0.0
 40
0.3125
  1
7.600
  0
LINE
  5
191
  8
DIMENSIONS
 10
28.377154603240371
 20
16.458764507749589
 30
0.0
 11
28.377154603240371
 21
17.419313111725479
 31
0.0
  0
LINE
  5
192
  8
DIMENSIONS
 10
32.502154603240371
 20
16.458764507749589
 30
0.0
 11
32.502154603240371
 21
17.419313111725479
 31
0.0
  0
LINE
  5
193
  8
DIMENSIONS
 10
28.689654603240371
 20
17.356813111725479
 30
0.0
 11
29.750666508002269
 21
17.356813111725479
 31
0.0
  0
LINE
  5
194
  8
DIMENSIONS
 10
32.189654603240371
 20
17.356813111725479
 30
0.0
 11
31.128642698478469
 21
17.356813111725479
 31
0.0
  0
SOLID
  5
195
  8
DIMENSIONS
 10
28.689654603240371
 20
17.408896445058812
 30
0.0
 11
28.689654603240371
 21
17.30472977839214
 31
0.0
 12
28.377154603240371
 22
17.356813111725479
 32
0.0
 13
28.377154603240371
 23
17.356813111725479
 33
0.0
  0
SOLID
  5
196
  8
DIMENSIONS
 10
32.189654603240371
 20
17.408896445058812
 30
0.0
 11
32.189654603240371
 21
17.30472977839214
 31
0.0
 12
32.502154603240371
 22
17.356813111725479
 32
0.0
 13
32.502154603240371
 23
17.356813111725479
 33
0.0
  0
TEXT
  5
197
  8
DIMENSIONS
 10
29.844416508002269
 20
17.200563111725479
 30
0.0
 40
0.3125
  1
4.125
  0
LINE
  5
198
  8
DIMENSIONS
 10
17.441963942088389
 20
8.7061742065530492
 30
0.0
 11
17.754463942088389
 21
8.7061742065530492
 31
0.0
1001
ACAD
1000
DSTYLE
1002
{
1070
   147
1040
0.09375
1070
    77
1070
     0
1002
}
  0
TEXT
  5
199
  8
DIMENSIONS
 10
17.848213942088389
 20
8.5499242065530492
 30
0.0
 40
0.3125
  1
CYLINDER HOLDER
  0
SOLID
  5
19A
  8
DIMENSIONS
 10
16.920053927813711
 20
10.059950275808269
 30
0.0
 11
16.749355117233758
 21
10.326841339123799
 31
0.0
 12
16.824267701301661
 22
10.01901504336695
 32
0.0
 13
16.824267701301661
 23
10.01901504336695
 33
0.0
1001
ACAD
1000
DSTYLE
1002
{
1070
   147
1040
0.09375
1070
    77
1070
     0
1002
}
  0
LINE
  5
19B
  8
DIMENSIONS
 10
16.872160814557699
 20
10.039482659587611
 30
0.0
 11
17.441963942088389
 21
8.7061742065530492
 31
0.0
1001
ACAD
1000
DSTYLE
1002
{
1070
   147
1040
0.09375
1070
    77
1070
     0
1002
}
  0
LINE
  5
19C
  8
DIMENSIONS
 10
17.447826864415731
 20
26.136978351677389
 30
0.0
 11
17.447826864415731
 21
27.35165395673264
 31
0.0
  0
LINE
  5
19D
  8
DIMENSIONS
 10
13.072826864415759
 20
26.136978351677389
 30
0.0
 11
13.072826864415759
 21
27.35165395673264
 31
0.0
  0
LINE
  5
19E
  8
DIMENSIONS
 10
17.135326864415731
 20
27.28915395673264
 30
0.0
 11
15.979076864415729
 21
27.28915395673264
 31
0.0
  0
LINE
  5
19F
  8
DIMENSIONS
 10
13.385326864415759
 20
27.28915395673264
 30
0.0
 11
14.541576864415729
 21
27.28915395673264
 31
0.0
  0
SOLID
  5
1A0
  8
DIMENSIONS
 10
17.135326864415731
 20
27.341237290065969
 30
0.0
 11
17.135326864415731
 21
27.237070623399308
 31
0.0
 12
17.447826864415731
 22
27.28915395673264
 32
0.0
 13
17.447826864415731
 23
27.28915395673264
 33
0.0
  0
SOLID
  5
1A1
  8
DIMENSIONS
 10
13.385326864415759
 20
27.341237290065969
 30
0.0
 11
13.385326864415759
 21
27.237070623399308
 31
0.0
 12
13.072826864415759
 22
27.28915395673264
 32
0.0
 13
13.072826864415759
 23
27.28915395673264
 33
0.0
  0
TEXT
  5
1A2
  8
DIMENSIONS
 10
14.635326864415729
 20
27.13290395673264
 30
0.0
 40
0.3125
  1
4.375
  0
LINE
  5
1A3
  8
DIMENSIONS
 10
17.510326864415731
 20
26.074478351677389
 30
0.0
 11
19.692429129230359
 21
26.074478351677381
 31
0.0
  0
LINE
  5
1A4
  8
DIMENSIONS
 10
18.030826864415729
 20
26.449478351677389
 30
0.0
 11
19.692429129230359
 21
26.449478351677389
 31
0.0
  0
LINE
  5
1A5
  8
DIMENSIONS
 10
19.629929129230359
 20
25.761978351677381
 30
0.0
 11
19.629929129230359
 21
25.449478351677381
 31
0.0
  0
LINE
  5
1A6
  8
DIMENSIONS
 10
19.629929129230359
 20
26.761978351677389
 30
0.0
 11
19.629929129230359
 21
27.074478351677389
 31
0.0
  0
LINE
  5
1A7
  8
DIMENSIONS
 10
19.629929129230359
 20
27.074478351677389
 30
0.0
 11
19.942429129230359
 21
27.074478351677389
 31
0.0
  0
SOLID
  5
1A8
  8
DIMENSIONS
 10
19.577845795897051
 20
25.761978351677381
 30
0.0
 11
19.68201246256368
 21
25.761978351677381
 31
0.0
 12
19.629929129230359
 22
26.074478351677381
 32
0.0
 13
19.629929129230359
 23
26.074478351677381
 33
0.0
  0
SOLID
  5
1A9
  8
DIMENSIONS
 10
19.577845795897051
 20
26.761978351677389
 30
0.0
 11
19.68201246256368
 21
26.761978351677389
 31
0.0
 12
19.629929129230359
 22
26.449478351677389
 32
0.0
 13
19.629929129230359
 23
26.449478351677389
 33
0.0
  0
TEXT
  5
1AA
  8
DIMENSIONS
 10
20.036179129230359
 20
26.91822835167741
 30
0.0
 40
0.3125
  1
0.375
  0
LINE
  5
1AB
  8
DIMENSIONS
 10
17.510326864415731
 20
26.074478351677389
 30
0.0
 11
19.692429129230359
 21
26.074478351677381
 31
0.0
  0
LINE
  5
1AC
  8
DIMENSIONS
 10
17.510326864415699
 20
24.324478351677389
 30
0.0
 11
19.692429129230359
 21
24.324478351677381
 31
0.0
  0
LINE
  5
1AD
  8
DIMENSIONS
 10
19.629929129230359
 20
25.761978351677381
 30
0.0
 11
19.629929129230359
 21
25.449478351677381
 31
0.0
  0
LINE
  5
1AE
  8
DIMENSIONS
 10
19.629929129230359
 20
24.636978351677381
 30
0.0
 11
19.629929129230359
 21
24.949478351677381
 31
0.0
  0
SOLID
  5
1AF
  8
DIMENSIONS
 10
19.577845795897051
 20
25.761978351677381
 30
0.0
 11
19.68201246256368
 21
25.761978351677381
 31
0.0
 12
19.629929129230359
 22
26.074478351677381
 32
0.0
 13
19.629929129230359
 23
26.074478351677381
 33
0.0
  0
SOLID
  5
1B0
  8
DIMENSIONS
 10
19.577845795897051
 20
24.636978351677381
 30
0.0
 11
19.68201246256368
 21
24.636978351677381
 31
0.0
 12
19.629929129230359
 22
24.324478351677381
 32
0.0
 13
19.629929129230359
 23
24.324478351677381
 33
0.0
  0
TEXT
  5
1B1
  8
DIMENSIONS
 10
19.03469103399226
 20
25.04322835167741
 30
0.0
 40
0.3125
  1
1.750
  0
TEXT
  5
1B2
  8
DIMENSIONS
 10
14.035215456637729
 20
25.45450618844022
 30
0.0
 40
0.3125
  1
OUTER LEG
  0
TEXT
  5
1B3
  8
DIMENSIONS
 10
14.343843899016569
 20
24.906458015051559
 30
0.0
 40
0.3125
  1
OUTLINE
  0
CIRCLE
  5
1B4
  8
ANKLE_-_BRACKET
  6
PHANTOM2
 10
15.260326864415729
 20
23.199478351677381
 30
0.0
 40
0.375
  0
LINE
  5
1B5
  8
DIMENSIONS
 10
12.489826864415731
 20
26.449478351677389
 30
0.0
 11
10.725092527947391
 21
26.449478351677389
 31
0.0
  0
LINE
  5
1B6
  8
DIMENSIONS
 10
15.260326864415729
 20
23.199478351677381
 30
0.0
 11
10.725092527947391
 21
23.199478351677381
 31
0.0
  0
LINE
  5
1B7
  8
DIMENSIONS
 10
10.787592527947391
 20
26.136978351677389
 30
0.0
 11
10.787592527947391
 21
25.074478351677381
 31
0.0
  0
LINE
  5
1B8
  8
DIMENSIONS
 10
10.787592527947391
 20
23.511978351677381
 30
0.0
 11
10.787592527947391
 21
24.574478351677389
 31
0.0
  0
SOLID
  5
1B9
  8
DIMENSIONS
 10
10.73550919461408
 20
26.136978351677389
 30
0.0
 11
10.83967586128071
 21
26.136978351677389
 31
0.0
 12
10.787592527947391
 22
26.449478351677389
 32
0.0
 13
10.787592527947391
 23
26.449478351677389
 33
0.0
  0
SOLID
  5
1BA
  8
DIMENSIONS
 10
10.73550919461408
 20
23.511978351677381
 30
0.0
 11
10.83967586128071
 21
23.511978351677381
 31
0.0
 12
10.787592527947391
 22
23.199478351677381
 32
0.0
 13
10.787592527947391
 23
23.199478351677381
 33
0.0
  0
TEXT
  5
1BB
  8
DIMENSIONS
 10
10.162592527947391
 20
24.66822835167741
 30
0.0
 40
0.3125
  1
3.250
  0
LINE
  5
1BC
  8
DIMENSIONS
 10
14.885326864415729
 20
23.136978351677381
 30
0.0
 11
14.885326864415729
 21
21.33220995683153
 31
0.0
  0
LINE
  5
1BD
  8
DIMENSIONS
 10
15.635326864415729
 20
23.136978351677381
 30
0.0
 11
15.635326864415729
 21
21.33220995683153
 31
0.0
  0
LINE
  5
1BE
  8
DIMENSIONS
 10
14.572826864415729
 20
21.39470995683153
 30
0.0
 11
14.260326864415729
 21
21.39470995683153
 31
0.0
  0
LINE
  5
1BF
  8
DIMENSIONS
 10
15.947826864415729
 20
21.39470995683153
 30
0.0
 11
16.260326864415731
 21
21.39470995683153
 31
0.0
  0
SOLID
  5
1C0
  8
DIMENSIONS
 10
14.572826864415729
 20
21.446793290164859
 30
0.0
 11
14.572826864415729
 21
21.342626623498191
 31
0.0
 12
14.885326864415729
 22
21.39470995683153
 32
0.0
 13
14.885326864415729
 23
21.39470995683153
 33
0.0
  0
SOLID
  5
1C1
  8
DIMENSIONS
 10
15.947826864415729
 20
21.446793290164859
 30
0.0
 11
15.947826864415729
 21
21.342626623498191
 31
0.0
 12
15.635326864415729
 22
21.39470995683153
 32
0.0
 13
15.635326864415729
 23
21.39470995683153
 33
0.0
  0
TEXT
  5
1C2
  8
DIMENSIONS
 10
16.354076864415731
 20
21.23845995683153
 30
0.0
 40
0.3125
  1
0.750 LEG STRUT SHAFT OUTLINE
  0
LINE
  5
1C3
  8
ANKLE_-_WEDGE
 10
30.002154603240371
 20
12.17126450774958
 30
0.0
 11
30.002154603240371
 21
12.058964472206689
 31
0.0
  0
LINE
  5
1C5
  8
ANKLE_-_WEDGE
 10
30.002154603240371
 20
12.17126450774958
 30
0.0
 11
29.314154603240411
 21
13.15383033638815
 31
0.0
  0
LINE
  5
1C6
  8
ANKLE_-_WEDGE
 10
29.314154603240411
 20
13.15383033638815
 30
0.0
 11
28.98215460324036
 21
11.782675488684269
 31
0.0
  0
ARC
  5
1C7
  8
ANKLE_-_WEDGE
 10
29.607154603240389
 20
11.49626450774959
 30
0.0
 40
0.6875
 50
54.93219368802135
 51
155.38002267134181
  0
LINE
  5
1C8
  8
ANKLE_-_WEDGE
 10
16.22932686441575
 20
13.15383033638815
 30
0.0
 11
14.291326864415741
 21
13.15383033638815
 31
0.0
  0
LINE
  5
1C9
  8
ANKLE_-_WEDGE
 10
16.385326864415759
 20
11.782675488684269
 30
0.0
 11
14.135326864415701
 21
11.782675488684269
 31
0.0
  0
LINE
  5
1CA
  8
ANKLE_-_WEDGE
 10
14.135326864415701
 20
11.782675488684269
 30
0.0
 11
14.291326864415741
 21
13.15383033638815
 31
0.0
  0
LINE
  5
1CB
  8
ANKLE_-_WEDGE
 10
16.385326864415759
 20
11.782675488684269
 30
0.0
 11
16.229326864415722
 21
13.15383033638815
 31
0.0
  0
SOLID
  5
1CC
  8
DIMENSIONS
 10
28.9919797530026
 20
12.844307328663669
 30
0.0
 11
29.194470304466531
 21
12.600654911932491
 31
0.0
 12
28.92390278279052
 22
12.76546431647369
 32
0.0
 13
28.92390278279052
 23
12.76546431647369
 33
0.0
1001
ACAD
1000
DSTYLE
1002
{
1070
   147
1040
0.09375
1070
    77
1070
     0
1002
}
  0
LINE
  5
1CD
  8
DIMENSIONS
 10
28.95794126789653
 20
12.80488582256868
 30
0.0
 11
28.23929351515639
 21
13.425401963407751
 31
0.0
1001
ACAD
1000
DSTYLE
1002
{
1070
   147
1040
0.09375
1070
    77
1070
     0
1002
}
  0
LINE
  5
1CE
  8
DIMENSIONS
 10
27.92679351515639
 20
13.425401963407751
 30
0.0
 11
28.23929351515639
 21
13.425401963407751
 31
0.0
1001
ACAD
1000
DSTYLE
1002
{
1070
   147
1040
0.09375
1070
    77
1070
     0
1002
}
  0
TEXT
  5
1CF
  8
DIMENSIONS
 10
26.33978996259216
 20
13.286975071569
 30
0.0
 40
0.3125
  1
WEDGE
  0
LINE
  5
1D0
  8
DIMENSIONS
 10
28.314654603240371
 20
16.396264507749581
 30
0.0
 11
25.390221212252779
 21
16.396264507749581
 31
0.0
  0
LINE
  5
1D1
  8
DIMENSIONS
 10
29.544654603240389
 20
11.49626450774959
 30
0.0
 11
25.390221212252779
 21
11.49626450774959
 31
0.0
  0
LINE
  5
1D2
  8
DIMENSIONS
 10
25.452721212252779
 20
16.083764507749581
 30
0.0
 11
25.452721212252779
 21
14.901378134602989
 31
0.0
  0
LINE
  5
1D3
  8
DIMENSIONS
 10
25.452721212252779
 20
11.80876450774959
 30
0.0
 11
25.452721212252779
 21
14.401378134602989
 31
0.0
  0
SOLID
  5
1D4
  8
DIMENSIONS
 10
25.400637878919468
 20
16.083764507749581
 30
0.0
 11
25.504804545586101
 21
16.083764507749581
 31
0.0
 12
25.452721212252779
 22
16.396264507749581
 32
0.0
 13
25.452721212252779
 23
16.396264507749581
 33
0.0
  0
SOLID
  5
1D5
  8
DIMENSIONS
 10
25.400637878919468
 20
11.80876450774959
 30
0.0
 11
25.504804545586101
 21
11.80876450774959
 31
0.0
 12
25.452721212252779
 22
11.49626450774959
 32
0.0
 13
25.452721212252779
 23
11.49626450774959
 33
0.0
  0
TEXT
  5
1D6
  8
DIMENSIONS
 10
24.827721212252779
 20
14.495128134603011
 30
0.0
 40
0.3125
  1
4.900
  0
LINE
  5
1D7
  8
ANKLE_-_OUTER
 10
14.322826864415729
 20
13.23616216532527
 30
0.0
 11
14.322826864415759
 21
13.44095017639753
 31
0.0
  0
LINE
  5
1D8
  8
ANKLE_-_OUTER
 10
16.197826864415699
 20
13.23616216532527
 30
0.0
 11
16.197826864415759
 21
13.44095017639753
 31
0.0
  0
LINE
  5
1D9
  8
ANKLE_-_OUTER
 10
16.197826864415759
 20
13.44095017639753
 30
0.0
 11
14.322826864415759
 21
13.44095017639753
 31
0.0
  0
LINE
  5
1DA
  8
ANKLE_-_OUTER
 10
16.197826864415731
 20
13.23616216532527
 30
0.0
 11
14.322826864415729
 21
13.23616216532527
 31
0.0
  0
TEXT
  5
5A0
  8
0
  6
CONTINUOUS
 10
89.158473459853099
 20
22.92699837595363
 30
0.0
 40
0.12
  1
 
 51
7.0
  0
TEXT
  5
5A1
  8
0
  6
CONTINUOUS
 10
101.602570225333
 20
29.98987280568528
 30
0.0
 40
0.24
  1
 
 51
7.0
  0
TEXT
  5
5A2
  8
0
  6
CONTINUOUS
 10
110.8123352372462
 20
29.6698628191082
 30
0.0
 40
0.24
  1
 
 51
7.0
  0
TEXT
  5
5A3
  8
0
  6
CONTINUOUS
 10
120.6162947216789
 20
12.807282019580869
 30
0.0
 40
0.24
  1
 
 51
7.0
  0
LINE
  5
5BA
  8
FORM
 10
43.041208788750033
 20
1.2738095237500171
 30
0.0
 11
43.041208788750033
 21
30.47619047625
 31
0.0
  0
LINE
  5
5BB
  8
FORM
 10
42.726190473750037
 20
30.79120879125
 30
0.0
 11
1.2738095237500311
 21
30.79120879125
 31
0.0
  0
LINE
  5
5BC
  8
FORM
 10
42.726190473750037
 20
0.9587912087500357
 30
0.0
 11
1.2738095237500311
 21
0.9587912087500178
 31
0.0
  0
LINE
  5
5BD
  8
FORM
 10
0.9587912087500569
 20
1.2738095237500171
 30
0.0
 11
0.9587912087500569
 21
30.47619047625
 31
0.0
  0
TEXT
  5
5BE
  8
FORM
 10
37.037548868312648
 20
5.206275420631246
 30
0.0
 40
0.5334392170019531
  1
ASSEMBLY
 72
     1
 11
39.056997332677192
 21
5.206275420631246
 31
0.0
  0
TEXT
  5
5BF
  8
FORM
 10
36.313595645238571
 20
4.0776460783213357
 30
0.0
 40
0.5334392170019531
  1
OUTER ANKLE
 72
     1
 11
39.056997332677192
 21
4.0776460783213357
 31
0.0
  0
TEXT
  5
5C0
  8
FORM
 10
33.49885480611826
 20
2.0268467705730191
 30
0.0
 40
0.5334392170019531
  1
ASTROMECH DROID
  0
TEXT
  5
5C1
  8
FORM
 10
41.921886517477049
 20
2.0475849221067111
 30
0.0
 40
0.5334392170019531
  1
A
  0
TEXT
  5
5C2
  8
FORM
 10
34.544847194814992
 20
1.4041843246072041
 30
0.0
 40
0.2133756868007812
  1
FULL
  0
TEXT
  5
5C3
  8
FORM
 10
41.38147923468091
 20
1.4101568300009391
 30
0.0
 40
0.2133756868007812
  1
1   1
  0
TEXT
  5
5C4
  8
FORM
 10
37.847479070745841
 20
1.4266399292710359
 30
0.0
 40
0.2133756868007812
  1
APRIL 2005
 72
     2
 11
39.696735023019272
 21
1.4266399292710359
 31
0.0
  0
TEXT
  5
5C5
  8
FORM
  6
CONTINUOUS
 10
36.314742892209921
 20
1.4244931442114459
 30
0.0
 40
0.184356593395875
  1
DRAWN:
  0
TEXT
  5
5C6
  8
FORM
  6
CONTINUOUS
 10
33.461092438516573
 20
1.424666026206864
 30
0.0
 40
0.184356593395875
  1
SCALE:
  0
TEXT
  5
5C7
  8
FORM
  6
CONTINUOUS
 10
40.203435321383573
 20
1.422355711558928
 30
0.0
 40
0.184356593395875
  1
SHEET:   OF
  0
TEXT
  5
5C8
  8
FORM
  6
CONTINUOUS
 10
33.124433620069567
 20
2.8869297159639369
 30
0.0
 40
0.184356593395875
  1
DRAWING NO.
  0
TEXT
  5
5C9
  8
FORM
  6
CONTINUOUS
 10
41.850448103669237
 20
2.886929715963916
 30
0.0
 40
0.184356593395875
  1
REV.
 72
     1
 11
42.12259355106314
 21
2.886929715963916
 31
0.0
  0
LINE
  5
5CA
  8
FORM
  6
CONTINUOUS
 10
33.416182507258391
 20
6.6201507322303881
 30
0.0
 11
42.265298990260362
 21
6.6201507322303881
 31
0.0
  0
LINE
  5
5CB
  8
FORM
  6
CONTINUOUS
 10
32.955291023768702
 20
1.7347010072396991
 30
0.0
 11
32.955291023768673
 21
6.1592592487406881
 31
0.0
  0
LINE
  5
5CC
  8
FORM
  6
CONTINUOUS
 10
32.955291023768702
 20
3.1634646060577292
 30
0.0
 11
42.726190473750037
 21
3.1634646060577292
 31
0.0
  0
LINE
  5
5CD
  8
FORM
  6
CONTINUOUS
 10
32.955291023768702
 20
1.7347010072396991
 30
0.0
 11
42.726190473750037
 21
1.7347010072396991
 31
0.0
  0
LINE
  5
5CE
  8
FORM
  6
CONTINUOUS
 10
36.026467742539118
 20
1.7347010072396991
 30
0.0
 11
36.026467742539118
 21
1.2738095237500171
 31
0.0
  0
LINE
  5
5CF
  8
FORM
  6
CONTINUOUS
 10
40.065167876336659
 20
1.729027325745029
 30
0.0
 11
40.065167876336659
 21
1.2681358422553499
 31
0.0
  0
LINE
  5
5D0
  8
FORM
  6
CONTINUOUS
 10
41.508364231032488
 20
3.1634646060577292
 30
0.0
 11
41.508364231032488
 21
1.7347010072396991
 31
0.0
  0
ARC
  5
5D1
  8
FORM
 62
     5
 10
33.87147454402632
 20
5.2321095419160519
 30
0.0
 40
0.0502653185952511
 50
152.18113099770551
 51
330.99098814993278
  0
ARC
  5
5D2
  8
FORM
 62
     5
 10
34.089053834359703
 20
5.6511194128146256
 30
0.0
 40
0.0440746975210158
 50
335.32315363464198
 51
152.6722492633038
  0
ARC
  5
5D3
  8
FORM
 62
     5
 10
37.446185313816841
 20
3.5831642172472651
 30
0.0
 40
3.9868910433295368
 50
148.41494327216151
 51
155.19852313243231
  0
ARC
  5
5D4
  8
FORM
 62
     5
 10
38.217878471693133
 20
3.3107972970714812
 30
0.0
 40
4.7020631235383759
 50
150.40875710206339
 51
156.20744757951141
  0
ARC
  5
5D5
  8
FORM
 62
     7
 10
33.729336717812117
 20
4.809826363179055
 30
0.0
 40
0.0671652552709891
 50
161.128725237971
 51
346.89295927401372
  0
ARC
  5
5D6
  8
FORM
 62
     7
 10
53.367628910278228
 20
-3.6725418745125959
 30
0.0
 40
21.325803943529628
 50
153.58307292081321
 51
156.60691138966209
  0
ARC
  5
5D7
  8
FORM
 62
     7
 10
50.287568040148528
 20
-2.5644941525072609
 30
0.0
 40
18.16984879940825
 50
152.34095999775931
 51
152.9694116127464
  0
ARC
  5
5D8
  8
FORM
 62
     7
 10
50.4912451127324
 20
-3.156319562177472
 30
0.0
 40
18.62531302696754
 50
153.3711283527573
 51
154.6040219565534
  0
ARC
  5
5D9
  8
FORM
 62
     7
 10
34.698291427850847
 20
5.5948289454909697
 30
0.0
 40
0.4829018868449606
 50
23.46872592819097
 51
88.151617587883351
  0
ARC
  5
5DA
  8
FORM
 62
     7
 10
34.709083940719118
 20
5.6259614939592311
 30
0.0
 40
0.5699591598814008
 50
18.23262529566556
 51
154.63608874642691
  0
ARC
  5
5DB
  8
FORM
 62
     7
 10
34.879850029644359
 20
5.6853693813860771
 30
0.0
 40
0.3891907917568549
 50
336.99722732837881
 51
341.11190659806482
  0
ARC
  5
5DC
  8
FORM
 62
     7
 10
34.902997868184677
 20
5.7025814422175776
 30
0.0
 40
0.254907880192607
 50
333.24704424527522
 51
339.12675173356178
  0
ARC
  5
5DD
  8
FORM
 62
     7
 10
35.144104528932502
 20
5.5822157374328816
 30
0.0
 40
0.0146095491322771
 50
157.37475902115841
 51
243.18317341424029
  0
ARC
  5
5DE
  8
FORM
 62
     7
 10
35.230394320055893
 20
5.5355566237182643
 30
0.0
 40
0.0080289822227516
 50
246.7423667985764
 51
343.55073793579641
  0
ARC
  5
5DF
  8
FORM
 62
     7
 10
35.483045306224852
 20
6.206619545503723
 30
0.0
 40
0.7250687320987334
 50
241.5396617947477
 51
249.33988332022491
  0
ARC
  5
5E0
  8
FORM
 62
     7
 10
34.9761916897763
 20
5.437699301377072
 30
0.0
 40
0.1431349662916394
 50
210.28645373052609
 51
287.25915125833183
  0
ARC
  5
5E1
  8
FORM
 62
     7
 10
34.988490180963971
 20
5.3758026207478622
 30
0.0
 40
0.0806485752183996
 50
291.96730232828992
 51
10.20108836223371
  0
ARC
  5
5E2
  8
FORM
 62
     7
 10
34.351109148169911
 20
5.2378626299468207
 30
0.0
 40
0.5174748205137182
 50
14.28109924276106
 51
24.94726153987823
  0
ARC
  5
5E3
  8
FORM
 62
     7
 10
34.652931196600349
 20
5.3946009655135461
 30
0.0
 40
0.1783202582618736
 50
20.183063788867571
 51
47.833846572520187
  0
ARC
  5
5E4
  8
FORM
 62
     7
 10
34.68626748438794
 20
5.3042778782011162
 30
0.0
 40
0.2386691757260289
 50
68.784960310907422
 51
94.742087985452599
  0
ARC
  5
5E5
  8
FORM
 62
     7
 10
34.683670685861422
 20
5.4453282315651172
 30
0.0
 40
0.0983065334463515
 50
100.0375073429591
 51
170.98475346238999
  0
ARC
  5
5E6
  8
FORM
 62
     7
 10
35.146068355737611
 20
5.3773748188028661
 30
0.0
 40
0.5656654008735983
 50
171.52589863719891
 51
197.494741096675
  0
ARC
  5
5E7
  8
FORM
 62
     7
 10
34.765023896344701
 20
5.3853778011441547
 30
0.0
 40
0.3028765796636133
 50
0.8906501289531732
 51
49.113860192417143
  0
ARC
  5
5E8
  8
FORM
 62
     7
 10
34.70121788145687
 20
5.440931581139246
 30
0.0
 40
0.2383845564631639
 50
99.869748807366761
 51
175.59516845025641
  0
ARC
  5
5E9
  8
FORM
 62
     7
 10
34.74420142096708
 20
5.3116713199521888
 30
0.0
 40
0.373645463646239
 50
54.104282451028212
 51
102.9674010870567
  0
ARC
  5
5EA
  8
FORM
 62
     7
 10
35.798737905561808
 20
5.5339824388112886
 30
0.0
 40
1.236112335596137
 50
195.32307896217739
 51
209.29084315695809
  0
ARC
  5
5EB
  8
FORM
 62
     7
 10
35.409798509503133
 20
5.3313058202242232
 30
0.0
 40
0.9548702630443076
 50
172.3003020759547
 51
200.12627387409299
  0
ARC
  5
5EC
  8
FORM
 62
     7
 10
36.092512265563222
 20
5.5978118396088368
 30
0.0
 40
1.6876668147324001
 50
200.64629086238159
 51
210.04649609044409
  0
ARC
  5
5ED
  8
FORM
 62
     7
 10
33.767672563649661
 20
4.2896718057212553
 30
0.0
 40
1.147702755465478
 50
28.43194910738443
 51
33.865461133002469
  0
ARC
  5
5EE
  8
FORM
 62
     7
 10
34.710340361681631
 20
4.7838977609262834
 30
0.0
 40
0.0846287925897855
 50
201.5644604264042
 51
38.094090168146302
  0
ARC
  5
5EF
  8
FORM
 62
     5
 10
35.454047505527257
 20
5.486987961477829
 30
0.0
 40
0.0470753373534298
 50
227.6202696593605
 51
57.41211292120402
  0
ARC
  5
5F0
  8
FORM
 62
     5
 10
34.898862200054367
 20
4.7627373277749214
 30
0.0
 40
0.9594749055071699
 50
52.766851639305919
 51
65.063571515457895
  0
ARC
  5
5F1
  8
FORM
 62
     5
 10
34.452241791275902
 20
4.0702703323560518
 30
0.0
 40
1.6884350682882729
 50
54.932512589538803
 51
74.152868438598929
  0
ARC
  5
5F2
  8
FORM
 62
     5
 10
34.476586052909433
 20
3.568319054466826
 30
0.0
 40
2.1706024175541438
 50
78.393012355262385
 51
89.647961077025343
  0
ARC
  5
5F3
  8
FORM
 62
     5
 10
34.486274868053272
 20
5.8018806593051897
 30
0.0
 40
0.0631056771236446
 50
183.9979944211656
 51
273.313807745882
  0
ARC
  5
5F4
  8
FORM
 62
     5
 10
34.69925842788092
 20
5.818551646751942
 30
0.0
 40
0.2767389970018709
 50
145.6085916691928
 51
184.36670732083459
  0
ARC
  5
5F5
  8
FORM
 62
     5
 10
34.528989583128613
 20
5.938129286098885
 30
0.0
 40
0.0687363070342985
 50
75.244714174009715
 51
147.6929850116162
  0
ARC
  5
5F6
  8
FORM
 62
     5
 10
33.709635982728827
 20
2.7936800480859851
 30
0.0
 40
3.3181823868519218
 50
61.63724224152525
 51
75.392005557716686
  0
ARC
  5
5F7
  8
FORM
 62
     5
 10
35.223247228975197
 20
5.6577302519658508
 30
0.0
 40
0.0839396329354631
 50
342.69825742684009
 51
41.67278378767756
  0
ARC
  5
5F8
  8
FORM
 62
     7
 10
34.879850029644359
 20
5.6853693813860771
 30
0.0
 40
0.3891907917568549
 50
5.6380312699922861
 51
17.791456368736871
  0
ARC
  5
5F9
  8
FORM
 62
     7
 10
35.056960777687777
 20
3.851378580987717
 30
0.0
 40
0.12453779538235
 50
88.432533024773406
 51
186.62631613112151
  0
ARC
  5
5FA
  8
FORM
 62
     7
 10
35.076506660735483
 20
3.8773458445585289
 30
0.0
 40
0.1488228018527408
 50
195.7266305128272
 51
285.3806868435185
  0
ARC
  5
5FB
  8
FORM
 62
     7
 10
34.901004024005353
 20
5.1943718606735914
 30
0.0
 40
1.4762551210247881
 50
278.37329371359459
 51
293.15208507016871
  0
ARC
  5
5FC
  8
FORM
 62
     7
 10
35.396287821393123
 20
4.2652099364179641
 30
0.0
 40
0.3044715687368376
 50
257.51805604168283
 51
277.23103351305667
  0
ARC
  5
5FD
  8
FORM
 62
     7
 10
35.413358675393567
 20
4.0150829003075179
 30
0.0
 40
0.0561042920902449
 50
292.26031345923337
 51
12.86737930052367
  0
ARC
  5
5FE
  8
FORM
 62
     7
 10
35.371642472469631
 20
4.0070394983254651
 30
0.0
 40
0.0985747940549809
 50
12.0253755273956
 51
52.143631645159317
  0
ARC
  5
5FF
  8
FORM
 62
     7
 10
37.473498217784197
 20
6.5612572579000981
 30
0.0
 40
3.209307639712156
 50
219.60277928185971
 51
230.5002020408055
  0
ARC
  5
600
  8
FORM
 62
     7
 10
35.492352051740113
 20
4.9001252642901667
 30
0.0
 40
0.6241927637443375
 50
175.97523115435061
 51
218.04500009534149
  0
ARC
  5
601
  8
FORM
 62
     7
 10
35.227786425660071
 20
4.9628053673500361
 30
0.0
 40
0.3585845725200827
 50
149.96078860476399
 51
183.01641230856191
  0
ARC
  5
602
  8
FORM
 62
     7
 10
34.977287653388522
 20
5.1103132875677204
 30
0.0
 40
0.0679295281984907
 50
69.764209445538683
 51
151.89881904551129
  0
ARC
  5
603
  8
FORM
 62
     7
 10
34.969273382641433
 20
5.1056960066620496
 30
0.0
 40
0.0752672049169095
 50
357.6694469744499
 51
65.251102439515421
  0
ARC
  5
604
  8
FORM
 62
     7
 10
34.791927087049523
 20
5.0911418605530789
 30
0.0
 40
0.2528126373579358
 50
345.36193237678458
 51
2.6056939300727819
  0
ARC
  5
605
  8
FORM
 62
     7
 10
35.602090445328571
 20
4.8523853508412031
 30
0.0
 40
0.5919738308518
 50
162.81861830880729
 51
185.35496664157321
  0
ARC
  5
606
  8
FORM
 62
     7
 10
35.536094847929149
 20
4.9117694628322139
 30
0.0
 40
0.5358004355611984
 50
192.3534994193023
 51
222.3020476696031
  0
ARC
  5
607
  8
FORM
 62
     7
 10
37.381905568116622
 20
6.3998094049418546
 30
0.0
 40
2.905942571467353
 50
219.50633019139821
 51
228.42762303996261
  0
ARC
  5
608
  8
FORM
 62
     7
 10
35.140069253353403
 20
3.7985267963051679
 30
0.0
 40
0.5299960685152594
 50
32.971129457978869
 51
53.728419363024372
  0
ARC
  5
609
  8
FORM
 62
     7
 10
35.427463202400332
 20
4.005618684982891
 30
0.0
 40
0.1770362522386045
 50
287.74749415951351
 51
27.352111896629431
  0
ARC
  5
60A
  8
FORM
 62
     7
 10
35.16259474257626
 20
2.8543408356064179
 30
0.0
 40
1.126178313661536
 50
81.426570944510217
 51
95.208118001959775
  0
ARC
  5
60B
  8
FORM
 62
     7
 10
34.676472279440532
 20
4.609856792041171
 30
0.0
 40
0.0501357382491115
 50
325.52447187114319
 51
75.340502228459755
  0
ARC
  5
60C
  8
FORM
 62
     7
 10
34.614701276196087
 20
4.6552100511053531
 30
0.0
 40
0.1267533236926462
 50
277.78730616127859
 51
324.42957968808531
  0
ARC
  5
60D
  8
FORM
 62
     7
 10
34.592284758986892
 20
4.6762898657927741
 30
0.0
 40
0.1519139349688822
 50
243.48581874200181
 51
285.1065744639306
  0
ARC
  5
60E
  8
FORM
 62
     7
 10
27.8731096997513
 20
-12.4932993511666
 30
0.0
 40
18.45638048052642
 50
68.327181839257534
 51
70.606105230637283
  0
ARC
  5
60F
  8
FORM
 62
     7
 10
33.988713934221749
 20
4.8617714816310453
 30
0.0
 40
0.055607435478502
 50
76.445232091872313
 51
134.36352227876461
  0
ARC
  5
610
  8
FORM
 62
     7
 10
34.23594587733399
 20
4.4813881185518483
 30
0.0
 40
0.5083077403466757
 50
124.2547762008316
 51
135.012931962436
  0
ARC
  5
611
  8
FORM
 62
     7
 10
33.885979744632088
 20
4.8245660322519264
 30
0.0
 40
0.0187748724828842
 50
120.5491196217084
 51
251.48388650457539
  0
ARC
  5
612
  8
FORM
 62
     7
 10
31.35955469354608
 20
-2.20296417031589
 30
0.0
 40
7.4490944355826798
 50
64.85742894317822
 51
67.515132469299331
  0
ARC
  5
613
  8
FORM
 62
     7
 10
34.507034475662408
 20
4.4308185510845446
 30
0.0
 40
0.0703300633564829
 50
329.18566117941782
 51
69.52715124986382
  0
ARC
  5
614
  8
FORM
 62
     7
 10
34.322528644875717
 20
4.1521399941366823
 30
0.0
 40
0.403051872176304
 50
58.747973844557542
 51
81.106226592028094
  0
ARC
  5
615
  8
FORM
 62
     7
 10
34.279653491663879
 20
3.8849497208938919
 30
0.0
 40
0.673659077744691
 50
81.016817915507374
 51
97.679603827268224
  0
ARC
  5
616
  8
FORM
 62
     7
 10
34.350555487554203
 20
4.0873869344785581
 30
0.0
 40
0.4997006452258542
 50
121.5050128230593
 51
139.09578810607039
  0
ARC
  5
617
  8
FORM
 62
     7
 10
34.486213611380663
 20
4.4200913009569014
 30
0.0
 40
0.0850716575372725
 50
277.70569210516868
 51
342.69880024124109
  0
ARC
  5
618
  8
FORM
 62
     7
 10
34.46010433022056
 20
4.5160817648663851
 30
0.0
 40
0.184155782182425
 50
250.08394506358289
 51
281.75453717228322
  0
ARC
  5
619
  8
FORM
 62
     7
 10
34.52027170146647
 20
4.5372247072865122
 30
0.0
 40
0.2298928288403392
 50
221.18187885427241
 51
237.68378775985289
  0
ARC
  5
61A
  8
FORM
 62
     7
 10
34.250649510747913
 20
4.2707129138400566
 30
0.0
 40
0.1502941988903953
 50
50.003848755011681
 51
75.5416830098399
  0
ARC
  5
61B
  8
FORM
 62
     7
 10
34.242700079187699
 20
4.3251886965059541
 30
0.0
 40
0.101781928913435
 50
63.4626603498468
 51
100.74200229027051
  0
ARC
  5
61C
  8
FORM
 62
     7
 10
34.223729261234951
 20
4.2529656105913531
 30
0.0
 40
0.1722214314986379
 50
89.999999999999588
 51
125.5974615489027
  0
ARC
  5
61D
  8
FORM
 62
     7
 10
36.266687671707359
 20
5.4819654875490791
 30
0.0
 40
2.382967543868022
 50
197.51922498184919
 51
203.981481444731
  0
ARC
  5
61E
  8
FORM
 62
     7
 10
33.485249637949607
 20
4.721360124868851
 30
0.0
 40
0.7243225282346643
 50
346.52409876011302
 51
356.71498770316703
  0
ARC
  5
61F
  8
FORM
 62
     7
 10
31.35955469354608
 20
-2.20296417031589
 30
0.0
 40
7.4490944355826798
 50
69.286600818944066
 51
70.22311760076802
  0
ARC
  5
620
  8
FORM
 62
     7
 10
33.876169922815478
 20
4.0909024975958621
 30
0.0
 40
0.2184269840063441
 50
245.40259669902051
 51
275.40975098180542
  0
ARC
  5
621
  8
FORM
 62
     7
 10
34.642070270288428
 20
3.6967673023805361
 30
0.0
 40
0.8681469610074701
 50
126.68044463040199
 51
139.78708822539889
  0
ARC
  5
622
  8
FORM
 62
     7
 10
33.872083832704959
 20
4.7053139576373191
 30
0.0
 40
0.832231548816698
 50
271.69929119420118
 51
283.39540842056908
  0
ARC
  5
623
  8
FORM
 62
     7
 10
35.428271851831568
 20
2.78470176044189
 30
0.0
 40
2.0660410796836941
 50
134.5410403491789
 51
138.91474429089911
  0
ARC
  5
624
  8
FORM
 62
     7
 10
33.906328645442898
 20
4.1130944325259122
 30
0.0
 40
0.0546567449796842
 50
201.8252958964795
 51
267.16449786715452
  0
ARC
  5
625
  8
FORM
 62
     7
 10
33.894562313202023
 20
4.107909022344443
 30
0.0
 40
0.0418082902229875
 50
124.254854327418
 51
201.22329273937871
  0
ARC
  5
626
  8
FORM
 62
     7
 10
34.021864770200096
 20
4.0738934856997728
 30
0.0
 40
0.1832903804675856
 50
283.5751770312794
 51
324.58969283639942
  0
ARC
  5
627
  8
FORM
 62
     7
 10
34.126398977664167
 20
3.986597707801109
 30
0.0
 40
0.0486742756789315
 50
337.14160324238748
 51
47.564966708928338
  0
ARC
  5
628
  8
FORM
 62
     7
 10
34.051479433347943
 20
3.879563609001575
 30
0.0
 40
0.1790243893656499
 50
52.990730681111621
 51
91.748895977531333
  0
ARC
  5
629
  8
FORM
 62
     7
 10
33.97482029636015
 20
4.5445147233887013
 30
0.0
 40
0.4911971362770459
 50
261.66603807207321
 51
278.33396192792679
  0
ARC
  5
62A
  8
FORM
 62
     7
 10
33.827351328547081
 20
3.9976720327520212
 30
0.0
 40
0.1134738832821913
 50
192.64550774538381
 51
248.2223967256862
  0
ARC
  5
62B
  8
FORM
 62
     7
 10
33.799462642063048
 20
4.0105271566674361
 30
0.0
 40
0.0910070849768819
 50
178.88427582775449
 51
204.46998391858139
  0
ARC
  5
62C
  8
FORM
 62
     7
 10
34.024590384061071
 20
3.9875275917867858
 30
0.0
 40
0.3170866660790294
 50
140.54690015149379
 51
175.51933831911609
  0
ARC
  5
62D
  8
FORM
 62
     7
 10
37.147786536650841
 20
1.5008787794887259
 30
0.0
 40
4.3092627289205483
 50
137.45643980933039
 51
141.40545593619061
  0
POLYLINE
  5
62E
  8
FORM
 62
     1
 10
34.588179408120517
 20
5.9634267402830048
 30
0.0
 66
     1
 70
     8
  0
VERTEX
  8
FORM
  5
91E
 10
34.5882
 20
5.96343
 30
0.000000
  70
    32
  0
VERTEX
  8
FORM
  5
91F
 10
34.5863
 20
5.96413
 30
0.000000
  70
    32
  0
VERTEX
  8
FORM
  5
920
 10
34.5843
 20
5.96461
 30
0.000000
  70
    32
  0
VERTEX
  8
FORM
  5
921
 10
34.5822
 20
5.96487
 30
0.000000
  70
    32
  0
VERTEX
  8
FORM
  5
922
 10
34.5800
 20
5.96490
 30
0.000000
  70
    32
  0
VERTEX
  8
FORM
  5
923
 10
34.5778
 20
5.96471
 30
0.000000
  70
    32
  0
VERTEX
  8
FORM
  5
924
 10
34.5754
 20
5.96429
 30
0.000000
  70
    32
  0
VERTEX
  8
FORM
  5
925
 10
34.5731
 20
5.96365
 30
0.000000
  70
    32
  0
VERTEX
  8
FORM
  5
926
 10
34.5706
 20
5.96279
 30
0.000000
  70
    32
  0
VERTEX
  8
FORM
  5
927
 10
34.5681
 20
5.96170
 30
0.000000
  70
    32
  0
VERTEX
  8
FORM
  5
928
 10
34.5656
 20
5.96040
 30
0.000000
  70
    32
  0
VERTEX
  8
FORM
  5
929
 10
34.5630
 20
5.95889
 30
0.000000
  70
    32
  0
VERTEX
  8
FORM
  5
92A
 10
34.5603
 20
5.95716
 30
0.000000
  70
    32
  0
VERTEX
  8
FORM
  5
92B
 10
34.5577
 20
5.95523
 30
0.000000
  70
    32
  0
VERTEX
  8
FORM
  5
92C
 10
34.5550
 20
5.95309
 30
0.000000
  70
    32
  0
VERTEX
  8
FORM
  5
92D
 10
34.5523
 20
5.95076
 30
0.000000
  70
    32
  0
VERTEX
  8
FORM
  5
92E
 10
34.5496
 20
5.94824
 30
0.000000
  70
    32
  0
VERTEX
  8
FORM
  5
92F
 10
34.5468
 20
5.94553
 30
0.000000
  70
    32
  0
VERTEX
  8
FORM
  5
930
 10
34.5441
 20
5.94264
 30
0.000000
  70
    32
  0
VERTEX
  8
FORM
  5
931
 10
34.5414
 20
5.93959
 30
0.000000
  70
    32
  0
VERTEX
  8
FORM
  5
932
 10
34.5387
 20
5.93636
 30
0.000000
  70
    32
  0
VERTEX
  8
FORM
  5
933
 10
34.5361
 20
5.93299
 30
0.000000
  70
    32
  0
VERTEX
  8
FORM
  5
934
 10
34.5334
 20
5.92946
 30
0.000000
  70
    32
  0
VERTEX
  8
FORM
  5
935
 10
34.5308
 20
5.92579
 30
0.000000
  70
    32
  0
VERTEX
  8
FORM
  5
936
 10
34.5282
 20
5.92199
 30
0.000000
  70
    32
  0
VERTEX
  8
FORM
  5
937
 10
34.5257
 20
5.91807
 30
0.000000
  70
    32
  0
VERTEX
  8
FORM
  5
938
 10
34.5233
 20
5.91404
 30
0.000000
  70
    32
  0
VERTEX
  8
FORM
  5
939
 10
34.5209
 20
5.90991
 30
0.000000
  70
    32
  0
VERTEX
  8
FORM
  5
93A
 10
34.5185
 20
5.90568
 30
0.000000
  70
    32
  0
VERTEX
  8
FORM
  5
93B
 10
34.5162
 20
5.90137
 30
0.000000
  70
    32
  0
VERTEX
  8
FORM
  5
93C
 10
34.5140
 20
5.89699
 30
0.000000
  70
    32
  0
VERTEX
  8
FORM
  5
93D
 10
34.5119
 20
5.89254
 30
0.000000
  70
    32
  0
VERTEX
  8
FORM
  5
93E
 10
34.5099
 20
5.88805
 30
0.000000
  70
    32
  0
VERTEX
  8
FORM
  5
93F
 10
34.5080
 20
5.88352
 30
0.000000
  70
    32
  0
VERTEX
  8
FORM
  5
940
 10
34.5061
 20
5.87895
 30
0.000000
  70
    32
  0
VERTEX
  8
FORM
  5
941
 10
34.5044
 20
5.87437
 30
0.000000
  70
    32
  0
VERTEX
  8
FORM
  5
942
 10
34.5028
 20
5.86978
 30
0.000000
  70
    32
  0
VERTEX
  8
FORM
  5
943
 10
34.5012
 20
5.86520
 30
0.000000
  70
    32
  0
VERTEX
  8
FORM
  5
944
 10
34.4998
 20
5.86063
 30
0.000000
  70
    32
  0
VERTEX
  8
FORM
  5
945
 10
34.4985
 20
5.85608
 30
0.000000
  70
    32
  0
VERTEX
  8
FORM
  5
946
 10
34.4973
 20
5.85158
 30
0.000000
  70
    32
  0
VERTEX
  8
FORM
  5
947
 10
34.4963
 20
5.84712
 30
0.000000
  70
    32
  0
VERTEX
  8
FORM
  5
948
 10
34.4953
 20
5.84272
 30
0.000000
  70
    32
  0
VERTEX
  8
FORM
  5
949
 10
34.4945
 20
5.83838
 30
0.000000
  70
    32
  0
VERTEX
  8
FORM
  5
94A
 10
34.4938
 20
5.83413
 30
0.000000
  70
    32
  0
VERTEX
  8
FORM
  5
94B
 10
34.4933
 20
5.82997
 30
0.000000
  70
    32
  0
VERTEX
  8
FORM
  5
94C
 10
34.4929
 20
5.82591
 30
0.000000
  70
    32
  0
VERTEX
  8
FORM
  5
94D
 10
34.4926
 20
5.82195
 30
0.000000
  70
    32
  0
VERTEX
  8
FORM
  5
94E
 10
34.4924
 20
5.81812
 30
0.000000
  70
    32
  0
VERTEX
  8
FORM
  5
94F
 10
34.4924
 20
5.81442
 30
0.000000
  70
    32
  0
VERTEX
  8
FORM
  5
950
 10
34.4925
 20
5.81085
 30
0.000000
  70
    32
  0
VERTEX
  8
FORM
  5
951
 10
34.4928
 20
5.80743
 30
0.000000
  70
    32
  0
VERTEX
  8
FORM
  5
952
 10
34.4931
 20
5.80416
 30
0.000000
  70
    32
  0
VERTEX
  8
FORM
  5
953
 10
34.4937
 20
5.80105
 30
0.000000
  70
    32
  0
VERTEX
  8
FORM
  5
954
 10
34.4943
 20
5.79812
 30
0.000000
  70
    32
  0
VERTEX
  8
FORM
  5
955
 10
34.4951
 20
5.79536
 30
0.000000
  70
    32
  0
VERTEX
  8
FORM
  5
956
 10
34.4960
 20
5.79278
 30
0.000000
  70
    32
  0
VERTEX
  8
FORM
  5
957
 10
34.4970
 20
5.79039
 30
0.000000
  70
    32
  0
VERTEX
  8
FORM
  5
958
 10
34.4981
 20
5.78820
 30
0.000000
  70
    32
  0
VERTEX
  8
FORM
  5
959
 10
34.4994
 20
5.78621
 30
0.000000
  70
    32
  0
VERTEX
  8
FORM
  5
95A
 10
34.5008
 20
5.78443
 30
0.000000
  70
    32
  0
VERTEX
  8
FORM
  5
95B
 10
34.5023
 20
5.78285
 30
0.000000
  70
    32
  0
VERTEX
  8
FORM
  5
95C
 10
34.5039
 20
5.78149
 30
0.000000
  70
    32
  0
VERTEX
  8
FORM
  5
95D
 10
34.5056
 20
5.78034
 30
0.000000
  70
    32
  0
VERTEX
  8
FORM
  5
95E
 10
34.5074
 20
5.77941
 30
0.000000
  70
    32
  0
VERTEX
  8
FORM
  5
95F
 10
34.5093
 20
5.77871
 30
0.000000
  70
    32
  0
VERTEX
  8
FORM
  5
960
 10
34.5113
 20
5.77823
 30
0.000000
  70
    32
  0
VERTEX
  8
FORM
  5
961
 10
34.5134
 20
5.77797
 30
0.000000
  70
    32
  0
VERTEX
  8
FORM
  5
962
 10
34.5155
 20
5.77794
 30
0.000000
  70
    32
  0
VERTEX
  8
FORM
  5
963
 10
34.5178
 20
5.77813
 30
0.000000
  70
    32
  0
VERTEX
  8
FORM
  5
964
 10
34.5201
 20
5.77855
 30
0.000000
  70
    32
  0
VERTEX
  8
FORM
  5
965
 10
34.5225
 20
5.77919
 30
0.000000
  70
    32
  0
VERTEX
  8
FORM
  5
966
 10
34.5249
 20
5.78005
 30
0.000000
  70
    32
  0
VERTEX
  8
FORM
  5
967
 10
34.5274
 20
5.78114
 30
0.000000
  70
    32
  0
VERTEX
  8
FORM
  5
968
 10
34.5300
 20
5.78244
 30
0.000000
  70
    32
  0
VERTEX
  8
FORM
  5
969
 10
34.5326
 20
5.78395
 30
0.000000
  70
    32
  0
VERTEX
  8
FORM
  5
96A
 10
34.5352
 20
5.78568
 30
0.000000
  70
    32
  0
VERTEX
  8
FORM
  5
96B
 10
34.5379
 20
5.78761
 30
0.000000
  70
    32
  0
VERTEX
  8
FORM
  5
96C
 10
34.5406
 20
5.78975
 30
0.000000
  70
    32
  0
VERTEX
  8
FORM
  5
96D
 10
34.5433
 20
5.79208
 30
0.000000
  70
    32
  0
VERTEX
  8
FORM
  5
96E
 10
34.5460
 20
5.79460
 30
0.000000
  70
    32
  0
VERTEX
  8
FORM
  5
96F
 10
34.5487
 20
5.79731
 30
0.000000
  70
    32
  0
VERTEX
  8
FORM
  5
970
 10
34.5514
 20
5.80020
 30
0.000000
  70
    32
  0
VERTEX
  8
FORM
  5
971
 10
34.5541
 20
5.80325
 30
0.000000
  70
    32
  0
VERTEX
  8
FORM
  5
972
 10
34.5568
 20
5.80648
 30
0.000000
  70
    32
  0
VERTEX
  8
FORM
  5
973
 10
34.5595
 20
5.80985
 30
0.000000
  70
    32
  0
VERTEX
  8
FORM
  5
974
 10
34.5621
 20
5.81338
 30
0.000000
  70
    32
  0
VERTEX
  8
FORM
  5
975
 10
34.5647
 20
5.81705
 30
0.000000
  70
    32
  0
VERTEX
  8
FORM
  5
976
 10
34.5673
 20
5.82085
 30
0.000000
  70
    32
  0
VERTEX
  8
FORM
  5
977
 10
34.5698
 20
5.82477
 30
0.000000
  70
    32
  0
VERTEX
  8
FORM
  5
978
 10
34.5723
 20
5.82880
 30
0.000000
  70
    32
  0
VERTEX
  8
FORM
  5
979
 10
34.5747
 20
5.83293
 30
0.000000
  70
    32
  0
VERTEX
  8
FORM
  5
97A
 10
34.5770
 20
5.83716
 30
0.000000
  70
    32
  0
VERTEX
  8
FORM
  5
97B
 10
34.5793
 20
5.84147
 30
0.000000
  70
    32
  0
VERTEX
  8
FORM
  5
97C
 10
34.5815
 20
5.84585
 30
0.000000
  70
    32
  0
VERTEX
  8
FORM
  5
97D
 10
34.5836
 20
5.85030
 30
0.000000
  70
    32
  0
VERTEX
  8
FORM
  5
97E
 10
34.5856
 20
5.85479
 30
0.000000
  70
    32
  0
VERTEX
  8
FORM
  5
97F
 10
34.5876
 20
5.85932
 30
0.000000
  70
    32
  0
VERTEX
  8
FORM
  5
980
 10
34.5894
 20
5.86389
 30
0.000000
  70
    32
  0
VERTEX
  8
FORM
  5
981
 10
34.5912
 20
5.86847
 30
0.000000
  70
    32
  0
VERTEX
  8
FORM
  5
982
 10
34.5928
 20
5.87306
 30
0.000000
  70
    32
  0
VERTEX
  8
FORM
  5
983
 10
34.5943
 20
5.87764
 30
0.000000
  70
    32
  0
VERTEX
  8
FORM
  5
984
 10
34.5957
 20
5.88221
 30
0.000000
  70
    32
  0
VERTEX
  8
FORM
  5
985
 10
34.5970
 20
5.88676
 30
0.000000
  70
    32
  0
VERTEX
  8
FORM
  5
986
 10
34.5982
 20
5.89127
 30
0.000000
  70
    32
  0
VERTEX
  8
FORM
  5
987
 10
34.5993
 20
5.89572
 30
0.000000
  70
    32
  0
VERTEX
  8
FORM
  5
988
 10
34.6002
 20
5.90013
 30
0.000000
  70
    32
  0
VERTEX
  8
FORM
  5
989
 10
34.6010
 20
5.90446
 30
0.000000
  70
    32
  0
VERTEX
  8
FORM
  5
98A
 10
34.6017
 20
5.90871
 30
0.000000
  70
    32
  0
VERTEX
  8
FORM
  5
98B
 10
34.6023
 20
5.91287
 30
0.000000
  70
    32
  0
VERTEX
  8
FORM
  5
98C
 10
34.6027
 20
5.91693
 30
0.000000
  70
    32
  0
VERTEX
  8
FORM
  5
98D
 10
34.6030
 20
5.92089
 30
0.000000
  70
    32
  0
VERTEX
  8
FORM
  5
98E
 10
34.6031
 20
5.92472
 30
0.000000
  70
    32
  0
VERTEX
  8
FORM
  5
98F
 10
34.6031
 20
5.92842
 30
0.000000
  70
    32
  0
VERTEX
  8
FORM
  5
990
 10
34.6030
 20
5.93199
 30
0.000000
  70
    32
  0
VERTEX
  8
FORM
  5
991
 10
34.6028
 20
5.93541
 30
0.000000
  70
    32
  0
VERTEX
  8
FORM
  5
992
 10
34.6024
 20
5.93868
 30
0.000000
  70
    32
  0
VERTEX
  8
FORM
  5
993
 10
34.6019
 20
5.94179
 30
0.000000
  70
    32
  0
VERTEX
  8
FORM
  5
994
 10
34.6013
 20
5.94472
 30
0.000000
  70
    32
  0
VERTEX
  8
FORM
  5
995
 10
34.6005
 20
5.94748
 30
0.000000
  70
    32
  0
VERTEX
  8
FORM
  5
996
 10
34.5996
 20
5.95006
 30
0.000000
  70
    32
  0
VERTEX
  8
FORM
  5
997
 10
34.5986
 20
5.95245
 30
0.000000
  70
    32
  0
VERTEX
  8
FORM
  5
998
 10
34.5974
 20
5.95464
 30
0.000000
  70
    32
  0
VERTEX
  8
FORM
  5
999
 10
34.5962
 20
5.95663
 30
0.000000
  70
    32
  0
VERTEX
  8
FORM
  5
99A
 10
34.5948
 20
5.95841
 30
0.000000
  70
    32
  0
VERTEX
  8
FORM
  5
99B
 10
34.5933
 20
5.95999
 30
0.000000
  70
    32
  0
VERTEX
  8
FORM
  5
99C
 10
34.5917
 20
5.96135
 30
0.000000
  70
    32
  0
VERTEX
  8
FORM
  5
99D
 10
34.5900
 20
5.96250
 30
0.000000
  70
    32
  0
VERTEX
  8
FORM
  5
99E
 10
34.5882
 20
5.96343
 30
0.000000
  70
    32
  0
SEQEND
  8
FORM
  5
99F
  0
ARC
  5
62F
  8
FORM
 62
     7
 10
34.678422559705353
 20
5.6285689301790143
 30
0.0
 40
0.45030777473755
 50
85.485448269952457
 51
155.5006785655419
  0
TEXT
  5
630
  8
FORM
 62
     7
 10
33.094000516162993
 20
3.2737730496354831
 30
0.0
 40
0.1764102564
  1
R2-D2 BUILDERS CLUB
  0
ARC
  5
631
  8
FORM
 10
1.2738095237500311
 20
1.2738095237500171
 30
0.0
 40
0.315018315
 50
180.0
 51
270.0
  0
ARC
  5
632
  8
FORM
 10
1.2738095237500311
 20
1.2738095237500171
 30
0.0
 40
0.6300366300000001
 50
180.0
 51
270.0
  0
ARC
  5
633
  8
FORM
 10
1.2738095237500311
 20
1.2738095237500171
 30
0.0
 40
0.7087912087500001
 50
180.0
 51
270.0
  0
ARC
  5
634
  8
FORM
 10
1.2738095237500311
 20
1.2738095237500171
 30
0.0
 40
1.02380952375
 50
180.0
 51
270.0
  0
ARC
  5
635
  8
FORM
 10
1.2738095237500311
 20
30.47619047625
 30
0.0
 40
1.02380952375
 50
90.0
 51
180.0
  0
ARC
  5
636
  8
FORM
 10
1.2738095237500311
 20
30.47619047625
 30
0.0
 40
0.7087912087500001
 50
90.0
 51
180.0
  0
ARC
  5
637
  8
FORM
 10
1.2738095237500311
 20
30.47619047625
 30
0.0
 40
0.6300366300000001
 50
90.0
 51
180.0
  0
ARC
  5
638
  8
FORM
 10
1.2738095237500311
 20
30.47619047625
 30
0.0
 40
0.315018315
 50
90.0
 51
180.0
  0
ARC
  5
639
  8
FORM
 10
42.726190473750037
 20
30.47619047625
 30
0.0
 40
0.6300366300000001
 50
0.0
 51
90.0
  0
ARC
  5
63A
  8
FORM
 10
42.726190473750037
 20
30.47619047625
 30
0.0
 40
0.7087912087500001
 50
0.0
 51
90.0
  0
ARC
  5
63B
  8
FORM
 10
42.726190473750037
 20
30.47619047625
 30
0.0
 40
1.02380952375
 50
0.0
 51
90.0
  0
ARC
  5
63C
  8
FORM
 10
42.726190473750037
 20
30.47619047625
 30
0.0
 40
0.315018315
 50
0.0
 51
90.0
  0
ARC
  5
63D
  8
FORM
 10
42.726190473750037
 20
1.2738095237500171
 30
0.0
 40
1.02380952375
 50
270.0
 51
0.0
  0
ARC
  5
63E
  8
FORM
 10
42.726190473750037
 20
1.2738095237500171
 30
0.0
 40
0.7087912087500001
 50
270.0
 51
0.0
  0
ARC
  5
63F
  8
FORM
 10
42.726190473750037
 20
1.2738095237500171
 30
0.0
 40
0.6300366300000001
 50
270.0
 51
0.0
  0
ARC
  5
640
  8
FORM
 10
42.726190473750037
 20
1.2738095237500171
 30
0.0
 40
0.315018315
 50
270.0
 51
0.0
  0
LINE
  5
641
  8
FORM
 10
42.726190473750037
 20
0.643772893750036
 30
0.0
 11
1.2738095237500311
 21
0.6437728937500183
 31
0.0
  0
LINE
  5
642
  8
FORM
 10
42.726190473750037
 20
0.5650183150000352
 30
0.0
 11
1.2738095237500311
 21
0.5650183150000175
 31
0.0
  0
LINE
  5
643
  8
FORM
 10
42.726190473750037
 20
0.2500000000000178
 30
0.0
 11
1.2738095237500311
 21
0.25
 31
0.0
  0
LINE
  5
644
  8
FORM
 10
43.356227103750051
 20
1.2738095237500171
 30
0.0
 11
43.356227103750051
 21
30.47619047625
 31
0.0
  0
LINE
  5
645
  8
FORM
 10
43.434981682500052
 20
1.2738095237500171
 30
0.0
 11
43.434981682500052
 21
30.47619047625
 31
0.0
  0
LINE
  5
646
  8
FORM
 10
43.749999997500048
 20
1.2738095237500171
 30
0.0
 11
43.749999997500048
 21
30.47619047625
 31
0.0
  0
LINE
  5
647
  8
FORM
 10
42.726190473750037
 20
31.10622710625
 30
0.0
 11
1.2738095237500311
 21
31.10622710625
 31
0.0
  0
LINE
  5
648
  8
FORM
 10
42.726190473750037
 20
31.184981685
 30
0.0
 11
1.2738095237500311
 21
31.184981685
 31
0.0
  0
LINE
  5
649
  8
FORM
 10
42.726190473750037
 20
31.5
 30
0.0
 11
1.2738095237500311
 21
31.5
 31
0.0
  0
LINE
  5
64A
  8
FORM
 10
0.6437728937500254
 20
1.2738095237500171
 30
0.0
 11
0.6437728937500254
 21
30.47619047625
 31
0.0
  0
LINE
  5
64B
  8
FORM
 10
0.5650183150000601
 20
1.2738095237500171
 30
0.0
 11
0.5650183150000601
 21
30.47619047625
 31
0.0
  0
LINE
  5
64C
  8
FORM
 10
0.2499999999999716
 20
1.2738095237500211
 30
0.0
 11
0.2500000000000284
 21
30.47619047625
 31
0.0
  0
LINE
  5
64D
  8
FORM
  6
CONTINUOUS
 10
33.416182507258391
 20
1.2738095237500171
 30
0.0
 11
42.265298990260362
 21
1.2738095237500171
 31
0.0
  0
LINE
  5
64E
  8
FORM
  6
CONTINUOUS
 10
42.726190473750037
 20
6.1592592487406881
 30
0.0
 11
42.726190473750037
 21
1.7347010072396991
 31
0.0
  0
ARC
  5
64F
  8
FORM
  6
CONTINUOUS
 10
42.265298990260362
 20
1.7347010072396991
 30
0.0
 40
0.460891483489685
 50
270.0
 51
0.0
  0
ARC
  5
650
  8
FORM
  6
CONTINUOUS
 10
42.265298990260362
 20
6.1592592487406881
 30
0.0
 40
0.460891483489685
 50
359.99999999999989
 51
90.0
  0
ARC
  5
651
  8
FORM
  6
CONTINUOUS
 10
33.416182507258391
 20
1.7347010072396991
 30
0.0
 40
0.460891483489685
 50
180.0
 51
270.0
  0
ARC
  5
652
  8
FORM
  6
CONTINUOUS
 10
33.416182507258391
 20
6.1592592487406881
 30
0.0
 40
0.460891483489685
 50
90.0
 51
180.0
  0
LINE
  5
653
  8
0
 10
0.0
 20
0.0
 30
0.0
 11
0.0
 21
34.0
 31
0.0
  0
LINE
  5
654
  8
0
 10
0.0
 20
0.0
 30
0.0
 11
44.0
 21
0.0
 31
0.0
  0
LINE
  5
655
  8
0
 10
0.0
 20
34.0
 30
0.0
 11
44.0
 21
34.0
 31
0.0
  0
LINE
  5
656
  8
0
 10
44.0
 20
0.0
 30
0.0
 11
44.0
 21
34.0
 31
0.0
  0
LINE
  5
8FD
  8
0
 10
1.2738095237500311
 20
1.2738095237500171
 30
0.0
 11
1.2738095237500311
 21
2.2738095237500171
 31
0.0
  0
LINE
  5
8FE
  8
0
 10
1.2738095237500311
 20
1.3988095237500171
 30
0.0
 11
1.3988095237500311
 21
1.3988095237500171
 31
0.0
  0
LINE
  5
8FF
  8
0
 10
1.2738095237500311
 20
1.5238095237500171
 30
0.0
 11
1.5238095237500311
 21
1.5238095237500171
 31
0.0
  0
LINE
  5
900
  8
0
 10
1.2738095237500311
 20
1.6488095237500171
 30
0.0
 11
1.3988095237500311
 21
1.6488095237500171
 31
0.0
  0
LINE
  5
901
  8
0
 10
1.2738095237500311
 20
1.7738095237500171
 30
0.0
 11
1.6488095237500311
 21
1.7738095237500171
 31
0.0
  0
LINE
  5
902
  8
0
 10
1.2738095237500311
 20
1.8988095237500171
 30
0.0
 11
1.3988095237500311
 21
1.8988095237500171
 31
0.0
  0
LINE
  5
903
  8
0
 10
1.2738095237500311
 20
2.0238095237500171
 30
0.0
 11
1.5238095237500311
 21
2.0238095237500171
 31
0.0
  0
LINE
  5
904
  8
0
 10
1.2738095237500311
 20
2.1488095237500171
 30
0.0
 11
1.3988095237500311
 21
2.1488095237500171
 31
0.0
  0
LINE
  5
905
  8
0
 10
1.2738095237500311
 20
2.2738095237500171
 30
0.0
 11
1.6488095237500311
 21
2.2738095237500171
 31
0.0
  0
LINE
  5
906
  8
0
 10
1.2738095237500311
 20
1.2738095237500171
 30
0.0
 11
1.6488095237500311
 21
1.2738095237500171
 31
0.0
  0
TEXT
  5
907
  8
0
 10
1.698078297376497
 20
1.740768962749534
 30
0.0
 40
0.0625
  1
1/2"
  0
TEXT
  5
908
  8
0
 10
1.448078297376497
 20
1.615768962749534
 30
0.0
 40
0.0625
  1
3/8"
  0
TEXT
  5
909
  8
0
 10
1.573078297376497
 20
1.490768962749534
 30
0.0
 40
0.0625
  1
1/4"
  0
TEXT
  5
90A
  8
0
 10
1.448078297376497
 20
1.365768962749534
 30
0.0
 40
0.0625
  1
1/8"
  0
TEXT
  5
90B
  8
0
 10
1.448078297376497
 20
1.865768962749534
 30
0.0
 40
0.0625
  1
5/8"
  0
TEXT
  5
90C
  8
0
 10
1.573078297376497
 20
1.990768962749534
 30
0.0
 40
0.0625
  1
3/4"
  0
TEXT
  5
90D
  8
0
 10
1.448078297376497
 20
2.115768962749534
 30
0.0
 40
0.0625
  1
7/8"
  0
TEXT
  5
90E
  8
0
 10
1.698078297376497
 20
2.240768962749534
 30
0.0
 40
0.0625
  1
1"
  0
ENDSEC
  0
EOF
