  0
SECTION
  2
HEADER
  9
$ACADVER
  1
AC1009
  9
$INSBASE
 10
0.0
 20
0.0
 30
0.0
  9
$EXTMIN
 10
0.0
 20
0.0
 30
0.0
  9
$EXTMAX
 10
22.0
 20
17.0
 30
0.0
  9
$LIMMIN
 10
0.0
 20
0.0
  9
$LIMMAX
 10
12.0
 20
9.0
  9
$ORTHOMODE
 70
     0
  9
$REGENMODE
 70
     1
  9
$FILLMODE
 70
     1
  9
$QTEXTMODE
 70
     0
  9
$MIRRTEXT
 70
     0
  9
$DRAGMODE
 70
     2
  9
$LTSCALE
 40
1.0
  9
$OSMODE
 70
    39
  9
$ATTMODE
 70
     1
  9
$TEXTSIZE
 40
0.2
  9
$TRACEWID
 40
0.05
  9
$TEXTSTYLE
  7
STANDARD
  9
$CLAYER
  8
0
  9
$CELTYPE
  6
BYLAYER
  9
$CECOLOR
 62
   256
  9
$DIMSCALE
 40
1.0
  9
$DIMASZ
 40
0.3125
  9
$DIMEXO
 40
0.0625
  9
$DIMDLI
 40
0.38
  9
$DIMRND
 40
0.0
  9
$DIMDLE
 40
0.0
  9
$DIMEXE
 40
0.0625
  9
$DIMTP
 40
0.0
  9
$DIMTM
 40
0.0
  9
$DIMTXT
 40
0.3125
  9
$DIMCEN
 40
0.0
  9
$DIMTSZ
 40
0.0
  9
$DIMTOL
 70
     0
  9
$DIMLIM
 70
     0
  9
$DIMTIH
 70
     1
  9
$DIMTOH
 70
     1
  9
$DIMSE1
 70
     0
  9
$DIMSE2
 70
     0
  9
$DIMTAD
 70
     0
  9
$DIMZIN
 70
     0
  9
$DIMBLK
  1

  9
$DIMASO
 70
     1
  9
$DIMSHO
 70
     1
  9
$DIMPOST
  1

  9
$DIMAPOST
  1

  9
$DIMALT
 70
     0
  9
$DIMALTD
 70
     2
  9
$DIMALTF
 40
25.399999999999999
  9
$DIMLFAC
 40
1.0
  9
$DIMTOFL
 70
     0
  9
$DIMTVP
 40
0.0
  9
$DIMTIX
 70
     0
  9
$DIMSOXD
 70
     0
  9
$DIMSAH
 70
     0
  9
$DIMBLK1
  1

  9
$DIMBLK2
  1

  9
$DIMSTYLE
  2
STANDARD
  9
$DIMCLRD
 70
     0
  9
$DIMCLRE
 70
     0
  9
$DIMCLRT
 70
     0
  9
$DIMTFAC
 40
1.0
  9
$DIMGAP
 40
0.09375
  9
$LUNITS
 70
     2
  9
$LUPREC
 70
     8
  9
$SKETCHINC
 40
0.1
  9
$FILLETRAD
 40
0.0
  9
$AUNITS
 70
     0
  9
$AUPREC
 70
     8
  9
$MENU
  1
.
  9
$ELEVATION
 40
0.0
  9
$PELEVATION
 40
0.0
  9
$THICKNESS
 40
0.0
  9
$LIMCHECK
 70
     0
  9
$BLIPMODE
 70
     0
  9
$CHAMFERA
 40
0.0
  9
$CHAMFERB
 40
0.0
  9
$SKPOLY
 70
     0
  9
$TDCREATE
 40
2453392.3745916551
  9
$TDUPDATE
 40
2453462.4943249999
  9
$TDINDWG
 40
0.2538775694
  9
$TDUSRTIMER
 40
0.2538722338
  9
$USRTIMER
 70
     1
  9
$ANGBASE
 50
0.0
  9
$ANGDIR
 70
     0
  9
$PDMODE
 70
     0
  9
$PDSIZE
 40
0.0
  9
$PLINEWID
 40
0.0
  9
$COORDS
 70
     0
  9
$SPLFRAME
 70
     0
  9
$SPLINETYPE
 70
     6
  9
$SPLINESEGS
 70
     8
  9
$ATTDIA
 70
     0
  9
$ATTREQ
 70
     1
  9
$HANDLING
 70
     1
  9
$HANDSEED
  5
947
  9
$SURFTAB1
 70
     6
  9
$SURFTAB2
 70
     6
  9
$SURFTYPE
 70
     6
  9
$SURFU
 70
     6
  9
$SURFV
 70
     6
  9
$UCSNAME
  2

  9
$UCSORG
 10
0.0
 20
0.0
 30
0.0
  9
$UCSXDIR
 10
1.0
 20
0.0
 30
0.0
  9
$UCSYDIR
 10
0.0
 20
1.0
 30
0.0
  9
$PUCSNAME
  2

  9
$PUCSORG
 10
0.0
 20
0.0
 30
0.0
  9
$PUCSXDIR
 10
1.0
 20
0.0
 30
0.0
  9
$PUCSYDIR
 10
0.0
 20
1.0
 30
0.0
  9
$USERI1
 70
     0
  9
$USERI2
 70
     0
  9
$USERI3
 70
     0
  9
$USERI4
 70
     0
  9
$USERI5
 70
     0
  9
$USERR1
 40
0.0
  9
$USERR2
 40
0.0
  9
$USERR3
 40
0.0
  9
$USERR4
 40
0.0
  9
$USERR5
 40
0.0
  9
$WORLDVIEW
 70
     1
  9
$SHADEDGE
 70
     3
  9
$SHADEDIF
 70
    70
  9
$TILEMODE
 70
     1
  9
$MAXACTVP
 70
    64
  9
$PLIMCHECK
 70
     0
  9
$PEXTMIN
 10
0.0
 20
0.0
 30
0.0
  9
$PEXTMAX
 10
0.0
 20
0.0
 30
0.0
  9
$PLIMMIN
 10
0.0
 20
0.0
  9
$PLIMMAX
 10
12.0
 20
9.0
  9
$UNITMODE
 70
     0
  9
$VISRETAIN
 70
     1
  9
$PLINEGEN
 70
     0
  9
$PSLTSCALE
 70
     1
  0
ENDSEC
  0
SECTION
  2
TABLES
  0
TABLE
  2
VPORT
 70
     2
  0
VPORT
  2
*ACTIVE
 70
     0
 10
0.0
 20
0.0
 11
1.0
 21
1.0
 12
11.00073387815973
 22
8.4997095657582786
 13
0.0
 23
0.0
 14
0.5
 24
0.5
 15
0.5
 25
0.5
 16
0.0
 26
0.0
 36
1.0
 17
0.0
 27
0.0
 37
0.0
 40
17.222604098329761
 41
2.1727078891257992
 42
50.0
 43
0.0
 44
0.0
 50
0.0
 51
0.0
 71
     0
 72
 20000
 73
     1
 74
     2
 75
     0
 76
     0
 77
     0
 78
     0
  0
ENDTAB
  0
TABLE
  2
LTYPE
 70
     1
  0
LTYPE
  2
CONTINUOUS
 70
     0
  3
Solid line
 72
    65
 73
     0
 40
0.0
  0
ENDTAB
  0
TABLE
  2
LAYER
 70
     5
  0
LAYER
  2
0
 70
     0
 62
     7
  6
CONTINUOUS
  0
LAYER
  2
ANKLE_-_CYLINDER
 70
     0
 62
     7
  6
CONTINUOUS
  0
LAYER
  2
DIMENSIONS
 70
     0
 62
     1
  6
CONTINUOUS
  0
LAYER
  2
FORM
 70
     0
 62
     5
  6
CONTINUOUS
  0
LAYER
  2
DEFPOINTS
 70
     0
 62
     7
  6
CONTINUOUS
  0
ENDTAB
  0
TABLE
  2
STYLE
 70
     1
  0
STYLE
  2
STANDARD
 70
     0
 40
0.0
 41
1.0
 50
0.0
 71
     0
 42
0.2
  3
simplex.shx
  4

  0
ENDTAB
  0
TABLE
  2
VIEW
 70
     0
  0
ENDTAB
  0
TABLE
  2
UCS
 70
     0
  0
ENDTAB
  0
TABLE
  2
APPID
 70
     4
  0
APPID
  2
ACAD
 70
     0
  0
APPID
  2
ACAECLAYERSTANDARD
 70
     0
  0
APPID
  2
DCO15
 70
     0
  0
APPID
  2
ACAD_PSEXT
 70
     0
  0
ENDTAB
  0
TABLE
  2
DIMSTYLE
 70
     1
  0
DIMSTYLE
  2
STANDARD
 70
     0
  3

  4

  5

  6

  7

 40
1.0
 41
0.3125
 42
0.0625
 43
0.38
 44
0.0625
 45
0.0
 46
0.0
 47
0.0
 48
0.0
140
0.3125
141
0.0
142
0.0
143
25.399999999999999
144
1.0
145
0.0
146
1.0
147
0.09375
 71
     0
 72
     0
 73
     1
 74
     1
 75
     0
 76
     0
 77
     0
 78
     0
170
     0
171
     2
172
     0
173
     0
174
     0
175
     0
176
     0
177
     0
178
     0
  0
ENDTAB
  0
ENDSEC
  0
SECTION
  2
BLOCKS
  0
BLOCK
  8
0
  2
$MODEL_SPACE
 70
     0
 10
0.0
 20
0.0
 30
0.0
  3
$MODEL_SPACE
  1

  0
ENDBLK
  5
B
  8
0
  0
BLOCK
 67
     1
  8
0
  2
$PAPER_SPACE
 70
     0
 10
0.0
 20
0.0
 30
0.0
  3
$PAPER_SPACE
  1

  0
ENDBLK
  5
10
 67
     1
  8
0
  0
ENDSEC
  0
SECTION
  2
ENTITIES
  0
CIRCLE
  5
2D
  8
ANKLE_-_CYLINDER
 10
16.685601287151979
 20
11.78441285618786
 30
0.0
 40
0.6875
  0
ARC
  5
30
  8
ANKLE_-_CYLINDER
 10
16.685601287151979
 20
11.78441285618786
 30
0.0
 40
0.45
 50
245.37568164783599
 51
294.6243183521641
  0
ARC
  5
31
  8
ANKLE_-_CYLINDER
 10
16.685601287151979
 20
11.78441285618786
 30
0.0
 40
0.45
 50
65.375681647835989
 51
114.624318352164
  0
CIRCLE
  5
32
  8
ANKLE_-_CYLINDER
 10
16.685601287151979
 20
11.78441285618786
 30
0.0
 40
0.5625
  0
LINE
  5
33
  8
ANKLE_-_CYLINDER
 10
16.498101287151979
 20
12.3048684162504
 30
0.0
 11
16.498101287151979
 21
11.263957296125319
 31
0.0
  0
LINE
  5
34
  8
ANKLE_-_CYLINDER
 10
16.873101287151979
 20
12.3048684162504
 30
0.0
 11
16.873101287151979
 21
11.263957296125319
 31
0.0
  0
LINE
  5
35
  8
ANKLE_-_CYLINDER
 10
11.315754180488479
 20
12.47191285618786
 30
0.0
 11
11.19075418048847
 21
12.471912856187849
 31
0.0
  0
LINE
  5
36
  8
ANKLE_-_CYLINDER
 10
11.159754180488459
 20
12.471912856187849
 30
0.0
 11
10.69075418048847
 21
12.471912856187849
 31
0.0
  0
LINE
  5
37
  8
ANKLE_-_CYLINDER
 10
10.659754180488459
 20
12.471912856187849
 30
0.0
 11
9.3467541804884746
 21
12.47191285618786
 31
0.0
  0
LINE
  5
38
  8
ANKLE_-_CYLINDER
 10
9.3157541804884811
 20
12.47191285618786
 30
0.0
 11
6.8157541804884678
 21
12.47191285618787
 31
0.0
  0
LINE
  5
39
  8
ANKLE_-_CYLINDER
 10
6.784754180488477
 20
12.47191285618786
 30
0.0
 11
5.4717541804884737
 21
12.47191285618786
 31
0.0
  0
LINE
  5
3A
  8
ANKLE_-_CYLINDER
 10
5.4407541804884678
 20
12.47191285618786
 30
0.0
 11
4.9717541804884737
 21
12.47191285618787
 31
0.0
  0
LINE
  5
3B
  8
ANKLE_-_CYLINDER
 10
4.9407541804884678
 20
12.47191285618787
 30
0.0
 11
4.8157541804884678
 21
12.47191285618787
 31
0.0
  0
LINE
  5
3C
  8
ANKLE_-_CYLINDER
 10
11.19075418048847
 20
12.440912856187859
 30
0.0
 11
11.159754180488459
 21
12.440912856187859
 31
0.0
  0
LINE
  5
3D
  8
ANKLE_-_CYLINDER
 10
10.69075418048847
 20
12.440912856187859
 30
0.0
 11
10.659754180488459
 21
12.440912856187859
 31
0.0
  0
LINE
  5
3E
  8
ANKLE_-_CYLINDER
 10
9.3467541804884746
 20
12.440912856187859
 30
0.0
 11
9.3157541804884811
 21
12.440912856187859
 31
0.0
  0
LINE
  5
3F
  8
ANKLE_-_CYLINDER
 10
6.8157541804884678
 20
12.44091285618787
 30
0.0
 11
6.784754180488477
 21
12.44091285618787
 31
0.0
  0
LINE
  5
40
  8
ANKLE_-_CYLINDER
 10
5.4717541804884737
 20
12.44091285618787
 30
0.0
 11
5.4407541804884678
 21
12.440912856187859
 31
0.0
  0
LINE
  5
41
  8
ANKLE_-_CYLINDER
 10
4.9717541804884737
 20
12.44091285618787
 30
0.0
 11
4.9407541804884678
 21
12.44091285618787
 31
0.0
  0
LINE
  5
42
  8
ANKLE_-_CYLINDER
 10
11.31575418048847
 20
11.09691285618786
 30
0.0
 11
11.19075418048847
 21
11.09691285618786
 31
0.0
  0
LINE
  5
43
  8
ANKLE_-_CYLINDER
 10
11.159754180488459
 20
11.09691285618786
 30
0.0
 11
10.690754180488479
 21
11.09691285618787
 31
0.0
  0
LINE
  5
44
  8
ANKLE_-_CYLINDER
 10
10.659754180488489
 20
11.09691285618787
 30
0.0
 11
9.3467541804884746
 21
11.09691285618787
 31
0.0
  0
LINE
  5
45
  8
ANKLE_-_CYLINDER
 10
9.3157541804884687
 20
11.09691285618787
 30
0.0
 11
6.8157541804884536
 21
11.09691285618787
 31
0.0
  0
LINE
  5
46
  8
ANKLE_-_CYLINDER
 10
6.784754180488477
 20
11.09691285618787
 30
0.0
 11
5.4717541804884604
 21
11.09691285618787
 31
0.0
  0
LINE
  5
47
  8
ANKLE_-_CYLINDER
 10
5.4407541804884678
 20
11.09691285618787
 30
0.0
 11
4.9717541804884737
 21
11.09691285618786
 31
0.0
  0
LINE
  5
48
  8
ANKLE_-_CYLINDER
 10
4.9407541804884678
 20
11.09691285618786
 30
0.0
 11
4.8157541804884678
 21
11.09691285618786
 31
0.0
  0
LINE
  5
49
  8
ANKLE_-_CYLINDER
 10
11.19075418048847
 20
11.12791285618785
 30
0.0
 11
11.159754180488459
 21
11.12791285618785
 31
0.0
  0
LINE
  5
4A
  8
ANKLE_-_CYLINDER
 10
10.69075418048847
 20
11.12791285618785
 30
0.0
 11
10.659754180488459
 21
11.12791285618785
 31
0.0
  0
LINE
  5
4B
  8
ANKLE_-_CYLINDER
 10
9.3467541804884746
 20
11.12791285618785
 30
0.0
 11
9.3157541804884687
 21
11.12791285618785
 31
0.0
  0
LINE
  5
4C
  8
ANKLE_-_CYLINDER
 10
6.8157541804884536
 20
11.12791285618785
 30
0.0
 11
6.784754180488477
 21
11.12791285618785
 31
0.0
  0
LINE
  5
4D
  8
ANKLE_-_CYLINDER
 10
5.4717541804884737
 20
11.12791285618785
 30
0.0
 11
5.4407541804884678
 21
11.12791285618785
 31
0.0
  0
LINE
  5
4E
  8
ANKLE_-_CYLINDER
 10
4.9717541804884737
 20
11.127912856187869
 30
0.0
 11
4.9407541804884678
 21
11.12791285618786
 31
0.0
  0
LINE
  5
4F
  8
ANKLE_-_CYLINDER
 10
6.8157541804884678
 20
12.47191285618786
 30
0.0
 11
6.8157541804884678
 21
11.09691285618786
 31
0.0
  0
LINE
  5
50
  8
ANKLE_-_CYLINDER
 10
6.784754180488477
 20
12.47191285618787
 30
0.0
 11
6.7847541804884619
 21
11.09691285618786
 31
0.0
  0
LINE
  5
51
  8
ANKLE_-_CYLINDER
 10
9.3157541804884687
 20
12.471912856187849
 30
0.0
 11
9.3157541804884687
 21
11.09691285618786
 31
0.0
  0
LINE
  5
52
  8
ANKLE_-_CYLINDER
 10
9.3467541804884746
 20
12.471912856187849
 30
0.0
 11
9.3467541804884604
 21
11.09691285618786
 31
0.0
  0
LINE
  5
53
  8
ANKLE_-_CYLINDER
 10
11.69075418048847
 20
12.234412856187859
 30
0.0
 11
11.69075418048847
 21
11.334412856187869
 31
0.0
  0
LINE
  5
54
  8
ANKLE_-_CYLINDER
 10
4.8157541804884678
 20
12.47191285618786
 30
0.0
 11
4.8157541804884678
 21
11.09691285618787
 31
0.0
  0
LINE
  5
55
  8
ANKLE_-_CYLINDER
 10
4.9407541804884678
 20
12.47191285618786
 30
0.0
 11
4.9407541804884678
 21
11.09691285618787
 31
0.0
  0
LINE
  5
56
  8
ANKLE_-_CYLINDER
 10
4.9717541804884737
 20
12.47191285618786
 30
0.0
 11
4.9717541804884737
 21
11.09691285618787
 31
0.0
  0
LINE
  5
57
  8
ANKLE_-_CYLINDER
 10
11.31575418048847
 20
12.47191285618787
 30
0.0
 11
11.31575418048847
 21
11.09691285618786
 31
0.0
  0
LINE
  5
58
  8
ANKLE_-_CYLINDER
 10
11.19075418048847
 20
12.47191285618787
 30
0.0
 11
11.19075418048847
 21
11.09691285618786
 31
0.0
  0
LINE
  5
59
  8
ANKLE_-_CYLINDER
 10
11.159754180488459
 20
12.47191285618787
 30
0.0
 11
11.159754180488459
 21
11.09691285618786
 31
0.0
  0
LINE
  5
5A
  8
ANKLE_-_CYLINDER
 10
11.34675418048846
 20
12.314742942077761
 30
0.0
 11
11.34675418048846
 21
11.25408277029795
 31
0.0
  0
LINE
  5
5B
  8
ANKLE_-_CYLINDER
 10
5.4717541804884737
 20
12.47191285618787
 30
0.0
 11
5.4717541804884604
 21
11.09691285618786
 31
0.0
  0
LINE
  5
5C
  8
ANKLE_-_CYLINDER
 10
5.4407541804884678
 20
12.47191285618787
 30
0.0
 11
5.4407541804884678
 21
11.09691285618786
 31
0.0
  0
LINE
  5
5D
  8
ANKLE_-_CYLINDER
 10
10.659754180488459
 20
12.471912856187849
 30
0.0
 11
10.659754180488459
 21
11.09691285618786
 31
0.0
  0
LINE
  5
5E
  8
ANKLE_-_CYLINDER
 10
10.69075418048847
 20
12.471912856187849
 30
0.0
 11
10.69075418048847
 21
11.09691285618786
 31
0.0
  0
LINE
  5
5F
  8
ANKLE_-_CYLINDER
 10
11.31575418048847
 20
12.34691285618787
 30
0.0
 11
11.69075418048847
 21
12.234412856187859
 31
0.0
  0
LINE
  5
60
  8
ANKLE_-_CYLINDER
 10
11.31575418048847
 20
11.22191285618786
 30
0.0
 11
11.69075418048847
 21
11.334412856187861
 31
0.0
  0
LINE
  5
61
  8
ANKLE_-_CYLINDER
 10
11.69075418048847
 20
12.1934895604867
 30
0.0
 11
11.34675418048846
 21
12.314742942077761
 31
0.0
  0
LINE
  5
62
  8
ANKLE_-_CYLINDER
 10
11.69075418048847
 20
11.37533615188903
 30
0.0
 11
11.34675418048846
 21
11.25408277029795
 31
0.0
  0
ARC
  5
63
  8
ANKLE_-_CYLINDER
 10
16.685601287151979
 20
11.78441285618786
 30
0.0
 40
0.5532000000000111
 50
109.81212928287761
 51
250.18787071712239
  0
ARC
  5
64
  8
ANKLE_-_CYLINDER
 10
16.685601287151979
 20
11.78441285618786
 30
0.0
 40
0.5532000000000111
 50
289.81212928287601
 51
70.187870717124056
  0
LINE
  5
65
  8
ANKLE_-_CYLINDER
 10
4.440754180488482
 20
12.234412856187859
 30
0.0
 11
4.4407541804884678
 21
11.334412856187869
 31
0.0
  0
LINE
  5
66
  8
ANKLE_-_CYLINDER
 10
4.7847541804884912
 20
12.314742942077761
 30
0.0
 11
4.7847541804884912
 21
11.25408277029795
 31
0.0
  0
LINE
  5
67
  8
ANKLE_-_CYLINDER
 10
4.815754180488482
 20
12.34691285618787
 30
0.0
 11
4.440754180488482
 21
12.234412856187859
 31
0.0
  0
LINE
  5
68
  8
ANKLE_-_CYLINDER
 10
4.815754180488482
 20
11.22191285618786
 30
0.0
 11
4.440754180488482
 21
11.334412856187861
 31
0.0
  0
LINE
  5
69
  8
ANKLE_-_CYLINDER
 10
4.440754180488482
 20
12.1934895604867
 30
0.0
 11
4.7847541804884912
 21
12.314742942077761
 31
0.0
  0
LINE
  5
6A
  8
ANKLE_-_CYLINDER
 10
4.440754180488482
 20
11.37533615188903
 30
0.0
 11
4.7847541804884912
 21
11.25408277029795
 31
0.0
  0
LINE
  5
6B
  8
ANKLE_-_CYLINDER
 10
11.315754180488479
 20
5.3219316546777193
 30
0.0
 11
11.19075418048847
 21
5.3219316546777122
 31
0.0
  0
LINE
  5
6C
  8
ANKLE_-_CYLINDER
 10
11.159754180488459
 20
5.3219316546777122
 30
0.0
 11
10.69075418048847
 21
5.3219316546777122
 31
0.0
  0
LINE
  5
6D
  8
ANKLE_-_CYLINDER
 10
10.659754180488459
 20
5.3219316546777122
 30
0.0
 11
9.3467541804884746
 21
5.3219316546777193
 31
0.0
  0
LINE
  5
6E
  8
ANKLE_-_CYLINDER
 10
9.3157541804884811
 20
5.3219316546777193
 30
0.0
 11
6.8157541804884678
 21
5.3219316546777264
 31
0.0
  0
LINE
  5
6F
  8
ANKLE_-_CYLINDER
 10
6.784754180488477
 20
5.3219316546777193
 30
0.0
 11
5.4717541804884737
 21
5.3219316546777193
 31
0.0
  0
LINE
  5
70
  8
ANKLE_-_CYLINDER
 10
5.4407541804884678
 20
5.3219316546777193
 30
0.0
 11
4.9717541804884737
 21
5.3219316546777264
 31
0.0
  0
LINE
  5
71
  8
ANKLE_-_CYLINDER
 10
4.9407541804884678
 20
5.3219316546777264
 30
0.0
 11
4.8157541804884678
 21
5.3219316546777264
 31
0.0
  0
LINE
  5
72
  8
ANKLE_-_CYLINDER
 10
11.19075418048847
 20
5.2909316546777196
 30
0.0
 11
11.159754180488459
 21
5.2909316546777134
 31
0.0
  0
LINE
  5
73
  8
ANKLE_-_CYLINDER
 10
10.69075418048847
 20
5.2909316546777196
 30
0.0
 11
10.659754180488459
 21
5.2909316546777196
 31
0.0
  0
LINE
  5
74
  8
ANKLE_-_CYLINDER
 10
9.3467541804884746
 20
5.2909316546777196
 30
0.0
 11
9.3157541804884811
 21
5.2909316546777134
 31
0.0
  0
LINE
  5
75
  8
ANKLE_-_CYLINDER
 10
6.8157541804884678
 20
5.2909316546777267
 30
0.0
 11
6.784754180488477
 21
5.2909316546777267
 31
0.0
  0
LINE
  5
76
  8
ANKLE_-_CYLINDER
 10
5.4717541804884737
 20
5.2909316546777267
 30
0.0
 11
5.4407541804884678
 21
5.2909316546777196
 31
0.0
  0
LINE
  5
77
  8
ANKLE_-_CYLINDER
 10
4.9717541804884737
 20
5.2909316546777267
 30
0.0
 11
4.9407541804884678
 21
5.2909316546777267
 31
0.0
  0
LINE
  5
78
  8
ANKLE_-_CYLINDER
 10
11.31575418048847
 20
3.9469316546777189
 30
0.0
 11
11.19075418048847
 21
3.9469316546777189
 31
0.0
  0
LINE
  5
79
  8
ANKLE_-_CYLINDER
 10
11.159754180488459
 20
3.9469316546777189
 30
0.0
 11
10.690754180488479
 21
3.946931654677726
 31
0.0
  0
LINE
  5
7A
  8
ANKLE_-_CYLINDER
 10
10.659754180488489
 20
3.946931654677726
 30
0.0
 11
10.596754180488469
 21
3.946931654677726
 31
0.0
  0
LINE
  5
7B
  8
ANKLE_-_CYLINDER
 10
5.5347541804884619
 20
3.946931654677726
 30
0.0
 11
5.4717541804884604
 21
3.946931654677726
 31
0.0
  0
LINE
  5
7C
  8
ANKLE_-_CYLINDER
 10
5.4407541804884678
 20
3.946931654677726
 30
0.0
 11
4.9717541804884737
 21
3.9469316546777189
 31
0.0
  0
LINE
  5
7D
  8
ANKLE_-_CYLINDER
 10
4.9407541804884678
 20
3.9469316546777189
 30
0.0
 11
4.8157541804884678
 21
3.9469316546777189
 31
0.0
  0
LINE
  5
7E
  8
ANKLE_-_CYLINDER
 10
11.19075418048847
 20
3.977931654677703
 30
0.0
 11
11.159754180488459
 21
3.977931654677711
 31
0.0
  0
LINE
  5
7F
  8
ANKLE_-_CYLINDER
 10
10.69075418048847
 20
3.977931654677703
 30
0.0
 11
10.659754180488459
 21
3.977931654677711
 31
0.0
  0
LINE
  5
80
  8
ANKLE_-_CYLINDER
 10
5.4717541804884737
 20
3.977931654677711
 30
0.0
 11
5.4407541804884678
 21
3.977931654677711
 31
0.0
  0
LINE
  5
81
  8
ANKLE_-_CYLINDER
 10
4.9717541804884737
 20
3.9779316546777248
 30
0.0
 11
4.9407541804884678
 21
3.9779316546777181
 31
0.0
  0
LINE
  5
82
  8
ANKLE_-_CYLINDER
 10
6.8157541804884678
 20
5.3219316546777193
 30
0.0
 11
6.8157541804884678
 21
4.2394316546777304
 31
0.0
  0
LINE
  5
83
  8
ANKLE_-_CYLINDER
 10
6.784754180488477
 20
5.3219316546777264
 30
0.0
 11
6.7847541804884619
 21
4.2394316546777304
 31
0.0
  0
LINE
  5
84
  8
ANKLE_-_CYLINDER
 10
9.3157541804884687
 20
5.3219316546777122
 30
0.0
 11
9.3157541804884687
 21
4.2394316546777233
 31
0.0
  0
LINE
  5
85
  8
ANKLE_-_CYLINDER
 10
9.3467541804884746
 20
5.3219316546777122
 30
0.0
 11
9.3467541804884746
 21
4.2394316546777233
 31
0.0
  0
LINE
  5
86
  8
ANKLE_-_CYLINDER
 10
11.69075418048847
 20
4.8219316546777193
 30
0.0
 11
11.69075418048847
 21
4.4469316546777193
 31
0.0
  0
LINE
  5
87
  8
ANKLE_-_CYLINDER
 10
4.8157541804884678
 20
5.3219316546777193
 30
0.0
 11
4.8157541804884678
 21
3.946931654677726
 31
0.0
  0
LINE
  5
88
  8
ANKLE_-_CYLINDER
 10
4.9407541804884678
 20
5.3219316546777193
 30
0.0
 11
4.9407541804884678
 21
3.946931654677726
 31
0.0
  0
LINE
  5
89
  8
ANKLE_-_CYLINDER
 10
4.9717541804884737
 20
5.3219316546777193
 30
0.0
 11
4.9717541804884737
 21
3.946931654677726
 31
0.0
  0
LINE
  5
8A
  8
ANKLE_-_CYLINDER
 10
11.31575418048847
 20
5.3219316546777264
 30
0.0
 11
11.31575418048847
 21
3.9469316546777189
 31
0.0
  0
LINE
  5
8B
  8
ANKLE_-_CYLINDER
 10
11.19075418048847
 20
5.3219316546777264
 30
0.0
 11
11.19075418048847
 21
3.9469316546777189
 31
0.0
  0
LINE
  5
8C
  8
ANKLE_-_CYLINDER
 10
11.159754180488459
 20
5.3219316546777264
 30
0.0
 11
11.159754180488459
 21
3.9469316546777189
 31
0.0
  0
LINE
  5
8D
  8
ANKLE_-_CYLINDER
 10
11.34675418048846
 20
5.1876316546777304
 30
0.0
 11
11.346754180488469
 21
4.8219316546777327
 31
0.0
  0
LINE
  5
8E
  8
ANKLE_-_CYLINDER
 10
11.346754180488441
 20
4.4469316546777264
 30
0.0
 11
11.346754180488441
 21
4.0812316546777154
 31
0.0
  0
LINE
  5
8F
  8
ANKLE_-_CYLINDER
 10
5.4717541804884737
 20
5.3219316546777264
 30
0.0
 11
5.4717541804884604
 21
3.9469316546777189
 31
0.0
  0
LINE
  5
90
  8
ANKLE_-_CYLINDER
 10
5.4407541804884678
 20
5.3219316546777264
 30
0.0
 11
5.4407541804884678
 21
3.9469316546777189
 31
0.0
  0
LINE
  5
91
  8
ANKLE_-_CYLINDER
 10
10.659754180488459
 20
5.3219316546777122
 30
0.0
 11
10.659754180488459
 21
3.9469316546777189
 31
0.0
  0
LINE
  5
92
  8
ANKLE_-_CYLINDER
 10
10.69075418048847
 20
5.3219316546777122
 30
0.0
 11
10.69075418048847
 21
3.9469316546777189
 31
0.0
  0
LINE
  5
93
  8
ANKLE_-_CYLINDER
 10
11.31575418048847
 20
5.1969316546777264
 30
0.0
 11
11.34675418048846
 21
5.1876316546777304
 31
0.0
  0
LINE
  5
94
  8
ANKLE_-_CYLINDER
 10
11.31575418048847
 20
4.0719316546777193
 30
0.0
 11
11.346754180488441
 21
4.0812316546777154
 31
0.0
  0
LINE
  5
95
  8
ANKLE_-_CYLINDER
 10
4.4407541804884678
 20
4.8219316546777193
 30
0.0
 11
4.4407541804884678
 21
4.4469316546777193
 31
0.0
  0
LINE
  5
96
  8
ANKLE_-_CYLINDER
 10
4.7847541804884912
 20
5.1876316546777304
 30
0.0
 11
4.7847541804884912
 21
4.8219316546777327
 31
0.0
  0
LINE
  5
97
  8
ANKLE_-_CYLINDER
 10
4.7847541804884912
 20
4.4469316546777264
 30
0.0
 11
4.7847541804884912
 21
4.0812316546777154
 31
0.0
  0
LINE
  5
98
  8
ANKLE_-_CYLINDER
 10
4.815754180488482
 20
5.1969316546777264
 30
0.0
 11
4.7847541804884912
 21
5.1876316546777304
 31
0.0
  0
LINE
  5
99
  8
ANKLE_-_CYLINDER
 10
4.815754180488482
 20
4.0719316546777193
 30
0.0
 11
4.7847541804884912
 21
4.0812316546777216
 31
0.0
  0
LINE
  5
9A
  8
ANKLE_-_CYLINDER
 10
5.5347541804884619
 20
3.946931654677726
 30
0.0
 11
5.5347541804884619
 21
4.2394316546777304
 31
0.0
  0
LINE
  5
9B
  8
ANKLE_-_CYLINDER
 10
10.596754180488469
 20
3.946931654677726
 30
0.0
 11
10.596754180488469
 21
4.2394316546777233
 31
0.0
  0
LINE
  5
9C
  8
ANKLE_-_CYLINDER
 10
10.596754180488469
 20
4.2394316546777233
 30
0.0
 11
5.5347541804884619
 21
4.2394316546777304
 31
0.0
  0
LINE
  5
9D
  8
ANKLE_-_CYLINDER
 10
11.69075418048847
 20
4.4469316546777264
 30
0.0
 11
11.34675418048846
 21
4.4469316546777193
 31
0.0
  0
LINE
  5
9E
  8
ANKLE_-_CYLINDER
 10
4.7847541804884912
 20
4.4469316546777193
 30
0.0
 11
4.440754180488482
 21
4.4469316546777264
 31
0.0
  0
LINE
  5
9F
  8
ANKLE_-_CYLINDER
 10
11.69075418048847
 20
4.8219316546777264
 30
0.0
 11
11.34675418048846
 21
4.8219316546777264
 31
0.0
  0
LINE
  5
A0
  8
ANKLE_-_CYLINDER
 10
4.7847541804884912
 20
4.8219316546777264
 30
0.0
 11
4.440754180488482
 21
4.8219316546777264
 31
0.0
  0
LINE
  5
A1
  8
DIMENSIONS
 10
10.596754180488469
 20
3.884431654677726
 30
0.0
 11
10.596754180488469
 21
2.759431654677726
 31
0.0
  0
LINE
  5
A3
  8
DIMENSIONS
 10
5.5347541804884619
 20
3.884431654677726
 30
0.0
 11
5.5347541804884619
 21
2.759431654677726
 31
0.0
  0
LINE
  5
A4
  8
DIMENSIONS
 10
10.284254180488469
 20
2.821931654677726
 30
0.0
 11
8.7845041804884687
 21
2.821931654677726
 31
0.0
  0
LINE
  5
A5
  8
DIMENSIONS
 10
5.8472541804884619
 20
2.821931654677726
 30
0.0
 11
7.3470041804884678
 21
2.821931654677726
 31
0.0
  0
SOLID
  5
A6
  8
DIMENSIONS
 10
10.284254180488469
 20
2.8740149880110621
 30
0.0
 11
10.284254180488469
 21
2.7698483213443899
 31
0.0
 12
10.596754180488469
 22
2.821931654677726
 32
0.0
 13
10.596754180488469
 23
2.821931654677726
 33
0.0
  0
SOLID
  5
A7
  8
DIMENSIONS
 10
5.8472541804884619
 20
2.8740149880110621
 30
0.0
 11
5.8472541804884619
 21
2.7698483213443899
 31
0.0
 12
5.5347541804884619
 22
2.821931654677726
 32
0.0
 13
5.5347541804884619
 23
2.821931654677726
 33
0.0
  0
TEXT
  5
A8
  8
DIMENSIONS
 10
7.4407541804884678
 20
2.665681654677726
 30
0.0
 40
0.3125
  1
5.062
  0
LINE
  5
A9
  8
DIMENSIONS
 10
11.34675418048846
 20
5.2501316546777304
 30
0.0
 11
11.34675418048846
 21
6.3844316546777264
 31
0.0
  0
LINE
  5
AA
  8
DIMENSIONS
 10
4.7847541804884912
 20
5.2501316546777304
 30
0.0
 11
4.7847541804884912
 21
6.3844316546777264
 31
0.0
  0
LINE
  5
AB
  8
DIMENSIONS
 10
11.03425418048846
 20
6.3219316546777264
 30
0.0
 11
8.7845041804884687
 21
6.3219316546777264
 31
0.0
  0
LINE
  5
AC
  8
DIMENSIONS
 10
5.0972541804884912
 20
6.3219316546777264
 30
0.0
 11
7.3470041804884678
 21
6.3219316546777264
 31
0.0
  0
SOLID
  5
AD
  8
DIMENSIONS
 10
11.03425418048846
 20
6.3740149880110621
 30
0.0
 11
11.03425418048846
 21
6.2698483213443899
 31
0.0
 12
11.34675418048846
 22
6.3219316546777264
 32
0.0
 13
11.34675418048846
 23
6.3219316546777264
 33
0.0
  0
SOLID
  5
AE
  8
DIMENSIONS
 10
5.0972541804884912
 20
6.3740149880110621
 30
0.0
 11
5.0972541804884912
 21
6.2698483213443899
 31
0.0
 12
4.7847541804884912
 22
6.3219316546777264
 32
0.0
 13
4.7847541804884912
 23
6.3219316546777264
 33
0.0
  0
TEXT
  5
AF
  8
DIMENSIONS
 10
7.4407541804884678
 20
6.1656816546777264
 30
0.0
 40
0.3125
  1
6.562
  0
LINE
  5
B0
  8
DIMENSIONS
 10
11.69075418048847
 20
4.8844316546777264
 30
0.0
 11
11.69075418048847
 21
7.3844316546777264
 31
0.0
  0
LINE
  5
B1
  8
DIMENSIONS
 10
4.4407541804884678
 20
4.8844316546777264
 30
0.0
 11
4.4407541804884678
 21
7.3844316546777264
 31
0.0
  0
LINE
  5
B2
  8
DIMENSIONS
 10
11.37825418048847
 20
7.3219316546777264
 30
0.0
 11
8.7845041804884687
 21
7.3219316546777264
 31
0.0
  0
LINE
  5
B3
  8
DIMENSIONS
 10
4.7532541804884678
 20
7.3219316546777264
 30
0.0
 11
7.3470041804884678
 21
7.3219316546777264
 31
0.0
  0
SOLID
  5
B4
  8
DIMENSIONS
 10
11.37825418048847
 20
7.3740149880110621
 30
0.0
 11
11.37825418048847
 21
7.2698483213443899
 31
0.0
 12
11.69075418048847
 22
7.3219316546777264
 32
0.0
 13
11.69075418048847
 23
7.3219316546777264
 33
0.0
  0
SOLID
  5
B5
  8
DIMENSIONS
 10
4.7532541804884678
 20
7.3740149880110621
 30
0.0
 11
4.7532541804884678
 21
7.2698483213443899
 31
0.0
 12
4.4407541804884678
 22
7.3219316546777264
 32
0.0
 13
4.4407541804884678
 23
7.3219316546777264
 33
0.0
  0
TEXT
  5
B6
  8
DIMENSIONS
 10
7.4407541804884678
 20
7.1656816546777264
 30
0.0
 40
0.3125
  1
7.250
  0
LINE
  5
B7
  8
DIMENSIONS
 10
11.37825418048847
 20
11.22191285618786
 30
0.0
 11
13.75325418048847
 21
11.22191285618786
 31
0.0
  0
LINE
  5
B8
  8
DIMENSIONS
 10
11.37825418048847
 20
12.34691285618787
 30
0.0
 11
13.75325418048847
 21
12.34691285618787
 31
0.0
  0
LINE
  5
B9
  8
DIMENSIONS
 10
13.69075418048847
 20
10.90941285618786
 30
0.0
 11
13.69075418048847
 21
10.59691285618786
 31
0.0
  0
LINE
  5
BA
  8
DIMENSIONS
 10
13.69075418048847
 20
12.65941285618787
 30
0.0
 11
13.69075418048847
 21
12.97191285618787
 31
0.0
  0
SOLID
  5
BB
  8
DIMENSIONS
 10
13.63867084715514
 20
10.90941285618786
 30
0.0
 11
13.74283751382181
 21
10.90941285618786
 31
0.0
 12
13.69075418048847
 22
11.22191285618786
 32
0.0
 13
13.69075418048847
 23
11.22191285618786
 33
0.0
  0
SOLID
  5
BC
  8
DIMENSIONS
 10
13.63867084715514
 20
12.65941285618787
 30
0.0
 11
13.74283751382181
 21
12.65941285618787
 31
0.0
 12
13.69075418048847
 22
12.34691285618787
 32
0.0
 13
13.69075418048847
 23
12.34691285618787
 33
0.0
  0
TEXT
  5
BD
  8
DIMENSIONS
 10
13.05611464034402
 20
11.62816285618787
 30
0.0
 40
0.3125
  1
%%C1.125
  0
LINE
  5
BE
  8
DIMENSIONS
 10
11.75325418048847
 20
12.234412856187859
 30
0.0
 11
12.75325418048847
 21
12.234412856187859
 31
0.0
  0
LINE
  5
BF
  8
DIMENSIONS
 10
11.75325418048847
 20
11.334412856187861
 30
0.0
 11
12.75325418048847
 21
11.334412856187861
 31
0.0
  0
LINE
  5
C0
  8
DIMENSIONS
 10
12.69075418048847
 20
12.546912856187859
 30
0.0
 11
12.69075418048847
 21
12.859412856187859
 31
0.0
  0
LINE
  5
C1
  8
DIMENSIONS
 10
12.69075418048847
 20
11.021912856187861
 30
0.0
 11
12.69075418048847
 21
10.09691285618787
 31
0.0
  0
SOLID
  5
C2
  8
DIMENSIONS
 10
12.63867084715514
 20
12.546912856187859
 30
0.0
 11
12.74283751382181
 21
12.546912856187859
 31
0.0
 12
12.69075418048847
 22
12.234412856187859
 32
0.0
 13
12.69075418048847
 23
12.234412856187859
 33
0.0
  0
SOLID
  5
C3
  8
DIMENSIONS
 10
12.63867084715514
 20
11.021912856187861
 30
0.0
 11
12.74283751382181
 21
11.021912856187861
 31
0.0
 12
12.69075418048847
 22
11.334412856187861
 32
0.0
 13
12.69075418048847
 23
11.334412856187861
 33
0.0
  0
TEXT
  5
C4
  8
DIMENSIONS
 10
13.174031886914481
 20
9.9613627802722942
 30
0.0
 40
0.3125
  1
%%C0.900
  0
LINE
  5
C5
  8
DIMENSIONS
 10
16.748101287151979
 20
11.09691285618786
 30
0.0
 11
18.36933046013591
 21
11.09691285618786
 31
0.0
  0
LINE
  5
C6
  8
DIMENSIONS
 10
16.748101287151979
 20
12.47191285618786
 30
0.0
 11
18.36933046013591
 21
12.47191285618786
 31
0.0
  0
LINE
  5
C7
  8
DIMENSIONS
 10
18.30683046013591
 20
11.40941285618786
 30
0.0
 11
18.30683046013591
 21
11.53441285618786
 31
0.0
  0
LINE
  5
C8
  8
DIMENSIONS
 10
18.30683046013591
 20
12.15941285618786
 30
0.0
 11
18.30683046013591
 21
12.03441285618786
 31
0.0
  0
SOLID
  5
C9
  8
DIMENSIONS
 10
18.254747126802599
 20
11.40941285618786
 30
0.0
 11
18.358913793469231
 21
11.40941285618786
 31
0.0
 12
18.30683046013591
 22
11.09691285618786
 32
0.0
 13
18.30683046013591
 23
11.09691285618786
 33
0.0
  0
SOLID
  5
CA
  8
DIMENSIONS
 10
18.254747126802599
 20
12.15941285618786
 30
0.0
 11
18.358913793469231
 21
12.15941285618786
 31
0.0
 12
18.30683046013591
 22
12.47191285618786
 32
0.0
 13
18.30683046013591
 23
12.47191285618786
 33
0.0
  0
TEXT
  5
CB
  8
DIMENSIONS
 10
17.573265458479181
 20
11.62816285618787
 30
0.0
 40
0.3125
  1
%%C1.375
  0
LINE
  5
CC
  8
DIMENSIONS
 10
10.413179542643901
 20
4.6344316546777193
 30
0.0
 11
12.75325418048847
 21
4.6344316546777193
 31
0.0
  0
LINE
  5
CD
  8
DIMENSIONS
 10
10.659254180488469
 20
4.2394316546777233
 30
0.0
 11
12.75325418048847
 21
4.2394316546777233
 31
0.0
  0
LINE
  5
CE
  8
DIMENSIONS
 10
12.69075418048847
 20
4.9469316546777193
 30
0.0
 11
12.69075418048847
 21
5.2594316546777193
 31
0.0
  0
LINE
  5
CF
  8
DIMENSIONS
 10
12.69075418048847
 20
3.9269316546777229
 30
0.0
 11
12.69075418048847
 21
3.2454267525394371
 31
0.0
  0
LINE
  5
D0
  8
DIMENSIONS
 10
13.00325418048847
 20
3.2454267525394371
 30
0.0
 11
12.69075418048847
 21
3.2454267525394371
 31
0.0
  0
SOLID
  5
D1
  8
DIMENSIONS
 10
12.63867084715514
 20
4.9469316546777193
 30
0.0
 11
12.74283751382181
 21
4.9469316546777193
 31
0.0
 12
12.69075418048847
 22
4.6344316546777193
 32
0.0
 13
12.69075418048847
 23
4.6344316546777193
 33
0.0
  0
SOLID
  5
D2
  8
DIMENSIONS
 10
12.63867084715514
 20
3.9269316546777229
 30
0.0
 11
12.74283751382181
 21
3.9269316546777229
 31
0.0
 12
12.69075418048847
 22
4.2394316546777233
 32
0.0
 13
12.69075418048847
 23
4.2394316546777233
 33
0.0
  0
TEXT
  5
D3
  8
DIMENSIONS
 10
13.2635716317247
 20
3.0891767525394438
 30
0.0
 40
0.3125
  1
0.395
  0
LINE
  5
D4
  8
DIMENSIONS
 10
11.75325418048847
 20
4.4469316546777264
 30
0.0
 11
13.75325418048847
 21
4.4469316546777264
 31
0.0
  0
LINE
  5
D5
  8
DIMENSIONS
 10
11.75325418048847
 20
4.8219316546777264
 30
0.0
 11
13.75325418048847
 21
4.8219316546777264
 31
0.0
  0
LINE
  5
D6
  8
DIMENSIONS
 10
13.69075418048847
 20
4.1344316546777264
 30
0.0
 11
13.69075418048847
 21
3.821931654677726
 31
0.0
  0
LINE
  5
D7
  8
DIMENSIONS
 10
13.69075418048847
 20
5.1344316546777264
 30
0.0
 11
13.69075418048847
 21
5.631434201463918
 31
0.0
  0
LINE
  5
D8
  8
DIMENSIONS
 10
13.69075418048847
 20
5.631434201463918
 30
0.0
 11
14.00325418048847
 21
5.631434201463918
 31
0.0
  0
SOLID
  5
D9
  8
DIMENSIONS
 10
13.63867084715514
 20
4.1344316546777264
 30
0.0
 11
13.74283751382181
 21
4.1344316546777264
 31
0.0
 12
13.69075418048847
 22
4.4469316546777264
 32
0.0
 13
13.69075418048847
 23
4.4469316546777264
 33
0.0
  0
SOLID
  5
DA
  8
DIMENSIONS
 10
13.63867084715514
 20
5.1344316546777264
 30
0.0
 11
13.74283751382181
 21
5.1344316546777264
 31
0.0
 12
13.69075418048847
 22
4.8219316546777264
 32
0.0
 13
13.69075418048847
 23
4.8219316546777264
 33
0.0
  0
TEXT
  5
DB
  8
DIMENSIONS
 10
14.09700418048847
 20
5.4751842014639251
 30
0.0
 40
0.3125
  1
0.375
  0
SOLID
  5
DC
  8
DIMENSIONS
 10
11.365429599912339
 20
12.736218401835711
 30
0.0
 11
11.19075418048847
 21
12.47191285618787
 31
0.0
 12
11.27026696784149
 22
12.77858310296519
 32
0.0
 13
11.27026696784149
 23
12.77858310296519
 33
0.0
1001
ACAD
1000
DSTYLE
1002
{
1070
   147
1040
0.09375
1070
    77
1070
     0
1002
}
  0
LINE
  5
DD
  8
DIMENSIONS
 10
11.317848283876931
 20
12.75740075240045
 30
0.0
 11
11.635936288292481
 21
13.47191285618786
 31
0.0
1001
ACAD
1000
DSTYLE
1002
{
1070
   147
1040
0.09375
1070
    77
1070
     0
1002
}
  0
LINE
  5
DE
  8
DIMENSIONS
 10
11.635936288292481
 20
13.47191285618786
 30
0.0
 11
11.948436288292481
 21
13.47191285618786
 31
0.0
1001
ACAD
1000
DSTYLE
1002
{
1070
   147
1040
0.09375
1070
    77
1070
     0
1002
}
  0
TEXT
  5
DF
  8
DIMENSIONS
 10
12.042186288292481
 20
13.31566285618786
 30
0.0
 40
0.3125
  1
.031x.031 TYPICAL
  0
LINE
  5
E0
  8
DIMENSIONS
 10
13.00325418048847
 20
10.09691285618787
 30
0.0
 11
12.69075418048847
 21
10.09691285618787
 31
0.0
  0
LINE
  5
E1
  8
DIMENSIONS
 10
9.3157541804884811
 20
12.53441285618786
 30
0.0
 11
9.3157541804884811
 21
13.53441285618786
 31
0.0
  0
LINE
  5
E2
  8
DIMENSIONS
 10
6.8157541804884678
 20
12.53441285618787
 30
0.0
 11
6.8157541804884678
 21
13.53441285618786
 31
0.0
  0
LINE
  5
E3
  8
DIMENSIONS
 10
9.0032541804884811
 20
13.47191285618786
 30
0.0
 11
8.7845041804884687
 21
13.47191285618786
 31
0.0
  0
LINE
  5
E4
  8
DIMENSIONS
 10
7.1282541804884678
 20
13.47191285618786
 30
0.0
 11
7.3470041804884678
 21
13.47191285618786
 31
0.0
  0
SOLID
  5
E5
  8
DIMENSIONS
 10
9.0032541804884811
 20
13.523996189521201
 30
0.0
 11
9.0032541804884811
 21
13.419829522854529
 31
0.0
 12
9.3157541804884811
 22
13.47191285618786
 32
0.0
 13
9.3157541804884811
 23
13.47191285618786
 33
0.0
  0
SOLID
  5
E6
  8
DIMENSIONS
 10
7.1282541804884678
 20
13.523996189521201
 30
0.0
 11
7.1282541804884678
 21
13.419829522854529
 31
0.0
 12
6.8157541804884678
 22
13.47191285618786
 32
0.0
 13
6.8157541804884678
 23
13.47191285618786
 33
0.0
  0
TEXT
  5
E7
  8
DIMENSIONS
 10
7.4407541804884678
 20
13.31566285618786
 30
0.0
 40
0.3125
  1
2.500
  0
LINE
  5
E8
  8
DIMENSIONS
 10
10.659754180488459
 20
11.03441285618786
 30
0.0
 11
10.659754180488459
 21
10.03441285618787
 31
0.0
  0
LINE
  5
E9
  8
DIMENSIONS
 10
5.4717541804884604
 20
11.03441285618787
 30
0.0
 11
5.4717541804884604
 21
10.03441285618787
 31
0.0
  0
LINE
  5
EA
  8
DIMENSIONS
 10
10.347254180488459
 20
10.09691285618787
 30
0.0
 11
8.7547422757265707
 21
10.09691285618787
 31
0.0
  0
LINE
  5
EB
  8
DIMENSIONS
 10
5.7842541804884604
 20
10.09691285618787
 30
0.0
 11
7.3767660852503658
 21
10.09691285618787
 31
0.0
  0
SOLID
  5
EC
  8
DIMENSIONS
 10
10.347254180488459
 20
10.148996189521201
 30
0.0
 11
10.347254180488459
 21
10.044829522854529
 31
0.0
 12
10.659754180488459
 22
10.09691285618787
 32
0.0
 13
10.659754180488459
 23
10.09691285618787
 33
0.0
  0
SOLID
  5
ED
  8
DIMENSIONS
 10
5.7842541804884604
 20
10.148996189521201
 30
0.0
 11
5.7842541804884604
 21
10.044829522854529
 31
0.0
 12
5.4717541804884604
 22
10.09691285618787
 32
0.0
 13
5.4717541804884604
 23
10.09691285618787
 33
0.0
  0
TEXT
  5
EE
  8
DIMENSIONS
 10
7.4705160852503658
 20
9.9406628561878705
 30
0.0
 40
0.3125
  1
5.188
  0
LINE
  5
EF
  8
DIMENSIONS
 10
11.159754180488459
 20
11.03441285618786
 30
0.0
 11
11.159754180488459
 21
9.0344128561878705
 31
0.0
  0
LINE
  5
F0
  8
DIMENSIONS
 10
4.9717541804884737
 20
11.03441285618786
 30
0.0
 11
4.9717541804884737
 21
9.0344128561878705
 31
0.0
  0
LINE
  5
F1
  8
DIMENSIONS
 10
10.847254180488459
 20
9.0969128561878705
 30
0.0
 11
8.7547422757265707
 21
9.0969128561878705
 31
0.0
  0
LINE
  5
F2
  8
DIMENSIONS
 10
5.2842541804884737
 20
9.0969128561878705
 30
0.0
 11
7.3767660852503658
 21
9.0969128561878705
 31
0.0
  0
SOLID
  5
F3
  8
DIMENSIONS
 10
10.847254180488459
 20
9.1489961895212062
 30
0.0
 11
10.847254180488459
 21
9.0448295228545348
 31
0.0
 12
11.159754180488459
 22
9.0969128561878705
 32
0.0
 13
11.159754180488459
 23
9.0969128561878705
 33
0.0
  0
SOLID
  5
F4
  8
DIMENSIONS
 10
5.2842541804884737
 20
9.1489961895212062
 30
0.0
 11
5.2842541804884737
 21
9.0448295228545348
 31
0.0
 12
4.9717541804884737
 22
9.0969128561878705
 32
0.0
 13
4.9717541804884737
 23
9.0969128561878705
 33
0.0
  0
TEXT
  5
F5
  8
DIMENSIONS
 10
7.4705160852503658
 20
8.9406628561878705
 30
0.0
 40
0.3125
  1
6.188
  0
TEXT
  5
547
  8
0
  6
CONTINUOUS
 10
75.845192034391573
 20
18.081728105054371
 30
0.0
 40
0.12
  1
 
 51
7.0
  0
TEXT
  5
548
  8
0
  6
CONTINUOUS
 10
88.289288799871471
 20
25.144602534786031
 30
0.0
 40
0.24
  1
 
 51
7.0
  0
TEXT
  5
549
  8
0
  6
CONTINUOUS
 10
97.499053811784748
 20
24.82459254820894
 30
0.0
 40
0.24
  1
 
 51
7.0
  0
TEXT
  5
54A
  8
0
  6
CONTINUOUS
 10
107.3030132962174
 20
7.9620117486816184
 30
0.0
 40
0.24
  1
 
 51
7.0
  0
LINE
  5
602
  8
0
 10
0.0
 20
0.0
 30
0.0
 11
0.0
 21
17.0
 31
0.0
  0
LINE
  5
603
  8
0
 10
22.0
 20
0.0
 30
0.0
 11
22.0
 21
17.0
 31
0.0
  0
LINE
  5
604
  8
0
 10
0.0
 20
0.0
 30
0.0
 11
22.0
 21
0.0
 31
0.0
  0
LINE
  5
605
  8
0
 10
0.0
 20
17.0
 30
0.0
 11
22.0
 21
17.0
 31
0.0
  0
LINE
  5
6A3
  8
FORM
 10
21.403846140107252
 20
0.7499999996674092
 30
0.0
 11
21.403846140107252
 21
15.153846144098431
 31
0.0
  0
LINE
  5
6A4
  8
FORM
 10
21.249999986363441
 20
15.307692297842239
 30
0.0
 11
0.7499999996674376
 21
15.307692297842239
 31
0.0
  0
LINE
  5
6A5
  8
FORM
 10
21.249999986363441
 20
0.5961538459236025
 30
0.0
 11
0.7499999996674376
 21
0.5961538459235954
 31
0.0
  0
LINE
  5
6A6
  8
FORM
 10
0.5961538459236168
 20
0.7499999996674092
 30
0.0
 11
0.5961538459236168
 21
15.153846144098431
 31
0.0
  0
TEXT
  5
6A7
  8
FORM
 10
18.362324965798841
 20
2.6705065993040051
 30
0.0
 40
0.260516826749781
  1
CYLINDER
 72
     1
 11
19.243119951476672
 21
2.6705065993040051
 31
0.0
  0
TEXT
  5
6A8
  8
FORM
 10
18.653855700495019
 20
2.1193155254872589
 30
0.0
 40
0.260516826749781
  1
ANKLE
 72
     1
 11
19.243119951476672
 21
2.1193155254872589
 31
0.0
  0
TEXT
  5
6A9
  8
FORM
 10
16.770574233580561
 20
1.1177623757995749
 30
0.0
 40
0.260516826749781
  1
ASTROMECH DROID
  0
TEXT
  5
6AA
  8
FORM
 10
20.85720038004996
 20
1.1278903102633671
 30
0.0
 40
0.260516826749781
  1
A
  0
TEXT
  5
6AB
  8
FORM
 10
17.25446024791373
 20
0.813671414000872
 30
0.0
 40
0.1042067306999124
  1
FULL
  0
TEXT
  5
6AC
  8
FORM
 10
20.593280544426019
 20
0.8165882189588344
 30
0.0
 40
0.1042067306999124
  1
1   1
  0
TEXT
  5
6AD
  8
FORM
 10
18.867373488668239
 20
0.8246381046439915
 30
0.0
 40
0.1042067306999124
  1
APRIL 2005
 72
     2
 11
19.770498488067489
 21
0.8246381046439915
 31
0.0
  0
TEXT
  5
6AE
  8
FORM
  6
CONTINUOUS
 10
18.118827913558601
 20
0.8235896747318066
 30
0.0
 40
0.0900346153247244
  1
DRAWN:
  0
TEXT
  5
6AF
  8
FORM
  6
CONTINUOUS
 10
16.72518466957764
 20
0.8236741054737031
 30
0.0
 40
0.0900346153247244
  1
SCALE:
  0
TEXT
  5
6B0
  8
FORM
  6
CONTINUOUS
 10
20.01795677316494
 20
0.8225458122742352
 30
0.0
 40
0.0900346153247244
  1
SHEET:   OF
  0
TEXT
  5
6B1
  8
FORM
  6
CONTINUOUS
 10
16.560769897877751
 20
1.5378028837587541
 30
0.0
 40
0.0900346153247244
  1
DRAWING NO.
  0
TEXT
  5
6B2
  8
FORM
  6
CONTINUOUS
 10
20.822311852397561
 20
1.537802883758743
 30
0.0
 40
0.0900346153247244
  1
REV.
 72
     1
 11
20.955220094067389
 21
1.537802883758743
 31
0.0
  0
LINE
  5
6B3
  8
FORM
  6
CONTINUOUS
 10
16.703251912464879
 20
3.3610038440844141
 30
0.0
 11
21.02491344805162
 21
3.3610038440844141
 31
0.0
  0
LINE
  5
6B4
  8
FORM
  6
CONTINUOUS
 10
16.478165374153061
 20
0.9750865379792159
 30
0.0
 11
16.478165374153029
 21
3.1359173057725931
 31
0.0
  0
LINE
  5
6B5
  8
FORM
  6
CONTINUOUS
 10
16.478165374153061
 20
1.672854806745828
 30
0.0
 11
21.249999986363441
 21
1.672854806745828
 31
0.0
  0
LINE
  5
6B6
  8
FORM
  6
CONTINUOUS
 10
16.478165374153061
 20
0.9750865379792159
 30
0.0
 11
21.249999986363441
 21
0.9750865379792159
 31
0.0
  0
LINE
  5
6B7
  8
FORM
  6
CONTINUOUS
 10
17.97804237543275
 20
0.9750865379792159
 30
0.0
 11
17.97804237543275
 21
0.7499999996674092
 31
0.0
  0
LINE
  5
6B8
  8
FORM
  6
CONTINUOUS
 10
19.950430811671389
 20
0.9723156702741989
 30
0.0
 11
19.950430811671389
 21
0.7472291319623921
 31
0.0
  0
LINE
  5
6B9
  8
FORM
  6
CONTINUOUS
 10
20.65524763562988
 20
1.672854806745828
 30
0.0
 11
20.65524763562988
 21
0.9750865379792159
 31
0.0
  0
ARC
  5
6BA
  8
FORM
 62
     5
 10
16.925603837263051
 20
2.683123263179624
 30
0.0
 40
0.0245481788339413
 50
152.18113099770551
 51
330.99098814993278
  0
ARC
  5
6BB
  8
FORM
 62
     5
 10
17.03186349061718
 20
2.8877559907035391
 30
0.0
 40
0.0215248522646385
 50
335.32315363464198
 51
152.6722492633036
  0
ARC
  5
6BC
  8
FORM
 62
     5
 10
18.67139281679863
 20
1.8778243841790809
 30
0.0
 40
1.9470863223045181
 50
148.41494327216151
 51
155.19852313243231
  0
ARC
  5
6BD
  8
FORM
 62
     5
 10
19.04826621925363
 20
1.7448079813832851
 30
0.0
 40
2.2963564077758769
 50
150.40875710206339
 51
156.20744757951141
  0
ARC
  5
6BE
  8
FORM
 62
     7
 10
16.856187689619201
 20
2.476891943456518
 30
0.0
 40
0.0328016362752216
 50
161.128725237971
 51
346.89295927401372
  0
ARC
  5
6BF
  8
FORM
 62
     7
 10
26.446981545233939
 20
-1.665659984064163
 30
0.0
 40
10.414927500982669
 50
153.58307292081309
 51
156.60691138966209
  0
ARC
  5
6C0
  8
FORM
 62
     7
 10
24.942765772362829
 20
-1.1245203992272681
 30
0.0
 40
8.873647082696257
 50
152.3409599977594
 51
152.9694116127464
  0
ARC
  5
6C1
  8
FORM
 62
     7
 10
25.042235970541071
 20
-1.413551413076795
 30
0.0
 40
9.0960831006715779
 50
153.3711283527573
 51
154.60402195655351
  0
ARC
  5
6C2
  8
FORM
 62
     7
 10
17.329398129118289
 20
2.8602652973761158
 30
0.0
 40
0.2358358050601862
 50
23.468725928191049
 51
88.151617587883351
  0
ARC
  5
6C3
  8
FORM
 62
     7
 10
17.33466889121355
 20
2.8754695652234821
 30
0.0
 40
0.2783521476800796
 50
18.23262529566551
 51
154.63608874642679
  0
ARC
  5
6C4
  8
FORM
 62
     7
 10
17.41806628342874
 20
2.9044827195306051
 30
0.0
 40
0.1900699214402894
 50
336.99722732837893
 51
341.11190659806488
  0
ARC
  5
6C5
  8
FORM
 62
     7
 10
17.429371041778779
 20
2.912888609699027
 30
0.0
 40
0.1244898949022119
 50
333.24704424527522
 51
339.12675173356178
  0
ARC
  5
6C6
  8
FORM
 62
     7
 10
17.547120806258562
 20
2.8541053585607901
 30
0.0
 40
0.007134896083525
 50
157.3747590211585
 51
243.18317341424029
  0
ARC
  5
6C7
  8
FORM
 62
     7
 10
17.589262332130431
 20
2.8313183495512071
 30
0.0
 40
0.0039211308505914
 50
246.7423667985764
 51
343.55073793579641
  0
ARC
  5
6C8
  8
FORM
 62
     7
 10
17.71265002297525
 20
3.1590467530149189
 30
0.0
 40
0.3541033340658146
 50
241.5396617947477
 51
249.33988332022491
  0
ARC
  5
6C9
  8
FORM
 62
     7
 10
17.465116861604141
 20
2.7835275642507962
 30
0.0
 40
0.0699031230302257
 50
210.28645373052609
 51
287.25915125833183
  0
ARC
  5
6CA
  8
FORM
 62
     7
 10
17.471123101482839
 20
2.7532989527990699
 30
0.0
 40
0.0393865134548433
 50
291.96730232828992
 51
10.20108836223371
  0
ARC
  5
6CB
  8
FORM
 62
     7
 10
17.159843992632862
 20
2.6859329108208518
 30
0.0
 40
0.2527202610277017
 50
14.28109924276106
 51
24.94726153987823
  0
ARC
  5
6CC
  8
FORM
 62
     7
 10
17.30724545805592
 20
2.7624795397720869
 30
0.0
 40
0.0870866377029319
 50
20.183063788867621
 51
47.833846572520187
  0
ARC
  5
6CD
  8
FORM
 62
     7
 10
17.323525970686489
 20
2.7183682645997709
 30
0.0
 40
0.1165593648186974
 50
68.784960310907422
 51
94.742087985452599
  0
ARC
  5
6CE
  8
FORM
 62
     7
 10
17.32225776675568
 20
2.7872533208520021
 30
0.0
 40
0.0480101674679103
 50
100.0375073429591
 51
170.98475346238999
  0
ARC
  5
6CF
  8
FORM
 62
     7
 10
17.548079884465121
 20
2.754066770453373
 30
0.0
 40
0.2762551956077745
 50
171.52589863719891
 51
197.494741096675
  0
ARC
  5
6D0
  8
FORM
 62
     7
 10
17.361988404409459
 20
2.757975203687443
 30
0.0
 40
0.1479164690482495
 50
0.8906501289532242
 51
49.113860192417171
  0
ARC
  5
6D1
  8
FORM
 62
     7
 10
17.330827327390121
 20
2.7851061194825268
 30
0.0
 40
0.1164203647136616
 50
99.869748807366761
 51
175.59516845025641
  0
ARC
  5
6D2
  8
FORM
 62
     7
 10
17.35181928853353
 20
2.721979015220195
 30
0.0
 40
0.1824780170187834
 50
54.104282451028169
 51
102.9674010870567
  0
ARC
  5
6D3
  8
FORM
 62
     7
 10
17.866825478371819
 20
2.8305495615738461
 30
0.0
 40
0.603682768180479
 50
195.32307896217739
 51
209.290843156958
  0
ARC
  5
6D4
  8
FORM
 62
     7
 10
17.676878331574731
 20
2.7315679572076941
 30
0.0
 40
0.4663319886455236
 50
172.3003020759547
 51
200.12627387409299
  0
ARC
  5
6D5
  8
FORM
 62
     7
 10
18.010296677355171
 20
2.8617220596188409
 30
0.0
 40
0.8242093741364085
 50
200.64629086238159
 51
210.0464960904439
  0
ARC
  5
6D6
  8
FORM
 62
     7
 10
16.87490984687733
 20
2.2228629736894798
 30
0.0
 40
0.5605059965149727
 50
28.431949107384298
 51
33.865461133002469
  0
ARC
  5
6D7
  8
FORM
 62
     7
 10
17.335282492148359
 20
2.4642291377128478
 30
0.0
 40
0.0413303405420145
 50
201.56446042640411
 51
38.094090168146302
  0
ARC
  5
6D8
  8
FORM
 62
     5
 10
17.698488306364109
 20
2.8075987703319072
 30
0.0
 40
0.0229902810191139
 50
227.6202696593605
 51
57.412112921204063
  0
ARC
  5
6D9
  8
FORM
 62
     5
 10
17.427351296879149
 20
2.453894972691713
 30
0.0
 40
0.4685807675213703
 50
52.766851639305898
 51
65.063571515457895
  0
ARC
  5
6DA
  8
FORM
 62
     5
 10
17.209234353189508
 20
2.115713416994772
 30
0.0
 40
0.8245845677332351
 50
54.932512589538803
 51
74.152868438598929
  0
ARC
  5
6DB
  8
FORM
 62
     5
 10
17.22112341118936
 20
1.8705744209651269
 30
0.0
 40
1.0600616451387339
 50
78.393012355262385
 51
89.647961077025343
  0
ARC
  5
6DC
  8
FORM
 62
     5
 10
17.225855158117209
 20
2.9613835761542329
 30
0.0
 40
0.0308190515998151
 50
183.9979944211656
 51
273.313807745882
  0
ARC
  5
6DD
  8
FORM
 62
     5
 10
17.329870384946641
 20
2.9695252211814269
 30
0.0
 40
0.135151603104915
 50
145.60859166919269
 51
184.36670732083471
  0
ARC
  5
6DE
  8
FORM
 62
     5
 10
17.246715832908791
 20
3.027923603152622
 30
0.0
 40
0.0335688941126511
 50
75.244714174009715
 51
147.6929850116162
  0
ARC
  5
6DF
  8
FORM
 62
     5
 10
16.846566400398309
 20
1.4922623483111219
 30
0.0
 40
1.6205076763160291
 50
61.637242241525243
 51
75.392005557716686
  0
ARC
  5
6E0
  8
FORM
 62
     5
 10
17.585771892302461
 20
2.8909845400545029
 30
0.0
 40
0.0409937741994102
 50
342.6982574268402
 51
41.67278378767756
  0
ARC
  5
6E1
  8
FORM
 62
     7
 10
17.41806628342874
 20
2.9044827195306051
 30
0.0
 40
0.1900699214402894
 50
5.6380312699923048
 51
17.79145636873681
  0
ARC
  5
6E2
  8
FORM
 62
     7
 10
17.5045622300951
 20
2.0088127942983891
 30
0.0
 40
0.0608207837544583
 50
88.432533024773406
 51
186.62631613112151
  0
ARC
  5
6E3
  8
FORM
 62
     7
 10
17.514107893903311
 20
2.0214944811508531
 30
0.0
 40
0.0726809031862866
 50
195.7266305128272
 51
285.3806868435185
  0
ARC
  5
6E4
  8
FORM
 62
     7
 10
17.428397303924321
 20
2.6646932328165849
 30
0.0
 40
0.7209618028535085
 50
278.37329371359471
 51
293.15208507016871
  0
ARC
  5
6E5
  8
FORM
 62
     7
 10
17.670280088548282
 20
2.2109164793858191
 30
0.0
 40
0.1486954171998164
 50
257.51805604168283
 51
277.23103351305667
  0
ARC
  5
6E6
  8
FORM
 62
     7
 10
17.67861701724112
 20
2.0887614153130118
 30
0.0
 40
0.0273997705390677
 50
292.26031345923337
 51
12.867379300523719
  0
ARC
  5
6E7
  8
FORM
 62
     7
 10
17.658243987918521
 20
2.0848332422543971
 30
0.0
 40
0.0481411784627428
 50
12.02537552739555
 51
52.143631645159317
  0
ARC
  5
6E8
  8
FORM
 62
     7
 10
18.68473167686761
 20
3.3322419147777782
 30
0.0
 40
1.5673362882102819
 50
219.60277928185971
 51
230.5002020408055
  0
ARC
  5
6E9
  8
FORM
 62
     7
 10
17.71719517775902
 20
2.5209914067630801
 30
0.0
 40
0.3048383262947374
 50
175.97523115435061
 51
218.04500009534141
  0
ARC
  5
6EA
  8
FORM
 62
     7
 10
17.587988709286751
 20
2.5516026198667592
 30
0.0
 40
0.1751226981011722
 50
149.96078860476399
 51
183.01641230856191
  0
ARC
  5
6EB
  8
FORM
 62
     7
 10
17.465652099646999
 20
2.6236413715572442
 30
0.0
 40
0.03317488584424
 50
69.764209445538683
 51
151.8988190455112
  0
ARC
  5
6EC
  8
FORM
 62
     7
 10
17.461738153470581
 20
2.621386420418637
 30
0.0
 40
0.0367584023789668
 50
357.6694469744499
 51
65.251102439515435
  0
ARC
  5
6ED
  8
FORM
 62
     7
 10
17.375127171955
 20
2.6142785816255478
 30
0.0
 40
0.1234666367742727
 50
345.36193237678458
 51
2.6056939300727819
  0
ARC
  5
6EE
  8
FORM
 62
     7
 10
17.770788346688299
 20
2.4976765653254129
 30
0.0
 40
0.289103498612585
 50
162.8186183088072
 51
185.35496664157321
  0
ARC
  5
6EF
  8
FORM
 62
     7
 10
17.738557938675601
 20
2.526678108373186
 30
0.0
 40
0.261669979998945
 50
192.3534994193023
 51
222.3020476696033
  0
ARC
  5
6F0
  8
FORM
 62
     7
 10
18.640000382871079
 20
3.2533952889623161
 30
0.0
 40
1.419181254971364
 50
219.50633019139829
 51
228.42762303996261
  0
ARC
  5
6F1
  8
FORM
 62
     7
 10
17.545150090279261
 20
1.9830014576086259
 30
0.0
 40
0.2588352891177654
 50
32.971129457978869
 51
53.728419363024337
  0
ARC
  5
6F2
  8
FORM
 62
     7
 10
17.685505274612321
 20
2.0841393566689059
 30
0.0
 40
0.0864595649942742
 50
287.74749415951351
 51
27.35211189662947
  0
ARC
  5
6F3
  8
FORM
 62
     7
 10
17.556150910590731
 20
1.521887384058928
 30
0.0
 40
0.5499940598264056
 50
81.426570944510203
 51
95.208118001959775
  0
ARC
  5
6F4
  8
FORM
 62
     7
 10
17.31874226594763
 20
2.379232385518228
 30
0.0
 40
0.0244848954091209
 50
325.52447187114308
 51
75.340502228459783
  0
ARC
  5
6F5
  8
FORM
 62
     7
 10
17.28857503182331
 20
2.4013816515593862
 30
0.0
 40
0.0619027859518531
 50
277.78730616127859
 51
324.42957968808531
  0
ARC
  5
6F6
  8
FORM
 62
     7
 10
17.277627430402191
 20
2.4116764447725738
 30
0.0
 40
0.0741905263351136
 50
243.48581874200181
 51
285.1065744639306
  0
ARC
  5
6F7
  8
FORM
 62
     7
 10
13.99616984532571
 20
-5.9734717723731041
 30
0.0
 40
9.0135811594364625
 50
68.327181839257534
 51
70.606105230637283
  0
ARC
  5
6F8
  8
FORM
 62
     7
 10
16.982860283602829
 20
2.502260489661857
 30
0.0
 40
0.0271571196358057
 50
76.445232091872299
 51
134.36352227876461
  0
ARC
  5
6F9
  8
FORM
 62
     7
 10
17.103601465049451
 20
2.316491870596419
 30
0.0
 40
0.2482433149023289
 50
124.2547762008316
 51
135.012931962436
  0
ARC
  5
6FA
  8
FORM
 62
     7
 10
16.932687772438332
 20
2.4840903864877362
 30
0.0
 40
0.0091691237651447
 50
120.5491196217084
 51
251.48388650457539
  0
ARC
  5
6FB
  8
FORM
 62
     7
 10
15.698852283122079
 20
-0.947959245240991
 30
0.0
 40
3.6379298384249581
 50
64.85742894317822
 51
67.515132469299331
  0
ARC
  5
6FC
  8
FORM
 62
     7
 10
17.23599357112948
 20
2.291795105104121
 30
0.0
 40
0.0343472402230129
 50
329.18566117941782
 51
69.527151249863806
  0
ARC
  5
6FD
  8
FORM
 62
     7
 10
17.145886072427881
 20
2.1556962750494151
 30
0.0
 40
0.1968392862921899
 50
58.747973844557571
 51
81.106226592028065
  0
ARC
  5
6FE
  8
FORM
 62
     7
 10
17.124947044127829
 20
2.0252080021495891
 30
0.0
 40
0.3289962935825703
 50
81.016817915507374
 51
97.679603827268224
  0
ARC
  5
6FF
  8
FORM
 62
     7
 10
17.159573600239298
 20
2.1240726877937131
 30
0.0
 40
0.2440398498458748
 50
121.5050128230593
 51
139.0957881060705
  0
ARC
  5
700
  8
FORM
 62
     7
 10
17.225825242067831
 20
2.2865562155100809
 30
0.0
 40
0.0415466234232141
 50
277.70569210516868
 51
342.69880024124109
  0
ARC
  5
701
  8
FORM
 62
     7
 10
17.213074197788071
 20
2.3334352792513711
 30
0.0
 40
0.0899365447321688
 50
250.08394506358289
 51
281.75453717228322
  0
ARC
  5
702
  8
FORM
 62
     7
 10
17.2424582627973
 20
2.3437609022874879
 30
0.0
 40
0.1122732419236369
 50
221.18187885427241
 51
237.68378775985289
  0
ARC
  5
703
  8
FORM
 62
     7
 10
17.11078230927049
 20
2.213603979985677
 30
0.0
 40
0.0733994924367979
 50
50.003848755011681
 51
75.5416830098399
  0
ARC
  5
704
  8
FORM
 62
     7
 10
17.10690002874345
 20
2.2402084319691471
 30
0.0
 40
0.0497074536252231
 50
63.4626603498468
 51
100.74200229027051
  0
ARC
  5
705
  8
FORM
 62
     7
 10
17.09763521067913
 20
2.2049366923578511
 30
0.0
 40
0.0841081409133923
 50
89.999999999999588
 51
125.5974615489027
  0
ARC
  5
706
  8
FORM
 62
     7
 10
18.09535908495533
 20
2.805145934228654
 30
0.0
 40
1.1637748462988311
 50
197.51922498184919
 51
203.981481444731
  0
ARC
  5
707
  8
FORM
 62
     7
 10
16.736982371619181
 20
2.433687501517297
 30
0.0
 40
0.3537389089231183
 50
346.52409876011302
 51
356.71498770316703
  0
ARC
  5
708
  8
FORM
 62
     7
 10
15.698852283122079
 20
-0.947959245240991
 30
0.0
 40
3.6379298384249581
 50
69.286600818944052
 51
70.22311760076802
  0
ARC
  5
709
  8
FORM
 62
     7
 10
16.92789692922846
 20
2.1257895907104252
 30
0.0
 40
0.1066736432871782
 50
245.40259669902051
 51
275.40975098180542
  0
ARC
  5
70A
  8
FORM
 62
     7
 10
17.301941284744
 20
1.9333049606058379
 30
0.0
 40
0.4239787481416163
 50
126.68044463040199
 51
139.78708822539889
  0
ARC
  5
70B
  8
FORM
 62
     7
 10
16.925901396850119
 20
2.42585100124619
 30
0.0
 40
0.4064386631288638
 50
271.69929119420118
 51
283.39540842056908
  0
ARC
  5
70C
  8
FORM
 62
     7
 10
17.685900196427319
 20
1.487877603185271
 30
0.0
 40
1.0089968057446299
 50
134.5410403491789
 51
138.91474429089899
  0
ARC
  5
70D
  8
FORM
 62
     7
 10
16.942625607711989
 20
2.1366275124138698
 30
0.0
 40
0.0266928289273625
 50
201.8252958964795
 51
267.16449786715452
  0
ARC
  5
70E
  8
FORM
 62
     7
 10
16.936879259411789
 20
2.1340951027918962
 30
0.0
 40
0.0204180021895292
 50
124.254854327418
 51
201.22329273937859
  0
ARC
  5
70F
  8
FORM
 62
     7
 10
16.999050226745201
 20
2.1174828639755172
 30
0.0
 40
0.0895139066856433
 50
283.5751770312794
 51
324.58969283639942
  0
ARC
  5
710
  8
FORM
 62
     7
 10
17.05010181640597
 20
2.0748500422369349
 30
0.0
 40
0.0237711578752802
 50
337.14160324238759
 51
47.56496670892831
  0
ARC
  5
711
  8
FORM
 62
     7
 10
17.01351320176212
 20
2.0225775754130799
 30
0.0
 40
0.0874305156836371
 50
52.990730681111657
 51
91.748895977531376
  0
ARC
  5
712
  8
FORM
 62
     7
 10
16.97607501860476
 20
2.3473211427073291
 30
0.0
 40
0.2398869733850244
 50
261.66603807207321
 51
278.33396192792679
  0
ARC
  5
713
  8
FORM
 62
     7
 10
16.904055290181631
 20
2.0802584334887442
 30
0.0
 40
0.0554174778483587
 50
192.64550774538381
 51
248.2223967256862
  0
ARC
  5
714
  8
FORM
 62
     7
 10
16.890435234000019
 20
2.0865365172575769
 30
0.0
 40
0.0444453205431241
 50
178.88427582775461
 51
204.46998391858139
  0
ARC
  5
715
  8
FORM
 62
     7
 10
17.00038134049046
 20
2.0753041716250129
 30
0.0
 40
0.1548562786887746
 50
140.54690015149379
 51
175.5193383191162
  0
ARC
  5
716
  8
FORM
 62
     7
 10
18.525663181526959
 20
0.8608942872864346
 30
0.0
 40
2.1045236570324608
 50
137.45643980933039
 51
141.40545593619069
  0
POLYLINE
  5
717
  8
FORM
 62
     1
 10
17.275622491608207
 20
3.0402781737931797
 30
0.0
 66
     1
 70
     8
  0
VERTEX
  8
FORM
  5
8C5
 10
17.2756
 20
3.04028
 30
0.000000
  70
    32
  0
VERTEX
  8
FORM
  5
8C6
 10
17.2747
 20
3.04062
 30
0.000000
  70
    32
  0
VERTEX
  8
FORM
  5
8C7
 10
17.2737
 20
3.04086
 30
0.000000
  70
    32
  0
VERTEX
  8
FORM
  5
8C8
 10
17.2727
 20
3.04098
 30
0.000000
  70
    32
  0
VERTEX
  8
FORM
  5
8C9
 10
17.2716
 20
3.04100
 30
0.000000
  70
    32
  0
VERTEX
  8
FORM
  5
8CA
 10
17.2705
 20
3.04091
 30
0.000000
  70
    32
  0
VERTEX
  8
FORM
  5
8CB
 10
17.2694
 20
3.04070
 30
0.000000
  70
    32
  0
VERTEX
  8
FORM
  5
8CC
 10
17.2682
 20
3.04039
 30
0.000000
  70
    32
  0
VERTEX
  8
FORM
  5
8CD
 10
17.2670
 20
3.03997
 30
0.000000
  70
    32
  0
VERTEX
  8
FORM
  5
8CE
 10
17.2658
 20
3.03944
 30
0.000000
  70
    32
  0
VERTEX
  8
FORM
  5
8CF
 10
17.2646
 20
3.03880
 30
0.000000
  70
    32
  0
VERTEX
  8
FORM
  5
8D0
 10
17.2633
 20
3.03806
 30
0.000000
  70
    32
  0
VERTEX
  8
FORM
  5
8D1
 10
17.2620
 20
3.03722
 30
0.000000
  70
    32
  0
VERTEX
  8
FORM
  5
8D2
 10
17.2607
 20
3.03627
 30
0.000000
  70
    32
  0
VERTEX
  8
FORM
  5
8D3
 10
17.2594
 20
3.03523
 30
0.000000
  70
    32
  0
VERTEX
  8
FORM
  5
8D4
 10
17.2581
 20
3.03409
 30
0.000000
  70
    32
  0
VERTEX
  8
FORM
  5
8D5
 10
17.2568
 20
3.03286
 30
0.000000
  70
    32
  0
VERTEX
  8
FORM
  5
8D6
 10
17.2554
 20
3.03154
 30
0.000000
  70
    32
  0
VERTEX
  8
FORM
  5
8D7
 10
17.2541
 20
3.03013
 30
0.000000
  70
    32
  0
VERTEX
  8
FORM
  5
8D8
 10
17.2528
 20
3.02864
 30
0.000000
  70
    32
  0
VERTEX
  8
FORM
  5
8D9
 10
17.2515
 20
3.02706
 30
0.000000
  70
    32
  0
VERTEX
  8
FORM
  5
8DA
 10
17.2502
 20
3.02541
 30
0.000000
  70
    32
  0
VERTEX
  8
FORM
  5
8DB
 10
17.2489
 20
3.02369
 30
0.000000
  70
    32
  0
VERTEX
  8
FORM
  5
8DC
 10
17.2476
 20
3.02190
 30
0.000000
  70
    32
  0
VERTEX
  8
FORM
  5
8DD
 10
17.2464
 20
3.02004
 30
0.000000
  70
    32
  0
VERTEX
  8
FORM
  5
8DE
 10
17.2451
 20
3.01813
 30
0.000000
  70
    32
  0
VERTEX
  8
FORM
  5
8DF
 10
17.2439
 20
3.01616
 30
0.000000
  70
    32
  0
VERTEX
  8
FORM
  5
8E0
 10
17.2427
 20
3.01414
 30
0.000000
  70
    32
  0
VERTEX
  8
FORM
  5
8E1
 10
17.2416
 20
3.01208
 30
0.000000
  70
    32
  0
VERTEX
  8
FORM
  5
8E2
 10
17.2405
 20
3.00997
 30
0.000000
  70
    32
  0
VERTEX
  8
FORM
  5
8E3
 10
17.2394
 20
3.00783
 30
0.000000
  70
    32
  0
VERTEX
  8
FORM
  5
8E4
 10
17.2384
 20
3.00566
 30
0.000000
  70
    32
  0
VERTEX
  8
FORM
  5
8E5
 10
17.2374
 20
3.00347
 30
0.000000
  70
    32
  0
VERTEX
  8
FORM
  5
8E6
 10
17.2364
 20
3.00125
 30
0.000000
  70
    32
  0
VERTEX
  8
FORM
  5
8E7
 10
17.2356
 20
2.99902
 30
0.000000
  70
    32
  0
VERTEX
  8
FORM
  5
8E8
 10
17.2347
 20
2.99679
 30
0.000000
  70
    32
  0
VERTEX
  8
FORM
  5
8E9
 10
17.2339
 20
2.99454
 30
0.000000
  70
    32
  0
VERTEX
  8
FORM
  5
8EA
 10
17.2332
 20
2.99231
 30
0.000000
  70
    32
  0
VERTEX
  8
FORM
  5
8EB
 10
17.2325
 20
2.99007
 30
0.000000
  70
    32
  0
VERTEX
  8
FORM
  5
8EC
 10
17.2318
 20
2.98785
 30
0.000000
  70
    32
  0
VERTEX
  8
FORM
  5
8ED
 10
17.2313
 20
2.98565
 30
0.000000
  70
    32
  0
VERTEX
  8
FORM
  5
8EE
 10
17.2307
 20
2.98348
 30
0.000000
  70
    32
  0
VERTEX
  8
FORM
  5
8EF
 10
17.2303
 20
2.98133
 30
0.000000
  70
    32
  0
VERTEX
  8
FORM
  5
8F0
 10
17.2299
 20
2.97921
 30
0.000000
  70
    32
  0
VERTEX
  8
FORM
  5
8F1
 10
17.2296
 20
2.97713
 30
0.000000
  70
    32
  0
VERTEX
  8
FORM
  5
8F2
 10
17.2293
 20
2.97510
 30
0.000000
  70
    32
  0
VERTEX
  8
FORM
  5
8F3
 10
17.2291
 20
2.97312
 30
0.000000
  70
    32
  0
VERTEX
  8
FORM
  5
8F4
 10
17.2289
 20
2.97119
 30
0.000000
  70
    32
  0
VERTEX
  8
FORM
  5
8F5
 10
17.2289
 20
2.96931
 30
0.000000
  70
    32
  0
VERTEX
  8
FORM
  5
8F6
 10
17.2289
 20
2.96751
 30
0.000000
  70
    32
  0
VERTEX
  8
FORM
  5
8F7
 10
17.2289
 20
2.96576
 30
0.000000
  70
    32
  0
VERTEX
  8
FORM
  5
8F8
 10
17.2290
 20
2.96409
 30
0.000000
  70
    32
  0
VERTEX
  8
FORM
  5
8F9
 10
17.2292
 20
2.96250
 30
0.000000
  70
    32
  0
VERTEX
  8
FORM
  5
8FA
 10
17.2295
 20
2.96098
 30
0.000000
  70
    32
  0
VERTEX
  8
FORM
  5
8FB
 10
17.2298
 20
2.95955
 30
0.000000
  70
    32
  0
VERTEX
  8
FORM
  5
8FC
 10
17.2301
 20
2.95820
 30
0.000000
  70
    32
  0
VERTEX
  8
FORM
  5
8FD
 10
17.2306
 20
2.95694
 30
0.000000
  70
    32
  0
VERTEX
  8
FORM
  5
8FE
 10
17.2311
 20
2.95577
 30
0.000000
  70
    32
  0
VERTEX
  8
FORM
  5
8FF
 10
17.2316
 20
2.95470
 30
0.000000
  70
    32
  0
VERTEX
  8
FORM
  5
900
 10
17.2323
 20
2.95373
 30
0.000000
  70
    32
  0
VERTEX
  8
FORM
  5
901
 10
17.2329
 20
2.95286
 30
0.000000
  70
    32
  0
VERTEX
  8
FORM
  5
902
 10
17.2337
 20
2.95209
 30
0.000000
  70
    32
  0
VERTEX
  8
FORM
  5
903
 10
17.2344
 20
2.95142
 30
0.000000
  70
    32
  0
VERTEX
  8
FORM
  5
904
 10
17.2353
 20
2.95086
 30
0.000000
  70
    32
  0
VERTEX
  8
FORM
  5
905
 10
17.2362
 20
2.95041
 30
0.000000
  70
    32
  0
VERTEX
  8
FORM
  5
906
 10
17.2371
 20
2.95007
 30
0.000000
  70
    32
  0
VERTEX
  8
FORM
  5
907
 10
17.2381
 20
2.94983
 30
0.000000
  70
    32
  0
VERTEX
  8
FORM
  5
908
 10
17.2391
 20
2.94971
 30
0.000000
  70
    32
  0
VERTEX
  8
FORM
  5
909
 10
17.2401
 20
2.94969
 30
0.000000
  70
    32
  0
VERTEX
  8
FORM
  5
90A
 10
17.2412
 20
2.94978
 30
0.000000
  70
    32
  0
VERTEX
  8
FORM
  5
90B
 10
17.2424
 20
2.94999
 30
0.000000
  70
    32
  0
VERTEX
  8
FORM
  5
90C
 10
17.2435
 20
2.95030
 30
0.000000
  70
    32
  0
VERTEX
  8
FORM
  5
90D
 10
17.2447
 20
2.95072
 30
0.000000
  70
    32
  0
VERTEX
  8
FORM
  5
90E
 10
17.2460
 20
2.95125
 30
0.000000
  70
    32
  0
VERTEX
  8
FORM
  5
90F
 10
17.2472
 20
2.95189
 30
0.000000
  70
    32
  0
VERTEX
  8
FORM
  5
910
 10
17.2485
 20
2.95263
 30
0.000000
  70
    32
  0
VERTEX
  8
FORM
  5
911
 10
17.2498
 20
2.95347
 30
0.000000
  70
    32
  0
VERTEX
  8
FORM
  5
912
 10
17.2511
 20
2.95442
 30
0.000000
  70
    32
  0
VERTEX
  8
FORM
  5
913
 10
17.2524
 20
2.95546
 30
0.000000
  70
    32
  0
VERTEX
  8
FORM
  5
914
 10
17.2537
 20
2.95660
 30
0.000000
  70
    32
  0
VERTEX
  8
FORM
  5
915
 10
17.2550
 20
2.95783
 30
0.000000
  70
    32
  0
VERTEX
  8
FORM
  5
916
 10
17.2563
 20
2.95915
 30
0.000000
  70
    32
  0
VERTEX
  8
FORM
  5
917
 10
17.2577
 20
2.96056
 30
0.000000
  70
    32
  0
VERTEX
  8
FORM
  5
918
 10
17.2590
 20
2.96205
 30
0.000000
  70
    32
  0
VERTEX
  8
FORM
  5
919
 10
17.2603
 20
2.96363
 30
0.000000
  70
    32
  0
VERTEX
  8
FORM
  5
91A
 10
17.2616
 20
2.96528
 30
0.000000
  70
    32
  0
VERTEX
  8
FORM
  5
91B
 10
17.2629
 20
2.96700
 30
0.000000
  70
    32
  0
VERTEX
  8
FORM
  5
91C
 10
17.2642
 20
2.96879
 30
0.000000
  70
    32
  0
VERTEX
  8
FORM
  5
91D
 10
17.2654
 20
2.97065
 30
0.000000
  70
    32
  0
VERTEX
  8
FORM
  5
91E
 10
17.2667
 20
2.97256
 30
0.000000
  70
    32
  0
VERTEX
  8
FORM
  5
91F
 10
17.2679
 20
2.97453
 30
0.000000
  70
    32
  0
VERTEX
  8
FORM
  5
920
 10
17.2690
 20
2.97655
 30
0.000000
  70
    32
  0
VERTEX
  8
FORM
  5
921
 10
17.2702
 20
2.97861
 30
0.000000
  70
    32
  0
VERTEX
  8
FORM
  5
922
 10
17.2713
 20
2.98072
 30
0.000000
  70
    32
  0
VERTEX
  8
FORM
  5
923
 10
17.2724
 20
2.98286
 30
0.000000
  70
    32
  0
VERTEX
  8
FORM
  5
924
 10
17.2734
 20
2.98503
 30
0.000000
  70
    32
  0
VERTEX
  8
FORM
  5
925
 10
17.2744
 20
2.98722
 30
0.000000
  70
    32
  0
VERTEX
  8
FORM
  5
926
 10
17.2753
 20
2.98944
 30
0.000000
  70
    32
  0
VERTEX
  8
FORM
  5
927
 10
17.2762
 20
2.99167
 30
0.000000
  70
    32
  0
VERTEX
  8
FORM
  5
928
 10
17.2771
 20
2.99390
 30
0.000000
  70
    32
  0
VERTEX
  8
FORM
  5
929
 10
17.2779
 20
2.99615
 30
0.000000
  70
    32
  0
VERTEX
  8
FORM
  5
92A
 10
17.2786
 20
2.99838
 30
0.000000
  70
    32
  0
VERTEX
  8
FORM
  5
92B
 10
17.2793
 20
3.00062
 30
0.000000
  70
    32
  0
VERTEX
  8
FORM
  5
92C
 10
17.2800
 20
3.00284
 30
0.000000
  70
    32
  0
VERTEX
  8
FORM
  5
92D
 10
17.2805
 20
3.00504
 30
0.000000
  70
    32
  0
VERTEX
  8
FORM
  5
92E
 10
17.2810
 20
3.00721
 30
0.000000
  70
    32
  0
VERTEX
  8
FORM
  5
92F
 10
17.2815
 20
3.00936
 30
0.000000
  70
    32
  0
VERTEX
  8
FORM
  5
930
 10
17.2819
 20
3.01148
 30
0.000000
  70
    32
  0
VERTEX
  8
FORM
  5
931
 10
17.2822
 20
3.01356
 30
0.000000
  70
    32
  0
VERTEX
  8
FORM
  5
932
 10
17.2825
 20
3.01559
 30
0.000000
  70
    32
  0
VERTEX
  8
FORM
  5
933
 10
17.2827
 20
3.01757
 30
0.000000
  70
    32
  0
VERTEX
  8
FORM
  5
934
 10
17.2828
 20
3.01950
 30
0.000000
  70
    32
  0
VERTEX
  8
FORM
  5
935
 10
17.2829
 20
3.02137
 30
0.000000
  70
    32
  0
VERTEX
  8
FORM
  5
936
 10
17.2829
 20
3.02318
 30
0.000000
  70
    32
  0
VERTEX
  8
FORM
  5
937
 10
17.2829
 20
3.02493
 30
0.000000
  70
    32
  0
VERTEX
  8
FORM
  5
938
 10
17.2828
 20
3.02660
 30
0.000000
  70
    32
  0
VERTEX
  8
FORM
  5
939
 10
17.2826
 20
3.02819
 30
0.000000
  70
    32
  0
VERTEX
  8
FORM
  5
93A
 10
17.2823
 20
3.02971
 30
0.000000
  70
    32
  0
VERTEX
  8
FORM
  5
93B
 10
17.2820
 20
3.03114
 30
0.000000
  70
    32
  0
VERTEX
  8
FORM
  5
93C
 10
17.2816
 20
3.03249
 30
0.000000
  70
    32
  0
VERTEX
  8
FORM
  5
93D
 10
17.2812
 20
3.03375
 30
0.000000
  70
    32
  0
VERTEX
  8
FORM
  5
93E
 10
17.2807
 20
3.03492
 30
0.000000
  70
    32
  0
VERTEX
  8
FORM
  5
93F
 10
17.2801
 20
3.03599
 30
0.000000
  70
    32
  0
VERTEX
  8
FORM
  5
940
 10
17.2795
 20
3.03696
 30
0.000000
  70
    32
  0
VERTEX
  8
FORM
  5
941
 10
17.2789
 20
3.03783
 30
0.000000
  70
    32
  0
VERTEX
  8
FORM
  5
942
 10
17.2781
 20
3.03860
 30
0.000000
  70
    32
  0
VERTEX
  8
FORM
  5
943
 10
17.2773
 20
3.03927
 30
0.000000
  70
    32
  0
VERTEX
  8
FORM
  5
944
 10
17.2765
 20
3.03983
 30
0.000000
  70
    32
  0
VERTEX
  8
FORM
  5
945
 10
17.2756
 20
3.04028
 30
0.000000
  70
    32
  0
SEQEND
  8
FORM
  5
946
  0
ARC
  5
718
  8
FORM
 62
     7
 10
17.31969472840197
 20
2.8767429643067852
 30
0.0
 40
0.2199177503197187
 50
85.485448269952457
 51
155.5006785655419
  0
TEXT
  5
719
  8
FORM
 62
     7
 10
16.545907219234731
 20
1.726726372181332
 30
0.0
 40
0.0861538460965367
  1
R2-D2 BUILDERS CLUB
  0
ARC
  5
71A
  8
FORM
 10
0.7499999996674376
 20
0.7499999996674092
 30
0.0
 40
0.1538461537438154
 50
180.0
 51
270.0
  0
ARC
  5
71B
  8
FORM
 10
0.7499999996674376
 20
0.7499999996674092
 30
0.0
 40
0.3076923074876307
 50
180.0
 51
270.0
  0
ARC
  5
71C
  8
FORM
 10
0.7499999996674376
 20
0.7499999996674092
 30
0.0
 40
0.3461538459235846
 50
180.0
 51
270.0
  0
ARC
  5
71D
  8
FORM
 10
0.7499999996674376
 20
0.7499999996674092
 30
0.0
 40
0.4999999996674
 50
180.0
 51
270.0
  0
ARC
  5
71E
  8
FORM
 10
0.7499999996674376
 20
15.153846144098431
 30
0.0
 40
0.4999999996674
 50
90.0
 51
180.0
  0
ARC
  5
71F
  8
FORM
 10
0.7499999996674376
 20
15.153846144098431
 30
0.0
 40
0.3461538459235846
 50
90.0
 51
180.0
  0
ARC
  5
720
  8
FORM
 10
0.7499999996674376
 20
15.153846144098431
 30
0.0
 40
0.3076923074876307
 50
90.0
 51
180.0
  0
ARC
  5
721
  8
FORM
 10
0.7499999996674376
 20
15.153846144098431
 30
0.0
 40
0.1538461537438154
 50
90.0
 51
180.0
  0
ARC
  5
722
  8
FORM
 10
21.249999986363441
 20
15.153846144098431
 30
0.0
 40
0.3076923074876307
 50
0.0
 51
90.0
  0
ARC
  5
723
  8
FORM
 10
21.249999986363441
 20
15.153846144098431
 30
0.0
 40
0.3461538459235846
 50
0.0
 51
90.0
  0
ARC
  5
724
  8
FORM
 10
21.249999986363441
 20
15.153846144098431
 30
0.0
 40
0.4999999996674
 50
0.0
 51
90.0
  0
ARC
  5
725
  8
FORM
 10
21.249999986363441
 20
15.153846144098431
 30
0.0
 40
0.1538461537438154
 50
0.0
 51
90.0
  0
ARC
  5
726
  8
FORM
 10
21.249999986363441
 20
0.7499999996674092
 30
0.0
 40
0.4999999996674
 50
270.0
 51
0.0
  0
ARC
  5
727
  8
FORM
 10
21.249999986363441
 20
0.7499999996674092
 30
0.0
 40
0.3461538459235846
 50
270.0
 51
0.0
  0
ARC
  5
728
  8
FORM
 10
21.249999986363441
 20
0.7499999996674092
 30
0.0
 40
0.3076923074876307
 50
270.0
 51
0.0
  0
ARC
  5
729
  8
FORM
 10
21.249999986363441
 20
0.7499999996674092
 30
0.0
 40
0.1538461537438154
 50
270.0
 51
0.0
  0
LINE
  5
72A
  8
FORM
 10
21.249999986363441
 20
0.4423076921797886
 30
0.0
 11
0.7499999996674376
 21
0.442307692179778
 31
0.0
  0
LINE
  5
72B
  8
FORM
 10
21.249999986363441
 20
0.4038461537438352
 30
0.0
 11
0.7499999996674376
 21
0.4038461537438245
 31
0.0
  0
LINE
  5
72C
  8
FORM
 10
21.249999986363441
 20
0.2500000000000071
 30
0.0
 11
0.7499999996674376
 21
0.25
 31
0.0
  0
LINE
  5
72D
  8
FORM
 10
21.55769229385108
 20
0.7499999996674092
 30
0.0
 11
21.55769229385108
 21
15.153846144098431
 31
0.0
  0
LINE
  5
72E
  8
FORM
 10
21.59615383228703
 20
0.7499999996674092
 30
0.0
 11
21.59615383228703
 21
15.153846144098431
 31
0.0
  0
LINE
  5
72F
  8
FORM
 10
21.74999998603084
 20
0.7499999996674092
 30
0.0
 11
21.74999998603084
 21
15.153846144098431
 31
0.0
  0
LINE
  5
730
  8
FORM
 10
21.249999986363441
 20
15.46153845158606
 30
0.0
 11
0.7499999996674376
 21
15.46153845158606
 31
0.0
  0
LINE
  5
731
  8
FORM
 10
21.249999986363441
 20
15.499999990022021
 30
0.0
 11
0.7499999996674376
 21
15.499999990022021
 31
0.0
  0
LINE
  5
732
  8
FORM
 10
21.249999986363441
 20
15.653846143765829
 30
0.0
 11
0.7499999996674376
 21
15.653846143765829
 31
0.0
  0
LINE
  5
733
  8
FORM
 10
0.4423076921798029
 20
0.7499999996674092
 30
0.0
 11
0.4423076921798029
 21
15.153846144098431
 31
0.0
  0
LINE
  5
734
  8
FORM
 10
0.4038461537438565
 20
0.7499999996674092
 30
0.0
 11
0.4038461537438565
 21
15.153846144098431
 31
0.0
  0
LINE
  5
735
  8
FORM
 10
0.25
 20
0.7499999996674092
 30
0.0
 11
0.2500000000000426
 21
15.153846144098431
 31
0.0
  0
LINE
  5
736
  8
FORM
  6
CONTINUOUS
 10
16.703251912464879
 20
0.7499999996674092
 30
0.0
 11
21.02491344805162
 21
0.7499999996674092
 31
0.0
  0
LINE
  5
737
  8
FORM
  6
CONTINUOUS
 10
21.249999986363441
 20
3.1359173057725931
 30
0.0
 11
21.249999986363441
 21
0.9750865379792159
 31
0.0
  0
ARC
  5
738
  8
FORM
  6
CONTINUOUS
 10
21.02491344805162
 20
0.9750865379792159
 30
0.0
 40
0.2250865383118096
 50
270.0
 51
0.0
  0
ARC
  5
739
  8
FORM
  6
CONTINUOUS
 10
21.02491344805162
 20
3.1359173057725931
 30
0.0
 40
0.2250865383118096
 50
359.99999999999989
 51
90.0
  0
ARC
  5
73A
  8
FORM
  6
CONTINUOUS
 10
16.703251912464879
 20
0.9750865379792159
 30
0.0
 40
0.2250865383118096
 50
180.0
 51
270.0
  0
ARC
  5
73B
  8
FORM
  6
CONTINUOUS
 10
16.703251912464879
 20
3.1359173057725931
 30
0.0
 40
0.2250865383118096
 50
90.0
 51
180.0
  0
LINE
  5
880
  8
0
 10
0.7499999996674376
 20
0.7499999996674092
 30
0.0
 11
0.7499999996674376
 21
1.7499999996674089
 31
0.0
  0
LINE
  5
881
  8
0
 10
0.7499999996674376
 20
0.8749999996674091
 30
0.0
 11
0.8749999996674375
 21
0.8749999996674091
 31
0.0
  0
LINE
  5
882
  8
0
 10
0.7499999996674376
 20
0.9999999996674091
 30
0.0
 11
0.9999999996674375
 21
0.9999999996674091
 31
0.0
  0
LINE
  5
883
  8
0
 10
0.7499999996674376
 20
1.1249999996674089
 30
0.0
 11
0.8749999996674375
 21
1.1249999996674089
 31
0.0
  0
LINE
  5
884
  8
0
 10
0.7499999996674376
 20
1.2499999996674089
 30
0.0
 11
1.1249999996674369
 21
1.2499999996674089
 31
0.0
  0
LINE
  5
885
  8
0
 10
0.7499999996674376
 20
1.3749999996674089
 30
0.0
 11
0.8749999996674375
 21
1.3749999996674089
 31
0.0
  0
LINE
  5
886
  8
0
 10
0.7499999996674376
 20
1.4999999996674089
 30
0.0
 11
0.9999999996674375
 21
1.4999999996674089
 31
0.0
  0
LINE
  5
887
  8
0
 10
0.7499999996674376
 20
1.6249999996674089
 30
0.0
 11
0.8749999996674375
 21
1.6249999996674089
 31
0.0
  0
LINE
  5
888
  8
0
 10
0.7499999996674376
 20
1.7499999996674089
 30
0.0
 11
1.1249999996674369
 21
1.7499999996674089
 31
0.0
  0
LINE
  5
889
  8
0
 10
0.7499999996674376
 20
0.7499999996674092
 30
0.0
 11
1.1249999996674369
 21
0.7499999996674092
 31
0.0
  0
TEXT
  5
88A
  8
0
 10
1.1742687732938739
 20
1.216959438666926
 30
0.0
 40
0.0625
  1
1/2"
  0
TEXT
  5
88B
  8
0
 10
0.9242687732938748
 20
1.091959438666926
 30
0.0
 40
0.0625
  1
3/8"
  0
TEXT
  5
88C
  8
0
 10
1.0492687732938739
 20
0.966959438666926
 30
0.0
 40
0.0625
  1
1/4"
  0
TEXT
  5
88D
  8
0
 10
0.9242687732938748
 20
0.841959438666926
 30
0.0
 40
0.0625
  1
1/8"
  0
TEXT
  5
88E
  8
0
 10
0.9242687732938748
 20
1.341959438666926
 30
0.0
 40
0.0625
  1
5/8"
  0
TEXT
  5
88F
  8
0
 10
1.0492687732938739
 20
1.466959438666926
 30
0.0
 40
0.0625
  1
3/4"
  0
TEXT
  5
890
  8
0
 10
0.9242687732938748
 20
1.591959438666926
 30
0.0
 40
0.0625
  1
7/8"
  0
TEXT
  5
891
  8
0
 10
1.1742687732938739
 20
1.716959438666926
 30
0.0
 40
0.0625
  1
1"
  0
ENDSEC
  0
EOF
