  0
SECTION
  2
HEADER
  9
$ACADVER
  1
AC1009
  9
$INSBASE
 10
0.0
 20
0.0
 30
0.0
  9
$EXTMIN
 10
0.0
 20
0.0
 30
0.0
  9
$EXTMAX
 10
22.0
 20
17.0
 30
0.0
  9
$LIMMIN
 10
0.0
 20
0.0
  9
$LIMMAX
 10
12.0
 20
9.0
  9
$ORTHOMODE
 70
     1
  9
$REGENMODE
 70
     1
  9
$FILLMODE
 70
     1
  9
$QTEXTMODE
 70
     0
  9
$MIRRTEXT
 70
     1
  9
$DRAGMODE
 70
     2
  9
$LTSCALE
 40
1.0
  9
$OSMODE
 70
    39
  9
$ATTMODE
 70
     1
  9
$TEXTSIZE
 40
0.25
  9
$TRACEWID
 40
0.05
  9
$TEXTSTYLE
  7
STANDARD
  9
$CLAYER
  8
0
  9
$CELTYPE
  6
BYLAYER
  9
$CECOLOR
 62
   256
  9
$DIMSCALE
 40
1.0
  9
$DIMASZ
 40
0.15625
  9
$DIMEXO
 40
0.03125
  9
$DIMDLI
 40
0.38
  9
$DIMRND
 40
0.0
  9
$DIMDLE
 40
0.0
  9
$DIMEXE
 40
0.03125
  9
$DIMTP
 40
0.0
  9
$DIMTM
 40
0.0
  9
$DIMTXT
 40
0.15625
  9
$DIMCEN
 40
0.0
  9
$DIMTSZ
 40
0.0
  9
$DIMTOL
 70
     0
  9
$DIMLIM
 70
     0
  9
$DIMTIH
 70
     1
  9
$DIMTOH
 70
     1
  9
$DIMSE1
 70
     0
  9
$DIMSE2
 70
     0
  9
$DIMTAD
 70
     0
  9
$DIMZIN
 70
     0
  9
$DIMBLK
  1

  9
$DIMASO
 70
     1
  9
$DIMSHO
 70
     1
  9
$DIMPOST
  1

  9
$DIMAPOST
  1

  9
$DIMALT
 70
     0
  9
$DIMALTD
 70
     2
  9
$DIMALTF
 40
25.399999999999999
  9
$DIMLFAC
 40
1.0
  9
$DIMTOFL
 70
     0
  9
$DIMTVP
 40
0.0
  9
$DIMTIX
 70
     0
  9
$DIMSOXD
 70
     0
  9
$DIMSAH
 70
     0
  9
$DIMBLK1
  1

  9
$DIMBLK2
  1

  9
$DIMSTYLE
  2
STANDARD
  9
$DIMCLRD
 70
     0
  9
$DIMCLRE
 70
     0
  9
$DIMCLRT
 70
     0
  9
$DIMTFAC
 40
1.0
  9
$DIMGAP
 40
0.0625
  9
$LUNITS
 70
     2
  9
$LUPREC
 70
     7
  9
$SKETCHINC
 40
0.1
  9
$FILLETRAD
 40
0.182882812499999
  9
$AUNITS
 70
     0
  9
$AUPREC
 70
     8
  9
$MENU
  1
.
  9
$ELEVATION
 40
0.0
  9
$PELEVATION
 40
0.0
  9
$THICKNESS
 40
0.0
  9
$LIMCHECK
 70
     0
  9
$BLIPMODE
 70
     0
  9
$CHAMFERA
 40
0.0
  9
$CHAMFERB
 40
0.0
  9
$SKPOLY
 70
     0
  9
$TDCREATE
 40
2453087.3875628472
  9
$TDUPDATE
 40
2453462.6483700001
  9
$TDINDWG
 40
0.1519871991
  9
$TDUSRTIMER
 40
0.1519871991
  9
$USRTIMER
 70
     1
  9
$ANGBASE
 50
0.0
  9
$ANGDIR
 70
     0
  9
$PDMODE
 70
     0
  9
$PDSIZE
 40
0.0
  9
$PLINEWID
 40
0.0
  9
$COORDS
 70
     0
  9
$SPLFRAME
 70
     0
  9
$SPLINETYPE
 70
     6
  9
$SPLINESEGS
 70
     8
  9
$ATTDIA
 70
     0
  9
$ATTREQ
 70
     1
  9
$HANDLING
 70
     1
  9
$HANDSEED
  5
1204
  9
$SURFTAB1
 70
     6
  9
$SURFTAB2
 70
     6
  9
$SURFTYPE
 70
     6
  9
$SURFU
 70
     6
  9
$SURFV
 70
     6
  9
$UCSNAME
  2

  9
$UCSORG
 10
0.0
 20
0.0
 30
0.0
  9
$UCSXDIR
 10
1.0
 20
0.0
 30
0.0
  9
$UCSYDIR
 10
0.0
 20
1.0
 30
0.0
  9
$PUCSNAME
  2

  9
$PUCSORG
 10
0.0
 20
0.0
 30
0.0
  9
$PUCSXDIR
 10
1.0
 20
0.0
 30
0.0
  9
$PUCSYDIR
 10
0.0
 20
1.0
 30
0.0
  9
$USERI1
 70
     0
  9
$USERI2
 70
     0
  9
$USERI3
 70
     0
  9
$USERI4
 70
     0
  9
$USERI5
 70
     0
  9
$USERR1
 40
0.0
  9
$USERR2
 40
0.0
  9
$USERR3
 40
0.0
  9
$USERR4
 40
0.0
  9
$USERR5
 40
0.0
  9
$WORLDVIEW
 70
     1
  9
$SHADEDGE
 70
     3
  9
$SHADEDIF
 70
    70
  9
$TILEMODE
 70
     1
  9
$MAXACTVP
 70
    64
  9
$PLIMCHECK
 70
     0
  9
$PEXTMIN
 10
1.0000000000000000E+020
 20
1.0000000000000000E+020
 30
1.0000000000000000E+020
  9
$PEXTMAX
 10
-1.0000000000000000E+020
 20
-1.0000000000000000E+020
 30
-1.0000000000000000E+020
  9
$PLIMMIN
 10
0.0
 20
0.0
  9
$PLIMMAX
 10
12.0
 20
9.0
  9
$UNITMODE
 70
     0
  9
$VISRETAIN
 70
     1
  9
$PLINEGEN
 70
     0
  9
$PSLTSCALE
 70
     1
  0
ENDSEC
  0
SECTION
  2
TABLES
  0
TABLE
  2
VPORT
 70
     2
  0
VPORT
  2
*ACTIVE
 70
     0
 10
0.0
 20
0.0
 11
1.0
 21
1.0
 12
10.996717452275099
 22
8.5000996208381423
 13
0.0
 23
0.0
 14
0.5
 24
0.5
 15
0.5
 25
0.5
 16
0.0
 26
0.0
 36
1.0
 17
0.0
 27
0.0
 37
0.0
 40
17.221176275739449
 41
2.1727078891257992
 42
50.0
 43
0.0
 44
0.0
 50
0.0
 51
0.0
 71
     0
 72
 20000
 73
     1
 74
     2
 75
     0
 76
     0
 77
     0
 78
     0
  0
ENDTAB
  0
TABLE
  2
LTYPE
 70
     2
  0
LTYPE
  2
CONTINUOUS
 70
     0
  3
Solid line
 72
    65
 73
     0
 40
0.0
  0
LTYPE
  2
CENTER
 70
     0
  3
Center ____ _ ____ _ ____ _ ____ _ ____ _ ____
 72
    65
 73
     4
 40
2.0
 49
1.25
 49
-0.25
 49
0.25
 49
-0.25
  0
ENDTAB
  0
TABLE
  2
LAYER
 70
     5
  0
LAYER
  2
0
 70
     0
 62
     7
  6
CONTINUOUS
  0
LAYER
  2
FORM
 70
     0
 62
     5
  6
CONTINUOUS
  0
LAYER
  2
DIMENSION
 70
     0
 62
     1
  6
CONTINUOUS
  0
LAYER
  2
SHOULDER_-_HYDRAULIC
 70
     0
 62
     7
  6
CONTINUOUS
  0
LAYER
  2
DEFPOINTS
 70
     0
 62
     7
  6
CONTINUOUS
  0
ENDTAB
  0
TABLE
  2
STYLE
 70
     1
  0
STYLE
  2
STANDARD
 70
     0
 40
0.0
 41
1.0
 50
0.0
 71
     0
 42
0.25
  3
simplex.shx
  4

  0
ENDTAB
  0
TABLE
  2
VIEW
 70
     0
  0
ENDTAB
  0
TABLE
  2
UCS
 70
     0
  0
ENDTAB
  0
TABLE
  2
APPID
 70
     2
  0
APPID
  2
ACAD
 70
     0
  0
APPID
  2
DCO15
 70
     0
  0
ENDTAB
  0
TABLE
  2
DIMSTYLE
 70
     1
  0
DIMSTYLE
  2
STANDARD
 70
     0
  3

  4

  5

  6

  7

 40
1.0
 41
0.15625
 42
0.03125
 43
0.38
 44
0.03125
 45
0.0
 46
0.0
 47
0.0
 48
0.0
140
0.15625
141
0.0
142
0.0
143
25.399999999999999
144
1.0
145
0.0
146
1.0
147
0.0625
 71
     0
 72
     0
 73
     1
 74
     1
 75
     0
 76
     0
 77
     0
 78
     0
170
     0
171
     2
172
     0
173
     0
174
     0
175
     0
176
     0
177
     0
178
     0
  0
ENDTAB
  0
ENDSEC
  0
SECTION
  2
BLOCKS
  0
BLOCK
  8
0
  2
$MODEL_SPACE
 70
     0
 10
0.0
 20
0.0
 30
0.0
  3
$MODEL_SPACE
  1

  0
ENDBLK
  5
21
  8
0
  0
BLOCK
 67
     1
  8
0
  2
$PAPER_SPACE
 70
     0
 10
0.0
 20
0.0
 30
0.0
  3
$PAPER_SPACE
  1

  0
ENDBLK
  5
1D
 67
     1
  8
0
  0
ENDSEC
  0
SECTION
  2
ENTITIES
  0
LINE
  5
481
  8
SHOULDER_-_HYDRAULIC
 10
5.8986558487135454
 20
11.05323266311966
 30
0.0
 11
6.210655848713543
 21
11.05323266311966
 31
0.0
  0
LINE
  5
482
  8
SHOULDER_-_HYDRAULIC
 10
5.8046558487135442
 20
6.7062326631196596
 30
0.0
 11
6.3046558487135442
 21
6.7062326631196596
 31
0.0
  0
LINE
  5
483
  8
SHOULDER_-_HYDRAULIC
 10
5.7081558487135453
 20
6.9562326631196623
 30
0.0
 11
6.4011558487135432
 21
6.9562326631196623
 31
0.0
  0
LINE
  5
484
  8
SHOULDER_-_HYDRAULIC
 10
5.835655848713543
 20
10.853232663119661
 30
0.0
 11
6.2736558487135454
 21
10.853232663119661
 31
0.0
  0
LINE
  5
485
  8
SHOULDER_-_HYDRAULIC
 10
5.7421558487135442
 20
8.1002326631196624
 30
0.0
 11
6.3671558487135442
 21
8.1002326631196624
 31
0.0
  0
LINE
  5
486
  8
SHOULDER_-_HYDRAULIC
 10
5.7421558487135442
 20
8.0062326631196612
 30
0.0
 11
6.3671558487135442
 21
8.0062326631196612
 31
0.0
  0
LINE
  5
487
  8
SHOULDER_-_HYDRAULIC
 10
5.7421558487135442
 20
7.9442326631196609
 30
0.0
 11
6.3671558487135442
 21
7.9442326631196609
 31
0.0
  0
LINE
  5
488
  8
SHOULDER_-_HYDRAULIC
 10
5.7081558487135453
 20
7.8502326631196624
 30
0.0
 11
6.4011558487135432
 21
7.8502326631196624
 31
0.0
  0
LINE
  5
48D
  8
SHOULDER_-_HYDRAULIC
 10
5.7081558487135453
 20
10.603232663119661
 30
0.0
 11
6.4011558487135432
 21
10.603232663119661
 31
0.0
  0
LINE
  5
48E
  8
SHOULDER_-_HYDRAULIC
 10
5.7081558487135453
 20
10.103232663119661
 30
0.0
 11
6.4011558487135432
 21
10.103232663119661
 31
0.0
  0
LINE
  5
48F
  8
SHOULDER_-_HYDRAULIC
  6
CENTER
 10
6.0546558487135442
 20
11.168373847437911
 30
0.0
 11
6.0546558487135442
 21
6.5607898878193369
 31
0.0
  0
LINE
  5
490
  8
SHOULDER_-_HYDRAULIC
 10
6.210655848713543
 20
11.05323266311966
 30
0.0
 11
6.210655848713543
 21
10.853232663119661
 31
0.0
  0
LINE
  5
491
  8
SHOULDER_-_HYDRAULIC
 10
5.8986558487135454
 20
11.05323266311966
 30
0.0
 11
5.8986558487135454
 21
10.853232663119661
 31
0.0
  0
LINE
  5
492
  8
SHOULDER_-_HYDRAULIC
 10
6.4011558487135432
 20
10.603232663119661
 30
0.0
 11
6.4011558487135432
 21
10.103232663119661
 31
0.0
  0
LINE
  5
493
  8
SHOULDER_-_HYDRAULIC
 10
5.7081558487135453
 20
10.603232663119661
 30
0.0
 11
5.7081558487135453
 21
10.103232663119661
 31
0.0
  0
LINE
  5
494
  8
SHOULDER_-_HYDRAULIC
 10
6.2736558487135454
 20
10.853232663119661
 30
0.0
 11
6.2736558487135454
 21
10.603232663119661
 31
0.0
  0
LINE
  5
495
  8
SHOULDER_-_HYDRAULIC
 10
5.835655848713543
 20
10.853232663119661
 30
0.0
 11
5.835655848713543
 21
10.603232663119661
 31
0.0
  0
LINE
  5
496
  8
SHOULDER_-_HYDRAULIC
 10
6.2736558487135454
 20
10.103232663119661
 30
0.0
 11
6.2736558487135454
 21
9.8532326631196625
 31
0.0
  0
LINE
  5
497
  8
SHOULDER_-_HYDRAULIC
 10
5.835655848713543
 20
10.103232663119661
 30
0.0
 11
5.835655848713543
 21
9.8532326631196625
 31
0.0
  0
LINE
  5
49E
  8
SHOULDER_-_HYDRAULIC
 10
6.210655848713543
 20
8.9632326631196602
 30
0.0
 11
6.210655848713543
 21
8.1002326631196624
 31
0.0
  0
LINE
  5
49F
  8
SHOULDER_-_HYDRAULIC
 10
5.8986558487135454
 20
8.9632326631196637
 30
0.0
 11
5.8986558487135454
 21
8.1002326631196624
 31
0.0
  0
LINE
  5
4A0
  8
SHOULDER_-_HYDRAULIC
 10
6.3671558487135442
 20
8.1002326631196624
 30
0.0
 11
6.3671558487135442
 21
8.0062326631196612
 31
0.0
  0
LINE
  5
4A1
  8
SHOULDER_-_HYDRAULIC
 10
5.7421558487135442
 20
8.1002326631196624
 30
0.0
 11
5.7421558487135442
 21
8.0062326631196612
 31
0.0
  0
LINE
  5
4A2
  8
SHOULDER_-_HYDRAULIC
 10
5.7421558487135442
 20
7.9442326631196609
 30
0.0
 11
5.7421558487135442
 21
7.8502326631196624
 31
0.0
  0
LINE
  5
4A3
  8
SHOULDER_-_HYDRAULIC
 10
6.3671558487135442
 20
7.9442326631196609
 30
0.0
 11
6.3671558487135442
 21
7.8502326631196624
 31
0.0
  0
LINE
  5
4A4
  8
SHOULDER_-_HYDRAULIC
 10
6.3046558487135442
 20
8.0062326631196612
 30
0.0
 11
6.3046558487135442
 21
7.9442326631196609
 31
0.0
  0
LINE
  5
4A5
  8
SHOULDER_-_HYDRAULIC
 10
5.8046558487135442
 20
8.0062326631196612
 30
0.0
 11
5.8046558487135442
 21
7.9442326631196609
 31
0.0
  0
LINE
  5
4A6
  8
SHOULDER_-_HYDRAULIC
 10
6.4011558487135432
 20
7.8502326631196624
 30
0.0
 11
6.4011558487135432
 21
6.9562326631196596
 31
0.0
  0
LINE
  5
4A7
  8
SHOULDER_-_HYDRAULIC
 10
5.7081558487135453
 20
7.8502326631196624
 30
0.0
 11
5.7081558487135453
 21
6.9562326631196596
 31
0.0
  0
LINE
  5
4A8
  8
SHOULDER_-_HYDRAULIC
 10
6.3046558487135442
 20
6.9562326631196623
 30
0.0
 11
6.3046558487135442
 21
6.7062326631196596
 31
0.0
  0
LINE
  5
4A9
  8
SHOULDER_-_HYDRAULIC
 10
5.8046558487135442
 20
6.9562326631196623
 30
0.0
 11
5.8046558487135442
 21
6.7062326631196596
 31
0.0
  0
LINE
  5
4AA
  8
SHOULDER_-_HYDRAULIC
 10
5.7081558487135453
 20
4.2488269628295274
 30
0.0
 11
6.4011558487135432
 21
4.2488269628295274
 31
0.0
  0
LINE
  5
4AB
  8
SHOULDER_-_HYDRAULIC
 10
5.7081558487135453
 20
4.9552957548212877
 30
0.0
 11
5.7081558487135453
 21
4.2488269628295257
 31
0.0
  0
LINE
  5
4AC
  8
SHOULDER_-_HYDRAULIC
 10
6.4011558487135432
 20
4.9552957548212868
 30
0.0
 11
6.4011558487135432
 21
4.2488269628295257
 31
0.0
  0
ARC
  5
4AE
  8
SHOULDER_-_HYDRAULIC
 10
6.0546558487135442
 20
4.5948269628295266
 30
0.0
 40
0.5
 50
46.131943453689132
 51
133.8680565463107
  0
CIRCLE
  5
4AF
  8
SHOULDER_-_HYDRAULIC
 10
6.0546558487135442
 20
4.5948269628295266
 30
0.0
 40
0.25
  0
LINE
  5
4B2
  8
SHOULDER_-_HYDRAULIC
  6
CENTER
 10
6.3652351575464863
 20
4.5948269628295266
 30
0.0
 11
5.7440765398806022
 21
4.5948269628295266
 31
0.0
  0
LINE
  5
4B3
  8
SHOULDER_-_HYDRAULIC
  6
CENTER
 10
6.0546558487135442
 20
5.170745177755335
 30
0.0
 11
6.0546558487135442
 21
4.1409288595841831
 31
0.0
  0
LINE
  5
4B5
  8
SHOULDER_-_HYDRAULIC
 10
11.239088760941611
 20
9.8532326631196625
 30
0.0
 11
11.239088760941611
 21
9.3532326631196625
 31
0.0
  0
LINE
  5
4B6
  8
SHOULDER_-_HYDRAULIC
 10
10.67708876094161
 20
9.8532326631196625
 30
0.0
 11
10.67708876094161
 21
9.3532326631196625
 31
0.0
  0
LINE
  5
4B7
  8
SHOULDER_-_HYDRAULIC
 10
11.270588760941621
 20
7.9442326631196609
 30
0.0
 11
11.270588760941621
 21
7.8502326631196624
 31
0.0
  0
LINE
  5
4B8
  8
SHOULDER_-_HYDRAULIC
 10
10.645588760941621
 20
7.9442326631196609
 30
0.0
 11
10.645588760941621
 21
7.8502326631196624
 31
0.0
  0
LINE
  5
4B9
  8
SHOULDER_-_HYDRAULIC
 10
10.708088760941621
 20
6.9562326631196623
 30
0.0
 11
10.708088760941621
 21
6.7062326631196596
 31
0.0
  0
LINE
  5
4BA
  8
SHOULDER_-_HYDRAULIC
 10
11.208088760941621
 20
6.9562326631196623
 30
0.0
 11
11.208088760941621
 21
6.7062326631196596
 31
0.0
  0
LINE
  5
4BB
  8
SHOULDER_-_HYDRAULIC
 10
10.708088760941621
 20
6.7062326631196596
 30
0.0
 11
11.208088760941621
 21
6.7062326631196596
 31
0.0
  0
LINE
  5
4BC
  8
SHOULDER_-_HYDRAULIC
 10
10.458088760941621
 20
6.9562326631196596
 30
0.0
 11
11.30408876094161
 21
6.9562326631196623
 31
0.0
  0
LINE
  5
4BD
  8
SHOULDER_-_HYDRAULIC
 10
10.458088760941621
 20
7.8502326631196624
 30
0.0
 11
11.30408876094161
 21
7.8502326631196624
 31
0.0
  0
LINE
  5
4C0
  8
SHOULDER_-_HYDRAULIC
 10
10.80208876094161
 20
8.9632326631196637
 30
0.0
 11
10.80208876094161
 21
8.1002326631196624
 31
0.0
  0
LINE
  5
4C1
  8
SHOULDER_-_HYDRAULIC
 10
11.11408876094162
 20
8.9632326631196602
 30
0.0
 11
11.11408876094162
 21
8.1002326631196624
 31
0.0
  0
LINE
  5
4C2
  8
SHOULDER_-_HYDRAULIC
 10
10.645588760941621
 20
7.9442326631196609
 30
0.0
 11
11.270588760941621
 21
7.9442326631196609
 31
0.0
  0
LINE
  5
4C3
  8
SHOULDER_-_HYDRAULIC
 10
10.645588760941621
 20
8.0062326631196612
 30
0.0
 11
11.270588760941621
 21
8.0062326631196612
 31
0.0
  0
LINE
  5
4C4
  8
SHOULDER_-_HYDRAULIC
 10
10.645588760941621
 20
8.1002326631196624
 30
0.0
 11
11.270588760941621
 21
8.1002326631196624
 31
0.0
  0
LINE
  5
4C5
  8
SHOULDER_-_HYDRAULIC
 10
10.645588760941621
 20
8.1002326631196624
 30
0.0
 11
10.645588760941621
 21
8.0062326631196612
 31
0.0
  0
LINE
  5
4C6
  8
SHOULDER_-_HYDRAULIC
 10
10.708088760941621
 20
8.0062326631196612
 30
0.0
 11
10.708088760941621
 21
7.9442326631196609
 31
0.0
  0
LINE
  5
4C7
  8
SHOULDER_-_HYDRAULIC
 10
11.208088760941621
 20
8.0062326631196612
 30
0.0
 11
11.208088760941621
 21
7.9442326631196609
 31
0.0
  0
LINE
  5
4C8
  8
SHOULDER_-_HYDRAULIC
 10
11.270588760941621
 20
8.1002326631196624
 30
0.0
 11
11.270588760941621
 21
8.0062326631196612
 31
0.0
  0
LINE
  5
4C9
  8
SHOULDER_-_HYDRAULIC
 10
10.67708876094161
 20
8.9632326631196637
 30
0.0
 11
11.239088760941611
 21
8.9632326631196602
 31
0.0
  0
LINE
  5
4CA
  8
SHOULDER_-_HYDRAULIC
 10
10.67708876094161
 20
9.3092326631196638
 30
0.0
 11
11.239088760941611
 21
9.309232663119662
 31
0.0
  0
LINE
  5
4CB
  8
SHOULDER_-_HYDRAULIC
 10
10.67708876094161
 20
9.3532326631196625
 30
0.0
 11
11.239088760941611
 21
9.3532326631196625
 31
0.0
  0
LINE
  5
4CC
  8
SHOULDER_-_HYDRAULIC
 10
10.73908876094162
 20
9.3532326631196625
 30
0.0
 11
10.73908876094162
 21
9.3092326631196638
 31
0.0
  0
LINE
  5
4CD
  8
SHOULDER_-_HYDRAULIC
 10
11.17708876094161
 20
9.3532326631196625
 30
0.0
 11
11.17708876094161
 21
9.309232663119662
 31
0.0
  0
LINE
  5
4CE
  8
SHOULDER_-_HYDRAULIC
 10
10.67708876094161
 20
9.309232663119662
 30
0.0
 11
10.67708876094161
 21
8.9632326631196602
 31
0.0
  0
LINE
  5
4CF
  8
SHOULDER_-_HYDRAULIC
 10
11.239088760941611
 20
9.309232663119662
 30
0.0
 11
11.239088760941611
 21
8.9632326631196602
 31
0.0
  0
LINE
  5
4D0
  8
SHOULDER_-_HYDRAULIC
 10
10.73908876094162
 20
10.853232663119661
 30
0.0
 11
10.73908876094162
 21
10.603232663119661
 31
0.0
  0
LINE
  5
4D1
  8
SHOULDER_-_HYDRAULIC
 10
11.17708876094161
 20
10.853232663119661
 30
0.0
 11
11.17708876094161
 21
10.603232663119661
 31
0.0
  0
LINE
  5
4D2
  8
SHOULDER_-_HYDRAULIC
 10
10.67708876094161
 20
9.8532326631196625
 30
0.0
 11
11.23908876094162
 21
9.8532326631196625
 31
0.0
  0
LINE
  5
4D3
  8
SHOULDER_-_HYDRAULIC
 10
10.458088760941621
 20
10.103232663119661
 30
0.0
 11
11.30408876094161
 21
10.103232663119661
 31
0.0
  0
LINE
  5
4D4
  8
SHOULDER_-_HYDRAULIC
 10
10.458088760941621
 20
10.603232663119661
 30
0.0
 11
11.30408876094161
 21
10.603232663119661
 31
0.0
  0
LINE
  5
4D6
  8
SHOULDER_-_HYDRAULIC
 10
10.73908876094162
 20
10.103232663119661
 30
0.0
 11
10.73908876094162
 21
9.8532326631196625
 31
0.0
  0
LINE
  5
4D7
  8
SHOULDER_-_HYDRAULIC
 10
11.17708876094161
 20
10.103232663119661
 30
0.0
 11
11.17708876094161
 21
9.8532326631196625
 31
0.0
  0
LINE
  5
4D9
  8
SHOULDER_-_HYDRAULIC
 10
10.73908876094162
 20
10.853232663119661
 30
0.0
 11
11.17708876094161
 21
10.853232663119661
 31
0.0
  0
LINE
  5
4DA
  8
SHOULDER_-_HYDRAULIC
 10
10.80208876094161
 20
11.05323266311966
 30
0.0
 11
11.11408876094162
 21
11.05323266311966
 31
0.0
  0
LINE
  5
4DB
  8
SHOULDER_-_HYDRAULIC
 10
10.80208876094161
 20
11.05323266311966
 30
0.0
 11
10.80208876094161
 21
10.853232663119661
 31
0.0
  0
LINE
  5
4DC
  8
SHOULDER_-_HYDRAULIC
 10
11.11408876094162
 20
11.05323266311966
 30
0.0
 11
11.11408876094162
 21
10.853232663119661
 31
0.0
  0
LINE
  5
4DD
  8
SHOULDER_-_HYDRAULIC
 10
11.30408876094161
 20
7.8502326631196624
 30
0.0
 11
11.30408876094161
 21
6.9562326631196623
 31
0.0
  0
LINE
  5
4DE
  8
SHOULDER_-_HYDRAULIC
 10
10.597619968949861
 20
7.8502326631196624
 30
0.0
 11
10.597619968949861
 21
6.9562326631196623
 31
0.0
  0
LINE
  5
4DF
  8
SHOULDER_-_HYDRAULIC
 10
10.458088760941621
 20
7.8502326631196624
 30
0.0
 11
10.458088760941621
 21
6.9562326631196596
 31
0.0
  0
LINE
  5
4E0
  8
SHOULDER_-_HYDRAULIC
 10
10.458088760941621
 20
10.603232663119661
 30
0.0
 11
10.458088760941621
 21
10.103232663119661
 31
0.0
  0
LINE
  5
4E1
  8
SHOULDER_-_HYDRAULIC
 10
10.597619968949861
 20
10.603232663119661
 30
0.0
 11
10.597619968949861
 21
10.103232663119661
 31
0.0
  0
LINE
  5
4E2
  8
SHOULDER_-_HYDRAULIC
 10
11.30408876094161
 20
10.603232663119661
 30
0.0
 11
11.30408876094161
 21
10.103232663119661
 31
0.0
  0
LINE
  5
50E
  8
SHOULDER_-_HYDRAULIC
 10
10.958088760941621
 20
12.86405616709752
 30
0.0
 11
10.976727504580509
 21
12.831772916125709
 31
0.0
  0
LINE
  5
50F
  8
SHOULDER_-_HYDRAULIC
 10
10.958088760941621
 20
12.86405616709752
 30
0.0
 11
10.93945001730272
 21
12.831772916125709
 31
0.0
  0
LINE
  5
564
  8
SHOULDER_-_HYDRAULIC
 10
10.916207884146109
 20
12.86091762926678
 30
0.0
 11
10.939450017302731
 21
12.831772916125709
 31
0.0
  0
LINE
  5
565
  8
SHOULDER_-_HYDRAULIC
 10
10.916207884146109
 20
12.86091762926678
 30
0.0
 11
10.90258888875824
 21
12.826216994944479
 31
0.0
  0
LINE
  5
566
  8
SHOULDER_-_HYDRAULIC
 10
10.875262556932149
 20
12.85157212552342
 30
0.0
 11
10.90258888875824
 21
12.82621699494447
 31
0.0
  0
LINE
  5
567
  8
SHOULDER_-_HYDRAULIC
 10
10.875262556932149
 20
12.85157212552342
 30
0.0
 11
10.866967535647561
 21
12.81522926268031
 31
0.0
  0
LINE
  5
568
  8
SHOULDER_-_HYDRAULIC
 10
10.83616743024959
 20
12.8362284189781
 30
0.0
 11
10.866967535647561
 21
12.81522926268031
 31
0.0
  0
LINE
  5
569
  8
SHOULDER_-_HYDRAULIC
 10
10.83616743024959
 20
12.8362284189781
 30
0.0
 11
10.83338168013664
 21
12.79905516711532
 31
0.0
  0
LINE
  5
56A
  8
SHOULDER_-_HYDRAULIC
 10
10.79979582462574
 20
12.81522926268031
 30
0.0
 11
10.83338168013665
 21
12.79905516711532
 31
0.0
  0
LINE
  5
56B
  8
SHOULDER_-_HYDRAULIC
 10
10.79979582462574
 20
12.81522926268031
 30
0.0
 11
10.802581574738671
 21
12.77805601081754
 31
0.0
  0
LINE
  5
56C
  8
SHOULDER_-_HYDRAULIC
 10
10.76696022162799
 20
12.789043743081701
 30
0.0
 11
10.802581574738671
 21
12.77805601081754
 31
0.0
  0
LINE
  5
56D
  8
SHOULDER_-_HYDRAULIC
 10
10.76696022162799
 20
12.789043743081701
 30
0.0
 11
10.77525524291258
 21
12.75270088023859
 31
0.0
  0
LINE
  5
56E
  8
SHOULDER_-_HYDRAULIC
 10
10.7383941143681
 20
12.758256801419821
 30
0.0
 11
10.77525524291258
 21
12.75270088023859
 31
0.0
  0
LINE
  5
56F
  8
SHOULDER_-_HYDRAULIC
 10
10.7383941143681
 20
12.758256801419821
 30
0.0
 11
10.752013109755969
 21
12.72355616709752
 31
0.0
  0
LINE
  5
570
  8
SHOULDER_-_HYDRAULIC
 10
10.714735622478189
 20
12.72355616709752
 30
0.0
 11
10.752013109755969
 21
12.72355616709752
 31
0.0
  0
LINE
  5
571
  8
SHOULDER_-_HYDRAULIC
 10
10.714735622478189
 20
12.72355616709752
 30
0.0
 11
10.733374366117079
 21
12.69127291612571
 31
0.0
  0
LINE
  5
572
  8
SHOULDER_-_HYDRAULIC
 10
10.69651323757259
 20
12.685716994944469
 30
0.0
 11
10.733374366117079
 21
12.69127291612571
 31
0.0
  0
LINE
  5
573
  8
SHOULDER_-_HYDRAULIC
 10
10.69651323757259
 20
12.685716994944469
 30
0.0
 11
10.71975537072921
 21
12.656572281803401
 31
0.0
  0
LINE
  5
574
  8
SHOULDER_-_HYDRAULIC
 10
10.68413401761852
 20
12.64558454953924
 30
0.0
 11
10.71975537072921
 21
12.656572281803401
 31
0.0
  0
LINE
  5
575
  8
SHOULDER_-_HYDRAULIC
 10
10.68413401761852
 20
12.64558454953924
 30
0.0
 11
10.711460349444611
 21
12.620229418960291
 31
0.0
  0
LINE
  5
576
  8
SHOULDER_-_HYDRAULIC
 10
10.677874493933709
 20
12.604055323395301
 30
0.0
 11
10.711460349444611
 21
12.620229418960291
 31
0.0
  0
LINE
  5
577
  8
SHOULDER_-_HYDRAULIC
 10
10.677874493933709
 20
12.604055323395301
 30
0.0
 11
10.70867459933168
 21
12.583056167097521
 31
0.0
  0
LINE
  5
578
  8
SHOULDER_-_HYDRAULIC
 10
10.677874493933709
 20
12.56205701079973
 30
0.0
 11
10.70867459933168
 21
12.583056167097521
 31
0.0
  0
LINE
  5
579
  8
SHOULDER_-_HYDRAULIC
 10
10.677874493933709
 20
12.56205701079973
 30
0.0
 11
10.711460349444611
 21
12.54588291523474
 31
0.0
  0
LINE
  5
57A
  8
SHOULDER_-_HYDRAULIC
 10
10.68413401761852
 20
12.520527784655799
 30
0.0
 11
10.711460349444611
 21
12.54588291523474
 31
0.0
  0
LINE
  5
57B
  8
SHOULDER_-_HYDRAULIC
 10
10.68413401761852
 20
12.520527784655799
 30
0.0
 11
10.71975537072921
 21
12.50954005239163
 31
0.0
  0
LINE
  5
57C
  8
SHOULDER_-_HYDRAULIC
 10
10.69651323757259
 20
12.48039533925056
 30
0.0
 11
10.71975537072921
 21
12.50954005239163
 31
0.0
  0
LINE
  5
57D
  8
SHOULDER_-_HYDRAULIC
 10
10.69651323757259
 20
12.48039533925056
 30
0.0
 11
10.733374366117079
 21
12.47483941806933
 31
0.0
  0
LINE
  5
57E
  8
SHOULDER_-_HYDRAULIC
 10
10.714735622478189
 20
12.44255616709752
 30
0.0
 11
10.733374366117079
 21
12.47483941806933
 31
0.0
  0
LINE
  5
57F
  8
SHOULDER_-_HYDRAULIC
 10
10.714735622478189
 20
12.44255616709752
 30
0.0
 11
10.752013109755969
 21
12.44255616709752
 31
0.0
  0
LINE
  5
580
  8
SHOULDER_-_HYDRAULIC
 10
10.7383941143681
 20
12.40785553277521
 30
0.0
 11
10.752013109755969
 21
12.44255616709752
 31
0.0
  0
LINE
  5
581
  8
SHOULDER_-_HYDRAULIC
 10
10.7383941143681
 20
12.40785553277521
 30
0.0
 11
10.77525524291258
 21
12.413411453956449
 31
0.0
  0
LINE
  5
582
  8
SHOULDER_-_HYDRAULIC
 10
10.76696022162799
 20
12.377068591113339
 30
0.0
 11
10.77525524291258
 21
12.413411453956449
 31
0.0
  0
LINE
  5
583
  8
SHOULDER_-_HYDRAULIC
 10
10.76696022162799
 20
12.377068591113339
 30
0.0
 11
10.802581574738671
 21
12.3880563233775
 31
0.0
  0
LINE
  5
584
  8
SHOULDER_-_HYDRAULIC
 10
10.79979582462574
 20
12.350883071514721
 30
0.0
 11
10.802581574738671
 21
12.3880563233775
 31
0.0
  0
LINE
  5
585
  8
SHOULDER_-_HYDRAULIC
 10
10.79979582462574
 20
12.350883071514721
 30
0.0
 11
10.83338168013665
 21
12.367057167079709
 31
0.0
  0
LINE
  5
586
  8
SHOULDER_-_HYDRAULIC
 10
10.83616743024958
 20
12.329883915216939
 30
0.0
 11
10.83338168013664
 21
12.367057167079709
 31
0.0
  0
LINE
  5
587
  8
SHOULDER_-_HYDRAULIC
 10
10.83616743024958
 20
12.329883915216939
 30
0.0
 11
10.866967535647561
 21
12.350883071514721
 31
0.0
  0
LINE
  5
588
  8
SHOULDER_-_HYDRAULIC
 10
10.875262556932149
 20
12.314540208671611
 30
0.0
 11
10.866967535647561
 21
12.350883071514721
 31
0.0
  0
LINE
  5
589
  8
SHOULDER_-_HYDRAULIC
 10
10.875262556932149
 20
12.314540208671611
 30
0.0
 11
10.90258888875824
 21
12.33989533925056
 31
0.0
  0
LINE
  5
58A
  8
SHOULDER_-_HYDRAULIC
 10
10.91620788414612
 20
12.30519470492826
 30
0.0
 11
10.90258888875824
 21
12.33989533925056
 31
0.0
  0
LINE
  5
58B
  8
SHOULDER_-_HYDRAULIC
 10
10.91620788414612
 20
12.30519470492826
 30
0.0
 11
10.939450017302731
 21
12.33433941806933
 31
0.0
  0
LINE
  5
58C
  8
SHOULDER_-_HYDRAULIC
 10
10.958088760941621
 20
12.30205616709752
 30
0.0
 11
10.93945001730272
 21
12.33433941806932
 31
0.0
  0
LINE
  5
58D
  8
SHOULDER_-_HYDRAULIC
 10
10.958088760941621
 20
12.30205616709752
 30
0.0
 11
10.976727504580509
 21
12.33433941806932
 31
0.0
  0
LINE
  5
58E
  8
SHOULDER_-_HYDRAULIC
 10
10.99996963773712
 20
12.30519470492826
 30
0.0
 11
10.976727504580509
 21
12.33433941806933
 31
0.0
  0
LINE
  5
58F
  8
SHOULDER_-_HYDRAULIC
 10
10.99996963773712
 20
12.30519470492826
 30
0.0
 11
11.013588633124989
 21
12.33989533925056
 31
0.0
  0
LINE
  5
590
  8
SHOULDER_-_HYDRAULIC
 10
11.04091496495108
 20
12.314540208671611
 30
0.0
 11
11.013588633124989
 21
12.33989533925056
 31
0.0
  0
LINE
  5
591
  8
SHOULDER_-_HYDRAULIC
 10
11.04091496495108
 20
12.314540208671611
 30
0.0
 11
11.049209986235679
 21
12.350883071514721
 31
0.0
  0
LINE
  5
592
  8
SHOULDER_-_HYDRAULIC
 10
11.08001009163365
 20
12.329883915216939
 30
0.0
 11
11.049209986235679
 21
12.350883071514721
 31
0.0
  0
LINE
  5
593
  8
SHOULDER_-_HYDRAULIC
 10
11.08001009163365
 20
12.329883915216939
 30
0.0
 11
11.08279584174659
 21
12.367057167079709
 31
0.0
  0
LINE
  5
594
  8
SHOULDER_-_HYDRAULIC
 10
11.11638169725749
 20
12.350883071514721
 30
0.0
 11
11.08279584174659
 21
12.367057167079709
 31
0.0
  0
LINE
  5
595
  8
SHOULDER_-_HYDRAULIC
 10
11.11638169725749
 20
12.350883071514721
 30
0.0
 11
11.11359594714456
 21
12.3880563233775
 31
0.0
  0
LINE
  5
596
  8
SHOULDER_-_HYDRAULIC
 10
11.149217300255239
 20
12.377068591113339
 30
0.0
 11
11.11359594714456
 21
12.3880563233775
 31
0.0
  0
LINE
  5
597
  8
SHOULDER_-_HYDRAULIC
 10
11.149217300255239
 20
12.377068591113339
 30
0.0
 11
11.140922278970651
 21
12.413411453956449
 31
0.0
  0
LINE
  5
598
  8
SHOULDER_-_HYDRAULIC
 10
11.177783407515131
 20
12.40785553277521
 30
0.0
 11
11.140922278970651
 21
12.413411453956449
 31
0.0
  0
LINE
  5
599
  8
SHOULDER_-_HYDRAULIC
 10
11.177783407515131
 20
12.40785553277521
 30
0.0
 11
11.16416441212726
 21
12.44255616709752
 31
0.0
  0
LINE
  5
59A
  8
SHOULDER_-_HYDRAULIC
 10
11.20144189940504
 20
12.44255616709752
 30
0.0
 11
11.16416441212726
 21
12.44255616709752
 31
0.0
  0
LINE
  5
59B
  8
SHOULDER_-_HYDRAULIC
 10
11.20144189940504
 20
12.44255616709752
 30
0.0
 11
11.18280315576615
 21
12.47483941806933
 31
0.0
  0
LINE
  5
59C
  8
SHOULDER_-_HYDRAULIC
 10
11.219664284310641
 20
12.48039533925056
 30
0.0
 11
11.18280315576615
 21
12.47483941806933
 31
0.0
  0
LINE
  5
59D
  8
SHOULDER_-_HYDRAULIC
 10
11.219664284310641
 20
12.48039533925056
 30
0.0
 11
11.196422151154019
 21
12.50954005239163
 31
0.0
  0
LINE
  5
59E
  8
SHOULDER_-_HYDRAULIC
 10
11.232043504264711
 20
12.520527784655791
 30
0.0
 11
11.196422151154019
 21
12.50954005239163
 31
0.0
  0
LINE
  5
59F
  8
SHOULDER_-_HYDRAULIC
 10
11.232043504264711
 20
12.520527784655791
 30
0.0
 11
11.20471717243862
 21
12.54588291523474
 31
0.0
  0
LINE
  5
5A0
  8
SHOULDER_-_HYDRAULIC
 10
11.23830302794952
 20
12.56205701079973
 30
0.0
 11
11.20471717243862
 21
12.54588291523474
 31
0.0
  0
LINE
  5
5A1
  8
SHOULDER_-_HYDRAULIC
 10
11.23830302794952
 20
12.56205701079973
 30
0.0
 11
11.20750292255155
 21
12.583056167097521
 31
0.0
  0
LINE
  5
5A2
  8
SHOULDER_-_HYDRAULIC
 10
11.23830302794952
 20
12.604055323395301
 30
0.0
 11
11.20750292255155
 21
12.583056167097521
 31
0.0
  0
LINE
  5
5A3
  8
SHOULDER_-_HYDRAULIC
 10
11.23830302794952
 20
12.604055323395301
 30
0.0
 11
11.20471717243862
 21
12.620229418960291
 31
0.0
  0
LINE
  5
5A4
  8
SHOULDER_-_HYDRAULIC
 10
11.232043504264711
 20
12.64558454953924
 30
0.0
 11
11.20471717243862
 21
12.620229418960291
 31
0.0
  0
LINE
  5
5A5
  8
SHOULDER_-_HYDRAULIC
 10
11.232043504264711
 20
12.64558454953924
 30
0.0
 11
11.196422151154019
 21
12.656572281803401
 31
0.0
  0
LINE
  5
5A6
  8
SHOULDER_-_HYDRAULIC
 10
11.219664284310641
 20
12.685716994944469
 30
0.0
 11
11.196422151154019
 21
12.656572281803401
 31
0.0
  0
LINE
  5
5A7
  8
SHOULDER_-_HYDRAULIC
 10
11.219664284310641
 20
12.685716994944469
 30
0.0
 11
11.18280315576615
 21
12.69127291612571
 31
0.0
  0
LINE
  5
5A8
  8
SHOULDER_-_HYDRAULIC
 10
11.20144189940504
 20
12.72355616709752
 30
0.0
 11
11.18280315576615
 21
12.69127291612571
 31
0.0
  0
LINE
  5
5A9
  8
SHOULDER_-_HYDRAULIC
 10
11.20144189940504
 20
12.72355616709752
 30
0.0
 11
11.16416441212726
 21
12.72355616709752
 31
0.0
  0
LINE
  5
5AA
  8
SHOULDER_-_HYDRAULIC
 10
11.177783407515131
 20
12.758256801419821
 30
0.0
 11
11.16416441212726
 21
12.72355616709752
 31
0.0
  0
LINE
  5
5AB
  8
SHOULDER_-_HYDRAULIC
 10
11.177783407515131
 20
12.758256801419821
 30
0.0
 11
11.140922278970651
 21
12.75270088023859
 31
0.0
  0
LINE
  5
5AC
  8
SHOULDER_-_HYDRAULIC
 10
11.149217300255239
 20
12.789043743081701
 30
0.0
 11
11.140922278970651
 21
12.75270088023859
 31
0.0
  0
LINE
  5
5AD
  8
SHOULDER_-_HYDRAULIC
 10
11.149217300255239
 20
12.789043743081701
 30
0.0
 11
11.11359594714456
 21
12.77805601081754
 31
0.0
  0
LINE
  5
5AE
  8
SHOULDER_-_HYDRAULIC
 10
11.11638169725749
 20
12.81522926268031
 30
0.0
 11
11.11359594714456
 21
12.77805601081754
 31
0.0
  0
LINE
  5
5AF
  8
SHOULDER_-_HYDRAULIC
 10
11.11638169725749
 20
12.81522926268031
 30
0.0
 11
11.08279584174659
 21
12.79905516711532
 31
0.0
  0
LINE
  5
5B0
  8
SHOULDER_-_HYDRAULIC
 10
11.08001009163365
 20
12.8362284189781
 30
0.0
 11
11.08279584174659
 21
12.79905516711532
 31
0.0
  0
LINE
  5
5B1
  8
SHOULDER_-_HYDRAULIC
 10
11.08001009163365
 20
12.8362284189781
 30
0.0
 11
11.049209986235679
 21
12.81522926268031
 31
0.0
  0
LINE
  5
5B2
  8
SHOULDER_-_HYDRAULIC
 10
11.04091496495108
 20
12.85157212552342
 30
0.0
 11
11.049209986235679
 21
12.81522926268031
 31
0.0
  0
LINE
  5
5B3
  8
SHOULDER_-_HYDRAULIC
 10
11.04091496495108
 20
12.85157212552342
 30
0.0
 11
11.013588633124989
 21
12.826216994944479
 31
0.0
  0
LINE
  5
5B4
  8
SHOULDER_-_HYDRAULIC
 10
10.99996963773712
 20
12.86091762926678
 30
0.0
 11
11.013588633124989
 21
12.826216994944479
 31
0.0
  0
LINE
  5
5B5
  8
SHOULDER_-_HYDRAULIC
 10
10.99996963773712
 20
12.86091762926678
 30
0.0
 11
10.976727504580509
 21
12.831772916125709
 31
0.0
  0
LINE
  5
5DC
  8
DIMENSION
 10
5.6769058487135453
 20
10.603232663119661
 30
0.0
 11
4.6769058487135453
 21
10.603232663119661
 31
0.0
  0
LINE
  5
5DD
  8
DIMENSION
 10
5.804405848713543
 20
10.853232663119661
 30
0.0
 11
4.6769058487135453
 21
10.853232663119661
 31
0.0
  0
LINE
  5
5DE
  8
DIMENSION
 10
4.7081558487135453
 20
10.446982663119661
 30
0.0
 11
4.7081558487135453
 21
10.290732663119661
 31
0.0
  0
LINE
  5
5DF
  8
DIMENSION
 10
4.7081558487135453
 20
11.009482663119661
 30
0.0
 11
4.7081558487135453
 21
11.55323266311966
 31
0.0
  0
LINE
  5
5E0
  8
DIMENSION
 10
4.5519058487135453
 20
11.55323266311966
 30
0.0
 11
4.7081558487135453
 21
11.55323266311966
 31
0.0
  0
SOLID
  5
5E1
  8
DIMENSION
 10
4.682114182046873
 20
10.446982663119661
 30
0.0
 11
4.7341975153802087
 21
10.446982663119661
 31
0.0
 12
4.7081558487135453
 22
10.603232663119661
 32
0.0
 13
4.7081558487135453
 23
10.603232663119661
 33
0.0
  0
SOLID
  5
5E2
  8
DIMENSION
 10
4.682114182046873
 20
11.009482663119661
 30
0.0
 11
4.7341975153802087
 21
11.009482663119661
 31
0.0
 12
4.7081558487135453
 22
10.853232663119661
 32
0.0
 13
4.7081558487135453
 23
10.853232663119661
 33
0.0
  0
LINE
  5
5E4
  8
DIMENSION
 10
5.804405848713543
 20
10.853232663119661
 30
0.0
 11
5.1769058487135453
 21
10.853232663119661
 31
0.0
  0
LINE
  5
5E5
  8
DIMENSION
 10
5.8674058487135454
 20
11.05323266311966
 30
0.0
 11
5.1769058487135453
 21
11.05323266311966
 31
0.0
  0
LINE
  5
5E6
  8
DIMENSION
 10
5.2081558487135453
 20
10.696982663119661
 30
0.0
 11
5.2081558487135453
 21
10.540732663119661
 31
0.0
  0
LINE
  5
5E7
  8
DIMENSION
 10
5.2081558487135453
 20
11.20948266311966
 30
0.0
 11
5.2081558487135453
 21
12.05323266311966
 31
0.0
  0
LINE
  5
5E8
  8
DIMENSION
 10
5.0519058487135453
 20
12.05323266311966
 30
0.0
 11
5.2081558487135453
 21
12.05323266311966
 31
0.0
  0
SOLID
  5
5E9
  8
DIMENSION
 10
5.182114182046873
 20
10.696982663119661
 30
0.0
 11
5.2341975153802087
 21
10.696982663119661
 31
0.0
 12
5.2081558487135453
 22
10.853232663119661
 32
0.0
 13
5.2081558487135453
 23
10.853232663119661
 33
0.0
  0
SOLID
  5
5EA
  8
DIMENSION
 10
5.182114182046873
 20
11.20948266311966
 30
0.0
 11
5.2341975153802087
 21
11.20948266311966
 31
0.0
 12
5.2081558487135453
 22
11.05323266311966
 32
0.0
 13
5.2081558487135453
 23
11.05323266311966
 33
0.0
  0
TEXT
  5
5EC
  8
DIMENSION
 10
4.3143162066614869
 20
12.001149329786321
 30
0.0
 40
0.15625
  1
0.200
  0
TEXT
  5
5ED
  8
DIMENSION
 10
3.8431981873839538
 20
11.50114932978633
 30
0.0
 40
0.15625
  1
0.250
  0
LINE
  5
60C
  8
DIMENSION
 10
5.835655848713543
 20
10.884482663119661
 30
0.0
 11
5.835655848713543
 21
12.08448266311966
 31
0.0
  0
LINE
  5
60D
  8
DIMENSION
 10
6.2736558487135454
 20
10.884482663119661
 30
0.0
 11
6.2736558487135454
 21
12.08448266311966
 31
0.0
  0
LINE
  5
60E
  8
DIMENSION
 10
5.679405848713543
 20
12.05323266311966
 30
0.0
 11
5.523155848713543
 21
12.05323266311966
 31
0.0
  0
LINE
  5
60F
  8
DIMENSION
 10
6.4299058487135454
 20
12.05323266311966
 30
0.0
 11
6.5861558487135454
 21
12.05323266311966
 31
0.0
  0
SOLID
  5
610
  8
DIMENSION
 10
5.679405848713543
 20
12.07927432978633
 30
0.0
 11
5.679405848713543
 21
12.027190996452999
 31
0.0
 12
5.835655848713543
 22
12.05323266311966
 32
0.0
 13
5.835655848713543
 23
12.05323266311966
 33
0.0
  0
SOLID
  5
611
  8
DIMENSION
 10
6.4299058487135454
 20
12.07927432978633
 30
0.0
 11
6.4299058487135454
 21
12.027190996452999
 31
0.0
 12
6.2736558487135454
 22
12.05323266311966
 32
0.0
 13
6.2736558487135454
 23
12.05323266311966
 33
0.0
  0
LINE
  5
613
  8
DIMENSION
 10
5.8986558487135454
 20
11.08448266311966
 30
0.0
 11
5.8986558487135454
 21
11.58448266311966
 31
0.0
  0
LINE
  5
614
  8
DIMENSION
 10
6.210655848713543
 20
11.08448266311966
 30
0.0
 11
6.210655848713543
 21
11.58448266311966
 31
0.0
  0
LINE
  5
615
  8
DIMENSION
 10
5.7424058487135454
 20
11.55323266311966
 30
0.0
 11
5.5861558487135454
 21
11.55323266311966
 31
0.0
  0
LINE
  5
616
  8
DIMENSION
 10
6.366905848713543
 20
11.55323266311966
 30
0.0
 11
6.523155848713543
 21
11.55323266311966
 31
0.0
  0
SOLID
  5
617
  8
DIMENSION
 10
5.7424058487135454
 20
11.57927432978633
 30
0.0
 11
5.7424058487135454
 21
11.52719099645299
 31
0.0
 12
5.8986558487135454
 22
11.55323266311966
 32
0.0
 13
5.8986558487135454
 23
11.55323266311966
 33
0.0
  0
SOLID
  5
618
  8
DIMENSION
 10
6.366905848713543
 20
11.57927432978633
 30
0.0
 11
6.366905848713543
 21
11.52719099645299
 31
0.0
 12
6.210655848713543
 22
11.55323266311966
 32
0.0
 13
6.210655848713543
 23
11.55323266311966
 33
0.0
  0
TEXT
  5
61A
  8
DIMENSION
 10
6.585655848713543
 20
11.50114932978633
 30
0.0
 40
0.15625
  1
%%C0.312
  0
TEXT
  5
61B
  8
DIMENSION
 10
6.6486558487135454
 20
12.00114932978633
 30
0.0
 40
0.15625
  1
%%C0.438, 3X
  0
LINE
  5
659
  8
DIMENSION
 10
11.335338760941619
 20
10.603232663119661
 30
0.0
 11
11.835338760941619
 21
10.603232663119661
 31
0.0
  0
LINE
  5
65A
  8
DIMENSION
 10
11.14533876094162
 20
11.05323266311966
 30
0.0
 11
11.835338760941619
 21
11.05323266311966
 31
0.0
  0
LINE
  5
65B
  8
DIMENSION
 10
11.804088760941619
 20
10.446982663119661
 30
0.0
 11
11.804088760941619
 21
10.290732663119661
 31
0.0
  0
LINE
  5
65C
  8
DIMENSION
 10
11.804088760941619
 20
11.20948266311966
 30
0.0
 11
11.804088760941619
 21
11.36573266311966
 31
0.0
  0
SOLID
  5
65D
  8
DIMENSION
 10
11.77804709427495
 20
10.446982663119661
 30
0.0
 11
11.83013042760828
 21
10.446982663119661
 31
0.0
 12
11.804088760941619
 22
10.603232663119661
 32
0.0
 13
11.804088760941619
 23
10.603232663119661
 33
0.0
  0
SOLID
  5
65E
  8
DIMENSION
 10
11.77804709427495
 20
11.20948266311966
 30
0.0
 11
11.83013042760828
 21
11.20948266311966
 31
0.0
 12
11.804088760941619
 22
11.05323266311966
 32
0.0
 13
11.804088760941619
 23
11.05323266311966
 33
0.0
  0
LINE
  5
660
  8
DIMENSION
 10
10.426838760941621
 20
10.603232663119661
 30
0.0
 11
9.9268387609416209
 21
10.603232663119661
 31
0.0
  0
LINE
  5
661
  8
DIMENSION
 10
10.426838760941621
 20
10.103232663119661
 30
0.0
 11
9.9268387609416209
 21
10.103232663119661
 31
0.0
  0
LINE
  5
662
  8
DIMENSION
 10
9.9580887609416209
 20
10.759482663119661
 30
0.0
 11
9.9580887609416209
 21
10.915732663119661
 31
0.0
  0
LINE
  5
663
  8
DIMENSION
 10
9.9580887609416209
 20
9.9469826631196625
 30
0.0
 11
9.9580887609416209
 21
9.7907326631196625
 31
0.0
  0
SOLID
  5
664
  8
DIMENSION
 10
9.9320470942749495
 20
10.759482663119661
 30
0.0
 11
9.9841304276082852
 21
10.759482663119661
 31
0.0
 12
9.9580887609416209
 22
10.603232663119661
 32
0.0
 13
9.9580887609416209
 23
10.603232663119661
 33
0.0
  0
SOLID
  5
665
  8
DIMENSION
 10
9.9320470942749495
 20
9.9469826631196625
 30
0.0
 11
9.9841304276082852
 21
9.9469826631196625
 31
0.0
 12
9.9580887609416209
 22
10.103232663119661
 32
0.0
 13
9.9580887609416209
 23
10.103232663119661
 33
0.0
  0
LINE
  5
667
  8
DIMENSION
 10
10.426838760941621
 20
7.8502326631196624
 30
0.0
 11
9.9268387609416209
 21
7.8502326631196624
 31
0.0
  0
LINE
  5
668
  8
DIMENSION
 10
10.426838760941621
 20
6.9562326631196596
 30
0.0
 11
9.9268387609416209
 21
6.9562326631196596
 31
0.0
  0
LINE
  5
669
  8
DIMENSION
 10
9.9580887609416209
 20
7.6939826631196624
 30
0.0
 11
9.9580887609416209
 21
7.5719229558447188
 31
0.0
  0
LINE
  5
66A
  8
DIMENSION
 10
9.9580887609416209
 20
7.1124826631196623
 30
0.0
 11
9.9580887609416209
 21
7.2699000051228531
 31
0.0
  0
SOLID
  5
66B
  8
DIMENSION
 10
9.9320470942749495
 20
7.6939826631196624
 30
0.0
 11
9.9841304276082852
 21
7.6939826631196624
 31
0.0
 12
9.9580887609416209
 22
7.8502326631196624
 32
0.0
 13
9.9580887609416209
 23
7.8502326631196624
 33
0.0
  0
SOLID
  5
66C
  8
DIMENSION
 10
9.9320470942749495
 20
7.1124826631196623
 30
0.0
 11
9.9841304276082852
 21
7.1124826631196623
 31
0.0
 12
9.9580887609416209
 22
6.9562326631196596
 32
0.0
 13
9.9580887609416209
 23
6.9562326631196596
 33
0.0
  0
TEXT
  5
676
  8
DIMENSION
 10
11.296745959763671
 20
10.77614932978633
 30
0.0
 40
0.15625
  1
0.450
  0
TEXT
  5
677
  8
DIMENSION
 10
9.6609758239966368
 20
7.3511493297863293
 30
0.0
 40
0.15625
  1
0.894
  0
TEXT
  5
679
  8
DIMENSION
 10
9.6304581057130108
 20
10.30114932978633
 30
0.0
 40
0.15625
  1
0.500
  0
LINE
  5
688
  8
DIMENSION
 10
10.426838760941621
 20
7.8502326631196624
 30
0.0
 11
9.9268387609416209
 21
7.8502326631196624
 31
0.0
  0
LINE
  5
689
  8
DIMENSION
 10
10.426838760941621
 20
10.103232663119661
 30
0.0
 11
9.9268387609416209
 21
10.103232663119661
 31
0.0
  0
LINE
  5
68A
  8
DIMENSION
 10
9.9580887609416209
 20
8.0064826631196624
 30
0.0
 11
9.9580887609416209
 21
8.8538953313762683
 31
0.0
  0
LINE
  5
68B
  8
DIMENSION
 10
9.9580887609416209
 20
9.9469826631196625
 30
0.0
 11
9.9580887609416209
 21
9.1628314026485107
 31
0.0
  0
SOLID
  5
68C
  8
DIMENSION
 10
9.9320470942749495
 20
8.0064826631196624
 30
0.0
 11
9.9841304276082852
 21
8.0064826631196624
 31
0.0
 12
9.9580887609416209
 22
7.8502326631196624
 32
0.0
 13
9.9580887609416209
 23
7.8502326631196624
 33
0.0
  0
SOLID
  5
68D
  8
DIMENSION
 10
9.9320470942749495
 20
9.9469826631196625
 30
0.0
 11
9.9841304276082852
 21
9.9469826631196625
 31
0.0
 12
9.9580887609416209
 22
10.103232663119661
 32
0.0
 13
9.9580887609416209
 23
10.103232663119661
 33
0.0
  0
TEXT
  5
68F
  8
DIMENSION
 10
9.6455887609416209
 20
8.93257439125491
 30
0.0
 40
0.15625
  1
2.253 
  0
LINE
  5
6AF
  8
DIMENSION
 10
5.7081558487135453
 20
4.2175769628295257
 30
0.0
 11
5.7081558487135453
 21
3.217576962829527
 31
0.0
  0
LINE
  5
6B0
  8
DIMENSION
 10
6.4011558487135432
 20
4.2175769628295274
 30
0.0
 11
6.4011558487135432
 21
3.217576962829527
 31
0.0
  0
LINE
  5
6B1
  8
DIMENSION
 10
5.5519058487135453
 20
3.248826962829527
 30
0.0
 11
5.3956558487135453
 21
3.248826962829527
 31
0.0
  0
LINE
  5
6B2
  8
DIMENSION
 10
6.5574058487135432
 20
3.248826962829527
 30
0.0
 11
6.7136558487135432
 21
3.248826962829527
 31
0.0
  0
SOLID
  5
6B3
  8
DIMENSION
 10
5.5519058487135453
 20
3.2748686294961931
 30
0.0
 11
5.5519058487135453
 21
3.22278529616286
 31
0.0
 12
5.7081558487135453
 22
3.248826962829527
 32
0.0
 13
5.7081558487135453
 23
3.248826962829527
 33
0.0
  0
SOLID
  5
6B4
  8
DIMENSION
 10
6.5574058487135432
 20
3.2748686294961931
 30
0.0
 11
6.5574058487135432
 21
3.22278529616286
 31
0.0
 12
6.4011558487135432
 22
3.248826962829527
 32
0.0
 13
6.4011558487135432
 23
3.248826962829527
 33
0.0
  0
LINE
  5
6B6
  8
DIMENSION
 10
6.0546558487135442
 20
4.1096788595841831
 30
0.0
 11
6.0546558487135442
 21
3.717576962829527
 31
0.0
  0
LINE
  5
6B7
  8
DIMENSION
 10
6.4011558487135432
 20
4.2175769628295257
 30
0.0
 11
6.4011558487135432
 21
3.717576962829527
 31
0.0
  0
LINE
  5
6B8
  8
DIMENSION
 10
5.8984058487135442
 20
3.748826962829527
 30
0.0
 11
5.7421558487135442
 21
3.748826962829527
 31
0.0
  0
LINE
  5
6B9
  8
DIMENSION
 10
6.5574058487135432
 20
3.748826962829527
 30
0.0
 11
6.7136558487135432
 21
3.748826962829527
 31
0.0
  0
SOLID
  5
6BA
  8
DIMENSION
 10
5.8984058487135442
 20
3.7748686294961931
 30
0.0
 11
5.8984058487135442
 21
3.72278529616286
 31
0.0
 12
6.0546558487135442
 22
3.748826962829527
 32
0.0
 13
6.0546558487135442
 23
3.748826962829527
 33
0.0
  0
SOLID
  5
6BB
  8
DIMENSION
 10
6.5574058487135432
 20
3.7748686294961931
 30
0.0
 11
6.5574058487135432
 21
3.72278529616286
 31
0.0
 12
6.4011558487135432
 22
3.748826962829527
 32
0.0
 13
6.4011558487135432
 23
3.748826962829527
 33
0.0
  0
TEXT
  5
6BD
  8
DIMENSION
 10
6.7761558487135432
 20
3.183010973444552
 30
0.0
 40
0.15625
  1
0.693
  0
TEXT
  5
6BE
  8
DIMENSION
 10
6.7761558487135432
 20
3.683010973444552
 30
0.0
 40
0.15625
  1
0.347
  0
LINE
  5
6CE
  8
DIMENSION
 10
5.7128265398806022
 20
4.5948269628295266
 30
0.0
 11
5.1769058487135453
 21
4.5948269628295266
 31
0.0
  0
LINE
  5
6CF
  8
DIMENSION
 10
5.6769058487135453
 20
4.2488269628295274
 30
0.0
 11
5.1769058487135453
 21
4.2488269628295274
 31
0.0
  0
LINE
  5
6D0
  8
DIMENSION
 10
5.2081558487135453
 20
4.7510769628295266
 30
0.0
 11
5.2081558487135453
 21
4.9073269628295257
 31
0.0
  0
LINE
  5
6D1
  8
DIMENSION
 10
5.2081558487135453
 20
4.0925769628295274
 30
0.0
 11
5.2081558487135453
 21
3.936326962829527
 31
0.0
  0
LINE
  5
6D2
  8
DIMENSION
 10
5.2081558487135453
 20
3.936326962829527
 30
0.0
 11
5.0519058487135453
 21
3.936326962829527
 31
0.0
  0
SOLID
  5
6D3
  8
DIMENSION
 10
5.182114182046873
 20
4.7510769628295266
 30
0.0
 11
5.2341975153802087
 21
4.7510769628295266
 31
0.0
 12
5.2081558487135453
 22
4.5948269628295266
 32
0.0
 13
5.2081558487135453
 23
4.5948269628295266
 33
0.0
  0
SOLID
  5
6D4
  8
DIMENSION
 10
5.182114182046873
 20
4.0925769628295274
 30
0.0
 11
5.2341975153802087
 21
4.0925769628295274
 31
0.0
 12
5.2081558487135453
 22
4.2488269628295274
 32
0.0
 13
5.2081558487135453
 23
4.2488269628295274
 33
0.0
  0
TEXT
  5
6D6
  8
DIMENSION
 10
4.353196851819888
 20
3.8499119640495221
 30
0.0
 40
0.15625
  1
0.346
  0
LINE
  5
6E6
  8
SHOULDER_-_HYDRAULIC
  6
CENTER
 10
15.45610239661886
 20
11.168373847437911
 30
0.0
 11
15.45610239661886
 21
6.5607898878193369
 31
0.0
  0
LINE
  5
6E9
  8
SHOULDER_-_HYDRAULIC
 10
15.76860239661886
 20
7.9442326631196609
 30
0.0
 11
15.76860239661886
 21
7.8502326631196624
 31
0.0
  0
LINE
  5
6EA
  8
SHOULDER_-_HYDRAULIC
 10
15.14360239661886
 20
7.9442326631196609
 30
0.0
 11
15.14360239661886
 21
7.8502326631196624
 31
0.0
  0
LINE
  5
6EB
  8
SHOULDER_-_HYDRAULIC
 10
15.20610239661886
 20
6.9562326631196623
 30
0.0
 11
15.20610239661886
 21
6.7062326631196596
 31
0.0
  0
LINE
  5
6EC
  8
SHOULDER_-_HYDRAULIC
 10
15.70610239661886
 20
6.9562326631196623
 30
0.0
 11
15.70610239661886
 21
6.7062326631196596
 31
0.0
  0
LINE
  5
6ED
  8
SHOULDER_-_HYDRAULIC
 10
15.20610239661886
 20
6.7062326631196596
 30
0.0
 11
15.70610239661886
 21
6.7062326631196596
 31
0.0
  0
LINE
  5
6EE
  8
SHOULDER_-_HYDRAULIC
 10
15.10960239661885
 20
6.9562326631196623
 30
0.0
 11
15.802602396618861
 21
6.9562326631196623
 31
0.0
  0
LINE
  5
6EF
  8
SHOULDER_-_HYDRAULIC
 10
15.10960239661885
 20
7.8502326631196624
 30
0.0
 11
15.802602396618861
 21
7.8502326631196624
 31
0.0
  0
LINE
  5
6F0
  8
SHOULDER_-_HYDRAULIC
 10
15.10960239661885
 20
7.8502326631196624
 30
0.0
 11
15.10960239661885
 21
6.9562326631196596
 31
0.0
  0
LINE
  5
6F1
  8
SHOULDER_-_HYDRAULIC
 10
15.802602396618861
 20
7.8502326631196624
 30
0.0
 11
15.802602396618861
 21
6.9562326631196596
 31
0.0
  0
LINE
  5
6F2
  8
SHOULDER_-_HYDRAULIC
 10
15.300102396618851
 20
8.9632326631196637
 30
0.0
 11
15.300102396618851
 21
8.1002326631196624
 31
0.0
  0
LINE
  5
6F3
  8
SHOULDER_-_HYDRAULIC
 10
15.612102396618861
 20
8.9632326631196602
 30
0.0
 11
15.612102396618861
 21
8.1002326631196624
 31
0.0
  0
LINE
  5
6F4
  8
SHOULDER_-_HYDRAULIC
 10
15.14360239661886
 20
7.9442326631196609
 30
0.0
 11
15.76860239661886
 21
7.9442326631196609
 31
0.0
  0
LINE
  5
6F5
  8
SHOULDER_-_HYDRAULIC
 10
15.14360239661886
 20
8.0062326631196612
 30
0.0
 11
15.76860239661886
 21
8.0062326631196612
 31
0.0
  0
LINE
  5
6F6
  8
SHOULDER_-_HYDRAULIC
 10
15.14360239661886
 20
8.1002326631196624
 30
0.0
 11
15.76860239661886
 21
8.1002326631196624
 31
0.0
  0
LINE
  5
6F7
  8
SHOULDER_-_HYDRAULIC
 10
15.14360239661886
 20
8.1002326631196624
 30
0.0
 11
15.14360239661886
 21
8.0062326631196612
 31
0.0
  0
LINE
  5
6F8
  8
SHOULDER_-_HYDRAULIC
 10
15.20610239661886
 20
8.0062326631196612
 30
0.0
 11
15.20610239661886
 21
7.9442326631196609
 31
0.0
  0
LINE
  5
6F9
  8
SHOULDER_-_HYDRAULIC
 10
15.70610239661886
 20
8.0062326631196612
 30
0.0
 11
15.70610239661886
 21
7.9442326631196609
 31
0.0
  0
LINE
  5
6FA
  8
SHOULDER_-_HYDRAULIC
 10
15.76860239661886
 20
8.1002326631196624
 30
0.0
 11
15.76860239661886
 21
8.0062326631196612
 31
0.0
  0
LINE
  5
702
  8
SHOULDER_-_HYDRAULIC
 10
15.237102396618861
 20
10.853232663119661
 30
0.0
 11
15.237102396618861
 21
10.603232663119661
 31
0.0
  0
LINE
  5
703
  8
SHOULDER_-_HYDRAULIC
 10
15.675102396618851
 20
10.853232663119661
 30
0.0
 11
15.675102396618851
 21
10.603232663119661
 31
0.0
  0
LINE
  5
705
  8
SHOULDER_-_HYDRAULIC
 10
15.10960239661885
 20
10.103232663119661
 30
0.0
 11
15.802602396618861
 21
10.103232663119661
 31
0.0
  0
LINE
  5
706
  8
SHOULDER_-_HYDRAULIC
 10
15.10960239661885
 20
10.603232663119661
 30
0.0
 11
15.802602396618861
 21
10.603232663119661
 31
0.0
  0
LINE
  5
707
  8
SHOULDER_-_HYDRAULIC
 10
15.10960239661885
 20
10.603232663119661
 30
0.0
 11
15.10960239661885
 21
10.103232663119661
 31
0.0
  0
LINE
  5
708
  8
SHOULDER_-_HYDRAULIC
 10
15.237102396618861
 20
10.103232663119661
 30
0.0
 11
15.237102396618861
 21
9.8532326631196625
 31
0.0
  0
LINE
  5
709
  8
SHOULDER_-_HYDRAULIC
 10
15.675102396618851
 20
10.103232663119661
 30
0.0
 11
15.675102396618851
 21
9.8532326631196625
 31
0.0
  0
LINE
  5
70A
  8
SHOULDER_-_HYDRAULIC
 10
15.802602396618861
 20
10.603232663119661
 30
0.0
 11
15.802602396618861
 21
10.103232663119661
 31
0.0
  0
LINE
  5
70B
  8
SHOULDER_-_HYDRAULIC
 10
15.237102396618861
 20
10.853232663119661
 30
0.0
 11
15.675102396618851
 21
10.853232663119661
 31
0.0
  0
LINE
  5
70C
  8
SHOULDER_-_HYDRAULIC
 10
15.300102396618851
 20
11.05323266311966
 30
0.0
 11
15.612102396618861
 21
11.05323266311966
 31
0.0
  0
LINE
  5
70D
  8
SHOULDER_-_HYDRAULIC
 10
15.300102396618851
 20
11.05323266311966
 30
0.0
 11
15.300102396618851
 21
10.853232663119661
 31
0.0
  0
LINE
  5
70E
  8
SHOULDER_-_HYDRAULIC
 10
15.612102396618861
 20
11.05323266311966
 30
0.0
 11
15.612102396618861
 21
10.853232663119661
 31
0.0
  0
LINE
  5
72F
  8
DIMENSION
 10
5.7176531836478608
 20
5.1579373127953447
 30
0.0
 11
5.6374144538703197
 21
5.29201120564435
 31
0.0
  0
LINE
  5
730
  8
DIMENSION
 10
5.6374144538703197
 20
5.29201120564435
 30
0.0
 11
5.4811644538703197
 21
5.29201120564435
 31
0.0
  0
SOLID
  5
731
  8
DIMENSION
 10
5.739998832456024
 20
5.1713104344249361
 30
0.0
 11
5.6953075348396922
 21
5.1445641911657551
 31
0.0
 12
5.7978919134254019
 22
5.0238634199463412
 32
0.0
 13
5.7978919134254019
 23
5.0238634199463412
 33
0.0
  0
TEXT
  5
733
  8
DIMENSION
 10
4.6045789794659759
 20
5.2124625348901672
 30
0.0
 40
0.15625
  1
R0.500
  0
LINE
  5
743
  8
DIMENSION
 10
10.426838760941621
 20
6.9562326631196596
 30
0.0
 11
9.9268387609416209
 21
6.9562326631196596
 31
0.0
  0
LINE
  5
744
  8
DIMENSION
 10
10.676838760941621
 20
6.7062326631196596
 30
0.0
 11
9.9268387609416209
 21
6.7062326631196623
 31
0.0
  0
LINE
  5
746
  8
DIMENSION
 10
9.9580887609416209
 20
6.5499826631196623
 30
0.0
 11
9.9580887609416209
 21
6.3937326631196623
 31
0.0
  0
LINE
  5
747
  8
DIMENSION
 10
9.9580887609416209
 20
6.3937326631196623
 30
0.0
 11
9.8018387609416209
 21
6.3937326631196623
 31
0.0
  0
SOLID
  5
748
  8
DIMENSION
 10
9.9320470942749495
 20
7.1124826631196623
 30
0.0
 11
9.9841304276082852
 21
7.1124826631196623
 31
0.0
 12
9.9580887609416209
 22
6.9562326631196596
 32
0.0
 13
9.9580887609416209
 23
6.9562326631196596
 33
0.0
  0
SOLID
  5
749
  8
DIMENSION
 10
9.9320470942749495
 20
6.5499826631196623
 30
0.0
 11
9.9841304276082852
 21
6.5499826631196623
 31
0.0
 12
9.9580887609416209
 22
6.7062326631196623
 32
0.0
 13
9.9580887609416209
 23
6.7062326631196623
 33
0.0
  0
TEXT
  5
74B
  8
DIMENSION
 10
9.1107543956107193
 20
6.2965499614860594
 30
0.0
 40
0.15625
  1
0.250
  0
LINE
  5
75B
  8
DIMENSION
 10
10.708088760941621
 20
6.6749826631196596
 30
0.0
 11
10.708088760941621
 21
6.1749826631196614
 31
0.0
  0
LINE
  5
75C
  8
DIMENSION
 10
11.208088760941621
 20
6.6749826631196596
 30
0.0
 11
11.208088760941621
 21
6.1749826631196614
 31
0.0
  0
LINE
  5
75D
  8
DIMENSION
 10
10.551838760941621
 20
6.2062326631196614
 30
0.0
 11
10.395588760941621
 21
6.2062326631196614
 31
0.0
  0
LINE
  5
75E
  8
DIMENSION
 10
11.364338760941621
 20
6.2062326631196614
 30
0.0
 11
11.520588760941621
 21
6.2062326631196614
 31
0.0
  0
SOLID
  5
75F
  8
DIMENSION
 10
10.551838760941621
 20
6.2322743297863283
 30
0.0
 11
10.551838760941621
 21
6.1801909964529953
 31
0.0
 12
10.708088760941621
 22
6.2062326631196614
 32
0.0
 13
10.708088760941621
 23
6.2062326631196614
 33
0.0
  0
SOLID
  5
760
  8
DIMENSION
 10
11.364338760941621
 20
6.2322743297863283
 30
0.0
 11
11.364338760941621
 21
6.1801909964529953
 31
0.0
 12
11.208088760941621
 22
6.2062326631196614
 32
0.0
 13
11.208088760941621
 23
6.2062326631196614
 33
0.0
  0
TEXT
  5
762
  8
DIMENSION
 10
11.583088760941621
 20
6.1361095942430799
 30
0.0
 40
0.15625
  1
%%C0.500
  0
LINE
  5
781
  8
DIMENSION
 10
5.6769058487135453
 20
7.8502326631196624
 30
0.0
 11
5.1769058487135453
 21
7.8502326631196624
 31
0.0
  0
LINE
  5
782
  8
DIMENSION
 10
5.7109058487135442
 20
7.9442326631196609
 30
0.0
 11
5.1769058487135453
 21
7.9442326631196627
 31
0.0
  0
LINE
  5
784
  8
DIMENSION
 10
5.2081558487135453
 20
8.1004826631196636
 30
0.0
 11
5.2081558487135453
 21
8.2567326631196636
 31
0.0
  0
LINE
  5
785
  8
DIMENSION
 10
5.0519058487135453
 20
8.2567326631196636
 30
0.0
 11
5.2081558487135453
 21
8.2567326631196636
 31
0.0
  0
SOLID
  5
786
  8
DIMENSION
 10
5.182114182046873
 20
7.6939826631196624
 30
0.0
 11
5.2341975153802087
 21
7.6939826631196624
 31
0.0
 12
5.2081558487135453
 22
7.8502326631196624
 32
0.0
 13
5.2081558487135453
 23
7.8502326631196624
 33
0.0
  0
SOLID
  5
787
  8
DIMENSION
 10
5.182114182046873
 20
8.1004826631196636
 30
0.0
 11
5.2341975153802087
 21
8.1004826631196636
 31
0.0
 12
5.2081558487135453
 22
7.9442326631196627
 32
0.0
 13
5.2081558487135453
 23
7.9442326631196627
 33
0.0
  0
LINE
  5
789
  8
DIMENSION
 10
5.7734058487135442
 20
6.7062326631196596
 30
0.0
 11
5.1769058487135453
 21
6.7062326631196596
 31
0.0
  0
LINE
  5
78A
  8
DIMENSION
 10
5.6769058487135453
 20
7.8502326631196624
 30
0.0
 11
5.1769058487135453
 21
7.8502326631196624
 31
0.0
  0
LINE
  5
78B
  8
DIMENSION
 10
5.2081558487135453
 20
6.8624826631196596
 30
0.0
 11
5.2081558487135453
 21
7.178884271695086
 31
0.0
  0
LINE
  5
78C
  8
DIMENSION
 10
5.2081558487135453
 20
7.6939826631196624
 30
0.0
 11
5.2081558487135453
 21
7.4500502957353483
 31
0.0
  0
SOLID
  5
78D
  8
DIMENSION
 10
5.182114182046873
 20
6.8624826631196596
 30
0.0
 11
5.2341975153802087
 21
6.8624826631196596
 31
0.0
 12
5.2081558487135453
 22
6.7062326631196596
 32
0.0
 13
5.2081558487135453
 23
6.7062326631196596
 33
0.0
  0
SOLID
  5
78E
  8
DIMENSION
 10
5.182114182046873
 20
7.6939826631196624
 30
0.0
 11
5.2341975153802087
 21
7.6939826631196624
 31
0.0
 12
5.2081558487135453
 22
7.8502326631196624
 32
0.0
 13
5.2081558487135453
 23
7.8502326631196624
 33
0.0
  0
TEXT
  5
790
  8
DIMENSION
 10
4.9216975153802087
 20
7.2493148859331127
 30
0.0
 40
0.15625
  1
1.144 
  0
TEXT
  5
792
  8
DIMENSION
 10
4.3301021322324109
 20
8.2046493297863314
 30
0.0
 40
0.15625
  1
0.094
  0
TEXT
  5
793
  8
DIMENSION
 10
4.3301021322324109
 20
7.9550223200562034
 30
0.0
 40
0.15625
  1
2X
  0
LINE
  5
7A4
  8
DIMENSION
 10
6.3984058487135442
 20
7.9442326631196609
 30
0.0
 11
6.9324058487135432
 21
7.9442326631196609
 31
0.0
  0
LINE
  5
7A5
  8
DIMENSION
 10
6.3984058487135442
 20
8.0062326631196612
 30
0.0
 11
6.9324058487135432
 21
8.0062326631196612
 31
0.0
  0
LINE
  5
7A6
  8
DIMENSION
 10
6.9011558487135432
 20
7.7879826631196609
 30
0.0
 11
6.9011558487135432
 21
7.6317326631196609
 31
0.0
  0
LINE
  5
7A7
  8
DIMENSION
 10
6.9011558487135432
 20
8.1624826631196612
 30
0.0
 11
6.9011558487135432
 21
8.3187326631196612
 31
0.0
  0
LINE
  5
7A8
  8
DIMENSION
 10
6.9011558487135432
 20
7.6317326631196609
 30
0.0
 11
7.0574058487135432
 21
7.6317326631196609
 31
0.0
  0
SOLID
  5
7A9
  8
DIMENSION
 10
6.875114182046878
 20
7.7879826631196609
 30
0.0
 11
6.9271975153802137
 21
7.7879826631196609
 31
0.0
 12
6.9011558487135432
 22
7.9442326631196609
 32
0.0
 13
6.9011558487135432
 23
7.9442326631196609
 33
0.0
  0
SOLID
  5
7AA
  8
DIMENSION
 10
6.875114182046878
 20
8.1624826631196612
 30
0.0
 11
6.9271975153802137
 21
8.1624826631196612
 31
0.0
 12
6.9011558487135432
 22
8.0062326631196612
 32
0.0
 13
6.9011558487135432
 23
8.0062326631196612
 33
0.0
  0
TEXT
  5
7AC
  8
DIMENSION
 10
7.1196815078658062
 20
7.5589077934485109
 30
0.0
 40
0.15625
  1
0.062 
  0
LINE
  5
7CA
  8
DIMENSION
 10
6.3671558487135442
 20
8.1314826631196624
 30
0.0
 11
6.3671558487135442
 21
8.8621745139337165
 31
0.0
  0
LINE
  5
7CB
  8
DIMENSION
 10
5.7421558487135442
 20
8.1314826631196624
 30
0.0
 11
5.7421558487135442
 21
8.8621745139337165
 31
0.0
  0
LINE
  5
7CC
  8
DIMENSION
 10
6.5234058487135442
 20
8.8309245139337165
 30
0.0
 11
6.6796558487135442
 21
8.8309245139337165
 31
0.0
  0
LINE
  5
7CD
  8
DIMENSION
 10
5.5859058487135442
 20
8.8309245139337165
 30
0.0
 11
5.3483053621694401
 21
8.8309245139337165
 31
0.0
  0
SOLID
  5
7CE
  8
DIMENSION
 10
6.5234058487135442
 20
8.8569661806003825
 30
0.0
 11
6.5234058487135442
 21
8.8048828472670486
 31
0.0
 12
6.3671558487135442
 22
8.8309245139337165
 32
0.0
 13
6.3671558487135442
 23
8.8309245139337165
 33
0.0
  0
SOLID
  5
7CF
  8
DIMENSION
 10
5.5859058487135442
 20
8.8569661806003825
 30
0.0
 11
5.5859058487135442
 21
8.8048828472670486
 31
0.0
 12
5.7421558487135442
 22
8.8309245139337165
 32
0.0
 13
5.7421558487135442
 23
8.8309245139337165
 33
0.0
  0
LINE
  5
7D1
  8
DIMENSION
 10
5.8046558487135442
 20
8.0374826631196612
 30
0.0
 11
5.8046558487135442
 21
8.5618912538683567
 31
0.0
  0
LINE
  5
7D2
  8
DIMENSION
 10
6.3046558487135442
 20
8.0374826631196612
 30
0.0
 11
6.3046558487135442
 21
8.5618912538683567
 31
0.0
  0
LINE
  5
7D3
  8
DIMENSION
 10
5.6484058487135442
 20
8.5306412538683567
 30
0.0
 11
5.4921558487135442
 21
8.5306412538683567
 31
0.0
  0
LINE
  5
7D4
  8
DIMENSION
 10
6.4609058487135442
 20
8.5306412538683567
 30
0.0
 11
6.6171558487135442
 21
8.5306412538683567
 31
0.0
  0
SOLID
  5
7D5
  8
DIMENSION
 10
5.6484058487135442
 20
8.5566829205350246
 30
0.0
 11
5.6484058487135442
 21
8.5045995872016888
 31
0.0
 12
5.8046558487135442
 22
8.5306412538683567
 32
0.0
 13
5.8046558487135442
 23
8.5306412538683567
 33
0.0
  0
SOLID
  5
7D6
  8
DIMENSION
 10
6.4609058487135442
 20
8.5566829205350246
 30
0.0
 11
6.4609058487135442
 21
8.5045995872016888
 31
0.0
 12
6.3046558487135442
 22
8.5306412538683567
 32
0.0
 13
6.3046558487135442
 23
8.5306412538683567
 33
0.0
  0
TEXT
  5
7D8
  8
DIMENSION
 10
4.4901768488280283
 20
8.7788411806003825
 30
0.0
 40
0.15625
  1
%%c0.625
  0
TEXT
  5
7D9
  8
DIMENSION
 10
6.6796558487135442
 20
8.4785579205350246
 30
0.0
 40
0.15625
  1
%%c0.500
  0
TEXT
  5
7DA
  8
DIMENSION
 10
4.4901768488280283
 20
8.5350834930058568
 30
0.0
 40
0.15625
  1
2X
  0
LINE
  5
807
  8
DIMENSION
 10
15.143852396618851
 20
9.3532326631196625
 30
0.0
 11
14.57835239661885
 21
9.3532326631196625
 31
0.0
  0
LINE
  5
808
  8
DIMENSION
 10
15.143852396618851
 20
9.8532326631196625
 30
0.0
 11
14.57835239661885
 21
9.8532326631196625
 31
0.0
  0
LINE
  5
809
  8
DIMENSION
 10
14.60960239661885
 20
9.1969826631196625
 30
0.0
 11
14.60960239661885
 21
9.0407326631196625
 31
0.0
  0
LINE
  5
80A
  8
DIMENSION
 10
14.60960239661885
 20
10.009482663119661
 30
0.0
 11
14.60960239661885
 21
10.165732663119661
 31
0.0
  0
SOLID
  5
80B
  8
DIMENSION
 10
14.5835607299522
 20
9.1969826631196625
 30
0.0
 11
14.63564406328552
 21
9.1969826631196625
 31
0.0
 12
14.60960239661885
 22
9.3532326631196625
 32
0.0
 13
14.60960239661885
 23
9.3532326631196625
 33
0.0
  0
SOLID
  5
80C
  8
DIMENSION
 10
14.5835607299522
 20
10.009482663119661
 30
0.0
 11
14.63564406328552
 21
10.009482663119661
 31
0.0
 12
14.60960239661885
 22
9.8532326631196625
 32
0.0
 13
14.60960239661885
 23
9.8532326631196625
 33
0.0
  0
LINE
  5
80E
  8
DIMENSION
 10
15.768352396618861
 20
9.8532326631196625
 30
0.0
 11
16.333852396618859
 21
9.8532326631196625
 31
0.0
  0
LINE
  5
80F
  8
DIMENSION
 10
15.768352396618861
 20
8.9632326631196602
 30
0.0
 11
16.333852396618859
 21
8.9632326631196602
 31
0.0
  0
LINE
  5
810
  8
DIMENSION
 10
16.302602396618859
 20
9.6969826631196625
 30
0.0
 11
16.302602396618859
 21
9.5897802821672808
 31
0.0
  0
LINE
  5
811
  8
DIMENSION
 10
16.302602396618859
 20
9.1194826631196602
 30
0.0
 11
16.302602396618859
 21
9.2266850440720436
 31
0.0
  0
SOLID
  5
812
  8
DIMENSION
 10
16.276560729952191
 20
9.6969826631196625
 30
0.0
 11
16.32864406328552
 21
9.6969826631196625
 31
0.0
 12
16.302602396618859
 22
9.8532326631196625
 32
0.0
 13
16.302602396618859
 23
9.8532326631196625
 33
0.0
  0
SOLID
  5
813
  8
DIMENSION
 10
16.276560729952191
 20
9.1194826631196602
 30
0.0
 11
16.32864406328552
 21
9.1194826631196602
 31
0.0
 12
16.302602396618859
 22
8.9632326631196602
 32
0.0
 13
16.302602396618859
 23
8.9632326631196602
 33
0.0
  0
LINE
  5
815
  8
DIMENSION
 10
15.768352396618861
 20
9.8532326631196625
 30
0.0
 11
16.333852396618859
 21
9.8532326631196625
 31
0.0
  0
LINE
  5
816
  8
DIMENSION
 10
15.643352396618861
 20
11.05323266311966
 30
0.0
 11
16.333852396618859
 21
11.05323266311966
 31
0.0
  0
LINE
  5
817
  8
DIMENSION
 10
16.302602396618859
 20
10.009482663119661
 30
0.0
 11
16.302602396618859
 21
10.27168504407204
 31
0.0
  0
LINE
  5
818
  8
DIMENSION
 10
16.302602396618859
 20
10.89698266311966
 30
0.0
 11
16.302602396618859
 21
10.634780282167281
 31
0.0
  0
SOLID
  5
819
  8
DIMENSION
 10
16.276560729952191
 20
10.009482663119661
 30
0.0
 11
16.32864406328552
 21
10.009482663119661
 31
0.0
 12
16.302602396618859
 22
9.8532326631196625
 32
0.0
 13
16.302602396618859
 23
9.8532326631196625
 33
0.0
  0
SOLID
  5
81A
  8
DIMENSION
 10
16.276560729952191
 20
10.89698266311966
 30
0.0
 11
16.32864406328552
 21
10.89698266311966
 31
0.0
 12
16.302602396618859
 22
11.05323266311966
 32
0.0
 13
16.302602396618859
 23
11.05323266311966
 33
0.0
  0
TEXT
  5
81C
  8
DIMENSION
 10
15.93363497023685
 20
9.3561493297863301
 30
0.0
 40
0.15625
  1
0.890
  0
TEXT
  5
81D
  8
DIMENSION
 10
14.30588825846907
 20
9.5511493297863304
 30
0.0
 40
0.15625
  1
0.500
  0
TEXT
  5
81E
  8
DIMENSION
 10
15.93363497023685
 20
10.40114932978633
 30
0.0
 40
0.15625
  1
1.200
  0
LINE
  5
846
  8
DIMENSION
 10
11.270338760941611
 20
9.3532326631196625
 30
0.0
 11
11.835338760941619
 21
9.3532326631196625
 31
0.0
  0
LINE
  5
847
  8
DIMENSION
 10
11.270338760941611
 20
9.309232663119662
 30
0.0
 11
11.835338760941619
 21
9.309232663119662
 31
0.0
  0
LINE
  5
848
  8
DIMENSION
 10
11.804088760941619
 20
9.5094826631196625
 30
0.0
 11
11.804088760941619
 21
9.6657326631196625
 31
0.0
  0
LINE
  5
849
  8
DIMENSION
 10
11.804088760941619
 20
9.152982663119662
 30
0.0
 11
11.804088760941619
 21
8.996732663119662
 31
0.0
  0
LINE
  5
84A
  8
DIMENSION
 10
11.960338760941619
 20
8.996732663119662
 30
0.0
 11
11.804088760941619
 21
8.996732663119662
 31
0.0
  0
SOLID
  5
84B
  8
DIMENSION
 10
11.77804709427495
 20
9.5094826631196625
 30
0.0
 11
11.83013042760828
 21
9.5094826631196625
 31
0.0
 12
11.804088760941619
 22
9.3532326631196625
 32
0.0
 13
11.804088760941619
 23
9.3532326631196625
 33
0.0
  0
SOLID
  5
84C
  8
DIMENSION
 10
11.77804709427495
 20
9.152982663119662
 30
0.0
 11
11.83013042760828
 21
9.152982663119662
 31
0.0
 12
11.804088760941619
 22
9.309232663119662
 32
0.0
 13
11.804088760941619
 23
9.309232663119662
 33
0.0
  0
TEXT
  5
84E
  8
DIMENSION
 10
12.053770057269061
 20
8.9446493297863299
 30
0.0
 40
0.15625
  1
0.044
  0
LINE
  5
85E
  8
DIMENSION
 10
15.300102396618851
 20
8.1314826631196624
 30
0.0
 11
15.300102396618851
 21
8.5572403739186207
 31
0.0
  0
LINE
  5
85F
  8
DIMENSION
 10
15.612102396618861
 20
8.1314826631196624
 30
0.0
 11
15.612102396618861
 21
8.5572403739186207
 31
0.0
  0
LINE
  5
860
  8
DIMENSION
 10
15.143852396618851
 20
8.5259903739186207
 30
0.0
 11
14.987602396618851
 21
8.5259903739186207
 31
0.0
  0
LINE
  5
861
  8
DIMENSION
 10
15.768352396618861
 20
8.5259903739186207
 30
0.0
 11
15.924602396618861
 21
8.5259903739186207
 31
0.0
  0
SOLID
  5
862
  8
DIMENSION
 10
15.143852396618851
 20
8.5520320405852885
 30
0.0
 11
15.143852396618851
 21
8.4999487072519546
 31
0.0
 12
15.300102396618851
 22
8.5259903739186207
 32
0.0
 13
15.300102396618851
 23
8.5259903739186207
 33
0.0
  0
SOLID
  5
863
  8
DIMENSION
 10
15.768352396618861
 20
8.5520320405852885
 30
0.0
 11
15.768352396618861
 21
8.4999487072519546
 31
0.0
 12
15.612102396618861
 22
8.5259903739186207
 32
0.0
 13
15.612102396618861
 23
8.5259903739186207
 33
0.0
  0
TEXT
  5
865
  8
DIMENSION
 10
15.987102396618861
 20
8.4739070405852885
 30
0.0
 40
0.15625
  1
%%c0.312
  0
TEXT
  5
88C
  8
DIMENSION
 10
11.59177043992301
 20
12.95829847627
 30
0.0
 40
0.15625
  1
42 KNURLES
  0
SOLID
  5
88D
  8
DIMENSION
 10
11.28886281074641
 20
12.871188626343359
 30
0.0
 11
11.177783407515131
 21
12.758256801419821
 31
0.0
 12
11.24623198086681
 22
12.901109955773849
 32
0.0
 13
11.24623198086681
 23
12.901109955773849
 33
0.0
1001
ACAD
1000
DSTYLE
1002
{
1070
   147
1040
0.0625
1070
    77
1070
     0
1002
}
  0
LINE
  5
88F
  8
DIMENSION
 10
11.267547395806609
 20
12.886149291058601
 30
0.0
 11
11.373020439923019
 21
13.03642347627
 31
0.0
1001
ACAD
1000
DSTYLE
1002
{
1070
   147
1040
0.0625
1070
    77
1070
     0
1002
}
  0
LINE
  5
890
  8
DIMENSION
 10
11.373020439923019
 20
13.03642347627
 30
0.0
 11
11.529270439923019
 21
13.03642347627
 31
0.0
1001
ACAD
1000
DSTYLE
1002
{
1070
   147
1040
0.0625
1070
    77
1070
     0
1002
}
  0
TEXT
  5
891
  8
DIMENSION
 10
4.6163198937741319
 20
4.9478145703772247
 30
0.0
 40
0.15625
  1
2X
  0
LINE
  5
893
  8
SHOULDER_-_HYDRAULIC
 10
10.677874493933709
 20
9.8532326631196625
 30
0.0
 11
10.677874493933709
 21
9.3532326631196625
 31
0.0
  0
LINE
  5
894
  8
SHOULDER_-_HYDRAULIC
 10
10.68413401761852
 20
9.8532326631196625
 30
0.0
 11
10.68413401761852
 21
9.3532326631196625
 31
0.0
  0
LINE
  5
895
  8
SHOULDER_-_HYDRAULIC
 10
10.69651323757259
 20
9.8532326631196625
 30
0.0
 11
10.69651323757259
 21
9.3532326631196625
 31
0.0
  0
LINE
  5
896
  8
SHOULDER_-_HYDRAULIC
 10
10.714735622478189
 20
9.8532326631196625
 30
0.0
 11
10.714735622478189
 21
9.3532326631196625
 31
0.0
  0
LINE
  5
897
  8
SHOULDER_-_HYDRAULIC
 10
10.7383941143681
 20
9.8532326631196625
 30
0.0
 11
10.7383941143681
 21
9.3532326631196625
 31
0.0
  0
LINE
  5
898
  8
SHOULDER_-_HYDRAULIC
 10
10.76696022162799
 20
9.8532326631196625
 30
0.0
 11
10.76696022162799
 21
9.3532326631196625
 31
0.0
  0
LINE
  5
899
  8
SHOULDER_-_HYDRAULIC
 10
10.79979582462574
 20
9.8532326631196625
 30
0.0
 11
10.79979582462574
 21
9.3532326631196625
 31
0.0
  0
LINE
  5
89A
  8
SHOULDER_-_HYDRAULIC
 10
10.83616743024958
 20
9.8532326631196625
 30
0.0
 11
10.83616743024958
 21
9.3532326631196625
 31
0.0
  0
LINE
  5
89B
  8
SHOULDER_-_HYDRAULIC
 10
10.875262556932149
 20
9.8532326631196625
 30
0.0
 11
10.875262556932149
 21
9.3532326631196625
 31
0.0
  0
LINE
  5
89C
  8
SHOULDER_-_HYDRAULIC
 10
10.916207884146109
 20
9.8532326631196625
 30
0.0
 11
10.916207884146109
 21
9.3532326631196625
 31
0.0
  0
LINE
  5
89D
  8
SHOULDER_-_HYDRAULIC
 10
10.958088760941621
 20
9.8532326631196625
 30
0.0
 11
10.958088760941621
 21
9.3532326631196625
 31
0.0
  0
LINE
  5
89E
  8
SHOULDER_-_HYDRAULIC
 10
11.23830302794952
 20
9.8532326631196625
 30
0.0
 11
11.23830302794952
 21
9.3532326631196625
 31
0.0
  0
LINE
  5
8A0
  8
SHOULDER_-_HYDRAULIC
 10
10.99996963773712
 20
9.8532326631196625
 30
0.0
 11
10.99996963773712
 21
9.3532326631196625
 31
0.0
  0
LINE
  5
8A1
  8
SHOULDER_-_HYDRAULIC
 10
11.04091496495108
 20
9.8532326631196625
 30
0.0
 11
11.04091496495108
 21
9.3532326631196625
 31
0.0
  0
LINE
  5
8A2
  8
SHOULDER_-_HYDRAULIC
 10
11.08001009163365
 20
9.8532326631196625
 30
0.0
 11
11.08001009163365
 21
9.3532326631196625
 31
0.0
  0
LINE
  5
8A3
  8
SHOULDER_-_HYDRAULIC
 10
11.11638169725749
 20
9.8532326631196625
 30
0.0
 11
11.11638169725749
 21
9.3532326631196625
 31
0.0
  0
LINE
  5
8A4
  8
SHOULDER_-_HYDRAULIC
 10
11.149217300255239
 20
9.8532326631196625
 30
0.0
 11
11.149217300255239
 21
9.3532326631196625
 31
0.0
  0
LINE
  5
8A5
  8
SHOULDER_-_HYDRAULIC
 10
11.177783407515131
 20
9.8532326631196625
 30
0.0
 11
11.177783407515131
 21
9.3532326631196625
 31
0.0
  0
LINE
  5
8A6
  8
SHOULDER_-_HYDRAULIC
 10
11.20144189940504
 20
9.8532326631196625
 30
0.0
 11
11.20144189940504
 21
9.3532326631196625
 31
0.0
  0
LINE
  5
8A7
  8
SHOULDER_-_HYDRAULIC
 10
11.219664284310641
 20
9.8532326631196625
 30
0.0
 11
11.219664284310641
 21
9.3532326631196625
 31
0.0
  0
LINE
  5
8A8
  8
SHOULDER_-_HYDRAULIC
 10
11.232043504264711
 20
9.8532326631196625
 30
0.0
 11
11.232043504264711
 21
9.3532326631196625
 31
0.0
  0
LINE
  5
8A9
  8
SHOULDER_-_HYDRAULIC
 10
10.677874493933709
 20
9.3092326631196638
 30
0.0
 11
10.677874493933709
 21
8.9632326631196637
 31
0.0
  0
LINE
  5
8AA
  8
SHOULDER_-_HYDRAULIC
 10
10.68413401761852
 20
9.3092326631196656
 30
0.0
 11
10.68413401761852
 21
8.9632326631196637
 31
0.0
  0
LINE
  5
8AB
  8
SHOULDER_-_HYDRAULIC
 10
10.69651323757259
 20
9.3092326631196638
 30
0.0
 11
10.69651323757259
 21
8.9632326631196637
 31
0.0
  0
LINE
  5
8AC
  8
SHOULDER_-_HYDRAULIC
 10
10.714735622478189
 20
9.3092326631196656
 30
0.0
 11
10.714735622478189
 21
8.9632326631196637
 31
0.0
  0
LINE
  5
8AD
  8
SHOULDER_-_HYDRAULIC
 10
10.7383941143681
 20
9.3092326631196638
 30
0.0
 11
10.7383941143681
 21
8.9632326631196637
 31
0.0
  0
LINE
  5
8AE
  8
SHOULDER_-_HYDRAULIC
 10
10.76696022162799
 20
9.3092326631196638
 30
0.0
 11
10.76696022162799
 21
8.9632326631196637
 31
0.0
  0
LINE
  5
8AF
  8
SHOULDER_-_HYDRAULIC
 10
10.79979582462574
 20
9.3092326631196638
 30
0.0
 11
10.79979582462574
 21
8.9632326631196637
 31
0.0
  0
LINE
  5
8B0
  8
SHOULDER_-_HYDRAULIC
 10
10.83616743024958
 20
9.3092326631196638
 30
0.0
 11
10.83616743024958
 21
8.9632326631196602
 31
0.0
  0
LINE
  5
8B1
  8
SHOULDER_-_HYDRAULIC
 10
10.916207884146109
 20
9.3092326631196638
 30
0.0
 11
10.91620788414612
 21
8.9632326631196602
 31
0.0
  0
LINE
  5
8B2
  8
SHOULDER_-_HYDRAULIC
 10
10.875262556932149
 20
9.309232663119662
 30
0.0
 11
10.875262556932149
 21
8.9632326631196637
 31
0.0
  0
LINE
  5
8B3
  8
SHOULDER_-_HYDRAULIC
  6
CENTER
 10
10.958088760941621
 20
9.3092326631196638
 30
0.0
 11
10.958088760941621
 21
8.9632326631196637
 31
0.0
  0
LINE
  5
8B4
  8
SHOULDER_-_HYDRAULIC
 10
10.958088760941621
 20
9.3092326631196638
 30
0.0
 11
10.958088760941621
 21
8.9632326631196602
 31
0.0
  0
LINE
  5
8B5
  8
SHOULDER_-_HYDRAULIC
 10
10.99996963773712
 20
9.3092326631196638
 30
0.0
 11
10.99996963773712
 21
8.9632326631196602
 31
0.0
  0
LINE
  5
8B7
  8
SHOULDER_-_HYDRAULIC
 10
11.04091496495108
 20
9.309232663119662
 30
0.0
 11
11.04091496495108
 21
8.9632326631196637
 31
0.0
  0
LINE
  5
8B8
  8
SHOULDER_-_HYDRAULIC
 10
11.08001009163365
 20
9.309232663119662
 30
0.0
 11
11.08001009163365
 21
8.9632326631196602
 31
0.0
  0
LINE
  5
8B9
  8
SHOULDER_-_HYDRAULIC
 10
11.11638169725749
 20
9.309232663119662
 30
0.0
 11
11.11638169725749
 21
8.9632326631196602
 31
0.0
  0
LINE
  5
8BA
  8
SHOULDER_-_HYDRAULIC
 10
11.149217300255239
 20
9.309232663119662
 30
0.0
 11
11.149217300255239
 21
8.9632326631196602
 31
0.0
  0
LINE
  5
8BB
  8
SHOULDER_-_HYDRAULIC
 10
11.177783407515131
 20
9.309232663119662
 30
0.0
 11
11.177783407515131
 21
8.9632326631196602
 31
0.0
  0
LINE
  5
8BC
  8
SHOULDER_-_HYDRAULIC
 10
11.20144189940504
 20
9.309232663119662
 30
0.0
 11
11.20144189940504
 21
8.9632326631196602
 31
0.0
  0
LINE
  5
8BD
  8
SHOULDER_-_HYDRAULIC
 10
11.219664284310641
 20
9.309232663119662
 30
0.0
 11
11.219664284310641
 21
8.9632326631196602
 31
0.0
  0
LINE
  5
8BE
  8
SHOULDER_-_HYDRAULIC
 10
11.23830302794952
 20
9.309232663119662
 30
0.0
 11
11.23830302794952
 21
8.9632326631196602
 31
0.0
  0
LINE
  5
8BF
  8
SHOULDER_-_HYDRAULIC
 10
11.232043504264711
 20
9.309232663119662
 30
0.0
 11
11.232043504264711
 21
8.9632326631196602
 31
0.0
  0
LINE
  5
8C0
  8
SHOULDER_-_HYDRAULIC
 10
15.73005713994195
 20
9.309232663119662
 30
0.0
 11
15.73005713994195
 21
8.9632326631196602
 31
0.0
  0
LINE
  5
8C1
  8
SHOULDER_-_HYDRAULIC
 10
15.736316663626759
 20
9.309232663119662
 30
0.0
 11
15.736316663626759
 21
8.9632326631196602
 31
0.0
  0
LINE
  5
8C2
  8
SHOULDER_-_HYDRAULIC
 10
15.717677919987869
 20
9.309232663119662
 30
0.0
 11
15.717677919987869
 21
8.9632326631196602
 31
0.0
  0
LINE
  5
8C3
  8
SHOULDER_-_HYDRAULIC
 10
15.699455535082279
 20
9.309232663119662
 30
0.0
 11
15.69945553508229
 21
8.9632326631196602
 31
0.0
  0
LINE
  5
8C4
  8
SHOULDER_-_HYDRAULIC
 10
15.67579704319237
 20
9.309232663119662
 30
0.0
 11
15.67579704319237
 21
8.9632326631196602
 31
0.0
  0
LINE
  5
8C5
  8
SHOULDER_-_HYDRAULIC
 10
15.64723093593248
 20
9.309232663119662
 30
0.0
 11
15.64723093593248
 21
8.9632326631196602
 31
0.0
  0
LINE
  5
8C6
  8
SHOULDER_-_HYDRAULIC
 10
15.61439533293473
 20
9.309232663119662
 30
0.0
 11
15.61439533293473
 21
8.9632326631196602
 31
0.0
  0
LINE
  5
8C7
  8
SHOULDER_-_HYDRAULIC
 10
15.578023727310891
 20
9.309232663119662
 30
0.0
 11
15.578023727310891
 21
8.9632326631196602
 31
0.0
  0
LINE
  5
8C8
  8
SHOULDER_-_HYDRAULIC
 10
15.538928600628321
 20
9.309232663119662
 30
0.0
 11
15.538928600628321
 21
8.9632326631196637
 31
0.0
  0
LINE
  5
8C9
  8
SHOULDER_-_HYDRAULIC
 10
15.497983273414359
 20
9.3092326631196638
 30
0.0
 11
15.497983273414359
 21
8.9632326631196602
 31
0.0
  0
LINE
  5
8CA
  8
SHOULDER_-_HYDRAULIC
 10
15.45610239661886
 20
9.3092326631196638
 30
0.0
 11
15.45610239661886
 21
8.9632326631196602
 31
0.0
  0
LINE
  5
8CB
  8
SHOULDER_-_HYDRAULIC
  6
CENTER
 10
15.45610239661886
 20
9.3092326631196638
 30
0.0
 11
15.45610239661886
 21
8.9632326631196637
 31
0.0
  0
LINE
  5
8CC
  8
SHOULDER_-_HYDRAULIC
 10
15.37327619260939
 20
9.309232663119662
 30
0.0
 11
15.37327619260939
 21
8.9632326631196637
 31
0.0
  0
LINE
  5
8CD
  8
SHOULDER_-_HYDRAULIC
 10
15.414221519823361
 20
9.3092326631196638
 30
0.0
 11
15.414221519823361
 21
8.9632326631196602
 31
0.0
  0
LINE
  5
8CE
  8
SHOULDER_-_HYDRAULIC
 10
15.334181065926829
 20
9.3092326631196638
 30
0.0
 11
15.334181065926829
 21
8.9632326631196602
 31
0.0
  0
LINE
  5
8CF
  8
SHOULDER_-_HYDRAULIC
 10
15.297809460302981
 20
9.3092326631196638
 30
0.0
 11
15.297809460302981
 21
8.9632326631196637
 31
0.0
  0
LINE
  5
8D0
  8
SHOULDER_-_HYDRAULIC
 10
15.264973857305231
 20
9.3092326631196638
 30
0.0
 11
15.264973857305231
 21
8.9632326631196637
 31
0.0
  0
LINE
  5
8D1
  8
SHOULDER_-_HYDRAULIC
 10
15.236407750045339
 20
9.3092326631196638
 30
0.0
 11
15.236407750045339
 21
8.9632326631196637
 31
0.0
  0
LINE
  5
8D2
  8
SHOULDER_-_HYDRAULIC
 10
15.212749258155419
 20
9.3092326631196656
 30
0.0
 11
15.212749258155419
 21
8.9632326631196637
 31
0.0
  0
LINE
  5
8D3
  8
SHOULDER_-_HYDRAULIC
 10
15.19452687324984
 20
9.3092326631196638
 30
0.0
 11
15.19452687324984
 21
8.9632326631196637
 31
0.0
  0
LINE
  5
8D4
  8
SHOULDER_-_HYDRAULIC
 10
15.18214765329577
 20
9.3092326631196656
 30
0.0
 11
15.18214765329577
 21
8.9632326631196637
 31
0.0
  0
LINE
  5
8D5
  8
SHOULDER_-_HYDRAULIC
 10
15.17588812961095
 20
9.3092326631196638
 30
0.0
 11
15.17588812961095
 21
8.9632326631196637
 31
0.0
  0
LINE
  5
8D6
  8
SHOULDER_-_HYDRAULIC
 10
15.73710239661885
 20
9.309232663119662
 30
0.0
 11
15.73710239661885
 21
8.9632326631196602
 31
0.0
  0
LINE
  5
8D7
  8
SHOULDER_-_HYDRAULIC
 10
15.175102396618851
 20
9.309232663119662
 30
0.0
 11
15.175102396618851
 21
8.9632326631196602
 31
0.0
  0
LINE
  5
8D8
  8
SHOULDER_-_HYDRAULIC
 10
15.175102396618851
 20
8.9632326631196637
 30
0.0
 11
15.73710239661885
 21
8.9632326631196602
 31
0.0
  0
LINE
  5
8D9
  8
SHOULDER_-_HYDRAULIC
 10
15.175102396618851
 20
9.8532326631196625
 30
0.0
 11
15.737102396618861
 21
9.8532326631196625
 31
0.0
  0
LINE
  5
8DA
  8
SHOULDER_-_HYDRAULIC
 10
15.175102396618851
 20
9.3092326631196638
 30
0.0
 11
15.73710239661885
 21
9.309232663119662
 31
0.0
  0
LINE
  5
8DB
  8
SHOULDER_-_HYDRAULIC
 10
15.175102396618851
 20
9.3532326631196625
 30
0.0
 11
15.73710239661885
 21
9.3532326631196625
 31
0.0
  0
LINE
  5
8DC
  8
SHOULDER_-_HYDRAULIC
 10
15.17588812961095
 20
9.8532326631196625
 30
0.0
 11
15.17588812961095
 21
9.3532326631196625
 31
0.0
  0
LINE
  5
8DD
  8
SHOULDER_-_HYDRAULIC
 10
15.175102396618851
 20
9.8532326631196625
 30
0.0
 11
15.175102396618851
 21
9.3532326631196625
 31
0.0
  0
LINE
  5
8DE
  8
SHOULDER_-_HYDRAULIC
 10
15.578023727310891
 20
9.8532326631196625
 30
0.0
 11
15.578023727310891
 21
9.3532326631196625
 31
0.0
  0
LINE
  5
8DF
  8
SHOULDER_-_HYDRAULIC
 10
15.538928600628321
 20
9.8532326631196625
 30
0.0
 11
15.538928600628321
 21
9.3532326631196625
 31
0.0
  0
LINE
  5
8E0
  8
SHOULDER_-_HYDRAULIC
 10
15.497983273414359
 20
9.8532326631196625
 30
0.0
 11
15.497983273414359
 21
9.3532326631196625
 31
0.0
  0
LINE
  5
8E1
  8
SHOULDER_-_HYDRAULIC
 10
15.45610239661886
 20
9.8532326631196625
 30
0.0
 11
15.45610239661886
 21
9.3532326631196625
 31
0.0
  0
LINE
  5
8E2
  8
SHOULDER_-_HYDRAULIC
 10
15.414221519823361
 20
9.8532326631196625
 30
0.0
 11
15.414221519823361
 21
9.3532326631196625
 31
0.0
  0
LINE
  5
8E3
  8
SHOULDER_-_HYDRAULIC
 10
15.37327619260939
 20
9.8532326631196625
 30
0.0
 11
15.37327619260939
 21
9.3532326631196625
 31
0.0
  0
LINE
  5
8E4
  8
SHOULDER_-_HYDRAULIC
 10
15.334181065926829
 20
9.8532326631196625
 30
0.0
 11
15.334181065926829
 21
9.3532326631196625
 31
0.0
  0
LINE
  5
8E5
  8
SHOULDER_-_HYDRAULIC
 10
15.297809460302981
 20
9.8532326631196625
 30
0.0
 11
15.297809460302981
 21
9.3532326631196625
 31
0.0
  0
LINE
  5
8E6
  8
SHOULDER_-_HYDRAULIC
 10
15.264973857305231
 20
9.8532326631196625
 30
0.0
 11
15.264973857305231
 21
9.3532326631196625
 31
0.0
  0
LINE
  5
8E7
  8
SHOULDER_-_HYDRAULIC
 10
15.236407750045339
 20
9.8532326631196625
 30
0.0
 11
15.236407750045339
 21
9.3532326631196625
 31
0.0
  0
LINE
  5
8E8
  8
SHOULDER_-_HYDRAULIC
 10
15.212749258155419
 20
9.8532326631196625
 30
0.0
 11
15.212749258155419
 21
9.3532326631196625
 31
0.0
  0
LINE
  5
8E9
  8
SHOULDER_-_HYDRAULIC
 10
15.61439533293473
 20
9.8532326631196625
 30
0.0
 11
15.61439533293473
 21
9.3532326631196625
 31
0.0
  0
LINE
  5
8EA
  8
SHOULDER_-_HYDRAULIC
 10
15.64723093593248
 20
9.8532326631196625
 30
0.0
 11
15.64723093593248
 21
9.3532326631196625
 31
0.0
  0
LINE
  5
8EB
  8
SHOULDER_-_HYDRAULIC
 10
15.67579704319237
 20
9.8532326631196625
 30
0.0
 11
15.67579704319237
 21
9.3532326631196625
 31
0.0
  0
LINE
  5
8EC
  8
SHOULDER_-_HYDRAULIC
 10
15.717677919987869
 20
9.8532326631196625
 30
0.0
 11
15.717677919987869
 21
9.3532326631196625
 31
0.0
  0
LINE
  5
8ED
  8
SHOULDER_-_HYDRAULIC
 10
15.736316663626759
 20
9.8532326631196625
 30
0.0
 11
15.736316663626759
 21
9.3532326631196625
 31
0.0
  0
LINE
  5
8EE
  8
SHOULDER_-_HYDRAULIC
 10
15.73005713994195
 20
9.8532326631196625
 30
0.0
 11
15.73005713994195
 21
9.3532326631196625
 31
0.0
  0
LINE
  5
8EF
  8
SHOULDER_-_HYDRAULIC
 10
15.699455535082279
 20
9.8532326631196625
 30
0.0
 11
15.699455535082279
 21
9.3532326631196625
 31
0.0
  0
LINE
  5
8F0
  8
SHOULDER_-_HYDRAULIC
 10
15.18214765329577
 20
9.8532326631196625
 30
0.0
 11
15.18214765329577
 21
9.3532326631196625
 31
0.0
  0
LINE
  5
8F1
  8
SHOULDER_-_HYDRAULIC
 10
15.19452687324984
 20
9.8532326631196625
 30
0.0
 11
15.19452687324984
 21
9.3532326631196625
 31
0.0
  0
LINE
  5
8F2
  8
SHOULDER_-_HYDRAULIC
 10
15.73710239661885
 20
9.8532326631196625
 30
0.0
 11
15.73710239661885
 21
9.3532326631196625
 31
0.0
  0
LINE
  5
8F3
  8
SHOULDER_-_HYDRAULIC
 10
15.237102396618861
 20
9.3532326631196625
 30
0.0
 11
15.237102396618861
 21
9.3092326631196638
 31
0.0
  0
LINE
  5
8F4
  8
SHOULDER_-_HYDRAULIC
 10
15.675102396618851
 20
9.3532326631196625
 30
0.0
 11
15.675102396618851
 21
9.309232663119662
 31
0.0
  0
LINE
  5
8F5
  8
SHOULDER_-_HYDRAULIC
 10
6.3286105920366316
 20
9.309232663119662
 30
0.0
 11
6.3286105920366387
 21
8.9632326631196602
 31
0.0
  0
LINE
  5
8F6
  8
SHOULDER_-_HYDRAULIC
 10
6.3348701157214569
 20
9.309232663119662
 30
0.0
 11
6.3348701157214569
 21
8.9632326631196602
 31
0.0
  0
LINE
  5
8F7
  8
SHOULDER_-_HYDRAULIC
 10
6.3162313720825622
 20
9.309232663119662
 30
0.0
 11
6.3162313720825622
 21
8.9632326631196602
 31
0.0
  0
LINE
  5
8F8
  8
SHOULDER_-_HYDRAULIC
 10
6.2980089871769698
 20
9.309232663119662
 30
0.0
 11
6.2980089871769698
 21
8.9632326631196602
 31
0.0
  0
LINE
  5
8F9
  8
SHOULDER_-_HYDRAULIC
 10
6.2743504952870586
 20
9.309232663119662
 30
0.0
 11
6.2743504952870586
 21
8.9632326631196602
 31
0.0
  0
LINE
  5
8FA
  8
SHOULDER_-_HYDRAULIC
 10
6.2457843880271753
 20
9.309232663119662
 30
0.0
 11
6.2457843880271753
 21
8.9632326631196602
 31
0.0
  0
LINE
  5
8FB
  8
SHOULDER_-_HYDRAULIC
 10
6.2129487850294183
 20
9.309232663119662
 30
0.0
 11
6.2129487850294254
 21
8.9632326631196602
 31
0.0
  0
LINE
  5
8FC
  8
SHOULDER_-_HYDRAULIC
 10
6.1765771794055757
 20
9.309232663119662
 30
0.0
 11
6.1765771794055757
 21
8.9632326631196602
 31
0.0
  0
LINE
  5
8FD
  8
SHOULDER_-_HYDRAULIC
 10
6.1374820527230076
 20
9.309232663119662
 30
0.0
 11
6.1374820527230076
 21
8.9632326631196637
 31
0.0
  0
LINE
  5
8FE
  8
SHOULDER_-_HYDRAULIC
 10
6.096536725509047
 20
9.3092326631196638
 30
0.0
 11
6.096536725509047
 21
8.9632326631196602
 31
0.0
  0
LINE
  5
8FF
  8
SHOULDER_-_HYDRAULIC
 10
6.0546558487135442
 20
9.3092326631196638
 30
0.0
 11
6.0546558487135442
 21
8.9632326631196602
 31
0.0
  0
LINE
  5
900
  8
SHOULDER_-_HYDRAULIC
  6
CENTER
 10
6.0546558487135442
 20
9.3092326631196638
 30
0.0
 11
6.0546558487135442
 21
8.9632326631196637
 31
0.0
  0
LINE
  5
901
  8
SHOULDER_-_HYDRAULIC
 10
5.9718296447040791
 20
9.309232663119662
 30
0.0
 11
5.9718296447040791
 21
8.9632326631196637
 31
0.0
  0
LINE
  5
902
  8
SHOULDER_-_HYDRAULIC
 10
6.0127749719180406
 20
9.3092326631196638
 30
0.0
 11
6.0127749719180406
 21
8.9632326631196602
 31
0.0
  0
LINE
  5
903
  8
SHOULDER_-_HYDRAULIC
 10
5.932734518021511
 20
9.3092326631196638
 30
0.0
 11
5.932734518021511
 21
8.9632326631196602
 31
0.0
  0
LINE
  5
904
  8
SHOULDER_-_HYDRAULIC
 10
5.8963629123976702
 20
9.3092326631196638
 30
0.0
 11
5.8963629123976702
 21
8.9632326631196637
 31
0.0
  0
LINE
  5
905
  8
SHOULDER_-_HYDRAULIC
 10
5.8635273093999132
 20
9.3092326631196638
 30
0.0
 11
5.8635273093999132
 21
8.9632326631196637
 31
0.0
  0
LINE
  5
906
  8
SHOULDER_-_HYDRAULIC
 10
5.834961202140029
 20
9.3092326631196638
 30
0.0
 11
5.834961202140029
 21
8.9632326631196637
 31
0.0
  0
LINE
  5
907
  8
SHOULDER_-_HYDRAULIC
 10
5.8113027102501169
 20
9.3092326631196656
 30
0.0
 11
5.8113027102501169
 21
8.9632326631196637
 31
0.0
  0
LINE
  5
908
  8
SHOULDER_-_HYDRAULIC
 10
5.7930803253445262
 20
9.3092326631196638
 30
0.0
 11
5.7930803253445262
 21
8.9632326631196637
 31
0.0
  0
LINE
  5
909
  8
SHOULDER_-_HYDRAULIC
 10
5.780701105390456
 20
9.3092326631196656
 30
0.0
 11
5.780701105390456
 21
8.9632326631196637
 31
0.0
  0
LINE
  5
90A
  8
SHOULDER_-_HYDRAULIC
 10
5.7744415817056369
 20
9.3092326631196638
 30
0.0
 11
5.7744415817056369
 21
8.9632326631196637
 31
0.0
  0
LINE
  5
90B
  8
SHOULDER_-_HYDRAULIC
 10
6.335655848713543
 20
9.309232663119662
 30
0.0
 11
6.335655848713543
 21
8.9632326631196602
 31
0.0
  0
LINE
  5
90C
  8
SHOULDER_-_HYDRAULIC
 10
5.7736558487135454
 20
9.309232663119662
 30
0.0
 11
5.7736558487135454
 21
8.9632326631196602
 31
0.0
  0
LINE
  5
90D
  8
SHOULDER_-_HYDRAULIC
 10
5.7736558487135454
 20
8.9632326631196637
 30
0.0
 11
6.335655848713543
 21
8.9632326631196602
 31
0.0
  0
LINE
  5
90E
  8
SHOULDER_-_HYDRAULIC
 10
5.7736558487135454
 20
9.8532326631196625
 30
0.0
 11
6.335655848713543
 21
9.8532326631196625
 31
0.0
  0
LINE
  5
90F
  8
SHOULDER_-_HYDRAULIC
 10
5.7736558487135454
 20
9.3092326631196638
 30
0.0
 11
6.335655848713543
 21
9.309232663119662
 31
0.0
  0
LINE
  5
910
  8
SHOULDER_-_HYDRAULIC
 10
5.7736558487135454
 20
9.3532326631196625
 30
0.0
 11
6.335655848713543
 21
9.3532326631196625
 31
0.0
  0
LINE
  5
911
  8
SHOULDER_-_HYDRAULIC
 10
5.7744415817056369
 20
9.8532326631196625
 30
0.0
 11
5.7744415817056369
 21
9.3532326631196625
 31
0.0
  0
LINE
  5
912
  8
SHOULDER_-_HYDRAULIC
 10
5.7736558487135454
 20
9.8532326631196625
 30
0.0
 11
5.7736558487135454
 21
9.3532326631196625
 31
0.0
  0
LINE
  5
913
  8
SHOULDER_-_HYDRAULIC
 10
6.1765771794055757
 20
9.8532326631196625
 30
0.0
 11
6.1765771794055757
 21
9.3532326631196625
 31
0.0
  0
LINE
  5
914
  8
SHOULDER_-_HYDRAULIC
 10
6.1374820527230076
 20
9.8532326631196625
 30
0.0
 11
6.1374820527230076
 21
9.3532326631196625
 31
0.0
  0
LINE
  5
915
  8
SHOULDER_-_HYDRAULIC
 10
6.096536725509047
 20
9.8532326631196625
 30
0.0
 11
6.096536725509047
 21
9.3532326631196625
 31
0.0
  0
LINE
  5
916
  8
SHOULDER_-_HYDRAULIC
 10
6.0546558487135442
 20
9.8532326631196625
 30
0.0
 11
6.0546558487135442
 21
9.3532326631196625
 31
0.0
  0
LINE
  5
917
  8
SHOULDER_-_HYDRAULIC
 10
6.0127749719180406
 20
9.8532326631196625
 30
0.0
 11
6.0127749719180406
 21
9.3532326631196625
 31
0.0
  0
LINE
  5
918
  8
SHOULDER_-_HYDRAULIC
 10
5.9718296447040791
 20
9.8532326631196625
 30
0.0
 11
5.9718296447040791
 21
9.3532326631196625
 31
0.0
  0
LINE
  5
919
  8
SHOULDER_-_HYDRAULIC
 10
5.932734518021511
 20
9.8532326631196625
 30
0.0
 11
5.932734518021511
 21
9.3532326631196625
 31
0.0
  0
LINE
  5
91A
  8
SHOULDER_-_HYDRAULIC
 10
5.8963629123976702
 20
9.8532326631196625
 30
0.0
 11
5.8963629123976702
 21
9.3532326631196625
 31
0.0
  0
LINE
  5
91B
  8
SHOULDER_-_HYDRAULIC
 10
5.8635273093999132
 20
9.8532326631196625
 30
0.0
 11
5.8635273093999132
 21
9.3532326631196625
 31
0.0
  0
LINE
  5
91C
  8
SHOULDER_-_HYDRAULIC
 10
5.834961202140029
 20
9.8532326631196625
 30
0.0
 11
5.834961202140029
 21
9.3532326631196625
 31
0.0
  0
LINE
  5
91D
  8
SHOULDER_-_HYDRAULIC
 10
5.8113027102501169
 20
9.8532326631196625
 30
0.0
 11
5.8113027102501169
 21
9.3532326631196625
 31
0.0
  0
LINE
  5
91E
  8
SHOULDER_-_HYDRAULIC
 10
6.2129487850294183
 20
9.8532326631196625
 30
0.0
 11
6.2129487850294183
 21
9.3532326631196625
 31
0.0
  0
LINE
  5
91F
  8
SHOULDER_-_HYDRAULIC
 10
6.2457843880271753
 20
9.8532326631196625
 30
0.0
 11
6.2457843880271753
 21
9.3532326631196625
 31
0.0
  0
LINE
  5
920
  8
SHOULDER_-_HYDRAULIC
 10
6.2743504952870586
 20
9.8532326631196625
 30
0.0
 11
6.2743504952870586
 21
9.3532326631196625
 31
0.0
  0
LINE
  5
921
  8
SHOULDER_-_HYDRAULIC
 10
6.3162313720825622
 20
9.8532326631196625
 30
0.0
 11
6.3162313720825622
 21
9.3532326631196625
 31
0.0
  0
LINE
  5
922
  8
SHOULDER_-_HYDRAULIC
 10
6.3348701157214569
 20
9.8532326631196625
 30
0.0
 11
6.3348701157214569
 21
9.3532326631196625
 31
0.0
  0
LINE
  5
923
  8
SHOULDER_-_HYDRAULIC
 10
6.3286105920366316
 20
9.8532326631196625
 30
0.0
 11
6.3286105920366316
 21
9.3532326631196625
 31
0.0
  0
LINE
  5
924
  8
SHOULDER_-_HYDRAULIC
 10
6.2980089871769698
 20
9.8532326631196625
 30
0.0
 11
6.2980089871769698
 21
9.3532326631196625
 31
0.0
  0
LINE
  5
925
  8
SHOULDER_-_HYDRAULIC
 10
5.780701105390456
 20
9.8532326631196625
 30
0.0
 11
5.780701105390456
 21
9.3532326631196625
 31
0.0
  0
LINE
  5
926
  8
SHOULDER_-_HYDRAULIC
 10
5.7930803253445262
 20
9.8532326631196625
 30
0.0
 11
5.7930803253445262
 21
9.3532326631196625
 31
0.0
  0
LINE
  5
927
  8
SHOULDER_-_HYDRAULIC
 10
6.335655848713543
 20
9.8532326631196625
 30
0.0
 11
6.335655848713543
 21
9.3532326631196625
 31
0.0
  0
LINE
  5
928
  8
SHOULDER_-_HYDRAULIC
 10
5.835655848713543
 20
9.3532326631196625
 30
0.0
 11
5.835655848713543
 21
9.3092326631196638
 31
0.0
  0
LINE
  5
929
  8
SHOULDER_-_HYDRAULIC
 10
6.2736558487135454
 20
9.3532326631196625
 30
0.0
 11
6.2736558487135454
 21
9.309232663119662
 31
0.0
  0
LINE
  5
92A
  8
SHOULDER_-_HYDRAULIC
  6
CENTER
 10
10.958088760941621
 20
11.168373847437911
 30
0.0
 11
10.958088760941621
 21
6.560789887819336
 31
0.0
  0
TEXT
  5
954
  8
DIMENSION
 10
15.99619105903365
 20
7.3511493297863311
 30
0.0
 40
0.15625
  1
1.394
  0
TEXT
  5
956
  8
DIMENSION
 10
11.61228460111356
 20
12.480417533086211
 30
0.0
 40
0.25
  1
SECTION A-A
  0
LINE
  5
957
  8
DIMENSION
 10
11.60183493605766
 20
12.410300197952299
 30
0.0
 11
14.157714097193599
 21
12.410300197952299
 31
0.0
  0
LINE
  5
958
  8
DIMENSION
 10
11.60183493605766
 20
12.390039876537349
 30
0.0
 11
14.157714097193599
 21
12.390039876537349
 31
0.0
  0
LINE
  5
95A
  8
DIMENSION
 10
5.2296034243240541
 20
9.4337531090288476
 30
0.0
 11
5.2296034243240541
 21
9.7085522395896877
 31
0.0
  0
SOLID
  5
95B
  8
DIMENSION
 10
5.1775200909907184
 20
9.5900031090288476
 30
0.0
 11
5.2816867576573889
 21
9.5900031090288476
 31
0.0
 12
5.2296034243240541
 22
9.2775031090288476
 32
0.0
 13
5.2296034243240541
 23
9.2775031090288476
 33
0.0
  0
SOLID
  5
95C
  8
DIMENSION
 10
6.93179160643637
 20
9.5900031090288476
 30
0.0
 11
6.8276249397696978
 21
9.5900031090288476
 31
0.0
 12
6.8797082731030343
 22
9.2775031090288476
 32
0.0
 13
6.8797082731030343
 23
9.2775031090288476
 33
0.0
  0
LINE
  5
95D
  8
DIMENSION
 10
6.8797082731030343
 20
9.4337531090288476
 30
0.0
 11
6.8797082731030343
 21
9.7085522395896877
 31
0.0
  0
LINE
  5
95E
  8
DIMENSION
 10
5.2296034243240541
 20
9.7085522395896877
 30
0.0
 11
6.8797082731030343
 21
9.7085522395896842
 31
0.0
  0
TEXT
  5
95F
  8
DIMENSION
 10
7.066524537855698
 20
9.3578872477999546
 30
0.0
 40
0.25
  1
A
  0
TEXT
  5
960
  8
DIMENSION
 10
4.8320902692702097
 20
9.3578872477999546
 30
0.0
 40
0.25
  1
A
  0
LINE
  5
9BE
  8
SHOULDER_-_HYDRAULIC
 10
10.692930618596829
 20
12.63742249661991
 30
0.0
 11
10.708657014157829
 21
12.6531488921809
 31
0.0
  0
LINE
  5
9BF
  8
SHOULDER_-_HYDRAULIC
 10
10.91606713934887
 20
12.86055901737195
 30
0.0
 11
10.916304543831711
 21
12.86079642185479
 31
0.0
  0
LINE
  5
9C0
  8
SHOULDER_-_HYDRAULIC
 10
10.716350267799649
 20
12.66084214582273
 30
0.0
 11
10.891766669208341
 21
12.836258547231409
 31
0.0
  0
LINE
  5
9C1
  8
SHOULDER_-_HYDRAULIC
 10
10.69682661833893
 20
12.55293014871369
 30
0.0
 11
10.97634020620867
 21
12.83244373658343
 31
0.0
  0
LINE
  5
9C2
  8
SHOULDER_-_HYDRAULIC
 10
10.98089397734274
 20
12.83699750771749
 30
0.0
 11
11.00133505991691
 21
12.85743859029167
 31
0.0
  0
LINE
  5
9C3
  8
SHOULDER_-_HYDRAULIC
 10
10.71056256164143
 20
12.478277744367871
 30
0.0
 11
11.04889483736652
 21
12.816610020092959
 31
0.0
  0
LINE
  5
9C4
  8
SHOULDER_-_HYDRAULIC
 10
10.744767293633711
 20
12.42409412871182
 30
0.0
 11
11.11480031233579
 21
12.79412714741391
 31
0.0
  0
LINE
  5
9C5
  8
SHOULDER_-_HYDRAULIC
 10
10.79468075617892
 20
12.38561924360873
 30
0.0
 11
11.16546101165353
 21
12.75639949908334
 31
0.0
  0
LINE
  5
9C6
  8
SHOULDER_-_HYDRAULIC
 10
10.835551590171519
 20
12.338101729952999
 30
0.0
 11
11.18794740545993
 21
12.690497545241421
 31
0.0
  0
LINE
  5
9C7
  8
SHOULDER_-_HYDRAULIC
 10
10.90911226232997
 20
12.323274054463139
 30
0.0
 11
11.20562867184699
 21
12.619790463980159
 31
0.0
  0
LINE
  5
9C8
  8
SHOULDER_-_HYDRAULIC
 10
11.223438226308639
 20
12.637600018441811
 30
0.0
 11
11.23156909368862
 21
12.645730885821781
 31
0.0
  0
LINE
  5
9C9
  8
SHOULDER_-_HYDRAULIC
 10
10.9908530721302
 20
12.31662651661504
 30
0.0
 11
11.01324413961345
 21
12.339017584098301
 31
0.0
  0
LINE
  5
9CA
  8
SHOULDER_-_HYDRAULIC
 10
11.234407652244739
 20
12.56018109672959
 30
0.0
 11
11.237102245753841
 21
12.56287569023868
 31
0.0
  0
LINE
  5
9CB
  8
SHOULDER_-_HYDRAULIC
 10
11.01386524056676
 20
12.339638685051611
 30
0.0
 11
11.212701291178259
 21
12.538474735663121
 31
0.0
  0
LINE
  5
9CC
  8
SHOULDER_-_HYDRAULIC
 10
11.114435306881539
 20
12.351820403718071
 30
0.0
 11
11.1161806579396
 21
12.353565754776129
 31
0.0
  0
LINE
  5
9CD
  8
SHOULDER_-_HYDRAULIC
 10
11.171428312404441
 20
12.40881340924097
 30
0.0
 11
11.175722230168191
 21
12.41310732700472
 31
0.0
  0
LINE
  5
9CE
  8
SHOULDER_-_HYDRAULIC
 10
11.141931015478031
 20
12.379316112314561
 30
0.0
 11
11.147445640933579
 21
12.384830737770111
 31
0.0
  0
LINE
  5
9E6
  8
DIMENSION
 10
10.67708876094161
 20
8.9319826631196602
 30
0.0
 11
10.67708876094161
 21
8.2966662081001843
 31
0.0
  0
LINE
  5
9E7
  8
DIMENSION
 10
11.239088760941611
 20
8.9319826631196602
 30
0.0
 11
11.239088760941611
 21
8.2966662081001843
 31
0.0
  0
LINE
  5
9E8
  8
DIMENSION
 10
10.52083876094161
 20
8.3279162081001843
 30
0.0
 11
10.36458876094161
 21
8.3279162081001843
 31
0.0
  0
LINE
  5
9E9
  8
DIMENSION
 10
11.395338760941611
 20
8.3279162081001843
 30
0.0
 11
11.551588760941611
 21
8.3279162081001843
 31
0.0
  0
SOLID
  5
9EA
  8
DIMENSION
 10
10.52083876094161
 20
8.3539578747668504
 30
0.0
 11
10.52083876094161
 21
8.3018745414335164
 31
0.0
 12
10.67708876094161
 22
8.3279162081001843
 32
0.0
 13
10.67708876094161
 23
8.3279162081001843
 33
0.0
  0
SOLID
  5
9EB
  8
DIMENSION
 10
11.395338760941611
 20
8.3539578747668504
 30
0.0
 11
11.395338760941611
 21
8.3018745414335164
 31
0.0
 12
11.239088760941611
 22
8.3279162081001843
 32
0.0
 13
11.239088760941611
 23
8.3279162081001843
 33
0.0
  0
TEXT
  5
9ED
  8
DIMENSION
 10
11.614088760941611
 20
8.2758328747668504
 30
0.0
 40
0.15625
  1
0.562
  0
TEXT
  5
9F3
  8
DIMENSION
 10
4.353196851819888
 20
3.55884460039006
 30
0.0
 40
0.15625
  1
TYPICAL
  0
LINE
  5
9F9
  8
DIMENSION
 10
15.79985239661886
 20
8.1002326631196624
 30
0.0
 11
16.333852396618848
 21
8.1002326631196624
 31
0.0
  0
LINE
  5
9FA
  8
DIMENSION
 10
16.302602396618848
 20
7.9439826631196624
 30
0.0
 11
16.302602396618848
 21
7.5847802821672801
 31
0.0
  0
SOLID
  5
9FB
  8
DIMENSION
 10
16.32864406328552
 20
7.9439826631196624
 30
0.0
 11
16.276560729952191
 21
7.9439826631196624
 31
0.0
 12
16.302602396618848
 22
8.1002326631196624
 32
0.0
 13
16.302602396618848
 23
8.1002326631196624
 33
0.0
  0
LINE
  5
9FC
  8
DIMENSION
 10
15.73735239661886
 20
6.7062326631196596
 30
0.0
 11
16.333852396618848
 21
6.7062326631196596
 31
0.0
  0
LINE
  5
9FD
  8
DIMENSION
 10
16.302602396618848
 20
6.8624826631196596
 30
0.0
 11
16.302602396618848
 21
7.2216850440720419
 31
0.0
  0
SOLID
  5
9FE
  8
DIMENSION
 10
16.32864406328552
 20
6.8624826631196596
 30
0.0
 11
16.276560729952191
 21
6.8624826631196596
 31
0.0
 12
16.302602396618848
 22
6.7062326631196596
 32
0.0
 13
16.302602396618848
 23
6.7062326631196596
 33
0.0
  0
TEXT
  5
DFF
  8
0
  6
CONTINUOUS
 10
67.302199979258262
 20
14.272512162622171
 30
0.0
 40
0.12
  1
 
 51
7.0
  0
TEXT
  5
E00
  8
0
  6
CONTINUOUS
 10
79.74629674473816
 20
21.335386592353821
 30
0.0
 40
0.24
  1
 
 51
7.0
  0
TEXT
  5
E01
  8
0
  6
CONTINUOUS
 10
88.956061756651437
 20
21.015376605776741
 30
0.0
 40
0.24
  1
 
 51
7.0
  0
TEXT
  5
E02
  8
0
  6
CONTINUOUS
 10
98.760021241084132
 20
4.1527958062494177
 30
0.0
 40
0.24
  1
 
 51
7.0
  0
LINE
  5
EBA
  8
0
 10
0.0
 20
0.0
 30
0.0
 11
0.0
 21
17.0
 31
0.0
  0
LINE
  5
EBB
  8
0
 10
22.0
 20
0.0
 30
0.0
 11
22.0
 21
17.0
 31
0.0
  0
LINE
  5
EBC
  8
0
 10
0.0
 20
0.0
 30
0.0
 11
22.0
 21
0.0
 31
0.0
  0
LINE
  5
EBD
  8
0
 10
0.0
 20
17.0
 30
0.0
 11
22.0
 21
17.0
 31
0.0
  0
LINE
  5
F5B
  8
FORM
 10
21.403846140107252
 20
0.7499999996674092
 30
0.0
 11
21.403846140107252
 21
15.153846144098431
 31
0.0
  0
LINE
  5
F5C
  8
FORM
 10
21.249999986363441
 20
15.307692297842239
 30
0.0
 11
0.7499999996674376
 21
15.307692297842239
 31
0.0
  0
LINE
  5
F5D
  8
FORM
 10
21.249999986363441
 20
0.5961538459236025
 30
0.0
 11
0.7499999996674376
 21
0.5961538459235954
 31
0.0
  0
LINE
  5
F5E
  8
FORM
 10
0.5961538459236168
 20
0.7499999996674092
 30
0.0
 11
0.5961538459236168
 21
15.153846144098431
 31
0.0
  0
TEXT
  5
F5F
  8
FORM
 10
18.201052644477549
 20
2.6705065993040051
 30
0.0
 40
0.260516826749781
  1
HYDRAULIC
 72
     1
 11
19.243119951476672
 21
2.6705065993040051
 31
0.0
  0
TEXT
  5
F60
  8
FORM
 10
18.269283241959631
 20
2.1193155254872589
 30
0.0
 40
0.260516826749781
  1
SHOULDER
 72
     1
 11
19.243119951476672
 21
2.1193155254872589
 31
0.0
  0
TEXT
  5
F61
  8
FORM
 10
16.770574233580561
 20
1.1177623757995749
 30
0.0
 40
0.260516826749781
  1
ASTROMECH DROID
  0
TEXT
  5
F62
  8
FORM
 10
20.85720038004996
 20
1.1278903102633671
 30
0.0
 40
0.260516826749781
  1
A
  0
TEXT
  5
F63
  8
FORM
 10
17.25446024791373
 20
0.813671414000872
 30
0.0
 40
0.1042067306999124
  1
FULL
  0
TEXT
  5
F64
  8
FORM
 10
20.593280544426019
 20
0.8165882189588344
 30
0.0
 40
0.1042067306999124
  1
1   1
  0
TEXT
  5
F65
  8
FORM
 10
18.867373488668239
 20
0.8246381046439915
 30
0.0
 40
0.1042067306999124
  1
APRIL 2005
 72
     2
 11
19.770498488067489
 21
0.8246381046439915
 31
0.0
  0
TEXT
  5
F66
  8
FORM
  6
CONTINUOUS
 10
18.118827913558601
 20
0.8235896747318066
 30
0.0
 40
0.0900346153247244
  1
DRAWN:
  0
TEXT
  5
F67
  8
FORM
  6
CONTINUOUS
 10
16.72518466957764
 20
0.8236741054737031
 30
0.0
 40
0.0900346153247244
  1
SCALE:
  0
TEXT
  5
F68
  8
FORM
  6
CONTINUOUS
 10
20.01795677316494
 20
0.8225458122742352
 30
0.0
 40
0.0900346153247244
  1
SHEET:   OF
  0
TEXT
  5
F69
  8
FORM
  6
CONTINUOUS
 10
16.560769897877751
 20
1.5378028837587541
 30
0.0
 40
0.0900346153247244
  1
DRAWING NO.
  0
TEXT
  5
F6A
  8
FORM
  6
CONTINUOUS
 10
20.822311852397561
 20
1.537802883758743
 30
0.0
 40
0.0900346153247244
  1
REV.
 72
     1
 11
20.955220094067389
 21
1.537802883758743
 31
0.0
  0
LINE
  5
F6B
  8
FORM
  6
CONTINUOUS
 10
16.703251912464879
 20
3.3610038440844141
 30
0.0
 11
21.02491344805162
 21
3.3610038440844141
 31
0.0
  0
LINE
  5
F6C
  8
FORM
  6
CONTINUOUS
 10
16.478165374153061
 20
0.9750865379792159
 30
0.0
 11
16.478165374153029
 21
3.1359173057725931
 31
0.0
  0
LINE
  5
F6D
  8
FORM
  6
CONTINUOUS
 10
16.478165374153061
 20
1.672854806745828
 30
0.0
 11
21.249999986363441
 21
1.672854806745828
 31
0.0
  0
LINE
  5
F6E
  8
FORM
  6
CONTINUOUS
 10
16.478165374153061
 20
0.9750865379792159
 30
0.0
 11
21.249999986363441
 21
0.9750865379792159
 31
0.0
  0
LINE
  5
F6F
  8
FORM
  6
CONTINUOUS
 10
17.97804237543275
 20
0.9750865379792159
 30
0.0
 11
17.97804237543275
 21
0.7499999996674092
 31
0.0
  0
LINE
  5
F70
  8
FORM
  6
CONTINUOUS
 10
19.950430811671389
 20
0.9723156702741989
 30
0.0
 11
19.950430811671389
 21
0.7472291319623921
 31
0.0
  0
LINE
  5
F71
  8
FORM
  6
CONTINUOUS
 10
20.65524763562988
 20
1.672854806745828
 30
0.0
 11
20.65524763562988
 21
0.9750865379792159
 31
0.0
  0
ARC
  5
F72
  8
FORM
 62
     5
 10
16.925603837263051
 20
2.683123263179624
 30
0.0
 40
0.0245481788339413
 50
152.18113099770551
 51
330.99098814993278
  0
ARC
  5
F73
  8
FORM
 62
     5
 10
17.03186349061718
 20
2.8877559907035391
 30
0.0
 40
0.0215248522646385
 50
335.32315363464198
 51
152.67224926330371
  0
ARC
  5
F74
  8
FORM
 62
     5
 10
18.67139281679863
 20
1.8778243841790809
 30
0.0
 40
1.9470863223045181
 50
148.41494327216151
 51
155.19852313243231
  0
ARC
  5
F75
  8
FORM
 62
     5
 10
19.04826621925363
 20
1.7448079813832851
 30
0.0
 40
2.2963564077758769
 50
150.40875710206339
 51
156.20744757951141
  0
ARC
  5
F76
  8
FORM
 62
     7
 10
16.856187689619201
 20
2.476891943456518
 30
0.0
 40
0.0328016362752216
 50
161.128725237971
 51
346.89295927401372
  0
ARC
  5
F77
  8
FORM
 62
     7
 10
26.446981545233939
 20
-1.665659984064163
 30
0.0
 40
10.414927500982669
 50
153.58307292081309
 51
156.60691138966209
  0
ARC
  5
F78
  8
FORM
 62
     7
 10
24.942765772362829
 20
-1.1245203992272681
 30
0.0
 40
8.873647082696257
 50
152.34095999775931
 51
152.9694116127464
  0
ARC
  5
F79
  8
FORM
 62
     7
 10
25.042235970541071
 20
-1.413551413076795
 30
0.0
 40
9.0960831006715779
 50
153.37112835275721
 51
154.60402195655351
  0
ARC
  5
F7A
  8
FORM
 62
     7
 10
17.329398129118289
 20
2.8602652973761158
 30
0.0
 40
0.2358358050601862
 50
23.468725928191049
 51
88.151617587883351
  0
ARC
  5
F7B
  8
FORM
 62
     7
 10
17.33466889121355
 20
2.8754695652234821
 30
0.0
 40
0.2783521476800796
 50
18.232625295665532
 51
154.63608874642679
  0
ARC
  5
F7C
  8
FORM
 62
     7
 10
17.41806628342874
 20
2.9044827195306051
 30
0.0
 40
0.1900699214402894
 50
336.99722732837893
 51
341.11190659806488
  0
ARC
  5
F7D
  8
FORM
 62
     7
 10
17.429371041778779
 20
2.912888609699027
 30
0.0
 40
0.1244898949022119
 50
333.24704424527522
 51
339.12675173356178
  0
ARC
  5
F7E
  8
FORM
 62
     7
 10
17.547120806258562
 20
2.8541053585607901
 30
0.0
 40
0.007134896083525
 50
157.37475902115841
 51
243.18317341424029
  0
ARC
  5
F7F
  8
FORM
 62
     7
 10
17.589262332130431
 20
2.8313183495512071
 30
0.0
 40
0.0039211308505914
 50
246.74236679857631
 51
343.55073793579641
  0
ARC
  5
F80
  8
FORM
 62
     7
 10
17.71265002297525
 20
3.1590467530149189
 30
0.0
 40
0.3541033340658146
 50
241.5396617947477
 51
249.33988332022491
  0
ARC
  5
F81
  8
FORM
 62
     7
 10
17.465116861604141
 20
2.7835275642507962
 30
0.0
 40
0.0699031230302257
 50
210.28645373052609
 51
287.25915125833183
  0
ARC
  5
F82
  8
FORM
 62
     7
 10
17.471123101482839
 20
2.7532989527990699
 30
0.0
 40
0.0393865134548433
 50
291.96730232828992
 51
10.20108836223371
  0
ARC
  5
F83
  8
FORM
 62
     7
 10
17.159843992632862
 20
2.6859329108208518
 30
0.0
 40
0.2527202610277017
 50
14.28109924276106
 51
24.947261539878259
  0
ARC
  5
F84
  8
FORM
 62
     7
 10
17.30724545805592
 20
2.7624795397720869
 30
0.0
 40
0.0870866377029319
 50
20.183063788867599
 51
47.833846572520173
  0
ARC
  5
F85
  8
FORM
 62
     7
 10
17.323525970686489
 20
2.7183682645997709
 30
0.0
 40
0.1165593648186974
 50
68.784960310907394
 51
94.742087985452599
  0
ARC
  5
F86
  8
FORM
 62
     7
 10
17.32225776675568
 20
2.7872533208520021
 30
0.0
 40
0.0480101674679103
 50
100.0375073429591
 51
170.98475346238999
  0
ARC
  5
F87
  8
FORM
 62
     7
 10
17.548079884465121
 20
2.754066770453373
 30
0.0
 40
0.2762551956077745
 50
171.52589863719891
 51
197.494741096675
  0
ARC
  5
F88
  8
FORM
 62
     7
 10
17.361988404409459
 20
2.757975203687443
 30
0.0
 40
0.1479164690482495
 50
0.8906501289532242
 51
49.113860192417171
  0
ARC
  5
F89
  8
FORM
 62
     7
 10
17.330827327390121
 20
2.7851061194825268
 30
0.0
 40
0.1164203647136616
 50
99.869748807366761
 51
175.59516845025641
  0
ARC
  5
F8A
  8
FORM
 62
     7
 10
17.35181928853353
 20
2.721979015220195
 30
0.0
 40
0.1824780170187834
 50
54.104282451028169
 51
102.9674010870567
  0
ARC
  5
F8B
  8
FORM
 62
     7
 10
17.866825478371819
 20
2.8305495615738461
 30
0.0
 40
0.603682768180479
 50
195.32307896217739
 51
209.290843156958
  0
ARC
  5
F8C
  8
FORM
 62
     7
 10
17.676878331574731
 20
2.7315679572076941
 30
0.0
 40
0.4663319886455236
 50
172.3003020759547
 51
200.12627387409299
  0
ARC
  5
F8D
  8
FORM
 62
     7
 10
18.010296677355171
 20
2.8617220596188409
 30
0.0
 40
0.8242093741364085
 50
200.64629086238159
 51
210.0464960904439
  0
ARC
  5
F8E
  8
FORM
 62
     7
 10
16.87490984687733
 20
2.2228629736894798
 30
0.0
 40
0.5605059965149727
 50
28.43194910738432
 51
33.865461133002448
  0
ARC
  5
F8F
  8
FORM
 62
     7
 10
17.335282492148359
 20
2.4642291377128478
 30
0.0
 40
0.0413303405420145
 50
201.56446042640411
 51
38.094090168146302
  0
ARC
  5
F90
  8
FORM
 62
     5
 10
17.698488306364109
 20
2.8075987703319072
 30
0.0
 40
0.0229902810191139
 50
227.6202696593605
 51
57.412112921204063
  0
ARC
  5
F91
  8
FORM
 62
     5
 10
17.427351296879149
 20
2.453894972691713
 30
0.0
 40
0.4685807675213703
 50
52.766851639305898
 51
65.063571515457895
  0
ARC
  5
F92
  8
FORM
 62
     5
 10
17.209234353189508
 20
2.115713416994772
 30
0.0
 40
0.8245845677332351
 50
54.932512589538817
 51
74.152868438598915
  0
ARC
  5
F93
  8
FORM
 62
     5
 10
17.22112341118936
 20
1.8705744209651269
 30
0.0
 40
1.0600616451387339
 50
78.393012355262385
 51
89.647961077025343
  0
ARC
  5
F94
  8
FORM
 62
     5
 10
17.225855158117209
 20
2.9613835761542329
 30
0.0
 40
0.0308190515998151
 50
183.9979944211656
 51
273.313807745882
  0
ARC
  5
F95
  8
FORM
 62
     5
 10
17.329870384946641
 20
2.9695252211814269
 30
0.0
 40
0.135151603104915
 50
145.60859166919269
 51
184.36670732083471
  0
ARC
  5
F96
  8
FORM
 62
     5
 10
17.246715832908791
 20
3.027923603152622
 30
0.0
 40
0.0335688941126511
 50
75.244714174009715
 51
147.6929850116162
  0
ARC
  5
F97
  8
FORM
 62
     5
 10
16.846566400398309
 20
1.4922623483111219
 30
0.0
 40
1.6205076763160291
 50
61.637242241525243
 51
75.392005557716701
  0
ARC
  5
F98
  8
FORM
 62
     5
 10
17.585771892302461
 20
2.8909845400545029
 30
0.0
 40
0.0409937741994102
 50
342.6982574268402
 51
41.67278378767756
  0
ARC
  5
F99
  8
FORM
 62
     7
 10
17.41806628342874
 20
2.9044827195306051
 30
0.0
 40
0.1900699214402894
 50
5.6380312699922932
 51
17.791456368736831
  0
ARC
  5
F9A
  8
FORM
 62
     7
 10
17.5045622300951
 20
2.0088127942983891
 30
0.0
 40
0.0608207837544583
 50
88.432533024773406
 51
186.62631613112151
  0
ARC
  5
F9B
  8
FORM
 62
     7
 10
17.514107893903311
 20
2.0214944811508531
 30
0.0
 40
0.0726809031862866
 50
195.7266305128272
 51
285.3806868435185
  0
ARC
  5
F9C
  8
FORM
 62
     7
 10
17.428397303924321
 20
2.6646932328165849
 30
0.0
 40
0.7209618028535085
 50
278.37329371359459
 51
293.15208507016871
  0
ARC
  5
F9D
  8
FORM
 62
     7
 10
17.670280088548282
 20
2.2109164793858191
 30
0.0
 40
0.1486954171998164
 50
257.51805604168283
 51
277.23103351305667
  0
ARC
  5
F9E
  8
FORM
 62
     7
 10
17.67861701724112
 20
2.0887614153130118
 30
0.0
 40
0.0273997705390677
 50
292.26031345923337
 51
12.8673793005237
  0
ARC
  5
F9F
  8
FORM
 62
     7
 10
17.658243987918521
 20
2.0848332422543971
 30
0.0
 40
0.0481411784627428
 50
12.02537552739556
 51
52.143631645159331
  0
ARC
  5
FA0
  8
FORM
 62
     7
 10
18.68473167686761
 20
3.3322419147777782
 30
0.0
 40
1.5673362882102819
 50
219.60277928185971
 51
230.5002020408055
  0
ARC
  5
FA1
  8
FORM
 62
     7
 10
17.71719517775902
 20
2.5209914067630801
 30
0.0
 40
0.3048383262947374
 50
175.97523115435061
 51
218.04500009534141
  0
ARC
  5
FA2
  8
FORM
 62
     7
 10
17.587988709286751
 20
2.5516026198667592
 30
0.0
 40
0.1751226981011722
 50
149.96078860476399
 51
183.01641230856191
  0
ARC
  5
FA3
  8
FORM
 62
     7
 10
17.465652099646999
 20
2.6236413715572442
 30
0.0
 40
0.03317488584424
 50
69.764209445538683
 51
151.8988190455112
  0
ARC
  5
FA4
  8
FORM
 62
     7
 10
17.461738153470581
 20
2.621386420418637
 30
0.0
 40
0.0367584023789668
 50
357.6694469744499
 51
65.251102439515435
  0
ARC
  5
FA5
  8
FORM
 62
     7
 10
17.375127171955
 20
2.6142785816255478
 30
0.0
 40
0.1234666367742727
 50
345.36193237678458
 51
2.6056939300727819
  0
ARC
  5
FA6
  8
FORM
 62
     7
 10
17.770788346688299
 20
2.4976765653254129
 30
0.0
 40
0.289103498612585
 50
162.81861830880709
 51
185.35496664157321
  0
ARC
  5
FA7
  8
FORM
 62
     7
 10
17.738557938675601
 20
2.526678108373186
 30
0.0
 40
0.261669979998945
 50
192.35349941930221
 51
222.3020476696033
  0
ARC
  5
FA8
  8
FORM
 62
     7
 10
18.640000382871079
 20
3.2533952889623161
 30
0.0
 40
1.419181254971364
 50
219.50633019139829
 51
228.42762303996261
  0
ARC
  5
FA9
  8
FORM
 62
     7
 10
17.545150090279261
 20
1.9830014576086259
 30
0.0
 40
0.2588352891177654
 50
32.971129457978869
 51
53.728419363024337
  0
ARC
  5
FAA
  8
FORM
 62
     7
 10
17.685505274612321
 20
2.0841393566689059
 30
0.0
 40
0.0864595649942742
 50
287.74749415951351
 51
27.35211189662947
  0
ARC
  5
FAB
  8
FORM
 62
     7
 10
17.556150910590731
 20
1.521887384058928
 30
0.0
 40
0.5499940598264056
 50
81.426570944510203
 51
95.208118001959775
  0
ARC
  5
FAC
  8
FORM
 62
     7
 10
17.31874226594763
 20
2.379232385518228
 30
0.0
 40
0.0244848954091209
 50
325.52447187114308
 51
75.340502228459783
  0
ARC
  5
FAD
  8
FORM
 62
     7
 10
17.28857503182331
 20
2.4013816515593862
 30
0.0
 40
0.0619027859518531
 50
277.78730616127859
 51
324.42957968808531
  0
ARC
  5
FAE
  8
FORM
 62
     7
 10
17.277627430402191
 20
2.4116764447725738
 30
0.0
 40
0.0741905263351136
 50
243.48581874200181
 51
285.1065744639306
  0
ARC
  5
FAF
  8
FORM
 62
     7
 10
13.99616984532571
 20
-5.9734717723731041
 30
0.0
 40
9.0135811594364625
 50
68.327181839257534
 51
70.606105230637283
  0
ARC
  5
FB0
  8
FORM
 62
     7
 10
16.982860283602829
 20
2.502260489661857
 30
0.0
 40
0.0271571196358057
 50
76.445232091872299
 51
134.36352227876461
  0
ARC
  5
FB1
  8
FORM
 62
     7
 10
17.103601465049451
 20
2.316491870596419
 30
0.0
 40
0.2482433149023289
 50
124.2547762008316
 51
135.012931962436
  0
ARC
  5
FB2
  8
FORM
 62
     7
 10
16.932687772438332
 20
2.4840903864877362
 30
0.0
 40
0.0091691237651447
 50
120.5491196217084
 51
251.48388650457539
  0
ARC
  5
FB3
  8
FORM
 62
     7
 10
15.698852283122079
 20
-0.947959245240991
 30
0.0
 40
3.6379298384249581
 50
64.85742894317822
 51
67.515132469299331
  0
ARC
  5
FB4
  8
FORM
 62
     7
 10
17.23599357112948
 20
2.291795105104121
 30
0.0
 40
0.0343472402230129
 50
329.18566117941782
 51
69.527151249863806
  0
ARC
  5
FB5
  8
FORM
 62
     7
 10
17.145886072427881
 20
2.1556962750494151
 30
0.0
 40
0.1968392862921899
 50
58.747973844557563
 51
81.106226592028094
  0
ARC
  5
FB6
  8
FORM
 62
     7
 10
17.124947044127829
 20
2.0252080021495891
 30
0.0
 40
0.3289962935825703
 50
81.016817915507374
 51
97.679603827268224
  0
ARC
  5
FB7
  8
FORM
 62
     7
 10
17.159573600239298
 20
2.1240726877937131
 30
0.0
 40
0.2440398498458748
 50
121.5050128230593
 51
139.09578810607039
  0
ARC
  5
FB8
  8
FORM
 62
     7
 10
17.225825242067831
 20
2.2865562155100809
 30
0.0
 40
0.0415466234232141
 50
277.70569210516868
 51
342.69880024124109
  0
ARC
  5
FB9
  8
FORM
 62
     7
 10
17.213074197788071
 20
2.3334352792513711
 30
0.0
 40
0.0899365447321688
 50
250.08394506358289
 51
281.75453717228322
  0
ARC
  5
FBA
  8
FORM
 62
     7
 10
17.2424582627973
 20
2.3437609022874879
 30
0.0
 40
0.1122732419236369
 50
221.18187885427241
 51
237.68378775985289
  0
ARC
  5
FBB
  8
FORM
 62
     7
 10
17.11078230927049
 20
2.213603979985677
 30
0.0
 40
0.0733994924367979
 50
50.003848755011681
 51
75.5416830098399
  0
ARC
  5
FBC
  8
FORM
 62
     7
 10
17.10690002874345
 20
2.2402084319691471
 30
0.0
 40
0.0497074536252231
 50
63.4626603498468
 51
100.74200229027051
  0
ARC
  5
FBD
  8
FORM
 62
     7
 10
17.09763521067913
 20
2.2049366923578511
 30
0.0
 40
0.0841081409133923
 50
89.999999999999588
 51
125.5974615489027
  0
ARC
  5
FBE
  8
FORM
 62
     7
 10
18.09535908495533
 20
2.805145934228654
 30
0.0
 40
1.1637748462988311
 50
197.51922498184919
 51
203.981481444731
  0
ARC
  5
FBF
  8
FORM
 62
     7
 10
16.736982371619181
 20
2.433687501517297
 30
0.0
 40
0.3537389089231183
 50
346.52409876011302
 51
356.71498770316703
  0
ARC
  5
FC0
  8
FORM
 62
     7
 10
15.698852283122079
 20
-0.947959245240991
 30
0.0
 40
3.6379298384249581
 50
69.286600818944052
 51
70.22311760076802
  0
ARC
  5
FC1
  8
FORM
 62
     7
 10
16.92789692922846
 20
2.1257895907104252
 30
0.0
 40
0.1066736432871782
 50
245.40259669902051
 51
275.40975098180542
  0
ARC
  5
FC2
  8
FORM
 62
     7
 10
17.301941284744
 20
1.9333049606058379
 30
0.0
 40
0.4239787481416163
 50
126.68044463040199
 51
139.78708822539889
  0
ARC
  5
FC3
  8
FORM
 62
     7
 10
16.925901396850119
 20
2.42585100124619
 30
0.0
 40
0.4064386631288638
 50
271.69929119420118
 51
283.39540842056908
  0
ARC
  5
FC4
  8
FORM
 62
     7
 10
17.685900196427319
 20
1.487877603185271
 30
0.0
 40
1.0089968057446299
 50
134.5410403491789
 51
138.91474429089899
  0
ARC
  5
FC5
  8
FORM
 62
     7
 10
16.942625607711989
 20
2.1366275124138698
 30
0.0
 40
0.0266928289273625
 50
201.8252958964795
 51
267.16449786715452
  0
ARC
  5
FC6
  8
FORM
 62
     7
 10
16.936879259411789
 20
2.1340951027918962
 30
0.0
 40
0.0204180021895292
 50
124.254854327418
 51
201.22329273937871
  0
ARC
  5
FC7
  8
FORM
 62
     7
 10
16.999050226745201
 20
2.1174828639755172
 30
0.0
 40
0.0895139066856433
 50
283.5751770312794
 51
324.58969283639942
  0
ARC
  5
FC8
  8
FORM
 62
     7
 10
17.05010181640597
 20
2.0748500422369349
 30
0.0
 40
0.0237711578752802
 50
337.14160324238759
 51
47.56496670892831
  0
ARC
  5
FC9
  8
FORM
 62
     7
 10
17.01351320176212
 20
2.0225775754130799
 30
0.0
 40
0.0874305156836371
 50
52.990730681111657
 51
91.748895977531376
  0
ARC
  5
FCA
  8
FORM
 62
     7
 10
16.97607501860476
 20
2.3473211427073291
 30
0.0
 40
0.2398869733850244
 50
261.66603807207321
 51
278.33396192792679
  0
ARC
  5
FCB
  8
FORM
 62
     7
 10
16.904055290181631
 20
2.0802584334887442
 30
0.0
 40
0.0554174778483587
 50
192.64550774538381
 51
248.2223967256862
  0
ARC
  5
FCC
  8
FORM
 62
     7
 10
16.890435234000019
 20
2.0865365172575769
 30
0.0
 40
0.0444453205431241
 50
178.88427582775461
 51
204.46998391858139
  0
ARC
  5
FCD
  8
FORM
 62
     7
 10
17.00038134049046
 20
2.0753041716250129
 30
0.0
 40
0.1548562786887746
 50
140.54690015149379
 51
175.5193383191162
  0
ARC
  5
FCE
  8
FORM
 62
     7
 10
18.525663181526959
 20
0.8608942872864346
 30
0.0
 40
2.1045236570324608
 50
137.45643980933039
 51
141.40545593619069
  0
POLYLINE
  5
FCF
  8
FORM
 62
     1
 10
17.275622491608207
 20
3.0402781737931805
 30
0.0
 66
     1
 70
     8
  0
VERTEX
  8
FORM
  5
1182
 10
17.2756
 20
3.04028
 30
0.000000
  70
    32
  0
VERTEX
  8
FORM
  5
1183
 10
17.2747
 20
3.04062
 30
0.000000
  70
    32
  0
VERTEX
  8
FORM
  5
1184
 10
17.2737
 20
3.04086
 30
0.000000
  70
    32
  0
VERTEX
  8
FORM
  5
1185
 10
17.2727
 20
3.04098
 30
0.000000
  70
    32
  0
VERTEX
  8
FORM
  5
1186
 10
17.2716
 20
3.04100
 30
0.000000
  70
    32
  0
VERTEX
  8
FORM
  5
1187
 10
17.2705
 20
3.04091
 30
0.000000
  70
    32
  0
VERTEX
  8
FORM
  5
1188
 10
17.2694
 20
3.04070
 30
0.000000
  70
    32
  0
VERTEX
  8
FORM
  5
1189
 10
17.2682
 20
3.04039
 30
0.000000
  70
    32
  0
VERTEX
  8
FORM
  5
118A
 10
17.2670
 20
3.03997
 30
0.000000
  70
    32
  0
VERTEX
  8
FORM
  5
118B
 10
17.2658
 20
3.03944
 30
0.000000
  70
    32
  0
VERTEX
  8
FORM
  5
118C
 10
17.2646
 20
3.03880
 30
0.000000
  70
    32
  0
VERTEX
  8
FORM
  5
118D
 10
17.2633
 20
3.03806
 30
0.000000
  70
    32
  0
VERTEX
  8
FORM
  5
118E
 10
17.2620
 20
3.03722
 30
0.000000
  70
    32
  0
VERTEX
  8
FORM
  5
118F
 10
17.2607
 20
3.03627
 30
0.000000
  70
    32
  0
VERTEX
  8
FORM
  5
1190
 10
17.2594
 20
3.03523
 30
0.000000
  70
    32
  0
VERTEX
  8
FORM
  5
1191
 10
17.2581
 20
3.03409
 30
0.000000
  70
    32
  0
VERTEX
  8
FORM
  5
1192
 10
17.2568
 20
3.03286
 30
0.000000
  70
    32
  0
VERTEX
  8
FORM
  5
1193
 10
17.2554
 20
3.03154
 30
0.000000
  70
    32
  0
VERTEX
  8
FORM
  5
1194
 10
17.2541
 20
3.03013
 30
0.000000
  70
    32
  0
VERTEX
  8
FORM
  5
1195
 10
17.2528
 20
3.02864
 30
0.000000
  70
    32
  0
VERTEX
  8
FORM
  5
1196
 10
17.2515
 20
3.02706
 30
0.000000
  70
    32
  0
VERTEX
  8
FORM
  5
1197
 10
17.2502
 20
3.02541
 30
0.000000
  70
    32
  0
VERTEX
  8
FORM
  5
1198
 10
17.2489
 20
3.02369
 30
0.000000
  70
    32
  0
VERTEX
  8
FORM
  5
1199
 10
17.2476
 20
3.02190
 30
0.000000
  70
    32
  0
VERTEX
  8
FORM
  5
119A
 10
17.2464
 20
3.02004
 30
0.000000
  70
    32
  0
VERTEX
  8
FORM
  5
119B
 10
17.2451
 20
3.01813
 30
0.000000
  70
    32
  0
VERTEX
  8
FORM
  5
119C
 10
17.2439
 20
3.01616
 30
0.000000
  70
    32
  0
VERTEX
  8
FORM
  5
119D
 10
17.2427
 20
3.01414
 30
0.000000
  70
    32
  0
VERTEX
  8
FORM
  5
119E
 10
17.2416
 20
3.01208
 30
0.000000
  70
    32
  0
VERTEX
  8
FORM
  5
119F
 10
17.2405
 20
3.00997
 30
0.000000
  70
    32
  0
VERTEX
  8
FORM
  5
11A0
 10
17.2394
 20
3.00783
 30
0.000000
  70
    32
  0
VERTEX
  8
FORM
  5
11A1
 10
17.2384
 20
3.00566
 30
0.000000
  70
    32
  0
VERTEX
  8
FORM
  5
11A2
 10
17.2374
 20
3.00347
 30
0.000000
  70
    32
  0
VERTEX
  8
FORM
  5
11A3
 10
17.2364
 20
3.00125
 30
0.000000
  70
    32
  0
VERTEX
  8
FORM
  5
11A4
 10
17.2356
 20
2.99902
 30
0.000000
  70
    32
  0
VERTEX
  8
FORM
  5
11A5
 10
17.2347
 20
2.99679
 30
0.000000
  70
    32
  0
VERTEX
  8
FORM
  5
11A6
 10
17.2339
 20
2.99454
 30
0.000000
  70
    32
  0
VERTEX
  8
FORM
  5
11A7
 10
17.2332
 20
2.99231
 30
0.000000
  70
    32
  0
VERTEX
  8
FORM
  5
11A8
 10
17.2325
 20
2.99007
 30
0.000000
  70
    32
  0
VERTEX
  8
FORM
  5
11A9
 10
17.2318
 20
2.98785
 30
0.000000
  70
    32
  0
VERTEX
  8
FORM
  5
11AA
 10
17.2313
 20
2.98565
 30
0.000000
  70
    32
  0
VERTEX
  8
FORM
  5
11AB
 10
17.2307
 20
2.98348
 30
0.000000
  70
    32
  0
VERTEX
  8
FORM
  5
11AC
 10
17.2303
 20
2.98133
 30
0.000000
  70
    32
  0
VERTEX
  8
FORM
  5
11AD
 10
17.2299
 20
2.97921
 30
0.000000
  70
    32
  0
VERTEX
  8
FORM
  5
11AE
 10
17.2296
 20
2.97713
 30
0.000000
  70
    32
  0
VERTEX
  8
FORM
  5
11AF
 10
17.2293
 20
2.97510
 30
0.000000
  70
    32
  0
VERTEX
  8
FORM
  5
11B0
 10
17.2291
 20
2.97312
 30
0.000000
  70
    32
  0
VERTEX
  8
FORM
  5
11B1
 10
17.2289
 20
2.97119
 30
0.000000
  70
    32
  0
VERTEX
  8
FORM
  5
11B2
 10
17.2289
 20
2.96931
 30
0.000000
  70
    32
  0
VERTEX
  8
FORM
  5
11B3
 10
17.2289
 20
2.96751
 30
0.000000
  70
    32
  0
VERTEX
  8
FORM
  5
11B4
 10
17.2289
 20
2.96576
 30
0.000000
  70
    32
  0
VERTEX
  8
FORM
  5
11B5
 10
17.2290
 20
2.96409
 30
0.000000
  70
    32
  0
VERTEX
  8
FORM
  5
11B6
 10
17.2292
 20
2.96250
 30
0.000000
  70
    32
  0
VERTEX
  8
FORM
  5
11B7
 10
17.2295
 20
2.96098
 30
0.000000
  70
    32
  0
VERTEX
  8
FORM
  5
11B8
 10
17.2298
 20
2.95955
 30
0.000000
  70
    32
  0
VERTEX
  8
FORM
  5
11B9
 10
17.2301
 20
2.95820
 30
0.000000
  70
    32
  0
VERTEX
  8
FORM
  5
11BA
 10
17.2306
 20
2.95694
 30
0.000000
  70
    32
  0
VERTEX
  8
FORM
  5
11BB
 10
17.2311
 20
2.95577
 30
0.000000
  70
    32
  0
VERTEX
  8
FORM
  5
11BC
 10
17.2316
 20
2.95470
 30
0.000000
  70
    32
  0
VERTEX
  8
FORM
  5
11BD
 10
17.2323
 20
2.95373
 30
0.000000
  70
    32
  0
VERTEX
  8
FORM
  5
11BE
 10
17.2329
 20
2.95286
 30
0.000000
  70
    32
  0
VERTEX
  8
FORM
  5
11BF
 10
17.2337
 20
2.95209
 30
0.000000
  70
    32
  0
VERTEX
  8
FORM
  5
11C0
 10
17.2344
 20
2.95142
 30
0.000000
  70
    32
  0
VERTEX
  8
FORM
  5
11C1
 10
17.2353
 20
2.95086
 30
0.000000
  70
    32
  0
VERTEX
  8
FORM
  5
11C2
 10
17.2362
 20
2.95041
 30
0.000000
  70
    32
  0
VERTEX
  8
FORM
  5
11C3
 10
17.2371
 20
2.95007
 30
0.000000
  70
    32
  0
VERTEX
  8
FORM
  5
11C4
 10
17.2381
 20
2.94983
 30
0.000000
  70
    32
  0
VERTEX
  8
FORM
  5
11C5
 10
17.2391
 20
2.94971
 30
0.000000
  70
    32
  0
VERTEX
  8
FORM
  5
11C6
 10
17.2401
 20
2.94969
 30
0.000000
  70
    32
  0
VERTEX
  8
FORM
  5
11C7
 10
17.2412
 20
2.94978
 30
0.000000
  70
    32
  0
VERTEX
  8
FORM
  5
11C8
 10
17.2424
 20
2.94999
 30
0.000000
  70
    32
  0
VERTEX
  8
FORM
  5
11C9
 10
17.2435
 20
2.95030
 30
0.000000
  70
    32
  0
VERTEX
  8
FORM
  5
11CA
 10
17.2447
 20
2.95072
 30
0.000000
  70
    32
  0
VERTEX
  8
FORM
  5
11CB
 10
17.2460
 20
2.95125
 30
0.000000
  70
    32
  0
VERTEX
  8
FORM
  5
11CC
 10
17.2472
 20
2.95189
 30
0.000000
  70
    32
  0
VERTEX
  8
FORM
  5
11CD
 10
17.2485
 20
2.95263
 30
0.000000
  70
    32
  0
VERTEX
  8
FORM
  5
11CE
 10
17.2498
 20
2.95347
 30
0.000000
  70
    32
  0
VERTEX
  8
FORM
  5
11CF
 10
17.2511
 20
2.95442
 30
0.000000
  70
    32
  0
VERTEX
  8
FORM
  5
11D0
 10
17.2524
 20
2.95546
 30
0.000000
  70
    32
  0
VERTEX
  8
FORM
  5
11D1
 10
17.2537
 20
2.95660
 30
0.000000
  70
    32
  0
VERTEX
  8
FORM
  5
11D2
 10
17.2550
 20
2.95783
 30
0.000000
  70
    32
  0
VERTEX
  8
FORM
  5
11D3
 10
17.2563
 20
2.95915
 30
0.000000
  70
    32
  0
VERTEX
  8
FORM
  5
11D4
 10
17.2577
 20
2.96056
 30
0.000000
  70
    32
  0
VERTEX
  8
FORM
  5
11D5
 10
17.2590
 20
2.96205
 30
0.000000
  70
    32
  0
VERTEX
  8
FORM
  5
11D6
 10
17.2603
 20
2.96363
 30
0.000000
  70
    32
  0
VERTEX
  8
FORM
  5
11D7
 10
17.2616
 20
2.96528
 30
0.000000
  70
    32
  0
VERTEX
  8
FORM
  5
11D8
 10
17.2629
 20
2.96700
 30
0.000000
  70
    32
  0
VERTEX
  8
FORM
  5
11D9
 10
17.2642
 20
2.96879
 30
0.000000
  70
    32
  0
VERTEX
  8
FORM
  5
11DA
 10
17.2654
 20
2.97065
 30
0.000000
  70
    32
  0
VERTEX
  8
FORM
  5
11DB
 10
17.2667
 20
2.97256
 30
0.000000
  70
    32
  0
VERTEX
  8
FORM
  5
11DC
 10
17.2679
 20
2.97453
 30
0.000000
  70
    32
  0
VERTEX
  8
FORM
  5
11DD
 10
17.2690
 20
2.97655
 30
0.000000
  70
    32
  0
VERTEX
  8
FORM
  5
11DE
 10
17.2702
 20
2.97861
 30
0.000000
  70
    32
  0
VERTEX
  8
FORM
  5
11DF
 10
17.2713
 20
2.98072
 30
0.000000
  70
    32
  0
VERTEX
  8
FORM
  5
11E0
 10
17.2724
 20
2.98286
 30
0.000000
  70
    32
  0
VERTEX
  8
FORM
  5
11E1
 10
17.2734
 20
2.98503
 30
0.000000
  70
    32
  0
VERTEX
  8
FORM
  5
11E2
 10
17.2744
 20
2.98722
 30
0.000000
  70
    32
  0
VERTEX
  8
FORM
  5
11E3
 10
17.2753
 20
2.98944
 30
0.000000
  70
    32
  0
VERTEX
  8
FORM
  5
11E4
 10
17.2762
 20
2.99167
 30
0.000000
  70
    32
  0
VERTEX
  8
FORM
  5
11E5
 10
17.2771
 20
2.99390
 30
0.000000
  70
    32
  0
VERTEX
  8
FORM
  5
11E6
 10
17.2779
 20
2.99615
 30
0.000000
  70
    32
  0
VERTEX
  8
FORM
  5
11E7
 10
17.2786
 20
2.99838
 30
0.000000
  70
    32
  0
VERTEX
  8
FORM
  5
11E8
 10
17.2793
 20
3.00062
 30
0.000000
  70
    32
  0
VERTEX
  8
FORM
  5
11E9
 10
17.2800
 20
3.00284
 30
0.000000
  70
    32
  0
VERTEX
  8
FORM
  5
11EA
 10
17.2805
 20
3.00504
 30
0.000000
  70
    32
  0
VERTEX
  8
FORM
  5
11EB
 10
17.2810
 20
3.00721
 30
0.000000
  70
    32
  0
VERTEX
  8
FORM
  5
11EC
 10
17.2815
 20
3.00936
 30
0.000000
  70
    32
  0
VERTEX
  8
FORM
  5
11ED
 10
17.2819
 20
3.01148
 30
0.000000
  70
    32
  0
VERTEX
  8
FORM
  5
11EE
 10
17.2822
 20
3.01356
 30
0.000000
  70
    32
  0
VERTEX
  8
FORM
  5
11EF
 10
17.2825
 20
3.01559
 30
0.000000
  70
    32
  0
VERTEX
  8
FORM
  5
11F0
 10
17.2827
 20
3.01757
 30
0.000000
  70
    32
  0
VERTEX
  8
FORM
  5
11F1
 10
17.2828
 20
3.01950
 30
0.000000
  70
    32
  0
VERTEX
  8
FORM
  5
11F2
 10
17.2829
 20
3.02137
 30
0.000000
  70
    32
  0
VERTEX
  8
FORM
  5
11F3
 10
17.2829
 20
3.02318
 30
0.000000
  70
    32
  0
VERTEX
  8
FORM
  5
11F4
 10
17.2829
 20
3.02493
 30
0.000000
  70
    32
  0
VERTEX
  8
FORM
  5
11F5
 10
17.2828
 20
3.02660
 30
0.000000
  70
    32
  0
VERTEX
  8
FORM
  5
11F6
 10
17.2826
 20
3.02819
 30
0.000000
  70
    32
  0
VERTEX
  8
FORM
  5
11F7
 10
17.2823
 20
3.02971
 30
0.000000
  70
    32
  0
VERTEX
  8
FORM
  5
11F8
 10
17.2820
 20
3.03114
 30
0.000000
  70
    32
  0
VERTEX
  8
FORM
  5
11F9
 10
17.2816
 20
3.03249
 30
0.000000
  70
    32
  0
VERTEX
  8
FORM
  5
11FA
 10
17.2812
 20
3.03375
 30
0.000000
  70
    32
  0
VERTEX
  8
FORM
  5
11FB
 10
17.2807
 20
3.03492
 30
0.000000
  70
    32
  0
VERTEX
  8
FORM
  5
11FC
 10
17.2801
 20
3.03599
 30
0.000000
  70
    32
  0
VERTEX
  8
FORM
  5
11FD
 10
17.2795
 20
3.03696
 30
0.000000
  70
    32
  0
VERTEX
  8
FORM
  5
11FE
 10
17.2789
 20
3.03783
 30
0.000000
  70
    32
  0
VERTEX
  8
FORM
  5
11FF
 10
17.2781
 20
3.03860
 30
0.000000
  70
    32
  0
VERTEX
  8
FORM
  5
1200
 10
17.2773
 20
3.03927
 30
0.000000
  70
    32
  0
VERTEX
  8
FORM
  5
1201
 10
17.2765
 20
3.03983
 30
0.000000
  70
    32
  0
VERTEX
  8
FORM
  5
1202
 10
17.2756
 20
3.04028
 30
0.000000
  70
    32
  0
SEQEND
  8
FORM
  5
1203
  0
ARC
  5
FD0
  8
FORM
 62
     7
 10
17.31969472840197
 20
2.8767429643067852
 30
0.0
 40
0.2199177503197187
 50
85.485448269952457
 51
155.5006785655419
  0
TEXT
  5
FD1
  8
FORM
 62
     7
 10
16.545907219234731
 20
1.726726372181332
 30
0.0
 40
0.0861538460965367
  1
R2-D2 BUILDERS CLUB
  0
ARC
  5
FD2
  8
FORM
 10
0.7499999996674376
 20
0.7499999996674092
 30
0.0
 40
0.1538461537438154
 50
180.0
 51
270.0
  0
ARC
  5
FD3
  8
FORM
 10
0.7499999996674376
 20
0.7499999996674092
 30
0.0
 40
0.3076923074876307
 50
180.0
 51
270.0
  0
ARC
  5
FD4
  8
FORM
 10
0.7499999996674376
 20
0.7499999996674092
 30
0.0
 40
0.3461538459235846
 50
180.0
 51
270.0
  0
ARC
  5
FD5
  8
FORM
 10
0.7499999996674376
 20
0.7499999996674092
 30
0.0
 40
0.4999999996674
 50
180.0
 51
270.0
  0
ARC
  5
FD6
  8
FORM
 10
0.7499999996674376
 20
15.153846144098431
 30
0.0
 40
0.4999999996674
 50
90.0
 51
180.0
  0
ARC
  5
FD7
  8
FORM
 10
0.7499999996674376
 20
15.153846144098431
 30
0.0
 40
0.3461538459235846
 50
90.0
 51
180.0
  0
ARC
  5
FD8
  8
FORM
 10
0.7499999996674376
 20
15.153846144098431
 30
0.0
 40
0.3076923074876307
 50
90.0
 51
180.0
  0
ARC
  5
FD9
  8
FORM
 10
0.7499999996674376
 20
15.153846144098431
 30
0.0
 40
0.1538461537438154
 50
90.0
 51
180.0
  0
ARC
  5
FDA
  8
FORM
 10
21.249999986363441
 20
15.153846144098431
 30
0.0
 40
0.3076923074876307
 50
0.0
 51
90.0
  0
ARC
  5
FDB
  8
FORM
 10
21.249999986363441
 20
15.153846144098431
 30
0.0
 40
0.3461538459235846
 50
0.0
 51
90.0
  0
ARC
  5
FDC
  8
FORM
 10
21.249999986363441
 20
15.153846144098431
 30
0.0
 40
0.4999999996674
 50
0.0
 51
90.0
  0
ARC
  5
FDD
  8
FORM
 10
21.249999986363441
 20
15.153846144098431
 30
0.0
 40
0.1538461537438154
 50
0.0
 51
90.0
  0
ARC
  5
FDE
  8
FORM
 10
21.249999986363441
 20
0.7499999996674092
 30
0.0
 40
0.4999999996674
 50
270.0
 51
0.0
  0
ARC
  5
FDF
  8
FORM
 10
21.249999986363441
 20
0.7499999996674092
 30
0.0
 40
0.3461538459235846
 50
270.0
 51
0.0
  0
ARC
  5
FE0
  8
FORM
 10
21.249999986363441
 20
0.7499999996674092
 30
0.0
 40
0.3076923074876307
 50
270.0
 51
0.0
  0
ARC
  5
FE1
  8
FORM
 10
21.249999986363441
 20
0.7499999996674092
 30
0.0
 40
0.1538461537438154
 50
270.0
 51
0.0
  0
LINE
  5
FE2
  8
FORM
 10
21.249999986363441
 20
0.4423076921797886
 30
0.0
 11
0.7499999996674376
 21
0.442307692179778
 31
0.0
  0
LINE
  5
FE3
  8
FORM
 10
21.249999986363441
 20
0.4038461537438352
 30
0.0
 11
0.7499999996674376
 21
0.4038461537438245
 31
0.0
  0
LINE
  5
FE4
  8
FORM
 10
21.249999986363441
 20
0.2500000000000071
 30
0.0
 11
0.7499999996674376
 21
0.25
 31
0.0
  0
LINE
  5
FE5
  8
FORM
 10
21.55769229385108
 20
0.7499999996674092
 30
0.0
 11
21.55769229385108
 21
15.153846144098431
 31
0.0
  0
LINE
  5
FE6
  8
FORM
 10
21.59615383228703
 20
0.7499999996674092
 30
0.0
 11
21.59615383228703
 21
15.153846144098431
 31
0.0
  0
LINE
  5
FE7
  8
FORM
 10
21.74999998603084
 20
0.7499999996674092
 30
0.0
 11
21.74999998603084
 21
15.153846144098431
 31
0.0
  0
LINE
  5
FE8
  8
FORM
 10
21.249999986363441
 20
15.46153845158606
 30
0.0
 11
0.7499999996674376
 21
15.46153845158606
 31
0.0
  0
LINE
  5
FE9
  8
FORM
 10
21.249999986363441
 20
15.499999990022021
 30
0.0
 11
0.7499999996674376
 21
15.499999990022021
 31
0.0
  0
LINE
  5
FEA
  8
FORM
 10
21.249999986363441
 20
15.653846143765829
 30
0.0
 11
0.7499999996674376
 21
15.653846143765829
 31
0.0
  0
LINE
  5
FEB
  8
FORM
 10
0.4423076921798029
 20
0.7499999996674092
 30
0.0
 11
0.4423076921798029
 21
15.153846144098431
 31
0.0
  0
LINE
  5
FEC
  8
FORM
 10
0.4038461537438565
 20
0.7499999996674092
 30
0.0
 11
0.4038461537438565
 21
15.153846144098431
 31
0.0
  0
LINE
  5
FED
  8
FORM
 10
0.25
 20
0.7499999996674092
 30
0.0
 11
0.2500000000000426
 21
15.153846144098431
 31
0.0
  0
LINE
  5
FEE
  8
FORM
  6
CONTINUOUS
 10
16.703251912464879
 20
0.7499999996674092
 30
0.0
 11
21.02491344805162
 21
0.7499999996674092
 31
0.0
  0
LINE
  5
FEF
  8
FORM
  6
CONTINUOUS
 10
21.249999986363441
 20
3.1359173057725931
 30
0.0
 11
21.249999986363441
 21
0.9750865379792159
 31
0.0
  0
ARC
  5
FF0
  8
FORM
  6
CONTINUOUS
 10
21.02491344805162
 20
0.9750865379792159
 30
0.0
 40
0.2250865383118096
 50
270.0
 51
0.0
  0
ARC
  5
FF1
  8
FORM
  6
CONTINUOUS
 10
21.02491344805162
 20
3.1359173057725931
 30
0.0
 40
0.2250865383118096
 50
359.99999999999989
 51
90.0
  0
ARC
  5
FF2
  8
FORM
  6
CONTINUOUS
 10
16.703251912464879
 20
0.9750865379792159
 30
0.0
 40
0.2250865383118096
 50
180.0
 51
270.0
  0
ARC
  5
FF3
  8
FORM
  6
CONTINUOUS
 10
16.703251912464879
 20
3.1359173057725931
 30
0.0
 40
0.2250865383118096
 50
90.0
 51
180.0
  0
LINE
  5
1138
  8
0
 10
0.7499999996674376
 20
0.7499999996674092
 30
0.0
 11
0.7499999996674376
 21
1.7499999996674089
 31
0.0
  0
LINE
  5
1139
  8
0
 10
0.7499999996674376
 20
0.8749999996674091
 30
0.0
 11
0.8749999996674375
 21
0.8749999996674091
 31
0.0
  0
LINE
  5
113A
  8
0
 10
0.7499999996674376
 20
0.9999999996674091
 30
0.0
 11
0.9999999996674375
 21
0.9999999996674091
 31
0.0
  0
LINE
  5
113B
  8
0
 10
0.7499999996674376
 20
1.1249999996674089
 30
0.0
 11
0.8749999996674375
 21
1.1249999996674089
 31
0.0
  0
LINE
  5
113C
  8
0
 10
0.7499999996674376
 20
1.2499999996674089
 30
0.0
 11
1.1249999996674369
 21
1.2499999996674089
 31
0.0
  0
LINE
  5
113D
  8
0
 10
0.7499999996674376
 20
1.3749999996674089
 30
0.0
 11
0.8749999996674375
 21
1.3749999996674089
 31
0.0
  0
LINE
  5
113E
  8
0
 10
0.7499999996674376
 20
1.4999999996674089
 30
0.0
 11
0.9999999996674375
 21
1.4999999996674089
 31
0.0
  0
LINE
  5
113F
  8
0
 10
0.7499999996674376
 20
1.6249999996674089
 30
0.0
 11
0.8749999996674375
 21
1.6249999996674089
 31
0.0
  0
LINE
  5
1140
  8
0
 10
0.7499999996674376
 20
1.7499999996674089
 30
0.0
 11
1.1249999996674369
 21
1.7499999996674089
 31
0.0
  0
LINE
  5
1141
  8
0
 10
0.7499999996674376
 20
0.7499999996674092
 30
0.0
 11
1.1249999996674369
 21
0.7499999996674092
 31
0.0
  0
TEXT
  5
1142
  8
0
 10
1.1742687732938739
 20
1.216959438666926
 30
0.0
 40
0.0625
  1
1/2"
  0
TEXT
  5
1143
  8
0
 10
0.9242687732938748
 20
1.091959438666926
 30
0.0
 40
0.0625
  1
3/8"
  0
TEXT
  5
1144
  8
0
 10
1.0492687732938739
 20
0.966959438666926
 30
0.0
 40
0.0625
  1
1/4"
  0
TEXT
  5
1145
  8
0
 10
0.9242687732938748
 20
0.841959438666926
 30
0.0
 40
0.0625
  1
1/8"
  0
TEXT
  5
1146
  8
0
 10
0.9242687732938748
 20
1.341959438666926
 30
0.0
 40
0.0625
  1
5/8"
  0
TEXT
  5
1147
  8
0
 10
1.0492687732938739
 20
1.466959438666926
 30
0.0
 40
0.0625
  1
3/4"
  0
TEXT
  5
1148
  8
0
 10
0.9242687732938748
 20
1.591959438666926
 30
0.0
 40
0.0625
  1
7/8"
  0
TEXT
  5
1149
  8
0
 10
1.1742687732938739
 20
1.716959438666926
 30
0.0
 40
0.0625
  1
1"
  0
ENDSEC
  0
EOF
