  0
SECTION
  2
HEADER
  9
$ACADVER
  1
AC1009
  9
$INSBASE
 10
0.0
 20
0.0
 30
0.0
  9
$EXTMIN
 10
0.0
 20
0.0
 30
0.0
  9
$EXTMAX
 10
44.0
 20
34.0
 30
0.0
  9
$LIMMIN
 10
0.0
 20
0.0
  9
$LIMMAX
 10
12.0
 20
9.0
  9
$ORTHOMODE
 70
     1
  9
$REGENMODE
 70
     1
  9
$FILLMODE
 70
     1
  9
$QTEXTMODE
 70
     0
  9
$MIRRTEXT
 70
     1
  9
$DRAGMODE
 70
     2
  9
$LTSCALE
 40
1.0
  9
$OSMODE
 70
    39
  9
$ATTMODE
 70
     1
  9
$TEXTSIZE
 40
0.1875
  9
$TRACEWID
 40
0.05
  9
$TEXTSTYLE
  7
STANDARD
  9
$CLAYER
  8
0
  9
$CELTYPE
  6
BYLAYER
  9
$CECOLOR
 62
   256
  9
$DIMSCALE
 40
1.0
  9
$DIMASZ
 40
0.25
  9
$DIMEXO
 40
0.0625
  9
$DIMDLI
 40
0.38
  9
$DIMRND
 40
0.0
  9
$DIMDLE
 40
0.0
  9
$DIMEXE
 40
0.0625
  9
$DIMTP
 40
0.0
  9
$DIMTM
 40
0.0
  9
$DIMTXT
 40
0.25
  9
$DIMCEN
 40
0.0
  9
$DIMTSZ
 40
0.0
  9
$DIMTOL
 70
     0
  9
$DIMLIM
 70
     0
  9
$DIMTIH
 70
     1
  9
$DIMTOH
 70
     1
  9
$DIMSE1
 70
     0
  9
$DIMSE2
 70
     0
  9
$DIMTAD
 70
     0
  9
$DIMZIN
 70
     0
  9
$DIMBLK
  1

  9
$DIMASO
 70
     1
  9
$DIMSHO
 70
     1
  9
$DIMPOST
  1

  9
$DIMAPOST
  1

  9
$DIMALT
 70
     0
  9
$DIMALTD
 70
     2
  9
$DIMALTF
 40
25.399999999999999
  9
$DIMLFAC
 40
1.0
  9
$DIMTOFL
 70
     0
  9
$DIMTVP
 40
0.0
  9
$DIMTIX
 70
     0
  9
$DIMSOXD
 70
     0
  9
$DIMSAH
 70
     0
  9
$DIMBLK1
  1

  9
$DIMBLK2
  1

  9
$DIMSTYLE
  2
STANDARD
  9
$DIMCLRD
 70
     0
  9
$DIMCLRE
 70
     0
  9
$DIMCLRT
 70
     0
  9
$DIMTFAC
 40
1.0
  9
$DIMGAP
 40
0.09
  9
$LUNITS
 70
     2
  9
$LUPREC
 70
     7
  9
$SKETCHINC
 40
0.1
  9
$FILLETRAD
 40
0.125
  9
$AUNITS
 70
     0
  9
$AUPREC
 70
     8
  9
$MENU
  1
.
  9
$ELEVATION
 40
0.0
  9
$PELEVATION
 40
0.0
  9
$THICKNESS
 40
0.0
  9
$LIMCHECK
 70
     0
  9
$BLIPMODE
 70
     0
  9
$CHAMFERA
 40
0.0
  9
$CHAMFERB
 40
0.0
  9
$SKPOLY
 70
     0
  9
$TDCREATE
 40
2453087.3875628472
  9
$TDUPDATE
 40
2453462.648718542
  9
$TDINDWG
 40
0.0919764699
  9
$TDUSRTIMER
 40
0.0919764699
  9
$USRTIMER
 70
     1
  9
$ANGBASE
 50
0.0
  9
$ANGDIR
 70
     0
  9
$PDMODE
 70
     0
  9
$PDSIZE
 40
0.0
  9
$PLINEWID
 40
0.0
  9
$COORDS
 70
     0
  9
$SPLFRAME
 70
     0
  9
$SPLINETYPE
 70
     6
  9
$SPLINESEGS
 70
     8
  9
$ATTDIA
 70
     0
  9
$ATTREQ
 70
     1
  9
$HANDLING
 70
     1
  9
$HANDSEED
  5
F60
  9
$SURFTAB1
 70
     6
  9
$SURFTAB2
 70
     6
  9
$SURFTYPE
 70
     6
  9
$SURFU
 70
     6
  9
$SURFV
 70
     6
  9
$UCSNAME
  2

  9
$UCSORG
 10
0.0
 20
0.0
 30
0.0
  9
$UCSXDIR
 10
1.0
 20
0.0
 30
0.0
  9
$UCSYDIR
 10
0.0
 20
1.0
 30
0.0
  9
$PUCSNAME
  2

  9
$PUCSORG
 10
0.0
 20
0.0
 30
0.0
  9
$PUCSXDIR
 10
1.0
 20
0.0
 30
0.0
  9
$PUCSYDIR
 10
0.0
 20
1.0
 30
0.0
  9
$USERI1
 70
     0
  9
$USERI2
 70
     0
  9
$USERI3
 70
     0
  9
$USERI4
 70
     0
  9
$USERI5
 70
     0
  9
$USERR1
 40
0.0
  9
$USERR2
 40
0.0
  9
$USERR3
 40
0.0
  9
$USERR4
 40
0.0
  9
$USERR5
 40
0.0
  9
$WORLDVIEW
 70
     1
  9
$SHADEDGE
 70
     3
  9
$SHADEDIF
 70
    70
  9
$TILEMODE
 70
     1
  9
$MAXACTVP
 70
    64
  9
$PLIMCHECK
 70
     0
  9
$PEXTMIN
 10
1.0000000000000000E+020
 20
1.0000000000000000E+020
 30
1.0000000000000000E+020
  9
$PEXTMAX
 10
-1.0000000000000000E+020
 20
-1.0000000000000000E+020
 30
-1.0000000000000000E+020
  9
$PLIMMIN
 10
0.0
 20
0.0
  9
$PLIMMAX
 10
12.0
 20
9.0
  9
$UNITMODE
 70
     0
  9
$VISRETAIN
 70
     1
  9
$PLINEGEN
 70
     0
  9
$PSLTSCALE
 70
     1
  0
ENDSEC
  0
SECTION
  2
TABLES
  0
TABLE
  2
VPORT
 70
     2
  0
VPORT
  2
*ACTIVE
 70
     0
 10
0.0
 20
0.0
 11
1.0
 21
1.0
 12
21.998145697127601
 22
17.000080670885811
 13
0.0
 23
0.0
 14
0.5
 24
0.5
 15
0.5
 25
0.5
 16
0.0
 26
0.0
 36
1.0
 17
0.0
 27
0.0
 37
0.0
 40
34.436700273588393
 41
2.1727078891257992
 42
50.0
 43
0.0
 44
0.0
 50
0.0
 51
0.0
 71
     0
 72
 20000
 73
     1
 74
     2
 75
     0
 76
     0
 77
     0
 78
     0
  0
ENDTAB
  0
TABLE
  2
LTYPE
 70
     3
  0
LTYPE
  2
CONTINUOUS
 70
     0
  3
Solid line
 72
    65
 73
     0
 40
0.0
  0
LTYPE
  2
CENTER
 70
     0
  3
Center ____ _ ____ _ ____ _ ____ _ ____ _ ____
 72
    65
 73
     4
 40
2.0
 49
1.25
 49
-0.25
 49
0.25
 49
-0.25
  0
LTYPE
  2
HIDDEN
 70
     0
  3
Hidden __ __ __ __ __ __ __ __ __ __ __ __ __ _
 72
    65
 73
     2
 40
0.375
 49
0.25
 49
-0.125
  0
ENDTAB
  0
TABLE
  2
LAYER
 70
     5
  0
LAYER
  2
0
 70
     0
 62
     7
  6
CONTINUOUS
  0
LAYER
  2
FORM
 70
     0
 62
     5
  6
CONTINUOUS
  0
LAYER
  2
SHOULDER_-_RIGHT
 70
     0
 62
     7
  6
CONTINUOUS
  0
LAYER
  2
DIMENSIONS
 70
     0
 62
     1
  6
CONTINUOUS
  0
LAYER
  2
DEFPOINTS
 70
     0
 62
     7
  6
CONTINUOUS
  0
ENDTAB
  0
TABLE
  2
STYLE
 70
     1
  0
STYLE
  2
STANDARD
 70
     0
 40
0.0
 41
1.0
 50
0.0
 71
     0
 42
0.1875
  3
simplex.shx
  4

  0
ENDTAB
  0
TABLE
  2
VIEW
 70
     0
  0
ENDTAB
  0
TABLE
  2
UCS
 70
     0
  0
ENDTAB
  0
TABLE
  2
APPID
 70
     2
  0
APPID
  2
ACAD
 70
     0
  0
APPID
  2
DCO15
 70
     0
  0
ENDTAB
  0
TABLE
  2
DIMSTYLE
 70
     1
  0
DIMSTYLE
  2
STANDARD
 70
     0
  3

  4

  5

  6

  7

 40
1.0
 41
0.25
 42
0.0625
 43
0.38
 44
0.0625
 45
0.0
 46
0.0
 47
0.0
 48
0.0
140
0.25
141
0.0
142
0.0
143
25.399999999999999
144
1.0
145
0.0
146
1.0
147
0.09
 71
     0
 72
     0
 73
     1
 74
     1
 75
     0
 76
     0
 77
     0
 78
     0
170
     0
171
     2
172
     0
173
     0
174
     0
175
     0
176
     0
177
     0
178
     0
  0
ENDTAB
  0
ENDSEC
  0
SECTION
  2
BLOCKS
  0
BLOCK
  8
0
  2
$MODEL_SPACE
 70
     0
 10
0.0
 20
0.0
 30
0.0
  3
$MODEL_SPACE
  1

  0
ENDBLK
  5
21
  8
0
  0
BLOCK
 67
     1
  8
0
  2
$PAPER_SPACE
 70
     0
 10
0.0
 20
0.0
 30
0.0
  3
$PAPER_SPACE
  1

  0
ENDBLK
  5
1D
 67
     1
  8
0
  0
ENDSEC
  0
SECTION
  2
ENTITIES
  0
LINE
  5
2DE
  8
SHOULDER_-_RIGHT
  6
CENTER
 10
12.098086297734399
 20
20.223967405899309
 30
0.0
 11
13.354421899909561
 21
20.223967405899309
 31
0.0
  0
LINE
  5
2E2
  8
SHOULDER_-_RIGHT
  6
CENTER
 10
14.14643405019063
 20
24.5008547955983
 30
0.0
 11
14.14643405019063
 21
21.015979556180369
 31
0.0
  0
ARC
  5
2E3
  8
SHOULDER_-_RIGHT
 10
14.14643405019063
 20
20.223967405899309
 30
0.0
 40
4.0125000000000002
 50
0.0
 51
180.0
  0
LINE
  5
2E5
  8
SHOULDER_-_RIGHT
 10
10.133934050190639
 20
20.223967405899309
 30
0.0
 11
10.133934050190639
 21
15.086203547336909
 31
0.0
  0
LINE
  5
2E6
  8
SHOULDER_-_RIGHT
 10
18.15893405019062
 20
20.223967405899309
 30
0.0
 11
18.15893405019062
 21
15.086203547336909
 31
0.0
  0
LINE
  5
2E7
  8
SHOULDER_-_RIGHT
 10
16.333934050190631
 20
18.585967405899311
 30
0.0
 11
16.333934050190631
 21
13.710967405899311
 31
0.0
  0
LINE
  5
2E8
  8
SHOULDER_-_RIGHT
 10
11.95893405019063
 20
18.585967405899311
 30
0.0
 11
11.95893405019063
 21
13.710967405899311
 31
0.0
  0
LINE
  5
2E9
  8
SHOULDER_-_RIGHT
 10
11.95893405019063
 20
13.710967405899311
 30
0.0
 11
10.133934050190639
 21
15.086203547336909
 31
0.0
  0
LINE
  5
2EA
  8
SHOULDER_-_RIGHT
 10
16.333934050190631
 20
13.710967405899311
 30
0.0
 11
18.15893405019062
 21
15.086203547336909
 31
0.0
  0
LINE
  5
2EC
  8
SHOULDER_-_RIGHT
 10
11.95893405019063
 20
18.585967405899311
 30
0.0
 11
12.78776479827067
 21
19.210536172964751
 31
0.0
  0
LINE
  5
2ED
  8
SHOULDER_-_RIGHT
 10
16.333934050190631
 20
18.585967405899311
 30
0.0
 11
15.5051033021106
 21
19.210536172964751
 31
0.0
  0
ARC
  5
2EE
  8
SHOULDER_-_RIGHT
 10
14.14643405019063
 20
20.223967405899309
 30
0.0
 40
1.6950000000000001
 50
323.28074698460358
 51
216.71925301539639
  0
LINE
  5
2EF
  8
SHOULDER_-_RIGHT
  6
HIDDEN
 10
11.89643405019063
 20
18.61712875640265
 30
0.0
 11
12.701359936521699
 21
19.223683918079999
 31
0.0
  0
LINE
  5
2F0
  8
SHOULDER_-_RIGHT
  6
HIDDEN
 10
11.89643405019063
 20
18.61712875640265
 30
0.0
 11
11.89643405019063
 21
13.758064534030741
 31
0.0
  0
ARC
  5
2F4
  8
SHOULDER_-_RIGHT
  6
HIDDEN
 10
14.14643405019063
 20
20.223967405899309
 30
0.0
 40
1.7575000000000001
 50
325.30893240063961
 51
214.69106759936051
  0
LINE
  5
2F5
  8
SHOULDER_-_RIGHT
  6
HIDDEN
 10
16.396434050190631
 20
18.617128756402639
 30
0.0
 11
15.591508163859571
 21
19.223683918079999
 31
0.0
  0
LINE
  5
2F6
  8
SHOULDER_-_RIGHT
  6
HIDDEN
 10
16.396434050190631
 20
18.617128756402639
 30
0.0
 11
16.396434050190631
 21
13.75806453403073
 31
0.0
  0
LINE
  5
2FA
  8
SHOULDER_-_RIGHT
  6
CENTER
 10
30.287249368393251
 20
20.223967405899309
 30
0.0
 11
38.841024147791217
 21
20.223967405899309
 31
0.0
  0
LINE
  5
2FB
  8
SHOULDER_-_RIGHT
 10
36.751636758092253
 20
13.710967405899311
 30
0.0
 11
38.576636758092242
 21
15.086203547336909
 31
0.0
  0
LINE
  5
2FC
  8
SHOULDER_-_RIGHT
 10
36.814136758092253
 20
13.83632301266549
 30
0.0
 11
38.514136758092242
 21
15.11736489784025
 31
0.0
  0
ARC
  5
2FD
  8
SHOULDER_-_RIGHT
 10
34.564136758092253
 20
20.223967405899309
 30
0.0
 40
4.0125000000000002
 50
0.0
 51
180.0
  0
ARC
  5
2FE
  8
SHOULDER_-_RIGHT
 10
34.564136758092253
 20
20.223967405899309
 30
0.0
 40
3.9500000000000002
 50
0.0
 51
180.0
  0
LINE
  5
2FF
  8
SHOULDER_-_RIGHT
  6
CENTER
 10
34.564136758092253
 20
24.5008547955983
 30
0.0
 11
34.564136758092253
 21
13.14696984154968
 31
0.0
  0
LINE
  5
300
  8
SHOULDER_-_RIGHT
 10
30.551636758092229
 20
20.223967405899309
 30
0.0
 11
30.551636758092229
 21
15.086203547336909
 31
0.0
  0
ARC
  5
301
  8
SHOULDER_-_RIGHT
 10
34.564136758092253
 20
20.223967405899309
 30
0.0
 40
1.6950000000000001
 50
323.28074698460358
 51
216.71925301539639
  0
ARC
  5
302
  8
SHOULDER_-_RIGHT
 10
34.564136758092253
 20
20.223967405899309
 30
0.0
 40
1.7575000000000001
 50
325.30893240063961
 51
214.69106759936051
  0
LINE
  5
303
  8
SHOULDER_-_RIGHT
 10
30.614136758092229
 20
20.223967405899309
 30
0.0
 11
30.614136758092229
 21
15.11736489784025
 31
0.0
  0
LINE
  5
304
  8
SHOULDER_-_RIGHT
 10
32.376636758092253
 20
13.710967405899311
 30
0.0
 11
30.551636758092229
 21
15.086203547336909
 31
0.0
  0
LINE
  5
305
  8
SHOULDER_-_RIGHT
 10
32.314136758092253
 20
13.836323012665501
 30
0.0
 11
30.614136758092229
 21
15.11736489784025
 31
0.0
  0
LINE
  5
306
  8
SHOULDER_-_RIGHT
 10
36.814136758092253
 20
18.617128756402639
 30
0.0
 11
36.814136758092253
 21
13.83632301266549
 31
0.0
  0
LINE
  5
307
  8
SHOULDER_-_RIGHT
 10
32.314136758092253
 20
18.61712875640265
 30
0.0
 11
32.314136758092253
 21
13.836323012665501
 31
0.0
  0
LINE
  5
308
  8
SHOULDER_-_RIGHT
 10
36.751636758092253
 20
18.585967405899311
 30
0.0
 11
36.751636758092253
 21
13.710967405899311
 31
0.0
  0
LINE
  5
309
  8
SHOULDER_-_RIGHT
 10
32.376636758092253
 20
18.585967405899311
 30
0.0
 11
32.376636758092253
 21
13.710967405899311
 31
0.0
  0
LINE
  5
30A
  8
SHOULDER_-_RIGHT
 10
32.376636758092253
 20
18.585967405899311
 30
0.0
 11
33.20546750617229
 21
19.210536172964751
 31
0.0
  0
LINE
  5
30B
  8
SHOULDER_-_RIGHT
 10
32.314136758092253
 20
18.61712875640265
 30
0.0
 11
33.119062644423309
 21
19.223683918079999
 31
0.0
  0
LINE
  5
30C
  8
SHOULDER_-_RIGHT
 10
36.751636758092253
 20
18.585967405899311
 30
0.0
 11
35.922806010012181
 21
19.210536172964751
 31
0.0
  0
LINE
  5
30D
  8
SHOULDER_-_RIGHT
 10
36.814136758092253
 20
18.617128756402639
 30
0.0
 11
36.009210871761162
 21
19.223683918079999
 31
0.0
  0
LINE
  5
30E
  8
SHOULDER_-_RIGHT
 10
38.576636758092242
 20
20.223967405899309
 30
0.0
 11
38.576636758092242
 21
15.086203547336909
 31
0.0
  0
LINE
  5
30F
  8
SHOULDER_-_RIGHT
 10
38.514136758092242
 20
20.223967405899309
 30
0.0
 11
38.514136758092242
 21
15.11736489784025
 31
0.0
  0
LINE
  5
312
  8
SHOULDER_-_RIGHT
 10
10.133934050190639
 20
9.8919315565539812
 30
0.0
 11
10.133934050190639
 21
9.0169315565539812
 31
0.0
  0
LINE
  5
313
  8
SHOULDER_-_RIGHT
 10
18.15893405019062
 20
9.8919315565539812
 30
0.0
 11
18.15893405019062
 21
9.0169315565539812
 31
0.0
  0
LINE
  5
314
  8
SHOULDER_-_RIGHT
 10
11.95893405019063
 20
9.8919315565539812
 30
0.0
 11
11.95893405019063
 21
9.7669315565539812
 31
0.0
  0
LINE
  5
315
  8
SHOULDER_-_RIGHT
 10
16.333934050190631
 20
9.8919315565539812
 30
0.0
 11
16.333934050190631
 21
9.7669315565539812
 31
0.0
  0
LINE
  5
316
  8
SHOULDER_-_RIGHT
 10
10.133934050190639
 20
9.8919315565539812
 30
0.0
 11
18.15893405019062
 21
9.8919315565539812
 31
0.0
  0
LINE
  5
317
  8
SHOULDER_-_RIGHT
 10
11.89643405019063
 20
9.7669315565539812
 30
0.0
 11
16.396434050190631
 21
9.7669315565539812
 31
0.0
  0
LINE
  5
318
  8
SHOULDER_-_RIGHT
 10
11.89643405019063
 20
9.6419315565539812
 30
0.0
 11
16.396434050190631
 21
9.6419315565539812
 31
0.0
  0
LINE
  5
319
  8
SHOULDER_-_RIGHT
 10
11.89643405019063
 20
9.5169315565539812
 30
0.0
 11
16.396434050190631
 21
9.5169315565539812
 31
0.0
  0
LINE
  5
31A
  8
SHOULDER_-_RIGHT
 10
11.89643405019063
 20
9.3919315565539812
 30
0.0
 11
16.396434050190631
 21
9.3919315565539812
 31
0.0
  0
LINE
  5
31B
  8
SHOULDER_-_RIGHT
 10
11.89643405019063
 20
9.2669315565539812
 30
0.0
 11
16.396434050190631
 21
9.2669315565539812
 31
0.0
  0
LINE
  5
31C
  8
SHOULDER_-_RIGHT
 10
11.89643405019063
 20
9.1419315565539812
 30
0.0
 11
16.396434050190631
 21
9.1419315565539812
 31
0.0
  0
LINE
  5
31D
  8
SHOULDER_-_RIGHT
 10
10.133934050190639
 20
9.0169315565539812
 30
0.0
 11
18.15893405019062
 21
9.0169315565539812
 31
0.0
  0
LINE
  5
31E
  8
SHOULDER_-_RIGHT
 10
10.196434050190639
 20
8.8919315565539812
 30
0.0
 11
18.09643405019062
 21
8.8919315565539812
 31
0.0
  0
LINE
  5
31F
  8
SHOULDER_-_RIGHT
 10
11.95893405019063
 20
9.6419315565539812
 30
0.0
 11
11.95893405019063
 21
9.5169315565539812
 31
0.0
  0
LINE
  5
320
  8
SHOULDER_-_RIGHT
 10
11.95893405019063
 20
9.3919315565539812
 30
0.0
 11
11.95893405019063
 21
9.2669315565539812
 31
0.0
  0
LINE
  5
321
  8
SHOULDER_-_RIGHT
 10
11.95893405019063
 20
9.1419315565539812
 30
0.0
 11
11.95893405019063
 21
9.0169315565539812
 31
0.0
  0
LINE
  5
323
  8
SHOULDER_-_RIGHT
 10
16.333934050190631
 20
9.6419315565539812
 30
0.0
 11
16.333934050190631
 21
9.5169315565539812
 31
0.0
  0
LINE
  5
324
  8
SHOULDER_-_RIGHT
 10
16.333934050190631
 20
9.3919315565539812
 30
0.0
 11
16.333934050190631
 21
9.2669315565539812
 31
0.0
  0
LINE
  5
325
  8
SHOULDER_-_RIGHT
 10
16.333934050190631
 20
9.1419315565539812
 30
0.0
 11
16.333934050190631
 21
9.0169315565539812
 31
0.0
  0
LINE
  5
327
  8
SHOULDER_-_RIGHT
 10
11.89643405019063
 20
9.7669315565539812
 30
0.0
 11
11.89643405019063
 21
9.6419315565539812
 31
0.0
  0
LINE
  5
328
  8
SHOULDER_-_RIGHT
 10
16.396434050190631
 20
9.7669315565539812
 30
0.0
 11
16.396434050190631
 21
9.6419315565539812
 31
0.0
  0
LINE
  5
329
  8
SHOULDER_-_RIGHT
 10
11.89643405019063
 20
9.5169315565539812
 30
0.0
 11
11.89643405019063
 21
9.3919315565539812
 31
0.0
  0
LINE
  5
32A
  8
SHOULDER_-_RIGHT
 10
11.89643405019063
 20
9.2669315565539812
 30
0.0
 11
11.89643405019063
 21
9.1419315565539812
 31
0.0
  0
LINE
  5
32B
  8
SHOULDER_-_RIGHT
 10
11.89643405019063
 20
9.0169315565539812
 30
0.0
 11
11.89643405019063
 21
8.8919315565539812
 31
0.0
  0
LINE
  5
32C
  8
SHOULDER_-_RIGHT
 10
16.396434050190631
 20
9.5169315565539812
 30
0.0
 11
16.396434050190631
 21
9.3919315565539812
 31
0.0
  0
LINE
  5
32D
  8
SHOULDER_-_RIGHT
 10
16.396434050190631
 20
9.2669315565539812
 30
0.0
 11
16.396434050190631
 21
9.1419315565539812
 31
0.0
  0
LINE
  5
32E
  8
SHOULDER_-_RIGHT
 10
16.396434050190631
 20
9.0169315565539812
 30
0.0
 11
16.396434050190631
 21
8.8919315565539812
 31
0.0
  0
LINE
  5
32F
  8
SHOULDER_-_RIGHT
 10
10.196434050190639
 20
9.0169315565539812
 30
0.0
 11
10.196434050190639
 21
8.8919315565539812
 31
0.0
  0
LINE
  5
330
  8
SHOULDER_-_RIGHT
 10
18.09643405019062
 20
9.0169315565539812
 30
0.0
 11
18.09643405019062
 21
8.8919315565539812
 31
0.0
  0
LINE
  5
332
  8
SHOULDER_-_RIGHT
 10
12.78776479827067
 20
9.8919315565539812
 30
0.0
 11
12.78776479827067
 21
9.7669315565539812
 31
0.0
  0
LINE
  5
333
  8
SHOULDER_-_RIGHT
 10
12.701359936521699
 20
9.7669315565539812
 30
0.0
 11
12.701359936521699
 21
9.6419315565539812
 31
0.0
  0
LINE
  5
334
  8
SHOULDER_-_RIGHT
 10
12.78776479827067
 20
9.6419315565539812
 30
0.0
 11
12.78776479827067
 21
9.5169315565539812
 31
0.0
  0
LINE
  5
335
  8
SHOULDER_-_RIGHT
 10
12.78776479827067
 20
9.3919315565539812
 30
0.0
 11
12.78776479827067
 21
9.2669315565539812
 31
0.0
  0
LINE
  5
336
  8
SHOULDER_-_RIGHT
 10
12.78776479827067
 20
9.1419315565539812
 30
0.0
 11
12.78776479827067
 21
9.0169315565539812
 31
0.0
  0
LINE
  5
338
  8
SHOULDER_-_RIGHT
 10
12.701359936521699
 20
9.5169315565539812
 30
0.0
 11
12.701359936521699
 21
9.3919315565539812
 31
0.0
  0
LINE
  5
339
  8
SHOULDER_-_RIGHT
 10
12.701359936521699
 20
9.2669315565539812
 30
0.0
 11
12.701359936521699
 21
9.1419315565539812
 31
0.0
  0
LINE
  5
33A
  8
SHOULDER_-_RIGHT
 10
12.701359936521699
 20
9.0169315565539812
 30
0.0
 11
12.701359936521699
 21
8.8919315565539812
 31
0.0
  0
LINE
  5
33B
  8
SHOULDER_-_RIGHT
 10
15.591508163859571
 20
9.2669315565539812
 30
0.0
 11
15.591508163859571
 21
9.1419315565539812
 31
0.0
  0
LINE
  5
33C
  8
SHOULDER_-_RIGHT
 10
15.591508163859571
 20
9.0169315565539812
 30
0.0
 11
15.591508163859571
 21
8.8919315565539812
 31
0.0
  0
LINE
  5
33D
  8
SHOULDER_-_RIGHT
 10
15.5051033021106
 20
9.1419315565539812
 30
0.0
 11
15.5051033021106
 21
9.0169315565539812
 31
0.0
  0
LINE
  5
33E
  8
SHOULDER_-_RIGHT
 10
15.591508163859571
 20
9.7669315565539812
 30
0.0
 11
15.591508163859571
 21
9.6419315565539812
 31
0.0
  0
LINE
  5
33F
  8
SHOULDER_-_RIGHT
 10
15.591508163859571
 20
9.5169315565539812
 30
0.0
 11
15.591508163859571
 21
9.3919315565539812
 31
0.0
  0
LINE
  5
340
  8
SHOULDER_-_RIGHT
 10
15.5051033021106
 20
9.3919315565539812
 30
0.0
 11
15.5051033021106
 21
9.2669315565539812
 31
0.0
  0
LINE
  5
341
  8
SHOULDER_-_RIGHT
 10
15.5051033021106
 20
9.6419315565539812
 30
0.0
 11
15.5051033021106
 21
9.5169315565539812
 31
0.0
  0
LINE
  5
342
  8
SHOULDER_-_RIGHT
 10
15.5051033021106
 20
9.8919315565539812
 30
0.0
 11
15.5051033021106
 21
9.7669315565539812
 31
0.0
  0
LINE
  5
343
  8
SHOULDER_-_RIGHT
 10
17.809434050190639
 20
20.098967405899309
 30
0.0
 11
17.809434050190639
 21
15.41096740589931
 31
0.0
  0
LINE
  5
344
  8
SHOULDER_-_RIGHT
 10
16.734434050190629
 20
20.098967405899309
 30
0.0
 11
16.734434050190629
 21
15.41096740589931
 31
0.0
  0
LINE
  5
345
  8
SHOULDER_-_RIGHT
 10
16.859434050190629
 20
15.28596740589931
 30
0.0
 11
17.684434050190639
 21
15.28596740589931
 31
0.0
  0
LINE
  5
346
  8
SHOULDER_-_RIGHT
 10
16.859434050190629
 20
20.223967405899309
 30
0.0
 11
17.684434050190639
 21
20.223967405899309
 31
0.0
  0
LINE
  5
347
  8
SHOULDER_-_RIGHT
 10
10.39643405019063
 20
20.098967405899309
 30
0.0
 11
10.39643405019063
 21
19.098967405899309
 31
0.0
  0
LINE
  5
348
  8
SHOULDER_-_RIGHT
 10
11.64643405019063
 20
20.098967405899309
 30
0.0
 11
11.64643405019063
 21
19.098967405899309
 31
0.0
  0
LINE
  5
349
  8
SHOULDER_-_RIGHT
 10
10.52143405019063
 20
18.973967405899309
 30
0.0
 11
11.52143405019063
 21
18.973967405899309
 31
0.0
  0
LINE
  5
34A
  8
SHOULDER_-_RIGHT
 10
10.52143405019063
 20
17.123967405899311
 30
0.0
 11
11.52143405019063
 21
17.123967405899311
 31
0.0
  0
LINE
  5
34B
  8
SHOULDER_-_RIGHT
 10
10.52143405019063
 20
18.373967405899311
 30
0.0
 11
11.52143405019063
 21
18.3739674058993
 31
0.0
  0
LINE
  5
34C
  8
SHOULDER_-_RIGHT
 10
10.39643405019063
 20
18.248967405899311
 30
0.0
 11
10.39643405019063
 21
17.248967405899311
 31
0.0
  0
LINE
  5
34D
  8
SHOULDER_-_RIGHT
 10
11.64643405019063
 20
18.248967405899311
 30
0.0
 11
11.64643405019063
 21
17.248967405899311
 31
0.0
  0
LINE
  5
34E
  8
SHOULDER_-_RIGHT
 10
10.52143405019063
 20
20.223967405899309
 30
0.0
 11
11.52143405019063
 21
20.223967405899309
 31
0.0
  0
LINE
  5
351
  8
SHOULDER_-_RIGHT
 10
22.877194986271661
 20
24.236467405899312
 30
0.0
 11
23.752194986271661
 21
24.236467405899312
 31
0.0
  0
LINE
  5
352
  8
SHOULDER_-_RIGHT
 10
22.877194986271661
 20
15.086203547336909
 30
0.0
 11
23.752194986271661
 21
15.086203547336909
 31
0.0
  0
LINE
  5
353
  8
SHOULDER_-_RIGHT
 10
23.002194986271661
 20
13.75806453403073
 30
0.0
 11
23.127194986271661
 21
13.75806453403073
 31
0.0
  0
LINE
  5
354
  8
SHOULDER_-_RIGHT
 10
22.877194986271661
 20
13.710967405899311
 30
0.0
 11
23.002194986271661
 21
13.710967405899311
 31
0.0
  0
LINE
  5
355
  8
SHOULDER_-_RIGHT
 10
22.877194986271661
 20
13.710967405899311
 30
0.0
 11
22.877194986271661
 21
24.236467405899312
 31
0.0
  0
LINE
  5
356
  8
SHOULDER_-_RIGHT
 10
23.002194986271661
 20
13.710967405899311
 30
0.0
 11
23.002194986271661
 21
13.75806453403073
 31
0.0
  0
LINE
  5
357
  8
SHOULDER_-_RIGHT
 10
23.127194986271661
 20
13.710967405899311
 30
0.0
 11
23.127194986271661
 21
13.75806453403073
 31
0.0
  0
LINE
  5
358
  8
SHOULDER_-_RIGHT
 10
23.252194986271661
 20
13.710967405899311
 30
0.0
 11
23.252194986271661
 21
13.75806453403073
 31
0.0
  0
LINE
  5
359
  8
SHOULDER_-_RIGHT
 10
23.377194986271661
 20
13.710967405899311
 30
0.0
 11
23.377194986271661
 21
13.75806453403073
 31
0.0
  0
LINE
  5
35A
  8
SHOULDER_-_RIGHT
 10
23.502194986271661
 20
13.710967405899311
 30
0.0
 11
23.502194986271661
 21
13.75806453403073
 31
0.0
  0
LINE
  5
35B
  8
SHOULDER_-_RIGHT
 10
23.627194986271661
 20
13.710967405899311
 30
0.0
 11
23.627194986271661
 21
13.75806453403073
 31
0.0
  0
LINE
  5
35C
  8
SHOULDER_-_RIGHT
 10
23.752194986271661
 20
13.710967405899311
 30
0.0
 11
23.752194986271661
 21
24.236467405899312
 31
0.0
  0
LINE
  5
35D
  8
SHOULDER_-_RIGHT
 10
23.877194986271661
 20
13.75806453403073
 30
0.0
 11
23.877194986271661
 21
24.173967405899312
 31
0.0
  0
LINE
  5
35E
  8
SHOULDER_-_RIGHT
 10
23.252194986271661
 20
13.75806453403073
 30
0.0
 11
23.377194986271661
 21
13.75806453403073
 31
0.0
  0
LINE
  5
35F
  8
SHOULDER_-_RIGHT
 10
23.502194986271661
 20
13.75806453403073
 30
0.0
 11
23.627194986271661
 21
13.75806453403073
 31
0.0
  0
LINE
  5
360
  8
SHOULDER_-_RIGHT
 10
23.752194986271661
 20
13.75806453403073
 30
0.0
 11
23.877194986271661
 21
13.75806453403073
 31
0.0
  0
LINE
  5
361
  8
SHOULDER_-_RIGHT
 10
23.127194986271661
 20
13.710967405899311
 30
0.0
 11
23.252194986271661
 21
13.710967405899311
 31
0.0
  0
LINE
  5
362
  8
SHOULDER_-_RIGHT
 10
23.377194986271661
 20
13.710967405899311
 30
0.0
 11
23.502194986271661
 21
13.710967405899311
 31
0.0
  0
LINE
  5
363
  8
SHOULDER_-_RIGHT
 10
23.627194986271661
 20
13.710967405899311
 30
0.0
 11
23.752194986271661
 21
13.710967405899311
 31
0.0
  0
LINE
  5
365
  8
SHOULDER_-_RIGHT
 10
23.877194986271661
 20
15.11736489784025
 30
0.0
 11
23.752194986271661
 21
15.11736489784025
 31
0.0
  0
LINE
  5
366
  8
SHOULDER_-_RIGHT
 10
23.877194986271661
 20
24.173967405899312
 30
0.0
 11
23.752194986271661
 21
24.173967405899312
 31
0.0
  0
LINE
  5
367
  8
SHOULDER_-_RIGHT
 10
22.877194986271661
 20
20.223967405899309
 30
0.0
 11
23.52719498627167
 21
20.223967405899309
 31
0.0
  0
LINE
  5
368
  8
SHOULDER_-_RIGHT
  6
HIDDEN
 10
22.877194986271661
 20
15.28596740589931
 30
0.0
 11
23.52719498627167
 21
15.28596740589931
 31
0.0
  0
LINE
  5
369
  8
SHOULDER_-_RIGHT
  6
HIDDEN
 10
23.52719498627167
 20
15.28596740589931
 30
0.0
 11
23.52719498627167
 21
18.566309019240869
 31
0.0
  0
LINE
  5
3ED
  8
DIMENSIONS
 10
10.33393405019063
 20
18.373967405899311
 30
0.0
 11
8.0714340501906463
 21
18.373967405899311
 31
0.0
  0
LINE
  5
3EE
  8
DIMENSIONS
 10
10.33393405019063
 20
17.123967405899311
 30
0.0
 11
8.0714340501906463
 21
17.123967405899311
 31
0.0
  0
LINE
  5
3EF
  8
DIMENSIONS
 10
8.1339340501906463
 20
18.123967405899311
 30
0.0
 11
8.1339340501906463
 21
17.963967405899311
 31
0.0
  0
LINE
  5
3F0
  8
DIMENSIONS
 10
8.1339340501906463
 20
17.373967405899311
 30
0.0
 11
8.1339340501906463
 21
17.533967405899311
 31
0.0
  0
SOLID
  5
3F1
  8
DIMENSIONS
 10
8.0922673835239607
 20
18.123967405899311
 30
0.0
 11
8.1756007168573035
 21
18.123967405899311
 31
0.0
 12
8.1339340501906463
 22
18.373967405899311
 32
0.0
 13
8.1339340501906463
 23
18.373967405899311
 33
0.0
  0
SOLID
  5
3F2
  8
DIMENSIONS
 10
8.0922673835239607
 20
17.373967405899311
 30
0.0
 11
8.1756007168573035
 21
17.373967405899311
 31
0.0
 12
8.1339340501906463
 22
17.123967405899311
 32
0.0
 13
8.1339340501906463
 23
17.123967405899311
 33
0.0
  0
TEXT
  5
3F4
  8
DIMENSIONS
 10
7.6577435740001638
 20
17.623967405899311
 30
0.0
 40
0.25
  1
1.250
  0
LINE
  5
3F5
  8
DIMENSIONS
 10
10.33393405019063
 20
20.223967405899309
 30
0.0
 11
8.0714340501906463
 21
20.223967405899309
 31
0.0
  0
LINE
  5
3F6
  8
DIMENSIONS
 10
10.33393405019063
 20
18.373967405899311
 30
0.0
 11
8.0714340501906463
 21
18.373967405899311
 31
0.0
  0
LINE
  5
3F7
  8
DIMENSIONS
 10
8.1339340501906463
 20
19.973967405899309
 30
0.0
 11
8.1339340501906463
 21
19.513967405899312
 31
0.0
  0
LINE
  5
3F8
  8
DIMENSIONS
 10
8.1339340501906463
 20
18.623967405899311
 30
0.0
 11
8.1339340501906463
 21
19.083967405899308
 31
0.0
  0
SOLID
  5
3F9
  8
DIMENSIONS
 10
8.0922673835239607
 20
19.973967405899309
 30
0.0
 11
8.1756007168573035
 21
19.973967405899309
 31
0.0
 12
8.1339340501906463
 22
20.223967405899309
 32
0.0
 13
8.1339340501906463
 23
20.223967405899309
 33
0.0
  0
SOLID
  5
3FA
  8
DIMENSIONS
 10
8.0922673835239607
 20
18.623967405899311
 30
0.0
 11
8.1756007168573035
 21
18.623967405899311
 31
0.0
 12
8.1339340501906463
 22
18.373967405899311
 32
0.0
 13
8.1339340501906463
 23
18.373967405899311
 33
0.0
  0
LINE
  5
3FC
  8
DIMENSIONS
 10
10.33393405019063
 20
20.223967405899309
 30
0.0
 11
9.0714340501906463
 21
20.223967405899309
 31
0.0
  0
LINE
  5
3FD
  8
DIMENSIONS
 10
10.33393405019063
 20
18.973967405899309
 30
0.0
 11
9.0714340501906463
 21
18.973967405899309
 31
0.0
  0
LINE
  5
3FE
  8
DIMENSIONS
 10
9.1339340501906463
 20
19.973967405899309
 30
0.0
 11
9.1339340501906463
 21
19.813967405899309
 31
0.0
  0
LINE
  5
3FF
  8
DIMENSIONS
 10
9.1339340501906463
 20
19.223967405899309
 30
0.0
 11
9.1339340501906463
 21
19.383967405899309
 31
0.0
  0
SOLID
  5
400
  8
DIMENSIONS
 10
9.0922673835239607
 20
19.973967405899309
 30
0.0
 11
9.1756007168573035
 21
19.973967405899309
 31
0.0
 12
9.1339340501906463
 22
20.223967405899309
 32
0.0
 13
9.1339340501906463
 23
20.223967405899309
 33
0.0
  0
SOLID
  5
401
  8
DIMENSIONS
 10
9.0922673835239607
 20
19.223967405899309
 30
0.0
 11
9.1756007168573035
 21
19.223967405899309
 31
0.0
 12
9.1339340501906463
 22
18.973967405899309
 32
0.0
 13
9.1339340501906463
 23
18.973967405899309
 33
0.0
  0
TEXT
  5
403
  8
DIMENSIONS
 10
8.6577435740001647
 20
19.473967405899309
 30
0.0
 40
0.25
  1
1.250
  0
TEXT
  5
404
  8
DIMENSIONS
 10
7.6577435740001638
 20
19.173967405899312
 30
0.0
 40
0.25
  1
1.850
  0
LINE
  5
414
  8
DIMENSIONS
 10
17.871934050190639
 20
15.28596740589931
 30
0.0
 11
19.22143405019062
 21
15.28596740589931
 31
0.0
  0
LINE
  5
415
  8
DIMENSIONS
 10
17.871934050190639
 20
20.223967405899309
 30
0.0
 11
19.22143405019062
 21
20.223967405899309
 31
0.0
  0
LINE
  5
416
  8
DIMENSIONS
 10
19.15893405019062
 20
15.535967405899299
 30
0.0
 11
19.15893405019062
 21
17.539967405899311
 31
0.0
  0
LINE
  5
417
  8
DIMENSIONS
 10
19.15893405019062
 20
19.973967405899309
 30
0.0
 11
19.15893405019062
 21
17.9699674058993
 31
0.0
  0
SOLID
  5
418
  8
DIMENSIONS
 10
19.117267383523959
 20
15.535967405899299
 30
0.0
 11
19.200600716857309
 21
15.535967405899299
 31
0.0
 12
19.15893405019062
 22
15.28596740589931
 32
0.0
 13
19.15893405019062
 23
15.28596740589931
 33
0.0
  0
SOLID
  5
419
  8
DIMENSIONS
 10
19.117267383523959
 20
19.973967405899309
 30
0.0
 11
19.200600716857309
 21
19.973967405899309
 31
0.0
 12
19.15893405019062
 22
20.223967405899309
 32
0.0
 13
19.15893405019062
 23
20.223967405899309
 33
0.0
  0
TEXT
  5
41B
  8
DIMENSIONS
 10
18.65893405019062
 20
17.629967405899311
 30
0.0
 40
0.25
  1
4.938
  0
LINE
  5
43A
  8
DIMENSIONS
 10
16.734434050190629
 20
20.286467405899309
 30
0.0
 11
16.734434050190629
 21
25.298967405899312
 31
0.0
  0
LINE
  5
43B
  8
DIMENSIONS
 10
17.809434050190639
 20
20.286467405899309
 30
0.0
 11
17.809434050190639
 21
25.298967405899312
 31
0.0
  0
LINE
  5
43C
  8
DIMENSIONS
 10
16.484434050190629
 20
25.236467405899312
 30
0.0
 11
16.234434050190629
 21
25.236467405899312
 31
0.0
  0
LINE
  5
43D
  8
DIMENSIONS
 10
18.059434050190639
 20
25.236467405899312
 30
0.0
 11
18.309434050190639
 21
25.236467405899312
 31
0.0
  0
SOLID
  5
43E
  8
DIMENSIONS
 10
16.484434050190629
 20
25.27813407256598
 30
0.0
 11
16.484434050190629
 21
25.19480073923264
 31
0.0
 12
16.734434050190629
 22
25.236467405899312
 32
0.0
 13
16.734434050190629
 23
25.236467405899312
 33
0.0
  0
SOLID
  5
43F
  8
DIMENSIONS
 10
18.059434050190639
 20
25.27813407256598
 30
0.0
 11
18.059434050190639
 21
25.19480073923264
 31
0.0
 12
17.809434050190639
 22
25.236467405899312
 32
0.0
 13
17.809434050190639
 23
25.236467405899312
 33
0.0
  0
LINE
  5
441
  8
DIMENSIONS
 10
16.734434050190629
 20
20.286467405899309
 30
0.0
 11
16.734434050190629
 21
25.298967405899312
 31
0.0
  0
LINE
  5
442
  8
DIMENSIONS
 10
14.14643405019063
 20
24.56335479559829
 30
0.0
 11
14.14643405019063
 21
25.298967405899312
 31
0.0
  0
LINE
  5
443
  8
DIMENSIONS
 10
16.484434050190629
 20
25.236467405899312
 30
0.0
 11
16.030434050190621
 21
25.236467405899312
 31
0.0
  0
LINE
  5
444
  8
DIMENSIONS
 10
14.39643405019063
 20
25.236467405899312
 30
0.0
 11
14.850434050190639
 21
25.236467405899312
 31
0.0
  0
SOLID
  5
445
  8
DIMENSIONS
 10
16.484434050190629
 20
25.27813407256598
 30
0.0
 11
16.484434050190629
 21
25.19480073923264
 31
0.0
 12
16.734434050190629
 22
25.236467405899312
 32
0.0
 13
16.734434050190629
 23
25.236467405899312
 33
0.0
  0
SOLID
  5
446
  8
DIMENSIONS
 10
14.39643405019063
 20
25.27813407256598
 30
0.0
 11
14.39643405019063
 21
25.19480073923264
 31
0.0
 12
14.14643405019063
 22
25.236467405899312
 32
0.0
 13
14.14643405019063
 23
25.236467405899312
 33
0.0
  0
TEXT
  5
448
  8
DIMENSIONS
 10
14.940434050190641
 20
25.111467405899312
 30
0.0
 40
0.25
  1
2.588
  0
TEXT
  5
449
  8
DIMENSIONS
 10
16.779048532660202
 20
25.111467405899312
 30
0.0
 40
0.25
  1
1.075
  0
LINE
  5
458
  8
DIMENSIONS
 10
11.64643405019063
 20
20.286467405899309
 30
0.0
 11
11.64643405019063
 21
25.298967405899312
 31
0.0
  0
LINE
  5
459
  8
DIMENSIONS
 10
14.14643405019063
 20
24.56335479559829
 30
0.0
 11
14.14643405019063
 21
25.298967405899312
 31
0.0
  0
LINE
  5
45A
  8
DIMENSIONS
 10
11.89643405019063
 20
25.236467405899312
 30
0.0
 11
12.30643405019063
 21
25.236467405899312
 31
0.0
  0
LINE
  5
45B
  8
DIMENSIONS
 10
13.89643405019063
 20
25.236467405899312
 30
0.0
 11
13.48643405019064
 21
25.236467405899312
 31
0.0
  0
SOLID
  5
45C
  8
DIMENSIONS
 10
11.89643405019063
 20
25.27813407256598
 30
0.0
 11
11.89643405019063
 21
25.19480073923264
 31
0.0
 12
11.64643405019063
 22
25.236467405899312
 32
0.0
 13
11.64643405019063
 23
25.236467405899312
 33
0.0
  0
SOLID
  5
45D
  8
DIMENSIONS
 10
13.89643405019063
 20
25.27813407256598
 30
0.0
 11
13.89643405019063
 21
25.19480073923264
 31
0.0
 12
14.14643405019063
 22
25.236467405899312
 32
0.0
 13
14.14643405019063
 23
25.236467405899312
 33
0.0
  0
TEXT
  5
45F
  8
DIMENSIONS
 10
12.39643405019063
 20
25.111467405899312
 30
0.0
 40
0.25
  1
2.500
  0
LINE
  5
46E
  8
DIMENSIONS
 10
11.64643405019063
 20
20.286467405899309
 30
0.0
 11
11.64643405019063
 21
25.298967405899312
 31
0.0
  0
LINE
  5
46F
  8
DIMENSIONS
 10
10.39643405019063
 20
20.286467405899309
 30
0.0
 11
10.39643405019063
 21
25.298967405899312
 31
0.0
  0
LINE
  5
470
  8
DIMENSIONS
 10
11.89643405019063
 20
25.236467405899312
 30
0.0
 11
12.14643405019063
 21
25.236467405899312
 31
0.0
  0
LINE
  5
471
  8
DIMENSIONS
 10
10.14643405019063
 20
25.236467405899312
 30
0.0
 11
9.8964340501906332
 21
25.236467405899312
 31
0.0
  0
SOLID
  5
472
  8
DIMENSIONS
 10
11.89643405019063
 20
25.27813407256598
 30
0.0
 11
11.89643405019063
 21
25.19480073923264
 31
0.0
 12
11.64643405019063
 22
25.236467405899312
 32
0.0
 13
11.64643405019063
 23
25.236467405899312
 33
0.0
  0
SOLID
  5
473
  8
DIMENSIONS
 10
10.14643405019063
 20
25.27813407256598
 30
0.0
 11
10.14643405019063
 21
25.19480073923264
 31
0.0
 12
10.39643405019063
 22
25.236467405899312
 32
0.0
 13
10.39643405019063
 23
25.236467405899312
 33
0.0
  0
TEXT
  5
475
  8
DIMENSIONS
 10
10.54524357400015
 20
25.111467405899312
 30
0.0
 40
0.25
  1
1.250
  0
LINE
  5
495
  8
DIMENSIONS
 10
32.376636758092253
 20
13.648467405899311
 30
0.0
 11
32.376636758092253
 21
11.648467405899311
 31
0.0
  0
LINE
  5
496
  8
DIMENSIONS
 10
36.751636758092253
 20
13.648467405899311
 30
0.0
 11
36.751636758092253
 21
11.648467405899311
 31
0.0
  0
LINE
  5
497
  8
DIMENSIONS
 10
32.626636758092253
 20
11.710967405899311
 30
0.0
 11
33.974136758092243
 21
11.710967405899311
 31
0.0
  0
LINE
  5
498
  8
DIMENSIONS
 10
36.501636758092253
 20
11.710967405899311
 30
0.0
 11
35.154136758092221
 21
11.710967405899311
 31
0.0
  0
SOLID
  5
499
  8
DIMENSIONS
 10
32.626636758092253
 20
11.75263407256597
 30
0.0
 11
32.626636758092253
 21
11.669300739232639
 31
0.0
 12
32.376636758092253
 22
11.710967405899311
 32
0.0
 13
32.376636758092253
 23
11.710967405899311
 33
0.0
  0
SOLID
  5
49A
  8
DIMENSIONS
 10
36.501636758092253
 20
11.75263407256597
 30
0.0
 11
36.501636758092253
 21
11.669300739232639
 31
0.0
 12
36.751636758092253
 22
11.710967405899311
 32
0.0
 13
36.751636758092253
 23
11.710967405899311
 33
0.0
  0
LINE
  5
49C
  8
DIMENSIONS
 10
34.564136758092253
 20
13.08446984154968
 30
0.0
 11
34.564136758092253
 21
12.648467405899311
 31
0.0
  0
LINE
  5
49D
  8
DIMENSIONS
 10
32.376636758092253
 20
13.648467405899311
 30
0.0
 11
32.376636758092253
 21
12.648467405899311
 31
0.0
  0
LINE
  5
49E
  8
DIMENSIONS
 10
34.314136758092253
 20
12.710967405899311
 30
0.0
 11
34.036577234282703
 21
12.710967405899311
 31
0.0
  0
LINE
  5
49F
  8
DIMENSIONS
 10
32.626636758092253
 20
12.710967405899311
 30
0.0
 11
32.904196281901761
 21
12.710967405899311
 31
0.0
  0
SOLID
  5
4A0
  8
DIMENSIONS
 10
34.314136758092253
 20
12.75263407256597
 30
0.0
 11
34.314136758092253
 21
12.669300739232639
 31
0.0
 12
34.564136758092253
 22
12.710967405899311
 32
0.0
 13
34.564136758092253
 23
12.710967405899311
 33
0.0
  0
SOLID
  5
4A1
  8
DIMENSIONS
 10
32.626636758092253
 20
12.75263407256597
 30
0.0
 11
32.626636758092253
 21
12.669300739232639
 31
0.0
 12
32.376636758092253
 22
12.710967405899311
 32
0.0
 13
32.376636758092253
 23
12.710967405899311
 33
0.0
  0
TEXT
  5
4A3
  8
DIMENSIONS
 10
32.994196281901772
 20
12.585967405899311
 30
0.0
 40
0.25
  1
2.188
  0
TEXT
  5
4A4
  8
DIMENSIONS
 10
34.064136758092253
 20
11.585967405899311
 30
0.0
 40
0.25
  1
4.375
  0
LINE
  5
4CB
  8
DIMENSIONS
 10
30.551636758092229
 20
20.286467405899309
 30
0.0
 11
30.551636758092229
 21
25.298967405899312
 31
0.0
  0
LINE
  5
4CC
  8
DIMENSIONS
 10
34.564136758092253
 20
24.298967405899312
 30
0.0
 11
34.564136758092253
 21
25.298967405899312
 31
0.0
  0
LINE
  5
4CD
  8
DIMENSIONS
 10
30.801636758092229
 20
25.236467405899312
 30
0.0
 11
31.991696281901771
 21
25.236467405899312
 31
0.0
  0
LINE
  5
4CE
  8
DIMENSIONS
 10
34.314136758092253
 20
25.236467405899312
 30
0.0
 11
33.124077234282709
 21
25.236467405899312
 31
0.0
  0
SOLID
  5
4CF
  8
DIMENSIONS
 10
30.801636758092229
 20
25.27813407256598
 30
0.0
 11
30.801636758092229
 21
25.19480073923264
 31
0.0
 12
30.551636758092229
 22
25.236467405899312
 32
0.0
 13
30.551636758092229
 23
25.236467405899312
 33
0.0
  0
SOLID
  5
4D0
  8
DIMENSIONS
 10
34.314136758092253
 20
25.27813407256598
 30
0.0
 11
34.314136758092253
 21
25.19480073923264
 31
0.0
 12
34.564136758092253
 22
25.236467405899312
 32
0.0
 13
34.564136758092253
 23
25.236467405899312
 33
0.0
  0
TEXT
  5
4D2
  8
DIMENSIONS
 10
32.081696281901742
 20
25.111467405899312
 30
0.0
 40
0.25
  1
4.013
  0
LINE
  5
4E4
  8
DIMENSIONS
 10
32.314136758092253
 20
18.585967405899311
 30
0.0
 11
29.489136758092229
 21
18.585967405899311
 31
0.0
  0
LINE
  5
4E5
  8
DIMENSIONS
 10
30.224749368393251
 20
20.223967405899309
 30
0.0
 11
29.489136758092229
 21
20.223967405899309
 31
0.0
  0
LINE
  5
4E6
  8
DIMENSIONS
 10
29.551636758092229
 20
18.835967405899311
 30
0.0
 11
29.551636758092229
 21
19.18996740589931
 31
0.0
  0
LINE
  5
4E7
  8
DIMENSIONS
 10
29.551636758092229
 20
19.973967405899309
 30
0.0
 11
29.551636758092229
 21
19.61996740589931
 31
0.0
  0
SOLID
  5
4E8
  8
DIMENSIONS
 10
29.509970091425568
 20
18.835967405899311
 30
0.0
 11
29.59330342475889
 21
18.835967405899311
 31
0.0
 12
29.551636758092229
 22
18.585967405899311
 32
0.0
 13
29.551636758092229
 23
18.585967405899311
 33
0.0
  0
SOLID
  5
4E9
  8
DIMENSIONS
 10
29.509970091425568
 20
19.973967405899309
 30
0.0
 11
29.59330342475889
 21
19.973967405899309
 31
0.0
 12
29.551636758092229
 22
20.223967405899309
 32
0.0
 13
29.551636758092229
 23
20.223967405899309
 33
0.0
  0
TEXT
  5
4EB
  8
DIMENSIONS
 10
29.075446281901751
 20
19.27996740589931
 30
0.0
 40
0.25
  1
1.638
  0
LINE
  5
4FA
  8
DIMENSIONS
 10
32.314136758092253
 20
13.710967405899311
 30
0.0
 11
28.489136758092229
 21
13.710967405899311
 31
0.0
  0
LINE
  5
4FB
  8
DIMENSIONS
 10
30.224749368393251
 20
20.223967405899309
 30
0.0
 11
28.489136758092229
 21
20.223967405899309
 31
0.0
  0
LINE
  5
4FC
  8
DIMENSIONS
 10
28.551636758092229
 20
13.960967405899311
 30
0.0
 11
28.551636758092229
 21
16.75246740589931
 31
0.0
  0
LINE
  5
4FD
  8
DIMENSIONS
 10
28.551636758092229
 20
19.973967405899309
 30
0.0
 11
28.551636758092229
 21
17.18246740589931
 31
0.0
  0
SOLID
  5
4FE
  8
DIMENSIONS
 10
28.509970091425568
 20
13.960967405899311
 30
0.0
 11
28.59330342475889
 21
13.960967405899311
 31
0.0
 12
28.551636758092229
 22
13.710967405899311
 32
0.0
 13
28.551636758092229
 23
13.710967405899311
 33
0.0
  0
SOLID
  5
4FF
  8
DIMENSIONS
 10
28.509970091425568
 20
19.973967405899309
 30
0.0
 11
28.59330342475889
 21
19.973967405899309
 31
0.0
 12
28.551636758092229
 22
20.223967405899309
 32
0.0
 13
28.551636758092229
 23
20.223967405899309
 33
0.0
  0
TEXT
  5
501
  8
DIMENSIONS
 10
28.075446281901751
 20
16.84246740589931
 30
0.0
 40
0.25
  1
6.513
  0
LINE
  5
511
  8
DIMENSIONS
 10
30.501722038714291
 20
15.123816986283909
 30
0.0
 11
30.00402856092504
 21
15.49885592218172
 31
0.0
  0
ARC
  5
512
  8
DIMENSIONS
 10
32.376636758092253
 20
13.710967405899311
 30
0.0
 40
2.9083273265067868
 50
147.92666643168519
 51
156.96892540262331
  0
ARC
  5
513
  8
DIMENSIONS
 10
32.376636758092253
 20
13.710967405899311
 30
0.0
 40
2.9083273265067868
 50
165.91394197880851
 51
175.07333356831469
  0
SOLID
  5
514
  8
DIMENSIONS
 10
29.877886417897891
 20
15.278923827274401
 30
0.0
 11
29.946533379960979
 21
15.23167936681655
 31
0.0
 12
30.05394328030301
 22
15.46124248323472
 32
0.0
 13
30.05394328030301
 23
15.46124248323472
 33
0.0
  0
SOLID
  5
515
  8
DIMENSIONS
 10
29.520682603263712
 20
13.958945554129089
 30
0.0
 11
29.437426275639009
 21
13.96252722341773
 31
0.0
 12
29.46830943158545
 22
13.710967405899311
 32
0.0
 13
29.46830943158545
 23
13.710967405899311
 33
0.0
  0
TEXT
  5
517
  8
DIMENSIONS
 10
29.356696395378489
 20
14.508793208950079
 30
0.0
 40
0.25
  1
37°
  0
LINE
  5
528
  8
DIMENSIONS
 10
32.439136758092218
 20
18.585967405899311
 30
0.0
 11
34.191195118369222
 21
18.585967405899311
 31
0.0
  0
LINE
  5
529
  8
DIMENSIONS
 10
33.255382225550221
 20
19.24814961191176
 30
0.0
 11
33.825807499662631
 21
19.677995887500138
 31
0.0
  0
ARC
  5
52A
  8
DIMENSIONS
 10
32.376636758092218
 20
18.585967405899311
 30
0.0
 40
1.7520583602769799
 50
343.63510629057788
 51
351.81755314528903
  0
ARC
  5
52B
  8
DIMENSIONS
 10
32.376636758092218
 20
18.585967405899311
 30
0.0
 40
1.7520583602769799
 50
45.182446854710911
 51
53.364893709421928
  0
SOLID
  5
52C
  8
DIMENSIONS
 10
34.069298466045502
 20
18.339577169071941
 30
0.0
 11
34.152419442979983
 21
18.333631781119781
 31
0.0
 12
34.128695118369222
 22
18.585967405899311
 32
0.0
 13
34.128695118369222
 23
18.585967405899311
 33
0.0
  0
SOLID
  5
52D
  8
DIMENSIONS
 10
33.642980498501942
 20
19.856184293916929
 30
0.0
 11
33.580175158480301
 21
19.80141264331909
 31
0.0
 12
33.775892780284657
 22
19.64038244855314
 32
0.0
 13
33.775892780284657
 23
19.64038244855314
 33
0.0
  0
TEXT
  5
52F
  8
DIMENSIONS
 10
33.776250384539907
 20
19.016903681908659
 30
0.0
 40
0.25
  1
37°
  0
LINE
  5
53A
  8
DIMENSIONS
 10
34.564136758092253
 20
20.22396740589932
 30
0.0
 11
36.265107983201148
 21
25.236467405899312
 31
0.0
  0
SOLID
  5
53C
  8
DIMENSIONS
 10
35.733749768561182
 20
23.8002990134062
 30
0.0
 11
35.812663215536617
 21
23.77352006027316
 31
0.0
 12
35.853543351448032
 22
24.023649877765958
 32
0.0
 13
35.853543351448032
 23
24.023649877765958
 33
0.0
  0
TEXT
  5
53E
  8
DIMENSIONS
 10
36.667270683160133
 20
25.11363980404106
 30
0.0
 40
0.25
  1
R4.012
  0
LINE
  5
540
  8
DIMENSIONS
 10
36.265107983201148
 20
25.236467405899312
 30
0.0
 11
36.510769790843341
 21
25.236467405899312
 31
0.0
  0
LINE
  5
54C
  8
DIMENSIONS
 10
12.87446883035301
 20
19.538307519714181
 30
0.0
 11
13.74758831373282
 21
20.008967405899309
 31
0.0
  0
LINE
  5
54D
  8
DIMENSIONS
 10
15.41839927002826
 20
20.909627292084441
 30
0.0
 11
14.54527978664845
 21
20.438967405899309
 31
0.0
  0
SOLID
  5
54E
  8
DIMENSIONS
 10
12.85469778403856
 20
19.574984717518031
 30
0.0
 11
12.89423987666745
 21
19.501630321910319
 31
0.0
 12
12.654405643529881
 22
19.41968124182748
 32
0.0
 13
12.654405643529881
 23
19.41968124182748
 33
0.0
  0
SOLID
  5
54F
  8
DIMENSIONS
 10
15.398628223713811
 20
20.946304489888291
 30
0.0
 11
15.438170316342701
 21
20.87295009428059
 31
0.0
 12
15.63846245685138
 22
21.028253569971142
 32
0.0
 13
15.63846245685138
 23
21.028253569971142
 33
0.0
  0
TEXT
  5
551
  8
DIMENSIONS
 10
13.533338812095391
 20
20.098967405899309
 30
0.0
 40
0.25
  1
\U+22053.390
  0
LINE
  5
553
  8
SHOULDER_-_RIGHT
  6
CENTER
 10
14.14643405019063
 20
19.431955255618249
 30
0.0
 11
14.14643405019063
 21
13.14696984154968
 31
0.0
  0
LINE
  5
554
  8
SHOULDER_-_RIGHT
  6
CENTER
 10
14.9384462004717
 20
20.223967405899309
 30
0.0
 11
16.194781802646869
 21
20.223967405899309
 31
0.0
  0
LINE
  5
564
  8
DIMENSIONS
 10
18.15893405019062
 20
9.9544315565539812
 30
0.0
 11
18.15893405019062
 21
10.954431556553979
 31
0.0
  0
LINE
  5
565
  8
DIMENSIONS
 10
10.133934050190639
 20
9.9544315565539812
 30
0.0
 11
10.133934050190639
 21
10.954431556553979
 31
0.0
  0
LINE
  5
566
  8
DIMENSIONS
 10
17.90893405019062
 20
10.891931556553979
 30
0.0
 11
14.73643405019064
 21
10.891931556553979
 31
0.0
  0
LINE
  5
567
  8
DIMENSIONS
 10
10.383934050190639
 20
10.891931556553979
 30
0.0
 11
13.55643405019063
 21
10.891931556553979
 31
0.0
  0
SOLID
  5
568
  8
DIMENSIONS
 10
17.90893405019062
 20
10.933598223220651
 30
0.0
 11
17.90893405019062
 21
10.85026488988731
 31
0.0
 12
18.15893405019062
 22
10.891931556553979
 32
0.0
 13
18.15893405019062
 23
10.891931556553979
 33
0.0
  0
SOLID
  5
569
  8
DIMENSIONS
 10
10.383934050190639
 20
10.933598223220651
 30
0.0
 11
10.383934050190639
 21
10.85026488988731
 31
0.0
 12
10.133934050190639
 22
10.891931556553979
 32
0.0
 13
10.133934050190639
 23
10.891931556553979
 33
0.0
  0
TEXT
  5
56B
  8
DIMENSIONS
 10
13.64643405019063
 20
10.766931556553979
 30
0.0
 40
0.25
  1
8.025
  0
LINE
  5
592
  8
DIMENSIONS
 10
23.752194986271661
 20
24.298967405899312
 30
0.0
 11
23.752194986271661
 21
25.298967405899312
 31
0.0
  0
LINE
  5
593
  8
DIMENSIONS
 10
23.877194986271661
 20
24.236467405899312
 30
0.0
 11
23.877194986271661
 21
25.298967405899312
 31
0.0
  0
LINE
  5
594
  8
DIMENSIONS
 10
23.502194986271661
 20
25.236467405899312
 30
0.0
 11
23.252194986271661
 21
25.236467405899312
 31
0.0
  0
LINE
  5
595
  8
DIMENSIONS
 10
24.127194986271661
 20
25.236467405899312
 30
0.0
 11
24.377194986271661
 21
25.236467405899312
 31
0.0
  0
SOLID
  5
596
  8
DIMENSIONS
 10
23.502194986271661
 20
25.27813407256598
 30
0.0
 11
23.502194986271661
 21
25.19480073923264
 31
0.0
 12
23.752194986271661
 22
25.236467405899312
 32
0.0
 13
23.752194986271661
 23
25.236467405899312
 33
0.0
  0
SOLID
  5
597
  8
DIMENSIONS
 10
24.127194986271661
 20
25.27813407256598
 30
0.0
 11
24.127194986271661
 21
25.19480073923264
 31
0.0
 12
23.877194986271661
 22
25.236467405899312
 32
0.0
 13
23.877194986271661
 23
25.236467405899312
 33
0.0
  0
TEXT
  5
599
  8
DIMENSIONS
 10
24.467194986271661
 20
25.111467405899312
 30
0.0
 40
0.25
  1
0.125
  0
LINE
  5
5B8
  8
DIMENSIONS
 10
22.877194986271661
 20
13.648467405899311
 30
0.0
 11
22.877194986271661
 21
11.648467405899311
 31
0.0
  0
LINE
  5
5B9
  8
DIMENSIONS
 10
23.002194986271661
 20
13.648467405899311
 30
0.0
 11
23.002194986271661
 21
11.648467405899311
 31
0.0
  0
LINE
  5
5BA
  8
DIMENSIONS
 10
22.627194986271661
 20
11.710967405899311
 30
0.0
 11
22.377194986271661
 21
11.710967405899311
 31
0.0
  0
LINE
  5
5BB
  8
DIMENSIONS
 10
23.252194986271661
 20
11.710967405899311
 30
0.0
 11
23.502194986271661
 21
11.710967405899311
 31
0.0
  0
SOLID
  5
5BC
  8
DIMENSIONS
 10
22.627194986271661
 20
11.75263407256597
 30
0.0
 11
22.627194986271661
 21
11.669300739232639
 31
0.0
 12
22.877194986271661
 22
11.710967405899311
 32
0.0
 13
22.877194986271661
 23
11.710967405899311
 33
0.0
  0
SOLID
  5
5BD
  8
DIMENSIONS
 10
23.252194986271661
 20
11.75263407256597
 30
0.0
 11
23.252194986271661
 21
11.669300739232639
 31
0.0
 12
23.002194986271661
 22
11.710967405899311
 32
0.0
 13
23.002194986271661
 23
11.710967405899311
 33
0.0
  0
LINE
  5
5BF
  8
DIMENSIONS
 10
23.502194986271661
 20
13.648467405899311
 30
0.0
 11
23.502194986271661
 21
12.648467405899311
 31
0.0
  0
LINE
  5
5C0
  8
DIMENSIONS
 10
23.627194986271661
 20
13.648467405899311
 30
0.0
 11
23.627194986271661
 21
12.648467405899311
 31
0.0
  0
LINE
  5
5C1
  8
DIMENSIONS
 10
23.252194986271661
 20
12.710967405899311
 30
0.0
 11
23.002194986271661
 21
12.710967405899311
 31
0.0
  0
LINE
  5
5C2
  8
DIMENSIONS
 10
23.877194986271661
 20
12.710967405899311
 30
0.0
 11
24.127194986271661
 21
12.710967405899311
 31
0.0
  0
SOLID
  5
5C3
  8
DIMENSIONS
 10
23.252194986271661
 20
12.75263407256597
 30
0.0
 11
23.252194986271661
 21
12.669300739232639
 31
0.0
 12
23.502194986271661
 22
12.710967405899311
 32
0.0
 13
23.502194986271661
 23
12.710967405899311
 33
0.0
  0
SOLID
  5
5C4
  8
DIMENSIONS
 10
23.877194986271661
 20
12.75263407256597
 30
0.0
 11
23.877194986271661
 21
12.669300739232639
 31
0.0
 12
23.627194986271661
 22
12.710967405899311
 32
0.0
 13
23.627194986271661
 23
12.710967405899311
 33
0.0
  0
TEXT
  5
5C6
  8
DIMENSIONS
 10
24.233157593252969
 20
12.585462346044119
 30
0.0
 40
0.25
  1
0.125 x 0.062 DEEP
  0
TEXT
  5
5C7
  8
DIMENSIONS
 10
24.233157593252969
 20
12.16879567937745
 30
0.0
 40
0.25
  1
TYPICAL 4-PLACES
  0
TEXT
  5
5C8
  8
DIMENSIONS
 10
23.59929836396131
 20
11.585967405899311
 30
0.0
 40
0.25
  1
0.125 TYPICAL
  0
LINE
  5
5D8
  8
DIMENSIONS
 10
10.071434050190639
 20
9.8919315565539812
 30
0.0
 11
9.0714340501906463
 21
9.8919315565539812
 31
0.0
  0
LINE
  5
5D9
  8
DIMENSIONS
 10
10.133934050190639
 20
8.8919315565539812
 30
0.0
 11
9.0714340501906463
 21
8.8919315565539812
 31
0.0
  0
LINE
  5
5DA
  8
DIMENSIONS
 10
9.1339340501906463
 20
10.141931556553979
 30
0.0
 11
9.1339340501906463
 21
10.391931556553979
 31
0.0
  0
LINE
  5
5DB
  8
DIMENSIONS
 10
9.1339340501906463
 20
8.6419315565539812
 30
0.0
 11
9.1339340501906463
 21
8.3919315565539812
 31
0.0
  0
SOLID
  5
5DC
  8
DIMENSIONS
 10
9.0922673835239607
 20
10.141931556553979
 30
0.0
 11
9.1756007168573035
 21
10.141931556553979
 31
0.0
 12
9.1339340501906463
 22
9.8919315565539812
 32
0.0
 13
9.1339340501906463
 23
9.8919315565539812
 33
0.0
  0
SOLID
  5
5DD
  8
DIMENSIONS
 10
9.0922673835239607
 20
8.6419315565539812
 30
0.0
 11
9.1756007168573035
 21
8.6419315565539812
 31
0.0
 12
9.1339340501906463
 22
8.8919315565539812
 32
0.0
 13
9.1339340501906463
 23
8.8919315565539812
 33
0.0
  0
TEXT
  5
5DF
  8
DIMENSIONS
 10
8.6577435740001647
 20
9.2669315565539812
 30
0.0
 40
0.25
  1
1.000
  0
LINE
  5
5E1
  8
SHOULDER_-_RIGHT
 10
5.9378950728111297
 20
24.236467405899312
 30
0.0
 11
5.0628950728111297
 21
24.236467405899312
 31
0.0
  0
LINE
  5
5E2
  8
SHOULDER_-_RIGHT
 10
5.9378950728111297
 20
20.223967405899309
 30
0.0
 11
5.287895072811124
 21
20.223967405899309
 31
0.0
  0
LINE
  5
5E4
  8
SHOULDER_-_RIGHT
 10
5.5628950728111297
 20
13.75806453403073
 30
0.0
 11
5.4378950728111297
 21
13.75806453403073
 31
0.0
  0
LINE
  5
5E5
  8
SHOULDER_-_RIGHT
 10
5.9378950728111297
 20
15.086203547336909
 30
0.0
 11
5.0628950728111297
 21
15.086203547336909
 31
0.0
  0
LINE
  5
5E6
  8
SHOULDER_-_RIGHT
 10
5.9378950728111297
 20
13.710967405899311
 30
0.0
 11
5.9378950728111297
 21
24.236467405899312
 31
0.0
  0
LINE
  5
5E7
  8
SHOULDER_-_RIGHT
 10
5.8128950728111022
 20
13.75806453403073
 30
0.0
 11
5.6878950728111297
 21
13.75806453403073
 31
0.0
  0
LINE
  5
5E8
  8
SHOULDER_-_RIGHT
 10
5.9378950728111297
 20
13.710967405899311
 30
0.0
 11
5.8128950728111297
 21
13.710967405899311
 31
0.0
  0
LINE
  5
5E9
  8
SHOULDER_-_RIGHT
 10
5.8128950728111297
 20
13.710967405899311
 30
0.0
 11
5.8128950728111297
 21
13.75806453403073
 31
0.0
  0
LINE
  5
5EA
  8
SHOULDER_-_RIGHT
 10
5.6878950728111297
 20
13.710967405899311
 30
0.0
 11
5.5628950728111297
 21
13.710967405899311
 31
0.0
  0
LINE
  5
5EB
  8
SHOULDER_-_RIGHT
 10
5.6878950728111297
 20
13.710967405899311
 30
0.0
 11
5.6878950728111297
 21
13.75806453403073
 31
0.0
  0
LINE
  5
5EC
  8
SHOULDER_-_RIGHT
 10
5.5628950728111297
 20
13.710967405899311
 30
0.0
 11
5.5628950728111297
 21
13.75806453403073
 31
0.0
  0
LINE
  5
5ED
  8
SHOULDER_-_RIGHT
 10
5.0628950728111297
 20
13.710967405899311
 30
0.0
 11
5.0628950728111297
 21
24.236467405899312
 31
0.0
  0
LINE
  5
5EE
  8
SHOULDER_-_RIGHT
 10
4.9378950728111297
 20
13.75806453403073
 30
0.0
 11
4.9378950728111297
 21
24.173967405899312
 31
0.0
  0
LINE
  5
5F0
  8
SHOULDER_-_RIGHT
 10
5.1878950728111297
 20
13.710967405899311
 30
0.0
 11
5.0628950728111297
 21
13.710967405899311
 31
0.0
  0
LINE
  5
5F1
  8
SHOULDER_-_RIGHT
 10
5.1878950728111297
 20
13.710967405899311
 30
0.0
 11
5.1878950728111297
 21
13.75806453403073
 31
0.0
  0
LINE
  5
5F2
  8
SHOULDER_-_RIGHT
 10
5.4378950728111297
 20
13.710967405899311
 30
0.0
 11
5.3128950728111297
 21
13.710967405899311
 31
0.0
  0
LINE
  5
5F3
  8
SHOULDER_-_RIGHT
 10
5.4378950728111297
 20
13.710967405899311
 30
0.0
 11
5.4378950728111297
 21
13.75806453403073
 31
0.0
  0
LINE
  5
5F4
  8
SHOULDER_-_RIGHT
 10
5.3128950728111297
 20
13.710967405899311
 30
0.0
 11
5.3128950728111297
 21
13.75806453403073
 31
0.0
  0
LINE
  5
5F5
  8
SHOULDER_-_RIGHT
 10
5.3128950728111022
 20
13.75806453403073
 30
0.0
 11
5.1878950728111297
 21
13.75806453403073
 31
0.0
  0
LINE
  5
5F6
  8
SHOULDER_-_RIGHT
 10
5.0628950728111297
 20
13.75806453403073
 30
0.0
 11
4.9378950728111022
 21
13.75806453403073
 31
0.0
  0
LINE
  5
5F7
  8
SHOULDER_-_RIGHT
 10
4.9378950728111297
 20
15.11736489784025
 30
0.0
 11
5.0628950728111297
 21
15.11736489784025
 31
0.0
  0
LINE
  5
5F8
  8
SHOULDER_-_RIGHT
 10
4.9378950728111297
 20
24.173967405899312
 30
0.0
 11
5.0628950728111297
 21
24.173967405899312
 31
0.0
  0
LINE
  5
5F9
  8
SHOULDER_-_RIGHT
 10
5.9378950728111297
 20
18.973967405899309
 30
0.0
 11
5.3758950728111179
 21
18.973967405899309
 31
0.0
  0
LINE
  5
5FA
  8
SHOULDER_-_RIGHT
 10
5.9378950728111297
 20
18.373967405899311
 30
0.0
 11
5.287895072811124
 21
18.373967405899311
 31
0.0
  0
LINE
  5
5FB
  8
SHOULDER_-_RIGHT
 10
5.9378950728111297
 20
17.123967405899311
 30
0.0
 11
5.287895072811124
 21
17.123967405899311
 31
0.0
  0
LINE
  5
5FC
  8
SHOULDER_-_RIGHT
 10
5.287895072811124
 20
17.123967405899311
 30
0.0
 11
5.287895072811124
 21
18.373967405899311
 31
0.0
  0
LINE
  5
5FF
  8
SHOULDER_-_RIGHT
 10
5.287895072811124
 20
20.223967405899309
 30
0.0
 11
5.3758950728111179
 21
18.973967405899309
 31
0.0
  0
LINE
  5
61E
  8
DIMENSIONS
 10
5.287895072811124
 20
20.286467405899309
 30
0.0
 11
5.287895072811124
 21
21.286467405899309
 31
0.0
  0
LINE
  5
61F
  8
DIMENSIONS
 10
5.9378950728111297
 20
20.286467405899309
 30
0.0
 11
5.9378950728111297
 21
21.286467405899309
 31
0.0
  0
LINE
  5
620
  8
DIMENSIONS
 10
5.037895072811124
 20
21.223967405899309
 30
0.0
 11
4.787895072811124
 21
21.223967405899309
 31
0.0
  0
LINE
  5
621
  8
DIMENSIONS
 10
6.1878950728111297
 20
21.223967405899309
 30
0.0
 11
6.4378950728111297
 21
21.223967405899309
 31
0.0
  0
SOLID
  5
622
  8
DIMENSIONS
 10
5.037895072811124
 20
21.26563407256598
 30
0.0
 11
5.037895072811124
 21
21.182300739232641
 31
0.0
 12
5.287895072811124
 22
21.223967405899309
 32
0.0
 13
5.287895072811124
 23
21.223967405899309
 33
0.0
  0
SOLID
  5
623
  8
DIMENSIONS
 10
6.1878950728111297
 20
21.26563407256598
 30
0.0
 11
6.1878950728111297
 21
21.182300739232641
 31
0.0
 12
5.9378950728111297
 22
21.223967405899309
 32
0.0
 13
5.9378950728111297
 23
21.223967405899309
 33
0.0
  0
TEXT
  5
625
  8
DIMENSIONS
 10
3.6601901725357489
 20
21.098967405899309
 30
0.0
 40
0.25
  1
0.650
  0
LINE
  5
626
  8
DIMENSIONS
 10
5.287895072811124
 20
17.061467405899311
 30
0.0
 11
5.287895072811124
 21
16.061467405899311
 31
0.0
  0
LINE
  5
627
  8
DIMENSIONS
 10
5.9378950728111297
 20
17.061467405899311
 30
0.0
 11
5.9378950728111297
 21
16.061467405899311
 31
0.0
  0
LINE
  5
628
  8
DIMENSIONS
 10
5.037895072811124
 20
16.123967405899311
 30
0.0
 11
4.787895072811124
 21
16.123967405899311
 31
0.0
  0
LINE
  5
629
  8
DIMENSIONS
 10
6.1878950728111297
 20
16.123967405899311
 30
0.0
 11
6.4378950728111297
 21
16.123967405899311
 31
0.0
  0
SOLID
  5
62A
  8
DIMENSIONS
 10
5.037895072811124
 20
16.165634072565979
 30
0.0
 11
5.037895072811124
 21
16.08230073923264
 31
0.0
 12
5.287895072811124
 22
16.123967405899311
 32
0.0
 13
5.287895072811124
 23
16.123967405899311
 33
0.0
  0
SOLID
  5
62B
  8
DIMENSIONS
 10
6.1878950728111297
 20
16.165634072565979
 30
0.0
 11
6.1878950728111297
 21
16.08230073923264
 31
0.0
 12
5.9378950728111297
 22
16.123967405899311
 32
0.0
 13
5.9378950728111297
 23
16.123967405899311
 33
0.0
  0
TEXT
  5
62D
  8
DIMENSIONS
 10
3.7135427083543671
 20
15.998967405899309
 30
0.0
 40
0.25
  1
0.650
  0
LINE
  5
63C
  8
DIMENSIONS
 10
5.3758950728111179
 20
18.911467405899309
 30
0.0
 11
5.3758950728111179
 21
18.619218371294568
 31
0.0
  0
LINE
  5
63D
  8
DIMENSIONS
 10
5.9378950728111297
 20
18.911217405899301
 30
0.0
 11
5.9378950728111297
 21
18.619218371294568
 31
0.0
  0
LINE
  5
63E
  8
DIMENSIONS
 10
5.1258950728111179
 20
18.681718371294568
 30
0.0
 11
4.8758950728111179
 21
18.681718371294568
 31
0.0
  0
LINE
  5
63F
  8
DIMENSIONS
 10
6.1878950728111297
 20
18.681718371294568
 30
0.0
 11
6.4378950728111297
 21
18.681718371294568
 31
0.0
  0
SOLID
  5
640
  8
DIMENSIONS
 10
5.1258950728111179
 20
18.72338503796124
 30
0.0
 11
5.1258950728111179
 21
18.640051704627901
 31
0.0
 12
5.3758950728111179
 22
18.681718371294568
 32
0.0
 13
5.3758950728111179
 23
18.681718371294568
 33
0.0
  0
SOLID
  5
641
  8
DIMENSIONS
 10
6.1878950728111297
 20
18.72338503796124
 30
0.0
 11
6.1878950728111297
 21
18.640051704627901
 31
0.0
 12
5.9378950728111297
 22
18.681718371294568
 32
0.0
 13
5.9378950728111297
 23
18.681718371294568
 33
0.0
  0
TEXT
  5
643
  8
DIMENSIONS
 10
3.7402190902828352
 20
18.556718371294568
 30
0.0
 40
0.25
  1
0.562
  0
LINE
  5
653
  8
DIMENSIONS
 10
23.52719498627167
 20
20.286467405899309
 30
0.0
 11
23.52719498627167
 21
21.286467405899309
 31
0.0
  0
LINE
  5
654
  8
DIMENSIONS
 10
22.877194986271661
 20
20.286467405899309
 30
0.0
 11
22.877194986271661
 21
21.286467405899309
 31
0.0
  0
LINE
  5
655
  8
DIMENSIONS
 10
23.77719498627167
 20
21.223967405899309
 30
0.0
 11
24.02719498627167
 21
21.223967405899309
 31
0.0
  0
LINE
  5
656
  8
DIMENSIONS
 10
22.627194986271661
 20
21.223967405899309
 30
0.0
 11
22.377194986271661
 21
21.223967405899309
 31
0.0
  0
SOLID
  5
657
  8
DIMENSIONS
 10
23.77719498627167
 20
21.26563407256598
 30
0.0
 11
23.77719498627167
 21
21.182300739232641
 31
0.0
 12
23.52719498627167
 22
21.223967405899309
 32
0.0
 13
23.52719498627167
 23
21.223967405899309
 33
0.0
  0
SOLID
  5
658
  8
DIMENSIONS
 10
22.627194986271661
 20
21.26563407256598
 30
0.0
 11
22.627194986271661
 21
21.182300739232641
 31
0.0
 12
22.877194986271661
 22
21.223967405899309
 32
0.0
 13
22.877194986271661
 23
21.223967405899309
 33
0.0
  0
TEXT
  5
65A
  8
DIMENSIONS
 10
21.287194986271661
 20
21.098967405899309
 30
0.0
 40
0.25
  1
0.650
  0
LINE
  5
65C
  8
SHOULDER_-_RIGHT
 10
5.9378950728111297
 20
20.51584776953225
 30
0.0
 11
5.636311686216458
 21
20.356778403402458
 31
0.0
  0
LINE
  5
65D
  8
SHOULDER_-_RIGHT
 10
5.636311686216458
 20
20.356778403402458
 30
0.0
 11
5.317789433179029
 21
20.476080440783601
 31
0.0
  0
LINE
  5
65E
  8
SHOULDER_-_RIGHT
 10
5.317789433179029
 20
20.476080440783601
 30
0.0
 11
5.1386206159620818
 21
20.20765089502742
 31
0.0
  0
LINE
  5
65F
  8
SHOULDER_-_RIGHT
 10
5.1386206159620818
 20
20.20765089502742
 30
0.0
 11
5.2481126582592017
 21
19.690675467889399
 31
0.0
  0
LINE
  5
660
  8
SHOULDER_-_RIGHT
 10
5.2481126582592017
 20
19.690675467889399
 30
0.0
 11
5.1585282496507139
 21
19.521664295140042
 31
0.0
  0
LINE
  5
661
  8
SHOULDER_-_RIGHT
 10
5.1585282496507139
 20
19.521664295140042
 30
0.0
 11
5.2680202919478338
 21
19.253234749383861
 31
0.0
  0
LINE
  5
662
  8
SHOULDER_-_RIGHT
 10
5.2680202919478338
 20
19.253234749383861
 30
0.0
 11
5.1684821235046172
 21
19.014630725756771
 31
0.0
  0
LINE
  5
663
  8
SHOULDER_-_RIGHT
 10
5.1684821235046172
 20
19.014630725756771
 30
0.0
 11
5.3775123342449538
 21
18.795910315368811
 31
0.0
  0
LINE
  5
664
  8
SHOULDER_-_RIGHT
 10
5.3775123342449538
 20
18.795910315368811
 30
0.0
 11
5.1784358833393753
 21
18.567248149496479
 31
0.0
  0
LINE
  5
665
  8
SHOULDER_-_RIGHT
 10
5.1784358833393753
 20
18.567248149496479
 30
0.0
 11
5.1883897571932769
 21
18.348527739108519
 31
0.0
  0
LINE
  5
666
  8
SHOULDER_-_RIGHT
 10
5.1883897571932769
 20
18.348527739108519
 30
0.0
 11
5.0788977148961569
 21
18.199400230733492
 31
0.0
  0
LINE
  5
667
  8
SHOULDER_-_RIGHT
 10
5.0788977148961569
 20
18.199400230733492
 30
0.0
 11
5.2182512647358124
 21
17.901145162848231
 31
0.0
  0
LINE
  5
668
  8
SHOULDER_-_RIGHT
 10
5.2182512647358124
 20
17.901145162848231
 30
0.0
 11
5.1187129822734496
 21
17.652599332601572
 31
0.0
  0
LINE
  5
669
  8
SHOULDER_-_RIGHT
 10
5.1187129822734496
 20
17.652599332601572
 30
0.0
 11
5.208297390881909
 21
17.503471773091348
 31
0.0
  0
LINE
  5
66A
  8
SHOULDER_-_RIGHT
 10
5.208297390881909
 20
17.503471773091348
 30
0.0
 11
5.1187129822734496
 21
17.175391234212199
 31
0.0
  0
LINE
  5
66B
  8
SHOULDER_-_RIGHT
 10
5.1187129822734496
 20
17.175391234212199
 30
0.0
 11
5.238158898424472
 21
16.77771784445531
 31
0.0
  0
LINE
  5
66C
  8
SHOULDER_-_RIGHT
 10
5.238158898424472
 20
16.77771784445531
 30
0.0
 11
5.4471891091647811
 21
16.887078024081699
 31
0.0
  0
LINE
  5
66D
  8
SHOULDER_-_RIGHT
 10
5.4471891091647811
 20
16.887078024081699
 30
0.0
 11
5.6462655600703613
 21
16.708124993577581
 31
0.0
  0
LINE
  5
66E
  8
SHOULDER_-_RIGHT
 10
5.6462655600703613
 20
16.708124993577581
 30
0.0
 11
5.8353881371220382
 21
16.887078024081699
 31
0.0
  0
LINE
  5
66F
  8
SHOULDER_-_RIGHT
 10
5.8353881371220382
 20
16.887078024081699
 30
0.0
 11
5.9378950728111297
 21
16.807543315449209
 31
0.0
  0
LINE
  5
6AC
  8
SHOULDER_-_RIGHT
 10
5.1667180177393837
 20
20.074986767292181
 30
0.0
 11
5.2897237090974443
 21
20.19799245865023
 31
0.0
  0
LINE
  5
6AD
  8
SHOULDER_-_RIGHT
 10
5.31569865634654
 20
20.223967405899309
 30
0.0
 11
5.4996835278808751
 21
20.407952277433651
 31
0.0
  0
LINE
  5
6AE
  8
SHOULDER_-_RIGHT
 10
5.2130627419499262
 20
19.856166448557762
 30
0.0
 11
5.307163562445111
 21
19.950267269052929
 31
0.0
  0
LINE
  5
6AF
  8
SHOULDER_-_RIGHT
 10
5.5808636992914842
 20
20.223967405899309
 30
0.0
 11
5.8000246924962653
 21
20.443128399104079
 31
0.0
  0
LINE
  5
6B0
  8
SHOULDER_-_RIGHT
 10
5.1752239291144226
 20
19.55316259277728
 30
0.0
 11
5.3246034157927511
 21
19.702542079455618
 31
0.0
  0
LINE
  5
6B1
  8
SHOULDER_-_RIGHT
 10
5.8460287422364274
 20
20.223967405899309
 30
0.0
 11
5.9378950728111022
 21
20.315833736473991
 31
0.0
  0
LINE
  5
6B2
  8
SHOULDER_-_RIGHT
 10
5.2310636487103181
 20
19.343837269428221
 30
0.0
 11
5.3420432691403903
 21
19.454816889858321
 31
0.0
  0
LINE
  5
6B3
  8
SHOULDER_-_RIGHT
 10
5.1695271196981301
 20
19.01713569747109
 30
0.0
 11
5.359483122488057
 21
19.20709170026101
 31
0.0
  0
LINE
  5
6B4
  8
SHOULDER_-_RIGHT
 10
5.29734768931388
 20
18.87979122414189
 30
0.0
 11
5.391523871071314
 21
18.973967405899309
 31
0.0
  0
LINE
  5
6B5
  8
SHOULDER_-_RIGHT
 10
5.1815496491385309
 20
18.498828141021569
 30
0.0
 11
5.6566889140162573
 21
18.973967405899309
 31
0.0
  0
LINE
  5
6B6
  8
SHOULDER_-_RIGHT
 10
5.1006757577788164
 20
18.1527892067169
 30
0.0
 11
5.287895072811124
 21
18.340008521749208
 31
0.0
  0
LINE
  5
6B7
  8
SHOULDER_-_RIGHT
 10
5.3218539569612062
 20
18.373967405899311
 30
0.0
 11
5.9218539569612281
 21
18.973967405899309
 31
0.0
  0
LINE
  5
6B8
  8
SHOULDER_-_RIGHT
 10
5.1851157997045609
 20
17.972064205697709
 30
0.0
 11
5.287895072811124
 21
18.074843478804251
 31
0.0
  0
LINE
  5
6B9
  8
SHOULDER_-_RIGHT
 10
5.587018999906177
 20
18.373967405899311
 30
0.0
 11
5.9378950728111297
 21
18.72484347880426
 31
0.0
  0
LINE
  5
6BA
  8
SHOULDER_-_RIGHT
 10
5.1232550208080729
 20
17.645038383856239
 30
0.0
 11
5.287895072811124
 21
17.809678435859301
 31
0.0
  0
LINE
  5
6BB
  8
SHOULDER_-_RIGHT
 10
5.8521840428511211
 20
18.373967405899311
 30
0.0
 11
5.9378950728111297
 21
18.459678435859299
 31
0.0
  0
LINE
  5
6BC
  8
SHOULDER_-_RIGHT
 10
5.1938148832699929
 20
17.45043320337323
 30
0.0
 11
5.287895072811124
 21
17.54451339291434
 31
0.0
  0
LINE
  5
6BD
  8
SHOULDER_-_RIGHT
 10
5.1337788612293593
 20
17.125232138387641
 30
0.0
 11
5.287895072811124
 21
17.279348349969389
 31
0.0
  0
LINE
  5
6BE
  8
SHOULDER_-_RIGHT
 10
5.1950275539854536
 20
16.921315788198761
 30
0.0
 11
5.3976791716859793
 21
17.123967405899311
 31
0.0
  0
LINE
  5
6BF
  8
SHOULDER_-_RIGHT
 10
5.4026561115219351
 20
16.863779302790292
 30
0.0
 11
5.662844214630951
 21
17.123967405899311
 31
0.0
  0
LINE
  5
6C0
  8
SHOULDER_-_RIGHT
 10
5.5756470037687498
 20
16.771605152092139
 30
0.0
 11
5.9280092575758943
 21
17.123967405899311
 31
0.0
  0
LINE
  5
6C1
  8
SHOULDER_-_RIGHT
 10
5.9034646404998616
 20
16.834257745878311
 30
0.0
 11
5.9378950728111022
 21
16.868688178189569
 31
0.0
  0
LINE
  5
6C2
  8
SHOULDER_-_RIGHT
 10
22.877194986271661
 20
20.544473046396011
 30
0.0
 11
23.414162911932468
 21
20.449826763066071
 31
0.0
  0
LINE
  5
6C3
  8
SHOULDER_-_RIGHT
 10
23.414162911932468
 20
20.449826763066071
 30
0.0
 11
23.572096912280269
 21
20.544473046396011
 31
0.0
  0
LINE
  5
6C4
  8
SHOULDER_-_RIGHT
 10
23.572096912280269
 20
20.544473046396011
 30
0.0
 11
23.63527048961555
 21
20.30785736363875
 31
0.0
  0
LINE
  5
6C5
  8
SHOULDER_-_RIGHT
 10
23.63527048961555
 20
20.30785736363875
 30
0.0
 11
23.603683757957501
 21
19.91349794351186
 31
0.0
  0
LINE
  5
6C6
  8
SHOULDER_-_RIGHT
 10
23.603683757957501
 20
19.91349794351186
 30
0.0
 11
23.682650701121791
 21
19.787302882026871
 31
0.0
  0
LINE
  5
6C7
  8
SHOULDER_-_RIGHT
 10
23.682650701121791
 20
19.787302882026871
 30
0.0
 11
23.587890278109281
 21
19.45604096707487
 31
0.0
  0
LINE
  5
6C8
  8
SHOULDER_-_RIGHT
 10
23.587890278109281
 20
19.45604096707487
 30
0.0
 11
23.666857335292779
 21
19.282522789492511
 31
0.0
  0
LINE
  5
6C9
  8
SHOULDER_-_RIGHT
 10
23.666857335292779
 20
19.282522789492511
 30
0.0
 11
23.587890278109281
 21
18.888163318230418
 31
0.0
  0
LINE
  5
6CA
  8
SHOULDER_-_RIGHT
 10
23.587890278109281
 20
18.888163318230418
 30
0.0
 11
23.666857335292779
 21
18.667322024550678
 31
0.0
  0
LINE
  5
6CB
  8
SHOULDER_-_RIGHT
 10
23.666857335292779
 20
18.667322024550678
 30
0.0
 11
23.208848814097621
 21
18.33606010959868
 31
0.0
  0
LINE
  5
6CC
  8
SHOULDER_-_RIGHT
 10
23.208848814097621
 20
18.33606010959868
 30
0.0
 11
23.177261968420389
 21
17.705085006714519
 31
0.0
  0
LINE
  5
6CD
  8
SHOULDER_-_RIGHT
 10
23.177261968420389
 20
17.705085006714519
 30
0.0
 11
22.877194986271661
 21
17.548716833465988
 31
0.0
  0
LINE
  5
6CE
  8
SHOULDER_-_RIGHT
 10
23.52719498627167
 20
18.566309019240869
 30
0.0
 11
23.52719498627167
 21
20.223967405899309
 31
0.0
  0
LINE
  5
6DE
  8
SHOULDER_-_RIGHT
 10
22.877194986271661
 20
20.543795626033241
 30
0.0
 11
22.877770896379161
 21
20.54437153614073
 31
0.0
  0
LINE
  5
6DF
  8
SHOULDER_-_RIGHT
 10
22.877194986271661
 20
20.27863058308829
 30
0.0
 11
23.103201421913749
 21
20.504637018730389
 31
0.0
  0
LINE
  5
6E0
  8
SHOULDER_-_RIGHT
 10
23.087696852027651
 20
20.223967405899309
 30
0.0
 11
23.328631947448368
 21
20.464902501320051
 31
0.0
  0
LINE
  5
6E1
  8
SHOULDER_-_RIGHT
 10
23.352861894972591
 20
20.223967405899309
 30
0.0
 11
23.593437328357371
 21
20.464542839284089
 31
0.0
  0
LINE
  5
6E2
  8
SHOULDER_-_RIGHT
 10
23.52719498627167
 20
20.133135454253431
 30
0.0
 11
23.62946756615818
 21
20.235408034139951
 31
0.0
  0
LINE
  5
6E3
  8
SHOULDER_-_RIGHT
 10
23.52719498627167
 20
19.86797041130847
 30
0.0
 11
23.60637956278077
 21
19.94715498781758
 31
0.0
  0
LINE
  5
6E4
  8
SHOULDER_-_RIGHT
 10
23.52719498627167
 20
19.602805368363509
 30
0.0
 11
23.671014355329561
 21
19.746624737421421
 31
0.0
  0
LINE
  5
6E5
  8
SHOULDER_-_RIGHT
 10
23.52719498627167
 20
19.337640325418558
 30
0.0
 11
23.605938151931099
 21
19.41638349107799
 31
0.0
  0
LINE
  5
6E6
  8
SHOULDER_-_RIGHT
 10
23.52719498627167
 20
19.072475282473601
 30
0.0
 11
23.649234499268889
 21
19.194514795470841
 31
0.0
  0
LINE
  5
6E7
  8
SHOULDER_-_RIGHT
 10
23.52719498627167
 20
18.80731023952865
 30
0.0
 11
23.593199673606168
 21
18.873314926863131
 31
0.0
  0
LINE
  5
6E8
  8
SHOULDER_-_RIGHT
 10
23.614512801001979
 20
18.629463011314009
 30
0.0
 11
23.663041968021901
 21
18.677992178333941
 31
0.0
  0
ARC
  5
752
  8
SHOULDER_-_RIGHT
 10
11.52143405019063
 20
20.098967405899309
 30
0.0
 40
0.125
 50
0.0
 51
90.0
  0
ARC
  5
755
  8
SHOULDER_-_RIGHT
 10
11.52143405019063
 20
19.098967405899309
 30
0.0
 40
0.125
 50
270.0
 51
0.0
  0
ARC
  5
756
  8
SHOULDER_-_RIGHT
 10
10.52143405019063
 20
20.098967405899309
 30
0.0
 40
0.125
 50
90.000000000000071
 51
180.0
  0
ARC
  5
757
  8
SHOULDER_-_RIGHT
 10
10.52143405019063
 20
19.098967405899309
 30
0.0
 40
0.125
 50
179.99999999999989
 51
270.00000000000011
  0
ARC
  5
758
  8
SHOULDER_-_RIGHT
 10
10.52143405019063
 20
18.248967405899311
 30
0.0
 40
0.125
 50
89.999999999999915
 51
180.0
  0
ARC
  5
759
  8
SHOULDER_-_RIGHT
 10
11.52143405019063
 20
18.248967405899311
 30
0.0
 40
0.125
 50
0.0
 51
89.999999999999915
  0
ARC
  5
75A
  8
SHOULDER_-_RIGHT
 10
11.52143405019063
 20
17.248967405899311
 30
0.0
 40
0.125
 50
270.0
 51
359.99999999999989
  0
ARC
  5
75B
  8
SHOULDER_-_RIGHT
 10
10.52143405019063
 20
17.248967405899311
 30
0.0
 40
0.125
 50
180.0
 51
270.0
  0
ARC
  5
75C
  8
SHOULDER_-_RIGHT
 10
16.859434050190629
 20
20.098967405899309
 30
0.0
 40
0.125
 50
90.000000000000071
 51
180.0
  0
ARC
  5
75D
  8
SHOULDER_-_RIGHT
 10
17.684434050190639
 20
20.098967405899309
 30
0.0
 40
0.125
 50
0.0
 51
90.000000000000099
  0
ARC
  5
75E
  8
SHOULDER_-_RIGHT
 10
17.684434050190639
 20
15.41096740589931
 30
0.0
 40
0.125
 50
270.00000000000011
 51
0.0
  0
ARC
  5
75F
  8
SHOULDER_-_RIGHT
 10
16.859434050190629
 20
15.41096740589931
 30
0.0
 40
0.125
 50
180.0
 51
270.0
  0
LINE
  5
76B
  8
DIMENSIONS
 10
12.54736917365949
 20
17.05068432701411
 30
0.0
 11
12.29736917365949
 21
17.05068432701411
 31
0.0
  0
LINE
  5
76C
  8
DIMENSIONS
 10
12.29736917365949
 20
17.05068432701411
 30
0.0
 11
10.625052933778329
 21
18.17905226473491
 31
0.0
  0
SOLID
  5
76E
  8
DIMENSIONS
 10
10.64835798083314
 20
18.213591892597481
 30
0.0
 11
10.60174788672353
 21
18.144512636872339
 31
0.0
 12
10.4178151666029
 22
18.318882547063691
 32
0.0
 13
10.4178151666029
 23
18.318882547063691
 33
0.0
  0
TEXT
  5
76F
  8
DIMENSIONS
 10
12.63736917365946
 20
16.92568432701411
 30
0.0
 40
0.25
  1
R0.125
  0
TEXT
  5
7AD
  8
0
  6
CONTINUOUS
 10
70.591014146110027
 20
13.831730510263871
 30
0.0
 40
0.12
  1
 
 51
7.0
  0
TEXT
  5
7AE
  8
0
  6
CONTINUOUS
 10
83.035110911589925
 20
20.894604939995531
 30
0.0
 40
0.24
  1
 
 51
7.0
  0
TEXT
  5
7AF
  8
0
  6
CONTINUOUS
 10
92.244875923503187
 20
20.57459495341844
 30
0.0
 40
0.24
  1
 
 51
7.0
  0
TEXT
  5
7B0
  8
0
  6
CONTINUOUS
 10
102.0488354079359
 20
3.712014153891118
 30
0.0
 40
0.24
  1
 
 51
7.0
  0
TEXT
  5
B5E
  8
0
  6
CONTINUOUS
 10
110.68281304622271
 20
18.99663554923038
 30
0.0
 40
0.12
  1
 
 51
7.0
  0
TEXT
  5
B5F
  8
0
  6
CONTINUOUS
 10
123.1269098117026
 20
26.05950997896203
 30
0.0
 40
0.24
  1
 
 51
7.0
  0
TEXT
  5
B60
  8
0
  6
CONTINUOUS
 10
132.33667482361579
 20
25.73949999238495
 30
0.0
 40
0.24
  1
 
 51
7.0
  0
TEXT
  5
B61
  8
0
  6
CONTINUOUS
 10
142.1406343080485
 20
8.8769191928576276
 30
0.0
 40
0.24
  1
 
 51
7.0
  0
LINE
  5
B78
  8
FORM
 10
43.041208788750033
 20
1.2738095237500171
 30
0.0
 11
43.041208788750033
 21
30.47619047625
 31
0.0
  0
LINE
  5
B79
  8
FORM
 10
42.726190473750037
 20
30.79120879125
 30
0.0
 11
1.2738095237500311
 21
30.79120879125
 31
0.0
  0
LINE
  5
B7A
  8
FORM
 10
42.726190473750037
 20
0.9587912087500357
 30
0.0
 11
1.2738095237500311
 21
0.9587912087500178
 31
0.0
  0
LINE
  5
B7B
  8
FORM
 10
0.9587912087500569
 20
1.2738095237500171
 30
0.0
 11
0.9587912087500569
 21
30.47619047625
 31
0.0
  0
TEXT
  5
B7C
  8
FORM
 10
37.524584384054727
 20
5.206275420631246
 30
0.0
 40
0.5334392170019531
  1
RIGHT
 72
     1
 11
38.616864685534921
 21
5.206275420631246
 31
0.0
  0
TEXT
  5
B7D
  8
FORM
 10
36.622818088646667
 20
4.0776460783213357
 30
0.0
 40
0.5334392170019531
  1
SHOULDER
 72
     1
 11
38.616864685534921
 21
4.0776460783213357
 31
0.0
  0
TEXT
  5
B7E
  8
FORM
 10
33.49885480611826
 20
2.0268467705730191
 30
0.0
 40
0.5334392170019531
  1
ASTROMECH DROID
  0
TEXT
  5
B7F
  8
FORM
 10
41.921886517477049
 20
2.0475849221067111
 30
0.0
 40
0.5334392170019531
  1
A
  0
TEXT
  5
B80
  8
FORM
 10
34.544847194814992
 20
1.4041843246072041
 30
0.0
 40
0.2133756868007812
  1
FULL
  0
TEXT
  5
B81
  8
FORM
 10
41.38147923468091
 20
1.4101568300009391
 30
0.0
 40
0.2133756868007812
  1
1   1
  0
TEXT
  5
B82
  8
FORM
 10
37.847479070745841
 20
1.4266399292710359
 30
0.0
 40
0.2133756868007812
  1
APRIL 2005
 72
     2
 11
39.696735023019272
 21
1.4266399292710359
 31
0.0
  0
TEXT
  5
B83
  8
FORM
  6
CONTINUOUS
 10
36.314742892209921
 20
1.4244931442114459
 30
0.0
 40
0.184356593395875
  1
DRAWN:
  0
TEXT
  5
B84
  8
FORM
  6
CONTINUOUS
 10
33.461092438516573
 20
1.424666026206864
 30
0.0
 40
0.184356593395875
  1
SCALE:
  0
TEXT
  5
B85
  8
FORM
  6
CONTINUOUS
 10
40.203435321383573
 20
1.422355711558928
 30
0.0
 40
0.184356593395875
  1
SHEET:   OF
  0
TEXT
  5
B86
  8
FORM
  6
CONTINUOUS
 10
33.124433620069567
 20
2.8869297159639369
 30
0.0
 40
0.184356593395875
  1
DRAWING NO.
  0
TEXT
  5
B87
  8
FORM
  6
CONTINUOUS
 10
41.850448103669237
 20
2.886929715963916
 30
0.0
 40
0.184356593395875
  1
REV.
 72
     1
 11
42.12259355106314
 21
2.886929715963916
 31
0.0
  0
LINE
  5
B88
  8
FORM
  6
CONTINUOUS
 10
33.416182507258391
 20
6.6201507322303881
 30
0.0
 11
42.265298990260362
 21
6.6201507322303881
 31
0.0
  0
LINE
  5
B89
  8
FORM
  6
CONTINUOUS
 10
32.955291023768702
 20
1.7347010072396991
 30
0.0
 11
32.955291023768673
 21
6.1592592487406881
 31
0.0
  0
LINE
  5
B8A
  8
FORM
  6
CONTINUOUS
 10
32.955291023768702
 20
3.1634646060577292
 30
0.0
 11
42.726190473750037
 21
3.1634646060577292
 31
0.0
  0
LINE
  5
B8B
  8
FORM
  6
CONTINUOUS
 10
32.955291023768702
 20
1.7347010072396991
 30
0.0
 11
42.726190473750037
 21
1.7347010072396991
 31
0.0
  0
LINE
  5
B8C
  8
FORM
  6
CONTINUOUS
 10
36.026467742539118
 20
1.7347010072396991
 30
0.0
 11
36.026467742539118
 21
1.2738095237500171
 31
0.0
  0
LINE
  5
B8D
  8
FORM
  6
CONTINUOUS
 10
40.065167876336659
 20
1.729027325745029
 30
0.0
 11
40.065167876336659
 21
1.2681358422553499
 31
0.0
  0
LINE
  5
B8E
  8
FORM
  6
CONTINUOUS
 10
41.508364231032488
 20
3.1634646060577292
 30
0.0
 11
41.508364231032488
 21
1.7347010072396991
 31
0.0
  0
ARC
  5
B8F
  8
FORM
 62
     5
 10
33.87147454402632
 20
5.2321095419160519
 30
0.0
 40
0.0502653185952511
 50
152.18113099770551
 51
330.9909881499326
  0
ARC
  5
B90
  8
FORM
 62
     5
 10
34.089053834359703
 20
5.6511194128146256
 30
0.0
 40
0.0440746975210158
 50
335.32315363464221
 51
152.67224926330371
  0
ARC
  5
B91
  8
FORM
 62
     5
 10
37.446185313816841
 20
3.5831642172472651
 30
0.0
 40
3.9868910433295368
 50
148.41494327216151
 51
155.19852313243231
  0
ARC
  5
B92
  8
FORM
 62
     5
 10
38.217878471693133
 20
3.3107972970714812
 30
0.0
 40
4.7020631235383759
 50
150.40875710206339
 51
156.20744757951141
  0
ARC
  5
B93
  8
FORM
 62
     7
 10
33.729336717812117
 20
4.809826363179055
 30
0.0
 40
0.0671652552709891
 50
161.128725237971
 51
346.89295927401372
  0
ARC
  5
B94
  8
FORM
 62
     7
 10
53.367628910278228
 20
-3.6725418745125959
 30
0.0
 40
21.325803943529628
 50
153.58307292081309
 51
156.60691138966209
  0
ARC
  5
B95
  8
FORM
 62
     7
 10
50.287568040148528
 20
-2.5644941525072609
 30
0.0
 40
18.16984879940825
 50
152.3409599977594
 51
152.9694116127464
  0
ARC
  5
B96
  8
FORM
 62
     7
 10
50.4912451127324
 20
-3.156319562177472
 30
0.0
 40
18.62531302696754
 50
153.3711283527573
 51
154.6040219565534
  0
ARC
  5
B97
  8
FORM
 62
     7
 10
34.698291427850847
 20
5.5948289454909697
 30
0.0
 40
0.4829018868449606
 50
23.46872592819097
 51
88.151617587883351
  0
ARC
  5
B98
  8
FORM
 62
     7
 10
34.709083940719118
 20
5.6259614939592311
 30
0.0
 40
0.5699591598814008
 50
18.23262529566551
 51
154.63608874642691
  0
ARC
  5
B99
  8
FORM
 62
     7
 10
34.879850029644359
 20
5.6853693813860771
 30
0.0
 40
0.3891907917568549
 50
336.99722732837893
 51
341.11190659806488
  0
ARC
  5
B9A
  8
FORM
 62
     7
 10
34.902997868184677
 20
5.7025814422175776
 30
0.0
 40
0.254907880192607
 50
333.24704424527522
 51
339.12675173356172
  0
ARC
  5
B9B
  8
FORM
 62
     7
 10
35.144104528932502
 20
5.5822157374328816
 30
0.0
 40
0.0146095491322771
 50
157.3747590211585
 51
243.18317341424029
  0
ARC
  5
B9C
  8
FORM
 62
     7
 10
35.230394320055893
 20
5.5355566237182643
 30
0.0
 40
0.0080289822227516
 50
246.7423667985764
 51
343.55073793579641
  0
ARC
  5
B9D
  8
FORM
 62
     7
 10
35.483045306224852
 20
6.206619545503723
 30
0.0
 40
0.7250687320987334
 50
241.5396617947477
 51
249.33988332022491
  0
ARC
  5
B9E
  8
FORM
 62
     7
 10
34.9761916897763
 20
5.437699301377072
 30
0.0
 40
0.1431349662916394
 50
210.28645373052609
 51
287.25915125833183
  0
ARC
  5
B9F
  8
FORM
 62
     7
 10
34.988490180963971
 20
5.3758026207478622
 30
0.0
 40
0.0806485752183996
 50
291.96730232828992
 51
10.201088362233779
  0
ARC
  5
BA0
  8
FORM
 62
     7
 10
34.351109148169911
 20
5.2378626299468207
 30
0.0
 40
0.5174748205137182
 50
14.28109924276111
 51
24.94726153987823
  0
ARC
  5
BA1
  8
FORM
 62
     7
 10
34.652931196600349
 20
5.3946009655135461
 30
0.0
 40
0.1783202582618736
 50
20.183063788867479
 51
47.833846572520187
  0
ARC
  5
BA2
  8
FORM
 62
     7
 10
34.68626748438794
 20
5.3042778782011162
 30
0.0
 40
0.2386691757260289
 50
68.784960310907422
 51
94.742087985452599
  0
ARC
  5
BA3
  8
FORM
 62
     7
 10
34.683670685861422
 20
5.4453282315651172
 30
0.0
 40
0.0983065334463515
 50
100.0375073429591
 51
170.98475346238999
  0
ARC
  5
BA4
  8
FORM
 62
     7
 10
35.146068355737611
 20
5.3773748188028661
 30
0.0
 40
0.5656654008735983
 50
171.52589863719891
 51
197.494741096675
  0
ARC
  5
BA5
  8
FORM
 62
     7
 10
34.765023896344701
 20
5.3853778011441547
 30
0.0
 40
0.3028765796636133
 50
0.8906501289532304
 51
49.113860192417171
  0
ARC
  5
BA6
  8
FORM
 62
     7
 10
34.70121788145687
 20
5.440931581139246
 30
0.0
 40
0.2383845564631639
 50
99.869748807366761
 51
175.59516845025641
  0
ARC
  5
BA7
  8
FORM
 62
     7
 10
34.74420142096708
 20
5.3116713199521888
 30
0.0
 40
0.373645463646239
 50
54.104282451028169
 51
102.9674010870567
  0
ARC
  5
BA8
  8
FORM
 62
     7
 10
35.798737905561808
 20
5.5339824388112886
 30
0.0
 40
1.236112335596137
 50
195.32307896217739
 51
209.2908431569582
  0
ARC
  5
BA9
  8
FORM
 62
     7
 10
35.409798509503133
 20
5.3313058202242232
 30
0.0
 40
0.9548702630443076
 50
172.3003020759547
 51
200.12627387409299
  0
ARC
  5
BAA
  8
FORM
 62
     7
 10
36.092512265563222
 20
5.5978118396088368
 30
0.0
 40
1.6876668147324001
 50
200.64629086238159
 51
210.04649609044401
  0
ARC
  5
BAB
  8
FORM
 62
     7
 10
33.767672563649661
 20
4.2896718057212553
 30
0.0
 40
1.147702755465478
 50
28.431949107384199
 51
33.865461133002697
  0
ARC
  5
BAC
  8
FORM
 62
     7
 10
34.710340361681631
 20
4.7838977609262834
 30
0.0
 40
0.0846287925897855
 50
201.5644604264042
 51
38.094090168146558
  0
ARC
  5
BAD
  8
FORM
 62
     5
 10
35.454047505527257
 20
5.486987961477829
 30
0.0
 40
0.0470753373534298
 50
227.6202696593605
 51
57.412112921204063
  0
ARC
  5
BAE
  8
FORM
 62
     5
 10
34.898862200054367
 20
4.7627373277749214
 30
0.0
 40
0.9594749055071699
 50
52.766851639305898
 51
65.063571515457895
  0
ARC
  5
BAF
  8
FORM
 62
     5
 10
34.452241791275902
 20
4.0702703323560518
 30
0.0
 40
1.6884350682882729
 50
54.932512589538803
 51
74.152868438598929
  0
ARC
  5
BB0
  8
FORM
 62
     5
 10
34.476586052909433
 20
3.568319054466826
 30
0.0
 40
2.1706024175541438
 50
78.393012355262385
 51
89.647961077025343
  0
ARC
  5
BB1
  8
FORM
 62
     5
 10
34.486274868053272
 20
5.8018806593051897
 30
0.0
 40
0.0631056771236446
 50
183.9979944211656
 51
273.313807745882
  0
ARC
  5
BB2
  8
FORM
 62
     5
 10
34.69925842788092
 20
5.818551646751942
 30
0.0
 40
0.2767389970018709
 50
145.60859166919269
 51
184.36670732083471
  0
ARC
  5
BB3
  8
FORM
 62
     5
 10
34.528989583128613
 20
5.938129286098885
 30
0.0
 40
0.0687363070342985
 50
75.244714174009715
 51
147.6929850116162
  0
ARC
  5
BB4
  8
FORM
 62
     5
 10
33.709635982728827
 20
2.7936800480859851
 30
0.0
 40
3.3181823868519218
 50
61.637242241525243
 51
75.392005557716686
  0
ARC
  5
BB5
  8
FORM
 62
     5
 10
35.223247228975197
 20
5.6577302519658508
 30
0.0
 40
0.0839396329354631
 50
342.69825742684031
 51
41.67278378767756
  0
ARC
  5
BB6
  8
FORM
 62
     7
 10
34.879850029644359
 20
5.6853693813860771
 30
0.0
 40
0.3891907917568549
 50
5.6380312699922861
 51
17.79145636873681
  0
ARC
  5
BB7
  8
FORM
 62
     7
 10
35.056960777687777
 20
3.851378580987717
 30
0.0
 40
0.12453779538235
 50
88.432533024773406
 51
186.62631613112151
  0
ARC
  5
BB8
  8
FORM
 62
     7
 10
35.076506660735483
 20
3.8773458445585289
 30
0.0
 40
0.1488228018527408
 50
195.7266305128272
 51
285.3806868435185
  0
ARC
  5
BB9
  8
FORM
 62
     7
 10
34.901004024005353
 20
5.1943718606735914
 30
0.0
 40
1.4762551210247881
 50
278.37329371359471
 51
293.15208507016871
  0
ARC
  5
BBA
  8
FORM
 62
     7
 10
35.396287821393123
 20
4.2652099364179641
 30
0.0
 40
0.3044715687368376
 50
257.51805604168283
 51
277.23103351305667
  0
ARC
  5
BBB
  8
FORM
 62
     7
 10
35.413358675393567
 20
4.0150829003075179
 30
0.0
 40
0.0561042920902449
 50
292.26031345923337
 51
12.86737930052381
  0
ARC
  5
BBC
  8
FORM
 62
     7
 10
35.371642472469631
 20
4.0070394983254651
 30
0.0
 40
0.0985747940549809
 50
12.025375527395459
 51
52.143631645159317
  0
ARC
  5
BBD
  8
FORM
 62
     7
 10
37.473498217784197
 20
6.5612572579000981
 30
0.0
 40
3.209307639712156
 50
219.60277928185971
 51
230.5002020408055
  0
ARC
  5
BBE
  8
FORM
 62
     7
 10
35.492352051740113
 20
4.9001252642901667
 30
0.0
 40
0.6241927637443375
 50
175.97523115435061
 51
218.04500009534141
  0
ARC
  5
BBF
  8
FORM
 62
     7
 10
35.227786425660071
 20
4.9628053673500361
 30
0.0
 40
0.3585845725200827
 50
149.96078860476399
 51
183.01641230856191
  0
ARC
  5
BC0
  8
FORM
 62
     7
 10
34.977287653388522
 20
5.1103132875677204
 30
0.0
 40
0.0679295281984907
 50
69.764209445538683
 51
151.89881904551129
  0
ARC
  5
BC1
  8
FORM
 62
     7
 10
34.969273382641433
 20
5.1056960066620496
 30
0.0
 40
0.0752672049169095
 50
357.6694469744499
 51
65.251102439515435
  0
ARC
  5
BC2
  8
FORM
 62
     7
 10
34.791927087049523
 20
5.0911418605530789
 30
0.0
 40
0.2528126373579358
 50
345.36193237678458
 51
2.6056939300727819
  0
ARC
  5
BC3
  8
FORM
 62
     7
 10
35.602090445328571
 20
4.8523853508412031
 30
0.0
 40
0.5919738308518
 50
162.81861830880729
 51
185.35496664157321
  0
ARC
  5
BC4
  8
FORM
 62
     7
 10
35.536094847929149
 20
4.9117694628322139
 30
0.0
 40
0.5358004355611984
 50
192.3534994193023
 51
222.3020476696031
  0
ARC
  5
BC5
  8
FORM
 62
     7
 10
37.381905568116622
 20
6.3998094049418546
 30
0.0
 40
2.905942571467353
 50
219.50633019139829
 51
228.42762303996261
  0
ARC
  5
BC6
  8
FORM
 62
     7
 10
35.140069253353403
 20
3.7985267963051679
 30
0.0
 40
0.5299960685152594
 50
32.971129457978869
 51
53.728419363024337
  0
ARC
  5
BC7
  8
FORM
 62
     7
 10
35.427463202400332
 20
4.005618684982891
 30
0.0
 40
0.1770362522386045
 50
287.74749415951351
 51
27.35211189662947
  0
ARC
  5
BC8
  8
FORM
 62
     7
 10
35.16259474257626
 20
2.8543408356064179
 30
0.0
 40
1.126178313661536
 50
81.426570944510203
 51
95.208118001959775
  0
ARC
  5
BC9
  8
FORM
 62
     7
 10
34.676472279440532
 20
4.609856792041171
 30
0.0
 40
0.0501357382491115
 50
325.52447187114319
 51
75.340502228459783
  0
ARC
  5
BCA
  8
FORM
 62
     7
 10
34.614701276196087
 20
4.6552100511053531
 30
0.0
 40
0.1267533236926462
 50
277.78730616127859
 51
324.42957968808531
  0
ARC
  5
BCB
  8
FORM
 62
     7
 10
34.592284758986892
 20
4.6762898657927741
 30
0.0
 40
0.1519139349688822
 50
243.48581874200181
 51
285.1065744639306
  0
ARC
  5
BCC
  8
FORM
 62
     7
 10
27.8731096997513
 20
-12.4932993511666
 30
0.0
 40
18.45638048052642
 50
68.327181839257534
 51
70.606105230637283
  0
ARC
  5
BCD
  8
FORM
 62
     7
 10
33.988713934221749
 20
4.8617714816310453
 30
0.0
 40
0.055607435478502
 50
76.445232091872299
 51
134.36352227876461
  0
ARC
  5
BCE
  8
FORM
 62
     7
 10
34.23594587733399
 20
4.4813881185518483
 30
0.0
 40
0.5083077403466757
 50
124.2547762008316
 51
135.012931962436
  0
ARC
  5
BCF
  8
FORM
 62
     7
 10
33.885979744632088
 20
4.8245660322519264
 30
0.0
 40
0.0187748724828842
 50
120.5491196217084
 51
251.48388650457539
  0
ARC
  5
BD0
  8
FORM
 62
     7
 10
31.35955469354608
 20
-2.20296417031589
 30
0.0
 40
7.4490944355826798
 50
64.85742894317822
 51
67.515132469299331
  0
ARC
  5
BD1
  8
FORM
 62
     7
 10
34.507034475662408
 20
4.4308185510845446
 30
0.0
 40
0.0703300633564829
 50
329.18566117941782
 51
69.527151249863806
  0
ARC
  5
BD2
  8
FORM
 62
     7
 10
34.322528644875717
 20
4.1521399941366823
 30
0.0
 40
0.403051872176304
 50
58.747973844557571
 51
81.106226592028065
  0
ARC
  5
BD3
  8
FORM
 62
     7
 10
34.279653491663879
 20
3.8849497208938919
 30
0.0
 40
0.673659077744691
 50
81.016817915507374
 51
97.679603827268224
  0
ARC
  5
BD4
  8
FORM
 62
     7
 10
34.350555487554203
 20
4.0873869344785581
 30
0.0
 40
0.4997006452258542
 50
121.5050128230593
 51
139.0957881060705
  0
ARC
  5
BD5
  8
FORM
 62
     7
 10
34.486213611380663
 20
4.4200913009569014
 30
0.0
 40
0.0850716575372725
 50
277.70569210516868
 51
342.69880024124097
  0
ARC
  5
BD6
  8
FORM
 62
     7
 10
34.46010433022056
 20
4.5160817648663851
 30
0.0
 40
0.184155782182425
 50
250.08394506358289
 51
281.75453717228322
  0
ARC
  5
BD7
  8
FORM
 62
     7
 10
34.52027170146647
 20
4.5372247072865122
 30
0.0
 40
0.2298928288403392
 50
221.18187885427241
 51
237.68378775985289
  0
ARC
  5
BD8
  8
FORM
 62
     7
 10
34.250649510747913
 20
4.2707129138400566
 30
0.0
 40
0.1502941988903953
 50
50.003848755011681
 51
75.5416830098399
  0
ARC
  5
BD9
  8
FORM
 62
     7
 10
34.242700079187699
 20
4.3251886965059541
 30
0.0
 40
0.101781928913435
 50
63.4626603498468
 51
100.74200229027051
  0
ARC
  5
BDA
  8
FORM
 62
     7
 10
34.223729261234951
 20
4.2529656105913531
 30
0.0
 40
0.1722214314986379
 50
89.999999999999588
 51
125.5974615489027
  0
ARC
  5
BDB
  8
FORM
 62
     7
 10
36.266687671707359
 20
5.4819654875490791
 30
0.0
 40
2.382967543868022
 50
197.51922498184919
 51
203.981481444731
  0
ARC
  5
BDC
  8
FORM
 62
     7
 10
33.485249637949607
 20
4.721360124868851
 30
0.0
 40
0.7243225282346643
 50
346.52409876011291
 51
356.71498770316703
  0
ARC
  5
BDD
  8
FORM
 62
     7
 10
31.35955469354608
 20
-2.20296417031589
 30
0.0
 40
7.4490944355826798
 50
69.286600818944052
 51
70.22311760076802
  0
ARC
  5
BDE
  8
FORM
 62
     7
 10
33.876169922815478
 20
4.0909024975958621
 30
0.0
 40
0.2184269840063441
 50
245.40259669902051
 51
275.40975098180542
  0
ARC
  5
BDF
  8
FORM
 62
     7
 10
34.642070270288428
 20
3.6967673023805361
 30
0.0
 40
0.8681469610074701
 50
126.68044463040199
 51
139.78708822539889
  0
ARC
  5
BE0
  8
FORM
 62
     7
 10
33.872083832704959
 20
4.7053139576373191
 30
0.0
 40
0.832231548816698
 50
271.69929119420118
 51
283.39540842056908
  0
ARC
  5
BE1
  8
FORM
 62
     7
 10
35.428271851831568
 20
2.78470176044189
 30
0.0
 40
2.0660410796836941
 50
134.5410403491789
 51
138.91474429089911
  0
ARC
  5
BE2
  8
FORM
 62
     7
 10
33.906328645442898
 20
4.1130944325259122
 30
0.0
 40
0.0546567449796842
 50
201.8252958964795
 51
267.16449786715452
  0
ARC
  5
BE3
  8
FORM
 62
     7
 10
33.894562313202023
 20
4.107909022344443
 30
0.0
 40
0.0418082902229875
 50
124.254854327418
 51
201.22329273937871
  0
ARC
  5
BE4
  8
FORM
 62
     7
 10
34.021864770200096
 20
4.0738934856997728
 30
0.0
 40
0.1832903804675856
 50
283.5751770312794
 51
324.58969283639942
  0
ARC
  5
BE5
  8
FORM
 62
     7
 10
34.126398977664167
 20
3.986597707801109
 30
0.0
 40
0.0486742756789315
 50
337.14160324238748
 51
47.56496670892831
  0
ARC
  5
BE6
  8
FORM
 62
     7
 10
34.051479433347943
 20
3.879563609001575
 30
0.0
 40
0.1790243893656499
 50
52.990730681111657
 51
91.748895977531376
  0
ARC
  5
BE7
  8
FORM
 62
     7
 10
33.97482029636015
 20
4.5445147233887013
 30
0.0
 40
0.4911971362770459
 50
261.66603807207321
 51
278.33396192792679
  0
ARC
  5
BE8
  8
FORM
 62
     7
 10
33.827351328547081
 20
3.9976720327520212
 30
0.0
 40
0.1134738832821913
 50
192.64550774538381
 51
248.2223967256862
  0
ARC
  5
BE9
  8
FORM
 62
     7
 10
33.799462642063048
 20
4.0105271566674361
 30
0.0
 40
0.0910070849768819
 50
178.88427582775461
 51
204.46998391858131
  0
ARC
  5
BEA
  8
FORM
 62
     7
 10
34.024590384061071
 20
3.9875275917867858
 30
0.0
 40
0.3170866660790294
 50
140.54690015149379
 51
175.5193383191162
  0
ARC
  5
BEB
  8
FORM
 62
     7
 10
37.147786536650841
 20
1.5008787794887259
 30
0.0
 40
4.3092627289205483
 50
137.45643980933039
 51
141.40545593619069
  0
POLYLINE
  5
BEC
  8
FORM
 62
     1
 10
34.588179408120517
 20
5.9634267402830048
 30
0.0
 66
     1
 70
     8
  0
VERTEX
  8
FORM
  5
EDE
 10
34.5882
 20
5.96343
 30
0.000000
  70
    32
  0
VERTEX
  8
FORM
  5
EDF
 10
34.5863
 20
5.96413
 30
0.000000
  70
    32
  0
VERTEX
  8
FORM
  5
EE0
 10
34.5843
 20
5.96461
 30
0.000000
  70
    32
  0
VERTEX
  8
FORM
  5
EE1
 10
34.5822
 20
5.96487
 30
0.000000
  70
    32
  0
VERTEX
  8
FORM
  5
EE2
 10
34.5800
 20
5.96490
 30
0.000000
  70
    32
  0
VERTEX
  8
FORM
  5
EE3
 10
34.5778
 20
5.96471
 30
0.000000
  70
    32
  0
VERTEX
  8
FORM
  5
EE4
 10
34.5754
 20
5.96429
 30
0.000000
  70
    32
  0
VERTEX
  8
FORM
  5
EE5
 10
34.5731
 20
5.96365
 30
0.000000
  70
    32
  0
VERTEX
  8
FORM
  5
EE6
 10
34.5706
 20
5.96279
 30
0.000000
  70
    32
  0
VERTEX
  8
FORM
  5
EE7
 10
34.5681
 20
5.96170
 30
0.000000
  70
    32
  0
VERTEX
  8
FORM
  5
EE8
 10
34.5656
 20
5.96040
 30
0.000000
  70
    32
  0
VERTEX
  8
FORM
  5
EE9
 10
34.5630
 20
5.95889
 30
0.000000
  70
    32
  0
VERTEX
  8
FORM
  5
EEA
 10
34.5603
 20
5.95716
 30
0.000000
  70
    32
  0
VERTEX
  8
FORM
  5
EEB
 10
34.5577
 20
5.95523
 30
0.000000
  70
    32
  0
VERTEX
  8
FORM
  5
EEC
 10
34.5550
 20
5.95309
 30
0.000000
  70
    32
  0
VERTEX
  8
FORM
  5
EED
 10
34.5523
 20
5.95076
 30
0.000000
  70
    32
  0
VERTEX
  8
FORM
  5
EEE
 10
34.5496
 20
5.94824
 30
0.000000
  70
    32
  0
VERTEX
  8
FORM
  5
EEF
 10
34.5468
 20
5.94553
 30
0.000000
  70
    32
  0
VERTEX
  8
FORM
  5
EF0
 10
34.5441
 20
5.94264
 30
0.000000
  70
    32
  0
VERTEX
  8
FORM
  5
EF1
 10
34.5414
 20
5.93959
 30
0.000000
  70
    32
  0
VERTEX
  8
FORM
  5
EF2
 10
34.5387
 20
5.93636
 30
0.000000
  70
    32
  0
VERTEX
  8
FORM
  5
EF3
 10
34.5361
 20
5.93299
 30
0.000000
  70
    32
  0
VERTEX
  8
FORM
  5
EF4
 10
34.5334
 20
5.92946
 30
0.000000
  70
    32
  0
VERTEX
  8
FORM
  5
EF5
 10
34.5308
 20
5.92579
 30
0.000000
  70
    32
  0
VERTEX
  8
FORM
  5
EF6
 10
34.5282
 20
5.92199
 30
0.000000
  70
    32
  0
VERTEX
  8
FORM
  5
EF7
 10
34.5257
 20
5.91807
 30
0.000000
  70
    32
  0
VERTEX
  8
FORM
  5
EF8
 10
34.5233
 20
5.91404
 30
0.000000
  70
    32
  0
VERTEX
  8
FORM
  5
EF9
 10
34.5209
 20
5.90991
 30
0.000000
  70
    32
  0
VERTEX
  8
FORM
  5
EFA
 10
34.5185
 20
5.90568
 30
0.000000
  70
    32
  0
VERTEX
  8
FORM
  5
EFB
 10
34.5162
 20
5.90137
 30
0.000000
  70
    32
  0
VERTEX
  8
FORM
  5
EFC
 10
34.5140
 20
5.89699
 30
0.000000
  70
    32
  0
VERTEX
  8
FORM
  5
EFD
 10
34.5119
 20
5.89254
 30
0.000000
  70
    32
  0
VERTEX
  8
FORM
  5
EFE
 10
34.5099
 20
5.88805
 30
0.000000
  70
    32
  0
VERTEX
  8
FORM
  5
EFF
 10
34.5080
 20
5.88352
 30
0.000000
  70
    32
  0
VERTEX
  8
FORM
  5
F00
 10
34.5061
 20
5.87895
 30
0.000000
  70
    32
  0
VERTEX
  8
FORM
  5
F01
 10
34.5044
 20
5.87437
 30
0.000000
  70
    32
  0
VERTEX
  8
FORM
  5
F02
 10
34.5028
 20
5.86978
 30
0.000000
  70
    32
  0
VERTEX
  8
FORM
  5
F03
 10
34.5012
 20
5.86520
 30
0.000000
  70
    32
  0
VERTEX
  8
FORM
  5
F04
 10
34.4998
 20
5.86063
 30
0.000000
  70
    32
  0
VERTEX
  8
FORM
  5
F05
 10
34.4985
 20
5.85608
 30
0.000000
  70
    32
  0
VERTEX
  8
FORM
  5
F06
 10
34.4973
 20
5.85158
 30
0.000000
  70
    32
  0
VERTEX
  8
FORM
  5
F07
 10
34.4963
 20
5.84712
 30
0.000000
  70
    32
  0
VERTEX
  8
FORM
  5
F08
 10
34.4953
 20
5.84272
 30
0.000000
  70
    32
  0
VERTEX
  8
FORM
  5
F09
 10
34.4945
 20
5.83838
 30
0.000000
  70
    32
  0
VERTEX
  8
FORM
  5
F0A
 10
34.4938
 20
5.83413
 30
0.000000
  70
    32
  0
VERTEX
  8
FORM
  5
F0B
 10
34.4933
 20
5.82997
 30
0.000000
  70
    32
  0
VERTEX
  8
FORM
  5
F0C
 10
34.4929
 20
5.82591
 30
0.000000
  70
    32
  0
VERTEX
  8
FORM
  5
F0D
 10
34.4926
 20
5.82195
 30
0.000000
  70
    32
  0
VERTEX
  8
FORM
  5
F0E
 10
34.4924
 20
5.81812
 30
0.000000
  70
    32
  0
VERTEX
  8
FORM
  5
F0F
 10
34.4924
 20
5.81442
 30
0.000000
  70
    32
  0
VERTEX
  8
FORM
  5
F10
 10
34.4925
 20
5.81085
 30
0.000000
  70
    32
  0
VERTEX
  8
FORM
  5
F11
 10
34.4928
 20
5.80743
 30
0.000000
  70
    32
  0
VERTEX
  8
FORM
  5
F12
 10
34.4931
 20
5.80416
 30
0.000000
  70
    32
  0
VERTEX
  8
FORM
  5
F13
 10
34.4937
 20
5.80105
 30
0.000000
  70
    32
  0
VERTEX
  8
FORM
  5
F14
 10
34.4943
 20
5.79812
 30
0.000000
  70
    32
  0
VERTEX
  8
FORM
  5
F15
 10
34.4951
 20
5.79536
 30
0.000000
  70
    32
  0
VERTEX
  8
FORM
  5
F16
 10
34.4960
 20
5.79278
 30
0.000000
  70
    32
  0
VERTEX
  8
FORM
  5
F17
 10
34.4970
 20
5.79039
 30
0.000000
  70
    32
  0
VERTEX
  8
FORM
  5
F18
 10
34.4981
 20
5.78820
 30
0.000000
  70
    32
  0
VERTEX
  8
FORM
  5
F19
 10
34.4994
 20
5.78621
 30
0.000000
  70
    32
  0
VERTEX
  8
FORM
  5
F1A
 10
34.5008
 20
5.78443
 30
0.000000
  70
    32
  0
VERTEX
  8
FORM
  5
F1B
 10
34.5023
 20
5.78285
 30
0.000000
  70
    32
  0
VERTEX
  8
FORM
  5
F1C
 10
34.5039
 20
5.78149
 30
0.000000
  70
    32
  0
VERTEX
  8
FORM
  5
F1D
 10
34.5056
 20
5.78034
 30
0.000000
  70
    32
  0
VERTEX
  8
FORM
  5
F1E
 10
34.5074
 20
5.77941
 30
0.000000
  70
    32
  0
VERTEX
  8
FORM
  5
F1F
 10
34.5093
 20
5.77871
 30
0.000000
  70
    32
  0
VERTEX
  8
FORM
  5
F20
 10
34.5113
 20
5.77823
 30
0.000000
  70
    32
  0
VERTEX
  8
FORM
  5
F21
 10
34.5134
 20
5.77797
 30
0.000000
  70
    32
  0
VERTEX
  8
FORM
  5
F22
 10
34.5155
 20
5.77794
 30
0.000000
  70
    32
  0
VERTEX
  8
FORM
  5
F23
 10
34.5178
 20
5.77813
 30
0.000000
  70
    32
  0
VERTEX
  8
FORM
  5
F24
 10
34.5201
 20
5.77855
 30
0.000000
  70
    32
  0
VERTEX
  8
FORM
  5
F25
 10
34.5225
 20
5.77919
 30
0.000000
  70
    32
  0
VERTEX
  8
FORM
  5
F26
 10
34.5249
 20
5.78005
 30
0.000000
  70
    32
  0
VERTEX
  8
FORM
  5
F27
 10
34.5274
 20
5.78114
 30
0.000000
  70
    32
  0
VERTEX
  8
FORM
  5
F28
 10
34.5300
 20
5.78244
 30
0.000000
  70
    32
  0
VERTEX
  8
FORM
  5
F29
 10
34.5326
 20
5.78395
 30
0.000000
  70
    32
  0
VERTEX
  8
FORM
  5
F2A
 10
34.5352
 20
5.78568
 30
0.000000
  70
    32
  0
VERTEX
  8
FORM
  5
F2B
 10
34.5379
 20
5.78761
 30
0.000000
  70
    32
  0
VERTEX
  8
FORM
  5
F2C
 10
34.5406
 20
5.78975
 30
0.000000
  70
    32
  0
VERTEX
  8
FORM
  5
F2D
 10
34.5433
 20
5.79208
 30
0.000000
  70
    32
  0
VERTEX
  8
FORM
  5
F2E
 10
34.5460
 20
5.79460
 30
0.000000
  70
    32
  0
VERTEX
  8
FORM
  5
F2F
 10
34.5487
 20
5.79731
 30
0.000000
  70
    32
  0
VERTEX
  8
FORM
  5
F30
 10
34.5514
 20
5.80020
 30
0.000000
  70
    32
  0
VERTEX
  8
FORM
  5
F31
 10
34.5541
 20
5.80325
 30
0.000000
  70
    32
  0
VERTEX
  8
FORM
  5
F32
 10
34.5568
 20
5.80648
 30
0.000000
  70
    32
  0
VERTEX
  8
FORM
  5
F33
 10
34.5595
 20
5.80985
 30
0.000000
  70
    32
  0
VERTEX
  8
FORM
  5
F34
 10
34.5621
 20
5.81338
 30
0.000000
  70
    32
  0
VERTEX
  8
FORM
  5
F35
 10
34.5647
 20
5.81705
 30
0.000000
  70
    32
  0
VERTEX
  8
FORM
  5
F36
 10
34.5673
 20
5.82085
 30
0.000000
  70
    32
  0
VERTEX
  8
FORM
  5
F37
 10
34.5698
 20
5.82477
 30
0.000000
  70
    32
  0
VERTEX
  8
FORM
  5
F38
 10
34.5723
 20
5.82880
 30
0.000000
  70
    32
  0
VERTEX
  8
FORM
  5
F39
 10
34.5747
 20
5.83293
 30
0.000000
  70
    32
  0
VERTEX
  8
FORM
  5
F3A
 10
34.5770
 20
5.83716
 30
0.000000
  70
    32
  0
VERTEX
  8
FORM
  5
F3B
 10
34.5793
 20
5.84147
 30
0.000000
  70
    32
  0
VERTEX
  8
FORM
  5
F3C
 10
34.5815
 20
5.84585
 30
0.000000
  70
    32
  0
VERTEX
  8
FORM
  5
F3D
 10
34.5836
 20
5.85030
 30
0.000000
  70
    32
  0
VERTEX
  8
FORM
  5
F3E
 10
34.5856
 20
5.85479
 30
0.000000
  70
    32
  0
VERTEX
  8
FORM
  5
F3F
 10
34.5876
 20
5.85932
 30
0.000000
  70
    32
  0
VERTEX
  8
FORM
  5
F40
 10
34.5894
 20
5.86389
 30
0.000000
  70
    32
  0
VERTEX
  8
FORM
  5
F41
 10
34.5912
 20
5.86847
 30
0.000000
  70
    32
  0
VERTEX
  8
FORM
  5
F42
 10
34.5928
 20
5.87306
 30
0.000000
  70
    32
  0
VERTEX
  8
FORM
  5
F43
 10
34.5943
 20
5.87764
 30
0.000000
  70
    32
  0
VERTEX
  8
FORM
  5
F44
 10
34.5957
 20
5.88221
 30
0.000000
  70
    32
  0
VERTEX
  8
FORM
  5
F45
 10
34.5970
 20
5.88676
 30
0.000000
  70
    32
  0
VERTEX
  8
FORM
  5
F46
 10
34.5982
 20
5.89127
 30
0.000000
  70
    32
  0
VERTEX
  8
FORM
  5
F47
 10
34.5993
 20
5.89572
 30
0.000000
  70
    32
  0
VERTEX
  8
FORM
  5
F48
 10
34.6002
 20
5.90013
 30
0.000000
  70
    32
  0
VERTEX
  8
FORM
  5
F49
 10
34.6010
 20
5.90446
 30
0.000000
  70
    32
  0
VERTEX
  8
FORM
  5
F4A
 10
34.6017
 20
5.90871
 30
0.000000
  70
    32
  0
VERTEX
  8
FORM
  5
F4B
 10
34.6023
 20
5.91287
 30
0.000000
  70
    32
  0
VERTEX
  8
FORM
  5
F4C
 10
34.6027
 20
5.91693
 30
0.000000
  70
    32
  0
VERTEX
  8
FORM
  5
F4D
 10
34.6030
 20
5.92089
 30
0.000000
  70
    32
  0
VERTEX
  8
FORM
  5
F4E
 10
34.6031
 20
5.92472
 30
0.000000
  70
    32
  0
VERTEX
  8
FORM
  5
F4F
 10
34.6031
 20
5.92842
 30
0.000000
  70
    32
  0
VERTEX
  8
FORM
  5
F50
 10
34.6030
 20
5.93199
 30
0.000000
  70
    32
  0
VERTEX
  8
FORM
  5
F51
 10
34.6028
 20
5.93541
 30
0.000000
  70
    32
  0
VERTEX
  8
FORM
  5
F52
 10
34.6024
 20
5.93868
 30
0.000000
  70
    32
  0
VERTEX
  8
FORM
  5
F53
 10
34.6019
 20
5.94179
 30
0.000000
  70
    32
  0
VERTEX
  8
FORM
  5
F54
 10
34.6013
 20
5.94472
 30
0.000000
  70
    32
  0
VERTEX
  8
FORM
  5
F55
 10
34.6005
 20
5.94748
 30
0.000000
  70
    32
  0
VERTEX
  8
FORM
  5
F56
 10
34.5996
 20
5.95006
 30
0.000000
  70
    32
  0
VERTEX
  8
FORM
  5
F57
 10
34.5986
 20
5.95245
 30
0.000000
  70
    32
  0
VERTEX
  8
FORM
  5
F58
 10
34.5974
 20
5.95464
 30
0.000000
  70
    32
  0
VERTEX
  8
FORM
  5
F59
 10
34.5962
 20
5.95663
 30
0.000000
  70
    32
  0
VERTEX
  8
FORM
  5
F5A
 10
34.5948
 20
5.95841
 30
0.000000
  70
    32
  0
VERTEX
  8
FORM
  5
F5B
 10
34.5933
 20
5.95999
 30
0.000000
  70
    32
  0
VERTEX
  8
FORM
  5
F5C
 10
34.5917
 20
5.96135
 30
0.000000
  70
    32
  0
VERTEX
  8
FORM
  5
F5D
 10
34.5900
 20
5.96250
 30
0.000000
  70
    32
  0
VERTEX
  8
FORM
  5
F5E
 10
34.5882
 20
5.96343
 30
0.000000
  70
    32
  0
SEQEND
  8
FORM
  5
F5F
  0
ARC
  5
BED
  8
FORM
 62
     7
 10
34.678422559705353
 20
5.6285689301790143
 30
0.0
 40
0.45030777473755
 50
85.485448269952457
 51
155.5006785655419
  0
TEXT
  5
BEE
  8
FORM
 62
     7
 10
33.094000516162993
 20
3.2737730496354831
 30
0.0
 40
0.1764102564
  1
R2-D2 BUILDERS CLUB
  0
ARC
  5
BEF
  8
FORM
 10
1.2738095237500311
 20
1.2738095237500171
 30
0.0
 40
0.315018315
 50
180.0
 51
270.0
  0
ARC
  5
BF0
  8
FORM
 10
1.2738095237500311
 20
1.2738095237500171
 30
0.0
 40
0.6300366300000001
 50
180.0
 51
270.0
  0
ARC
  5
BF1
  8
FORM
 10
1.2738095237500311
 20
1.2738095237500171
 30
0.0
 40
0.7087912087500001
 50
180.0
 51
270.0
  0
ARC
  5
BF2
  8
FORM
 10
1.2738095237500311
 20
1.2738095237500171
 30
0.0
 40
1.02380952375
 50
180.0
 51
270.0
  0
ARC
  5
BF3
  8
FORM
 10
1.2738095237500311
 20
30.47619047625
 30
0.0
 40
1.02380952375
 50
90.0
 51
180.0
  0
ARC
  5
BF4
  8
FORM
 10
1.2738095237500311
 20
30.47619047625
 30
0.0
 40
0.7087912087500001
 50
90.0
 51
180.0
  0
ARC
  5
BF5
  8
FORM
 10
1.2738095237500311
 20
30.47619047625
 30
0.0
 40
0.6300366300000001
 50
90.0
 51
180.0
  0
ARC
  5
BF6
  8
FORM
 10
1.2738095237500311
 20
30.47619047625
 30
0.0
 40
0.315018315
 50
90.0
 51
180.0
  0
ARC
  5
BF7
  8
FORM
 10
42.726190473750037
 20
30.47619047625
 30
0.0
 40
0.6300366300000001
 50
0.0
 51
90.0
  0
ARC
  5
BF8
  8
FORM
 10
42.726190473750037
 20
30.47619047625
 30
0.0
 40
0.7087912087500001
 50
0.0
 51
90.0
  0
ARC
  5
BF9
  8
FORM
 10
42.726190473750037
 20
30.47619047625
 30
0.0
 40
1.02380952375
 50
0.0
 51
90.0
  0
ARC
  5
BFA
  8
FORM
 10
42.726190473750037
 20
30.47619047625
 30
0.0
 40
0.315018315
 50
0.0
 51
90.0
  0
ARC
  5
BFB
  8
FORM
 10
42.726190473750037
 20
1.2738095237500171
 30
0.0
 40
1.02380952375
 50
270.0
 51
0.0
  0
ARC
  5
BFC
  8
FORM
 10
42.726190473750037
 20
1.2738095237500171
 30
0.0
 40
0.7087912087500001
 50
270.0
 51
0.0
  0
ARC
  5
BFD
  8
FORM
 10
42.726190473750037
 20
1.2738095237500171
 30
0.0
 40
0.6300366300000001
 50
270.0
 51
0.0
  0
ARC
  5
BFE
  8
FORM
 10
42.726190473750037
 20
1.2738095237500171
 30
0.0
 40
0.315018315
 50
270.0
 51
0.0
  0
LINE
  5
BFF
  8
FORM
 10
42.726190473750037
 20
0.643772893750036
 30
0.0
 11
1.2738095237500311
 21
0.6437728937500183
 31
0.0
  0
LINE
  5
C00
  8
FORM
 10
42.726190473750037
 20
0.5650183150000352
 30
0.0
 11
1.2738095237500311
 21
0.5650183150000175
 31
0.0
  0
LINE
  5
C01
  8
FORM
 10
42.726190473750037
 20
0.2500000000000178
 30
0.0
 11
1.2738095237500311
 21
0.25
 31
0.0
  0
LINE
  5
C02
  8
FORM
 10
43.356227103750051
 20
1.2738095237500171
 30
0.0
 11
43.356227103750051
 21
30.47619047625
 31
0.0
  0
LINE
  5
C03
  8
FORM
 10
43.434981682500052
 20
1.2738095237500171
 30
0.0
 11
43.434981682500052
 21
30.47619047625
 31
0.0
  0
LINE
  5
C04
  8
FORM
 10
43.749999997500048
 20
1.2738095237500171
 30
0.0
 11
43.749999997500048
 21
30.47619047625
 31
0.0
  0
LINE
  5
C05
  8
FORM
 10
42.726190473750037
 20
31.10622710625
 30
0.0
 11
1.2738095237500311
 21
31.10622710625
 31
0.0
  0
LINE
  5
C06
  8
FORM
 10
42.726190473750037
 20
31.184981685
 30
0.0
 11
1.2738095237500311
 21
31.184981685
 31
0.0
  0
LINE
  5
C07
  8
FORM
 10
42.726190473750037
 20
31.5
 30
0.0
 11
1.2738095237500311
 21
31.5
 31
0.0
  0
LINE
  5
C08
  8
FORM
 10
0.6437728937500254
 20
1.2738095237500171
 30
0.0
 11
0.6437728937500254
 21
30.47619047625
 31
0.0
  0
LINE
  5
C09
  8
FORM
 10
0.5650183150000601
 20
1.2738095237500171
 30
0.0
 11
0.5650183150000601
 21
30.47619047625
 31
0.0
  0
LINE
  5
C0A
  8
FORM
 10
0.2499999999999716
 20
1.2738095237500211
 30
0.0
 11
0.2500000000000284
 21
30.47619047625
 31
0.0
  0
LINE
  5
C0B
  8
FORM
  6
CONTINUOUS
 10
33.416182507258391
 20
1.2738095237500171
 30
0.0
 11
42.265298990260362
 21
1.2738095237500171
 31
0.0
  0
LINE
  5
C0C
  8
FORM
  6
CONTINUOUS
 10
42.726190473750037
 20
6.1592592487406881
 30
0.0
 11
42.726190473750037
 21
1.7347010072396991
 31
0.0
  0
ARC
  5
C0D
  8
FORM
  6
CONTINUOUS
 10
42.265298990260362
 20
1.7347010072396991
 30
0.0
 40
0.460891483489685
 50
270.0
 51
0.0
  0
ARC
  5
C0E
  8
FORM
  6
CONTINUOUS
 10
42.265298990260362
 20
6.1592592487406881
 30
0.0
 40
0.460891483489685
 50
359.99999999999989
 51
90.0
  0
ARC
  5
C0F
  8
FORM
  6
CONTINUOUS
 10
33.416182507258391
 20
1.7347010072396991
 30
0.0
 40
0.460891483489685
 50
180.0
 51
270.0
  0
ARC
  5
C10
  8
FORM
  6
CONTINUOUS
 10
33.416182507258391
 20
6.1592592487406881
 30
0.0
 40
0.460891483489685
 50
90.0
 51
180.0
  0
LINE
  5
C11
  8
0
 10
0.0
 20
0.0
 30
0.0
 11
0.0
 21
34.0
 31
0.0
  0
LINE
  5
C12
  8
0
 10
0.0
 20
0.0
 30
0.0
 11
44.0
 21
0.0
 31
0.0
  0
LINE
  5
C13
  8
0
 10
0.0
 20
34.0
 30
0.0
 11
44.0
 21
34.0
 31
0.0
  0
LINE
  5
C14
  8
0
 10
44.0
 20
0.0
 30
0.0
 11
44.0
 21
34.0
 31
0.0
  0
LINE
  5
EBB
  8
0
 10
1.2738095237500311
 20
1.2738095237500171
 30
0.0
 11
1.2738095237500311
 21
2.2738095237500171
 31
0.0
  0
LINE
  5
EBC
  8
0
 10
1.2738095237500311
 20
1.3988095237500171
 30
0.0
 11
1.3988095237500311
 21
1.3988095237500171
 31
0.0
  0
LINE
  5
EBD
  8
0
 10
1.2738095237500311
 20
1.5238095237500171
 30
0.0
 11
1.5238095237500311
 21
1.5238095237500171
 31
0.0
  0
LINE
  5
EBE
  8
0
 10
1.2738095237500311
 20
1.6488095237500171
 30
0.0
 11
1.3988095237500311
 21
1.6488095237500171
 31
0.0
  0
LINE
  5
EBF
  8
0
 10
1.2738095237500311
 20
1.7738095237500171
 30
0.0
 11
1.6488095237500311
 21
1.7738095237500171
 31
0.0
  0
LINE
  5
EC0
  8
0
 10
1.2738095237500311
 20
1.8988095237500171
 30
0.0
 11
1.3988095237500311
 21
1.8988095237500171
 31
0.0
  0
LINE
  5
EC1
  8
0
 10
1.2738095237500311
 20
2.0238095237500171
 30
0.0
 11
1.5238095237500311
 21
2.0238095237500171
 31
0.0
  0
LINE
  5
EC2
  8
0
 10
1.2738095237500311
 20
2.1488095237500171
 30
0.0
 11
1.3988095237500311
 21
2.1488095237500171
 31
0.0
  0
LINE
  5
EC3
  8
0
 10
1.2738095237500311
 20
2.2738095237500171
 30
0.0
 11
1.6488095237500311
 21
2.2738095237500171
 31
0.0
  0
LINE
  5
EC4
  8
0
 10
1.2738095237500311
 20
1.2738095237500171
 30
0.0
 11
1.6488095237500311
 21
1.2738095237500171
 31
0.0
  0
TEXT
  5
EC5
  8
0
 10
1.698078297376497
 20
1.740768962749534
 30
0.0
 40
0.0625
  1
1/2"
  0
TEXT
  5
EC6
  8
0
 10
1.448078297376497
 20
1.615768962749534
 30
0.0
 40
0.0625
  1
3/8"
  0
TEXT
  5
EC7
  8
0
 10
1.573078297376497
 20
1.490768962749534
 30
0.0
 40
0.0625
  1
1/4"
  0
TEXT
  5
EC8
  8
0
 10
1.448078297376497
 20
1.365768962749534
 30
0.0
 40
0.0625
  1
1/8"
  0
TEXT
  5
EC9
  8
0
 10
1.448078297376497
 20
1.865768962749534
 30
0.0
 40
0.0625
  1
5/8"
  0
TEXT
  5
ECA
  8
0
 10
1.573078297376497
 20
1.990768962749534
 30
0.0
 40
0.0625
  1
3/4"
  0
TEXT
  5
ECB
  8
0
 10
1.448078297376497
 20
2.115768962749534
 30
0.0
 40
0.0625
  1
7/8"
  0
TEXT
  5
ECC
  8
0
 10
1.698078297376497
 20
2.240768962749534
 30
0.0
 40
0.0625
  1
1"
  0
ENDSEC
  0
EOF
