  0
SECTION
  2
HEADER
  9
$ACADVER
  1
AC1009
  9
$INSBASE
 10
0.0
 20
0.0
 30
0.0
  9
$EXTMIN
 10
0.0
 20
-0.0000000000000009
 30
0.0
  9
$EXTMAX
 10
11.0
 20
8.5
 30
0.0
  9
$LIMMIN
 10
0.0
 20
0.0
  9
$LIMMAX
 10
12.0
 20
9.0
  9
$ORTHOMODE
 70
     0
  9
$REGENMODE
 70
     1
  9
$FILLMODE
 70
     1
  9
$QTEXTMODE
 70
     0
  9
$MIRRTEXT
 70
     1
  9
$DRAGMODE
 70
     2
  9
$LTSCALE
 40
1.0
  9
$OSMODE
 70
    39
  9
$ATTMODE
 70
     1
  9
$TEXTSIZE
 40
0.1875
  9
$TRACEWID
 40
0.05
  9
$TEXTSTYLE
  7
STANDARD
  9
$CLAYER
  8
0
  9
$CELTYPE
  6
BYLAYER
  9
$CECOLOR
 62
   256
  9
$DIMSCALE
 40
1.0
  9
$DIMASZ
 40
0.125
  9
$DIMEXO
 40
0.03125
  9
$DIMDLI
 40
0.5
  9
$DIMRND
 40
0.0
  9
$DIMDLE
 40
0.0
  9
$DIMEXE
 40
0.03125
  9
$DIMTP
 40
0.0
  9
$DIMTM
 40
0.0
  9
$DIMTXT
 40
0.125
  9
$DIMCEN
 40
0.0
  9
$DIMTSZ
 40
0.0
  9
$DIMTOL
 70
     0
  9
$DIMLIM
 70
     0
  9
$DIMTIH
 70
     1
  9
$DIMTOH
 70
     1
  9
$DIMSE1
 70
     0
  9
$DIMSE2
 70
     0
  9
$DIMTAD
 70
     0
  9
$DIMZIN
 70
     0
  9
$DIMBLK
  1

  9
$DIMASO
 70
     1
  9
$DIMSHO
 70
     1
  9
$DIMPOST
  1

  9
$DIMAPOST
  1

  9
$DIMALT
 70
     0
  9
$DIMALTD
 70
     2
  9
$DIMALTF
 40
25.399999999999999
  9
$DIMLFAC
 40
1.0
  9
$DIMTOFL
 70
     0
  9
$DIMTVP
 40
0.0
  9
$DIMTIX
 70
     0
  9
$DIMSOXD
 70
     0
  9
$DIMSAH
 70
     0
  9
$DIMBLK1
  1

  9
$DIMBLK2
  1

  9
$DIMSTYLE
  2
STANDARD
  9
$DIMCLRD
 70
     0
  9
$DIMCLRE
 70
     0
  9
$DIMCLRT
 70
     0
  9
$DIMTFAC
 40
1.0
  9
$DIMGAP
 40
0.0625
  9
$LUNITS
 70
     2
  9
$LUPREC
 70
     7
  9
$SKETCHINC
 40
0.1
  9
$FILLETRAD
 40
0.182882812499999
  9
$AUNITS
 70
     0
  9
$AUPREC
 70
     8
  9
$MENU
  1
.
  9
$ELEVATION
 40
0.0
  9
$PELEVATION
 40
0.0
  9
$THICKNESS
 40
0.0
  9
$LIMCHECK
 70
     0
  9
$BLIPMODE
 70
     0
  9
$CHAMFERA
 40
0.0
  9
$CHAMFERB
 40
0.0
  9
$SKPOLY
 70
     0
  9
$TDCREATE
 40
2453087.3875628472
  9
$TDUPDATE
 40
2453462.6488935542
  9
$TDINDWG
 40
0.1058343981
  9
$TDUSRTIMER
 40
0.1058343981
  9
$USRTIMER
 70
     1
  9
$ANGBASE
 50
0.0
  9
$ANGDIR
 70
     0
  9
$PDMODE
 70
     0
  9
$PDSIZE
 40
0.0
  9
$PLINEWID
 40
0.0
  9
$COORDS
 70
     0
  9
$SPLFRAME
 70
     0
  9
$SPLINETYPE
 70
     6
  9
$SPLINESEGS
 70
     8
  9
$ATTDIA
 70
     0
  9
$ATTREQ
 70
     1
  9
$HANDLING
 70
     1
  9
$HANDSEED
  5
EFC
  9
$SURFTAB1
 70
     6
  9
$SURFTAB2
 70
     6
  9
$SURFTYPE
 70
     6
  9
$SURFU
 70
     6
  9
$SURFV
 70
     6
  9
$UCSNAME
  2

  9
$UCSORG
 10
0.0
 20
0.0
 30
0.0
  9
$UCSXDIR
 10
1.0
 20
0.0
 30
0.0
  9
$UCSYDIR
 10
0.0
 20
1.0
 30
0.0
  9
$PUCSNAME
  2

  9
$PUCSORG
 10
0.0
 20
0.0
 30
0.0
  9
$PUCSXDIR
 10
1.0
 20
0.0
 30
0.0
  9
$PUCSYDIR
 10
0.0
 20
1.0
 30
0.0
  9
$USERI1
 70
     0
  9
$USERI2
 70
     0
  9
$USERI3
 70
     0
  9
$USERI4
 70
     0
  9
$USERI5
 70
     0
  9
$USERR1
 40
0.0
  9
$USERR2
 40
0.0
  9
$USERR3
 40
0.0
  9
$USERR4
 40
0.0
  9
$USERR5
 40
0.0
  9
$WORLDVIEW
 70
     1
  9
$SHADEDGE
 70
     3
  9
$SHADEDIF
 70
    70
  9
$TILEMODE
 70
     1
  9
$MAXACTVP
 70
    64
  9
$PLIMCHECK
 70
     0
  9
$PEXTMIN
 10
1.0000000000000000E+020
 20
1.0000000000000000E+020
 30
1.0000000000000000E+020
  9
$PEXTMAX
 10
-1.0000000000000000E+020
 20
-1.0000000000000000E+020
 30
-1.0000000000000000E+020
  9
$PLIMMIN
 10
0.0
 20
0.0
  9
$PLIMMAX
 10
12.0
 20
9.0
  9
$UNITMODE
 70
     0
  9
$VISRETAIN
 70
     1
  9
$PLINEGEN
 70
     0
  9
$PSLTSCALE
 70
     1
  0
ENDSEC
  0
SECTION
  2
TABLES
  0
TABLE
  2
VPORT
 70
     2
  0
VPORT
  2
*ACTIVE
 70
     0
 10
0.0
 20
0.0
 11
1.0
 21
1.0
 12
5.5026350432773361
 22
4.250009952891701
 13
0.0
 23
0.0
 14
0.5
 24
0.5
 15
0.5
 25
0.5
 16
0.0
 26
0.0
 36
1.0
 17
0.0
 27
0.0
 37
0.0
 40
8.6112542172538511
 41
2.1727078891257992
 42
50.0
 43
0.0
 44
0.0
 50
0.0
 51
0.0
 71
     0
 72
 20000
 73
     1
 74
     2
 75
     0
 76
     0
 77
     0
 78
     0
  0
ENDTAB
  0
TABLE
  2
LTYPE
 70
     2
  0
LTYPE
  2
CONTINUOUS
 70
     0
  3
Solid line
 72
    65
 73
     0
 40
0.0
  0
LTYPE
  2
HIDDEN
 70
     0
  3
Hidden __ __ __ __ __ __ __ __ __ __ __ __ __ _
 72
    65
 73
     2
 40
0.375
 49
0.25
 49
-0.125
  0
ENDTAB
  0
TABLE
  2
LAYER
 70
     5
  0
LAYER
  2
0
 70
     0
 62
     7
  6
CONTINUOUS
  0
LAYER
  2
FORM
 70
     0
 62
     5
  6
CONTINUOUS
  0
LAYER
  2
DIMENSIONS
 70
     0
 62
     1
  6
CONTINUOUS
  0
LAYER
  2
SHOULDER_-_STABALIZER
 70
     0
 62
     7
  6
CONTINUOUS
  0
LAYER
  2
DEFPOINTS
 70
     0
 62
     7
  6
CONTINUOUS
  0
ENDTAB
  0
TABLE
  2
STYLE
 70
     1
  0
STYLE
  2
STANDARD
 70
     0
 40
0.0
 41
1.0
 50
0.0
 71
     0
 42
0.1875
  3
simplex.shx
  4

  0
ENDTAB
  0
TABLE
  2
VIEW
 70
     0
  0
ENDTAB
  0
TABLE
  2
UCS
 70
     0
  0
ENDTAB
  0
TABLE
  2
APPID
 70
     2
  0
APPID
  2
ACAD
 70
     0
  0
APPID
  2
DCO15
 70
     0
  0
ENDTAB
  0
TABLE
  2
DIMSTYLE
 70
     1
  0
DIMSTYLE
  2
STANDARD
 70
     0
  3

  4

  5

  6

  7

 40
1.0
 41
0.125
 42
0.03125
 43
0.5
 44
0.03125
 45
0.0
 46
0.0
 47
0.0
 48
0.0
140
0.125
141
0.0
142
0.0
143
25.399999999999999
144
1.0
145
0.0
146
1.0
147
0.0625
 71
     0
 72
     0
 73
     1
 74
     1
 75
     0
 76
     0
 77
     0
 78
     0
170
     0
171
     2
172
     0
173
     0
174
     0
175
     0
176
     0
177
     0
178
     0
  0
ENDTAB
  0
ENDSEC
  0
SECTION
  2
BLOCKS
  0
BLOCK
  8
0
  2
$MODEL_SPACE
 70
     0
 10
0.0
 20
0.0
 30
0.0
  3
$MODEL_SPACE
  1

  0
ENDBLK
  5
21
  8
0
  0
BLOCK
 67
     1
  8
0
  2
$PAPER_SPACE
 70
     0
 10
0.0
 20
0.0
 30
0.0
  3
$PAPER_SPACE
  1

  0
ENDBLK
  5
1D
 67
     1
  8
0
  0
ENDSEC
  0
SECTION
  2
ENTITIES
  0
CIRCLE
  5
2DE
  8
SHOULDER_-_STABALIZER
 10
8.0054742062064062
 20
4.4190540414096757
 30
0.0
 40
0.375
  0
ARC
  5
2E2
  8
SHOULDER_-_STABALIZER
 10
8.0054742062064062
 20
3.578054041409676
 30
0.0
 40
0.25
 50
128.608827695413
 51
231.391172304587
  0
LINE
  5
2ED
  8
SHOULDER_-_STABALIZER
 10
4.8865251841948272
 20
2.8956084732257121
 30
0.0
 11
4.8865251841948272
 21
4.0440540414096748
 31
0.0
  0
LINE
  5
2EE
  8
SHOULDER_-_STABALIZER
 10
3.6365251841948272
 20
2.8956084732257121
 30
0.0
 11
3.6365251841948272
 21
4.0440540414096731
 31
0.0
  0
LINE
  5
2F0
  8
SHOULDER_-_STABALIZER
 10
3.9485251841948279
 20
2.8956084732257121
 30
0.0
 11
3.9485251841948239
 21
3.4840540414096739
 31
0.0
  0
LINE
  5
2F2
  8
SHOULDER_-_STABALIZER
 10
4.574525184194826
 20
2.8956084732257121
 30
0.0
 11
4.574525184194826
 21
3.4840540414096761
 31
0.0
  0
LINE
  5
2F3
  8
SHOULDER_-_STABALIZER
 10
4.9175251841948251
 20
4.0440540414096757
 30
0.0
 11
4.9175251841948286
 21
4.7940540414096757
 31
0.0
  0
LINE
  5
2F4
  8
SHOULDER_-_STABALIZER
 10
3.6055251841948279
 20
4.0440540414096748
 30
0.0
 11
3.6055251841948279
 21
4.7940540414096757
 31
0.0
  0
LINE
  5
2F5
  8
SHOULDER_-_STABALIZER
 10
8.1614742062064067
 20
4.078042311406147
 30
0.0
 11
8.1614742062064067
 21
2.7780540414096748
 31
0.0
  0
LINE
  5
2F6
  8
SHOULDER_-_STABALIZER
 10
7.8494742062064091
 20
4.078042311406147
 30
0.0
 11
7.8494742062064091
 21
3.0131629050417472
 31
0.0
  0
LINE
  5
2F7
  8
SHOULDER_-_STABALIZER
 10
4.9175251841948251
 20
4.0440540414096757
 30
0.0
 11
4.8865251841948272
 21
4.0440540414096748
 31
0.0
  0
LINE
  5
2F8
  8
SHOULDER_-_STABALIZER
 10
4.9175251841948286
 20
4.7940540414096757
 30
0.0
 11
4.5235251841948267
 21
4.7940540414096757
 31
0.0
  0
LINE
  5
2FA
  8
SHOULDER_-_STABALIZER
 10
4.3935251841948277
 20
3.8280540414096751
 30
0.0
 11
4.1295251841948248
 21
3.828054041409676
 31
0.0
  0
LINE
  5
2FB
  8
SHOULDER_-_STABALIZER
 10
4.3935251841948277
 20
3.3280540414096742
 30
0.0
 11
4.1295251841948248
 21
3.3280540414096751
 31
0.0
  0
LINE
  5
2FC
  8
SHOULDER_-_STABALIZER
 10
4.3935251841948277
 20
3.3280540414096751
 30
0.0
 11
4.3935251841948277
 21
3.828054041409676
 31
0.0
  0
LINE
  5
2FD
  8
SHOULDER_-_STABALIZER
 10
4.1295251841948248
 20
3.3280540414096751
 30
0.0
 11
4.1295251841948293
 21
3.828054041409676
 31
0.0
  0
LINE
  5
2FE
  8
SHOULDER_-_STABALIZER
 10
4.4805251841948284
 20
3.359054041409677
 30
0.0
 11
4.4805251841948284
 21
3.7970540414096758
 31
0.0
  0
LINE
  5
2FF
  8
SHOULDER_-_STABALIZER
 10
4.0425251841948251
 20
3.359054041409677
 30
0.0
 11
4.0425251841948286
 21
3.7970540414096758
 31
0.0
  0
LINE
  5
300
  8
SHOULDER_-_STABALIZER
 10
4.4805251841948284
 20
3.7970540414096758
 30
0.0
 11
4.3935251841948277
 21
3.7970540414096758
 31
0.0
  0
LINE
  5
301
  8
SHOULDER_-_STABALIZER
 10
4.4805251841948284
 20
3.3590540414096748
 30
0.0
 11
4.3935251841948277
 21
3.3590540414096761
 31
0.0
  0
LINE
  5
302
  8
SHOULDER_-_STABALIZER
 10
4.1295251841948293
 20
3.7970540414096758
 30
0.0
 11
4.0425251841948251
 21
3.7970540414096772
 31
0.0
  0
LINE
  5
303
  8
SHOULDER_-_STABALIZER
 10
4.1295251841948248
 20
3.3590540414096761
 30
0.0
 11
4.0425251841948251
 21
3.359054041409677
 31
0.0
  0
LINE
  5
304
  8
SHOULDER_-_STABALIZER
 10
4.574525184194826
 20
3.6720540414096772
 30
0.0
 11
4.4805251841948284
 21
3.6720540414096772
 31
0.0
  0
LINE
  5
305
  8
SHOULDER_-_STABALIZER
 10
4.574525184194826
 20
3.4840540414096761
 30
0.0
 11
4.4805251841948284
 21
3.4840540414096761
 31
0.0
  0
LINE
  5
306
  8
SHOULDER_-_STABALIZER
 10
4.0425251841948251
 20
3.4840540414096761
 30
0.0
 11
3.9485251841948239
 21
3.4840540414096748
 31
0.0
  0
LINE
  5
307
  8
SHOULDER_-_STABALIZER
 10
4.0425251841948251
 20
3.6720540414096772
 30
0.0
 11
3.9485251841948239
 21
3.6720540414096758
 31
0.0
  0
LINE
  5
308
  8
SHOULDER_-_STABALIZER
 10
4.574525184194826
 20
3.6720540414096772
 30
0.0
 11
4.574525184194826
 21
4.0440540414096731
 31
0.0
  0
LINE
  5
309
  8
SHOULDER_-_STABALIZER
 10
3.9485251841948239
 20
3.672054041409675
 30
0.0
 11
3.9485251841948279
 21
4.0440540414096731
 31
0.0
  0
LINE
  5
30A
  8
SHOULDER_-_STABALIZER
 10
4.574525184194826
 20
4.0440540414096757
 30
0.0
 11
4.5235251841948267
 21
4.0440540414096757
 31
0.0
  0
LINE
  5
30B
  8
SHOULDER_-_STABALIZER
 10
3.6365251841948272
 20
4.0440540414096748
 30
0.0
 11
3.6055251841948279
 21
4.0440540414096748
 31
0.0
  0
LINE
  5
30D
  8
SHOULDER_-_STABALIZER
 10
8.1614742062064067
 20
2.7780540414096762
 30
0.0
 11
7.8494742062064091
 21
3.0131629050417472
 31
0.0
  0
POLYLINE
  5
311
  8
SHOULDER_-_STABALIZER
 10
3.6365251841948263
 20
2.8956084732257108
 30
0.0
 66
     1
 70
     8
  0
VERTEX
  8
SHOULDER_-_STABALIZER
  5
C72
 10
3.63653
 20
2.89561
 30
0.000000
  70
    32
  0
VERTEX
  8
SHOULDER_-_STABALIZER
  5
C73
 10
3.63671
 20
2.88984
 30
0.000000
  70
    32
  0
VERTEX
  8
SHOULDER_-_STABALIZER
  5
C74
 10
3.63728
 20
2.88409
 30
0.000000
  70
    32
  0
VERTEX
  8
SHOULDER_-_STABALIZER
  5
C75
 10
3.63821
 20
2.87836
 30
0.000000
  70
    32
  0
VERTEX
  8
SHOULDER_-_STABALIZER
  5
C76
 10
3.63952
 20
2.87267
 30
0.000000
  70
    32
  0
VERTEX
  8
SHOULDER_-_STABALIZER
  5
C77
 10
3.64120
 20
2.86705
 30
0.000000
  70
    32
  0
VERTEX
  8
SHOULDER_-_STABALIZER
  5
C78
 10
3.64324
 20
2.86148
 30
0.000000
  70
    32
  0
VERTEX
  8
SHOULDER_-_STABALIZER
  5
C79
 10
3.64564
 20
2.85601
 30
0.000000
  70
    32
  0
VERTEX
  8
SHOULDER_-_STABALIZER
  5
C7A
 10
3.64840
 20
2.85062
 30
0.000000
  70
    32
  0
VERTEX
  8
SHOULDER_-_STABALIZER
  5
C7B
 10
3.65150
 20
2.84535
 30
0.000000
  70
    32
  0
VERTEX
  8
SHOULDER_-_STABALIZER
  5
C7C
 10
3.65495
 20
2.84019
 30
0.000000
  70
    32
  0
VERTEX
  8
SHOULDER_-_STABALIZER
  5
C7D
 10
3.65872
 20
2.83517
 30
0.000000
  70
    32
  0
VERTEX
  8
SHOULDER_-_STABALIZER
  5
C7E
 10
3.66282
 20
2.83030
 30
0.000000
  70
    32
  0
VERTEX
  8
SHOULDER_-_STABALIZER
  5
C7F
 10
3.66722
 20
2.82558
 30
0.000000
  70
    32
  0
VERTEX
  8
SHOULDER_-_STABALIZER
  5
C80
 10
3.67194
 20
2.82103
 30
0.000000
  70
    32
  0
VERTEX
  8
SHOULDER_-_STABALIZER
  5
C81
 10
3.67694
 20
2.81666
 30
0.000000
  70
    32
  0
VERTEX
  8
SHOULDER_-_STABALIZER
  5
C82
 10
3.68222
 20
2.81248
 30
0.000000
  70
    32
  0
VERTEX
  8
SHOULDER_-_STABALIZER
  5
C83
 10
3.68776
 20
2.80851
 30
0.000000
  70
    32
  0
VERTEX
  8
SHOULDER_-_STABALIZER
  5
C84
 10
3.69356
 20
2.80474
 30
0.000000
  70
    32
  0
VERTEX
  8
SHOULDER_-_STABALIZER
  5
C85
 10
3.69960
 20
2.80119
 30
0.000000
  70
    32
  0
VERTEX
  8
SHOULDER_-_STABALIZER
  5
C86
 10
3.70586
 20
2.79787
 30
0.000000
  70
    32
  0
VERTEX
  8
SHOULDER_-_STABALIZER
  5
C87
 10
3.71233
 20
2.79478
 30
0.000000
  70
    32
  0
VERTEX
  8
SHOULDER_-_STABALIZER
  5
C88
 10
3.71899
 20
2.79193
 30
0.000000
  70
    32
  0
VERTEX
  8
SHOULDER_-_STABALIZER
  5
C89
 10
3.72583
 20
2.78934
 30
0.000000
  70
    32
  0
VERTEX
  8
SHOULDER_-_STABALIZER
  5
C8A
 10
3.73283
 20
2.78700
 30
0.000000
  70
    32
  0
VERTEX
  8
SHOULDER_-_STABALIZER
  5
C8B
 10
3.73997
 20
2.78493
 30
0.000000
  70
    32
  0
VERTEX
  8
SHOULDER_-_STABALIZER
  5
C8C
 10
3.74724
 20
2.78312
 30
0.000000
  70
    32
  0
VERTEX
  8
SHOULDER_-_STABALIZER
  5
C8D
 10
3.75462
 20
2.78158
 30
0.000000
  70
    32
  0
VERTEX
  8
SHOULDER_-_STABALIZER
  5
C8E
 10
3.76209
 20
2.78031
 30
0.000000
  70
    32
  0
VERTEX
  8
SHOULDER_-_STABALIZER
  5
C8F
 10
3.76964
 20
2.77933
 30
0.000000
  70
    32
  0
VERTEX
  8
SHOULDER_-_STABALIZER
  5
C90
 10
3.77723
 20
2.77862
 30
0.000000
  70
    32
  0
VERTEX
  8
SHOULDER_-_STABALIZER
  5
C91
 10
3.78487
 20
2.77820
 30
0.000000
  70
    32
  0
VERTEX
  8
SHOULDER_-_STABALIZER
  5
C92
 10
3.79253
 20
2.77805
 30
0.000000
  70
    32
  0
VERTEX
  8
SHOULDER_-_STABALIZER
  5
C93
 10
3.80018
 20
2.77820
 30
0.000000
  70
    32
  0
VERTEX
  8
SHOULDER_-_STABALIZER
  5
C94
 10
3.80782
 20
2.77862
 30
0.000000
  70
    32
  0
VERTEX
  8
SHOULDER_-_STABALIZER
  5
C95
 10
3.81542
 20
2.77933
 30
0.000000
  70
    32
  0
VERTEX
  8
SHOULDER_-_STABALIZER
  5
C96
 10
3.82296
 20
2.78031
 30
0.000000
  70
    32
  0
VERTEX
  8
SHOULDER_-_STABALIZER
  5
C97
 10
3.83043
 20
2.78158
 30
0.000000
  70
    32
  0
VERTEX
  8
SHOULDER_-_STABALIZER
  5
C98
 10
3.83781
 20
2.78312
 30
0.000000
  70
    32
  0
VERTEX
  8
SHOULDER_-_STABALIZER
  5
C99
 10
3.84508
 20
2.78493
 30
0.000000
  70
    32
  0
VERTEX
  8
SHOULDER_-_STABALIZER
  5
C9A
 10
3.85222
 20
2.78700
 30
0.000000
  70
    32
  0
VERTEX
  8
SHOULDER_-_STABALIZER
  5
C9B
 10
3.85922
 20
2.78934
 30
0.000000
  70
    32
  0
VERTEX
  8
SHOULDER_-_STABALIZER
  5
C9C
 10
3.86606
 20
2.79193
 30
0.000000
  70
    32
  0
VERTEX
  8
SHOULDER_-_STABALIZER
  5
C9D
 10
3.87273
 20
2.79478
 30
0.000000
  70
    32
  0
VERTEX
  8
SHOULDER_-_STABALIZER
  5
C9E
 10
3.87919
 20
2.79787
 30
0.000000
  70
    32
  0
VERTEX
  8
SHOULDER_-_STABALIZER
  5
C9F
 10
3.88545
 20
2.80119
 30
0.000000
  70
    32
  0
VERTEX
  8
SHOULDER_-_STABALIZER
  5
CA0
 10
3.89149
 20
2.80474
 30
0.000000
  70
    32
  0
VERTEX
  8
SHOULDER_-_STABALIZER
  5
CA1
 10
3.89729
 20
2.80851
 30
0.000000
  70
    32
  0
VERTEX
  8
SHOULDER_-_STABALIZER
  5
CA2
 10
3.90283
 20
2.81248
 30
0.000000
  70
    32
  0
VERTEX
  8
SHOULDER_-_STABALIZER
  5
CA3
 10
3.90811
 20
2.81666
 30
0.000000
  70
    32
  0
VERTEX
  8
SHOULDER_-_STABALIZER
  5
CA4
 10
3.91311
 20
2.82103
 30
0.000000
  70
    32
  0
VERTEX
  8
SHOULDER_-_STABALIZER
  5
CA5
 10
3.91783
 20
2.82558
 30
0.000000
  70
    32
  0
VERTEX
  8
SHOULDER_-_STABALIZER
  5
CA6
 10
3.92223
 20
2.83030
 30
0.000000
  70
    32
  0
VERTEX
  8
SHOULDER_-_STABALIZER
  5
CA7
 10
3.92633
 20
2.83517
 30
0.000000
  70
    32
  0
VERTEX
  8
SHOULDER_-_STABALIZER
  5
CA8
 10
3.93010
 20
2.84019
 30
0.000000
  70
    32
  0
VERTEX
  8
SHOULDER_-_STABALIZER
  5
CA9
 10
3.93355
 20
2.84535
 30
0.000000
  70
    32
  0
VERTEX
  8
SHOULDER_-_STABALIZER
  5
CAA
 10
3.93665
 20
2.85062
 30
0.000000
  70
    32
  0
VERTEX
  8
SHOULDER_-_STABALIZER
  5
CAB
 10
3.93941
 20
2.85601
 30
0.000000
  70
    32
  0
VERTEX
  8
SHOULDER_-_STABALIZER
  5
CAC
 10
3.94181
 20
2.86148
 30
0.000000
  70
    32
  0
VERTEX
  8
SHOULDER_-_STABALIZER
  5
CAD
 10
3.94385
 20
2.86705
 30
0.000000
  70
    32
  0
VERTEX
  8
SHOULDER_-_STABALIZER
  5
CAE
 10
3.94553
 20
2.87267
 30
0.000000
  70
    32
  0
VERTEX
  8
SHOULDER_-_STABALIZER
  5
CAF
 10
3.94684
 20
2.87836
 30
0.000000
  70
    32
  0
VERTEX
  8
SHOULDER_-_STABALIZER
  5
CB0
 10
3.94777
 20
2.88409
 30
0.000000
  70
    32
  0
VERTEX
  8
SHOULDER_-_STABALIZER
  5
CB1
 10
3.94834
 20
2.88984
 30
0.000000
  70
    32
  0
VERTEX
  8
SHOULDER_-_STABALIZER
  5
CB2
 10
3.94853
 20
2.89561
 30
0.000000
  70
    32
  0
VERTEX
  8
SHOULDER_-_STABALIZER
  5
CB3
 10
3.94834
 20
2.90138
 30
0.000000
  70
    32
  0
VERTEX
  8
SHOULDER_-_STABALIZER
  5
CB4
 10
3.94777
 20
2.90713
 30
0.000000
  70
    32
  0
VERTEX
  8
SHOULDER_-_STABALIZER
  5
CB5
 10
3.94684
 20
2.91286
 30
0.000000
  70
    32
  0
VERTEX
  8
SHOULDER_-_STABALIZER
  5
CB6
 10
3.94553
 20
2.91854
 30
0.000000
  70
    32
  0
VERTEX
  8
SHOULDER_-_STABALIZER
  5
CB7
 10
3.94385
 20
2.92417
 30
0.000000
  70
    32
  0
VERTEX
  8
SHOULDER_-_STABALIZER
  5
CB8
 10
3.94181
 20
2.92973
 30
0.000000
  70
    32
  0
VERTEX
  8
SHOULDER_-_STABALIZER
  5
CB9
 10
3.93941
 20
2.93521
 30
0.000000
  70
    32
  0
VERTEX
  8
SHOULDER_-_STABALIZER
  5
CBA
 10
3.93665
 20
2.94059
 30
0.000000
  70
    32
  0
VERTEX
  8
SHOULDER_-_STABALIZER
  5
CBB
 10
3.93355
 20
2.94587
 30
0.000000
  70
    32
  0
VERTEX
  8
SHOULDER_-_STABALIZER
  5
CBC
 10
3.93010
 20
2.95102
 30
0.000000
  70
    32
  0
VERTEX
  8
SHOULDER_-_STABALIZER
  5
CBD
 10
3.92633
 20
2.95604
 30
0.000000
  70
    32
  0
VERTEX
  8
SHOULDER_-_STABALIZER
  5
CBE
 10
3.92223
 20
2.96092
 30
0.000000
  70
    32
  0
VERTEX
  8
SHOULDER_-_STABALIZER
  5
CBF
 10
3.91783
 20
2.96564
 30
0.000000
  70
    32
  0
VERTEX
  8
SHOULDER_-_STABALIZER
  5
CC0
 10
3.91311
 20
2.97018
 30
0.000000
  70
    32
  0
VERTEX
  8
SHOULDER_-_STABALIZER
  5
CC1
 10
3.90811
 20
2.97455
 30
0.000000
  70
    32
  0
VERTEX
  8
SHOULDER_-_STABALIZER
  5
CC2
 10
3.90283
 20
2.97873
 30
0.000000
  70
    32
  0
VERTEX
  8
SHOULDER_-_STABALIZER
  5
CC3
 10
3.89729
 20
2.98271
 30
0.000000
  70
    32
  0
VERTEX
  8
SHOULDER_-_STABALIZER
  5
CC4
 10
3.89149
 20
2.98648
 30
0.000000
  70
    32
  0
VERTEX
  8
SHOULDER_-_STABALIZER
  5
CC5
 10
3.88545
 20
2.99003
 30
0.000000
  70
    32
  0
VERTEX
  8
SHOULDER_-_STABALIZER
  5
CC6
 10
3.87919
 20
2.99335
 30
0.000000
  70
    32
  0
VERTEX
  8
SHOULDER_-_STABALIZER
  5
CC7
 10
3.87273
 20
2.99644
 30
0.000000
  70
    32
  0
VERTEX
  8
SHOULDER_-_STABALIZER
  5
CC8
 10
3.86606
 20
2.99928
 30
0.000000
  70
    32
  0
VERTEX
  8
SHOULDER_-_STABALIZER
  5
CC9
 10
3.85922
 20
3.00188
 30
0.000000
  70
    32
  0
VERTEX
  8
SHOULDER_-_STABALIZER
  5
CCA
 10
3.85222
 20
3.00421
 30
0.000000
  70
    32
  0
VERTEX
  8
SHOULDER_-_STABALIZER
  5
CCB
 10
3.84508
 20
3.00629
 30
0.000000
  70
    32
  0
VERTEX
  8
SHOULDER_-_STABALIZER
  5
CCC
 10
3.83781
 20
3.00810
 30
0.000000
  70
    32
  0
VERTEX
  8
SHOULDER_-_STABALIZER
  5
CCD
 10
3.83043
 20
3.00964
 30
0.000000
  70
    32
  0
VERTEX
  8
SHOULDER_-_STABALIZER
  5
CCE
 10
3.82296
 20
3.01090
 30
0.000000
  70
    32
  0
VERTEX
  8
SHOULDER_-_STABALIZER
  5
CCF
 10
3.81542
 20
3.01189
 30
0.000000
  70
    32
  0
VERTEX
  8
SHOULDER_-_STABALIZER
  5
CD0
 10
3.80782
 20
3.01260
 30
0.000000
  70
    32
  0
VERTEX
  8
SHOULDER_-_STABALIZER
  5
CD1
 10
3.80018
 20
3.01302
 30
0.000000
  70
    32
  0
VERTEX
  8
SHOULDER_-_STABALIZER
  5
CD2
 10
3.79253
 20
3.01316
 30
0.000000
  70
    32
  0
VERTEX
  8
SHOULDER_-_STABALIZER
  5
CD3
 10
3.78487
 20
3.01302
 30
0.000000
  70
    32
  0
VERTEX
  8
SHOULDER_-_STABALIZER
  5
CD4
 10
3.77723
 20
3.01260
 30
0.000000
  70
    32
  0
VERTEX
  8
SHOULDER_-_STABALIZER
  5
CD5
 10
3.76964
 20
3.01189
 30
0.000000
  70
    32
  0
VERTEX
  8
SHOULDER_-_STABALIZER
  5
CD6
 10
3.76209
 20
3.01090
 30
0.000000
  70
    32
  0
VERTEX
  8
SHOULDER_-_STABALIZER
  5
CD7
 10
3.75462
 20
3.00964
 30
0.000000
  70
    32
  0
VERTEX
  8
SHOULDER_-_STABALIZER
  5
CD8
 10
3.74724
 20
3.00810
 30
0.000000
  70
    32
  0
VERTEX
  8
SHOULDER_-_STABALIZER
  5
CD9
 10
3.73997
 20
3.00629
 30
0.000000
  70
    32
  0
VERTEX
  8
SHOULDER_-_STABALIZER
  5
CDA
 10
3.73283
 20
3.00421
 30
0.000000
  70
    32
  0
VERTEX
  8
SHOULDER_-_STABALIZER
  5
CDB
 10
3.72583
 20
3.00188
 30
0.000000
  70
    32
  0
VERTEX
  8
SHOULDER_-_STABALIZER
  5
CDC
 10
3.71899
 20
2.99928
 30
0.000000
  70
    32
  0
VERTEX
  8
SHOULDER_-_STABALIZER
  5
CDD
 10
3.71233
 20
2.99644
 30
0.000000
  70
    32
  0
VERTEX
  8
SHOULDER_-_STABALIZER
  5
CDE
 10
3.70586
 20
2.99335
 30
0.000000
  70
    32
  0
VERTEX
  8
SHOULDER_-_STABALIZER
  5
CDF
 10
3.69960
 20
2.99003
 30
0.000000
  70
    32
  0
VERTEX
  8
SHOULDER_-_STABALIZER
  5
CE0
 10
3.69356
 20
2.98648
 30
0.000000
  70
    32
  0
VERTEX
  8
SHOULDER_-_STABALIZER
  5
CE1
 10
3.68776
 20
2.98271
 30
0.000000
  70
    32
  0
VERTEX
  8
SHOULDER_-_STABALIZER
  5
CE2
 10
3.68222
 20
2.97873
 30
0.000000
  70
    32
  0
VERTEX
  8
SHOULDER_-_STABALIZER
  5
CE3
 10
3.67694
 20
2.97455
 30
0.000000
  70
    32
  0
VERTEX
  8
SHOULDER_-_STABALIZER
  5
CE4
 10
3.67194
 20
2.97018
 30
0.000000
  70
    32
  0
VERTEX
  8
SHOULDER_-_STABALIZER
  5
CE5
 10
3.66722
 20
2.96564
 30
0.000000
  70
    32
  0
VERTEX
  8
SHOULDER_-_STABALIZER
  5
CE6
 10
3.66282
 20
2.96092
 30
0.000000
  70
    32
  0
VERTEX
  8
SHOULDER_-_STABALIZER
  5
CE7
 10
3.65872
 20
2.95604
 30
0.000000
  70
    32
  0
VERTEX
  8
SHOULDER_-_STABALIZER
  5
CE8
 10
3.65495
 20
2.95102
 30
0.000000
  70
    32
  0
VERTEX
  8
SHOULDER_-_STABALIZER
  5
CE9
 10
3.65150
 20
2.94587
 30
0.000000
  70
    32
  0
VERTEX
  8
SHOULDER_-_STABALIZER
  5
CEA
 10
3.64840
 20
2.94059
 30
0.000000
  70
    32
  0
VERTEX
  8
SHOULDER_-_STABALIZER
  5
CEB
 10
3.64564
 20
2.93521
 30
0.000000
  70
    32
  0
VERTEX
  8
SHOULDER_-_STABALIZER
  5
CEC
 10
3.64324
 20
2.92973
 30
0.000000
  70
    32
  0
VERTEX
  8
SHOULDER_-_STABALIZER
  5
CED
 10
3.64120
 20
2.92417
 30
0.000000
  70
    32
  0
VERTEX
  8
SHOULDER_-_STABALIZER
  5
CEE
 10
3.63952
 20
2.91854
 30
0.000000
  70
    32
  0
VERTEX
  8
SHOULDER_-_STABALIZER
  5
CEF
 10
3.63821
 20
2.91286
 30
0.000000
  70
    32
  0
VERTEX
  8
SHOULDER_-_STABALIZER
  5
CF0
 10
3.63728
 20
2.90713
 30
0.000000
  70
    32
  0
VERTEX
  8
SHOULDER_-_STABALIZER
  5
CF1
 10
3.63671
 20
2.90138
 30
0.000000
  70
    32
  0
VERTEX
  8
SHOULDER_-_STABALIZER
  5
CF2
 10
3.63653
 20
2.89561
 30
0.000000
  70
    32
  0
SEQEND
  8
SHOULDER_-_STABALIZER
  5
CF3
  0
POLYLINE
  5
319
  8
SHOULDER_-_STABALIZER
 10
4.8865251841948236
 20
4.0440540414096739
 30
0.0
 66
     1
 70
     8
  0
VERTEX
  8
SHOULDER_-_STABALIZER
  5
CF4
 10
4.88653
 20
4.04405
 30
0.000000
  70
    32
  0
VERTEX
  8
SHOULDER_-_STABALIZER
  5
CF5
 10
4.88648
 20
4.04489
 30
0.000000
  70
    32
  0
VERTEX
  8
SHOULDER_-_STABALIZER
  5
CF6
 10
4.88634
 20
4.04572
 30
0.000000
  70
    32
  0
VERTEX
  8
SHOULDER_-_STABALIZER
  5
CF7
 10
4.88610
 20
4.04655
 30
0.000000
  70
    32
  0
VERTEX
  8
SHOULDER_-_STABALIZER
  5
CF8
 10
4.88577
 20
4.04739
 30
0.000000
  70
    32
  0
VERTEX
  8
SHOULDER_-_STABALIZER
  5
CF9
 10
4.88535
 20
4.04821
 30
0.000000
  70
    32
  0
VERTEX
  8
SHOULDER_-_STABALIZER
  5
CFA
 10
4.88484
 20
4.04904
 30
0.000000
  70
    32
  0
VERTEX
  8
SHOULDER_-_STABALIZER
  5
CFB
 10
4.88423
 20
4.04986
 30
0.000000
  70
    32
  0
VERTEX
  8
SHOULDER_-_STABALIZER
  5
CFC
 10
4.88353
 20
4.05068
 30
0.000000
  70
    32
  0
VERTEX
  8
SHOULDER_-_STABALIZER
  5
CFD
 10
4.88273
 20
4.05150
 30
0.000000
  70
    32
  0
VERTEX
  8
SHOULDER_-_STABALIZER
  5
CFE
 10
4.88185
 20
4.05231
 30
0.000000
  70
    32
  0
VERTEX
  8
SHOULDER_-_STABALIZER
  5
CFF
 10
4.88087
 20
4.05312
 30
0.000000
  70
    32
  0
VERTEX
  8
SHOULDER_-_STABALIZER
  5
D00
 10
4.87981
 20
4.05392
 30
0.000000
  70
    32
  0
VERTEX
  8
SHOULDER_-_STABALIZER
  5
D01
 10
4.87865
 20
4.05472
 30
0.000000
  70
    32
  0
VERTEX
  8
SHOULDER_-_STABALIZER
  5
D02
 10
4.87741
 20
4.05550
 30
0.000000
  70
    32
  0
VERTEX
  8
SHOULDER_-_STABALIZER
  5
D03
 10
4.87607
 20
4.05629
 30
0.000000
  70
    32
  0
VERTEX
  8
SHOULDER_-_STABALIZER
  5
D04
 10
4.87465
 20
4.05706
 30
0.000000
  70
    32
  0
VERTEX
  8
SHOULDER_-_STABALIZER
  5
D05
 10
4.87314
 20
4.05783
 30
0.000000
  70
    32
  0
VERTEX
  8
SHOULDER_-_STABALIZER
  5
D06
 10
4.87155
 20
4.05859
 30
0.000000
  70
    32
  0
VERTEX
  8
SHOULDER_-_STABALIZER
  5
D07
 10
4.86987
 20
4.05934
 30
0.000000
  70
    32
  0
VERTEX
  8
SHOULDER_-_STABALIZER
  5
D08
 10
4.86810
 20
4.06008
 30
0.000000
  70
    32
  0
VERTEX
  8
SHOULDER_-_STABALIZER
  5
D09
 10
4.86626
 20
4.06081
 30
0.000000
  70
    32
  0
VERTEX
  8
SHOULDER_-_STABALIZER
  5
D0A
 10
4.86433
 20
4.06153
 30
0.000000
  70
    32
  0
VERTEX
  8
SHOULDER_-_STABALIZER
  5
D0B
 10
4.86232
 20
4.06224
 30
0.000000
  70
    32
  0
VERTEX
  8
SHOULDER_-_STABALIZER
  5
D0C
 10
4.86023
 20
4.06294
 30
0.000000
  70
    32
  0
VERTEX
  8
SHOULDER_-_STABALIZER
  5
D0D
 10
4.85807
 20
4.06362
 30
0.000000
  70
    32
  0
VERTEX
  8
SHOULDER_-_STABALIZER
  5
D0E
 10
4.85583
 20
4.06430
 30
0.000000
  70
    32
  0
VERTEX
  8
SHOULDER_-_STABALIZER
  5
D0F
 10
4.85351
 20
4.06496
 30
0.000000
  70
    32
  0
VERTEX
  8
SHOULDER_-_STABALIZER
  5
D10
 10
4.85111
 20
4.06562
 30
0.000000
  70
    32
  0
VERTEX
  8
SHOULDER_-_STABALIZER
  5
D11
 10
4.84865
 20
4.06625
 30
0.000000
  70
    32
  0
VERTEX
  8
SHOULDER_-_STABALIZER
  5
D12
 10
4.84611
 20
4.06688
 30
0.000000
  70
    32
  0
VERTEX
  8
SHOULDER_-_STABALIZER
  5
D13
 10
4.84351
 20
4.06749
 30
0.000000
  70
    32
  0
VERTEX
  8
SHOULDER_-_STABALIZER
  5
D14
 10
4.84083
 20
4.06809
 30
0.000000
  70
    32
  0
VERTEX
  8
SHOULDER_-_STABALIZER
  5
D15
 10
4.83809
 20
4.06867
 30
0.000000
  70
    32
  0
VERTEX
  8
SHOULDER_-_STABALIZER
  5
D16
 10
4.83529
 20
4.06924
 30
0.000000
  70
    32
  0
VERTEX
  8
SHOULDER_-_STABALIZER
  5
D17
 10
4.83242
 20
4.06979
 30
0.000000
  70
    32
  0
VERTEX
  8
SHOULDER_-_STABALIZER
  5
D18
 10
4.82949
 20
4.07033
 30
0.000000
  70
    32
  0
VERTEX
  8
SHOULDER_-_STABALIZER
  5
D19
 10
4.82650
 20
4.07085
 30
0.000000
  70
    32
  0
VERTEX
  8
SHOULDER_-_STABALIZER
  5
D1A
 10
4.82345
 20
4.07135
 30
0.000000
  70
    32
  0
VERTEX
  8
SHOULDER_-_STABALIZER
  5
D1B
 10
4.82035
 20
4.07184
 30
0.000000
  70
    32
  0
VERTEX
  8
SHOULDER_-_STABALIZER
  5
D1C
 10
4.81719
 20
4.07231
 30
0.000000
  70
    32
  0
VERTEX
  8
SHOULDER_-_STABALIZER
  5
D1D
 10
4.81398
 20
4.07277
 30
0.000000
  70
    32
  0
VERTEX
  8
SHOULDER_-_STABALIZER
  5
D1E
 10
4.81073
 20
4.07321
 30
0.000000
  70
    32
  0
VERTEX
  8
SHOULDER_-_STABALIZER
  5
D1F
 10
4.80742
 20
4.07363
 30
0.000000
  70
    32
  0
VERTEX
  8
SHOULDER_-_STABALIZER
  5
D20
 10
4.80406
 20
4.07403
 30
0.000000
  70
    32
  0
VERTEX
  8
SHOULDER_-_STABALIZER
  5
D21
 10
4.80066
 20
4.07441
 30
0.000000
  70
    32
  0
VERTEX
  8
SHOULDER_-_STABALIZER
  5
D22
 10
4.79722
 20
4.07478
 30
0.000000
  70
    32
  0
VERTEX
  8
SHOULDER_-_STABALIZER
  5
D23
 10
4.79374
 20
4.07513
 30
0.000000
  70
    32
  0
VERTEX
  8
SHOULDER_-_STABALIZER
  5
D24
 10
4.79022
 20
4.07546
 30
0.000000
  70
    32
  0
VERTEX
  8
SHOULDER_-_STABALIZER
  5
D25
 10
4.78667
 20
4.07576
 30
0.000000
  70
    32
  0
VERTEX
  8
SHOULDER_-_STABALIZER
  5
D26
 10
4.78308
 20
4.07606
 30
0.000000
  70
    32
  0
VERTEX
  8
SHOULDER_-_STABALIZER
  5
D27
 10
4.77946
 20
4.07633
 30
0.000000
  70
    32
  0
VERTEX
  8
SHOULDER_-_STABALIZER
  5
D28
 10
4.77581
 20
4.07658
 30
0.000000
  70
    32
  0
VERTEX
  8
SHOULDER_-_STABALIZER
  5
D29
 10
4.77213
 20
4.07681
 30
0.000000
  70
    32
  0
VERTEX
  8
SHOULDER_-_STABALIZER
  5
D2A
 10
4.76843
 20
4.07702
 30
0.000000
  70
    32
  0
VERTEX
  8
SHOULDER_-_STABALIZER
  5
D2B
 10
4.76470
 20
4.07722
 30
0.000000
  70
    32
  0
VERTEX
  8
SHOULDER_-_STABALIZER
  5
D2C
 10
4.76096
 20
4.07739
 30
0.000000
  70
    32
  0
VERTEX
  8
SHOULDER_-_STABALIZER
  5
D2D
 10
4.75720
 20
4.07754
 30
0.000000
  70
    32
  0
VERTEX
  8
SHOULDER_-_STABALIZER
  5
D2E
 10
4.75342
 20
4.07767
 30
0.000000
  70
    32
  0
VERTEX
  8
SHOULDER_-_STABALIZER
  5
D2F
 10
4.74962
 20
4.07779
 30
0.000000
  70
    32
  0
VERTEX
  8
SHOULDER_-_STABALIZER
  5
D30
 10
4.74582
 20
4.07788
 30
0.000000
  70
    32
  0
VERTEX
  8
SHOULDER_-_STABALIZER
  5
D31
 10
4.74200
 20
4.07795
 30
0.000000
  70
    32
  0
VERTEX
  8
SHOULDER_-_STABALIZER
  5
D32
 10
4.73818
 20
4.07800
 30
0.000000
  70
    32
  0
VERTEX
  8
SHOULDER_-_STABALIZER
  5
D33
 10
4.73435
 20
4.07803
 30
0.000000
  70
    32
  0
VERTEX
  8
SHOULDER_-_STABALIZER
  5
D34
 10
4.73053
 20
4.07804
 30
0.000000
  70
    32
  0
VERTEX
  8
SHOULDER_-_STABALIZER
  5
D35
 10
4.72670
 20
4.07803
 30
0.000000
  70
    32
  0
VERTEX
  8
SHOULDER_-_STABALIZER
  5
D36
 10
4.72287
 20
4.07800
 30
0.000000
  70
    32
  0
VERTEX
  8
SHOULDER_-_STABALIZER
  5
D37
 10
4.71905
 20
4.07795
 30
0.000000
  70
    32
  0
VERTEX
  8
SHOULDER_-_STABALIZER
  5
D38
 10
4.71523
 20
4.07788
 30
0.000000
  70
    32
  0
VERTEX
  8
SHOULDER_-_STABALIZER
  5
D39
 10
4.71143
 20
4.07779
 30
0.000000
  70
    32
  0
VERTEX
  8
SHOULDER_-_STABALIZER
  5
D3A
 10
4.70764
 20
4.07767
 30
0.000000
  70
    32
  0
VERTEX
  8
SHOULDER_-_STABALIZER
  5
D3B
 10
4.70386
 20
4.07754
 30
0.000000
  70
    32
  0
VERTEX
  8
SHOULDER_-_STABALIZER
  5
D3C
 10
4.70009
 20
4.07739
 30
0.000000
  70
    32
  0
VERTEX
  8
SHOULDER_-_STABALIZER
  5
D3D
 10
4.69635
 20
4.07722
 30
0.000000
  70
    32
  0
VERTEX
  8
SHOULDER_-_STABALIZER
  5
D3E
 10
4.69262
 20
4.07702
 30
0.000000
  70
    32
  0
VERTEX
  8
SHOULDER_-_STABALIZER
  5
D3F
 10
4.68892
 20
4.07681
 30
0.000000
  70
    32
  0
VERTEX
  8
SHOULDER_-_STABALIZER
  5
D40
 10
4.68524
 20
4.07658
 30
0.000000
  70
    32
  0
VERTEX
  8
SHOULDER_-_STABALIZER
  5
D41
 10
4.68159
 20
4.07633
 30
0.000000
  70
    32
  0
VERTEX
  8
SHOULDER_-_STABALIZER
  5
D42
 10
4.67797
 20
4.07606
 30
0.000000
  70
    32
  0
VERTEX
  8
SHOULDER_-_STABALIZER
  5
D43
 10
4.67438
 20
4.07576
 30
0.000000
  70
    32
  0
VERTEX
  8
SHOULDER_-_STABALIZER
  5
D44
 10
4.67083
 20
4.07546
 30
0.000000
  70
    32
  0
VERTEX
  8
SHOULDER_-_STABALIZER
  5
D45
 10
4.66731
 20
4.07513
 30
0.000000
  70
    32
  0
VERTEX
  8
SHOULDER_-_STABALIZER
  5
D46
 10
4.66383
 20
4.07478
 30
0.000000
  70
    32
  0
VERTEX
  8
SHOULDER_-_STABALIZER
  5
D47
 10
4.66039
 20
4.07441
 30
0.000000
  70
    32
  0
VERTEX
  8
SHOULDER_-_STABALIZER
  5
D48
 10
4.65699
 20
4.07403
 30
0.000000
  70
    32
  0
VERTEX
  8
SHOULDER_-_STABALIZER
  5
D49
 10
4.65363
 20
4.07363
 30
0.000000
  70
    32
  0
VERTEX
  8
SHOULDER_-_STABALIZER
  5
D4A
 10
4.65033
 20
4.07321
 30
0.000000
  70
    32
  0
VERTEX
  8
SHOULDER_-_STABALIZER
  5
D4B
 10
4.64707
 20
4.07277
 30
0.000000
  70
    32
  0
VERTEX
  8
SHOULDER_-_STABALIZER
  5
D4C
 10
4.64386
 20
4.07231
 30
0.000000
  70
    32
  0
VERTEX
  8
SHOULDER_-_STABALIZER
  5
D4D
 10
4.64070
 20
4.07184
 30
0.000000
  70
    32
  0
VERTEX
  8
SHOULDER_-_STABALIZER
  5
D4E
 10
4.63760
 20
4.07135
 30
0.000000
  70
    32
  0
VERTEX
  8
SHOULDER_-_STABALIZER
  5
D4F
 10
4.63455
 20
4.07085
 30
0.000000
  70
    32
  0
VERTEX
  8
SHOULDER_-_STABALIZER
  5
D50
 10
4.63156
 20
4.07033
 30
0.000000
  70
    32
  0
VERTEX
  8
SHOULDER_-_STABALIZER
  5
D51
 10
4.62863
 20
4.06979
 30
0.000000
  70
    32
  0
VERTEX
  8
SHOULDER_-_STABALIZER
  5
D52
 10
4.62576
 20
4.06924
 30
0.000000
  70
    32
  0
VERTEX
  8
SHOULDER_-_STABALIZER
  5
D53
 10
4.62296
 20
4.06867
 30
0.000000
  70
    32
  0
VERTEX
  8
SHOULDER_-_STABALIZER
  5
D54
 10
4.62022
 20
4.06809
 30
0.000000
  70
    32
  0
VERTEX
  8
SHOULDER_-_STABALIZER
  5
D55
 10
4.61754
 20
4.06749
 30
0.000000
  70
    32
  0
VERTEX
  8
SHOULDER_-_STABALIZER
  5
D56
 10
4.61494
 20
4.06688
 30
0.000000
  70
    32
  0
VERTEX
  8
SHOULDER_-_STABALIZER
  5
D57
 10
4.61240
 20
4.06625
 30
0.000000
  70
    32
  0
VERTEX
  8
SHOULDER_-_STABALIZER
  5
D58
 10
4.60994
 20
4.06562
 30
0.000000
  70
    32
  0
VERTEX
  8
SHOULDER_-_STABALIZER
  5
D59
 10
4.60754
 20
4.06496
 30
0.000000
  70
    32
  0
VERTEX
  8
SHOULDER_-_STABALIZER
  5
D5A
 10
4.60522
 20
4.06430
 30
0.000000
  70
    32
  0
VERTEX
  8
SHOULDER_-_STABALIZER
  5
D5B
 10
4.60298
 20
4.06362
 30
0.000000
  70
    32
  0
VERTEX
  8
SHOULDER_-_STABALIZER
  5
D5C
 10
4.60082
 20
4.06294
 30
0.000000
  70
    32
  0
VERTEX
  8
SHOULDER_-_STABALIZER
  5
D5D
 10
4.59873
 20
4.06224
 30
0.000000
  70
    32
  0
VERTEX
  8
SHOULDER_-_STABALIZER
  5
D5E
 10
4.59672
 20
4.06153
 30
0.000000
  70
    32
  0
VERTEX
  8
SHOULDER_-_STABALIZER
  5
D5F
 10
4.59479
 20
4.06081
 30
0.000000
  70
    32
  0
VERTEX
  8
SHOULDER_-_STABALIZER
  5
D60
 10
4.59295
 20
4.06008
 30
0.000000
  70
    32
  0
VERTEX
  8
SHOULDER_-_STABALIZER
  5
D61
 10
4.59118
 20
4.05934
 30
0.000000
  70
    32
  0
VERTEX
  8
SHOULDER_-_STABALIZER
  5
D62
 10
4.58950
 20
4.05859
 30
0.000000
  70
    32
  0
VERTEX
  8
SHOULDER_-_STABALIZER
  5
D63
 10
4.58791
 20
4.05783
 30
0.000000
  70
    32
  0
VERTEX
  8
SHOULDER_-_STABALIZER
  5
D64
 10
4.58640
 20
4.05706
 30
0.000000
  70
    32
  0
VERTEX
  8
SHOULDER_-_STABALIZER
  5
D65
 10
4.58498
 20
4.05629
 30
0.000000
  70
    32
  0
VERTEX
  8
SHOULDER_-_STABALIZER
  5
D66
 10
4.58364
 20
4.05550
 30
0.000000
  70
    32
  0
VERTEX
  8
SHOULDER_-_STABALIZER
  5
D67
 10
4.58240
 20
4.05472
 30
0.000000
  70
    32
  0
VERTEX
  8
SHOULDER_-_STABALIZER
  5
D68
 10
4.58124
 20
4.05392
 30
0.000000
  70
    32
  0
VERTEX
  8
SHOULDER_-_STABALIZER
  5
D69
 10
4.58018
 20
4.05312
 30
0.000000
  70
    32
  0
VERTEX
  8
SHOULDER_-_STABALIZER
  5
D6A
 10
4.57920
 20
4.05231
 30
0.000000
  70
    32
  0
VERTEX
  8
SHOULDER_-_STABALIZER
  5
D6B
 10
4.57832
 20
4.05150
 30
0.000000
  70
    32
  0
VERTEX
  8
SHOULDER_-_STABALIZER
  5
D6C
 10
4.57752
 20
4.05068
 30
0.000000
  70
    32
  0
VERTEX
  8
SHOULDER_-_STABALIZER
  5
D6D
 10
4.57682
 20
4.04986
 30
0.000000
  70
    32
  0
VERTEX
  8
SHOULDER_-_STABALIZER
  5
D6E
 10
4.57621
 20
4.04904
 30
0.000000
  70
    32
  0
VERTEX
  8
SHOULDER_-_STABALIZER
  5
D6F
 10
4.57570
 20
4.04821
 30
0.000000
  70
    32
  0
VERTEX
  8
SHOULDER_-_STABALIZER
  5
D70
 10
4.57528
 20
4.04739
 30
0.000000
  70
    32
  0
VERTEX
  8
SHOULDER_-_STABALIZER
  5
D71
 10
4.57495
 20
4.04655
 30
0.000000
  70
    32
  0
VERTEX
  8
SHOULDER_-_STABALIZER
  5
D72
 10
4.57471
 20
4.04572
 30
0.000000
  70
    32
  0
VERTEX
  8
SHOULDER_-_STABALIZER
  5
D73
 10
4.57457
 20
4.04489
 30
0.000000
  70
    32
  0
VERTEX
  8
SHOULDER_-_STABALIZER
  5
D74
 10
4.57453
 20
4.04405
 30
0.000000
  70
    32
  0
SEQEND
  8
SHOULDER_-_STABALIZER
  5
D75
  0
POLYLINE
  5
31A
  8
SHOULDER_-_STABALIZER
 10
3.9485251841948248
 20
4.0440540414096731
 30
0.0
 66
     1
 70
     8
  0
VERTEX
  8
SHOULDER_-_STABALIZER
  5
D76
 10
3.94853
 20
4.04405
 30
0.000000
  70
    32
  0
VERTEX
  8
SHOULDER_-_STABALIZER
  5
D77
 10
3.94848
 20
4.04489
 30
0.000000
  70
    32
  0
VERTEX
  8
SHOULDER_-_STABALIZER
  5
D78
 10
3.94834
 20
4.04572
 30
0.000000
  70
    32
  0
VERTEX
  8
SHOULDER_-_STABALIZER
  5
D79
 10
3.94810
 20
4.04655
 30
0.000000
  70
    32
  0
VERTEX
  8
SHOULDER_-_STABALIZER
  5
D7A
 10
3.94777
 20
4.04739
 30
0.000000
  70
    32
  0
VERTEX
  8
SHOULDER_-_STABALIZER
  5
D7B
 10
3.94735
 20
4.04821
 30
0.000000
  70
    32
  0
VERTEX
  8
SHOULDER_-_STABALIZER
  5
D7C
 10
3.94684
 20
4.04904
 30
0.000000
  70
    32
  0
VERTEX
  8
SHOULDER_-_STABALIZER
  5
D7D
 10
3.94623
 20
4.04986
 30
0.000000
  70
    32
  0
VERTEX
  8
SHOULDER_-_STABALIZER
  5
D7E
 10
3.94553
 20
4.05068
 30
0.000000
  70
    32
  0
VERTEX
  8
SHOULDER_-_STABALIZER
  5
D7F
 10
3.94473
 20
4.05150
 30
0.000000
  70
    32
  0
VERTEX
  8
SHOULDER_-_STABALIZER
  5
D80
 10
3.94385
 20
4.05231
 30
0.000000
  70
    32
  0
VERTEX
  8
SHOULDER_-_STABALIZER
  5
D81
 10
3.94287
 20
4.05312
 30
0.000000
  70
    32
  0
VERTEX
  8
SHOULDER_-_STABALIZER
  5
D82
 10
3.94181
 20
4.05392
 30
0.000000
  70
    32
  0
VERTEX
  8
SHOULDER_-_STABALIZER
  5
D83
 10
3.94065
 20
4.05472
 30
0.000000
  70
    32
  0
VERTEX
  8
SHOULDER_-_STABALIZER
  5
D84
 10
3.93941
 20
4.05550
 30
0.000000
  70
    32
  0
VERTEX
  8
SHOULDER_-_STABALIZER
  5
D85
 10
3.93807
 20
4.05629
 30
0.000000
  70
    32
  0
VERTEX
  8
SHOULDER_-_STABALIZER
  5
D86
 10
3.93665
 20
4.05706
 30
0.000000
  70
    32
  0
VERTEX
  8
SHOULDER_-_STABALIZER
  5
D87
 10
3.93514
 20
4.05783
 30
0.000000
  70
    32
  0
VERTEX
  8
SHOULDER_-_STABALIZER
  5
D88
 10
3.93355
 20
4.05859
 30
0.000000
  70
    32
  0
VERTEX
  8
SHOULDER_-_STABALIZER
  5
D89
 10
3.93187
 20
4.05934
 30
0.000000
  70
    32
  0
VERTEX
  8
SHOULDER_-_STABALIZER
  5
D8A
 10
3.93010
 20
4.06008
 30
0.000000
  70
    32
  0
VERTEX
  8
SHOULDER_-_STABALIZER
  5
D8B
 10
3.92826
 20
4.06081
 30
0.000000
  70
    32
  0
VERTEX
  8
SHOULDER_-_STABALIZER
  5
D8C
 10
3.92633
 20
4.06153
 30
0.000000
  70
    32
  0
VERTEX
  8
SHOULDER_-_STABALIZER
  5
D8D
 10
3.92432
 20
4.06224
 30
0.000000
  70
    32
  0
VERTEX
  8
SHOULDER_-_STABALIZER
  5
D8E
 10
3.92223
 20
4.06294
 30
0.000000
  70
    32
  0
VERTEX
  8
SHOULDER_-_STABALIZER
  5
D8F
 10
3.92007
 20
4.06362
 30
0.000000
  70
    32
  0
VERTEX
  8
SHOULDER_-_STABALIZER
  5
D90
 10
3.91783
 20
4.06430
 30
0.000000
  70
    32
  0
VERTEX
  8
SHOULDER_-_STABALIZER
  5
D91
 10
3.91551
 20
4.06496
 30
0.000000
  70
    32
  0
VERTEX
  8
SHOULDER_-_STABALIZER
  5
D92
 10
3.91311
 20
4.06562
 30
0.000000
  70
    32
  0
VERTEX
  8
SHOULDER_-_STABALIZER
  5
D93
 10
3.91065
 20
4.06625
 30
0.000000
  70
    32
  0
VERTEX
  8
SHOULDER_-_STABALIZER
  5
D94
 10
3.90811
 20
4.06688
 30
0.000000
  70
    32
  0
VERTEX
  8
SHOULDER_-_STABALIZER
  5
D95
 10
3.90551
 20
4.06749
 30
0.000000
  70
    32
  0
VERTEX
  8
SHOULDER_-_STABALIZER
  5
D96
 10
3.90283
 20
4.06809
 30
0.000000
  70
    32
  0
VERTEX
  8
SHOULDER_-_STABALIZER
  5
D97
 10
3.90009
 20
4.06867
 30
0.000000
  70
    32
  0
VERTEX
  8
SHOULDER_-_STABALIZER
  5
D98
 10
3.89729
 20
4.06924
 30
0.000000
  70
    32
  0
VERTEX
  8
SHOULDER_-_STABALIZER
  5
D99
 10
3.89442
 20
4.06979
 30
0.000000
  70
    32
  0
VERTEX
  8
SHOULDER_-_STABALIZER
  5
D9A
 10
3.89149
 20
4.07033
 30
0.000000
  70
    32
  0
VERTEX
  8
SHOULDER_-_STABALIZER
  5
D9B
 10
3.88850
 20
4.07085
 30
0.000000
  70
    32
  0
VERTEX
  8
SHOULDER_-_STABALIZER
  5
D9C
 10
3.88545
 20
4.07135
 30
0.000000
  70
    32
  0
VERTEX
  8
SHOULDER_-_STABALIZER
  5
D9D
 10
3.88235
 20
4.07184
 30
0.000000
  70
    32
  0
VERTEX
  8
SHOULDER_-_STABALIZER
  5
D9E
 10
3.87919
 20
4.07231
 30
0.000000
  70
    32
  0
VERTEX
  8
SHOULDER_-_STABALIZER
  5
D9F
 10
3.87598
 20
4.07277
 30
0.000000
  70
    32
  0
VERTEX
  8
SHOULDER_-_STABALIZER
  5
DA0
 10
3.87273
 20
4.07321
 30
0.000000
  70
    32
  0
VERTEX
  8
SHOULDER_-_STABALIZER
  5
DA1
 10
3.86942
 20
4.07363
 30
0.000000
  70
    32
  0
VERTEX
  8
SHOULDER_-_STABALIZER
  5
DA2
 10
3.86606
 20
4.07403
 30
0.000000
  70
    32
  0
VERTEX
  8
SHOULDER_-_STABALIZER
  5
DA3
 10
3.86266
 20
4.07441
 30
0.000000
  70
    32
  0
VERTEX
  8
SHOULDER_-_STABALIZER
  5
DA4
 10
3.85922
 20
4.07478
 30
0.000000
  70
    32
  0
VERTEX
  8
SHOULDER_-_STABALIZER
  5
DA5
 10
3.85574
 20
4.07513
 30
0.000000
  70
    32
  0
VERTEX
  8
SHOULDER_-_STABALIZER
  5
DA6
 10
3.85222
 20
4.07546
 30
0.000000
  70
    32
  0
VERTEX
  8
SHOULDER_-_STABALIZER
  5
DA7
 10
3.84867
 20
4.07576
 30
0.000000
  70
    32
  0
VERTEX
  8
SHOULDER_-_STABALIZER
  5
DA8
 10
3.84508
 20
4.07606
 30
0.000000
  70
    32
  0
VERTEX
  8
SHOULDER_-_STABALIZER
  5
DA9
 10
3.84146
 20
4.07633
 30
0.000000
  70
    32
  0
VERTEX
  8
SHOULDER_-_STABALIZER
  5
DAA
 10
3.83781
 20
4.07658
 30
0.000000
  70
    32
  0
VERTEX
  8
SHOULDER_-_STABALIZER
  5
DAB
 10
3.83413
 20
4.07681
 30
0.000000
  70
    32
  0
VERTEX
  8
SHOULDER_-_STABALIZER
  5
DAC
 10
3.83043
 20
4.07702
 30
0.000000
  70
    32
  0
VERTEX
  8
SHOULDER_-_STABALIZER
  5
DAD
 10
3.82670
 20
4.07722
 30
0.000000
  70
    32
  0
VERTEX
  8
SHOULDER_-_STABALIZER
  5
DAE
 10
3.82296
 20
4.07739
 30
0.000000
  70
    32
  0
VERTEX
  8
SHOULDER_-_STABALIZER
  5
DAF
 10
3.81920
 20
4.07754
 30
0.000000
  70
    32
  0
VERTEX
  8
SHOULDER_-_STABALIZER
  5
DB0
 10
3.81542
 20
4.07767
 30
0.000000
  70
    32
  0
VERTEX
  8
SHOULDER_-_STABALIZER
  5
DB1
 10
3.81162
 20
4.07779
 30
0.000000
  70
    32
  0
VERTEX
  8
SHOULDER_-_STABALIZER
  5
DB2
 10
3.80782
 20
4.07788
 30
0.000000
  70
    32
  0
VERTEX
  8
SHOULDER_-_STABALIZER
  5
DB3
 10
3.80400
 20
4.07795
 30
0.000000
  70
    32
  0
VERTEX
  8
SHOULDER_-_STABALIZER
  5
DB4
 10
3.80018
 20
4.07800
 30
0.000000
  70
    32
  0
VERTEX
  8
SHOULDER_-_STABALIZER
  5
DB5
 10
3.79635
 20
4.07803
 30
0.000000
  70
    32
  0
VERTEX
  8
SHOULDER_-_STABALIZER
  5
DB6
 10
3.79253
 20
4.07804
 30
0.000000
  70
    32
  0
VERTEX
  8
SHOULDER_-_STABALIZER
  5
DB7
 10
3.78870
 20
4.07803
 30
0.000000
  70
    32
  0
VERTEX
  8
SHOULDER_-_STABALIZER
  5
DB8
 10
3.78487
 20
4.07800
 30
0.000000
  70
    32
  0
VERTEX
  8
SHOULDER_-_STABALIZER
  5
DB9
 10
3.78105
 20
4.07795
 30
0.000000
  70
    32
  0
VERTEX
  8
SHOULDER_-_STABALIZER
  5
DBA
 10
3.77723
 20
4.07788
 30
0.000000
  70
    32
  0
VERTEX
  8
SHOULDER_-_STABALIZER
  5
DBB
 10
3.77343
 20
4.07779
 30
0.000000
  70
    32
  0
VERTEX
  8
SHOULDER_-_STABALIZER
  5
DBC
 10
3.76964
 20
4.07767
 30
0.000000
  70
    32
  0
VERTEX
  8
SHOULDER_-_STABALIZER
  5
DBD
 10
3.76586
 20
4.07754
 30
0.000000
  70
    32
  0
VERTEX
  8
SHOULDER_-_STABALIZER
  5
DBE
 10
3.76209
 20
4.07739
 30
0.000000
  70
    32
  0
VERTEX
  8
SHOULDER_-_STABALIZER
  5
DBF
 10
3.75835
 20
4.07722
 30
0.000000
  70
    32
  0
VERTEX
  8
SHOULDER_-_STABALIZER
  5
DC0
 10
3.75462
 20
4.07702
 30
0.000000
  70
    32
  0
VERTEX
  8
SHOULDER_-_STABALIZER
  5
DC1
 10
3.75092
 20
4.07681
 30
0.000000
  70
    32
  0
VERTEX
  8
SHOULDER_-_STABALIZER
  5
DC2
 10
3.74724
 20
4.07658
 30
0.000000
  70
    32
  0
VERTEX
  8
SHOULDER_-_STABALIZER
  5
DC3
 10
3.74359
 20
4.07633
 30
0.000000
  70
    32
  0
VERTEX
  8
SHOULDER_-_STABALIZER
  5
DC4
 10
3.73997
 20
4.07606
 30
0.000000
  70
    32
  0
VERTEX
  8
SHOULDER_-_STABALIZER
  5
DC5
 10
3.73638
 20
4.07576
 30
0.000000
  70
    32
  0
VERTEX
  8
SHOULDER_-_STABALIZER
  5
DC6
 10
3.73283
 20
4.07546
 30
0.000000
  70
    32
  0
VERTEX
  8
SHOULDER_-_STABALIZER
  5
DC7
 10
3.72931
 20
4.07513
 30
0.000000
  70
    32
  0
VERTEX
  8
SHOULDER_-_STABALIZER
  5
DC8
 10
3.72583
 20
4.07478
 30
0.000000
  70
    32
  0
VERTEX
  8
SHOULDER_-_STABALIZER
  5
DC9
 10
3.72239
 20
4.07441
 30
0.000000
  70
    32
  0
VERTEX
  8
SHOULDER_-_STABALIZER
  5
DCA
 10
3.71899
 20
4.07403
 30
0.000000
  70
    32
  0
VERTEX
  8
SHOULDER_-_STABALIZER
  5
DCB
 10
3.71563
 20
4.07363
 30
0.000000
  70
    32
  0
VERTEX
  8
SHOULDER_-_STABALIZER
  5
DCC
 10
3.71233
 20
4.07321
 30
0.000000
  70
    32
  0
VERTEX
  8
SHOULDER_-_STABALIZER
  5
DCD
 10
3.70907
 20
4.07277
 30
0.000000
  70
    32
  0
VERTEX
  8
SHOULDER_-_STABALIZER
  5
DCE
 10
3.70586
 20
4.07231
 30
0.000000
  70
    32
  0
VERTEX
  8
SHOULDER_-_STABALIZER
  5
DCF
 10
3.70270
 20
4.07184
 30
0.000000
  70
    32
  0
VERTEX
  8
SHOULDER_-_STABALIZER
  5
DD0
 10
3.69960
 20
4.07135
 30
0.000000
  70
    32
  0
VERTEX
  8
SHOULDER_-_STABALIZER
  5
DD1
 10
3.69655
 20
4.07085
 30
0.000000
  70
    32
  0
VERTEX
  8
SHOULDER_-_STABALIZER
  5
DD2
 10
3.69356
 20
4.07033
 30
0.000000
  70
    32
  0
VERTEX
  8
SHOULDER_-_STABALIZER
  5
DD3
 10
3.69063
 20
4.06979
 30
0.000000
  70
    32
  0
VERTEX
  8
SHOULDER_-_STABALIZER
  5
DD4
 10
3.68776
 20
4.06924
 30
0.000000
  70
    32
  0
VERTEX
  8
SHOULDER_-_STABALIZER
  5
DD5
 10
3.68496
 20
4.06867
 30
0.000000
  70
    32
  0
VERTEX
  8
SHOULDER_-_STABALIZER
  5
DD6
 10
3.68222
 20
4.06809
 30
0.000000
  70
    32
  0
VERTEX
  8
SHOULDER_-_STABALIZER
  5
DD7
 10
3.67954
 20
4.06749
 30
0.000000
  70
    32
  0
VERTEX
  8
SHOULDER_-_STABALIZER
  5
DD8
 10
3.67694
 20
4.06688
 30
0.000000
  70
    32
  0
VERTEX
  8
SHOULDER_-_STABALIZER
  5
DD9
 10
3.67440
 20
4.06625
 30
0.000000
  70
    32
  0
VERTEX
  8
SHOULDER_-_STABALIZER
  5
DDA
 10
3.67194
 20
4.06562
 30
0.000000
  70
    32
  0
VERTEX
  8
SHOULDER_-_STABALIZER
  5
DDB
 10
3.66954
 20
4.06496
 30
0.000000
  70
    32
  0
VERTEX
  8
SHOULDER_-_STABALIZER
  5
DDC
 10
3.66722
 20
4.06430
 30
0.000000
  70
    32
  0
VERTEX
  8
SHOULDER_-_STABALIZER
  5
DDD
 10
3.66498
 20
4.06362
 30
0.000000
  70
    32
  0
VERTEX
  8
SHOULDER_-_STABALIZER
  5
DDE
 10
3.66282
 20
4.06294
 30
0.000000
  70
    32
  0
VERTEX
  8
SHOULDER_-_STABALIZER
  5
DDF
 10
3.66073
 20
4.06224
 30
0.000000
  70
    32
  0
VERTEX
  8
SHOULDER_-_STABALIZER
  5
DE0
 10
3.65872
 20
4.06153
 30
0.000000
  70
    32
  0
VERTEX
  8
SHOULDER_-_STABALIZER
  5
DE1
 10
3.65679
 20
4.06081
 30
0.000000
  70
    32
  0
VERTEX
  8
SHOULDER_-_STABALIZER
  5
DE2
 10
3.65495
 20
4.06008
 30
0.000000
  70
    32
  0
VERTEX
  8
SHOULDER_-_STABALIZER
  5
DE3
 10
3.65318
 20
4.05934
 30
0.000000
  70
    32
  0
VERTEX
  8
SHOULDER_-_STABALIZER
  5
DE4
 10
3.65150
 20
4.05859
 30
0.000000
  70
    32
  0
VERTEX
  8
SHOULDER_-_STABALIZER
  5
DE5
 10
3.64991
 20
4.05783
 30
0.000000
  70
    32
  0
VERTEX
  8
SHOULDER_-_STABALIZER
  5
DE6
 10
3.64840
 20
4.05706
 30
0.000000
  70
    32
  0
VERTEX
  8
SHOULDER_-_STABALIZER
  5
DE7
 10
3.64698
 20
4.05629
 30
0.000000
  70
    32
  0
VERTEX
  8
SHOULDER_-_STABALIZER
  5
DE8
 10
3.64564
 20
4.05550
 30
0.000000
  70
    32
  0
VERTEX
  8
SHOULDER_-_STABALIZER
  5
DE9
 10
3.64440
 20
4.05472
 30
0.000000
  70
    32
  0
VERTEX
  8
SHOULDER_-_STABALIZER
  5
DEA
 10
3.64324
 20
4.05392
 30
0.000000
  70
    32
  0
VERTEX
  8
SHOULDER_-_STABALIZER
  5
DEB
 10
3.64218
 20
4.05312
 30
0.000000
  70
    32
  0
VERTEX
  8
SHOULDER_-_STABALIZER
  5
DEC
 10
3.64120
 20
4.05231
 30
0.000000
  70
    32
  0
VERTEX
  8
SHOULDER_-_STABALIZER
  5
DED
 10
3.64032
 20
4.05150
 30
0.000000
  70
    32
  0
VERTEX
  8
SHOULDER_-_STABALIZER
  5
DEE
 10
3.63952
 20
4.05068
 30
0.000000
  70
    32
  0
VERTEX
  8
SHOULDER_-_STABALIZER
  5
DEF
 10
3.63882
 20
4.04986
 30
0.000000
  70
    32
  0
VERTEX
  8
SHOULDER_-_STABALIZER
  5
DF0
 10
3.63821
 20
4.04904
 30
0.000000
  70
    32
  0
VERTEX
  8
SHOULDER_-_STABALIZER
  5
DF1
 10
3.63770
 20
4.04821
 30
0.000000
  70
    32
  0
VERTEX
  8
SHOULDER_-_STABALIZER
  5
DF2
 10
3.63728
 20
4.04739
 30
0.000000
  70
    32
  0
VERTEX
  8
SHOULDER_-_STABALIZER
  5
DF3
 10
3.63695
 20
4.04655
 30
0.000000
  70
    32
  0
VERTEX
  8
SHOULDER_-_STABALIZER
  5
DF4
 10
3.63671
 20
4.04572
 30
0.000000
  70
    32
  0
VERTEX
  8
SHOULDER_-_STABALIZER
  5
DF5
 10
3.63657
 20
4.04489
 30
0.000000
  70
    32
  0
VERTEX
  8
SHOULDER_-_STABALIZER
  5
DF6
 10
3.63653
 20
4.04405
 30
0.000000
  70
    32
  0
SEQEND
  8
SHOULDER_-_STABALIZER
  5
DF7
  0
ARC
  5
31D
  8
SHOULDER_-_STABALIZER
 10
8.0054742062064062
 20
3.578054041409676
 30
0.0
 40
0.2189999999999999
 50
135.4247074863045
 51
224.5752925136955
  0
ARC
  5
31E
  8
SHOULDER_-_STABALIZER
 10
8.0054742062064062
 20
3.578054041409676
 30
0.0
 40
0.25
 50
308.60882769541308
 51
51.39117230458686
  0
ARC
  5
31F
  8
SHOULDER_-_STABALIZER
 10
8.0054742062064062
 20
3.578054041409676
 30
0.0
 40
0.2189999999999999
 50
315.42470748630473
 51
44.57529251369531
  0
CIRCLE
  5
324
  8
SHOULDER_-_STABALIZER
  6
HIDDEN
 10
8.0054742062064062
 20
3.578054041409676
 30
0.0
 40
0.094
  0
ARC
  5
325
  8
SHOULDER_-_STABALIZER
  6
HIDDEN
 10
8.0054742062064062
 20
3.578054041409676
 30
0.0
 40
0.2189999999999999
 50
233.07889605442651
 51
306.92110394557409
  0
ARC
  5
326
  8
SHOULDER_-_STABALIZER
  6
HIDDEN
 10
8.0054742062064062
 20
3.578054041409676
 30
0.0
 40
0.25
 50
237.44604625166619
 51
301.75082096826412
  0
ARC
  5
327
  8
SHOULDER_-_STABALIZER
  6
HIDDEN
 10
8.0054742062064062
 20
3.578054041409676
 30
0.0
 40
0.2189999999999999
 50
53.078896054425861
 51
126.92110394557351
  0
ARC
  5
328
  8
SHOULDER_-_STABALIZER
  6
HIDDEN
 10
8.0054742062064062
 20
3.578054041409676
 30
0.0
 40
0.25
 50
58.249179031735871
 51
121.7508209682636
  0
CIRCLE
  5
32B
  8
SHOULDER_-_STABALIZER
  6
HIDDEN
 10
8.0054742062064062
 20
4.4190540414096757
 30
0.0
 40
0.3125
  0
LINE
  5
32F
  8
DIMENSIONS
 10
8.8804742062064062
 20
4.4190540414096757
 30
0.0
 11
8.8804742062064062
 21
4.087509071549813
 31
0.0
  0
LINE
  5
34E
  8
DIMENSIONS
 10
8.0054742062064062
 20
3.5780540414096751
 30
0.0
 11
8.9117242062064062
 21
3.578054041409676
 31
0.0
  0
LINE
  5
34F
  8
DIMENSIONS
 10
8.0367242062064062
 20
4.4190540414096757
 30
0.0
 11
8.9117242062064062
 21
4.4190540414096757
 31
0.0
  0
LINE
  5
350
  8
DIMENSIONS
 10
8.8804742062064062
 20
3.703054041409676
 30
0.0
 11
8.8804742062064062
 21
3.8735540414096761
 31
0.0
  0
SOLID
  5
352
  8
DIMENSIONS
 10
8.8596408728730722
 20
3.703054041409676
 30
0.0
 11
8.9013075395397436
 21
3.703054041409676
 31
0.0
 12
8.8804742062064062
 22
3.578054041409676
 32
0.0
 13
8.8804742062064062
 23
3.578054041409676
 33
0.0
  0
SOLID
  5
353
  8
DIMENSIONS
 10
8.8596408728730722
 20
4.2940540414096757
 30
0.0
 11
8.9013075395397436
 21
4.2940540414096757
 31
0.0
 12
8.8804742062064062
 22
4.4190540414096757
 32
0.0
 13
8.8804742062064062
 23
4.4190540414096757
 33
0.0
  0
LINE
  5
355
  8
DIMENSIONS
 10
8.1927242062064067
 20
2.7780540414096739
 30
0.0
 11
9.4117242062064062
 21
2.778054041409673
 31
0.0
  0
LINE
  5
356
  8
DIMENSIONS
 10
8.0054742062064062
 20
4.4190540414096757
 30
0.0
 11
9.4117242062064062
 21
4.4190540414096748
 31
0.0
  0
LINE
  5
357
  8
DIMENSIONS
 10
9.3804742062064062
 20
2.9030540414096739
 30
0.0
 11
9.3804742062064062
 21
3.4735540414096748
 31
0.0
  0
LINE
  5
358
  8
DIMENSIONS
 10
9.3804742062064062
 20
4.2940540414096757
 30
0.0
 11
9.3804742062064062
 21
3.7235540414096748
 31
0.0
  0
SOLID
  5
359
  8
DIMENSIONS
 10
9.3596408728730722
 20
2.9030540414096739
 30
0.0
 11
9.4013075395397436
 21
2.9030540414096739
 31
0.0
 12
9.3804742062064062
 22
2.7780540414096739
 32
0.0
 13
9.3804742062064062
 23
2.7780540414096739
 33
0.0
  0
SOLID
  5
35A
  8
DIMENSIONS
 10
9.3596408728730722
 20
4.2940540414096757
 30
0.0
 11
9.4013075395397436
 21
4.2940540414096757
 31
0.0
 12
9.3804742062064062
 22
4.4190540414096757
 32
0.0
 13
9.3804742062064062
 23
4.4190540414096757
 33
0.0
  0
TEXT
  5
35C
  8
DIMENSIONS
 10
8.6572599204921197
 20
3.9360540414096761
 30
0.0
 40
0.125
  1
0.841
  0
TEXT
  5
35D
  8
DIMENSIONS
 10
9.1691646823968824
 20
3.5360540414096762
 30
0.0
 40
0.125
  1
1.641
  0
POLYLINE
  5
35F
  8
SHOULDER_-_STABALIZER
 10
4.5745251841948251
 20
2.8956084732257108
 30
0.0
 66
     1
 70
     8
  0
VERTEX
  8
SHOULDER_-_STABALIZER
  5
DF8
 10
4.57453
 20
2.89561
 30
0.000000
  70
    32
  0
VERTEX
  8
SHOULDER_-_STABALIZER
  5
DF9
 10
4.57471
 20
2.88984
 30
0.000000
  70
    32
  0
VERTEX
  8
SHOULDER_-_STABALIZER
  5
DFA
 10
4.57528
 20
2.88409
 30
0.000000
  70
    32
  0
VERTEX
  8
SHOULDER_-_STABALIZER
  5
DFB
 10
4.57621
 20
2.87836
 30
0.000000
  70
    32
  0
VERTEX
  8
SHOULDER_-_STABALIZER
  5
DFC
 10
4.57752
 20
2.87267
 30
0.000000
  70
    32
  0
VERTEX
  8
SHOULDER_-_STABALIZER
  5
DFD
 10
4.57920
 20
2.86705
 30
0.000000
  70
    32
  0
VERTEX
  8
SHOULDER_-_STABALIZER
  5
DFE
 10
4.58124
 20
2.86148
 30
0.000000
  70
    32
  0
VERTEX
  8
SHOULDER_-_STABALIZER
  5
DFF
 10
4.58364
 20
2.85601
 30
0.000000
  70
    32
  0
VERTEX
  8
SHOULDER_-_STABALIZER
  5
E00
 10
4.58640
 20
2.85062
 30
0.000000
  70
    32
  0
VERTEX
  8
SHOULDER_-_STABALIZER
  5
E01
 10
4.58950
 20
2.84535
 30
0.000000
  70
    32
  0
VERTEX
  8
SHOULDER_-_STABALIZER
  5
E02
 10
4.59295
 20
2.84019
 30
0.000000
  70
    32
  0
VERTEX
  8
SHOULDER_-_STABALIZER
  5
E03
 10
4.59672
 20
2.83517
 30
0.000000
  70
    32
  0
VERTEX
  8
SHOULDER_-_STABALIZER
  5
E04
 10
4.60082
 20
2.83030
 30
0.000000
  70
    32
  0
VERTEX
  8
SHOULDER_-_STABALIZER
  5
E05
 10
4.60522
 20
2.82558
 30
0.000000
  70
    32
  0
VERTEX
  8
SHOULDER_-_STABALIZER
  5
E06
 10
4.60994
 20
2.82103
 30
0.000000
  70
    32
  0
VERTEX
  8
SHOULDER_-_STABALIZER
  5
E07
 10
4.61494
 20
2.81666
 30
0.000000
  70
    32
  0
VERTEX
  8
SHOULDER_-_STABALIZER
  5
E08
 10
4.62022
 20
2.81248
 30
0.000000
  70
    32
  0
VERTEX
  8
SHOULDER_-_STABALIZER
  5
E09
 10
4.62576
 20
2.80851
 30
0.000000
  70
    32
  0
VERTEX
  8
SHOULDER_-_STABALIZER
  5
E0A
 10
4.63156
 20
2.80474
 30
0.000000
  70
    32
  0
VERTEX
  8
SHOULDER_-_STABALIZER
  5
E0B
 10
4.63760
 20
2.80119
 30
0.000000
  70
    32
  0
VERTEX
  8
SHOULDER_-_STABALIZER
  5
E0C
 10
4.64386
 20
2.79787
 30
0.000000
  70
    32
  0
VERTEX
  8
SHOULDER_-_STABALIZER
  5
E0D
 10
4.65033
 20
2.79478
 30
0.000000
  70
    32
  0
VERTEX
  8
SHOULDER_-_STABALIZER
  5
E0E
 10
4.65699
 20
2.79193
 30
0.000000
  70
    32
  0
VERTEX
  8
SHOULDER_-_STABALIZER
  5
E0F
 10
4.66383
 20
2.78934
 30
0.000000
  70
    32
  0
VERTEX
  8
SHOULDER_-_STABALIZER
  5
E10
 10
4.67083
 20
2.78700
 30
0.000000
  70
    32
  0
VERTEX
  8
SHOULDER_-_STABALIZER
  5
E11
 10
4.67797
 20
2.78493
 30
0.000000
  70
    32
  0
VERTEX
  8
SHOULDER_-_STABALIZER
  5
E12
 10
4.68524
 20
2.78312
 30
0.000000
  70
    32
  0
VERTEX
  8
SHOULDER_-_STABALIZER
  5
E13
 10
4.69262
 20
2.78158
 30
0.000000
  70
    32
  0
VERTEX
  8
SHOULDER_-_STABALIZER
  5
E14
 10
4.70009
 20
2.78031
 30
0.000000
  70
    32
  0
VERTEX
  8
SHOULDER_-_STABALIZER
  5
E15
 10
4.70764
 20
2.77933
 30
0.000000
  70
    32
  0
VERTEX
  8
SHOULDER_-_STABALIZER
  5
E16
 10
4.71523
 20
2.77862
 30
0.000000
  70
    32
  0
VERTEX
  8
SHOULDER_-_STABALIZER
  5
E17
 10
4.72287
 20
2.77820
 30
0.000000
  70
    32
  0
VERTEX
  8
SHOULDER_-_STABALIZER
  5
E18
 10
4.73053
 20
2.77805
 30
0.000000
  70
    32
  0
VERTEX
  8
SHOULDER_-_STABALIZER
  5
E19
 10
4.73818
 20
2.77820
 30
0.000000
  70
    32
  0
VERTEX
  8
SHOULDER_-_STABALIZER
  5
E1A
 10
4.74582
 20
2.77862
 30
0.000000
  70
    32
  0
VERTEX
  8
SHOULDER_-_STABALIZER
  5
E1B
 10
4.75342
 20
2.77933
 30
0.000000
  70
    32
  0
VERTEX
  8
SHOULDER_-_STABALIZER
  5
E1C
 10
4.76096
 20
2.78031
 30
0.000000
  70
    32
  0
VERTEX
  8
SHOULDER_-_STABALIZER
  5
E1D
 10
4.76843
 20
2.78158
 30
0.000000
  70
    32
  0
VERTEX
  8
SHOULDER_-_STABALIZER
  5
E1E
 10
4.77581
 20
2.78312
 30
0.000000
  70
    32
  0
VERTEX
  8
SHOULDER_-_STABALIZER
  5
E1F
 10
4.78308
 20
2.78493
 30
0.000000
  70
    32
  0
VERTEX
  8
SHOULDER_-_STABALIZER
  5
E20
 10
4.79022
 20
2.78700
 30
0.000000
  70
    32
  0
VERTEX
  8
SHOULDER_-_STABALIZER
  5
E21
 10
4.79722
 20
2.78934
 30
0.000000
  70
    32
  0
VERTEX
  8
SHOULDER_-_STABALIZER
  5
E22
 10
4.80406
 20
2.79193
 30
0.000000
  70
    32
  0
VERTEX
  8
SHOULDER_-_STABALIZER
  5
E23
 10
4.81073
 20
2.79478
 30
0.000000
  70
    32
  0
VERTEX
  8
SHOULDER_-_STABALIZER
  5
E24
 10
4.81719
 20
2.79787
 30
0.000000
  70
    32
  0
VERTEX
  8
SHOULDER_-_STABALIZER
  5
E25
 10
4.82345
 20
2.80119
 30
0.000000
  70
    32
  0
VERTEX
  8
SHOULDER_-_STABALIZER
  5
E26
 10
4.82949
 20
2.80474
 30
0.000000
  70
    32
  0
VERTEX
  8
SHOULDER_-_STABALIZER
  5
E27
 10
4.83529
 20
2.80851
 30
0.000000
  70
    32
  0
VERTEX
  8
SHOULDER_-_STABALIZER
  5
E28
 10
4.84083
 20
2.81248
 30
0.000000
  70
    32
  0
VERTEX
  8
SHOULDER_-_STABALIZER
  5
E29
 10
4.84611
 20
2.81666
 30
0.000000
  70
    32
  0
VERTEX
  8
SHOULDER_-_STABALIZER
  5
E2A
 10
4.85111
 20
2.82103
 30
0.000000
  70
    32
  0
VERTEX
  8
SHOULDER_-_STABALIZER
  5
E2B
 10
4.85583
 20
2.82558
 30
0.000000
  70
    32
  0
VERTEX
  8
SHOULDER_-_STABALIZER
  5
E2C
 10
4.86023
 20
2.83030
 30
0.000000
  70
    32
  0
VERTEX
  8
SHOULDER_-_STABALIZER
  5
E2D
 10
4.86433
 20
2.83517
 30
0.000000
  70
    32
  0
VERTEX
  8
SHOULDER_-_STABALIZER
  5
E2E
 10
4.86810
 20
2.84019
 30
0.000000
  70
    32
  0
VERTEX
  8
SHOULDER_-_STABALIZER
  5
E2F
 10
4.87155
 20
2.84535
 30
0.000000
  70
    32
  0
VERTEX
  8
SHOULDER_-_STABALIZER
  5
E30
 10
4.87465
 20
2.85062
 30
0.000000
  70
    32
  0
VERTEX
  8
SHOULDER_-_STABALIZER
  5
E31
 10
4.87741
 20
2.85601
 30
0.000000
  70
    32
  0
VERTEX
  8
SHOULDER_-_STABALIZER
  5
E32
 10
4.87981
 20
2.86148
 30
0.000000
  70
    32
  0
VERTEX
  8
SHOULDER_-_STABALIZER
  5
E33
 10
4.88185
 20
2.86705
 30
0.000000
  70
    32
  0
VERTEX
  8
SHOULDER_-_STABALIZER
  5
E34
 10
4.88353
 20
2.87267
 30
0.000000
  70
    32
  0
VERTEX
  8
SHOULDER_-_STABALIZER
  5
E35
 10
4.88484
 20
2.87836
 30
0.000000
  70
    32
  0
VERTEX
  8
SHOULDER_-_STABALIZER
  5
E36
 10
4.88577
 20
2.88409
 30
0.000000
  70
    32
  0
VERTEX
  8
SHOULDER_-_STABALIZER
  5
E37
 10
4.88634
 20
2.88984
 30
0.000000
  70
    32
  0
VERTEX
  8
SHOULDER_-_STABALIZER
  5
E38
 10
4.88653
 20
2.89561
 30
0.000000
  70
    32
  0
VERTEX
  8
SHOULDER_-_STABALIZER
  5
E39
 10
4.88634
 20
2.90138
 30
0.000000
  70
    32
  0
VERTEX
  8
SHOULDER_-_STABALIZER
  5
E3A
 10
4.88577
 20
2.90713
 30
0.000000
  70
    32
  0
VERTEX
  8
SHOULDER_-_STABALIZER
  5
E3B
 10
4.88484
 20
2.91286
 30
0.000000
  70
    32
  0
VERTEX
  8
SHOULDER_-_STABALIZER
  5
E3C
 10
4.88353
 20
2.91854
 30
0.000000
  70
    32
  0
VERTEX
  8
SHOULDER_-_STABALIZER
  5
E3D
 10
4.88185
 20
2.92417
 30
0.000000
  70
    32
  0
VERTEX
  8
SHOULDER_-_STABALIZER
  5
E3E
 10
4.87981
 20
2.92973
 30
0.000000
  70
    32
  0
VERTEX
  8
SHOULDER_-_STABALIZER
  5
E3F
 10
4.87741
 20
2.93521
 30
0.000000
  70
    32
  0
VERTEX
  8
SHOULDER_-_STABALIZER
  5
E40
 10
4.87465
 20
2.94059
 30
0.000000
  70
    32
  0
VERTEX
  8
SHOULDER_-_STABALIZER
  5
E41
 10
4.87155
 20
2.94587
 30
0.000000
  70
    32
  0
VERTEX
  8
SHOULDER_-_STABALIZER
  5
E42
 10
4.86810
 20
2.95102
 30
0.000000
  70
    32
  0
VERTEX
  8
SHOULDER_-_STABALIZER
  5
E43
 10
4.86433
 20
2.95604
 30
0.000000
  70
    32
  0
VERTEX
  8
SHOULDER_-_STABALIZER
  5
E44
 10
4.86023
 20
2.96092
 30
0.000000
  70
    32
  0
VERTEX
  8
SHOULDER_-_STABALIZER
  5
E45
 10
4.85583
 20
2.96564
 30
0.000000
  70
    32
  0
VERTEX
  8
SHOULDER_-_STABALIZER
  5
E46
 10
4.85111
 20
2.97018
 30
0.000000
  70
    32
  0
VERTEX
  8
SHOULDER_-_STABALIZER
  5
E47
 10
4.84611
 20
2.97455
 30
0.000000
  70
    32
  0
VERTEX
  8
SHOULDER_-_STABALIZER
  5
E48
 10
4.84083
 20
2.97873
 30
0.000000
  70
    32
  0
VERTEX
  8
SHOULDER_-_STABALIZER
  5
E49
 10
4.83529
 20
2.98271
 30
0.000000
  70
    32
  0
VERTEX
  8
SHOULDER_-_STABALIZER
  5
E4A
 10
4.82949
 20
2.98648
 30
0.000000
  70
    32
  0
VERTEX
  8
SHOULDER_-_STABALIZER
  5
E4B
 10
4.82345
 20
2.99003
 30
0.000000
  70
    32
  0
VERTEX
  8
SHOULDER_-_STABALIZER
  5
E4C
 10
4.81719
 20
2.99335
 30
0.000000
  70
    32
  0
VERTEX
  8
SHOULDER_-_STABALIZER
  5
E4D
 10
4.81073
 20
2.99644
 30
0.000000
  70
    32
  0
VERTEX
  8
SHOULDER_-_STABALIZER
  5
E4E
 10
4.80406
 20
2.99928
 30
0.000000
  70
    32
  0
VERTEX
  8
SHOULDER_-_STABALIZER
  5
E4F
 10
4.79722
 20
3.00188
 30
0.000000
  70
    32
  0
VERTEX
  8
SHOULDER_-_STABALIZER
  5
E50
 10
4.79022
 20
3.00421
 30
0.000000
  70
    32
  0
VERTEX
  8
SHOULDER_-_STABALIZER
  5
E51
 10
4.78308
 20
3.00629
 30
0.000000
  70
    32
  0
VERTEX
  8
SHOULDER_-_STABALIZER
  5
E52
 10
4.77581
 20
3.00810
 30
0.000000
  70
    32
  0
VERTEX
  8
SHOULDER_-_STABALIZER
  5
E53
 10
4.76843
 20
3.00964
 30
0.000000
  70
    32
  0
VERTEX
  8
SHOULDER_-_STABALIZER
  5
E54
 10
4.76096
 20
3.01090
 30
0.000000
  70
    32
  0
VERTEX
  8
SHOULDER_-_STABALIZER
  5
E55
 10
4.75342
 20
3.01189
 30
0.000000
  70
    32
  0
VERTEX
  8
SHOULDER_-_STABALIZER
  5
E56
 10
4.74582
 20
3.01260
 30
0.000000
  70
    32
  0
VERTEX
  8
SHOULDER_-_STABALIZER
  5
E57
 10
4.73818
 20
3.01302
 30
0.000000
  70
    32
  0
VERTEX
  8
SHOULDER_-_STABALIZER
  5
E58
 10
4.73053
 20
3.01316
 30
0.000000
  70
    32
  0
VERTEX
  8
SHOULDER_-_STABALIZER
  5
E59
 10
4.72287
 20
3.01302
 30
0.000000
  70
    32
  0
VERTEX
  8
SHOULDER_-_STABALIZER
  5
E5A
 10
4.71523
 20
3.01260
 30
0.000000
  70
    32
  0
VERTEX
  8
SHOULDER_-_STABALIZER
  5
E5B
 10
4.70764
 20
3.01189
 30
0.000000
  70
    32
  0
VERTEX
  8
SHOULDER_-_STABALIZER
  5
E5C
 10
4.70009
 20
3.01090
 30
0.000000
  70
    32
  0
VERTEX
  8
SHOULDER_-_STABALIZER
  5
E5D
 10
4.69262
 20
3.00964
 30
0.000000
  70
    32
  0
VERTEX
  8
SHOULDER_-_STABALIZER
  5
E5E
 10
4.68524
 20
3.00810
 30
0.000000
  70
    32
  0
VERTEX
  8
SHOULDER_-_STABALIZER
  5
E5F
 10
4.67797
 20
3.00629
 30
0.000000
  70
    32
  0
VERTEX
  8
SHOULDER_-_STABALIZER
  5
E60
 10
4.67083
 20
3.00421
 30
0.000000
  70
    32
  0
VERTEX
  8
SHOULDER_-_STABALIZER
  5
E61
 10
4.66383
 20
3.00188
 30
0.000000
  70
    32
  0
VERTEX
  8
SHOULDER_-_STABALIZER
  5
E62
 10
4.65699
 20
2.99928
 30
0.000000
  70
    32
  0
VERTEX
  8
SHOULDER_-_STABALIZER
  5
E63
 10
4.65033
 20
2.99644
 30
0.000000
  70
    32
  0
VERTEX
  8
SHOULDER_-_STABALIZER
  5
E64
 10
4.64386
 20
2.99335
 30
0.000000
  70
    32
  0
VERTEX
  8
SHOULDER_-_STABALIZER
  5
E65
 10
4.63760
 20
2.99003
 30
0.000000
  70
    32
  0
VERTEX
  8
SHOULDER_-_STABALIZER
  5
E66
 10
4.63156
 20
2.98648
 30
0.000000
  70
    32
  0
VERTEX
  8
SHOULDER_-_STABALIZER
  5
E67
 10
4.62576
 20
2.98271
 30
0.000000
  70
    32
  0
VERTEX
  8
SHOULDER_-_STABALIZER
  5
E68
 10
4.62022
 20
2.97873
 30
0.000000
  70
    32
  0
VERTEX
  8
SHOULDER_-_STABALIZER
  5
E69
 10
4.61494
 20
2.97455
 30
0.000000
  70
    32
  0
VERTEX
  8
SHOULDER_-_STABALIZER
  5
E6A
 10
4.60994
 20
2.97018
 30
0.000000
  70
    32
  0
VERTEX
  8
SHOULDER_-_STABALIZER
  5
E6B
 10
4.60522
 20
2.96564
 30
0.000000
  70
    32
  0
VERTEX
  8
SHOULDER_-_STABALIZER
  5
E6C
 10
4.60082
 20
2.96092
 30
0.000000
  70
    32
  0
VERTEX
  8
SHOULDER_-_STABALIZER
  5
E6D
 10
4.59672
 20
2.95604
 30
0.000000
  70
    32
  0
VERTEX
  8
SHOULDER_-_STABALIZER
  5
E6E
 10
4.59295
 20
2.95102
 30
0.000000
  70
    32
  0
VERTEX
  8
SHOULDER_-_STABALIZER
  5
E6F
 10
4.58950
 20
2.94587
 30
0.000000
  70
    32
  0
VERTEX
  8
SHOULDER_-_STABALIZER
  5
E70
 10
4.58640
 20
2.94059
 30
0.000000
  70
    32
  0
VERTEX
  8
SHOULDER_-_STABALIZER
  5
E71
 10
4.58364
 20
2.93521
 30
0.000000
  70
    32
  0
VERTEX
  8
SHOULDER_-_STABALIZER
  5
E72
 10
4.58124
 20
2.92973
 30
0.000000
  70
    32
  0
VERTEX
  8
SHOULDER_-_STABALIZER
  5
E73
 10
4.57920
 20
2.92417
 30
0.000000
  70
    32
  0
VERTEX
  8
SHOULDER_-_STABALIZER
  5
E74
 10
4.57752
 20
2.91854
 30
0.000000
  70
    32
  0
VERTEX
  8
SHOULDER_-_STABALIZER
  5
E75
 10
4.57621
 20
2.91286
 30
0.000000
  70
    32
  0
VERTEX
  8
SHOULDER_-_STABALIZER
  5
E76
 10
4.57528
 20
2.90713
 30
0.000000
  70
    32
  0
VERTEX
  8
SHOULDER_-_STABALIZER
  5
E77
 10
4.57471
 20
2.90138
 30
0.000000
  70
    32
  0
VERTEX
  8
SHOULDER_-_STABALIZER
  5
E78
 10
4.57453
 20
2.89561
 30
0.000000
  70
    32
  0
SEQEND
  8
SHOULDER_-_STABALIZER
  5
E79
  0
LINE
  5
390
  8
DIMENSIONS
 10
3.7925251841948251
 20
2.8956084732257108
 30
0.0
 11
3.7925251841948251
 21
1.2468040414096739
 31
0.0
  0
LINE
  5
391
  8
DIMENSIONS
 10
4.7305251841948239
 20
2.8956084732257108
 30
0.0
 11
4.7305251841948239
 21
1.2468040414096739
 31
0.0
  0
LINE
  5
392
  8
DIMENSIONS
 10
3.6675251841948251
 20
1.2780540414096739
 30
0.0
 11
3.5425251841948251
 21
1.2780540414096739
 31
0.0
  0
LINE
  5
393
  8
DIMENSIONS
 10
4.8555251841948239
 20
1.2780540414096739
 30
0.0
 11
4.9805251841948239
 21
1.2780540414096739
 31
0.0
  0
SOLID
  5
394
  8
DIMENSIONS
 10
3.6675251841948251
 20
1.298887374743007
 30
0.0
 11
3.6675251841948251
 21
1.2572207080763409
 31
0.0
 12
3.7925251841948251
 22
1.2780540414096739
 32
0.0
 13
3.7925251841948251
 23
1.2780540414096739
 33
0.0
  0
SOLID
  5
395
  8
DIMENSIONS
 10
4.8555251841948239
 20
1.298887374743007
 30
0.0
 11
4.8555251841948239
 21
1.2572207080763409
 31
0.0
 12
4.7305251841948239
 22
1.2780540414096739
 32
0.0
 13
4.7305251841948239
 23
1.2780540414096739
 33
0.0
  0
TEXT
  5
397
  8
DIMENSIONS
 10
4.0115251841948272
 20
1.2155540414096739
 30
0.0
 40
0.125
  1
0.938
  0
LINE
  5
398
  8
DIMENSIONS
 10
4.0425251841948251
 20
3.327804041409677
 30
0.0
 11
4.0425251841948251
 21
1.7468040414096739
 31
0.0
  0
LINE
  5
399
  8
DIMENSIONS
 10
4.4805251841948284
 20
3.3278040414096748
 30
0.0
 11
4.4805251841948284
 21
1.7468040414096739
 31
0.0
  0
LINE
  5
39A
  8
DIMENSIONS
 10
3.9175251841948251
 20
1.7780540414096739
 30
0.0
 11
3.7925251841948251
 21
1.7780540414096739
 31
0.0
  0
LINE
  5
39B
  8
DIMENSIONS
 10
4.6055251841948284
 20
1.7780540414096739
 30
0.0
 11
4.9805251841948239
 21
1.7780540414096739
 31
0.0
  0
SOLID
  5
39C
  8
DIMENSIONS
 10
3.9175251841948251
 20
1.798887374743007
 30
0.0
 11
3.9175251841948251
 21
1.7572207080763409
 31
0.0
 12
4.0425251841948251
 22
1.7780540414096739
 32
0.0
 13
4.0425251841948251
 23
1.7780540414096739
 33
0.0
  0
SOLID
  5
39D
  8
DIMENSIONS
 10
4.6055251841948284
 20
1.798887374743007
 30
0.0
 11
4.6055251841948284
 21
1.7572207080763409
 31
0.0
 12
4.4805251841948284
 22
1.7780540414096739
 32
0.0
 13
4.4805251841948284
 23
1.7780540414096739
 33
0.0
  0
TEXT
  5
39F
  8
DIMENSIONS
 10
5.0162758598837156
 20
1.7155540414096739
 30
0.0
 40
0.125
  1
0.438
  0
LINE
  5
3A0
  8
DIMENSIONS
 10
4.1295251841948248
 20
3.2968040414096751
 30
0.0
 11
4.1295251841948248
 21
2.2468040414096739
 31
0.0
  0
LINE
  5
3A1
  8
DIMENSIONS
 10
4.3935251841948277
 20
3.2968040414096742
 30
0.0
 11
4.3935251841948277
 21
2.2468040414096739
 31
0.0
  0
LINE
  5
3A2
  8
DIMENSIONS
 10
4.0045251841948248
 20
2.2780540414096739
 30
0.0
 11
3.8795251841948248
 21
2.2780540414096739
 31
0.0
  0
LINE
  5
3A3
  8
DIMENSIONS
 10
4.5185251841948277
 20
2.2780540414096739
 30
0.0
 11
4.9805251841948239
 21
2.2780540414096739
 31
0.0
  0
SOLID
  5
3A4
  8
DIMENSIONS
 10
4.0045251841948248
 20
2.298887374743007
 30
0.0
 11
4.0045251841948248
 21
2.2572207080763409
 31
0.0
 12
4.1295251841948248
 22
2.2780540414096739
 32
0.0
 13
4.1295251841948248
 23
2.2780540414096739
 33
0.0
  0
SOLID
  5
3A5
  8
DIMENSIONS
 10
4.5185251841948277
 20
2.298887374743007
 30
0.0
 11
4.5185251841948277
 21
2.2572207080763409
 31
0.0
 12
4.3935251841948277
 22
2.2780540414096739
 32
0.0
 13
4.3935251841948277
 23
2.2780540414096739
 33
0.0
  0
TEXT
  5
3A7
  8
DIMENSIONS
 10
5.0123838781959904
 20
2.2155540414096739
 30
0.0
 40
0.125
  1
0.264
  0
LINE
  5
3AB
  8
SHOULDER_-_STABALIZER
 10
3.9995251841948298
 20
4.0440540414096757
 30
0.0
 11
3.9995251841948258
 21
4.7940540414096757
 31
0.0
  0
LINE
  5
3AC
  8
SHOULDER_-_STABALIZER
 10
4.5235251841948267
 20
4.0440540414096766
 30
0.0
 11
4.5235251841948267
 21
4.7940540414096757
 31
0.0
  0
LINE
  5
3AD
  8
SHOULDER_-_STABALIZER
 10
4.0305251841948291
 20
4.0440540414096757
 30
0.0
 11
4.0305251841948291
 21
4.7940540414096757
 31
0.0
  0
LINE
  5
3AE
  8
SHOULDER_-_STABALIZER
 10
4.4925251841948253
 20
4.0440540414096766
 30
0.0
 11
4.4925251841948279
 21
4.7940540414096757
 31
0.0
  0
LINE
  5
3AF
  8
SHOULDER_-_STABALIZER
 10
4.5235251841948267
 20
4.7315540414096739
 30
0.0
 11
4.4925251841948279
 21
4.7315540414096739
 31
0.0
  0
LINE
  5
3B0
  8
SHOULDER_-_STABALIZER
 10
3.9995251841948258
 20
4.7940540414096757
 30
0.0
 11
3.6055251841948279
 21
4.7940540414096757
 31
0.0
  0
LINE
  5
3B1
  8
SHOULDER_-_STABALIZER
 10
4.0305251841948291
 20
4.7315540414096757
 30
0.0
 11
3.9995251841948258
 21
4.7315540414096757
 31
0.0
  0
LINE
  5
3B2
  8
SHOULDER_-_STABALIZER
 10
4.4925251841948279
 20
4.7940540414096757
 30
0.0
 11
4.0305251841948246
 21
4.7940540414096757
 31
0.0
  0
LINE
  5
3B3
  8
SHOULDER_-_STABALIZER
 10
4.5235251841948267
 20
4.1065540414096748
 30
0.0
 11
4.4925251841948253
 21
4.1065540414096757
 31
0.0
  0
LINE
  5
3B4
  8
SHOULDER_-_STABALIZER
 10
4.0305251841948291
 20
4.1065540414096757
 30
0.0
 11
3.9995251841948298
 21
4.1065540414096757
 31
0.0
  0
LINE
  5
3B5
  8
SHOULDER_-_STABALIZER
 10
3.9995251841948298
 20
4.0440540414096748
 30
0.0
 11
3.9485251841948279
 21
4.0440540414096748
 31
0.0
  0
LINE
  5
3B6
  8
SHOULDER_-_STABALIZER
 10
4.4925251841948279
 20
4.0440540414096757
 30
0.0
 11
4.0305251841948291
 21
4.0440540414096748
 31
0.0
  0
LINE
  5
3F4
  8
DIMENSIONS
 10
4.9175251841948286
 20
4.8253040414096757
 30
0.0
 11
4.9175251841948286
 21
6.8253040414096757
 31
0.0
  0
LINE
  5
3F5
  8
DIMENSIONS
 10
3.6055251841948279
 20
4.8253040414096757
 30
0.0
 11
3.6055251841948279
 21
6.8253040414096757
 31
0.0
  0
LINE
  5
3F6
  8
DIMENSIONS
 10
4.7925251841948286
 20
6.7940540414096757
 30
0.0
 11
4.5502156603853052
 21
6.7940540414096757
 31
0.0
  0
LINE
  5
3F7
  8
DIMENSIONS
 10
3.7305251841948279
 20
6.7940540414096757
 30
0.0
 11
3.9728347080043491
 21
6.7940540414096757
 31
0.0
  0
SOLID
  5
3F8
  8
DIMENSIONS
 10
4.7925251841948286
 20
6.8148873747430097
 30
0.0
 11
4.7925251841948286
 21
6.7732207080763418
 31
0.0
 12
4.9175251841948286
 22
6.7940540414096757
 32
0.0
 13
4.9175251841948286
 23
6.7940540414096757
 33
0.0
  0
SOLID
  5
3F9
  8
DIMENSIONS
 10
3.7305251841948279
 20
6.8148873747430097
 30
0.0
 11
3.7305251841948279
 21
6.7732207080763418
 31
0.0
 12
3.6055251841948279
 22
6.7940540414096757
 32
0.0
 13
3.6055251841948279
 23
6.7940540414096757
 33
0.0
  0
LINE
  5
3FB
  8
DIMENSIONS
 10
4.0305251841948291
 20
4.8253040414096757
 30
0.0
 11
4.0305251841948291
 21
6.3253040414096757
 31
0.0
  0
LINE
  5
3FC
  8
DIMENSIONS
 10
4.4925251841948279
 20
4.8253040414096757
 30
0.0
 11
4.4925251841948279
 21
6.3253040414096757
 31
0.0
  0
LINE
  5
3FD
  8
DIMENSIONS
 10
3.9055251841948291
 20
6.2940540414096757
 30
0.0
 11
3.7805251841948291
 21
6.2940540414096757
 31
0.0
  0
LINE
  5
3FE
  8
DIMENSIONS
 10
4.6175251841948279
 20
6.2940540414096757
 30
0.0
 11
5.1675251841948286
 21
6.2940540414096757
 31
0.0
  0
SOLID
  5
3FF
  8
DIMENSIONS
 10
3.9055251841948291
 20
6.3148873747430097
 30
0.0
 11
3.9055251841948291
 21
6.2732207080763418
 31
0.0
 12
4.0305251841948291
 22
6.2940540414096757
 32
0.0
 13
4.0305251841948291
 23
6.2940540414096757
 33
0.0
  0
SOLID
  5
400
  8
DIMENSIONS
 10
4.6175251841948279
 20
6.3148873747430097
 30
0.0
 11
4.6175251841948279
 21
6.2732207080763418
 31
0.0
 12
4.4925251841948279
 22
6.2940540414096757
 32
0.0
 13
4.4925251841948279
 23
6.2940540414096757
 33
0.0
  0
LINE
  5
402
  8
DIMENSIONS
 10
4.4925251841948279
 20
4.8253040414096757
 30
0.0
 11
4.4925251841948279
 21
5.8253040414096757
 31
0.0
  0
LINE
  5
403
  8
DIMENSIONS
 10
4.5235251841948267
 20
4.8253040414096757
 30
0.0
 11
4.5235251841948267
 21
5.8253040414096757
 31
0.0
  0
LINE
  5
404
  8
DIMENSIONS
 10
4.3675251841948279
 20
5.7940540414096757
 30
0.0
 11
4.2425251841948279
 21
5.7940540414096757
 31
0.0
  0
LINE
  5
405
  8
DIMENSIONS
 10
4.6485251841948267
 20
5.7940540414096757
 30
0.0
 11
5.1675251841948286
 21
5.7940540414096757
 31
0.0
  0
SOLID
  5
406
  8
DIMENSIONS
 10
4.3675251841948279
 20
5.8148873747430097
 30
0.0
 11
4.3675251841948279
 21
5.7732207080763418
 31
0.0
 12
4.4925251841948279
 22
5.7940540414096757
 32
0.0
 13
4.4925251841948279
 23
5.7940540414096757
 33
0.0
  0
SOLID
  5
407
  8
DIMENSIONS
 10
4.6485251841948267
 20
5.8148873747430097
 30
0.0
 11
4.6485251841948267
 21
5.7732207080763418
 31
0.0
 12
4.5235251841948267
 22
5.7940540414096757
 32
0.0
 13
4.5235251841948267
 23
5.7940540414096757
 33
0.0
  0
LINE
  5
409
  8
DIMENSIONS
 10
4.5235251841948267
 20
4.8253040414096757
 30
0.0
 11
4.5235251841948267
 21
5.3253040414096757
 31
0.0
  0
LINE
  5
40A
  8
DIMENSIONS
 10
4.9175251841948286
 20
4.8253040414096757
 30
0.0
 11
4.9175251841948286
 21
5.3253040414096757
 31
0.0
  0
LINE
  5
40B
  8
DIMENSIONS
 10
4.3985251841948267
 20
5.2940540414096757
 30
0.0
 11
4.2735251841948267
 21
5.2940540414096757
 31
0.0
  0
LINE
  5
40C
  8
DIMENSIONS
 10
5.0425251841948286
 20
5.2940540414096757
 30
0.0
 11
5.1675251841948286
 21
5.2940540414096757
 31
0.0
  0
SOLID
  5
40D
  8
DIMENSIONS
 10
4.3985251841948267
 20
5.3148873747430097
 30
0.0
 11
4.3985251841948267
 21
5.2732207080763418
 31
0.0
 12
4.5235251841948267
 22
5.2940540414096757
 32
0.0
 13
4.5235251841948267
 23
5.2940540414096757
 33
0.0
  0
SOLID
  5
40E
  8
DIMENSIONS
 10
5.0425251841948286
 20
5.3148873747430097
 30
0.0
 11
5.0425251841948286
 21
5.2732207080763418
 31
0.0
 12
4.9175251841948286
 22
5.2940540414096757
 32
0.0
 13
4.9175251841948286
 23
5.2940540414096757
 33
0.0
  0
TEXT
  5
410
  8
DIMENSIONS
 10
5.2269332540372018
 20
6.2315540414096757
 30
0.0
 40
0.125
  1
0.462
  0
TEXT
  5
411
  8
DIMENSIONS
 10
5.222350644155358
 20
5.7315540414096757
 30
0.0
 40
0.125
  1
0.031
  0
TEXT
  5
412
  8
DIMENSIONS
 10
5.2300251841948286
 20
5.2315540414096757
 30
0.0
 40
0.125
  1
0.394
  0
TEXT
  5
413
  8
DIMENSIONS
 10
4.0353347080043491
 20
6.7315540414096757
 30
0.0
 40
0.125
  1
1.312
  0
LINE
  5
43A
  8
DIMENSIONS
 10
4.5547751841948267
 20
4.1065540414096748
 30
0.0
 11
5.4487751841948286
 21
4.1065540414096739
 31
0.0
  0
LINE
  5
43B
  8
DIMENSIONS
 10
4.5547751841948267
 20
4.7315540414096739
 30
0.0
 11
5.4487751841948286
 21
4.7315540414096739
 31
0.0
  0
LINE
  5
43C
  8
DIMENSIONS
 10
5.4175251841948286
 20
3.9815540414096739
 30
0.0
 11
5.4175251841948286
 21
3.8565540414096739
 31
0.0
  0
LINE
  5
43D
  8
DIMENSIONS
 10
5.4175251841948286
 20
4.8565540414096739
 30
0.0
 11
5.4175251841948286
 21
4.9815540414096739
 31
0.0
  0
SOLID
  5
43E
  8
DIMENSIONS
 10
5.3966918508614929
 20
3.9815540414096748
 30
0.0
 11
5.4383585175281608
 21
3.9815540414096739
 31
0.0
 12
5.4175251841948286
 22
4.1065540414096739
 32
0.0
 13
5.4175251841948286
 23
4.1065540414096739
 33
0.0
  0
SOLID
  5
43F
  8
DIMENSIONS
 10
5.3966918508614929
 20
4.8565540414096739
 30
0.0
 11
5.4383585175281608
 21
4.8565540414096739
 31
0.0
 12
5.4175251841948286
 22
4.7315540414096739
 32
0.0
 13
5.4175251841948286
 23
4.7315540414096739
 33
0.0
  0
TEXT
  5
441
  8
DIMENSIONS
 10
5.1339160816951006
 20
4.3565540414096757
 30
0.0
 40
0.125
  1
%%C0.625
  0
LINE
  5
452
  8
DIMENSIONS
 10
3.5742751841948279
 20
4.0440540414096748
 30
0.0
 11
3.0742751841948279
 21
4.0440540414096748
 31
0.0
  0
LINE
  5
453
  8
DIMENSIONS
 10
3.5742751841948279
 20
4.7940540414096757
 30
0.0
 11
3.0742751841948279
 21
4.7940540414096784
 31
0.0
  0
LINE
  5
454
  8
DIMENSIONS
 10
3.1055251841948279
 20
4.1690540414096748
 30
0.0
 11
3.1055251841948279
 21
4.2940540414096757
 31
0.0
  0
LINE
  5
455
  8
DIMENSIONS
 10
3.1055251841948279
 20
4.6690540414096784
 30
0.0
 11
3.1055251841948279
 21
4.5440540414096757
 31
0.0
  0
SOLID
  5
456
  8
DIMENSIONS
 10
3.0846918508614962
 20
4.1690540414096748
 30
0.0
 11
3.1263585175281601
 21
4.1690540414096748
 31
0.0
 12
3.1055251841948279
 22
4.0440540414096748
 32
0.0
 13
3.1055251841948279
 23
4.0440540414096748
 33
0.0
  0
SOLID
  5
457
  8
DIMENSIONS
 10
3.0846918508614962
 20
4.6690540414096784
 30
0.0
 11
3.1263585175281601
 21
4.6690540414096784
 31
0.0
 12
3.1055251841948279
 22
4.7940540414096784
 32
0.0
 13
3.1055251841948279
 23
4.7940540414096784
 33
0.0
  0
TEXT
  5
459
  8
DIMENSIONS
 10
2.7883069791953909
 20
4.3565540414096766
 30
0.0
 40
0.125
  1
%%C0.750
  0
LINE
  5
468
  8
DIMENSIONS
 10
8.1614742062064067
 20
2.7468040414096762
 30
0.0
 11
8.1614742062064067
 21
2.2468040414096739
 31
0.0
  0
LINE
  5
469
  8
DIMENSIONS
 10
7.8494742062064091
 20
2.9819129050417472
 30
0.0
 11
7.8494742062064091
 21
2.2468040414096739
 31
0.0
  0
LINE
  5
46A
  8
DIMENSIONS
 10
8.2864742062064067
 20
2.2780540414096739
 30
0.0
 11
8.4114742062064067
 21
2.2780540414096739
 31
0.0
  0
LINE
  5
46B
  8
DIMENSIONS
 10
7.7244742062064091
 20
2.2780540414096739
 30
0.0
 11
7.5994742062064091
 21
2.2780540414096739
 31
0.0
  0
SOLID
  5
46C
  8
DIMENSIONS
 10
8.2864742062064067
 20
2.298887374743007
 30
0.0
 11
8.2864742062064067
 21
2.2572207080763409
 31
0.0
 12
8.1614742062064067
 22
2.2780540414096739
 32
0.0
 13
8.1614742062064067
 23
2.2780540414096739
 33
0.0
  0
SOLID
  5
46D
  8
DIMENSIONS
 10
7.7244742062064091
 20
2.298887374743007
 30
0.0
 11
7.7244742062064091
 21
2.2572207080763409
 31
0.0
 12
7.8494742062064091
 22
2.2780540414096739
 32
0.0
 13
7.8494742062064091
 23
2.2780540414096739
 33
0.0
  0
TEXT
  5
46F
  8
DIMENSIONS
 10
6.9561186458698963
 20
2.2155540414096739
 30
0.0
 40
0.125
  1
%%C0.312
  0
LINE
  5
478
  8
SHOULDER_-_STABALIZER
 10
4.3935251841948277
 20
3.5780540414096742
 30
0.0
 11
4.1295251841948248
 21
3.5780540414096751
 31
0.0
  0
LINE
  5
479
  8
SHOULDER_-_STABALIZER
 10
4.3935251841948277
 20
3.516044245056599
 30
0.0
 11
4.1295251841948248
 21
3.516044245056599
 31
0.0
  0
LINE
  5
47A
  8
SHOULDER_-_STABALIZER
 10
4.3935251841948277
 20
3.4579100609755899
 30
0.0
 11
4.1295251841948248
 21
3.4579100609755899
 31
0.0
  0
LINE
  5
47B
  8
SHOULDER_-_STABALIZER
 10
4.3935251841948251
 20
3.4072848756717118
 30
0.0
 11
4.1295251841948248
 21
3.4072848756717118
 31
0.0
  0
LINE
  5
47C
  8
SHOULDER_-_STABALIZER
 10
4.3935251841948277
 20
3.3673327632264551
 30
0.0
 11
4.1295251841948248
 21
3.3673327632264551
 31
0.0
  0
LINE
  5
47D
  8
SHOULDER_-_STABALIZER
 10
4.3935251841948277
 20
3.3405507306676521
 30
0.0
 11
4.1295251841948248
 21
3.3405507306676512
 31
0.0
  0
LINE
  5
47E
  8
SHOULDER_-_STABALIZER
 10
4.3935251841948277
 20
3.328612655030224
 30
0.0
 11
4.1295251841948248
 21
3.3286126550302231
 31
0.0
  0
LINE
  5
47F
  8
SHOULDER_-_STABALIZER
 10
4.3935251841948277
 20
3.8155573521516981
 30
0.0
 11
4.1295251841948248
 21
3.815557352151699
 31
0.0
  0
LINE
  5
480
  8
SHOULDER_-_STABALIZER
 10
4.3935251841948277
 20
3.788775319592895
 30
0.0
 11
4.1295251841948248
 21
3.788775319592895
 31
0.0
  0
LINE
  5
481
  8
SHOULDER_-_STABALIZER
 10
4.3935251841948251
 20
3.7488232071476379
 30
0.0
 11
4.1295251841948248
 21
3.7488232071476379
 31
0.0
  0
LINE
  5
482
  8
SHOULDER_-_STABALIZER
 10
4.3935251841948277
 20
3.6981980218437598
 30
0.0
 11
4.1295251841948248
 21
3.6981980218437598
 31
0.0
  0
LINE
  5
483
  8
SHOULDER_-_STABALIZER
 10
4.3935251841948277
 20
3.6400638377627512
 30
0.0
 11
4.1295251841948248
 21
3.6400638377627512
 31
0.0
  0
LINE
  5
484
  8
SHOULDER_-_STABALIZER
 10
4.3935251841948277
 20
3.578054041409676
 30
0.0
 11
4.1295251841948248
 21
3.5780540414096751
 31
0.0
  0
LINE
  5
485
  8
SHOULDER_-_STABALIZER
 10
4.3935251841948277
 20
3.8274954277891262
 30
0.0
 11
4.1295251841948248
 21
3.8274954277891271
 31
0.0
  0
LINE
  5
486
  8
SHOULDER_-_STABALIZER
 10
4.3935251841948277
 20
3.828054041409676
 30
0.0
 11
4.1295251841948248
 21
3.8280540414096751
 31
0.0
  0
LINE
  5
487
  8
SHOULDER_-_STABALIZER
 10
4.9175251841948286
 20
4.4190540414096766
 30
0.0
 11
4.5235251841948267
 21
4.4190540414096766
 31
0.0
  0
LINE
  5
48C
  8
SHOULDER_-_STABALIZER
 10
4.9175251841948286
 20
4.356771433372689
 30
0.0
 11
4.5235251841948241
 21
4.3567714333726899
 31
0.0
  0
LINE
  5
48D
  8
SHOULDER_-_STABALIZER
 10
4.9175251841948286
 20
4.2962188977811753
 30
0.0
 11
4.5235251841948267
 21
4.2962188977811744
 31
0.0
  0
LINE
  5
48E
  8
SHOULDER_-_STABALIZER
 10
4.9175251841948286
 20
4.2390784495126752
 30
0.0
 11
4.5235251841948267
 21
4.2390784495126752
 31
0.0
  0
LINE
  5
48F
  8
SHOULDER_-_STABALIZER
 10
4.9175251841948286
 20
4.1869373232413123
 30
0.0
 11
4.5235251841948241
 21
4.1869373232413114
 31
0.0
  0
LINE
  5
493
  8
SHOULDER_-_STABALIZER
 10
4.9175251841948286
 20
4.1412438835857381
 30
0.0
 11
4.5235251841948267
 21
4.141243883585739
 31
0.0
  0
LINE
  5
494
  8
SHOULDER_-_STABALIZER
 10
4.9175251841948286
 20
4.1032673927586067
 30
0.0
 11
4.5235251841948241
 21
4.1032673927586067
 31
0.0
  0
LINE
  5
495
  8
SHOULDER_-_STABALIZER
 10
4.9175251841948286
 20
4.0740627532828952
 30
0.0
 11
4.8037726681561379
 21
4.0740627532828952
 31
0.0
  0
LINE
  5
497
  8
SHOULDER_-_STABALIZER
 10
4.9175251841948286
 20
4.0544412051440366
 30
0.0
 11
4.8790616288176771
 21
4.0544412051440366
 31
0.0
  0
LINE
  5
498
  8
SHOULDER_-_STABALIZER
 10
4.9175251841948286
 20
4.7836668776753166
 30
0.0
 11
4.5235251841948241
 21
4.7836668776753193
 31
0.0
  0
LINE
  5
499
  8
SHOULDER_-_STABALIZER
 10
4.9175251841948286
 20
4.7640453295364589
 30
0.0
 11
4.5235251841948267
 21
4.7640453295364589
 31
0.0
  0
LINE
  5
49A
  8
SHOULDER_-_STABALIZER
 10
4.9175251841948286
 20
4.7348406900607456
 30
0.0
 11
4.5235251841948241
 21
4.7348406900607456
 31
0.0
  0
LINE
  5
49B
  8
SHOULDER_-_STABALIZER
 10
4.9175251841948286
 20
4.6968641992336151
 30
0.0
 11
4.5235251841948267
 21
4.6968641992336151
 31
0.0
  0
LINE
  5
49C
  8
SHOULDER_-_STABALIZER
 10
4.9175251841948286
 20
4.6511707595780427
 30
0.0
 11
4.5235251841948241
 21
4.6511707595780427
 31
0.0
  0
LINE
  5
49D
  8
SHOULDER_-_STABALIZER
 10
4.9175251841948286
 20
4.5990296333066789
 30
0.0
 11
4.5235251841948267
 21
4.5990296333066789
 31
0.0
  0
LINE
  5
49E
  8
SHOULDER_-_STABALIZER
 10
4.9175251841948286
 20
4.5418891850381788
 30
0.0
 11
4.5235251841948267
 21
4.5418891850381797
 31
0.0
  0
LINE
  5
49F
  8
SHOULDER_-_STABALIZER
 10
4.9175251841948286
 20
4.4813366494466651
 30
0.0
 11
4.5235251841948241
 21
4.4813366494466642
 31
0.0
  0
LINE
  5
4A0
  8
SHOULDER_-_STABALIZER
 10
4.9175251841948286
 20
4.4190540414096766
 30
0.0
 11
4.5235251841948267
 21
4.4190540414096766
 31
0.0
  0
LINE
  5
4A1
  8
SHOULDER_-_STABALIZER
 10
4.5819887395719761
 20
4.0544412051440357
 30
0.0
 11
4.5235251841948241
 21
4.0544412051440357
 31
0.0
  0
LINE
  5
4A2
  8
SHOULDER_-_STABALIZER
 10
4.6572777002335144
 20
4.0740627532828952
 30
0.0
 11
4.5235251841948267
 21
4.0740627532828952
 31
0.0
  0
LINE
  5
4A3
  8
SHOULDER_-_STABALIZER
 10
4.4925251841948279
 20
4.7836668776753131
 30
0.0
 11
4.0305251841948291
 21
4.7836668776753193
 31
0.0
  0
LINE
  5
4A4
  8
SHOULDER_-_STABALIZER
 10
4.4925251841948279
 20
4.7640453295364562
 30
0.0
 11
4.0305251841948291
 21
4.7640453295364571
 31
0.0
  0
LINE
  5
4A5
  8
SHOULDER_-_STABALIZER
 10
4.4925251841948279
 20
4.7348406900607456
 30
0.0
 11
4.0305251841948291
 21
4.7348406900607456
 31
0.0
  0
LINE
  5
4A6
  8
SHOULDER_-_STABALIZER
 10
4.4925251841948253
 20
4.2390784495126717
 30
0.0
 11
4.0305251841948291
 21
4.2390784495126743
 31
0.0
  0
LINE
  5
4A7
  8
SHOULDER_-_STABALIZER
 10
4.4925251841948253
 20
4.2962188977811744
 30
0.0
 11
4.0305251841948291
 21
4.2962188977811726
 31
0.0
  0
LINE
  5
4A8
  8
SHOULDER_-_STABALIZER
 10
4.4925251841948253
 20
4.356771433372689
 30
0.0
 11
4.0305251841948291
 21
4.356771433372689
 31
0.0
  0
LINE
  5
4A9
  8
SHOULDER_-_STABALIZER
 10
4.4245251841948274
 20
4.4190540414096757
 30
0.0
 11
4.0305251841948291
 21
4.4190540414096757
 31
0.0
  0
LINE
  5
4AA
  8
SHOULDER_-_STABALIZER
 10
4.4925251841948279
 20
4.4813366494466642
 30
0.0
 11
4.0305251841948291
 21
4.4813366494466633
 31
0.0
  0
LINE
  5
4AB
  8
SHOULDER_-_STABALIZER
 10
4.4925251841948279
 20
4.5418891850381771
 30
0.0
 11
4.0305251841948291
 21
4.5418891850381788
 31
0.0
  0
LINE
  5
4AC
  8
SHOULDER_-_STABALIZER
 10
4.4925251841948279
 20
4.5990296333066762
 30
0.0
 11
4.0305251841948291
 21
4.599029633306678
 31
0.0
  0
LINE
  5
4AD
  8
SHOULDER_-_STABALIZER
 10
4.4925251841948279
 20
4.6511707595780409
 30
0.0
 11
4.0305251841948291
 21
4.6511707595780427
 31
0.0
  0
LINE
  5
4AE
  8
SHOULDER_-_STABALIZER
 10
4.4925251841948279
 20
4.6968641992336151
 30
0.0
 11
4.0305251841948291
 21
4.6968641992336151
 31
0.0
  0
LINE
  5
4AF
  8
SHOULDER_-_STABALIZER
 10
4.4925251841948253
 20
4.4190540414096748
 30
0.0
 11
4.0305251841948291
 21
4.4190540414096757
 31
0.0
  0
LINE
  5
4B0
  8
SHOULDER_-_STABALIZER
 10
4.4925251841948253
 20
4.1412438835857364
 30
0.0
 11
4.0305251841948291
 21
4.1412438835857381
 31
0.0
  0
LINE
  5
4B1
  8
SHOULDER_-_STABALIZER
 10
4.4925251841948253
 20
4.1869373232413123
 30
0.0
 11
4.0305251841948291
 21
4.1869373232413096
 31
0.0
  0
LINE
  5
4B2
  8
SHOULDER_-_STABALIZER
 10
4.4925251841948253
 20
4.1032673927586059
 30
0.0
 11
4.0305251841948291
 21
4.1032673927586059
 31
0.0
  0
LINE
  5
4B3
  8
SHOULDER_-_STABALIZER
 10
4.4925251841948253
 20
4.0740627532828944
 30
0.0
 11
4.0305251841948291
 21
4.0740627532828944
 31
0.0
  0
LINE
  5
4B4
  8
SHOULDER_-_STABALIZER
 10
4.4925251841948253
 20
4.0544412051440339
 30
0.0
 11
4.0305251841948291
 21
4.0544412051440348
 31
0.0
  0
LINE
  5
4B5
  8
SHOULDER_-_STABALIZER
 10
3.9995251841948298
 20
4.7640453295364571
 30
0.0
 11
3.6055251841948279
 21
4.7640453295364571
 31
0.0
  0
LINE
  5
4B6
  8
SHOULDER_-_STABALIZER
 10
3.9995251841948298
 20
4.7836668776753148
 30
0.0
 11
3.6055251841948279
 21
4.7836668776753193
 31
0.0
  0
LINE
  5
4B7
  8
SHOULDER_-_STABALIZER
 10
3.9995251841948298
 20
4.7348406900607456
 30
0.0
 11
3.6055251841948279
 21
4.7348406900607456
 31
0.0
  0
LINE
  5
4B8
  8
SHOULDER_-_STABALIZER
 10
3.9995251841948298
 20
4.356771433372689
 30
0.0
 11
3.6055251841948279
 21
4.356771433372689
 31
0.0
  0
LINE
  5
4B9
  8
SHOULDER_-_STABALIZER
 10
3.9995251841948298
 20
4.4190540414096757
 30
0.0
 11
3.6055251841948279
 21
4.4190540414096757
 31
0.0
  0
LINE
  5
4BA
  8
SHOULDER_-_STABALIZER
 10
3.9995251841948298
 20
4.4813366494466642
 30
0.0
 11
3.6055251841948279
 21
4.4813366494466633
 31
0.0
  0
LINE
  5
4BB
  8
SHOULDER_-_STABALIZER
 10
3.9995251841948298
 20
4.541889185038178
 30
0.0
 11
3.6055251841948279
 21
4.5418891850381788
 31
0.0
  0
LINE
  5
4BC
  8
SHOULDER_-_STABALIZER
 10
3.9995251841948298
 20
4.599029633306678
 30
0.0
 11
3.6055251841948279
 21
4.599029633306678
 31
0.0
  0
LINE
  5
4BD
  8
SHOULDER_-_STABALIZER
 10
3.9995251841948298
 20
4.6511707595780427
 30
0.0
 11
3.6055251841948279
 21
4.6511707595780427
 31
0.0
  0
LINE
  5
4BE
  8
SHOULDER_-_STABALIZER
 10
3.9995251841948298
 20
4.6968641992336151
 30
0.0
 11
3.6055251841948279
 21
4.6968641992336151
 31
0.0
  0
LINE
  5
4BF
  8
SHOULDER_-_STABALIZER
 10
3.9995251841948298
 20
4.4190540414096757
 30
0.0
 11
3.6055251841948279
 21
4.4190540414096757
 31
0.0
  0
LINE
  5
4C0
  8
SHOULDER_-_STABALIZER
 10
3.9995251841948298
 20
4.1412438835857373
 30
0.0
 11
3.6055251841948279
 21
4.1412438835857381
 31
0.0
  0
LINE
  5
4C1
  8
SHOULDER_-_STABALIZER
 10
3.9995251841948298
 20
4.1869373232413114
 30
0.0
 11
3.6055251841948279
 21
4.1869373232413096
 31
0.0
  0
LINE
  5
4C2
  8
SHOULDER_-_STABALIZER
 10
3.9995251841948298
 20
4.2390784495126743
 30
0.0
 11
3.6055251841948279
 21
4.2390784495126743
 31
0.0
  0
LINE
  5
4C3
  8
SHOULDER_-_STABALIZER
 10
3.9995251841948298
 20
4.2962188977811744
 30
0.0
 11
3.6055251841948279
 21
4.2962188977811726
 31
0.0
  0
LINE
  5
4C4
  8
SHOULDER_-_STABALIZER
 10
3.9995251841948298
 20
4.1032673927586059
 30
0.0
 11
3.6055251841948279
 21
4.1032673927586059
 31
0.0
  0
LINE
  5
4C5
  8
SHOULDER_-_STABALIZER
 10
3.9995251841948298
 20
4.0740627532828926
 30
0.0
 11
3.8657726681561431
 21
4.0740627532828926
 31
0.0
  0
LINE
  5
4C6
  8
SHOULDER_-_STABALIZER
 10
3.9995251841948298
 20
4.0544412051440357
 30
0.0
 11
3.9410616288176779
 21
4.0544412051440357
 31
0.0
  0
LINE
  5
4C7
  8
SHOULDER_-_STABALIZER
 10
3.6439887395719728
 20
4.0544412051440348
 30
0.0
 11
3.6055251841948279
 21
4.0544412051440348
 31
0.0
  0
LINE
  5
4C8
  8
SHOULDER_-_STABALIZER
 10
3.719277700233512
 20
4.0740627532828944
 30
0.0
 11
3.6055251841948279
 21
4.0740627532828944
 31
0.0
  0
ARC
  5
4C9
  8
SHOULDER_-_STABALIZER
 10
4.4320629689528843
 20
3.5780540414096769
 30
0.0
 40
0.1706794737853436
 50
326.58221050289109
 51
33.417789497108679
  0
ARC
  5
4CA
  8
SHOULDER_-_STABALIZER
 10
4.09098739943677
 20
3.578054041409676
 30
0.0
 40
0.1706794737853436
 50
146.58221050289129
 51
213.41778949710891
  0
LINE
  5
4E3
  8
DIMENSIONS
 10
7.8245168465174251
 20
3.0319696245152481
 30
0.0
 11
7.1236344314322926
 21
3.5601224070484832
 31
0.0
  0
LINE
  5
4E4
  8
DIMENSIONS
 10
8.1302242062064067
 20
2.778054041409673
 30
0.0
 11
6.861958016758912
 21
2.778054041409673
 31
0.0
  0
ARC
  5
4E5
  8
DIMENSIONS
 10
8.1614742062064067
 20
2.778054041409673
 30
0.0
 40
1.2682661894474969
 50
148.64934592352279
 51
155.4262358560766
  0
ARC
  5
4E6
  8
DIMENSIONS
 10
8.1614742062064067
 20
2.778054041409673
 30
0.0
 40
1.2682661894474969
 50
167.3646740582729
 51
174.35065407647701
  0
SOLID
  5
4E7
  8
DIMENSIONS
 10
7.0611400091974366
 20
3.449603018787486
 30
0.0
 11
7.095611781881157
 21
3.4261977202601619
 31
0.0
 12
7.1485917911212686
 22
3.5413156875749792
 32
0.0
 13
7.1485917911212686
 23
3.5413156875749792
 33
0.0
  0
SOLID
  5
4E8
  8
DIMENSIONS
 10
6.9201760222219049
 20
2.9018755034391841
 30
0.0
 11
6.8785599801873083
 21
2.9039288315877489
 31
0.0
 12
6.893208016758912
 22
2.778054041409673
 32
0.0
 13
6.893208016758912
 23
2.778054041409673
 33
0.0
  0
TEXT
  5
4EA
  8
DIMENSIONS
 10
6.827794996702738
 20
3.1179808088825092
 30
0.0
 40
0.125
  1
37
  0
LINE
  5
4FA
  8
DIMENSIONS
 10
3.9172751841948239
 20
3.6720540414096772
 30
0.0
 11
3.0742751841948279
 21
3.6720540414096772
 31
0.0
  0
LINE
  5
4FB
  8
DIMENSIONS
 10
3.9172751841948239
 20
3.4840540414096761
 30
0.0
 11
3.0742751841948279
 21
3.4840540414096761
 31
0.0
  0
LINE
  5
4FC
  8
DIMENSIONS
 10
3.1055251841948279
 20
3.7970540414096772
 30
0.0
 11
3.1055251841948279
 21
3.9220540414096772
 31
0.0
  0
LINE
  5
4FD
  8
DIMENSIONS
 10
3.1055251841948279
 20
3.3590540414096761
 30
0.0
 11
3.1055251841948279
 21
2.887265448660576
 31
0.0
  0
LINE
  5
4FE
  8
DIMENSIONS
 10
3.1055251841948279
 20
2.887265448660576
 30
0.0
 11
2.9805251841948279
 21
2.887265448660576
 31
0.0
  0
SOLID
  5
4FF
  8
DIMENSIONS
 10
3.0846918508614962
 20
3.7970540414096772
 30
0.0
 11
3.1263585175281601
 21
3.7970540414096772
 31
0.0
 12
3.1055251841948279
 22
3.6720540414096772
 32
0.0
 13
3.1055251841948279
 23
3.6720540414096772
 33
0.0
  0
SOLID
  5
500
  8
DIMENSIONS
 10
3.0846918508614918
 20
3.3590540414096761
 30
0.0
 11
3.1263585175281601
 21
3.3590540414096761
 31
0.0
 12
3.1055251841948279
 22
3.4840540414096761
 32
0.0
 13
3.1055251841948279
 23
3.4840540414096761
 33
0.0
  0
TEXT
  5
502
  8
DIMENSIONS
 10
2.3426327579388442
 20
2.8247654486605769
 30
0.0
 40
0.125
  1
%%C0.188
  0
LINE
  5
521
  8
DIMENSIONS
 10
4.0982751841948248
 20
3.3280540414096751
 30
0.0
 11
2.0742751841948279
 21
3.3280540414096751
 31
0.0
  0
LINE
  5
522
  8
DIMENSIONS
 10
4.0982751841948248
 20
3.828054041409676
 30
0.0
 11
2.0742751841948279
 21
3.828054041409676
 31
0.0
  0
LINE
  5
523
  8
DIMENSIONS
 10
2.1055251841948279
 20
3.2030540414096751
 30
0.0
 11
2.1055251841948279
 21
3.0780540414096751
 31
0.0
  0
LINE
  5
524
  8
DIMENSIONS
 10
2.1055251841948279
 20
3.953054041409676
 30
0.0
 11
2.1055251841948279
 21
4.0780540414096764
 31
0.0
  0
SOLID
  5
525
  8
DIMENSIONS
 10
2.084691850861494
 20
3.2030540414096751
 30
0.0
 11
2.1263585175281601
 21
3.2030540414096751
 31
0.0
 12
2.1055251841948279
 22
3.3280540414096751
 32
0.0
 13
2.1055251841948279
 23
3.3280540414096751
 33
0.0
  0
SOLID
  5
526
  8
DIMENSIONS
 10
2.084691850861494
 20
3.953054041409676
 30
0.0
 11
2.1263585175281601
 21
3.953054041409676
 31
0.0
 12
2.1055251841948279
 22
3.828054041409676
 32
0.0
 13
2.1055251841948279
 23
3.828054041409676
 33
0.0
  0
LINE
  5
528
  8
DIMENSIONS
 10
4.0112751841948251
 20
3.7970540414096772
 30
0.0
 11
2.5742751841948279
 21
3.7970540414096772
 31
0.0
  0
LINE
  5
529
  8
DIMENSIONS
 10
4.0112751841948251
 20
3.359054041409677
 30
0.0
 11
2.5742751841948279
 21
3.359054041409677
 31
0.0
  0
LINE
  5
52A
  8
DIMENSIONS
 10
2.6055251841948279
 20
3.9220540414096772
 30
0.0
 11
2.6055251841948279
 21
4.2604623994720718
 31
0.0
  0
LINE
  5
52B
  8
DIMENSIONS
 10
2.6055251841948279
 20
3.234054041409677
 30
0.0
 11
2.6055251841948279
 21
3.109054041409677
 31
0.0
  0
SOLID
  5
52C
  8
DIMENSIONS
 10
2.584691850861494
 20
3.9220540414096772
 30
0.0
 11
2.6263585175281601
 21
3.9220540414096772
 31
0.0
 12
2.6055251841948279
 22
3.7970540414096772
 32
0.0
 13
2.6055251841948279
 23
3.7970540414096772
 33
0.0
  0
SOLID
  5
52D
  8
DIMENSIONS
 10
2.584691850861494
 20
3.234054041409677
 30
0.0
 11
2.6263585175281601
 21
3.234054041409677
 31
0.0
 12
2.6055251841948279
 22
3.359054041409677
 32
0.0
 13
2.6055251841948279
 23
3.359054041409677
 33
0.0
  0
TEXT
  5
52F
  8
DIMENSIONS
 10
1.763954238101002
 20
3.5155540414096769
 30
0.0
 40
0.125
  1
%%C0.500
  0
TEXT
  5
530
  8
DIMENSIONS
 10
1.809914620829554
 20
4.1900769242729501
 30
0.0
 40
0.125
  1
%%C0.438
  0
LINE
  5
531
  8
DIMENSIONS
 10
2.6055251841948279
 20
4.2604623994720718
 30
0.0
 11
2.4805251841948279
 21
4.2604623994720718
 31
0.0
  0
TEXT
  5
8F0
  8
0
  6
CONTINUOUS
 10
60.287661505684582
 20
15.975878419592361
 30
0.0
 40
0.12
  1
 
 51
7.0
  0
TEXT
  5
8F1
  8
0
  6
CONTINUOUS
 10
72.73175827116448
 20
23.03875284932402
 30
0.0
 40
0.24
  1
 
 51
7.0
  0
TEXT
  5
8F2
  8
0
  6
CONTINUOUS
 10
81.941523283077757
 20
22.718742862746929
 30
0.0
 40
0.24
  1
 
 51
7.0
  0
TEXT
  5
8F3
  8
0
  6
CONTINUOUS
 10
91.745482767510438
 20
5.8561620632196103
 30
0.0
 40
0.24
  1
 
 51
7.0
  0
LINE
  5
8F4
  8
0
 10
0.488091657235449
 20
0.4880916572354357
 30
0.0
 11
0.488091657235449
 21
1.488091657235435
 31
0.0
  0
LINE
  5
8F5
  8
0
 10
0.488091657235449
 20
0.6130916572354357
 30
0.0
 11
0.613091657235449
 21
0.6130916572354357
 31
0.0
  0
LINE
  5
8F6
  8
0
 10
0.488091657235449
 20
0.7380916572354357
 30
0.0
 11
0.738091657235449
 21
0.7380916572354357
 31
0.0
  0
LINE
  5
8F7
  8
0
 10
0.488091657235449
 20
0.8630916572354356
 30
0.0
 11
0.613091657235449
 21
0.8630916572354356
 31
0.0
  0
LINE
  5
8F8
  8
0
 10
0.488091657235449
 20
0.9880916572354356
 30
0.0
 11
0.863091657235449
 21
0.9880916572354356
 31
0.0
  0
LINE
  5
8F9
  8
0
 10
0.488091657235449
 20
1.113091657235435
 30
0.0
 11
0.613091657235449
 21
1.113091657235435
 31
0.0
  0
LINE
  5
8FA
  8
0
 10
0.488091657235449
 20
1.238091657235435
 30
0.0
 11
0.738091657235449
 21
1.238091657235435
 31
0.0
  0
LINE
  5
8FB
  8
0
 10
0.488091657235449
 20
1.363091657235435
 30
0.0
 11
0.613091657235449
 21
1.363091657235435
 31
0.0
  0
LINE
  5
8FC
  8
0
 10
0.488091657235449
 20
1.488091657235435
 30
0.0
 11
0.863091657235449
 21
1.488091657235435
 31
0.0
  0
LINE
  5
8FD
  8
0
 10
0.488091657235449
 20
0.4880916572354357
 30
0.0
 11
0.863091657235449
 21
0.4880916572354357
 31
0.0
  0
TEXT
  5
8FE
  8
0
 10
0.9123604308618862
 20
0.9550510962349526
 30
0.0
 40
0.0625
  1
1/2"
  0
TEXT
  5
8FF
  8
0
 10
0.6623604308618863
 20
0.8300510962349526
 30
0.0
 40
0.0625
  1
3/8"
  0
TEXT
  5
900
  8
0
 10
0.7873604308618863
 20
0.7050510962349526
 30
0.0
 40
0.0625
  1
1/4"
  0
TEXT
  5
901
  8
0
 10
0.6623604308618863
 20
0.5800510962349526
 30
0.0
 40
0.0625
  1
1/8"
  0
TEXT
  5
902
  8
0
 10
0.6623604308618863
 20
1.0800510962349521
 30
0.0
 40
0.0625
  1
5/8"
  0
TEXT
  5
903
  8
0
 10
0.7873604308618863
 20
1.2050510962349521
 30
0.0
 40
0.0625
  1
3/4"
  0
TEXT
  5
904
  8
0
 10
0.6623604308618863
 20
1.3300510962349521
 30
0.0
 40
0.0625
  1
7/8"
  0
TEXT
  5
905
  8
0
 10
0.9123604308618862
 20
1.4550510962349521
 30
0.0
 40
0.0625
  1
1"
  0
LINE
  5
906
  8
0
 10
0.0
 20
0.0
 30
0.0
 11
0.0
 21
8.5
 31
0.0
  0
LINE
  5
907
  8
0
 10
11.0
 20
-0.0000000000000009
 30
0.0
 11
11.0
 21
8.5
 31
0.0
  0
LINE
  5
908
  8
0
 10
0.0
 20
0.0
 30
0.0
 11
11.0
 21
0.0
 31
0.0
  0
LINE
  5
909
  8
0
 10
0.0
 20
8.5
 30
0.0
 11
11.0
 21
8.5
 31
0.0
  0
LINE
  5
B7E
  8
FORM
 10
10.585167314221611
 20
0.4880916572354357
 30
0.0
 11
10.585167314221611
 21
7.2619083427645661
 31
0.0
  0
LINE
  5
B7F
  8
FORM
 10
10.51190834276456
 20
7.3351673142216214
 30
0.0
 11
0.488091657235449
 21
7.3351673142216214
 31
0.0
  0
LINE
  5
B80
  8
FORM
 10
10.51190834276456
 20
0.4148326857783844
 30
0.0
 11
0.488091657235449
 21
0.4148326857783804
 31
0.0
  0
LINE
  5
B81
  8
FORM
 10
0.4148326857783911
 20
0.4880916572354357
 30
0.0
 11
0.4148326857783911
 21
7.2619083427645661
 31
0.0
  0
TEXT
  5
B82
  8
FORM
 10
9.0216528966173009
 20
1.402604855921892
 30
0.0
 40
0.1240537661196631
  1
STABALIZER
 72
     1
 11
9.5562655553710876
 21
1.402604855921892
 31
0.0
  0
TEXT
  5
B83
  8
FORM
 10
9.0925407629713941
 20
1.140136863310486
 30
0.0
 40
0.1240537661196631
  1
SHOULDER
 72
     1
 11
9.5562655553710876
 21
1.140136863310486
 31
0.0
  0
TEXT
  5
B84
  8
FORM
 10
8.4152814647778484
 20
0.6632139645562232
 30
0.0
 40
0.1240537661196631
  1
ASTROMECH DROD
  0
TEXT
  5
B85
  8
FORM
 10
10.32486372418294
 20
0.6680367179611438
 30
0.0
 40
0.1240537661196631
  1
A
  0
TEXT
  5
B86
  8
FORM
 10
8.6092989857439157
 20
0.5184109223699603
 30
0.0
 40
0.0496215064478653
  1
FULL
  0
TEXT
  5
B87
  8
FORM
 10
10.19918950201733
 20
0.5197998562234316
 30
0.0
 40
0.0496215064478653
  1
1   1
  0
TEXT
  5
B88
  8
FORM
 10
9.3773413591912451
 20
0.5236330774726518
 30
0.0
 40
0.0496215064478653
  1
APRIL 2005
 72
     2
 11
9.8073944150727463
 21
0.5236330774726518
 31
0.0
  0
TEXT
  5
B89
  8
FORM
  6
CONTINUOUS
 10
9.0208964459659313
 20
0.523133832641745
 30
0.0
 40
0.0428729815709556
  1
DRAWN:
  0
TEXT
  5
B8A
  8
FORM
  6
CONTINUOUS
 10
8.3572667864157033
 20
0.5231740371522911
 30
0.0
 40
0.0428729815709556
  1
SCALE:
  0
TEXT
  5
B8B
  8
FORM
  6
CONTINUOUS
 10
9.9252299215421118
 20
0.5226367627565156
 30
0.0
 40
0.0428729815709556
  1
SHEET:   OF
  0
TEXT
  5
B8C
  8
FORM
  6
CONTINUOUS
 10
8.2789752154276002
 20
0.8632302459813008
 30
0.0
 40
0.0428729815709556
  1
DRAWING NO.
  0
TEXT
  5
B8D
  8
FORM
  6
CONTINUOUS
 10
10.30825038943736
 20
0.8632302459812954
 30
0.0
 40
0.0428729815709556
  1
REV.
 72
     1
 11
10.371539076518291
 21
0.8632302459812954
 31
0.0
  0
LINE
  5
B8E
  8
FORM
  6
CONTINUOUS
 10
8.3468227734313203
 20
1.7314081227931479
 30
0.0
 11
10.40472588883717
 21
1.7314081227931479
 31
0.0
  0
LINE
  5
B8F
  8
FORM
  6
CONTINUOUS
 10
8.2396403195039252
 20
0.5952741111628246
 30
0.0
 11
8.2396403195039127
 21
1.6242256688657539
 31
0.0
  0
LINE
  5
B90
  8
FORM
  6
CONTINUOUS
 10
8.2396403195039252
 20
0.9275397183377283
 30
0.0
 11
10.51190834276456
 21
0.9275397183377283
 31
0.0
  0
LINE
  5
B91
  8
FORM
  6
CONTINUOUS
 10
8.2396403195039252
 20
0.5952741111628246
 30
0.0
 11
10.51190834276456
 21
0.5952741111628246
 31
0.0
  0
LINE
  5
B92
  8
FORM
  6
CONTINUOUS
 10
8.9538567217470018
 20
0.5952741111628246
 30
0.0
 11
8.9538567217470018
 21
0.4880916572354357
 31
0.0
  0
LINE
  5
B93
  8
FORM
  6
CONTINUOUS
 10
9.8930751853638945
 20
0.5939546701942106
 30
0.0
 11
9.8930751853638945
 21
0.4867722162668234
 31
0.0
  0
LINE
  5
B94
  8
FORM
  6
CONTINUOUS
 10
10.228697196914521
 20
0.9275397183377283
 30
0.0
 11
10.228697196914521
 21
0.5952741111628246
 31
0.0
  0
ARC
  5
B95
  8
FORM
 62
     5
 10
8.4527030500311184
 20
1.408612700747746
 30
0.0
 40
0.0116894331691455
 50
152.18113099770559
 51
330.99098814993278
  0
ARC
  5
B96
  8
FORM
 62
     5
 10
8.5033021239934712
 20
1.506055391254117
 30
0.0
 40
0.0102497755016894
 50
335.3231536346421
 51
152.67224926330371
  0
ARC
  5
B97
  8
FORM
 62
     5
 10
9.2840186332260686
 20
1.0251428111505121
 30
0.0
 40
0.9271700191326036
 50
148.41494327216151
 51
155.19852313243231
  0
ARC
  5
B98
  8
FORM
 62
     5
 10
9.4634794592623805
 20
0.961802619546086
 30
0.0
 40
1.09348660618851
 50
150.40875710206339
 51
156.20744757951141
  0
ARC
  5
B99
  8
FORM
 62
     7
 10
8.4196482387462837
 20
1.310408787308972
 30
0.0
 40
0.0156195918919929
 50
161.128725237971
 51
346.89295927401378
  0
ARC
  5
B9A
  8
FORM
 62
     7
 10
12.986624248357661
 20
-0.6622053212176735
 30
0.0
 40
4.959414700690683
 50
153.58307292081309
 51
156.60691138966209
  0
ARC
  5
B9B
  8
FORM
 62
     7
 10
12.270341795476069
 20
-0.404523679947245
 30
0.0
 40
4.225482682093805
 50
152.34095999775931
 51
152.9694116127464
  0
ARC
  5
B9C
  8
FORM
 62
     7
 10
12.31770784416716
 20
-0.5421554261985393
 30
0.0
 40
4.3314030024614532
 50
153.3711283527573
 51
154.60402195655351
  0
ARC
  5
B9D
  8
FORM
 62
     7
 10
8.6449831544190658
 20
1.4929647817796541
 30
0.0
 40
0.1123010753991666
 50
23.468725928191009
 51
88.151617587883351
  0
ARC
  5
B9E
  8
FORM
 62
     7
 10
8.6474930033850441
 20
1.5002048004421309
 30
0.0
 40
0.1325466483605536
 50
18.23262529566556
 51
154.63608874642691
  0
ARC
  5
B9F
  8
FORM
 62
     7
 10
8.6872054500547158
 20
1.5140203804325429
 30
0.0
 40
0.0905081252328597
 50
336.99722732837893
 51
341.11190659806488
  0
ARC
  5
BA0
  8
FORM
 62
     7
 10
8.6925885873587099
 20
1.518023125076682
 30
0.0
 40
0.0592800108120978
 50
333.24704424527528
 51
339.12675173356178
  0
ARC
  5
BA1
  8
FORM
 62
     7
 10
8.7486590605241545
 20
1.4900315216956841
 30
0.0
 40
0.0033975184677181
 50
157.37475902115841
 51
243.18317341424029
  0
ARC
  5
BA2
  8
FORM
 62
     7
 10
8.7687261520040316
 20
1.479180728211404
 30
0.0
 40
0.0018671770861506
 50
246.74236679857631
 51
343.55073793579641
  0
ARC
  5
BA3
  8
FORM
 62
     7
 10
8.8274813116345108
 20
1.6352395257228101
 30
0.0
 40
0.1686180993928079
 50
241.5396617947477
 51
249.33988332022491
  0
ARC
  5
BA4
  8
FORM
 62
     7
 10
8.7096101503329564
 20
1.4564235536507519
 30
0.0
 40
0.0332867008385398
 50
210.28645373052609
 51
287.25915125833183
  0
ARC
  5
BA5
  8
FORM
 62
     7
 10
8.7124702215478074
 20
1.4420291932482421
 30
0.0
 40
0.0187552005348545
 50
291.96730232828992
 51
10.20108836223371
  0
ARC
  5
BA6
  8
FORM
 62
     7
 10
8.564244303671483
 20
1.4099506080749311
 30
0.0
 40
0.1203411716101638
 50
14.28109924276106
 51
24.947261539878259
  0
ARC
  5
BA7
  8
FORM
 62
     7
 10
8.6344344220811848
 20
1.446400835584748
 30
0.0
 40
0.0414692038150907
 50
20.18306378886756
 51
47.833846572520187
  0
ARC
  5
BA8
  8
FORM
 62
     7
 10
8.6421869305520538
 20
1.425395782353686
 30
0.0
 40
0.0555036247089069
 50
68.784960310907422
 51
94.742087985452599
  0
ARC
  5
BA9
  8
FORM
 62
     7
 10
8.6415830330004582
 20
1.458197696779205
 30
0.0
 40
0.0228616406883783
 50
100.0375073429591
 51
170.98475346238999
  0
ARC
  5
BAA
  8
FORM
 62
     7
 10
8.7491157575637004
 20
1.44239481520402
 30
0.0
 40
0.1315481147718127
 50
171.52589863719891
 51
197.49474109667489
  0
ARC
  5
BAB
  8
FORM
 62
     7
 10
8.6605020997370552
 20
1.4442559458970461
 30
0.0
 40
0.070435354543076
 50
0.8906501289532242
 51
49.113860192417171
  0
ARC
  5
BAC
  8
FORM
 62
     7
 10
8.6456637147896345
 20
1.4571752353135721
 30
0.0
 40
0.0554374351781352
 50
99.869748807366761
 51
175.59516845025641
  0
ARC
  5
BAD
  8
FORM
 62
     7
 10
8.655659736430799
 20
1.427115161552992
 30
0.0
 40
0.0868929870198762
 50
54.104282451028169
 51
102.9674010870567
  0
ARC
  5
BAE
  8
FORM
 62
     7
 10
8.9008970910441363
 20
1.4788146442039769
 30
0.0
 40
0.2874636616323473
 50
195.32307896217739
 51
209.29084315695809
  0
ARC
  5
BAF
  8
FORM
 62
     7
 10
8.8104474290478443
 20
1.431681255733904
 30
0.0
 40
0.2220595121447286
 50
172.3003020759547
 51
200.12627387409299
  0
ARC
  5
BB0
  8
FORM
 62
     7
 10
8.9692156821525835
 20
1.4936584676532521
 30
0.0
 40
0.3924747518553055
 50
200.64629086238159
 51
210.0464960904439
  0
ARC
  5
BB1
  8
FORM
 62
     7
 10
8.4285634176494302
 20
1.1894444304332179
 30
0.0
 40
0.2669036033788384
 50
28.431949107384369
 51
33.865461133002448
  0
ARC
  5
BB2
  8
FORM
 62
     7
 10
8.6477851899121418
 20
1.3043789704954409
 30
0.0
 40
0.0196808185605977
 50
201.56446042640411
 51
38.094090168146302
  0
ARC
  5
BB3
  8
FORM
 62
     5
 10
8.8207377384755272
 20
1.46788586035339
 30
0.0
 40
0.0109475882235806
 50
227.6202696593605
 51
57.412112921204063
  0
ARC
  5
BB4
  8
FORM
 62
     5
 10
8.6916268185373831
 20
1.2994580135401139
 30
0.0
 40
0.2231303431240536
 50
52.766851639305791
 51
65.063571515457895
  0
ARC
  5
BB5
  8
FORM
 62
     5
 10
8.5877631692799064
 20
1.13842159934831
 30
0.0
 40
0.3926534127859294
 50
54.932512589538803
 51
74.152868438598929
  0
ARC
  5
BB6
  8
FORM
 62
     5
 10
8.5934245403279768
 20
1.0216904996352041
 30
0.0
 40
0.5047836680613815
 50
78.393012355262385
 51
89.647961077025343
  0
ARC
  5
BB7
  8
FORM
 62
     5
 10
8.5956777192648168
 20
1.5411156189538371
 30
0.0
 40
0.0146755181494107
 50
183.9979944211656
 51
273.313807745882
  0
ARC
  5
BB8
  8
FORM
 62
     5
 10
8.6452080347648383
 20
1.5449925344707101
 30
0.0
 40
0.0643569383653594
 50
145.6085916691928
 51
184.36670732083459
  0
ARC
  5
BB9
  8
FORM
 62
     5
 10
8.6056112245357781
 20
1.572800869575987
 30
0.0
 40
0.0159849472723169
 50
75.244714174009715
 51
147.69298501161609
  0
ARC
  5
BBA
  8
FORM
 62
     5
 10
8.4150667413525504
 20
0.8415446028546433
 30
0.0
 40
0.7716587169469522
 50
61.637242241525243
 51
75.392005557716686
  0
ARC
  5
BBB
  8
FORM
 62
     5
 10
8.7670640627966812
 20
1.5075927725860141
 30
0.0
 40
0.0195205512839304
 50
342.69825742684009
 51
41.672783787677609
  0
ARC
  5
BBC
  8
FORM
 62
     7
 10
8.6872054500547158
 20
1.5140203804325429
 30
0.0
 40
0.0905081252328597
 50
5.6380312699922799
 51
17.791456368736839
  0
ARC
  5
BBD
  8
FORM
 62
     7
 10
8.7283933766539974
 20
1.0875173064798851
 30
0.0
 40
0.0289618424161791
 50
88.432533024773406
 51
186.62631613112151
  0
ARC
  5
BBE
  8
FORM
 62
     7
 10
8.7329388624880409
 20
1.0935561141623911
 30
0.0
 40
0.0346094334010041
 50
195.7266305128272
 51
285.3806868435185
  0
ARC
  5
BBF
  8
FORM
 62
     7
 10
8.6921249096394462
 20
1.399836627797838
 30
0.0
 40
0.3433099811180429
 50
278.37329371359471
 51
293.15208507016871
  0
ARC
  5
BC0
  8
FORM
 62
     7
 10
8.8073054558117398
 20
1.183755709175611
 30
0.0
 40
0.0708062766559368
 50
257.51805604168283
 51
277.23103351305667
  0
ARC
  5
BC1
  8
FORM
 62
     7
 10
8.8112753621518465
 20
1.125587505847327
 30
0.0
 40
0.0130473135597135
 50
292.26031345923337
 51
12.867379300523741
  0
ARC
  5
BC2
  8
FORM
 62
     7
 10
8.8015740655167427
 20
1.1237169753792151
 30
0.0
 40
0.0229240259381713
 50
12.02537552739555
 51
52.143631645159317
  0
ARC
  5
BC3
  8
FORM
 62
     7
 10
9.2903703758292053
 20
1.7177121719562261
 30
0.0
 40
0.7463393891068985
 50
219.60277928185971
 51
230.50020204080559
  0
ARC
  5
BC4
  8
FORM
 62
     7
 10
8.8296456385056672
 20
1.331408215926646
 30
0.0
 40
0.1451589246893384
 50
175.97523115435061
 51
218.04500009534149
  0
ARC
  5
BC5
  8
FORM
 62
     7
 10
8.7681196740565355
 20
1.345984764852026
 30
0.0
 40
0.083390506876368
 50
149.96078860476399
 51
183.01641230856191
  0
ARC
  5
BC6
  8
FORM
 62
     7
 10
8.7098650217584037
 20
1.380288416425163
 30
0.0
 40
0.0157973271090111
 50
69.764209445538683
 51
151.8988190455112
  0
ARC
  5
BC7
  8
FORM
 62
     7
 10
8.7080012658942092
 20
1.379214646317297
 30
0.0
 40
0.0175037378911136
 50
357.6694469744499
 51
65.251102439515435
  0
ARC
  5
BC8
  8
FORM
 62
     7
 10
8.6667585616191154
 20
1.375830012079827
 30
0.0
 40
0.0587927523648524
 50
345.36193237678458
 51
2.6056939300727771
  0
ARC
  5
BC9
  8
FORM
 62
     7
 10
8.8551658113363843
 20
1.3203060774471089
 30
0.0
 40
0.1376662622860391
 50
162.8186183088072
 51
185.35496664157321
  0
ARC
  5
BCA
  8
FORM
 62
     7
 10
8.8398182288119358
 20
1.334116128349554
 30
0.0
 40
0.1246028784563081
 50
192.3534994193023
 51
222.30204766960321
  0
ARC
  5
BCB
  8
FORM
 62
     7
 10
9.2690700799791941
 20
1.6801667243155991
 30
0.0
 40
0.6757904342767203
 50
219.50633019139829
 51
228.42762303996261
  0
ARC
  5
BCC
  8
FORM
 62
     7
 10
8.7477206384566273
 20
1.075226378615854
 30
0.0
 40
0.1232530459561097
 50
32.971129457978812
 51
53.728419363024337
  0
ARC
  5
BCD
  8
FORM
 62
     7
 10
8.8145554353799724
 20
1.123386558641035
 30
0.0
 40
0.0411706022540692
 50
287.74749415951351
 51
27.352111896629431
  0
ARC
  5
BCE
  8
FORM
 62
     7
 10
8.7529590455379278
 20
0.8556515505777362
 30
0.0
 40
0.2618979945216389
 50
81.426570944510203
 51
95.208118001959775
  0
ARC
  5
BCF
  8
FORM
 62
     7
 10
8.6399090101725413
 20
1.263904935289224
 30
0.0
 40
0.0116592986581434
 50
325.52447187114308
 51
75.340502228459783
  0
ARC
  5
BD0
  8
FORM
 62
     7
 10
8.6255438766292443
 20
1.274452046212815
 30
0.0
 40
0.029477073809142
 50
277.78730616127859
 51
324.42957968808531
  0
ARC
  5
BD1
  8
FORM
 62
     7
 10
8.6203308114955632
 20
1.279354254970124
 30
0.0
 40
0.0353282907560927
 50
243.48581874200181
 51
285.1065744639306
  0
ARC
  5
BD2
  8
FORM
 62
     7
 10
7.0577554612988642
 20
-2.7135134180558151
 30
0.0
 40
4.2921169546077023
 50
68.327181839257534
 51
70.606105230637283
  0
ARC
  5
BD3
  8
FORM
 62
     7
 10
8.4799676144421561
 20
1.322488865732373
 30
0.0
 40
0.0129317672482619
 50
76.445232091872299
 51
134.36352227876461
  0
ARC
  5
BD4
  8
FORM
 62
     7
 10
8.5374625504547801
 20
1.234028948922274
 30
0.0
 40
0.1182093245640582
 50
124.2547762008316
 51
135.012931962436
  0
ARC
  5
BD5
  8
FORM
 62
     7
 10
8.4560763017646181
 20
1.313836565772887
 30
0.0
 40
0.0043661837481845
 50
120.5491196217085
 51
251.48388650457539
  0
ARC
  5
BD6
  8
FORM
 62
     7
 10
7.8685444285594057
 20
-0.320448204379332
 30
0.0
 40
1.73232148942599
 50
64.85742894317822
 51
67.515132469299331
  0
ARC
  5
BD7
  8
FORM
 62
     7
 10
8.6005054623796831
 20
1.2222687612656189
 30
0.0
 40
0.016355582703201
 50
329.18566117941782
 51
69.527151249863806
  0
ARC
  5
BD8
  8
FORM
 62
     7
 10
8.5575977749607368
 20
1.157460769231452
 30
0.0
 40
0.0937315838270445
 50
58.747973844557571
 51
81.106226592028065
  0
ARC
  5
BD9
  8
FORM
 62
     7
 10
8.5476269590563874
 20
1.0953244309011021
 30
0.0
 40
0.1566625456309896
 50
81.016817915507374
 51
97.679603827268224
  0
ARC
  5
BDA
  8
FORM
 62
     7
 10
8.5641155473252226
 20
1.142402144626556
 30
0.0
 40
0.1162077046398819
 50
121.5050128230592
 51
139.09578810607039
  0
ARC
  5
BDB
  8
FORM
 62
     7
 10
8.5956634737412543
 20
1.219774089452923
 30
0.0
 40
0.0197838088598991
 50
277.70569210516868
 51
342.69880024124109
  0
ARC
  5
BDC
  8
FORM
 62
     7
 10
8.5895916392091181
 20
1.24209711741939
 30
0.0
 40
0.0428262819911093
 50
250.08394506358289
 51
281.75453717228322
  0
ARC
  5
BDD
  8
FORM
 62
     7
 10
8.6035838406871434
 20
1.2470140068239759
 30
0.0
 40
0.0534626445011499
 50
221.18187885427241
 51
237.68378775985289
  0
ARC
  5
BDE
  8
FORM
 62
     7
 10
8.540881948658928
 20
1.1850354521197439
 30
0.0
 40
0.0349516136122833
 50
50.003848755011681
 51
75.5416830098399
  0
ARC
  5
BDF
  8
FORM
 62
     7
 10
8.539033271448627
 20
1.1977040482533421
 30
0.0
 40
0.0236698600369107
 50
63.4626603498468
 51
100.74200229027051
  0
ARC
  5
BE0
  8
FORM
 62
     7
 10
8.5346215196718553
 20
1.1809082343669079
 30
0.0
 40
0.0400508933407635
 50
89.999999999999588
 51
125.5974615489027
  0
ARC
  5
BE1
  8
FORM
 62
     7
 10
9.0097209813674421
 20
1.466717860727113
 30
0.0
 40
0.5541701639770315
 50
197.51922498184919
 51
203.981481444731
  0
ARC
  5
BE2
  8
FORM
 62
     7
 10
8.3628846552807197
 20
1.2898355529328041
 30
0.0
 40
0.1684445662203668
 50
346.52409876011302
 51
356.71498770316703
  0
ARC
  5
BE3
  8
FORM
 62
     7
 10
7.8685444285594057
 20
-0.320448204379332
 30
0.0
 40
1.73232148942599
 50
69.286600818944052
 51
70.22311760076802
  0
ARC
  5
BE4
  8
FORM
 62
     7
 10
8.4537949821643252
 20
1.1432197051486039
 30
0.0
 40
0.0507962090609607
 50
245.40259669902051
 51
275.40975098180542
  0
ARC
  5
BE5
  8
FORM
 62
     7
 10
8.6319086632513091
 20
1.051561735939732
 30
0.0
 40
0.2018916056895807
 50
126.68044463040199
 51
139.78708822539889
  0
ARC
  5
BE6
  8
FORM
 62
     7
 10
8.4528447429416396
 20
1.286103942257375
 30
0.0
 40
0.1935393098665516
 50
271.69929119420118
 51
283.39540842056908
  0
ARC
  5
BE7
  8
FORM
 62
     7
 10
8.814743490558925
 20
0.8394566603861176
 30
0.0
 40
0.4804674435695996
 50
134.5410403491789
 51
138.91474429089911
  0
ARC
  5
BE8
  8
FORM
 62
     7
 10
8.4608085331070484
 20
1.1483805426307601
 30
0.0
 40
0.0127106797596904
 50
201.8252958964795
 51
267.16449786715452
  0
ARC
  5
BE9
  8
FORM
 62
     7
 10
8.4580722179255368
 20
1.147174651422568
 30
0.0
 40
0.0097227119639509
 50
124.254854327418
 51
201.22329273937871
  0
ARC
  5
BEA
  8
FORM
 62
     7
 10
8.4876769952339082
 20
1.1392641804769399
 30
0.0
 40
0.0426250288051594
 50
283.5751770312794
 51
324.58969283639942
  0
ARC
  5
BEB
  8
FORM
 62
     7
 10
8.5119869104237544
 20
1.118963142102714
 30
0.0
 40
0.0113194287533908
 50
337.14160324238748
 51
47.56496670892831
  0
ARC
  5
BEC
  8
FORM
 62
     7
 10
8.4945640226191585
 20
1.0940718655784041
 30
0.0
 40
0.0416329527718254
 50
52.990730681111657
 51
91.748895977531376
  0
ARC
  5
BED
  8
FORM
 62
     7
 10
8.4767365844636586
 20
1.248709333908536
 30
0.0
 40
0.1142301741608507
 50
261.66603807207321
 51
278.33396192792679
  0
ARC
  5
BEE
  8
FORM
 62
     7
 10
8.4424419914530304
 20
1.121538527776669
 30
0.0
 40
0.026388878299001
 50
192.64550774538381
 51
248.2223967256862
  0
ARC
  5
BEF
  8
FORM
 62
     7
 10
8.4359563479528816
 20
1.1245280465162271
 30
0.0
 40
0.0211641200630232
 50
178.88427582775461
 51
204.46998391858139
  0
ARC
  5
BF0
  8
FORM
 62
     7
 10
8.4883108493894923
 20
1.11917939094007
 30
0.0
 40
0.0737399761016964
 50
140.54690015149379
 51
175.5193383191162
  0
ARC
  5
BF1
  8
FORM
 62
     7
 10
9.2146246124396143
 20
0.5408976667048764
 30
0.0
 40
1.002139051054683
 50
137.4564398093305
 51
141.40545593619061
  0
POLYLINE
  5
BF2
  8
FORM
 62
     1
 10
8.619376093094699
 20
1.5786839099763863
 30
0.0
 66
     1
 70
     8
  0
VERTEX
  8
FORM
  5
E7A
 10
8.61938
 20
1.57868
 30
0.000000
  70
    32
  0
VERTEX
  8
FORM
  5
E7B
 10
8.61893
 20
1.57885
 30
0.000000
  70
    32
  0
VERTEX
  8
FORM
  5
E7C
 10
8.61847
 20
1.57896
 30
0.000000
  70
    32
  0
VERTEX
  8
FORM
  5
E7D
 10
8.61798
 20
1.57902
 30
0.000000
  70
    32
  0
VERTEX
  8
FORM
  5
E7E
 10
8.61748
 20
1.57903
 30
0.000000
  70
    32
  0
VERTEX
  8
FORM
  5
E7F
 10
8.61695
 20
1.57898
 30
0.000000
  70
    32
  0
VERTEX
  8
FORM
  5
E80
 10
8.61641
 20
1.57889
 30
0.000000
  70
    32
  0
VERTEX
  8
FORM
  5
E81
 10
8.61586
 20
1.57874
 30
0.000000
  70
    32
  0
VERTEX
  8
FORM
  5
E82
 10
8.61529
 20
1.57854
 30
0.000000
  70
    32
  0
VERTEX
  8
FORM
  5
E83
 10
8.61471
 20
1.57828
 30
0.000000
  70
    32
  0
VERTEX
  8
FORM
  5
E84
 10
8.61411
 20
1.57798
 30
0.000000
  70
    32
  0
VERTEX
  8
FORM
  5
E85
 10
8.61351
 20
1.57763
 30
0.000000
  70
    32
  0
VERTEX
  8
FORM
  5
E86
 10
8.61290
 20
1.57723
 30
0.000000
  70
    32
  0
VERTEX
  8
FORM
  5
E87
 10
8.61228
 20
1.57678
 30
0.000000
  70
    32
  0
VERTEX
  8
FORM
  5
E88
 10
8.61166
 20
1.57628
 30
0.000000
  70
    32
  0
VERTEX
  8
FORM
  5
E89
 10
8.61103
 20
1.57574
 30
0.000000
  70
    32
  0
VERTEX
  8
FORM
  5
E8A
 10
8.61040
 20
1.57515
 30
0.000000
  70
    32
  0
VERTEX
  8
FORM
  5
E8B
 10
8.60976
 20
1.57452
 30
0.000000
  70
    32
  0
VERTEX
  8
FORM
  5
E8C
 10
8.60913
 20
1.57385
 30
0.000000
  70
    32
  0
VERTEX
  8
FORM
  5
E8D
 10
8.60850
 20
1.57314
 30
0.000000
  70
    32
  0
VERTEX
  8
FORM
  5
E8E
 10
8.60788
 20
1.57239
 30
0.000000
  70
    32
  0
VERTEX
  8
FORM
  5
E8F
 10
8.60726
 20
1.57160
 30
0.000000
  70
    32
  0
VERTEX
  8
FORM
  5
E90
 10
8.60664
 20
1.57078
 30
0.000000
  70
    32
  0
VERTEX
  8
FORM
  5
E91
 10
8.60604
 20
1.56993
 30
0.000000
  70
    32
  0
VERTEX
  8
FORM
  5
E92
 10
8.60544
 20
1.56905
 30
0.000000
  70
    32
  0
VERTEX
  8
FORM
  5
E93
 10
8.60485
 20
1.56814
 30
0.000000
  70
    32
  0
VERTEX
  8
FORM
  5
E94
 10
8.60428
 20
1.56720
 30
0.000000
  70
    32
  0
VERTEX
  8
FORM
  5
E95
 10
8.60372
 20
1.56624
 30
0.000000
  70
    32
  0
VERTEX
  8
FORM
  5
E96
 10
8.60318
 20
1.56525
 30
0.000000
  70
    32
  0
VERTEX
  8
FORM
  5
E97
 10
8.60265
 20
1.56425
 30
0.000000
  70
    32
  0
VERTEX
  8
FORM
  5
E98
 10
8.60214
 20
1.56323
 30
0.000000
  70
    32
  0
VERTEX
  8
FORM
  5
E99
 10
8.60164
 20
1.56220
 30
0.000000
  70
    32
  0
VERTEX
  8
FORM
  5
E9A
 10
8.60117
 20
1.56115
 30
0.000000
  70
    32
  0
VERTEX
  8
FORM
  5
E9B
 10
8.60072
 20
1.56010
 30
0.000000
  70
    32
  0
VERTEX
  8
FORM
  5
E9C
 10
8.60029
 20
1.55904
 30
0.000000
  70
    32
  0
VERTEX
  8
FORM
  5
E9D
 10
8.59989
 20
1.55797
 30
0.000000
  70
    32
  0
VERTEX
  8
FORM
  5
E9E
 10
8.59951
 20
1.55691
 30
0.000000
  70
    32
  0
VERTEX
  8
FORM
  5
E9F
 10
8.59915
 20
1.55584
 30
0.000000
  70
    32
  0
VERTEX
  8
FORM
  5
EA0
 10
8.59882
 20
1.55478
 30
0.000000
  70
    32
  0
VERTEX
  8
FORM
  5
EA1
 10
8.59852
 20
1.55372
 30
0.000000
  70
    32
  0
VERTEX
  8
FORM
  5
EA2
 10
8.59825
 20
1.55267
 30
0.000000
  70
    32
  0
VERTEX
  8
FORM
  5
EA3
 10
8.59800
 20
1.55164
 30
0.000000
  70
    32
  0
VERTEX
  8
FORM
  5
EA4
 10
8.59778
 20
1.55061
 30
0.000000
  70
    32
  0
VERTEX
  8
FORM
  5
EA5
 10
8.59760
 20
1.54960
 30
0.000000
  70
    32
  0
VERTEX
  8
FORM
  5
EA6
 10
8.59744
 20
1.54862
 30
0.000000
  70
    32
  0
VERTEX
  8
FORM
  5
EA7
 10
8.59731
 20
1.54765
 30
0.000000
  70
    32
  0
VERTEX
  8
FORM
  5
EA8
 10
8.59721
 20
1.54670
 30
0.000000
  70
    32
  0
VERTEX
  8
FORM
  5
EA9
 10
8.59714
 20
1.54578
 30
0.000000
  70
    32
  0
VERTEX
  8
FORM
  5
EAA
 10
8.59711
 20
1.54489
 30
0.000000
  70
    32
  0
VERTEX
  8
FORM
  5
EAB
 10
8.59710
 20
1.54403
 30
0.000000
  70
    32
  0
VERTEX
  8
FORM
  5
EAC
 10
8.59713
 20
1.54320
 30
0.000000
  70
    32
  0
VERTEX
  8
FORM
  5
EAD
 10
8.59719
 20
1.54241
 30
0.000000
  70
    32
  0
VERTEX
  8
FORM
  5
EAE
 10
8.59727
 20
1.54165
 30
0.000000
  70
    32
  0
VERTEX
  8
FORM
  5
EAF
 10
8.59739
 20
1.54092
 30
0.000000
  70
    32
  0
VERTEX
  8
FORM
  5
EB0
 10
8.59754
 20
1.54024
 30
0.000000
  70
    32
  0
VERTEX
  8
FORM
  5
EB1
 10
8.59772
 20
1.53960
 30
0.000000
  70
    32
  0
VERTEX
  8
FORM
  5
EB2
 10
8.59793
 20
1.53900
 30
0.000000
  70
    32
  0
VERTEX
  8
FORM
  5
EB3
 10
8.59817
 20
1.53844
 30
0.000000
  70
    32
  0
VERTEX
  8
FORM
  5
EB4
 10
8.59843
 20
1.53793
 30
0.000000
  70
    32
  0
VERTEX
  8
FORM
  5
EB5
 10
8.59873
 20
1.53747
 30
0.000000
  70
    32
  0
VERTEX
  8
FORM
  5
EB6
 10
8.59905
 20
1.53706
 30
0.000000
  70
    32
  0
VERTEX
  8
FORM
  5
EB7
 10
8.59939
 20
1.53669
 30
0.000000
  70
    32
  0
VERTEX
  8
FORM
  5
EB8
 10
8.59977
 20
1.53637
 30
0.000000
  70
    32
  0
VERTEX
  8
FORM
  5
EB9
 10
8.60016
 20
1.53611
 30
0.000000
  70
    32
  0
VERTEX
  8
FORM
  5
EBA
 10
8.60058
 20
1.53589
 30
0.000000
  70
    32
  0
VERTEX
  8
FORM
  5
EBB
 10
8.60103
 20
1.53573
 30
0.000000
  70
    32
  0
VERTEX
  8
FORM
  5
EBC
 10
8.60149
 20
1.53561
 30
0.000000
  70
    32
  0
VERTEX
  8
FORM
  5
EBD
 10
8.60198
 20
1.53555
 30
0.000000
  70
    32
  0
VERTEX
  8
FORM
  5
EBE
 10
8.60248
 20
1.53555
 30
0.000000
  70
    32
  0
VERTEX
  8
FORM
  5
EBF
 10
8.60301
 20
1.53559
 30
0.000000
  70
    32
  0
VERTEX
  8
FORM
  5
EC0
 10
8.60355
 20
1.53569
 30
0.000000
  70
    32
  0
VERTEX
  8
FORM
  5
EC1
 10
8.60410
 20
1.53584
 30
0.000000
  70
    32
  0
VERTEX
  8
FORM
  5
EC2
 10
8.60467
 20
1.53604
 30
0.000000
  70
    32
  0
VERTEX
  8
FORM
  5
EC3
 10
8.60525
 20
1.53629
 30
0.000000
  70
    32
  0
VERTEX
  8
FORM
  5
EC4
 10
8.60585
 20
1.53659
 30
0.000000
  70
    32
  0
VERTEX
  8
FORM
  5
EC5
 10
8.60645
 20
1.53695
 30
0.000000
  70
    32
  0
VERTEX
  8
FORM
  5
EC6
 10
8.60706
 20
1.53735
 30
0.000000
  70
    32
  0
VERTEX
  8
FORM
  5
EC7
 10
8.60768
 20
1.53780
 30
0.000000
  70
    32
  0
VERTEX
  8
FORM
  5
EC8
 10
8.60830
 20
1.53829
 30
0.000000
  70
    32
  0
VERTEX
  8
FORM
  5
EC9
 10
8.60893
 20
1.53884
 30
0.000000
  70
    32
  0
VERTEX
  8
FORM
  5
ECA
 10
8.60956
 20
1.53942
 30
0.000000
  70
    32
  0
VERTEX
  8
FORM
  5
ECB
 10
8.61020
 20
1.54005
 30
0.000000
  70
    32
  0
VERTEX
  8
FORM
  5
ECC
 10
8.61083
 20
1.54072
 30
0.000000
  70
    32
  0
VERTEX
  8
FORM
  5
ECD
 10
8.61146
 20
1.54144
 30
0.000000
  70
    32
  0
VERTEX
  8
FORM
  5
ECE
 10
8.61208
 20
1.54218
 30
0.000000
  70
    32
  0
VERTEX
  8
FORM
  5
ECF
 10
8.61270
 20
1.54297
 30
0.000000
  70
    32
  0
VERTEX
  8
FORM
  5
ED0
 10
8.61332
 20
1.54379
 30
0.000000
  70
    32
  0
VERTEX
  8
FORM
  5
ED1
 10
8.61392
 20
1.54464
 30
0.000000
  70
    32
  0
VERTEX
  8
FORM
  5
ED2
 10
8.61452
 20
1.54553
 30
0.000000
  70
    32
  0
VERTEX
  8
FORM
  5
ED3
 10
8.61511
 20
1.54644
 30
0.000000
  70
    32
  0
VERTEX
  8
FORM
  5
ED4
 10
8.61568
 20
1.54738
 30
0.000000
  70
    32
  0
VERTEX
  8
FORM
  5
ED5
 10
8.61624
 20
1.54834
 30
0.000000
  70
    32
  0
VERTEX
  8
FORM
  5
ED6
 10
8.61679
 20
1.54932
 30
0.000000
  70
    32
  0
VERTEX
  8
FORM
  5
ED7
 10
8.61731
 20
1.55032
 30
0.000000
  70
    32
  0
VERTEX
  8
FORM
  5
ED8
 10
8.61782
 20
1.55134
 30
0.000000
  70
    32
  0
VERTEX
  8
FORM
  5
ED9
 10
8.61832
 20
1.55237
 30
0.000000
  70
    32
  0
VERTEX
  8
FORM
  5
EDA
 10
8.61879
 20
1.55342
 30
0.000000
  70
    32
  0
VERTEX
  8
FORM
  5
EDB
 10
8.61924
 20
1.55447
 30
0.000000
  70
    32
  0
VERTEX
  8
FORM
  5
EDC
 10
8.61967
 20
1.55554
 30
0.000000
  70
    32
  0
VERTEX
  8
FORM
  5
EDD
 10
8.62007
 20
1.55660
 30
0.000000
  70
    32
  0
VERTEX
  8
FORM
  5
EDE
 10
8.62045
 20
1.55767
 30
0.000000
  70
    32
  0
VERTEX
  8
FORM
  5
EDF
 10
8.62081
 20
1.55873
 30
0.000000
  70
    32
  0
VERTEX
  8
FORM
  5
EE0
 10
8.62114
 20
1.55980
 30
0.000000
  70
    32
  0
VERTEX
  8
FORM
  5
EE1
 10
8.62144
 20
1.56085
 30
0.000000
  70
    32
  0
VERTEX
  8
FORM
  5
EE2
 10
8.62171
 20
1.56190
 30
0.000000
  70
    32
  0
VERTEX
  8
FORM
  5
EE3
 10
8.62196
 20
1.56294
 30
0.000000
  70
    32
  0
VERTEX
  8
FORM
  5
EE4
 10
8.62218
 20
1.56396
 30
0.000000
  70
    32
  0
VERTEX
  8
FORM
  5
EE5
 10
8.62236
 20
1.56497
 30
0.000000
  70
    32
  0
VERTEX
  8
FORM
  5
EE6
 10
8.62252
 20
1.56596
 30
0.000000
  70
    32
  0
VERTEX
  8
FORM
  5
EE7
 10
8.62265
 20
1.56693
 30
0.000000
  70
    32
  0
VERTEX
  8
FORM
  5
EE8
 10
8.62275
 20
1.56787
 30
0.000000
  70
    32
  0
VERTEX
  8
FORM
  5
EE9
 10
8.62282
 20
1.56879
 30
0.000000
  70
    32
  0
VERTEX
  8
FORM
  5
EEA
 10
8.62285
 20
1.56968
 30
0.000000
  70
    32
  0
VERTEX
  8
FORM
  5
EEB
 10
8.62286
 20
1.57054
 30
0.000000
  70
    32
  0
VERTEX
  8
FORM
  5
EEC
 10
8.62283
 20
1.57137
 30
0.000000
  70
    32
  0
VERTEX
  8
FORM
  5
EED
 10
8.62277
 20
1.57217
 30
0.000000
  70
    32
  0
VERTEX
  8
FORM
  5
EEE
 10
8.62269
 20
1.57293
 30
0.000000
  70
    32
  0
VERTEX
  8
FORM
  5
EEF
 10
8.62257
 20
1.57365
 30
0.000000
  70
    32
  0
VERTEX
  8
FORM
  5
EF0
 10
8.62242
 20
1.57433
 30
0.000000
  70
    32
  0
VERTEX
  8
FORM
  5
EF1
 10
8.62224
 20
1.57498
 30
0.000000
  70
    32
  0
VERTEX
  8
FORM
  5
EF2
 10
8.62203
 20
1.57558
 30
0.000000
  70
    32
  0
VERTEX
  8
FORM
  5
EF3
 10
8.62179
 20
1.57613
 30
0.000000
  70
    32
  0
VERTEX
  8
FORM
  5
EF4
 10
8.62153
 20
1.57664
 30
0.000000
  70
    32
  0
VERTEX
  8
FORM
  5
EF5
 10
8.62123
 20
1.57710
 30
0.000000
  70
    32
  0
VERTEX
  8
FORM
  5
EF6
 10
8.62091
 20
1.57752
 30
0.000000
  70
    32
  0
VERTEX
  8
FORM
  5
EF7
 10
8.62057
 20
1.57788
 30
0.000000
  70
    32
  0
VERTEX
  8
FORM
  5
EF8
 10
8.62019
 20
1.57820
 30
0.000000
  70
    32
  0
VERTEX
  8
FORM
  5
EF9
 10
8.61980
 20
1.57847
 30
0.000000
  70
    32
  0
VERTEX
  8
FORM
  5
EFA
 10
8.61938
 20
1.57868
 30
0.000000
  70
    32
  0
SEQEND
  8
FORM
  5
EFB
  0
ARC
  5
BF3
  8
FORM
 62
     7
 10
8.6403625569012554
 20
1.500811171838667
 30
0.0
 40
0.10472116332788
 50
85.485448269952457
 51
155.5006785655419
  0
TEXT
  5
BF4
  8
FORM
 62
     7
 10
8.2718978558447454
 20
0.953192458939605
 30
0.0
 40
0.0410250240159514
  1
R2-D2 BUILDERS CLUB
  0
ARC
  5
BF5
  8
FORM
 10
0.488091657235449
 20
0.4880916572354357
 30
0.0
 40
0.073258971457056
 50
180.0
 51
270.0
  0
ARC
  5
BF6
  8
FORM
 10
0.488091657235449
 20
0.4880916572354357
 30
0.0
 40
0.1465179429141119
 50
180.0
 51
270.0
  0
ARC
  5
BF7
  8
FORM
 10
0.488091657235449
 20
0.4880916572354357
 30
0.0
 40
0.1648326857783759
 50
180.0
 51
270.0
  0
ARC
  5
BF8
  8
FORM
 10
0.488091657235449
 20
0.4880916572354357
 30
0.0
 40
0.2380916572354319
 50
180.0
 51
270.0
  0
ARC
  5
BF9
  8
FORM
 10
0.488091657235449
 20
7.2619083427645661
 30
0.0
 40
0.2380916572354319
 50
90.0
 51
180.0
  0
ARC
  5
BFA
  8
FORM
 10
0.488091657235449
 20
7.2619083427645661
 30
0.0
 40
0.1648326857783759
 50
90.0
 51
180.0
  0
ARC
  5
BFB
  8
FORM
 10
0.488091657235449
 20
7.2619083427645661
 30
0.0
 40
0.1465179429141119
 50
90.0
 51
180.0
  0
ARC
  5
BFC
  8
FORM
 10
0.488091657235449
 20
7.2619083427645661
 30
0.0
 40
0.073258971457056
 50
90.0
 51
180.0
  0
ARC
  5
BFD
  8
FORM
 10
10.51190834276456
 20
7.2619083427645661
 30
0.0
 40
0.1465179429141119
 50
0.0
 51
90.0
  0
ARC
  5
BFE
  8
FORM
 10
10.51190834276456
 20
7.2619083427645661
 30
0.0
 40
0.1648326857783759
 50
0.0
 51
90.0
  0
ARC
  5
BFF
  8
FORM
 10
10.51190834276456
 20
7.2619083427645661
 30
0.0
 40
0.2380916572354319
 50
0.0
 51
90.0
  0
ARC
  5
C00
  8
FORM
 10
10.51190834276456
 20
7.2619083427645661
 30
0.0
 40
0.073258971457056
 50
0.0
 51
90.0
  0
ARC
  5
C01
  8
FORM
 10
10.51190834276456
 20
0.4880916572354357
 30
0.0
 40
0.2380916572354319
 50
270.0
 51
0.0
  0
ARC
  5
C02
  8
FORM
 10
10.51190834276456
 20
0.4880916572354357
 30
0.0
 40
0.1648326857783759
 50
270.0
 51
0.0
  0
ARC
  5
C03
  8
FORM
 10
10.51190834276456
 20
0.4880916572354357
 30
0.0
 40
0.1465179429141119
 50
270.0
 51
0.0
  0
ARC
  5
C04
  8
FORM
 10
10.51190834276456
 20
0.4880916572354357
 30
0.0
 40
0.073258971457056
 50
270.0
 51
0.0
  0
LINE
  5
C05
  8
FORM
 10
10.51190834276456
 20
0.3415737143213287
 30
0.0
 11
0.488091657235449
 21
0.3415737143213242
 31
0.0
  0
LINE
  5
C06
  8
FORM
 10
10.51190834276456
 20
0.3232589714570646
 30
0.0
 11
0.488091657235449
 21
0.3232589714570606
 31
0.0
  0
LINE
  5
C07
  8
FORM
 10
10.51190834276456
 20
0.2500000000000044
 30
0.0
 11
0.488091657235449
 21
0.25
 31
0.0
  0
LINE
  5
C08
  8
FORM
 10
10.658426285678679
 20
0.4880916572354357
 30
0.0
 11
10.658426285678679
 21
7.2619083427645661
 31
0.0
  0
LINE
  5
C09
  8
FORM
 10
10.67674102854294
 20
0.4880916572354357
 30
0.0
 11
10.67674102854294
 21
7.2619083427645661
 31
0.0
  0
LINE
  5
C0A
  8
FORM
 10
10.75
 20
0.4880916572354357
 30
0.0
 11
10.75
 21
7.2619083427645661
 31
0.0
  0
LINE
  5
C0B
  8
FORM
 10
10.51190834276456
 20
7.4084262856786793
 30
0.0
 11
0.488091657235449
 21
7.4084262856786793
 31
0.0
  0
LINE
  5
C0C
  8
FORM
 10
10.51190834276456
 20
7.426741028542942
 30
0.0
 11
0.488091657235449
 21
7.426741028542942
 31
0.0
  0
LINE
  5
C0D
  8
FORM
 10
10.51190834276456
 20
7.5
 30
0.0
 11
0.488091657235449
 21
7.5
 31
0.0
  0
LINE
  5
C0E
  8
FORM
 10
0.3415737143213366
 20
0.4880916572354357
 30
0.0
 11
0.3415737143213366
 21
7.2619083427645661
 31
0.0
  0
LINE
  5
C0F
  8
FORM
 10
0.3232589714570757
 20
0.4880916572354357
 30
0.0
 11
0.3232589714570757
 21
7.2619083427645661
 31
0.0
  0
LINE
  5
C10
  8
FORM
 10
0.25
 20
0.4880916572354362
 30
0.0
 11
0.2500000000000195
 21
7.2619083427645661
 31
0.0
  0
LINE
  5
C11
  8
FORM
  6
CONTINUOUS
 10
8.3468227734313203
 20
0.4880916572354357
 30
0.0
 11
10.40472588883717
 21
0.4880916572354357
 31
0.0
  0
LINE
  5
C12
  8
FORM
  6
CONTINUOUS
 10
10.51190834276456
 20
1.6242256688657539
 30
0.0
 11
10.51190834276456
 21
0.5952741111628246
 31
0.0
  0
ARC
  5
C13
  8
FORM
  6
CONTINUOUS
 10
10.40472588883717
 20
0.5952741111628246
 30
0.0
 40
0.1071824539273883
 50
270.0
 51
0.0
  0
ARC
  5
C14
  8
FORM
  6
CONTINUOUS
 10
10.40472588883717
 20
1.6242256688657539
 30
0.0
 40
0.1071824539273883
 50
359.99999999999989
 51
90.0
  0
ARC
  5
C15
  8
FORM
  6
CONTINUOUS
 10
8.3468227734313203
 20
0.5952741111628246
 30
0.0
 40
0.1071824539273883
 50
180.0
 51
270.0
  0
ARC
  5
C16
  8
FORM
  6
CONTINUOUS
 10
8.3468227734313203
 20
1.6242256688657539
 30
0.0
 40
0.1071824539273883
 50
90.0
 51
180.0
  0
ENDSEC
  0
EOF
