  0
SECTION
  2
HEADER
  9
$ACADVER
  1
AC1009
  9
$INSBASE
 10
0.0
 20
0.0
 30
0.0
  9
$EXTMIN
 10
0.0
 20
0.0
 30
0.0
  9
$EXTMAX
 10
22.000000000000011
 20
17.0
 30
0.0
  9
$LIMMIN
 10
0.0
 20
0.0
  9
$LIMMAX
 10
12.0
 20
9.0
  9
$ORTHOMODE
 70
     1
  9
$REGENMODE
 70
     1
  9
$FILLMODE
 70
     1
  9
$QTEXTMODE
 70
     0
  9
$MIRRTEXT
 70
     1
  9
$DRAGMODE
 70
     2
  9
$LTSCALE
 40
1.0
  9
$OSMODE
 70
    39
  9
$ATTMODE
 70
     1
  9
$TEXTSIZE
 40
0.25
  9
$TRACEWID
 40
0.05
  9
$TEXTSTYLE
  7
STANDARD
  9
$CLAYER
  8
DIMENSION
  9
$CELTYPE
  6
BYLAYER
  9
$CECOLOR
 62
   256
  9
$DIMSCALE
 40
1.0
  9
$DIMASZ
 40
0.15625
  9
$DIMEXO
 40
0.03125
  9
$DIMDLI
 40
0.38
  9
$DIMRND
 40
0.0
  9
$DIMDLE
 40
0.0
  9
$DIMEXE
 40
0.03125
  9
$DIMTP
 40
0.0
  9
$DIMTM
 40
0.0
  9
$DIMTXT
 40
0.15625
  9
$DIMCEN
 40
0.0
  9
$DIMTSZ
 40
0.0
  9
$DIMTOL
 70
     0
  9
$DIMLIM
 70
     0
  9
$DIMTIH
 70
     1
  9
$DIMTOH
 70
     1
  9
$DIMSE1
 70
     0
  9
$DIMSE2
 70
     0
  9
$DIMTAD
 70
     0
  9
$DIMZIN
 70
     0
  9
$DIMBLK
  1

  9
$DIMASO
 70
     1
  9
$DIMSHO
 70
     1
  9
$DIMPOST
  1

  9
$DIMAPOST
  1

  9
$DIMALT
 70
     0
  9
$DIMALTD
 70
     2
  9
$DIMALTF
 40
25.399999999999999
  9
$DIMLFAC
 40
1.0
  9
$DIMTOFL
 70
     0
  9
$DIMTVP
 40
0.0
  9
$DIMTIX
 70
     0
  9
$DIMSOXD
 70
     0
  9
$DIMSAH
 70
     0
  9
$DIMBLK1
  1

  9
$DIMBLK2
  1

  9
$DIMSTYLE
  2
STANDARD
  9
$DIMCLRD
 70
     0
  9
$DIMCLRE
 70
     0
  9
$DIMCLRT
 70
     0
  9
$DIMTFAC
 40
1.0
  9
$DIMGAP
 40
0.0625
  9
$LUNITS
 70
     2
  9
$LUPREC
 70
     7
  9
$SKETCHINC
 40
0.1
  9
$FILLETRAD
 40
0.182882812499999
  9
$AUNITS
 70
     0
  9
$AUPREC
 70
     8
  9
$MENU
  1
.
  9
$ELEVATION
 40
0.0
  9
$PELEVATION
 40
0.0
  9
$THICKNESS
 40
0.0
  9
$LIMCHECK
 70
     0
  9
$BLIPMODE
 70
     0
  9
$CHAMFERA
 40
0.0
  9
$CHAMFERB
 40
0.0
  9
$SKPOLY
 70
     0
  9
$TDCREATE
 40
2453087.3875628472
  9
$TDUPDATE
 40
2453462.6482171179
  9
$TDINDWG
 40
0.2480585301
  9
$TDUSRTIMER
 40
0.2480585301
  9
$USRTIMER
 70
     1
  9
$ANGBASE
 50
0.0
  9
$ANGDIR
 70
     0
  9
$PDMODE
 70
     0
  9
$PDSIZE
 40
0.0
  9
$PLINEWID
 40
0.0
  9
$COORDS
 70
     0
  9
$SPLFRAME
 70
     0
  9
$SPLINETYPE
 70
     6
  9
$SPLINESEGS
 70
     8
  9
$ATTDIA
 70
     0
  9
$ATTREQ
 70
     1
  9
$HANDLING
 70
     1
  9
$HANDSEED
  5
1484
  9
$SURFTAB1
 70
     6
  9
$SURFTAB2
 70
     6
  9
$SURFTYPE
 70
     6
  9
$SURFU
 70
     6
  9
$SURFV
 70
     6
  9
$UCSNAME
  2

  9
$UCSORG
 10
0.0
 20
0.0
 30
0.0
  9
$UCSXDIR
 10
1.0
 20
0.0
 30
0.0
  9
$UCSYDIR
 10
0.0
 20
1.0
 30
0.0
  9
$PUCSNAME
  2

  9
$PUCSORG
 10
0.0
 20
0.0
 30
0.0
  9
$PUCSXDIR
 10
1.0
 20
0.0
 30
0.0
  9
$PUCSYDIR
 10
0.0
 20
1.0
 30
0.0
  9
$USERI1
 70
     0
  9
$USERI2
 70
     0
  9
$USERI3
 70
     0
  9
$USERI4
 70
     0
  9
$USERI5
 70
     0
  9
$USERR1
 40
0.0
  9
$USERR2
 40
0.0
  9
$USERR3
 40
0.0
  9
$USERR4
 40
0.0
  9
$USERR5
 40
0.0
  9
$WORLDVIEW
 70
     1
  9
$SHADEDGE
 70
     3
  9
$SHADEDIF
 70
    70
  9
$TILEMODE
 70
     1
  9
$MAXACTVP
 70
    64
  9
$PLIMCHECK
 70
     0
  9
$PEXTMIN
 10
1.0000000000000000E+020
 20
1.0000000000000000E+020
 30
1.0000000000000000E+020
  9
$PEXTMAX
 10
-1.0000000000000000E+020
 20
-1.0000000000000000E+020
 30
-1.0000000000000000E+020
  9
$PLIMMIN
 10
0.0
 20
0.0
  9
$PLIMMAX
 10
12.0
 20
9.0
  9
$UNITMODE
 70
     0
  9
$VISRETAIN
 70
     1
  9
$PLINEGEN
 70
     0
  9
$PSLTSCALE
 70
     1
  0
ENDSEC
  0
SECTION
  2
TABLES
  0
TABLE
  2
VPORT
 70
     2
  0
VPORT
  2
*ACTIVE
 70
     0
 10
0.0
 20
0.0
 11
1.0
 21
1.0
 12
11.00000269408025
 22
8.500800902371596
 13
0.0
 23
0.0
 14
0.5
 24
0.5
 15
0.5
 25
0.5
 16
0.0
 26
0.0
 36
1.0
 17
0.0
 27
0.0
 37
0.0
 40
17.221006360965269
 41
2.1727078891257992
 42
50.0
 43
0.0
 44
0.0
 50
0.0
 51
0.0
 71
     0
 72
 20000
 73
     1
 74
     2
 75
     0
 76
     0
 77
     0
 78
     0
  0
ENDTAB
  0
TABLE
  2
LTYPE
 70
     2
  0
LTYPE
  2
CONTINUOUS
 70
     0
  3
Solid line
 72
    65
 73
     0
 40
0.0
  0
LTYPE
  2
HIDDEN2
 70
     0
  3
Hidden (.5x) _ _ _ _ _ _ _ _ _ _ _ _ _ _ _ _ _
 72
    65
 73
     2
 40
0.1875
 49
0.125
 49
-0.0625
  0
ENDTAB
  0
TABLE
  2
LAYER
 70
     5
  0
LAYER
  2
0
 70
     0
 62
     7
  6
CONTINUOUS
  0
LAYER
  2
FORM
 70
     0
 62
     5
  6
CONTINUOUS
  0
LAYER
  2
DIMENSION
 70
     0
 62
     1
  6
CONTINUOUS
  0
LAYER
  2
SHOULDER_-_HUB
 70
     0
 62
     7
  6
CONTINUOUS
  0
LAYER
  2
DEFPOINTS
 70
     0
 62
     7
  6
CONTINUOUS
  0
ENDTAB
  0
TABLE
  2
STYLE
 70
     1
  0
STYLE
  2
STANDARD
 70
     0
 40
0.0
 41
1.0
 50
0.0
 71
     0
 42
0.25
  3
simplex.shx
  4

  0
ENDTAB
  0
TABLE
  2
VIEW
 70
     0
  0
ENDTAB
  0
TABLE
  2
UCS
 70
     0
  0
ENDTAB
  0
TABLE
  2
APPID
 70
     2
  0
APPID
  2
ACAD
 70
     0
  0
APPID
  2
DCO15
 70
     0
  0
ENDTAB
  0
TABLE
  2
DIMSTYLE
 70
     1
  0
DIMSTYLE
  2
STANDARD
 70
     0
  3

  4

  5

  6

  7

 40
1.0
 41
0.15625
 42
0.03125
 43
0.38
 44
0.03125
 45
0.0
 46
0.0
 47
0.0
 48
0.0
140
0.15625
141
0.0
142
0.0
143
25.399999999999999
144
1.0
145
0.0
146
1.0
147
0.0625
 71
     0
 72
     0
 73
     1
 74
     1
 75
     0
 76
     0
 77
     0
 78
     0
170
     0
171
     2
172
     0
173
     0
174
     0
175
     0
176
     0
177
     0
178
     0
  0
ENDTAB
  0
ENDSEC
  0
SECTION
  2
BLOCKS
  0
BLOCK
  8
0
  2
$MODEL_SPACE
 70
     0
 10
0.0
 20
0.0
 30
0.0
  3
$MODEL_SPACE
  1

  0
ENDBLK
  5
21
  8
0
  0
BLOCK
 67
     1
  8
0
  2
$PAPER_SPACE
 70
     0
 10
0.0
 20
0.0
 30
0.0
  3
$PAPER_SPACE
  1

  0
ENDBLK
  5
1D
 67
     1
  8
0
  0
ENDSEC
  0
SECTION
  2
ENTITIES
  0
TEXT
  5
956
  8
DIMENSION
 10
5.0559792895211544
 20
4.7056298229268432
 30
0.0
 40
0.25
  1
SECTION A-A
  0
LINE
  5
957
  8
DIMENSION
 10
5.045529624465245
 20
4.6355124877929379
 30
0.0
 11
7.6014087856012011
 21
4.6355124877929379
 31
0.0
  0
LINE
  5
958
  8
DIMENSION
 10
5.045529624465245
 20
4.6152521663779806
 30
0.0
 11
7.6014087856012011
 21
4.6152521663779806
 31
0.0
  0
LINE
  5
95A
  8
DIMENSION
 10
11.982445068135309
 20
5.7439851133444471
 30
0.0
 11
11.70764593757446
 21
5.7439851133444471
 31
0.0
  0
SOLID
  5
95B
  8
DIMENSION
 10
11.8261950681353
 20
5.6919017800111114
 30
0.0
 11
11.8261950681353
 21
5.7960684466777792
 31
0.0
 12
12.1386950681353
 22
5.7439851133444471
 32
0.0
 13
12.1386950681353
 23
5.7439851133444471
 33
0.0
  0
SOLID
  5
95C
  8
DIMENSION
 10
11.8261950681353
 20
11.387397537585169
 30
0.0
 11
11.8261950681353
 21
11.2832308709185
 31
0.0
 12
12.1386950681353
 22
11.33531420425183
 32
0.0
 13
12.1386950681353
 23
11.33531420425183
 33
0.0
  0
LINE
  5
95D
  8
DIMENSION
 10
11.982445068135309
 20
11.33531420425183
 30
0.0
 11
11.70764593757446
 21
11.33531420425183
 31
0.0
  0
LINE
  5
95E
  8
DIMENSION
 10
11.70764593757446
 20
5.7439851133444471
 30
0.0
 11
11.70764593757446
 21
6.2544588446793226
 31
0.0
  0
TEXT
  5
960
  8
DIMENSION
 10
12.19915961948546
 20
11.23486528012606
 30
0.0
 40
0.25
  1
A
  0
CIRCLE
  5
A55
  8
SHOULDER_-_HUB
 10
11.70764593757446
 20
8.9614966877166644
 30
0.0
 40
0.5625
  0
ARC
  5
A56
  8
SHOULDER_-_HUB
 10
11.70764593757446
 20
8.9614966877166644
 30
0.0
 40
0.75
 50
202.50000000000011
 51
247.49999999999989
  0
CIRCLE
  5
A57
  8
SHOULDER_-_HUB
 10
11.70764593757446
 20
8.9614966877166644
 30
0.0
 40
1.0625
  0
CIRCLE
  5
A58
  8
SHOULDER_-_HUB
 10
11.70764593757446
 20
8.9614966877166644
 30
0.0
 40
1.4375
  0
CIRCLE
  5
A59
  8
SHOULDER_-_HUB
 10
11.70764593757446
 20
8.9614966877166644
 30
0.0
 40
1.5625
  0
CIRCLE
  5
A5A
  8
SHOULDER_-_HUB
 10
11.70764593757446
 20
8.9614966877166644
 30
0.0
 40
1.6875
  0
ARC
  5
A5B
  8
SHOULDER_-_HUB
 10
11.70764593757446
 20
8.9614966877166644
 30
0.0
 40
0.875
 50
157.49999999999989
 51
202.50000000000011
  0
LINE
  5
A5C
  8
SHOULDER_-_HUB
 10
11.30104479068655
 20
9.9431186910099072
 30
0.0
 11
11.492386506869099
 21
9.4811789247542642
 31
0.0
  0
LINE
  5
A5D
  8
SHOULDER_-_HUB
 10
6.2523458054638184
 20
10.648996687716661
 30
0.0
 11
6.2523458054638184
 21
7.2739966877166644
 31
0.0
  0
LINE
  5
A5E
  8
SHOULDER_-_HUB
 10
6.1273458054638184
 20
10.398996687716661
 30
0.0
 11
6.1273458054638184
 21
7.5239966877166644
 31
0.0
  0
LINE
  5
A5F
  8
SHOULDER_-_HUB
 10
6.0023458054638184
 20
10.523996687716661
 30
0.0
 11
6.0023458054638184
 21
10.398996687716661
 31
0.0
  0
LINE
  5
A60
  8
SHOULDER_-_HUB
 10
5.7523458054638184
 20
10.648996687716661
 30
0.0
 11
5.7523458054638184
 21
10.211496687716661
 31
0.0
  0
LINE
  5
A61
  8
SHOULDER_-_HUB
 10
4.9398458054638184
 20
10.211496687716661
 30
0.0
 11
4.9398458054638184
 21
7.7114966877166644
 31
0.0
  0
LINE
  5
A62
  8
SHOULDER_-_HUB
 10
5.0648458054638184
 20
9.7114966877166662
 30
0.0
 11
5.0648458054638184
 21
9.5239966877166644
 31
0.0
  0
LINE
  5
A63
  8
SHOULDER_-_HUB
 10
5.1898458054638184
 20
9.5239966877166644
 30
0.0
 11
5.1898458054638184
 21
8.3989966877166644
 31
0.0
  0
LINE
  5
A64
  8
SHOULDER_-_HUB
 10
6.2523458054638184
 20
10.648996687716661
 30
0.0
 11
5.7523458054638184
 21
10.648996687716661
 31
0.0
  0
LINE
  5
A65
  8
SHOULDER_-_HUB
 10
6.2523458054638184
 20
10.523996687716661
 30
0.0
 11
6.0023458054638184
 21
10.523996687716661
 31
0.0
  0
LINE
  5
A66
  8
SHOULDER_-_HUB
 10
6.1273458054638184
 20
10.398996687716661
 30
0.0
 11
6.0023458054638184
 21
10.398996687716661
 31
0.0
  0
LINE
  5
A67
  8
SHOULDER_-_HUB
 10
6.2523458054638184
 20
7.2739966877166644
 30
0.0
 11
5.7523458054638184
 21
7.2739966877166644
 31
0.0
  0
LINE
  5
A68
  8
SHOULDER_-_HUB
 10
6.2523458054638184
 20
7.3989966877166644
 30
0.0
 11
6.0023458054638184
 21
7.3989966877166644
 31
0.0
  0
LINE
  5
A69
  8
SHOULDER_-_HUB
 10
6.1273458054638184
 20
7.5239966877166644
 30
0.0
 11
6.0023458054638184
 21
7.5239966877166644
 31
0.0
  0
LINE
  5
A6D
  8
SHOULDER_-_HUB
 10
5.1898458054638184
 20
9.5239966877166644
 30
0.0
 11
5.0648458054638184
 21
9.5239966877166644
 31
0.0
  0
LINE
  5
A6E
  8
SHOULDER_-_HUB
 10
5.1898458054638184
 20
8.3989966877166644
 30
0.0
 11
5.0648458054638184
 21
8.3989966877166662
 31
0.0
  0
CIRCLE
  5
A72
  8
SHOULDER_-_HUB
  6
HIDDEN2
 10
11.70764593757446
 20
8.9614966877166644
 30
0.0
 40
1.25
  0
LINE
  5
A73
  8
SHOULDER_-_HUB
 10
5.7523458054638184
 20
10.211496687716661
 30
0.0
 11
4.9398458054638184
 21
10.211496687716661
 31
0.0
  0
LINE
  5
A74
  8
SHOULDER_-_HUB
 10
5.7523458054638184
 20
7.7114966877166644
 30
0.0
 11
4.9398458054638184
 21
7.7114966877166644
 31
0.0
  0
LINE
  5
A77
  8
SHOULDER_-_HUB
 10
6.0023458054638184
 20
7.5239966877166644
 30
0.0
 11
6.0023458054638184
 21
7.3989966877166644
 31
0.0
  0
LINE
  5
A7C
  8
SHOULDER_-_HUB
 10
5.0648458054638184
 20
9.7114966877166644
 30
0.0
 11
6.1273458054638184
 21
10.023996687716661
 31
0.0
  0
LINE
  5
A7D
  8
SHOULDER_-_HUB
 10
6.1273458054638184
 20
7.8989966877166644
 30
0.0
 11
5.0648458054638184
 21
8.2114966877166644
 31
0.0
  0
LINE
  5
A7E
  8
SHOULDER_-_HUB
 10
6.1273458054638184
 20
9.8364966877166644
 30
0.0
 11
5.1273458054638184
 21
9.5239966877166644
 31
0.0
  0
LINE
  5
A7F
  8
SHOULDER_-_HUB
 10
6.1273458054638184
 20
8.0864966877166644
 30
0.0
 11
5.0648458054638184
 21
8.3989966877166644
 31
0.0
  0
LINE
  5
A80
  8
SHOULDER_-_HUB
 10
5.7523458054638184
 20
7.7114966877166644
 30
0.0
 11
5.7523458054638184
 21
7.2739966877166644
 31
0.0
  0
LINE
  5
A81
  8
SHOULDER_-_HUB
 10
11.30104479068655
 20
7.9798746844234252
 30
0.0
 11
11.492386506869099
 21
8.4418144506790682
 31
0.0
  0
LINE
  5
A82
  8
SHOULDER_-_HUB
 10
12.68926794086771
 20
8.5548955408287561
 30
0.0
 11
12.22732817461206
 21
8.7462372570113036
 31
0.0
  0
LINE
  5
A83
  8
SHOULDER_-_HUB
 10
10.726023934281219
 20
8.5548955408287561
 30
0.0
 11
11.18796370053686
 21
8.7462372570113018
 31
0.0
  0
LINE
  5
A84
  8
SHOULDER_-_HUB
 10
11.92290536827983
 20
8.4418144506790647
 30
0.0
 11
12.11424708446237
 21
7.9798746844234207
 31
0.0
  0
LINE
  5
A85
  8
SHOULDER_-_HUB
 10
11.92290536827983
 20
9.4811789247542642
 30
0.0
 11
12.11424708446237
 21
9.9431186910099072
 31
0.0
  0
LINE
  5
A86
  8
SHOULDER_-_HUB
 10
11.187963700536869
 20
9.1767561184220305
 30
0.0
 11
10.726023934281219
 21
9.3680978346045727
 31
0.0
  0
LINE
  5
A87
  8
SHOULDER_-_HUB
 10
12.22732817461206
 20
9.1767561184220288
 30
0.0
 11
12.68926794086771
 21
9.3680978346045727
 31
0.0
  0
ARC
  5
A88
  8
SHOULDER_-_HUB
 10
11.70764593757446
 20
8.9614966877166644
 30
0.0
 40
0.875
 50
67.500000000000085
 51
112.5
  0
ARC
  5
A89
  8
SHOULDER_-_HUB
 10
11.70764593757446
 20
8.9614966877166644
 30
0.0
 40
0.875
 50
337.5
 51
22.500000000000028
  0
ARC
  5
A8A
  8
SHOULDER_-_HUB
 10
11.70764593757446
 20
8.9614966877166644
 30
0.0
 40
0.875
 50
247.49999999999989
 51
292.49999999999989
  0
ARC
  5
A8B
  8
SHOULDER_-_HUB
 10
11.70764593757446
 20
8.9614966877166644
 30
0.0
 40
0.75
 50
112.5000000000001
 51
157.49999999999989
  0
ARC
  5
A8C
  8
SHOULDER_-_HUB
 10
11.70764593757446
 20
8.9614966877166644
 30
0.0
 40
0.75
 50
22.500000000000039
 51
67.500000000000057
  0
ARC
  5
A8D
  8
SHOULDER_-_HUB
 10
11.70764593757446
 20
8.9614966877166644
 30
0.0
 40
0.75
 50
292.49999999999977
 51
337.5
  0
LINE
  5
A8F
  8
SHOULDER_-_HUB
 10
11.83264593757446
 20
8.9614966877166644
 30
0.0
 11
11.58264593757446
 21
8.9614966877166644
 31
0.0
  0
LINE
  5
A90
  8
SHOULDER_-_HUB
 10
11.70764593757446
 20
8.8364966877166644
 30
0.0
 11
11.70764593757446
 21
9.0864966877166644
 31
0.0
  0
LINE
  5
AB1
  8
DIMENSION
 10
6.0023458054638184
 20
10.555246687716661
 30
0.0
 11
6.0023458054638184
 21
11.680246687716661
 31
0.0
  0
LINE
  5
AB2
  8
DIMENSION
 10
6.2523458054638184
 20
10.680246687716661
 30
0.0
 11
6.2523458054638184
 21
11.680246687716661
 31
0.0
  0
LINE
  5
AB3
  8
DIMENSION
 10
5.8460958054638184
 20
11.648996687716661
 30
0.0
 11
5.6898458054638184
 21
11.648996687716661
 31
0.0
  0
LINE
  5
AB4
  8
DIMENSION
 10
6.4085958054638184
 20
11.648996687716661
 30
0.0
 11
6.5648458054638184
 21
11.648996687716661
 31
0.0
  0
SOLID
  5
AB5
  8
DIMENSION
 10
5.8460958054638184
 20
11.67503835438333
 30
0.0
 11
5.8460958054638184
 21
11.622955021049989
 31
0.0
 12
6.0023458054638184
 22
11.648996687716661
 32
0.0
 13
6.0023458054638184
 23
11.648996687716661
 33
0.0
  0
SOLID
  5
AB6
  8
DIMENSION
 10
6.4085958054638184
 20
11.67503835438333
 30
0.0
 11
6.4085958054638184
 21
11.622955021049989
 31
0.0
 12
6.2523458054638184
 22
11.648996687716661
 32
0.0
 13
6.2523458054638184
 23
11.648996687716661
 33
0.0
  0
LINE
  5
AB8
  8
DIMENSION
 10
6.1273458054638184
 20
10.430246687716661
 30
0.0
 11
6.1273458054638184
 21
11.180246687716661
 31
0.0
  0
LINE
  5
AB9
  8
DIMENSION
 10
6.2523458054638184
 20
10.680246687716661
 30
0.0
 11
6.2523458054638184
 21
11.180246687716661
 31
0.0
  0
LINE
  5
ABA
  8
DIMENSION
 10
5.9710958054638184
 20
11.148996687716661
 30
0.0
 11
5.8148458054638184
 21
11.148996687716661
 31
0.0
  0
LINE
  5
ABB
  8
DIMENSION
 10
6.4085958054638184
 20
11.148996687716661
 30
0.0
 11
6.5648458054638184
 21
11.148996687716661
 31
0.0
  0
SOLID
  5
ABC
  8
DIMENSION
 10
5.9710958054638184
 20
11.17503835438333
 30
0.0
 11
5.9710958054638184
 21
11.12295502105
 31
0.0
 12
6.1273458054638184
 22
11.148996687716661
 32
0.0
 13
6.1273458054638184
 23
11.148996687716661
 33
0.0
  0
SOLID
  5
ABD
  8
DIMENSION
 10
6.4085958054638184
 20
11.17503835438333
 30
0.0
 11
6.4085958054638184
 21
11.12295502105
 31
0.0
 12
6.2523458054638184
 22
11.148996687716661
 32
0.0
 13
6.2523458054638184
 23
11.148996687716661
 33
0.0
  0
TEXT
  5
ABF
  8
DIMENSION
 10
6.6273458054638184
 20
11.070871687716661
 30
0.0
 40
0.15625
  1
0.125
  0
TEXT
  5
AC0
  8
DIMENSION
 10
6.6273458054638184
 20
11.570871687716661
 30
0.0
 40
0.15625
  1
0.250
  0
LINE
  5
ADF
  8
DIMENSION
 10
5.1898458054638184
 20
8.3677466877166644
 30
0.0
 11
5.1898458054638184
 21
6.2427466877166644
 31
0.0
  0
LINE
  5
AE0
  8
DIMENSION
 10
5.0648458054638184
 20
8.1802466877166644
 30
0.0
 11
5.0648458054638184
 21
6.2427466877166644
 31
0.0
  0
LINE
  5
AE1
  8
DIMENSION
 10
5.3460958054638184
 20
6.2739966877166644
 30
0.0
 11
5.5023458054638184
 21
6.2739966877166644
 31
0.0
  0
LINE
  5
AE2
  8
DIMENSION
 10
4.9085958054638184
 20
6.2739966877166644
 30
0.0
 11
4.7523458054638184
 21
6.2739966877166644
 31
0.0
  0
SOLID
  5
AE3
  8
DIMENSION
 10
5.3460958054638184
 20
6.3000383543833323
 30
0.0
 11
5.3460958054638184
 21
6.2479550210499983
 31
0.0
 12
5.1898458054638184
 22
6.2739966877166644
 32
0.0
 13
5.1898458054638184
 23
6.2739966877166644
 33
0.0
  0
SOLID
  5
AE4
  8
DIMENSION
 10
4.9085958054638184
 20
6.3000383543833323
 30
0.0
 11
4.9085958054638184
 21
6.2479550210499983
 31
0.0
 12
5.0648458054638184
 22
6.2739966877166644
 32
0.0
 13
5.0648458054638184
 23
6.2739966877166644
 33
0.0
  0
LINE
  5
AE6
  8
DIMENSION
 10
6.1273458054638184
 20
7.4927466877166644
 30
0.0
 11
6.1273458054638184
 21
5.7427466877166644
 31
0.0
  0
LINE
  5
AE7
  8
DIMENSION
 10
5.0648458054638184
 20
8.1802466877166644
 30
0.0
 11
5.0648458054638184
 21
5.7427466877166644
 31
0.0
  0
LINE
  5
AE8
  8
DIMENSION
 10
6.2835958054638184
 20
5.7739966877166644
 30
0.0
 11
6.4398458054638184
 21
5.7739966877166644
 31
0.0
  0
LINE
  5
AE9
  8
DIMENSION
 10
4.9085958054638184
 20
5.7739966877166644
 30
0.0
 11
4.7523458054638184
 21
5.7739966877166644
 31
0.0
  0
SOLID
  5
AEA
  8
DIMENSION
 10
6.2835958054638184
 20
5.8000383543833323
 30
0.0
 11
6.2835958054638184
 21
5.7479550210499983
 31
0.0
 12
6.1273458054638184
 22
5.7739966877166644
 32
0.0
 13
6.1273458054638184
 23
5.7739966877166644
 33
0.0
  0
SOLID
  5
AEB
  8
DIMENSION
 10
4.9085958054638184
 20
5.8000383543833323
 30
0.0
 11
4.9085958054638184
 21
5.7479550210499983
 31
0.0
 12
5.0648458054638184
 22
5.7739966877166644
 32
0.0
 13
5.0648458054638184
 23
5.7739966877166644
 33
0.0
  0
TEXT
  5
AED
  8
DIMENSION
 10
4.0946077102257226
 20
6.1958716877166644
 30
0.0
 40
0.15625
  1
0.125
  0
TEXT
  5
AEE
  8
DIMENSION
 10
5.2984767578447673
 20
5.6958716877166644
 30
0.0
 40
0.15625
  1
1.062
  0
LINE
  5
AEF
  8
SHOULDER_-_HUB
 10
16.182990560528701
 20
10.648996687716661
 30
0.0
 11
16.182990560528701
 21
7.2739966877166644
 31
0.0
  0
LINE
  5
AF0
  8
SHOULDER_-_HUB
 10
15.682990560528699
 20
10.648996687716661
 30
0.0
 11
16.182990560528701
 21
10.648996687716661
 31
0.0
  0
LINE
  5
AF1
  8
SHOULDER_-_HUB
 10
16.182990560528701
 20
10.211496687716661
 30
0.0
 11
16.995490560528701
 21
10.211496687716661
 31
0.0
  0
LINE
  5
AF2
  8
SHOULDER_-_HUB
 10
16.995490560528701
 20
10.211496687716661
 30
0.0
 11
16.995490560528701
 21
7.7114966877166644
 31
0.0
  0
LINE
  5
AF3
  8
SHOULDER_-_HUB
 10
16.182990560528701
 20
7.7114966877166644
 30
0.0
 11
16.995490560528701
 21
7.7114966877166644
 31
0.0
  0
LINE
  5
AF4
  8
SHOULDER_-_HUB
 10
15.682990560528699
 20
7.2739966877166644
 30
0.0
 11
16.182990560528701
 21
7.2739966877166644
 31
0.0
  0
LINE
  5
AF5
  8
SHOULDER_-_HUB
 10
15.682990560528699
 20
10.648996687716661
 30
0.0
 11
15.682990560528699
 21
7.2739966877166644
 31
0.0
  0
LINE
  5
B12
  8
DIMENSION
 10
16.995490560528701
 20
10.242746687716661
 30
0.0
 11
16.995490560528701
 21
11.680246687716661
 31
0.0
  0
LINE
  5
B13
  8
DIMENSION
 10
15.682990560528699
 20
10.680246687716661
 30
0.0
 11
15.682990560528699
 21
11.680246687716661
 31
0.0
  0
LINE
  5
B14
  8
DIMENSION
 10
16.839240560528701
 20
11.648996687716661
 30
0.0
 11
16.684478655766789
 21
11.648996687716661
 31
0.0
  0
LINE
  5
B15
  8
DIMENSION
 10
15.839240560528699
 20
11.648996687716661
 30
0.0
 11
15.994002465290601
 21
11.648996687716661
 31
0.0
  0
SOLID
  5
B16
  8
DIMENSION
 10
16.839240560528701
 20
11.67503835438333
 30
0.0
 11
16.839240560528701
 21
11.622955021049989
 31
0.0
 12
16.995490560528701
 22
11.648996687716661
 32
0.0
 13
16.995490560528701
 23
11.648996687716661
 33
0.0
  0
SOLID
  5
B17
  8
DIMENSION
 10
15.839240560528699
 20
11.67503835438333
 30
0.0
 11
15.839240560528699
 21
11.622955021049989
 31
0.0
 12
15.682990560528699
 22
11.648996687716661
 32
0.0
 13
15.682990560528699
 23
11.648996687716661
 33
0.0
  0
LINE
  5
B19
  8
DIMENSION
 10
16.182990560528701
 20
10.680246687716661
 30
0.0
 11
16.182990560528701
 21
11.180246687716661
 31
0.0
  0
LINE
  5
B1A
  8
DIMENSION
 10
15.682990560528699
 20
10.680246687716661
 30
0.0
 11
15.682990560528699
 21
11.180246687716661
 31
0.0
  0
LINE
  5
B1B
  8
DIMENSION
 10
16.339240560528701
 20
11.148996687716661
 30
0.0
 11
16.495490560528701
 21
11.148996687716661
 31
0.0
  0
LINE
  5
B1C
  8
DIMENSION
 10
15.526740560528699
 20
11.148996687716661
 30
0.0
 11
15.370490560528699
 21
11.148996687716661
 31
0.0
  0
SOLID
  5
B1D
  8
DIMENSION
 10
16.339240560528701
 20
11.17503835438333
 30
0.0
 11
16.339240560528701
 21
11.12295502105
 31
0.0
 12
16.182990560528701
 22
11.148996687716661
 32
0.0
 13
16.182990560528701
 23
11.148996687716661
 33
0.0
  0
SOLID
  5
B1E
  8
DIMENSION
 10
15.526740560528699
 20
11.17503835438333
 30
0.0
 11
15.526740560528699
 21
11.12295502105
 31
0.0
 12
15.682990560528699
 22
11.148996687716661
 32
0.0
 13
15.682990560528699
 23
11.148996687716661
 33
0.0
  0
TEXT
  5
B20
  8
DIMENSION
 10
14.682990560528699
 20
11.070871687716661
 30
0.0
 40
0.15625
  1
0.500
  0
TEXT
  5
B21
  8
DIMENSION
 10
16.056502465290599
 20
11.570871687716661
 30
0.0
 40
0.15625
  1
1.312
  0
LINE
  5
B40
  8
DIMENSION
 10
15.651740560528699
 20
7.2739966877166644
 30
0.0
 11
15.151740560528699
 21
7.2739966877166644
 31
0.0
  0
LINE
  5
B41
  8
DIMENSION
 10
15.651740560528699
 20
10.648996687716661
 30
0.0
 11
15.151740560528699
 21
10.648996687716661
 31
0.0
  0
LINE
  5
B42
  8
DIMENSION
 10
15.182990560528699
 20
7.4302466877166644
 30
0.0
 11
15.182990560528699
 21
8.8208716877166644
 31
0.0
  0
LINE
  5
B43
  8
DIMENSION
 10
15.182990560528699
 20
10.492746687716661
 30
0.0
 11
15.182990560528699
 21
9.1021216877166644
 31
0.0
  0
SOLID
  5
B44
  8
DIMENSION
 10
15.15694889386203
 20
7.4302466877166644
 30
0.0
 11
15.209032227195349
 21
7.4302466877166644
 31
0.0
 12
15.182990560528699
 22
7.2739966877166644
 32
0.0
 13
15.182990560528699
 23
7.2739966877166644
 33
0.0
  0
SOLID
  5
B45
  8
DIMENSION
 10
15.15694889386203
 20
10.492746687716661
 30
0.0
 11
15.209032227195371
 21
10.492746687716661
 31
0.0
 12
15.182990560528699
 22
10.648996687716661
 32
0.0
 13
15.182990560528699
 23
10.648996687716661
 33
0.0
  0
LINE
  5
B47
  8
DIMENSION
 10
17.026740560528701
 20
7.7114966877166644
 30
0.0
 11
17.526740560528701
 21
7.7114966877166644
 31
0.0
  0
LINE
  5
B48
  8
DIMENSION
 10
17.026740560528701
 20
10.211496687716661
 30
0.0
 11
17.526740560528701
 21
10.211496687716661
 31
0.0
  0
LINE
  5
B49
  8
DIMENSION
 10
17.495490560528701
 20
7.8677466877166644
 30
0.0
 11
17.495490560528701
 21
8.8208716877166644
 31
0.0
  0
LINE
  5
B4A
  8
DIMENSION
 10
17.495490560528701
 20
10.055246687716661
 30
0.0
 11
17.495490560528701
 21
9.1021216877166644
 31
0.0
  0
SOLID
  5
B4B
  8
DIMENSION
 10
17.46944889386203
 20
7.8677466877166644
 30
0.0
 11
17.521532227195369
 21
7.8677466877166644
 31
0.0
 12
17.495490560528701
 22
7.7114966877166644
 32
0.0
 13
17.495490560528701
 23
7.7114966877166644
 33
0.0
  0
SOLID
  5
B4C
  8
DIMENSION
 10
17.46944889386203
 20
10.055246687716661
 30
0.0
 11
17.521532227195369
 21
10.055246687716661
 31
0.0
 12
17.495490560528701
 22
10.211496687716661
 32
0.0
 13
17.495490560528701
 23
10.211496687716661
 33
0.0
  0
TEXT
  5
B4E
  8
DIMENSION
 10
14.80343127661768
 20
8.8833716877166662
 30
0.0
 40
0.15625
  1
%%c3.375
  0
TEXT
  5
B4F
  8
DIMENSION
 10
17.125885326003729
 20
8.8833716877166662
 30
0.0
 40
0.15625
  1
%%c2.500
  0
LINE
  5
B86
  8
DIMENSION
 10
5.0335958054638184
 20
9.7114966877166644
 30
0.0
 11
3.9085958054638179
 21
9.7114966877166644
 31
0.0
  0
LINE
  5
B87
  8
DIMENSION
 10
5.0335958054638184
 20
8.2114966877166644
 30
0.0
 11
3.9085958054638179
 21
8.2114966877166644
 31
0.0
  0
LINE
  5
B88
  8
DIMENSION
 10
3.9398458054638179
 20
9.5552466877166644
 30
0.0
 11
3.9398458054638179
 21
9.2796427028890811
 31
0.0
  0
LINE
  5
B89
  8
DIMENSION
 10
3.9398458054638179
 20
8.3677466877166644
 30
0.0
 11
3.9398458054638179
 21
8.9983927028890811
 31
0.0
  0
SOLID
  5
B8A
  8
DIMENSION
 10
3.9138041387971541
 20
9.5552466877166644
 30
0.0
 11
3.9658874721304822
 21
9.5552466877166644
 31
0.0
 12
3.9398458054638179
 22
9.7114966877166644
 32
0.0
 13
3.9398458054638179
 23
9.7114966877166644
 33
0.0
  0
SOLID
  5
B8B
  8
DIMENSION
 10
3.9138041387971461
 20
8.3677466877166644
 30
0.0
 11
3.9658874721304822
 21
8.3677466877166644
 31
0.0
 12
3.9398458054638179
 22
8.2114966877166644
 32
0.0
 13
3.9398458054638179
 23
8.2114966877166644
 33
0.0
  0
LINE
  5
B8D
  8
DIMENSION
 10
5.0335958054638112
 20
8.3989966877166662
 30
0.0
 11
4.4085958054638184
 21
8.3989966877166662
 31
0.0
  0
LINE
  5
B8E
  8
DIMENSION
 10
5.0335958054638184
 20
9.5239966877166644
 30
0.0
 11
4.4085958054638184
 21
9.5239966877166644
 31
0.0
  0
LINE
  5
B8F
  8
DIMENSION
 10
4.4398458054638184
 20
8.5552466877166662
 30
0.0
 11
4.4398458054638184
 21
8.6715926274878399
 31
0.0
  0
LINE
  5
B90
  8
DIMENSION
 10
4.4398458054638184
 20
9.3677466877166644
 30
0.0
 11
4.4398458054638184
 21
8.9528426274878399
 31
0.0
  0
SOLID
  5
B91
  8
DIMENSION
 10
4.4138041387971541
 20
8.5552466877166662
 30
0.0
 11
4.4658874721304818
 21
8.5552466877166662
 31
0.0
 12
4.4398458054638184
 22
8.3989966877166662
 32
0.0
 13
4.4398458054638184
 23
8.3989966877166662
 33
0.0
  0
SOLID
  5
B92
  8
DIMENSION
 10
4.4138041387971541
 20
9.3677466877166644
 30
0.0
 11
4.4658874721304818
 21
9.3677466877166644
 31
0.0
 12
4.4398458054638184
 22
9.5239966877166644
 32
0.0
 13
4.4398458054638184
 23
9.5239966877166644
 33
0.0
  0
TEXT
  5
B94
  8
DIMENSION
 10
4.068240205072164
 20
8.7461963658665383
 30
0.0
 40
0.15625
  1
%%c1.125
  0
TEXT
  5
B95
  8
DIMENSION
 10
3.5533592526912079
 20
9.0608927028890811
 30
0.0
 40
0.15625
  1
%%c1.500
  0
LINE
  5
BA6
  8
DIMENSION
 10
6.1585958054638184
 20
9.8364966877166644
 30
0.0
 11
6.7835958054638184
 21
9.8364966877166644
 31
0.0
  0
LINE
  5
BA7
  8
DIMENSION
 10
6.1585958054638184
 20
8.0864966877166644
 30
0.0
 11
6.7835958054638184
 21
8.0864966877166644
 31
0.0
  0
LINE
  5
BA8
  8
DIMENSION
 10
6.7523458054638184
 20
9.6802466877166644
 30
0.0
 11
6.7523458054638184
 21
8.8252162205158733
 31
0.0
  0
LINE
  5
BA9
  8
DIMENSION
 10
6.7523458054638184
 20
8.2427466877166644
 30
0.0
 11
6.7523458054638184
 21
8.5439662205158733
 31
0.0
  0
SOLID
  5
BAA
  8
DIMENSION
 10
6.7263041387971541
 20
9.6802466877166644
 30
0.0
 11
6.7783874721304818
 21
9.6802466877166644
 31
0.0
 12
6.7523458054638184
 22
9.8364966877166644
 32
0.0
 13
6.7523458054638184
 23
9.8364966877166644
 33
0.0
  0
SOLID
  5
BAB
  8
DIMENSION
 10
6.7263041387971461
 20
8.2427466877166644
 30
0.0
 11
6.7783874721304818
 21
8.2427466877166644
 31
0.0
 12
6.7523458054638184
 22
8.0864966877166644
 32
0.0
 13
6.7523458054638184
 23
8.0864966877166644
 33
0.0
  0
TEXT
  5
BAD
  8
DIMENSION
 10
6.3860563949908089
 20
8.6064662205158733
 30
0.0
 40
0.15625
  1
%%c1.750
  0
LINE
  5
BC0
  8
DIMENSION
 10
6.1585958054638184
 20
7.8989966877166644
 30
0.0
 11
7.2835958054638184
 21
7.8989966877166644
 31
0.0
  0
LINE
  5
BC1
  8
DIMENSION
 10
6.1585958054638184
 20
10.023996687716661
 30
0.0
 11
7.2835958054638184
 21
10.023996687716661
 31
0.0
  0
LINE
  5
BC2
  8
DIMENSION
 10
7.2523458054638184
 20
8.0552466877166644
 30
0.0
 11
7.2523458054638184
 21
8.9232156516630816
 31
0.0
  0
LINE
  5
BC3
  8
DIMENSION
 10
7.2523458054638184
 20
9.8677466877166644
 30
0.0
 11
7.2523458054638184
 21
9.2044656516630816
 31
0.0
  0
SOLID
  5
BC4
  8
DIMENSION
 10
7.2263041387971461
 20
8.0552466877166644
 30
0.0
 11
7.2783874721304818
 21
8.0552466877166644
 31
0.0
 12
7.2523458054638184
 22
7.8989966877166644
 32
0.0
 13
7.2523458054638184
 23
7.8989966877166644
 33
0.0
  0
SOLID
  5
BC5
  8
DIMENSION
 10
7.2263041387971541
 20
9.8677466877166644
 30
0.0
 11
7.2783874721304818
 21
9.8677466877166644
 31
0.0
 12
7.2523458054638184
 22
10.023996687716661
 32
0.0
 13
7.2523458054638184
 23
10.023996687716661
 33
0.0
  0
TEXT
  5
BC7
  8
DIMENSION
 10
6.8941352744921707
 20
8.9857156516630816
 30
0.0
 40
0.15625
  1
%%c2.125
  0
LINE
  5
BE7
  8
DIMENSION
 10
6.2835958054638184
 20
7.3989966877166644
 30
0.0
 11
8.2835958054638184
 21
7.3989966877166644
 31
0.0
  0
LINE
  5
BE8
  8
DIMENSION
 10
6.2835958054638184
 20
10.523996687716661
 30
0.0
 11
8.2835958054638184
 21
10.523996687716661
 31
0.0
  0
LINE
  5
BE9
  8
DIMENSION
 10
8.2523458054638184
 20
7.5552466877166644
 30
0.0
 11
8.2523458054638184
 21
9.797237207869113
 31
0.0
  0
LINE
  5
BEA
  8
DIMENSION
 10
8.2523458054638184
 20
10.367746687716661
 30
0.0
 11
8.2523458054638184
 21
10.078487207869109
 31
0.0
  0
SOLID
  5
BEB
  8
DIMENSION
 10
8.2263041387971452
 20
7.5552466877166644
 30
0.0
 11
8.2783874721304826
 21
7.5552466877166644
 31
0.0
 12
8.2523458054638184
 22
7.3989966877166644
 32
0.0
 13
8.2523458054638184
 23
7.3989966877166644
 33
0.0
  0
SOLID
  5
BEC
  8
DIMENSION
 10
8.2263041387971452
 20
10.367746687716661
 30
0.0
 11
8.2783874721304826
 21
10.367746687716661
 31
0.0
 12
8.2523458054638184
 22
10.523996687716661
 32
0.0
 13
8.2523458054638184
 23
10.523996687716661
 33
0.0
  0
LINE
  5
BEE
  8
DIMENSION
 10
6.1585958054638184
 20
7.5239966877166644
 30
0.0
 11
7.7835958054638184
 21
7.5239966877166644
 31
0.0
  0
LINE
  5
BEF
  8
DIMENSION
 10
6.1585958054638184
 20
10.398996687716661
 30
0.0
 11
7.7835958054638184
 21
10.398996687716661
 31
0.0
  0
LINE
  5
BF0
  8
DIMENSION
 10
7.7523458054638184
 20
7.6802466877166644
 30
0.0
 11
7.7523458054638184
 21
9.37764210871795
 31
0.0
  0
LINE
  5
BF1
  8
DIMENSION
 10
7.7523458054638184
 20
10.242746687716661
 30
0.0
 11
7.7523458054638184
 21
9.65889210871795
 31
0.0
  0
SOLID
  5
BF2
  8
DIMENSION
 10
7.7263041387971541
 20
7.6802466877166644
 30
0.0
 11
7.7783874721304818
 21
7.6802466877166644
 31
0.0
 12
7.7523458054638184
 22
7.5239966877166644
 32
0.0
 13
7.7523458054638184
 23
7.5239966877166644
 33
0.0
  0
SOLID
  5
BF3
  8
DIMENSION
 10
7.7263041387971541
 20
10.242746687716661
 30
0.0
 11
7.7783874721304818
 21
10.242746687716661
 31
0.0
 12
7.7523458054638184
 22
10.398996687716661
 32
0.0
 13
7.7523458054638184
 23
10.398996687716661
 33
0.0
  0
TEXT
  5
BF5
  8
DIMENSION
 10
7.3590571798116278
 20
9.4401420833996053
 30
0.0
 40
0.15625
  1
%%c2.875
  0
TEXT
  5
BF6
  8
DIMENSION
 10
7.8537409898929829
 20
9.859737207869113
 30
0.0
 40
0.15625
  1
%%c3.125
  0
LINE
  5
C06
  8
DIMENSION
 10
6.2835958054638184
 20
10.523996687716661
 30
0.0
 11
8.2835958054638184
 21
10.523996687716661
 31
0.0
  0
LINE
  5
C07
  8
DIMENSION
 10
6.2835958054638184
 20
10.648996687716661
 30
0.0
 11
8.2835958054638184
 21
10.648996687716661
 31
0.0
  0
LINE
  5
C08
  8
DIMENSION
 10
8.2523458054638184
 20
10.367746687716661
 30
0.0
 11
8.2523458054638184
 21
10.211496687716661
 31
0.0
  0
LINE
  5
C09
  8
DIMENSION
 10
8.2523458054638184
 20
10.805246687716661
 30
0.0
 11
8.2523458054638184
 21
11.148996687716661
 31
0.0
  0
LINE
  5
C0A
  8
DIMENSION
 10
8.2523458054638184
 20
11.148996687716661
 30
0.0
 11
8.4085958054638184
 21
11.148996687716661
 31
0.0
  0
SOLID
  5
C0B
  8
DIMENSION
 10
8.2263041387971452
 20
10.367746687716661
 30
0.0
 11
8.2783874721304826
 21
10.367746687716661
 31
0.0
 12
8.2523458054638184
 22
10.523996687716661
 32
0.0
 13
8.2523458054638184
 23
10.523996687716661
 33
0.0
  0
SOLID
  5
C0C
  8
DIMENSION
 10
8.2263041387971452
 20
10.805246687716661
 30
0.0
 11
8.2783874721304826
 21
10.805246687716661
 31
0.0
 12
8.2523458054638184
 22
10.648996687716661
 32
0.0
 13
8.2523458054638184
 23
10.648996687716661
 33
0.0
  0
TEXT
  5
C0E
  8
DIMENSION
 10
8.4710958054638112
 20
11.070871687716661
 30
0.0
 40
0.15625
  1
0.125
  0
LINE
  5
C1E
  8
DIMENSION
 10
6.1585958054638184
 20
7.5239966877166644
 30
0.0
 11
7.7835958054638184
 21
7.5239966877166644
 31
0.0
  0
LINE
  5
C1F
  8
DIMENSION
 10
6.2835958054638184
 20
7.3989966877166644
 30
0.0
 11
7.7835958054638184
 21
7.3989966877166644
 31
0.0
  0
LINE
  5
C20
  8
DIMENSION
 10
7.7523458054638184
 20
7.6802466877166644
 30
0.0
 11
7.7523458054638184
 21
7.8364966877166644
 31
0.0
  0
LINE
  5
C21
  8
DIMENSION
 10
7.7523458054638184
 20
7.2427466877166644
 30
0.0
 11
7.7523458054638184
 21
6.8989966877166644
 31
0.0
  0
LINE
  5
C22
  8
DIMENSION
 10
7.9085958054638184
 20
6.8989966877166644
 30
0.0
 11
7.7523458054638184
 21
6.8989966877166644
 31
0.0
  0
SOLID
  5
C23
  8
DIMENSION
 10
7.7263041387971541
 20
7.6802466877166644
 30
0.0
 11
7.7783874721304818
 21
7.6802466877166644
 31
0.0
 12
7.7523458054638184
 22
7.5239966877166644
 32
0.0
 13
7.7523458054638184
 23
7.5239966877166644
 33
0.0
  0
SOLID
  5
C24
  8
DIMENSION
 10
7.7263041387971541
 20
7.2427466877166644
 30
0.0
 11
7.7783874721304818
 21
7.2427466877166644
 31
0.0
 12
7.7523458054638184
 22
7.3989966877166644
 32
0.0
 13
7.7523458054638184
 23
7.3989966877166644
 33
0.0
  0
TEXT
  5
C26
  8
DIMENSION
 10
7.9522552811247564
 20
6.8208716877166644
 30
0.0
 40
0.15625
  1
0.125
  0
LINE
  5
C31
  8
SHOULDER_-_HUB
 10
5.1178266487989097
 20
8.1959140867357547
 30
0.0
 11
5.2627130124352766
 21
8.340800450372118
 31
0.0
  0
LINE
  5
C32
  8
SHOULDER_-_HUB
 10
5.2544268224372237
 20
8.1557375650774286
 30
0.0
 11
5.3993131860735843
 21
8.3006239287137902
 31
0.0
  0
LINE
  5
C33
  8
SHOULDER_-_HUB
 10
5.3910269960755306
 20
8.1155610434191026
 30
0.0
 11
5.5359133597118984
 21
8.2604474070554659
 31
0.0
  0
LINE
  5
C34
  8
SHOULDER_-_HUB
 10
5.5276271697138446
 20
8.0753845217607747
 30
0.0
 11
5.6725135333502053
 21
8.220270885397138
 31
0.0
  0
LINE
  5
C35
  8
SHOULDER_-_HUB
 10
5.6642273433521524
 20
8.0352080001024486
 30
0.0
 11
5.8091137069885193
 21
8.1800943637388137
 31
0.0
  0
LINE
  5
C36
  8
SHOULDER_-_HUB
 10
5.8008275169904664
 20
7.9950314784441217
 30
0.0
 11
5.9457138806268262
 21
8.1399178420804859
 31
0.0
  0
LINE
  5
C37
  8
SHOULDER_-_HUB
 10
5.9374276906287733
 20
7.9548549567857938
 30
0.0
 11
6.0823140542651402
 21
8.0997413204221562
 31
0.0
  0
LINE
  5
C38
  8
SHOULDER_-_HUB
 10
6.0740278642670873
 20
7.9146784351274704
 30
0.0
 11
6.1273458054638184
 21
7.9679963763241988
 31
0.0
  0
LINE
  5
C3F
  8
SHOULDER_-_HUB
 10
5.0648458054638184
 20
9.5571468057737547
 30
0.0
 11
5.2835081382162761
 21
9.7758091385262134
 31
0.0
  0
LINE
  5
C40
  8
SHOULDER_-_HUB
 10
5.2453480996304327
 20
9.5608724046437317
 30
0.0
 11
5.5339417898865122
 21
9.8494660948998103
 31
0.0
  0
LINE
  5
C41
  8
SHOULDER_-_HUB
 10
5.5024778382437196
 20
9.6412254479603838
 30
0.0
 11
5.7843754415567474
 21
9.9231230512734072
 31
0.0
  0
LINE
  5
C42
  8
SHOULDER_-_HUB
 10
5.7596075768570136
 20
9.7215784912770395
 30
0.0
 11
6.0348090932269747
 21
9.9967800076470041
 31
0.0
  0
LINE
  5
C43
  8
SHOULDER_-_HUB
 10
6.0167373154703014
 20
9.8019315345936917
 30
0.0
 11
6.1273458054638184
 21
9.9125400245872051
 31
0.0
  0
LINE
  5
C44
  8
SHOULDER_-_HUB
 10
5.0648458054638184
 20
8.3989966877166662
 30
0.0
 11
5.0648458054638184
 21
8.2114966877166644
 31
0.0
  0
LINE
  5
C5E
  8
SHOULDER_-_HUB
 10
5.0843189560634201
 20
7.7114966877166644
 30
0.0
 11
4.9398458054638184
 21
7.8559698383162644
 31
0.0
  0
LINE
  5
C5F
  8
SHOULDER_-_HUB
 10
5.2610956513600513
 20
7.7114966877166644
 30
0.0
 11
4.9398458054638184
 21
8.0327465336128991
 31
0.0
  0
LINE
  5
C60
  8
SHOULDER_-_HUB
 10
5.8753723466566887
 20
7.2739966877166644
 30
0.0
 11
5.7523458054638184
 21
7.3970232289095392
 31
0.0
  0
LINE
  5
C61
  8
SHOULDER_-_HUB
 10
5.4378723466566887
 20
7.7114966877166644
 30
0.0
 11
4.9398458054638184
 21
8.2095232289095392
 31
0.0
  0
LINE
  5
C62
  8
SHOULDER_-_HUB
 10
6.052149041953327
 20
7.2739966877166644
 30
0.0
 11
5.7523458054638184
 21
7.5737999242061766
 31
0.0
  0
LINE
  5
C63
  8
SHOULDER_-_HUB
 10
5.0648458054638184
 20
8.2612999242061758
 30
0.0
 11
4.9398458054638184
 21
8.3862999242061722
 31
0.0
  0
LINE
  5
C64
  8
SHOULDER_-_HUB
 10
5.614649041953327
 20
7.7114966877166644
 30
0.0
 11
5.1354003904906227
 21
8.1907453391793688
 31
0.0
  0
LINE
  5
C65
  8
SHOULDER_-_HUB
 10
6.2289257372499662
 20
7.2739966877166644
 30
0.0
 11
6.1039257372499662
 21
7.3989966877166644
 31
0.0
  0
LINE
  5
C66
  8
SHOULDER_-_HUB
 10
5.1039257372499591
 20
8.3989966877166644
 30
0.0
 11
4.9398458054638184
 21
8.5630766195028123
 31
0.0
  0
LINE
  5
C67
  8
SHOULDER_-_HUB
 10
6.0023458054638184
 20
7.5005766195028123
 30
0.0
 11
5.3858340421608579
 21
8.1170883828057718
 31
0.0
  0
LINE
  5
C68
  8
SHOULDER_-_HUB
 10
6.1273458054638184
 20
7.5523533147994497
 30
0.0
 11
5.636267693831094
 21
8.0434314264321713
 31
0.0
  0
LINE
  5
C69
  8
SHOULDER_-_HUB
 10
5.1898458054638184
 20
8.4898533147994506
 30
0.0
 11
4.9398458054638184
 21
8.7398533147994506
 31
0.0
  0
LINE
  5
C6A
  8
SHOULDER_-_HUB
 10
6.1273458054638184
 20
7.7291300100960854
 30
0.0
 11
5.8867013455013293
 21
7.9697744700585744
 31
0.0
  0
LINE
  5
C6B
  8
SHOULDER_-_HUB
 10
5.1898458054638184
 20
8.6666300100960854
 30
0.0
 11
4.9398458054638184
 21
8.9166300100960854
 31
0.0
  0
LINE
  5
C6C
  8
SHOULDER_-_HUB
 10
5.1898458054638184
 20
8.8434067053927237
 30
0.0
 11
4.9398458054638184
 21
9.0934067053927237
 31
0.0
  0
LINE
  5
C6D
  8
SHOULDER_-_HUB
 10
5.1898458054638184
 20
9.0201834006893602
 30
0.0
 11
4.9398458054638184
 21
9.2701834006893602
 31
0.0
  0
LINE
  5
C6E
  8
SHOULDER_-_HUB
 10
5.1898458054638184
 20
9.1969600959859967
 30
0.0
 11
4.9398458054638184
 21
9.4469600959859967
 31
0.0
  0
LINE
  5
C6F
  8
SHOULDER_-_HUB
 10
5.1898458054638184
 20
9.373736791282635
 30
0.0
 11
4.9398458054638184
 21
9.623736791282635
 31
0.0
  0
LINE
  5
C70
  8
SHOULDER_-_HUB
 10
5.0648458054638184
 20
9.6755134865792698
 30
0.0
 11
4.9398458054638184
 21
9.8005134865792698
 31
0.0
  0
LINE
  5
C71
  8
SHOULDER_-_HUB
 10
5.1736407782232297
 20
9.7434952091164924
 30
0.0
 11
4.9398458054638184
 21
9.9772901818759081
 31
0.0
  0
LINE
  5
C72
  8
SHOULDER_-_HUB
 10
5.3102409518615437
 20
9.7836717307748202
 30
0.0
 11
4.9398458054638184
 21
10.154066877172539
 31
0.0
  0
LINE
  5
C73
  8
SHOULDER_-_HUB
 10
5.4468411254998514
 20
9.8238482524331445
 30
0.0
 11
5.0591926902163351
 21
10.211496687716661
 31
0.0
  0
LINE
  5
C74
  8
SHOULDER_-_HUB
 10
5.5834412991381646
 20
9.8640247740914724
 30
0.0
 11
5.2359693855129663
 21
10.211496687716661
 31
0.0
  0
LINE
  5
C75
  8
SHOULDER_-_HUB
 10
5.7200414727764723
 20
9.9042012957497967
 30
0.0
 11
5.4127460808096037
 21
10.211496687716661
 31
0.0
  0
LINE
  5
C76
  8
SHOULDER_-_HUB
 10
5.8566416464147864
 20
9.9443778174081245
 30
0.0
 11
5.589522776106242
 21
10.21149668771667
 31
0.0
  0
LINE
  5
C77
  8
SHOULDER_-_HUB
 10
5.9932418200530932
 20
9.9845543390664524
 30
0.0
 11
5.7523458054638184
 21
10.22545035365572
 31
0.0
  0
LINE
  5
C78
  8
SHOULDER_-_HUB
 10
6.1273458054638184
 20
10.02722704895236
 30
0.0
 11
5.7523458054638184
 21
10.40222704895236
 31
0.0
  0
LINE
  5
C79
  8
SHOULDER_-_HUB
 10
6.1273458054638184
 20
10.204003744249
 30
0.0
 11
5.7523458054638184
 21
10.579003744249
 31
0.0
  0
LINE
  5
C7A
  8
SHOULDER_-_HUB
 10
6.1273458054638184
 20
10.38078043954564
 30
0.0
 11
6.1091295572927891
 21
10.398996687716661
 31
0.0
  0
LINE
  5
C7B
  8
SHOULDER_-_HUB
 10
6.0023458054638184
 20
10.50578043954564
 30
0.0
 11
5.8591295572927891
 21
10.648996687716661
 31
0.0
  0
LINE
  5
C7C
  8
SHOULDER_-_HUB
 10
6.1609062525894274
 20
10.52399668771667
 30
0.0
 11
6.0359062525894274
 21
10.648996687716661
 31
0.0
  0
LINE
  5
C7D
  8
SHOULDER_-_HUB
 10
6.2523458054638184
 20
10.60933383013891
 30
0.0
 11
6.2126829478860648
 21
10.648996687716661
 31
0.0
  0
LINE
  5
C9C
  8
DIMENSION
 10
5.0648458054638184
 20
8.1802466877166644
 30
0.0
 11
5.0648458054638184
 21
6.7427466877166644
 31
0.0
  0
LINE
  5
C9D
  8
DIMENSION
 10
4.9398458054638184
 20
7.6802466877166644
 30
0.0
 11
4.9398458054638184
 21
6.7427466877166644
 31
0.0
  0
LINE
  5
C9E
  8
DIMENSION
 10
5.2210958054638184
 20
6.7739966877166644
 30
0.0
 11
5.3773458054638184
 21
6.7739966877166644
 31
0.0
  0
LINE
  5
C9F
  8
DIMENSION
 10
4.7835958054638184
 20
6.7739966877166644
 30
0.0
 11
4.6273458054638184
 21
6.7739966877166644
 31
0.0
  0
SOLID
  5
CA0
  8
DIMENSION
 10
5.2210958054638184
 20
6.8000383543833323
 30
0.0
 11
5.2210958054638184
 21
6.7479550210499983
 31
0.0
 12
5.0648458054638184
 22
6.7739966877166644
 32
0.0
 13
5.0648458054638184
 23
6.7739966877166644
 33
0.0
  0
SOLID
  5
CA1
  8
DIMENSION
 10
4.7835958054638184
 20
6.8000383543833323
 30
0.0
 11
4.7835958054638184
 21
6.7479550210499983
 31
0.0
 12
4.9398458054638184
 22
6.7739966877166644
 32
0.0
 13
4.9398458054638184
 23
6.7739966877166644
 33
0.0
  0
TEXT
  5
CA3
  8
DIMENSION
 10
3.969607710225723
 20
6.6958716877166644
 30
0.0
 40
0.15625
  1
0.125
  0
LINE
  5
CB9
  8
DIMENSION
 10
11.289085933425151
 20
7.9510034490324459
 30
0.0
 11
10.85741795909634
 21
6.9088647709657423
 31
0.0
  0
LINE
  5
CBA
  8
DIMENSION
 10
12.126205941723789
 20
7.951003449032445
 30
0.0
 11
12.55787391605258
 21
6.908864770965744
 31
0.0
  0
ARC
  5
CBB
  8
DIMENSION
 10
11.70764593757446
 20
8.9614966877166626
 30
0.0
 40
2.1905027767624219
 50
251.5878124771786
 51
264.07309514607101
  0
ARC
  5
CBC
  8
DIMENSION
 10
11.70764593757446
 20
8.9614966877166626
 30
0.0
 40
2.1905027767624219
 50
275.9269048539291
 51
288.41218752282151
  0
SOLID
  5
CBD
  8
DIMENSION
 10
11.00667244624576
 20
6.8587287856966119
 30
0.0
 11
11.024875024303739
 21
6.9075277586689436
 31
0.0
 12
10.869376816357761
 22
6.9377360063567197
 32
0.0
 13
10.869376816357761
 23
6.9377360063567197
 33
0.0
  0
SOLID
  5
CBE
  8
DIMENSION
 10
12.39041685084519
 20
6.9075277586689436
 30
0.0
 11
12.408619428903171
 21
6.8587287856966119
 31
0.0
 12
12.54591505879117
 22
6.9377360063567224
 32
0.0
 13
12.54591505879117
 23
6.9377360063567224
 33
0.0
  0
TEXT
  5
CC0
  8
DIMENSION
 10
11.543955461383989
 20
6.6936868069852373
 30
0.0
 40
0.15625
  1
45°
  0
TEXT
  5
CC1
  8
DIMENSION
 10
11.25377688995542
 20
6.4332701403185686
 30
0.0
 40
0.15625
  1
TYPICAL
  0
LINE
  5
CC5
  8
DIMENSION
 10
11.70764593757446
 20
10.90795255103426
 30
0.0
 11
11.70764593757446
 21
11.33531420425183
 31
0.0
  0
TEXT
  5
CC6
  8
DIMENSION
 10
12.19915961948546
 20
5.6079366519873686
 30
0.0
 40
0.25
  1
A
  0
TEXT
  5
107F
  8
0
  6
CONTINUOUS
 10
69.111330093408014
 20
18.868254544725861
 30
0.0
 40
0.12
  1
 
 51
7.0
  0
TEXT
  5
1080
  8
0
  6
CONTINUOUS
 10
81.555426858887884
 20
25.931128974457518
 30
0.0
 40
0.24
  1
 
 51
7.0
  0
TEXT
  5
1081
  8
0
  6
CONTINUOUS
 10
90.765191870801175
 20
25.611118987880431
 30
0.0
 40
0.24
  1
 
 51
7.0
  0
TEXT
  5
1082
  8
0
  6
CONTINUOUS
 10
100.5691513552338
 20
8.7485381883531126
 30
0.0
 40
0.24
  1
 
 51
7.0
  0
LINE
  5
113A
  8
0
 10
0.0
 20
0.0
 30
0.0
 11
0.0
 21
17.0
 31
0.0
  0
LINE
  5
113B
  8
0
 10
22.000000000000011
 20
0.0
 30
0.0
 11
22.000000000000011
 21
17.0
 31
0.0
  0
LINE
  5
113C
  8
0
 10
0.0
 20
0.0
 30
0.0
 11
22.000000000000011
 21
0.0
 31
0.0
  0
LINE
  5
113D
  8
0
 10
0.0
 20
17.0
 30
0.0
 11
22.000000000000011
 21
17.0
 31
0.0
  0
LINE
  5
11DB
  8
FORM
 10
21.403846140107252
 20
0.7499999996674092
 30
0.0
 11
21.403846140107252
 21
15.153846144098431
 31
0.0
  0
LINE
  5
11DC
  8
FORM
 10
21.249999986363441
 20
15.307692297842239
 30
0.0
 11
0.7499999996674376
 21
15.307692297842239
 31
0.0
  0
LINE
  5
11DD
  8
FORM
 10
21.249999986363441
 20
0.5961538459236025
 30
0.0
 11
0.7499999996674376
 21
0.5961538459235954
 31
0.0
  0
LINE
  5
11DE
  8
FORM
 10
0.5961538459236168
 20
0.7499999996674092
 30
0.0
 11
0.5961538459236168
 21
15.153846144098431
 31
0.0
  0
TEXT
  5
11DF
  8
FORM
 10
18.883358619298409
 20
2.6705065993040051
 30
0.0
 40
0.260516826749781
  1
HUB
 72
     1
 11
19.243119951476679
 21
2.6705065993040051
 31
0.0
  0
TEXT
  5
11E0
  8
FORM
 10
18.269283241959641
 20
2.1193155254872589
 30
0.0
 40
0.260516826749781
  1
SHOULDER
 72
     1
 11
19.243119951476679
 21
2.1193155254872589
 31
0.0
  0
TEXT
  5
11E1
  8
FORM
 10
16.770574233580572
 20
1.1177623757995749
 30
0.0
 40
0.260516826749781
  1
ASTROMECH DROID
  0
TEXT
  5
11E2
  8
FORM
 10
20.857200380049971
 20
1.1278903102633671
 30
0.0
 40
0.260516826749781
  1
A
  0
TEXT
  5
11E3
  8
FORM
 10
17.25446024791373
 20
0.813671414000872
 30
0.0
 40
0.1042067306999124
  1
FULL
  0
TEXT
  5
11E4
  8
FORM
 10
20.59328054442603
 20
0.8165882189588344
 30
0.0
 40
0.1042067306999124
  1
1   1
  0
TEXT
  5
11E5
  8
FORM
 10
18.86737348866825
 20
0.8246381046439915
 30
0.0
 40
0.1042067306999124
  1
APRIL 2005
 72
     2
 11
19.770498488067489
 21
0.8246381046439915
 31
0.0
  0
TEXT
  5
11E6
  8
FORM
  6
CONTINUOUS
 10
18.11882791355859
 20
0.8235896747318066
 30
0.0
 40
0.0900346153247244
  1
DRAWN:
  0
TEXT
  5
11E7
  8
FORM
  6
CONTINUOUS
 10
16.72518466957764
 20
0.8236741054737031
 30
0.0
 40
0.0900346153247244
  1
SCALE:
  0
TEXT
  5
11E8
  8
FORM
  6
CONTINUOUS
 10
20.017956773164951
 20
0.8225458122742352
 30
0.0
 40
0.0900346153247244
  1
SHEET:   OF
  0
TEXT
  5
11E9
  8
FORM
  6
CONTINUOUS
 10
16.560769897877751
 20
1.5378028837587541
 30
0.0
 40
0.0900346153247244
  1
DRAWING NO.
  0
TEXT
  5
11EA
  8
FORM
  6
CONTINUOUS
 10
20.822311852397561
 20
1.537802883758743
 30
0.0
 40
0.0900346153247244
  1
REV.
 72
     1
 11
20.955220094067389
 21
1.537802883758743
 31
0.0
  0
LINE
  5
11EB
  8
FORM
  6
CONTINUOUS
 10
16.703251912464879
 20
3.3610038440844141
 30
0.0
 11
21.024913448051631
 21
3.3610038440844141
 31
0.0
  0
LINE
  5
11EC
  8
FORM
  6
CONTINUOUS
 10
16.478165374153068
 20
0.9750865379792159
 30
0.0
 11
16.47816537415304
 21
3.1359173057725931
 31
0.0
  0
LINE
  5
11ED
  8
FORM
  6
CONTINUOUS
 10
16.478165374153068
 20
1.672854806745828
 30
0.0
 11
21.249999986363441
 21
1.672854806745828
 31
0.0
  0
LINE
  5
11EE
  8
FORM
  6
CONTINUOUS
 10
16.478165374153068
 20
0.9750865379792159
 30
0.0
 11
21.249999986363441
 21
0.9750865379792159
 31
0.0
  0
LINE
  5
11EF
  8
FORM
  6
CONTINUOUS
 10
17.978042375432761
 20
0.9750865379792159
 30
0.0
 11
17.978042375432761
 21
0.7499999996674092
 31
0.0
  0
LINE
  5
11F0
  8
FORM
  6
CONTINUOUS
 10
19.950430811671399
 20
0.9723156702741989
 30
0.0
 11
19.950430811671399
 21
0.7472291319623921
 31
0.0
  0
LINE
  5
11F1
  8
FORM
  6
CONTINUOUS
 10
20.65524763562988
 20
1.672854806745828
 30
0.0
 11
20.65524763562988
 21
0.9750865379792159
 31
0.0
  0
ARC
  5
11F2
  8
FORM
 62
     5
 10
16.925603837263061
 20
2.683123263179624
 30
0.0
 40
0.0245481788339413
 50
152.18113099770551
 51
330.99098814993278
  0
ARC
  5
11F3
  8
FORM
 62
     5
 10
17.031863490617191
 20
2.8877559907035391
 30
0.0
 40
0.0215248522646385
 50
335.32315363464198
 51
152.6722492633036
  0
ARC
  5
11F4
  8
FORM
 62
     5
 10
18.67139281679864
 20
1.8778243841790809
 30
0.0
 40
1.9470863223045181
 50
148.41494327216151
 51
155.19852313243231
  0
ARC
  5
11F5
  8
FORM
 62
     5
 10
19.048266219253641
 20
1.7448079813832851
 30
0.0
 40
2.2963564077758769
 50
150.40875710206339
 51
156.20744757951141
  0
ARC
  5
11F6
  8
FORM
 62
     7
 10
16.85618768961919
 20
2.476891943456518
 30
0.0
 40
0.0328016362752216
 50
161.128725237971
 51
346.89295927401372
  0
ARC
  5
11F7
  8
FORM
 62
     7
 10
26.44698154523395
 20
-1.665659984064163
 30
0.0
 40
10.414927500982669
 50
153.58307292081309
 51
156.60691138966209
  0
ARC
  5
11F8
  8
FORM
 62
     7
 10
24.94276577236284
 20
-1.1245203992272681
 30
0.0
 40
8.873647082696257
 50
152.3409599977594
 51
152.9694116127464
  0
ARC
  5
11F9
  8
FORM
 62
     7
 10
25.042235970541078
 20
-1.413551413076795
 30
0.0
 40
9.0960831006715779
 50
153.3711283527573
 51
154.60402195655351
  0
ARC
  5
11FA
  8
FORM
 62
     7
 10
17.329398129118289
 20
2.8602652973761158
 30
0.0
 40
0.2358358050601862
 50
23.468725928191049
 51
88.151617587883351
  0
ARC
  5
11FB
  8
FORM
 62
     7
 10
17.334668891213539
 20
2.8754695652234821
 30
0.0
 40
0.2783521476800796
 50
18.23262529566551
 51
154.63608874642679
  0
ARC
  5
11FC
  8
FORM
 62
     7
 10
17.41806628342875
 20
2.9044827195306051
 30
0.0
 40
0.1900699214402894
 50
336.99722732837893
 51
341.11190659806488
  0
ARC
  5
11FD
  8
FORM
 62
     7
 10
17.429371041778779
 20
2.912888609699027
 30
0.0
 40
0.1244898949022119
 50
333.24704424527522
 51
339.12675173356178
  0
ARC
  5
11FE
  8
FORM
 62
     7
 10
17.547120806258569
 20
2.8541053585607901
 30
0.0
 40
0.007134896083525
 50
157.3747590211585
 51
243.18317341424029
  0
ARC
  5
11FF
  8
FORM
 62
     7
 10
17.589262332130438
 20
2.8313183495512071
 30
0.0
 40
0.0039211308505914
 50
246.7423667985764
 51
343.55073793579641
  0
ARC
  5
1200
  8
FORM
 62
     7
 10
17.712650022975261
 20
3.1590467530149189
 30
0.0
 40
0.3541033340658146
 50
241.5396617947477
 51
249.33988332022491
  0
ARC
  5
1201
  8
FORM
 62
     7
 10
17.465116861604152
 20
2.7835275642507962
 30
0.0
 40
0.0699031230302257
 50
210.28645373052609
 51
287.25915125833183
  0
ARC
  5
1202
  8
FORM
 62
     7
 10
17.471123101482849
 20
2.7532989527990699
 30
0.0
 40
0.0393865134548433
 50
291.96730232828992
 51
10.20108836223371
  0
ARC
  5
1203
  8
FORM
 62
     7
 10
17.159843992632862
 20
2.6859329108208518
 30
0.0
 40
0.2527202610277017
 50
14.28109924276106
 51
24.94726153987823
  0
ARC
  5
1204
  8
FORM
 62
     7
 10
17.30724545805592
 20
2.7624795397720869
 30
0.0
 40
0.0870866377029319
 50
20.183063788867621
 51
47.833846572520187
  0
ARC
  5
1205
  8
FORM
 62
     7
 10
17.3235259706865
 20
2.7183682645997709
 30
0.0
 40
0.1165593648186974
 50
68.784960310907422
 51
94.742087985452599
  0
ARC
  5
1206
  8
FORM
 62
     7
 10
17.322257766755691
 20
2.7872533208520021
 30
0.0
 40
0.0480101674679103
 50
100.0375073429591
 51
170.98475346238999
  0
ARC
  5
1207
  8
FORM
 62
     7
 10
17.548079884465128
 20
2.754066770453373
 30
0.0
 40
0.2762551956077745
 50
171.52589863719891
 51
197.494741096675
  0
ARC
  5
1208
  8
FORM
 62
     7
 10
17.361988404409459
 20
2.757975203687443
 30
0.0
 40
0.1479164690482495
 50
0.8906501289532242
 51
49.113860192417171
  0
ARC
  5
1209
  8
FORM
 62
     7
 10
17.330827327390129
 20
2.7851061194825268
 30
0.0
 40
0.1164203647136616
 50
99.869748807366761
 51
175.59516845025641
  0
ARC
  5
120A
  8
FORM
 62
     7
 10
17.351819288533541
 20
2.721979015220195
 30
0.0
 40
0.1824780170187834
 50
54.104282451028169
 51
102.9674010870567
  0
ARC
  5
120B
  8
FORM
 62
     7
 10
17.86682547837183
 20
2.8305495615738461
 30
0.0
 40
0.603682768180479
 50
195.32307896217739
 51
209.290843156958
  0
ARC
  5
120C
  8
FORM
 62
     7
 10
17.676878331574731
 20
2.7315679572076941
 30
0.0
 40
0.4663319886455236
 50
172.3003020759547
 51
200.12627387409299
  0
ARC
  5
120D
  8
FORM
 62
     7
 10
18.010296677355178
 20
2.8617220596188409
 30
0.0
 40
0.8242093741364085
 50
200.64629086238159
 51
210.0464960904439
  0
ARC
  5
120E
  8
FORM
 62
     7
 10
16.87490984687733
 20
2.2228629736894798
 30
0.0
 40
0.5605059965149727
 50
28.431949107384298
 51
33.865461133002469
  0
ARC
  5
120F
  8
FORM
 62
     7
 10
17.335282492148369
 20
2.4642291377128478
 30
0.0
 40
0.0413303405420145
 50
201.56446042640411
 51
38.094090168146302
  0
ARC
  5
1210
  8
FORM
 62
     5
 10
17.698488306364119
 20
2.8075987703319072
 30
0.0
 40
0.0229902810191139
 50
227.6202696593605
 51
57.412112921204063
  0
ARC
  5
1211
  8
FORM
 62
     5
 10
17.427351296879159
 20
2.453894972691713
 30
0.0
 40
0.4685807675213703
 50
52.766851639305898
 51
65.063571515457895
  0
ARC
  5
1212
  8
FORM
 62
     5
 10
17.209234353189519
 20
2.115713416994772
 30
0.0
 40
0.8245845677332351
 50
54.932512589538803
 51
74.152868438598929
  0
ARC
  5
1213
  8
FORM
 62
     5
 10
17.22112341118936
 20
1.8705744209651269
 30
0.0
 40
1.0600616451387339
 50
78.393012355262385
 51
89.647961077025343
  0
ARC
  5
1214
  8
FORM
 62
     5
 10
17.22585515811722
 20
2.9613835761542329
 30
0.0
 40
0.0308190515998151
 50
183.9979944211656
 51
273.313807745882
  0
ARC
  5
1215
  8
FORM
 62
     5
 10
17.329870384946648
 20
2.9695252211814269
 30
0.0
 40
0.135151603104915
 50
145.60859166919269
 51
184.36670732083471
  0
ARC
  5
1216
  8
FORM
 62
     5
 10
17.246715832908802
 20
3.027923603152622
 30
0.0
 40
0.0335688941126511
 50
75.244714174009715
 51
147.6929850116162
  0
ARC
  5
1217
  8
FORM
 62
     5
 10
16.846566400398309
 20
1.4922623483111219
 30
0.0
 40
1.6205076763160291
 50
61.637242241525243
 51
75.392005557716686
  0
ARC
  5
1218
  8
FORM
 62
     5
 10
17.585771892302471
 20
2.8909845400545029
 30
0.0
 40
0.0409937741994102
 50
342.6982574268402
 51
41.67278378767756
  0
ARC
  5
1219
  8
FORM
 62
     7
 10
17.41806628342875
 20
2.9044827195306051
 30
0.0
 40
0.1900699214402894
 50
5.6380312699923048
 51
17.79145636873681
  0
ARC
  5
121A
  8
FORM
 62
     7
 10
17.504562230095111
 20
2.0088127942983891
 30
0.0
 40
0.0608207837544583
 50
88.432533024773406
 51
186.62631613112151
  0
ARC
  5
121B
  8
FORM
 62
     7
 10
17.514107893903319
 20
2.0214944811508531
 30
0.0
 40
0.0726809031862866
 50
195.7266305128272
 51
285.3806868435185
  0
ARC
  5
121C
  8
FORM
 62
     7
 10
17.428397303924331
 20
2.6646932328165849
 30
0.0
 40
0.7209618028535085
 50
278.37329371359471
 51
293.15208507016871
  0
ARC
  5
121D
  8
FORM
 62
     7
 10
17.670280088548289
 20
2.2109164793858191
 30
0.0
 40
0.1486954171998164
 50
257.51805604168283
 51
277.23103351305667
  0
ARC
  5
121E
  8
FORM
 62
     7
 10
17.67861701724113
 20
2.0887614153130118
 30
0.0
 40
0.0273997705390677
 50
292.26031345923337
 51
12.867379300523719
  0
ARC
  5
121F
  8
FORM
 62
     7
 10
17.658243987918532
 20
2.0848332422543971
 30
0.0
 40
0.0481411784627428
 50
12.02537552739555
 51
52.143631645159317
  0
ARC
  5
1220
  8
FORM
 62
     7
 10
18.684731676867621
 20
3.3322419147777782
 30
0.0
 40
1.5673362882102819
 50
219.60277928185971
 51
230.5002020408055
  0
ARC
  5
1221
  8
FORM
 62
     7
 10
17.71719517775902
 20
2.5209914067630801
 30
0.0
 40
0.3048383262947374
 50
175.97523115435061
 51
218.04500009534141
  0
ARC
  5
1222
  8
FORM
 62
     7
 10
17.587988709286751
 20
2.5516026198667592
 30
0.0
 40
0.1751226981011722
 50
149.96078860476399
 51
183.01641230856191
  0
ARC
  5
1223
  8
FORM
 62
     7
 10
17.465652099647009
 20
2.6236413715572442
 30
0.0
 40
0.03317488584424
 50
69.764209445538683
 51
151.8988190455112
  0
ARC
  5
1224
  8
FORM
 62
     7
 10
17.461738153470581
 20
2.621386420418637
 30
0.0
 40
0.0367584023789668
 50
357.6694469744499
 51
65.251102439515435
  0
ARC
  5
1225
  8
FORM
 62
     7
 10
17.375127171955011
 20
2.6142785816255478
 30
0.0
 40
0.1234666367742727
 50
345.36193237678458
 51
2.6056939300727819
  0
ARC
  5
1226
  8
FORM
 62
     7
 10
17.77078834668831
 20
2.4976765653254129
 30
0.0
 40
0.289103498612585
 50
162.8186183088072
 51
185.35496664157321
  0
ARC
  5
1227
  8
FORM
 62
     7
 10
17.738557938675601
 20
2.526678108373186
 30
0.0
 40
0.261669979998945
 50
192.3534994193023
 51
222.3020476696033
  0
ARC
  5
1228
  8
FORM
 62
     7
 10
18.64000038287109
 20
3.2533952889623161
 30
0.0
 40
1.419181254971364
 50
219.50633019139829
 51
228.42762303996261
  0
ARC
  5
1229
  8
FORM
 62
     7
 10
17.545150090279272
 20
1.9830014576086259
 30
0.0
 40
0.2588352891177654
 50
32.971129457978869
 51
53.728419363024337
  0
ARC
  5
122A
  8
FORM
 62
     7
 10
17.685505274612328
 20
2.0841393566689059
 30
0.0
 40
0.0864595649942742
 50
287.74749415951351
 51
27.35211189662947
  0
ARC
  5
122B
  8
FORM
 62
     7
 10
17.556150910590731
 20
1.521887384058928
 30
0.0
 40
0.5499940598264056
 50
81.426570944510203
 51
95.208118001959775
  0
ARC
  5
122C
  8
FORM
 62
     7
 10
17.318742265947641
 20
2.379232385518228
 30
0.0
 40
0.0244848954091209
 50
325.52447187114308
 51
75.340502228459783
  0
ARC
  5
122D
  8
FORM
 62
     7
 10
17.288575031823321
 20
2.4013816515593862
 30
0.0
 40
0.0619027859518531
 50
277.78730616127859
 51
324.42957968808531
  0
ARC
  5
122E
  8
FORM
 62
     7
 10
17.277627430402191
 20
2.4116764447725738
 30
0.0
 40
0.0741905263351136
 50
243.48581874200181
 51
285.1065744639306
  0
ARC
  5
122F
  8
FORM
 62
     7
 10
13.996169845325721
 20
-5.9734717723731041
 30
0.0
 40
9.0135811594364625
 50
68.327181839257534
 51
70.606105230637283
  0
ARC
  5
1230
  8
FORM
 62
     7
 10
16.98286028360284
 20
2.502260489661857
 30
0.0
 40
0.0271571196358057
 50
76.445232091872299
 51
134.36352227876461
  0
ARC
  5
1231
  8
FORM
 62
     7
 10
17.103601465049461
 20
2.316491870596419
 30
0.0
 40
0.2482433149023289
 50
124.2547762008316
 51
135.012931962436
  0
ARC
  5
1232
  8
FORM
 62
     7
 10
16.932687772438332
 20
2.4840903864877362
 30
0.0
 40
0.0091691237651447
 50
120.5491196217084
 51
251.48388650457539
  0
ARC
  5
1233
  8
FORM
 62
     7
 10
15.698852283122079
 20
-0.947959245240991
 30
0.0
 40
3.6379298384249581
 50
64.85742894317822
 51
67.515132469299331
  0
ARC
  5
1234
  8
FORM
 62
     7
 10
17.235993571129491
 20
2.291795105104121
 30
0.0
 40
0.0343472402230129
 50
329.18566117941782
 51
69.527151249863806
  0
ARC
  5
1235
  8
FORM
 62
     7
 10
17.145886072427889
 20
2.1556962750494151
 30
0.0
 40
0.1968392862921899
 50
58.747973844557571
 51
81.106226592028065
  0
ARC
  5
1236
  8
FORM
 62
     7
 10
17.124947044127829
 20
2.0252080021495891
 30
0.0
 40
0.3289962935825703
 50
81.016817915507374
 51
97.679603827268224
  0
ARC
  5
1237
  8
FORM
 62
     7
 10
17.159573600239298
 20
2.1240726877937131
 30
0.0
 40
0.2440398498458748
 50
121.5050128230593
 51
139.0957881060705
  0
ARC
  5
1238
  8
FORM
 62
     7
 10
17.225825242067831
 20
2.2865562155100809
 30
0.0
 40
0.0415466234232141
 50
277.70569210516868
 51
342.69880024124109
  0
ARC
  5
1239
  8
FORM
 62
     7
 10
17.213074197788082
 20
2.3334352792513711
 30
0.0
 40
0.0899365447321688
 50
250.08394506358289
 51
281.75453717228322
  0
ARC
  5
123A
  8
FORM
 62
     7
 10
17.2424582627973
 20
2.3437609022874879
 30
0.0
 40
0.1122732419236369
 50
221.18187885427241
 51
237.68378775985289
  0
ARC
  5
123B
  8
FORM
 62
     7
 10
17.110782309270501
 20
2.213603979985677
 30
0.0
 40
0.0733994924367979
 50
50.003848755011681
 51
75.5416830098399
  0
ARC
  5
123C
  8
FORM
 62
     7
 10
17.106900028743439
 20
2.2402084319691471
 30
0.0
 40
0.0497074536252231
 50
63.4626603498468
 51
100.74200229027051
  0
ARC
  5
123D
  8
FORM
 62
     7
 10
17.09763521067914
 20
2.2049366923578511
 30
0.0
 40
0.0841081409133923
 50
89.999999999999588
 51
125.5974615489027
  0
ARC
  5
123E
  8
FORM
 62
     7
 10
18.095359084955341
 20
2.805145934228654
 30
0.0
 40
1.1637748462988311
 50
197.51922498184919
 51
203.981481444731
  0
ARC
  5
123F
  8
FORM
 62
     7
 10
16.736982371619181
 20
2.433687501517297
 30
0.0
 40
0.3537389089231183
 50
346.52409876011302
 51
356.71498770316703
  0
ARC
  5
1240
  8
FORM
 62
     7
 10
15.698852283122079
 20
-0.947959245240991
 30
0.0
 40
3.6379298384249581
 50
69.286600818944052
 51
70.22311760076802
  0
ARC
  5
1241
  8
FORM
 62
     7
 10
16.927896929228471
 20
2.1257895907104252
 30
0.0
 40
0.1066736432871782
 50
245.40259669902051
 51
275.40975098180542
  0
ARC
  5
1242
  8
FORM
 62
     7
 10
17.301941284744011
 20
1.9333049606058379
 30
0.0
 40
0.4239787481416163
 50
126.68044463040199
 51
139.78708822539889
  0
ARC
  5
1243
  8
FORM
 62
     7
 10
16.925901396850129
 20
2.42585100124619
 30
0.0
 40
0.4064386631288638
 50
271.69929119420118
 51
283.39540842056908
  0
ARC
  5
1244
  8
FORM
 62
     7
 10
17.68590019642733
 20
1.487877603185271
 30
0.0
 40
1.0089968057446299
 50
134.5410403491789
 51
138.91474429089899
  0
ARC
  5
1245
  8
FORM
 62
     7
 10
16.942625607711989
 20
2.1366275124138698
 30
0.0
 40
0.0266928289273625
 50
201.8252958964795
 51
267.16449786715452
  0
ARC
  5
1246
  8
FORM
 62
     7
 10
16.9368792594118
 20
2.1340951027918962
 30
0.0
 40
0.0204180021895292
 50
124.254854327418
 51
201.22329273937859
  0
ARC
  5
1247
  8
FORM
 62
     7
 10
16.999050226745201
 20
2.1174828639755172
 30
0.0
 40
0.0895139066856433
 50
283.5751770312794
 51
324.58969283639942
  0
ARC
  5
1248
  8
FORM
 62
     7
 10
17.050101816405981
 20
2.0748500422369349
 30
0.0
 40
0.0237711578752802
 50
337.14160324238759
 51
47.56496670892831
  0
ARC
  5
1249
  8
FORM
 62
     7
 10
17.01351320176213
 20
2.0225775754130799
 30
0.0
 40
0.0874305156836371
 50
52.990730681111657
 51
91.748895977531376
  0
ARC
  5
124A
  8
FORM
 62
     7
 10
16.97607501860475
 20
2.3473211427073291
 30
0.0
 40
0.2398869733850244
 50
261.66603807207321
 51
278.33396192792679
  0
ARC
  5
124B
  8
FORM
 62
     7
 10
16.904055290181621
 20
2.0802584334887442
 30
0.0
 40
0.0554174778483587
 50
192.64550774538381
 51
248.2223967256862
  0
ARC
  5
124C
  8
FORM
 62
     7
 10
16.89043523400003
 20
2.0865365172575769
 30
0.0
 40
0.0444453205431241
 50
178.88427582775461
 51
204.46998391858139
  0
ARC
  5
124D
  8
FORM
 62
     7
 10
17.00038134049047
 20
2.0753041716250129
 30
0.0
 40
0.1548562786887746
 50
140.54690015149379
 51
175.5193383191162
  0
ARC
  5
124E
  8
FORM
 62
     7
 10
18.525663181526969
 20
0.8608942872864346
 30
0.0
 40
2.1045236570324608
 50
137.45643980933039
 51
141.40545593619069
  0
POLYLINE
  5
124F
  8
FORM
 62
     1
 10
17.275622491608218
 20
3.0402781737931797
 30
0.0
 66
     1
 70
     8
  0
VERTEX
  8
FORM
  5
1402
 10
17.2756
 20
3.04028
 30
0.000000
  70
    32
  0
VERTEX
  8
FORM
  5
1403
 10
17.2747
 20
3.04062
 30
0.000000
  70
    32
  0
VERTEX
  8
FORM
  5
1404
 10
17.2737
 20
3.04086
 30
0.000000
  70
    32
  0
VERTEX
  8
FORM
  5
1405
 10
17.2727
 20
3.04098
 30
0.000000
  70
    32
  0
VERTEX
  8
FORM
  5
1406
 10
17.2716
 20
3.04100
 30
0.000000
  70
    32
  0
VERTEX
  8
FORM
  5
1407
 10
17.2705
 20
3.04091
 30
0.000000
  70
    32
  0
VERTEX
  8
FORM
  5
1408
 10
17.2694
 20
3.04070
 30
0.000000
  70
    32
  0
VERTEX
  8
FORM
  5
1409
 10
17.2682
 20
3.04039
 30
0.000000
  70
    32
  0
VERTEX
  8
FORM
  5
140A
 10
17.2670
 20
3.03997
 30
0.000000
  70
    32
  0
VERTEX
  8
FORM
  5
140B
 10
17.2658
 20
3.03944
 30
0.000000
  70
    32
  0
VERTEX
  8
FORM
  5
140C
 10
17.2646
 20
3.03880
 30
0.000000
  70
    32
  0
VERTEX
  8
FORM
  5
140D
 10
17.2633
 20
3.03806
 30
0.000000
  70
    32
  0
VERTEX
  8
FORM
  5
140E
 10
17.2620
 20
3.03722
 30
0.000000
  70
    32
  0
VERTEX
  8
FORM
  5
140F
 10
17.2607
 20
3.03627
 30
0.000000
  70
    32
  0
VERTEX
  8
FORM
  5
1410
 10
17.2594
 20
3.03523
 30
0.000000
  70
    32
  0
VERTEX
  8
FORM
  5
1411
 10
17.2581
 20
3.03409
 30
0.000000
  70
    32
  0
VERTEX
  8
FORM
  5
1412
 10
17.2568
 20
3.03286
 30
0.000000
  70
    32
  0
VERTEX
  8
FORM
  5
1413
 10
17.2554
 20
3.03154
 30
0.000000
  70
    32
  0
VERTEX
  8
FORM
  5
1414
 10
17.2541
 20
3.03013
 30
0.000000
  70
    32
  0
VERTEX
  8
FORM
  5
1415
 10
17.2528
 20
3.02864
 30
0.000000
  70
    32
  0
VERTEX
  8
FORM
  5
1416
 10
17.2515
 20
3.02706
 30
0.000000
  70
    32
  0
VERTEX
  8
FORM
  5
1417
 10
17.2502
 20
3.02541
 30
0.000000
  70
    32
  0
VERTEX
  8
FORM
  5
1418
 10
17.2489
 20
3.02369
 30
0.000000
  70
    32
  0
VERTEX
  8
FORM
  5
1419
 10
17.2476
 20
3.02190
 30
0.000000
  70
    32
  0
VERTEX
  8
FORM
  5
141A
 10
17.2464
 20
3.02004
 30
0.000000
  70
    32
  0
VERTEX
  8
FORM
  5
141B
 10
17.2451
 20
3.01813
 30
0.000000
  70
    32
  0
VERTEX
  8
FORM
  5
141C
 10
17.2439
 20
3.01616
 30
0.000000
  70
    32
  0
VERTEX
  8
FORM
  5
141D
 10
17.2427
 20
3.01414
 30
0.000000
  70
    32
  0
VERTEX
  8
FORM
  5
141E
 10
17.2416
 20
3.01208
 30
0.000000
  70
    32
  0
VERTEX
  8
FORM
  5
141F
 10
17.2405
 20
3.00997
 30
0.000000
  70
    32
  0
VERTEX
  8
FORM
  5
1420
 10
17.2394
 20
3.00783
 30
0.000000
  70
    32
  0
VERTEX
  8
FORM
  5
1421
 10
17.2384
 20
3.00566
 30
0.000000
  70
    32
  0
VERTEX
  8
FORM
  5
1422
 10
17.2374
 20
3.00347
 30
0.000000
  70
    32
  0
VERTEX
  8
FORM
  5
1423
 10
17.2364
 20
3.00125
 30
0.000000
  70
    32
  0
VERTEX
  8
FORM
  5
1424
 10
17.2356
 20
2.99902
 30
0.000000
  70
    32
  0
VERTEX
  8
FORM
  5
1425
 10
17.2347
 20
2.99679
 30
0.000000
  70
    32
  0
VERTEX
  8
FORM
  5
1426
 10
17.2339
 20
2.99454
 30
0.000000
  70
    32
  0
VERTEX
  8
FORM
  5
1427
 10
17.2332
 20
2.99231
 30
0.000000
  70
    32
  0
VERTEX
  8
FORM
  5
1428
 10
17.2325
 20
2.99007
 30
0.000000
  70
    32
  0
VERTEX
  8
FORM
  5
1429
 10
17.2318
 20
2.98785
 30
0.000000
  70
    32
  0
VERTEX
  8
FORM
  5
142A
 10
17.2313
 20
2.98565
 30
0.000000
  70
    32
  0
VERTEX
  8
FORM
  5
142B
 10
17.2307
 20
2.98348
 30
0.000000
  70
    32
  0
VERTEX
  8
FORM
  5
142C
 10
17.2303
 20
2.98133
 30
0.000000
  70
    32
  0
VERTEX
  8
FORM
  5
142D
 10
17.2299
 20
2.97921
 30
0.000000
  70
    32
  0
VERTEX
  8
FORM
  5
142E
 10
17.2296
 20
2.97713
 30
0.000000
  70
    32
  0
VERTEX
  8
FORM
  5
142F
 10
17.2293
 20
2.97510
 30
0.000000
  70
    32
  0
VERTEX
  8
FORM
  5
1430
 10
17.2291
 20
2.97312
 30
0.000000
  70
    32
  0
VERTEX
  8
FORM
  5
1431
 10
17.2289
 20
2.97119
 30
0.000000
  70
    32
  0
VERTEX
  8
FORM
  5
1432
 10
17.2289
 20
2.96931
 30
0.000000
  70
    32
  0
VERTEX
  8
FORM
  5
1433
 10
17.2289
 20
2.96751
 30
0.000000
  70
    32
  0
VERTEX
  8
FORM
  5
1434
 10
17.2289
 20
2.96576
 30
0.000000
  70
    32
  0
VERTEX
  8
FORM
  5
1435
 10
17.2290
 20
2.96409
 30
0.000000
  70
    32
  0
VERTEX
  8
FORM
  5
1436
 10
17.2292
 20
2.96250
 30
0.000000
  70
    32
  0
VERTEX
  8
FORM
  5
1437
 10
17.2295
 20
2.96098
 30
0.000000
  70
    32
  0
VERTEX
  8
FORM
  5
1438
 10
17.2298
 20
2.95955
 30
0.000000
  70
    32
  0
VERTEX
  8
FORM
  5
1439
 10
17.2301
 20
2.95820
 30
0.000000
  70
    32
  0
VERTEX
  8
FORM
  5
143A
 10
17.2306
 20
2.95694
 30
0.000000
  70
    32
  0
VERTEX
  8
FORM
  5
143B
 10
17.2311
 20
2.95577
 30
0.000000
  70
    32
  0
VERTEX
  8
FORM
  5
143C
 10
17.2316
 20
2.95470
 30
0.000000
  70
    32
  0
VERTEX
  8
FORM
  5
143D
 10
17.2323
 20
2.95373
 30
0.000000
  70
    32
  0
VERTEX
  8
FORM
  5
143E
 10
17.2329
 20
2.95286
 30
0.000000
  70
    32
  0
VERTEX
  8
FORM
  5
143F
 10
17.2337
 20
2.95209
 30
0.000000
  70
    32
  0
VERTEX
  8
FORM
  5
1440
 10
17.2344
 20
2.95142
 30
0.000000
  70
    32
  0
VERTEX
  8
FORM
  5
1441
 10
17.2353
 20
2.95086
 30
0.000000
  70
    32
  0
VERTEX
  8
FORM
  5
1442
 10
17.2362
 20
2.95041
 30
0.000000
  70
    32
  0
VERTEX
  8
FORM
  5
1443
 10
17.2371
 20
2.95007
 30
0.000000
  70
    32
  0
VERTEX
  8
FORM
  5
1444
 10
17.2381
 20
2.94983
 30
0.000000
  70
    32
  0
VERTEX
  8
FORM
  5
1445
 10
17.2391
 20
2.94971
 30
0.000000
  70
    32
  0
VERTEX
  8
FORM
  5
1446
 10
17.2401
 20
2.94969
 30
0.000000
  70
    32
  0
VERTEX
  8
FORM
  5
1447
 10
17.2412
 20
2.94978
 30
0.000000
  70
    32
  0
VERTEX
  8
FORM
  5
1448
 10
17.2424
 20
2.94999
 30
0.000000
  70
    32
  0
VERTEX
  8
FORM
  5
1449
 10
17.2435
 20
2.95030
 30
0.000000
  70
    32
  0
VERTEX
  8
FORM
  5
144A
 10
17.2447
 20
2.95072
 30
0.000000
  70
    32
  0
VERTEX
  8
FORM
  5
144B
 10
17.2460
 20
2.95125
 30
0.000000
  70
    32
  0
VERTEX
  8
FORM
  5
144C
 10
17.2472
 20
2.95189
 30
0.000000
  70
    32
  0
VERTEX
  8
FORM
  5
144D
 10
17.2485
 20
2.95263
 30
0.000000
  70
    32
  0
VERTEX
  8
FORM
  5
144E
 10
17.2498
 20
2.95347
 30
0.000000
  70
    32
  0
VERTEX
  8
FORM
  5
144F
 10
17.2511
 20
2.95442
 30
0.000000
  70
    32
  0
VERTEX
  8
FORM
  5
1450
 10
17.2524
 20
2.95546
 30
0.000000
  70
    32
  0
VERTEX
  8
FORM
  5
1451
 10
17.2537
 20
2.95660
 30
0.000000
  70
    32
  0
VERTEX
  8
FORM
  5
1452
 10
17.2550
 20
2.95783
 30
0.000000
  70
    32
  0
VERTEX
  8
FORM
  5
1453
 10
17.2563
 20
2.95915
 30
0.000000
  70
    32
  0
VERTEX
  8
FORM
  5
1454
 10
17.2577
 20
2.96056
 30
0.000000
  70
    32
  0
VERTEX
  8
FORM
  5
1455
 10
17.2590
 20
2.96205
 30
0.000000
  70
    32
  0
VERTEX
  8
FORM
  5
1456
 10
17.2603
 20
2.96363
 30
0.000000
  70
    32
  0
VERTEX
  8
FORM
  5
1457
 10
17.2616
 20
2.96528
 30
0.000000
  70
    32
  0
VERTEX
  8
FORM
  5
1458
 10
17.2629
 20
2.96700
 30
0.000000
  70
    32
  0
VERTEX
  8
FORM
  5
1459
 10
17.2642
 20
2.96879
 30
0.000000
  70
    32
  0
VERTEX
  8
FORM
  5
145A
 10
17.2654
 20
2.97065
 30
0.000000
  70
    32
  0
VERTEX
  8
FORM
  5
145B
 10
17.2667
 20
2.97256
 30
0.000000
  70
    32
  0
VERTEX
  8
FORM
  5
145C
 10
17.2679
 20
2.97453
 30
0.000000
  70
    32
  0
VERTEX
  8
FORM
  5
145D
 10
17.2690
 20
2.97655
 30
0.000000
  70
    32
  0
VERTEX
  8
FORM
  5
145E
 10
17.2702
 20
2.97861
 30
0.000000
  70
    32
  0
VERTEX
  8
FORM
  5
145F
 10
17.2713
 20
2.98072
 30
0.000000
  70
    32
  0
VERTEX
  8
FORM
  5
1460
 10
17.2724
 20
2.98286
 30
0.000000
  70
    32
  0
VERTEX
  8
FORM
  5
1461
 10
17.2734
 20
2.98503
 30
0.000000
  70
    32
  0
VERTEX
  8
FORM
  5
1462
 10
17.2744
 20
2.98722
 30
0.000000
  70
    32
  0
VERTEX
  8
FORM
  5
1463
 10
17.2753
 20
2.98944
 30
0.000000
  70
    32
  0
VERTEX
  8
FORM
  5
1464
 10
17.2762
 20
2.99167
 30
0.000000
  70
    32
  0
VERTEX
  8
FORM
  5
1465
 10
17.2771
 20
2.99390
 30
0.000000
  70
    32
  0
VERTEX
  8
FORM
  5
1466
 10
17.2779
 20
2.99615
 30
0.000000
  70
    32
  0
VERTEX
  8
FORM
  5
1467
 10
17.2786
 20
2.99838
 30
0.000000
  70
    32
  0
VERTEX
  8
FORM
  5
1468
 10
17.2793
 20
3.00062
 30
0.000000
  70
    32
  0
VERTEX
  8
FORM
  5
1469
 10
17.2800
 20
3.00284
 30
0.000000
  70
    32
  0
VERTEX
  8
FORM
  5
146A
 10
17.2805
 20
3.00504
 30
0.000000
  70
    32
  0
VERTEX
  8
FORM
  5
146B
 10
17.2810
 20
3.00721
 30
0.000000
  70
    32
  0
VERTEX
  8
FORM
  5
146C
 10
17.2815
 20
3.00936
 30
0.000000
  70
    32
  0
VERTEX
  8
FORM
  5
146D
 10
17.2819
 20
3.01148
 30
0.000000
  70
    32
  0
VERTEX
  8
FORM
  5
146E
 10
17.2822
 20
3.01356
 30
0.000000
  70
    32
  0
VERTEX
  8
FORM
  5
146F
 10
17.2825
 20
3.01559
 30
0.000000
  70
    32
  0
VERTEX
  8
FORM
  5
1470
 10
17.2827
 20
3.01757
 30
0.000000
  70
    32
  0
VERTEX
  8
FORM
  5
1471
 10
17.2828
 20
3.01950
 30
0.000000
  70
    32
  0
VERTEX
  8
FORM
  5
1472
 10
17.2829
 20
3.02137
 30
0.000000
  70
    32
  0
VERTEX
  8
FORM
  5
1473
 10
17.2829
 20
3.02318
 30
0.000000
  70
    32
  0
VERTEX
  8
FORM
  5
1474
 10
17.2829
 20
3.02493
 30
0.000000
  70
    32
  0
VERTEX
  8
FORM
  5
1475
 10
17.2828
 20
3.02660
 30
0.000000
  70
    32
  0
VERTEX
  8
FORM
  5
1476
 10
17.2826
 20
3.02819
 30
0.000000
  70
    32
  0
VERTEX
  8
FORM
  5
1477
 10
17.2823
 20
3.02971
 30
0.000000
  70
    32
  0
VERTEX
  8
FORM
  5
1478
 10
17.2820
 20
3.03114
 30
0.000000
  70
    32
  0
VERTEX
  8
FORM
  5
1479
 10
17.2816
 20
3.03249
 30
0.000000
  70
    32
  0
VERTEX
  8
FORM
  5
147A
 10
17.2812
 20
3.03375
 30
0.000000
  70
    32
  0
VERTEX
  8
FORM
  5
147B
 10
17.2807
 20
3.03492
 30
0.000000
  70
    32
  0
VERTEX
  8
FORM
  5
147C
 10
17.2801
 20
3.03599
 30
0.000000
  70
    32
  0
VERTEX
  8
FORM
  5
147D
 10
17.2795
 20
3.03696
 30
0.000000
  70
    32
  0
VERTEX
  8
FORM
  5
147E
 10
17.2789
 20
3.03783
 30
0.000000
  70
    32
  0
VERTEX
  8
FORM
  5
147F
 10
17.2781
 20
3.03860
 30
0.000000
  70
    32
  0
VERTEX
  8
FORM
  5
1480
 10
17.2773
 20
3.03927
 30
0.000000
  70
    32
  0
VERTEX
  8
FORM
  5
1481
 10
17.2765
 20
3.03983
 30
0.000000
  70
    32
  0
VERTEX
  8
FORM
  5
1482
 10
17.2756
 20
3.04028
 30
0.000000
  70
    32
  0
SEQEND
  8
FORM
  5
1483
  0
ARC
  5
1250
  8
FORM
 62
     7
 10
17.31969472840197
 20
2.8767429643067852
 30
0.0
 40
0.2199177503197187
 50
85.485448269952457
 51
155.5006785655419
  0
TEXT
  5
1251
  8
FORM
 62
     7
 10
16.545907219234721
 20
1.726726372181332
 30
0.0
 40
0.0861538460965367
  1
R2-D2 BUILDERS CLUB
  0
ARC
  5
1252
  8
FORM
 10
0.7499999996674376
 20
0.7499999996674092
 30
0.0
 40
0.1538461537438154
 50
180.0
 51
270.0
  0
ARC
  5
1253
  8
FORM
 10
0.7499999996674376
 20
0.7499999996674092
 30
0.0
 40
0.3076923074876307
 50
180.0
 51
270.0
  0
ARC
  5
1254
  8
FORM
 10
0.7499999996674376
 20
0.7499999996674092
 30
0.0
 40
0.3461538459235846
 50
180.0
 51
270.0
  0
ARC
  5
1255
  8
FORM
 10
0.7499999996674376
 20
0.7499999996674092
 30
0.0
 40
0.4999999996674
 50
180.0
 51
270.0
  0
ARC
  5
1256
  8
FORM
 10
0.7499999996674376
 20
15.153846144098431
 30
0.0
 40
0.4999999996674
 50
90.0
 51
180.0
  0
ARC
  5
1257
  8
FORM
 10
0.7499999996674376
 20
15.153846144098431
 30
0.0
 40
0.3461538459235846
 50
90.0
 51
180.0
  0
ARC
  5
1258
  8
FORM
 10
0.7499999996674376
 20
15.153846144098431
 30
0.0
 40
0.3076923074876307
 50
90.0
 51
180.0
  0
ARC
  5
1259
  8
FORM
 10
0.7499999996674376
 20
15.153846144098431
 30
0.0
 40
0.1538461537438154
 50
90.0
 51
180.0
  0
ARC
  5
125A
  8
FORM
 10
21.249999986363441
 20
15.153846144098431
 30
0.0
 40
0.3076923074876307
 50
0.0
 51
90.0
  0
ARC
  5
125B
  8
FORM
 10
21.249999986363441
 20
15.153846144098431
 30
0.0
 40
0.3461538459235846
 50
0.0
 51
90.0
  0
ARC
  5
125C
  8
FORM
 10
21.249999986363441
 20
15.153846144098431
 30
0.0
 40
0.4999999996674
 50
0.0
 51
90.0
  0
ARC
  5
125D
  8
FORM
 10
21.249999986363441
 20
15.153846144098431
 30
0.0
 40
0.1538461537438154
 50
0.0
 51
90.0
  0
ARC
  5
125E
  8
FORM
 10
21.249999986363441
 20
0.7499999996674092
 30
0.0
 40
0.4999999996674
 50
270.0
 51
0.0
  0
ARC
  5
125F
  8
FORM
 10
21.249999986363441
 20
0.7499999996674092
 30
0.0
 40
0.3461538459235846
 50
270.0
 51
0.0
  0
ARC
  5
1260
  8
FORM
 10
21.249999986363441
 20
0.7499999996674092
 30
0.0
 40
0.3076923074876307
 50
270.0
 51
0.0
  0
ARC
  5
1261
  8
FORM
 10
21.249999986363441
 20
0.7499999996674092
 30
0.0
 40
0.1538461537438154
 50
270.0
 51
0.0
  0
LINE
  5
1262
  8
FORM
 10
21.249999986363441
 20
0.4423076921797886
 30
0.0
 11
0.7499999996674376
 21
0.442307692179778
 31
0.0
  0
LINE
  5
1263
  8
FORM
 10
21.249999986363441
 20
0.4038461537438352
 30
0.0
 11
0.7499999996674376
 21
0.4038461537438245
 31
0.0
  0
LINE
  5
1264
  8
FORM
 10
21.249999986363441
 20
0.2500000000000071
 30
0.0
 11
0.7499999996674376
 21
0.25
 31
0.0
  0
LINE
  5
1265
  8
FORM
 10
21.557692293851069
 20
0.7499999996674092
 30
0.0
 11
21.557692293851069
 21
15.153846144098431
 31
0.0
  0
LINE
  5
1266
  8
FORM
 10
21.59615383228704
 20
0.7499999996674092
 30
0.0
 11
21.59615383228704
 21
15.153846144098431
 31
0.0
  0
LINE
  5
1267
  8
FORM
 10
21.749999986030851
 20
0.7499999996674092
 30
0.0
 11
21.749999986030851
 21
15.153846144098431
 31
0.0
  0
LINE
  5
1268
  8
FORM
 10
21.249999986363441
 20
15.46153845158606
 30
0.0
 11
0.7499999996674376
 21
15.46153845158606
 31
0.0
  0
LINE
  5
1269
  8
FORM
 10
21.249999986363441
 20
15.499999990022021
 30
0.0
 11
0.7499999996674376
 21
15.499999990022021
 31
0.0
  0
LINE
  5
126A
  8
FORM
 10
21.249999986363441
 20
15.653846143765829
 30
0.0
 11
0.7499999996674376
 21
15.653846143765829
 31
0.0
  0
LINE
  5
126B
  8
FORM
 10
0.4423076921798029
 20
0.7499999996674092
 30
0.0
 11
0.4423076921798029
 21
15.153846144098431
 31
0.0
  0
LINE
  5
126C
  8
FORM
 10
0.4038461537438565
 20
0.7499999996674092
 30
0.0
 11
0.4038461537438565
 21
15.153846144098431
 31
0.0
  0
LINE
  5
126D
  8
FORM
 10
0.25
 20
0.7499999996674092
 30
0.0
 11
0.2500000000000426
 21
15.153846144098431
 31
0.0
  0
LINE
  5
126E
  8
FORM
  6
CONTINUOUS
 10
16.703251912464879
 20
0.7499999996674092
 30
0.0
 11
21.024913448051631
 21
0.7499999996674092
 31
0.0
  0
LINE
  5
126F
  8
FORM
  6
CONTINUOUS
 10
21.249999986363441
 20
3.1359173057725931
 30
0.0
 11
21.249999986363441
 21
0.9750865379792159
 31
0.0
  0
ARC
  5
1270
  8
FORM
  6
CONTINUOUS
 10
21.024913448051631
 20
0.9750865379792159
 30
0.0
 40
0.2250865383118096
 50
270.0
 51
0.0
  0
ARC
  5
1271
  8
FORM
  6
CONTINUOUS
 10
21.024913448051631
 20
3.1359173057725931
 30
0.0
 40
0.2250865383118096
 50
359.99999999999989
 51
90.0
  0
ARC
  5
1272
  8
FORM
  6
CONTINUOUS
 10
16.703251912464879
 20
0.9750865379792159
 30
0.0
 40
0.2250865383118096
 50
180.0
 51
270.0
  0
ARC
  5
1273
  8
FORM
  6
CONTINUOUS
 10
16.703251912464879
 20
3.1359173057725931
 30
0.0
 40
0.2250865383118096
 50
90.0
 51
180.0
  0
LINE
  5
13B8
  8
0
 10
0.7499999996674376
 20
0.7499999996674092
 30
0.0
 11
0.7499999996674376
 21
1.7499999996674089
 31
0.0
  0
LINE
  5
13B9
  8
0
 10
0.7499999996674376
 20
0.8749999996674091
 30
0.0
 11
0.8749999996674375
 21
0.8749999996674091
 31
0.0
  0
LINE
  5
13BA
  8
0
 10
0.7499999996674376
 20
0.9999999996674091
 30
0.0
 11
0.9999999996674375
 21
0.9999999996674091
 31
0.0
  0
LINE
  5
13BB
  8
0
 10
0.7499999996674376
 20
1.1249999996674089
 30
0.0
 11
0.8749999996674375
 21
1.1249999996674089
 31
0.0
  0
LINE
  5
13BC
  8
0
 10
0.7499999996674376
 20
1.2499999996674089
 30
0.0
 11
1.1249999996674369
 21
1.2499999996674089
 31
0.0
  0
LINE
  5
13BD
  8
0
 10
0.7499999996674376
 20
1.3749999996674089
 30
0.0
 11
0.8749999996674375
 21
1.3749999996674089
 31
0.0
  0
LINE
  5
13BE
  8
0
 10
0.7499999996674376
 20
1.4999999996674089
 30
0.0
 11
0.9999999996674375
 21
1.4999999996674089
 31
0.0
  0
LINE
  5
13BF
  8
0
 10
0.7499999996674376
 20
1.6249999996674089
 30
0.0
 11
0.8749999996674375
 21
1.6249999996674089
 31
0.0
  0
LINE
  5
13C0
  8
0
 10
0.7499999996674376
 20
1.7499999996674089
 30
0.0
 11
1.1249999996674369
 21
1.7499999996674089
 31
0.0
  0
LINE
  5
13C1
  8
0
 10
0.7499999996674376
 20
0.7499999996674092
 30
0.0
 11
1.1249999996674369
 21
0.7499999996674092
 31
0.0
  0
TEXT
  5
13C2
  8
0
 10
1.1742687732938739
 20
1.216959438666926
 30
0.0
 40
0.0625
  1
1/2"
  0
TEXT
  5
13C3
  8
0
 10
0.9242687732938748
 20
1.091959438666926
 30
0.0
 40
0.0625
  1
3/8"
  0
TEXT
  5
13C4
  8
0
 10
1.0492687732938739
 20
0.966959438666926
 30
0.0
 40
0.0625
  1
1/4"
  0
TEXT
  5
13C5
  8
0
 10
0.9242687732938748
 20
0.841959438666926
 30
0.0
 40
0.0625
  1
1/8"
  0
TEXT
  5
13C6
  8
0
 10
0.9242687732938748
 20
1.341959438666926
 30
0.0
 40
0.0625
  1
5/8"
  0
TEXT
  5
13C7
  8
0
 10
1.0492687732938739
 20
1.466959438666926
 30
0.0
 40
0.0625
  1
3/4"
  0
TEXT
  5
13C8
  8
0
 10
0.9242687732938748
 20
1.591959438666926
 30
0.0
 40
0.0625
  1
7/8"
  0
TEXT
  5
13C9
  8
0
 10
1.1742687732938739
 20
1.716959438666926
 30
0.0
 40
0.0625
  1
1"
  0
ENDSEC
  0
EOF
