  0
SECTION
  2
HEADER
  9
$ACADVER
  1
AC1009
  9
$INSBASE
 10
0.0
 20
0.0
 30
0.0
  9
$EXTMIN
 10
0.0
 20
0.0
 30
0.0
  9
$EXTMAX
 10
44.0
 20
34.0
 30
0.0
  9
$LIMMIN
 10
0.0
 20
0.0
  9
$LIMMAX
 10
12.0
 20
9.0
  9
$ORTHOMODE
 70
     1
  9
$REGENMODE
 70
     1
  9
$FILLMODE
 70
     1
  9
$QTEXTMODE
 70
     0
  9
$MIRRTEXT
 70
     1
  9
$DRAGMODE
 70
     2
  9
$LTSCALE
 40
1.0
  9
$OSMODE
 70
    39
  9
$ATTMODE
 70
     1
  9
$TEXTSIZE
 40
0.1875
  9
$TRACEWID
 40
0.05
  9
$TEXTSTYLE
  7
STANDARD
  9
$CLAYER
  8
DIMENSIONS
  9
$CELTYPE
  6
BYLAYER
  9
$CECOLOR
 62
   256
  9
$DIMSCALE
 40
1.0
  9
$DIMASZ
 40
0.25
  9
$DIMEXO
 40
0.0625
  9
$DIMDLI
 40
0.38
  9
$DIMRND
 40
0.0
  9
$DIMDLE
 40
0.0
  9
$DIMEXE
 40
0.0625
  9
$DIMTP
 40
0.0
  9
$DIMTM
 40
0.0
  9
$DIMTXT
 40
0.25
  9
$DIMCEN
 40
0.0
  9
$DIMTSZ
 40
0.0
  9
$DIMTOL
 70
     0
  9
$DIMLIM
 70
     0
  9
$DIMTIH
 70
     1
  9
$DIMTOH
 70
     1
  9
$DIMSE1
 70
     0
  9
$DIMSE2
 70
     0
  9
$DIMTAD
 70
     0
  9
$DIMZIN
 70
     0
  9
$DIMBLK
  1

  9
$DIMASO
 70
     1
  9
$DIMSHO
 70
     1
  9
$DIMPOST
  1

  9
$DIMAPOST
  1

  9
$DIMALT
 70
     0
  9
$DIMALTD
 70
     2
  9
$DIMALTF
 40
25.399999999999999
  9
$DIMLFAC
 40
1.0
  9
$DIMTOFL
 70
     0
  9
$DIMTVP
 40
0.0
  9
$DIMTIX
 70
     0
  9
$DIMSOXD
 70
     0
  9
$DIMSAH
 70
     0
  9
$DIMBLK1
  1

  9
$DIMBLK2
  1

  9
$DIMSTYLE
  2
STANDARD
  9
$DIMCLRD
 70
     0
  9
$DIMCLRE
 70
     0
  9
$DIMCLRT
 70
     0
  9
$DIMTFAC
 40
1.0
  9
$DIMGAP
 40
0.09
  9
$LUNITS
 70
     2
  9
$LUPREC
 70
     7
  9
$SKETCHINC
 40
0.1
  9
$FILLETRAD
 40
0.125
  9
$AUNITS
 70
     0
  9
$AUPREC
 70
     8
  9
$MENU
  1
.
  9
$ELEVATION
 40
0.0
  9
$PELEVATION
 40
0.0
  9
$THICKNESS
 40
0.0
  9
$LIMCHECK
 70
     0
  9
$BLIPMODE
 70
     0
  9
$CHAMFERA
 40
0.0
  9
$CHAMFERB
 40
0.0
  9
$SKPOLY
 70
     0
  9
$TDCREATE
 40
2453087.3875628472
  9
$TDUPDATE
 40
2453462.6485445602
  9
$TDINDWG
 40
0.1017492824
  9
$TDUSRTIMER
 40
0.1017492824
  9
$USRTIMER
 70
     1
  9
$ANGBASE
 50
0.0
  9
$ANGDIR
 70
     0
  9
$PDMODE
 70
     0
  9
$PDSIZE
 40
0.0
  9
$PLINEWID
 40
0.0
  9
$COORDS
 70
     0
  9
$SPLFRAME
 70
     0
  9
$SPLINETYPE
 70
     6
  9
$SPLINESEGS
 70
     8
  9
$ATTDIA
 70
     0
  9
$ATTREQ
 70
     1
  9
$HANDLING
 70
     1
  9
$HANDSEED
  5
10CA
  9
$SURFTAB1
 70
     6
  9
$SURFTAB2
 70
     6
  9
$SURFTYPE
 70
     6
  9
$SURFU
 70
     6
  9
$SURFV
 70
     6
  9
$UCSNAME
  2

  9
$UCSORG
 10
0.0
 20
0.0
 30
0.0
  9
$UCSXDIR
 10
1.0
 20
0.0
 30
0.0
  9
$UCSYDIR
 10
0.0
 20
1.0
 30
0.0
  9
$PUCSNAME
  2

  9
$PUCSORG
 10
0.0
 20
0.0
 30
0.0
  9
$PUCSXDIR
 10
1.0
 20
0.0
 30
0.0
  9
$PUCSYDIR
 10
0.0
 20
1.0
 30
0.0
  9
$USERI1
 70
     0
  9
$USERI2
 70
     0
  9
$USERI3
 70
     0
  9
$USERI4
 70
     0
  9
$USERI5
 70
     0
  9
$USERR1
 40
0.0
  9
$USERR2
 40
0.0
  9
$USERR3
 40
0.0
  9
$USERR4
 40
0.0
  9
$USERR5
 40
0.0
  9
$WORLDVIEW
 70
     1
  9
$SHADEDGE
 70
     3
  9
$SHADEDIF
 70
    70
  9
$TILEMODE
 70
     1
  9
$MAXACTVP
 70
    64
  9
$PLIMCHECK
 70
     0
  9
$PEXTMIN
 10
1.0000000000000000E+020
 20
1.0000000000000000E+020
 30
1.0000000000000000E+020
  9
$PEXTMAX
 10
-1.0000000000000000E+020
 20
-1.0000000000000000E+020
 30
-1.0000000000000000E+020
  9
$PLIMMIN
 10
0.0
 20
0.0
  9
$PLIMMAX
 10
12.0
 20
9.0
  9
$UNITMODE
 70
     0
  9
$VISRETAIN
 70
     1
  9
$PLINEGEN
 70
     0
  9
$PSLTSCALE
 70
     1
  0
ENDSEC
  0
SECTION
  2
TABLES
  0
TABLE
  2
VPORT
 70
     2
  0
VPORT
  2
*ACTIVE
 70
     0
 10
0.0
 20
0.0
 11
1.0
 21
1.0
 12
22.000952339249672
 22
16.998905811413191
 13
0.0
 23
0.0
 14
0.5
 24
0.5
 15
0.5
 25
0.5
 16
0.0
 26
0.0
 36
1.0
 17
0.0
 27
0.0
 37
0.0
 40
34.43697148563902
 41
2.1727078891257992
 42
50.0
 43
0.0
 44
0.0
 50
0.0
 51
0.0
 71
     0
 72
 20000
 73
     1
 74
     2
 75
     0
 76
     0
 77
     0
 78
     0
  0
ENDTAB
  0
TABLE
  2
LTYPE
 70
     3
  0
LTYPE
  2
CONTINUOUS
 70
     0
  3
Solid line
 72
    65
 73
     0
 40
0.0
  0
LTYPE
  2
CENTER
 70
     0
  3
Center ____ _ ____ _ ____ _ ____ _ ____ _ ____
 72
    65
 73
     4
 40
2.0
 49
1.25
 49
-0.25
 49
0.25
 49
-0.25
  0
LTYPE
  2
HIDDEN
 70
     0
  3
Hidden __ __ __ __ __ __ __ __ __ __ __ __ __ _
 72
    65
 73
     2
 40
0.375
 49
0.25
 49
-0.125
  0
ENDTAB
  0
TABLE
  2
LAYER
 70
     5
  0
LAYER
  2
0
 70
     0
 62
     7
  6
CONTINUOUS
  0
LAYER
  2
FORM
 70
     0
 62
     5
  6
CONTINUOUS
  0
LAYER
  2
SHOULDER_-_LEFT
 70
     0
 62
     7
  6
CONTINUOUS
  0
LAYER
  2
DIMENSIONS
 70
     0
 62
     1
  6
CONTINUOUS
  0
LAYER
  2
DEFPOINTS
 70
     0
 62
     7
  6
CONTINUOUS
  0
ENDTAB
  0
TABLE
  2
STYLE
 70
     1
  0
STYLE
  2
STANDARD
 70
     0
 40
0.0
 41
1.0
 50
0.0
 71
     0
 42
0.1875
  3
simplex.shx
  4

  0
ENDTAB
  0
TABLE
  2
VIEW
 70
     0
  0
ENDTAB
  0
TABLE
  2
UCS
 70
     0
  0
ENDTAB
  0
TABLE
  2
APPID
 70
     2
  0
APPID
  2
ACAD
 70
     0
  0
APPID
  2
DCO15
 70
     0
  0
ENDTAB
  0
TABLE
  2
DIMSTYLE
 70
     1
  0
DIMSTYLE
  2
STANDARD
 70
     0
  3

  4

  5

  6

  7

 40
1.0
 41
0.25
 42
0.0625
 43
0.38
 44
0.0625
 45
0.0
 46
0.0
 47
0.0
 48
0.0
140
0.25
141
0.0
142
0.0
143
25.399999999999999
144
1.0
145
0.0
146
1.0
147
0.09
 71
     0
 72
     0
 73
     1
 74
     1
 75
     0
 76
     0
 77
     0
 78
     0
170
     0
171
     2
172
     0
173
     0
174
     0
175
     0
176
     0
177
     0
178
     0
  0
ENDTAB
  0
ENDSEC
  0
SECTION
  2
BLOCKS
  0
BLOCK
  8
0
  2
$MODEL_SPACE
 70
     0
 10
0.0
 20
0.0
 30
0.0
  3
$MODEL_SPACE
  1

  0
ENDBLK
  5
21
  8
0
  0
BLOCK
 67
     1
  8
0
  2
$PAPER_SPACE
 70
     0
 10
0.0
 20
0.0
 30
0.0
  3
$PAPER_SPACE
  1

  0
ENDBLK
  5
1D
 67
     1
  8
0
  0
ENDSEC
  0
SECTION
  2
ENTITIES
  0
LINE
  5
2FA
  8
SHOULDER_-_LEFT
  6
CENTER
 10
30.144574338139559
 20
20.548426555753931
 30
0.0
 11
38.698349117537532
 21
20.548426555753931
 31
0.0
  0
LINE
  5
2FB
  8
SHOULDER_-_LEFT
 10
36.608961727838562
 20
14.035426555753929
 30
0.0
 11
38.43396172783855
 21
15.410662697191521
 31
0.0
  0
LINE
  5
2FC
  8
SHOULDER_-_LEFT
 10
36.671461727838562
 20
14.16078216252011
 30
0.0
 11
38.37146172783855
 21
15.44182404769486
 31
0.0
  0
ARC
  5
2FD
  8
SHOULDER_-_LEFT
 10
34.421461727838562
 20
20.548426555753931
 30
0.0
 40
4.0125000000000002
 50
0.0
 51
180.0
  0
ARC
  5
2FE
  8
SHOULDER_-_LEFT
 10
34.421461727838562
 20
20.548426555753931
 30
0.0
 40
3.9500000000000002
 50
0.0
 51
180.0
  0
LINE
  5
2FF
  8
SHOULDER_-_LEFT
  6
CENTER
 10
34.421461727838562
 20
24.825313945452908
 30
0.0
 11
34.421461727838562
 21
13.4714289914043
 31
0.0
  0
LINE
  5
300
  8
SHOULDER_-_LEFT
 10
30.408961727838548
 20
20.548426555753931
 30
0.0
 11
30.408961727838548
 21
15.410662697191521
 31
0.0
  0
ARC
  5
301
  8
SHOULDER_-_LEFT
 10
34.421461727838562
 20
20.548426555753931
 30
0.0
 40
1.6950000000000001
 50
323.28074698460358
 51
216.71925301539639
  0
ARC
  5
302
  8
SHOULDER_-_LEFT
 10
34.421461727838562
 20
20.548426555753931
 30
0.0
 40
1.7575000000000001
 50
325.30893240063961
 51
214.69106759936051
  0
LINE
  5
303
  8
SHOULDER_-_LEFT
 10
30.471461727838541
 20
20.548426555753931
 30
0.0
 11
30.471461727838541
 21
15.44182404769486
 31
0.0
  0
LINE
  5
304
  8
SHOULDER_-_LEFT
 10
32.233961727838562
 20
14.035426555753929
 30
0.0
 11
30.408961727838548
 21
15.410662697191521
 31
0.0
  0
LINE
  5
305
  8
SHOULDER_-_LEFT
 10
32.171461727838562
 20
14.160782162520119
 30
0.0
 11
30.471461727838541
 21
15.44182404769486
 31
0.0
  0
LINE
  5
306
  8
SHOULDER_-_LEFT
 10
36.671461727838562
 20
18.941587906257261
 30
0.0
 11
36.671461727838562
 21
14.16078216252011
 31
0.0
  0
LINE
  5
307
  8
SHOULDER_-_LEFT
 10
32.171461727838562
 20
18.941587906257269
 30
0.0
 11
32.171461727838562
 21
14.160782162520119
 31
0.0
  0
LINE
  5
308
  8
SHOULDER_-_LEFT
 10
36.608961727838562
 20
18.910426555753929
 30
0.0
 11
36.608961727838562
 21
14.035426555753929
 31
0.0
  0
LINE
  5
309
  8
SHOULDER_-_LEFT
 10
32.233961727838562
 20
18.910426555753929
 30
0.0
 11
32.233961727838562
 21
14.035426555753929
 31
0.0
  0
LINE
  5
30A
  8
SHOULDER_-_LEFT
 10
32.233961727838562
 20
18.910426555753929
 30
0.0
 11
33.062792475918599
 21
19.53499532281937
 31
0.0
  0
LINE
  5
30B
  8
SHOULDER_-_LEFT
 10
32.171461727838562
 20
18.941587906257269
 30
0.0
 11
32.976387614169617
 21
19.548143067934621
 31
0.0
  0
LINE
  5
30C
  8
SHOULDER_-_LEFT
 10
36.608961727838562
 20
18.910426555753929
 30
0.0
 11
35.780130979758503
 21
19.53499532281937
 31
0.0
  0
LINE
  5
30D
  8
SHOULDER_-_LEFT
 10
36.671461727838562
 20
18.941587906257261
 30
0.0
 11
35.866535841507471
 21
19.548143067934621
 31
0.0
  0
LINE
  5
30E
  8
SHOULDER_-_LEFT
 10
38.43396172783855
 20
20.548426555753931
 30
0.0
 11
38.43396172783855
 21
15.410662697191521
 31
0.0
  0
LINE
  5
30F
  8
SHOULDER_-_LEFT
 10
38.37146172783855
 20
20.548426555753931
 30
0.0
 11
38.37146172783855
 21
15.44182404769486
 31
0.0
  0
LINE
  5
312
  8
SHOULDER_-_LEFT
 10
10.90936127282356
 20
10.2163907064086
 30
0.0
 11
10.90936127282356
 21
9.3413907064085997
 31
0.0
  0
LINE
  5
313
  8
SHOULDER_-_LEFT
 10
18.934361272823558
 20
10.2163907064086
 30
0.0
 11
18.934361272823558
 21
9.3413907064085997
 31
0.0
  0
LINE
  5
314
  8
SHOULDER_-_LEFT
 10
12.73436127282355
 20
10.2163907064086
 30
0.0
 11
12.73436127282355
 21
10.0913907064086
 31
0.0
  0
LINE
  5
315
  8
SHOULDER_-_LEFT
 10
17.109361272823548
 20
10.2163907064086
 30
0.0
 11
17.109361272823548
 21
10.0913907064086
 31
0.0
  0
LINE
  5
316
  8
SHOULDER_-_LEFT
 10
10.90936127282356
 20
10.2163907064086
 30
0.0
 11
18.934361272823558
 21
10.2163907064086
 31
0.0
  0
LINE
  5
317
  8
SHOULDER_-_LEFT
 10
12.67186127282355
 20
10.0913907064086
 30
0.0
 11
17.171861272823548
 21
10.0913907064086
 31
0.0
  0
LINE
  5
318
  8
SHOULDER_-_LEFT
 10
12.67186127282355
 20
9.9663907064085997
 30
0.0
 11
17.171861272823548
 21
9.9663907064085997
 31
0.0
  0
LINE
  5
319
  8
SHOULDER_-_LEFT
 10
12.67186127282355
 20
9.8413907064085997
 30
0.0
 11
17.171861272823548
 21
9.8413907064085997
 31
0.0
  0
LINE
  5
31A
  8
SHOULDER_-_LEFT
 10
12.67186127282355
 20
9.7163907064085997
 30
0.0
 11
17.171861272823548
 21
9.7163907064085997
 31
0.0
  0
LINE
  5
31B
  8
SHOULDER_-_LEFT
 10
12.67186127282355
 20
9.5913907064085997
 30
0.0
 11
17.171861272823548
 21
9.5913907064085997
 31
0.0
  0
LINE
  5
31C
  8
SHOULDER_-_LEFT
 10
12.67186127282355
 20
9.4663907064085997
 30
0.0
 11
17.171861272823548
 21
9.4663907064085997
 31
0.0
  0
LINE
  5
31D
  8
SHOULDER_-_LEFT
 10
10.90936127282356
 20
9.3413907064085997
 30
0.0
 11
18.934361272823558
 21
9.3413907064085997
 31
0.0
  0
LINE
  5
31E
  8
SHOULDER_-_LEFT
 10
10.97186127282356
 20
9.2163907064085997
 30
0.0
 11
18.871861272823558
 21
9.2163907064085997
 31
0.0
  0
LINE
  5
31F
  8
SHOULDER_-_LEFT
 10
12.73436127282355
 20
9.9663907064085997
 30
0.0
 11
12.73436127282355
 21
9.8413907064085997
 31
0.0
  0
LINE
  5
320
  8
SHOULDER_-_LEFT
 10
12.73436127282355
 20
9.7163907064085997
 30
0.0
 11
12.73436127282355
 21
9.5913907064085997
 31
0.0
  0
LINE
  5
321
  8
SHOULDER_-_LEFT
 10
12.73436127282355
 20
9.4663907064085997
 30
0.0
 11
12.73436127282355
 21
9.3413907064085997
 31
0.0
  0
LINE
  5
323
  8
SHOULDER_-_LEFT
 10
17.109361272823548
 20
9.9663907064085997
 30
0.0
 11
17.109361272823548
 21
9.8413907064085997
 31
0.0
  0
LINE
  5
324
  8
SHOULDER_-_LEFT
 10
17.109361272823548
 20
9.7163907064085997
 30
0.0
 11
17.109361272823548
 21
9.5913907064085997
 31
0.0
  0
LINE
  5
325
  8
SHOULDER_-_LEFT
 10
17.109361272823548
 20
9.4663907064085997
 30
0.0
 11
17.109361272823548
 21
9.3413907064085997
 31
0.0
  0
LINE
  5
327
  8
SHOULDER_-_LEFT
 10
12.67186127282355
 20
10.0913907064086
 30
0.0
 11
12.67186127282355
 21
9.9663907064085997
 31
0.0
  0
LINE
  5
328
  8
SHOULDER_-_LEFT
 10
17.171861272823548
 20
10.0913907064086
 30
0.0
 11
17.171861272823548
 21
9.9663907064085997
 31
0.0
  0
LINE
  5
329
  8
SHOULDER_-_LEFT
 10
12.67186127282355
 20
9.8413907064085997
 30
0.0
 11
12.67186127282355
 21
9.7163907064085997
 31
0.0
  0
LINE
  5
32A
  8
SHOULDER_-_LEFT
 10
12.67186127282355
 20
9.5913907064085997
 30
0.0
 11
12.67186127282355
 21
9.4663907064085997
 31
0.0
  0
LINE
  5
32B
  8
SHOULDER_-_LEFT
 10
12.67186127282355
 20
9.3413907064085997
 30
0.0
 11
12.67186127282355
 21
9.2163907064085997
 31
0.0
  0
LINE
  5
32C
  8
SHOULDER_-_LEFT
 10
17.171861272823548
 20
9.8413907064085997
 30
0.0
 11
17.171861272823548
 21
9.7163907064085997
 31
0.0
  0
LINE
  5
32D
  8
SHOULDER_-_LEFT
 10
17.171861272823548
 20
9.5913907064085997
 30
0.0
 11
17.171861272823548
 21
9.4663907064085997
 31
0.0
  0
LINE
  5
32E
  8
SHOULDER_-_LEFT
 10
17.171861272823548
 20
9.3413907064085997
 30
0.0
 11
17.171861272823548
 21
9.2163907064085997
 31
0.0
  0
LINE
  5
32F
  8
SHOULDER_-_LEFT
 10
10.97186127282356
 20
9.3413907064085997
 30
0.0
 11
10.97186127282356
 21
9.2163907064085997
 31
0.0
  0
LINE
  5
330
  8
SHOULDER_-_LEFT
 10
18.871861272823558
 20
9.3413907064085997
 30
0.0
 11
18.871861272823558
 21
9.2163907064085997
 31
0.0
  0
LINE
  5
332
  8
SHOULDER_-_LEFT
 10
13.56319202090361
 20
10.2163907064086
 30
0.0
 11
13.56319202090361
 21
10.0913907064086
 31
0.0
  0
LINE
  5
333
  8
SHOULDER_-_LEFT
 10
13.47678715915464
 20
10.0913907064086
 30
0.0
 11
13.47678715915464
 21
9.9663907064085997
 31
0.0
  0
LINE
  5
334
  8
SHOULDER_-_LEFT
 10
13.56319202090361
 20
9.9663907064085997
 30
0.0
 11
13.56319202090361
 21
9.8413907064085997
 31
0.0
  0
LINE
  5
335
  8
SHOULDER_-_LEFT
 10
13.56319202090361
 20
9.7163907064085997
 30
0.0
 11
13.56319202090361
 21
9.5913907064085997
 31
0.0
  0
LINE
  5
336
  8
SHOULDER_-_LEFT
 10
13.56319202090361
 20
9.4663907064085997
 30
0.0
 11
13.56319202090361
 21
9.3413907064085997
 31
0.0
  0
LINE
  5
338
  8
SHOULDER_-_LEFT
 10
13.47678715915464
 20
9.8413907064085997
 30
0.0
 11
13.47678715915464
 21
9.7163907064085997
 31
0.0
  0
LINE
  5
339
  8
SHOULDER_-_LEFT
 10
13.47678715915464
 20
9.5913907064085997
 30
0.0
 11
13.47678715915464
 21
9.4663907064085997
 31
0.0
  0
LINE
  5
33A
  8
SHOULDER_-_LEFT
 10
13.47678715915464
 20
9.3413907064085997
 30
0.0
 11
13.47678715915464
 21
9.2163907064085997
 31
0.0
  0
LINE
  5
33B
  8
SHOULDER_-_LEFT
 10
16.366935386492479
 20
9.5913907064085997
 30
0.0
 11
16.366935386492479
 21
9.4663907064085997
 31
0.0
  0
LINE
  5
33C
  8
SHOULDER_-_LEFT
 10
16.366935386492479
 20
9.3413907064085997
 30
0.0
 11
16.366935386492479
 21
9.2163907064085997
 31
0.0
  0
LINE
  5
33D
  8
SHOULDER_-_LEFT
 10
16.280530524743511
 20
9.4663907064085997
 30
0.0
 11
16.280530524743511
 21
9.3413907064085997
 31
0.0
  0
LINE
  5
33E
  8
SHOULDER_-_LEFT
 10
16.366935386492479
 20
10.0913907064086
 30
0.0
 11
16.366935386492479
 21
9.9663907064085997
 31
0.0
  0
LINE
  5
33F
  8
SHOULDER_-_LEFT
 10
16.366935386492479
 20
9.8413907064085997
 30
0.0
 11
16.366935386492479
 21
9.7163907064085997
 31
0.0
  0
LINE
  5
340
  8
SHOULDER_-_LEFT
 10
16.280530524743511
 20
9.7163907064085997
 30
0.0
 11
16.280530524743511
 21
9.5913907064085997
 31
0.0
  0
LINE
  5
341
  8
SHOULDER_-_LEFT
 10
16.280530524743511
 20
9.9663907064085997
 30
0.0
 11
16.280530524743511
 21
9.8413907064085997
 31
0.0
  0
LINE
  5
342
  8
SHOULDER_-_LEFT
 10
16.280530524743511
 20
10.2163907064086
 30
0.0
 11
16.280530524743511
 21
10.0913907064086
 31
0.0
  0
TEXT
  5
3F4
  8
DIMENSIONS
 10
20.45817079663308
 20
17.94842655575393
 30
0.0
 40
0.25
  1
1.250
  0
TEXT
  5
403
  8
DIMENSIONS
 10
19.45817079663308
 20
19.79842655575392
 30
0.0
 40
0.25
  1
1.250
  0
TEXT
  5
404
  8
DIMENSIONS
 10
20.45817079663308
 20
19.49842655575393
 30
0.0
 40
0.25
  1
1.850
  0
TEXT
  5
41B
  8
DIMENSIONS
 10
9.4093612728235598
 20
17.95442655575393
 30
0.0
 40
0.25
  1
4.938
  0
TEXT
  5
448
  8
DIMENSIONS
 10
13.12786127282356
 20
25.43592655575392
 30
0.0
 40
0.25
  1
2.588
  0
TEXT
  5
449
  8
DIMENSIONS
 10
11.329362555345741
 20
25.43592655575392
 30
0.0
 40
0.25
  1
1.075
  0
TEXT
  5
45F
  8
DIMENSIONS
 10
15.67186127282355
 20
25.43592655575392
 30
0.0
 40
0.25
  1
2.500
  0
TEXT
  5
475
  8
DIMENSIONS
 10
17.576835991631182
 20
25.43592655575392
 30
0.0
 40
0.25
  1
1.250
  0
LINE
  5
495
  8
DIMENSIONS
 10
32.233961727838562
 20
13.972926555753929
 30
0.0
 11
32.233961727838562
 21
11.972926555753929
 31
0.0
  0
LINE
  5
496
  8
DIMENSIONS
 10
36.608961727838562
 20
13.972926555753929
 30
0.0
 11
36.608961727838562
 21
11.972926555753929
 31
0.0
  0
LINE
  5
497
  8
DIMENSIONS
 10
32.483961727838562
 20
12.035426555753929
 30
0.0
 11
33.831461727838558
 21
12.035426555753929
 31
0.0
  0
LINE
  5
498
  8
DIMENSIONS
 10
36.358961727838562
 20
12.035426555753929
 30
0.0
 11
35.011461727838537
 21
12.035426555753929
 31
0.0
  0
SOLID
  5
499
  8
DIMENSIONS
 10
32.483961727838562
 20
12.07709322242059
 30
0.0
 11
32.483961727838562
 21
11.99375988908726
 31
0.0
 12
32.233961727838562
 22
12.035426555753929
 32
0.0
 13
32.233961727838562
 23
12.035426555753929
 33
0.0
  0
SOLID
  5
49A
  8
DIMENSIONS
 10
36.358961727838562
 20
12.07709322242059
 30
0.0
 11
36.358961727838562
 21
11.99375988908726
 31
0.0
 12
36.608961727838562
 22
12.035426555753929
 32
0.0
 13
36.608961727838562
 23
12.035426555753929
 33
0.0
  0
LINE
  5
49C
  8
DIMENSIONS
 10
34.421461727838562
 20
13.4089289914043
 30
0.0
 11
34.421461727838562
 21
12.972926555753929
 31
0.0
  0
LINE
  5
49D
  8
DIMENSIONS
 10
32.233961727838562
 20
13.972926555753929
 30
0.0
 11
32.233961727838562
 21
12.972926555753929
 31
0.0
  0
LINE
  5
49E
  8
DIMENSIONS
 10
34.171461727838562
 20
13.035426555753929
 30
0.0
 11
33.893902204029018
 21
13.035426555753929
 31
0.0
  0
LINE
  5
49F
  8
DIMENSIONS
 10
32.483961727838562
 20
13.035426555753929
 30
0.0
 11
32.761521251648077
 21
13.035426555753929
 31
0.0
  0
SOLID
  5
4A0
  8
DIMENSIONS
 10
34.171461727838562
 20
13.07709322242059
 30
0.0
 11
34.171461727838562
 21
12.99375988908726
 31
0.0
 12
34.421461727838562
 22
13.035426555753929
 32
0.0
 13
34.421461727838562
 23
13.035426555753929
 33
0.0
  0
SOLID
  5
4A1
  8
DIMENSIONS
 10
32.483961727838562
 20
13.07709322242059
 30
0.0
 11
32.483961727838562
 21
12.99375988908726
 31
0.0
 12
32.233961727838562
 22
13.035426555753929
 32
0.0
 13
32.233961727838562
 23
13.035426555753929
 33
0.0
  0
TEXT
  5
4A3
  8
DIMENSIONS
 10
32.85152125164808
 20
12.910426555753929
 30
0.0
 40
0.25
  1
2.188
  0
TEXT
  5
4A4
  8
DIMENSIONS
 10
33.921461727838562
 20
11.910426555753929
 30
0.0
 40
0.25
  1
4.375
  0
LINE
  5
4CB
  8
DIMENSIONS
 10
30.408961727838548
 20
20.610926555753931
 30
0.0
 11
30.408961727838548
 21
25.62342655575392
 31
0.0
  0
LINE
  5
4CC
  8
DIMENSIONS
 10
34.421461727838562
 20
24.62342655575393
 30
0.0
 11
34.421461727838562
 21
25.62342655575392
 31
0.0
  0
LINE
  5
4CD
  8
DIMENSIONS
 10
30.658961727838548
 20
25.56092655575393
 30
0.0
 11
31.849021251648079
 21
25.56092655575393
 31
0.0
  0
LINE
  5
4CE
  8
DIMENSIONS
 10
34.171461727838562
 20
25.56092655575393
 30
0.0
 11
32.981402204029031
 21
25.56092655575393
 31
0.0
  0
SOLID
  5
4CF
  8
DIMENSIONS
 10
30.658961727838548
 20
25.602593222420591
 30
0.0
 11
30.658961727838548
 21
25.519259889087259
 31
0.0
 12
30.408961727838548
 22
25.56092655575393
 32
0.0
 13
30.408961727838548
 23
25.56092655575393
 33
0.0
  0
SOLID
  5
4D0
  8
DIMENSIONS
 10
34.171461727838562
 20
25.602593222420591
 30
0.0
 11
34.171461727838562
 21
25.519259889087259
 31
0.0
 12
34.421461727838562
 22
25.56092655575393
 32
0.0
 13
34.421461727838562
 23
25.56092655575393
 33
0.0
  0
TEXT
  5
4D2
  8
DIMENSIONS
 10
31.939021251648061
 20
25.43592655575392
 30
0.0
 40
0.25
  1
4.013
  0
LINE
  5
4E4
  8
DIMENSIONS
 10
32.171461727838562
 20
18.910426555753929
 30
0.0
 11
29.346461727838548
 21
18.910426555753929
 31
0.0
  0
LINE
  5
4E5
  8
DIMENSIONS
 10
30.082074338139559
 20
20.548426555753931
 30
0.0
 11
29.346461727838548
 21
20.548426555753931
 31
0.0
  0
LINE
  5
4E6
  8
DIMENSIONS
 10
29.408961727838548
 20
19.160426555753929
 30
0.0
 11
29.408961727838548
 21
19.514426555753928
 31
0.0
  0
LINE
  5
4E7
  8
DIMENSIONS
 10
29.408961727838548
 20
20.298426555753931
 30
0.0
 11
29.408961727838548
 21
19.944426555753932
 31
0.0
  0
SOLID
  5
4E8
  8
DIMENSIONS
 10
29.367295061171891
 20
19.160426555753929
 30
0.0
 11
29.450628394505198
 21
19.160426555753929
 31
0.0
 12
29.408961727838548
 22
18.910426555753929
 32
0.0
 13
29.408961727838548
 23
18.910426555753929
 33
0.0
  0
SOLID
  5
4E9
  8
DIMENSIONS
 10
29.367295061171891
 20
20.298426555753931
 30
0.0
 11
29.450628394505198
 21
20.298426555753931
 31
0.0
 12
29.408961727838548
 22
20.548426555753931
 32
0.0
 13
29.408961727838548
 23
20.548426555753931
 33
0.0
  0
TEXT
  5
4EB
  8
DIMENSIONS
 10
28.93277125164806
 20
19.604426555753928
 30
0.0
 40
0.25
  1
1.638
  0
LINE
  5
4FA
  8
DIMENSIONS
 10
32.171461727838562
 20
14.035426555753929
 30
0.0
 11
28.346461727838548
 21
14.035426555753929
 31
0.0
  0
LINE
  5
4FB
  8
DIMENSIONS
 10
30.082074338139559
 20
20.548426555753931
 30
0.0
 11
28.346461727838548
 21
20.548426555753931
 31
0.0
  0
LINE
  5
4FC
  8
DIMENSIONS
 10
28.408961727838548
 20
14.285426555753929
 30
0.0
 11
28.408961727838548
 21
17.076926555753928
 31
0.0
  0
LINE
  5
4FD
  8
DIMENSIONS
 10
28.408961727838548
 20
20.298426555753931
 30
0.0
 11
28.408961727838548
 21
17.506926555753932
 31
0.0
  0
SOLID
  5
4FE
  8
DIMENSIONS
 10
28.367295061171891
 20
14.285426555753929
 30
0.0
 11
28.450628394505198
 21
14.285426555753929
 31
0.0
 12
28.408961727838548
 22
14.035426555753929
 32
0.0
 13
28.408961727838548
 23
14.035426555753929
 33
0.0
  0
SOLID
  5
4FF
  8
DIMENSIONS
 10
28.367295061171891
 20
20.298426555753931
 30
0.0
 11
28.450628394505198
 21
20.298426555753931
 31
0.0
 12
28.408961727838548
 22
20.548426555753931
 32
0.0
 13
28.408961727838548
 23
20.548426555753931
 33
0.0
  0
TEXT
  5
501
  8
DIMENSIONS
 10
27.93277125164806
 20
17.166926555753928
 30
0.0
 40
0.25
  1
6.513
  0
LINE
  5
511
  8
DIMENSIONS
 10
30.35904700846061
 20
15.44827613613853
 30
0.0
 11
29.861353530671352
 21
15.82331507203634
 31
0.0
  0
ARC
  5
512
  8
DIMENSIONS
 10
32.233961727838562
 20
14.03542655575392
 30
0.0
 40
2.9083273265067868
 50
147.92666643168519
 51
156.96892540262331
  0
ARC
  5
513
  8
DIMENSIONS
 10
32.233961727838562
 20
14.03542655575392
 30
0.0
 40
2.9083273265067868
 50
165.91394197880851
 51
175.07333356831469
  0
SOLID
  5
514
  8
DIMENSIONS
 10
29.735211387644199
 20
15.603382977129019
 30
0.0
 11
29.803858349707301
 21
15.55613851667116
 31
0.0
 12
29.911268250049321
 22
15.78570163308934
 32
0.0
 13
29.911268250049321
 23
15.78570163308934
 33
0.0
  0
SOLID
  5
515
  8
DIMENSIONS
 10
29.378007573010031
 20
14.28340470398371
 30
0.0
 11
29.294751245385331
 21
14.286986373272351
 31
0.0
 12
29.325634401331769
 22
14.035426555753929
 32
0.0
 13
29.325634401331769
 23
14.035426555753929
 33
0.0
  0
TEXT
  5
517
  8
DIMENSIONS
 10
29.214021365124811
 20
14.8332523588047
 30
0.0
 40
0.25
  1
37°
  0
LINE
  5
528
  8
DIMENSIONS
 10
32.29646172783854
 20
18.910426555753929
 30
0.0
 11
34.048520088115538
 21
18.910426555753919
 31
0.0
  0
LINE
  5
529
  8
DIMENSIONS
 10
33.112707195296537
 20
19.572608761766372
 30
0.0
 11
33.683132469408953
 21
20.00245503735476
 31
0.0
  0
ARC
  5
52A
  8
DIMENSIONS
 10
32.23396172783854
 20
18.910426555753919
 30
0.0
 40
1.7520583602769799
 50
343.63510629057788
 51
351.81755314528903
  0
ARC
  5
52B
  8
DIMENSIONS
 10
32.23396172783854
 20
18.910426555753919
 30
0.0
 40
1.7520583602769799
 50
45.182446854710911
 51
53.364893709421928
  0
SOLID
  5
52C
  8
DIMENSIONS
 10
33.926623435791811
 20
18.664036318926549
 30
0.0
 11
34.009744412726292
 21
18.658090930974399
 31
0.0
 12
33.986020088115538
 22
18.910426555753919
 32
0.0
 13
33.986020088115538
 23
18.910426555753919
 33
0.0
  0
SOLID
  5
52D
  8
DIMENSIONS
 10
33.500305468248257
 20
20.180643443771551
 30
0.0
 11
33.437500128226617
 21
20.125871793173712
 31
0.0
 12
33.63321775003098
 22
19.964841598407752
 32
0.0
 13
33.63321775003098
 23
19.964841598407752
 33
0.0
  0
TEXT
  5
52F
  8
DIMENSIONS
 10
33.633575354286222
 20
19.341362831763281
 30
0.0
 40
0.25
  1
37°
  0
LINE
  5
53A
  8
DIMENSIONS
 10
34.421461727838562
 20
20.548426555753931
 30
0.0
 11
36.122432952947463
 21
25.56092655575393
 31
0.0
  0
SOLID
  5
53C
  8
DIMENSIONS
 10
35.591074738307498
 20
24.124758163260822
 30
0.0
 11
35.669988185282932
 21
24.097979210127779
 31
0.0
 12
35.71086832119434
 22
24.34810902762058
 32
0.0
 13
35.71086832119434
 23
24.34810902762058
 33
0.0
  0
TEXT
  5
53E
  8
DIMENSIONS
 10
36.524595652906442
 20
25.438098953895679
 30
0.0
 40
0.25
  1
R4.012
  0
LINE
  5
540
  8
DIMENSIONS
 10
36.122432952947463
 20
25.56092655575393
 30
0.0
 11
36.368094760589663
 21
25.56092655575393
 31
0.0
  0
TEXT
  5
551
  8
DIMENSIONS
 10
14.308766034728309
 20
20.423426555753931
 30
0.0
 40
0.25
  1
\U+22053.390
  0
LINE
  5
564
  8
DIMENSIONS
 10
18.934361272823558
 20
10.2788907064086
 30
0.0
 11
18.934361272823558
 21
11.2788907064086
 31
0.0
  0
LINE
  5
565
  8
DIMENSIONS
 10
10.90936127282356
 20
10.2788907064086
 30
0.0
 11
10.90936127282356
 21
11.2788907064086
 31
0.0
  0
LINE
  5
566
  8
DIMENSIONS
 10
18.684361272823558
 20
11.2163907064086
 30
0.0
 11
15.51186127282355
 21
11.2163907064086
 31
0.0
  0
LINE
  5
567
  8
DIMENSIONS
 10
11.15936127282356
 20
11.2163907064086
 30
0.0
 11
14.33186127282357
 21
11.2163907064086
 31
0.0
  0
SOLID
  5
568
  8
DIMENSIONS
 10
18.684361272823558
 20
11.25805737307526
 30
0.0
 11
18.684361272823558
 21
11.17472403974193
 31
0.0
 12
18.934361272823558
 22
11.2163907064086
 32
0.0
 13
18.934361272823558
 23
11.2163907064086
 33
0.0
  0
SOLID
  5
569
  8
DIMENSIONS
 10
11.15936127282356
 20
11.25805737307526
 30
0.0
 11
11.15936127282356
 21
11.17472403974193
 31
0.0
 12
10.90936127282356
 22
11.2163907064086
 32
0.0
 13
10.90936127282356
 23
11.2163907064086
 33
0.0
  0
TEXT
  5
56B
  8
DIMENSIONS
 10
14.42186127282355
 20
11.0913907064086
 30
0.0
 40
0.25
  1
8.025
  0
TEXT
  5
599
  8
DIMENSIONS
 10
6.4637457553056663
 20
25.42108193418122
 30
0.0
 40
0.25
  1
0.125
  0
TEXT
  5
5C6
  8
DIMENSIONS
 10
24.807486887153662
 20
12.90992149589874
 30
0.0
 40
0.25
  1
0.125 x 0.062 DEEP
  0
TEXT
  5
5C7
  8
DIMENSIONS
 10
24.816080335802191
 20
12.49325482923207
 30
0.0
 40
0.25
  1
TYPICAL 4-PLACES
  0
TEXT
  5
5C8
  8
DIMENSIONS
 10
24.20805438335427
 20
11.910426555753929
 30
0.0
 40
0.25
  1
0.125 TYPICAL
  0
LINE
  5
5D8
  8
DIMENSIONS
 10
10.84686127282356
 20
10.2163907064086
 30
0.0
 11
9.8468612728235598
 21
10.2163907064086
 31
0.0
  0
LINE
  5
5D9
  8
DIMENSIONS
 10
10.90936127282356
 20
9.2163907064085997
 30
0.0
 11
9.8468612728235598
 21
9.2163907064085997
 31
0.0
  0
LINE
  5
5DA
  8
DIMENSIONS
 10
9.9093612728235598
 20
10.4663907064086
 30
0.0
 11
9.9093612728235598
 21
10.7163907064086
 31
0.0
  0
LINE
  5
5DB
  8
DIMENSIONS
 10
9.9093612728235598
 20
8.9663907064085997
 30
0.0
 11
9.9093612728235598
 21
8.7163907064085997
 31
0.0
  0
SOLID
  5
5DC
  8
DIMENSIONS
 10
9.8676946061569026
 20
10.4663907064086
 30
0.0
 11
9.951027939490217
 21
10.4663907064086
 31
0.0
 12
9.9093612728235598
 22
10.2163907064086
 32
0.0
 13
9.9093612728235598
 23
10.2163907064086
 33
0.0
  0
SOLID
  5
5DD
  8
DIMENSIONS
 10
9.8676946061569026
 20
8.9663907064085997
 30
0.0
 11
9.951027939490217
 21
8.9663907064085997
 31
0.0
 12
9.9093612728235598
 22
9.2163907064085997
 32
0.0
 13
9.9093612728235598
 23
9.2163907064085997
 33
0.0
  0
TEXT
  5
5DF
  8
DIMENSIONS
 10
9.4331707966330782
 20
9.5913907064085997
 30
0.0
 40
0.25
  1
1.000
  0
TEXT
  5
625
  8
DIMENSIONS
 10
24.698704311630991
 20
21.423426555753931
 30
0.0
 40
0.25
  1
0.650
  0
TEXT
  5
62D
  8
DIMENSIONS
 10
24.75205684744958
 20
16.32342655575393
 30
0.0
 40
0.25
  1
0.650
  0
TEXT
  5
643
  8
DIMENSIONS
 10
24.70117212416184
 20
18.881177521149191
 30
0.0
 40
0.25
  1
0.562
  0
TEXT
  5
65A
  8
DIMENSIONS
 10
7.3311560321680806
 20
21.423426555753931
 30
0.0
 40
0.25
  1
0.650
  0
LINE
  5
6FA
  8
DIMENSIONS
 10
14.67186127282355
 20
25.56092655575393
 30
0.0
 11
14.217861272823569
 21
25.56092655575393
 31
0.0
  0
ARC
  5
6FB
  8
SHOULDER_-_LEFT
 10
14.92186127282355
 20
20.548426555753931
 30
0.0
 40
4.0125000000000002
 50
0.000000000000007
 51
180.0
  0
ARC
  5
6FC
  8
SHOULDER_-_LEFT
 10
14.92186127282355
 20
20.548426555753931
 30
0.0
 40
1.6950000000000001
 50
323.28074698460358
 51
216.7192530153963
  0
ARC
  5
6FD
  8
SHOULDER_-_LEFT
  6
HIDDEN
 10
14.92186127282355
 20
20.548426555753931
 30
0.0
 40
1.7575000000000001
 50
325.30893240063961
 51
214.69106759936051
  0
LINE
  5
725
  8
SHOULDER_-_LEFT
 10
17.109361272823548
 20
18.910426555753929
 30
0.0
 11
16.280530524743511
 21
19.53499532281937
 31
0.0
  0
LINE
  5
726
  8
SHOULDER_-_LEFT
  6
HIDDEN
 10
17.171861272823548
 20
18.941587906257269
 30
0.0
 11
16.366935386492479
 21
19.548143067934621
 31
0.0
  0
LINE
  5
727
  8
DIMENSIONS
 10
23.423820937426878
 20
19.23567655575393
 30
0.0
 11
23.423820937426878
 21
18.943677521149191
 31
0.0
  0
SOLID
  5
728
  8
DIMENSIONS
 10
23.173820937426878
 20
19.047844187815858
 30
0.0
 11
23.173820937426878
 21
18.964510854482519
 31
0.0
 12
23.423820937426878
 22
19.006177521149191
 32
0.0
 13
23.423820937426878
 23
19.006177521149191
 33
0.0
  0
LINE
  5
729
  8
DIMENSIONS
 10
20.934361272823569
 20
18.94842655575393
 30
0.0
 11
20.934361272823569
 21
19.40842655575393
 31
0.0
  0
LINE
  5
72A
  8
DIMENSIONS
 10
23.98582093742689
 20
19.235926555753931
 30
0.0
 11
23.98582093742689
 21
18.943677521149191
 31
0.0
  0
LINE
  5
72B
  8
SHOULDER_-_LEFT
 10
24.180166361099481
 20
18.823287290876191
 30
0.0
 11
23.70502709622173
 21
19.298426555753931
 31
0.0
  0
SOLID
  5
72C
  8
DIMENSIONS
 10
24.235820937426901
 20
19.047844187815858
 30
0.0
 11
24.235820937426901
 21
18.964510854482519
 31
0.0
 12
23.98582093742689
 22
19.006177521149191
 32
0.0
 13
23.98582093742689
 23
19.006177521149191
 33
0.0
  0
LINE
  5
72D
  8
SHOULDER_-_LEFT
 10
23.984203675993061
 20
19.12036946522343
 30
0.0
 11
24.183280126898641
 21
18.891707299351101
 31
0.0
  0
LINE
  5
72F
  8
SHOULDER_-_LEFT
 10
24.039862053276781
 20
18.69842655575393
 30
0.0
 11
23.43986205327678
 21
19.298426555753931
 31
0.0
  0
LINE
  5
730
  8
SHOULDER_-_LEFT
 10
23.774697010331838
 20
18.69842655575393
 30
0.0
 11
23.423820937426878
 21
19.049302628658872
 31
0.0
  0
LINE
  5
731
  8
SHOULDER_-_LEFT
 10
18.934361272823558
 20
20.548426555753931
 30
0.0
 11
18.934361272823558
 21
15.410662697191521
 31
0.0
  0
LINE
  5
732
  8
SHOULDER_-_LEFT
  6
CENTER
 10
14.92186127282355
 20
19.756414405472871
 30
0.0
 11
14.92186127282355
 21
13.4714289914043
 31
0.0
  0
LINE
  5
733
  8
SHOULDER_-_LEFT
 10
23.423820937426878
 20
14.035426555753929
 30
0.0
 11
23.423820937426878
 21
24.56092655575393
 31
0.0
  0
LINE
  5
734
  8
SHOULDER_-_LEFT
 10
24.298820937426878
 20
14.035426555753929
 30
0.0
 11
24.298820937426878
 21
24.56092655575393
 31
0.0
  0
LINE
  5
735
  8
SHOULDER_-_LEFT
 10
24.423820937426878
 20
14.08252368388535
 30
0.0
 11
24.423820937426878
 21
24.49842655575393
 31
0.0
  0
LINE
  5
736
  8
DIMENSIONS
 10
18.734361272823548
 20
18.69842655575393
 30
0.0
 11
20.996861272823569
 21
18.69842655575393
 31
0.0
  0
LINE
  5
737
  8
DIMENSIONS
 10
18.734361272823548
 20
17.44842655575393
 30
0.0
 11
20.996861272823569
 21
17.44842655575393
 31
0.0
  0
LINE
  5
738
  8
DIMENSIONS
 10
18.734361272823548
 20
18.69842655575393
 30
0.0
 11
20.996861272823569
 21
18.69842655575393
 31
0.0
  0
LINE
  5
739
  8
SHOULDER_-_LEFT
 10
24.048820937426878
 20
14.08252368388535
 30
0.0
 11
24.173820937426878
 21
14.08252368388535
 31
0.0
  0
LINE
  5
73A
  8
SHOULDER_-_LEFT
 10
24.298820937426878
 20
14.08252368388535
 30
0.0
 11
24.423820937426878
 21
14.08252368388535
 31
0.0
  0
LINE
  5
73B
  8
SHOULDER_-_LEFT
 10
24.173820937426878
 20
14.035426555753929
 30
0.0
 11
24.173820937426878
 21
14.08252368388535
 31
0.0
  0
LINE
  5
73C
  8
SHOULDER_-_LEFT
 10
24.173820937426878
 20
14.035426555753929
 30
0.0
 11
24.298820937426878
 21
14.035426555753929
 31
0.0
  0
LINE
  5
73D
  8
SHOULDER_-_LEFT
 10
23.673820937426878
 20
14.035426555753929
 30
0.0
 11
23.798820937426878
 21
14.035426555753929
 31
0.0
  0
LINE
  5
73E
  8
SHOULDER_-_LEFT
 10
23.798820937426878
 20
14.08252368388535
 30
0.0
 11
23.923820937426878
 21
14.08252368388535
 31
0.0
  0
LINE
  5
73F
  8
SHOULDER_-_LEFT
 10
23.923820937426878
 20
14.035426555753929
 30
0.0
 11
24.048820937426878
 21
14.035426555753929
 31
0.0
  0
LINE
  5
740
  8
SHOULDER_-_LEFT
 10
23.798820937426878
 20
14.035426555753929
 30
0.0
 11
23.798820937426878
 21
14.08252368388535
 31
0.0
  0
LINE
  5
741
  8
SHOULDER_-_LEFT
 10
23.923820937426878
 20
14.035426555753929
 30
0.0
 11
23.923820937426878
 21
14.08252368388535
 31
0.0
  0
LINE
  5
742
  8
SHOULDER_-_LEFT
 10
24.048820937426878
 20
14.035426555753929
 30
0.0
 11
24.048820937426878
 21
14.08252368388535
 31
0.0
  0
LINE
  5
743
  8
SHOULDER_-_LEFT
 10
23.548820937426878
 20
14.08252368388535
 30
0.0
 11
23.673820937426878
 21
14.08252368388535
 31
0.0
  0
LINE
  5
744
  8
SHOULDER_-_LEFT
 10
23.548820937426878
 20
14.035426555753929
 30
0.0
 11
23.548820937426878
 21
14.08252368388535
 31
0.0
  0
LINE
  5
745
  8
SHOULDER_-_LEFT
 10
23.673820937426878
 20
14.035426555753929
 30
0.0
 11
23.673820937426878
 21
14.08252368388535
 31
0.0
  0
LINE
  5
746
  8
SHOULDER_-_LEFT
 10
23.423820937426878
 20
14.035426555753929
 30
0.0
 11
23.548820937426878
 21
14.035426555753929
 31
0.0
  0
SOLID
  5
747
  8
DIMENSIONS
 10
23.173820937426878
 20
16.490093222420601
 30
0.0
 11
23.173820937426878
 21
16.406759889087262
 31
0.0
 12
23.423820937426878
 22
16.44842655575393
 32
0.0
 13
23.423820937426878
 23
16.44842655575393
 33
0.0
  0
LINE
  5
748
  8
DIMENSIONS
 10
23.423820937426878
 20
17.38592655575393
 30
0.0
 11
23.423820937426878
 21
16.38592655575393
 31
0.0
  0
LINE
  5
749
  8
SHOULDER_-_LEFT
 10
23.715450450167619
 20
17.032584143432199
 30
0.0
 11
23.52632787311595
 21
17.211537173936321
 31
0.0
  0
LINE
  5
74A
  8
SHOULDER_-_LEFT
 10
24.12355711181354
 20
17.102176994309929
 30
0.0
 11
23.914526901073231
 21
17.211537173936321
 31
0.0
  0
LINE
  5
74B
  8
SHOULDER_-_LEFT
 10
23.914526901073231
 20
17.211537173936321
 30
0.0
 11
23.715450450167619
 21
17.032584143432199
 31
0.0
  0
LINE
  5
74C
  8
DIMENSIONS
 10
24.073820937426891
 20
17.38592655575393
 30
0.0
 11
24.073820937426891
 21
16.38592655575393
 31
0.0
  0
LINE
  5
74D
  8
SHOULDER_-_LEFT
 10
24.243003027964559
 20
17.499850384066821
 30
0.0
 11
24.12355711181354
 21
17.102176994309929
 31
0.0
  0
LINE
  5
74E
  8
SHOULDER_-_LEFT
 10
23.786069006469258
 20
17.096064301946761
 30
0.0
 11
23.43370675266209
 21
17.44842655575393
 31
0.0
  0
LINE
  5
750
  8
SHOULDER_-_LEFT
 10
23.423820937426878
 20
15.410662697191521
 30
0.0
 11
24.298820937426878
 21
15.410662697191521
 31
0.0
  0
LINE
  5
751
  8
SHOULDER_-_LEFT
 10
24.423820937426878
 20
15.44182404769486
 30
0.0
 11
24.298820937426878
 21
15.44182404769486
 31
0.0
  0
SOLID
  5
752
  8
DIMENSIONS
 10
24.323820937426891
 20
16.490093222420601
 30
0.0
 11
24.323820937426891
 21
16.406759889087262
 31
0.0
 12
24.073820937426891
 22
16.44842655575393
 32
0.0
 13
24.073820937426891
 23
16.44842655575393
 33
0.0
  0
LINE
  5
753
  8
DIMENSIONS
 10
24.323820937426891
 20
16.44842655575393
 30
0.0
 11
24.573820937426891
 21
16.44842655575393
 31
0.0
  0
LINE
  5
754
  8
SHOULDER_-_LEFT
 10
24.143464745502168
 20
18.225604312702849
 30
0.0
 11
24.243003027964559
 21
17.97705848245619
 31
0.0
  0
LINE
  5
755
  8
SHOULDER_-_LEFT
 10
24.238460989429939
 20
17.969497533710872
 30
0.0
 11
24.073820937426891
 21
18.134137585713919
 31
0.0
  0
LINE
  5
756
  8
SHOULDER_-_LEFT
 10
24.073820937426891
 20
17.44842655575393
 30
0.0
 11
24.073820937426891
 21
18.69842655575393
 31
0.0
  0
LINE
  5
757
  8
SHOULDER_-_LEFT
 10
24.16790112696799
 20
17.774892353227852
 30
0.0
 11
24.073820937426891
 21
17.868972542768962
 31
0.0
  0
LINE
  5
758
  8
SHOULDER_-_LEFT
 10
24.227937149008621
 20
17.449691288242271
 30
0.0
 11
24.073820937426891
 21
17.603807499824011
 31
0.0
  0
LINE
  5
759
  8
SHOULDER_-_LEFT
 10
24.166688456252562
 20
17.24577493805338
 30
0.0
 11
23.964036838552008
 21
17.44842655575393
 31
0.0
  0
LINE
  5
75A
  8
SHOULDER_-_LEFT
 10
24.153418619356071
 20
17.82793092294596
 30
0.0
 11
24.243003027964559
 21
17.499850384066821
 31
0.0
  0
LINE
  5
75B
  8
SHOULDER_-_LEFT
 10
24.243003027964559
 20
17.97705848245619
 30
0.0
 11
24.153418619356071
 21
17.82793092294596
 31
0.0
  0
LINE
  5
75C
  8
SHOULDER_-_LEFT
 10
23.423820937426878
 20
17.44842655575393
 30
0.0
 11
24.073820937426891
 21
17.44842655575393
 31
0.0
  0
LINE
  5
75D
  8
SHOULDER_-_LEFT
 10
23.959059898716081
 20
17.18823845264491
 30
0.0
 11
23.698871795607062
 21
17.44842655575393
 31
0.0
  0
LINE
  5
75E
  8
SHOULDER_-_LEFT
 10
23.45825136973815
 20
17.15871689573293
 30
0.0
 11
23.423820937426878
 21
17.19314732804418
 31
0.0
  0
LINE
  5
75F
  8
SHOULDER_-_LEFT
 10
23.52632787311595
 20
17.211537173936321
 30
0.0
 11
23.423820937426878
 21
17.132002465303831
 31
0.0
  0
LINE
  5
760
  8
SHOULDER_-_LEFT
 10
24.2610402524592
 20
18.477248356571518
 30
0.0
 11
24.073820937426891
 21
18.66446767160383
 31
0.0
  0
LINE
  5
761
  8
SHOULDER_-_LEFT
 10
24.176600210533419
 20
18.296523355552321
 30
0.0
 11
24.073820937426891
 21
18.39930262865888
 31
0.0
  0
LINE
  5
762
  8
SHOULDER_-_LEFT
 10
24.173326253044738
 20
18.672986888963141
 30
0.0
 11
24.282818295341851
 21
18.52385938058811
 31
0.0
  0
LINE
  5
763
  8
SHOULDER_-_LEFT
 10
24.282818295341851
 20
18.52385938058811
 30
0.0
 11
24.143464745502168
 21
18.225604312702849
 31
0.0
  0
LINE
  5
764
  8
DIMENSIONS
 10
24.235820937426901
 20
19.006177521149191
 30
0.0
 11
24.485820937426901
 21
19.006177521149191
 31
0.0
  0
LINE
  5
765
  8
SHOULDER_-_LEFT
 10
24.183280126898641
 20
18.891707299351101
 30
0.0
 11
24.173326253044738
 21
18.672986888963141
 31
0.0
  0
LINE
  5
766
  8
SHOULDER_-_LEFT
 10
23.423820937426878
 20
18.69842655575393
 30
0.0
 11
24.073820937426891
 21
18.69842655575393
 31
0.0
  0
LINE
  5
767
  8
SHOULDER_-_LEFT
 10
23.509531967386859
 20
18.69842655575393
 30
0.0
 11
23.423820937426878
 21
18.784137585713921
 31
0.0
  0
LINE
  5
768
  8
DIMENSIONS
 10
23.173820937426878
 20
16.44842655575393
 30
0.0
 11
22.923820937426878
 21
16.44842655575393
 31
0.0
  0
LINE
  5
76A
  8
DIMENSIONS
 10
23.173820937426878
 20
19.006177521149191
 30
0.0
 11
22.923820937426878
 21
19.006177521149191
 31
0.0
  0
SOLID
  5
76B
  8
DIMENSIONS
 10
20.976027939490219
 20
17.69842655575393
 30
0.0
 11
20.892694606156908
 21
17.69842655575393
 31
0.0
 12
20.934361272823569
 22
17.44842655575393
 32
0.0
 13
20.934361272823569
 23
17.44842655575393
 33
0.0
  0
LINE
  5
76C
  8
DIMENSIONS
 10
20.934361272823569
 20
17.69842655575393
 30
0.0
 11
20.934361272823569
 21
17.85842655575393
 31
0.0
  0
SOLID
  5
76D
  8
DIMENSIONS
 10
20.976027939490219
 20
18.44842655575393
 30
0.0
 11
20.892694606156908
 21
18.44842655575393
 31
0.0
 12
20.934361272823569
 22
18.69842655575393
 32
0.0
 13
20.934361272823569
 23
18.69842655575393
 33
0.0
  0
LINE
  5
76E
  8
DIMENSIONS
 10
20.934361272823569
 20
18.44842655575393
 30
0.0
 11
20.934361272823569
 21
18.288426555753929
 31
0.0
  0
SOLID
  5
76F
  8
DIMENSIONS
 10
20.976027939490219
 20
18.94842655575393
 30
0.0
 11
20.892694606156908
 21
18.94842655575393
 31
0.0
 12
20.934361272823569
 22
18.69842655575393
 32
0.0
 13
20.934361272823569
 23
18.69842655575393
 33
0.0
  0
LINE
  5
770
  8
SHOULDER_-_LEFT
 10
17.109361272823548
 20
14.035426555753929
 30
0.0
 11
18.934361272823558
 21
15.410662697191521
 31
0.0
  0
LINE
  5
771
  8
SHOULDER_-_LEFT
 10
17.109361272823548
 20
18.910426555753929
 30
0.0
 11
17.109361272823548
 21
14.035426555753929
 31
0.0
  0
LINE
  5
772
  8
SHOULDER_-_LEFT
  6
HIDDEN
 10
17.171861272823548
 20
18.941587906257269
 30
0.0
 11
17.171861272823548
 21
14.08252368388535
 31
0.0
  0
LINE
  5
773
  8
SHOULDER_-_LEFT
 10
17.421861272823548
 20
18.57342655575393
 30
0.0
 11
17.421861272823548
 21
17.57342655575393
 31
0.0
  0
LINE
  5
774
  8
SHOULDER_-_LEFT
 10
18.671861272823548
 20
18.57342655575393
 30
0.0
 11
18.671861272823548
 21
17.57342655575393
 31
0.0
  0
LINE
  5
775
  8
SHOULDER_-_LEFT
 10
18.546861272823548
 20
17.44842655575393
 30
0.0
 11
17.546861272823548
 21
17.44842655575393
 31
0.0
  0
LINE
  5
776
  8
SHOULDER_-_LEFT
 10
18.546861272823548
 20
18.69842655575393
 30
0.0
 11
17.546861272823548
 21
18.69842655575393
 31
0.0
  0
LINE
  5
777
  8
DIMENSIONS
 10
18.734361272823548
 20
20.548426555753931
 30
0.0
 11
20.996861272823569
 21
20.548426555753931
 31
0.0
  0
SOLID
  5
779
  8
DIMENSIONS
 10
23.173820937426878
 20
21.590093222420592
 30
0.0
 11
23.173820937426878
 21
21.50675988908727
 31
0.0
 12
23.423820937426878
 22
21.548426555753931
 32
0.0
 13
23.423820937426878
 23
21.548426555753931
 33
0.0
  0
LINE
  5
77A
  8
DIMENSIONS
 10
24.073820937426891
 20
20.610926555753931
 30
0.0
 11
24.073820937426891
 21
21.610926555753931
 31
0.0
  0
LINE
  5
77B
  8
DIMENSIONS
 10
23.423820937426878
 20
20.610926555753931
 30
0.0
 11
23.423820937426878
 21
21.610926555753931
 31
0.0
  0
LINE
  5
77C
  8
SHOULDER_-_LEFT
 10
24.11360335197881
 20
20.015134617744021
 30
0.0
 11
24.203187760587269
 21
19.84612344499466
 31
0.0
  0
LINE
  5
77D
  8
SHOULDER_-_LEFT
 10
24.186492081123589
 20
19.877621742631899
 30
0.0
 11
24.037112594445261
 21
20.02700122931024
 31
0.0
  0
LINE
  5
77E
  8
SHOULDER_-_LEFT
 10
24.073820937426891
 20
20.548426555753931
 30
0.0
 11
23.98582093742689
 21
19.298426555753931
 31
0.0
  0
LINE
  5
77F
  8
SHOULDER_-_LEFT
 10
24.130652361527702
 20
19.668296419282839
 30
0.0
 11
24.019672741097601
 21
19.779276039712929
 31
0.0
  0
LINE
  5
780
  8
SHOULDER_-_LEFT
 10
24.19323388673337
 20
19.339089875611389
 30
0.0
 11
23.984203675993061
 21
19.12036946522343
 31
0.0
  0
LINE
  5
781
  8
SHOULDER_-_LEFT
 10
24.192188890539882
 20
19.341594847325698
 30
0.0
 11
24.002232887749951
 21
19.531550850115629
 31
0.0
  0
LINE
  5
782
  8
SHOULDER_-_LEFT
 10
24.093695718290149
 20
19.577693899238479
 30
0.0
 11
24.19323388673337
 21
19.339089875611389
 31
0.0
  0
LINE
  5
783
  8
SHOULDER_-_LEFT
 10
24.203187760587269
 20
19.84612344499466
 30
0.0
 11
24.093695718290149
 21
19.577693899238479
 31
0.0
  0
LINE
  5
784
  8
SHOULDER_-_LEFT
 10
23.423820937426878
 20
19.298426555753931
 30
0.0
 11
23.98582093742689
 21
19.298426555753931
 31
0.0
  0
LINE
  5
785
  8
SHOULDER_-_LEFT
 10
24.0643683209241
 20
19.204250373996508
 30
0.0
 11
23.970192139166699
 21
19.298426555753931
 31
0.0
  0
LINE
  5
786
  8
SHOULDER_-_LEFT
 10
24.043926577058979
 20
20.80053959063822
 30
0.0
 11
24.22309539427593
 21
20.532110044882039
 31
0.0
  0
LINE
  5
787
  8
SHOULDER_-_LEFT
 10
24.1949979924986
 20
20.399445917146799
 30
0.0
 11
24.07199230114054
 21
20.522451608504849
 31
0.0
  0
LINE
  5
788
  8
SHOULDER_-_LEFT
 10
24.148653268288061
 20
20.18062559841238
 30
0.0
 11
24.054552447792901
 21
20.274726418907552
 31
0.0
  0
LINE
  5
789
  8
SHOULDER_-_LEFT
 10
24.22309539427593
 20
20.532110044882039
 30
0.0
 11
24.11360335197881
 21
20.015134617744021
 31
0.0
  0
LINE
  5
78A
  8
SHOULDER_-_LEFT
 10
23.7808523109465
 20
20.548426555753931
 30
0.0
 11
23.561691317741751
 21
20.767587548958701
 31
0.0
  0
LINE
  5
78B
  8
SHOULDER_-_LEFT
 10
23.725404324021529
 20
20.68123755325708
 30
0.0
 11
24.043926577058979
 21
20.80053959063822
 31
0.0
  0
LINE
  5
78C
  8
SHOULDER_-_LEFT
 10
23.423820937426878
 20
20.548426555753931
 30
0.0
 11
24.073820937426891
 21
20.548426555753931
 31
0.0
  0
LINE
  5
78D
  8
SHOULDER_-_LEFT
 10
24.046017353891472
 20
20.548426555753931
 30
0.0
 11
23.86203248235714
 21
20.73241142728827
 31
0.0
  0
LINE
  5
78E
  8
SHOULDER_-_LEFT
 10
23.423820937426878
 20
20.840306919386869
 30
0.0
 11
23.725404324021529
 21
20.68123755325708
 31
0.0
  0
LINE
  5
78F
  8
SHOULDER_-_LEFT
 10
23.51568726800156
 20
20.548426555753931
 30
0.0
 11
23.423820937426878
 21
20.640292886328609
 31
0.0
  0
SOLID
  5
791
  8
DIMENSIONS
 10
24.323820937426891
 20
21.590093222420592
 30
0.0
 11
24.323820937426891
 21
21.50675988908727
 31
0.0
 12
24.073820937426891
 22
21.548426555753931
 32
0.0
 13
24.073820937426891
 23
21.548426555753931
 33
0.0
  0
LINE
  5
792
  8
DIMENSIONS
 10
24.323820937426891
 20
21.548426555753931
 30
0.0
 11
24.573820937426891
 21
21.548426555753931
 31
0.0
  0
LINE
  5
794
  8
DIMENSIONS
 10
20.934361272823569
 20
20.298426555753931
 30
0.0
 11
20.934361272823569
 21
19.83842655575393
 31
0.0
  0
SOLID
  5
795
  8
DIMENSIONS
 10
20.976027939490219
 20
20.298426555753931
 30
0.0
 11
20.892694606156908
 21
20.298426555753931
 31
0.0
 12
20.934361272823569
 22
20.548426555753931
 32
0.0
 13
20.934361272823569
 23
20.548426555753931
 33
0.0
  0
LINE
  5
796
  8
DIMENSIONS
 10
23.173820937426878
 20
21.548426555753931
 30
0.0
 11
22.923820937426878
 21
21.548426555753931
 31
0.0
  0
LINE
  5
797
  8
SHOULDER_-_LEFT
 10
23.423820937426878
 20
24.56092655575393
 30
0.0
 11
24.298820937426878
 21
24.56092655575393
 31
0.0
  0
LINE
  5
798
  8
SHOULDER_-_LEFT
 10
24.423820937426878
 20
24.49842655575393
 30
0.0
 11
24.298820937426878
 21
24.49842655575393
 31
0.0
  0
LINE
  5
799
  8
SHOULDER_-_LEFT
  6
CENTER
 10
14.92186127282355
 20
24.825313945452908
 30
0.0
 11
14.92186127282355
 21
21.34043870603498
 31
0.0
  0
LINE
  5
79A
  8
DIMENSIONS
 10
17.421861272823548
 20
20.610926555753931
 30
0.0
 11
17.421861272823548
 21
25.62342655575392
 31
0.0
  0
LINE
  5
79B
  8
DIMENSIONS
 10
17.421861272823548
 20
20.610926555753931
 30
0.0
 11
17.421861272823548
 21
25.62342655575392
 31
0.0
  0
LINE
  5
79C
  8
DIMENSIONS
 10
18.671861272823548
 20
20.610926555753931
 30
0.0
 11
18.671861272823548
 21
25.62342655575392
 31
0.0
  0
LINE
  5
79D
  8
DIMENSIONS
 10
18.734361272823548
 20
19.298426555753931
 30
0.0
 11
19.996861272823558
 21
19.298426555753931
 31
0.0
  0
SOLID
  5
79E
  8
DIMENSIONS
 10
19.976027939490219
 20
19.548426555753931
 30
0.0
 11
19.892694606156908
 21
19.548426555753931
 31
0.0
 12
19.934361272823558
 22
19.298426555753931
 32
0.0
 13
19.934361272823558
 23
19.298426555753931
 33
0.0
  0
LINE
  5
79F
  8
DIMENSIONS
 10
19.934361272823558
 20
19.548426555753931
 30
0.0
 11
19.934361272823558
 21
19.708426555753931
 31
0.0
  0
LINE
  5
7A0
  8
DIMENSIONS
 10
18.734361272823548
 20
20.548426555753931
 30
0.0
 11
19.996861272823558
 21
20.548426555753931
 31
0.0
  0
SOLID
  5
7A1
  8
DIMENSIONS
 10
19.976027939490219
 20
20.298426555753931
 30
0.0
 11
19.892694606156908
 21
20.298426555753931
 31
0.0
 12
19.934361272823558
 22
20.548426555753931
 32
0.0
 13
19.934361272823558
 23
20.548426555753931
 33
0.0
  0
LINE
  5
7A2
  8
DIMENSIONS
 10
19.934361272823558
 20
20.298426555753931
 30
0.0
 11
19.934361272823558
 21
20.138426555753931
 31
0.0
  0
LINE
  5
7A3
  8
SHOULDER_-_LEFT
 10
17.421861272823548
 20
20.423426555753931
 30
0.0
 11
17.421861272823548
 21
19.423426555753931
 31
0.0
  0
LINE
  5
7A4
  8
SHOULDER_-_LEFT
 10
18.671861272823548
 20
20.423426555753931
 30
0.0
 11
18.671861272823548
 21
19.423426555753931
 31
0.0
  0
LINE
  5
7A5
  8
SHOULDER_-_LEFT
 10
18.546861272823548
 20
19.298426555753931
 30
0.0
 11
17.546861272823548
 21
19.298426555753931
 31
0.0
  0
LINE
  5
7A6
  8
SHOULDER_-_LEFT
 10
18.546861272823548
 20
20.548426555753931
 30
0.0
 11
17.546861272823548
 21
20.548426555753931
 31
0.0
  0
LINE
  5
7A7
  8
SHOULDER_-_LEFT
  6
CENTER
 10
16.970209025279779
 20
20.548426555753931
 30
0.0
 11
15.71387342310461
 21
20.548426555753931
 31
0.0
  0
LINE
  5
7A8
  8
DIMENSIONS
 10
16.193826492661199
 20
19.862766669568789
 30
0.0
 11
15.32070700928136
 21
20.333426555753931
 31
0.0
  0
SOLID
  5
7A9
  8
DIMENSIONS
 10
16.213597538975641
 20
19.89944386737265
 30
0.0
 11
16.174055446346749
 21
19.826089471764941
 31
0.0
 12
16.413889679484299
 22
19.744140391682102
 32
0.0
 13
16.413889679484299
 23
19.744140391682102
 33
0.0
  0
SOLID
  5
7AA
  8
DIMENSIONS
 10
17.171861272823548
 20
25.602593222420591
 30
0.0
 11
17.171861272823548
 21
25.519259889087259
 31
0.0
 12
17.421861272823548
 22
25.56092655575393
 32
0.0
 13
17.421861272823548
 23
25.56092655575393
 33
0.0
  0
SOLID
  5
7AB
  8
DIMENSIONS
 10
17.171861272823548
 20
25.602593222420591
 30
0.0
 11
17.171861272823548
 21
25.519259889087259
 31
0.0
 12
17.421861272823548
 22
25.56092655575393
 32
0.0
 13
17.421861272823548
 23
25.56092655575393
 33
0.0
  0
SOLID
  5
7AC
  8
DIMENSIONS
 10
18.921861272823548
 20
25.602593222420591
 30
0.0
 11
18.921861272823548
 21
25.519259889087259
 31
0.0
 12
18.671861272823548
 22
25.56092655575393
 32
0.0
 13
18.671861272823548
 23
25.56092655575393
 33
0.0
  0
LINE
  5
7AD
  8
DIMENSIONS
 10
18.921861272823548
 20
25.56092655575393
 30
0.0
 11
19.171861272823548
 21
25.56092655575393
 31
0.0
  0
LINE
  5
7B0
  8
DIMENSIONS
 10
17.171861272823548
 20
25.56092655575393
 30
0.0
 11
16.921861272823548
 21
25.56092655575393
 31
0.0
  0
LINE
  5
7B1
  8
DIMENSIONS
 10
17.171861272823548
 20
25.56092655575393
 30
0.0
 11
16.761861272823548
 21
25.56092655575393
 31
0.0
  0
LINE
  5
7B2
  8
DIMENSIONS
 10
15.17186127282355
 20
25.56092655575393
 30
0.0
 11
15.58186127282357
 21
25.56092655575393
 31
0.0
  0
LINE
  5
7B3
  8
DIMENSIONS
 10
14.92186127282355
 20
24.887813945452908
 30
0.0
 11
14.92186127282355
 21
25.62342655575392
 31
0.0
  0
LINE
  5
7B4
  8
DIMENSIONS
 10
14.92186127282355
 20
24.887813945452908
 30
0.0
 11
14.92186127282355
 21
25.62342655575392
 31
0.0
  0
SOLID
  5
7B5
  8
DIMENSIONS
 10
15.17186127282355
 20
25.602593222420591
 30
0.0
 11
15.17186127282355
 21
25.519259889087259
 31
0.0
 12
14.92186127282355
 22
25.56092655575393
 32
0.0
 13
14.92186127282355
 23
25.56092655575393
 33
0.0
  0
SOLID
  5
7B6
  8
DIMENSIONS
 10
14.67186127282355
 20
25.602593222420591
 30
0.0
 11
14.67186127282355
 21
25.519259889087259
 31
0.0
 12
14.92186127282355
 22
25.56092655575393
 32
0.0
 13
14.92186127282355
 23
25.56092655575393
 33
0.0
  0
LINE
  5
7CE
  8
SHOULDER_-_LEFT
 10
5.9763761989701152
 20
19.212622468085041
 30
0.0
 11
5.8974091417866239
 21
18.9917811744053
 31
0.0
  0
LINE
  5
7CF
  8
SHOULDER_-_LEFT
 10
6.0370714908077332
 20
18.890768169095491
 30
0.0
 11
6.0370714908077332
 21
20.548426555753931
 31
0.0
  0
LINE
  5
7D0
  8
SHOULDER_-_LEFT
 10
6.687071490807738
 20
14.035426555753929
 30
0.0
 11
6.687071490807738
 21
24.56092655575393
 31
0.0
  0
LINE
  5
7D1
  8
SHOULDER_-_LEFT
 10
5.812071490807738
 20
14.035426555753929
 30
0.0
 11
5.812071490807738
 21
24.56092655575393
 31
0.0
  0
LINE
  5
7D2
  8
SHOULDER_-_LEFT
 10
5.687071490807738
 20
14.08252368388535
 30
0.0
 11
5.687071490807738
 21
24.49842655575393
 31
0.0
  0
LINE
  5
7D3
  8
DIMENSIONS
 10
9.9093612728235598
 20
20.298426555753931
 30
0.0
 11
9.9093612728235598
 21
18.294426555753919
 31
0.0
  0
LINE
  5
7D4
  8
SHOULDER_-_LEFT
 10
12.73436127282355
 20
18.910426555753929
 30
0.0
 11
13.56319202090361
 21
19.53499532281937
 31
0.0
  0
LINE
  5
7D5
  8
SHOULDER_-_LEFT
  6
HIDDEN
 10
12.67186127282355
 20
18.941587906257261
 30
0.0
 11
13.47678715915464
 21
19.548143067934621
 31
0.0
  0
LINE
  5
7D6
  8
SHOULDER_-_LEFT
 10
10.90936127282356
 20
20.548426555753931
 30
0.0
 11
10.90936127282356
 21
15.410662697191521
 31
0.0
  0
LINE
  5
7D7
  8
SHOULDER_-_LEFT
 10
11.258861272823561
 20
20.423426555753931
 30
0.0
 11
11.258861272823561
 21
15.73542655575392
 31
0.0
  0
LINE
  5
7D8
  8
SHOULDER_-_LEFT
 10
12.333861272823549
 20
20.423426555753931
 30
0.0
 11
12.333861272823549
 21
15.73542655575392
 31
0.0
  0
LINE
  5
7D9
  8
SHOULDER_-_LEFT
 10
12.73436127282355
 20
14.035426555753929
 30
0.0
 11
10.90936127282356
 21
15.410662697191521
 31
0.0
  0
LINE
  5
7DA
  8
SHOULDER_-_LEFT
 10
12.73436127282355
 20
18.910426555753929
 30
0.0
 11
12.73436127282355
 21
14.035426555753929
 31
0.0
  0
LINE
  5
7DB
  8
SHOULDER_-_LEFT
  6
HIDDEN
 10
12.67186127282355
 20
18.941587906257261
 30
0.0
 11
12.67186127282355
 21
14.08252368388535
 31
0.0
  0
LINE
  5
7DC
  8
SHOULDER_-_LEFT
 10
12.208861272823549
 20
15.61042655575392
 30
0.0
 11
11.383861272823561
 21
15.61042655575392
 31
0.0
  0
LINE
  5
7DD
  8
DIMENSIONS
 10
9.9093612728235598
 20
15.86042655575392
 30
0.0
 11
9.9093612728235598
 21
17.864426555753919
 31
0.0
  0
LINE
  5
7DE
  8
DIMENSIONS
 10
11.196361272823561
 20
15.61042655575393
 30
0.0
 11
9.8468612728235598
 21
15.61042655575392
 31
0.0
  0
SOLID
  5
7DF
  8
DIMENSIONS
 10
9.951027939490217
 20
15.86042655575392
 30
0.0
 11
9.8676946061569026
 21
15.86042655575392
 31
0.0
 12
9.9093612728235598
 22
15.61042655575392
 32
0.0
 13
9.9093612728235598
 23
15.61042655575392
 33
0.0
  0
LINE
  5
7EE
  8
SHOULDER_-_LEFT
 10
6.187071490807738
 20
14.035426555753929
 30
0.0
 11
6.062071490807738
 21
14.035426555753929
 31
0.0
  0
LINE
  5
7EF
  8
SHOULDER_-_LEFT
 10
6.562071490807738
 20
14.08252368388535
 30
0.0
 11
6.437071490807738
 21
14.08252368388535
 31
0.0
  0
LINE
  5
7F0
  8
SHOULDER_-_LEFT
 10
6.687071490807738
 20
14.035426555753929
 30
0.0
 11
6.562071490807738
 21
14.035426555753929
 31
0.0
  0
LINE
  5
7F1
  8
SHOULDER_-_LEFT
 10
6.562071490807738
 20
14.035426555753929
 30
0.0
 11
6.562071490807738
 21
14.08252368388535
 31
0.0
  0
LINE
  5
7F2
  8
SHOULDER_-_LEFT
 10
6.187071490807738
 20
14.035426555753929
 30
0.0
 11
6.187071490807738
 21
14.08252368388535
 31
0.0
  0
LINE
  5
7F3
  8
SHOULDER_-_LEFT
 10
6.437071490807738
 20
14.035426555753929
 30
0.0
 11
6.312071490807738
 21
14.035426555753929
 31
0.0
  0
LINE
  5
7F4
  8
SHOULDER_-_LEFT
 10
6.437071490807738
 20
14.035426555753929
 30
0.0
 11
6.437071490807738
 21
14.08252368388535
 31
0.0
  0
LINE
  5
7F5
  8
SHOULDER_-_LEFT
 10
6.312071490807738
 20
14.035426555753929
 30
0.0
 11
6.312071490807738
 21
14.08252368388535
 31
0.0
  0
LINE
  5
7F6
  8
SHOULDER_-_LEFT
 10
6.312071490807738
 20
14.08252368388535
 30
0.0
 11
6.187071490807738
 21
14.08252368388535
 31
0.0
  0
LINE
  5
7F7
  8
SHOULDER_-_LEFT
 10
5.812071490807738
 20
14.08252368388535
 30
0.0
 11
5.687071490807738
 21
14.08252368388535
 31
0.0
  0
LINE
  5
7F8
  8
SHOULDER_-_LEFT
 10
6.062071490807738
 20
14.08252368388535
 30
0.0
 11
5.937071490807738
 21
14.08252368388535
 31
0.0
  0
LINE
  5
7F9
  8
SHOULDER_-_LEFT
 10
5.937071490807738
 20
14.035426555753929
 30
0.0
 11
5.812071490807738
 21
14.035426555753929
 31
0.0
  0
LINE
  5
7FA
  8
SHOULDER_-_LEFT
 10
6.062071490807738
 20
14.035426555753929
 30
0.0
 11
6.062071490807738
 21
14.08252368388535
 31
0.0
  0
LINE
  5
7FB
  8
SHOULDER_-_LEFT
 10
5.937071490807738
 20
14.035426555753929
 30
0.0
 11
5.937071490807738
 21
14.08252368388535
 31
0.0
  0
LINE
  5
7FC
  8
SHOULDER_-_LEFT
  6
HIDDEN
 10
6.0370714908077332
 20
15.61042655575392
 30
0.0
 11
6.0370714908077332
 21
18.890768169095491
 31
0.0
  0
LINE
  5
7FD
  8
SHOULDER_-_LEFT
  6
HIDDEN
 10
6.687071490807738
 20
15.61042655575392
 30
0.0
 11
6.0370714908077332
 21
15.61042655575392
 31
0.0
  0
LINE
  5
7FE
  8
SHOULDER_-_LEFT
 10
6.687071490807738
 20
15.410662697191521
 30
0.0
 11
5.812071490807738
 21
15.410662697191521
 31
0.0
  0
LINE
  5
7FF
  8
SHOULDER_-_LEFT
 10
5.687071490807738
 20
15.44182404769486
 30
0.0
 11
5.812071490807738
 21
15.44182404769486
 31
0.0
  0
LINE
  5
800
  8
SHOULDER_-_LEFT
 10
6.355417662981778
 20
18.660519259453299
 30
0.0
 11
6.387004508659003
 21
18.029544156569141
 31
0.0
  0
LINE
  5
801
  8
SHOULDER_-_LEFT
 10
6.387004508659003
 20
18.029544156569141
 30
0.0
 11
6.687071490807738
 21
17.873175983320611
 31
0.0
  0
LINE
  5
802
  8
SHOULDER_-_LEFT
 10
5.8974091417866239
 20
18.9917811744053
 30
0.0
 11
6.355417662981778
 21
18.660519259453299
 31
0.0
  0
LINE
  5
803
  8
SHOULDER_-_LEFT
 10
5.949753676077421
 20
18.953922161168631
 30
0.0
 11
5.9012245090574993
 21
19.00245132818856
 31
0.0
  0
LINE
  5
805
  8
DIMENSIONS
 10
12.333861272823549
 20
20.610926555753931
 30
0.0
 11
12.333861272823549
 21
25.62342655575392
 31
0.0
  0
LINE
  5
806
  8
DIMENSIONS
 10
11.258861272823561
 20
20.610926555753931
 30
0.0
 11
11.258861272823561
 21
25.62342655575392
 31
0.0
  0
LINE
  5
807
  8
DIMENSIONS
 10
12.333861272823549
 20
20.610926555753931
 30
0.0
 11
12.333861272823549
 21
25.62342655575392
 31
0.0
  0
LINE
  5
808
  8
SHOULDER_-_LEFT
 10
12.208861272823549
 20
20.548426555753931
 30
0.0
 11
11.383861272823561
 21
20.548426555753931
 31
0.0
  0
LINE
  5
809
  8
DIMENSIONS
 10
13.64989605298592
 20
21.234086441939059
 30
0.0
 11
14.52301553636573
 21
20.763426555753931
 31
0.0
  0
LINE
  5
80A
  8
SHOULDER_-_LEFT
  6
CENTER
 10
14.12984912254251
 20
20.548426555753931
 30
0.0
 11
12.873513520367339
 21
20.548426555753931
 31
0.0
  0
SOLID
  5
80B
  8
DIMENSIONS
 10
13.669667099300369
 20
21.27076363974291
 30
0.0
 11
13.630125006671481
 21
21.197409244135208
 31
0.0
 12
13.429832866162799
 22
21.35271271982576
 32
0.0
 13
13.429832866162799
 23
21.35271271982576
 33
0.0
  0
LINE
  5
80C
  8
DIMENSIONS
 10
11.196361272823561
 20
20.548426555753931
 30
0.0
 11
9.8468612728235598
 21
20.548426555753931
 31
0.0
  0
SOLID
  5
80D
  8
DIMENSIONS
 10
9.951027939490217
 20
20.298426555753931
 30
0.0
 11
9.8676946061569026
 21
20.298426555753931
 31
0.0
 12
9.9093612728235598
 22
20.548426555753931
 32
0.0
 13
9.9093612728235598
 23
20.548426555753931
 33
0.0
  0
LINE
  5
810
  8
DIMENSIONS
 10
12.583861272823549
 20
25.56092655575393
 30
0.0
 11
12.833861272823549
 21
25.56092655575393
 31
0.0
  0
LINE
  5
811
  8
DIMENSIONS
 10
12.583861272823549
 20
25.56092655575393
 30
0.0
 11
13.037861272823561
 21
25.56092655575393
 31
0.0
  0
SOLID
  5
812
  8
DIMENSIONS
 10
12.583861272823549
 20
25.602593222420591
 30
0.0
 11
12.583861272823549
 21
25.519259889087259
 31
0.0
 12
12.333861272823549
 22
25.56092655575393
 32
0.0
 13
12.333861272823549
 23
25.56092655575393
 33
0.0
  0
SOLID
  5
813
  8
DIMENSIONS
 10
12.583861272823549
 20
25.602593222420591
 30
0.0
 11
12.583861272823549
 21
25.519259889087259
 31
0.0
 12
12.333861272823549
 22
25.56092655575393
 32
0.0
 13
12.333861272823549
 23
25.56092655575393
 33
0.0
  0
LINE
  5
814
  8
DIMENSIONS
 10
11.008861272823561
 20
25.56092655575393
 30
0.0
 11
10.758861272823561
 21
25.56092655575393
 31
0.0
  0
SOLID
  5
815
  8
DIMENSIONS
 10
11.008861272823561
 20
25.602593222420591
 30
0.0
 11
11.008861272823561
 21
25.519259889087259
 31
0.0
 12
11.258861272823561
 22
25.56092655575393
 32
0.0
 13
11.258861272823561
 23
25.56092655575393
 33
0.0
  0
LINE
  5
816
  8
DIMENSIONS
 10
6.0370714908077332
 20
20.610926555753931
 30
0.0
 11
6.0370714908077332
 21
21.610926555753931
 31
0.0
  0
LINE
  5
817
  8
DIMENSIONS
 10
6.687071490807738
 20
20.610926555753931
 30
0.0
 11
6.687071490807738
 21
21.610926555753931
 31
0.0
  0
LINE
  5
818
  8
SHOULDER_-_LEFT
 10
6.0370714908077332
 20
19.927264518218131
 30
0.0
 11
5.893252121749839
 21
20.071083887276039
 31
0.0
  0
LINE
  5
819
  8
SHOULDER_-_LEFT
 10
5.881615775957612
 20
20.11176203188149
 30
0.0
 11
5.9763761989701152
 21
19.780500116929488
 31
0.0
  0
LINE
  5
81A
  8
SHOULDER_-_LEFT
 10
5.8974091417866239
 20
19.606981939347129
 30
0.0
 11
5.9763761989701152
 21
19.212622468085041
 31
0.0
  0
LINE
  5
81B
  8
SHOULDER_-_LEFT
 10
6.0370714908077332
 20
19.396934432328219
 30
0.0
 11
5.9150319778105143
 21
19.518973945325449
 31
0.0
  0
LINE
  5
81C
  8
SHOULDER_-_LEFT
 10
6.0370714908077332
 20
19.131769389383258
 30
0.0
 11
5.9710668034732626
 21
19.197774076717749
 31
0.0
  0
LINE
  5
81D
  8
SHOULDER_-_LEFT
 10
5.9763761989701152
 20
19.780500116929488
 30
0.0
 11
5.8974091417866239
 21
19.606981939347129
 31
0.0
  0
LINE
  5
81E
  8
SHOULDER_-_LEFT
 10
6.0370714908077332
 20
19.66209947527318
 30
0.0
 11
5.958328325148301
 21
19.740842640932609
 31
0.0
  0
LINE
  5
81F
  8
SHOULDER_-_LEFT
 10
6.211404582106808
 20
20.548426555753931
 30
0.0
 11
5.9708291487220322
 21
20.789001989138711
 31
0.0
  0
LINE
  5
820
  8
SHOULDER_-_LEFT
 10
6.1501035651469351
 20
20.774285912920689
 30
0.0
 11
5.9921695647991271
 21
20.868932196250618
 31
0.0
  0
LINE
  5
821
  8
SHOULDER_-_LEFT
 10
6.687071490807738
 20
20.548426555753931
 30
0.0
 11
6.0370714908077332
 21
20.548426555753931
 31
0.0
  0
LINE
  5
822
  8
SHOULDER_-_LEFT
 10
6.4765696250517797
 20
20.548426555753931
 30
0.0
 11
6.235634529631028
 21
20.789361651174669
 31
0.0
  0
LINE
  5
823
  8
SHOULDER_-_LEFT
 10
6.687071490807738
 20
20.868932196250618
 30
0.0
 11
6.1501035651469351
 21
20.774285912920689
 31
0.0
  0
LINE
  5
824
  8
SHOULDER_-_LEFT
 10
6.687071490807738
 20
20.868254775887859
 30
0.0
 11
6.6864955807002673
 21
20.868830685995349
 31
0.0
  0
LINE
  5
825
  8
SHOULDER_-_LEFT
 10
6.687071490807738
 20
20.603089732942902
 30
0.0
 11
6.4610650551656468
 21
20.829096168585011
 31
0.0
  0
LINE
  5
826
  8
SHOULDER_-_LEFT
 10
6.0370714908077332
 20
20.457594604108039
 30
0.0
 11
5.9347989109212156
 21
20.559867183994559
 31
0.0
  0
LINE
  5
827
  8
SHOULDER_-_LEFT
 10
5.9289959874638489
 20
20.632316513493372
 30
0.0
 11
5.9605827191219021
 21
20.237957093366472
 31
0.0
  0
LINE
  5
828
  8
SHOULDER_-_LEFT
 10
6.0370714908077332
 20
20.192429561163081
 30
0.0
 11
5.9578869142986264
 21
20.271614137672199
 31
0.0
  0
LINE
  5
829
  8
SHOULDER_-_LEFT
 10
5.9605827191219021
 20
20.237957093366472
 30
0.0
 11
5.881615775957612
 21
20.11176203188149
 31
0.0
  0
LINE
  5
82A
  8
SHOULDER_-_LEFT
 10
5.9921695647991271
 20
20.868932196250618
 30
0.0
 11
5.9289959874638489
 21
20.632316513493372
 31
0.0
  0
SOLID
  5
82B
  8
DIMENSIONS
 10
6.937071490807738
 20
21.590093222420592
 30
0.0
 11
6.937071490807738
 21
21.50675988908727
 31
0.0
 12
6.687071490807738
 22
21.548426555753931
 32
0.0
 13
6.687071490807738
 23
21.548426555753931
 33
0.0
  0
LINE
  5
82C
  8
DIMENSIONS
 10
6.937071490807738
 20
21.548426555753931
 30
0.0
 11
7.187071490807738
 21
21.548426555753931
 31
0.0
  0
SOLID
  5
82D
  8
DIMENSIONS
 10
5.7870714908077332
 20
21.590093222420592
 30
0.0
 11
5.7870714908077332
 21
21.50675988908727
 31
0.0
 12
6.0370714908077332
 22
21.548426555753931
 32
0.0
 13
6.0370714908077332
 23
21.548426555753931
 33
0.0
  0
LINE
  5
82E
  8
DIMENSIONS
 10
5.7870714908077332
 20
21.548426555753931
 30
0.0
 11
5.5370714908077332
 21
21.548426555753931
 31
0.0
  0
SOLID
  5
82F
  8
DIMENSIONS
 10
5.437071490807738
 20
25.602593222420591
 30
0.0
 11
5.437071490807738
 21
25.519259889087259
 31
0.0
 12
5.687071490807738
 22
25.56092655575393
 32
0.0
 13
5.687071490807738
 23
25.56092655575393
 33
0.0
  0
LINE
  5
830
  8
DIMENSIONS
 10
5.812071490807738
 20
24.62342655575393
 30
0.0
 11
5.812071490807738
 21
25.62342655575392
 31
0.0
  0
LINE
  5
831
  8
DIMENSIONS
 10
5.687071490807738
 20
24.56092655575393
 30
0.0
 11
5.687071490807738
 21
25.62342655575392
 31
0.0
  0
LINE
  5
832
  8
SHOULDER_-_LEFT
 10
6.687071490807738
 20
24.56092655575393
 30
0.0
 11
5.812071490807738
 21
24.56092655575393
 31
0.0
  0
LINE
  5
833
  8
SHOULDER_-_LEFT
 10
5.687071490807738
 20
24.49842655575393
 30
0.0
 11
5.812071490807738
 21
24.49842655575393
 31
0.0
  0
LINE
  5
834
  8
DIMENSIONS
 10
6.062071490807738
 20
25.56092655575393
 30
0.0
 11
6.312071490807738
 21
25.56092655575393
 31
0.0
  0
SOLID
  5
835
  8
DIMENSIONS
 10
6.062071490807738
 20
25.602593222420591
 30
0.0
 11
6.062071490807738
 21
25.519259889087259
 31
0.0
 12
5.812071490807738
 22
25.56092655575393
 32
0.0
 13
5.812071490807738
 23
25.56092655575393
 33
0.0
  0
LINE
  5
837
  8
DIMENSIONS
 10
5.437071490807738
 20
25.56092655575393
 30
0.0
 11
5.187071490807738
 21
25.56092655575393
 31
0.0
  0
LINE
  5
839
  8
DIMENSIONS
 10
24.173820937426878
 20
13.972926555753929
 30
0.0
 11
24.173820937426878
 21
12.972926555753929
 31
0.0
  0
LINE
  5
83A
  8
DIMENSIONS
 10
24.423820937426878
 20
13.035426555753929
 30
0.0
 11
24.673820937426878
 21
13.035426555753929
 31
0.0
  0
SOLID
  5
83B
  8
DIMENSIONS
 10
24.423820937426878
 20
13.07709322242059
 30
0.0
 11
24.423820937426878
 21
12.99375988908726
 31
0.0
 12
24.173820937426878
 22
13.035426555753929
 32
0.0
 13
24.173820937426878
 23
13.035426555753929
 33
0.0
  0
LINE
  5
83C
  8
DIMENSIONS
 10
23.423820937426878
 20
13.972926555753929
 30
0.0
 11
23.423820937426878
 21
11.972926555753929
 31
0.0
  0
LINE
  5
83D
  8
DIMENSIONS
 10
23.548820937426878
 20
13.972926555753929
 30
0.0
 11
23.548820937426878
 21
11.972926555753929
 31
0.0
  0
LINE
  5
83E
  8
DIMENSIONS
 10
24.048820937426878
 20
13.972926555753929
 30
0.0
 11
24.048820937426878
 21
12.972926555753929
 31
0.0
  0
LINE
  5
83F
  8
DIMENSIONS
 10
23.798820937426878
 20
12.035426555753929
 30
0.0
 11
24.048820937426878
 21
12.035426555753929
 31
0.0
  0
SOLID
  5
840
  8
DIMENSIONS
 10
23.798820937426878
 20
12.07709322242059
 30
0.0
 11
23.798820937426878
 21
11.99375988908726
 31
0.0
 12
23.548820937426878
 22
12.035426555753929
 32
0.0
 13
23.548820937426878
 23
12.035426555753929
 33
0.0
  0
LINE
  5
841
  8
DIMENSIONS
 10
23.173820937426878
 20
12.035426555753929
 30
0.0
 11
22.923820937426878
 21
12.035426555753929
 31
0.0
  0
SOLID
  5
842
  8
DIMENSIONS
 10
23.173820937426878
 20
12.07709322242059
 30
0.0
 11
23.173820937426878
 21
11.99375988908726
 31
0.0
 12
23.423820937426878
 22
12.035426555753929
 32
0.0
 13
23.423820937426878
 23
12.035426555753929
 33
0.0
  0
SOLID
  5
843
  8
DIMENSIONS
 10
23.798820937426878
 20
13.07709322242059
 30
0.0
 11
23.798820937426878
 21
12.99375988908726
 31
0.0
 12
24.048820937426878
 22
13.035426555753929
 32
0.0
 13
24.048820937426878
 23
13.035426555753929
 33
0.0
  0
LINE
  5
844
  8
DIMENSIONS
 10
23.798820937426878
 20
13.035426555753929
 30
0.0
 11
23.548820937426878
 21
13.035426555753929
 31
0.0
  0
ARC
  5
8BC
  8
SHOULDER_-_LEFT
 10
12.208861272823549
 20
20.423426555753931
 30
0.0
 40
0.125
 50
0.0
 51
90.0
  0
ARC
  5
8BF
  8
SHOULDER_-_LEFT
 10
11.383861272823561
 20
20.423426555753931
 30
0.0
 40
0.125
 50
89.999999999999915
 51
180.0
  0
ARC
  5
8C0
  8
SHOULDER_-_LEFT
 10
11.383861272823561
 20
15.73542655575392
 30
0.0
 40
0.125
 50
180.0
 51
269.99999999999989
  0
ARC
  5
8C1
  8
SHOULDER_-_LEFT
 10
12.208861272823549
 20
15.73542655575392
 30
0.0
 40
0.125
 50
270.0
 51
0.0000000000000127
  0
ARC
  5
8C2
  8
SHOULDER_-_LEFT
 10
18.546861272823548
 20
20.423426555753931
 30
0.0
 40
0.125
 50
0.0
 51
90.0
  0
ARC
  5
8C3
  8
SHOULDER_-_LEFT
 10
18.546861272823548
 20
19.423426555753931
 30
0.0
 40
0.125
 50
270.0
 51
359.99999999999989
  0
ARC
  5
8C4
  8
SHOULDER_-_LEFT
 10
17.546861272823548
 20
20.423426555753931
 30
0.0
 40
0.125
 50
90.000000000000099
 51
180.0
  0
ARC
  5
8C5
  8
SHOULDER_-_LEFT
 10
17.546861272823548
 20
19.423426555753931
 30
0.0
 40
0.125
 50
180.0
 51
270.00000000000011
  0
ARC
  5
8C6
  8
SHOULDER_-_LEFT
 10
18.546861272823548
 20
18.57342655575393
 30
0.0
 40
0.125
 50
0.0
 51
90.000000000000099
  0
ARC
  5
8C7
  8
SHOULDER_-_LEFT
 10
17.546861272823548
 20
18.57342655575393
 30
0.0
 40
0.125
 50
90.000000000000099
 51
180.0
  0
ARC
  5
8C8
  8
SHOULDER_-_LEFT
 10
17.546861272823548
 20
17.57342655575393
 30
0.0
 40
0.125
 50
180.0
 51
270.0
  0
ARC
  5
8C9
  8
SHOULDER_-_LEFT
 10
18.546861272823548
 20
17.57342655575393
 30
0.0
 40
0.125
 50
270.0
 51
359.99999999999989
  0
LINE
  5
8D5
  8
DIMENSIONS
 10
16.596796997883441
 20
17.323298724768691
 30
0.0
 11
16.846796997883441
 21
17.323298724768691
 31
0.0
  0
LINE
  5
8D6
  8
DIMENSIONS
 10
16.846796997883441
 20
17.323298724768691
 30
0.0
 11
18.446157174061621
 21
18.499374651709878
 31
0.0
  0
SOLID
  5
8D8
  8
DIMENSIONS
 10
18.421473206046951
 20
18.53294268463053
 30
0.0
 11
18.470841142076321
 21
18.465806618789241
 31
0.0
 12
18.647565371585468
 22
18.64747845979797
 32
0.0
 13
18.647565371585468
 23
18.64747845979797
 33
0.0
  0
TEXT
  5
8D9
  8
DIMENSIONS
 10
15.304416045502469
 20
17.198298724768691
 30
0.0
 40
0.25
  1
R0.125
  0
TEXT
  5
917
  8
0
  6
CONTINUOUS
 10
70.536654018003389
 20
13.190744326830901
 30
0.0
 40
0.12
  1
 
 51
7.0
  0
TEXT
  5
918
  8
0
  6
CONTINUOUS
 10
82.980750783483288
 20
20.253618756562549
 30
0.0
 40
0.24
  1
 
 51
7.0
  0
TEXT
  5
919
  8
0
  6
CONTINUOUS
 10
92.190515795396564
 20
19.933608769985469
 30
0.0
 40
0.24
  1
 
 51
7.0
  0
TEXT
  5
91A
  8
0
  6
CONTINUOUS
 10
101.9944752798292
 20
3.0710279704581458
 30
0.0
 40
0.24
  1
 
 51
7.0
  0
TEXT
  5
CC8
  8
0
  6
CONTINUOUS
 10
88.448253776816316
 20
19.465016667753421
 30
0.0
 40
0.12
  1
 
 51
7.0
  0
TEXT
  5
CC9
  8
0
  6
CONTINUOUS
 10
100.8923505422962
 20
26.527891097485071
 30
0.0
 40
0.24
  1
 
 51
7.0
  0
TEXT
  5
CCA
  8
0
  6
CONTINUOUS
 10
110.1021155542095
 20
26.207881110907991
 30
0.0
 40
0.24
  1
 
 51
7.0
  0
TEXT
  5
CCB
  8
0
  6
CONTINUOUS
 10
119.9060750386422
 20
9.3453003113806687
 30
0.0
 40
0.24
  1
 
 51
7.0
  0
LINE
  5
CE2
  8
FORM
 10
43.041208788750048
 20
1.2738095237500171
 30
0.0
 11
43.041208788750048
 21
30.47619047625
 31
0.0
  0
LINE
  5
CE3
  8
FORM
 10
42.72619047375008
 20
30.79120879125
 30
0.0
 11
1.27380952375006
 21
30.79120879125
 31
0.0
  0
LINE
  5
CE4
  8
FORM
 10
42.72619047375008
 20
0.9587912087500357
 30
0.0
 11
1.27380952375006
 21
0.9587912087500178
 31
0.0
  0
LINE
  5
CE5
  8
FORM
 10
0.9587912087500569
 20
1.2738095237500171
 30
0.0
 11
0.9587912087500569
 21
30.47619047625
 31
0.0
  0
TEXT
  5
CE6
  8
FORM
 10
37.753201191341311
 20
5.206275420631246
 30
0.0
 40
0.5334392170019531
  1
LEFT
 72
     1
 11
38.616864685534949
 21
5.206275420631246
 31
0.0
  0
TEXT
  5
CE7
  8
FORM
 10
36.622818088646703
 20
4.0776460783213357
 30
0.0
 40
0.5334392170019531
  1
SHOULDER
 72
     1
 11
38.616864685534949
 21
4.0776460783213357
 31
0.0
  0
TEXT
  5
CE8
  8
FORM
 10
33.498854806118288
 20
2.0268467705730191
 30
0.0
 40
0.5334392170019531
  1
ASTROMECH DROID
  0
TEXT
  5
CE9
  8
FORM
 10
41.921886517477049
 20
2.0475849221067111
 30
0.0
 40
0.5334392170019531
  1
A
  0
TEXT
  5
CEA
  8
FORM
 10
34.54484719481502
 20
1.4041843246072041
 30
0.0
 40
0.2133756868007812
  1
FULL
  0
TEXT
  5
CEB
  8
FORM
 10
41.38147923468091
 20
1.4101568300009391
 30
0.0
 40
0.2133756868007812
  1
1   1
  0
TEXT
  5
CEC
  8
FORM
 10
37.847479070745862
 20
1.4266399292710359
 30
0.0
 40
0.2133756868007812
  1
APRIL 2005
 72
     2
 11
39.696735023019301
 21
1.4266399292710359
 31
0.0
  0
TEXT
  5
CED
  8
FORM
  6
CONTINUOUS
 10
36.314742892209949
 20
1.4244931442114459
 30
0.0
 40
0.184356593395875
  1
DRAWN:
  0
TEXT
  5
CEE
  8
FORM
  6
CONTINUOUS
 10
33.461092438516573
 20
1.424666026206864
 30
0.0
 40
0.184356593395875
  1
SCALE:
  0
TEXT
  5
CEF
  8
FORM
  6
CONTINUOUS
 10
40.203435321383608
 20
1.422355711558928
 30
0.0
 40
0.184356593395875
  1
SHEET:   OF
  0
TEXT
  5
CF0
  8
FORM
  6
CONTINUOUS
 10
33.124433620069567
 20
2.8869297159639369
 30
0.0
 40
0.184356593395875
  1
DRAWING NO.
  0
TEXT
  5
CF1
  8
FORM
  6
CONTINUOUS
 10
41.850448103669258
 20
2.886929715963916
 30
0.0
 40
0.184356593395875
  1
REV.
 72
     1
 11
42.122593551063183
 21
2.886929715963916
 31
0.0
  0
LINE
  5
CF2
  8
FORM
  6
CONTINUOUS
 10
33.416182507258391
 20
6.6201507322303881
 30
0.0
 11
42.265298990260362
 21
6.6201507322303881
 31
0.0
  0
LINE
  5
CF3
  8
FORM
  6
CONTINUOUS
 10
32.955291023768723
 20
1.7347010072396991
 30
0.0
 11
32.955291023768673
 21
6.1592592487406881
 31
0.0
  0
LINE
  5
CF4
  8
FORM
  6
CONTINUOUS
 10
32.955291023768723
 20
3.1634646060577292
 30
0.0
 11
42.72619047375008
 21
3.1634646060577292
 31
0.0
  0
LINE
  5
CF5
  8
FORM
  6
CONTINUOUS
 10
32.955291023768723
 20
1.7347010072396991
 30
0.0
 11
42.72619047375008
 21
1.7347010072396991
 31
0.0
  0
LINE
  5
CF6
  8
FORM
  6
CONTINUOUS
 10
36.026467742539118
 20
1.7347010072396991
 30
0.0
 11
36.026467742539118
 21
1.2738095237500171
 31
0.0
  0
LINE
  5
CF7
  8
FORM
  6
CONTINUOUS
 10
40.065167876336659
 20
1.729027325745029
 30
0.0
 11
40.065167876336659
 21
1.2681358422553499
 31
0.0
  0
LINE
  5
CF8
  8
FORM
  6
CONTINUOUS
 10
41.508364231032488
 20
3.1634646060577292
 30
0.0
 11
41.508364231032488
 21
1.7347010072396991
 31
0.0
  0
ARC
  5
CF9
  8
FORM
 62
     5
 10
33.871474544026341
 20
5.2321095419160519
 30
0.0
 40
0.0502653185952511
 50
152.18113099770551
 51
330.99098814993278
  0
ARC
  5
CFA
  8
FORM
 62
     5
 10
34.089053834359731
 20
5.6511194128146256
 30
0.0
 40
0.0440746975210158
 50
335.32315363464198
 51
152.67224926330371
  0
ARC
  5
CFB
  8
FORM
 62
     5
 10
37.446185313816841
 20
3.5831642172472651
 30
0.0
 40
3.9868910433295368
 50
148.41494327216151
 51
155.19852313243231
  0
ARC
  5
CFC
  8
FORM
 62
     5
 10
38.217878471693162
 20
3.3107972970714812
 30
0.0
 40
4.7020631235383759
 50
150.40875710206339
 51
156.20744757951141
  0
ARC
  5
CFD
  8
FORM
 62
     7
 10
33.729336717812153
 20
4.809826363179055
 30
0.0
 40
0.0671652552709891
 50
161.128725237971
 51
346.89295927401372
  0
ARC
  5
CFE
  8
FORM
 62
     7
 10
53.367628910278249
 20
-3.6725418745125959
 30
0.0
 40
21.325803943529628
 50
153.58307292081309
 51
156.60691138966209
  0
ARC
  5
CFF
  8
FORM
 62
     7
 10
50.287568040148528
 20
-2.5644941525072609
 30
0.0
 40
18.16984879940825
 50
152.3409599977594
 51
152.9694116127464
  0
ARC
  5
D00
  8
FORM
 62
     7
 10
50.491245112732429
 20
-3.156319562177472
 30
0.0
 40
18.62531302696754
 50
153.3711283527573
 51
154.6040219565534
  0
ARC
  5
D01
  8
FORM
 62
     7
 10
34.698291427850847
 20
5.5948289454909697
 30
0.0
 40
0.4829018868449606
 50
23.46872592819097
 51
88.151617587883351
  0
ARC
  5
D02
  8
FORM
 62
     7
 10
34.709083940719161
 20
5.6259614939592311
 30
0.0
 40
0.5699591598814008
 50
18.23262529566551
 51
154.63608874642691
  0
ARC
  5
D03
  8
FORM
 62
     7
 10
34.879850029644388
 20
5.6853693813860771
 30
0.0
 40
0.3891907917568549
 50
336.99722732837881
 51
341.11190659806488
  0
ARC
  5
D04
  8
FORM
 62
     7
 10
34.902997868184677
 20
5.7025814422175776
 30
0.0
 40
0.254907880192607
 50
333.24704424527522
 51
339.12675173356178
  0
ARC
  5
D05
  8
FORM
 62
     7
 10
35.14410452893253
 20
5.5822157374328816
 30
0.0
 40
0.0146095491322771
 50
157.3747590211585
 51
243.18317341424029
  0
ARC
  5
D06
  8
FORM
 62
     7
 10
35.230394320055893
 20
5.5355566237182643
 30
0.0
 40
0.0080289822227516
 50
246.7423667985764
 51
343.55073793579641
  0
ARC
  5
D07
  8
FORM
 62
     7
 10
35.483045306224881
 20
6.206619545503723
 30
0.0
 40
0.7250687320987334
 50
241.5396617947477
 51
249.33988332022491
  0
ARC
  5
D08
  8
FORM
 62
     7
 10
34.976191689776329
 20
5.437699301377072
 30
0.0
 40
0.1431349662916394
 50
210.28645373052609
 51
287.25915125833183
  0
ARC
  5
D09
  8
FORM
 62
     7
 10
34.988490180963993
 20
5.3758026207478622
 30
0.0
 40
0.0806485752183996
 50
291.96730232828992
 51
10.20108836223371
  0
ARC
  5
D0A
  8
FORM
 62
     7
 10
34.35110914816994
 20
5.2378626299468207
 30
0.0
 40
0.5174748205137182
 50
14.28109924276111
 51
24.94726153987823
  0
ARC
  5
D0B
  8
FORM
 62
     7
 10
34.652931196600377
 20
5.3946009655135461
 30
0.0
 40
0.1783202582618736
 50
20.183063788867621
 51
47.833846572520187
  0
ARC
  5
D0C
  8
FORM
 62
     7
 10
34.68626748438794
 20
5.3042778782011162
 30
0.0
 40
0.2386691757260289
 50
68.784960310907422
 51
94.742087985452599
  0
ARC
  5
D0D
  8
FORM
 62
     7
 10
34.683670685861443
 20
5.4453282315651172
 30
0.0
 40
0.0983065334463515
 50
100.0375073429591
 51
170.98475346238999
  0
ARC
  5
D0E
  8
FORM
 62
     7
 10
35.146068355737611
 20
5.3773748188028661
 30
0.0
 40
0.5656654008735983
 50
171.52589863719891
 51
197.494741096675
  0
ARC
  5
D0F
  8
FORM
 62
     7
 10
34.765023896344701
 20
5.3853778011441547
 30
0.0
 40
0.3028765796636133
 50
0.8906501289532242
 51
49.113860192417171
  0
ARC
  5
D10
  8
FORM
 62
     7
 10
34.701217881456898
 20
5.440931581139246
 30
0.0
 40
0.2383845564631639
 50
99.869748807366761
 51
175.59516845025641
  0
ARC
  5
D11
  8
FORM
 62
     7
 10
34.744201420967102
 20
5.3116713199521888
 30
0.0
 40
0.373645463646239
 50
54.104282451028169
 51
102.9674010870567
  0
ARC
  5
D12
  8
FORM
 62
     7
 10
35.798737905561843
 20
5.5339824388112886
 30
0.0
 40
1.236112335596137
 50
195.32307896217739
 51
209.2908431569582
  0
ARC
  5
D13
  8
FORM
 62
     7
 10
35.409798509503162
 20
5.3313058202242232
 30
0.0
 40
0.9548702630443076
 50
172.3003020759547
 51
200.12627387409299
  0
ARC
  5
D14
  8
FORM
 62
     7
 10
36.092512265563244
 20
5.5978118396088368
 30
0.0
 40
1.6876668147324001
 50
200.64629086238159
 51
210.04649609044401
  0
ARC
  5
D15
  8
FORM
 62
     7
 10
33.767672563649683
 20
4.2896718057212553
 30
0.0
 40
1.147702755465478
 50
28.431949107384391
 51
33.865461133002469
  0
ARC
  5
D16
  8
FORM
 62
     7
 10
34.710340361681631
 20
4.7838977609262834
 30
0.0
 40
0.0846287925897855
 50
201.5644604264042
 51
38.094090168146302
  0
ARC
  5
D17
  8
FORM
 62
     5
 10
35.454047505527292
 20
5.486987961477829
 30
0.0
 40
0.0470753373534298
 50
227.6202696593605
 51
57.412112921204063
  0
ARC
  5
D18
  8
FORM
 62
     5
 10
34.898862200054403
 20
4.7627373277749214
 30
0.0
 40
0.9594749055071699
 50
52.766851639305898
 51
65.063571515457895
  0
ARC
  5
D19
  8
FORM
 62
     5
 10
34.452241791275917
 20
4.0702703323560518
 30
0.0
 40
1.6884350682882729
 50
54.932512589538803
 51
74.152868438598929
  0
ARC
  5
D1A
  8
FORM
 62
     5
 10
34.476586052909447
 20
3.568319054466826
 30
0.0
 40
2.1706024175541438
 50
78.393012355262385
 51
89.647961077025343
  0
ARC
  5
D1B
  8
FORM
 62
     5
 10
34.486274868053272
 20
5.8018806593051897
 30
0.0
 40
0.0631056771236446
 50
183.9979944211656
 51
273.313807745882
  0
ARC
  5
D1C
  8
FORM
 62
     5
 10
34.69925842788092
 20
5.818551646751942
 30
0.0
 40
0.2767389970018709
 50
145.60859166919269
 51
184.36670732083471
  0
ARC
  5
D1D
  8
FORM
 62
     5
 10
34.528989583128627
 20
5.938129286098885
 30
0.0
 40
0.0687363070342985
 50
75.244714174009715
 51
147.6929850116162
  0
ARC
  5
D1E
  8
FORM
 62
     5
 10
33.709635982728862
 20
2.7936800480859851
 30
0.0
 40
3.3181823868519218
 50
61.637242241525243
 51
75.392005557716686
  0
ARC
  5
D1F
  8
FORM
 62
     5
 10
35.223247228975197
 20
5.6577302519658508
 30
0.0
 40
0.0839396329354631
 50
342.6982574268402
 51
41.67278378767756
  0
ARC
  5
D20
  8
FORM
 62
     7
 10
34.879850029644388
 20
5.6853693813860771
 30
0.0
 40
0.3891907917568549
 50
5.6380312699922861
 51
17.79145636873681
  0
ARC
  5
D21
  8
FORM
 62
     7
 10
35.056960777687777
 20
3.851378580987717
 30
0.0
 40
0.12453779538235
 50
88.432533024773406
 51
186.62631613112151
  0
ARC
  5
D22
  8
FORM
 62
     7
 10
35.076506660735497
 20
3.8773458445585289
 30
0.0
 40
0.1488228018527408
 50
195.7266305128272
 51
285.3806868435185
  0
ARC
  5
D23
  8
FORM
 62
     7
 10
34.901004024005381
 20
5.1943718606735914
 30
0.0
 40
1.4762551210247881
 50
278.37329371359471
 51
293.15208507016871
  0
ARC
  5
D24
  8
FORM
 62
     7
 10
35.396287821393123
 20
4.2652099364179641
 30
0.0
 40
0.3044715687368376
 50
257.51805604168283
 51
277.23103351305667
  0
ARC
  5
D25
  8
FORM
 62
     7
 10
35.413358675393567
 20
4.0150829003075179
 30
0.0
 40
0.0561042920902449
 50
292.26031345923337
 51
12.867379300523719
  0
ARC
  5
D26
  8
FORM
 62
     7
 10
35.371642472469659
 20
4.0070394983254651
 30
0.0
 40
0.0985747940549809
 50
12.02537552739555
 51
52.143631645159317
  0
ARC
  5
D27
  8
FORM
 62
     7
 10
37.473498217784197
 20
6.5612572579000981
 30
0.0
 40
3.209307639712156
 50
219.60277928185971
 51
230.5002020408055
  0
ARC
  5
D28
  8
FORM
 62
     7
 10
35.492352051740113
 20
4.9001252642901667
 30
0.0
 40
0.6241927637443375
 50
175.97523115435061
 51
218.04500009534141
  0
ARC
  5
D29
  8
FORM
 62
     7
 10
35.227786425660099
 20
4.9628053673500361
 30
0.0
 40
0.3585845725200827
 50
149.96078860476399
 51
183.01641230856191
  0
ARC
  5
D2A
  8
FORM
 62
     7
 10
34.977287653388537
 20
5.1103132875677204
 30
0.0
 40
0.0679295281984907
 50
69.764209445538683
 51
151.89881904551129
  0
ARC
  5
D2B
  8
FORM
 62
     7
 10
34.969273382641461
 20
5.1056960066620496
 30
0.0
 40
0.0752672049169095
 50
357.6694469744499
 51
65.251102439515435
  0
ARC
  5
D2C
  8
FORM
 62
     7
 10
34.791927087049551
 20
5.0911418605530789
 30
0.0
 40
0.2528126373579358
 50
345.36193237678458
 51
2.6056939300727819
  0
ARC
  5
D2D
  8
FORM
 62
     7
 10
35.602090445328599
 20
4.8523853508412031
 30
0.0
 40
0.5919738308518
 50
162.81861830880729
 51
185.35496664157321
  0
ARC
  5
D2E
  8
FORM
 62
     7
 10
35.536094847929178
 20
4.9117694628322139
 30
0.0
 40
0.5358004355611984
 50
192.3534994193023
 51
222.3020476696031
  0
ARC
  5
D2F
  8
FORM
 62
     7
 10
37.381905568116622
 20
6.3998094049418546
 30
0.0
 40
2.905942571467353
 50
219.50633019139829
 51
228.42762303996261
  0
ARC
  5
D30
  8
FORM
 62
     7
 10
35.140069253353431
 20
3.7985267963051679
 30
0.0
 40
0.5299960685152594
 50
32.971129457978869
 51
53.728419363024337
  0
ARC
  5
D31
  8
FORM
 62
     7
 10
35.427463202400361
 20
4.005618684982891
 30
0.0
 40
0.1770362522386045
 50
287.74749415951351
 51
27.35211189662947
  0
ARC
  5
D32
  8
FORM
 62
     7
 10
35.162594742576289
 20
2.8543408356064179
 30
0.0
 40
1.126178313661536
 50
81.426570944510203
 51
95.208118001959775
  0
ARC
  5
D33
  8
FORM
 62
     7
 10
34.676472279440532
 20
4.609856792041171
 30
0.0
 40
0.0501357382491115
 50
325.52447187114319
 51
75.340502228459783
  0
ARC
  5
D34
  8
FORM
 62
     7
 10
34.614701276196122
 20
4.6552100511053531
 30
0.0
 40
0.1267533236926462
 50
277.78730616127859
 51
324.42957968808531
  0
ARC
  5
D35
  8
FORM
 62
     7
 10
34.592284758986921
 20
4.6762898657927741
 30
0.0
 40
0.1519139349688822
 50
243.48581874200181
 51
285.1065744639306
  0
ARC
  5
D36
  8
FORM
 62
     7
 10
27.8731096997513
 20
-12.4932993511666
 30
0.0
 40
18.45638048052642
 50
68.327181839257534
 51
70.606105230637283
  0
ARC
  5
D37
  8
FORM
 62
     7
 10
33.988713934221778
 20
4.8617714816310453
 30
0.0
 40
0.055607435478502
 50
76.445232091872299
 51
134.36352227876461
  0
ARC
  5
D38
  8
FORM
 62
     7
 10
34.235945877334018
 20
4.4813881185518483
 30
0.0
 40
0.5083077403466757
 50
124.2547762008316
 51
135.012931962436
  0
ARC
  5
D39
  8
FORM
 62
     7
 10
33.885979744632088
 20
4.8245660322519264
 30
0.0
 40
0.0187748724828842
 50
120.5491196217084
 51
251.48388650457539
  0
ARC
  5
D3A
  8
FORM
 62
     7
 10
31.359554693546102
 20
-2.20296417031589
 30
0.0
 40
7.4490944355826798
 50
64.85742894317822
 51
67.515132469299331
  0
ARC
  5
D3B
  8
FORM
 62
     7
 10
34.507034475662408
 20
4.4308185510845446
 30
0.0
 40
0.0703300633564829
 50
329.18566117941782
 51
69.527151249863806
  0
ARC
  5
D3C
  8
FORM
 62
     7
 10
34.322528644875717
 20
4.1521399941366823
 30
0.0
 40
0.403051872176304
 50
58.747973844557571
 51
81.106226592028065
  0
ARC
  5
D3D
  8
FORM
 62
     7
 10
34.279653491663908
 20
3.8849497208938919
 30
0.0
 40
0.673659077744691
 50
81.016817915507374
 51
97.679603827268224
  0
ARC
  5
D3E
  8
FORM
 62
     7
 10
34.350555487554232
 20
4.0873869344785581
 30
0.0
 40
0.4997006452258542
 50
121.5050128230593
 51
139.0957881060705
  0
ARC
  5
D3F
  8
FORM
 62
     7
 10
34.486213611380663
 20
4.4200913009569014
 30
0.0
 40
0.0850716575372725
 50
277.70569210516868
 51
342.69880024124097
  0
ARC
  5
D40
  8
FORM
 62
     7
 10
34.460104330220588
 20
4.5160817648663851
 30
0.0
 40
0.184155782182425
 50
250.08394506358289
 51
281.75453717228322
  0
ARC
  5
D41
  8
FORM
 62
     7
 10
34.52027170146647
 20
4.5372247072865122
 30
0.0
 40
0.2298928288403392
 50
221.18187885427241
 51
237.68378775985289
  0
ARC
  5
D42
  8
FORM
 62
     7
 10
34.250649510747913
 20
4.2707129138400566
 30
0.0
 40
0.1502941988903953
 50
50.003848755011681
 51
75.5416830098399
  0
ARC
  5
D43
  8
FORM
 62
     7
 10
34.242700079187728
 20
4.3251886965059541
 30
0.0
 40
0.101781928913435
 50
63.4626603498468
 51
100.74200229027051
  0
ARC
  5
D44
  8
FORM
 62
     7
 10
34.223729261234951
 20
4.2529656105913531
 30
0.0
 40
0.1722214314986379
 50
89.999999999999588
 51
125.5974615489027
  0
ARC
  5
D45
  8
FORM
 62
     7
 10
36.266687671707359
 20
5.4819654875490791
 30
0.0
 40
2.382967543868022
 50
197.51922498184919
 51
203.981481444731
  0
ARC
  5
D46
  8
FORM
 62
     7
 10
33.485249637949607
 20
4.721360124868851
 30
0.0
 40
0.7243225282346643
 50
346.52409876011302
 51
356.71498770316703
  0
ARC
  5
D47
  8
FORM
 62
     7
 10
31.359554693546102
 20
-2.20296417031589
 30
0.0
 40
7.4490944355826798
 50
69.286600818944052
 51
70.22311760076802
  0
ARC
  5
D48
  8
FORM
 62
     7
 10
33.876169922815507
 20
4.0909024975958621
 30
0.0
 40
0.2184269840063441
 50
245.40259669902051
 51
275.40975098180542
  0
ARC
  5
D49
  8
FORM
 62
     7
 10
34.642070270288457
 20
3.6967673023805361
 30
0.0
 40
0.8681469610074701
 50
126.68044463040199
 51
139.78708822539889
  0
ARC
  5
D4A
  8
FORM
 62
     7
 10
33.872083832704959
 20
4.7053139576373191
 30
0.0
 40
0.832231548816698
 50
271.69929119420118
 51
283.39540842056908
  0
ARC
  5
D4B
  8
FORM
 62
     7
 10
35.428271851831603
 20
2.78470176044189
 30
0.0
 40
2.0660410796836941
 50
134.5410403491789
 51
138.91474429089911
  0
ARC
  5
D4C
  8
FORM
 62
     7
 10
33.906328645442898
 20
4.1130944325259122
 30
0.0
 40
0.0546567449796842
 50
201.8252958964795
 51
267.16449786715452
  0
ARC
  5
D4D
  8
FORM
 62
     7
 10
33.894562313202023
 20
4.107909022344443
 30
0.0
 40
0.0418082902229875
 50
124.254854327418
 51
201.22329273937871
  0
ARC
  5
D4E
  8
FORM
 62
     7
 10
34.021864770200132
 20
4.0738934856997728
 30
0.0
 40
0.1832903804675856
 50
283.5751770312794
 51
324.58969283639942
  0
ARC
  5
D4F
  8
FORM
 62
     7
 10
34.126398977664167
 20
3.986597707801109
 30
0.0
 40
0.0486742756789315
 50
337.14160324238748
 51
47.56496670892831
  0
ARC
  5
D50
  8
FORM
 62
     7
 10
34.051479433347943
 20
3.879563609001575
 30
0.0
 40
0.1790243893656499
 50
52.990730681111657
 51
91.748895977531376
  0
ARC
  5
D51
  8
FORM
 62
     7
 10
33.974820296360178
 20
4.5445147233887013
 30
0.0
 40
0.4911971362770459
 50
261.66603807207321
 51
278.33396192792679
  0
ARC
  5
D52
  8
FORM
 62
     7
 10
33.827351328547081
 20
3.9976720327520212
 30
0.0
 40
0.1134738832821913
 50
192.64550774538381
 51
248.2223967256862
  0
ARC
  5
D53
  8
FORM
 62
     7
 10
33.799462642063077
 20
4.0105271566674361
 30
0.0
 40
0.0910070849768819
 50
178.88427582775461
 51
204.46998391858131
  0
ARC
  5
D54
  8
FORM
 62
     7
 10
34.024590384061071
 20
3.9875275917867858
 30
0.0
 40
0.3170866660790294
 50
140.54690015149379
 51
175.5193383191162
  0
ARC
  5
D55
  8
FORM
 62
     7
 10
37.147786536650869
 20
1.5008787794887259
 30
0.0
 40
4.3092627289205483
 50
137.45643980933039
 51
141.40545593619069
  0
POLYLINE
  5
D56
  8
FORM
 62
     1
 10
34.588179408120517
 20
5.9634267402830048
 30
0.0
 66
     1
 70
     8
  0
VERTEX
  8
FORM
  5
1048
 10
34.5882
 20
5.96343
 30
0.000000
  70
    32
  0
VERTEX
  8
FORM
  5
1049
 10
34.5863
 20
5.96413
 30
0.000000
  70
    32
  0
VERTEX
  8
FORM
  5
104A
 10
34.5843
 20
5.96461
 30
0.000000
  70
    32
  0
VERTEX
  8
FORM
  5
104B
 10
34.5822
 20
5.96487
 30
0.000000
  70
    32
  0
VERTEX
  8
FORM
  5
104C
 10
34.5800
 20
5.96490
 30
0.000000
  70
    32
  0
VERTEX
  8
FORM
  5
104D
 10
34.5778
 20
5.96471
 30
0.000000
  70
    32
  0
VERTEX
  8
FORM
  5
104E
 10
34.5754
 20
5.96429
 30
0.000000
  70
    32
  0
VERTEX
  8
FORM
  5
104F
 10
34.5731
 20
5.96365
 30
0.000000
  70
    32
  0
VERTEX
  8
FORM
  5
1050
 10
34.5706
 20
5.96279
 30
0.000000
  70
    32
  0
VERTEX
  8
FORM
  5
1051
 10
34.5681
 20
5.96170
 30
0.000000
  70
    32
  0
VERTEX
  8
FORM
  5
1052
 10
34.5656
 20
5.96040
 30
0.000000
  70
    32
  0
VERTEX
  8
FORM
  5
1053
 10
34.5630
 20
5.95889
 30
0.000000
  70
    32
  0
VERTEX
  8
FORM
  5
1054
 10
34.5603
 20
5.95716
 30
0.000000
  70
    32
  0
VERTEX
  8
FORM
  5
1055
 10
34.5577
 20
5.95523
 30
0.000000
  70
    32
  0
VERTEX
  8
FORM
  5
1056
 10
34.5550
 20
5.95309
 30
0.000000
  70
    32
  0
VERTEX
  8
FORM
  5
1057
 10
34.5523
 20
5.95076
 30
0.000000
  70
    32
  0
VERTEX
  8
FORM
  5
1058
 10
34.5496
 20
5.94824
 30
0.000000
  70
    32
  0
VERTEX
  8
FORM
  5
1059
 10
34.5468
 20
5.94553
 30
0.000000
  70
    32
  0
VERTEX
  8
FORM
  5
105A
 10
34.5441
 20
5.94264
 30
0.000000
  70
    32
  0
VERTEX
  8
FORM
  5
105B
 10
34.5414
 20
5.93959
 30
0.000000
  70
    32
  0
VERTEX
  8
FORM
  5
105C
 10
34.5387
 20
5.93636
 30
0.000000
  70
    32
  0
VERTEX
  8
FORM
  5
105D
 10
34.5361
 20
5.93299
 30
0.000000
  70
    32
  0
VERTEX
  8
FORM
  5
105E
 10
34.5334
 20
5.92946
 30
0.000000
  70
    32
  0
VERTEX
  8
FORM
  5
105F
 10
34.5308
 20
5.92579
 30
0.000000
  70
    32
  0
VERTEX
  8
FORM
  5
1060
 10
34.5282
 20
5.92199
 30
0.000000
  70
    32
  0
VERTEX
  8
FORM
  5
1061
 10
34.5257
 20
5.91807
 30
0.000000
  70
    32
  0
VERTEX
  8
FORM
  5
1062
 10
34.5233
 20
5.91404
 30
0.000000
  70
    32
  0
VERTEX
  8
FORM
  5
1063
 10
34.5209
 20
5.90991
 30
0.000000
  70
    32
  0
VERTEX
  8
FORM
  5
1064
 10
34.5185
 20
5.90568
 30
0.000000
  70
    32
  0
VERTEX
  8
FORM
  5
1065
 10
34.5162
 20
5.90137
 30
0.000000
  70
    32
  0
VERTEX
  8
FORM
  5
1066
 10
34.5140
 20
5.89699
 30
0.000000
  70
    32
  0
VERTEX
  8
FORM
  5
1067
 10
34.5119
 20
5.89254
 30
0.000000
  70
    32
  0
VERTEX
  8
FORM
  5
1068
 10
34.5099
 20
5.88805
 30
0.000000
  70
    32
  0
VERTEX
  8
FORM
  5
1069
 10
34.5080
 20
5.88352
 30
0.000000
  70
    32
  0
VERTEX
  8
FORM
  5
106A
 10
34.5061
 20
5.87895
 30
0.000000
  70
    32
  0
VERTEX
  8
FORM
  5
106B
 10
34.5044
 20
5.87437
 30
0.000000
  70
    32
  0
VERTEX
  8
FORM
  5
106C
 10
34.5028
 20
5.86978
 30
0.000000
  70
    32
  0
VERTEX
  8
FORM
  5
106D
 10
34.5012
 20
5.86520
 30
0.000000
  70
    32
  0
VERTEX
  8
FORM
  5
106E
 10
34.4998
 20
5.86063
 30
0.000000
  70
    32
  0
VERTEX
  8
FORM
  5
106F
 10
34.4985
 20
5.85608
 30
0.000000
  70
    32
  0
VERTEX
  8
FORM
  5
1070
 10
34.4973
 20
5.85158
 30
0.000000
  70
    32
  0
VERTEX
  8
FORM
  5
1071
 10
34.4963
 20
5.84712
 30
0.000000
  70
    32
  0
VERTEX
  8
FORM
  5
1072
 10
34.4953
 20
5.84272
 30
0.000000
  70
    32
  0
VERTEX
  8
FORM
  5
1073
 10
34.4945
 20
5.83838
 30
0.000000
  70
    32
  0
VERTEX
  8
FORM
  5
1074
 10
34.4938
 20
5.83413
 30
0.000000
  70
    32
  0
VERTEX
  8
FORM
  5
1075
 10
34.4933
 20
5.82997
 30
0.000000
  70
    32
  0
VERTEX
  8
FORM
  5
1076
 10
34.4929
 20
5.82591
 30
0.000000
  70
    32
  0
VERTEX
  8
FORM
  5
1077
 10
34.4926
 20
5.82195
 30
0.000000
  70
    32
  0
VERTEX
  8
FORM
  5
1078
 10
34.4924
 20
5.81812
 30
0.000000
  70
    32
  0
VERTEX
  8
FORM
  5
1079
 10
34.4924
 20
5.81442
 30
0.000000
  70
    32
  0
VERTEX
  8
FORM
  5
107A
 10
34.4925
 20
5.81085
 30
0.000000
  70
    32
  0
VERTEX
  8
FORM
  5
107B
 10
34.4928
 20
5.80743
 30
0.000000
  70
    32
  0
VERTEX
  8
FORM
  5
107C
 10
34.4931
 20
5.80416
 30
0.000000
  70
    32
  0
VERTEX
  8
FORM
  5
107D
 10
34.4937
 20
5.80105
 30
0.000000
  70
    32
  0
VERTEX
  8
FORM
  5
107E
 10
34.4943
 20
5.79812
 30
0.000000
  70
    32
  0
VERTEX
  8
FORM
  5
107F
 10
34.4951
 20
5.79536
 30
0.000000
  70
    32
  0
VERTEX
  8
FORM
  5
1080
 10
34.4960
 20
5.79278
 30
0.000000
  70
    32
  0
VERTEX
  8
FORM
  5
1081
 10
34.4970
 20
5.79039
 30
0.000000
  70
    32
  0
VERTEX
  8
FORM
  5
1082
 10
34.4981
 20
5.78820
 30
0.000000
  70
    32
  0
VERTEX
  8
FORM
  5
1083
 10
34.4994
 20
5.78621
 30
0.000000
  70
    32
  0
VERTEX
  8
FORM
  5
1084
 10
34.5008
 20
5.78443
 30
0.000000
  70
    32
  0
VERTEX
  8
FORM
  5
1085
 10
34.5023
 20
5.78285
 30
0.000000
  70
    32
  0
VERTEX
  8
FORM
  5
1086
 10
34.5039
 20
5.78149
 30
0.000000
  70
    32
  0
VERTEX
  8
FORM
  5
1087
 10
34.5056
 20
5.78034
 30
0.000000
  70
    32
  0
VERTEX
  8
FORM
  5
1088
 10
34.5074
 20
5.77941
 30
0.000000
  70
    32
  0
VERTEX
  8
FORM
  5
1089
 10
34.5093
 20
5.77871
 30
0.000000
  70
    32
  0
VERTEX
  8
FORM
  5
108A
 10
34.5113
 20
5.77823
 30
0.000000
  70
    32
  0
VERTEX
  8
FORM
  5
108B
 10
34.5134
 20
5.77797
 30
0.000000
  70
    32
  0
VERTEX
  8
FORM
  5
108C
 10
34.5155
 20
5.77794
 30
0.000000
  70
    32
  0
VERTEX
  8
FORM
  5
108D
 10
34.5178
 20
5.77813
 30
0.000000
  70
    32
  0
VERTEX
  8
FORM
  5
108E
 10
34.5201
 20
5.77855
 30
0.000000
  70
    32
  0
VERTEX
  8
FORM
  5
108F
 10
34.5225
 20
5.77919
 30
0.000000
  70
    32
  0
VERTEX
  8
FORM
  5
1090
 10
34.5249
 20
5.78005
 30
0.000000
  70
    32
  0
VERTEX
  8
FORM
  5
1091
 10
34.5274
 20
5.78114
 30
0.000000
  70
    32
  0
VERTEX
  8
FORM
  5
1092
 10
34.5300
 20
5.78244
 30
0.000000
  70
    32
  0
VERTEX
  8
FORM
  5
1093
 10
34.5326
 20
5.78395
 30
0.000000
  70
    32
  0
VERTEX
  8
FORM
  5
1094
 10
34.5352
 20
5.78568
 30
0.000000
  70
    32
  0
VERTEX
  8
FORM
  5
1095
 10
34.5379
 20
5.78761
 30
0.000000
  70
    32
  0
VERTEX
  8
FORM
  5
1096
 10
34.5406
 20
5.78975
 30
0.000000
  70
    32
  0
VERTEX
  8
FORM
  5
1097
 10
34.5433
 20
5.79208
 30
0.000000
  70
    32
  0
VERTEX
  8
FORM
  5
1098
 10
34.5460
 20
5.79460
 30
0.000000
  70
    32
  0
VERTEX
  8
FORM
  5
1099
 10
34.5487
 20
5.79731
 30
0.000000
  70
    32
  0
VERTEX
  8
FORM
  5
109A
 10
34.5514
 20
5.80020
 30
0.000000
  70
    32
  0
VERTEX
  8
FORM
  5
109B
 10
34.5541
 20
5.80325
 30
0.000000
  70
    32
  0
VERTEX
  8
FORM
  5
109C
 10
34.5568
 20
5.80648
 30
0.000000
  70
    32
  0
VERTEX
  8
FORM
  5
109D
 10
34.5595
 20
5.80985
 30
0.000000
  70
    32
  0
VERTEX
  8
FORM
  5
109E
 10
34.5621
 20
5.81338
 30
0.000000
  70
    32
  0
VERTEX
  8
FORM
  5
109F
 10
34.5647
 20
5.81705
 30
0.000000
  70
    32
  0
VERTEX
  8
FORM
  5
10A0
 10
34.5673
 20
5.82085
 30
0.000000
  70
    32
  0
VERTEX
  8
FORM
  5
10A1
 10
34.5698
 20
5.82477
 30
0.000000
  70
    32
  0
VERTEX
  8
FORM
  5
10A2
 10
34.5723
 20
5.82880
 30
0.000000
  70
    32
  0
VERTEX
  8
FORM
  5
10A3
 10
34.5747
 20
5.83293
 30
0.000000
  70
    32
  0
VERTEX
  8
FORM
  5
10A4
 10
34.5770
 20
5.83716
 30
0.000000
  70
    32
  0
VERTEX
  8
FORM
  5
10A5
 10
34.5793
 20
5.84147
 30
0.000000
  70
    32
  0
VERTEX
  8
FORM
  5
10A6
 10
34.5815
 20
5.84585
 30
0.000000
  70
    32
  0
VERTEX
  8
FORM
  5
10A7
 10
34.5836
 20
5.85030
 30
0.000000
  70
    32
  0
VERTEX
  8
FORM
  5
10A8
 10
34.5856
 20
5.85479
 30
0.000000
  70
    32
  0
VERTEX
  8
FORM
  5
10A9
 10
34.5876
 20
5.85932
 30
0.000000
  70
    32
  0
VERTEX
  8
FORM
  5
10AA
 10
34.5894
 20
5.86389
 30
0.000000
  70
    32
  0
VERTEX
  8
FORM
  5
10AB
 10
34.5912
 20
5.86847
 30
0.000000
  70
    32
  0
VERTEX
  8
FORM
  5
10AC
 10
34.5928
 20
5.87306
 30
0.000000
  70
    32
  0
VERTEX
  8
FORM
  5
10AD
 10
34.5943
 20
5.87764
 30
0.000000
  70
    32
  0
VERTEX
  8
FORM
  5
10AE
 10
34.5957
 20
5.88221
 30
0.000000
  70
    32
  0
VERTEX
  8
FORM
  5
10AF
 10
34.5970
 20
5.88676
 30
0.000000
  70
    32
  0
VERTEX
  8
FORM
  5
10B0
 10
34.5982
 20
5.89127
 30
0.000000
  70
    32
  0
VERTEX
  8
FORM
  5
10B1
 10
34.5993
 20
5.89572
 30
0.000000
  70
    32
  0
VERTEX
  8
FORM
  5
10B2
 10
34.6002
 20
5.90013
 30
0.000000
  70
    32
  0
VERTEX
  8
FORM
  5
10B3
 10
34.6010
 20
5.90446
 30
0.000000
  70
    32
  0
VERTEX
  8
FORM
  5
10B4
 10
34.6017
 20
5.90871
 30
0.000000
  70
    32
  0
VERTEX
  8
FORM
  5
10B5
 10
34.6023
 20
5.91287
 30
0.000000
  70
    32
  0
VERTEX
  8
FORM
  5
10B6
 10
34.6027
 20
5.91693
 30
0.000000
  70
    32
  0
VERTEX
  8
FORM
  5
10B7
 10
34.6030
 20
5.92089
 30
0.000000
  70
    32
  0
VERTEX
  8
FORM
  5
10B8
 10
34.6031
 20
5.92472
 30
0.000000
  70
    32
  0
VERTEX
  8
FORM
  5
10B9
 10
34.6031
 20
5.92842
 30
0.000000
  70
    32
  0
VERTEX
  8
FORM
  5
10BA
 10
34.6030
 20
5.93199
 30
0.000000
  70
    32
  0
VERTEX
  8
FORM
  5
10BB
 10
34.6028
 20
5.93541
 30
0.000000
  70
    32
  0
VERTEX
  8
FORM
  5
10BC
 10
34.6024
 20
5.93868
 30
0.000000
  70
    32
  0
VERTEX
  8
FORM
  5
10BD
 10
34.6019
 20
5.94179
 30
0.000000
  70
    32
  0
VERTEX
  8
FORM
  5
10BE
 10
34.6013
 20
5.94472
 30
0.000000
  70
    32
  0
VERTEX
  8
FORM
  5
10BF
 10
34.6005
 20
5.94748
 30
0.000000
  70
    32
  0
VERTEX
  8
FORM
  5
10C0
 10
34.5996
 20
5.95006
 30
0.000000
  70
    32
  0
VERTEX
  8
FORM
  5
10C1
 10
34.5986
 20
5.95245
 30
0.000000
  70
    32
  0
VERTEX
  8
FORM
  5
10C2
 10
34.5974
 20
5.95464
 30
0.000000
  70
    32
  0
VERTEX
  8
FORM
  5
10C3
 10
34.5962
 20
5.95663
 30
0.000000
  70
    32
  0
VERTEX
  8
FORM
  5
10C4
 10
34.5948
 20
5.95841
 30
0.000000
  70
    32
  0
VERTEX
  8
FORM
  5
10C5
 10
34.5933
 20
5.95999
 30
0.000000
  70
    32
  0
VERTEX
  8
FORM
  5
10C6
 10
34.5917
 20
5.96135
 30
0.000000
  70
    32
  0
VERTEX
  8
FORM
  5
10C7
 10
34.5900
 20
5.96250
 30
0.000000
  70
    32
  0
VERTEX
  8
FORM
  5
10C8
 10
34.5882
 20
5.96343
 30
0.000000
  70
    32
  0
SEQEND
  8
FORM
  5
10C9
  0
ARC
  5
D57
  8
FORM
 62
     7
 10
34.678422559705382
 20
5.6285689301790143
 30
0.0
 40
0.45030777473755
 50
85.485448269952457
 51
155.5006785655419
  0
TEXT
  5
D58
  8
FORM
 62
     7
 10
33.094000516163021
 20
3.2737730496354831
 30
0.0
 40
0.1764102564
  1
R2-D2 BUILDERS CLUB
  0
ARC
  5
D59
  8
FORM
 10
1.27380952375006
 20
1.2738095237500171
 30
0.0
 40
0.315018315
 50
180.0
 51
270.0
  0
ARC
  5
D5A
  8
FORM
 10
1.27380952375006
 20
1.2738095237500171
 30
0.0
 40
0.6300366300000001
 50
180.0
 51
270.0
  0
ARC
  5
D5B
  8
FORM
 10
1.27380952375006
 20
1.2738095237500171
 30
0.0
 40
0.7087912087500001
 50
180.0
 51
270.0
  0
ARC
  5
D5C
  8
FORM
 10
1.27380952375006
 20
1.2738095237500171
 30
0.0
 40
1.02380952375
 50
180.0
 51
270.0
  0
ARC
  5
D5D
  8
FORM
 10
1.27380952375006
 20
30.47619047625
 30
0.0
 40
1.02380952375
 50
90.0
 51
180.0
  0
ARC
  5
D5E
  8
FORM
 10
1.27380952375006
 20
30.47619047625
 30
0.0
 40
0.7087912087500001
 50
90.0
 51
180.0
  0
ARC
  5
D5F
  8
FORM
 10
1.27380952375006
 20
30.47619047625
 30
0.0
 40
0.6300366300000001
 50
90.0
 51
180.0
  0
ARC
  5
D60
  8
FORM
 10
1.27380952375006
 20
30.47619047625
 30
0.0
 40
0.315018315
 50
90.0
 51
180.0
  0
ARC
  5
D61
  8
FORM
 10
42.72619047375008
 20
30.47619047625
 30
0.0
 40
0.6300366300000001
 50
0.0
 51
90.0
  0
ARC
  5
D62
  8
FORM
 10
42.72619047375008
 20
30.47619047625
 30
0.0
 40
0.7087912087500001
 50
0.0
 51
90.0
  0
ARC
  5
D63
  8
FORM
 10
42.72619047375008
 20
30.47619047625
 30
0.0
 40
1.02380952375
 50
0.0
 51
90.0
  0
ARC
  5
D64
  8
FORM
 10
42.72619047375008
 20
30.47619047625
 30
0.0
 40
0.315018315
 50
0.0
 51
90.0
  0
ARC
  5
D65
  8
FORM
 10
42.72619047375008
 20
1.2738095237500171
 30
0.0
 40
1.02380952375
 50
270.0
 51
0.0
  0
ARC
  5
D66
  8
FORM
 10
42.72619047375008
 20
1.2738095237500171
 30
0.0
 40
0.7087912087500001
 50
270.0
 51
0.0
  0
ARC
  5
D67
  8
FORM
 10
42.72619047375008
 20
1.2738095237500171
 30
0.0
 40
0.6300366300000001
 50
270.0
 51
0.0
  0
ARC
  5
D68
  8
FORM
 10
42.72619047375008
 20
1.2738095237500171
 30
0.0
 40
0.315018315
 50
270.0
 51
0.0
  0
LINE
  5
D69
  8
FORM
 10
42.72619047375008
 20
0.643772893750036
 30
0.0
 11
1.27380952375006
 21
0.6437728937500183
 31
0.0
  0
LINE
  5
D6A
  8
FORM
 10
42.72619047375008
 20
0.5650183150000352
 30
0.0
 11
1.27380952375006
 21
0.5650183150000175
 31
0.0
  0
LINE
  5
D6B
  8
FORM
 10
42.72619047375008
 20
0.2500000000000178
 30
0.0
 11
1.27380952375006
 21
0.25
 31
0.0
  0
LINE
  5
D6C
  8
FORM
 10
43.356227103750079
 20
1.2738095237500171
 30
0.0
 11
43.356227103750079
 21
30.47619047625
 31
0.0
  0
LINE
  5
D6D
  8
FORM
 10
43.434981682500052
 20
1.2738095237500171
 30
0.0
 11
43.434981682500052
 21
30.47619047625
 31
0.0
  0
LINE
  5
D6E
  8
FORM
 10
43.749999997500083
 20
1.2738095237500171
 30
0.0
 11
43.749999997500083
 21
30.47619047625
 31
0.0
  0
LINE
  5
D6F
  8
FORM
 10
42.72619047375008
 20
31.10622710625
 30
0.0
 11
1.27380952375006
 21
31.10622710625
 31
0.0
  0
LINE
  5
D70
  8
FORM
 10
42.72619047375008
 20
31.184981685
 30
0.0
 11
1.27380952375006
 21
31.184981685
 31
0.0
  0
LINE
  5
D71
  8
FORM
 10
42.72619047375008
 20
31.5
 30
0.0
 11
1.27380952375006
 21
31.5
 31
0.0
  0
LINE
  5
D72
  8
FORM
 10
0.6437728937500538
 20
1.2738095237500171
 30
0.0
 11
0.6437728937500538
 21
30.47619047625
 31
0.0
  0
LINE
  5
D73
  8
FORM
 10
0.5650183150000601
 20
1.2738095237500171
 30
0.0
 11
0.5650183150000601
 21
30.47619047625
 31
0.0
  0
LINE
  5
D74
  8
FORM
 10
0.25
 20
1.2738095237500211
 30
0.0
 11
0.2500000000000568
 21
30.47619047625
 31
0.0
  0
LINE
  5
D75
  8
FORM
  6
CONTINUOUS
 10
33.416182507258391
 20
1.2738095237500171
 30
0.0
 11
42.265298990260362
 21
1.2738095237500171
 31
0.0
  0
LINE
  5
D76
  8
FORM
  6
CONTINUOUS
 10
42.72619047375008
 20
6.1592592487406881
 30
0.0
 11
42.72619047375008
 21
1.7347010072396991
 31
0.0
  0
ARC
  5
D77
  8
FORM
  6
CONTINUOUS
 10
42.265298990260362
 20
1.7347010072396991
 30
0.0
 40
0.460891483489685
 50
270.0
 51
0.0
  0
ARC
  5
D78
  8
FORM
  6
CONTINUOUS
 10
42.265298990260362
 20
6.1592592487406881
 30
0.0
 40
0.460891483489685
 50
359.99999999999989
 51
90.0
  0
ARC
  5
D79
  8
FORM
  6
CONTINUOUS
 10
33.416182507258391
 20
1.7347010072396991
 30
0.0
 40
0.460891483489685
 50
180.0
 51
270.0
  0
ARC
  5
D7A
  8
FORM
  6
CONTINUOUS
 10
33.416182507258391
 20
6.1592592487406881
 30
0.0
 40
0.460891483489685
 50
90.0
 51
180.0
  0
LINE
  5
D7B
  8
0
 10
0.0
 20
0.0
 30
0.0
 11
0.0
 21
34.0
 31
0.0
  0
LINE
  5
D7C
  8
0
 10
0.0
 20
0.0
 30
0.0
 11
44.0
 21
0.0
 31
0.0
  0
LINE
  5
D7D
  8
0
 10
0.0
 20
34.0
 30
0.0
 11
44.0
 21
34.0
 31
0.0
  0
LINE
  5
D7E
  8
0
 10
44.0
 20
0.0
 30
0.0
 11
44.0
 21
34.0
 31
0.0
  0
LINE
  5
1025
  8
0
 10
1.27380952375006
 20
1.2738095237500171
 30
0.0
 11
1.27380952375006
 21
2.2738095237500171
 31
0.0
  0
LINE
  5
1026
  8
0
 10
1.27380952375006
 20
1.3988095237500171
 30
0.0
 11
1.39880952375006
 21
1.3988095237500171
 31
0.0
  0
LINE
  5
1027
  8
0
 10
1.27380952375006
 20
1.5238095237500171
 30
0.0
 11
1.52380952375006
 21
1.5238095237500171
 31
0.0
  0
LINE
  5
1028
  8
0
 10
1.27380952375006
 20
1.6488095237500171
 30
0.0
 11
1.39880952375006
 21
1.6488095237500171
 31
0.0
  0
LINE
  5
1029
  8
0
 10
1.27380952375006
 20
1.7738095237500171
 30
0.0
 11
1.64880952375006
 21
1.7738095237500171
 31
0.0
  0
LINE
  5
102A
  8
0
 10
1.27380952375006
 20
1.8988095237500171
 30
0.0
 11
1.39880952375006
 21
1.8988095237500171
 31
0.0
  0
LINE
  5
102B
  8
0
 10
1.27380952375006
 20
2.0238095237500171
 30
0.0
 11
1.52380952375006
 21
2.0238095237500171
 31
0.0
  0
LINE
  5
102C
  8
0
 10
1.27380952375006
 20
2.1488095237500171
 30
0.0
 11
1.39880952375006
 21
2.1488095237500171
 31
0.0
  0
LINE
  5
102D
  8
0
 10
1.27380952375006
 20
2.2738095237500171
 30
0.0
 11
1.64880952375006
 21
2.2738095237500171
 31
0.0
  0
LINE
  5
102E
  8
0
 10
1.27380952375006
 20
1.2738095237500171
 30
0.0
 11
1.64880952375006
 21
1.2738095237500171
 31
0.0
  0
TEXT
  5
102F
  8
0
 10
1.698078297376497
 20
1.740768962749534
 30
0.0
 40
0.0625
  1
1/2"
  0
TEXT
  5
1030
  8
0
 10
1.448078297376497
 20
1.615768962749534
 30
0.0
 40
0.0625
  1
3/8"
  0
TEXT
  5
1031
  8
0
 10
1.573078297376497
 20
1.490768962749534
 30
0.0
 40
0.0625
  1
1/4"
  0
TEXT
  5
1032
  8
0
 10
1.448078297376497
 20
1.365768962749534
 30
0.0
 40
0.0625
  1
1/8"
  0
TEXT
  5
1033
  8
0
 10
1.448078297376497
 20
1.865768962749534
 30
0.0
 40
0.0625
  1
5/8"
  0
TEXT
  5
1034
  8
0
 10
1.573078297376497
 20
1.990768962749534
 30
0.0
 40
0.0625
  1
3/4"
  0
TEXT
  5
1035
  8
0
 10
1.448078297376497
 20
2.115768962749534
 30
0.0
 40
0.0625
  1
7/8"
  0
TEXT
  5
1036
  8
0
 10
1.698078297376497
 20
2.240768962749534
 30
0.0
 40
0.0625
  1
1"
  0
ENDSEC
  0
EOF
