  0
SECTION
  2
HEADER
  9
$ACADVER
  1
AC1009
  9
$DWGCODEPAGE
  3
ansi_1252
  9
$INSBASE
 10
0.0
 20
0.0
 30
0.0
  9
$EXTMIN
 10
-3.84375253474126
 20
-1.31250844509231
 30
0.0
  9
$EXTMAX
 10
3.84375253474126
 20
1.31250854474962
 30
0.0
  9
$LIMMIN
 10
0.0
 20
0.0
  9
$LIMMAX
 10
12.0
 20
9.0
  9
$ORTHOMODE
 70
     0
  9
$REGENMODE
 70
     1
  9
$FILLMODE
 70
     1
  9
$QTEXTMODE
 70
     0
  9
$MIRRTEXT
 70
     1
  9
$DRAGMODE
 70
     2
  9
$LTSCALE
 40
0.0393700787401575
  9
$OSMODE
 70
    37
  9
$ATTMODE
 70
     1
  9
$TEXTSIZE
 40
0.2
  9
$TRACEWID
 40
0.05
  9
$TEXTSTYLE
  7
STANDARD
  9
$CLAYER
  8
0
  9
$CELTYPE
  6
BYLAYER
  9
$CECOLOR
 62
   256
  9
$DIMSCALE
 40
1.0
  9
$DIMASZ
 40
0.18
  9
$DIMEXO
 40
0.0625
  9
$DIMDLI
 40
0.38
  9
$DIMRND
 40
0.0
  9
$DIMDLE
 40
0.0
  9
$DIMEXE
 40
0.18
  9
$DIMTP
 40
0.0
  9
$DIMTM
 40
0.0
  9
$DIMTXT
 40
0.18
  9
$DIMCEN
 40
0.09
  9
$DIMTSZ
 40
0.0
  9
$DIMTOL
 70
     0
  9
$DIMLIM
 70
     0
  9
$DIMTIH
 70
     1
  9
$DIMTOH
 70
     1
  9
$DIMSE1
 70
     0
  9
$DIMSE2
 70
     0
  9
$DIMTAD
 70
     0
  9
$DIMZIN
 70
     0
  9
$DIMBLK
  1

  9
$DIMASO
 70
     1
  9
$DIMSHO
 70
     1
  9
$DIMPOST
  1

  9
$DIMAPOST
  1

  9
$DIMALT
 70
     0
  9
$DIMALTD
 70
     2
  9
$DIMALTF
 40
25.4
  9
$DIMLFAC
 40
1.0
  9
$DIMTOFL
 70
     0
  9
$DIMTVP
 40
0.0
  9
$DIMTIX
 70
     0
  9
$DIMSOXD
 70
     0
  9
$DIMSAH
 70
     0
  9
$DIMBLK1
  1

  9
$DIMBLK2
  1

  9
$DIMSTYLE
  2
STANDARD
  9
$DIMCLRD
 70
     0
  9
$DIMCLRE
 70
     0
  9
$DIMCLRT
 70
     0
  9
$DIMTFAC
 40
1.0
  9
$DIMGAP
 40
0.09
  9
$LUNITS
 70
     2
  9
$LUPREC
 70
     3
  9
$SKETCHINC
 40
0.1
  9
$FILLETRAD
 40
0.5
  9
$AUNITS
 70
     0
  9
$AUPREC
 70
     0
  9
$MENU
  1
.
  9
$ELEVATION
 40
0.0
  9
$PELEVATION
 40
0.0
  9
$THICKNESS
 40
0.0
  9
$LIMCHECK
 70
     0
  9
$CHAMFERA
 40
0.5
  9
$CHAMFERB
 40
0.5
  9
$SKPOLY
 70
     0
  9
$TDCREATE
 40
2456784.471172905
  9
$TDUPDATE
 40
2456784.471172917
  9
$TDINDWG
 40
0.0000000116
  9
$TDUSRTIMER
 40
0.0000000116
  9
$USRTIMER
 70
     1
  9
$ANGBASE
 50
0.0
  9
$ANGDIR
 70
     0
  9
$PDMODE
 70
     0
  9
$PDSIZE
 40
0.0
  9
$PLINEWID
 40
0.0
  9
$COORDS
 70
     1
  9
$SPLFRAME
 70
     0
  9
$SPLINETYPE
 70
     6
  9
$SPLINESEGS
 70
     8
  9
$ATTDIA
 70
     0
  9
$ATTREQ
 70
     1
  9
$HANDLING
 70
     1
  9
$HANDSEED
  5
8F
  9
$SURFTAB1
 70
     6
  9
$SURFTAB2
 70
     6
  9
$SURFTYPE
 70
     6
  9
$SURFU
 70
     6
  9
$SURFV
 70
     6
  9
$UCSNAME
  2

  9
$UCSORG
 10
0.0
 20
0.0
 30
0.0
  9
$UCSXDIR
 10
1.0
 20
0.0
 30
0.0
  9
$UCSYDIR
 10
0.0
 20
1.0
 30
0.0
  9
$PUCSNAME
  2

  9
$PUCSORG
 10
0.0
 20
0.0
 30
0.0
  9
$PUCSXDIR
 10
1.0
 20
0.0
 30
0.0
  9
$PUCSYDIR
 10
0.0
 20
1.0
 30
0.0
  9
$USERI1
 70
     0
  9
$USERI2
 70
     0
  9
$USERI3
 70
     0
  9
$USERI4
 70
     0
  9
$USERI5
 70
     0
  9
$USERR1
 40
0.0
  9
$USERR2
 40
0.0
  9
$USERR3
 40
0.0
  9
$USERR4
 40
0.0
  9
$USERR5
 40
0.0
  9
$WORLDVIEW
 70
     1
  9
$SHADEDGE
 70
     3
  9
$SHADEDIF
 70
    70
  9
$TILEMODE
 70
     1
  9
$MAXACTVP
 70
    64
  9
$PLIMCHECK
 70
     0
  9
$PEXTMIN
 10
1.000000000000000E+20
 20
1.000000000000000E+20
 30
1.000000000000000E+20
  9
$PEXTMAX
 10
-1.000000000000000E+20
 20
-1.000000000000000E+20
 30
-1.000000000000000E+20
  9
$PLIMMIN
 10
0.0
 20
0.0
  9
$PLIMMAX
 10
12.0
 20
9.0
  9
$UNITMODE
 70
     0
  9
$VISRETAIN
 70
     1
  9
$PLINEGEN
 70
     0
  9
$PSLTSCALE
 70
     1
  0
ENDSEC
  0
SECTION
  2
TABLES
  0
TABLE
  2
VPORT
 70
     1
  0
VPORT
  2
*ACTIVE
 70
     0
 10
0.0
 20
0.0
 11
1.0
 21
1.0
 12
0.0
 22
0.000000049828655
 13
0.0
 23
0.0
 14
0.5
 24
0.5
 15
0.5
 25
0.5
 16
0.0
 26
0.0
 36
1.0
 17
0.0
 27
0.0
 37
0.0
 40
2.677517329638768
 41
2.928554405259464
 42
50.0
 43
0.0
 44
0.0
 50
0.0
 51
0.0
 71
     0
 72
   100
 73
     1
 74
     3
 75
     0
 76
     0
 77
     0
 78
     0
  0
ENDTAB
  0
TABLE
  2
LTYPE
 70
     1
  0
LTYPE
  2
CONTINUOUS
 70
     0
  3
Solid line
 72
    65
 73
     0
 40
0.0
  0
ENDTAB
  0
TABLE
  2
LAYER
 70
     2
  0
LAYER
  2
0
 70
     0
 62
     7
  6
CONTINUOUS
  0
LAYER
  2
IGES_LEVEL_0
 70
     0
 62
     7
  6
CONTINUOUS
  0
ENDTAB
  0
TABLE
  2
STYLE
 70
     1
  0
STYLE
  2
STANDARD
 70
     0
 40
0.0
 41
1.0
 50
0.0
 71
     0
 42
0.2
  3
txt
  4

  0
ENDTAB
  0
TABLE
  2
VIEW
 70
     0
  0
ENDTAB
  0
TABLE
  2
UCS
 70
     0
  0
ENDTAB
  0
TABLE
  2
APPID
 70
     1
  0
APPID
  2
ACAD
 70
     0
  0
ENDTAB
  0
TABLE
  2
DIMSTYLE
 70
     1
  0
DIMSTYLE
  2
STANDARD
 70
     0
  3

  4

  5

  6

  7

 40
1.0
 41
0.18
 42
0.0625
 43
0.38
 44
0.18
 45
0.0
 46
0.0
 47
0.0
 48
0.0
140
0.18
141
0.09
142
0.0
143
25.4
144
1.0
145
0.0
146
1.0
147
0.09
 71
     0
 72
     0
 73
     1
 74
     1
 75
     0
 76
     0
 77
     0
 78
     0
170
     0
171
     2
172
     0
173
     0
174
     0
175
     0
176
     0
177
     0
178
     0
  0
ENDTAB
  0
ENDSEC
  0
SECTION
  2
BLOCKS
  0
BLOCK
  8
0
  2
$MODEL_SPACE
 70
     0
 10
0.0
 20
0.0
 30
0.0
  3
$MODEL_SPACE
  1

  0
ENDBLK
  5
21
  8
0
  0
BLOCK
 67
     1
  8
0
  2
$PAPER_SPACE
 70
     0
 10
0.0
 20
0.0
 30
0.0
  3
$PAPER_SPACE
  1

  0
ENDBLK
  5
1D
 67
     1
  8
0
  0
ENDSEC
  0
SECTION
  2
ENTITIES
  0
ARC
  5
3C
  8
IGES_LEVEL_0
 10
0.46875037093774
 20
-0.4687611277417
 30
0.0
 40
0.0937499999999995
 50
269.9999634548022
 51
0.0
  0
LINE
  5
3D
  8
IGES_LEVEL_0
 10
-1.40625092734437
 20
-0.56250993180216
 30
0.0
 11
0.46875031114081
 21
-0.56251112774168
 31
0.0
  0
LINE
  5
3E
  8
IGES_LEVEL_0
 10
-1.40625092734437
 20
-0.84376011727109
 30
0.0
 11
-1.40625092734437
 21
-0.56250993180216
 31
0.0
  0
LINE
  5
3F
  8
IGES_LEVEL_0
 10
0.46875031721887
 20
-0.84376131321062
 30
0.0
 11
-1.40625092734437
 21
-0.84376011727109
 31
0.0
  0
ARC
  5
40
  8
IGES_LEVEL_0
 10
0.46875055640662
 20
-0.46876131321069
 30
0.0
 40
0.3749999999999981
 50
269.9999634548038
 51
0.0
  0
LINE
  5
41
  8
IGES_LEVEL_0
 10
0.84375055640662
 20
-0.2343774005701
 30
0.0
 11
0.84375055640662
 21
-0.46876131321069
 31
0.0
  0
ARC
  5
42
  8
IGES_LEVEL_0
 10
0.46875055640662
 20
-0.2343774005701
 30
0.0
 40
0.375
 50
0.0000000000000127
 51
90.00000000000001
  0
LINE
  5
43
  8
IGES_LEVEL_0
 10
-1.0312507418755
 20
0.1406225994299
 30
0.0
 11
0.46875055640662
 21
0.1406225994299
 31
0.0
  0
ARC
  5
44
  8
IGES_LEVEL_0
 10
-1.0312507418755
 20
0.2343725994299
 30
0.0
 40
0.09375
 50
180.0
 51
270.0
  0
LINE
  5
45
  8
IGES_LEVEL_0
 10
-1.1250007418755
 20
0.46875805016596
 30
0.0
 11
-1.1250007418755
 21
0.2343725994299
 31
0.0
  0
ARC
  5
46
  8
IGES_LEVEL_0
 10
-1.0312507418755
 20
0.46875805016596
 30
0.0
 40
0.09375
 50
90.0
 51
180.0
  0
LINE
  5
47
  8
IGES_LEVEL_0
 10
0.84375055640662
 20
0.56250805016596
 30
0.0
 11
-1.0312507418755
 21
0.56250805016596
 31
0.0
  0
LINE
  5
48
  8
IGES_LEVEL_0
 10
0.84375055640662
 20
0.84375823563483
 30
0.0
 11
0.84375055640662
 21
0.56250805016596
 31
0.0
  0
LINE
  5
49
  8
IGES_LEVEL_0
 10
-1.03125092734437
 20
0.84375823563483
 30
0.0
 11
0.84375055640662
 21
0.84375823563483
 31
0.0
  0
ARC
  5
4A
  8
IGES_LEVEL_0
 10
-1.03125092734437
 20
0.46875823563483
 30
0.0
 40
0.375
 50
90.0
 51
180.0
  0
LINE
  5
4B
  8
IGES_LEVEL_0
 10
-1.40625092734437
 20
0.23437241396103
 30
0.0
 11
-1.40625092734437
 21
0.46875823563483
 31
0.0
  0
ARC
  5
4C
  8
IGES_LEVEL_0
 10
-1.03125092734437
 20
0.23437241396103
 30
0.0
 40
0.375
 50
180.0
 51
270.0
  0
LINE
  5
4D
  8
IGES_LEVEL_0
 10
0.56250037093774
 20
-0.4687611277417
 30
0.0
 11
0.56250037093774
 21
-0.23437758603897
 31
0.0
  0
ARC
  5
4E
  8
IGES_LEVEL_0
 10
0.46875037093774
 20
-0.23437758603897
 30
0.0
 40
0.09375
 50
0.0
 51
90.0
  0
LINE
  5
4F
  8
IGES_LEVEL_0
 10
0.46875037093774
 20
-0.14062758603897
 30
0.0
 11
-1.03125092734437
 21
-0.14062758603897
 31
0.0
  0
ARC
  5
50
  8
IGES_LEVEL_0
 10
1.96875123645915
 20
-0.23437686847526
 30
0.0
 40
0.09375
 50
90.0
 51
180.0
  0
LINE
  5
51
  8
IGES_LEVEL_0
 10
2.25002135970437
 20
-0.14062686847526
 30
0.0
 11
1.96875123645915
 21
-0.14062686847526
 31
0.0
  0
LINE
  5
52
  8
IGES_LEVEL_0
 10
3.28383088291601
 20
-0.78676137700353
 30
0.0
 11
2.25002135970437
 21
-0.14062686847526
 31
0.0
  0
ARC
  5
53
  8
IGES_LEVEL_0
 10
3.48258127210074
 20
-0.46876250468019
 30
0.0
 40
0.3750000000000026
 50
237.9944750504972
 51
270.0
  0
LINE
  5
54
  8
IGES_LEVEL_0
 10
3.84375253474126
 20
-0.84376250468019
 30
0.0
 11
3.48258127210074
 21
-0.84376250468019
 31
0.0
  0
LINE
  5
55
  8
IGES_LEVEL_0
 10
3.84375253474126
 20
-0.56251231921131
 30
0.0
 11
3.84375253474126
 21
-0.84376250468019
 31
0.0
  0
LINE
  5
56
  8
IGES_LEVEL_0
 10
3.482566574451
 20
-0.56251231921131
 30
0.0
 11
3.84375253474126
 21
-0.56251231921131
 31
0.0
  0
ARC
  5
57
  8
IGES_LEVEL_0
 10
3.482566574451
 20
-0.46881231921131
 30
0.0
 40
0.0936999999999985
 50
237.9944750504963
 51
270.0
  0
LINE
  5
58
  8
IGES_LEVEL_0
 10
2.78068063692291
 20
-0.14062686847526
 30
0.0
 11
3.43290547720671
 21
-0.54826963744251
 31
0.0
  0
LINE
  5
59
  8
IGES_LEVEL_0
 10
3.46875253474126
 20
-0.14062686847526
 30
0.0
 11
2.78068063692291
 21
-0.14062686847526
 31
0.0
  0
ARC
  5
5A
  8
IGES_LEVEL_0
 10
3.46875253474126
 20
0.23437313152474
 30
0.0
 40
0.375
 50
270.0
 51
0.0
  0
LINE
  5
5B
  8
IGES_LEVEL_0
 10
3.84375253474126
 20
0.46875548944396
 30
0.0
 11
3.84375253474126
 21
0.23437313152474
 31
0.0
  0
ARC
  5
5C
  8
IGES_LEVEL_0
 10
3.46875253474126
 20
0.46875548944396
 30
0.0
 40
0.3749999999999981
 50
0.000000000000017
 51
90.00003654519625
  0
LINE
  5
5D
  8
IGES_LEVEL_0
 10
1.59375105099028
 20
0.84375429350436
 30
0.0
 11
3.46875229555351
 21
0.84375548944389
 31
0.0
  0
LINE
  5
5E
  8
IGES_LEVEL_0
 10
1.59375105099028
 20
0.56250410803543
 30
0.0
 11
1.59375105099028
 21
0.84375429350436
 31
0.0
  0
LINE
  5
5F
  8
IGES_LEVEL_0
 10
3.46875228947545
 20
0.56250530397495
 30
0.0
 11
1.59375105099028
 21
0.56250410803543
 31
0.0
  0
ARC
  5
60
  8
IGES_LEVEL_0
 10
3.46875234927239
 20
0.46875530397497
 30
0.0
 40
0.0937499999999995
 50
0.0
 51
90.00003654519767
  0
LINE
  5
61
  8
IGES_LEVEL_0
 10
3.56250234927239
 20
0.23437331699362
 30
0.0
 11
3.56250234927239
 21
0.46875530397497
 31
0.0
  0
ARC
  5
62
  8
IGES_LEVEL_0
 10
3.46875234927239
 20
0.23437331699362
 30
0.0
 40
0.09375
 50
270.0
 51
0.0
  0
LINE
  5
63
  8
IGES_LEVEL_0
 10
1.96875105099028
 20
0.14062331699362
 30
0.0
 11
3.46875234927239
 21
0.14062331699362
 31
0.0
  0
ARC
  5
64
  8
IGES_LEVEL_0
 10
1.96875105099028
 20
-0.23437668300638
 30
0.0
 40
0.375
 50
90.0
 51
180.0
  0
LINE
  5
65
  8
IGES_LEVEL_0
 10
1.59375105099027
 20
-0.84376250468019
 30
0.0
 11
1.59375105099028
 21
-0.23437668300638
 31
0.0
  0
LINE
  5
66
  8
IGES_LEVEL_0
 10
1.87500123645915
 20
-0.84376250468019
 30
0.0
 11
1.59375105099027
 21
-0.84376250468019
 31
0.0
  0
LINE
  5
67
  8
IGES_LEVEL_0
 10
1.87500123645915
 20
-0.23437686847526
 30
0.0
 11
1.87500123645915
 21
-0.84376250468019
 31
0.0
  0
LINE
  5
68
  8
IGES_LEVEL_0
 10
3.84375253474126
 20
1.31250854474962
 30
0.0
 11
3.84375253474126
 21
1.03125835928075
 31
0.0
  0
LINE
  5
69
  8
IGES_LEVEL_0
 10
-3.84375253474126
 20
1.31250854474962
 30
0.0
 11
3.84375253474126
 21
1.31250854474962
 31
0.0
  0
LINE
  5
6A
  8
IGES_LEVEL_0
 10
-3.84375253474126
 20
1.03125835928075
 30
0.0
 11
-3.84375253474126
 21
1.31250854474962
 31
0.0
  0
LINE
  5
6B
  8
IGES_LEVEL_0
 10
3.84375253474126
 20
1.03125835928075
 30
0.0
 11
-3.84375253474126
 21
1.03125835928075
 31
0.0
  0
LINE
  5
6C
  8
IGES_LEVEL_0
 10
-3.84375253474126
 20
-1.03126334588981
 30
0.0
 11
3.84375253474126
 21
-1.03126334588981
 31
0.0
  0
LINE
  5
6D
  8
IGES_LEVEL_0
 10
-3.84375253474126
 20
-1.31250844509231
 30
0.0
 11
-3.84375253474126
 21
-1.03126334588981
 31
0.0
  0
LINE
  5
6E
  8
IGES_LEVEL_0
 10
3.84375253474126
 20
-1.31250844509231
 30
0.0
 11
-3.84375253474126
 21
-1.31250844509231
 31
0.0
  0
LINE
  5
6F
  8
IGES_LEVEL_0
 10
3.84375253474126
 20
-1.03126334588981
 30
0.0
 11
3.84375253474126
 21
-1.31250844509231
 31
0.0
  0
LINE
  5
70
  8
IGES_LEVEL_0
 10
1.03125055640662
 20
0.56250805016597
 30
0.0
 11
1.03125055640662
 21
0.84375823563484
 31
0.0
  0
LINE
  5
71
  8
IGES_LEVEL_0
 10
1.40625105099029
 20
0.56250805016597
 30
0.0
 11
1.03125055640662
 21
0.56250805016597
 31
0.0
  0
LINE
  5
72
  8
IGES_LEVEL_0
 10
1.40625105099029
 20
0.84375823563484
 30
0.0
 11
1.40625105099029
 21
0.56250805016597
 31
0.0
  0
LINE
  5
73
  8
IGES_LEVEL_0
 10
1.03125055640662
 20
0.84375823563484
 30
0.0
 11
1.40625105099029
 21
0.84375823563484
 31
0.0
  0
LINE
  5
74
  8
IGES_LEVEL_0
 10
1.03125055640662
 20
-0.8437632222439
 30
0.0
 11
1.03125055640662
 21
-0.56251303677503
 31
0.0
  0
LINE
  5
75
  8
IGES_LEVEL_0
 10
1.40625105099029
 20
-0.8437632222439
 30
0.0
 11
1.03125055640662
 21
-0.8437632222439
 31
0.0
  0
LINE
  5
76
  8
IGES_LEVEL_0
 10
1.40625105099029
 20
-0.56251303677503
 30
0.0
 11
1.40625105099029
 21
-0.8437632222439
 31
0.0
  0
LINE
  5
77
  8
IGES_LEVEL_0
 10
1.03125055640662
 20
-0.56251303677503
 30
0.0
 11
1.40625105099029
 21
-0.56251303677503
 31
0.0
  0
LINE
  5
78
  8
IGES_LEVEL_0
 10
-1.59375105099028
 20
-0.46876382244871
 30
0.0
 11
-1.59375105099028
 21
-0.35157035165231
 31
0.0
  0
LINE
  5
79
  8
IGES_LEVEL_0
 10
-1.59375105099028
 20
-0.35157035165231
 30
0.0
 11
-1.87500426770243
 21
-0.35156959384328
 31
0.0
  0
LINE
  5
7A
  8
IGES_LEVEL_0
 10
-1.87500426770243
 20
-0.35156959384328
 30
0.0
 11
-1.87500426770243
 21
-0.46876363250981
 31
0.0
  0
ARC
  5
7B
  8
IGES_LEVEL_0
 10
-1.96875426770243
 20
-0.46876363250981
 30
0.0
 40
0.09375
 50
270.0
 51
0.0
  0
LINE
  5
7C
  8
IGES_LEVEL_0
 10
-1.96875426770243
 20
-0.56251363250981
 30
0.0
 11
-3.46875234927239
 21
-0.56251363250981
 31
0.0
  0
ARC
  5
7D
  8
IGES_LEVEL_0
 10
-3.46875234927239
 20
-0.46876363250981
 30
0.0
 40
0.09375
 50
180.0
 51
270.0
  0
LINE
  5
7E
  8
IGES_LEVEL_0
 10
-3.56250234927239
 20
-0.46876363250981
 30
0.0
 11
-3.56250234927239
 21
0.46875618975201
 31
0.0
  0
ARC
  5
7F
  8
IGES_LEVEL_0
 10
-3.46875234927239
 20
0.46875618975201
 30
0.0
 40
0.0937500000000002
 50
89.99984562217838
 51
180.0
  0
LINE
  5
80
  8
IGES_LEVEL_0
 10
-3.46875209667227
 20
0.56250618975167
 30
0.0
 11
-1.96875098385903
 21
0.56250214814676
 31
0.0
  0
ARC
  5
81
  8
IGES_LEVEL_0
 10
-1.96875123645915
 20
0.4687521481471
 30
0.0
 40
0.0937500000000002
 50
0.0
 51
89.99984562217838
  0
LINE
  5
82
  8
IGES_LEVEL_0
 10
-1.87500123645915
 20
0.4687521481471
 30
0.0
 11
-1.87500123645915
 21
0.35156532479793
 31
0.0
  0
LINE
  5
83
  8
IGES_LEVEL_0
 10
-1.87500123645915
 20
0.35156532479793
 30
0.0
 11
-1.59375105099028
 21
0.35156532479793
 31
0.0
  0
LINE
  5
84
  8
IGES_LEVEL_0
 10
-1.59375105099028
 20
0.35156532479793
 30
0.0
 11
-1.59375105099028
 21
0.46875763990005
 31
0.0
  0
ARC
  5
85
  8
IGES_LEVEL_0
 10
-1.96875105099028
 20
0.46875763990005
 30
0.0
 40
0.375
 50
0.0
 51
90.0
  0
LINE
  5
86
  8
IGES_LEVEL_0
 10
-1.96875105099028
 20
0.84375763990005
 30
0.0
 11
-3.46875253474126
 21
0.84375763990005
 31
0.0
  0
ARC
  5
87
  8
IGES_LEVEL_0
 10
-3.46875253474126
 20
0.46875763990005
 30
0.0
 40
0.375
 50
90.0
 51
180.0
  0
LINE
  5
88
  8
IGES_LEVEL_0
 10
-3.84375253474126
 20
0.46875763990005
 30
0.0
 11
-3.84375253474126
 21
-0.46876286569678
 31
0.0
  0
ARC
  5
89
  8
IGES_LEVEL_0
 10
-3.46875253474126
 20
-0.46876286569678
 30
0.0
 40
0.3749999999999981
 50
180.0
 51
269.9999634548038
  0
LINE
  5
8A
  8
IGES_LEVEL_0
 10
-3.46875277392901
 20
-0.8437628656967
 30
0.0
 11
-1.96875129017802
 21
-0.84376382244864
 31
0.0
  0
ARC
  5
8B
  8
IGES_LEVEL_0
 10
-1.96875105099028
 20
-0.46876382244871
 30
0.0
 40
0.3749999999999981
 50
269.9999634548053
 51
0.0
  0
ENDSEC
  0
EOF
