  0
SECTION
  2
HEADER
  9
$ACADVER
  1
AC1009
  9
$INSBASE
 10
0.0
 20
0.0
 30
0.0
  9
$EXTMIN
 10
0.0
 20
0.0
 30
0.0
  9
$EXTMAX
 10
22.0
 20
17.0
 30
0.0
  9
$LIMMIN
 10
0.0
 20
0.0
  9
$LIMMAX
 10
12.0
 20
9.0
  9
$ORTHOMODE
 70
     0
  9
$REGENMODE
 70
     1
  9
$FILLMODE
 70
     1
  9
$QTEXTMODE
 70
     0
  9
$MIRRTEXT
 70
     1
  9
$DRAGMODE
 70
     2
  9
$LTSCALE
 40
1.0
  9
$OSMODE
 70
    39
  9
$ATTMODE
 70
     1
  9
$TEXTSIZE
 40
0.1875
  9
$TRACEWID
 40
0.05
  9
$TEXTSTYLE
  7
STANDARD
  9
$CLAYER
  8
0
  9
$CELTYPE
  6
BYLAYER
  9
$CECOLOR
 62
   256
  9
$DIMSCALE
 40
1.0
  9
$DIMASZ
 40
0.25
  9
$DIMEXO
 40
0.0625
  9
$DIMDLI
 40
1.0
  9
$DIMRND
 40
0.0
  9
$DIMDLE
 40
0.0
  9
$DIMEXE
 40
0.0625
  9
$DIMTP
 40
0.0
  9
$DIMTM
 40
0.0
  9
$DIMTXT
 40
0.25
  9
$DIMCEN
 40
0.0
  9
$DIMTSZ
 40
0.0
  9
$DIMTOL
 70
     0
  9
$DIMLIM
 70
     0
  9
$DIMTIH
 70
     1
  9
$DIMTOH
 70
     1
  9
$DIMSE1
 70
     0
  9
$DIMSE2
 70
     0
  9
$DIMTAD
 70
     0
  9
$DIMZIN
 70
     0
  9
$DIMBLK
  1

  9
$DIMASO
 70
     1
  9
$DIMSHO
 70
     1
  9
$DIMPOST
  1

  9
$DIMAPOST
  1

  9
$DIMALT
 70
     0
  9
$DIMALTD
 70
     2
  9
$DIMALTF
 40
25.399999999999999
  9
$DIMLFAC
 40
1.0
  9
$DIMTOFL
 70
     0
  9
$DIMTVP
 40
0.0
  9
$DIMTIX
 70
     0
  9
$DIMSOXD
 70
     0
  9
$DIMSAH
 70
     0
  9
$DIMBLK1
  1

  9
$DIMBLK2
  1

  9
$DIMSTYLE
  2
STANDARD
  9
$DIMCLRD
 70
   256
  9
$DIMCLRE
 70
   256
  9
$DIMCLRT
 70
   256
  9
$DIMTFAC
 40
1.0
  9
$DIMGAP
 40
0.0625
  9
$LUNITS
 70
     2
  9
$LUPREC
 70
     8
  9
$SKETCHINC
 40
0.1
  9
$FILLETRAD
 40
0.05
  9
$AUNITS
 70
     0
  9
$AUPREC
 70
     0
  9
$MENU
  1
.
  9
$ELEVATION
 40
0.0
  9
$PELEVATION
 40
0.0
  9
$THICKNESS
 40
0.0
  9
$LIMCHECK
 70
     0
  9
$BLIPMODE
 70
     0
  9
$CHAMFERA
 40
0.0
  9
$CHAMFERB
 40
0.0
  9
$SKPOLY
 70
     0
  9
$TDCREATE
 40
2452227.898066666
  9
$TDUPDATE
 40
2453462.4904762958
  9
$TDINDWG
 40
1.9341271644
  9
$TDUSRTIMER
 40
1.9341265856000001
  9
$USRTIMER
 70
     1
  9
$ANGBASE
 50
0.0
  9
$ANGDIR
 70
     0
  9
$PDMODE
 70
     0
  9
$PDSIZE
 40
0.0
  9
$PLINEWID
 40
0.0
  9
$COORDS
 70
     0
  9
$SPLFRAME
 70
     0
  9
$SPLINETYPE
 70
     6
  9
$SPLINESEGS
 70
     8
  9
$ATTDIA
 70
     0
  9
$ATTREQ
 70
     1
  9
$HANDLING
 70
     1
  9
$HANDSEED
  5
F58
  9
$SURFTAB1
 70
     6
  9
$SURFTAB2
 70
     6
  9
$SURFTYPE
 70
     6
  9
$SURFU
 70
     6
  9
$SURFV
 70
     6
  9
$UCSNAME
  2

  9
$UCSORG
 10
0.0
 20
0.0
 30
0.0
  9
$UCSXDIR
 10
1.0
 20
0.0
 30
0.0
  9
$UCSYDIR
 10
0.0
 20
1.0
 30
0.0
  9
$PUCSNAME
  2

  9
$PUCSORG
 10
0.0
 20
0.0
 30
0.0
  9
$PUCSXDIR
 10
1.0
 20
0.0
 30
0.0
  9
$PUCSYDIR
 10
0.0
 20
1.0
 30
0.0
  9
$USERI1
 70
     0
  9
$USERI2
 70
     0
  9
$USERI3
 70
     0
  9
$USERI4
 70
     0
  9
$USERI5
 70
     0
  9
$USERR1
 40
0.0
  9
$USERR2
 40
0.0
  9
$USERR3
 40
0.0
  9
$USERR4
 40
0.0
  9
$USERR5
 40
0.0
  9
$WORLDVIEW
 70
     1
  9
$SHADEDGE
 70
     3
  9
$SHADEDIF
 70
    70
  9
$TILEMODE
 70
     1
  9
$MAXACTVP
 70
    64
  9
$PLIMCHECK
 70
     0
  9
$PEXTMIN
 10
1.0000000000000000E+020
 20
1.0000000000000000E+020
 30
1.0000000000000000E+020
  9
$PEXTMAX
 10
-1.0000000000000000E+020
 20
-1.0000000000000000E+020
 30
-1.0000000000000000E+020
  9
$PLIMMIN
 10
0.0
 20
0.0
  9
$PLIMMAX
 10
12.0
 20
9.0
  9
$UNITMODE
 70
     0
  9
$VISRETAIN
 70
     1
  9
$PLINEGEN
 70
     0
  9
$PSLTSCALE
 70
     1
  0
ENDSEC
  0
SECTION
  2
TABLES
  0
TABLE
  2
VPORT
 70
     2
  0
VPORT
  2
*ACTIVE
 70
     0
 10
0.0
 20
0.0
 11
1.0
 21
1.0
 12
10.9964516645638
 22
8.5002777299577001
 13
0.0
 23
0.0
 14
0.5
 24
0.5
 15
0.5
 25
0.5
 16
0.0
 26
0.0
 36
1.0
 17
0.0
 27
0.0
 37
0.0
 40
17.221058983167929
 41
2.1727078891257992
 42
50.0
 43
0.0
 44
0.0
 50
0.0
 51
0.0
 71
     0
 72
 20000
 73
     1
 74
     2
 75
     0
 76
     0
 77
     0
 78
     0
  0
ENDTAB
  0
TABLE
  2
LTYPE
 70
     2
  0
LTYPE
  2
CONTINUOUS
 70
     0
  3
Solid line
 72
    65
 73
     0
 40
0.0
  0
LTYPE
  2
HIDDEN2
 70
     0
  3
Hidden (.5x) _ _ _ _ _ _ _ _ _ _ _ _ _ _ _ _ _
 72
    65
 73
     2
 40
0.1875
 49
0.125
 49
-0.0625
  0
ENDTAB
  0
TABLE
  2
LAYER
 70
     5
  0
LAYER
  2
0
 70
     0
 62
     7
  6
CONTINUOUS
  0
LAYER
  2
BODY_-_LARGE_DATA_PORT
 70
     0
 62
     7
  6
CONTINUOUS
  0
LAYER
  2
DIMENSIONS
 70
     0
 62
     1
  6
CONTINUOUS
  0
LAYER
  2
DEFPOINTS
 70
     0
 62
     7
  6
CONTINUOUS
  0
LAYER
  2
FORM
 70
     0
 62
     5
  6
CONTINUOUS
  0
ENDTAB
  0
TABLE
  2
STYLE
 70
     1
  0
STYLE
  2
STANDARD
 70
     0
 40
0.0
 41
1.0
 50
0.0
 71
     0
 42
0.1875
  3
simplex.shx
  4

  0
ENDTAB
  0
TABLE
  2
VIEW
 70
     0
  0
ENDTAB
  0
TABLE
  2
UCS
 70
     0
  0
ENDTAB
  0
TABLE
  2
APPID
 70
     5
  0
APPID
  2
ACAD
 70
     0
  0
APPID
  2
ACAD_DSTYLE_DIMTEXT_FILL
 70
     0
  0
APPID
  2
ACAECLAYERSTANDARD
 70
     0
  0
APPID
  2
DCO15
 70
     0
  0
APPID
  2
ACAD_PSEXT
 70
     0
  0
ENDTAB
  0
TABLE
  2
DIMSTYLE
 70
     1
  0
DIMSTYLE
  2
STANDARD
 70
     0
  3

  4

  5

  6

  7

 40
1.0
 41
0.25
 42
0.0625
 43
1.0
 44
0.0625
 45
0.0
 46
0.0
 47
0.0
 48
0.0
140
0.25
141
0.0
142
0.0
143
25.399999999999999
144
1.0
145
0.0
146
1.0
147
0.0625
 71
     0
 72
     0
 73
     1
 74
     1
 75
     0
 76
     0
 77
     0
 78
     0
170
     0
171
     2
172
     0
173
     0
174
     0
175
     0
176
   256
177
   256
178
   256
  0
ENDTAB
  0
ENDSEC
  0
SECTION
  2
BLOCKS
  0
BLOCK
  8
0
  2
$MODEL_SPACE
 70
     0
 10
0.0
 20
0.0
 30
0.0
  3
$MODEL_SPACE
  1

  0
ENDBLK
  5
9
  8
0
  0
BLOCK
 67
     1
  8
0
  2
$PAPER_SPACE
 70
     0
 10
0.0
 20
0.0
 30
0.0
  3
$PAPER_SPACE
  1

  0
ENDBLK
  5
E
 67
     1
  8
0
  0
ENDSEC
  0
SECTION
  2
ENTITIES
  0
LINE
  5
627
  8
BODY_-_LARGE_DATA_PORT
 10
16.535904325793268
 20
7.5379280077341591
 30
0.0
 11
17.223904325793271
 21
7.5379280077341617
 31
0.0
  0
LINE
  5
628
  8
BODY_-_LARGE_DATA_PORT
 10
17.223904325793271
 20
7.5379280077341617
 30
0.0
 11
17.223904325793271
 21
6.357928007734162
 31
0.0
  0
LINE
  5
629
  8
BODY_-_LARGE_DATA_PORT
 10
16.285904325793268
 20
7.381928007734162
 30
0.0
 11
16.285904325793268
 21
7.2259280077341632
 31
0.0
  0
LINE
  5
62A
  8
BODY_-_LARGE_DATA_PORT
 10
16.535904325793268
 20
7.2259280077341641
 30
0.0
 11
16.535904325793268
 21
6.357928007734162
 31
0.0
  0
LINE
  5
62B
  8
BODY_-_LARGE_DATA_PORT
 10
16.285904325793268
 20
7.2259280077341632
 30
0.0
 11
17.223904325793271
 21
7.2259280077341632
 31
0.0
  0
LINE
  5
62D
  8
BODY_-_LARGE_DATA_PORT
 10
16.285904325793268
 20
7.381928007734162
 30
0.0
 11
16.535904325793268
 21
7.5379280077341591
 31
0.0
  0
LINE
  5
630
  8
BODY_-_LARGE_DATA_PORT
 10
16.535904325793268
 20
6.357928007734162
 30
0.0
 11
17.223904325793271
 21
6.7959280077341608
 31
0.0
  0
LINE
  5
631
  8
BODY_-_LARGE_DATA_PORT
 10
16.535904325793268
 20
6.357928007734162
 30
0.0
 11
17.223904325793271
 21
6.357928007734162
 31
0.0
  0
ARC
  5
637
  8
BODY_-_LARGE_DATA_PORT
 10
8.7452674880391541
 20
19.351026895081539
 30
0.0
 40
8.3989999999999991
 50
237.0
 51
303.0
  0
ARC
  5
639
  8
BODY_-_LARGE_DATA_PORT
 10
8.7452674880391541
 20
19.351026895081539
 30
0.0
 40
9.0869999999999997
 50
237.0
 51
303.0
  0
LINE
  5
63B
  8
BODY_-_LARGE_DATA_PORT
 10
13.31969074313036
 20
12.30703279490792
 30
0.0
 11
13.694402399220699
 21
11.73002744416147
 31
0.0
  0
LINE
  5
63C
  8
BODY_-_LARGE_DATA_PORT
 10
4.1708442329479416
 20
12.30703279490792
 30
0.0
 11
3.6599728181038449
 21
11.520359802175109
 31
0.0
  0
ARC
  5
63D
  8
BODY_-_LARGE_DATA_PORT
 10
8.7452674880391541
 20
19.351026895081539
 30
0.0
 40
9.3369999999999997
 50
237.0
 51
291.79615365058942
  0
LINE
  5
63E
  8
BODY_-_LARGE_DATA_PORT
 10
3.7961325768576009
 20
7.5379280077341617
 30
0.0
 11
13.694402399220699
 21
7.5379280077341617
 31
0.0
  0
LINE
  5
63F
  8
BODY_-_LARGE_DATA_PORT
 10
3.6599728181038449
 20
7.2259280077341614
 30
0.0
 11
13.83056215797445
 21
7.2259280077341614
 31
0.0
  0
LINE
  5
640
  8
BODY_-_LARGE_DATA_PORT
 10
3.6599728181038449
 20
7.3819280077341602
 30
0.0
 11
13.83056215797445
 21
7.3819280077341602
 31
0.0
  0
LINE
  5
641
  8
BODY_-_LARGE_DATA_PORT
 10
3.7961325768576009
 20
6.357928007734162
 30
0.0
 11
13.694402399220699
 21
6.357928007734162
 31
0.0
  0
LINE
  5
642
  8
BODY_-_LARGE_DATA_PORT
 10
4.2761846890289368
 20
6.7959280077341608
 30
0.0
 11
13.214350287049371
 21
6.7959280077341626
 31
0.0
  0
LINE
  5
643
  8
BODY_-_LARGE_DATA_PORT
  6
HIDDEN2
 10
4.2761846890289368
 20
12.23973306515221
 30
0.0
 11
3.9014346705225189
 21
11.662668641465309
 31
0.0
  0
LINE
  5
644
  8
BODY_-_LARGE_DATA_PORT
 10
13.214350287049371
 20
12.23973306515221
 30
0.0
 11
13.589100305555791
 21
11.6626686414653
 31
0.0
  0
LINE
  5
646
  8
BODY_-_LARGE_DATA_PORT
 10
3.6599728181038449
 20
7.3819280077341629
 30
0.0
 11
3.6599728181038449
 21
7.2259280077341632
 31
0.0
  0
LINE
  5
647
  8
BODY_-_LARGE_DATA_PORT
 10
13.83056215797445
 20
7.381928007734162
 30
0.0
 11
13.83056215797445
 21
7.2259280077341614
 31
0.0
  0
LINE
  5
64B
  8
BODY_-_LARGE_DATA_PORT
 10
13.83056215797445
 20
7.381928007734162
 30
0.0
 11
13.694402399220699
 21
7.5379280077341617
 31
0.0
  0
LINE
  5
64C
  8
BODY_-_LARGE_DATA_PORT
 10
3.6599728181038449
 20
7.3819280077341629
 30
0.0
 11
3.7961325768576009
 21
7.5379280077341617
 31
0.0
  0
LINE
  5
64D
  8
BODY_-_LARGE_DATA_PORT
 10
3.7961325768576009
 20
7.2259280077341614
 30
0.0
 11
3.7961325768576009
 21
6.357928007734162
 31
0.0
  0
LINE
  5
64E
  8
BODY_-_LARGE_DATA_PORT
 10
13.694402399220699
 20
7.2259280077341614
 30
0.0
 11
13.694402399220699
 21
6.357928007734162
 31
0.0
  0
LINE
  5
64F
  8
BODY_-_LARGE_DATA_PORT
 10
4.2761846890289368
 20
7.2259280077341614
 30
0.0
 11
4.2761846890289368
 21
6.7959280077341608
 31
0.0
  0
LINE
  5
650
  8
BODY_-_LARGE_DATA_PORT
 10
3.9014346705225189
 20
7.2259280077341614
 30
0.0
 11
3.9014346705225189
 21
6.357928007734162
 31
0.0
  0
LINE
  5
651
  8
BODY_-_LARGE_DATA_PORT
 10
3.9014346705225189
 20
6.357928007734162
 30
0.0
 11
4.2761846890289368
 21
6.7959280077341608
 31
0.0
  0
LINE
  5
652
  8
BODY_-_LARGE_DATA_PORT
 10
13.589100305555791
 20
7.2259280077341614
 30
0.0
 11
13.589100305555791
 21
6.357928007734162
 31
0.0
  0
LINE
  5
653
  8
BODY_-_LARGE_DATA_PORT
 10
13.214350287049371
 20
7.2259280077341614
 30
0.0
 11
13.214350287049379
 21
6.7959280077341608
 31
0.0
  0
LINE
  5
654
  8
BODY_-_LARGE_DATA_PORT
 10
13.589100305555791
 20
6.357928007734162
 30
0.0
 11
13.214350287049371
 21
6.7959280077341608
 31
0.0
  0
LINE
  5
682
  8
DIMENSIONS
 10
16.285904325793268
 20
7.4166921103540453
 30
0.0
 11
16.285904325793268
 21
9.1004280077341626
 31
0.0
  0
LINE
  5
683
  8
DIMENSIONS
 10
17.223904325793271
 20
7.6004280077341617
 30
0.0
 11
17.223904325793271
 21
9.1004280077341626
 31
0.0
  0
LINE
  5
684
  8
DIMENSIONS
 10
16.035904325793268
 20
9.0379280077341626
 30
0.0
 11
15.78590432579327
 21
9.0379280077341626
 31
0.0
  0
LINE
  5
685
  8
DIMENSIONS
 10
17.473904325793271
 20
9.0379280077341626
 30
0.0
 11
17.723904325793271
 21
9.0379280077341626
 31
0.0
  0
SOLID
  5
686
  8
DIMENSIONS
 10
16.035904325793268
 20
9.0795946744008287
 30
0.0
 11
16.035904325793268
 21
8.9962613410674948
 31
0.0
 12
16.285904325793268
 22
9.0379280077341626
 32
0.0
 13
16.285904325793268
 23
9.0379280077341626
 33
0.0
  0
SOLID
  5
687
  8
DIMENSIONS
 10
17.473904325793271
 20
9.0795946744008287
 30
0.0
 11
17.473904325793271
 21
8.9962613410674948
 31
0.0
 12
17.223904325793271
 22
9.0379280077341626
 32
0.0
 13
17.223904325793271
 23
9.0379280077341626
 33
0.0
  0
LINE
  5
689
  8
DIMENSIONS
 10
16.535904325793268
 20
7.6004280077341599
 30
0.0
 11
16.535904325793268
 21
8.3504280077341626
 31
0.0
  0
LINE
  5
68A
  8
DIMENSIONS
 10
17.223904325793271
 20
7.6004280077341617
 30
0.0
 11
17.223904325793271
 21
8.3504280077341626
 31
0.0
  0
LINE
  5
68B
  8
DIMENSIONS
 10
16.285904325793268
 20
8.2879280077341626
 30
0.0
 11
16.035904325793268
 21
8.2879280077341626
 31
0.0
  0
LINE
  5
68C
  8
DIMENSIONS
 10
17.473904325793271
 20
8.2879280077341626
 30
0.0
 11
17.723904325793271
 21
8.2879280077341626
 31
0.0
  0
SOLID
  5
68D
  8
DIMENSIONS
 10
16.285904325793268
 20
8.3295946744008287
 30
0.0
 11
16.285904325793268
 21
8.2462613410674948
 31
0.0
 12
16.535904325793268
 22
8.2879280077341626
 32
0.0
 13
16.535904325793268
 23
8.2879280077341626
 33
0.0
  0
SOLID
  5
68E
  8
DIMENSIONS
 10
17.473904325793271
 20
8.3295946744008287
 30
0.0
 11
17.473904325793271
 21
8.2462613410674948
 31
0.0
 12
17.223904325793271
 22
8.2879280077341626
 32
0.0
 13
17.223904325793271
 23
8.2879280077341626
 33
0.0
  0
TEXT
  5
690
  8
DIMENSIONS
 10
17.786404325793271
 20
8.9129280077341626
 30
0.0
 40
0.25
  1
0.938
  0
TEXT
  5
691
  8
DIMENSIONS
 10
17.786404325793271
 20
8.1629280077341626
 30
0.0
 40
0.25
  1
0.688
  0
LINE
  5
6A1
  8
DIMENSIONS
 10
16.535904325793268
 20
6.2954280077341611
 30
0.0
 11
16.535904325793268
 21
5.545428007734162
 31
0.0
  0
LINE
  5
6A2
  8
DIMENSIONS
 10
17.223904325793271
 20
6.295428007734162
 30
0.0
 11
17.223904325793271
 21
5.545428007734162
 31
0.0
  0
LINE
  5
6A3
  8
DIMENSIONS
 10
16.285904325793268
 20
5.607928007734162
 30
0.0
 11
16.035904325793268
 21
5.607928007734162
 31
0.0
  0
LINE
  5
6A4
  8
DIMENSIONS
 10
17.473904325793271
 20
5.607928007734162
 30
0.0
 11
17.723904325793271
 21
5.607928007734162
 31
0.0
  0
SOLID
  5
6A5
  8
DIMENSIONS
 10
16.285904325793268
 20
5.6495946744008281
 30
0.0
 11
16.285904325793268
 21
5.5662613410674959
 31
0.0
 12
16.535904325793268
 22
5.607928007734162
 32
0.0
 13
16.535904325793268
 23
5.607928007734162
 33
0.0
  0
SOLID
  5
6A6
  8
DIMENSIONS
 10
17.473904325793271
 20
5.6495946744008281
 30
0.0
 11
17.473904325793271
 21
5.5662613410674959
 31
0.0
 12
17.223904325793271
 22
5.607928007734162
 32
0.0
 13
17.223904325793271
 23
5.607928007734162
 33
0.0
  0
TEXT
  5
6A8
  8
DIMENSIONS
 10
17.786404325793271
 20
5.482928007734162
 30
0.0
 40
0.25
  1
0.688
  0
LINE
  5
6B8
  8
DIMENSIONS
 10
17.286404325793271
 20
6.357928007734162
 30
0.0
 11
18.036404325793271
 21
6.357928007734162
 31
0.0
  0
LINE
  5
6B9
  8
DIMENSIONS
 10
17.286404325793271
 20
6.7959280077341608
 30
0.0
 11
18.036404325793271
 21
6.7959280077341608
 31
0.0
  0
LINE
  5
6BA
  8
DIMENSIONS
 10
17.973904325793271
 20
6.107928007734162
 30
0.0
 11
17.973904325793271
 21
5.8631738015248969
 31
0.0
  0
LINE
  5
6BB
  8
DIMENSIONS
 10
17.973904325793271
 20
7.0459280077341608
 30
0.0
 11
17.973904325793271
 21
7.2959280077341608
 31
0.0
  0
SOLID
  5
6BC
  8
DIMENSIONS
 10
17.932237659126599
 20
6.107928007734162
 30
0.0
 11
18.015570992459939
 21
6.107928007734162
 31
0.0
 12
17.973904325793271
 22
6.357928007734162
 32
0.0
 13
17.973904325793271
 23
6.357928007734162
 33
0.0
  0
SOLID
  5
6BD
  8
DIMENSIONS
 10
17.932237659126599
 20
7.0459280077341608
 30
0.0
 11
18.015570992459939
 21
7.0459280077341608
 31
0.0
 12
17.973904325793271
 22
6.7959280077341608
 32
0.0
 13
17.973904325793271
 23
6.7959280077341608
 33
0.0
  0
TEXT
  5
6BF
  8
DIMENSIONS
 10
17.47803093966499
 20
6.4519280077341641
 30
0.0
 40
0.25
  1
0.438
  0
LINE
  5
6CF
  8
DIMENSIONS
 10
16.223404325793268
 20
7.3819280077341629
 30
0.0
 11
15.575369543867589
 21
7.3819280077341629
 31
0.0
  0
LINE
  5
6D1
  8
DIMENSIONS
 10
15.637869543867589
 20
7.6319280077341629
 30
0.0
 11
15.637869543867589
 21
7.8819280077341629
 31
0.0
  0
LINE
  5
6D2
  8
DIMENSIONS
 10
15.637869543867589
 20
6.9759280077341632
 30
0.0
 11
15.637869543867589
 21
6.3565776738372231
 31
0.0
  0
LINE
  5
6D3
  8
DIMENSIONS
 10
15.637869543867589
 20
6.3565776738372231
 30
0.0
 11
15.387869543867589
 21
6.3565776738372231
 31
0.0
  0
SOLID
  5
6D4
  8
DIMENSIONS
 10
15.59620287720092
 20
7.6319280077341629
 30
0.0
 11
15.679536210534261
 21
7.6319280077341629
 31
0.0
 12
15.637869543867589
 22
7.3819280077341629
 32
0.0
 13
15.637869543867589
 23
7.3819280077341629
 33
0.0
  0
SOLID
  5
6D5
  8
DIMENSIONS
 10
15.59620287720092
 20
6.9759280077341632
 30
0.0
 11
15.679536210534261
 21
6.9759280077341632
 31
0.0
 12
15.637869543867589
 22
7.2259280077341632
 32
0.0
 13
15.637869543867589
 23
7.2259280077341632
 33
0.0
  0
TEXT
  5
6D7
  8
DIMENSIONS
 10
14.3848933533914
 20
6.2315776738372248
 30
0.0
 40
0.25
  1
0.156
  0
LINE
  5
6E7
  8
DIMENSIONS
 10
16.218724970419629
 20
7.2259280077341632
 30
0.0
 11
14.81821802382796
 21
7.2259280077341632
 31
0.0
  0
LINE
  5
6E8
  8
DIMENSIONS
 10
16.487724674158841
 20
7.5379280077341591
 30
0.0
 11
14.81821802382796
 21
7.5379280077341591
 31
0.0
  0
LINE
  5
6E9
  8
DIMENSIONS
 10
14.880718023827971
 20
6.9759280077341632
 30
0.0
 11
14.880718023827971
 21
6.7259280077341632
 31
0.0
  0
LINE
  5
6EA
  8
DIMENSIONS
 10
14.880718023827971
 20
7.7879280077341591
 30
0.0
 11
14.880718023827971
 21
8.1629280077341626
 31
0.0
  0
LINE
  5
6EB
  8
DIMENSIONS
 10
14.630718023827971
 20
8.1629280077341626
 30
0.0
 11
14.880718023827971
 21
8.1629280077341626
 31
0.0
  0
SOLID
  5
6EC
  8
DIMENSIONS
 10
14.83905135716129
 20
6.9759280077341632
 30
0.0
 11
14.92238469049464
 21
6.9759280077341632
 31
0.0
 12
14.880718023827971
 22
7.2259280077341632
 32
0.0
 13
14.880718023827971
 23
7.2259280077341632
 33
0.0
  0
SOLID
  5
6ED
  8
DIMENSIONS
 10
14.83905135716129
 20
7.7879280077341591
 30
0.0
 11
14.92238469049464
 21
7.7879280077341591
 31
0.0
 12
14.880718023827971
 22
7.5379280077341591
 32
0.0
 13
14.880718023827971
 23
7.5379280077341591
 33
0.0
  0
TEXT
  5
6EF
  8
DIMENSIONS
 10
13.58738864103003
 20
8.0379280077341626
 30
0.0
 40
0.25
  1
0.312
  0
LINE
  5
701
  8
DIMENSIONS
 10
3.6259328784154121
 20
11.46794289167852
 30
0.0
 11
3.2735791784896331
 21
10.92536577429239
 31
0.0
  0
LINE
  5
702
  8
DIMENSIONS
 10
13.7183397624247
 20
11.693167137237531
 30
0.0
 11
14.21695579758868
 21
10.92536577429237
 31
0.0
  0
ARC
  5
703
  8
DIMENSIONS
 10
8.7452674880391612
 20
19.351026895081539
 30
0.0
 40
9.9839490383039795
 50
238.43473479977359
 51
268.13798169427957
  0
ARC
  5
704
  8
DIMENSIONS
 10
8.7452674880391612
 20
19.351026895081539
 30
0.0
 40
9.9839490383039795
 50
271.86201830572031
 51
301.56526520022629
  0
SOLID
  5
705
  8
DIMENSIONS
 10
3.4967210551659131
 20
10.80903266689695
 30
0.0
 11
3.541229064374789
 21
10.879484647427709
 31
0.0
 12
3.3076191181780672
 22
10.97778268478897
 32
0.0
 13
3.3076191181780672
 23
10.97778268478897
 33
0.0
  0
SOLID
  5
706
  8
DIMENSIONS
 10
13.949305911703521
 20
10.8794846474277
 30
0.0
 11
13.9938139209124
 21
10.80903266689694
 31
0.0
 12
14.182915857900239
 22
10.977782684788959
 32
0.0
 13
14.182915857900239
 23
10.977782684788959
 33
0.0
  0
TEXT
  5
708
  8
DIMENSIONS
 10
8.4833627261343878
 20
9.2420778567775592
 30
0.0
 40
0.25
  1
66°
  0
LINE
  5
717
  8
DIMENSIONS
 10
3.7336325768576009
 20
6.357928007734162
 30
0.0
 11
3.0299268497655301
 21
6.357928007734162
 31
0.0
  0
LINE
  5
718
  8
DIMENSIONS
 10
3.7336325768576009
 20
7.5379280077341617
 30
0.0
 11
3.0299268497655301
 21
7.5379280077341617
 31
0.0
  0
LINE
  5
719
  8
DIMENSIONS
 10
3.0924268497655301
 20
6.607928007734162
 30
0.0
 11
3.0924268497655301
 21
6.7604280077341619
 31
0.0
  0
LINE
  5
71A
  8
DIMENSIONS
 10
3.0924268497655301
 20
7.2879280077341617
 30
0.0
 11
3.0924268497655301
 21
7.1354280077341619
 31
0.0
  0
SOLID
  5
71B
  8
DIMENSIONS
 10
3.0507601830988662
 20
6.607928007734162
 30
0.0
 11
3.1340935164321939
 21
6.607928007734162
 31
0.0
 12
3.0924268497655301
 22
6.357928007734162
 32
0.0
 13
3.0924268497655301
 23
6.357928007734162
 33
0.0
  0
SOLID
  5
71C
  8
DIMENSIONS
 10
3.0507601830988662
 20
7.2879280077341617
 30
0.0
 11
3.1340935164321939
 21
7.2879280077341617
 31
0.0
 12
3.0924268497655301
 22
7.5379280077341617
 32
0.0
 13
3.0924268497655301
 23
7.5379280077341617
 33
0.0
  0
TEXT
  5
71E
  8
DIMENSIONS
 10
2.640045897384574
 20
6.8229280077341619
 30
0.0
 40
0.25
  1
1.180
  0
LINE
  5
729
  8
DIMENSIONS
 10
11.074121898855919
 20
13.558455977634541
 30
0.0
 11
11.33157103407931
 21
12.918101489826981
 31
0.0
  0
LINE
  5
72A
  8
DIMENSIONS
 10
11.81646630371756
 20
11.802918599980339
 30
0.0
 11
11.48415225189609
 21
12.54310148982697
 31
0.0
  0
SOLID
  5
72B
  8
DIMENSIONS
 10
11.85506054991904
 20
11.81862195221005
 30
0.0
 11
11.777872057516079
 21
11.78721524775062
 31
0.0
 12
11.910686417095841
 22
11.571353122771439
 32
0.0
 13
11.910686417095841
 23
11.571353122771439
 33
0.0
  0
TEXT
  5
72D
  8
DIMENSIONS
 10
10.788814023940089
 20
12.605601489826981
 30
0.0
 40
0.25
  1
R8.399
  0
LINE
  5
731
  8
BODY_-_LARGE_DATA_PORT
 10
12.74125844225466
 20
11.96352005624694
 30
0.0
 11
12.736803363586709
 21
11.651493744560771
 31
0.0
  0
LINE
  5
732
  8
BODY_-_LARGE_DATA_PORT
 10
12.736803363586709
 20
11.651493744560771
 30
0.0
 11
12.55441535438427
 21
11.60025556440328
 31
0.0
  0
LINE
  5
733
  8
BODY_-_LARGE_DATA_PORT
 10
12.55441535438427
 20
11.60025556440328
 30
0.0
 11
12.463221349783071
 21
11.33837148729403
 31
0.0
  0
LINE
  5
734
  8
BODY_-_LARGE_DATA_PORT
 10
12.463221349783071
 20
11.33837148729403
 30
0.0
 11
12.229536669779559
 21
11.247281363411609
 31
0.0
  0
LINE
  5
735
  8
BODY_-_LARGE_DATA_PORT
 10
12.229536669779559
 20
11.247281363411609
 30
0.0
 11
12.087045994377281
 21
11.0024766990567
 31
0.0
  0
LINE
  5
736
  8
BODY_-_LARGE_DATA_PORT
 10
12.087045994377281
 20
11.0024766990567
 30
0.0
 11
12.21214697984912
 21
10.68152197327271
 31
0.0
  0
LINE
  5
746
  8
DIMENSIONS
 10
13.18070135389763
 20
12.292401834814591
 30
0.0
 11
12.84562389895771
 21
12.81687960098022
 31
0.0
  0
LINE
  5
747
  8
DIMENSIONS
 10
13.28604180997861
 20
12.359701564570299
 30
0.0
 11
12.9509643550387
 21
12.884179330735931
 31
0.0
  0
LINE
  5
748
  8
DIMENSIONS
 10
12.668597753459951
 20
12.62961509871084
 30
0.0
 11
12.457922674810421
 21
12.495019366103829
 31
0.0
  0
LINE
  5
749
  8
DIMENSIONS
 10
13.19528836683997
 20
12.966106293680561
 30
0.0
 11
13.405963445489499
 21
13.100702026287561
 31
0.0
  0
LINE
  5
74A
  8
DIMENSIONS
 10
13.405963445489499
 20
13.100702026287561
 30
0.0
 11
13.655963445489499
 21
13.100702026287561
 31
0.0
  0
SOLID
  5
74B
  8
DIMENSIONS
 10
12.646165131358771
 20
12.664727611819091
 30
0.0
 11
12.691030375561111
 21
12.59450258560258
 31
0.0
 12
12.879272832109461
 22
12.76421083131785
 32
0.0
 13
12.879272832109461
 23
12.76421083131785
 33
0.0
  0
SOLID
  5
74C
  8
DIMENSIONS
 10
13.172855744738809
 20
13.00121880678881
 30
0.0
 11
13.217720988941149
 21
12.930993780572299
 31
0.0
 12
12.98461328819044
 22
12.831510561073561
 32
0.0
 13
12.98461328819044
 23
12.831510561073561
 33
0.0
  0
TEXT
  5
74E
  8
DIMENSIONS
 10
13.718463445489499
 20
12.975702026287561
 30
0.0
 40
0.25
  1
0.125
  0
LINE
  5
755
  8
BODY_-_LARGE_DATA_PORT
 10
13.252301506928969
 20
12.1812933113256
 30
0.0
 11
13.342664502842879
 21
12.271656307239519
 31
0.0
  0
LINE
  5
756
  8
BODY_-_LARGE_DATA_PORT
 10
13.30450212521434
 20
12.100911408138501
 30
0.0
 11
13.39486512112825
 21
12.191274404052409
 31
0.0
  0
LINE
  5
757
  8
BODY_-_LARGE_DATA_PORT
 10
13.35670274349971
 20
12.020529504951391
 30
0.0
 11
13.447065739413629
 21
12.11089250086531
 31
0.0
  0
LINE
  5
758
  8
BODY_-_LARGE_DATA_PORT
 10
13.408903361785081
 20
11.94014760176429
 30
0.0
 11
13.499266357699
 21
12.030510597678211
 31
0.0
  0
LINE
  5
759
  8
BODY_-_LARGE_DATA_PORT
 10
13.461103980070449
 20
11.85976569857718
 30
0.0
 11
13.55146697598437
 21
11.9501286944911
 31
0.0
  0
LINE
  5
75A
  8
BODY_-_LARGE_DATA_PORT
 10
13.51330459835583
 20
11.77938379539007
 30
0.0
 11
13.60366759426975
 21
11.869746791303999
 31
0.0
  0
LINE
  5
75B
  8
BODY_-_LARGE_DATA_PORT
 10
13.565505216641199
 20
11.69900189220297
 30
0.0
 11
13.65586821255512
 21
11.789364888116889
 31
0.0
  0
LINE
  5
781
  8
BODY_-_LARGE_DATA_PORT
 10
16.56983166238393
 20
6.357928007734162
 30
0.0
 11
16.556634350282071
 21
6.3711253198360387
 31
0.0
  0
LINE
  5
782
  8
BODY_-_LARGE_DATA_PORT
 10
16.702414183856419
 20
6.357928007734162
 30
0.0
 11
16.637643919352278
 21
6.422698272238299
 31
0.0
  0
LINE
  5
783
  8
BODY_-_LARGE_DATA_PORT
 10
16.834996705328901
 20
6.3579280077341611
 30
0.0
 11
16.7186534884225
 21
6.4742712246405603
 31
0.0
  0
LINE
  5
784
  8
BODY_-_LARGE_DATA_PORT
 10
16.967579226801369
 20
6.357928007734162
 30
0.0
 11
16.799663057492719
 21
6.5258441770428197
 31
0.0
  0
LINE
  5
785
  8
BODY_-_LARGE_DATA_PORT
 10
17.100161748273852
 20
6.357928007734162
 30
0.0
 11
16.880672626562919
 21
6.5774171294450801
 31
0.0
  0
LINE
  5
786
  8
BODY_-_LARGE_DATA_PORT
 10
17.223904325793271
 20
6.36676795168722
 30
0.0
 11
16.961682195633141
 21
6.6289900818473413
 31
0.0
  0
LINE
  5
787
  8
BODY_-_LARGE_DATA_PORT
 10
16.364744269746321
 20
7.2259280077341632
 30
0.0
 11
16.285904325793268
 21
7.3047679516872206
 31
0.0
  0
LINE
  5
788
  8
BODY_-_LARGE_DATA_PORT
 10
17.223904325793271
 20
6.4993504731596969
 30
0.0
 11
17.04269176470336
 21
6.6805630342496007
 31
0.0
  0
LINE
  5
789
  8
BODY_-_LARGE_DATA_PORT
 10
16.497326791218811
 20
7.2259280077341632
 30
0.0
 11
16.320031459675992
 21
7.4032233392769804
 31
0.0
  0
LINE
  5
78A
  8
BODY_-_LARGE_DATA_PORT
 10
17.223904325793271
 20
6.631932994632173
 30
0.0
 11
17.123701333773582
 21
6.7321359866518602
 31
0.0
  0
LINE
  5
78B
  8
BODY_-_LARGE_DATA_PORT
 10
16.629909312691279
 20
7.2259280077341614
 30
0.0
 11
16.401670943341308
 21
7.4541663770841353
 31
0.0
  0
LINE
  5
78C
  8
BODY_-_LARGE_DATA_PORT
 10
17.223904325793271
 20
6.7645155161046508
 30
0.0
 11
17.2047109028438
 21
6.7837089390541223
 31
0.0
  0
LINE
  5
78D
  8
BODY_-_LARGE_DATA_PORT
 10
16.762491834163772
 20
7.2259280077341632
 30
0.0
 11
16.483310427006629
 21
7.5051094148912947
 31
0.0
  0
LINE
  5
78E
  8
BODY_-_LARGE_DATA_PORT
 10
16.89507435563624
 20
7.2259280077341614
 30
0.0
 11
16.583074355636239
 21
7.5379280077341617
 31
0.0
  0
LINE
  5
78F
  8
BODY_-_LARGE_DATA_PORT
 10
17.027656877108711
 20
7.2259280077341641
 30
0.0
 11
16.715656877108731
 21
7.5379280077341599
 31
0.0
  0
LINE
  5
790
  8
BODY_-_LARGE_DATA_PORT
 10
17.160239398581201
 20
7.2259280077341614
 30
0.0
 11
16.8482393985812
 21
7.5379280077341599
 31
0.0
  0
LINE
  5
791
  8
BODY_-_LARGE_DATA_PORT
 10
17.223904325793271
 20
7.2948456019945631
 30
0.0
 11
16.980821920053671
 21
7.5379280077341617
 31
0.0
  0
LINE
  5
792
  8
BODY_-_LARGE_DATA_PORT
 10
17.223904325793271
 20
7.427428123467041
 30
0.0
 11
17.113404441526161
 21
7.5379280077341599
 31
0.0
  0
LINE
  5
7A3
  8
DIMENSIONS
 10
5.0916357582352632
 20
6.5459280077341608
 30
0.0
 11
5.0916357582352632
 21
6.2959280077341608
 31
0.0
  0
LINE
  5
7A4
  8
DIMENSIONS
 10
5.0916357582352632
 20
7.4759280077341614
 30
0.0
 11
5.0916357582352632
 21
7.7259280077341614
 31
0.0
  0
SOLID
  5
7A5
  8
DIMENSIONS
 10
5.049969091568598
 20
6.5459280077341608
 30
0.0
 11
5.1333024249019266
 21
6.5459280077341608
 31
0.0
 12
5.0916357582352632
 22
6.7959280077341608
 32
0.0
 13
5.0916357582352632
 23
6.7959280077341608
 33
0.0
  0
SOLID
  5
7A6
  8
DIMENSIONS
 10
5.049969091568598
 20
7.4759280077341614
 30
0.0
 11
5.1333024249019266
 21
7.4759280077341614
 31
0.0
 12
5.0916357582352632
 22
7.2259280077341614
 32
0.0
 13
5.0916357582352632
 23
7.2259280077341614
 33
0.0
  0
TEXT
  5
7A8
  8
DIMENSIONS
 10
4.5916357582352632
 20
6.8859280077341607
 30
0.0
 40
0.25
  1
0.430
  0
TEXT
  5
B58
  8
0
  6
CONTINUOUS
 10
68.805533909762829
 20
16.384599140895759
 30
0.0
 40
0.12
  1
 
 51
7.0
  0
TEXT
  5
B59
  8
0
  6
CONTINUOUS
 10
81.249630675242727
 20
23.447473570627409
 30
0.0
 40
0.24
  1
 
 51
7.0
  0
TEXT
  5
B5A
  8
0
  6
CONTINUOUS
 10
90.459395687156004
 20
23.127463584050329
 30
0.0
 40
0.24
  1
 
 51
7.0
  0
TEXT
  5
B5B
  8
0
  6
CONTINUOUS
 10
100.2633551715887
 20
6.2648827845230102
 30
0.0
 40
0.24
  1
 
 51
7.0
  0
LINE
  5
C13
  8
0
 10
0.0
 20
0.0
 30
0.0
 11
0.0
 21
17.0
 31
0.0
  0
LINE
  5
C14
  8
0
 10
22.0
 20
0.0
 30
0.0
 11
22.0
 21
17.0
 31
0.0
  0
LINE
  5
C15
  8
0
 10
0.0
 20
0.0
 30
0.0
 11
22.0
 21
0.0
 31
0.0
  0
LINE
  5
C16
  8
0
 10
0.0
 20
17.0
 30
0.0
 11
22.0
 21
17.0
 31
0.0
  0
LINE
  5
CB4
  8
FORM
 10
21.403846140107252
 20
0.7499999996674092
 30
0.0
 11
21.403846140107252
 21
15.153846144098431
 31
0.0
  0
LINE
  5
CB5
  8
FORM
 10
21.249999986363441
 20
15.307692297842239
 30
0.0
 11
0.7499999996674376
 21
15.307692297842239
 31
0.0
  0
LINE
  5
CB6
  8
FORM
 10
21.249999986363441
 20
0.5961538459236025
 30
0.0
 11
0.7499999996674376
 21
0.5961538459235954
 31
0.0
  0
LINE
  5
CB7
  8
FORM
 10
0.5961538459236168
 20
0.7499999996674092
 30
0.0
 11
0.5961538459236168
 21
15.153846144098431
 31
0.0
  0
TEXT
  5
CB8
  8
FORM
 10
17.862898458607368
 20
2.6705065993040051
 30
0.0
 40
0.260516826749781
  1
LRG DATA PORT
 72
     1
 11
19.463216108641738
 21
2.6705065993040051
 31
0.0
  0
TEXT
  5
CB9
  8
FORM
 10
18.966993581499299
 20
2.1193155254872589
 30
0.0
 40
0.260516826749781
  1
BODY
 72
     1
 11
19.463216108641738
 21
2.1193155254872589
 31
0.0
  0
TEXT
  5
CBA
  8
FORM
 10
16.770574233580561
 20
1.1177623757995749
 30
0.0
 40
0.260516826749781
  1
ASTROMECH DROID
  0
TEXT
  5
CBB
  8
FORM
 10
20.85720038004996
 20
1.1278903102633671
 30
0.0
 40
0.260516826749781
  1
A
  0
TEXT
  5
CBC
  8
FORM
 10
17.25446024791373
 20
0.813671414000872
 30
0.0
 40
0.1042067306999124
  1
FULL
  0
TEXT
  5
CBD
  8
FORM
 10
20.593280544426019
 20
0.8165882189588344
 30
0.0
 40
0.1042067306999124
  1
1   1
  0
TEXT
  5
CBE
  8
FORM
 10
18.867373488668239
 20
0.8246381046439915
 30
0.0
 40
0.1042067306999124
  1
APRIL 2005
 72
     2
 11
19.770498488067489
 21
0.8246381046439915
 31
0.0
  0
TEXT
  5
CBF
  8
FORM
  6
CONTINUOUS
 10
18.118827913558601
 20
0.8235896747318066
 30
0.0
 40
0.0900346153247244
  1
DRAWN:
  0
TEXT
  5
CC0
  8
FORM
  6
CONTINUOUS
 10
16.72518466957764
 20
0.8236741054737031
 30
0.0
 40
0.0900346153247244
  1
SCALE:
  0
TEXT
  5
CC1
  8
FORM
  6
CONTINUOUS
 10
20.01795677316494
 20
0.8225458122742352
 30
0.0
 40
0.0900346153247244
  1
SHEET:   OF
  0
TEXT
  5
CC2
  8
FORM
  6
CONTINUOUS
 10
16.560769897877751
 20
1.5378028837587541
 30
0.0
 40
0.0900346153247244
  1
DRAWING NO.
  0
TEXT
  5
CC3
  8
FORM
  6
CONTINUOUS
 10
20.822311852397561
 20
1.537802883758743
 30
0.0
 40
0.0900346153247244
  1
REV.
 72
     1
 11
20.955220094067389
 21
1.537802883758743
 31
0.0
  0
LINE
  5
CC4
  8
FORM
  6
CONTINUOUS
 10
16.703251912464879
 20
3.3610038440844141
 30
0.0
 11
21.02491344805162
 21
3.3610038440844141
 31
0.0
  0
LINE
  5
CC5
  8
FORM
  6
CONTINUOUS
 10
16.478165374153061
 20
0.9750865379792159
 30
0.0
 11
16.478165374153029
 21
3.1359173057725931
 31
0.0
  0
LINE
  5
CC6
  8
FORM
  6
CONTINUOUS
 10
16.478165374153061
 20
1.672854806745828
 30
0.0
 11
21.249999986363441
 21
1.672854806745828
 31
0.0
  0
LINE
  5
CC7
  8
FORM
  6
CONTINUOUS
 10
16.478165374153061
 20
0.9750865379792159
 30
0.0
 11
21.249999986363441
 21
0.9750865379792159
 31
0.0
  0
LINE
  5
CC8
  8
FORM
  6
CONTINUOUS
 10
17.97804237543275
 20
0.9750865379792159
 30
0.0
 11
17.97804237543275
 21
0.7499999996674092
 31
0.0
  0
LINE
  5
CC9
  8
FORM
  6
CONTINUOUS
 10
19.950430811671389
 20
0.9723156702741989
 30
0.0
 11
19.950430811671389
 21
0.7472291319623921
 31
0.0
  0
LINE
  5
CCA
  8
FORM
  6
CONTINUOUS
 10
20.65524763562988
 20
1.672854806745828
 30
0.0
 11
20.65524763562988
 21
0.9750865379792159
 31
0.0
  0
ARC
  5
CCB
  8
FORM
 62
     5
 10
16.925603837263051
 20
2.683123263179624
 30
0.0
 40
0.0245481788339413
 50
152.18113099770551
 51
330.99098814993278
  0
ARC
  5
CCC
  8
FORM
 62
     5
 10
17.03186349061718
 20
2.8877559907035391
 30
0.0
 40
0.0215248522646385
 50
335.32315363464198
 51
152.6722492633036
  0
ARC
  5
CCD
  8
FORM
 62
     5
 10
18.67139281679863
 20
1.8778243841790809
 30
0.0
 40
1.9470863223045181
 50
148.41494327216151
 51
155.19852313243231
  0
ARC
  5
CCE
  8
FORM
 62
     5
 10
19.04826621925363
 20
1.7448079813832851
 30
0.0
 40
2.2963564077758769
 50
150.40875710206339
 51
156.20744757951141
  0
ARC
  5
CCF
  8
FORM
 62
     7
 10
16.856187689619201
 20
2.476891943456518
 30
0.0
 40
0.0328016362752216
 50
161.128725237971
 51
346.89295927401372
  0
ARC
  5
CD0
  8
FORM
 62
     7
 10
26.446981545233939
 20
-1.665659984064163
 30
0.0
 40
10.414927500982669
 50
153.58307292081309
 51
156.60691138966209
  0
ARC
  5
CD1
  8
FORM
 62
     7
 10
24.942765772362829
 20
-1.1245203992272681
 30
0.0
 40
8.873647082696257
 50
152.3409599977594
 51
152.9694116127464
  0
ARC
  5
CD2
  8
FORM
 62
     7
 10
25.042235970541071
 20
-1.413551413076795
 30
0.0
 40
9.0960831006715779
 50
153.3711283527573
 51
154.60402195655351
  0
ARC
  5
CD3
  8
FORM
 62
     7
 10
17.329398129118289
 20
2.8602652973761158
 30
0.0
 40
0.2358358050601862
 50
23.468725928191049
 51
88.151617587883351
  0
ARC
  5
CD4
  8
FORM
 62
     7
 10
17.33466889121355
 20
2.8754695652234821
 30
0.0
 40
0.2783521476800796
 50
18.23262529566551
 51
154.63608874642679
  0
ARC
  5
CD5
  8
FORM
 62
     7
 10
17.41806628342874
 20
2.9044827195306051
 30
0.0
 40
0.1900699214402894
 50
336.99722732837893
 51
341.11190659806488
  0
ARC
  5
CD6
  8
FORM
 62
     7
 10
17.429371041778779
 20
2.912888609699027
 30
0.0
 40
0.1244898949022119
 50
333.24704424527522
 51
339.12675173356178
  0
ARC
  5
CD7
  8
FORM
 62
     7
 10
17.547120806258562
 20
2.8541053585607901
 30
0.0
 40
0.007134896083525
 50
157.3747590211585
 51
243.18317341424029
  0
ARC
  5
CD8
  8
FORM
 62
     7
 10
17.589262332130431
 20
2.8313183495512071
 30
0.0
 40
0.0039211308505914
 50
246.74236679857631
 51
343.55073793579641
  0
ARC
  5
CD9
  8
FORM
 62
     7
 10
17.71265002297525
 20
3.1590467530149189
 30
0.0
 40
0.3541033340658146
 50
241.5396617947477
 51
249.33988332022491
  0
ARC
  5
CDA
  8
FORM
 62
     7
 10
17.465116861604141
 20
2.7835275642507962
 30
0.0
 40
0.0699031230302257
 50
210.28645373052609
 51
287.25915125833183
  0
ARC
  5
CDB
  8
FORM
 62
     7
 10
17.471123101482839
 20
2.7532989527990699
 30
0.0
 40
0.0393865134548433
 50
291.96730232828992
 51
10.20108836223371
  0
ARC
  5
CDC
  8
FORM
 62
     7
 10
17.159843992632862
 20
2.6859329108208518
 30
0.0
 40
0.2527202610277017
 50
14.28109924276106
 51
24.94726153987823
  0
ARC
  5
CDD
  8
FORM
 62
     7
 10
17.30724545805592
 20
2.7624795397720869
 30
0.0
 40
0.0870866377029319
 50
20.183063788867621
 51
47.833846572520187
  0
ARC
  5
CDE
  8
FORM
 62
     7
 10
17.323525970686489
 20
2.7183682645997709
 30
0.0
 40
0.1165593648186974
 50
68.784960310907422
 51
94.742087985452599
  0
ARC
  5
CDF
  8
FORM
 62
     7
 10
17.32225776675568
 20
2.7872533208520021
 30
0.0
 40
0.0480101674679103
 50
100.0375073429591
 51
170.98475346238999
  0
ARC
  5
CE0
  8
FORM
 62
     7
 10
17.548079884465121
 20
2.754066770453373
 30
0.0
 40
0.2762551956077745
 50
171.52589863719891
 51
197.494741096675
  0
ARC
  5
CE1
  8
FORM
 62
     7
 10
17.361988404409459
 20
2.757975203687443
 30
0.0
 40
0.1479164690482495
 50
0.8906501289532242
 51
49.113860192417171
  0
ARC
  5
CE2
  8
FORM
 62
     7
 10
17.330827327390121
 20
2.7851061194825268
 30
0.0
 40
0.1164203647136616
 50
99.869748807366761
 51
175.59516845025641
  0
ARC
  5
CE3
  8
FORM
 62
     7
 10
17.35181928853353
 20
2.721979015220195
 30
0.0
 40
0.1824780170187834
 50
54.104282451028169
 51
102.9674010870567
  0
ARC
  5
CE4
  8
FORM
 62
     7
 10
17.866825478371819
 20
2.8305495615738461
 30
0.0
 40
0.603682768180479
 50
195.32307896217739
 51
209.290843156958
  0
ARC
  5
CE5
  8
FORM
 62
     7
 10
17.676878331574731
 20
2.7315679572076941
 30
0.0
 40
0.4663319886455236
 50
172.3003020759547
 51
200.12627387409299
  0
ARC
  5
CE6
  8
FORM
 62
     7
 10
18.010296677355171
 20
2.8617220596188409
 30
0.0
 40
0.8242093741364085
 50
200.64629086238159
 51
210.0464960904439
  0
ARC
  5
CE7
  8
FORM
 62
     7
 10
16.87490984687733
 20
2.2228629736894798
 30
0.0
 40
0.5605059965149727
 50
28.431949107384298
 51
33.865461133002469
  0
ARC
  5
CE8
  8
FORM
 62
     7
 10
17.335282492148359
 20
2.4642291377128478
 30
0.0
 40
0.0413303405420145
 50
201.56446042640411
 51
38.094090168146302
  0
ARC
  5
CE9
  8
FORM
 62
     5
 10
17.698488306364109
 20
2.8075987703319072
 30
0.0
 40
0.0229902810191139
 50
227.6202696593605
 51
57.412112921204063
  0
ARC
  5
CEA
  8
FORM
 62
     5
 10
17.427351296879149
 20
2.453894972691713
 30
0.0
 40
0.4685807675213703
 50
52.766851639305898
 51
65.063571515457895
  0
ARC
  5
CEB
  8
FORM
 62
     5
 10
17.209234353189508
 20
2.115713416994772
 30
0.0
 40
0.8245845677332351
 50
54.932512589538803
 51
74.152868438598929
  0
ARC
  5
CEC
  8
FORM
 62
     5
 10
17.22112341118936
 20
1.8705744209651269
 30
0.0
 40
1.0600616451387339
 50
78.393012355262385
 51
89.647961077025343
  0
ARC
  5
CED
  8
FORM
 62
     5
 10
17.225855158117209
 20
2.9613835761542329
 30
0.0
 40
0.0308190515998151
 50
183.9979944211656
 51
273.313807745882
  0
ARC
  5
CEE
  8
FORM
 62
     5
 10
17.329870384946641
 20
2.9695252211814269
 30
0.0
 40
0.135151603104915
 50
145.60859166919269
 51
184.36670732083471
  0
ARC
  5
CEF
  8
FORM
 62
     5
 10
17.246715832908791
 20
3.027923603152622
 30
0.0
 40
0.0335688941126511
 50
75.244714174009715
 51
147.6929850116162
  0
ARC
  5
CF0
  8
FORM
 62
     5
 10
16.846566400398309
 20
1.4922623483111219
 30
0.0
 40
1.6205076763160291
 50
61.637242241525243
 51
75.392005557716686
  0
ARC
  5
CF1
  8
FORM
 62
     5
 10
17.585771892302461
 20
2.8909845400545029
 30
0.0
 40
0.0409937741994102
 50
342.69825742684009
 51
41.67278378767756
  0
ARC
  5
CF2
  8
FORM
 62
     7
 10
17.41806628342874
 20
2.9044827195306051
 30
0.0
 40
0.1900699214402894
 50
5.6380312699922799
 51
17.79145636873681
  0
ARC
  5
CF3
  8
FORM
 62
     7
 10
17.5045622300951
 20
2.0088127942983891
 30
0.0
 40
0.0608207837544583
 50
88.432533024773406
 51
186.62631613112151
  0
ARC
  5
CF4
  8
FORM
 62
     7
 10
17.514107893903311
 20
2.0214944811508531
 30
0.0
 40
0.0726809031862866
 50
195.7266305128272
 51
285.3806868435185
  0
ARC
  5
CF5
  8
FORM
 62
     7
 10
17.428397303924321
 20
2.6646932328165849
 30
0.0
 40
0.7209618028535085
 50
278.37329371359471
 51
293.15208507016871
  0
ARC
  5
CF6
  8
FORM
 62
     7
 10
17.670280088548282
 20
2.2109164793858191
 30
0.0
 40
0.1486954171998164
 50
257.51805604168283
 51
277.23103351305667
  0
ARC
  5
CF7
  8
FORM
 62
     7
 10
17.67861701724112
 20
2.0887614153130118
 30
0.0
 40
0.0273997705390677
 50
292.26031345923337
 51
12.867379300523719
  0
ARC
  5
CF8
  8
FORM
 62
     7
 10
17.658243987918521
 20
2.0848332422543971
 30
0.0
 40
0.0481411784627428
 50
12.02537552739555
 51
52.143631645159317
  0
ARC
  5
CF9
  8
FORM
 62
     7
 10
18.68473167686761
 20
3.3322419147777782
 30
0.0
 40
1.5673362882102819
 50
219.60277928185971
 51
230.5002020408055
  0
ARC
  5
CFA
  8
FORM
 62
     7
 10
17.71719517775902
 20
2.5209914067630801
 30
0.0
 40
0.3048383262947374
 50
175.97523115435061
 51
218.04500009534141
  0
ARC
  5
CFB
  8
FORM
 62
     7
 10
17.587988709286751
 20
2.5516026198667592
 30
0.0
 40
0.1751226981011722
 50
149.96078860476399
 51
183.01641230856191
  0
ARC
  5
CFC
  8
FORM
 62
     7
 10
17.465652099646999
 20
2.6236413715572442
 30
0.0
 40
0.03317488584424
 50
69.764209445538683
 51
151.8988190455112
  0
ARC
  5
CFD
  8
FORM
 62
     7
 10
17.461738153470581
 20
2.621386420418637
 30
0.0
 40
0.0367584023789668
 50
357.6694469744499
 51
65.251102439515435
  0
ARC
  5
CFE
  8
FORM
 62
     7
 10
17.375127171955
 20
2.6142785816255478
 30
0.0
 40
0.1234666367742727
 50
345.36193237678458
 51
2.6056939300727819
  0
ARC
  5
CFF
  8
FORM
 62
     7
 10
17.770788346688299
 20
2.4976765653254129
 30
0.0
 40
0.289103498612585
 50
162.8186183088072
 51
185.35496664157321
  0
ARC
  5
D00
  8
FORM
 62
     7
 10
17.738557938675601
 20
2.526678108373186
 30
0.0
 40
0.261669979998945
 50
192.3534994193023
 51
222.3020476696033
  0
ARC
  5
D01
  8
FORM
 62
     7
 10
18.640000382871079
 20
3.2533952889623161
 30
0.0
 40
1.419181254971364
 50
219.50633019139829
 51
228.42762303996261
  0
ARC
  5
D02
  8
FORM
 62
     7
 10
17.545150090279261
 20
1.9830014576086259
 30
0.0
 40
0.2588352891177654
 50
32.971129457978869
 51
53.728419363024337
  0
ARC
  5
D03
  8
FORM
 62
     7
 10
17.685505274612321
 20
2.0841393566689059
 30
0.0
 40
0.0864595649942742
 50
287.74749415951351
 51
27.35211189662947
  0
ARC
  5
D04
  8
FORM
 62
     7
 10
17.556150910590731
 20
1.521887384058928
 30
0.0
 40
0.5499940598264056
 50
81.426570944510203
 51
95.208118001959775
  0
ARC
  5
D05
  8
FORM
 62
     7
 10
17.31874226594763
 20
2.379232385518228
 30
0.0
 40
0.0244848954091209
 50
325.52447187114308
 51
75.340502228459783
  0
ARC
  5
D06
  8
FORM
 62
     7
 10
17.28857503182331
 20
2.4013816515593862
 30
0.0
 40
0.0619027859518531
 50
277.78730616127859
 51
324.42957968808531
  0
ARC
  5
D07
  8
FORM
 62
     7
 10
17.277627430402191
 20
2.4116764447725738
 30
0.0
 40
0.0741905263351136
 50
243.48581874200181
 51
285.1065744639306
  0
ARC
  5
D08
  8
FORM
 62
     7
 10
13.99616984532571
 20
-5.9734717723731041
 30
0.0
 40
9.0135811594364625
 50
68.327181839257534
 51
70.606105230637283
  0
ARC
  5
D09
  8
FORM
 62
     7
 10
16.982860283602829
 20
2.502260489661857
 30
0.0
 40
0.0271571196358057
 50
76.445232091872299
 51
134.36352227876461
  0
ARC
  5
D0A
  8
FORM
 62
     7
 10
17.103601465049451
 20
2.316491870596419
 30
0.0
 40
0.2482433149023289
 50
124.2547762008316
 51
135.012931962436
  0
ARC
  5
D0B
  8
FORM
 62
     7
 10
16.932687772438332
 20
2.4840903864877362
 30
0.0
 40
0.0091691237651447
 50
120.5491196217084
 51
251.48388650457539
  0
ARC
  5
D0C
  8
FORM
 62
     7
 10
15.698852283122079
 20
-0.947959245240991
 30
0.0
 40
3.6379298384249581
 50
64.85742894317822
 51
67.515132469299331
  0
ARC
  5
D0D
  8
FORM
 62
     7
 10
17.23599357112948
 20
2.291795105104121
 30
0.0
 40
0.0343472402230129
 50
329.18566117941782
 51
69.527151249863806
  0
ARC
  5
D0E
  8
FORM
 62
     7
 10
17.145886072427881
 20
2.1556962750494151
 30
0.0
 40
0.1968392862921899
 50
58.747973844557571
 51
81.106226592028065
  0
ARC
  5
D0F
  8
FORM
 62
     7
 10
17.124947044127829
 20
2.0252080021495891
 30
0.0
 40
0.3289962935825703
 50
81.016817915507374
 51
97.679603827268224
  0
ARC
  5
D10
  8
FORM
 62
     7
 10
17.159573600239298
 20
2.1240726877937131
 30
0.0
 40
0.2440398498458748
 50
121.5050128230593
 51
139.0957881060705
  0
ARC
  5
D11
  8
FORM
 62
     7
 10
17.225825242067831
 20
2.2865562155100809
 30
0.0
 40
0.0415466234232141
 50
277.70569210516868
 51
342.69880024124109
  0
ARC
  5
D12
  8
FORM
 62
     7
 10
17.213074197788071
 20
2.3334352792513711
 30
0.0
 40
0.0899365447321688
 50
250.08394506358289
 51
281.75453717228322
  0
ARC
  5
D13
  8
FORM
 62
     7
 10
17.2424582627973
 20
2.3437609022874879
 30
0.0
 40
0.1122732419236369
 50
221.18187885427241
 51
237.68378775985289
  0
ARC
  5
D14
  8
FORM
 62
     7
 10
17.11078230927049
 20
2.213603979985677
 30
0.0
 40
0.0733994924367979
 50
50.003848755011681
 51
75.5416830098399
  0
ARC
  5
D15
  8
FORM
 62
     7
 10
17.10690002874345
 20
2.2402084319691471
 30
0.0
 40
0.0497074536252231
 50
63.4626603498468
 51
100.74200229027051
  0
ARC
  5
D16
  8
FORM
 62
     7
 10
17.09763521067913
 20
2.2049366923578511
 30
0.0
 40
0.0841081409133923
 50
89.999999999999588
 51
125.5974615489027
  0
ARC
  5
D17
  8
FORM
 62
     7
 10
18.09535908495533
 20
2.805145934228654
 30
0.0
 40
1.1637748462988311
 50
197.51922498184919
 51
203.981481444731
  0
ARC
  5
D18
  8
FORM
 62
     7
 10
16.736982371619181
 20
2.433687501517297
 30
0.0
 40
0.3537389089231183
 50
346.52409876011302
 51
356.71498770316703
  0
ARC
  5
D19
  8
FORM
 62
     7
 10
15.698852283122079
 20
-0.947959245240991
 30
0.0
 40
3.6379298384249581
 50
69.286600818944052
 51
70.22311760076802
  0
ARC
  5
D1A
  8
FORM
 62
     7
 10
16.92789692922846
 20
2.1257895907104252
 30
0.0
 40
0.1066736432871782
 50
245.40259669902051
 51
275.40975098180542
  0
ARC
  5
D1B
  8
FORM
 62
     7
 10
17.301941284744
 20
1.9333049606058379
 30
0.0
 40
0.4239787481416163
 50
126.68044463040199
 51
139.78708822539889
  0
ARC
  5
D1C
  8
FORM
 62
     7
 10
16.925901396850119
 20
2.42585100124619
 30
0.0
 40
0.4064386631288638
 50
271.69929119420118
 51
283.39540842056908
  0
ARC
  5
D1D
  8
FORM
 62
     7
 10
17.685900196427319
 20
1.487877603185271
 30
0.0
 40
1.0089968057446299
 50
134.5410403491789
 51
138.91474429089899
  0
ARC
  5
D1E
  8
FORM
 62
     7
 10
16.942625607711989
 20
2.1366275124138698
 30
0.0
 40
0.0266928289273625
 50
201.8252958964795
 51
267.16449786715452
  0
ARC
  5
D1F
  8
FORM
 62
     7
 10
16.936879259411789
 20
2.1340951027918962
 30
0.0
 40
0.0204180021895292
 50
124.254854327418
 51
201.22329273937871
  0
ARC
  5
D20
  8
FORM
 62
     7
 10
16.999050226745201
 20
2.1174828639755172
 30
0.0
 40
0.0895139066856433
 50
283.5751770312794
 51
324.58969283639942
  0
ARC
  5
D21
  8
FORM
 62
     7
 10
17.05010181640597
 20
2.0748500422369349
 30
0.0
 40
0.0237711578752802
 50
337.14160324238759
 51
47.56496670892831
  0
ARC
  5
D22
  8
FORM
 62
     7
 10
17.01351320176212
 20
2.0225775754130799
 30
0.0
 40
0.0874305156836371
 50
52.990730681111657
 51
91.748895977531376
  0
ARC
  5
D23
  8
FORM
 62
     7
 10
16.97607501860476
 20
2.3473211427073291
 30
0.0
 40
0.2398869733850244
 50
261.66603807207321
 51
278.33396192792679
  0
ARC
  5
D24
  8
FORM
 62
     7
 10
16.904055290181631
 20
2.0802584334887442
 30
0.0
 40
0.0554174778483587
 50
192.64550774538381
 51
248.2223967256862
  0
ARC
  5
D25
  8
FORM
 62
     7
 10
16.890435234000019
 20
2.0865365172575769
 30
0.0
 40
0.0444453205431241
 50
178.88427582775461
 51
204.46998391858139
  0
ARC
  5
D26
  8
FORM
 62
     7
 10
17.00038134049046
 20
2.0753041716250129
 30
0.0
 40
0.1548562786887746
 50
140.54690015149379
 51
175.5193383191162
  0
ARC
  5
D27
  8
FORM
 62
     7
 10
18.525663181526959
 20
0.8608942872864346
 30
0.0
 40
2.1045236570324608
 50
137.45643980933039
 51
141.40545593619069
  0
POLYLINE
  5
D28
  8
FORM
 62
     1
 10
17.275622491608207
 20
3.0402781737931805
 30
0.0
 66
     1
 70
     8
  0
VERTEX
  8
FORM
  5
ED6
 10
17.2756
 20
3.04028
 30
0.000000
  70
    32
  0
VERTEX
  8
FORM
  5
ED7
 10
17.2747
 20
3.04062
 30
0.000000
  70
    32
  0
VERTEX
  8
FORM
  5
ED8
 10
17.2737
 20
3.04086
 30
0.000000
  70
    32
  0
VERTEX
  8
FORM
  5
ED9
 10
17.2727
 20
3.04098
 30
0.000000
  70
    32
  0
VERTEX
  8
FORM
  5
EDA
 10
17.2716
 20
3.04100
 30
0.000000
  70
    32
  0
VERTEX
  8
FORM
  5
EDB
 10
17.2705
 20
3.04091
 30
0.000000
  70
    32
  0
VERTEX
  8
FORM
  5
EDC
 10
17.2694
 20
3.04070
 30
0.000000
  70
    32
  0
VERTEX
  8
FORM
  5
EDD
 10
17.2682
 20
3.04039
 30
0.000000
  70
    32
  0
VERTEX
  8
FORM
  5
EDE
 10
17.2670
 20
3.03997
 30
0.000000
  70
    32
  0
VERTEX
  8
FORM
  5
EDF
 10
17.2658
 20
3.03944
 30
0.000000
  70
    32
  0
VERTEX
  8
FORM
  5
EE0
 10
17.2646
 20
3.03880
 30
0.000000
  70
    32
  0
VERTEX
  8
FORM
  5
EE1
 10
17.2633
 20
3.03806
 30
0.000000
  70
    32
  0
VERTEX
  8
FORM
  5
EE2
 10
17.2620
 20
3.03722
 30
0.000000
  70
    32
  0
VERTEX
  8
FORM
  5
EE3
 10
17.2607
 20
3.03627
 30
0.000000
  70
    32
  0
VERTEX
  8
FORM
  5
EE4
 10
17.2594
 20
3.03523
 30
0.000000
  70
    32
  0
VERTEX
  8
FORM
  5
EE5
 10
17.2581
 20
3.03409
 30
0.000000
  70
    32
  0
VERTEX
  8
FORM
  5
EE6
 10
17.2568
 20
3.03286
 30
0.000000
  70
    32
  0
VERTEX
  8
FORM
  5
EE7
 10
17.2554
 20
3.03154
 30
0.000000
  70
    32
  0
VERTEX
  8
FORM
  5
EE8
 10
17.2541
 20
3.03013
 30
0.000000
  70
    32
  0
VERTEX
  8
FORM
  5
EE9
 10
17.2528
 20
3.02864
 30
0.000000
  70
    32
  0
VERTEX
  8
FORM
  5
EEA
 10
17.2515
 20
3.02706
 30
0.000000
  70
    32
  0
VERTEX
  8
FORM
  5
EEB
 10
17.2502
 20
3.02541
 30
0.000000
  70
    32
  0
VERTEX
  8
FORM
  5
EEC
 10
17.2489
 20
3.02369
 30
0.000000
  70
    32
  0
VERTEX
  8
FORM
  5
EED
 10
17.2476
 20
3.02190
 30
0.000000
  70
    32
  0
VERTEX
  8
FORM
  5
EEE
 10
17.2464
 20
3.02004
 30
0.000000
  70
    32
  0
VERTEX
  8
FORM
  5
EEF
 10
17.2451
 20
3.01813
 30
0.000000
  70
    32
  0
VERTEX
  8
FORM
  5
EF0
 10
17.2439
 20
3.01616
 30
0.000000
  70
    32
  0
VERTEX
  8
FORM
  5
EF1
 10
17.2427
 20
3.01414
 30
0.000000
  70
    32
  0
VERTEX
  8
FORM
  5
EF2
 10
17.2416
 20
3.01208
 30
0.000000
  70
    32
  0
VERTEX
  8
FORM
  5
EF3
 10
17.2405
 20
3.00997
 30
0.000000
  70
    32
  0
VERTEX
  8
FORM
  5
EF4
 10
17.2394
 20
3.00783
 30
0.000000
  70
    32
  0
VERTEX
  8
FORM
  5
EF5
 10
17.2384
 20
3.00566
 30
0.000000
  70
    32
  0
VERTEX
  8
FORM
  5
EF6
 10
17.2374
 20
3.00347
 30
0.000000
  70
    32
  0
VERTEX
  8
FORM
  5
EF7
 10
17.2364
 20
3.00125
 30
0.000000
  70
    32
  0
VERTEX
  8
FORM
  5
EF8
 10
17.2356
 20
2.99902
 30
0.000000
  70
    32
  0
VERTEX
  8
FORM
  5
EF9
 10
17.2347
 20
2.99679
 30
0.000000
  70
    32
  0
VERTEX
  8
FORM
  5
EFA
 10
17.2339
 20
2.99454
 30
0.000000
  70
    32
  0
VERTEX
  8
FORM
  5
EFB
 10
17.2332
 20
2.99231
 30
0.000000
  70
    32
  0
VERTEX
  8
FORM
  5
EFC
 10
17.2325
 20
2.99007
 30
0.000000
  70
    32
  0
VERTEX
  8
FORM
  5
EFD
 10
17.2318
 20
2.98785
 30
0.000000
  70
    32
  0
VERTEX
  8
FORM
  5
EFE
 10
17.2313
 20
2.98565
 30
0.000000
  70
    32
  0
VERTEX
  8
FORM
  5
EFF
 10
17.2307
 20
2.98348
 30
0.000000
  70
    32
  0
VERTEX
  8
FORM
  5
F00
 10
17.2303
 20
2.98133
 30
0.000000
  70
    32
  0
VERTEX
  8
FORM
  5
F01
 10
17.2299
 20
2.97921
 30
0.000000
  70
    32
  0
VERTEX
  8
FORM
  5
F02
 10
17.2296
 20
2.97713
 30
0.000000
  70
    32
  0
VERTEX
  8
FORM
  5
F03
 10
17.2293
 20
2.97510
 30
0.000000
  70
    32
  0
VERTEX
  8
FORM
  5
F04
 10
17.2291
 20
2.97312
 30
0.000000
  70
    32
  0
VERTEX
  8
FORM
  5
F05
 10
17.2289
 20
2.97119
 30
0.000000
  70
    32
  0
VERTEX
  8
FORM
  5
F06
 10
17.2289
 20
2.96931
 30
0.000000
  70
    32
  0
VERTEX
  8
FORM
  5
F07
 10
17.2289
 20
2.96751
 30
0.000000
  70
    32
  0
VERTEX
  8
FORM
  5
F08
 10
17.2289
 20
2.96576
 30
0.000000
  70
    32
  0
VERTEX
  8
FORM
  5
F09
 10
17.2290
 20
2.96409
 30
0.000000
  70
    32
  0
VERTEX
  8
FORM
  5
F0A
 10
17.2292
 20
2.96250
 30
0.000000
  70
    32
  0
VERTEX
  8
FORM
  5
F0B
 10
17.2295
 20
2.96098
 30
0.000000
  70
    32
  0
VERTEX
  8
FORM
  5
F0C
 10
17.2298
 20
2.95955
 30
0.000000
  70
    32
  0
VERTEX
  8
FORM
  5
F0D
 10
17.2301
 20
2.95820
 30
0.000000
  70
    32
  0
VERTEX
  8
FORM
  5
F0E
 10
17.2306
 20
2.95694
 30
0.000000
  70
    32
  0
VERTEX
  8
FORM
  5
F0F
 10
17.2311
 20
2.95577
 30
0.000000
  70
    32
  0
VERTEX
  8
FORM
  5
F10
 10
17.2316
 20
2.95470
 30
0.000000
  70
    32
  0
VERTEX
  8
FORM
  5
F11
 10
17.2323
 20
2.95373
 30
0.000000
  70
    32
  0
VERTEX
  8
FORM
  5
F12
 10
17.2329
 20
2.95286
 30
0.000000
  70
    32
  0
VERTEX
  8
FORM
  5
F13
 10
17.2337
 20
2.95209
 30
0.000000
  70
    32
  0
VERTEX
  8
FORM
  5
F14
 10
17.2344
 20
2.95142
 30
0.000000
  70
    32
  0
VERTEX
  8
FORM
  5
F15
 10
17.2353
 20
2.95086
 30
0.000000
  70
    32
  0
VERTEX
  8
FORM
  5
F16
 10
17.2362
 20
2.95041
 30
0.000000
  70
    32
  0
VERTEX
  8
FORM
  5
F17
 10
17.2371
 20
2.95007
 30
0.000000
  70
    32
  0
VERTEX
  8
FORM
  5
F18
 10
17.2381
 20
2.94983
 30
0.000000
  70
    32
  0
VERTEX
  8
FORM
  5
F19
 10
17.2391
 20
2.94971
 30
0.000000
  70
    32
  0
VERTEX
  8
FORM
  5
F1A
 10
17.2401
 20
2.94969
 30
0.000000
  70
    32
  0
VERTEX
  8
FORM
  5
F1B
 10
17.2412
 20
2.94978
 30
0.000000
  70
    32
  0
VERTEX
  8
FORM
  5
F1C
 10
17.2424
 20
2.94999
 30
0.000000
  70
    32
  0
VERTEX
  8
FORM
  5
F1D
 10
17.2435
 20
2.95030
 30
0.000000
  70
    32
  0
VERTEX
  8
FORM
  5
F1E
 10
17.2447
 20
2.95072
 30
0.000000
  70
    32
  0
VERTEX
  8
FORM
  5
F1F
 10
17.2460
 20
2.95125
 30
0.000000
  70
    32
  0
VERTEX
  8
FORM
  5
F20
 10
17.2472
 20
2.95189
 30
0.000000
  70
    32
  0
VERTEX
  8
FORM
  5
F21
 10
17.2485
 20
2.95263
 30
0.000000
  70
    32
  0
VERTEX
  8
FORM
  5
F22
 10
17.2498
 20
2.95347
 30
0.000000
  70
    32
  0
VERTEX
  8
FORM
  5
F23
 10
17.2511
 20
2.95442
 30
0.000000
  70
    32
  0
VERTEX
  8
FORM
  5
F24
 10
17.2524
 20
2.95546
 30
0.000000
  70
    32
  0
VERTEX
  8
FORM
  5
F25
 10
17.2537
 20
2.95660
 30
0.000000
  70
    32
  0
VERTEX
  8
FORM
  5
F26
 10
17.2550
 20
2.95783
 30
0.000000
  70
    32
  0
VERTEX
  8
FORM
  5
F27
 10
17.2563
 20
2.95915
 30
0.000000
  70
    32
  0
VERTEX
  8
FORM
  5
F28
 10
17.2577
 20
2.96056
 30
0.000000
  70
    32
  0
VERTEX
  8
FORM
  5
F29
 10
17.2590
 20
2.96205
 30
0.000000
  70
    32
  0
VERTEX
  8
FORM
  5
F2A
 10
17.2603
 20
2.96363
 30
0.000000
  70
    32
  0
VERTEX
  8
FORM
  5
F2B
 10
17.2616
 20
2.96528
 30
0.000000
  70
    32
  0
VERTEX
  8
FORM
  5
F2C
 10
17.2629
 20
2.96700
 30
0.000000
  70
    32
  0
VERTEX
  8
FORM
  5
F2D
 10
17.2642
 20
2.96879
 30
0.000000
  70
    32
  0
VERTEX
  8
FORM
  5
F2E
 10
17.2654
 20
2.97065
 30
0.000000
  70
    32
  0
VERTEX
  8
FORM
  5
F2F
 10
17.2667
 20
2.97256
 30
0.000000
  70
    32
  0
VERTEX
  8
FORM
  5
F30
 10
17.2679
 20
2.97453
 30
0.000000
  70
    32
  0
VERTEX
  8
FORM
  5
F31
 10
17.2690
 20
2.97655
 30
0.000000
  70
    32
  0
VERTEX
  8
FORM
  5
F32
 10
17.2702
 20
2.97861
 30
0.000000
  70
    32
  0
VERTEX
  8
FORM
  5
F33
 10
17.2713
 20
2.98072
 30
0.000000
  70
    32
  0
VERTEX
  8
FORM
  5
F34
 10
17.2724
 20
2.98286
 30
0.000000
  70
    32
  0
VERTEX
  8
FORM
  5
F35
 10
17.2734
 20
2.98503
 30
0.000000
  70
    32
  0
VERTEX
  8
FORM
  5
F36
 10
17.2744
 20
2.98722
 30
0.000000
  70
    32
  0
VERTEX
  8
FORM
  5
F37
 10
17.2753
 20
2.98944
 30
0.000000
  70
    32
  0
VERTEX
  8
FORM
  5
F38
 10
17.2762
 20
2.99167
 30
0.000000
  70
    32
  0
VERTEX
  8
FORM
  5
F39
 10
17.2771
 20
2.99390
 30
0.000000
  70
    32
  0
VERTEX
  8
FORM
  5
F3A
 10
17.2779
 20
2.99615
 30
0.000000
  70
    32
  0
VERTEX
  8
FORM
  5
F3B
 10
17.2786
 20
2.99838
 30
0.000000
  70
    32
  0
VERTEX
  8
FORM
  5
F3C
 10
17.2793
 20
3.00062
 30
0.000000
  70
    32
  0
VERTEX
  8
FORM
  5
F3D
 10
17.2800
 20
3.00284
 30
0.000000
  70
    32
  0
VERTEX
  8
FORM
  5
F3E
 10
17.2805
 20
3.00504
 30
0.000000
  70
    32
  0
VERTEX
  8
FORM
  5
F3F
 10
17.2810
 20
3.00721
 30
0.000000
  70
    32
  0
VERTEX
  8
FORM
  5
F40
 10
17.2815
 20
3.00936
 30
0.000000
  70
    32
  0
VERTEX
  8
FORM
  5
F41
 10
17.2819
 20
3.01148
 30
0.000000
  70
    32
  0
VERTEX
  8
FORM
  5
F42
 10
17.2822
 20
3.01356
 30
0.000000
  70
    32
  0
VERTEX
  8
FORM
  5
F43
 10
17.2825
 20
3.01559
 30
0.000000
  70
    32
  0
VERTEX
  8
FORM
  5
F44
 10
17.2827
 20
3.01757
 30
0.000000
  70
    32
  0
VERTEX
  8
FORM
  5
F45
 10
17.2828
 20
3.01950
 30
0.000000
  70
    32
  0
VERTEX
  8
FORM
  5
F46
 10
17.2829
 20
3.02137
 30
0.000000
  70
    32
  0
VERTEX
  8
FORM
  5
F47
 10
17.2829
 20
3.02318
 30
0.000000
  70
    32
  0
VERTEX
  8
FORM
  5
F48
 10
17.2829
 20
3.02493
 30
0.000000
  70
    32
  0
VERTEX
  8
FORM
  5
F49
 10
17.2828
 20
3.02660
 30
0.000000
  70
    32
  0
VERTEX
  8
FORM
  5
F4A
 10
17.2826
 20
3.02819
 30
0.000000
  70
    32
  0
VERTEX
  8
FORM
  5
F4B
 10
17.2823
 20
3.02971
 30
0.000000
  70
    32
  0
VERTEX
  8
FORM
  5
F4C
 10
17.2820
 20
3.03114
 30
0.000000
  70
    32
  0
VERTEX
  8
FORM
  5
F4D
 10
17.2816
 20
3.03249
 30
0.000000
  70
    32
  0
VERTEX
  8
FORM
  5
F4E
 10
17.2812
 20
3.03375
 30
0.000000
  70
    32
  0
VERTEX
  8
FORM
  5
F4F
 10
17.2807
 20
3.03492
 30
0.000000
  70
    32
  0
VERTEX
  8
FORM
  5
F50
 10
17.2801
 20
3.03599
 30
0.000000
  70
    32
  0
VERTEX
  8
FORM
  5
F51
 10
17.2795
 20
3.03696
 30
0.000000
  70
    32
  0
VERTEX
  8
FORM
  5
F52
 10
17.2789
 20
3.03783
 30
0.000000
  70
    32
  0
VERTEX
  8
FORM
  5
F53
 10
17.2781
 20
3.03860
 30
0.000000
  70
    32
  0
VERTEX
  8
FORM
  5
F54
 10
17.2773
 20
3.03927
 30
0.000000
  70
    32
  0
VERTEX
  8
FORM
  5
F55
 10
17.2765
 20
3.03983
 30
0.000000
  70
    32
  0
VERTEX
  8
FORM
  5
F56
 10
17.2756
 20
3.04028
 30
0.000000
  70
    32
  0
SEQEND
  8
FORM
  5
F57
  0
ARC
  5
D29
  8
FORM
 62
     7
 10
17.31969472840197
 20
2.8767429643067852
 30
0.0
 40
0.2199177503197187
 50
85.485448269952457
 51
155.5006785655419
  0
TEXT
  5
D2A
  8
FORM
 62
     7
 10
16.545907219234731
 20
1.726726372181332
 30
0.0
 40
0.0861538460965367
  1
R2-D2 BUILDERS CLUB
  0
ARC
  5
D2B
  8
FORM
 10
0.7499999996674376
 20
0.7499999996674092
 30
0.0
 40
0.1538461537438154
 50
180.0
 51
270.0
  0
ARC
  5
D2C
  8
FORM
 10
0.7499999996674376
 20
0.7499999996674092
 30
0.0
 40
0.3076923074876307
 50
180.0
 51
270.0
  0
ARC
  5
D2D
  8
FORM
 10
0.7499999996674376
 20
0.7499999996674092
 30
0.0
 40
0.3461538459235846
 50
180.0
 51
270.0
  0
ARC
  5
D2E
  8
FORM
 10
0.7499999996674376
 20
0.7499999996674092
 30
0.0
 40
0.4999999996674
 50
180.0
 51
270.0
  0
ARC
  5
D2F
  8
FORM
 10
0.7499999996674376
 20
15.153846144098431
 30
0.0
 40
0.4999999996674
 50
90.0
 51
180.0
  0
ARC
  5
D30
  8
FORM
 10
0.7499999996674376
 20
15.153846144098431
 30
0.0
 40
0.3461538459235846
 50
90.0
 51
180.0
  0
ARC
  5
D31
  8
FORM
 10
0.7499999996674376
 20
15.153846144098431
 30
0.0
 40
0.3076923074876307
 50
90.0
 51
180.0
  0
ARC
  5
D32
  8
FORM
 10
0.7499999996674376
 20
15.153846144098431
 30
0.0
 40
0.1538461537438154
 50
90.0
 51
180.0
  0
ARC
  5
D33
  8
FORM
 10
21.249999986363441
 20
15.153846144098431
 30
0.0
 40
0.3076923074876307
 50
0.0
 51
90.0
  0
ARC
  5
D34
  8
FORM
 10
21.249999986363441
 20
15.153846144098431
 30
0.0
 40
0.3461538459235846
 50
0.0
 51
90.0
  0
ARC
  5
D35
  8
FORM
 10
21.249999986363441
 20
15.153846144098431
 30
0.0
 40
0.4999999996674
 50
0.0
 51
90.0
  0
ARC
  5
D36
  8
FORM
 10
21.249999986363441
 20
15.153846144098431
 30
0.0
 40
0.1538461537438154
 50
0.0
 51
90.0
  0
ARC
  5
D37
  8
FORM
 10
21.249999986363441
 20
0.7499999996674092
 30
0.0
 40
0.4999999996674
 50
270.0
 51
0.0
  0
ARC
  5
D38
  8
FORM
 10
21.249999986363441
 20
0.7499999996674092
 30
0.0
 40
0.3461538459235846
 50
270.0
 51
0.0
  0
ARC
  5
D39
  8
FORM
 10
21.249999986363441
 20
0.7499999996674092
 30
0.0
 40
0.3076923074876307
 50
270.0
 51
0.0
  0
ARC
  5
D3A
  8
FORM
 10
21.249999986363441
 20
0.7499999996674092
 30
0.0
 40
0.1538461537438154
 50
270.0
 51
0.0
  0
LINE
  5
D3B
  8
FORM
 10
21.249999986363441
 20
0.4423076921797886
 30
0.0
 11
0.7499999996674376
 21
0.442307692179778
 31
0.0
  0
LINE
  5
D3C
  8
FORM
 10
21.249999986363441
 20
0.4038461537438352
 30
0.0
 11
0.7499999996674376
 21
0.4038461537438245
 31
0.0
  0
LINE
  5
D3D
  8
FORM
 10
21.249999986363441
 20
0.2500000000000071
 30
0.0
 11
0.7499999996674376
 21
0.25
 31
0.0
  0
LINE
  5
D3E
  8
FORM
 10
21.55769229385108
 20
0.7499999996674092
 30
0.0
 11
21.55769229385108
 21
15.153846144098431
 31
0.0
  0
LINE
  5
D3F
  8
FORM
 10
21.59615383228703
 20
0.7499999996674092
 30
0.0
 11
21.59615383228703
 21
15.153846144098431
 31
0.0
  0
LINE
  5
D40
  8
FORM
 10
21.74999998603084
 20
0.7499999996674092
 30
0.0
 11
21.74999998603084
 21
15.153846144098431
 31
0.0
  0
LINE
  5
D41
  8
FORM
 10
21.249999986363441
 20
15.46153845158606
 30
0.0
 11
0.7499999996674376
 21
15.46153845158606
 31
0.0
  0
LINE
  5
D42
  8
FORM
 10
21.249999986363441
 20
15.499999990022021
 30
0.0
 11
0.7499999996674376
 21
15.499999990022021
 31
0.0
  0
LINE
  5
D43
  8
FORM
 10
21.249999986363441
 20
15.653846143765829
 30
0.0
 11
0.7499999996674376
 21
15.653846143765829
 31
0.0
  0
LINE
  5
D44
  8
FORM
 10
0.4423076921798029
 20
0.7499999996674092
 30
0.0
 11
0.4423076921798029
 21
15.153846144098431
 31
0.0
  0
LINE
  5
D45
  8
FORM
 10
0.4038461537438565
 20
0.7499999996674092
 30
0.0
 11
0.4038461537438565
 21
15.153846144098431
 31
0.0
  0
LINE
  5
D46
  8
FORM
 10
0.25
 20
0.7499999996674092
 30
0.0
 11
0.2500000000000426
 21
15.153846144098431
 31
0.0
  0
LINE
  5
D47
  8
FORM
  6
CONTINUOUS
 10
16.703251912464879
 20
0.7499999996674092
 30
0.0
 11
21.02491344805162
 21
0.7499999996674092
 31
0.0
  0
LINE
  5
D48
  8
FORM
  6
CONTINUOUS
 10
21.249999986363441
 20
3.1359173057725931
 30
0.0
 11
21.249999986363441
 21
0.9750865379792159
 31
0.0
  0
ARC
  5
D49
  8
FORM
  6
CONTINUOUS
 10
21.02491344805162
 20
0.9750865379792159
 30
0.0
 40
0.2250865383118096
 50
270.0
 51
0.0
  0
ARC
  5
D4A
  8
FORM
  6
CONTINUOUS
 10
21.02491344805162
 20
3.1359173057725931
 30
0.0
 40
0.2250865383118096
 50
359.99999999999989
 51
90.0
  0
ARC
  5
D4B
  8
FORM
  6
CONTINUOUS
 10
16.703251912464879
 20
0.9750865379792159
 30
0.0
 40
0.2250865383118096
 50
180.0
 51
270.0
  0
ARC
  5
D4C
  8
FORM
  6
CONTINUOUS
 10
16.703251912464879
 20
3.1359173057725931
 30
0.0
 40
0.2250865383118096
 50
90.0
 51
180.0
  0
LINE
  5
E91
  8
0
 10
0.7499999996674376
 20
0.7499999996674092
 30
0.0
 11
0.7499999996674376
 21
1.7499999996674089
 31
0.0
  0
LINE
  5
E92
  8
0
 10
0.7499999996674376
 20
0.8749999996674091
 30
0.0
 11
0.8749999996674375
 21
0.8749999996674091
 31
0.0
  0
LINE
  5
E93
  8
0
 10
0.7499999996674376
 20
0.9999999996674091
 30
0.0
 11
0.9999999996674375
 21
0.9999999996674091
 31
0.0
  0
LINE
  5
E94
  8
0
 10
0.7499999996674376
 20
1.1249999996674089
 30
0.0
 11
0.8749999996674375
 21
1.1249999996674089
 31
0.0
  0
LINE
  5
E95
  8
0
 10
0.7499999996674376
 20
1.2499999996674089
 30
0.0
 11
1.1249999996674369
 21
1.2499999996674089
 31
0.0
  0
LINE
  5
E96
  8
0
 10
0.7499999996674376
 20
1.3749999996674089
 30
0.0
 11
0.8749999996674375
 21
1.3749999996674089
 31
0.0
  0
LINE
  5
E97
  8
0
 10
0.7499999996674376
 20
1.4999999996674089
 30
0.0
 11
0.9999999996674375
 21
1.4999999996674089
 31
0.0
  0
LINE
  5
E98
  8
0
 10
0.7499999996674376
 20
1.6249999996674089
 30
0.0
 11
0.8749999996674375
 21
1.6249999996674089
 31
0.0
  0
LINE
  5
E99
  8
0
 10
0.7499999996674376
 20
1.7499999996674089
 30
0.0
 11
1.1249999996674369
 21
1.7499999996674089
 31
0.0
  0
LINE
  5
E9A
  8
0
 10
0.7499999996674376
 20
0.7499999996674092
 30
0.0
 11
1.1249999996674369
 21
0.7499999996674092
 31
0.0
  0
TEXT
  5
E9B
  8
0
 10
1.1742687732938739
 20
1.216959438666926
 30
0.0
 40
0.0625
  1
1/2"
  0
TEXT
  5
E9C
  8
0
 10
0.9242687732938748
 20
1.091959438666926
 30
0.0
 40
0.0625
  1
3/8"
  0
TEXT
  5
E9D
  8
0
 10
1.0492687732938739
 20
0.966959438666926
 30
0.0
 40
0.0625
  1
1/4"
  0
TEXT
  5
E9E
  8
0
 10
0.9242687732938748
 20
0.841959438666926
 30
0.0
 40
0.0625
  1
1/8"
  0
TEXT
  5
E9F
  8
0
 10
0.9242687732938748
 20
1.341959438666926
 30
0.0
 40
0.0625
  1
5/8"
  0
TEXT
  5
EA0
  8
0
 10
1.0492687732938739
 20
1.466959438666926
 30
0.0
 40
0.0625
  1
3/4"
  0
TEXT
  5
EA1
  8
0
 10
0.9242687732938748
 20
1.591959438666926
 30
0.0
 40
0.0625
  1
7/8"
  0
TEXT
  5
EA2
  8
0
 10
1.1742687732938739
 20
1.716959438666926
 30
0.0
 40
0.0625
  1
1"
  0
ENDSEC
  0
EOF
