  0
SECTION
  2
HEADER
  9
$ACADVER
  1
AC1009
  9
$INSBASE
 10
0.0
 20
0.0
 30
0.0
  9
$EXTMIN
 10
-0.0063644897047084
 20
-0.0017134391822253
 30
-0.0000000000112498
  9
$EXTMAX
 10
55.703081701163448
 20
43.032976741865092
 30
0.0000000000002956
  9
$LIMMIN
 10
0.0
 20
0.0
  9
$LIMMAX
 10
12.0
 20
9.0
  9
$ORTHOMODE
 70
     0
  9
$REGENMODE
 70
     1
  9
$FILLMODE
 70
     1
  9
$QTEXTMODE
 70
     0
  9
$MIRRTEXT
 70
     0
  9
$DRAGMODE
 70
     2
  9
$LTSCALE
 40
1.0
  9
$OSMODE
 70
    39
  9
$ATTMODE
 70
     1
  9
$TEXTSIZE
 40
0.25
  9
$TRACEWID
 40
0.05
  9
$TEXTSTYLE
  7
STANDARD
  9
$CLAYER
  8
0
  9
$CELTYPE
  6
BYLAYER
  9
$CECOLOR
 62
   256
  9
$DIMSCALE
 40
1.0
  9
$DIMASZ
 40
0.25
  9
$DIMEXO
 40
0.0625
  9
$DIMDLI
 40
0.38
  9
$DIMRND
 40
0.0
  9
$DIMDLE
 40
0.0
  9
$DIMEXE
 40
0.0652
  9
$DIMTP
 40
0.0
  9
$DIMTM
 40
0.0
  9
$DIMTXT
 40
0.25
  9
$DIMCEN
 40
0.0
  9
$DIMTSZ
 40
0.0
  9
$DIMTOL
 70
     0
  9
$DIMLIM
 70
     0
  9
$DIMTIH
 70
     1
  9
$DIMTOH
 70
     1
  9
$DIMSE1
 70
     0
  9
$DIMSE2
 70
     0
  9
$DIMTAD
 70
     0
  9
$DIMZIN
 70
     0
  9
$DIMBLK
  1

  9
$DIMASO
 70
     1
  9
$DIMSHO
 70
     1
  9
$DIMPOST
  1

  9
$DIMAPOST
  1

  9
$DIMALT
 70
     0
  9
$DIMALTD
 70
     2
  9
$DIMALTF
 40
25.399999999999999
  9
$DIMLFAC
 40
1.0
  9
$DIMTOFL
 70
     0
  9
$DIMTVP
 40
0.0
  9
$DIMTIX
 70
     0
  9
$DIMSOXD
 70
     0
  9
$DIMSAH
 70
     0
  9
$DIMBLK1
  1

  9
$DIMBLK2
  1

  9
$DIMSTYLE
  2
STANDARD
  9
$DIMCLRD
 70
     0
  9
$DIMCLRE
 70
     0
  9
$DIMCLRT
 70
     0
  9
$DIMTFAC
 40
1.0
  9
$DIMGAP
 40
0.09
  9
$LUNITS
 70
     2
  9
$LUPREC
 70
     8
  9
$SKETCHINC
 40
0.1
  9
$FILLETRAD
 40
0.0
  9
$AUNITS
 70
     0
  9
$AUPREC
 70
     0
  9
$MENU
  1
.
  9
$ELEVATION
 40
0.0
  9
$PELEVATION
 40
0.0
  9
$THICKNESS
 40
0.0
  9
$LIMCHECK
 70
     0
  9
$BLIPMODE
 70
     0
  9
$CHAMFERA
 40
0.0
  9
$CHAMFERB
 40
0.0
  9
$SKPOLY
 70
     0
  9
$TDCREATE
 40
2453473.3696830091
  9
$TDUPDATE
 40
2453473.4183116211
  9
$TDINDWG
 40
0.0486448264
  9
$TDUSRTIMER
 40
0.0486325463
  9
$USRTIMER
 70
     1
  9
$ANGBASE
 50
0.0
  9
$ANGDIR
 70
     0
  9
$PDMODE
 70
     0
  9
$PDSIZE
 40
0.0
  9
$PLINEWID
 40
0.0
  9
$COORDS
 70
     0
  9
$SPLFRAME
 70
     0
  9
$SPLINETYPE
 70
     6
  9
$SPLINESEGS
 70
     8
  9
$ATTDIA
 70
     0
  9
$ATTREQ
 70
     1
  9
$HANDLING
 70
     1
  9
$HANDSEED
  5
D26
  9
$SURFTAB1
 70
     6
  9
$SURFTAB2
 70
     6
  9
$SURFTYPE
 70
     6
  9
$SURFU
 70
     6
  9
$SURFV
 70
     6
  9
$UCSNAME
  2

  9
$UCSORG
 10
0.0
 20
0.0
 30
0.0
  9
$UCSXDIR
 10
1.0
 20
0.0
 30
0.0
  9
$UCSYDIR
 10
0.0
 20
1.0
 30
0.0
  9
$PUCSNAME
  2

  9
$PUCSORG
 10
0.0
 20
0.0
 30
0.0
  9
$PUCSXDIR
 10
1.0
 20
0.0
 30
0.0
  9
$PUCSYDIR
 10
0.0
 20
1.0
 30
0.0
  9
$USERI1
 70
     0
  9
$USERI2
 70
     0
  9
$USERI3
 70
     0
  9
$USERI4
 70
     0
  9
$USERI5
 70
     0
  9
$USERR1
 40
0.0
  9
$USERR2
 40
0.0
  9
$USERR3
 40
0.0
  9
$USERR4
 40
0.0
  9
$USERR5
 40
0.0
  9
$WORLDVIEW
 70
     1
  9
$SHADEDGE
 70
     3
  9
$SHADEDIF
 70
    70
  9
$TILEMODE
 70
     1
  9
$MAXACTVP
 70
    64
  9
$PLIMCHECK
 70
     0
  9
$PEXTMIN
 10
0.0
 20
0.0
 30
0.0
  9
$PEXTMAX
 10
0.0
 20
0.0
 30
0.0
  9
$PLIMMIN
 10
0.0
 20
0.0
  9
$PLIMMAX
 10
12.0
 20
9.0
  9
$UNITMODE
 70
     0
  9
$VISRETAIN
 70
     1
  9
$PLINEGEN
 70
     0
  9
$PSLTSCALE
 70
     1
  0
ENDSEC
  0
SECTION
  2
TABLES
  0
TABLE
  2
VPORT
 70
    20
  0
VPORT
  2
*ACTIVE
 70
     0
 10
0.0
 20
0.0
 11
1.0
 21
1.0
 12
27.84835860572937
 22
21.51563165134144
 13
0.0
 23
0.0
 14
0.5
 24
0.5
 15
0.5
 25
0.5
 16
0.0
 26
0.0
 36
1.0
 17
0.0
 27
0.0
 37
0.0
 40
43.584069204635149
 41
2.1727078891257992
 42
50.0
 43
0.0
 44
0.0
 50
0.0
 51
0.0
 71
     0
 72
 20000
 73
     1
 74
     3
 75
     0
 76
     0
 77
     0
 78
     0
  0
ENDTAB
  0
TABLE
  2
LTYPE
 70
     1
  0
LTYPE
  2
CONTINUOUS
 70
     0
  3
Solid line
 72
    65
 73
     0
 40
0.0
  0
ENDTAB
  0
TABLE
  2
LAYER
 70
     5
  0
LAYER
  2
0
 70
     0
 62
     7
  6
CONTINUOUS
  0
LAYER
  2
BODY_-_SKIRT
 70
     0
 62
   178
  6
CONTINUOUS
  0
LAYER
  2
DIMENSIONS
 70
     0
 62
     1
  6
CONTINUOUS
  0
LAYER
  2
DEFPOINTS
 70
     0
 62
     7
  6
CONTINUOUS
  0
LAYER
  2
FORM
 70
     0
 62
     5
  6
CONTINUOUS
  0
ENDTAB
  0
TABLE
  2
STYLE
 70
     1
  0
STYLE
  2
STANDARD
 70
     0
 40
0.0
 41
1.0
 50
0.0
 71
     0
 42
0.25
  3
simplex.shx
  4

  0
ENDTAB
  0
TABLE
  2
VIEW
 70
     0
  0
ENDTAB
  0
TABLE
  2
UCS
 70
     0
  0
ENDTAB
  0
TABLE
  2
APPID
 70
     4
  0
APPID
  2
ACAD
 70
     0
  0
APPID
  2
ACAECLAYERSTANDARD
 70
     0
  0
APPID
  2
ACAD_DSTYLE_DIMTEXT_FILL
 70
     0
  0
APPID
  2
DCO15
 70
     0
  0
ENDTAB
  0
TABLE
  2
DIMSTYLE
 70
     2
  0
DIMSTYLE
  2
STANDARD
 70
     0
  3

  4

  5

  6

  7

 40
1.0
 41
0.25
 42
0.0625
 43
0.38
 44
0.0652
 45
0.0
 46
0.0
 47
0.0
 48
0.0
140
0.25
141
0.0
142
0.0
143
25.399999999999999
144
1.0
145
0.0
146
1.0
147
0.09
 71
     0
 72
     0
 73
     1
 74
     1
 75
     0
 76
     0
 77
     0
 78
     0
170
     0
171
     2
172
     0
173
     0
174
     0
175
     0
176
     0
177
     0
178
     0
  0
ENDTAB
  0
ENDSEC
  0
SECTION
  2
BLOCKS
  0
BLOCK
  8
0
  2
$MODEL_SPACE
 70
     0
 10
0.0
 20
0.0
 30
0.0
  3
$MODEL_SPACE
  1

  0
ENDBLK
  5
21
  8
0
  0
BLOCK
 67
     1
  8
0
  2
$PAPER_SPACE
 70
     0
 10
0.0
 20
0.0
 30
0.0
  3
$PAPER_SPACE
  1

  0
ENDBLK
  5
5B
 67
     1
  8
0
  0
BLOCK
  8
0
  2
*U24
 70
     1
 10
0.0
 20
0.0
 30
0.0
  3
*U24
  1

  0
TEXT
  5
C4A
  8
DIMENSIONS
 62
     0
 10
25.775616977166191
 20
23.224549880558971
 30
0.0
 40
0.25
  1
11.000
  0
ENDBLK
  5
C4C
  8
0
  0
BLOCK
  8
0
  2
*U25
 70
     1
 10
0.0
 20
0.0
 30
0.0
  3
*U25
  1

  0
TEXT
  5
C4E
  8
DIMENSIONS
 62
     0
 10
25.775616977166191
 20
23.13237001269534
 30
0.0
 40
0.25
  1
11.000
  0
ENDBLK
  5
C50
  8
0
  0
BLOCK
  8
0
  2
*U26
 70
     1
 10
0.0
 20
0.0
 30
0.0
  3
*U26
  1

  0
TEXT
  5
C52
  8
DIMENSIONS
 62
     0
 10
25.8053788819281
 20
22.13237001269534
 30
0.0
 40
0.25
  1
14.081
  0
ENDBLK
  5
C54
  8
0
  0
BLOCK
  8
0
  2
*U27
 70
     1
 10
0.0
 20
0.0
 30
0.0
  3
*U27
  1

  0
TEXT
  5
C56
  8
DIMENSIONS
 62
     0
 10
34.846102988989387
 20
23.63237001269534
 30
0.0
 40
0.25
  1
0.375
  0
ENDBLK
  5
C58
  8
0
  0
BLOCK
  8
0
  2
*U28
 70
     1
 10
0.0
 20
0.0
 30
0.0
  3
*U28
  1

  0
TEXT
  5
C5A
  8
DIMENSIONS
 62
     0
 10
36.686102988989397
 20
25.38237001269534
 30
0.0
 40
0.25
  1
2.500
  0
ENDBLK
  5
C5C
  8
0
  0
BLOCK
  8
0
  2
*U29
 70
     1
 10
0.0
 20
0.0
 30
0.0
  3
*U29
  1

  0
TEXT
  5
C5E
  8
DIMENSIONS
 62
     0
 10
11.55780569900455
 20
9.1423845318458028
 30
0.0
 40
0.25
  1
13.500
  0
ENDBLK
  5
C60
  8
0
  0
BLOCK
  8
0
  2
*U30
 70
     1
 10
0.0
 20
0.0
 30
0.0
  3
*U30
  1

  0
TEXT
  5
C62
  8
DIMENSIONS
 62
     0
 10
12.551853318052171
 20
9.1423845318458028
 30
0.0
 40
0.25
  1
16.674
  0
ENDBLK
  5
C64
  8
0
  0
BLOCK
  8
0
  2
*U31
 70
     1
 10
0.0
 20
0.0
 30
0.0
  3
*U31
  1

  0
TEXT
  5
C66
  8
DIMENSIONS
 62
     0
 10
25.775616977166202
 20
27.63237001269534
 30
0.0
 40
0.25
  1
17.210
  0
ENDBLK
  5
C68
  8
0
  0
BLOCK
  8
0
  2
*U32
 70
     1
 10
0.0
 20
0.0
 30
0.0
  3
*U32
  1

  0
TEXT
  5
C6A
  8
DIMENSIONS
 62
     0
 10
21.697403943121461
 20
10.9659530656534
 30
0.0
 40
0.25
  1
R9.087
  0
ENDBLK
  5
C6C
  8
0
  0
BLOCK
  8
0
  2
*U33
 70
     1
 10
0.0
 20
0.0
 30
0.0
  3
*U33
  1

  0
TEXT
  5
C6E
  8
DIMENSIONS
 62
     0
 10
15.799080305931991
 20
9.1423845318457992
 30
0.0
 40
0.25
  1
5.060
  0
ENDBLK
  5
C70
  8
0
  0
BLOCK
  8
0
  2
*U34
 70
     1
 10
0.0
 20
0.0
 30
0.0
  3
*U34
  1

  0
TEXT
  5
C72
  8
DIMENSIONS
 62
     0
 10
23.404457147186111
 20
11.42082347148323
 30
0.0
 40
0.25
  1
R6.750
  0
ENDBLK
  5
C74
  8
0
  0
BLOCK
  8
0
  2
*U35
 70
     1
 10
0.0
 20
0.0
 30
0.0
  3
*U35
  1

  0
TEXT
  5
C76
  8
DIMENSIONS
 62
     0
 10
24.019738088128609
 20
13.21979689265029
 30
0.0
 40
0.25
  1
R9.087
  0
ENDBLK
  5
C78
  8
0
  0
BLOCK
  8
0
  2
*U36
 70
     1
 10
0.0
 20
0.0
 30
0.0
  3
*U36
  1

  0
TEXT
  5
C7A
  8
DIMENSIONS
 62
     0
 10
25.092656299599579
 20
13.263095808221401
 30
0.0
 40
0.25
  1
R8.587
  0
ENDBLK
  5
C7C
  8
0
  0
BLOCK
  8
0
  2
*U37
 70
     1
 10
0.0
 20
0.0
 30
0.0
  3
*U37
  1

  0
TEXT
  5
C7E
  8
DIMENSIONS
 62
     0
 10
28.802391578355842
 20
19.296505699703321
 30
0.0
 40
0.25
  1
0.500
  0
ENDBLK
  5
C80
  8
0
  0
BLOCK
  8
0
  2
*U38
 70
     1
 10
0.0
 20
0.0
 30
0.0
  3
*U38
  1

  0
TEXT
  5
C82
  8
DIMENSIONS
 62
     0
 10
26.085140786690001
 20
-1.1358829750155111
 30
0.0
 40
0.25
  1
22°
  0
ENDBLK
  5
C84
  8
0
  0
BLOCK
  8
0
  2
*U39
 70
     1
 10
0.0
 20
0.0
 30
0.0
  3
*U39
  1

  0
TEXT
  5
C86
  8
DIMENSIONS
 62
     0
 10
26.10895031049953
 20
-1.9865048776402201
 30
0.0
 40
0.25
  1
61°
  0
ENDBLK
  5
C88
  8
0
  0
BLOCK
  8
0
  2
*U40
 70
     1
 10
0.0
 20
0.0
 30
0.0
  3
*U40
  1

  0
TEXT
  5
C8A
  8
DIMENSIONS
 62
     0
 10
26.013712215261432
 20
-3.0920633516987461
 30
0.0
 40
0.25
  1
118°
  0
ENDBLK
  5
C8C
  8
0
  0
BLOCK
  8
0
  2
*U41
 70
     1
 10
0.0
 20
0.0
 30
0.0
  3
*U41
  1

  0
TEXT
  5
C8E
  8
DIMENSIONS
 62
     0
 10
36.401917107324202
 20
9.7133845318458061
 30
0.0
 40
0.25
  1
1.142
  0
ENDBLK
  5
C90
  8
0
  0
BLOCK
  8
0
  2
*U42
 70
     1
 10
0.0
 20
0.0
 30
0.0
  3
*U42
  1

  0
TEXT
  5
C92
  8
DIMENSIONS
 62
     0
 10
37.11586992932645
 20
8.6143845318457952
 30
0.0
 40
0.25
  1
1.056
  0
ENDBLK
  5
C94
  8
0
  0
BLOCK
  8
0
  2
*U43
 70
     1
 10
0.0
 20
0.0
 30
0.0
  3
*U43
  1

  0
TEXT
  5
C96
  8
DIMENSIONS
 62
     0
 10
38.006822861591161
 20
7.7643845318458187
 30
0.0
 40
0.25
  1
2.756
  0
ENDBLK
  5
C98
  8
0
  0
BLOCK
  8
0
  2
*U44
 70
     1
 10
0.0
 20
0.0
 30
0.0
  3
*U44
  1

  0
TEXT
  5
C9D
  8
DIMENSIONS
 62
     0
 10
42.804270066455693
 20
28.737970599438459
 30
0.0
 40
0.25
  1
2.500
  0
ENDBLK
  5
C9F
  8
0
  0
BLOCK
  8
0
  2
*U45
 70
     1
 10
0.0
 20
0.0
 30
0.0
  3
*U45
  1

  0
TEXT
  5
CA1
  8
DIMENSIONS
 62
     0
 10
45.375171404309079
 20
18.893907491059618
 30
0.0
 40
0.25
  1
18.174
  0
ENDBLK
  5
CA3
  8
0
  0
ENDSEC
  0
SECTION
  2
ENTITIES
  0
LINE
  5
8B
  8
BODY_-_SKIRT
 10
20.305090333837938
 20
34.008892971909169
 30
0.0
 11
31.305090333837938
 21
34.008892971909169
 31
0.0
  0
LINE
  5
8C
  8
BODY_-_SKIRT
 10
17.200090333837931
 20
36.508892971909169
 30
0.0
 11
18.76459033383793
 21
36.508892971909169
 31
0.0
  0
LINE
  5
90
  8
BODY_-_SKIRT
 10
31.305090333837938
 20
34.008892971909169
 30
0.0
 11
31.305090333837938
 21
34.383892971909162
 31
0.0
  0
LINE
  5
91
  8
BODY_-_SKIRT
 10
20.305090333837938
 20
34.008892971909169
 30
0.0
 11
20.305090333837938
 21
34.383892971909162
 31
0.0
  0
LINE
  5
97
  8
BODY_-_SKIRT
 10
20.305090333837938
 20
34.383892971909162
 30
0.0
 11
18.764590333837941
 21
36.508892971909169
 31
0.0
  0
LINE
  5
98
  8
BODY_-_SKIRT
 10
31.305090333837938
 20
34.383892971909162
 30
0.0
 11
32.845590333837933
 21
36.508892971909169
 31
0.0
  0
LINE
  5
9A
  8
BODY_-_SKIRT
 10
7.1057502369588974
 20
25.768907491059618
 30
0.0
 11
7.1057502369588974
 21
12.26890749105962
 31
0.0
  0
LINE
  5
9C
  8
BODY_-_SKIRT
 10
4.6057502369588974
 20
28.105907491059622
 30
0.0
 11
4.6057502369588974
 21
27.355907491059611
 31
0.0
  0
LINE
  5
9D
  8
BODY_-_SKIRT
 10
6.7307502369588974
 20
25.768907491059618
 30
0.0
 11
7.1057502369588974
 21
25.768907491059618
 31
0.0
  0
LINE
  5
9E
  8
BODY_-_SKIRT
 10
6.7307502369588974
 20
12.26890749105962
 30
0.0
 11
7.1057502369588974
 21
12.26890749105962
 31
0.0
  0
LINE
  5
A1
  8
BODY_-_SKIRT
 10
6.7307502369588974
 20
25.768907491059618
 30
0.0
 11
4.6057502369588974
 21
27.355907491059622
 31
0.0
  0
LINE
  5
A2
  8
BODY_-_SKIRT
 10
6.7307502369588974
 20
12.26890749105962
 30
0.0
 11
4.6057502369588974
 21
10.68190749105962
 31
0.0
  0
ARC
  5
A9
  8
BODY_-_SKIRT
 10
25.805090333837938
 20
19.018907491059618
 30
0.0
 40
6.75
 50
215.4309446873358
 51
324.5690553126642
  0
LINE
  5
AA
  8
BODY_-_SKIRT
 10
20.305090333837938
 20
22.932026451684258
 30
0.0
 11
20.305090333837938
 21
15.10578853043498
 31
0.0
  0
LINE
  5
AB
  8
BODY_-_SKIRT
 10
31.305090333837938
 20
22.932026451684251
 30
0.0
 11
31.305090333837938
 21
15.105788530434991
 31
0.0
  0
ARC
  5
AC
  8
BODY_-_SKIRT
 10
25.805090333837938
 20
19.018907491059618
 30
0.0
 40
6.75
 50
35.430944687335803
 51
144.5690553126642
  0
ARC
  5
AD
  8
BODY_-_SKIRT
 10
25.805090333837938
 20
19.018907491059618
 30
0.0
 40
9.0869999999999997
 50
16.16591130996305
 51
163.83408869003699
  0
LINE
  5
AE
  8
BODY_-_SKIRT
 10
17.200090333837931
 20
21.548907491059619
 30
0.0
 11
17.200090333837931
 21
16.488907491059621
 31
0.0
  0
LINE
  5
AF
  8
BODY_-_SKIRT
 10
34.41009033383795
 20
21.548907491059619
 30
0.0
 11
34.41009033383795
 21
16.488907491059621
 31
0.0
  0
LINE
  5
B0
  8
BODY_-_SKIRT
 10
17.077394818984089
 20
21.548907491059619
 30
0.0
 11
17.200090333837931
 21
21.548907491059619
 31
0.0
  0
LINE
  5
B1
  8
BODY_-_SKIRT
 10
17.077394818984089
 20
16.488907491059621
 30
0.0
 11
17.200090333837931
 21
16.488907491059621
 31
0.0
  0
LINE
  5
B2
  8
BODY_-_SKIRT
 10
34.41009033383795
 20
21.548907491059619
 30
0.0
 11
34.532785848691788
 21
21.548907491059619
 31
0.0
  0
LINE
  5
B3
  8
BODY_-_SKIRT
 10
34.41009033383795
 20
16.488907491059621
 30
0.0
 11
34.532785848691788
 21
16.488907491059621
 31
0.0
  0
ARC
  5
B4
  8
BODY_-_SKIRT
 10
25.805090333837938
 20
19.018907491059618
 30
0.0
 40
9.0869999999999997
 50
196.16591130996301
 51
343.83408869003688
  0
LINE
  5
B5
  8
BODY_-_SKIRT
 10
20.305090333837938
 20
5.3463799191942041
 30
0.0
 11
31.305090333837938
 21
5.3463799191942041
 31
0.0
  0
LINE
  5
B6
  8
BODY_-_SKIRT
 10
20.53766584033329
 20
4.9713799191942041
 30
0.0
 11
21.378930252434539
 21
4.9713799191942041
 31
0.0
  0
LINE
  5
B7
  8
BODY_-_SKIRT
 10
16.718090333837932
 20
2.8463799191942001
 30
0.0
 11
34.892090333837942
 21
2.8463799191942019
 31
0.0
  0
LINE
  5
C0
  8
BODY_-_SKIRT
 10
29.466590333837939
 20
13.625407491059621
 30
0.0
 11
29.466590333837939
 21
24.412407491059621
 31
0.0
  0
LINE
  5
C1
  8
BODY_-_SKIRT
 10
22.143590333837931
 20
13.625407491059621
 30
0.0
 11
22.143590333837931
 21
24.412407491059621
 31
0.0
  0
LINE
  5
C2
  8
BODY_-_SKIRT
 10
29.466590333837939
 20
24.412407491059621
 30
0.0
 11
22.143590333837931
 21
24.412407491059621
 31
0.0
  0
LINE
  5
C3
  8
BODY_-_SKIRT
 10
29.466590333837939
 20
13.625407491059621
 30
0.0
 11
22.143590333837931
 21
13.625407491059621
 31
0.0
  0
ARC
  5
CF
  8
BODY_-_SKIRT
 10
25.805090333837938
 20
19.018907491059618
 30
0.0
 40
8.5869999999999997
 50
304.09156726836949
 51
307.44376830521099
  0
LINE
  5
D4
  8
BODY_-_SKIRT
 10
26.55543243207989
 20
12.310741815138529
 30
0.0
 11
26.89886090188763
 21
10.501851958513861
 31
0.0
  0
LINE
  5
D5
  8
BODY_-_SKIRT
 10
31.07251482734258
 20
14.79791954921148
 30
0.0
 11
32.658381988153373
 21
13.845034425271241
 31
0.0
  0
LINE
  5
D6
  8
BODY_-_SKIRT
 10
29.69016416904962
 20
13.49906136141491
 30
0.0
 11
30.618250804257858
 21
11.907644924820969
 31
0.0
  0
LINE
  5
D7
  8
BODY_-_SKIRT
 10
27.05031135392181
 20
12.384759119856181
 30
0.0
 11
27.392956592396288
 21
10.579994661498461
 31
0.0
  0
LINE
  5
D8
  8
BODY_-_SKIRT
 10
30.09102939371834
 20
13.80419499898573
 30
0.0
 11
31.02583620387168
 21
12.20125528809959
 31
0.0
  0
LINE
  5
D9
  8
BODY_-_SKIRT
 10
31.305090333837938
 20
15.24149078501569
 30
0.0
 11
32.948710656117967
 21
14.25390406072424
 31
0.0
  0
ARC
  5
DA
  8
BODY_-_SKIRT
 10
25.805090333837938
 20
19.018907491059618
 30
0.0
 40
8.5869999999999997
 50
277.31793951262091
 51
280.6561845864033
  0
ARC
  5
DB
  8
BODY_-_SKIRT
 10
25.805090333837938
 20
19.018907491059618
 30
0.0
 40
8.5869999999999997
 50
322.94912385521991
 51
326.29555406761358
  0
LINE
  5
1FD
  8
DIMENSIONS
 10
32.845590333837933
 20
36.446392971909162
 30
0.0
 11
32.845590333837933
 21
31.943692971909162
 31
0.0
  0
LINE
  5
1FE
  8
DIMENSIONS
 10
18.764590333837941
 20
36.446392971909162
 30
0.0
 11
18.764590333837941
 21
31.943692971909162
 31
0.0
  0
LINE
  5
1FF
  8
DIMENSIONS
 10
32.595590333837933
 20
32.008892971909162
 30
0.0
 11
26.43675700050462
 21
32.008892971909162
 31
0.0
  0
LINE
  5
200
  8
DIMENSIONS
 10
19.014590333837941
 20
32.008892971909162
 30
0.0
 11
25.173423667171271
 21
32.008892971909162
 31
0.0
  0
SOLID
  5
201
  8
DIMENSIONS
 10
32.595590333837933
 20
32.050559638575841
 30
0.0
 11
32.595590333837933
 21
31.967226305242491
 31
0.0
 12
32.845590333837933
 22
32.008892971909162
 32
0.0
 13
32.845590333837933
 23
32.008892971909162
 33
0.0
  0
SOLID
  5
202
  8
DIMENSIONS
 10
19.014590333837941
 20
32.050559638575841
 30
0.0
 11
19.014590333837941
 21
31.967226305242491
 31
0.0
 12
18.764590333837941
 22
32.008892971909162
 32
0.0
 13
18.764590333837941
 23
32.008892971909162
 33
0.0
  0
LINE
  5
204
  8
DIMENSIONS
 10
31.305090333837938
 20
33.946392971909162
 30
0.0
 11
31.305090333837938
 21
32.943692971909158
 31
0.0
  0
LINE
  5
205
  8
DIMENSIONS
 10
20.305090333837938
 20
33.946392971909162
 30
0.0
 11
20.305090333837938
 21
32.943692971909158
 31
0.0
  0
LINE
  5
206
  8
DIMENSIONS
 10
31.055090333837938
 20
33.008892971909162
 30
0.0
 11
26.466518905266511
 21
33.008892971909162
 31
0.0
  0
LINE
  5
207
  8
DIMENSIONS
 10
20.555090333837938
 20
33.008892971909162
 30
0.0
 11
25.143661762409369
 21
33.008892971909162
 31
0.0
  0
SOLID
  5
208
  8
DIMENSIONS
 10
31.055090333837938
 20
33.050559638575827
 30
0.0
 11
31.055090333837938
 21
32.967226305242491
 31
0.0
 12
31.305090333837938
 22
33.008892971909162
 32
0.0
 13
31.305090333837938
 23
33.008892971909162
 33
0.0
  0
SOLID
  5
209
  8
DIMENSIONS
 10
20.555090333837938
 20
33.050559638575827
 30
0.0
 11
20.555090333837938
 21
32.967226305242491
 31
0.0
 12
20.305090333837938
 22
33.008892971909162
 32
0.0
 13
20.305090333837938
 23
33.008892971909162
 33
0.0
  0
TEXT
  5
20B
  8
DIMENSIONS
 10
25.263423667171271
 20
31.883892971909159
 30
0.0
 40
0.25
  1
14.081
  0
TEXT
  5
20C
  8
DIMENSIONS
 10
25.233661762409369
 20
32.883892971909162
 30
0.0
 40
0.25
  1
11.000
  0
LINE
  5
229
  8
DIMENSIONS
 10
31.367590333837938
 20
34.383892971909162
 30
0.0
 11
35.709347774232569
 21
34.383892971909162
 31
0.0
  0
LINE
  5
22A
  8
DIMENSIONS
 10
31.367590333837938
 20
34.008892971909169
 30
0.0
 11
35.709347774232569
 21
34.008892971909169
 31
0.0
  0
LINE
  5
22B
  8
DIMENSIONS
 10
35.644147774232579
 20
34.633892971909169
 30
0.0
 11
35.644147774232579
 21
34.883892971909162
 31
0.0
  0
LINE
  5
22C
  8
DIMENSIONS
 10
35.644147774232579
 20
33.758892971909162
 30
0.0
 11
35.644147774232579
 21
33.317309840744372
 31
0.0
  0
LINE
  5
22D
  8
DIMENSIONS
 10
35.894147774232579
 20
33.317309840744372
 30
0.0
 11
35.644147774232579
 21
33.317309840744372
 31
0.0
  0
SOLID
  5
22E
  8
DIMENSIONS
 10
35.602481107565907
 20
34.633892971909169
 30
0.0
 11
35.68581444089925
 21
34.633892971909169
 31
0.0
 12
35.644147774232579
 22
34.383892971909162
 32
0.0
 13
35.644147774232579
 23
34.383892971909162
 33
0.0
  0
SOLID
  5
22F
  8
DIMENSIONS
 10
35.602481107565907
 20
33.758892971909162
 30
0.0
 11
35.68581444089925
 21
33.758892971909162
 31
0.0
 12
35.644147774232579
 22
34.008892971909169
 32
0.0
 13
35.644147774232579
 23
34.008892971909169
 33
0.0
  0
TEXT
  5
231
  8
DIMENSIONS
 10
36.009066473563699
 20
33.192309840744372
 30
0.0
 40
0.25
  1
0.375
  0
LINE
  5
232
  8
DIMENSIONS
 10
36.644147774232579
 20
34.633892971909169
 30
0.0
 11
36.644147774232579
 21
34.883892971909162
 31
0.0
  0
LINE
  5
24D
  8
DIMENSIONS
 10
31.367590333837938
 20
34.008892971909169
 30
0.0
 11
36.709347774232569
 21
34.008892971909169
 31
0.0
  0
LINE
  5
24E
  8
DIMENSIONS
 10
34.472590333837942
 20
36.508892971909169
 30
0.0
 11
36.709347774232569
 21
36.508892971909169
 31
0.0
  0
LINE
  5
24F
  8
DIMENSIONS
 10
36.644147774232579
 20
34.258892971909162
 30
0.0
 11
36.644147774232579
 21
35.043892971909159
 31
0.0
  0
LINE
  5
250
  8
DIMENSIONS
 10
36.644147774232579
 20
36.258892971909162
 30
0.0
 11
36.644147774232579
 21
35.473892971909173
 31
0.0
  0
SOLID
  5
251
  8
DIMENSIONS
 10
36.602481107565907
 20
34.258892971909162
 30
0.0
 11
36.68581444089925
 21
34.258892971909162
 31
0.0
 12
36.644147774232579
 22
34.008892971909169
 32
0.0
 13
36.644147774232579
 23
34.008892971909169
 33
0.0
  0
SOLID
  5
252
  8
DIMENSIONS
 10
36.602481107565907
 20
36.258892971909162
 30
0.0
 11
36.68581444089925
 21
36.258892971909162
 31
0.0
 12
36.644147774232579
 22
36.508892971909169
 32
0.0
 13
36.644147774232579
 23
36.508892971909169
 33
0.0
  0
TEXT
  5
254
  8
DIMENSIONS
 10
36.144147774232557
 20
35.133892971909162
 30
0.0
 40
0.25
  1
2.500
  0
LINE
  5
28B
  8
DIMENSIONS
 10
4.6682502369588974
 20
27.355907491059622
 30
0.0
 11
9.1709502369589018
 21
27.355907491059622
 31
0.0
  0
LINE
  5
28C
  8
DIMENSIONS
 10
4.6682502369588974
 20
10.68190749105962
 30
0.0
 11
9.1709502369588947
 21
10.68190749105962
 31
0.0
  0
LINE
  5
28D
  8
DIMENSIONS
 10
9.1057502369588974
 20
27.105907491059622
 30
0.0
 11
9.1057502369588974
 21
19.073521443310959
 31
0.0
  0
LINE
  5
28E
  8
DIMENSIONS
 10
9.1057502369588974
 20
10.93190749105962
 30
0.0
 11
9.1057502369588974
 21
18.643521443310959
 31
0.0
  0
SOLID
  5
28F
  8
DIMENSIONS
 10
9.0640835702922331
 20
27.105907491059622
 30
0.0
 11
9.1474169036255688
 21
27.105907491059622
 31
0.0
 12
9.1057502369588974
 22
27.355907491059622
 32
0.0
 13
9.1057502369588974
 23
27.355907491059622
 33
0.0
  0
SOLID
  5
290
  8
DIMENSIONS
 10
9.0640835702922242
 20
10.93190749105962
 30
0.0
 11
9.1474169036255617
 21
10.93190749105962
 31
0.0
 12
9.1057502369588974
 22
10.68190749105962
 32
0.0
 13
9.1057502369588974
 23
10.68190749105962
 33
0.0
  0
LINE
  5
292
  8
DIMENSIONS
 10
7.1682502369588974
 20
12.26890749105962
 30
0.0
 11
8.1709502369588947
 21
12.26890749105962
 31
0.0
  0
LINE
  5
293
  8
DIMENSIONS
 10
7.1682502369588974
 20
25.768907491059618
 30
0.0
 11
8.1709502369589018
 21
25.768907491059618
 31
0.0
  0
LINE
  5
294
  8
DIMENSIONS
 10
8.1057502369588974
 20
12.51890749105962
 30
0.0
 11
8.1057502369588974
 21
19.313369302530489
 31
0.0
  0
LINE
  5
295
  8
DIMENSIONS
 10
8.1057502369588974
 20
25.518907491059618
 30
0.0
 11
8.1057502369588974
 21
19.743369302530489
 31
0.0
  0
SOLID
  5
296
  8
DIMENSIONS
 10
8.0640835702922242
 20
12.51890749105962
 30
0.0
 11
8.1474169036255617
 21
12.51890749105962
 31
0.0
 12
8.1057502369588974
 22
12.26890749105962
 32
0.0
 13
8.1057502369588974
 23
12.26890749105962
 33
0.0
  0
SOLID
  5
297
  8
DIMENSIONS
 10
8.0640835702922331
 20
25.518907491059618
 30
0.0
 11
8.1474169036255617
 21
25.518907491059618
 31
0.0
 12
8.1057502369588974
 22
25.768907491059618
 32
0.0
 13
8.1057502369588974
 23
25.768907491059618
 33
0.0
  0
TEXT
  5
299
  8
DIMENSIONS
 10
8.5045597607684158
 20
18.742955823695219
 30
0.0
 40
0.25
  1
16.674
  0
TEXT
  5
29A
  8
DIMENSIONS
 10
7.5105121417207954
 20
19.403369302530489
 30
0.0
 40
0.25
  1
13.500
  0
LINE
  5
29B
  8
BODY_-_SKIRT
 10
32.845590333837933
 20
36.508892971909169
 30
0.0
 11
34.41009033383795
 21
36.508892971909169
 31
0.0
  0
LINE
  5
29D
  8
BODY_-_SKIRT
 10
42.112087743863917
 20
25.768907491059618
 30
0.0
 11
42.054270066455679
 21
25.768907491059618
 31
0.0
  0
LINE
  5
29E
  8
BODY_-_SKIRT
 10
42.0542700664557
 20
25.768907491059618
 30
0.0
 11
42.054270066455679
 21
12.26890749105962
 31
0.0
  0
LINE
  5
29F
  8
BODY_-_SKIRT
 10
44.554270066455679
 20
28.105907491059622
 30
0.0
 11
44.554270066455679
 21
9.9319074910596203
 31
0.0
  0
LINE
  5
2A0
  8
BODY_-_SKIRT
 10
42.4292700664557
 20
25.653055862263031
 30
0.0
 11
42.429270066455693
 21
24.777466086193389
 31
0.0
  0
LINE
  5
2A3
  8
BODY_-_SKIRT
 10
4.6057502369588974
 20
10.68190749105962
 30
0.0
 11
4.6057502369588974
 21
9.9319074910596203
 31
0.0
  0
LINE
  5
2C0
  8
DIMENSIONS
 10
34.41009033383795
 20
36.571392971909162
 30
0.0
 11
34.41009033383795
 21
37.574092971909167
 31
0.0
  0
LINE
  5
2C1
  8
DIMENSIONS
 10
17.200090333837931
 20
36.571392971909162
 30
0.0
 11
17.200090333837931
 21
37.574092971909167
 31
0.0
  0
LINE
  5
2C2
  8
DIMENSIONS
 10
34.160090333837942
 20
37.508892971909162
 30
0.0
 11
28.123389569244839
 21
37.508892971909162
 31
0.0
  0
LINE
  5
2C3
  8
DIMENSIONS
 10
17.450090333837931
 20
37.508892971909162
 30
0.0
 11
23.483782336298589
 21
37.508892971909162
 31
0.0
  0
SOLID
  5
2C4
  8
DIMENSIONS
 10
34.160090333837942
 20
37.550559638575841
 30
0.0
 11
34.160090333837942
 21
37.467226305242491
 31
0.0
 12
34.41009033383795
 22
37.508892971909162
 32
0.0
 13
34.41009033383795
 23
37.508892971909162
 33
0.0
  0
SOLID
  5
2C5
  8
DIMENSIONS
 10
17.450090333837931
 20
37.550559638575841
 30
0.0
 11
17.450090333837931
 21
37.467226305242491
 31
0.0
 12
17.200090333837931
 22
37.508892971909162
 32
0.0
 13
17.200090333837931
 23
37.508892971909162
 33
0.0
  0
TEXT
  5
2C7
  8
DIMENSIONS
 10
23.691995095742708
 20
37.383892971909162
 30
0.0
 40
0.25
  1
17.210 ACROSS FLATS
  0
LINE
  5
2DB
  8
DIMENSIONS
 10
25.805090333837949
 20
19.018907491059611
 30
0.0
 11
16.17431802346551
 21
23.38261861444931
 31
0.0
  0
SOLID
  5
2DD
  8
DIMENSIONS
 10
17.773003461522531
 20
22.703997121813469
 30
0.0
 11
17.738610784260121
 21
22.628091995536209
 31
0.0
 12
17.52809174405952
 22
22.769222590462078
 32
0.0
 13
17.52809174405952
 23
22.769222590462078
 33
0.0
  0
LINE
  5
2E1
  8
DIMENSIONS
 10
16.17431802346551
 20
23.38261861444931
 30
0.0
 11
15.924318023465521
 21
23.38261861444931
 31
0.0
  0
TEXT
  5
2E3
  8
DIMENSIONS
 10
11.07579963529483
 20
23.249300553290119
 30
0.0
 40
0.25
  1
BODY OUTSIDE DIAMETER
  0
TEXT
  5
2E4
  8
DIMENSIONS
 10
11.07579963529483
 20
22.820729124718689
 30
0.0
 40
0.25
  1
18.174, R9.087
  0
LINE
  5
2FF
  8
DIMENSIONS
 10
17.014894818984089
 20
16.488907491059621
 30
0.0
 11
15.691925091175159
 21
16.488907491059621
 31
0.0
  0
LINE
  5
300
  8
DIMENSIONS
 10
17.014894818984089
 20
21.548907491059619
 30
0.0
 11
15.691925091175159
 21
21.548907491059619
 31
0.0
  0
LINE
  5
301
  8
DIMENSIONS
 10
15.757125091175171
 20
16.738907491059621
 30
0.0
 11
15.757125091175171
 21
18.803907491059618
 31
0.0
  0
LINE
  5
302
  8
DIMENSIONS
 10
15.757125091175171
 20
21.298907491059619
 30
0.0
 11
15.757125091175171
 21
19.233907491059622
 31
0.0
  0
SOLID
  5
303
  8
DIMENSIONS
 10
15.715458424508499
 20
16.738907491059621
 30
0.0
 11
15.79879175784184
 21
16.738907491059621
 31
0.0
 12
15.757125091175171
 22
16.488907491059621
 32
0.0
 13
15.757125091175171
 23
16.488907491059621
 33
0.0
  0
SOLID
  5
304
  8
DIMENSIONS
 10
15.715458424508499
 20
21.298907491059619
 30
0.0
 11
15.79879175784184
 21
21.298907491059619
 31
0.0
 12
15.757125091175171
 22
21.548907491059619
 32
0.0
 13
15.757125091175171
 23
21.548907491059619
 33
0.0
  0
TEXT
  5
306
  8
DIMENSIONS
 10
15.257125091175171
 20
18.893907491059618
 30
0.0
 40
0.25
  1
5.060
  0
ARC
  5
307
  8
BODY_-_SKIRT
 10
25.805090333837938
 20
19.018907491059618
 30
0.0
 40
8.5869999999999997
 50
232.5562316947892
 51
235.9084327316306
  0
ARC
  5
308
  8
BODY_-_SKIRT
 10
25.805090333837938
 20
19.018907491059618
 30
0.0
 40
8.5869999999999997
 50
213.70444593238639
 51
217.05087614478009
  0
ARC
  5
309
  8
BODY_-_SKIRT
 10
25.805090333837938
 20
19.018907491059618
 30
0.0
 40
8.5869999999999997
 50
259.3438154135967
 51
262.68206048737909
  0
LINE
  5
30A
  8
BODY_-_SKIRT
 10
25.054748235596001
 20
12.310741815138529
 30
0.0
 11
24.71131976578825
 21
10.501851958513861
 31
0.0
  0
LINE
  5
30B
  8
BODY_-_SKIRT
 10
24.55986931375406
 20
12.384759119856181
 30
0.0
 11
24.217224075279589
 21
10.579994661498461
 31
0.0
  0
LINE
  5
30C
  8
BODY_-_SKIRT
 10
20.537665840333311
 20
14.79791954921148
 30
0.0
 11
18.951798679522511
 21
13.845034425271241
 31
0.0
  0
LINE
  5
30D
  8
BODY_-_SKIRT
 10
20.305090333837938
 20
15.24149078501569
 30
0.0
 11
18.66147001155791
 21
14.25390406072424
 31
0.0
  0
LINE
  5
30E
  8
BODY_-_SKIRT
 10
21.92001649862625
 20
13.49906136141491
 30
0.0
 11
20.991929863418019
 21
11.907644924820969
 31
0.0
  0
LINE
  5
30F
  8
BODY_-_SKIRT
 10
21.519151273957529
 20
13.80419499898573
 30
0.0
 11
20.5843444638042
 21
12.20125528809959
 31
0.0
  0
ARC
  5
310
  8
BODY_-_SKIRT
 10
25.805090333837938
 20
19.01890749105959
 30
0.0
 40
8.5869999999999997
 50
52.556231694789091
 51
55.908432731630569
  0
ARC
  5
311
  8
BODY_-_SKIRT
 10
25.805090333837938
 20
19.01890749105959
 30
0.0
 40
8.5869999999999997
 50
33.70444593238642
 51
37.050876144780133
  0
ARC
  5
312
  8
BODY_-_SKIRT
 10
25.805090333837938
 20
19.01890749105959
 30
0.0
 40
8.5869999999999997
 50
79.343815413596701
 51
82.682060487379104
  0
LINE
  5
313
  8
BODY_-_SKIRT
 10
26.55543243207989
 20
25.727073166980691
 30
0.0
 11
26.89886090188763
 21
27.535963023605351
 31
0.0
  0
LINE
  5
314
  8
BODY_-_SKIRT
 10
27.05031135392181
 20
25.653055862263042
 30
0.0
 11
27.392956592396288
 21
27.457820320620751
 31
0.0
  0
LINE
  5
315
  8
BODY_-_SKIRT
 10
31.07251482734258
 20
23.23989543290773
 30
0.0
 11
32.658381988153373
 21
24.192780556847978
 31
0.0
  0
LINE
  5
316
  8
BODY_-_SKIRT
 10
31.305090333837938
 20
22.79632419710353
 30
0.0
 11
32.948710656117967
 21
23.78391092139497
 31
0.0
  0
LINE
  5
317
  8
BODY_-_SKIRT
 10
29.69016416904962
 20
24.538753620704298
 30
0.0
 11
30.618250804257858
 21
26.130170057298251
 31
0.0
  0
LINE
  5
318
  8
BODY_-_SKIRT
 10
30.09102939371834
 20
24.23361998313348
 30
0.0
 11
31.02583620387168
 21
25.83655969401962
 31
0.0
  0
ARC
  5
319
  8
BODY_-_SKIRT
 10
25.805090333837938
 20
19.01890749105959
 30
0.0
 40
8.5869999999999997
 50
124.0915672683694
 51
127.4437683052108
  0
ARC
  5
31A
  8
BODY_-_SKIRT
 10
25.805090333837938
 20
19.01890749105959
 30
0.0
 40
8.5869999999999997
 50
142.9491238552198
 51
146.29555406761361
  0
ARC
  5
31B
  8
BODY_-_SKIRT
 10
25.805090333837938
 20
19.01890749105959
 30
0.0
 40
8.5869999999999997
 50
97.31793951262091
 51
100.6561845864033
  0
LINE
  5
31C
  8
BODY_-_SKIRT
 10
25.054748235596001
 20
25.727073166980691
 30
0.0
 11
24.71131976578825
 21
27.535963023605351
 31
0.0
  0
LINE
  5
31D
  8
BODY_-_SKIRT
 10
24.55986931375406
 20
25.653055862263042
 30
0.0
 11
24.217224075279589
 21
27.457820320620751
 31
0.0
  0
LINE
  5
31E
  8
BODY_-_SKIRT
 10
20.537665840333311
 20
23.23989543290773
 30
0.0
 11
18.951798679522511
 21
24.192780556847978
 31
0.0
  0
LINE
  5
31F
  8
BODY_-_SKIRT
 10
20.305090333837938
 20
22.79632419710353
 30
0.0
 11
18.66147001155791
 21
23.78391092139497
 31
0.0
  0
LINE
  5
320
  8
BODY_-_SKIRT
 10
21.92001649862625
 20
24.538753620704298
 30
0.0
 11
20.991929863418019
 21
26.130170057298251
 31
0.0
  0
LINE
  5
321
  8
BODY_-_SKIRT
 10
21.519151273957529
 20
24.23361998313348
 30
0.0
 11
20.5843444638042
 21
25.83655969401962
 31
0.0
  0
LINE
  5
358
  8
DIMENSIONS
 10
25.805090333837949
 20
19.01890749105959
 30
0.0
 11
24.208666229219322
 21
29.470949403567609
 31
0.0
  0
SOLID
  5
35A
  8
DIMENSIONS
 10
24.58750082545588
 20
27.266621168206068
 30
0.0
 11
24.505122846239221
 21
27.254038919415631
 31
0.0
 12
24.508565089476232
 22
27.50746398146082
 32
0.0
 13
24.508565089476232
 23
27.50746398146082
 33
0.0
  0
LINE
  5
35C
  8
DIMENSIONS
 10
25.80509033383791
 20
19.018907491059611
 30
0.0
 11
21.731551082118731
 21
28.775957661440721
 31
0.0
  0
SOLID
  5
35E
  8
DIMENSIONS
 10
22.43892560679501
 20
27.189785053569238
 30
0.0
 11
22.362025219016282
 21
27.157679371767991
 31
0.0
 12
22.30415836750187
 22
27.404433376004839
 32
0.0
 13
22.30415836750187
 23
27.404433376004839
 33
0.0
  0
LINE
  5
360
  8
DIMENSIONS
 10
25.805090333837899
 20
19.018907491059601
 30
0.0
 11
18.26525762430833
 21
26.431374878842082
 31
0.0
  0
SOLID
  5
362
  8
DIMENSIONS
 10
21.19912428665705
 20
23.605498042147431
 30
0.0
 11
21.140702775384302
 21
23.546072698521559
 31
0.0
 12
20.991637500143089
 22
23.751049904152762
 32
0.0
 13
20.991637500143089
 23
23.751049904152762
 33
0.0
  0
TEXT
  5
364
  8
DIMENSIONS
 10
22.598909714437202
 20
29.35782280594519
 30
0.0
 40
0.25
  1
R8.587
  0
TEXT
  5
365
  8
DIMENSIONS
 10
20.105202558645061
 20
28.669452321824441
 30
0.0
 40
0.25
  1
R9.087
  0
TEXT
  5
366
  8
DIMENSIONS
 10
16.608645298818299
 20
26.322578079612882
 30
0.0
 40
0.25
  1
R6.750
  0
LINE
  5
367
  8
DIMENSIONS
 10
18.26525762430833
 20
26.431374878842089
 30
0.0
 11
18.01525762430833
 21
26.431374878842089
 31
0.0
  0
LINE
  5
368
  8
DIMENSIONS
 10
21.731551082118731
 20
28.775957661440721
 30
0.0
 11
21.481551082118731
 21
28.775957661440721
 31
0.0
  0
LINE
  5
369
  8
DIMENSIONS
 10
24.208666229219322
 20
29.470949403567609
 30
0.0
 11
23.958666229219322
 21
29.470949403567609
 31
0.0
  0
LINE
  5
384
  8
DIMENSIONS
 10
26.908624116344711
 20
27.597695751096239
 30
0.0
 11
27.192663838484808
 21
29.393676658876799
 31
0.0
  0
LINE
  5
385
  8
DIMENSIONS
 10
27.402719806853352
 20
27.51955304811165
 30
0.0
 11
27.686759528993448
 21
29.31553395589221
 31
0.0
  0
LINE
  5
386
  8
DIMENSIONS
 10
26.935547943199609
 20
29.368329935386569
 30
0.0
 11
26.688617033236021
 21
29.407382793214861
 31
0.0
  0
LINE
  5
387
  8
DIMENSIONS
 10
27.923505453635428
 20
29.212081516745432
 30
0.0
 11
28.170436363599009
 21
29.173028658917151
 31
0.0
  0
SOLID
  5
388
  8
DIMENSIONS
 10
26.942056752837662
 20
29.40948508704717
 30
0.0
 11
26.92903913356156
 21
29.32717478372598
 31
0.0
 12
27.18247885316319
 22
29.329277077558292
 32
0.0
 13
27.18247885316319
 23
29.329277077558292
 33
0.0
  0
SOLID
  5
389
  8
DIMENSIONS
 10
27.93001426327347
 20
29.253236668406021
 30
0.0
 11
27.916996643997379
 21
29.170926365084821
 31
0.0
 12
27.67657454367184
 22
29.251134374573699
 32
0.0
 13
27.67657454367184
 23
29.251134374573699
 33
0.0
  0
TEXT
  5
38B
  8
DIMENSIONS
 10
28.260436363599009
 20
29.04802865891714
 30
0.0
 40
0.25
  1
0.500 TYPICAL
  0
LINE
  5
3E6
  8
DIMENSIONS
 10
25.805090333837931
 20
17.962907491059621
 30
0.0
 11
20.751957665508829
 21
14.926679067939
 31
0.0
  0
LINE
  5
3E7
  8
DIMENSIONS
 10
25.805090333837931
 20
17.962907491059621
 30
0.0
 11
30.858223002167051
 21
14.92667906793899
 31
0.0
  0
ARC
  5
3E8
  8
DIMENSIONS
 10
25.805090333837938
 20
17.962907491059621
 30
0.0
 40
11.17844788354455
 50
212.28141612868271
 51
267.8296615929828
  0
ARC
  5
3E9
  8
DIMENSIONS
 10
25.805090333837938
 20
17.962907491059621
 30
0.0
 40
11.17844788354455
 50
272.17033840701731
 51
327.71858387131738
  0
SOLID
  5
3EA
  8
DIMENSIONS
 10
16.318964963334949
 20
11.97088464961889
 30
0.0
 11
16.389911166050151
 21
12.014600559362799
 31
0.0
 12
16.22329033546082
 22
12.20558121263646
 32
0.0
 13
16.22329033546082
 23
12.20558121263646
 33
0.0
  0
SOLID
  5
3EB
  8
DIMENSIONS
 10
35.220269501625737
 20
12.01460055936281
 30
0.0
 11
35.291215704340928
 21
11.970884649618901
 31
0.0
 12
35.38689033221506
 22
12.20558121263646
 32
0.0
 13
35.38689033221506
 23
12.20558121263646
 33
0.0
  0
LINE
  5
3ED
  8
DIMENSIONS
 10
25.805090333837938
 20
20.160907491059639
 30
0.0
 11
22.045959992887639
 21
13.71502023771601
 31
0.0
  0
LINE
  5
3EE
  8
DIMENSIONS
 10
25.805090333837938
 20
20.160907491059639
 30
0.0
 11
29.564220674788231
 21
13.71502023771601
 31
0.0
  0
ARC
  5
3EF
  8
DIMENSIONS
 10
25.805090333837938
 20
20.160907491059611
 30
0.0
 40
12.27088940948601
 50
240.91733124570271
 51
267.30455525945081
  0
ARC
  5
3F0
  8
DIMENSIONS
 10
25.805090333837938
 20
20.160907491059611
 30
0.0
 40
12.27088940948601
 50
273.00948518641547
 51
299.08266875429729
  0
SOLID
  5
3F1
  8
DIMENSIONS
 10
19.819943353658111
 20
9.4009353862218177
 30
0.0
 11
19.861189036652728
 21
9.4733455932285118
 31
0.0
 12
19.623335574135339
 22
9.5608775387089953
 32
0.0
 13
19.623335574135339
 23
9.5608775387089953
 33
0.0
  0
SOLID
  5
3F2
  8
DIMENSIONS
 10
31.748991631023149
 20
9.4733455932285118
 30
0.0
 11
31.790237314017752
 21
9.4009353862218141
 31
0.0
 12
31.986845093540541
 22
9.5608775387089935
 32
0.0
 13
31.986845093540541
 23
9.5608775387089935
 33
0.0
  0
LINE
  5
3F4
  8
DIMENSIONS
 10
25.805090333837938
 20
16.262907491059671
 30
0.0
 11
25.101379244598181
 21
12.55635441456991
 31
0.0
  0
LINE
  5
3F5
  8
DIMENSIONS
 10
25.805090333837938
 20
16.262907491059671
 30
0.0
 11
26.508801423077699
 21
12.55635441456991
 31
0.0
  0
ARC
  5
3F6
  8
DIMENSIONS
 10
25.805090333837938
 20
16.262907491059639
 30
0.0
 40
7.5222675068613327
 50
261.15429337595862
 51
265.9503880354896
  0
ARC
  5
3F7
  8
DIMENSIONS
 10
25.805090333837938
 20
16.262907491059639
 30
0.0
 40
7.5222675068613327
 50
274.48077370096109
 51
278.84570662404138
  0
SOLID
  5
3F8
  8
DIMENSIONS
 10
24.64126968314428
 20
8.7890507142732854
 30
0.0
 11
24.655450731393628
 21
8.8711685705226664
 31
0.0
 12
24.402006638520799
 22
8.8726527871460448
 32
0.0
 13
24.402006638520799
 23
8.8726527871460448
 33
0.0
  0
SOLID
  5
3F9
  8
DIMENSIONS
 10
26.954729936282249
 20
8.8711685705226664
 30
0.0
 11
26.968910984531611
 21
8.7890507142732854
 31
0.0
 12
27.208174029155071
 22
8.8726527871460448
 32
0.0
 13
27.208174029155071
 23
8.8726527871460448
 33
0.0
  0
TEXT
  5
3FB
  8
DIMENSIONS
 10
25.47175700050461
 20
6.6594596075150738
 30
0.0
 40
0.25
  1
118°
  0
TEXT
  5
3FC
  8
DIMENSIONS
 10
25.421347542049968
 20
7.7650180815735999
 30
0.0
 40
0.25
  1
60.5%%D
  0
TEXT
  5
3FD
  8
DIMENSIONS
 10
25.397538018240429
 20
8.6156399841983102
 30
0.0
 40
0.25
  1
21.5%%D
  0
LINE
  5
40B
  8
DIMENSIONS
 10
32.872673813328888
 20
13.71627490654372
 30
0.0
 11
35.442777640220839
 21
12.17200073015233
 31
0.0
  0
LINE
  5
40C
  8
DIMENSIONS
 10
30.74419429851924
 20
11.691686048519861
 30
0.0
 11
32.019691156843912
 21
9.5045554637696661
 31
0.0
  0
LINE
  5
40D
  8
DIMENSIONS
 10
26.945491910889832
 20
10.256239359082491
 30
0.0
 11
27.22033539630285
 21
8.8085970212143412
 31
0.0
  0
LINE
  5
40E
  8
DIMENSIONS
 10
24.66468875678606
 20
10.256239359082491
 30
0.0
 11
24.389845271373041
 21
8.8085970212143412
 31
0.0
  0
LINE
  5
40F
  8
DIMENSIONS
 10
20.865986369156651
 20
11.691686048519861
 30
0.0
 11
19.590489510831969
 21
9.5045554637696696
 31
0.0
  0
LINE
  5
410
  8
DIMENSIONS
 10
18.737506854346989
 20
13.71627490654372
 30
0.0
 11
16.167403027455052
 21
12.17200073015232
 31
0.0
  0
LINE
  5
460
  8
DIMENSIONS
 10
25.867590333837899
 20
19.018907491059601
 30
0.0
 11
38.02411526588196
 21
19.018907491059601
 31
0.0
  0
LINE
  5
461
  8
DIMENSIONS
 10
25.867590333837938
 20
16.262907491059671
 30
0.0
 11
38.02411526588196
 21
16.262907491059671
 31
0.0
  0
LINE
  5
462
  8
DIMENSIONS
 10
37.958915265881963
 20
18.768907491059601
 30
0.0
 11
37.958915265881963
 21
17.855907491059629
 31
0.0
  0
LINE
  5
463
  8
DIMENSIONS
 10
37.958915265881963
 20
16.512907491059671
 30
0.0
 11
37.958915265881963
 21
17.425907491059629
 31
0.0
  0
SOLID
  5
464
  8
DIMENSIONS
 10
37.917248599215277
 20
18.768907491059601
 30
0.0
 11
38.000581932548627
 21
18.768907491059601
 31
0.0
 12
37.958915265881963
 22
19.018907491059601
 32
0.0
 13
37.958915265881963
 23
19.018907491059601
 33
0.0
  0
SOLID
  5
465
  8
DIMENSIONS
 10
37.917248599215277
 20
16.512907491059671
 30
0.0
 11
38.000581932548627
 21
16.512907491059671
 31
0.0
 12
37.958915265881963
 22
16.262907491059671
 32
0.0
 13
37.958915265881963
 23
16.262907491059671
 33
0.0
  0
LINE
  5
467
  8
DIMENSIONS
 10
25.867590333837899
 20
19.018907491059601
 30
0.0
 11
37.109352809807717
 21
19.018907491059601
 31
0.0
  0
LINE
  5
468
  8
DIMENSIONS
 10
25.867590333837921
 20
17.962907491059621
 30
0.0
 11
37.109352809807717
 21
17.962907491059621
 31
0.0
  0
LINE
  5
469
  8
DIMENSIONS
 10
37.044152809807713
 20
19.268907491059601
 30
0.0
 11
37.044152809807713
 21
19.518907491059601
 31
0.0
  0
LINE
  5
46A
  8
DIMENSIONS
 10
37.044152809807713
 20
17.71290749105961
 30
0.0
 11
37.044152809807713
 21
17.462907491059621
 31
0.0
  0
SOLID
  5
46B
  8
DIMENSIONS
 10
37.002486143141041
 20
19.268907491059601
 30
0.0
 11
37.085819476474377
 21
19.268907491059601
 31
0.0
 12
37.044152809807713
 22
19.018907491059601
 32
0.0
 13
37.044152809807713
 23
19.018907491059601
 33
0.0
  0
SOLID
  5
46C
  8
DIMENSIONS
 10
37.002486143141041
 20
17.71290749105961
 30
0.0
 11
37.085819476474377
 21
17.71290749105961
 31
0.0
 12
37.044152809807713
 22
17.962907491059621
 32
0.0
 13
37.044152809807713
 23
17.962907491059621
 33
0.0
  0
LINE
  5
46E
  8
DIMENSIONS
 10
25.867590333837949
 20
19.018907491059611
 30
0.0
 11
36.377542844948323
 21
19.018907491059601
 31
0.0
  0
LINE
  5
46F
  8
DIMENSIONS
 10
25.867590333837938
 20
20.160907491059639
 30
0.0
 11
36.377542844948323
 21
20.160907491059639
 31
0.0
  0
LINE
  5
470
  8
DIMENSIONS
 10
36.312342844948319
 20
19.268907491059601
 30
0.0
 11
36.312342844948319
 21
19.37490749105962
 31
0.0
  0
LINE
  5
471
  8
DIMENSIONS
 10
36.312342844948319
 20
19.910907491059628
 30
0.0
 11
36.312342844948319
 21
19.80490749105962
 31
0.0
  0
SOLID
  5
472
  8
DIMENSIONS
 10
36.270676178281647
 20
19.268907491059601
 30
0.0
 11
36.35400951161499
 21
19.268907491059601
 31
0.0
 12
36.312342844948319
 22
19.018907491059601
 32
0.0
 13
36.312342844948319
 23
19.018907491059601
 33
0.0
  0
SOLID
  5
473
  8
DIMENSIONS
 10
36.270676178281647
 20
19.910907491059628
 30
0.0
 11
36.35400951161499
 21
19.910907491059628
 31
0.0
 12
36.312342844948319
 22
20.160907491059639
 32
0.0
 13
36.312342844948319
 23
20.160907491059639
 33
0.0
  0
TEXT
  5
475
  8
DIMENSIONS
 10
37.464867646834342
 20
17.51590749105964
 30
0.0
 40
0.25
  1
2.756
  0
TEXT
  5
476
  8
DIMENSIONS
 10
36.573914714569632
 20
18.365907491059609
 30
0.0
 40
0.25
  1
1.056
  0
TEXT
  5
477
  8
DIMENSIONS
 10
35.85996189256737
 20
19.46490749105963
 30
0.0
 40
0.25
  1
1.142
  0
LINE
  5
47B
  8
BODY_-_SKIRT
 10
18.764590333837941
 20
23.721949980715479
 30
0.0
 11
18.764590333837941
 21
14.315865001403729
 31
0.0
  0
LINE
  5
47C
  8
BODY_-_SKIRT
 10
32.845590333837933
 20
23.721949980715479
 30
0.0
 11
32.845590333837933
 21
14.315865001403729
 31
0.0
  0
ARC
  5
47D
  8
BODY_-_SKIRT
 10
25.805090333837938
 20
19.018907491059618
 30
0.0
 40
8.3369999999999997
 50
217.23303117255151
 51
232.33932049544271
  0
ARC
  5
47E
  8
BODY_-_SKIRT
 10
25.805090333837938
 20
19.018907491059618
 30
0.0
 40
8.3369999999999997
 50
37.23303117255135
 51
52.339320495442557
  0
ARC
  5
47F
  8
BODY_-_SKIRT
 10
25.805090333837938
 20
19.018907491059618
 30
0.0
 40
8.3369999999999997
 50
55.793055591328972
 51
79.346628640814046
  0
ARC
  5
480
  8
BODY_-_SKIRT
 10
25.805090333837938
 20
19.018907491059618
 30
0.0
 40
8.3369999999999997
 50
82.785105900029563
 51
97.214894099970422
  0
ARC
  5
481
  8
BODY_-_SKIRT
 10
25.805090333837938
 20
19.018907491059618
 30
0.0
 40
8.3369999999999997
 50
100.6533713591859
 51
124.20694440867101
  0
ARC
  5
482
  8
BODY_-_SKIRT
 10
25.805090333837938
 20
19.018907491059618
 30
0.0
 40
8.3369999999999997
 50
127.66067950455729
 51
142.76696882744861
  0
ARC
  5
483
  8
BODY_-_SKIRT
 10
25.805090333837938
 20
19.018907491059618
 30
0.0
 40
8.3369999999999997
 50
307.66067950455738
 51
322.76696882744852
  0
ARC
  5
484
  8
BODY_-_SKIRT
 10
25.805090333837938
 20
19.018907491059618
 30
0.0
 40
8.3369999999999997
 50
280.65337135918588
 51
304.20694440867101
  0
ARC
  5
485
  8
BODY_-_SKIRT
 10
25.805090333837938
 20
19.018907491059618
 30
0.0
 40
8.3369999999999997
 50
262.78510590002958
 51
277.21489409997042
  0
ARC
  5
486
  8
BODY_-_SKIRT
 10
25.805090333837938
 20
19.018907491059618
 30
0.0
 40
8.3369999999999997
 50
235.79305559132899
 51
259.34662864081412
  0
TEXT
  5
48A
  8
DIMENSIONS
 10
34.182822727933861
 20
26.669377660707259
 30
0.0
 40
0.25
  1
OPTIONAL 3RD
  0
TEXT
  5
48B
  8
DIMENSIONS
 10
34.182822727933861
 20
26.252710994040591
 30
0.0
 40
0.25
  1
LEG CUTOUT
  0
TEXT
  5
48C
  8
DIMENSIONS
 10
34.182822727933861
 20
25.83604432737393
 30
0.0
 40
0.25
  1
7.323 x 10.787
  0
SOLID
  5
48D
  8
DIMENSIONS
 10
28.711873842134469
 20
22.077279701606312
 30
0.0
 11
28.500191974276479
 21
21.937899294334478
 31
0.0
 12
28.655227122594528
 22
22.138399204302321
 32
0.0
 13
28.655227122594528
 23
22.138399204302321
 33
0.0
1001
ACAD
1000
DSTYLE
1002
{
1070
   147
1040
0.09
1070
    77
1070
     0
1002
}
  0
POLYLINE
  5
48E
  8
DIMENSIONS
 66
     1
 10
0.0
 20
0.0
 30
0.0
1001
ACAD
1000
DSTYLE
1002
{
1070
   147
1040
0.09
1070
    77
1070
     0
1002
}
  0
VERTEX
  5
C99
  8
DIMENSIONS
 10
28.683550482364499
 20
22.107839452954309
 30
0.0
  0
VERTEX
  5
C9A
  8
DIMENSIONS
 10
33.740134287216847
 20
26.794377660707259
 30
0.0
  0
SEQEND
  5
C9B
  8
DIMENSIONS
  0
LINE
  5
48F
  8
DIMENSIONS
 10
33.990134287216847
 20
26.794377660707259
 30
0.0
 11
33.740134287216847
 21
26.794377660707259
 31
0.0
  0
TEXT
  5
82B
  8
0
  6
CONTINUOUS
 10
114.7725632537839
 20
21.505580181129648
 30
0.0
 40
0.12
  1
 
 51
7.0
  0
TEXT
  5
82C
  8
0
  6
CONTINUOUS
 10
127.2166600192638
 20
28.568454610861298
 30
0.0
 40
0.24
  1
 
 51
7.0
  0
TEXT
  5
82D
  8
0
  6
CONTINUOUS
 10
136.4264250311771
 20
28.248444624284222
 30
0.0
 40
0.24
  1
 
 51
7.0
  0
TEXT
  5
82E
  8
0
  6
CONTINUOUS
 10
146.23038451560981
 20
11.385863824756891
 30
0.0
 40
0.24
  1
 
 51
7.0
  0
LINE
  5
845
  8
FORM
 10
54.474029873261749
 20
1.612165178496116
 30
0.0
 11
54.474029873261749
 21
38.571428571503922
 31
0.0
  0
LINE
  5
846
  8
FORM
 10
54.075334818339897
 20
38.970123626425767
 30
0.0
 11
1.612165178496169
 21
38.970123626425767
 31
0.0
  0
LINE
  5
847
  8
FORM
 10
54.075334818339897
 20
1.213470123574264
 30
0.0
 11
1.612165178496169
 21
1.2134701235742411
 31
0.0
  0
LINE
  5
848
  8
FORM
 10
1.213470123574246
 20
1.612165178496116
 30
0.0
 11
1.213470123574246
 21
38.571428571503922
 31
0.0
  0
TEXT
  5
849
  8
FORM
 10
47.524201349593923
 20
6.589192329236421
 30
0.0
 40
0.675134009018097
  1
SKIRT
 72
     1
 11
48.87446936763012
 21
6.589192329236421
 31
0.0
  0
TEXT
  5
84A
  8
FORM
 10
47.588499826643279
 20
5.1607708178754423
 30
0.0
 40
0.675134009018097
  1
BODY
 72
     1
 11
48.87446936763012
 21
5.1607708178754423
 31
0.0
  0
TEXT
  5
84B
  8
FORM
 10
42.39698811399343
 20
2.565227944006478
 30
0.0
 40
0.675134009018097
  1
ASTROMECH DROID
  0
TEXT
  5
84C
  8
FORM
 10
53.05738762368189
 20
2.5914746670413069
 30
0.0
 40
0.675134009018097
  1
A
  0
TEXT
  5
84D
  8
FORM
 10
43.720822230937721
 20
1.7771707858309931
 30
0.0
 40
0.2700536036072387
  1
FULL
  0
TEXT
  5
84E
  8
FORM
 10
52.37343465639303
 20
1.7847297379699389
 30
0.0
 40
0.2700536036072387
  1
1   1
  0
TEXT
  5
84F
  8
FORM
 10
47.900715698912698
 20
1.8055911604836561
 30
0.0
 40
0.2700536036072387
  1
APRIL 2005
 72
     2
 11
50.24118026350876
 21
1.8055911604836561
 31
0.0
  0
TEXT
  5
850
  8
FORM
  6
CONTINUOUS
 10
45.960846472953193
 20
1.802874135642611
 30
0.0
 40
0.2333263135166543
  1
DRAWN:
  0
TEXT
  5
851
  8
FORM
  6
CONTINUOUS
 10
42.34919511749753
 20
1.8030929394180619
 30
0.0
 40
0.2333263135166543
  1
SCALE:
  0
TEXT
  5
852
  8
FORM
  6
CONTINUOUS
 10
50.882472828626121
 20
1.8001689474417679
 30
0.0
 40
0.2333263135166543
  1
SHEET:   OF
  0
TEXT
  5
853
  8
FORM
  6
CONTINUOUS
 10
41.923111300400549
 20
3.653770421766859
 30
0.0
 40
0.2333263135166543
  1
DRAWING NO.
  0
TEXT
  5
854
  8
FORM
  6
CONTINUOUS
 10
52.96697338120638
 20
3.653770421766831
 30
0.0
 40
0.2333263135166543
  1
REV.
 72
     1
 11
53.311407463064299
 21
3.653770421766831
 31
0.0
  0
LINE
  5
855
  8
FORM
  6
CONTINUOUS
 10
42.292355985748877
 20
8.3786282704790871
 30
0.0
 11
53.492019034548278
 21
8.3786282704790871
 31
0.0
  0
LINE
  5
856
  8
FORM
  6
CONTINUOUS
 10
41.709040201957251
 20
2.1954809622877458
 30
0.0
 11
41.709040201957222
 21
7.7953124866874361
 31
0.0
  0
LINE
  5
857
  8
FORM
  6
CONTINUOUS
 10
41.709040201957251
 20
4.0037598920418151
 30
0.0
 11
54.075334818339897
 21
4.0037598920418151
 31
0.0
  0
LINE
  5
858
  8
FORM
  6
CONTINUOUS
 10
41.709040201957251
 20
2.1954809622877458
 30
0.0
 11
54.075334818339897
 21
2.1954809622877458
 31
0.0
  0
LINE
  5
859
  8
FORM
  6
CONTINUOUS
 10
45.595998236651077
 20
2.1954809622877458
 30
0.0
 11
45.595998236651077
 21
1.612165178496116
 31
0.0
  0
LINE
  5
85A
  8
FORM
  6
CONTINUOUS
 10
50.707478093488582
 20
2.1883002091460551
 30
0.0
 11
50.707478093488582
 21
1.6049844253544281
 31
0.0
  0
LINE
  5
85B
  8
FORM
  6
CONTINUOUS
 10
52.534023479900483
 20
4.0037598920418151
 30
0.0
 11
52.534023479900483
 21
2.1954809622877458
 31
0.0
  0
ARC
  5
85C
  8
FORM
 62
     5
 10
42.868584969783299
 20
6.621888638987504
 30
0.0
 40
0.0636170438471147
 50
152.18113099770551
 51
330.9909881499326
  0
ARC
  5
85D
  8
FORM
 62
     5
 10
43.143958759111499
 20
7.1521980068435109
 30
0.0
 40
0.0557820390500356
 50
335.32315363464221
 51
152.6722492633038
  0
ARC
  5
85E
  8
FORM
 62
     5
 10
47.392828287799439
 20
4.5349422124535721
 30
0.0
 40
5.0459089767139451
 50
148.41494327216171
 51
155.19852313243231
  0
ARC
  5
85F
  8
FORM
 62
     5
 10
48.369502440736618
 20
4.190227829106095
 30
0.0
 40
5.9510486407282581
 50
150.40875710206319
 51
156.2074475795113
  0
ARC
  5
860
  8
FORM
 62
     7
 10
42.688691783480927
 20
6.0874364908984928
 30
0.0
 40
0.0850060262023456
 50
161.12872523797091
 51
346.89295927401372
  0
ARC
  5
861
  8
FORM
 62
     7
 10
67.543405339570882
 20
-4.6480608099300031
 30
0.0
 40
26.99047061602969
 50
153.58307292081321
 51
156.60691138966189
  0
ARC
  5
862
  8
FORM
 62
     7
 10
63.64520330081298
 20
-3.245687911767003
 30
0.0
 40
22.996214886751069
 50
152.34095999775931
 51
152.96941161274651
  0
ARC
  5
863
  8
FORM
 62
     7
 10
63.902982095801931
 20
-3.9947169458808629
 30
0.0
 40
23.572661799755799
 50
153.37112835275741
 51
154.6040219565534
  0
ARC
  5
864
  8
FORM
 62
     7
 10
43.915025088373717
 20
7.0809553841370096
 30
0.0
 40
0.6111727005381532
 50
23.46872592819097
 51
88.151617587882953
  0
ARC
  5
865
  8
FORM
 62
     7
 10
43.928684362472623
 20
7.1203575157921506
 30
0.0
 40
0.7213545617248978
 50
18.23262529566556
 51
154.63608874642691
  0
ARC
  5
866
  8
FORM
 62
     7
 10
44.144810193768627
 20
7.1955456233167547
 30
0.0
 40
0.4925695958172696
 50
336.99722732837893
 51
341.11190659806482
  0
ARC
  5
867
  8
FORM
 62
     7
 10
44.174106676921241
 20
7.2173296378066221
 30
0.0
 40
0.3226177858687683
 50
333.24704424527522
 51
339.1267517335616
  0
ARC
  5
868
  8
FORM
 62
     7
 10
44.479257294430198
 20
7.0649917926884926
 30
0.0
 40
0.0184902106205383
 50
157.37475902115841
 51
243.1831734142406
  0
ARC
  5
869
  8
FORM
 62
     7
 10
44.588467811320733
 20
7.0059388518934291
 30
0.0
 40
0.0101616806256701
 50
246.7423667985764
 51
343.55073793579641
  0
ARC
  5
86A
  8
FORM
 62
     7
 10
44.90822921569081
 20
7.8552528622781512
 30
0.0
 40
0.9176651140624592
 50
241.5396617947477
 51
249.3398833202246
  0
ARC
  5
86B
  8
FORM
 62
     7
 10
44.266742607373111
 20
6.8820881783053567
 30
0.0
 40
0.1811551917128561
 50
210.28645373052609
 51
287.25915125833183
  0
ARC
  5
86C
  8
FORM
 62
     7
 10
44.28230788528252
 20
6.8037501918840126
 30
0.0
 40
0.102070853010787
 50
291.96730232829032
 51
10.201088362233779
  0
ARC
  5
86D
  8
FORM
 62
     7
 10
43.475622515652518
 20
6.6291698910264456
 30
0.0
 40
0.6549290697126747
 50
14.28109924276106
 51
24.94726153987823
  0
ARC
  5
86E
  8
FORM
 62
     7
 10
43.857616045697313
 20
6.8275418469780833
 30
0.0
 40
0.2256865768626838
 50
20.18306378886744
 51
47.833846572520187
  0
ARC
  5
86F
  8
FORM
 62
     7
 10
43.899807284928457
 20
6.7132266895982884
 30
0.0
 40
0.3020656755282553
 50
68.784960310907039
 51
94.742087985452173
  0
ARC
  5
870
  8
FORM
 62
     7
 10
43.896520711793357
 20
6.8917435430746021
 30
0.0
 40
0.1244192063930385
 50
100.0375073429587
 51
170.98475346238999
  0
ARC
  5
871
  8
FORM
 62
     7
 10
44.481742762730399
 20
6.8057400050473777
 30
0.0
 40
0.7159202729806478
 50
171.52589863719891
 51
197.494741096675
  0
ARC
  5
872
  8
FORM
 62
     7
 10
43.999483368811248
 20
6.8158687795730719
 30
0.0
 40
0.3833281711367606
 50
0.8906501289531794
 51
49.113860192417441
  0
ARC
  5
873
  8
FORM
 62
     7
 10
43.918728881218847
 20
6.886179032379359
 30
0.0
 40
0.3017054542736917
 50
99.869748807366761
 51
175.59516845025641
  0
ARC
  5
874
  8
FORM
 62
     7
 10
43.973129923411463
 20
6.7225840143144922
 30
0.0
 40
0.4728950399272712
 50
54.104282451027871
 51
102.9674010870567
  0
ARC
  5
875
  8
FORM
 62
     7
 10
45.307777661726682
 20
7.003946524120539
 30
0.0
 40
1.564454674738861
 50
195.32307896217739
 51
209.290843156958
  0
ARC
  5
876
  8
FORM
 62
     7
 10
44.815526238589896
 20
6.7474339287212821
 30
0.0
 40
1.208507676665451
 50
172.3003020759547
 51
200.12627387409299
  0
ARC
  5
877
  8
FORM
 62
     7
 10
45.679585836103449
 20
7.0847306095049349
 30
0.0
 40
2.135953312395694
 50
200.64629086238159
 51
210.04649609044409
  0
ARC
  5
878
  8
FORM
 62
     7
 10
42.737210588369066
 20
5.4291158791159644
 30
0.0
 40
1.452561299885996
 50
28.431949107384241
 51
33.865461133002697
  0
ARC
  5
879
  8
FORM
 62
     7
 10
43.930274520253299
 20
6.054620603672328
 30
0.0
 40
0.1071083156214472
 50
201.5644604264042
 51
38.094090168146558
  0
ARC
  5
87A
  8
FORM
 62
     5
 10
44.871528874182907
 20
6.9444691387453767
 30
0.0
 40
0.0595797238379346
 50
227.62026965936079
 51
57.412112921203693
  0
ARC
  5
87B
  8
FORM
 62
     5
 10
44.168872471943828
 20
6.0278394304651357
 30
0.0
 40
1.2143354272825111
 50
52.766851639305592
 51
65.063571515458264
  0
ARC
  5
87C
  8
FORM
 62
     5
 10
43.603618517083568
 20
5.1514358893881296
 30
0.0
 40
2.136925633302345
 50
54.932512589538469
 51
74.152868438598929
  0
ARC
  5
87D
  8
FORM
 62
     5
 10
43.634429223213488
 20
4.5161538033095781
 30
0.0
 40
2.747168684716963
 50
78.393012355262798
 51
89.647961077025343
  0
ARC
  5
87E
  8
FORM
 62
     5
 10
43.646691629879911
 20
7.3430052094331311
 30
0.0
 40
0.0798681226096127
 50
183.9979944211656
 51
273.3138077458816
  0
ARC
  5
87F
  8
FORM
 62
     5
 10
43.916248947786791
 20
7.3641044279204273
 30
0.0
 40
0.3502477930804928
 50
145.608591669193
 51
184.36670732083459
  0
ARC
  5
880
  8
FORM
 62
     5
 10
43.700752441147152
 20
7.5154448777189016
 30
0.0
 40
0.086994388590284
 50
75.244714174010113
 51
147.692985011616
  0
ARC
  5
881
  8
FORM
 62
     5
 10
42.663758040641177
 20
3.5357513108588261
 30
0.0
 40
4.199574583359464
 50
61.63724224152525
 51
75.392005557716686
  0
ARC
  5
882
  8
FORM
 62
     5
 10
44.579422274171733
 20
7.1605648501442811
 30
0.0
 40
0.1062360979339455
 50
342.69825742684031
 51
41.67278378767756
  0
ARC
  5
883
  8
FORM
 62
     7
 10
44.144810193768627
 20
7.1955456233167547
 30
0.0
 40
0.4925695958172696
 50
5.6380312699922861
 51
17.791456368736871
  0
ARC
  5
884
  8
FORM
 62
     7
 10
44.368965984261109
 20
4.8744010165625786
 30
0.0
 40
0.1576181472807867
 50
88.432533024773406
 51
186.62631613112151
  0
ARC
  5
885
  8
FORM
 62
     7
 10
44.393703742493337
 20
4.9072658345193902
 30
0.0
 40
0.1883538585948751
 50
195.72663051282731
 51
285.3806868435185
  0
ARC
  5
886
  8
FORM
 62
     7
 10
44.171583217881739
 20
6.5741268861650148
 30
0.0
 40
1.868385387546998
 50
278.37329371359471
 51
293.15208507016911
  0
ARC
  5
887
  8
FORM
 62
     7
 10
44.798426773950659
 20
5.3981563257789862
 30
0.0
 40
0.3853468291825601
 50
257.51805604168283
 51
277.23103351305713
  0
ARC
  5
888
  8
FORM
 62
     7
 10
44.820032073544972
 20
5.0815892957017041
 30
0.0
 40
0.0710069946767162
 50
292.26031345923383
 51
12.86737930052376
  0
ARC
  5
889
  8
FORM
 62
     7
 10
44.767235004219373
 20
5.0714093650681669
 30
0.0
 40
0.1247587237258352
 50
12.025375527395511
 51
52.143631645158997
  0
ARC
  5
88A
  8
FORM
 62
     7
 10
47.42739618188314
 20
8.3040912170298125
 30
0.0
 40
4.0617799815106981
 50
219.60277928185971
 51
230.5002020408055
  0
ARC
  5
88B
  8
FORM
 62
     7
 10
44.920008065483557
 20
6.2017210376172427
 30
0.0
 40
0.7899939666139272
 50
175.97523115435069
 51
218.04500009534149
  0
ARC
  5
88C
  8
FORM
 62
     7
 10
44.585167194976023
 20
6.2810505430523911
 30
0.0
 40
0.4538335995957298
 50
149.96078860476399
 51
183.01641230856191
  0
ARC
  5
88D
  8
FORM
 62
     7
 10
44.268129686319853
 20
6.4677402545778957
 30
0.0
 40
0.0859733091262148
 50
69.764209445538683
 51
151.89881904551129
  0
ARC
  5
88E
  8
FORM
 62
     7
 10
44.257986624905563
 20
6.461896508431658
 30
0.0
 40
0.0952600562229636
 50
357.6694469744499
 51
65.251102439515421
  0
ARC
  5
88F
  8
FORM
 62
     7
 10
44.03353271954704
 20
6.4434764172624917
 30
0.0
 40
0.3199659941561375
 50
345.36193237678458
 51
2.6056939300727819
  0
ARC
  5
890
  8
FORM
 62
     7
 10
45.058895719869
 20
6.1413002096583984
 30
0.0
 40
0.7492168796718093
 50
162.81861830880729
 51
185.35496664157321
  0
ARC
  5
891
  8
FORM
 62
     7
 10
44.975370041910303
 20
6.2164582263970223
 30
0.0
 40
0.6781224262571417
 50
192.3534994193023
 51
222.30204766960341
  0
ARC
  5
892
  8
FORM
 62
     7
 10
47.311474234647569
 20
8.0997587781295355
 30
0.0
 40
3.6778335670133679
 50
219.50633019139821
 51
228.42762303996261
  0
ARC
  5
893
  8
FORM
 62
     7
 10
44.474150148775408
 20
4.8075104765737287
 30
0.0
 40
0.6707762742146253
 50
32.971129457978869
 51
53.728419363024372
  0
ARC
  5
894
  8
FORM
 62
     7
 10
44.83788311553792
 20
5.0696111481814734
 30
0.0
 40
0.2240615067394839
 50
287.74749415951351
 51
27.352111896629431
  0
ARC
  5
895
  8
FORM
 62
     7
 10
44.502658971073068
 20
3.6125251200643742
 30
0.0
 40
1.425319428227882
 50
81.426570944509805
 51
95.208118001959335
  0
ARC
  5
896
  8
FORM
 62
     7
 10
43.887410228666923
 20
5.8343500024271071
 30
0.0
 40
0.0634530437215317
 50
325.52447187114319
 51
75.340502228459755
  0
ARC
  5
897
  8
FORM
 62
     7
 10
43.809231302685653
 20
5.8917502209302128
 30
0.0
 40
0.1604221752985053
 50
277.78730616127859
 51
324.42957968808531
  0
ARC
  5
898
  8
FORM
 62
     7
 10
43.780860398092798
 20
5.918429361393982
 30
0.0
 40
0.1922660739449915
 50
243.48581874200141
 51
285.1065744639302
  0
ARC
  5
899
  8
FORM
 62
     7
 10
35.276904463747726
 20
-15.811831991320229
 30
0.0
 40
23.35885654566626
 50
68.327181839257534
 51
70.606105230637283
  0
ARC
  5
89A
  8
FORM
 62
     7
 10
43.016966072999402
 20
6.1531795314392914
 30
0.0
 40
0.0703781605274791
 50
76.445232091871915
 51
134.36352227876429
  0
ARC
  5
89B
  8
FORM
 62
     7
 10
43.32986900100083
 20
5.6717568375421834
 30
0.0
 40
0.6433269838762614
 50
124.2547762008319
 51
135.01293196243631
  0
ARC
  5
89C
  8
FORM
 62
     7
 10
42.886943114299989
 20
6.1060913845688436
 30
0.0
 40
0.0237619479861503
 50
120.5491196217087
 51
251.48388650457539
  0
ARC
  5
89D
  8
FORM
 62
     7
 10
39.689436409019237
 20
-2.7881265280560479
 30
0.0
 40
9.4277601450343305
 50
64.85742894317822
 51
67.515132469298948
  0
ARC
  5
89E
  8
FORM
 62
     7
 10
43.672965508260212
 20
5.6077547287163769
 30
0.0
 40
0.0890114864355487
 50
329.18566117941782
 51
69.527151249863437
  0
ARC
  5
89F
  8
FORM
 62
     7
 10
43.439450316170827
 20
5.2550521800792369
 30
0.0
 40
0.5101125257231347
 50
58.747973844557542
 51
81.106226592028094
  0
ARC
  5
8A0
  8
FORM
 62
     7
 10
43.385186450387103
 20
4.9168894905063318
 30
0.0
 40
0.8525997702706245
 50
81.016817915507374
 51
97.679603827268224
  0
ARC
  5
8A1
  8
FORM
 62
     7
 10
43.474921788935781
 20
5.173099088949427
 30
0.0
 40
0.6324336291139718
 50
121.5050128230593
 51
139.0957881060701
  0
ARC
  5
8A2
  8
FORM
 62
     7
 10
43.646614101903651
 20
5.5941780527735778
 30
0.0
 40
0.1076688165706104
 50
277.70569210516868
 51
342.69880024124109
  0
ARC
  5
8A3
  8
FORM
 62
     7
 10
43.613569542935423
 20
5.7156659836590187
 30
0.0
 40
0.2330721618246317
 50
250.08394506358289
 51
281.75453717228322
  0
ARC
  5
8A4
  8
FORM
 62
     7
 10
43.689718872168513
 20
5.7424250201594917
 30
0.0
 40
0.2909581115010542
 50
221.1818788542727
 51
237.6837877598532
  0
ARC
  5
8A5
  8
FORM
 62
     7
 10
43.348478287040322
 20
5.4051210315788234
 30
0.0
 40
0.1902160954706565
 50
50.003848755011681
 51
75.541683009840284
  0
ARC
  5
8A6
  8
FORM
 62
     7
 10
43.338417287721917
 20
5.4740669440153482
 30
0.0
 40
0.1288177537810661
 50
63.462660349847148
 51
100.74200229027051
  0
ARC
  5
8A7
  8
FORM
 62
     7
 10
43.314407346250469
 20
5.3826596009046801
 30
0.0
 40
0.2179677492404636
 50
89.999999999999204
 51
125.597461548903
  0
ARC
  5
8A8
  8
FORM
 62
     7
 10
45.90002658450463
 20
6.9381125701793032
 30
0.0
 40
3.015943297707965
 50
197.51922498184919
 51
203.9814814447308
  0
ARC
  5
8A9
  8
FORM
 62
     7
 10
42.379769073029969
 20
5.9754714080371407
 30
0.0
 40
0.9167206997969968
 50
346.52409876011291
 51
356.71498770316703
  0
ARC
  5
8AA
  8
FORM
 62
     7
 10
39.689436409019237
 20
-2.7881265280560479
 30
0.0
 40
9.4277601450343305
 50
69.286600818944066
 51
70.223117600767637
  0
ARC
  5
8AB
  8
FORM
 62
     7
 10
42.874527558563337
 20
5.1775484735197637
 30
0.0
 40
0.2764466516330293
 50
245.40259669902051
 51
275.40975098180542
  0
ARC
  5
8AC
  8
FORM
 62
     7
 10
43.843870185833772
 20
4.6787211170753658
 30
0.0
 40
1.098748497525079
 50
126.68044463040199
 51
139.78708822539889
  0
ARC
  5
8AD
  8
FORM
 62
     7
 10
42.869356100767199
 20
5.955162977634731
 30
0.0
 40
1.0532930539711329
 50
271.69929119420158
 51
283.3954084205688
  0
ARC
  5
8AE
  8
FORM
 62
     7
 10
44.838906562474328
 20
3.5243881655592681
 30
0.0
 40
2.6148332414746749
 50
134.54104034917859
 51
138.91474429089911
  0
ARC
  5
8AF
  8
FORM
 62
     7
 10
42.912697191888682
 20
5.2056351411656081
 30
0.0
 40
0.0691749428649128
 50
201.8252958964797
 51
267.16449786715492
  0
ARC
  5
8B0
  8
FORM
 62
     7
 10
42.89780542764629
 20
5.1990723564046872
 30
0.0
 40
0.0529136173134685
 50
124.254854327418
 51
201.22329273937851
  0
ARC
  5
8B1
  8
FORM
 62
     7
 10
43.058922599784509
 20
5.1560214428387763
 30
0.0
 40
0.231976887779288
 50
283.575177031279
 51
324.58969283639942
  0
ARC
  5
8B2
  8
FORM
 62
     7
 10
43.191223706106207
 20
5.0455377239357801
 30
0.0
 40
0.0616033801561477
 50
337.14160324238748
 51
47.564966708928033
  0
ARC
  5
8B3
  8
FORM
 62
     7
 10
43.096403657830997
 20
4.9100726926426201
 30
0.0
 40
0.2265777427909007
 50
52.990730681111621
 51
91.748895977531333
  0
ARC
  5
8B4
  8
FORM
 62
     7
 10
42.9993819375808
 20
5.7516514467888253
 30
0.0
 40
0.6216713756006361
 50
261.66603807207321
 51
278.33396192792679
  0
ARC
  5
8B5
  8
FORM
 62
     7
 10
42.812741525192401
 20
5.0595536664517766
 30
0.0
 40
0.1436153835290234
 50
192.64550774538381
 51
248.22239672568659
  0
ARC
  5
8B6
  8
FORM
 62
     7
 10
42.777444906361019
 20
5.0758234326572236
 30
0.0
 40
0.1151808419238661
 50
178.88427582775449
 51
204.46998391858151
  0
ARC
  5
8B7
  8
FORM
 62
     7
 10
43.06237220482727
 20
5.0467146083551517
 30
0.0
 40
0.4013128117562716
 50
140.5469001514941
 51
175.51933831911609
  0
ARC
  5
8B8
  8
FORM
 62
     7
 10
47.015167335448702
 20
1.89954970529042
 30
0.0
 40
5.4539106412900686
 50
137.45643980933039
 51
141.40545593619061
  0
POLYLINE
  5
8B9
  8
FORM
 62
     1
 10
43.775664563402515
 20
7.5474619681706772
 30
0.0
 66
     1
 70
     8
  0
VERTEX
  8
FORM
  5
CA4
 10
43.7757
 20
7.54746
 30
0.000000
  70
    32
  0
VERTEX
  8
FORM
  5
CA5
 10
43.7733
 20
7.54835
 30
0.000000
  70
    32
  0
VERTEX
  8
FORM
  5
CA6
 10
43.7707
 20
7.54896
 30
0.000000
  70
    32
  0
VERTEX
  8
FORM
  5
CA7
 10
43.7681
 20
7.54929
 30
0.000000
  70
    32
  0
VERTEX
  8
FORM
  5
CA8
 10
43.7653
 20
7.54933
 30
0.000000
  70
    32
  0
VERTEX
  8
FORM
  5
CA9
 10
43.7625
 20
7.54909
 30
0.000000
  70
    32
  0
VERTEX
  8
FORM
  5
CAA
 10
43.7595
 20
7.54856
 30
0.000000
  70
    32
  0
VERTEX
  8
FORM
  5
CAB
 10
43.7565
 20
7.54775
 30
0.000000
  70
    32
  0
VERTEX
  8
FORM
  5
CAC
 10
43.7534
 20
7.54665
 30
0.000000
  70
    32
  0
VERTEX
  8
FORM
  5
CAD
 10
43.7503
 20
7.54528
 30
0.000000
  70
    32
  0
VERTEX
  8
FORM
  5
CAE
 10
43.7470
 20
7.54363
 30
0.000000
  70
    32
  0
VERTEX
  8
FORM
  5
CAF
 10
43.7437
 20
7.54172
 30
0.000000
  70
    32
  0
VERTEX
  8
FORM
  5
CB0
 10
43.7404
 20
7.53953
 30
0.000000
  70
    32
  0
VERTEX
  8
FORM
  5
CB1
 10
43.7370
 20
7.53708
 30
0.000000
  70
    32
  0
VERTEX
  8
FORM
  5
CB2
 10
43.7337
 20
7.53438
 30
0.000000
  70
    32
  0
VERTEX
  8
FORM
  5
CB3
 10
43.7302
 20
7.53143
 30
0.000000
  70
    32
  0
VERTEX
  8
FORM
  5
CB4
 10
43.7268
 20
7.52824
 30
0.000000
  70
    32
  0
VERTEX
  8
FORM
  5
CB5
 10
43.7234
 20
7.52481
 30
0.000000
  70
    32
  0
VERTEX
  8
FORM
  5
CB6
 10
43.7199
 20
7.52116
 30
0.000000
  70
    32
  0
VERTEX
  8
FORM
  5
CB7
 10
43.7165
 20
7.51729
 30
0.000000
  70
    32
  0
VERTEX
  8
FORM
  5
CB8
 10
43.7131
 20
7.51321
 30
0.000000
  70
    32
  0
VERTEX
  8
FORM
  5
CB9
 10
43.7097
 20
7.50893
 30
0.000000
  70
    32
  0
VERTEX
  8
FORM
  5
CBA
 10
43.7064
 20
7.50447
 30
0.000000
  70
    32
  0
VERTEX
  8
FORM
  5
CBB
 10
43.7031
 20
7.49983
 30
0.000000
  70
    32
  0
VERTEX
  8
FORM
  5
CBC
 10
43.6998
 20
7.49502
 30
0.000000
  70
    32
  0
VERTEX
  8
FORM
  5
CBD
 10
43.6966
 20
7.49006
 30
0.000000
  70
    32
  0
VERTEX
  8
FORM
  5
CBE
 10
43.6935
 20
7.48496
 30
0.000000
  70
    32
  0
VERTEX
  8
FORM
  5
CBF
 10
43.6905
 20
7.47973
 30
0.000000
  70
    32
  0
VERTEX
  8
FORM
  5
CC0
 10
43.6875
 20
7.47438
 30
0.000000
  70
    32
  0
VERTEX
  8
FORM
  5
CC1
 10
43.6846
 20
7.46892
 30
0.000000
  70
    32
  0
VERTEX
  8
FORM
  5
CC2
 10
43.6818
 20
7.46338
 30
0.000000
  70
    32
  0
VERTEX
  8
FORM
  5
CC3
 10
43.6792
 20
7.45775
 30
0.000000
  70
    32
  0
VERTEX
  8
FORM
  5
CC4
 10
43.6766
 20
7.45206
 30
0.000000
  70
    32
  0
VERTEX
  8
FORM
  5
CC5
 10
43.6741
 20
7.44632
 30
0.000000
  70
    32
  0
VERTEX
  8
FORM
  5
CC6
 10
43.6718
 20
7.44055
 30
0.000000
  70
    32
  0
VERTEX
  8
FORM
  5
CC7
 10
43.6696
 20
7.43475
 30
0.000000
  70
    32
  0
VERTEX
  8
FORM
  5
CC8
 10
43.6675
 20
7.42894
 30
0.000000
  70
    32
  0
VERTEX
  8
FORM
  5
CC9
 10
43.6656
 20
7.42314
 30
0.000000
  70
    32
  0
VERTEX
  8
FORM
  5
CCA
 10
43.6638
 20
7.41735
 30
0.000000
  70
    32
  0
VERTEX
  8
FORM
  5
CCB
 10
43.6622
 20
7.41160
 30
0.000000
  70
    32
  0
VERTEX
  8
FORM
  5
CCC
 10
43.6607
 20
7.40590
 30
0.000000
  70
    32
  0
VERTEX
  8
FORM
  5
CCD
 10
43.6593
 20
7.40026
 30
0.000000
  70
    32
  0
VERTEX
  8
FORM
  5
CCE
 10
43.6582
 20
7.39469
 30
0.000000
  70
    32
  0
VERTEX
  8
FORM
  5
CCF
 10
43.6571
 20
7.38920
 30
0.000000
  70
    32
  0
VERTEX
  8
FORM
  5
CD0
 10
43.6563
 20
7.38382
 30
0.000000
  70
    32
  0
VERTEX
  8
FORM
  5
CD1
 10
43.6556
 20
7.37855
 30
0.000000
  70
    32
  0
VERTEX
  8
FORM
  5
CD2
 10
43.6550
 20
7.37341
 30
0.000000
  70
    32
  0
VERTEX
  8
FORM
  5
CD3
 10
43.6547
 20
7.36841
 30
0.000000
  70
    32
  0
VERTEX
  8
FORM
  5
CD4
 10
43.6545
 20
7.36356
 30
0.000000
  70
    32
  0
VERTEX
  8
FORM
  5
CD5
 10
43.6545
 20
7.35887
 30
0.000000
  70
    32
  0
VERTEX
  8
FORM
  5
CD6
 10
43.6546
 20
7.35435
 30
0.000000
  70
    32
  0
VERTEX
  8
FORM
  5
CD7
 10
43.6549
 20
7.35002
 30
0.000000
  70
    32
  0
VERTEX
  8
FORM
  5
CD8
 10
43.6554
 20
7.34589
 30
0.000000
  70
    32
  0
VERTEX
  8
FORM
  5
CD9
 10
43.6560
 20
7.34196
 30
0.000000
  70
    32
  0
VERTEX
  8
FORM
  5
CDA
 10
43.6568
 20
7.33824
 30
0.000000
  70
    32
  0
VERTEX
  8
FORM
  5
CDB
 10
43.6578
 20
7.33475
 30
0.000000
  70
    32
  0
VERTEX
  8
FORM
  5
CDC
 10
43.6589
 20
7.33149
 30
0.000000
  70
    32
  0
VERTEX
  8
FORM
  5
CDD
 10
43.6602
 20
7.32847
 30
0.000000
  70
    32
  0
VERTEX
  8
FORM
  5
CDE
 10
43.6617
 20
7.32569
 30
0.000000
  70
    32
  0
VERTEX
  8
FORM
  5
CDF
 10
43.6633
 20
7.32317
 30
0.000000
  70
    32
  0
VERTEX
  8
FORM
  5
CE0
 10
43.6650
 20
7.32091
 30
0.000000
  70
    32
  0
VERTEX
  8
FORM
  5
CE1
 10
43.6669
 20
7.31892
 30
0.000000
  70
    32
  0
VERTEX
  8
FORM
  5
CE2
 10
43.6689
 20
7.31719
 30
0.000000
  70
    32
  0
VERTEX
  8
FORM
  5
CE3
 10
43.6711
 20
7.31574
 30
0.000000
  70
    32
  0
VERTEX
  8
FORM
  5
CE4
 10
43.6734
 20
7.31457
 30
0.000000
  70
    32
  0
VERTEX
  8
FORM
  5
CE5
 10
43.6758
 20
7.31368
 30
0.000000
  70
    32
  0
VERTEX
  8
FORM
  5
CE6
 10
43.6783
 20
7.31307
 30
0.000000
  70
    32
  0
VERTEX
  8
FORM
  5
CE7
 10
43.6810
 20
7.31274
 30
0.000000
  70
    32
  0
VERTEX
  8
FORM
  5
CE8
 10
43.6837
 20
7.31270
 30
0.000000
  70
    32
  0
VERTEX
  8
FORM
  5
CE9
 10
43.6866
 20
7.31295
 30
0.000000
  70
    32
  0
VERTEX
  8
FORM
  5
CEA
 10
43.6895
 20
7.31347
 30
0.000000
  70
    32
  0
VERTEX
  8
FORM
  5
CEB
 10
43.6925
 20
7.31429
 30
0.000000
  70
    32
  0
VERTEX
  8
FORM
  5
CEC
 10
43.6956
 20
7.31538
 30
0.000000
  70
    32
  0
VERTEX
  8
FORM
  5
CED
 10
43.6988
 20
7.31675
 30
0.000000
  70
    32
  0
VERTEX
  8
FORM
  5
CEE
 10
43.7020
 20
7.31840
 30
0.000000
  70
    32
  0
VERTEX
  8
FORM
  5
CEF
 10
43.7053
 20
7.32032
 30
0.000000
  70
    32
  0
VERTEX
  8
FORM
  5
CF0
 10
43.7086
 20
7.32250
 30
0.000000
  70
    32
  0
VERTEX
  8
FORM
  5
CF1
 10
43.7120
 20
7.32495
 30
0.000000
  70
    32
  0
VERTEX
  8
FORM
  5
CF2
 10
43.7154
 20
7.32765
 30
0.000000
  70
    32
  0
VERTEX
  8
FORM
  5
CF3
 10
43.7188
 20
7.33060
 30
0.000000
  70
    32
  0
VERTEX
  8
FORM
  5
CF4
 10
43.7223
 20
7.33379
 30
0.000000
  70
    32
  0
VERTEX
  8
FORM
  5
CF5
 10
43.7257
 20
7.33722
 30
0.000000
  70
    32
  0
VERTEX
  8
FORM
  5
CF6
 10
43.7291
 20
7.34087
 30
0.000000
  70
    32
  0
VERTEX
  8
FORM
  5
CF7
 10
43.7326
 20
7.34474
 30
0.000000
  70
    32
  0
VERTEX
  8
FORM
  5
CF8
 10
43.7360
 20
7.34882
 30
0.000000
  70
    32
  0
VERTEX
  8
FORM
  5
CF9
 10
43.7394
 20
7.35310
 30
0.000000
  70
    32
  0
VERTEX
  8
FORM
  5
CFA
 10
43.7427
 20
7.35756
 30
0.000000
  70
    32
  0
VERTEX
  8
FORM
  5
CFB
 10
43.7460
 20
7.36220
 30
0.000000
  70
    32
  0
VERTEX
  8
FORM
  5
CFC
 10
43.7492
 20
7.36701
 30
0.000000
  70
    32
  0
VERTEX
  8
FORM
  5
CFD
 10
43.7524
 20
7.37197
 30
0.000000
  70
    32
  0
VERTEX
  8
FORM
  5
CFE
 10
43.7556
 20
7.37707
 30
0.000000
  70
    32
  0
VERTEX
  8
FORM
  5
CFF
 10
43.7586
 20
7.38230
 30
0.000000
  70
    32
  0
VERTEX
  8
FORM
  5
D00
 10
43.7616
 20
7.38766
 30
0.000000
  70
    32
  0
VERTEX
  8
FORM
  5
D01
 10
43.7644
 20
7.39311
 30
0.000000
  70
    32
  0
VERTEX
  8
FORM
  5
D02
 10
43.7672
 20
7.39866
 30
0.000000
  70
    32
  0
VERTEX
  8
FORM
  5
D03
 10
43.7699
 20
7.40428
 30
0.000000
  70
    32
  0
VERTEX
  8
FORM
  5
D04
 10
43.7725
 20
7.40997
 30
0.000000
  70
    32
  0
VERTEX
  8
FORM
  5
D05
 10
43.7749
 20
7.41571
 30
0.000000
  70
    32
  0
VERTEX
  8
FORM
  5
D06
 10
43.7772
 20
7.42148
 30
0.000000
  70
    32
  0
VERTEX
  8
FORM
  5
D07
 10
43.7794
 20
7.42728
 30
0.000000
  70
    32
  0
VERTEX
  8
FORM
  5
D08
 10
43.7815
 20
7.43309
 30
0.000000
  70
    32
  0
VERTEX
  8
FORM
  5
D09
 10
43.7834
 20
7.43889
 30
0.000000
  70
    32
  0
VERTEX
  8
FORM
  5
D0A
 10
43.7852
 20
7.44468
 30
0.000000
  70
    32
  0
VERTEX
  8
FORM
  5
D0B
 10
43.7869
 20
7.45043
 30
0.000000
  70
    32
  0
VERTEX
  8
FORM
  5
D0C
 10
43.7884
 20
7.45613
 30
0.000000
  70
    32
  0
VERTEX
  8
FORM
  5
D0D
 10
43.7897
 20
7.46178
 30
0.000000
  70
    32
  0
VERTEX
  8
FORM
  5
D0E
 10
43.7909
 20
7.46735
 30
0.000000
  70
    32
  0
VERTEX
  8
FORM
  5
D0F
 10
43.7919
 20
7.47283
 30
0.000000
  70
    32
  0
VERTEX
  8
FORM
  5
D10
 10
43.7928
 20
7.47821
 30
0.000000
  70
    32
  0
VERTEX
  8
FORM
  5
D11
 10
43.7935
 20
7.48348
 30
0.000000
  70
    32
  0
VERTEX
  8
FORM
  5
D12
 10
43.7940
 20
7.48862
 30
0.000000
  70
    32
  0
VERTEX
  8
FORM
  5
D13
 10
43.7944
 20
7.49362
 30
0.000000
  70
    32
  0
VERTEX
  8
FORM
  5
D14
 10
43.7946
 20
7.49847
 30
0.000000
  70
    32
  0
VERTEX
  8
FORM
  5
D15
 10
43.7946
 20
7.50316
 30
0.000000
  70
    32
  0
VERTEX
  8
FORM
  5
D16
 10
43.7945
 20
7.50768
 30
0.000000
  70
    32
  0
VERTEX
  8
FORM
  5
D17
 10
43.7942
 20
7.51201
 30
0.000000
  70
    32
  0
VERTEX
  8
FORM
  5
D18
 10
43.7937
 20
7.51614
 30
0.000000
  70
    32
  0
VERTEX
  8
FORM
  5
D19
 10
43.7930
 20
7.52007
 30
0.000000
  70
    32
  0
VERTEX
  8
FORM
  5
D1A
 10
43.7922
 20
7.52379
 30
0.000000
  70
    32
  0
VERTEX
  8
FORM
  5
D1B
 10
43.7912
 20
7.52728
 30
0.000000
  70
    32
  0
VERTEX
  8
FORM
  5
D1C
 10
43.7901
 20
7.53054
 30
0.000000
  70
    32
  0
VERTEX
  8
FORM
  5
D1D
 10
43.7888
 20
7.53356
 30
0.000000
  70
    32
  0
VERTEX
  8
FORM
  5
D1E
 10
43.7874
 20
7.53634
 30
0.000000
  70
    32
  0
VERTEX
  8
FORM
  5
D1F
 10
43.7858
 20
7.53886
 30
0.000000
  70
    32
  0
VERTEX
  8
FORM
  5
D20
 10
43.7840
 20
7.54112
 30
0.000000
  70
    32
  0
VERTEX
  8
FORM
  5
D21
 10
43.7821
 20
7.54311
 30
0.000000
  70
    32
  0
VERTEX
  8
FORM
  5
D22
 10
43.7801
 20
7.54484
 30
0.000000
  70
    32
  0
VERTEX
  8
FORM
  5
D23
 10
43.7780
 20
7.54629
 30
0.000000
  70
    32
  0
VERTEX
  8
FORM
  5
D24
 10
43.7757
 20
7.54746
 30
0.000000
  70
    32
  0
SEQEND
  8
FORM
  5
D25
  0
ARC
  5
8BA
  8
FORM
 62
     7
 10
43.889878552127108
 20
7.1236575522578161
 30
0.0
 40
0.5699207774022116
 50
85.485448269952457
 51
155.5006785655421
  0
TEXT
  5
8BB
  8
FORM
 62
     7
 10
41.884594403268792
 20
4.1433690159449093
 30
0.0
 40
0.22326923075625
  1
R2-D2 BUILDERS CLUB
  0
ARC
  5
8BC
  8
FORM
 10
1.612165178496169
 20
1.612165178496116
 30
0.0
 40
0.398695054921875
 50
180.0
 51
270.0
  0
ARC
  5
8BD
  8
FORM
 10
1.612165178496169
 20
1.612165178496116
 30
0.0
 40
0.7973901098437501
 50
180.0
 51
270.0
  0
ARC
  5
8BE
  8
FORM
 10
1.612165178496169
 20
1.612165178496116
 30
0.0
 40
0.8970638735742188
 50
180.0
 51
270.0
  0
ARC
  5
8BF
  8
FORM
 10
1.612165178496169
 20
1.612165178496116
 30
0.0
 40
1.2957589284960931
 50
180.0
 51
270.0
  0
ARC
  5
8C0
  8
FORM
 10
1.612165178496169
 20
38.571428571503922
 30
0.0
 40
1.2957589284960931
 50
90.0
 51
180.0
  0
ARC
  5
8C1
  8
FORM
 10
1.612165178496169
 20
38.571428571503922
 30
0.0
 40
0.8970638735742188
 50
90.0
 51
180.0
  0
ARC
  5
8C2
  8
FORM
 10
1.612165178496169
 20
38.571428571503922
 30
0.0
 40
0.7973901098437501
 50
90.0
 51
180.0
  0
ARC
  5
8C3
  8
FORM
 10
1.612165178496169
 20
38.571428571503922
 30
0.0
 40
0.398695054921875
 50
90.0
 51
180.0
  0
ARC
  5
8C4
  8
FORM
 10
54.075334818339897
 20
38.571428571503922
 30
0.0
 40
0.7973901098437501
 50
0.0
 51
90.0
  0
ARC
  5
8C5
  8
FORM
 10
54.075334818339897
 20
38.571428571503922
 30
0.0
 40
0.8970638735742188
 50
0.0
 51
90.0
  0
ARC
  5
8C6
  8
FORM
 10
54.075334818339897
 20
38.571428571503922
 30
0.0
 40
1.2957589284960931
 50
0.0
 51
90.0
  0
ARC
  5
8C7
  8
FORM
 10
54.075334818339897
 20
38.571428571503922
 30
0.0
 40
0.398695054921875
 50
0.0
 51
90.0
  0
ARC
  5
8C8
  8
FORM
 10
54.075334818339897
 20
1.612165178496116
 30
0.0
 40
1.2957589284960931
 50
270.0
 51
0.0
  0
ARC
  5
8C9
  8
FORM
 10
54.075334818339897
 20
1.612165178496116
 30
0.0
 40
0.8970638735742188
 50
270.0
 51
0.0
  0
ARC
  5
8CA
  8
FORM
 10
54.075334818339897
 20
1.612165178496116
 30
0.0
 40
0.7973901098437501
 50
270.0
 51
0.0
  0
ARC
  5
8CB
  8
FORM
 10
54.075334818339897
 20
1.612165178496116
 30
0.0
 40
0.398695054921875
 50
270.0
 51
0.0
  0
LINE
  5
8CC
  8
FORM
 10
54.075334818339897
 20
0.8147750686523914
 30
0.0
 11
1.612165178496169
 21
0.8147750686523664
 31
0.0
  0
LINE
  5
8CD
  8
FORM
 10
54.075334818339897
 20
0.7151013049219195
 30
0.0
 11
1.612165178496169
 21
0.7151013049218982
 31
0.0
  0
LINE
  5
8CE
  8
FORM
 10
54.075334818339897
 20
0.3164062500000231
 30
0.0
 11
1.612165178496169
 21
0.31640625
 31
0.0
  0
LINE
  5
8CF
  8
FORM
 10
54.872724928183672
 20
1.612165178496116
 30
0.0
 11
54.872724928183672
 21
38.571428571503922
 31
0.0
  0
LINE
  5
8D0
  8
FORM
 10
54.972398691914137
 20
1.612165178496116
 30
0.0
 11
54.972398691914137
 21
38.571428571503922
 31
0.0
  0
LINE
  5
8D1
  8
FORM
 10
55.371093746835989
 20
1.612165178496116
 30
0.0
 11
55.371093746835989
 21
38.571428571503922
 31
0.0
  0
LINE
  5
8D2
  8
FORM
 10
54.075334818339897
 20
39.368818681347662
 30
0.0
 11
1.612165178496169
 21
39.368818681347662
 31
0.0
  0
LINE
  5
8D3
  8
FORM
 10
54.075334818339897
 20
39.468492445078127
 30
0.0
 11
1.612165178496169
 21
39.468492445078127
 31
0.0
  0
LINE
  5
8D4
  8
FORM
 10
54.075334818339897
 20
39.8671875
 30
0.0
 11
1.612165178496169
 21
39.8671875
 31
0.0
  0
LINE
  5
8D5
  8
FORM
 10
0.8147750686524233
 20
1.612165178496116
 30
0.0
 11
0.8147750686524233
 21
38.571428571503922
 31
0.0
  0
LINE
  5
8D6
  8
FORM
 10
0.7151013049219231
 20
1.612165178496116
 30
0.0
 11
0.7151013049219231
 21
38.571428571503922
 31
0.0
  0
LINE
  5
8D7
  8
FORM
 10
0.3164062499999716
 20
1.61216517849612
 30
0.0
 11
0.3164062500000639
 21
38.571428571503922
 31
0.0
  0
LINE
  5
8D8
  8
FORM
  6
CONTINUOUS
 10
42.292355985748877
 20
1.612165178496116
 30
0.0
 11
53.492019034548278
 21
1.612165178496116
 31
0.0
  0
LINE
  5
8D9
  8
FORM
  6
CONTINUOUS
 10
54.075334818339897
 20
7.7953124866874361
 30
0.0
 11
54.075334818339897
 21
2.1954809622877458
 31
0.0
  0
ARC
  5
8DA
  8
FORM
  6
CONTINUOUS
 10
53.492019034548278
 20
2.1954809622877458
 30
0.0
 40
0.5833157837916325
 50
270.0
 51
0.0
  0
ARC
  5
8DB
  8
FORM
  6
CONTINUOUS
 10
53.492019034548278
 20
7.7953124866874361
 30
0.0
 40
0.5833157837916325
 50
359.99999999999989
 51
90.0
  0
ARC
  5
8DC
  8
FORM
  6
CONTINUOUS
 10
42.292355985748877
 20
2.1954809622877458
 30
0.0
 40
0.5833157837916325
 50
180.0
 51
270.0
  0
ARC
  5
8DD
  8
FORM
  6
CONTINUOUS
 10
42.292355985748877
 20
7.7953124866874361
 30
0.0
 40
0.5833157837916325
 50
90.0
 51
180.0
  0
LINE
  5
8DE
  8
0
 10
0.0
 20
0.0
 30
0.0
 11
0.0
 21
43.03125
 31
0.0
  0
LINE
  5
8DF
  8
0
 10
0.0
 20
0.0
 30
0.0
 11
55.6875
 21
0.0
 31
0.0
  0
LINE
  5
8E0
  8
0
 10
0.0
 20
43.03125
 30
0.0
 11
55.6875
 21
43.03125
 31
0.0
  0
LINE
  5
8E1
  8
0
 10
55.6875
 20
0.0
 30
0.0
 11
55.6875
 21
43.03125
 31
0.0
  0
LINE
  5
B88
  8
0
 10
1.612165178496169
 20
1.612165178496116
 30
0.0
 11
1.612165178496169
 21
2.6121651784961162
 31
0.0
  0
LINE
  5
B89
  8
0
 10
1.612165178496169
 20
1.737165178496116
 30
0.0
 11
1.737165178496169
 21
1.737165178496116
 31
0.0
  0
LINE
  5
B8A
  8
0
 10
1.612165178496169
 20
1.862165178496116
 30
0.0
 11
1.862165178496169
 21
1.862165178496116
 31
0.0
  0
LINE
  5
B8B
  8
0
 10
1.612165178496169
 20
1.987165178496116
 30
0.0
 11
1.737165178496169
 21
1.987165178496116
 31
0.0
  0
LINE
  5
B8C
  8
0
 10
1.612165178496169
 20
2.1121651784961162
 30
0.0
 11
1.987165178496169
 21
2.1121651784961162
 31
0.0
  0
LINE
  5
B8D
  8
0
 10
1.612165178496169
 20
2.2371651784961162
 30
0.0
 11
1.737165178496169
 21
2.2371651784961162
 31
0.0
  0
LINE
  5
B8E
  8
0
 10
1.612165178496169
 20
2.3621651784961162
 30
0.0
 11
1.862165178496169
 21
2.3621651784961162
 31
0.0
  0
LINE
  5
B8F
  8
0
 10
1.612165178496169
 20
2.4871651784961162
 30
0.0
 11
1.737165178496169
 21
2.4871651784961162
 31
0.0
  0
LINE
  5
B90
  8
0
 10
1.612165178496169
 20
2.6121651784961162
 30
0.0
 11
1.987165178496169
 21
2.6121651784961162
 31
0.0
  0
LINE
  5
B91
  8
0
 10
1.612165178496169
 20
1.612165178496116
 30
0.0
 11
1.987165178496169
 21
1.612165178496116
 31
0.0
  0
TEXT
  5
B92
  8
0
 10
2.0364339521225778
 20
2.079124617495633
 30
0.0
 40
0.0625
  1
1/2"
  0
TEXT
  5
B93
  8
0
 10
1.7864339521225781
 20
1.954124617495633
 30
0.0
 40
0.0625
  1
3/8"
  0
TEXT
  5
B94
  8
0
 10
1.9114339521225781
 20
1.829124617495633
 30
0.0
 40
0.0625
  1
1/4"
  0
TEXT
  5
B95
  8
0
 10
1.7864339521225781
 20
1.704124617495633
 30
0.0
 40
0.0625
  1
1/8"
  0
TEXT
  5
B96
  8
0
 10
1.7864339521225781
 20
2.204124617495633
 30
0.0
 40
0.0625
  1
5/8"
  0
TEXT
  5
B97
  8
0
 10
1.9114339521225781
 20
2.329124617495633
 30
0.0
 40
0.0625
  1
3/4"
  0
TEXT
  5
B98
  8
0
 10
1.7864339521225781
 20
2.454124617495633
 30
0.0
 40
0.0625
  1
7/8"
  0
TEXT
  5
B99
  8
0
 10
2.0364339521225778
 20
2.579124617495633
 30
0.0
 40
0.0625
  1
1"
  0
LINE
  5
B9E
  8
BODY_-_SKIRT
 10
44.554270066455679
 20
25.83655969401962
 30
0.0
 11
42.0542700664557
 21
24.23361998313348
 31
0.0
  0
LINE
  5
BA0
  8
BODY_-_SKIRT
 10
44.554270066455679
 20
26.130170057298251
 30
0.0
 11
42.0542700664557
 21
24.538753620704298
 31
0.0
  0
LINE
  5
BA2
  8
BODY_-_SKIRT
 10
44.554270066455679
 20
25.618835353510761
 30
0.0
 11
42.4292700664557
 21
24.23361998313348
 31
0.0
  0
LINE
  5
BA3
  8
BODY_-_SKIRT
 10
42.4292700664557
 20
24.23361998313348
 30
0.0
 11
42.0542700664557
 21
24.23361998313348
 31
0.0
  0
LINE
  5
BA4
  8
BODY_-_SKIRT
 10
42.429270066455707
 20
24.23361998313348
 30
0.0
 11
42.429270066455707
 21
23.382828201498789
 31
0.0
  0
LINE
  5
BA7
  8
BODY_-_SKIRT
 10
44.554270066455679
 20
23.783910921394959
 30
0.0
 11
42.0542700664557
 21
22.79632419710353
 31
0.0
  0
LINE
  5
BAA
  8
BODY_-_SKIRT
 10
44.554270066455679
 20
24.192780556847978
 30
0.0
 11
42.0542700664557
 21
23.239895432907751
 31
0.0
  0
LINE
  5
BAB
  8
BODY_-_SKIRT
 10
42.0542700664557
 20
22.79632419710353
 30
0.0
 11
42.429270066455707
 21
22.79632419710353
 31
0.0
  0
LINE
  5
BAD
  8
BODY_-_SKIRT
 10
42.429270066455707
 20
22.79632419710353
 30
0.0
 11
44.554270066455679
 21
23.721949980715479
 31
0.0
  0
LINE
  5
BAE
  8
BODY_-_SKIRT
 10
42.429270066455707
 20
22.79632419710353
 30
0.0
 11
42.429270066455679
 21
15.24149078501571
 31
0.0
  0
LINE
  5
BB0
  8
BODY_-_SKIRT
 10
42.0542700664557
 20
25.653055862263042
 30
0.0
 11
42.4292700664557
 21
25.653055862263031
 31
0.0
  0
LINE
  5
BB1
  8
BODY_-_SKIRT
 10
44.554270066455679
 20
27.457820320620751
 30
0.0
 11
42.0542700664557
 21
25.653055862263042
 31
0.0
  0
LINE
  5
BB3
  8
BODY_-_SKIRT
 10
44.554270066455679
 20
27.212207382067412
 30
0.0
 11
42.4292700664557
 21
25.653055862263031
 31
0.0
  0
LINE
  5
BB6
  8
BODY_-_SKIRT
 10
44.554270066455679
 20
27.535963023605351
 30
0.0
 11
42.0542700664557
 21
25.727073166980691
 31
0.0
  0
LINE
  5
BB8
  8
BODY_-_SKIRT
 10
42.112087743863917
 20
12.26890749105962
 30
0.0
 11
42.054270066455679
 21
12.26890749105962
 31
0.0
  0
LINE
  5
BB9
  8
BODY_-_SKIRT
 10
42.4292700664557
 20
12.3847591198562
 30
0.0
 11
42.429270066455693
 21
13.26034889592585
 31
0.0
  0
LINE
  5
BBA
  8
BODY_-_SKIRT
 10
42.429270066455707
 20
13.804194998985761
 30
0.0
 11
42.429270066455707
 21
14.654986780620449
 31
0.0
  0
LINE
  5
BBB
  8
BODY_-_SKIRT
 10
44.554270066455679
 20
12.20125528809962
 30
0.0
 11
42.0542700664557
 21
13.80419499898575
 31
0.0
  0
LINE
  5
BBC
  8
BODY_-_SKIRT
 10
44.554270066455679
 20
11.907644924820991
 30
0.0
 11
42.0542700664557
 21
13.49906136141494
 31
0.0
  0
LINE
  5
BBD
  8
BODY_-_SKIRT
 10
44.554270066455679
 20
12.418979628608479
 30
0.0
 11
42.4292700664557
 21
13.80419499898575
 31
0.0
  0
LINE
  5
BBE
  8
BODY_-_SKIRT
 10
42.4292700664557
 20
13.80419499898575
 30
0.0
 11
42.0542700664557
 21
13.80419499898575
 31
0.0
  0
LINE
  5
BBF
  8
BODY_-_SKIRT
 10
44.554270066455679
 20
14.253904060724279
 30
0.0
 11
42.0542700664557
 21
15.241490785015721
 31
0.0
  0
LINE
  5
BC0
  8
BODY_-_SKIRT
 10
44.554270066455679
 20
13.84503442527126
 30
0.0
 11
42.0542700664557
 21
14.797919549211491
 31
0.0
  0
LINE
  5
BC1
  8
BODY_-_SKIRT
 10
42.0542700664557
 20
15.241490785015721
 30
0.0
 11
42.429270066455707
 21
15.24149078501571
 31
0.0
  0
LINE
  5
BC2
  8
BODY_-_SKIRT
 10
42.429270066455707
 20
15.24149078501571
 30
0.0
 11
44.554270066455679
 21
14.315865001403759
 31
0.0
  0
LINE
  5
BC3
  8
BODY_-_SKIRT
 10
42.0542700664557
 20
12.3847591198562
 30
0.0
 11
42.4292700664557
 21
12.3847591198562
 31
0.0
  0
LINE
  5
BC4
  8
BODY_-_SKIRT
 10
44.554270066455679
 20
10.579994661498491
 30
0.0
 11
42.0542700664557
 21
12.3847591198562
 31
0.0
  0
LINE
  5
BC5
  8
BODY_-_SKIRT
 10
44.554270066455679
 20
10.82560760005183
 30
0.0
 11
42.4292700664557
 21
12.3847591198562
 31
0.0
  0
LINE
  5
BC6
  8
BODY_-_SKIRT
 10
44.554270066455679
 20
10.501851958513891
 30
0.0
 11
42.0542700664557
 21
12.310741815138551
 31
0.0
  0
LINE
  5
BC7
  8
BODY_-_SKIRT
 10
42.429270066455679
 20
14.654986780620449
 30
0.0
 11
42.429270066455679
 21
13.80419499898577
 31
0.0
  0
LINE
  5
BC8
  8
BODY_-_SKIRT
 10
42.429270066455679
 20
13.26034889592585
 30
0.0
 11
42.429270066455679
 21
12.384759119856209
 31
0.0
  0
LINE
  5
BE4
  8
DIMENSIONS
 10
44.554270066455679
 20
28.168407491059622
 30
0.0
 11
44.554270066455679
 21
28.928170599438459
 31
0.0
  0
LINE
  5
BE5
  8
DIMENSIONS
 10
42.0542700664557
 20
25.789573166980691
 30
0.0
 11
42.0542700664557
 21
28.928170599438459
 31
0.0
  0
LINE
  5
BE6
  8
DIMENSIONS
 10
44.304270066455679
 20
28.862970599438459
 30
0.0
 11
43.894270066455682
 21
28.862970599438459
 31
0.0
  0
LINE
  5
BE7
  8
DIMENSIONS
 10
42.3042700664557
 20
28.862970599438459
 30
0.0
 11
42.71427006645569
 21
28.862970599438459
 31
0.0
  0
SOLID
  5
BE8
  8
DIMENSIONS
 10
44.304270066455679
 20
28.90463726610513
 30
0.0
 11
44.304270066455679
 21
28.821303932771791
 31
0.0
 12
44.554270066455679
 22
28.862970599438459
 32
0.0
 13
44.554270066455679
 23
28.862970599438459
 33
0.0
  0
SOLID
  5
BE9
  8
DIMENSIONS
 10
42.3042700664557
 20
28.90463726610513
 30
0.0
 11
42.3042700664557
 21
28.821303932771791
 31
0.0
 12
42.0542700664557
 22
28.862970599438459
 32
0.0
 13
42.0542700664557
 23
28.862970599438459
 33
0.0
  0
TEXT
  5
BEB
  8
DIMENSIONS
 10
42.804270066455693
 20
28.737970599438459
 30
0.0
 40
0.25
  1
2.500
  0
LINE
  5
C06
  8
DIMENSIONS
 10
44.616770066455679
 20
28.105907491059622
 30
0.0
 11
46.017752356690032
 21
28.105907491059622
 31
0.0
  0
LINE
  5
C07
  8
DIMENSIONS
 10
44.616770066455679
 20
9.9319074910596203
 30
0.0
 11
46.017752356690018
 21
9.9319074910596203
 31
0.0
  0
LINE
  5
C08
  8
DIMENSIONS
 10
45.952552356690028
 20
27.855907491059622
 30
0.0
 11
45.952552356690028
 21
19.233907491059622
 31
0.0
  0
LINE
  5
C09
  8
DIMENSIONS
 10
45.952552356690028
 20
10.18190749105962
 30
0.0
 11
45.952552356690028
 21
18.803907491059618
 31
0.0
  0
SOLID
  5
C0A
  8
DIMENSIONS
 10
45.910885690023363
 20
27.855907491059622
 30
0.0
 11
45.994219023356692
 21
27.855907491059622
 31
0.0
 12
45.952552356690028
 22
28.105907491059622
 32
0.0
 13
45.952552356690028
 23
28.105907491059622
 33
0.0
  0
SOLID
  5
C0B
  8
DIMENSIONS
 10
45.910885690023363
 20
10.18190749105962
 30
0.0
 11
45.994219023356692
 21
10.18190749105962
 31
0.0
 12
45.952552356690028
 22
9.9319074910596203
 32
0.0
 13
45.952552356690028
 23
9.9319074910596203
 33
0.0
  0
TEXT
  5
C0D
  8
DIMENSIONS
 10
45.231410266248993
 20
18.893907491059618
 30
0.0
 40
0.25
  1
%%c18.174
  0
LINE
  5
C0F
  8
BODY_-_SKIRT
 10
25.054748235596001
 20
5.3463799191942041
 30
0.0
 11
25.054748235596001
 21
4.9713799191942041
 31
0.0
  0
LINE
  5
C13
  8
BODY_-_SKIRT
 10
24.217224075279589
 20
2.846379919194201
 30
0.0
 11
24.55986931375406
 21
5.3463799191942041
 31
0.0
  0
LINE
  5
C14
  8
BODY_-_SKIRT
 10
24.71131976578825
 20
2.846379919194201
 30
0.0
 11
25.054748235596001
 21
5.3463799191942041
 31
0.0
  0
LINE
  5
C16
  8
BODY_-_SKIRT
 10
24.75803707787237
 20
2.846379919194201
 30
0.0
 11
25.054748235596001
 21
4.9713799191942041
 31
0.0
  0
LINE
  5
C17
  8
BODY_-_SKIRT
 10
25.054748235596001
 20
4.9713799191942041
 30
0.0
 11
26.55543243207989
 21
4.9713799191942041
 31
0.0
  0
LINE
  5
C1B
  8
BODY_-_SKIRT
 10
21.519151273957529
 20
5.3463799191942041
 30
0.0
 11
20.584344463804211
 21
2.8463799191942001
 31
0.0
  0
LINE
  5
C1C
  8
BODY_-_SKIRT
 10
21.92001649862625
 20
5.3463799191942041
 30
0.0
 11
21.92001649862625
 21
4.9713799191942041
 31
0.0
  0
LINE
  5
C1E
  8
BODY_-_SKIRT
 10
21.92001649862625
 20
5.3463799191942041
 30
0.0
 11
20.991929863418019
 21
2.8463799191942001
 31
0.0
  0
LINE
  5
C20
  8
BODY_-_SKIRT
 10
21.11816550889289
 20
2.8463799191942001
 30
0.0
 11
21.92001649862625
 21
4.9713799191942041
 31
0.0
  0
LINE
  5
C21
  8
BODY_-_SKIRT
 10
21.92001649862625
 20
4.9713799191942041
 30
0.0
 11
24.508472527982899
 21
4.9713799191942041
 31
0.0
  0
LINE
  5
C22
  8
BODY_-_SKIRT
 10
20.5376658403333
 20
5.3463799191942032
 30
0.0
 11
20.5376658403333
 21
4.9713799191942041
 31
0.0
  0
LINE
  5
C24
  8
BODY_-_SKIRT
 10
20.5376658403333
 20
5.3463799191942041
 30
0.0
 11
18.951798679522511
 21
2.8463799191942001
 31
0.0
  0
LINE
  5
C26
  8
BODY_-_SKIRT
 10
20.305090333837938
 20
5.3463799191942041
 30
0.0
 11
18.66147001155791
 21
2.8463799191942001
 31
0.0
  0
LINE
  5
C28
  8
BODY_-_SKIRT
 10
20.5376658403333
 20
4.9713799191942041
 30
0.0
 11
19.167327397270729
 21
2.8463799191942001
 31
0.0
  0
LINE
  5
C29
  8
BODY_-_SKIRT
 10
31.07251482734258
 20
4.9713799191942041
 30
0.0
 11
30.231250415241341
 21
4.9713799191942041
 31
0.0
  0
LINE
  5
C2A
  8
BODY_-_SKIRT
 10
29.69016416904962
 20
4.9713799191942041
 30
0.0
 11
27.101708139692981
 21
4.9713799191942041
 31
0.0
  0
LINE
  5
C2B
  8
BODY_-_SKIRT
 10
26.55543243207989
 20
5.3463799191942041
 30
0.0
 11
26.55543243207989
 21
4.9713799191942041
 31
0.0
  0
LINE
  5
C2C
  8
BODY_-_SKIRT
 10
27.392956592396288
 20
2.846379919194201
 30
0.0
 11
27.05031135392181
 21
5.3463799191942041
 31
0.0
  0
LINE
  5
C2D
  8
BODY_-_SKIRT
 10
26.89886090188763
 20
2.846379919194201
 30
0.0
 11
26.55543243207989
 21
5.3463799191942041
 31
0.0
  0
LINE
  5
C2E
  8
BODY_-_SKIRT
 10
26.852143589803511
 20
2.846379919194201
 30
0.0
 11
26.55543243207989
 21
4.9713799191942041
 31
0.0
  0
LINE
  5
C2F
  8
BODY_-_SKIRT
 10
30.09102939371834
 20
5.3463799191942041
 30
0.0
 11
31.02583620387167
 21
2.8463799191942001
 31
0.0
  0
LINE
  5
C30
  8
BODY_-_SKIRT
 10
29.69016416904962
 20
5.3463799191942041
 30
0.0
 11
29.69016416904962
 21
4.9713799191942041
 31
0.0
  0
LINE
  5
C31
  8
BODY_-_SKIRT
 10
29.69016416904962
 20
5.3463799191942041
 30
0.0
 11
30.618250804257851
 21
2.8463799191942001
 31
0.0
  0
LINE
  5
C32
  8
BODY_-_SKIRT
 10
30.49201515878298
 20
2.8463799191942001
 30
0.0
 11
29.69016416904962
 21
4.9713799191942041
 31
0.0
  0
LINE
  5
C33
  8
BODY_-_SKIRT
 10
31.07251482734258
 20
5.3463799191942032
 30
0.0
 11
31.07251482734258
 21
4.9713799191942041
 31
0.0
  0
LINE
  5
C34
  8
BODY_-_SKIRT
 10
31.07251482734258
 20
5.3463799191942041
 30
0.0
 11
32.658381988153373
 21
2.8463799191942001
 31
0.0
  0
LINE
  5
C35
  8
BODY_-_SKIRT
 10
31.305090333837931
 20
5.3463799191942041
 30
0.0
 11
32.948710656117967
 21
2.8463799191942001
 31
0.0
  0
LINE
  5
C36
  8
BODY_-_SKIRT
 10
31.07251482734258
 20
4.9713799191942041
 30
0.0
 11
32.442853270405138
 21
2.8463799191942001
 31
0.0
  0
LINE
  5
C37
  8
BODY_-_SKIRT
 10
27.101708139692992
 20
4.9713799191942041
 30
0.0
 11
29.69016416904962
 21
4.9713799191942041
 31
0.0
  0
LINE
  5
C38
  8
BODY_-_SKIRT
 10
30.231250415241341
 20
4.9713799191942041
 30
0.0
 11
31.07251482734258
 21
4.9713799191942041
 31
0.0
  0
ENDSEC
  0
EOF
