  0
SECTION
  2
HEADER
  9
$ACADVER
  1
AC1009
  9
$INSBASE
 10
0.0
 20
0.0
 30
0.0
  9
$EXTMIN
 10
0.0
 20
0.0
 30
0.0
  9
$EXTMAX
 10
22.0
 20
17.0
 30
0.0
  9
$LIMMIN
 10
0.0
 20
0.0
  9
$LIMMAX
 10
12.0
 20
9.0
  9
$ORTHOMODE
 70
     1
  9
$REGENMODE
 70
     1
  9
$FILLMODE
 70
     1
  9
$QTEXTMODE
 70
     0
  9
$MIRRTEXT
 70
     1
  9
$DRAGMODE
 70
     2
  9
$LTSCALE
 40
1.0
  9
$OSMODE
 70
    39
  9
$ATTMODE
 70
     1
  9
$TEXTSIZE
 40
0.1875
  9
$TRACEWID
 40
0.05
  9
$TEXTSTYLE
  7
STANDARD
  9
$CLAYER
  8
0
  9
$CELTYPE
  6
BYLAYER
  9
$CECOLOR
 62
   256
  9
$DIMSCALE
 40
1.0
  9
$DIMASZ
 40
0.25
  9
$DIMEXO
 40
0.0625
  9
$DIMDLI
 40
1.0
  9
$DIMRND
 40
0.0
  9
$DIMDLE
 40
0.0
  9
$DIMEXE
 40
0.0625
  9
$DIMTP
 40
0.0
  9
$DIMTM
 40
0.0
  9
$DIMTXT
 40
0.25
  9
$DIMCEN
 40
0.0
  9
$DIMTSZ
 40
0.0
  9
$DIMTOL
 70
     0
  9
$DIMLIM
 70
     0
  9
$DIMTIH
 70
     1
  9
$DIMTOH
 70
     1
  9
$DIMSE1
 70
     0
  9
$DIMSE2
 70
     0
  9
$DIMTAD
 70
     0
  9
$DIMZIN
 70
     0
  9
$DIMBLK
  1

  9
$DIMASO
 70
     1
  9
$DIMSHO
 70
     1
  9
$DIMPOST
  1

  9
$DIMAPOST
  1

  9
$DIMALT
 70
     0
  9
$DIMALTD
 70
     2
  9
$DIMALTF
 40
25.399999999999999
  9
$DIMLFAC
 40
1.0
  9
$DIMTOFL
 70
     0
  9
$DIMTVP
 40
0.0
  9
$DIMTIX
 70
     0
  9
$DIMSOXD
 70
     0
  9
$DIMSAH
 70
     0
  9
$DIMBLK1
  1

  9
$DIMBLK2
  1

  9
$DIMSTYLE
  2
STANDARD
  9
$DIMCLRD
 70
   256
  9
$DIMCLRE
 70
   256
  9
$DIMCLRT
 70
   256
  9
$DIMTFAC
 40
1.0
  9
$DIMGAP
 40
0.0625
  9
$LUNITS
 70
     2
  9
$LUPREC
 70
     8
  9
$SKETCHINC
 40
0.1
  9
$FILLETRAD
 40
0.0
  9
$AUNITS
 70
     0
  9
$AUPREC
 70
     0
  9
$MENU
  1
.
  9
$ELEVATION
 40
0.0
  9
$PELEVATION
 40
0.0
  9
$THICKNESS
 40
0.0
  9
$LIMCHECK
 70
     0
  9
$BLIPMODE
 70
     0
  9
$CHAMFERA
 40
0.0
  9
$CHAMFERB
 40
0.0
  9
$SKPOLY
 70
     0
  9
$TDCREATE
 40
2452227.898066666
  9
$TDUPDATE
 40
2453462.4906653468
  9
$TDINDWG
 40
1.8745819907000001
  9
$TDUSRTIMER
 40
1.8745814119999999
  9
$USRTIMER
 70
     1
  9
$ANGBASE
 50
0.0
  9
$ANGDIR
 70
     0
  9
$PDMODE
 70
     0
  9
$PDSIZE
 40
0.0
  9
$PLINEWID
 40
0.0
  9
$COORDS
 70
     0
  9
$SPLFRAME
 70
     0
  9
$SPLINETYPE
 70
     6
  9
$SPLINESEGS
 70
     8
  9
$ATTDIA
 70
     0
  9
$ATTREQ
 70
     1
  9
$HANDLING
 70
     1
  9
$HANDSEED
  5
1473
  9
$SURFTAB1
 70
     6
  9
$SURFTAB2
 70
     6
  9
$SURFTYPE
 70
     6
  9
$SURFU
 70
     6
  9
$SURFV
 70
     6
  9
$UCSNAME
  2

  9
$UCSORG
 10
0.0
 20
0.0
 30
0.0
  9
$UCSXDIR
 10
1.0
 20
0.0
 30
0.0
  9
$UCSYDIR
 10
0.0
 20
1.0
 30
0.0
  9
$PUCSNAME
  2

  9
$PUCSORG
 10
0.0
 20
0.0
 30
0.0
  9
$PUCSXDIR
 10
1.0
 20
0.0
 30
0.0
  9
$PUCSYDIR
 10
0.0
 20
1.0
 30
0.0
  9
$USERI1
 70
     0
  9
$USERI2
 70
     0
  9
$USERI3
 70
     0
  9
$USERI4
 70
     0
  9
$USERI5
 70
     0
  9
$USERR1
 40
0.0
  9
$USERR2
 40
0.0
  9
$USERR3
 40
0.0
  9
$USERR4
 40
0.0
  9
$USERR5
 40
0.0
  9
$WORLDVIEW
 70
     1
  9
$SHADEDGE
 70
     3
  9
$SHADEDIF
 70
    70
  9
$TILEMODE
 70
     1
  9
$MAXACTVP
 70
    64
  9
$PLIMCHECK
 70
     0
  9
$PEXTMIN
 10
1.0000000000000000E+020
 20
1.0000000000000000E+020
 30
1.0000000000000000E+020
  9
$PEXTMAX
 10
-1.0000000000000000E+020
 20
-1.0000000000000000E+020
 30
-1.0000000000000000E+020
  9
$PLIMMIN
 10
0.0
 20
0.0
  9
$PLIMMAX
 10
12.0
 20
9.0
  9
$UNITMODE
 70
     0
  9
$VISRETAIN
 70
     1
  9
$PLINEGEN
 70
     0
  9
$PSLTSCALE
 70
     1
  0
ENDSEC
  0
SECTION
  2
TABLES
  0
TABLE
  2
VPORT
 70
     2
  0
VPORT
  2
*ACTIVE
 70
     0
 10
0.0
 20
0.0
 11
1.0
 21
1.0
 12
11.00065529162773
 22
8.5007648071928799
 13
0.0
 23
0.0
 14
0.5
 24
0.5
 15
0.5
 25
0.5
 16
0.0
 26
0.0
 36
1.0
 17
0.0
 27
0.0
 37
0.0
 40
17.220505593768969
 41
2.1727078891257992
 42
50.0
 43
0.0
 44
0.0
 50
0.0
 51
0.0
 71
     0
 72
 20000
 73
     1
 74
     2
 75
     0
 76
     0
 77
     0
 78
     0
  0
ENDTAB
  0
TABLE
  2
LTYPE
 70
     1
  0
LTYPE
  2
CONTINUOUS
 70
     0
  3
Solid line
 72
    65
 73
     0
 40
0.0
  0
ENDTAB
  0
TABLE
  2
LAYER
 70
     5
  0
LAYER
  2
0
 70
     0
 62
     7
  6
CONTINUOUS
  0
LAYER
  2
BODY_-_OCTAGON_PORT
 70
     0
 62
     7
  6
CONTINUOUS
  0
LAYER
  2
DIMENSIONS
 70
     0
 62
     1
  6
CONTINUOUS
  0
LAYER
  2
DEFPOINTS
 70
     0
 62
     7
  6
CONTINUOUS
  0
LAYER
  2
FORM
 70
     0
 62
     5
  6
CONTINUOUS
  0
ENDTAB
  0
TABLE
  2
STYLE
 70
     1
  0
STYLE
  2
STANDARD
 70
     0
 40
0.0
 41
1.0
 50
0.0
 71
     0
 42
0.1875
  3
simplex.shx
  4

  0
ENDTAB
  0
TABLE
  2
VIEW
 70
     0
  0
ENDTAB
  0
TABLE
  2
UCS
 70
     0
  0
ENDTAB
  0
TABLE
  2
APPID
 70
     5
  0
APPID
  2
ACAD
 70
     0
  0
APPID
  2
ACAD_DSTYLE_DIMTEXT_FILL
 70
     0
  0
APPID
  2
ACAECLAYERSTANDARD
 70
     0
  0
APPID
  2
DCO15
 70
     0
  0
APPID
  2
ACAD_PSEXT
 70
     0
  0
ENDTAB
  0
TABLE
  2
DIMSTYLE
 70
     1
  0
DIMSTYLE
  2
STANDARD
 70
     0
  3

  4

  5

  6

  7

 40
1.0
 41
0.25
 42
0.0625
 43
1.0
 44
0.0625
 45
0.0
 46
0.0
 47
0.0
 48
0.0
140
0.25
141
0.0
142
0.0
143
25.399999999999999
144
1.0
145
0.0
146
1.0
147
0.0625
 71
     0
 72
     0
 73
     1
 74
     1
 75
     0
 76
     0
 77
     0
 78
     0
170
     0
171
     2
172
     0
173
     0
174
     0
175
     0
176
   256
177
   256
178
   256
  0
ENDTAB
  0
ENDSEC
  0
SECTION
  2
BLOCKS
  0
BLOCK
  8
0
  2
$MODEL_SPACE
 70
     0
 10
0.0
 20
0.0
 30
0.0
  3
$MODEL_SPACE
  1

  0
ENDBLK
  5
9
  8
0
  0
BLOCK
 67
     1
  8
0
  2
$PAPER_SPACE
 70
     0
 10
0.0
 20
0.0
 30
0.0
  3
$PAPER_SPACE
  1

  0
ENDBLK
  5
E
 67
     1
  8
0
  0
ENDSEC
  0
SECTION
  2
ENTITIES
  0
CIRCLE
  5
62D
  8
BODY_-_OCTAGON_PORT
 10
8.3380040104420203
 20
9.4167857250727458
 30
0.0
 40
0.875
  0
CIRCLE
  5
62E
  8
BODY_-_OCTAGON_PORT
 10
8.3380040104420203
 20
9.4167857250727458
 30
0.0
 40
0.75
  0
CIRCLE
  5
62F
  8
BODY_-_OCTAGON_PORT
 10
8.3380040104420203
 20
9.4167857250727458
 30
0.0
 40
0.625
  0
LINE
  5
633
  8
BODY_-_OCTAGON_PORT
 10
15.472553438390831
 20
10.29178572507274
 30
0.0
 11
15.722553438390831
 21
10.29178572507274
 31
0.0
  0
LINE
  5
634
  8
BODY_-_OCTAGON_PORT
 10
15.347553438390831
 20
10.16678572507274
 30
0.0
 11
15.472553438390831
 21
10.16678572507274
 31
0.0
  0
LINE
  5
635
  8
BODY_-_OCTAGON_PORT
 10
15.222553438390831
 20
10.04178572507274
 30
0.0
 11
15.347553438390831
 21
10.04178572507274
 31
0.0
  0
LINE
  5
636
  8
BODY_-_OCTAGON_PORT
 10
15.222553438390831
 20
8.7917857250727458
 30
0.0
 11
15.347553438390831
 21
8.7917857250727458
 31
0.0
  0
LINE
  5
637
  8
BODY_-_OCTAGON_PORT
 10
15.347553438390831
 20
8.6667857250727458
 30
0.0
 11
15.472553438390831
 21
8.6667857250727458
 31
0.0
  0
LINE
  5
638
  8
BODY_-_OCTAGON_PORT
 10
15.472553438390831
 20
8.5417857250727458
 30
0.0
 11
15.722553438390831
 21
8.5417857250727458
 31
0.0
  0
LINE
  5
639
  8
BODY_-_OCTAGON_PORT
 10
15.347553438390831
 20
10.16678572507274
 30
0.0
 11
15.347553438390831
 21
8.6667857250727458
 31
0.0
  0
LINE
  5
63A
  8
BODY_-_OCTAGON_PORT
 10
15.472553438390831
 20
10.29178572507274
 30
0.0
 11
15.472553438390831
 21
8.5417857250727458
 31
0.0
  0
LINE
  5
63B
  8
BODY_-_OCTAGON_PORT
 10
15.722553438390831
 20
10.29178572507274
 30
0.0
 11
15.722553438390831
 21
8.5417857250727458
 31
0.0
  0
LINE
  5
63C
  8
BODY_-_OCTAGON_PORT
 10
15.82255343839082
 20
10.88578572507274
 30
0.0
 11
15.82255343839082
 21
7.9477857250727437
 31
0.0
  0
LINE
  5
63D
  8
BODY_-_OCTAGON_PORT
 10
15.222553438390831
 20
10.04178572507274
 30
0.0
 11
15.222553438390831
 21
8.7917857250727458
 31
0.0
  0
LINE
  5
643
  8
BODY_-_OCTAGON_PORT
 10
15.722553438390831
 20
10.166785725072749
 30
0.0
 11
15.82255343839082
 21
10.166785725072749
 31
0.0
  0
LINE
  5
644
  8
BODY_-_OCTAGON_PORT
 10
15.722553438390831
 20
8.6667857250727423
 30
0.0
 11
15.82255343839082
 21
8.6667857250727458
 31
0.0
  0
LINE
  5
645
  8
BODY_-_OCTAGON_PORT
 10
9.2130040104420203
 20
3.5186358800277029
 30
0.0
 11
9.2130040104420203
 21
3.2686358800277029
 31
0.0
  0
LINE
  5
646
  8
BODY_-_OCTAGON_PORT
 10
9.0880040104420203
 20
3.6436358800277029
 30
0.0
 11
9.0880040104420203
 21
3.5186358800277029
 31
0.0
  0
LINE
  5
647
  8
BODY_-_OCTAGON_PORT
 10
9.0880040104420203
 20
3.2686358800277029
 30
0.0
 11
9.0880040104420203
 21
3.168635880027705
 31
0.0
  0
LINE
  5
648
  8
BODY_-_OCTAGON_PORT
 10
8.9630040104420203
 20
3.7686358800277029
 30
0.0
 11
8.9630040104420203
 21
3.6436358800277051
 31
0.0
  0
LINE
  5
649
  8
BODY_-_OCTAGON_PORT
 10
7.7130040104420203
 20
3.7686358800277029
 30
0.0
 11
7.7130040104420203
 21
3.6436358800277029
 31
0.0
  0
LINE
  5
64A
  8
BODY_-_OCTAGON_PORT
 10
7.5880040104420203
 20
3.6436358800277029
 30
0.0
 11
7.5880040104420203
 21
3.518635880027702
 31
0.0
  0
LINE
  5
64B
  8
BODY_-_OCTAGON_PORT
 10
7.5880040104420061
 20
3.2686358800277051
 30
0.0
 11
7.5880040104420203
 21
3.1686358800277041
 31
0.0
  0
LINE
  5
64C
  8
BODY_-_OCTAGON_PORT
 10
7.4630040104420203
 20
3.5186358800277029
 30
0.0
 11
7.4630040104420203
 21
3.2686358800277051
 31
0.0
  0
LINE
  5
64D
  8
BODY_-_OCTAGON_PORT
 10
9.0880040104420203
 20
3.6436358800277029
 30
0.0
 11
7.5880040104420203
 21
3.6436358800277029
 31
0.0
  0
LINE
  5
64E
  8
BODY_-_OCTAGON_PORT
 10
8.9630040104420203
 20
3.7686358800277029
 30
0.0
 11
7.7130040104420203
 21
3.7686358800277029
 31
0.0
  0
LINE
  5
64F
  8
BODY_-_OCTAGON_PORT
 10
9.2130040104420203
 20
3.5186358800277029
 30
0.0
 11
7.4630040104420203
 21
3.5186358800277029
 31
0.0
  0
LINE
  5
650
  8
BODY_-_OCTAGON_PORT
 10
9.2130040104420203
 20
3.2686358800277029
 30
0.0
 11
7.4630040104420203
 21
3.2686358800277051
 31
0.0
  0
LINE
  5
651
  8
BODY_-_OCTAGON_PORT
 10
9.8070040104420144
 20
3.168635880027705
 30
0.0
 11
6.869004010442012
 21
3.1686358800277019
 31
0.0
  0
LINE
  5
654
  8
BODY_-_OCTAGON_PORT
 10
9.8070040104420144
 20
3.168635880027705
 30
0.0
 11
9.8070040104420144
 21
4.1111108869624893
 31
0.0
  0
LINE
  5
655
  8
BODY_-_OCTAGON_PORT
 10
6.869004010442012
 20
3.1686358800277019
 30
0.0
 11
6.869004010442012
 21
4.1111108869624893
 31
0.0
  0
LINE
  5
656
  8
BODY_-_OCTAGON_PORT
 10
5.8315381673238562
 20
2.741387757096116
 30
0.0
 11
5.668069785339739
 21
3.829545172302609
 31
0.0
  0
LINE
  5
657
  8
BODY_-_OCTAGON_PORT
 10
10.78566196225051
 20
2.3499221891094728
 30
0.0
 11
11.007938235544289
 21
3.8295451723026099
 31
0.0
  0
LINE
  5
658
  8
BODY_-_OCTAGON_PORT
 10
5.8315381673238562
 20
2.741387757096116
 30
0.0
 11
6.5087858238456704
 21
2.3518780615009791
 31
0.0
  0
LINE
  5
659
  8
BODY_-_OCTAGON_PORT
 10
6.5087858238456704
 20
2.3518780615009791
 30
0.0
 11
7.130598195373266
 21
2.6772182191387621
 31
0.0
  0
LINE
  5
65A
  8
BODY_-_OCTAGON_PORT
 10
7.130598195373266
 20
2.6772182191387621
 30
0.0
 11
7.6339701989881226
 21
2.6476418543774858
 31
0.0
  0
LINE
  5
65B
  8
BODY_-_OCTAGON_PORT
 10
7.6339701989881226
 20
2.6476418543774858
 30
0.0
 11
8.0189016461249452
 21
2.8546764948646661
 31
0.0
  0
LINE
  5
65C
  8
BODY_-_OCTAGON_PORT
 10
8.0189016461249452
 20
2.8546764948646661
 30
0.0
 11
8.9664253436880728
 21
2.8546764948646661
 31
0.0
  0
LINE
  5
65D
  8
BODY_-_OCTAGON_PORT
 10
8.9664253436880728
 20
2.8546764948646661
 30
0.0
 11
9.3217466988467095
 21
2.5293363372268831
 31
0.0
  0
LINE
  5
65E
  8
BODY_-_OCTAGON_PORT
 10
9.3217466988467095
 20
2.5293363372268831
 30
0.0
 11
10.121219810808711
 21
2.736370977714063
 31
0.0
  0
LINE
  5
65F
  8
BODY_-_OCTAGON_PORT
 10
10.121219810808711
 20
2.736370977714063
 30
0.0
 11
10.78566196225051
 21
2.3499221891094719
 31
0.0
  0
LINE
  5
660
  8
BODY_-_OCTAGON_PORT
 10
15.82255343839082
 20
10.88578572507274
 30
0.0
 11
14.760553438390829
 21
10.88578572507274
 31
0.0
  0
LINE
  5
661
  8
BODY_-_OCTAGON_PORT
 10
15.82255343839082
 20
7.9477857250727437
 30
0.0
 11
14.760553438390829
 21
7.9477857250727437
 31
0.0
  0
LINE
  5
662
  8
BODY_-_OCTAGON_PORT
 10
14.760553438390829
 20
11.5469841009843
 30
0.0
 11
14.760553438390829
 21
7.2117888727954593
 31
0.0
  0
LINE
  5
663
  8
BODY_-_OCTAGON_PORT
 10
14.760553438390829
 20
11.5469841009843
 30
0.0
 11
15.634737923096759
 21
11.421326263230521
 31
0.0
  0
LINE
  5
664
  8
BODY_-_OCTAGON_PORT
 10
15.634737923096759
 20
11.421326263230521
 30
0.0
 11
15.68191337394658
 21
11.232839506599859
 31
0.0
  0
LINE
  5
665
  8
BODY_-_OCTAGON_PORT
 10
15.68191337394658
 20
11.232839506599859
 30
0.0
 11
16.31091919671216
 21
10.90298771881212
 31
0.0
  0
LINE
  5
666
  8
BODY_-_OCTAGON_PORT
 10
16.31091919671216
 20
10.90298771881212
 30
0.0
 11
16.122217456167999
 21
10.258991307587211
 31
0.0
  0
LINE
  5
667
  8
BODY_-_OCTAGON_PORT
 10
16.122217456167999
 20
10.258991307587211
 30
0.0
 11
16.232293445295809
 21
9.8977250458346546
 31
0.0
  0
LINE
  5
668
  8
BODY_-_OCTAGON_PORT
 10
16.232293445295809
 20
9.8977250458346546
 30
0.0
 11
16.043591704751631
 21
9.1437780483647373
 31
0.0
  0
LINE
  5
669
  8
BODY_-_OCTAGON_PORT
 10
16.043591704751631
 20
9.1437780483647373
 30
0.0
 11
16.31091919671216
 21
8.7196828677352975
 31
0.0
  0
LINE
  5
66A
  8
BODY_-_OCTAGON_PORT
 10
16.31091919671216
 20
8.7196828677352975
 30
0.0
 11
16.137942606451261
 21
8.1856370718081166
 31
0.0
  0
LINE
  5
66B
  8
BODY_-_OCTAGON_PORT
 10
16.137942606451261
 20
8.1856370718081166
 30
0.0
 11
16.185117994445989
 21
7.7144202238105697
 31
0.0
  0
LINE
  5
66C
  8
BODY_-_OCTAGON_PORT
 10
16.185117994445989
 20
7.7144202238105697
 30
0.0
 11
15.65046307338004
 21
7.2432033467602777
 31
0.0
  0
LINE
  5
66D
  8
BODY_-_OCTAGON_PORT
 10
15.65046307338004
 20
7.2432033467602777
 30
0.0
 11
15.178708690592069
 21
7.3688611845140564
 31
0.0
  0
LINE
  5
66E
  8
BODY_-_OCTAGON_PORT
 10
15.178708690592069
 20
7.3688611845140564
 30
0.0
 11
14.760553438390829
 21
7.2117888727954593
 31
0.0
  0
LINE
  5
673
  8
BODY_-_OCTAGON_PORT
 10
9.0570040104420144
 20
10.88578572507274
 30
0.0
 11
7.619004010442012
 21
10.88578572507274
 31
0.0
  0
LINE
  5
674
  8
BODY_-_OCTAGON_PORT
 10
9.0570040104420144
 20
7.9477857250727437
 30
0.0
 11
7.619004010442012
 21
7.9477857250727437
 31
0.0
  0
LINE
  5
675
  8
BODY_-_OCTAGON_PORT
 10
6.869004010442012
 20
8.6977857250727446
 30
0.0
 11
6.869004010442012
 21
10.13578572507274
 31
0.0
  0
LINE
  5
676
  8
BODY_-_OCTAGON_PORT
 10
9.8070040104420144
 20
8.6977857250727446
 30
0.0
 11
9.8070040104420144
 21
10.13578572507274
 31
0.0
  0
LINE
  5
677
  8
BODY_-_OCTAGON_PORT
 10
9.8070040104420144
 20
10.13578572507274
 30
0.0
 11
9.0570040104420144
 21
10.88578572507274
 31
0.0
  0
LINE
  5
678
  8
BODY_-_OCTAGON_PORT
 10
7.619004010442012
 20
10.88578572507274
 30
0.0
 11
6.869004010442012
 21
10.13578572507274
 31
0.0
  0
LINE
  5
679
  8
BODY_-_OCTAGON_PORT
 10
6.869004010442012
 20
8.6977857250727446
 30
0.0
 11
7.619004010442012
 21
7.9477857250727437
 31
0.0
  0
LINE
  5
67A
  8
BODY_-_OCTAGON_PORT
 10
9.0570040104420144
 20
7.9477857250727437
 30
0.0
 11
9.8070040104420144
 21
8.6977857250727446
 31
0.0
  0
LINE
  5
67E
  8
BODY_-_OCTAGON_PORT
 10
7.6215990315956361
 20
10.80069950535923
 30
0.0
 11
6.9540902301555292
 21
10.133190703919119
 31
0.0
  0
LINE
  5
67F
  8
BODY_-_OCTAGON_PORT
 10
8.9970040104420121
 20
10.823785725072741
 30
0.0
 11
7.6790040104420143
 21
10.823785725072741
 31
0.0
  0
LINE
  5
685
  8
BODY_-_OCTAGON_PORT
 10
7.6799580047224083
 20
10.68228178318936
 30
0.0
 11
7.0725079523253953
 21
10.074831730792351
 31
0.0
  0
LINE
  5
686
  8
BODY_-_OCTAGON_PORT
 10
8.9353052924932967
 20
10.698785725072741
 30
0.0
 11
7.7407027283907288
 21
10.698785725072741
 31
0.0
  0
LINE
  5
68D
  8
BODY_-_OCTAGON_PORT
 10
7.7089040553932904
 20
10.62354659299311
 30
0.0
 11
7.1312431425216403
 21
10.04588568012147
 31
0.0
  0
LINE
  5
68E
  8
BODY_-_OCTAGON_PORT
 10
8.9047027283907312
 20
10.636785725072739
 30
0.0
 11
7.7713052924932953
 21
10.636785725072739
 31
0.0
  0
LINE
  5
694
  8
BODY_-_OCTAGON_PORT
 10
7.7672630285200617
 20
10.505128870823251
 30
0.0
 11
7.2496608646915064
 21
9.9875267069947
 31
0.0
  0
LINE
  5
695
  8
BODY_-_OCTAGON_PORT
 10
8.8430040104420158
 20
10.511785725072739
 30
0.0
 11
7.8330040104420098
 21
10.511785725072739
 31
0.0
  0
LINE
  5
6A4
  8
BODY_-_OCTAGON_PORT
 10
7.6790040104420143
 20
10.823785725072741
 30
0.0
 11
7.7407027283907288
 21
10.698785725072741
 31
0.0
  0
LINE
  5
6A5
  8
BODY_-_OCTAGON_PORT
 10
7.7713052924932953
 20
10.636785725072739
 30
0.0
 11
7.8330040104420098
 21
10.511785725072739
 31
0.0
  0
LINE
  5
6A6
  8
BODY_-_OCTAGON_PORT
 10
8.9970040104420121
 20
10.823785725072741
 30
0.0
 11
8.9353052924932967
 21
10.698785725072741
 31
0.0
  0
LINE
  5
6A7
  8
BODY_-_OCTAGON_PORT
 10
8.9047027283907312
 20
10.636785725072739
 30
0.0
 11
8.8430040104420158
 21
10.511785725072739
 31
0.0
  0
LINE
  5
6A8
  8
BODY_-_OCTAGON_PORT
 10
9.7450040104420168
 20
10.07578572507275
 30
0.0
 11
9.7450040104420168
 21
8.7577857250727433
 31
0.0
  0
LINE
  5
6A9
  8
BODY_-_OCTAGON_PORT
 10
9.6200040104420168
 20
10.014087007124029
 30
0.0
 11
9.6200040104420168
 21
8.8194844430214623
 31
0.0
  0
LINE
  5
6AA
  8
BODY_-_OCTAGON_PORT
 10
9.5580040104420192
 20
9.9834844430214673
 30
0.0
 11
9.5580040104420192
 21
8.8500870071240278
 31
0.0
  0
LINE
  5
6AB
  8
BODY_-_OCTAGON_PORT
 10
9.4330040104420192
 20
9.9217857250727466
 30
0.0
 11
9.4330040104420192
 21
8.911785725072745
 31
0.0
  0
LINE
  5
6AC
  8
BODY_-_OCTAGON_PORT
 10
9.7450040104420168
 20
8.7577857250727433
 30
0.0
 11
9.6200040104420168
 21
8.8194844430214623
 31
0.0
  0
LINE
  5
6AD
  8
BODY_-_OCTAGON_PORT
 10
9.5580040104420192
 20
8.8500870071240243
 30
0.0
 11
9.4330040104420192
 21
8.911785725072745
 31
0.0
  0
LINE
  5
6AE
  8
BODY_-_OCTAGON_PORT
 10
9.7450040104420168
 20
10.07578572507275
 30
0.0
 11
9.6200040104420168
 21
10.014087007124029
 31
0.0
  0
LINE
  5
6AF
  8
BODY_-_OCTAGON_PORT
 10
9.5580040104420192
 20
9.9834844430214673
 30
0.0
 11
9.4330040104420192
 21
9.9217857250727466
 31
0.0
  0
LINE
  5
6B0
  8
BODY_-_OCTAGON_PORT
 10
6.931004010442023
 20
10.07578572507275
 30
0.0
 11
6.931004010442023
 21
8.7577857250727433
 31
0.0
  0
LINE
  5
6B1
  8
BODY_-_OCTAGON_PORT
 10
7.056004010442023
 20
10.014087007124029
 30
0.0
 11
7.056004010442023
 21
8.8194844430214623
 31
0.0
  0
LINE
  5
6B2
  8
BODY_-_OCTAGON_PORT
 10
7.1180040104420206
 20
9.9834844430214673
 30
0.0
 11
7.1180040104420206
 21
8.8500870071240278
 31
0.0
  0
LINE
  5
6B3
  8
BODY_-_OCTAGON_PORT
 10
7.2430040104420206
 20
9.9217857250727466
 30
0.0
 11
7.2430040104420206
 21
8.911785725072745
 31
0.0
  0
LINE
  5
6B4
  8
BODY_-_OCTAGON_PORT
 10
6.931004010442023
 20
8.7577857250727433
 30
0.0
 11
7.056004010442023
 21
8.8194844430214623
 31
0.0
  0
LINE
  5
6B5
  8
BODY_-_OCTAGON_PORT
 10
7.1180040104420206
 20
8.8500870071240243
 30
0.0
 11
7.2430040104420206
 21
8.911785725072745
 31
0.0
  0
LINE
  5
6B6
  8
BODY_-_OCTAGON_PORT
 10
6.931004010442023
 20
10.07578572507275
 30
0.0
 11
7.056004010442023
 21
10.014087007124029
 31
0.0
  0
LINE
  5
6B7
  8
BODY_-_OCTAGON_PORT
 10
7.1180040104420206
 20
9.9834844430214673
 30
0.0
 11
7.2430040104420206
 21
9.9217857250727466
 31
0.0
  0
LINE
  5
6B8
  8
BODY_-_OCTAGON_PORT
 10
8.9970040104420121
 20
8.0097857250727458
 30
0.0
 11
7.6790040104420143
 21
8.0097857250727458
 31
0.0
  0
LINE
  5
6B9
  8
BODY_-_OCTAGON_PORT
 10
8.9353052924932967
 20
8.1347857250727458
 30
0.0
 11
7.7407027283907288
 21
8.1347857250727476
 31
0.0
  0
LINE
  5
6BA
  8
BODY_-_OCTAGON_PORT
 10
8.9047027283907312
 20
8.1967857250727452
 30
0.0
 11
7.7713052924932953
 21
8.1967857250727452
 31
0.0
  0
LINE
  5
6BB
  8
BODY_-_OCTAGON_PORT
 10
8.8430040104420158
 20
8.3217857250727487
 30
0.0
 11
7.8330040104420098
 21
8.3217857250727452
 31
0.0
  0
LINE
  5
6BC
  8
BODY_-_OCTAGON_PORT
 10
7.6790040104420143
 20
8.0097857250727458
 30
0.0
 11
7.7407027283907288
 21
8.1347857250727476
 31
0.0
  0
LINE
  5
6BD
  8
BODY_-_OCTAGON_PORT
 10
7.7713052924932953
 20
8.1967857250727452
 30
0.0
 11
7.8330040104420098
 21
8.3217857250727452
 31
0.0
  0
LINE
  5
6BE
  8
BODY_-_OCTAGON_PORT
 10
8.9970040104420121
 20
8.0097857250727458
 30
0.0
 11
8.9353052924932967
 21
8.1347857250727458
 31
0.0
  0
LINE
  5
6BF
  8
BODY_-_OCTAGON_PORT
 10
8.9047027283907312
 20
8.1967857250727452
 30
0.0
 11
8.8430040104420158
 21
8.3217857250727487
 31
0.0
  0
LINE
  5
6C6
  8
BODY_-_OCTAGON_PORT
 10
7.2496608646915064
 20
9.9875267069947
 30
0.0
 11
7.1312431425216403
 21
10.04588568012147
 31
0.0
  0
LINE
  5
6C7
  8
BODY_-_OCTAGON_PORT
 10
7.7672630285200617
 20
10.505128870823251
 30
0.0
 11
7.7089040553932904
 21
10.62354659299311
 31
0.0
  0
LINE
  5
6C8
  8
BODY_-_OCTAGON_PORT
 10
7.0725079523253953
 20
10.074831730792351
 30
0.0
 11
6.9540902301555292
 21
10.133190703919119
 31
0.0
  0
LINE
  5
6C9
  8
BODY_-_OCTAGON_PORT
 10
7.6799580047224083
 20
10.68228178318936
 30
0.0
 11
7.6215990315956361
 21
10.80069950535923
 31
0.0
  0
LINE
  5
6CA
  8
BODY_-_OCTAGON_PORT
 10
9.0544089892884045
 20
10.80069950535923
 30
0.0
 11
9.7219177907284973
 21
10.133190703919119
 31
0.0
  0
LINE
  5
6CB
  8
BODY_-_OCTAGON_PORT
 10
8.9960500161616324
 20
10.68228178318936
 30
0.0
 11
9.6035000685586454
 21
10.074831730792351
 31
0.0
  0
LINE
  5
6CC
  8
BODY_-_OCTAGON_PORT
 10
8.9671039654907503
 20
10.62354659299311
 30
0.0
 11
9.5447648783623862
 21
10.04588568012147
 31
0.0
  0
LINE
  5
6CD
  8
BODY_-_OCTAGON_PORT
 10
8.9087449923639781
 20
10.505128870823251
 30
0.0
 11
9.4263471561925201
 21
9.9875267069947
 31
0.0
  0
LINE
  5
6CE
  8
BODY_-_OCTAGON_PORT
 10
9.4263471561925201
 20
9.9875267069947
 30
0.0
 11
9.5447648783623862
 21
10.04588568012147
 31
0.0
  0
LINE
  5
6CF
  8
BODY_-_OCTAGON_PORT
 10
9.6035000685586454
 20
10.074831730792351
 30
0.0
 11
9.7219177907284973
 21
10.133190703919119
 31
0.0
  0
LINE
  5
6D0
  8
BODY_-_OCTAGON_PORT
 10
8.9087449923639781
 20
10.505128870823251
 30
0.0
 11
8.9671039654907503
 21
10.62354659299311
 31
0.0
  0
LINE
  5
6D1
  8
BODY_-_OCTAGON_PORT
 10
8.9960500161616324
 20
10.68228178318936
 30
0.0
 11
9.0544089892884045
 21
10.80069950535923
 31
0.0
  0
LINE
  5
6D2
  8
BODY_-_OCTAGON_PORT
 10
7.6215990315956361
 20
8.0328719447862582
 30
0.0
 11
6.9540902301555292
 21
8.7003807462263651
 31
0.0
  0
LINE
  5
6D3
  8
BODY_-_OCTAGON_PORT
 10
7.6799580047224083
 20
8.1512896669561243
 30
0.0
 11
7.0725079523253953
 21
8.7587397193531391
 31
0.0
  0
LINE
  5
6D4
  8
BODY_-_OCTAGON_PORT
 10
7.7089040553932904
 20
8.2100248571523764
 30
0.0
 11
7.1312431425216403
 21
8.7876857700240194
 31
0.0
  0
LINE
  5
6D5
  8
BODY_-_OCTAGON_PORT
 10
7.7672630285200617
 20
8.3284425793222372
 30
0.0
 11
7.2496608646915064
 21
8.8460447431507916
 31
0.0
  0
LINE
  5
6D6
  8
BODY_-_OCTAGON_PORT
 10
7.2496608646915064
 20
8.8460447431507916
 30
0.0
 11
7.1312431425216403
 21
8.7876857700240194
 31
0.0
  0
LINE
  5
6D7
  8
BODY_-_OCTAGON_PORT
 10
7.0725079523253953
 20
8.7587397193531409
 30
0.0
 11
6.9540902301555292
 21
8.7003807462263651
 31
0.0
  0
LINE
  5
6D8
  8
BODY_-_OCTAGON_PORT
 10
7.7672630285200617
 20
8.3284425793222372
 30
0.0
 11
7.7089040553932904
 21
8.2100248571523764
 31
0.0
  0
LINE
  5
6D9
  8
BODY_-_OCTAGON_PORT
 10
7.6799580047224083
 20
8.1512896669561243
 30
0.0
 11
7.6215990315956361
 21
8.0328719447862582
 31
0.0
  0
LINE
  5
6DA
  8
BODY_-_OCTAGON_PORT
 10
9.0544089892884045
 20
8.0328719447862582
 30
0.0
 11
9.7219177907284973
 21
8.7003807462263651
 31
0.0
  0
LINE
  5
6DB
  8
BODY_-_OCTAGON_PORT
 10
8.9960500161616324
 20
8.1512896669561243
 30
0.0
 11
9.6035000685586454
 21
8.7587397193531391
 31
0.0
  0
LINE
  5
6DC
  8
BODY_-_OCTAGON_PORT
 10
8.9671039654907503
 20
8.2100248571523764
 30
0.0
 11
9.5447648783623862
 21
8.7876857700240194
 31
0.0
  0
LINE
  5
6DD
  8
BODY_-_OCTAGON_PORT
 10
8.9087449923639781
 20
8.3284425793222372
 30
0.0
 11
9.4263471561925201
 21
8.8460447431507916
 31
0.0
  0
LINE
  5
6DE
  8
BODY_-_OCTAGON_PORT
 10
9.4263471561925201
 20
8.8460447431507916
 30
0.0
 11
9.5447648783623862
 21
8.7876857700240194
 31
0.0
  0
LINE
  5
6DF
  8
BODY_-_OCTAGON_PORT
 10
9.6035000685586454
 20
8.7587397193531409
 30
0.0
 11
9.7219177907284973
 21
8.7003807462263651
 31
0.0
  0
LINE
  5
6E0
  8
BODY_-_OCTAGON_PORT
 10
8.9087449923639781
 20
8.3284425793222372
 30
0.0
 11
8.9671039654907503
 21
8.2100248571523764
 31
0.0
  0
LINE
  5
6E1
  8
BODY_-_OCTAGON_PORT
 10
8.9960500161616324
 20
8.1512896669561243
 30
0.0
 11
9.0544089892884045
 21
8.0328719447862582
 31
0.0
  0
LINE
  5
70F
  8
DIMENSIONS
 10
9.0570040104420144
 20
10.94828572507274
 30
0.0
 11
9.0570040104420144
 21
13.948285725072751
 31
0.0
  0
LINE
  5
710
  8
DIMENSIONS
 10
7.619004010442012
 20
10.94828572507274
 30
0.0
 11
7.619004010442012
 21
13.948285725072751
 31
0.0
  0
LINE
  5
711
  8
DIMENSIONS
 10
9.3070040104420144
 20
13.885785725072751
 30
0.0
 11
9.5570040104420144
 21
13.885785725072751
 31
0.0
  0
LINE
  5
712
  8
DIMENSIONS
 10
7.369004010442012
 20
13.885785725072751
 30
0.0
 11
7.119004010442012
 21
13.885785725072751
 31
0.0
  0
SOLID
  5
713
  8
DIMENSIONS
 10
9.3070040104420144
 20
13.92745239173941
 30
0.0
 11
9.3070040104420144
 21
13.844119058406079
 31
0.0
 12
9.0570040104420144
 22
13.885785725072751
 32
0.0
 13
9.0570040104420144
 23
13.885785725072751
 33
0.0
  0
SOLID
  5
714
  8
DIMENSIONS
 10
7.369004010442012
 20
13.92745239173941
 30
0.0
 11
7.369004010442012
 21
13.844119058406079
 31
0.0
 12
7.619004010442012
 22
13.885785725072751
 32
0.0
 13
7.619004010442012
 23
13.885785725072751
 33
0.0
  0
LINE
  5
716
  8
DIMENSIONS
 10
8.9970040104420121
 20
10.886285725072741
 30
0.0
 11
8.9970040104420121
 21
12.948285725072751
 31
0.0
  0
LINE
  5
717
  8
DIMENSIONS
 10
7.6790040104420143
 20
10.886285725072741
 30
0.0
 11
7.6790040104420143
 21
12.948285725072751
 31
0.0
  0
LINE
  5
718
  8
DIMENSIONS
 10
9.2470040104420121
 20
12.88578572507274
 30
0.0
 11
9.4970040104420121
 21
12.88578572507274
 31
0.0
  0
LINE
  5
719
  8
DIMENSIONS
 10
7.4290040104420143
 20
12.88578572507274
 30
0.0
 11
7.1790040104420143
 21
12.88578572507274
 31
0.0
  0
SOLID
  5
71A
  8
DIMENSIONS
 10
9.2470040104420121
 20
12.92745239173941
 30
0.0
 11
9.2470040104420121
 21
12.844119058406079
 31
0.0
 12
8.9970040104420121
 22
12.88578572507274
 32
0.0
 13
8.9970040104420121
 23
12.88578572507274
 33
0.0
  0
SOLID
  5
71B
  8
DIMENSIONS
 10
7.4290040104420143
 20
12.92745239173941
 30
0.0
 11
7.4290040104420143
 21
12.844119058406079
 31
0.0
 12
7.6790040104420143
 22
12.88578572507274
 32
0.0
 13
7.6790040104420143
 23
12.88578572507274
 33
0.0
  0
LINE
  5
71D
  8
DIMENSIONS
 10
8.8430040104420158
 20
10.574285725072739
 30
0.0
 11
8.8430040104420158
 21
11.94828572507274
 31
0.0
  0
LINE
  5
71E
  8
DIMENSIONS
 10
7.8330040104420098
 20
10.574285725072739
 30
0.0
 11
7.8330040104420098
 21
11.94828572507274
 31
0.0
  0
LINE
  5
71F
  8
DIMENSIONS
 10
9.0930040104420158
 20
11.88578572507274
 30
0.0
 11
9.3430040104420158
 21
11.88578572507274
 31
0.0
  0
LINE
  5
720
  8
DIMENSIONS
 10
7.5830040104420098
 20
11.88578572507274
 30
0.0
 11
7.3330040104420098
 21
11.88578572507274
 31
0.0
  0
SOLID
  5
721
  8
DIMENSIONS
 10
9.0930040104420158
 20
11.92745239173941
 30
0.0
 11
9.0930040104420158
 21
11.844119058406079
 31
0.0
 12
8.8430040104420158
 22
11.88578572507274
 32
0.0
 13
8.8430040104420158
 23
11.88578572507274
 33
0.0
  0
SOLID
  5
722
  8
DIMENSIONS
 10
7.5830040104420098
 20
11.92745239173941
 30
0.0
 11
7.5830040104420098
 21
11.844119058406079
 31
0.0
 12
7.8330040104420098
 22
11.88578572507274
 32
0.0
 13
7.8330040104420098
 23
11.88578572507274
 33
0.0
  0
TEXT
  5
724
  8
DIMENSIONS
 10
7.8618135342515378
 20
13.760785725072751
 30
0.0
 40
0.25
  1
1.438
  0
TEXT
  5
725
  8
DIMENSIONS
 10
7.8856230580610713
 20
12.76078572507274
 30
0.0
 40
0.25
  1
1.318
  0
TEXT
  5
726
  8
DIMENSIONS
 10
7.8873671730479478
 20
11.76078572507274
 30
0.0
 40
0.25
  1
1.010
  0
LINE
  5
756
  8
DIMENSIONS
 10
7.5748098366178587
 20
10.929979898896899
 30
0.0
 11
5.4534894930582141
 21
13.05130024245655
 31
0.0
  0
LINE
  5
757
  8
DIMENSIONS
 10
6.8248098366178587
 20
10.179979898896899
 30
0.0
 11
4.7034894930582141
 21
12.30130024245655
 31
0.0
  0
LINE
  5
758
  8
DIMENSIONS
 10
5.6744603621790191
 20
13.183882763929031
 30
0.0
 11
5.8512370574756432
 21
13.36065945922566
 31
0.0
  0
LINE
  5
759
  8
DIMENSIONS
 10
4.5709069715857353
 20
12.080329373335751
 30
0.0
 11
4.3941302762891041
 21
11.903552678039111
 31
0.0
  0
SOLID
  5
75A
  8
DIMENSIONS
 10
5.6449975796295737
 20
13.21334554647847
 30
0.0
 11
5.7039231447284493
 21
13.15441998137959
 31
0.0
 12
5.4976836668823799
 22
13.007106068632391
 32
0.0
 13
5.4976836668823799
 23
13.007106068632391
 33
0.0
  0
SOLID
  5
75B
  8
DIMENSIONS
 10
4.5414441890362971
 20
12.10979215588519
 30
0.0
 11
4.6003697541351718
 21
12.05086659078631
 31
0.0
 12
4.7476836668823728
 22
12.257106068632391
 32
0.0
 13
4.7476836668823728
 23
12.257106068632391
 33
0.0
  0
LINE
  5
75D
  8
DIMENSIONS
 10
7.5774048577714694
 20
10.844893679183389
 30
0.0
 11
6.1193506749648057
 21
12.302947861990051
 31
0.0
  0
LINE
  5
75E
  8
DIMENSIONS
 10
6.9098960563313758
 20
10.177384877743281
 30
0.0
 11
5.4518418735247129
 21
11.63543906054994
 31
0.0
  0
LINE
  5
75F
  8
DIMENSIONS
 10
6.3403215440856107
 20
12.435530383462529
 30
0.0
 11
6.517098239382249
 21
12.61230707875916
 31
0.0
  0
LINE
  5
760
  8
DIMENSIONS
 10
5.3192593520522271
 20
11.414468191429149
 30
0.0
 11
5.1424826567555959
 21
11.237691496132509
 31
0.0
  0
LINE
  5
761
  8
DIMENSIONS
 10
5.1424826567555959
 20
11.237691496132509
 30
0.0
 11
4.8924826567555959
 21
11.237691496132509
 31
0.0
  0
SOLID
  5
762
  8
DIMENSIONS
 10
6.3108587615361671
 20
12.46499316601197
 30
0.0
 11
6.3697843266350409
 21
12.40606760091309
 31
0.0
 12
6.1635448487889732
 22
12.258753688165889
 32
0.0
 13
6.1635448487889732
 23
12.258753688165889
 33
0.0
  0
SOLID
  5
763
  8
DIMENSIONS
 10
5.2897965695027969
 20
11.44393097397859
 30
0.0
 11
5.3487221346016716
 21
11.38500540887971
 31
0.0
 12
5.4960360473488663
 22
11.591244886725789
 32
0.0
 13
5.4960360473488663
 23
11.591244886725789
 33
0.0
  0
LINE
  5
765
  8
DIMENSIONS
 10
7.7230688546959101
 20
10.54932304464741
 30
0.0
 11
6.7515041373455906
 21
11.520887761997731
 31
0.0
  0
LINE
  5
766
  8
DIMENSIONS
 10
7.205466690867353
 20
10.031720880818851
 30
0.0
 11
6.2339019735170353
 21
11.003285598169169
 31
0.0
  0
LINE
  5
767
  8
DIMENSIONS
 10
6.9724750064663823
 20
11.653470283470201
 30
0.0
 11
7.1492517017630197
 21
11.830246978766841
 31
0.0
  0
LINE
  5
768
  8
DIMENSIONS
 10
6.1013194520445486
 20
10.78231472904838
 30
0.0
 11
5.9245427567479112
 21
10.60553803375174
 31
0.0
  0
LINE
  5
769
  8
DIMENSIONS
 10
5.9245427567479112
 20
10.60553803375174
 30
0.0
 11
5.6745427567479112
 21
10.60553803375174
 31
0.0
  0
SOLID
  5
76A
  8
DIMENSIONS
 10
6.943012223916937
 20
11.68293306601964
 30
0.0
 11
7.0019377890158259
 21
11.62400750092076
 31
0.0
 12
6.7956983111697431
 22
11.476693588173569
 32
0.0
 13
6.7956983111697431
 23
11.476693588173569
 33
0.0
  0
SOLID
  5
76B
  8
DIMENSIONS
 10
6.0718566694951193
 20
10.811777511597811
 30
0.0
 11
6.1307822345939931
 21
10.752851946498939
 31
0.0
 12
6.2780961473411869
 22
10.95909142434501
 32
0.0
 13
6.2780961473411869
 23
10.95909142434501
 33
0.0
  0
TEXT
  5
76D
  8
DIMENSIONS
 10
4.5495845386461014
 20
12.75762049466041
 30
0.0
 40
0.25
  1
1.061
  0
TEXT
  5
76E
  8
DIMENSIONS
 10
3.81807789485083
 20
11.112691496132509
 30
0.0
 40
0.25
  1
0.944
  0
TEXT
  5
76F
  8
DIMENSIONS
 10
4.6120427567479183
 20
10.48053803375174
 30
0.0
 40
0.25
  1
0.732
  0
LINE
  5
77F
  8
DIMENSIONS
 10
9.1195040104420144
 20
10.88578572507274
 30
0.0
 11
10.869504010442011
 21
10.88578572507274
 31
0.0
  0
LINE
  5
780
  8
DIMENSIONS
 10
9.1195040104420144
 20
7.9477857250727437
 30
0.0
 11
10.869504010442011
 21
7.9477857250727437
 31
0.0
  0
LINE
  5
781
  8
DIMENSIONS
 10
10.807004010442011
 20
10.63578572507274
 30
0.0
 11
10.807004010442011
 21
9.8242136764479575
 31
0.0
  0
LINE
  5
782
  8
DIMENSIONS
 10
10.807004010442011
 20
8.1977857250727446
 30
0.0
 11
10.807004010442011
 21
8.9332950056110612
 31
0.0
  0
SOLID
  5
783
  8
DIMENSIONS
 10
10.765337343775339
 20
10.63578572507274
 30
0.0
 11
10.84867067710868
 21
10.63578572507274
 31
0.0
 12
10.807004010442011
 22
10.88578572507274
 32
0.0
 13
10.807004010442011
 23
10.88578572507274
 33
0.0
  0
SOLID
  5
784
  8
DIMENSIONS
 10
10.765337343775339
 20
8.1977857250727446
 30
0.0
 11
10.84867067710868
 21
8.1977857250727446
 31
0.0
 12
10.807004010442011
 22
7.9477857250727437
 32
0.0
 13
10.807004010442011
 23
7.9477857250727437
 33
0.0
  0
TEXT
  5
786
  8
DIMENSIONS
 10
10.307004010442011
 20
9.4546418698595591
 30
0.0
 40
0.25
  1
2.938
  0
LINE
  5
796
  8
DIMENSIONS
 10
9.0570040104420144
 20
7.8852857250727437
 30
0.0
 11
9.0570040104420144
 21
6.8852857250727437
 31
0.0
  0
LINE
  5
797
  8
DIMENSIONS
 10
9.8070040104420144
 20
8.6352857250727446
 30
0.0
 11
9.8070040104420144
 21
6.8852857250727437
 31
0.0
  0
LINE
  5
798
  8
DIMENSIONS
 10
8.8070040104420144
 20
6.9477857250727437
 30
0.0
 11
8.5570040104420144
 21
6.9477857250727437
 31
0.0
  0
LINE
  5
799
  8
DIMENSIONS
 10
10.057004010442011
 20
6.9477857250727437
 30
0.0
 11
10.307004010442011
 21
6.9477857250727437
 31
0.0
  0
SOLID
  5
79A
  8
DIMENSIONS
 10
8.8070040104420144
 20
6.9894523917394116
 30
0.0
 11
8.8070040104420144
 21
6.9061190584060776
 31
0.0
 12
9.0570040104420144
 22
6.9477857250727437
 32
0.0
 13
9.0570040104420144
 23
6.9477857250727437
 33
0.0
  0
SOLID
  5
79B
  8
DIMENSIONS
 10
10.057004010442011
 20
6.9894523917394116
 30
0.0
 11
10.057004010442011
 21
6.9061190584060776
 31
0.0
 12
9.8070040104420144
 22
6.9477857250727437
 32
0.0
 13
9.8070040104420144
 23
6.9477857250727437
 33
0.0
  0
TEXT
  5
79D
  8
DIMENSIONS
 10
10.369504010442011
 20
6.8227857250727437
 30
0.0
 40
0.25
  1
0.750
  0
LINE
  5
7C3
  8
DIMENSIONS
 10
15.160053438390831
 20
10.04178572507274
 30
0.0
 11
13.698053438390829
 21
10.04178572507274
 31
0.0
  0
LINE
  5
7C4
  8
DIMENSIONS
 10
15.160053438390831
 20
8.7917857250727458
 30
0.0
 11
13.698053438390829
 21
8.7917857250727458
 31
0.0
  0
LINE
  5
7C5
  8
DIMENSIONS
 10
13.760553438390829
 20
9.7917857250727458
 30
0.0
 11
13.760553438390829
 21
9.6042857250727458
 31
0.0
  0
LINE
  5
7C6
  8
DIMENSIONS
 10
13.760553438390829
 20
9.0417857250727458
 30
0.0
 11
13.760553438390829
 21
9.2292857250727458
 31
0.0
  0
SOLID
  5
7C7
  8
DIMENSIONS
 10
13.71888677172416
 20
9.7917857250727458
 30
0.0
 11
13.802220105057501
 21
9.7917857250727458
 31
0.0
 12
13.760553438390829
 22
10.04178572507274
 32
0.0
 13
13.760553438390829
 23
10.04178572507274
 33
0.0
  0
SOLID
  5
7C8
  8
DIMENSIONS
 10
13.71888677172416
 20
9.0417857250727458
 30
0.0
 11
13.802220105057501
 21
9.0417857250727458
 31
0.0
 12
13.760553438390829
 22
8.7917857250727458
 32
0.0
 13
13.760553438390829
 23
8.7917857250727458
 33
0.0
  0
TEXT
  5
7CB
  8
DIMENSIONS
 10
13.143487036461959
 20
9.2917857250727476
 30
0.0
 40
0.25
  1
%%C1.250
  0
LINE
  5
7DA
  8
DIMENSIONS
 10
15.88505343839083
 20
10.166785725072749
 30
0.0
 11
17.131859554156719
 21
10.166785725072749
 31
0.0
  0
LINE
  5
7DB
  8
DIMENSIONS
 10
15.88505343839083
 20
8.6667857250727458
 30
0.0
 11
17.131859554156719
 21
8.6667857250727458
 31
0.0
  0
LINE
  5
7DC
  8
DIMENSIONS
 10
17.069359554156719
 20
9.9167857250727494
 30
0.0
 11
17.069359554156719
 21
9.6042857250727458
 31
0.0
  0
LINE
  5
7DD
  8
DIMENSIONS
 10
17.069359554156719
 20
8.9167857250727458
 30
0.0
 11
17.069359554156719
 21
9.2292857250727458
 31
0.0
  0
SOLID
  5
7DE
  8
DIMENSIONS
 10
17.027692887490051
 20
9.9167857250727494
 30
0.0
 11
17.111026220823369
 21
9.9167857250727494
 31
0.0
 12
17.069359554156719
 22
10.166785725072749
 32
0.0
 13
17.069359554156719
 23
10.166785725072749
 33
0.0
  0
SOLID
  5
7DF
  8
DIMENSIONS
 10
17.027692887490051
 20
8.9167857250727458
 30
0.0
 11
17.111026220823369
 21
8.9167857250727458
 31
0.0
 12
17.069359554156719
 22
8.6667857250727458
 32
0.0
 13
17.069359554156719
 23
8.6667857250727458
 33
0.0
  0
TEXT
  5
7E1
  8
DIMENSIONS
 10
16.471628855866001
 20
9.2917857250727494
 30
0.0
 40
0.25
  1
%%C1.500, 2X
  0
LINE
  5
7F0
  8
DIMENSIONS
 10
9.2130040104420203
 20
3.5811358800277029
 30
0.0
 11
9.2130040104420203
 21
4.909827439389292
 31
0.0
  0
LINE
  5
7F1
  8
DIMENSIONS
 10
7.4630040104420203
 20
3.5811358800277029
 30
0.0
 11
7.4630040104420203
 21
4.909827439389292
 31
0.0
  0
LINE
  5
7F2
  8
DIMENSIONS
 10
7.2130040104420203
 20
4.847327439389292
 30
0.0
 11
6.9367985326747714
 21
4.847327439389292
 31
0.0
  0
LINE
  5
7F3
  8
DIMENSIONS
 10
9.4630040104420203
 20
4.847327439389292
 30
0.0
 11
9.6880834556779831
 21
4.847327439389292
 31
0.0
  0
SOLID
  5
7F4
  8
DIMENSIONS
 10
7.2130040104420203
 20
4.8889941060559581
 30
0.0
 11
7.2130040104420203
 21
4.8056607727226259
 31
0.0
 12
7.4630040104420203
 22
4.847327439389292
 32
0.0
 13
7.4630040104420203
 23
4.847327439389292
 33
0.0
  0
SOLID
  5
7F5
  8
DIMENSIONS
 10
9.4630040104420203
 20
4.8889941060559581
 30
0.0
 11
9.4630040104420203
 21
4.8056607727226259
 31
0.0
 12
9.2130040104420203
 22
4.847327439389292
 32
0.0
 13
9.2130040104420203
 23
4.847327439389292
 33
0.0
  0
TEXT
  5
7F7
  8
DIMENSIONS
 10
7.7011323821958371
 20
4.722327439389292
 30
0.0
 40
0.25
  1
%%c1.750
  0
LINE
  5
822
  8
DIMENSIONS
 10
15.347553438390831
 20
10.22928572507274
 30
0.0
 11
15.347553438390831
 21
13.948285725072751
 31
0.0
  0
LINE
  5
823
  8
DIMENSIONS
 10
15.472553438390831
 20
10.35428572507274
 30
0.0
 11
15.472553438390831
 21
13.948285725072751
 31
0.0
  0
LINE
  5
824
  8
DIMENSIONS
 10
15.097553438390831
 20
13.885785725072751
 30
0.0
 11
14.847553438390831
 21
13.885785725072751
 31
0.0
  0
LINE
  5
825
  8
DIMENSIONS
 10
15.722553438390831
 20
13.885785725072751
 30
0.0
 11
15.972553438390831
 21
13.885785725072751
 31
0.0
  0
SOLID
  5
826
  8
DIMENSIONS
 10
15.097553438390831
 20
13.92745239173941
 30
0.0
 11
15.097553438390831
 21
13.844119058406079
 31
0.0
 12
15.347553438390831
 22
13.885785725072751
 32
0.0
 13
15.347553438390831
 23
13.885785725072751
 33
0.0
  0
SOLID
  5
827
  8
DIMENSIONS
 10
15.722553438390831
 20
13.92745239173941
 30
0.0
 11
15.722553438390831
 21
13.844119058406079
 31
0.0
 12
15.472553438390831
 22
13.885785725072751
 32
0.0
 13
15.472553438390831
 23
13.885785725072751
 33
0.0
  0
LINE
  5
829
  8
DIMENSIONS
 10
15.472553438390831
 20
10.35428572507274
 30
0.0
 11
15.472553438390831
 21
12.948285725072751
 31
0.0
  0
LINE
  5
82A
  8
DIMENSIONS
 10
15.722553438390831
 20
10.35428572507274
 30
0.0
 11
15.722553438390831
 21
12.948285725072751
 31
0.0
  0
LINE
  5
82B
  8
DIMENSIONS
 10
15.222553438390831
 20
12.88578572507274
 30
0.0
 11
14.972553438390831
 21
12.88578572507274
 31
0.0
  0
LINE
  5
82C
  8
DIMENSIONS
 10
15.972553438390831
 20
12.88578572507274
 30
0.0
 11
16.222553438390829
 21
12.88578572507274
 31
0.0
  0
SOLID
  5
82D
  8
DIMENSIONS
 10
15.222553438390831
 20
12.92745239173941
 30
0.0
 11
15.222553438390831
 21
12.844119058406079
 31
0.0
 12
15.472553438390831
 22
12.88578572507274
 32
0.0
 13
15.472553438390831
 23
12.88578572507274
 33
0.0
  0
SOLID
  5
82E
  8
DIMENSIONS
 10
15.972553438390831
 20
12.92745239173941
 30
0.0
 11
15.972553438390831
 21
12.844119058406079
 31
0.0
 12
15.722553438390831
 22
12.88578572507274
 32
0.0
 13
15.722553438390831
 23
12.88578572507274
 33
0.0
  0
LINE
  5
830
  8
DIMENSIONS
 10
15.722553438390831
 20
10.35428572507274
 30
0.0
 11
15.722553438390831
 21
11.94828572507274
 31
0.0
  0
LINE
  5
831
  8
DIMENSIONS
 10
15.82255343839082
 20
10.94828572507274
 30
0.0
 11
15.82255343839082
 21
11.94828572507274
 31
0.0
  0
LINE
  5
832
  8
DIMENSIONS
 10
15.472553438390831
 20
11.88578572507274
 30
0.0
 11
15.222553438390831
 21
11.88578572507274
 31
0.0
  0
LINE
  5
833
  8
DIMENSIONS
 10
16.07255343839083
 20
11.88578572507274
 30
0.0
 11
16.32255343839083
 21
11.88578572507274
 31
0.0
  0
SOLID
  5
834
  8
DIMENSIONS
 10
15.472553438390831
 20
11.92745239173941
 30
0.0
 11
15.472553438390831
 21
11.844119058406079
 31
0.0
 12
15.722553438390831
 22
11.88578572507274
 32
0.0
 13
15.722553438390831
 23
11.88578572507274
 33
0.0
  0
SOLID
  5
835
  8
DIMENSIONS
 10
16.07255343839083
 20
11.92745239173941
 30
0.0
 11
16.07255343839083
 21
11.844119058406079
 31
0.0
 12
15.82255343839082
 22
11.88578572507274
 32
0.0
 13
15.82255343839082
 23
11.88578572507274
 33
0.0
  0
TEXT
  5
837
  8
DIMENSIONS
 10
16.035053438390829
 20
13.760785725072751
 30
0.0
 40
0.25
  1
0.125, 2X
  0
TEXT
  5
838
  8
DIMENSIONS
 10
16.285053438390829
 20
12.76078572507274
 30
0.0
 40
0.25
  1
0.250
  0
TEXT
  5
839
  8
DIMENSIONS
 10
16.38505343839083
 20
11.76078572507274
 30
0.0
 40
0.25
  1
0.100
  0
LINE
  5
848
  8
DIMENSIONS
 10
15.82255343839082
 20
7.8852857250727437
 30
0.0
 11
15.82255343839082
 21
6.8852857250727437
 31
0.0
  0
LINE
  5
849
  8
DIMENSIONS
 10
14.760553438390829
 20
7.1492888727954593
 30
0.0
 11
14.760553438390829
 21
6.8852857250727437
 31
0.0
  0
LINE
  5
84A
  8
DIMENSIONS
 10
16.07255343839083
 20
6.9477857250727437
 30
0.0
 11
16.32255343839083
 21
6.9477857250727437
 31
0.0
  0
LINE
  5
84B
  8
DIMENSIONS
 10
14.510553438390829
 20
6.9477857250727437
 30
0.0
 11
14.260553438390829
 21
6.9477857250727437
 31
0.0
  0
SOLID
  5
84C
  8
DIMENSIONS
 10
16.07255343839083
 20
6.9894523917394116
 30
0.0
 11
16.07255343839083
 21
6.9061190584060776
 31
0.0
 12
15.82255343839082
 22
6.9477857250727437
 32
0.0
 13
15.82255343839082
 23
6.9477857250727437
 33
0.0
  0
SOLID
  5
84D
  8
DIMENSIONS
 10
14.510553438390829
 20
6.9894523917394116
 30
0.0
 11
14.510553438390829
 21
6.9061190584060776
 31
0.0
 12
14.760553438390829
 22
6.9477857250727437
 32
0.0
 13
14.760553438390829
 23
6.9477857250727437
 33
0.0
  0
TEXT
  5
84F
  8
DIMENSIONS
 10
13.24567248600988
 20
6.8227857250727437
 30
0.0
 40
0.25
  1
1.062
  0
LINE
  5
85E
  8
DIMENSIONS
 10
9.8695040104420144
 20
3.168635880027705
 30
0.0
 11
12.45819695508219
 21
3.168635880027705
 31
0.0
  0
LINE
  5
85F
  8
DIMENSIONS
 10
9.0255040104420203
 20
3.7686358800277029
 30
0.0
 11
12.45819695508219
 21
3.768635880027702
 31
0.0
  0
LINE
  5
860
  8
DIMENSIONS
 10
12.39569695508218
 20
2.918635880027705
 30
0.0
 11
12.39569695508218
 21
2.668635880027705
 31
0.0
  0
LINE
  5
861
  8
DIMENSIONS
 10
12.39569695508218
 20
4.018635880027702
 30
0.0
 11
12.39569695508218
 21
4.268635880027702
 31
0.0
  0
SOLID
  5
862
  8
DIMENSIONS
 10
12.35403028841551
 20
2.918635880027705
 30
0.0
 11
12.43736362174884
 21
2.918635880027705
 31
0.0
 12
12.39569695508218
 22
3.168635880027705
 32
0.0
 13
12.39569695508218
 23
3.168635880027705
 33
0.0
  0
SOLID
  5
863
  8
DIMENSIONS
 10
12.35403028841551
 20
4.018635880027702
 30
0.0
 11
12.43736362174884
 21
4.018635880027702
 31
0.0
 12
12.39569695508218
 22
3.768635880027702
 32
0.0
 13
12.39569695508218
 23
3.768635880027702
 33
0.0
  0
TEXT
  5
865
  8
DIMENSIONS
 10
11.89569695508218
 20
3.3436358800277048
 30
0.0
 40
0.25
  1
0.600
  0
ARC
  5
87F
  8
BODY_-_OCTAGON_PORT
 10
8.3380040104420203
 20
-4.8563641199722936
 30
0.0
 40
9.0869999999999997
 50
72.913260633911804
 51
107.0867393660882
  0
LINE
  5
882
  8
DIMENSIONS
 10
6.7095305028415728
 20
2.0744210981194469
 30
0.0
 11
6.058001942408338
 21
4.847327439389292
 31
0.0
  0
LINE
  5
884
  8
DIMENSIONS
 10
6.058001942408338
 20
4.847327439389292
 30
0.0
 11
5.808001942408338
 21
4.847327439389292
 31
0.0
  0
TEXT
  5
885
  8
DIMENSIONS
 10
3.0842058938550281
 20
4.722327439389292
 30
0.0
 40
0.25
  1
BODY %%c18.174
  0
SOLID
  5
886
  8
DIMENSIONS
 10
6.2784736665593348
 20
3.7369940120160918
 30
0.0
 11
6.359417262553265
 21
3.7568076111847359
 31
0.0
 12
6.259504667050364
 22
3.989731599582206
 32
0.0
 13
6.259504667050364
 23
3.989731599582206
 33
0.0
  0
TEXT
  5
887
  8
DIMENSIONS
 10
10.48922739016278
 20
9.0714510603890268
 30
0.0
 40
0.25
  1
TYP.
  0
TEXT
  5
888
  8
DIMENSIONS
 10
10.513364518978319
 20
6.4395949156022096
 30
0.0
 40
0.25
  1
TYP.
  0
LINE
  5
898
  8
DIMENSIONS
 10
6.931004010442023
 20
8.6952857250727433
 30
0.0
 11
6.931004010442023
 21
6.8852857250727437
 31
0.0
  0
LINE
  5
899
  8
DIMENSIONS
 10
6.869004010442012
 20
8.6352857250727446
 30
0.0
 11
6.869004010442012
 21
6.8852857250727437
 31
0.0
  0
LINE
  5
89A
  8
DIMENSIONS
 10
7.181004010442023
 20
6.9477857250727437
 30
0.0
 11
7.431004010442023
 21
6.9477857250727437
 31
0.0
  0
LINE
  5
89B
  8
DIMENSIONS
 10
6.619004010442012
 20
6.9477857250727437
 30
0.0
 11
6.369004010442012
 21
6.9477857250727437
 31
0.0
  0
SOLID
  5
89C
  8
DIMENSIONS
 10
7.181004010442023
 20
6.9894523917394116
 30
0.0
 11
7.181004010442023
 21
6.9061190584060776
 31
0.0
 12
6.931004010442023
 22
6.9477857250727437
 32
0.0
 13
6.931004010442023
 23
6.9477857250727437
 33
0.0
  0
SOLID
  5
89D
  8
DIMENSIONS
 10
6.619004010442012
 20
6.9894523917394116
 30
0.0
 11
6.619004010442012
 21
6.9061190584060776
 31
0.0
 12
6.869004010442012
 22
6.9477857250727437
 32
0.0
 13
6.869004010442012
 23
6.9477857250727437
 33
0.0
  0
TEXT
  5
89F
  8
DIMENSIONS
 10
4.2497234501619578
 20
6.8227857250727437
 30
0.0
 40
0.25
  1
0.062 TYP.
  0
LINE
  5
8B0
  8
DIMENSIONS
 10
7.7705040104420098
 20
8.3217857250727452
 30
0.0
 11
5.806504010442012
 21
8.3217857250727452
 31
0.0
  0
LINE
  5
8B1
  8
DIMENSIONS
 10
7.7088052924932953
 20
8.1967857250727452
 30
0.0
 11
5.806504010442012
 21
8.1967857250727452
 31
0.0
  0
LINE
  5
8B2
  8
DIMENSIONS
 10
5.869004010442012
 20
8.5717857250727452
 30
0.0
 11
5.869004010442012
 21
8.8217857250727452
 31
0.0
  0
LINE
  5
8B3
  8
DIMENSIONS
 10
5.869004010442012
 20
7.9467857250727461
 30
0.0
 11
5.869004010442012
 21
7.6967857250727461
 31
0.0
  0
LINE
  5
8B4
  8
DIMENSIONS
 10
5.869004010442012
 20
7.6967857250727461
 30
0.0
 11
5.619004010442012
 21
7.6967857250727461
 31
0.0
  0
SOLID
  5
8B5
  8
DIMENSIONS
 10
5.827337343775354
 20
8.5717857250727452
 30
0.0
 11
5.9106706771086834
 21
8.5717857250727452
 31
0.0
 12
5.869004010442012
 22
8.3217857250727452
 32
0.0
 13
5.869004010442012
 23
8.3217857250727452
 33
0.0
  0
SOLID
  5
8B6
  8
DIMENSIONS
 10
5.827337343775354
 20
7.9467857250727461
 30
0.0
 11
5.9106706771086834
 21
7.9467857250727461
 31
0.0
 12
5.869004010442012
 22
8.1967857250727452
 32
0.0
 13
5.869004010442012
 23
8.1967857250727452
 33
0.0
  0
TEXT
  5
8B8
  8
DIMENSIONS
 10
3.5473424977810022
 20
7.5717857250727461
 30
0.0
 40
0.25
  1
0.125 TYP.
  0
LINE
  5
91F
  8
BODY_-_OCTAGON_PORT
 10
5.6868552427239081
 20
3.704496312685126
 30
0.0
 11
5.8719829966243529
 21
3.8896240665855681
 31
0.0
  0
LINE
  5
920
  8
BODY_-_OCTAGON_PORT
 10
5.7561189166211051
 20
3.2434299006924041
 30
0.0
 11
6.5695890253617071
 21
4.0569000094330141
 31
0.0
  0
LINE
  5
921
  8
BODY_-_OCTAGON_PORT
 10
5.825382590518287
 20
2.782363488699684
 30
0.0
 11
6.869004010442012
 21
3.8259849086234068
 31
0.0
  0
LINE
  5
922
  8
BODY_-_OCTAGON_PORT
 10
6.1383044989864848
 20
2.5649553112779722
 30
0.0
 11
6.869004010442012
 21
3.2956548227334959
 31
0.0
  0
LINE
  5
923
  8
BODY_-_OCTAGON_PORT
 10
6.4749928819061893
 20
2.3713136083077568
 30
0.0
 11
7.2723151536261383
 21
3.1686358800277028
 31
0.0
  0
LINE
  5
924
  8
BODY_-_OCTAGON_PORT
 10
14.760553438390829
 20
11.20646475637521
 30
0.0
 11
15.05827711052663
 21
11.50418842851102
 31
0.0
  0
LINE
  5
925
  8
BODY_-_OCTAGON_PORT
 10
7.3012034171084252
 20
2.667194057620081
 30
0.0
 11
7.8026452395160391
 21
3.1686358800277028
 31
0.0
  0
LINE
  5
926
  8
BODY_-_OCTAGON_PORT
 10
14.97020449297827
 20
10.88578572507274
 30
0.0
 11
15.521956555218679
 21
11.437537787313151
 31
0.0
  0
LINE
  5
927
  8
BODY_-_OCTAGON_PORT
 10
8.0190159402429231
 20
2.8546764948646661
 30
0.0
 11
8.3329753254059522
 21
3.1686358800277041
 31
0.0
  0
LINE
  5
928
  8
BODY_-_OCTAGON_PORT
 10
15.50053457886818
 20
10.88578572507274
 30
0.0
 11
15.7905953409205
 21
11.175846487125069
 31
0.0
  0
LINE
  5
929
  8
BODY_-_OCTAGON_PORT
 10
8.5493460261328238
 20
2.8546764948646661
 30
0.0
 11
8.8633054112958671
 21
3.168635880027705
 31
0.0
  0
LINE
  5
92A
  8
BODY_-_OCTAGON_PORT
 10
15.82255343839082
 20
10.67747449870547
 30
0.0
 11
16.138489239181411
 21
10.993410299496061
 31
0.0
  0
LINE
  5
92B
  8
BODY_-_OCTAGON_PORT
 10
9.0255449144598998
 20
2.8005452973018312
 30
0.0
 11
9.3936354971857838
 21
3.168635880027705
 31
0.0
  0
LINE
  5
92C
  8
BODY_-_OCTAGON_PORT
 10
15.82255343839082
 20
10.14714441281556
 30
0.0
 11
16.200060269399579
 21
10.52465124382433
 31
0.0
  0
LINE
  5
92D
  8
BODY_-_OCTAGON_PORT
 10
9.8070040104420144
 20
3.5820043932839449
 30
0.0
 11
10.25181585287779
 21
4.026816235719723
 31
0.0
  0
LINE
  5
92E
  8
BODY_-_OCTAGON_PORT
 10
9.3023897209564836
 20
2.5470600179085059
 30
0.0
 11
10.6791934326006
 21
3.9238637295526111
 31
0.0
  0
LINE
  5
92F
  8
BODY_-_OCTAGON_PORT
 10
15.82255343839082
 20
9.6168143269256543
 30
0.0
 11
16.202207003271351
 21
9.9964678918061782
 31
0.0
  0
LINE
  5
930
  8
BODY_-_OCTAGON_PORT
 10
9.9873679804116602
 20
2.7017081914737662
 30
0.0
 11
10.988975408625929
 21
3.7033156196880408
 31
0.0
  0
LINE
  5
931
  8
BODY_-_OCTAGON_PORT
 10
15.82255343839082
 20
9.0864842410357447
 30
0.0
 11
16.098256231424209
 21
9.3621870340691284
 31
0.0
  0
LINE
  5
932
  8
BODY_-_OCTAGON_PORT
 10
10.393815444120939
 20
2.5778255692931409
 30
0.0
 11
10.89522259233501
 21
3.0792327175072138
 31
0.0
  0
LINE
  5
933
  8
BODY_-_OCTAGON_PORT
 10
15.82255343839082
 20
8.5561541551458369
 30
0.0
 11
16.185326160536349
 21
8.918926877291355
 31
0.0
  0
LINE
  5
934
  8
BODY_-_OCTAGON_PORT
 10
14.760553438390829
 20
7.4941541551458348
 30
0.0
 11
15.21418500831774
 21
7.9477857250727437
 31
0.0
  0
LINE
  5
935
  8
BODY_-_OCTAGON_PORT
 10
10.729124894240909
 20
2.382804933523194
 30
0.0
 11
10.801469776044099
 21
2.4551498153263891
 31
0.0
  0
LINE
  5
936
  8
BODY_-_OCTAGON_PORT
 10
15.82255343839082
 20
8.0258240692559255
 30
0.0
 11
16.212474120668372
 21
8.4157447515334773
 31
0.0
  0
LINE
  5
937
  8
BODY_-_OCTAGON_PORT
 10
15.1576984405477
 20
7.3609690714128071
 30
0.0
 11
15.744515094207641
 21
7.9477857250727437
 31
0.0
  0
LINE
  5
938
  8
BODY_-_OCTAGON_PORT
 10
15.58713187872956
 20
7.2600724237047496
 30
0.0
 11
16.172046438200791
 21
7.8449869831759873
 31
0.0
  0
TEXT
  5
939
  8
DIMENSIONS
 10
4.4320667418893427
 20
4.3328281881275386
 30
0.0
 40
0.25
  1
R9.087
  0
TEXT
  5
93D
  8
DIMENSIONS
 10
4.6833444954590808
 20
12.37349853400362
 30
0.0
 40
0.25
  1
REF.
  0
TEXT
  5
1072
  8
0
  6
CONTINUOUS
 10
73.621218078574174
 20
17.256635037515171
 30
0.0
 40
0.12
  1
 
 51
7.0
  0
TEXT
  5
1073
  8
0
  6
CONTINUOUS
 10
86.065314844054058
 20
24.319509467246821
 30
0.0
 40
0.24
  1
 
 51
7.0
  0
TEXT
  5
1074
  8
0
  6
CONTINUOUS
 10
95.275079855967334
 20
23.999499480669741
 30
0.0
 40
0.24
  1
 
 51
7.0
  0
TEXT
  5
1075
  8
0
  6
CONTINUOUS
 10
105.0790393404
 20
7.136918681142415
 30
0.0
 40
0.24
  1
 
 51
7.0
  0
LINE
  5
112D
  8
0
 10
0.0
 20
0.0
 30
0.0
 11
0.0
 21
17.0
 31
0.0
  0
LINE
  5
112E
  8
0
 10
22.0
 20
0.0
 30
0.0
 11
22.0
 21
17.0
 31
0.0
  0
LINE
  5
112F
  8
0
 10
0.0
 20
0.0
 30
0.0
 11
22.0
 21
0.0
 31
0.0
  0
LINE
  5
1130
  8
0
 10
0.0
 20
17.0
 30
0.0
 11
22.0
 21
17.0
 31
0.0
  0
LINE
  5
11CE
  8
FORM
 10
21.403846140107252
 20
0.7499999996674092
 30
0.0
 11
21.403846140107252
 21
15.153846144098431
 31
0.0
  0
LINE
  5
11CF
  8
FORM
 10
21.249999986363441
 20
15.307692297842239
 30
0.0
 11
0.7499999996674376
 21
15.307692297842239
 31
0.0
  0
LINE
  5
11D0
  8
FORM
 10
21.249999986363441
 20
0.5961538459236025
 30
0.0
 11
0.7499999996674376
 21
0.5961538459235954
 31
0.0
  0
LINE
  5
11D1
  8
FORM
 10
0.5961538459236168
 20
0.7499999996674092
 30
0.0
 11
0.5961538459236168
 21
15.153846144098431
 31
0.0
  0
TEXT
  5
11D2
  8
FORM
 10
17.943527341010519
 20
2.6705065993040051
 30
0.0
 40
0.260516826749781
  1
OCTAGON PORT
 72
     1
 11
19.463208830384239
 21
2.6705065993040051
 31
0.0
  0
TEXT
  5
11D3
  8
FORM
 10
18.966986303241811
 20
2.1193155254872589
 30
0.0
 40
0.260516826749781
  1
BODY
 72
     1
 11
19.463208830384239
 21
2.1193155254872589
 31
0.0
  0
TEXT
  5
11D4
  8
FORM
 10
16.770574233580561
 20
1.1177623757995749
 30
0.0
 40
0.260516826749781
  1
ASTROMECH DROID
  0
TEXT
  5
11D5
  8
FORM
 10
20.85720038004996
 20
1.1278903102633671
 30
0.0
 40
0.260516826749781
  1
A
  0
TEXT
  5
11D6
  8
FORM
 10
17.25446024791373
 20
0.813671414000872
 30
0.0
 40
0.1042067306999124
  1
FULL
  0
TEXT
  5
11D7
  8
FORM
 10
20.593280544426019
 20
0.8165882189588344
 30
0.0
 40
0.1042067306999124
  1
1   1
  0
TEXT
  5
11D8
  8
FORM
 10
18.867373488668239
 20
0.8246381046439915
 30
0.0
 40
0.1042067306999124
  1
APRIL 2005
 72
     2
 11
19.770498488067489
 21
0.8246381046439915
 31
0.0
  0
TEXT
  5
11D9
  8
FORM
  6
CONTINUOUS
 10
18.118827913558601
 20
0.8235896747318066
 30
0.0
 40
0.0900346153247244
  1
DRAWN:
  0
TEXT
  5
11DA
  8
FORM
  6
CONTINUOUS
 10
16.72518466957764
 20
0.8236741054737031
 30
0.0
 40
0.0900346153247244
  1
SCALE:
  0
TEXT
  5
11DB
  8
FORM
  6
CONTINUOUS
 10
20.01795677316494
 20
0.8225458122742352
 30
0.0
 40
0.0900346153247244
  1
SHEET:   OF
  0
TEXT
  5
11DC
  8
FORM
  6
CONTINUOUS
 10
16.560769897877751
 20
1.5378028837587541
 30
0.0
 40
0.0900346153247244
  1
DRAWING NO.
  0
TEXT
  5
11DD
  8
FORM
  6
CONTINUOUS
 10
20.822311852397561
 20
1.537802883758743
 30
0.0
 40
0.0900346153247244
  1
REV.
 72
     1
 11
20.955220094067389
 21
1.537802883758743
 31
0.0
  0
LINE
  5
11DE
  8
FORM
  6
CONTINUOUS
 10
16.703251912464879
 20
3.3610038440844141
 30
0.0
 11
21.02491344805162
 21
3.3610038440844141
 31
0.0
  0
LINE
  5
11DF
  8
FORM
  6
CONTINUOUS
 10
16.478165374153061
 20
0.9750865379792159
 30
0.0
 11
16.478165374153029
 21
3.1359173057725931
 31
0.0
  0
LINE
  5
11E0
  8
FORM
  6
CONTINUOUS
 10
16.478165374153061
 20
1.672854806745828
 30
0.0
 11
21.249999986363441
 21
1.672854806745828
 31
0.0
  0
LINE
  5
11E1
  8
FORM
  6
CONTINUOUS
 10
16.478165374153061
 20
0.9750865379792159
 30
0.0
 11
21.249999986363441
 21
0.9750865379792159
 31
0.0
  0
LINE
  5
11E2
  8
FORM
  6
CONTINUOUS
 10
17.97804237543275
 20
0.9750865379792159
 30
0.0
 11
17.97804237543275
 21
0.7499999996674092
 31
0.0
  0
LINE
  5
11E3
  8
FORM
  6
CONTINUOUS
 10
19.950430811671389
 20
0.9723156702741989
 30
0.0
 11
19.950430811671389
 21
0.7472291319623921
 31
0.0
  0
LINE
  5
11E4
  8
FORM
  6
CONTINUOUS
 10
20.65524763562988
 20
1.672854806745828
 30
0.0
 11
20.65524763562988
 21
0.9750865379792159
 31
0.0
  0
ARC
  5
11E5
  8
FORM
 62
     5
 10
16.925603837263051
 20
2.683123263179624
 30
0.0
 40
0.0245481788339413
 50
152.18113099770551
 51
330.99098814993278
  0
ARC
  5
11E6
  8
FORM
 62
     5
 10
17.03186349061718
 20
2.8877559907035391
 30
0.0
 40
0.0215248522646385
 50
335.32315363464198
 51
152.6722492633036
  0
ARC
  5
11E7
  8
FORM
 62
     5
 10
18.67139281679863
 20
1.8778243841790809
 30
0.0
 40
1.9470863223045181
 50
148.41494327216151
 51
155.19852313243231
  0
ARC
  5
11E8
  8
FORM
 62
     5
 10
19.04826621925363
 20
1.7448079813832851
 30
0.0
 40
2.2963564077758769
 50
150.40875710206339
 51
156.20744757951141
  0
ARC
  5
11E9
  8
FORM
 62
     7
 10
16.856187689619201
 20
2.476891943456518
 30
0.0
 40
0.0328016362752216
 50
161.128725237971
 51
346.89295927401372
  0
ARC
  5
11EA
  8
FORM
 62
     7
 10
26.446981545233939
 20
-1.665659984064163
 30
0.0
 40
10.414927500982669
 50
153.58307292081309
 51
156.60691138966209
  0
ARC
  5
11EB
  8
FORM
 62
     7
 10
24.942765772362829
 20
-1.1245203992272681
 30
0.0
 40
8.873647082696257
 50
152.3409599977594
 51
152.9694116127464
  0
ARC
  5
11EC
  8
FORM
 62
     7
 10
25.042235970541071
 20
-1.413551413076795
 30
0.0
 40
9.0960831006715779
 50
153.3711283527573
 51
154.60402195655351
  0
ARC
  5
11ED
  8
FORM
 62
     7
 10
17.329398129118289
 20
2.8602652973761158
 30
0.0
 40
0.2358358050601862
 50
23.468725928191049
 51
88.151617587883351
  0
ARC
  5
11EE
  8
FORM
 62
     7
 10
17.33466889121355
 20
2.8754695652234821
 30
0.0
 40
0.2783521476800796
 50
18.23262529566551
 51
154.63608874642679
  0
ARC
  5
11EF
  8
FORM
 62
     7
 10
17.41806628342874
 20
2.9044827195306051
 30
0.0
 40
0.1900699214402894
 50
336.99722732837893
 51
341.11190659806488
  0
ARC
  5
11F0
  8
FORM
 62
     7
 10
17.429371041778779
 20
2.912888609699027
 30
0.0
 40
0.1244898949022119
 50
333.24704424527522
 51
339.12675173356178
  0
ARC
  5
11F1
  8
FORM
 62
     7
 10
17.547120806258562
 20
2.8541053585607901
 30
0.0
 40
0.007134896083525
 50
157.3747590211585
 51
243.18317341424029
  0
ARC
  5
11F2
  8
FORM
 62
     7
 10
17.589262332130431
 20
2.8313183495512071
 30
0.0
 40
0.0039211308505914
 50
246.74236679857631
 51
343.55073793579641
  0
ARC
  5
11F3
  8
FORM
 62
     7
 10
17.71265002297525
 20
3.1590467530149189
 30
0.0
 40
0.3541033340658146
 50
241.5396617947477
 51
249.33988332022491
  0
ARC
  5
11F4
  8
FORM
 62
     7
 10
17.465116861604141
 20
2.7835275642507962
 30
0.0
 40
0.0699031230302257
 50
210.28645373052609
 51
287.25915125833183
  0
ARC
  5
11F5
  8
FORM
 62
     7
 10
17.471123101482839
 20
2.7532989527990699
 30
0.0
 40
0.0393865134548433
 50
291.96730232828992
 51
10.20108836223371
  0
ARC
  5
11F6
  8
FORM
 62
     7
 10
17.159843992632862
 20
2.6859329108208518
 30
0.0
 40
0.2527202610277017
 50
14.28109924276106
 51
24.94726153987823
  0
ARC
  5
11F7
  8
FORM
 62
     7
 10
17.30724545805592
 20
2.7624795397720869
 30
0.0
 40
0.0870866377029319
 50
20.183063788867621
 51
47.833846572520187
  0
ARC
  5
11F8
  8
FORM
 62
     7
 10
17.323525970686489
 20
2.7183682645997709
 30
0.0
 40
0.1165593648186974
 50
68.784960310907422
 51
94.742087985452599
  0
ARC
  5
11F9
  8
FORM
 62
     7
 10
17.32225776675568
 20
2.7872533208520021
 30
0.0
 40
0.0480101674679103
 50
100.0375073429591
 51
170.98475346238999
  0
ARC
  5
11FA
  8
FORM
 62
     7
 10
17.548079884465121
 20
2.754066770453373
 30
0.0
 40
0.2762551956077745
 50
171.52589863719891
 51
197.494741096675
  0
ARC
  5
11FB
  8
FORM
 62
     7
 10
17.361988404409459
 20
2.757975203687443
 30
0.0
 40
0.1479164690482495
 50
0.8906501289532242
 51
49.113860192417171
  0
ARC
  5
11FC
  8
FORM
 62
     7
 10
17.330827327390121
 20
2.7851061194825268
 30
0.0
 40
0.1164203647136616
 50
99.869748807366761
 51
175.59516845025641
  0
ARC
  5
11FD
  8
FORM
 62
     7
 10
17.35181928853353
 20
2.721979015220195
 30
0.0
 40
0.1824780170187834
 50
54.104282451028169
 51
102.9674010870567
  0
ARC
  5
11FE
  8
FORM
 62
     7
 10
17.866825478371819
 20
2.8305495615738461
 30
0.0
 40
0.603682768180479
 50
195.32307896217739
 51
209.290843156958
  0
ARC
  5
11FF
  8
FORM
 62
     7
 10
17.676878331574731
 20
2.7315679572076941
 30
0.0
 40
0.4663319886455236
 50
172.3003020759547
 51
200.12627387409299
  0
ARC
  5
1200
  8
FORM
 62
     7
 10
18.010296677355171
 20
2.8617220596188409
 30
0.0
 40
0.8242093741364085
 50
200.64629086238159
 51
210.0464960904439
  0
ARC
  5
1201
  8
FORM
 62
     7
 10
16.87490984687733
 20
2.2228629736894798
 30
0.0
 40
0.5605059965149727
 50
28.431949107384298
 51
33.865461133002469
  0
ARC
  5
1202
  8
FORM
 62
     7
 10
17.335282492148359
 20
2.4642291377128478
 30
0.0
 40
0.0413303405420145
 50
201.56446042640411
 51
38.094090168146302
  0
ARC
  5
1203
  8
FORM
 62
     5
 10
17.698488306364109
 20
2.8075987703319072
 30
0.0
 40
0.0229902810191139
 50
227.6202696593605
 51
57.412112921204063
  0
ARC
  5
1204
  8
FORM
 62
     5
 10
17.427351296879149
 20
2.453894972691713
 30
0.0
 40
0.4685807675213703
 50
52.766851639305898
 51
65.063571515457895
  0
ARC
  5
1205
  8
FORM
 62
     5
 10
17.209234353189508
 20
2.115713416994772
 30
0.0
 40
0.8245845677332351
 50
54.932512589538803
 51
74.152868438598929
  0
ARC
  5
1206
  8
FORM
 62
     5
 10
17.22112341118936
 20
1.8705744209651269
 30
0.0
 40
1.0600616451387339
 50
78.393012355262385
 51
89.647961077025343
  0
ARC
  5
1207
  8
FORM
 62
     5
 10
17.225855158117209
 20
2.9613835761542329
 30
0.0
 40
0.0308190515998151
 50
183.9979944211656
 51
273.313807745882
  0
ARC
  5
1208
  8
FORM
 62
     5
 10
17.329870384946641
 20
2.9695252211814269
 30
0.0
 40
0.135151603104915
 50
145.60859166919269
 51
184.36670732083471
  0
ARC
  5
1209
  8
FORM
 62
     5
 10
17.246715832908791
 20
3.027923603152622
 30
0.0
 40
0.0335688941126511
 50
75.244714174009715
 51
147.6929850116162
  0
ARC
  5
120A
  8
FORM
 62
     5
 10
16.846566400398309
 20
1.4922623483111219
 30
0.0
 40
1.6205076763160291
 50
61.637242241525243
 51
75.392005557716686
  0
ARC
  5
120B
  8
FORM
 62
     5
 10
17.585771892302461
 20
2.8909845400545029
 30
0.0
 40
0.0409937741994102
 50
342.6982574268402
 51
41.67278378767756
  0
ARC
  5
120C
  8
FORM
 62
     7
 10
17.41806628342874
 20
2.9044827195306051
 30
0.0
 40
0.1900699214402894
 50
5.6380312699923048
 51
17.79145636873681
  0
ARC
  5
120D
  8
FORM
 62
     7
 10
17.5045622300951
 20
2.0088127942983891
 30
0.0
 40
0.0608207837544583
 50
88.432533024773406
 51
186.62631613112151
  0
ARC
  5
120E
  8
FORM
 62
     7
 10
17.514107893903311
 20
2.0214944811508531
 30
0.0
 40
0.0726809031862866
 50
195.7266305128272
 51
285.3806868435185
  0
ARC
  5
120F
  8
FORM
 62
     7
 10
17.428397303924321
 20
2.6646932328165849
 30
0.0
 40
0.7209618028535085
 50
278.37329371359471
 51
293.15208507016871
  0
ARC
  5
1210
  8
FORM
 62
     7
 10
17.670280088548282
 20
2.2109164793858191
 30
0.0
 40
0.1486954171998164
 50
257.51805604168283
 51
277.23103351305667
  0
ARC
  5
1211
  8
FORM
 62
     7
 10
17.67861701724112
 20
2.0887614153130118
 30
0.0
 40
0.0273997705390677
 50
292.26031345923337
 51
12.867379300523719
  0
ARC
  5
1212
  8
FORM
 62
     7
 10
17.658243987918521
 20
2.0848332422543971
 30
0.0
 40
0.0481411784627428
 50
12.02537552739555
 51
52.143631645159317
  0
ARC
  5
1213
  8
FORM
 62
     7
 10
18.68473167686761
 20
3.3322419147777782
 30
0.0
 40
1.5673362882102819
 50
219.60277928185971
 51
230.5002020408055
  0
ARC
  5
1214
  8
FORM
 62
     7
 10
17.71719517775902
 20
2.5209914067630801
 30
0.0
 40
0.3048383262947374
 50
175.97523115435061
 51
218.04500009534141
  0
ARC
  5
1215
  8
FORM
 62
     7
 10
17.587988709286751
 20
2.5516026198667592
 30
0.0
 40
0.1751226981011722
 50
149.96078860476399
 51
183.01641230856191
  0
ARC
  5
1216
  8
FORM
 62
     7
 10
17.465652099646999
 20
2.6236413715572442
 30
0.0
 40
0.03317488584424
 50
69.764209445538683
 51
151.8988190455112
  0
ARC
  5
1217
  8
FORM
 62
     7
 10
17.461738153470581
 20
2.621386420418637
 30
0.0
 40
0.0367584023789668
 50
357.6694469744499
 51
65.251102439515435
  0
ARC
  5
1218
  8
FORM
 62
     7
 10
17.375127171955
 20
2.6142785816255478
 30
0.0
 40
0.1234666367742727
 50
345.36193237678458
 51
2.6056939300727819
  0
ARC
  5
1219
  8
FORM
 62
     7
 10
17.770788346688299
 20
2.4976765653254129
 30
0.0
 40
0.289103498612585
 50
162.8186183088072
 51
185.35496664157321
  0
ARC
  5
121A
  8
FORM
 62
     7
 10
17.738557938675601
 20
2.526678108373186
 30
0.0
 40
0.261669979998945
 50
192.3534994193023
 51
222.3020476696033
  0
ARC
  5
121B
  8
FORM
 62
     7
 10
18.640000382871079
 20
3.2533952889623161
 30
0.0
 40
1.419181254971364
 50
219.50633019139829
 51
228.42762303996261
  0
ARC
  5
121C
  8
FORM
 62
     7
 10
17.545150090279261
 20
1.9830014576086259
 30
0.0
 40
0.2588352891177654
 50
32.971129457978869
 51
53.728419363024337
  0
ARC
  5
121D
  8
FORM
 62
     7
 10
17.685505274612321
 20
2.0841393566689059
 30
0.0
 40
0.0864595649942742
 50
287.74749415951351
 51
27.35211189662947
  0
ARC
  5
121E
  8
FORM
 62
     7
 10
17.556150910590731
 20
1.521887384058928
 30
0.0
 40
0.5499940598264056
 50
81.426570944510203
 51
95.208118001959775
  0
ARC
  5
121F
  8
FORM
 62
     7
 10
17.31874226594763
 20
2.379232385518228
 30
0.0
 40
0.0244848954091209
 50
325.52447187114308
 51
75.340502228459783
  0
ARC
  5
1220
  8
FORM
 62
     7
 10
17.28857503182331
 20
2.4013816515593862
 30
0.0
 40
0.0619027859518531
 50
277.78730616127859
 51
324.42957968808531
  0
ARC
  5
1221
  8
FORM
 62
     7
 10
17.277627430402191
 20
2.4116764447725738
 30
0.0
 40
0.0741905263351136
 50
243.48581874200181
 51
285.1065744639306
  0
ARC
  5
1222
  8
FORM
 62
     7
 10
13.99616984532571
 20
-5.9734717723731041
 30
0.0
 40
9.0135811594364625
 50
68.327181839257534
 51
70.606105230637283
  0
ARC
  5
1223
  8
FORM
 62
     7
 10
16.982860283602829
 20
2.502260489661857
 30
0.0
 40
0.0271571196358057
 50
76.445232091872299
 51
134.36352227876461
  0
ARC
  5
1224
  8
FORM
 62
     7
 10
17.103601465049451
 20
2.316491870596419
 30
0.0
 40
0.2482433149023289
 50
124.2547762008316
 51
135.012931962436
  0
ARC
  5
1225
  8
FORM
 62
     7
 10
16.932687772438332
 20
2.4840903864877362
 30
0.0
 40
0.0091691237651447
 50
120.5491196217084
 51
251.48388650457539
  0
ARC
  5
1226
  8
FORM
 62
     7
 10
15.698852283122079
 20
-0.947959245240991
 30
0.0
 40
3.6379298384249581
 50
64.85742894317822
 51
67.515132469299331
  0
ARC
  5
1227
  8
FORM
 62
     7
 10
17.23599357112948
 20
2.291795105104121
 30
0.0
 40
0.0343472402230129
 50
329.18566117941782
 51
69.527151249863806
  0
ARC
  5
1228
  8
FORM
 62
     7
 10
17.145886072427881
 20
2.1556962750494151
 30
0.0
 40
0.1968392862921899
 50
58.747973844557571
 51
81.106226592028065
  0
ARC
  5
1229
  8
FORM
 62
     7
 10
17.124947044127829
 20
2.0252080021495891
 30
0.0
 40
0.3289962935825703
 50
81.016817915507374
 51
97.679603827268224
  0
ARC
  5
122A
  8
FORM
 62
     7
 10
17.159573600239298
 20
2.1240726877937131
 30
0.0
 40
0.2440398498458748
 50
121.5050128230593
 51
139.0957881060705
  0
ARC
  5
122B
  8
FORM
 62
     7
 10
17.225825242067831
 20
2.2865562155100809
 30
0.0
 40
0.0415466234232141
 50
277.70569210516868
 51
342.69880024124109
  0
ARC
  5
122C
  8
FORM
 62
     7
 10
17.213074197788071
 20
2.3334352792513711
 30
0.0
 40
0.0899365447321688
 50
250.08394506358289
 51
281.75453717228322
  0
ARC
  5
122D
  8
FORM
 62
     7
 10
17.2424582627973
 20
2.3437609022874879
 30
0.0
 40
0.1122732419236369
 50
221.18187885427241
 51
237.68378775985289
  0
ARC
  5
122E
  8
FORM
 62
     7
 10
17.11078230927049
 20
2.213603979985677
 30
0.0
 40
0.0733994924367979
 50
50.003848755011681
 51
75.5416830098399
  0
ARC
  5
122F
  8
FORM
 62
     7
 10
17.10690002874345
 20
2.2402084319691471
 30
0.0
 40
0.0497074536252231
 50
63.4626603498468
 51
100.74200229027051
  0
ARC
  5
1230
  8
FORM
 62
     7
 10
17.09763521067913
 20
2.2049366923578511
 30
0.0
 40
0.0841081409133923
 50
89.999999999999588
 51
125.5974615489027
  0
ARC
  5
1231
  8
FORM
 62
     7
 10
18.09535908495533
 20
2.805145934228654
 30
0.0
 40
1.1637748462988311
 50
197.51922498184919
 51
203.981481444731
  0
ARC
  5
1232
  8
FORM
 62
     7
 10
16.736982371619181
 20
2.433687501517297
 30
0.0
 40
0.3537389089231183
 50
346.52409876011302
 51
356.71498770316703
  0
ARC
  5
1233
  8
FORM
 62
     7
 10
15.698852283122079
 20
-0.947959245240991
 30
0.0
 40
3.6379298384249581
 50
69.286600818944052
 51
70.22311760076802
  0
ARC
  5
1234
  8
FORM
 62
     7
 10
16.92789692922846
 20
2.1257895907104252
 30
0.0
 40
0.1066736432871782
 50
245.40259669902051
 51
275.40975098180542
  0
ARC
  5
1235
  8
FORM
 62
     7
 10
17.301941284744
 20
1.9333049606058379
 30
0.0
 40
0.4239787481416163
 50
126.68044463040199
 51
139.78708822539889
  0
ARC
  5
1236
  8
FORM
 62
     7
 10
16.925901396850119
 20
2.42585100124619
 30
0.0
 40
0.4064386631288638
 50
271.69929119420118
 51
283.39540842056908
  0
ARC
  5
1237
  8
FORM
 62
     7
 10
17.685900196427319
 20
1.487877603185271
 30
0.0
 40
1.0089968057446299
 50
134.5410403491789
 51
138.91474429089899
  0
ARC
  5
1238
  8
FORM
 62
     7
 10
16.942625607711989
 20
2.1366275124138698
 30
0.0
 40
0.0266928289273625
 50
201.8252958964795
 51
267.16449786715452
  0
ARC
  5
1239
  8
FORM
 62
     7
 10
16.936879259411789
 20
2.1340951027918962
 30
0.0
 40
0.0204180021895292
 50
124.254854327418
 51
201.22329273937859
  0
ARC
  5
123A
  8
FORM
 62
     7
 10
16.999050226745201
 20
2.1174828639755172
 30
0.0
 40
0.0895139066856433
 50
283.5751770312794
 51
324.58969283639942
  0
ARC
  5
123B
  8
FORM
 62
     7
 10
17.05010181640597
 20
2.0748500422369349
 30
0.0
 40
0.0237711578752802
 50
337.14160324238759
 51
47.56496670892831
  0
ARC
  5
123C
  8
FORM
 62
     7
 10
17.01351320176212
 20
2.0225775754130799
 30
0.0
 40
0.0874305156836371
 50
52.990730681111657
 51
91.748895977531376
  0
ARC
  5
123D
  8
FORM
 62
     7
 10
16.97607501860476
 20
2.3473211427073291
 30
0.0
 40
0.2398869733850244
 50
261.66603807207321
 51
278.33396192792679
  0
ARC
  5
123E
  8
FORM
 62
     7
 10
16.904055290181631
 20
2.0802584334887442
 30
0.0
 40
0.0554174778483587
 50
192.64550774538381
 51
248.2223967256862
  0
ARC
  5
123F
  8
FORM
 62
     7
 10
16.890435234000019
 20
2.0865365172575769
 30
0.0
 40
0.0444453205431241
 50
178.88427582775461
 51
204.46998391858139
  0
ARC
  5
1240
  8
FORM
 62
     7
 10
17.00038134049046
 20
2.0753041716250129
 30
0.0
 40
0.1548562786887746
 50
140.54690015149379
 51
175.5193383191162
  0
ARC
  5
1241
  8
FORM
 62
     7
 10
18.525663181526959
 20
0.8608942872864346
 30
0.0
 40
2.1045236570324608
 50
137.45643980933039
 51
141.40545593619069
  0
POLYLINE
  5
1242
  8
FORM
 62
     1
 10
17.275622491608207
 20
3.0402781737931805
 30
0.0
 66
     1
 70
     8
  0
VERTEX
  8
FORM
  5
13F1
 10
17.2756
 20
3.04028
 30
0.000000
  70
    32
  0
VERTEX
  8
FORM
  5
13F2
 10
17.2747
 20
3.04062
 30
0.000000
  70
    32
  0
VERTEX
  8
FORM
  5
13F3
 10
17.2737
 20
3.04086
 30
0.000000
  70
    32
  0
VERTEX
  8
FORM
  5
13F4
 10
17.2727
 20
3.04098
 30
0.000000
  70
    32
  0
VERTEX
  8
FORM
  5
13F5
 10
17.2716
 20
3.04100
 30
0.000000
  70
    32
  0
VERTEX
  8
FORM
  5
13F6
 10
17.2705
 20
3.04091
 30
0.000000
  70
    32
  0
VERTEX
  8
FORM
  5
13F7
 10
17.2694
 20
3.04070
 30
0.000000
  70
    32
  0
VERTEX
  8
FORM
  5
13F8
 10
17.2682
 20
3.04039
 30
0.000000
  70
    32
  0
VERTEX
  8
FORM
  5
13F9
 10
17.2670
 20
3.03997
 30
0.000000
  70
    32
  0
VERTEX
  8
FORM
  5
13FA
 10
17.2658
 20
3.03944
 30
0.000000
  70
    32
  0
VERTEX
  8
FORM
  5
13FB
 10
17.2646
 20
3.03880
 30
0.000000
  70
    32
  0
VERTEX
  8
FORM
  5
13FC
 10
17.2633
 20
3.03806
 30
0.000000
  70
    32
  0
VERTEX
  8
FORM
  5
13FD
 10
17.2620
 20
3.03722
 30
0.000000
  70
    32
  0
VERTEX
  8
FORM
  5
13FE
 10
17.2607
 20
3.03627
 30
0.000000
  70
    32
  0
VERTEX
  8
FORM
  5
13FF
 10
17.2594
 20
3.03523
 30
0.000000
  70
    32
  0
VERTEX
  8
FORM
  5
1400
 10
17.2581
 20
3.03409
 30
0.000000
  70
    32
  0
VERTEX
  8
FORM
  5
1401
 10
17.2568
 20
3.03286
 30
0.000000
  70
    32
  0
VERTEX
  8
FORM
  5
1402
 10
17.2554
 20
3.03154
 30
0.000000
  70
    32
  0
VERTEX
  8
FORM
  5
1403
 10
17.2541
 20
3.03013
 30
0.000000
  70
    32
  0
VERTEX
  8
FORM
  5
1404
 10
17.2528
 20
3.02864
 30
0.000000
  70
    32
  0
VERTEX
  8
FORM
  5
1405
 10
17.2515
 20
3.02706
 30
0.000000
  70
    32
  0
VERTEX
  8
FORM
  5
1406
 10
17.2502
 20
3.02541
 30
0.000000
  70
    32
  0
VERTEX
  8
FORM
  5
1407
 10
17.2489
 20
3.02369
 30
0.000000
  70
    32
  0
VERTEX
  8
FORM
  5
1408
 10
17.2476
 20
3.02190
 30
0.000000
  70
    32
  0
VERTEX
  8
FORM
  5
1409
 10
17.2464
 20
3.02004
 30
0.000000
  70
    32
  0
VERTEX
  8
FORM
  5
140A
 10
17.2451
 20
3.01813
 30
0.000000
  70
    32
  0
VERTEX
  8
FORM
  5
140B
 10
17.2439
 20
3.01616
 30
0.000000
  70
    32
  0
VERTEX
  8
FORM
  5
140C
 10
17.2427
 20
3.01414
 30
0.000000
  70
    32
  0
VERTEX
  8
FORM
  5
140D
 10
17.2416
 20
3.01208
 30
0.000000
  70
    32
  0
VERTEX
  8
FORM
  5
140E
 10
17.2405
 20
3.00997
 30
0.000000
  70
    32
  0
VERTEX
  8
FORM
  5
140F
 10
17.2394
 20
3.00783
 30
0.000000
  70
    32
  0
VERTEX
  8
FORM
  5
1410
 10
17.2384
 20
3.00566
 30
0.000000
  70
    32
  0
VERTEX
  8
FORM
  5
1411
 10
17.2374
 20
3.00347
 30
0.000000
  70
    32
  0
VERTEX
  8
FORM
  5
1412
 10
17.2364
 20
3.00125
 30
0.000000
  70
    32
  0
VERTEX
  8
FORM
  5
1413
 10
17.2356
 20
2.99902
 30
0.000000
  70
    32
  0
VERTEX
  8
FORM
  5
1414
 10
17.2347
 20
2.99679
 30
0.000000
  70
    32
  0
VERTEX
  8
FORM
  5
1415
 10
17.2339
 20
2.99454
 30
0.000000
  70
    32
  0
VERTEX
  8
FORM
  5
1416
 10
17.2332
 20
2.99231
 30
0.000000
  70
    32
  0
VERTEX
  8
FORM
  5
1417
 10
17.2325
 20
2.99007
 30
0.000000
  70
    32
  0
VERTEX
  8
FORM
  5
1418
 10
17.2318
 20
2.98785
 30
0.000000
  70
    32
  0
VERTEX
  8
FORM
  5
1419
 10
17.2313
 20
2.98565
 30
0.000000
  70
    32
  0
VERTEX
  8
FORM
  5
141A
 10
17.2307
 20
2.98348
 30
0.000000
  70
    32
  0
VERTEX
  8
FORM
  5
141B
 10
17.2303
 20
2.98133
 30
0.000000
  70
    32
  0
VERTEX
  8
FORM
  5
141C
 10
17.2299
 20
2.97921
 30
0.000000
  70
    32
  0
VERTEX
  8
FORM
  5
141D
 10
17.2296
 20
2.97713
 30
0.000000
  70
    32
  0
VERTEX
  8
FORM
  5
141E
 10
17.2293
 20
2.97510
 30
0.000000
  70
    32
  0
VERTEX
  8
FORM
  5
141F
 10
17.2291
 20
2.97312
 30
0.000000
  70
    32
  0
VERTEX
  8
FORM
  5
1420
 10
17.2289
 20
2.97119
 30
0.000000
  70
    32
  0
VERTEX
  8
FORM
  5
1421
 10
17.2289
 20
2.96931
 30
0.000000
  70
    32
  0
VERTEX
  8
FORM
  5
1422
 10
17.2289
 20
2.96751
 30
0.000000
  70
    32
  0
VERTEX
  8
FORM
  5
1423
 10
17.2289
 20
2.96576
 30
0.000000
  70
    32
  0
VERTEX
  8
FORM
  5
1424
 10
17.2290
 20
2.96409
 30
0.000000
  70
    32
  0
VERTEX
  8
FORM
  5
1425
 10
17.2292
 20
2.96250
 30
0.000000
  70
    32
  0
VERTEX
  8
FORM
  5
1426
 10
17.2295
 20
2.96098
 30
0.000000
  70
    32
  0
VERTEX
  8
FORM
  5
1427
 10
17.2298
 20
2.95955
 30
0.000000
  70
    32
  0
VERTEX
  8
FORM
  5
1428
 10
17.2301
 20
2.95820
 30
0.000000
  70
    32
  0
VERTEX
  8
FORM
  5
1429
 10
17.2306
 20
2.95694
 30
0.000000
  70
    32
  0
VERTEX
  8
FORM
  5
142A
 10
17.2311
 20
2.95577
 30
0.000000
  70
    32
  0
VERTEX
  8
FORM
  5
142B
 10
17.2316
 20
2.95470
 30
0.000000
  70
    32
  0
VERTEX
  8
FORM
  5
142C
 10
17.2323
 20
2.95373
 30
0.000000
  70
    32
  0
VERTEX
  8
FORM
  5
142D
 10
17.2329
 20
2.95286
 30
0.000000
  70
    32
  0
VERTEX
  8
FORM
  5
142E
 10
17.2337
 20
2.95209
 30
0.000000
  70
    32
  0
VERTEX
  8
FORM
  5
142F
 10
17.2344
 20
2.95142
 30
0.000000
  70
    32
  0
VERTEX
  8
FORM
  5
1430
 10
17.2353
 20
2.95086
 30
0.000000
  70
    32
  0
VERTEX
  8
FORM
  5
1431
 10
17.2362
 20
2.95041
 30
0.000000
  70
    32
  0
VERTEX
  8
FORM
  5
1432
 10
17.2371
 20
2.95007
 30
0.000000
  70
    32
  0
VERTEX
  8
FORM
  5
1433
 10
17.2381
 20
2.94983
 30
0.000000
  70
    32
  0
VERTEX
  8
FORM
  5
1434
 10
17.2391
 20
2.94971
 30
0.000000
  70
    32
  0
VERTEX
  8
FORM
  5
1435
 10
17.2401
 20
2.94969
 30
0.000000
  70
    32
  0
VERTEX
  8
FORM
  5
1436
 10
17.2412
 20
2.94978
 30
0.000000
  70
    32
  0
VERTEX
  8
FORM
  5
1437
 10
17.2424
 20
2.94999
 30
0.000000
  70
    32
  0
VERTEX
  8
FORM
  5
1438
 10
17.2435
 20
2.95030
 30
0.000000
  70
    32
  0
VERTEX
  8
FORM
  5
1439
 10
17.2447
 20
2.95072
 30
0.000000
  70
    32
  0
VERTEX
  8
FORM
  5
143A
 10
17.2460
 20
2.95125
 30
0.000000
  70
    32
  0
VERTEX
  8
FORM
  5
143B
 10
17.2472
 20
2.95189
 30
0.000000
  70
    32
  0
VERTEX
  8
FORM
  5
143C
 10
17.2485
 20
2.95263
 30
0.000000
  70
    32
  0
VERTEX
  8
FORM
  5
143D
 10
17.2498
 20
2.95347
 30
0.000000
  70
    32
  0
VERTEX
  8
FORM
  5
143E
 10
17.2511
 20
2.95442
 30
0.000000
  70
    32
  0
VERTEX
  8
FORM
  5
143F
 10
17.2524
 20
2.95546
 30
0.000000
  70
    32
  0
VERTEX
  8
FORM
  5
1440
 10
17.2537
 20
2.95660
 30
0.000000
  70
    32
  0
VERTEX
  8
FORM
  5
1441
 10
17.2550
 20
2.95783
 30
0.000000
  70
    32
  0
VERTEX
  8
FORM
  5
1442
 10
17.2563
 20
2.95915
 30
0.000000
  70
    32
  0
VERTEX
  8
FORM
  5
1443
 10
17.2577
 20
2.96056
 30
0.000000
  70
    32
  0
VERTEX
  8
FORM
  5
1444
 10
17.2590
 20
2.96205
 30
0.000000
  70
    32
  0
VERTEX
  8
FORM
  5
1445
 10
17.2603
 20
2.96363
 30
0.000000
  70
    32
  0
VERTEX
  8
FORM
  5
1446
 10
17.2616
 20
2.96528
 30
0.000000
  70
    32
  0
VERTEX
  8
FORM
  5
1447
 10
17.2629
 20
2.96700
 30
0.000000
  70
    32
  0
VERTEX
  8
FORM
  5
1448
 10
17.2642
 20
2.96879
 30
0.000000
  70
    32
  0
VERTEX
  8
FORM
  5
1449
 10
17.2654
 20
2.97065
 30
0.000000
  70
    32
  0
VERTEX
  8
FORM
  5
144A
 10
17.2667
 20
2.97256
 30
0.000000
  70
    32
  0
VERTEX
  8
FORM
  5
144B
 10
17.2679
 20
2.97453
 30
0.000000
  70
    32
  0
VERTEX
  8
FORM
  5
144C
 10
17.2690
 20
2.97655
 30
0.000000
  70
    32
  0
VERTEX
  8
FORM
  5
144D
 10
17.2702
 20
2.97861
 30
0.000000
  70
    32
  0
VERTEX
  8
FORM
  5
144E
 10
17.2713
 20
2.98072
 30
0.000000
  70
    32
  0
VERTEX
  8
FORM
  5
144F
 10
17.2724
 20
2.98286
 30
0.000000
  70
    32
  0
VERTEX
  8
FORM
  5
1450
 10
17.2734
 20
2.98503
 30
0.000000
  70
    32
  0
VERTEX
  8
FORM
  5
1451
 10
17.2744
 20
2.98722
 30
0.000000
  70
    32
  0
VERTEX
  8
FORM
  5
1452
 10
17.2753
 20
2.98944
 30
0.000000
  70
    32
  0
VERTEX
  8
FORM
  5
1453
 10
17.2762
 20
2.99167
 30
0.000000
  70
    32
  0
VERTEX
  8
FORM
  5
1454
 10
17.2771
 20
2.99390
 30
0.000000
  70
    32
  0
VERTEX
  8
FORM
  5
1455
 10
17.2779
 20
2.99615
 30
0.000000
  70
    32
  0
VERTEX
  8
FORM
  5
1456
 10
17.2786
 20
2.99838
 30
0.000000
  70
    32
  0
VERTEX
  8
FORM
  5
1457
 10
17.2793
 20
3.00062
 30
0.000000
  70
    32
  0
VERTEX
  8
FORM
  5
1458
 10
17.2800
 20
3.00284
 30
0.000000
  70
    32
  0
VERTEX
  8
FORM
  5
1459
 10
17.2805
 20
3.00504
 30
0.000000
  70
    32
  0
VERTEX
  8
FORM
  5
145A
 10
17.2810
 20
3.00721
 30
0.000000
  70
    32
  0
VERTEX
  8
FORM
  5
145B
 10
17.2815
 20
3.00936
 30
0.000000
  70
    32
  0
VERTEX
  8
FORM
  5
145C
 10
17.2819
 20
3.01148
 30
0.000000
  70
    32
  0
VERTEX
  8
FORM
  5
145D
 10
17.2822
 20
3.01356
 30
0.000000
  70
    32
  0
VERTEX
  8
FORM
  5
145E
 10
17.2825
 20
3.01559
 30
0.000000
  70
    32
  0
VERTEX
  8
FORM
  5
145F
 10
17.2827
 20
3.01757
 30
0.000000
  70
    32
  0
VERTEX
  8
FORM
  5
1460
 10
17.2828
 20
3.01950
 30
0.000000
  70
    32
  0
VERTEX
  8
FORM
  5
1461
 10
17.2829
 20
3.02137
 30
0.000000
  70
    32
  0
VERTEX
  8
FORM
  5
1462
 10
17.2829
 20
3.02318
 30
0.000000
  70
    32
  0
VERTEX
  8
FORM
  5
1463
 10
17.2829
 20
3.02493
 30
0.000000
  70
    32
  0
VERTEX
  8
FORM
  5
1464
 10
17.2828
 20
3.02660
 30
0.000000
  70
    32
  0
VERTEX
  8
FORM
  5
1465
 10
17.2826
 20
3.02819
 30
0.000000
  70
    32
  0
VERTEX
  8
FORM
  5
1466
 10
17.2823
 20
3.02971
 30
0.000000
  70
    32
  0
VERTEX
  8
FORM
  5
1467
 10
17.2820
 20
3.03114
 30
0.000000
  70
    32
  0
VERTEX
  8
FORM
  5
1468
 10
17.2816
 20
3.03249
 30
0.000000
  70
    32
  0
VERTEX
  8
FORM
  5
1469
 10
17.2812
 20
3.03375
 30
0.000000
  70
    32
  0
VERTEX
  8
FORM
  5
146A
 10
17.2807
 20
3.03492
 30
0.000000
  70
    32
  0
VERTEX
  8
FORM
  5
146B
 10
17.2801
 20
3.03599
 30
0.000000
  70
    32
  0
VERTEX
  8
FORM
  5
146C
 10
17.2795
 20
3.03696
 30
0.000000
  70
    32
  0
VERTEX
  8
FORM
  5
146D
 10
17.2789
 20
3.03783
 30
0.000000
  70
    32
  0
VERTEX
  8
FORM
  5
146E
 10
17.2781
 20
3.03860
 30
0.000000
  70
    32
  0
VERTEX
  8
FORM
  5
146F
 10
17.2773
 20
3.03927
 30
0.000000
  70
    32
  0
VERTEX
  8
FORM
  5
1470
 10
17.2765
 20
3.03983
 30
0.000000
  70
    32
  0
VERTEX
  8
FORM
  5
1471
 10
17.2756
 20
3.04028
 30
0.000000
  70
    32
  0
SEQEND
  8
FORM
  5
1472
  0
ARC
  5
1243
  8
FORM
 62
     7
 10
17.31969472840197
 20
2.8767429643067852
 30
0.0
 40
0.2199177503197187
 50
85.485448269952457
 51
155.5006785655419
  0
TEXT
  5
1244
  8
FORM
 62
     7
 10
16.545907219234731
 20
1.726726372181332
 30
0.0
 40
0.0861538460965367
  1
R2-D2 BUILDERS CLUB
  0
ARC
  5
1245
  8
FORM
 10
0.7499999996674376
 20
0.7499999996674092
 30
0.0
 40
0.1538461537438154
 50
180.0
 51
270.0
  0
ARC
  5
1246
  8
FORM
 10
0.7499999996674376
 20
0.7499999996674092
 30
0.0
 40
0.3076923074876307
 50
180.0
 51
270.0
  0
ARC
  5
1247
  8
FORM
 10
0.7499999996674376
 20
0.7499999996674092
 30
0.0
 40
0.3461538459235846
 50
180.0
 51
270.0
  0
ARC
  5
1248
  8
FORM
 10
0.7499999996674376
 20
0.7499999996674092
 30
0.0
 40
0.4999999996674
 50
180.0
 51
270.0
  0
ARC
  5
1249
  8
FORM
 10
0.7499999996674376
 20
15.153846144098431
 30
0.0
 40
0.4999999996674
 50
90.0
 51
180.0
  0
ARC
  5
124A
  8
FORM
 10
0.7499999996674376
 20
15.153846144098431
 30
0.0
 40
0.3461538459235846
 50
90.0
 51
180.0
  0
ARC
  5
124B
  8
FORM
 10
0.7499999996674376
 20
15.153846144098431
 30
0.0
 40
0.3076923074876307
 50
90.0
 51
180.0
  0
ARC
  5
124C
  8
FORM
 10
0.7499999996674376
 20
15.153846144098431
 30
0.0
 40
0.1538461537438154
 50
90.0
 51
180.0
  0
ARC
  5
124D
  8
FORM
 10
21.249999986363441
 20
15.153846144098431
 30
0.0
 40
0.3076923074876307
 50
0.0
 51
90.0
  0
ARC
  5
124E
  8
FORM
 10
21.249999986363441
 20
15.153846144098431
 30
0.0
 40
0.3461538459235846
 50
0.0
 51
90.0
  0
ARC
  5
124F
  8
FORM
 10
21.249999986363441
 20
15.153846144098431
 30
0.0
 40
0.4999999996674
 50
0.0
 51
90.0
  0
ARC
  5
1250
  8
FORM
 10
21.249999986363441
 20
15.153846144098431
 30
0.0
 40
0.1538461537438154
 50
0.0
 51
90.0
  0
ARC
  5
1251
  8
FORM
 10
21.249999986363441
 20
0.7499999996674092
 30
0.0
 40
0.4999999996674
 50
270.0
 51
0.0
  0
ARC
  5
1252
  8
FORM
 10
21.249999986363441
 20
0.7499999996674092
 30
0.0
 40
0.3461538459235846
 50
270.0
 51
0.0
  0
ARC
  5
1253
  8
FORM
 10
21.249999986363441
 20
0.7499999996674092
 30
0.0
 40
0.3076923074876307
 50
270.0
 51
0.0
  0
ARC
  5
1254
  8
FORM
 10
21.249999986363441
 20
0.7499999996674092
 30
0.0
 40
0.1538461537438154
 50
270.0
 51
0.0
  0
LINE
  5
1255
  8
FORM
 10
21.249999986363441
 20
0.4423076921797886
 30
0.0
 11
0.7499999996674376
 21
0.442307692179778
 31
0.0
  0
LINE
  5
1256
  8
FORM
 10
21.249999986363441
 20
0.4038461537438352
 30
0.0
 11
0.7499999996674376
 21
0.4038461537438245
 31
0.0
  0
LINE
  5
1257
  8
FORM
 10
21.249999986363441
 20
0.2500000000000071
 30
0.0
 11
0.7499999996674376
 21
0.25
 31
0.0
  0
LINE
  5
1258
  8
FORM
 10
21.55769229385108
 20
0.7499999996674092
 30
0.0
 11
21.55769229385108
 21
15.153846144098431
 31
0.0
  0
LINE
  5
1259
  8
FORM
 10
21.59615383228703
 20
0.7499999996674092
 30
0.0
 11
21.59615383228703
 21
15.153846144098431
 31
0.0
  0
LINE
  5
125A
  8
FORM
 10
21.74999998603084
 20
0.7499999996674092
 30
0.0
 11
21.74999998603084
 21
15.153846144098431
 31
0.0
  0
LINE
  5
125B
  8
FORM
 10
21.249999986363441
 20
15.46153845158606
 30
0.0
 11
0.7499999996674376
 21
15.46153845158606
 31
0.0
  0
LINE
  5
125C
  8
FORM
 10
21.249999986363441
 20
15.499999990022021
 30
0.0
 11
0.7499999996674376
 21
15.499999990022021
 31
0.0
  0
LINE
  5
125D
  8
FORM
 10
21.249999986363441
 20
15.653846143765829
 30
0.0
 11
0.7499999996674376
 21
15.653846143765829
 31
0.0
  0
LINE
  5
125E
  8
FORM
 10
0.4423076921798029
 20
0.7499999996674092
 30
0.0
 11
0.4423076921798029
 21
15.153846144098431
 31
0.0
  0
LINE
  5
125F
  8
FORM
 10
0.4038461537438565
 20
0.7499999996674092
 30
0.0
 11
0.4038461537438565
 21
15.153846144098431
 31
0.0
  0
LINE
  5
1260
  8
FORM
 10
0.25
 20
0.7499999996674092
 30
0.0
 11
0.2500000000000426
 21
15.153846144098431
 31
0.0
  0
LINE
  5
1261
  8
FORM
  6
CONTINUOUS
 10
16.703251912464879
 20
0.7499999996674092
 30
0.0
 11
21.02491344805162
 21
0.7499999996674092
 31
0.0
  0
LINE
  5
1262
  8
FORM
  6
CONTINUOUS
 10
21.249999986363441
 20
3.1359173057725931
 30
0.0
 11
21.249999986363441
 21
0.9750865379792159
 31
0.0
  0
ARC
  5
1263
  8
FORM
  6
CONTINUOUS
 10
21.02491344805162
 20
0.9750865379792159
 30
0.0
 40
0.2250865383118096
 50
270.0
 51
0.0
  0
ARC
  5
1264
  8
FORM
  6
CONTINUOUS
 10
21.02491344805162
 20
3.1359173057725931
 30
0.0
 40
0.2250865383118096
 50
359.99999999999989
 51
90.0
  0
ARC
  5
1265
  8
FORM
  6
CONTINUOUS
 10
16.703251912464879
 20
0.9750865379792159
 30
0.0
 40
0.2250865383118096
 50
180.0
 51
270.0
  0
ARC
  5
1266
  8
FORM
  6
CONTINUOUS
 10
16.703251912464879
 20
3.1359173057725931
 30
0.0
 40
0.2250865383118096
 50
90.0
 51
180.0
  0
LINE
  5
13AB
  8
0
 10
0.7499999996674376
 20
0.7499999996674092
 30
0.0
 11
0.7499999996674376
 21
1.7499999996674089
 31
0.0
  0
LINE
  5
13AC
  8
0
 10
0.7499999996674376
 20
0.8749999996674091
 30
0.0
 11
0.8749999996674375
 21
0.8749999996674091
 31
0.0
  0
LINE
  5
13AD
  8
0
 10
0.7499999996674376
 20
0.9999999996674091
 30
0.0
 11
0.9999999996674375
 21
0.9999999996674091
 31
0.0
  0
LINE
  5
13AE
  8
0
 10
0.7499999996674376
 20
1.1249999996674089
 30
0.0
 11
0.8749999996674375
 21
1.1249999996674089
 31
0.0
  0
LINE
  5
13AF
  8
0
 10
0.7499999996674376
 20
1.2499999996674089
 30
0.0
 11
1.1249999996674369
 21
1.2499999996674089
 31
0.0
  0
LINE
  5
13B0
  8
0
 10
0.7499999996674376
 20
1.3749999996674089
 30
0.0
 11
0.8749999996674375
 21
1.3749999996674089
 31
0.0
  0
LINE
  5
13B1
  8
0
 10
0.7499999996674376
 20
1.4999999996674089
 30
0.0
 11
0.9999999996674375
 21
1.4999999996674089
 31
0.0
  0
LINE
  5
13B2
  8
0
 10
0.7499999996674376
 20
1.6249999996674089
 30
0.0
 11
0.8749999996674375
 21
1.6249999996674089
 31
0.0
  0
LINE
  5
13B3
  8
0
 10
0.7499999996674376
 20
1.7499999996674089
 30
0.0
 11
1.1249999996674369
 21
1.7499999996674089
 31
0.0
  0
LINE
  5
13B4
  8
0
 10
0.7499999996674376
 20
0.7499999996674092
 30
0.0
 11
1.1249999996674369
 21
0.7499999996674092
 31
0.0
  0
TEXT
  5
13B5
  8
0
 10
1.1742687732938739
 20
1.216959438666926
 30
0.0
 40
0.0625
  1
1/2"
  0
TEXT
  5
13B6
  8
0
 10
0.9242687732938748
 20
1.091959438666926
 30
0.0
 40
0.0625
  1
3/8"
  0
TEXT
  5
13B7
  8
0
 10
1.0492687732938739
 20
0.966959438666926
 30
0.0
 40
0.0625
  1
1/4"
  0
TEXT
  5
13B8
  8
0
 10
0.9242687732938748
 20
0.841959438666926
 30
0.0
 40
0.0625
  1
1/8"
  0
TEXT
  5
13B9
  8
0
 10
0.9242687732938748
 20
1.341959438666926
 30
0.0
 40
0.0625
  1
5/8"
  0
TEXT
  5
13BA
  8
0
 10
1.0492687732938739
 20
1.466959438666926
 30
0.0
 40
0.0625
  1
3/4"
  0
TEXT
  5
13BB
  8
0
 10
0.9242687732938748
 20
1.591959438666926
 30
0.0
 40
0.0625
  1
7/8"
  0
TEXT
  5
13BC
  8
0
 10
1.1742687732938739
 20
1.716959438666926
 30
0.0
 40
0.0625
  1
1"
  0
ENDSEC
  0
EOF
