  0
SECTION
  2
HEADER
  9
$ACADVER
  1
AC1009
  9
$INSBASE
 10
0.0
 20
0.0
 30
0.0
  9
$EXTMIN
 10
-0.0007103172208076
 20
-0.0000979987746632
 30
-0.0000000349181948
  9
$EXTMAX
 10
22.000299600233991
 20
17.000213468611729
 30
0.0000000814935746
  9
$LIMMIN
 10
0.0
 20
0.0
  9
$LIMMAX
 10
12.0
 20
9.0
  9
$ORTHOMODE
 70
     0
  9
$REGENMODE
 70
     1
  9
$FILLMODE
 70
     1
  9
$QTEXTMODE
 70
     0
  9
$MIRRTEXT
 70
     1
  9
$DRAGMODE
 70
     2
  9
$LTSCALE
 40
1.0
  9
$OSMODE
 70
    39
  9
$ATTMODE
 70
     1
  9
$TEXTSIZE
 40
0.375
  9
$TRACEWID
 40
0.05
  9
$TEXTSTYLE
  7
STANDARD
  9
$CLAYER
  8
0
  9
$CELTYPE
  6
BYLAYER
  9
$CECOLOR
 62
   256
  9
$DIMSCALE
 40
1.0
  9
$DIMASZ
 40
0.25
  9
$DIMEXO
 40
0.0625
  9
$DIMDLI
 40
1.0
  9
$DIMRND
 40
0.0
  9
$DIMDLE
 40
0.0
  9
$DIMEXE
 40
0.0625
  9
$DIMTP
 40
0.0
  9
$DIMTM
 40
0.0
  9
$DIMTXT
 40
0.25
  9
$DIMCEN
 40
0.0
  9
$DIMTSZ
 40
0.0
  9
$DIMTOL
 70
     0
  9
$DIMLIM
 70
     0
  9
$DIMTIH
 70
     1
  9
$DIMTOH
 70
     1
  9
$DIMSE1
 70
     0
  9
$DIMSE2
 70
     0
  9
$DIMTAD
 70
     0
  9
$DIMZIN
 70
     0
  9
$DIMBLK
  1

  9
$DIMASO
 70
     1
  9
$DIMSHO
 70
     1
  9
$DIMPOST
  1

  9
$DIMAPOST
  1

  9
$DIMALT
 70
     0
  9
$DIMALTD
 70
     2
  9
$DIMALTF
 40
25.399999999999999
  9
$DIMLFAC
 40
1.0
  9
$DIMTOFL
 70
     0
  9
$DIMTVP
 40
0.0
  9
$DIMTIX
 70
     0
  9
$DIMSOXD
 70
     0
  9
$DIMSAH
 70
     0
  9
$DIMBLK1
  1

  9
$DIMBLK2
  1

  9
$DIMSTYLE
  2
STANDARD
  9
$DIMCLRD
 70
   256
  9
$DIMCLRE
 70
   256
  9
$DIMCLRT
 70
   256
  9
$DIMTFAC
 40
1.0
  9
$DIMGAP
 40
0.0625
  9
$LUNITS
 70
     2
  9
$LUPREC
 70
     8
  9
$SKETCHINC
 40
0.1
  9
$FILLETRAD
 40
0.0
  9
$AUNITS
 70
     0
  9
$AUPREC
 70
     8
  9
$MENU
  1
.
  9
$ELEVATION
 40
0.0
  9
$PELEVATION
 40
0.0
  9
$THICKNESS
 40
0.0
  9
$LIMCHECK
 70
     0
  9
$BLIPMODE
 70
     0
  9
$CHAMFERA
 40
0.0
  9
$CHAMFERB
 40
0.0
  9
$SKPOLY
 70
     0
  9
$TDCREATE
 40
2452227.939733333
  9
$TDUPDATE
 40
2453473.617272709
  9
$TDINDWG
 40
2.2069932407000001
  9
$TDUSRTIMER
 40
2.2069926620000002
  9
$USRTIMER
 70
     1
  9
$ANGBASE
 50
0.0
  9
$ANGDIR
 70
     0
  9
$PDMODE
 70
     0
  9
$PDSIZE
 40
0.0
  9
$PLINEWID
 40
0.0
  9
$COORDS
 70
     0
  9
$SPLFRAME
 70
     0
  9
$SPLINETYPE
 70
     6
  9
$SPLINESEGS
 70
     8
  9
$ATTDIA
 70
     0
  9
$ATTREQ
 70
     1
  9
$HANDLING
 70
     1
  9
$HANDSEED
  5
1985
  9
$SURFTAB1
 70
     6
  9
$SURFTAB2
 70
     6
  9
$SURFTYPE
 70
     6
  9
$SURFU
 70
     6
  9
$SURFV
 70
     6
  9
$UCSNAME
  2

  9
$UCSORG
 10
0.0
 20
0.0
 30
0.0
  9
$UCSXDIR
 10
1.0
 20
0.0
 30
0.0
  9
$UCSYDIR
 10
0.0
 20
1.0
 30
0.0
  9
$PUCSNAME
  2

  9
$PUCSORG
 10
0.0
 20
0.0
 30
0.0
  9
$PUCSXDIR
 10
1.0
 20
0.0
 30
0.0
  9
$PUCSYDIR
 10
0.0
 20
1.0
 30
0.0
  9
$USERI1
 70
     0
  9
$USERI2
 70
     0
  9
$USERI3
 70
     0
  9
$USERI4
 70
     0
  9
$USERI5
 70
     0
  9
$USERR1
 40
0.0
  9
$USERR2
 40
0.0
  9
$USERR3
 40
0.0
  9
$USERR4
 40
0.0
  9
$USERR5
 40
0.0
  9
$WORLDVIEW
 70
     1
  9
$SHADEDGE
 70
     3
  9
$SHADEDIF
 70
    70
  9
$TILEMODE
 70
     1
  9
$MAXACTVP
 70
    64
  9
$PLIMCHECK
 70
     0
  9
$PEXTMIN
 10
1.0000000000000000E+020
 20
1.0000000000000000E+020
 30
1.0000000000000000E+020
  9
$PEXTMAX
 10
-1.0000000000000000E+020
 20
-1.0000000000000000E+020
 30
-1.0000000000000000E+020
  9
$PLIMMIN
 10
0.0
 20
0.0
  9
$PLIMMAX
 10
12.0
 20
9.0
  9
$UNITMODE
 70
     0
  9
$VISRETAIN
 70
     1
  9
$PLINEGEN
 70
     0
  9
$PSLTSCALE
 70
     1
  0
ENDSEC
  0
SECTION
  2
TABLES
  0
TABLE
  2
VPORT
 70
     6
  0
VPORT
  2
*ACTIVE
 70
     0
 10
0.0
 20
0.0
 11
1.0
 21
1.0
 12
10.99979464150659
 22
8.5000577349185331
 13
0.0
 23
0.0
 14
0.5
 24
0.5
 15
0.5
 25
0.5
 16
0.0
 26
0.0
 36
1.0
 17
0.0
 27
0.0
 37
0.0
 40
17.217336720161541
 41
2.1727078891257992
 42
50.0
 43
0.0
 44
0.0
 50
0.0
 51
0.0
 71
     0
 72
 20000
 73
     1
 74
     2
 75
     0
 76
     0
 77
     0
 78
     1
  0
ENDTAB
  0
TABLE
  2
LTYPE
 70
     3
  0
LTYPE
  2
CONTINUOUS
 70
     0
  3
Solid line
 72
    65
 73
     0
 40
0.0
  0
LTYPE
  2
HIDDEN
 70
     0
  3
Hidden __ __ __ __ __ __ __ __ __ __ __ __ __ _
 72
    65
 73
     2
 40
0.375
 49
0.25
 49
-0.125
  0
LTYPE
  2
PHANTOM2
 70
     0
  3
Phantom (.5x) ___ _ _ ___ _ _ ___ _ _ ___ _ _
 72
    65
 73
     6
 40
1.25
 49
0.625
 49
-0.125
 49
0.125
 49
-0.125
 49
0.125
 49
-0.125
  0
ENDTAB
  0
TABLE
  2
LAYER
 70
     6
  0
LAYER
  2
0
 70
     0
 62
     7
  6
CONTINUOUS
  0
LAYER
  2
FORM
 70
     0
 62
     5
  6
CONTINUOUS
  0
LAYER
  2
DIMENSIONS
 70
     0
 62
     1
  6
CONTINUOUS
  0
LAYER
  2
BODY_-_COIN_RETURN_PANEL_-
 70
     0
 62
     7
  6
CONTINUOUS
  0
LAYER
  2
DEFPOINTS
 70
     0
 62
     7
  6
CONTINUOUS
  0
ENDTAB
  0
TABLE
  2
STYLE
 70
     1
  0
STYLE
  2
STANDARD
 70
     0
 40
0.0
 41
1.0
 50
0.0
 71
     0
 42
0.375
  3
simplex.shx
  4

  0
ENDTAB
  0
TABLE
  2
VIEW
 70
     0
  0
ENDTAB
  0
TABLE
  2
UCS
 70
     0
  0
ENDTAB
  0
TABLE
  2
APPID
 70
     4
  0
APPID
  2
ACAD
 70
     0
  0
APPID
  2
DCO15
 70
     0
  0
APPID
  2
ACAECLAYERSTANDARD
 70
     0
  0
APPID
  2
ACAD_DSTYLE_DIMTEXT_FILL
 70
     0
  0
ENDTAB
  0
TABLE
  2
DIMSTYLE
 70
     1
  0
DIMSTYLE
  2
STANDARD
 70
     0
  3

  4

  5

  6

  7

 40
1.0
 41
0.25
 42
0.0625
 43
1.0
 44
0.0625
 45
0.0
 46
0.0
 47
0.0
 48
0.0
140
0.25
141
0.0
142
0.0
143
25.399999999999999
144
1.0
145
0.0
146
1.0
147
0.0625
 71
     0
 72
     0
 73
     1
 74
     1
 75
     0
 76
     0
 77
     0
 78
     0
170
     0
171
     2
172
     0
173
     0
174
     0
175
     0
176
   256
177
   256
178
   256
  0
ENDTAB
  0
ENDSEC
  0
SECTION
  2
BLOCKS
  0
BLOCK
  8
0
  2
$MODEL_SPACE
 70
     0
 10
0.0
 20
0.0
 30
0.0
  3
$MODEL_SPACE
  1

  0
ENDBLK
  5
9
  8
0
  0
BLOCK
 67
     1
  8
0
  2
$PAPER_SPACE
 70
     0
 10
0.0
 20
0.0
 30
0.0
  3
$PAPER_SPACE
  1

  0
ENDBLK
  5
E
 67
     1
  8
0
  0
ENDSEC
  0
SECTION
  2
ENTITIES
  0
LINE
  5
B28
  8
BODY_-_COIN_RETURN_PANEL_-
 10
5.7042344230846851
 20
7.9586340307222718
 30
0.0
 11
5.6642344230846779
 21
7.9586340307222718
 31
0.0
  0
LINE
  5
B29
  8
BODY_-_COIN_RETURN_PANEL_-
 10
5.7042344230846851
 20
5.2086340307222718
 30
0.0
 11
5.6642344230846779
 21
5.2086340307222718
 31
0.0
  0
LINE
  5
B2A
  8
BODY_-_COIN_RETURN_PANEL_-
 10
5.7042344230846851
 20
7.4586340307222718
 30
0.0
 11
5.4542344230846851
 21
7.4586340307222718
 31
0.0
  0
LINE
  5
B2B
  8
BODY_-_COIN_RETURN_PANEL_-
 10
5.7042344230846851
 20
5.358634030722274
 30
0.0
 11
5.4542344230846851
 21
5.3586340307222731
 31
0.0
  0
LINE
  5
B2C
  8
BODY_-_COIN_RETURN_PANEL_-
 10
5.7042344230846851
 20
7.9586340307222718
 30
0.0
 11
5.7042344230846851
 21
5.2086340307222718
 31
0.0
  0
LINE
  5
B30
  8
BODY_-_COIN_RETURN_PANEL_-
 10
5.4542344230846851
 20
7.4586340307222718
 30
0.0
 11
4.7442344230846913
 21
7.3336340307222692
 31
0.0
  0
LINE
  5
B31
  8
BODY_-_COIN_RETURN_PANEL_-
 10
4.7442344230846913
 20
7.3336340307222692
 30
0.0
 11
5.4542344230846851
 21
5.3586340307222731
 31
0.0
  0
LINE
  5
B32
  8
BODY_-_COIN_RETURN_PANEL_-
 10
5.6642344230846779
 20
7.9586340307222718
 30
0.0
 11
5.6642344230846779
 21
7.498634030722271
 31
0.0
  0
LINE
  5
B33
  8
BODY_-_COIN_RETURN_PANEL_-
 10
5.6642344230846779
 20
7.498634030722271
 30
0.0
 11
5.450740166545855
 21
7.498634030722271
 31
0.0
  0
LINE
  5
B34
  8
BODY_-_COIN_RETURN_PANEL_-
 10
5.450740166545855
 20
7.498634030722271
 30
0.0
 11
4.6905265521608177
 21
7.36479360565448
 31
0.0
  0
LINE
  5
B35
  8
BODY_-_COIN_RETURN_PANEL_-
 10
4.6905265521608177
 20
7.36479360565448
 30
0.0
 11
5.4261079689718912
 21
5.318634030722273
 31
0.0
  0
LINE
  5
B36
  8
BODY_-_COIN_RETURN_PANEL_-
 10
5.6642344230846779
 20
5.318634030722273
 30
0.0
 11
5.4261079689718912
 21
5.318634030722273
 31
0.0
  0
LINE
  5
B37
  8
BODY_-_COIN_RETURN_PANEL_-
 10
5.6642344230846779
 20
5.318634030722273
 30
0.0
 11
5.6642344230846779
 21
5.2086340307222718
 31
0.0
  0
LINE
  5
B67
  8
DIMENSIONS
 10
4.7442344230846913
 20
7.3961340307222692
 30
0.0
 11
4.7442344230846913
 21
10.271134030722269
 31
0.0
  0
LINE
  5
B68
  8
DIMENSIONS
 10
5.7042344230846851
 20
8.0211340307222727
 30
0.0
 11
5.7042344230846851
 21
10.271134030722269
 31
0.0
  0
LINE
  5
B69
  8
DIMENSIONS
 10
4.4942344230846913
 20
10.208634030722269
 30
0.0
 11
4.2442344230846842
 21
10.208634030722269
 31
0.0
  0
LINE
  5
B6A
  8
DIMENSIONS
 10
5.9542344230846851
 20
10.208634030722269
 30
0.0
 11
6.2042344230846851
 21
10.208634030722269
 31
0.0
  0
SOLID
  5
B6B
  8
DIMENSIONS
 10
4.4942344230846913
 20
10.250300697388941
 30
0.0
 11
4.4942344230846913
 21
10.1669673640556
 31
0.0
 12
4.7442344230846913
 22
10.208634030722269
 32
0.0
 13
4.7442344230846913
 23
10.208634030722269
 33
0.0
  0
SOLID
  5
B6C
  8
DIMENSIONS
 10
5.9542344230846851
 20
10.250300697388941
 30
0.0
 11
5.9542344230846851
 21
10.1669673640556
 31
0.0
 12
5.7042344230846851
 22
10.208634030722269
 32
0.0
 13
5.7042344230846851
 23
10.208634030722269
 33
0.0
  0
LINE
  5
B6E
  8
DIMENSIONS
 10
5.4542344230846851
 20
7.5211340307222718
 30
0.0
 11
5.4542344230846851
 21
9.5211340307222727
 31
0.0
  0
LINE
  5
B6F
  8
DIMENSIONS
 10
5.7042344230846851
 20
8.0211340307222727
 30
0.0
 11
5.7042344230846851
 21
9.5211340307222727
 31
0.0
  0
LINE
  5
B70
  8
DIMENSIONS
 10
5.2042344230846851
 20
9.4586340307222727
 30
0.0
 11
4.9542344230846851
 21
9.4586340307222727
 31
0.0
  0
LINE
  5
B71
  8
DIMENSIONS
 10
5.9542344230846851
 20
9.4586340307222727
 30
0.0
 11
6.2042344230846851
 21
9.4586340307222727
 31
0.0
  0
SOLID
  5
B72
  8
DIMENSIONS
 10
5.2042344230846851
 20
9.5003006973889388
 30
0.0
 11
5.2042344230846851
 21
9.4169673640556049
 31
0.0
 12
5.4542344230846851
 22
9.4586340307222727
 32
0.0
 13
5.4542344230846851
 23
9.4586340307222727
 33
0.0
  0
SOLID
  5
B73
  8
DIMENSIONS
 10
5.9542344230846851
 20
9.5003006973889388
 30
0.0
 11
5.9542344230846851
 21
9.4169673640556049
 31
0.0
 12
5.7042344230846851
 22
9.4586340307222727
 32
0.0
 13
5.7042344230846851
 23
9.4586340307222727
 33
0.0
  0
LINE
  5
B75
  8
DIMENSIONS
 10
5.6642344230846779
 20
8.0211340307222727
 30
0.0
 11
5.6642344230846779
 21
8.7711340307222727
 31
0.0
  0
LINE
  5
B76
  8
DIMENSIONS
 10
5.7042344230846851
 20
8.0211340307222727
 30
0.0
 11
5.7042344230846851
 21
8.7711340307222727
 31
0.0
  0
LINE
  5
B77
  8
DIMENSIONS
 10
5.4142344230846779
 20
8.7086340307222727
 30
0.0
 11
5.1642344230846779
 21
8.7086340307222727
 31
0.0
  0
LINE
  5
B78
  8
DIMENSIONS
 10
5.9542344230846851
 20
8.7086340307222727
 30
0.0
 11
6.2042344230846851
 21
8.7086340307222727
 31
0.0
  0
SOLID
  5
B79
  8
DIMENSIONS
 10
5.4142344230846779
 20
8.7503006973889388
 30
0.0
 11
5.4142344230846779
 21
8.6669673640556049
 31
0.0
 12
5.6642344230846779
 22
8.7086340307222727
 32
0.0
 13
5.6642344230846779
 23
8.7086340307222727
 33
0.0
  0
SOLID
  5
B7A
  8
DIMENSIONS
 10
5.9542344230846851
 20
8.7503006973889388
 30
0.0
 11
5.9542344230846851
 21
8.6669673640556049
 31
0.0
 12
5.7042344230846851
 22
8.7086340307222727
 32
0.0
 13
5.7042344230846851
 23
8.7086340307222727
 33
0.0
  0
TEXT
  5
B7C
  8
DIMENSIONS
 10
6.2667344230846851
 20
8.5836340307222727
 30
0.0
 40
0.25
  1
0.040 THICK
  0
TEXT
  5
B7D
  8
DIMENSIONS
 10
6.2667344230846851
 20
9.3336340307222727
 30
0.0
 40
0.25
  1
0.250 INSIDE
  0
TEXT
  5
B7E
  8
DIMENSIONS
 10
6.2667344230846851
 20
10.083634030722269
 30
0.0
 40
0.25
  1
0.960 INSIDE
  0
LINE
  5
BA1
  8
DIMENSIONS
 10
4.8067344230846913
 20
7.3336340307222692
 30
0.0
 11
6.5167344230846851
 21
7.3336340307222692
 31
0.0
  0
LINE
  5
BA2
  8
DIMENSIONS
 10
5.7667344230846851
 20
7.4586340307222718
 30
0.0
 11
6.5167344230846851
 21
7.4586340307222718
 31
0.0
  0
LINE
  5
BA3
  8
DIMENSIONS
 10
6.4542344230846851
 20
7.0836340307222692
 30
0.0
 11
6.4542344230846851
 21
6.8336340307222692
 31
0.0
  0
LINE
  5
BA4
  8
DIMENSIONS
 10
6.4542344230846851
 20
7.7086340307222718
 30
0.0
 11
6.4542344230846851
 21
8.0354229534308814
 31
0.0
  0
SOLID
  5
BA6
  8
DIMENSIONS
 10
6.4125677564180128
 20
7.0836340307222692
 30
0.0
 11
6.4959010897513556
 21
7.0836340307222692
 31
0.0
 12
6.4542344230846851
 22
7.3336340307222692
 32
0.0
 13
6.4542344230846851
 23
7.3336340307222692
 33
0.0
  0
SOLID
  5
BA7
  8
DIMENSIONS
 10
6.4125677564180128
 20
7.7086340307222718
 30
0.0
 11
6.4959010897513556
 21
7.7086340307222718
 31
0.0
 12
6.4542344230846851
 22
7.4586340307222718
 32
0.0
 13
6.4542344230846851
 23
7.4586340307222718
 33
0.0
  0
LINE
  5
BA9
  8
DIMENSIONS
 10
5.7667344230846851
 20
7.4586340307222718
 30
0.0
 11
7.2667344230846851
 21
7.4586340307222718
 31
0.0
  0
LINE
  5
BAA
  8
DIMENSIONS
 10
5.7667344230846851
 20
5.358634030722274
 30
0.0
 11
7.2667344230846851
 21
5.3586340307222731
 31
0.0
  0
LINE
  5
BAB
  8
DIMENSIONS
 10
7.2042344230846851
 20
7.2086340307222718
 30
0.0
 11
7.2042344230846851
 21
6.3057735216325517
 31
0.0
  0
LINE
  5
BAC
  8
DIMENSIONS
 10
7.2042344230846851
 20
5.6086340307222731
 30
0.0
 11
7.2042344230846851
 21
5.9307735216325517
 31
0.0
  0
SOLID
  5
BAD
  8
DIMENSIONS
 10
7.1625677564180128
 20
7.2086340307222718
 30
0.0
 11
7.2459010897513556
 21
7.2086340307222718
 31
0.0
 12
7.2042344230846851
 22
7.4586340307222718
 32
0.0
 13
7.2042344230846851
 23
7.4586340307222718
 33
0.0
  0
SOLID
  5
BAE
  8
DIMENSIONS
 10
7.1625677564180128
 20
5.6086340307222731
 30
0.0
 11
7.2459010897513556
 21
5.6086340307222731
 31
0.0
 12
7.2042344230846851
 22
5.3586340307222731
 32
0.0
 13
7.2042344230846851
 23
5.3586340307222731
 33
0.0
  0
TEXT
  5
BB0
  8
DIMENSIONS
 10
6.7280439468942026
 20
5.9932735216325543
 30
0.0
 40
0.25
  1
2.100
  0
TEXT
  5
BB1
  8
DIMENSIONS
 10
5.9373542529522894
 20
6.5013916948988628
 30
0.0
 40
0.25
  1
0.125
  0
LINE
  5
BC1
  8
DIMENSIONS
 10
5.7667344230846851
 20
5.358634030722274
 30
0.0
 11
7.2667344230846851
 21
5.3586340307222731
 31
0.0
  0
LINE
  5
BC2
  8
DIMENSIONS
 10
5.7667344230846851
 20
5.2086340307222718
 30
0.0
 11
7.2667344230846851
 21
5.2086340307222718
 31
0.0
  0
LINE
  5
BC3
  8
DIMENSIONS
 10
7.2042344230846851
 20
5.6086340307222731
 30
0.0
 11
7.2042344230846851
 21
5.8586340307222731
 31
0.0
  0
LINE
  5
BC4
  8
DIMENSIONS
 10
7.2042344230846851
 20
4.9586340307222718
 30
0.0
 11
7.2042344230846851
 21
4.7086340307222718
 31
0.0
  0
LINE
  5
BC5
  8
DIMENSIONS
 10
7.4542344230846851
 20
4.7086340307222718
 30
0.0
 11
7.2042344230846851
 21
4.7086340307222718
 31
0.0
  0
SOLID
  5
BC6
  8
DIMENSIONS
 10
7.1625677564180128
 20
5.6086340307222731
 30
0.0
 11
7.2459010897513556
 21
5.6086340307222731
 31
0.0
 12
7.2042344230846851
 22
5.3586340307222731
 32
0.0
 13
7.2042344230846851
 23
5.3586340307222731
 33
0.0
  0
SOLID
  5
BC7
  8
DIMENSIONS
 10
7.1625677564180128
 20
4.9586340307222718
 30
0.0
 11
7.2459010897513556
 21
4.9586340307222718
 31
0.0
 12
7.2042344230846851
 22
5.2086340307222718
 32
0.0
 13
7.2042344230846851
 23
5.2086340307222718
 33
0.0
  0
TEXT
  5
BC9
  8
DIMENSIONS
 10
7.5403026424881707
 20
4.5836340307222727
 30
0.0
 40
0.25
  1
0.150
  0
LINE
  5
BD8
  8
DIMENSIONS
 10
5.7667344230846851
 20
7.4586340307222718
 30
0.0
 11
7.2667344230846851
 21
7.4586340307222718
 31
0.0
  0
LINE
  5
BD9
  8
DIMENSIONS
 10
5.7667344230846851
 20
7.9586340307222718
 30
0.0
 11
7.2667344230846851
 21
7.9586340307222718
 31
0.0
  0
LINE
  5
BDA
  8
DIMENSIONS
 10
7.2042344230846851
 20
7.2086340307222718
 30
0.0
 11
7.2042344230846851
 21
6.9586340307222718
 31
0.0
  0
LINE
  5
BDB
  8
DIMENSIONS
 10
7.2042344230846851
 20
8.2086340307222727
 30
0.0
 11
7.2042344230846851
 21
8.4586340307222727
 31
0.0
  0
SOLID
  5
BDC
  8
DIMENSIONS
 10
7.1625677564180128
 20
7.2086340307222718
 30
0.0
 11
7.2459010897513556
 21
7.2086340307222718
 31
0.0
 12
7.2042344230846851
 22
7.4586340307222718
 32
0.0
 13
7.2042344230846851
 23
7.4586340307222718
 33
0.0
  0
SOLID
  5
BDD
  8
DIMENSIONS
 10
7.1625677564180128
 20
8.2086340307222727
 30
0.0
 11
7.2459010897513556
 21
8.2086340307222727
 31
0.0
 12
7.2042344230846851
 22
7.9586340307222718
 32
0.0
 13
7.2042344230846851
 23
7.9586340307222718
 33
0.0
  0
TEXT
  5
BDF
  8
DIMENSIONS
 10
6.7042344230846851
 20
7.5836340307222718
 30
0.0
 40
0.25
  1
0.500
  0
LINE
  5
C23
  8
BODY_-_COIN_RETURN_PANEL_-
 10
4.6929744596778127
 20
7.3579842854487518
 30
0.0
 11
4.70176181999524
 21
7.366771645766172
 31
0.0
  0
LINE
  5
C24
  8
BODY_-_COIN_RETURN_PANEL_-
 10
4.7397198800355929
 20
7.2279530105098848
 30
0.0
 11
4.7709860799882051
 21
7.2592192104624971
 31
0.0
  0
LINE
  5
C25
  8
BODY_-_COIN_RETURN_PANEL_-
 10
4.867017668872605
 20
7.3552507993469032
 30
0.0
 11
4.9163113134321881
 21
7.40454444390648
 31
0.0
  0
LINE
  5
C26
  8
BODY_-_COIN_RETURN_PANEL_-
 10
4.7864653003933588
 20
7.0979217355710196
 30
0.0
 11
4.8177315003459711
 21
7.1291879355236283
 31
0.0
  0
LINE
  5
C27
  8
BODY_-_COIN_RETURN_PANEL_-
 10
5.0815671623095531
 20
7.3930235974872112
 30
0.0
 11
5.1308608068691219
 21
7.442317242046788
 31
0.0
  0
LINE
  5
C28
  8
BODY_-_COIN_RETURN_PANEL_-
 10
4.8332107207511248
 20
6.9678904606321508
 30
0.0
 11
4.8644769207037371
 21
6.9991566605847613
 31
0.0
  0
LINE
  5
C29
  8
BODY_-_COIN_RETURN_PANEL_-
 10
5.6642344230846779
 20
7.7989141629657084
 30
0.0
 11
5.7042344230846851
 21
7.8389141629657093
 31
0.0
  0
LINE
  5
C2A
  8
BODY_-_COIN_RETURN_PANEL_-
 10
5.296116655746502
 20
7.43079639562752
 30
0.0
 11
5.34541030030607
 21
7.480090040187096
 31
0.0
  0
LINE
  5
C2B
  8
BODY_-_COIN_RETURN_PANEL_-
 10
4.8799561411088908
 20
6.8378591856932864
 30
0.0
 11
4.911222341061503
 21
6.8691253856458943
 31
0.0
  0
LINE
  5
C2C
  8
BODY_-_COIN_RETURN_PANEL_-
 10
5.6642344230846779
 20
7.6221374676690701
 30
0.0
 11
5.7042344230846851
 21
7.6621374676690719
 31
0.0
  0
LINE
  5
C2D
  8
BODY_-_COIN_RETURN_PANEL_-
 10
5.5007309861378806
 20
7.4586340307222718
 30
0.0
 11
5.5407309861378868
 21
7.498634030722271
 31
0.0
  0
LINE
  5
C2E
  8
BODY_-_COIN_RETURN_PANEL_-
 10
4.9267015614666709
 20
6.7078279107544194
 30
0.0
 11
4.9579677614192832
 21
6.739094110707029
 31
0.0
  0
LINE
  5
C2F
  8
BODY_-_COIN_RETURN_PANEL_-
 10
5.6775076814345189
 20
7.4586340307222718
 30
0.0
 11
5.7042344230846851
 21
7.4853607723724362
 31
0.0
  0
LINE
  5
C30
  8
BODY_-_COIN_RETURN_PANEL_-
 10
4.9734469818244369
 20
6.5777966358155524
 30
0.0
 11
5.0047131817770492
 21
6.609062835768162
 31
0.0
  0
LINE
  5
C31
  8
BODY_-_COIN_RETURN_PANEL_-
 10
5.0201924021822029
 20
6.4477653608766827
 30
0.0
 11
5.0514586021348151
 21
6.4790315608292941
 31
0.0
  0
LINE
  5
C32
  8
BODY_-_COIN_RETURN_PANEL_-
 10
5.066937822539983
 20
6.3177340859378184
 30
0.0
 11
5.0982040224925811
 21
6.3490002858904271
 31
0.0
  0
LINE
  5
C33
  8
BODY_-_COIN_RETURN_PANEL_-
 10
5.113683242897749
 20
6.1877028109989514
 30
0.0
 11
5.1449494428503613
 21
6.2189690109515601
 31
0.0
  0
LINE
  5
C34
  8
BODY_-_COIN_RETURN_PANEL_-
 10
5.160428663255515
 20
6.0576715360600843
 30
0.0
 11
5.1916948632081272
 21
6.0889377360126948
 31
0.0
  0
LINE
  5
C35
  8
BODY_-_COIN_RETURN_PANEL_-
 10
5.207174083613296
 20
5.9276402611212173
 30
0.0
 11
5.2384402835658932
 21
5.958906461073826
 31
0.0
  0
LINE
  5
C36
  8
BODY_-_COIN_RETURN_PANEL_-
 10
5.2539195039710611
 20
5.7976089861823503
 30
0.0
 11
5.2851857039236734
 21
5.8288751861349608
 31
0.0
  0
LINE
  5
C37
  8
BODY_-_COIN_RETURN_PANEL_-
 10
5.3006649243288271
 20
5.6675777112434833
 30
0.0
 11
5.3319311242814393
 21
5.698843911196092
 31
0.0
  0
LINE
  5
C38
  8
BODY_-_COIN_RETURN_PANEL_-
 10
5.347410344686593
 20
5.5375464363046163
 30
0.0
 11
5.3786765446392053
 21
5.5688126362572268
 31
0.0
  0
LINE
  5
C39
  8
BODY_-_COIN_RETURN_PANEL_-
 10
5.3941557650443741
 20
5.4075151613657511
 30
0.0
 11
5.4254219649969846
 21
5.438781361318358
 31
0.0
  0
LINE
  5
C3A
  8
BODY_-_COIN_RETURN_PANEL_-
 10
5.4820513296975264
 20
5.318634030722273
 30
0.0
 11
5.5220513296975318
 21
5.3586340307222731
 31
0.0
  0
LINE
  5
C3B
  8
BODY_-_COIN_RETURN_PANEL_-
 10
5.6588280249941638
 20
5.318634030722273
 30
0.0
 11
5.6988280249941701
 21
5.358634030722274
 31
0.0
  0
TEXT
  5
CBD
  8
DIMENSIONS
 10
4.7713561179671009
 20
3.4131395790804042
 30
0.0
 40
0.375
  1
SECTION A-A
  0
LINE
  5
CC7
  8
DIMENSIONS
 10
4.7148696540437101
 20
3.300302711886125
 30
0.0
 11
8.5841923988678541
 21
3.300302711886125
 31
0.0
  0
LINE
  5
CC8
  8
DIMENSIONS
 10
4.7148696540437101
 20
3.264460416475333
 30
0.0
 11
8.5841923988678541
 21
3.264460416475333
 31
0.0
  0
TEXT
  5
E0D
  8
FORM
 10
18.645487936697311
 20
2.7501398415763321
 30
0.0
 40
0.211669921875
  1
COIN RETURN
 72
     1
 11
19.688718265938391
 21
2.7501398415763321
 31
0.0
  0
TEXT
  5
E0E
  8
FORM
 10
19.28553746236696
 20
1.9988014036102271
 30
0.0
 40
0.211669921875
  1
BODY
 72
     1
 11
19.688718265938391
 21
1.9988014036102271
 31
0.0
  0
TEXT
  5
EA4
  8
FORM
 10
18.74124337754553
 20
2.3573807235557762
 30
0.0
 40
0.211669921875
  1
REAR RIGHT
 72
     1
 11
19.688718265938391
 21
2.3573807235557762
 31
0.0
  0
TEXT
  5
124F
  8
0
  6
CONTINUOUS
 10
74.557858410656763
 20
15.88071292699196
 30
0.0
 40
0.12
  1
 
 51
7.0
  0
TEXT
  5
1250
  8
0
  6
CONTINUOUS
 10
87.001955176136661
 20
22.943587356723619
 30
0.0
 40
0.24
  1
 
 51
7.0
  0
TEXT
  5
1251
  8
0
  6
CONTINUOUS
 10
96.211720188049938
 20
22.623577370146531
 30
0.0
 40
0.24
  1
 
 51
7.0
  0
TEXT
  5
1252
  8
0
  6
CONTINUOUS
 10
106.01567967248261
 20
5.7609965706192092
 30
0.0
 40
0.24
  1
 
 51
7.0
  0
LINE
  5
130A
  8
0
 10
0.0
 20
0.0
 30
0.0
 11
0.0
 21
17.0
 31
0.0
  0
LINE
  5
130B
  8
0
 10
22.0
 20
0.0
 30
0.0
 11
22.0
 21
17.0
 31
0.0
  0
LINE
  5
130C
  8
0
 10
0.0
 20
0.0
 30
0.0
 11
22.0
 21
0.0
 31
0.0
  0
LINE
  5
130D
  8
0
 10
0.0
 20
17.0
 30
0.0
 11
22.0
 21
17.0
 31
0.0
  0
LINE
  5
13AB
  8
FORM
 10
21.403846140107252
 20
0.7499999996674092
 30
0.0
 11
21.403846140107252
 21
15.153846144098431
 31
0.0
  0
LINE
  5
13AC
  8
FORM
 10
21.249999986363441
 20
15.307692297842239
 30
0.0
 11
0.7499999996674376
 21
15.307692297842239
 31
0.0
  0
LINE
  5
13AD
  8
FORM
 10
21.249999986363441
 20
0.5961538459236025
 30
0.0
 11
0.7499999996674376
 21
0.5961538459235954
 31
0.0
  0
LINE
  5
13AE
  8
FORM
 10
0.5961538459236168
 20
0.7499999996674092
 30
0.0
 11
0.5961538459236168
 21
15.153846144098431
 31
0.0
  0
TEXT
  5
13B1
  8
FORM
 10
16.770574233580561
 20
1.1177623757995749
 30
0.0
 40
0.260516826749781
  1
ASTROMECH DROID
  0
TEXT
  5
13B2
  8
FORM
 10
20.85720038004996
 20
1.1278903102633671
 30
0.0
 40
0.260516826749781
  1
A
  0
TEXT
  5
13B3
  8
FORM
 10
17.25446024791373
 20
0.813671414000872
 30
0.0
 40
0.1042067306999124
  1
FULL
  0
TEXT
  5
13B4
  8
FORM
 10
20.593280544426019
 20
0.8165882189588344
 30
0.0
 40
0.1042067306999124
  1
1   1
  0
TEXT
  5
13B5
  8
FORM
 10
18.867373488668239
 20
0.8246381046439915
 30
0.0
 40
0.1042067306999124
  1
APRIL 2005
 72
     2
 11
19.770498488067489
 21
0.8246381046439915
 31
0.0
  0
TEXT
  5
13B6
  8
FORM
  6
CONTINUOUS
 10
18.118827913558601
 20
0.8235896747318066
 30
0.0
 40
0.0900346153247244
  1
DRAWN:
  0
TEXT
  5
13B7
  8
FORM
  6
CONTINUOUS
 10
16.72518466957764
 20
0.8236741054737031
 30
0.0
 40
0.0900346153247244
  1
SCALE:
  0
TEXT
  5
13B8
  8
FORM
  6
CONTINUOUS
 10
20.01795677316494
 20
0.8225458122742352
 30
0.0
 40
0.0900346153247244
  1
SHEET:   OF
  0
TEXT
  5
13B9
  8
FORM
  6
CONTINUOUS
 10
16.560769897877751
 20
1.5378028837587541
 30
0.0
 40
0.0900346153247244
  1
DRAWING NO.
  0
TEXT
  5
13BA
  8
FORM
  6
CONTINUOUS
 10
20.822311852397561
 20
1.537802883758743
 30
0.0
 40
0.0900346153247244
  1
REV.
 72
     1
 11
20.955220094067389
 21
1.537802883758743
 31
0.0
  0
LINE
  5
13BB
  8
FORM
  6
CONTINUOUS
 10
16.703251912464879
 20
3.3610038440844141
 30
0.0
 11
21.02491344805162
 21
3.3610038440844141
 31
0.0
  0
LINE
  5
13BC
  8
FORM
  6
CONTINUOUS
 10
16.478165374153061
 20
0.9750865379792159
 30
0.0
 11
16.478165374153029
 21
3.1359173057725931
 31
0.0
  0
LINE
  5
13BD
  8
FORM
  6
CONTINUOUS
 10
16.478165374153061
 20
1.672854806745828
 30
0.0
 11
21.249999986363441
 21
1.672854806745828
 31
0.0
  0
LINE
  5
13BE
  8
FORM
  6
CONTINUOUS
 10
16.478165374153061
 20
0.9750865379792159
 30
0.0
 11
21.249999986363441
 21
0.9750865379792159
 31
0.0
  0
LINE
  5
13BF
  8
FORM
  6
CONTINUOUS
 10
17.97804237543275
 20
0.9750865379792159
 30
0.0
 11
17.97804237543275
 21
0.7499999996674092
 31
0.0
  0
LINE
  5
13C0
  8
FORM
  6
CONTINUOUS
 10
19.950430811671389
 20
0.9723156702741989
 30
0.0
 11
19.950430811671389
 21
0.7472291319623921
 31
0.0
  0
LINE
  5
13C1
  8
FORM
  6
CONTINUOUS
 10
20.65524763562988
 20
1.672854806745828
 30
0.0
 11
20.65524763562988
 21
0.9750865379792159
 31
0.0
  0
ARC
  5
13C2
  8
FORM
 62
     5
 10
16.925603837263051
 20
2.683123263179624
 30
0.0
 40
0.0245481788339413
 50
152.18113099770551
 51
330.99098814993278
  0
ARC
  5
13C3
  8
FORM
 62
     5
 10
17.03186349061718
 20
2.8877559907035391
 30
0.0
 40
0.0215248522646385
 50
335.32315363464198
 51
152.67224926330371
  0
ARC
  5
13C4
  8
FORM
 62
     5
 10
18.67139281679863
 20
1.8778243841790809
 30
0.0
 40
1.9470863223045181
 50
148.41494327216151
 51
155.19852313243231
  0
ARC
  5
13C5
  8
FORM
 62
     5
 10
19.04826621925363
 20
1.7448079813832851
 30
0.0
 40
2.2963564077758769
 50
150.40875710206339
 51
156.20744757951141
  0
ARC
  5
13C6
  8
FORM
 62
     7
 10
16.856187689619201
 20
2.476891943456518
 30
0.0
 40
0.0328016362752216
 50
161.128725237971
 51
346.89295927401372
  0
ARC
  5
13C7
  8
FORM
 62
     7
 10
26.446981545233939
 20
-1.665659984064163
 30
0.0
 40
10.414927500982669
 50
153.58307292081309
 51
156.60691138966209
  0
ARC
  5
13C8
  8
FORM
 62
     7
 10
24.942765772362829
 20
-1.1245203992272681
 30
0.0
 40
8.873647082696257
 50
152.34095999775931
 51
152.9694116127464
  0
ARC
  5
13C9
  8
FORM
 62
     7
 10
25.042235970541071
 20
-1.413551413076795
 30
0.0
 40
9.0960831006715779
 50
153.37112835275721
 51
154.60402195655351
  0
ARC
  5
13CA
  8
FORM
 62
     7
 10
17.329398129118289
 20
2.8602652973761158
 30
0.0
 40
0.2358358050601862
 50
23.468725928191049
 51
88.151617587883351
  0
ARC
  5
13CB
  8
FORM
 62
     7
 10
17.33466889121355
 20
2.8754695652234821
 30
0.0
 40
0.2783521476800796
 50
18.232625295665532
 51
154.63608874642679
  0
ARC
  5
13CC
  8
FORM
 62
     7
 10
17.41806628342874
 20
2.9044827195306051
 30
0.0
 40
0.1900699214402894
 50
336.99722732837893
 51
341.11190659806488
  0
ARC
  5
13CD
  8
FORM
 62
     7
 10
17.429371041778779
 20
2.912888609699027
 30
0.0
 40
0.1244898949022119
 50
333.24704424527522
 51
339.12675173356178
  0
ARC
  5
13CE
  8
FORM
 62
     7
 10
17.547120806258562
 20
2.8541053585607901
 30
0.0
 40
0.007134896083525
 50
157.37475902115841
 51
243.18317341424029
  0
ARC
  5
13CF
  8
FORM
 62
     7
 10
17.589262332130431
 20
2.8313183495512071
 30
0.0
 40
0.0039211308505914
 50
246.74236679857631
 51
343.55073793579641
  0
ARC
  5
13D0
  8
FORM
 62
     7
 10
17.71265002297525
 20
3.1590467530149189
 30
0.0
 40
0.3541033340658146
 50
241.5396617947477
 51
249.33988332022491
  0
ARC
  5
13D1
  8
FORM
 62
     7
 10
17.465116861604141
 20
2.7835275642507962
 30
0.0
 40
0.0699031230302257
 50
210.28645373052609
 51
287.25915125833183
  0
ARC
  5
13D2
  8
FORM
 62
     7
 10
17.471123101482839
 20
2.7532989527990699
 30
0.0
 40
0.0393865134548433
 50
291.96730232828992
 51
10.20108836223371
  0
ARC
  5
13D3
  8
FORM
 62
     7
 10
17.159843992632862
 20
2.6859329108208518
 30
0.0
 40
0.2527202610277017
 50
14.28109924276106
 51
24.947261539878259
  0
ARC
  5
13D4
  8
FORM
 62
     7
 10
17.30724545805592
 20
2.7624795397720869
 30
0.0
 40
0.0870866377029319
 50
20.183063788867599
 51
47.833846572520173
  0
ARC
  5
13D5
  8
FORM
 62
     7
 10
17.323525970686489
 20
2.7183682645997709
 30
0.0
 40
0.1165593648186974
 50
68.784960310907422
 51
94.742087985452599
  0
ARC
  5
13D6
  8
FORM
 62
     7
 10
17.32225776675568
 20
2.7872533208520021
 30
0.0
 40
0.0480101674679103
 50
100.0375073429591
 51
170.98475346238999
  0
ARC
  5
13D7
  8
FORM
 62
     7
 10
17.548079884465121
 20
2.754066770453373
 30
0.0
 40
0.2762551956077745
 50
171.52589863719891
 51
197.494741096675
  0
ARC
  5
13D8
  8
FORM
 62
     7
 10
17.361988404409459
 20
2.757975203687443
 30
0.0
 40
0.1479164690482495
 50
0.8906501289532242
 51
49.113860192417171
  0
ARC
  5
13D9
  8
FORM
 62
     7
 10
17.330827327390121
 20
2.7851061194825268
 30
0.0
 40
0.1164203647136616
 50
99.869748807366761
 51
175.59516845025641
  0
ARC
  5
13DA
  8
FORM
 62
     7
 10
17.35181928853353
 20
2.721979015220195
 30
0.0
 40
0.1824780170187834
 50
54.104282451028169
 51
102.9674010870567
  0
ARC
  5
13DB
  8
FORM
 62
     7
 10
17.866825478371819
 20
2.8305495615738461
 30
0.0
 40
0.603682768180479
 50
195.32307896217739
 51
209.290843156958
  0
ARC
  5
13DC
  8
FORM
 62
     7
 10
17.676878331574731
 20
2.7315679572076941
 30
0.0
 40
0.4663319886455236
 50
172.3003020759547
 51
200.12627387409299
  0
ARC
  5
13DD
  8
FORM
 62
     7
 10
18.010296677355171
 20
2.8617220596188409
 30
0.0
 40
0.8242093741364085
 50
200.64629086238159
 51
210.0464960904439
  0
ARC
  5
13DE
  8
FORM
 62
     7
 10
16.87490984687733
 20
2.2228629736894798
 30
0.0
 40
0.5605059965149727
 50
28.43194910738432
 51
33.865461133002448
  0
ARC
  5
13DF
  8
FORM
 62
     7
 10
17.335282492148359
 20
2.4642291377128478
 30
0.0
 40
0.0413303405420145
 50
201.56446042640411
 51
38.094090168146302
  0
ARC
  5
13E0
  8
FORM
 62
     5
 10
17.698488306364109
 20
2.8075987703319072
 30
0.0
 40
0.0229902810191139
 50
227.6202696593605
 51
57.412112921204063
  0
ARC
  5
13E1
  8
FORM
 62
     5
 10
17.427351296879149
 20
2.453894972691713
 30
0.0
 40
0.4685807675213703
 50
52.766851639305898
 51
65.063571515457895
  0
ARC
  5
13E2
  8
FORM
 62
     5
 10
17.209234353189508
 20
2.115713416994772
 30
0.0
 40
0.8245845677332351
 50
54.932512589538803
 51
74.152868438598929
  0
ARC
  5
13E3
  8
FORM
 62
     5
 10
17.22112341118936
 20
1.8705744209651269
 30
0.0
 40
1.0600616451387339
 50
78.393012355262385
 51
89.647961077025343
  0
ARC
  5
13E4
  8
FORM
 62
     5
 10
17.225855158117209
 20
2.9613835761542329
 30
0.0
 40
0.0308190515998151
 50
183.9979944211656
 51
273.313807745882
  0
ARC
  5
13E5
  8
FORM
 62
     5
 10
17.329870384946641
 20
2.9695252211814269
 30
0.0
 40
0.135151603104915
 50
145.60859166919269
 51
184.36670732083471
  0
ARC
  5
13E6
  8
FORM
 62
     5
 10
17.246715832908791
 20
3.027923603152622
 30
0.0
 40
0.0335688941126511
 50
75.244714174009715
 51
147.6929850116162
  0
ARC
  5
13E7
  8
FORM
 62
     5
 10
16.846566400398309
 20
1.4922623483111219
 30
0.0
 40
1.6205076763160291
 50
61.637242241525243
 51
75.392005557716686
  0
ARC
  5
13E8
  8
FORM
 62
     5
 10
17.585771892302461
 20
2.8909845400545029
 30
0.0
 40
0.0409937741994102
 50
342.69825742684009
 51
41.67278378767756
  0
ARC
  5
13E9
  8
FORM
 62
     7
 10
17.41806628342874
 20
2.9044827195306051
 30
0.0
 40
0.1900699214402894
 50
5.6380312699922799
 51
17.791456368736839
  0
ARC
  5
13EA
  8
FORM
 62
     7
 10
17.5045622300951
 20
2.0088127942983891
 30
0.0
 40
0.0608207837544583
 50
88.432533024773406
 51
186.62631613112151
  0
ARC
  5
13EB
  8
FORM
 62
     7
 10
17.514107893903311
 20
2.0214944811508531
 30
0.0
 40
0.0726809031862866
 50
195.7266305128272
 51
285.3806868435185
  0
ARC
  5
13EC
  8
FORM
 62
     7
 10
17.428397303924321
 20
2.6646932328165849
 30
0.0
 40
0.7209618028535085
 50
278.37329371359471
 51
293.15208507016871
  0
ARC
  5
13ED
  8
FORM
 62
     7
 10
17.670280088548282
 20
2.2109164793858191
 30
0.0
 40
0.1486954171998164
 50
257.51805604168283
 51
277.23103351305667
  0
ARC
  5
13EE
  8
FORM
 62
     7
 10
17.67861701724112
 20
2.0887614153130118
 30
0.0
 40
0.0273997705390677
 50
292.26031345923337
 51
12.867379300523719
  0
ARC
  5
13EF
  8
FORM
 62
     7
 10
17.658243987918521
 20
2.0848332422543971
 30
0.0
 40
0.0481411784627428
 50
12.02537552739555
 51
52.143631645159317
  0
ARC
  5
13F0
  8
FORM
 62
     7
 10
18.68473167686761
 20
3.3322419147777782
 30
0.0
 40
1.5673362882102819
 50
219.60277928185971
 51
230.5002020408055
  0
ARC
  5
13F1
  8
FORM
 62
     7
 10
17.71719517775902
 20
2.5209914067630801
 30
0.0
 40
0.3048383262947374
 50
175.97523115435061
 51
218.04500009534141
  0
ARC
  5
13F2
  8
FORM
 62
     7
 10
17.587988709286751
 20
2.5516026198667592
 30
0.0
 40
0.1751226981011722
 50
149.96078860476399
 51
183.01641230856191
  0
ARC
  5
13F3
  8
FORM
 62
     7
 10
17.465652099646999
 20
2.6236413715572442
 30
0.0
 40
0.03317488584424
 50
69.764209445538683
 51
151.8988190455112
  0
ARC
  5
13F4
  8
FORM
 62
     7
 10
17.461738153470581
 20
2.621386420418637
 30
0.0
 40
0.0367584023789668
 50
357.6694469744499
 51
65.251102439515435
  0
ARC
  5
13F5
  8
FORM
 62
     7
 10
17.375127171955
 20
2.6142785816255478
 30
0.0
 40
0.1234666367742727
 50
345.36193237678458
 51
2.6056939300727819
  0
ARC
  5
13F6
  8
FORM
 62
     7
 10
17.770788346688299
 20
2.4976765653254129
 30
0.0
 40
0.289103498612585
 50
162.81861830880709
 51
185.35496664157321
  0
ARC
  5
13F7
  8
FORM
 62
     7
 10
17.738557938675601
 20
2.526678108373186
 30
0.0
 40
0.261669979998945
 50
192.3534994193023
 51
222.3020476696033
  0
ARC
  5
13F8
  8
FORM
 62
     7
 10
18.640000382871079
 20
3.2533952889623161
 30
0.0
 40
1.419181254971364
 50
219.50633019139829
 51
228.42762303996261
  0
ARC
  5
13F9
  8
FORM
 62
     7
 10
17.545150090279261
 20
1.9830014576086259
 30
0.0
 40
0.2588352891177654
 50
32.971129457978869
 51
53.728419363024337
  0
ARC
  5
13FA
  8
FORM
 62
     7
 10
17.685505274612321
 20
2.0841393566689059
 30
0.0
 40
0.0864595649942742
 50
287.74749415951351
 51
27.35211189662947
  0
ARC
  5
13FB
  8
FORM
 62
     7
 10
17.556150910590731
 20
1.521887384058928
 30
0.0
 40
0.5499940598264056
 50
81.426570944510203
 51
95.208118001959775
  0
ARC
  5
13FC
  8
FORM
 62
     7
 10
17.31874226594763
 20
2.379232385518228
 30
0.0
 40
0.0244848954091209
 50
325.52447187114308
 51
75.340502228459783
  0
ARC
  5
13FD
  8
FORM
 62
     7
 10
17.28857503182331
 20
2.4013816515593862
 30
0.0
 40
0.0619027859518531
 50
277.78730616127859
 51
324.42957968808531
  0
ARC
  5
13FE
  8
FORM
 62
     7
 10
17.277627430402191
 20
2.4116764447725738
 30
0.0
 40
0.0741905263351136
 50
243.48581874200181
 51
285.1065744639306
  0
ARC
  5
13FF
  8
FORM
 62
     7
 10
13.99616984532571
 20
-5.9734717723731041
 30
0.0
 40
9.0135811594364625
 50
68.327181839257534
 51
70.606105230637283
  0
ARC
  5
1400
  8
FORM
 62
     7
 10
16.982860283602829
 20
2.502260489661857
 30
0.0
 40
0.0271571196358057
 50
76.445232091872299
 51
134.36352227876461
  0
ARC
  5
1401
  8
FORM
 62
     7
 10
17.103601465049451
 20
2.316491870596419
 30
0.0
 40
0.2482433149023289
 50
124.2547762008316
 51
135.012931962436
  0
ARC
  5
1402
  8
FORM
 62
     7
 10
16.932687772438332
 20
2.4840903864877362
 30
0.0
 40
0.0091691237651447
 50
120.5491196217084
 51
251.48388650457539
  0
ARC
  5
1403
  8
FORM
 62
     7
 10
15.698852283122079
 20
-0.947959245240991
 30
0.0
 40
3.6379298384249581
 50
64.85742894317822
 51
67.515132469299331
  0
ARC
  5
1404
  8
FORM
 62
     7
 10
17.23599357112948
 20
2.291795105104121
 30
0.0
 40
0.0343472402230129
 50
329.18566117941782
 51
69.527151249863806
  0
ARC
  5
1405
  8
FORM
 62
     7
 10
17.145886072427881
 20
2.1556962750494151
 30
0.0
 40
0.1968392862921899
 50
58.747973844557571
 51
81.106226592028065
  0
ARC
  5
1406
  8
FORM
 62
     7
 10
17.124947044127829
 20
2.0252080021495891
 30
0.0
 40
0.3289962935825703
 50
81.016817915507374
 51
97.679603827268224
  0
ARC
  5
1407
  8
FORM
 62
     7
 10
17.159573600239298
 20
2.1240726877937131
 30
0.0
 40
0.2440398498458748
 50
121.5050128230593
 51
139.09578810607039
  0
ARC
  5
1408
  8
FORM
 62
     7
 10
17.225825242067831
 20
2.2865562155100809
 30
0.0
 40
0.0415466234232141
 50
277.70569210516868
 51
342.69880024124109
  0
ARC
  5
1409
  8
FORM
 62
     7
 10
17.213074197788071
 20
2.3334352792513711
 30
0.0
 40
0.0899365447321688
 50
250.08394506358289
 51
281.75453717228322
  0
ARC
  5
140A
  8
FORM
 62
     7
 10
17.2424582627973
 20
2.3437609022874879
 30
0.0
 40
0.1122732419236369
 50
221.18187885427241
 51
237.68378775985289
  0
ARC
  5
140B
  8
FORM
 62
     7
 10
17.11078230927049
 20
2.213603979985677
 30
0.0
 40
0.0733994924367979
 50
50.003848755011681
 51
75.5416830098399
  0
ARC
  5
140C
  8
FORM
 62
     7
 10
17.10690002874345
 20
2.2402084319691471
 30
0.0
 40
0.0497074536252231
 50
63.4626603498468
 51
100.74200229027051
  0
ARC
  5
140D
  8
FORM
 62
     7
 10
17.09763521067913
 20
2.2049366923578511
 30
0.0
 40
0.0841081409133923
 50
89.999999999999588
 51
125.5974615489027
  0
ARC
  5
140E
  8
FORM
 62
     7
 10
18.09535908495533
 20
2.805145934228654
 30
0.0
 40
1.1637748462988311
 50
197.51922498184919
 51
203.981481444731
  0
ARC
  5
140F
  8
FORM
 62
     7
 10
16.736982371619181
 20
2.433687501517297
 30
0.0
 40
0.3537389089231183
 50
346.52409876011302
 51
356.71498770316703
  0
ARC
  5
1410
  8
FORM
 62
     7
 10
15.698852283122079
 20
-0.947959245240991
 30
0.0
 40
3.6379298384249581
 50
69.286600818944052
 51
70.22311760076802
  0
ARC
  5
1411
  8
FORM
 62
     7
 10
16.92789692922846
 20
2.1257895907104252
 30
0.0
 40
0.1066736432871782
 50
245.40259669902051
 51
275.40975098180542
  0
ARC
  5
1412
  8
FORM
 62
     7
 10
17.301941284744
 20
1.9333049606058379
 30
0.0
 40
0.4239787481416163
 50
126.68044463040199
 51
139.78708822539889
  0
ARC
  5
1413
  8
FORM
 62
     7
 10
16.925901396850119
 20
2.42585100124619
 30
0.0
 40
0.4064386631288638
 50
271.69929119420118
 51
283.39540842056908
  0
ARC
  5
1414
  8
FORM
 62
     7
 10
17.685900196427319
 20
1.487877603185271
 30
0.0
 40
1.0089968057446299
 50
134.5410403491789
 51
138.91474429089899
  0
ARC
  5
1415
  8
FORM
 62
     7
 10
16.942625607711989
 20
2.1366275124138698
 30
0.0
 40
0.0266928289273625
 50
201.8252958964795
 51
267.16449786715452
  0
ARC
  5
1416
  8
FORM
 62
     7
 10
16.936879259411789
 20
2.1340951027918962
 30
0.0
 40
0.0204180021895292
 50
124.254854327418
 51
201.22329273937871
  0
ARC
  5
1417
  8
FORM
 62
     7
 10
16.999050226745201
 20
2.1174828639755172
 30
0.0
 40
0.0895139066856433
 50
283.5751770312794
 51
324.58969283639942
  0
ARC
  5
1418
  8
FORM
 62
     7
 10
17.05010181640597
 20
2.0748500422369349
 30
0.0
 40
0.0237711578752802
 50
337.14160324238759
 51
47.56496670892831
  0
ARC
  5
1419
  8
FORM
 62
     7
 10
17.01351320176212
 20
2.0225775754130799
 30
0.0
 40
0.0874305156836371
 50
52.990730681111657
 51
91.748895977531376
  0
ARC
  5
141A
  8
FORM
 62
     7
 10
16.97607501860476
 20
2.3473211427073291
 30
0.0
 40
0.2398869733850244
 50
261.66603807207321
 51
278.33396192792679
  0
ARC
  5
141B
  8
FORM
 62
     7
 10
16.904055290181631
 20
2.0802584334887442
 30
0.0
 40
0.0554174778483587
 50
192.64550774538381
 51
248.2223967256862
  0
ARC
  5
141C
  8
FORM
 62
     7
 10
16.890435234000019
 20
2.0865365172575769
 30
0.0
 40
0.0444453205431241
 50
178.88427582775461
 51
204.46998391858139
  0
ARC
  5
141D
  8
FORM
 62
     7
 10
17.00038134049046
 20
2.0753041716250129
 30
0.0
 40
0.1548562786887746
 50
140.54690015149379
 51
175.5193383191162
  0
ARC
  5
141E
  8
FORM
 62
     7
 10
18.525663181526959
 20
0.8608942872864346
 30
0.0
 40
2.1045236570324608
 50
137.45643980933039
 51
141.40545593619069
  0
POLYLINE
  5
141F
  8
FORM
 62
     1
 10
17.275622491608207
 20
3.0402781737931805
 30
0.0
 66
     1
 70
     8
  0
VERTEX
  8
FORM
  5
1903
 10
17.2756
 20
3.04028
 30
0.000000
  70
    32
  0
VERTEX
  8
FORM
  5
1904
 10
17.2747
 20
3.04062
 30
0.000000
  70
    32
  0
VERTEX
  8
FORM
  5
1905
 10
17.2737
 20
3.04086
 30
0.000000
  70
    32
  0
VERTEX
  8
FORM
  5
1906
 10
17.2727
 20
3.04098
 30
0.000000
  70
    32
  0
VERTEX
  8
FORM
  5
1907
 10
17.2716
 20
3.04100
 30
0.000000
  70
    32
  0
VERTEX
  8
FORM
  5
1908
 10
17.2705
 20
3.04091
 30
0.000000
  70
    32
  0
VERTEX
  8
FORM
  5
1909
 10
17.2694
 20
3.04070
 30
0.000000
  70
    32
  0
VERTEX
  8
FORM
  5
190A
 10
17.2682
 20
3.04039
 30
0.000000
  70
    32
  0
VERTEX
  8
FORM
  5
190B
 10
17.2670
 20
3.03997
 30
0.000000
  70
    32
  0
VERTEX
  8
FORM
  5
190C
 10
17.2658
 20
3.03944
 30
0.000000
  70
    32
  0
VERTEX
  8
FORM
  5
190D
 10
17.2646
 20
3.03880
 30
0.000000
  70
    32
  0
VERTEX
  8
FORM
  5
190E
 10
17.2633
 20
3.03806
 30
0.000000
  70
    32
  0
VERTEX
  8
FORM
  5
190F
 10
17.2620
 20
3.03722
 30
0.000000
  70
    32
  0
VERTEX
  8
FORM
  5
1910
 10
17.2607
 20
3.03627
 30
0.000000
  70
    32
  0
VERTEX
  8
FORM
  5
1911
 10
17.2594
 20
3.03523
 30
0.000000
  70
    32
  0
VERTEX
  8
FORM
  5
1912
 10
17.2581
 20
3.03409
 30
0.000000
  70
    32
  0
VERTEX
  8
FORM
  5
1913
 10
17.2568
 20
3.03286
 30
0.000000
  70
    32
  0
VERTEX
  8
FORM
  5
1914
 10
17.2554
 20
3.03154
 30
0.000000
  70
    32
  0
VERTEX
  8
FORM
  5
1915
 10
17.2541
 20
3.03013
 30
0.000000
  70
    32
  0
VERTEX
  8
FORM
  5
1916
 10
17.2528
 20
3.02864
 30
0.000000
  70
    32
  0
VERTEX
  8
FORM
  5
1917
 10
17.2515
 20
3.02706
 30
0.000000
  70
    32
  0
VERTEX
  8
FORM
  5
1918
 10
17.2502
 20
3.02541
 30
0.000000
  70
    32
  0
VERTEX
  8
FORM
  5
1919
 10
17.2489
 20
3.02369
 30
0.000000
  70
    32
  0
VERTEX
  8
FORM
  5
191A
 10
17.2476
 20
3.02190
 30
0.000000
  70
    32
  0
VERTEX
  8
FORM
  5
191B
 10
17.2464
 20
3.02004
 30
0.000000
  70
    32
  0
VERTEX
  8
FORM
  5
191C
 10
17.2451
 20
3.01813
 30
0.000000
  70
    32
  0
VERTEX
  8
FORM
  5
191D
 10
17.2439
 20
3.01616
 30
0.000000
  70
    32
  0
VERTEX
  8
FORM
  5
191E
 10
17.2427
 20
3.01414
 30
0.000000
  70
    32
  0
VERTEX
  8
FORM
  5
191F
 10
17.2416
 20
3.01208
 30
0.000000
  70
    32
  0
VERTEX
  8
FORM
  5
1920
 10
17.2405
 20
3.00997
 30
0.000000
  70
    32
  0
VERTEX
  8
FORM
  5
1921
 10
17.2394
 20
3.00783
 30
0.000000
  70
    32
  0
VERTEX
  8
FORM
  5
1922
 10
17.2384
 20
3.00566
 30
0.000000
  70
    32
  0
VERTEX
  8
FORM
  5
1923
 10
17.2374
 20
3.00347
 30
0.000000
  70
    32
  0
VERTEX
  8
FORM
  5
1924
 10
17.2364
 20
3.00125
 30
0.000000
  70
    32
  0
VERTEX
  8
FORM
  5
1925
 10
17.2356
 20
2.99902
 30
0.000000
  70
    32
  0
VERTEX
  8
FORM
  5
1926
 10
17.2347
 20
2.99679
 30
0.000000
  70
    32
  0
VERTEX
  8
FORM
  5
1927
 10
17.2339
 20
2.99454
 30
0.000000
  70
    32
  0
VERTEX
  8
FORM
  5
1928
 10
17.2332
 20
2.99231
 30
0.000000
  70
    32
  0
VERTEX
  8
FORM
  5
1929
 10
17.2325
 20
2.99007
 30
0.000000
  70
    32
  0
VERTEX
  8
FORM
  5
192A
 10
17.2318
 20
2.98785
 30
0.000000
  70
    32
  0
VERTEX
  8
FORM
  5
192B
 10
17.2313
 20
2.98565
 30
0.000000
  70
    32
  0
VERTEX
  8
FORM
  5
192C
 10
17.2307
 20
2.98348
 30
0.000000
  70
    32
  0
VERTEX
  8
FORM
  5
192D
 10
17.2303
 20
2.98133
 30
0.000000
  70
    32
  0
VERTEX
  8
FORM
  5
192E
 10
17.2299
 20
2.97921
 30
0.000000
  70
    32
  0
VERTEX
  8
FORM
  5
192F
 10
17.2296
 20
2.97713
 30
0.000000
  70
    32
  0
VERTEX
  8
FORM
  5
1930
 10
17.2293
 20
2.97510
 30
0.000000
  70
    32
  0
VERTEX
  8
FORM
  5
1931
 10
17.2291
 20
2.97312
 30
0.000000
  70
    32
  0
VERTEX
  8
FORM
  5
1932
 10
17.2289
 20
2.97119
 30
0.000000
  70
    32
  0
VERTEX
  8
FORM
  5
1933
 10
17.2289
 20
2.96931
 30
0.000000
  70
    32
  0
VERTEX
  8
FORM
  5
1934
 10
17.2289
 20
2.96751
 30
0.000000
  70
    32
  0
VERTEX
  8
FORM
  5
1935
 10
17.2289
 20
2.96576
 30
0.000000
  70
    32
  0
VERTEX
  8
FORM
  5
1936
 10
17.2290
 20
2.96409
 30
0.000000
  70
    32
  0
VERTEX
  8
FORM
  5
1937
 10
17.2292
 20
2.96250
 30
0.000000
  70
    32
  0
VERTEX
  8
FORM
  5
1938
 10
17.2295
 20
2.96098
 30
0.000000
  70
    32
  0
VERTEX
  8
FORM
  5
1939
 10
17.2298
 20
2.95955
 30
0.000000
  70
    32
  0
VERTEX
  8
FORM
  5
193A
 10
17.2301
 20
2.95820
 30
0.000000
  70
    32
  0
VERTEX
  8
FORM
  5
193B
 10
17.2306
 20
2.95694
 30
0.000000
  70
    32
  0
VERTEX
  8
FORM
  5
193C
 10
17.2311
 20
2.95577
 30
0.000000
  70
    32
  0
VERTEX
  8
FORM
  5
193D
 10
17.2316
 20
2.95470
 30
0.000000
  70
    32
  0
VERTEX
  8
FORM
  5
193E
 10
17.2323
 20
2.95373
 30
0.000000
  70
    32
  0
VERTEX
  8
FORM
  5
193F
 10
17.2329
 20
2.95286
 30
0.000000
  70
    32
  0
VERTEX
  8
FORM
  5
1940
 10
17.2337
 20
2.95209
 30
0.000000
  70
    32
  0
VERTEX
  8
FORM
  5
1941
 10
17.2344
 20
2.95142
 30
0.000000
  70
    32
  0
VERTEX
  8
FORM
  5
1942
 10
17.2353
 20
2.95086
 30
0.000000
  70
    32
  0
VERTEX
  8
FORM
  5
1943
 10
17.2362
 20
2.95041
 30
0.000000
  70
    32
  0
VERTEX
  8
FORM
  5
1944
 10
17.2371
 20
2.95007
 30
0.000000
  70
    32
  0
VERTEX
  8
FORM
  5
1945
 10
17.2381
 20
2.94983
 30
0.000000
  70
    32
  0
VERTEX
  8
FORM
  5
1946
 10
17.2391
 20
2.94971
 30
0.000000
  70
    32
  0
VERTEX
  8
FORM
  5
1947
 10
17.2401
 20
2.94969
 30
0.000000
  70
    32
  0
VERTEX
  8
FORM
  5
1948
 10
17.2412
 20
2.94978
 30
0.000000
  70
    32
  0
VERTEX
  8
FORM
  5
1949
 10
17.2424
 20
2.94999
 30
0.000000
  70
    32
  0
VERTEX
  8
FORM
  5
194A
 10
17.2435
 20
2.95030
 30
0.000000
  70
    32
  0
VERTEX
  8
FORM
  5
194B
 10
17.2447
 20
2.95072
 30
0.000000
  70
    32
  0
VERTEX
  8
FORM
  5
194C
 10
17.2460
 20
2.95125
 30
0.000000
  70
    32
  0
VERTEX
  8
FORM
  5
194D
 10
17.2472
 20
2.95189
 30
0.000000
  70
    32
  0
VERTEX
  8
FORM
  5
194E
 10
17.2485
 20
2.95263
 30
0.000000
  70
    32
  0
VERTEX
  8
FORM
  5
194F
 10
17.2498
 20
2.95347
 30
0.000000
  70
    32
  0
VERTEX
  8
FORM
  5
1950
 10
17.2511
 20
2.95442
 30
0.000000
  70
    32
  0
VERTEX
  8
FORM
  5
1951
 10
17.2524
 20
2.95546
 30
0.000000
  70
    32
  0
VERTEX
  8
FORM
  5
1952
 10
17.2537
 20
2.95660
 30
0.000000
  70
    32
  0
VERTEX
  8
FORM
  5
1953
 10
17.2550
 20
2.95783
 30
0.000000
  70
    32
  0
VERTEX
  8
FORM
  5
1954
 10
17.2563
 20
2.95915
 30
0.000000
  70
    32
  0
VERTEX
  8
FORM
  5
1955
 10
17.2577
 20
2.96056
 30
0.000000
  70
    32
  0
VERTEX
  8
FORM
  5
1956
 10
17.2590
 20
2.96205
 30
0.000000
  70
    32
  0
VERTEX
  8
FORM
  5
1957
 10
17.2603
 20
2.96363
 30
0.000000
  70
    32
  0
VERTEX
  8
FORM
  5
1958
 10
17.2616
 20
2.96528
 30
0.000000
  70
    32
  0
VERTEX
  8
FORM
  5
1959
 10
17.2629
 20
2.96700
 30
0.000000
  70
    32
  0
VERTEX
  8
FORM
  5
195A
 10
17.2642
 20
2.96879
 30
0.000000
  70
    32
  0
VERTEX
  8
FORM
  5
195B
 10
17.2654
 20
2.97065
 30
0.000000
  70
    32
  0
VERTEX
  8
FORM
  5
195C
 10
17.2667
 20
2.97256
 30
0.000000
  70
    32
  0
VERTEX
  8
FORM
  5
195D
 10
17.2679
 20
2.97453
 30
0.000000
  70
    32
  0
VERTEX
  8
FORM
  5
195E
 10
17.2690
 20
2.97655
 30
0.000000
  70
    32
  0
VERTEX
  8
FORM
  5
195F
 10
17.2702
 20
2.97861
 30
0.000000
  70
    32
  0
VERTEX
  8
FORM
  5
1960
 10
17.2713
 20
2.98072
 30
0.000000
  70
    32
  0
VERTEX
  8
FORM
  5
1961
 10
17.2724
 20
2.98286
 30
0.000000
  70
    32
  0
VERTEX
  8
FORM
  5
1962
 10
17.2734
 20
2.98503
 30
0.000000
  70
    32
  0
VERTEX
  8
FORM
  5
1963
 10
17.2744
 20
2.98722
 30
0.000000
  70
    32
  0
VERTEX
  8
FORM
  5
1964
 10
17.2753
 20
2.98944
 30
0.000000
  70
    32
  0
VERTEX
  8
FORM
  5
1965
 10
17.2762
 20
2.99167
 30
0.000000
  70
    32
  0
VERTEX
  8
FORM
  5
1966
 10
17.2771
 20
2.99390
 30
0.000000
  70
    32
  0
VERTEX
  8
FORM
  5
1967
 10
17.2779
 20
2.99615
 30
0.000000
  70
    32
  0
VERTEX
  8
FORM
  5
1968
 10
17.2786
 20
2.99838
 30
0.000000
  70
    32
  0
VERTEX
  8
FORM
  5
1969
 10
17.2793
 20
3.00062
 30
0.000000
  70
    32
  0
VERTEX
  8
FORM
  5
196A
 10
17.2800
 20
3.00284
 30
0.000000
  70
    32
  0
VERTEX
  8
FORM
  5
196B
 10
17.2805
 20
3.00504
 30
0.000000
  70
    32
  0
VERTEX
  8
FORM
  5
196C
 10
17.2810
 20
3.00721
 30
0.000000
  70
    32
  0
VERTEX
  8
FORM
  5
196D
 10
17.2815
 20
3.00936
 30
0.000000
  70
    32
  0
VERTEX
  8
FORM
  5
196E
 10
17.2819
 20
3.01148
 30
0.000000
  70
    32
  0
VERTEX
  8
FORM
  5
196F
 10
17.2822
 20
3.01356
 30
0.000000
  70
    32
  0
VERTEX
  8
FORM
  5
1970
 10
17.2825
 20
3.01559
 30
0.000000
  70
    32
  0
VERTEX
  8
FORM
  5
1971
 10
17.2827
 20
3.01757
 30
0.000000
  70
    32
  0
VERTEX
  8
FORM
  5
1972
 10
17.2828
 20
3.01950
 30
0.000000
  70
    32
  0
VERTEX
  8
FORM
  5
1973
 10
17.2829
 20
3.02137
 30
0.000000
  70
    32
  0
VERTEX
  8
FORM
  5
1974
 10
17.2829
 20
3.02318
 30
0.000000
  70
    32
  0
VERTEX
  8
FORM
  5
1975
 10
17.2829
 20
3.02493
 30
0.000000
  70
    32
  0
VERTEX
  8
FORM
  5
1976
 10
17.2828
 20
3.02660
 30
0.000000
  70
    32
  0
VERTEX
  8
FORM
  5
1977
 10
17.2826
 20
3.02819
 30
0.000000
  70
    32
  0
VERTEX
  8
FORM
  5
1978
 10
17.2823
 20
3.02971
 30
0.000000
  70
    32
  0
VERTEX
  8
FORM
  5
1979
 10
17.2820
 20
3.03114
 30
0.000000
  70
    32
  0
VERTEX
  8
FORM
  5
197A
 10
17.2816
 20
3.03249
 30
0.000000
  70
    32
  0
VERTEX
  8
FORM
  5
197B
 10
17.2812
 20
3.03375
 30
0.000000
  70
    32
  0
VERTEX
  8
FORM
  5
197C
 10
17.2807
 20
3.03492
 30
0.000000
  70
    32
  0
VERTEX
  8
FORM
  5
197D
 10
17.2801
 20
3.03599
 30
0.000000
  70
    32
  0
VERTEX
  8
FORM
  5
197E
 10
17.2795
 20
3.03696
 30
0.000000
  70
    32
  0
VERTEX
  8
FORM
  5
197F
 10
17.2789
 20
3.03783
 30
0.000000
  70
    32
  0
VERTEX
  8
FORM
  5
1980
 10
17.2781
 20
3.03860
 30
0.000000
  70
    32
  0
VERTEX
  8
FORM
  5
1981
 10
17.2773
 20
3.03927
 30
0.000000
  70
    32
  0
VERTEX
  8
FORM
  5
1982
 10
17.2765
 20
3.03983
 30
0.000000
  70
    32
  0
VERTEX
  8
FORM
  5
1983
 10
17.2756
 20
3.04028
 30
0.000000
  70
    32
  0
SEQEND
  8
FORM
  5
1984
  0
ARC
  5
1420
  8
FORM
 62
     7
 10
17.31969472840197
 20
2.8767429643067852
 30
0.0
 40
0.2199177503197187
 50
85.485448269952457
 51
155.5006785655419
  0
TEXT
  5
1421
  8
FORM
 62
     7
 10
16.545907219234731
 20
1.726726372181332
 30
0.0
 40
0.0861538460965367
  1
R2-D2 BUILDERS CLUB
  0
ARC
  5
1422
  8
FORM
 10
0.7499999996674376
 20
0.7499999996674092
 30
0.0
 40
0.1538461537438154
 50
180.0
 51
270.0
  0
ARC
  5
1423
  8
FORM
 10
0.7499999996674376
 20
0.7499999996674092
 30
0.0
 40
0.3076923074876307
 50
180.0
 51
270.0
  0
ARC
  5
1424
  8
FORM
 10
0.7499999996674376
 20
0.7499999996674092
 30
0.0
 40
0.3461538459235846
 50
180.0
 51
270.0
  0
ARC
  5
1425
  8
FORM
 10
0.7499999996674376
 20
0.7499999996674092
 30
0.0
 40
0.4999999996674
 50
180.0
 51
270.0
  0
ARC
  5
1426
  8
FORM
 10
0.7499999996674376
 20
15.153846144098431
 30
0.0
 40
0.4999999996674
 50
90.0
 51
180.0
  0
ARC
  5
1427
  8
FORM
 10
0.7499999996674376
 20
15.153846144098431
 30
0.0
 40
0.3461538459235846
 50
90.0
 51
180.0
  0
ARC
  5
1428
  8
FORM
 10
0.7499999996674376
 20
15.153846144098431
 30
0.0
 40
0.3076923074876307
 50
90.0
 51
180.0
  0
ARC
  5
1429
  8
FORM
 10
0.7499999996674376
 20
15.153846144098431
 30
0.0
 40
0.1538461537438154
 50
90.0
 51
180.0
  0
ARC
  5
142A
  8
FORM
 10
21.249999986363441
 20
15.153846144098431
 30
0.0
 40
0.3076923074876307
 50
0.0
 51
90.0
  0
ARC
  5
142B
  8
FORM
 10
21.249999986363441
 20
15.153846144098431
 30
0.0
 40
0.3461538459235846
 50
0.0
 51
90.0
  0
ARC
  5
142C
  8
FORM
 10
21.249999986363441
 20
15.153846144098431
 30
0.0
 40
0.4999999996674
 50
0.0
 51
90.0
  0
ARC
  5
142D
  8
FORM
 10
21.249999986363441
 20
15.153846144098431
 30
0.0
 40
0.1538461537438154
 50
0.0
 51
90.0
  0
ARC
  5
142E
  8
FORM
 10
21.249999986363441
 20
0.7499999996674092
 30
0.0
 40
0.4999999996674
 50
270.0
 51
0.0
  0
ARC
  5
142F
  8
FORM
 10
21.249999986363441
 20
0.7499999996674092
 30
0.0
 40
0.3461538459235846
 50
270.0
 51
0.0
  0
ARC
  5
1430
  8
FORM
 10
21.249999986363441
 20
0.7499999996674092
 30
0.0
 40
0.3076923074876307
 50
270.0
 51
0.0
  0
ARC
  5
1431
  8
FORM
 10
21.249999986363441
 20
0.7499999996674092
 30
0.0
 40
0.1538461537438154
 50
270.0
 51
0.0
  0
LINE
  5
1432
  8
FORM
 10
21.249999986363441
 20
0.4423076921797886
 30
0.0
 11
0.7499999996674376
 21
0.442307692179778
 31
0.0
  0
LINE
  5
1433
  8
FORM
 10
21.249999986363441
 20
0.4038461537438352
 30
0.0
 11
0.7499999996674376
 21
0.4038461537438245
 31
0.0
  0
LINE
  5
1434
  8
FORM
 10
21.249999986363441
 20
0.2500000000000071
 30
0.0
 11
0.7499999996674376
 21
0.25
 31
0.0
  0
LINE
  5
1435
  8
FORM
 10
21.55769229385108
 20
0.7499999996674092
 30
0.0
 11
21.55769229385108
 21
15.153846144098431
 31
0.0
  0
LINE
  5
1436
  8
FORM
 10
21.59615383228703
 20
0.7499999996674092
 30
0.0
 11
21.59615383228703
 21
15.153846144098431
 31
0.0
  0
LINE
  5
1437
  8
FORM
 10
21.74999998603084
 20
0.7499999996674092
 30
0.0
 11
21.74999998603084
 21
15.153846144098431
 31
0.0
  0
LINE
  5
1438
  8
FORM
 10
21.249999986363441
 20
15.46153845158606
 30
0.0
 11
0.7499999996674376
 21
15.46153845158606
 31
0.0
  0
LINE
  5
1439
  8
FORM
 10
21.249999986363441
 20
15.499999990022021
 30
0.0
 11
0.7499999996674376
 21
15.499999990022021
 31
0.0
  0
LINE
  5
143A
  8
FORM
 10
21.249999986363441
 20
15.653846143765829
 30
0.0
 11
0.7499999996674376
 21
15.653846143765829
 31
0.0
  0
LINE
  5
143B
  8
FORM
 10
0.4423076921798029
 20
0.7499999996674092
 30
0.0
 11
0.4423076921798029
 21
15.153846144098431
 31
0.0
  0
LINE
  5
143C
  8
FORM
 10
0.4038461537438565
 20
0.7499999996674092
 30
0.0
 11
0.4038461537438565
 21
15.153846144098431
 31
0.0
  0
LINE
  5
143D
  8
FORM
 10
0.25
 20
0.7499999996674092
 30
0.0
 11
0.2500000000000426
 21
15.153846144098431
 31
0.0
  0
LINE
  5
143E
  8
FORM
  6
CONTINUOUS
 10
16.703251912464879
 20
0.7499999996674092
 30
0.0
 11
21.02491344805162
 21
0.7499999996674092
 31
0.0
  0
LINE
  5
143F
  8
FORM
  6
CONTINUOUS
 10
21.249999986363441
 20
3.1359173057725931
 30
0.0
 11
21.249999986363441
 21
0.9750865379792159
 31
0.0
  0
ARC
  5
1440
  8
FORM
  6
CONTINUOUS
 10
21.02491344805162
 20
0.9750865379792159
 30
0.0
 40
0.2250865383118096
 50
270.0
 51
0.0
  0
ARC
  5
1441
  8
FORM
  6
CONTINUOUS
 10
21.02491344805162
 20
3.1359173057725931
 30
0.0
 40
0.2250865383118096
 50
359.99999999999989
 51
90.0
  0
ARC
  5
1442
  8
FORM
  6
CONTINUOUS
 10
16.703251912464879
 20
0.9750865379792159
 30
0.0
 40
0.2250865383118096
 50
180.0
 51
270.0
  0
ARC
  5
1443
  8
FORM
  6
CONTINUOUS
 10
16.703251912464879
 20
3.1359173057725931
 30
0.0
 40
0.2250865383118096
 50
90.0
 51
180.0
  0
LINE
  5
1588
  8
0
 10
0.7499999996674376
 20
0.7499999996674092
 30
0.0
 11
0.7499999996674376
 21
1.7499999996674089
 31
0.0
  0
LINE
  5
1589
  8
0
 10
0.7499999996674376
 20
0.8749999996674091
 30
0.0
 11
0.8749999996674375
 21
0.8749999996674091
 31
0.0
  0
LINE
  5
158A
  8
0
 10
0.7499999996674376
 20
0.9999999996674091
 30
0.0
 11
0.9999999996674375
 21
0.9999999996674091
 31
0.0
  0
LINE
  5
158B
  8
0
 10
0.7499999996674376
 20
1.1249999996674089
 30
0.0
 11
0.8749999996674375
 21
1.1249999996674089
 31
0.0
  0
LINE
  5
158C
  8
0
 10
0.7499999996674376
 20
1.2499999996674089
 30
0.0
 11
1.1249999996674369
 21
1.2499999996674089
 31
0.0
  0
LINE
  5
158D
  8
0
 10
0.7499999996674376
 20
1.3749999996674089
 30
0.0
 11
0.8749999996674375
 21
1.3749999996674089
 31
0.0
  0
LINE
  5
158E
  8
0
 10
0.7499999996674376
 20
1.4999999996674089
 30
0.0
 11
0.9999999996674375
 21
1.4999999996674089
 31
0.0
  0
LINE
  5
158F
  8
0
 10
0.7499999996674376
 20
1.6249999996674089
 30
0.0
 11
0.8749999996674375
 21
1.6249999996674089
 31
0.0
  0
LINE
  5
1590
  8
0
 10
0.7499999996674376
 20
1.7499999996674089
 30
0.0
 11
1.1249999996674369
 21
1.7499999996674089
 31
0.0
  0
LINE
  5
1591
  8
0
 10
0.7499999996674376
 20
0.7499999996674092
 30
0.0
 11
1.1249999996674369
 21
0.7499999996674092
 31
0.0
  0
TEXT
  5
1592
  8
0
 10
1.1742687732938739
 20
1.216959438666926
 30
0.0
 40
0.0625
  1
1/2"
  0
TEXT
  5
1593
  8
0
 10
0.9242687732938748
 20
1.091959438666926
 30
0.0
 40
0.0625
  1
3/8"
  0
TEXT
  5
1594
  8
0
 10
1.0492687732938739
 20
0.966959438666926
 30
0.0
 40
0.0625
  1
1/4"
  0
TEXT
  5
1595
  8
0
 10
0.9242687732938748
 20
0.841959438666926
 30
0.0
 40
0.0625
  1
1/8"
  0
TEXT
  5
1596
  8
0
 10
0.9242687732938748
 20
1.341959438666926
 30
0.0
 40
0.0625
  1
5/8"
  0
TEXT
  5
1597
  8
0
 10
1.0492687732938739
 20
1.466959438666926
 30
0.0
 40
0.0625
  1
3/4"
  0
TEXT
  5
1598
  8
0
 10
0.9242687732938748
 20
1.591959438666926
 30
0.0
 40
0.0625
  1
7/8"
  0
TEXT
  5
1599
  8
0
 10
1.1742687732938739
 20
1.716959438666926
 30
0.0
 40
0.0625
  1
1"
  0
TEXT
  5
173B
  8
DIMENSIONS
 10
15.08471236623229
 20
6.1109865055936536
 30
0.0
 40
0.25
  1
2.100
  0
TEXT
  5
173C
  8
DIMENSIONS
 10
15.810902842422751
 20
6.66005613629856
 30
0.0
 40
0.25
  1
2.750
  0
TEXT
  5
173D
  8
DIMENSIONS
 10
9.1309527355885791
 20
13.08358209183857
 30
0.0
 40
0.25
  1
R9.087 OUTSIDE
  0
TEXT
  5
173E
  8
DIMENSIONS
 10
13.318834186884301
 20
8.3436163594208406
 30
0.0
 40
0.375
  1
A
  0
TEXT
  5
173F
  8
DIMENSIONS
 10
13.318834186884301
 20
4.5807906553234377
 30
0.0
 40
0.375
  1
A
  0
TEXT
  5
177F
  8
DIMENSIONS
 10
15.060902842422751
 20
7.5836340307222718
 30
0.0
 40
0.25
  1
0.500
  0
TEXT
  5
1780
  8
DIMENSIONS
 10
16.007099801458999
 20
4.5836340307222736
 30
0.0
 40
0.25
  1
0.150
  0
TEXT
  5
17DF
  8
0
  6
CONTINUOUS
 10
109.1635753962006
 20
19.96618124978529
 30
0.0
 40
0.12
  1
 
 51
7.0
  0
TEXT
  5
17E0
  8
0
  6
CONTINUOUS
 10
121.6076721616805
 20
27.029055679516951
 30
0.0
 40
0.24
  1
 
 51
7.0
  0
TEXT
  5
17E1
  8
0
  6
CONTINUOUS
 10
130.8174371735937
 20
26.70904569293986
 30
0.0
 40
0.24
  1
 
 51
7.0
  0
TEXT
  5
17E2
  8
0
  6
CONTINUOUS
 10
140.62139665802641
 20
9.8464648934125414
 30
0.0
 40
0.24
  1
 
 51
7.0
  0
TEXT
  5
1897
  8
DIMENSIONS
 10
12.629602710310319
 20
10.19350977328553
 30
0.0
 40
0.25
  1
3.226
  0
TEXT
  5
189E
  8
DIMENSIONS
 10
11.49875124992777
 20
10.92782241257718
 30
0.0
 40
0.25
  1
1.500
  0
TEXT
  5
18A1
  8
DIMENSIONS
 10
15.729162698622121
 20
11.184453089278779
 30
0.0
 40
0.25
  1
0.500
  0
LINE
  5
18AD
  8
DIMENSIONS
 10
15.560902842422751
 20
4.9586340307222718
 30
0.0
 11
15.560902842422751
 21
4.7086340307222718
 31
0.0
  0
LINE
  5
18AE
  8
DIMENSIONS
  6
PHANTOM2
 10
13.844584897885129
 20
4.7057906553234377
 30
0.0
 11
13.844584897885129
 21
8.4686163594208406
 31
0.0
  0
SOLID
  5
18AF
  8
DIMENSIONS
 10
14.094584897885129
 20
4.7474573219901037
 30
0.0
 11
14.094584897885129
 21
4.6641239886567716
 31
0.0
 12
14.344584897885129
 22
4.7057906553234377
 32
0.0
 13
14.344584897885129
 23
4.7057906553234377
 33
0.0
  0
LINE
  5
18B0
  8
DIMENSIONS
 10
14.094584897885129
 20
4.7057906553234377
 30
0.0
 11
13.844584897885129
 21
4.7057906553234377
 31
0.0
  0
LINE
  5
18B1
  8
DIMENSIONS
 10
15.810902842422751
 20
4.7086340307222718
 30
0.0
 11
15.560902842422751
 21
4.7086340307222718
 31
0.0
  0
LINE
  5
18B2
  8
DIMENSIONS
 10
14.827758860638721
 20
7.95863403072227
 30
0.0
 11
16.373402842422749
 21
7.9586340307222718
 31
0.0
  0
LINE
  5
18B3
  8
DIMENSIONS
 10
14.827758860638721
 20
5.2086340307222718
 30
0.0
 11
16.373402842422749
 21
5.2086340307222718
 31
0.0
  0
LINE
  5
18B4
  8
BODY_-_COIN_RETURN_PANEL_-
 10
14.76525886063871
 20
7.95863403072227
 30
0.0
 11
11.55504018784664
 21
7.9586340307222718
 31
0.0
  0
LINE
  5
18B5
  8
BODY_-_COIN_RETURN_PANEL_-
 10
14.27178357074942
 20
7.4586340307222692
 30
0.0
 11
12.772984502749861
 21
7.4586340307222718
 31
0.0
  0
LINE
  5
18B6
  8
BODY_-_COIN_RETURN_PANEL_-
 10
14.27178357074942
 20
7.3336340307222718
 30
0.0
 11
12.772984502749861
 21
7.33363403072227
 31
0.0
  0
LINE
  5
18B7
  8
BODY_-_COIN_RETURN_PANEL_-
 10
14.76525886063871
 20
5.2086340307222718
 30
0.0
 11
11.55504018784664
 21
5.2086340307222718
 31
0.0
  0
LINE
  5
18B8
  8
BODY_-_COIN_RETURN_PANEL_-
 10
14.27178357074942
 20
5.3586340307222713
 30
0.0
 11
12.772984502749861
 21
5.3586340307222731
 31
0.0
  0
LINE
  5
18B9
  8
DIMENSIONS
 10
15.560902842422751
 20
7.20863403072227
 30
0.0
 11
15.560902842422751
 21
6.95863403072227
 31
0.0
  0
LINE
  5
18BA
  8
DIMENSIONS
 10
15.560902842422751
 20
7.20863403072227
 30
0.0
 11
15.560902842422751
 21
6.4234865268149584
 31
0.0
  0
LINE
  5
18BB
  8
DIMENSIONS
 10
14.38205983076349
 20
5.3586340307222731
 30
0.0
 11
15.623402842422751
 21
5.3586340307222731
 31
0.0
  0
LINE
  5
18BC
  8
DIMENSIONS
 10
14.38205983076349
 20
5.3586340307222731
 30
0.0
 11
15.623402842422751
 21
5.3586340307222731
 31
0.0
  0
LINE
  5
18BD
  8
DIMENSIONS
 10
15.560902842422751
 20
5.6086340307222731
 30
0.0
 11
15.560902842422751
 21
6.0484865268149584
 31
0.0
  0
LINE
  5
18BE
  8
DIMENSIONS
 10
14.827758860638721
 20
5.2086340307222718
 30
0.0
 11
15.623402842422751
 21
5.2086340307222718
 31
0.0
  0
SOLID
  5
18BF
  8
DIMENSIONS
 10
15.519236175756079
 20
5.6086340307222731
 30
0.0
 11
15.602569509089429
 21
5.6086340307222731
 31
0.0
 12
15.560902842422751
 22
5.3586340307222731
 32
0.0
 13
15.560902842422751
 23
5.3586340307222731
 33
0.0
  0
SOLID
  5
18C0
  8
DIMENSIONS
 10
15.602569509089429
 20
5.6086340307222731
 30
0.0
 11
15.519236175756079
 21
5.6086340307222731
 31
0.0
 12
15.560902842422751
 22
5.3586340307222731
 32
0.0
 13
15.560902842422751
 23
5.3586340307222731
 33
0.0
  0
SOLID
  5
18C1
  8
DIMENSIONS
 10
15.519236175756079
 20
4.9586340307222718
 30
0.0
 11
15.602569509089429
 21
4.9586340307222718
 31
0.0
 12
15.560902842422751
 22
5.2086340307222718
 32
0.0
 13
15.560902842422751
 23
5.2086340307222718
 33
0.0
  0
LINE
  5
18C2
  8
DIMENSIONS
 10
15.560902842422751
 20
5.6086340307222731
 30
0.0
 11
15.560902842422751
 21
5.8586340307222731
 31
0.0
  0
LINE
  5
18C3
  8
DIMENSIONS
 10
14.38205983076349
 20
7.45863403072227
 30
0.0
 11
15.623402842422751
 21
7.45863403072227
 31
0.0
  0
LINE
  5
18C4
  8
DIMENSIONS
 10
14.38205983076349
 20
7.4586340307222692
 30
0.0
 11
15.623402842422751
 21
7.45863403072227
 31
0.0
  0
SOLID
  5
18C5
  8
DIMENSIONS
 10
14.094584897885129
 20
8.5102830260875066
 30
0.0
 11
14.094584897885129
 21
8.4269496927541745
 31
0.0
 12
14.344584897885129
 22
8.4686163594208406
 32
0.0
 13
14.344584897885129
 23
8.4686163594208406
 33
0.0
  0
LINE
  5
18C6
  8
DIMENSIONS
 10
14.094584897885129
 20
8.4686163594208406
 30
0.0
 11
13.844584897885129
 21
8.4686163594208406
 31
0.0
  0
SOLID
  5
18C7
  8
DIMENSIONS
 10
15.519236175756079
 20
8.2086340307222692
 30
0.0
 11
15.602569509089429
 21
8.2086340307222692
 31
0.0
 12
15.560902842422751
 22
7.95863403072227
 32
0.0
 13
15.560902842422751
 23
7.95863403072227
 33
0.0
  0
LINE
  5
18C8
  8
DIMENSIONS
 10
14.827758860638721
 20
7.95863403072227
 30
0.0
 11
15.623402842422751
 21
7.95863403072227
 31
0.0
  0
SOLID
  5
18C9
  8
DIMENSIONS
 10
15.519236175756079
 20
7.20863403072227
 30
0.0
 11
15.602569509089429
 21
7.20863403072227
 31
0.0
 12
15.560902842422751
 22
7.45863403072227
 32
0.0
 13
15.560902842422751
 23
7.45863403072227
 33
0.0
  0
SOLID
  5
18CA
  8
DIMENSIONS
 10
15.602569509089429
 20
7.20863403072227
 30
0.0
 11
15.519236175756079
 21
7.20863403072227
 31
0.0
 12
15.560902842422751
 22
7.45863403072227
 32
0.0
 13
15.560902842422751
 23
7.45863403072227
 33
0.0
  0
LINE
  5
18CB
  8
DIMENSIONS
 10
15.560902842422751
 20
8.2086340307222692
 30
0.0
 11
15.560902842422751
 21
8.4586340307222692
 31
0.0
  0
LINE
  5
18CC
  8
BODY_-_COIN_RETURN_PANEL_-
 10
12.69370097060013
 20
12.61380813853987
 30
0.0
 11
14.27243598889299
 21
12.677020020459819
 31
0.0
  0
LINE
  5
18CD
  8
BODY_-_COIN_RETURN_PANEL_-
  6
HIDDEN
 10
12.7358176644778
 20
12.56174356809135
 30
0.0
 11
14.234616732477351
 21
12.621754848395099
 31
0.0
  0
LINE
  5
18CE
  8
BODY_-_COIN_RETURN_PANEL_-
  6
HIDDEN
 10
12.764223003821581
 20
11.852312009238229
 30
0.0
 11
14.263022071821119
 21
11.91232328954198
 31
0.0
  0
ARC
  5
18CF
  8
BODY_-_COIN_RETURN_PANEL_-
 10
13.160076081791861
 20
20.712242558664759
 30
0.0
 40
9.0470000000000006
 50
259.82647786104809
 51
280.17446307999978
  0
ARC
  5
18D0
  8
BODY_-_COIN_RETURN_PANEL_-
 10
13.160076081791861
 20
20.712242558664759
 30
0.0
 40
9.0869999999999997
 50
267.55855321729138
 51
277.02719477670871
  0
ARC
  5
18D1
  8
BODY_-_COIN_RETURN_PANEL_-
 10
13.160076081791861
 20
20.712242558664759
 30
0.0
 40
9.0869999999999997
 50
259.82647786104809
 51
267.55855321729138
  0
LINE
  5
18D2
  8
DIMENSIONS
 10
12.12437379377149
 20
11.93364605986392
 30
0.0
 11
12.459765315938061
 21
13.20375832681499
 31
0.0
1001
ACAD
1000
DSTYLE
1002
{
1070
   147
1040
0.0625
1070
    77
1070
     0
1002
}
  0
SOLID
  5
18D3
  8
DIMENSIONS
 10
12.084112147436249
 20
11.944375036771721
 30
0.0
 11
12.059999932324679
 21
11.692076181852549
 31
0.0
 12
12.164635440106711
 22
11.92291708295612
 32
0.0
 13
12.164635440106711
 23
11.92291708295612
 33
0.0
1001
ACAD
1000
DSTYLE
1002
{
1070
   147
1040
0.0625
1070
    77
1070
     0
1002
}
  0
LINE
  5
18D4
  8
BODY_-_COIN_RETURN_PANEL_-
  6
HIDDEN
 10
12.772984502749861
 20
11.63349104155434
 30
0.0
 11
12.7358176644778
 21
12.56174356809135
 31
0.0
  0
LINE
  5
18D5
  8
BODY_-_COIN_RETURN_PANEL_-
 10
12.731274024031579
 20
11.675410271006619
 30
0.0
 11
12.69370097060013
 21
12.61380813853987
 31
0.0
  0
LINE
  5
18D6
  8
DIMENSIONS
 10
12.459765315938061
 20
13.20375832681499
 30
0.0
 11
12.26923461065852
 21
13.20375832681499
 31
0.0
1001
ACAD
1000
DSTYLE
1002
{
1070
   147
1040
0.0625
1070
    77
1070
     0
1002
}
  0
ARC
  5
18D7
  8
BODY_-_COIN_RETURN_PANEL_-
 10
13.160076081791861
 20
20.712242558664759
 30
0.0
 40
9.0869999999999997
 50
277.02719477670871
 51
280.17446307999978
  0
LINE
  5
18D8
  8
BODY_-_COIN_RETURN_PANEL_-
  6
HIDDEN
 10
14.27178357074941
 20
11.69350232185808
 30
0.0
 11
14.234616732477351
 21
12.621754848395099
 31
0.0
  0
LINE
  5
18D9
  8
BODY_-_COIN_RETURN_PANEL_-
 10
14.31000904232444
 20
11.73862215292657
 30
0.0
 11
14.27243598889299
 21
12.677020020459819
 31
0.0
  0
LINE
  5
18DA
  8
BODY_-_COIN_RETURN_PANEL_-
 10
14.758193018099499
 20
11.80751172287378
 30
0.0
 11
14.76525886063871
 21
11.76814074537498
 31
0.0
  0
LINE
  5
18DB
  8
DIMENSIONS
 10
16.310902842422749
 20
5.4586340307222718
 30
0.0
 11
16.310902842422749
 21
6.6119434371330463
 31
0.0
  0
SOLID
  5
18DC
  8
DIMENSIONS
 10
16.35256950908942
 20
5.4586340307222718
 30
0.0
 11
16.269236175756081
 21
5.4586340307222718
 31
0.0
 12
16.310902842422749
 22
5.2086340307222718
 32
0.0
 13
16.310902842422749
 23
5.2086340307222718
 33
0.0
  0
LINE
  5
18DD
  8
DIMENSIONS
 10
16.310902842422749
 20
7.7086340307222718
 30
0.0
 11
16.310902842422749
 21
6.9869434371330463
 31
0.0
  0
SOLID
  5
18DE
  8
DIMENSIONS
 10
16.35256950908942
 20
7.7086340307222718
 30
0.0
 11
16.269236175756081
 21
7.7086340307222718
 31
0.0
 12
16.310902842422749
 22
7.9586340307222718
 32
0.0
 13
16.310902842422749
 23
7.9586340307222718
 33
0.0
  0
LINE
  5
18DF
  8
BODY_-_COIN_RETURN_PANEL_-
 10
11.55504018784664
 20
11.76811438543583
 30
0.0
 11
11.56210538381427
 21
11.80748547896826
 31
0.0
  0
LINE
  5
18E0
  8
DIMENSIONS
 10
14.77629923960624
 20
11.706623593033109
 30
0.0
 11
15.0071284422262
 21
10.420439915435461
 31
0.0
  0
LINE
  5
18E1
  8
DIMENSIONS
 10
11.544000819147231
 20
11.70659705179142
 30
0.0
 11
11.31319273893471
 21
10.42040958357021
 31
0.0
  0
ARC
  5
18E2
  8
DIMENSIONS
 10
13.16007608179199
 20
20.71224255866516
 30
0.0
 40
10.39373278573002
 50
273.20107762853257
 51
278.79629697841813
  0
ARC
  5
18E3
  8
DIMENSIONS
 10
13.16007608179199
 20
20.71224255866516
 30
0.0
 40
10.39373278573002
 50
261.20464396262889
 51
266.87599350302622
  0
SOLID
  5
18E4
  8
DIMENSIONS
 10
14.75637263946307
 20
10.399661097611069
 30
0.0
 11
14.74263964501972
 21
10.481855071283491
 31
0.0
 12
14.99608806325867
 22
10.481957067777341
 32
0.0
 13
14.99608806325867
 23
10.481957067777341
 33
0.0
  0
SOLID
  5
18E5
  8
DIMENSIONS
 10
11.577680527513939
 20
10.481829082982349
 30
0.0
 11
11.56394888290456
 21
10.39963488379064
 31
0.0
 12
11.324232107634129
 22
10.481926917214629
 32
0.0
 13
11.324232107634129
 23
10.481926917214629
 33
0.0
  0
LINE
  5
18E7
  8
DIMENSIONS
 10
14.279429847635059
 20
11.631471809609771
 30
0.0
 11
14.35161537464618
 21
11.04586586250875
 31
0.0
  0
LINE
  5
18E8
  8
DIMENSIONS
 10
12.770322103312189
 20
11.571047774269269
 30
0.0
 11
12.74518742542951
 21
10.98154516735587
 31
0.0
  0
ARC
  5
18E9
  8
DIMENSIONS
 10
13.160076081791861
 20
20.712242558664759
 30
0.0
 40
9.6770381984159677
 50
280.17446307999978
 51
283.27077111896398
  0
ARC
  5
18EA
  8
DIMENSIONS
 10
13.160076081791861
 20
20.712242558664759
 30
0.0
 40
9.6770381984159677
 50
266.33782446813439
 51
277.02719477670871
  0
SOLID
  5
18EB
  8
DIMENSIONS
 10
12.999487061337669
 20
11.074234299360111
 30
0.0
 11
12.99569451819413
 21
10.99098731106054
 31
0.0
 12
12.747849824867179
 22
11.043988434640941
 32
0.0
 13
12.747849824867179
 23
11.043988434640941
 33
0.0
  0
SOLID
  5
18EC
  8
DIMENSIONS
 10
14.09889996863124
 20
11.043264857221731
 30
0.0
 11
14.09118537532947
 21
11.126240332481791
 31
0.0
 12
14.34396909776053
 22
11.107896374757059
 32
0.0
 13
14.34396909776053
 23
11.107896374757059
 33
0.0
  0
SOLID
  5
18EE
  8
DIMENSIONS
 10
15.10715244163732
 20
11.275421828673361
 30
0.0
 11
15.12285935725003
 21
11.19358212408946
 31
0.0
 12
14.869486785691979
 22
11.1873812295433
 32
0.0
 13
14.869486785691979
 23
11.1873812295433
 33
0.0
  0
LINE
  5
18EF
  8
DIMENSIONS
 10
15.381471646741209
 20
11.29361898419141
 30
0.0
 11
15.603767443826129
 21
11.29361898419141
 31
0.0
  0
LINE
  5
18F1
  8
BODY_-_COIN_RETURN_PANEL_-
 10
11.55504018784664
 20
7.9586340307222718
 30
0.0
 11
11.55504018784664
 21
5.2086340307222718
 31
0.0
  0
LINE
  5
18F2
  8
BODY_-_COIN_RETURN_PANEL_-
 10
12.772984502749861
 20
7.4586340307222718
 30
0.0
 11
12.772984502749861
 21
5.3586340307222731
 31
0.0
  0
LINE
  5
18F3
  8
BODY_-_COIN_RETURN_PANEL_-
 10
14.27178357074942
 20
7.4586340307222692
 30
0.0
 11
14.27178357074941
 21
5.358634030722274
 31
0.0
  0
LINE
  5
18F4
  8
BODY_-_COIN_RETURN_PANEL_-
 10
14.76525886063871
 20
7.95863403072227
 30
0.0
 11
14.76525886063871
 21
5.2086340307222718
 31
0.0
  0
ENDSEC
  0
EOF
