  0
SECTION
  2
HEADER
  9
$ACADVER
  1
AC1009
  9
$INSBASE
 10
0.0
 20
0.0
 30
0.0
  9
$EXTMIN
 10
0.0
 20
0.0
 30
0.0
  9
$EXTMAX
 10
44.000000000000007
 20
34.0
 30
0.0
  9
$LIMMIN
 10
0.0
 20
0.0
  9
$LIMMAX
 10
12.0
 20
9.0
  9
$ORTHOMODE
 70
     1
  9
$REGENMODE
 70
     1
  9
$FILLMODE
 70
     1
  9
$QTEXTMODE
 70
     0
  9
$MIRRTEXT
 70
     0
  9
$DRAGMODE
 70
     2
  9
$LTSCALE
 40
1.0
  9
$OSMODE
 70
    39
  9
$ATTMODE
 70
     1
  9
$TEXTSIZE
 40
0.2
  9
$TRACEWID
 40
0.05
  9
$TEXTSTYLE
  7
STANDARD
  9
$CLAYER
  8
0
  9
$CELTYPE
  6
BYLAYER
  9
$CECOLOR
 62
   256
  9
$DIMSCALE
 40
1.0
  9
$DIMASZ
 40
0.3125
  9
$DIMEXO
 40
0.0625
  9
$DIMDLI
 40
0.38
  9
$DIMRND
 40
0.0
  9
$DIMDLE
 40
0.0
  9
$DIMEXE
 40
0.0625
  9
$DIMTP
 40
0.0
  9
$DIMTM
 40
0.0
  9
$DIMTXT
 40
0.3125
  9
$DIMCEN
 40
0.0
  9
$DIMTSZ
 40
0.0
  9
$DIMTOL
 70
     0
  9
$DIMLIM
 70
     0
  9
$DIMTIH
 70
     1
  9
$DIMTOH
 70
     1
  9
$DIMSE1
 70
     0
  9
$DIMSE2
 70
     0
  9
$DIMTAD
 70
     0
  9
$DIMZIN
 70
     0
  9
$DIMBLK
  1

  9
$DIMASO
 70
     1
  9
$DIMSHO
 70
     1
  9
$DIMPOST
  1

  9
$DIMAPOST
  1

  9
$DIMALT
 70
     0
  9
$DIMALTD
 70
     2
  9
$DIMALTF
 40
25.399999999999999
  9
$DIMLFAC
 40
1.0
  9
$DIMTOFL
 70
     0
  9
$DIMTVP
 40
0.0
  9
$DIMTIX
 70
     0
  9
$DIMSOXD
 70
     0
  9
$DIMSAH
 70
     0
  9
$DIMBLK1
  1

  9
$DIMBLK2
  1

  9
$DIMSTYLE
  2
STANDARD
  9
$DIMCLRD
 70
     0
  9
$DIMCLRE
 70
     0
  9
$DIMCLRT
 70
     0
  9
$DIMTFAC
 40
1.0
  9
$DIMGAP
 40
0.09375
  9
$LUNITS
 70
     2
  9
$LUPREC
 70
     8
  9
$SKETCHINC
 40
0.1
  9
$FILLETRAD
 40
0.0
  9
$AUNITS
 70
     0
  9
$AUPREC
 70
     8
  9
$MENU
  1
.
  9
$ELEVATION
 40
0.0
  9
$PELEVATION
 40
0.0
  9
$THICKNESS
 40
0.0
  9
$LIMCHECK
 70
     0
  9
$BLIPMODE
 70
     0
  9
$CHAMFERA
 40
0.0
  9
$CHAMFERB
 40
0.0
  9
$SKPOLY
 70
     0
  9
$TDCREATE
 40
2453392.3745916551
  9
$TDUPDATE
 40
2453462.4936565631
  9
$TDINDWG
 40
0.258543669
  9
$TDUSRTIMER
 40
0.2585383333
  9
$USRTIMER
 70
     1
  9
$ANGBASE
 50
0.0
  9
$ANGDIR
 70
     0
  9
$PDMODE
 70
     0
  9
$PDSIZE
 40
0.0
  9
$PLINEWID
 40
0.0
  9
$COORDS
 70
     0
  9
$SPLFRAME
 70
     0
  9
$SPLINETYPE
 70
     6
  9
$SPLINESEGS
 70
     8
  9
$ATTDIA
 70
     0
  9
$ATTREQ
 70
     1
  9
$HANDLING
 70
     1
  9
$HANDSEED
  5
9D5
  9
$SURFTAB1
 70
     6
  9
$SURFTAB2
 70
     6
  9
$SURFTYPE
 70
     6
  9
$SURFU
 70
     6
  9
$SURFV
 70
     6
  9
$UCSNAME
  2

  9
$UCSORG
 10
0.0
 20
0.0
 30
0.0
  9
$UCSXDIR
 10
1.0
 20
0.0
 30
0.0
  9
$UCSYDIR
 10
0.0
 20
1.0
 30
0.0
  9
$PUCSNAME
  2

  9
$PUCSORG
 10
0.0
 20
0.0
 30
0.0
  9
$PUCSXDIR
 10
1.0
 20
0.0
 30
0.0
  9
$PUCSYDIR
 10
0.0
 20
1.0
 30
0.0
  9
$USERI1
 70
     0
  9
$USERI2
 70
     0
  9
$USERI3
 70
     0
  9
$USERI4
 70
     0
  9
$USERI5
 70
     0
  9
$USERR1
 40
0.0
  9
$USERR2
 40
0.0
  9
$USERR3
 40
0.0
  9
$USERR4
 40
0.0
  9
$USERR5
 40
0.0
  9
$WORLDVIEW
 70
     1
  9
$SHADEDGE
 70
     3
  9
$SHADEDIF
 70
    70
  9
$TILEMODE
 70
     1
  9
$MAXACTVP
 70
    64
  9
$PLIMCHECK
 70
     0
  9
$PEXTMIN
 10
0.0
 20
0.0
 30
0.0
  9
$PEXTMAX
 10
0.0
 20
0.0
 30
0.0
  9
$PLIMMIN
 10
0.0
 20
0.0
  9
$PLIMMAX
 10
12.0
 20
9.0
  9
$UNITMODE
 70
     0
  9
$VISRETAIN
 70
     1
  9
$PLINEGEN
 70
     0
  9
$PSLTSCALE
 70
     1
  0
ENDSEC
  0
SECTION
  2
TABLES
  0
TABLE
  2
VPORT
 70
     2
  0
VPORT
  2
*ACTIVE
 70
     0
 10
0.0
 20
0.0
 11
1.0
 21
1.0
 12
21.995163723336191
 22
17.000026481311359
 13
0.0
 23
0.0
 14
0.5
 24
0.5
 15
0.5
 25
0.5
 16
0.0
 26
0.0
 36
1.0
 17
0.0
 27
0.0
 37
0.0
 40
34.435687777282077
 41
2.1727078891257992
 42
50.0
 43
0.0
 44
0.0
 50
0.0
 51
0.0
 71
     0
 72
 20000
 73
     1
 74
     2
 75
     0
 76
     0
 77
     0
 78
     0
  0
ENDTAB
  0
TABLE
  2
LTYPE
 70
     1
  0
LTYPE
  2
CONTINUOUS
 70
     0
  3
Solid line
 72
    65
 73
     0
 40
0.0
  0
ENDTAB
  0
TABLE
  2
LAYER
 70
     7
  0
LAYER
  2
0
 70
     0
 62
     7
  6
CONTINUOUS
  0
LAYER
  2
ANKLE_-_CENTER
 70
     0
 62
     7
  6
CONTINUOUS
  0
LAYER
  2
ANKLE_-_CYLINDER
 70
     0
 62
     7
  6
CONTINUOUS
  0
LAYER
  2
DIMENSIONS
 70
     0
 62
     1
  6
CONTINUOUS
  0
LAYER
  2
FORM
 70
     0
 62
     5
  6
CONTINUOUS
  0
LAYER
  2
ANKLE_-_WEDGE
 70
     0
 62
     7
  6
CONTINUOUS
  0
LAYER
  2
DEFPOINTS
 70
     0
 62
     7
  6
CONTINUOUS
  0
ENDTAB
  0
TABLE
  2
STYLE
 70
     1
  0
STYLE
  2
STANDARD
 70
     0
 40
0.0
 41
1.0
 50
0.0
 71
     0
 42
0.2
  3
simplex.shx
  4

  0
ENDTAB
  0
TABLE
  2
VIEW
 70
     0
  0
ENDTAB
  0
TABLE
  2
UCS
 70
     0
  0
ENDTAB
  0
TABLE
  2
APPID
 70
     4
  0
APPID
  2
ACAD
 70
     0
  0
APPID
  2
ACAECLAYERSTANDARD
 70
     0
  0
APPID
  2
DCO15
 70
     0
  0
APPID
  2
ACAD_PSEXT
 70
     0
  0
ENDTAB
  0
TABLE
  2
DIMSTYLE
 70
     1
  0
DIMSTYLE
  2
STANDARD
 70
     0
  3

  4

  5

  6

  7

 40
1.0
 41
0.3125
 42
0.0625
 43
0.38
 44
0.0625
 45
0.0
 46
0.0
 47
0.0
 48
0.0
140
0.3125
141
0.0
142
0.0
143
25.399999999999999
144
1.0
145
0.0
146
1.0
147
0.09375
 71
     0
 72
     0
 73
     1
 74
     1
 75
     0
 76
     0
 77
     0
 78
     0
170
     0
171
     2
172
     0
173
     0
174
     0
175
     0
176
     0
177
     0
178
     0
  0
ENDTAB
  0
ENDSEC
  0
SECTION
  2
BLOCKS
  0
BLOCK
  8
0
  2
$MODEL_SPACE
 70
     0
 10
0.0
 20
0.0
 30
0.0
  3
$MODEL_SPACE
  1

  0
ENDBLK
  5
B
  8
0
  0
BLOCK
 67
     1
  8
0
  2
$PAPER_SPACE
 70
     0
 10
0.0
 20
0.0
 30
0.0
  3
$PAPER_SPACE
  1

  0
ENDBLK
  5
10
 67
     1
  8
0
  0
ENDSEC
  0
SECTION
  2
ENTITIES
  0
LINE
  5
2D
  8
ANKLE_-_CENTER
 10
11.52881126267377
 20
25.257585378048791
 30
0.0
 11
11.52881126267377
 21
22.757585378048791
 31
0.0
  0
LINE
  5
30
  8
ANKLE_-_CENTER
 10
16.40381126267377
 20
25.25758537804878
 30
0.0
 11
16.40381126267377
 21
22.757585378048791
 31
0.0
  0
LINE
  5
31
  8
ANKLE_-_CENTER
 10
11.52881126267377
 20
16.674348084715469
 30
0.0
 11
16.40381126267377
 21
16.674348084715469
 31
0.0
  0
LINE
  5
32
  8
ANKLE_-_CENTER
 10
11.52881126267377
 20
16.674348084715469
 30
0.0
 11
11.52881126267377
 21
12.68684808471547
 31
0.0
  0
LINE
  5
33
  8
ANKLE_-_CENTER
 10
16.40381126267377
 20
16.674348084715469
 30
0.0
 11
16.40381126267377
 21
12.686848084715461
 31
0.0
  0
ARC
  5
34
  8
ANKLE_-_CENTER
 10
13.96631126267377
 20
9.2783480847154731
 30
0.0
 40
0.625
 50
217.25885563384321
 51
322.46073218654391
  0
LINE
  5
35
  8
ANKLE_-_CENTER
 10
25.862350179250669
 20
16.674348084715469
 30
0.0
 11
30.862350179250669
 21
16.674348084715469
 31
0.0
  0
LINE
  5
36
  8
ANKLE_-_CENTER
 10
30.862350179250669
 20
16.674348084715469
 30
0.0
 11
30.862350179250669
 21
14.45953309314312
 31
0.0
  0
LINE
  5
37
  8
ANKLE_-_CENTER
 10
25.862350179250669
 20
16.674348084715469
 30
0.0
 11
25.862350179250669
 21
14.459533093143079
 31
0.0
  0
LINE
  5
38
  8
ANKLE_-_CENTER
 10
25.862350179250669
 20
14.459533093143079
 30
0.0
 11
27.112350179250669
 21
12.674348084715479
 31
0.0
  0
LINE
  5
39
  8
ANKLE_-_CENTER
 10
29.612350179250669
 20
12.674348084715479
 30
0.0
 11
30.862350179250669
 21
14.45953309314312
 31
0.0
  0
LINE
  5
3A
  8
ANKLE_-_CENTER
 10
27.862350179250669
 20
11.34831661877508
 30
0.0
 11
27.862350179250669
 21
8.6533499559934057
 31
0.0
  0
LINE
  5
3B
  8
ANKLE_-_CENTER
 10
27.112350179250669
 20
16.674348084715469
 30
0.0
 11
27.112350179250669
 21
12.56204804917256
 31
0.0
  0
LINE
  5
3C
  8
ANKLE_-_CENTER
 10
27.112350179250669
 20
11.43664812025839
 30
0.0
 11
27.112350179250669
 21
10.17623165716962
 31
0.0
  0
LINE
  5
3D
  8
ANKLE_-_CENTER
 10
28.862350179250669
 20
11.34831661877508
 30
0.0
 11
28.862350179250669
 21
8.6533499559934057
 31
0.0
  0
LINE
  5
3E
  8
ANKLE_-_CENTER
 10
29.612350179250669
 20
16.674348084715469
 30
0.0
 11
29.612350179250669
 21
12.56204804917256
 31
0.0
  0
LINE
  5
3F
  8
ANKLE_-_CENTER
 10
29.612350179250669
 20
11.43664812025839
 30
0.0
 11
29.612350179250669
 21
10.17623165716962
 31
0.0
  0
ARC
  5
40
  8
ANKLE_-_CENTER
 10
13.96631126267377
 20
13.17623165716962
 30
0.0
 40
3.0
 50
218.4229170580831
 51
321.57708294191679
  0
LINE
  5
41
  8
ANKLE_-_CENTER
 10
13.468868488418851
 20
8.8999624529301613
 30
0.0
 11
11.77297817789233
 21
11.129456149400591
 31
0.0
  0
LINE
  5
42
  8
ANKLE_-_CENTER
 10
14.46189622376891
 20
8.8975324517166143
 30
0.0
 11
16.317096054707719
 21
11.31184808471548
 31
0.0
  0
LINE
  5
43
  8
ANKLE_-_CENTER
 10
27.862350179250669
 20
8.6533499559934057
 30
0.0
 11
28.862350179250669
 21
8.6533499559934057
 31
0.0
  0
LINE
  5
44
  8
ANKLE_-_CENTER
 10
27.112350179250669
 20
11.42734808471547
 30
0.0
 11
29.612350179250669
 21
11.42734808471547
 31
0.0
  0
LINE
  5
45
  8
ANKLE_-_CENTER
 10
27.862350179250669
 20
11.34831661877508
 30
0.0
 11
28.862350179250669
 21
11.34831661877508
 31
0.0
  0
LINE
  5
46
  8
ANKLE_-_CENTER
 10
27.112350179250669
 20
10.17623165716962
 30
0.0
 11
27.862350179250669
 21
10.17623165716962
 31
0.0
  0
LINE
  5
47
  8
ANKLE_-_CENTER
 10
28.862350179250669
 20
10.17623165716962
 30
0.0
 11
29.612350179250669
 21
10.17623165716962
 31
0.0
  0
ARC
  5
48
  8
ANKLE_-_CENTER
 10
13.96631126267377
 20
24.507585378048802
 30
0.0
 40
3.0
 50
215.68533471265209
 51
324.31466528734791
  0
ARC
  5
49
  8
ANKLE_-_CENTER
 10
13.96631126267377
 20
23.50758537804878
 30
0.0
 40
3.0
 50
35.685334712652093
 51
144.31466528734791
  0
ARC
  5
4A
  8
ANKLE_-_CENTER
 10
14.02362738343893
 20
11.98111331205096
 30
0.0
 40
2.4790824409447421
 50
16.539470466095391
 51
91.324790331071185
  0
ARC
  5
4B
  8
ANKLE_-_CENTER
 10
13.9089951419086
 20
11.98111331205096
 30
0.0
 40
2.4790824409447421
 50
88.675209668928815
 51
163.46052953390441
  0
LINE
  5
4C
  8
ANKLE_-_CYLINDER
 10
17.21631126267377
 20
21.675085378048799
 30
0.0
 11
17.09131126267377
 21
21.675085378048809
 31
0.0
  0
LINE
  5
4E
  8
ANKLE_-_CYLINDER
 10
17.060311262673761
 20
21.675085378048809
 30
0.0
 11
16.59131126267377
 21
21.675085378048809
 31
0.0
  0
LINE
  5
4F
  8
ANKLE_-_CYLINDER
 10
16.560311262673761
 20
21.675085378048809
 30
0.0
 11
15.247311262673771
 21
21.675085378048799
 31
0.0
  0
LINE
  5
50
  8
ANKLE_-_CYLINDER
 10
15.21631126267377
 20
21.675085378048799
 30
0.0
 11
14.9547159115904
 21
21.675085378048799
 31
0.0
  0
LINE
  5
51
  8
ANKLE_-_CYLINDER
 10
12.97790661375714
 20
21.675085378048792
 30
0.0
 11
12.71631126267377
 21
21.675085378048792
 31
0.0
  0
LINE
  5
52
  8
ANKLE_-_CYLINDER
 10
12.685311262673761
 20
21.675085378048799
 30
0.0
 11
11.372311262673771
 21
21.675085378048799
 31
0.0
  0
LINE
  5
53
  8
ANKLE_-_CYLINDER
 10
11.34131126267377
 20
21.675085378048799
 30
0.0
 11
10.872311262673771
 21
21.675085378048792
 31
0.0
  0
LINE
  5
54
  8
ANKLE_-_CYLINDER
 10
10.84131126267377
 20
21.675085378048792
 30
0.0
 11
10.71631126267377
 21
21.675085378048792
 31
0.0
  0
LINE
  5
55
  8
ANKLE_-_CYLINDER
 10
17.09131126267377
 20
21.70608537804879
 30
0.0
 11
17.060311262673761
 21
21.706085378048812
 31
0.0
  0
LINE
  5
56
  8
ANKLE_-_CYLINDER
 10
16.59131126267377
 20
21.70608537804879
 30
0.0
 11
16.560311262673761
 21
21.70608537804879
 31
0.0
  0
LINE
  5
57
  8
ANKLE_-_CYLINDER
 10
15.247311262673771
 20
21.70608537804879
 30
0.0
 11
15.21631126267377
 21
21.706085378048812
 31
0.0
  0
LINE
  5
58
  8
ANKLE_-_CYLINDER
 10
12.71631126267377
 20
21.70608537804879
 30
0.0
 11
12.685311262673761
 21
21.70608537804879
 31
0.0
  0
LINE
  5
59
  8
ANKLE_-_CYLINDER
 10
11.372311262673771
 20
21.70608537804879
 30
0.0
 11
11.34131126267377
 21
21.70608537804879
 31
0.0
  0
LINE
  5
5A
  8
ANKLE_-_CYLINDER
 10
10.872311262673771
 20
21.70608537804879
 30
0.0
 11
10.84131126267377
 21
21.70608537804879
 31
0.0
  0
LINE
  5
5B
  8
ANKLE_-_CYLINDER
 10
17.21631126267377
 20
23.050085378048799
 30
0.0
 11
17.09131126267377
 21
23.050085378048799
 31
0.0
  0
LINE
  5
5C
  8
ANKLE_-_CYLINDER
 10
17.060311262673761
 20
23.050085378048799
 30
0.0
 11
16.59131126267377
 21
23.050085378048781
 31
0.0
  0
LINE
  5
5D
  8
ANKLE_-_CYLINDER
 10
16.560311262673789
 20
23.050085378048781
 30
0.0
 11
16.497311262673769
 21
23.050085378048781
 31
0.0
  0
LINE
  5
5E
  8
ANKLE_-_CYLINDER
 10
11.435311262673761
 20
23.050085378048781
 30
0.0
 11
11.372311262673771
 21
23.050085378048781
 31
0.0
  0
LINE
  5
5F
  8
ANKLE_-_CYLINDER
 10
11.34131126267377
 20
23.050085378048781
 30
0.0
 11
10.872311262673771
 21
23.050085378048799
 31
0.0
  0
LINE
  5
60
  8
ANKLE_-_CYLINDER
 10
10.84131126267377
 20
23.050085378048799
 30
0.0
 11
10.71631126267377
 21
23.050085378048799
 31
0.0
  0
LINE
  5
61
  8
ANKLE_-_CYLINDER
 10
17.09131126267377
 20
23.01908537804881
 30
0.0
 11
17.060311262673761
 21
23.01908537804881
 31
0.0
  0
LINE
  5
62
  8
ANKLE_-_CYLINDER
 10
16.59131126267377
 20
23.01908537804881
 30
0.0
 11
16.560311262673761
 21
23.01908537804881
 31
0.0
  0
LINE
  5
63
  8
ANKLE_-_CYLINDER
 10
11.372311262673771
 20
23.01908537804881
 30
0.0
 11
11.34131126267377
 21
23.01908537804881
 31
0.0
  0
LINE
  5
64
  8
ANKLE_-_CYLINDER
 10
10.872311262673771
 20
23.019085378048789
 30
0.0
 11
10.84131126267377
 21
23.01908537804881
 31
0.0
  0
LINE
  5
65
  8
ANKLE_-_CYLINDER
 10
12.71631126267377
 20
21.675085378048799
 30
0.0
 11
12.71631126267377
 21
21.780407349389868
 31
0.0
  0
LINE
  5
66
  8
ANKLE_-_CYLINDER
 10
12.685311262673761
 20
21.675085378048792
 30
0.0
 11
12.685311262673761
 21
21.79483050523039
 31
0.0
  0
LINE
  5
67
  8
ANKLE_-_CYLINDER
 10
15.21631126267377
 20
21.675085378048809
 30
0.0
 11
15.21631126267377
 21
21.780407349389868
 31
0.0
  0
LINE
  5
68
  8
ANKLE_-_CYLINDER
 10
15.247311262673771
 20
21.675085378048809
 30
0.0
 11
15.247311262673771
 21
21.79483050523039
 31
0.0
  0
LINE
  5
69
  8
ANKLE_-_CYLINDER
 10
17.59131126267377
 20
22.175085378048799
 30
0.0
 11
17.59131126267377
 21
22.550085378048799
 31
0.0
  0
LINE
  5
6A
  8
ANKLE_-_CYLINDER
 10
10.71631126267377
 20
21.675085378048799
 30
0.0
 11
10.71631126267377
 21
23.050085378048781
 31
0.0
  0
LINE
  5
6B
  8
ANKLE_-_CYLINDER
 10
10.84131126267377
 20
21.675085378048799
 30
0.0
 11
10.84131126267377
 21
23.050085378048781
 31
0.0
  0
LINE
  5
6C
  8
ANKLE_-_CYLINDER
 10
10.872311262673771
 20
21.675085378048799
 30
0.0
 11
10.872311262673771
 21
23.050085378048781
 31
0.0
  0
LINE
  5
6D
  8
ANKLE_-_CYLINDER
 10
17.21631126267377
 20
21.675085378048792
 30
0.0
 11
17.21631126267377
 21
23.050085378048799
 31
0.0
  0
LINE
  5
6E
  8
ANKLE_-_CYLINDER
 10
17.09131126267377
 20
21.675085378048792
 30
0.0
 11
17.09131126267377
 21
23.050085378048799
 31
0.0
  0
LINE
  5
6F
  8
ANKLE_-_CYLINDER
 10
17.060311262673761
 20
21.675085378048792
 30
0.0
 11
17.060311262673761
 21
23.050085378048799
 31
0.0
  0
LINE
  5
70
  8
ANKLE_-_CYLINDER
 10
17.247311262673769
 20
21.809385378048781
 30
0.0
 11
17.247311262673769
 21
22.175085378048781
 31
0.0
  0
LINE
  5
71
  8
ANKLE_-_CYLINDER
 10
17.247311262673751
 20
22.550085378048781
 30
0.0
 11
17.247311262673751
 21
22.915785378048799
 31
0.0
  0
LINE
  5
72
  8
ANKLE_-_CYLINDER
 10
11.372311262673771
 20
21.675085378048792
 30
0.0
 11
11.372311262673771
 21
23.050085378048799
 31
0.0
  0
LINE
  5
73
  8
ANKLE_-_CYLINDER
 10
11.34131126267377
 20
21.675085378048792
 30
0.0
 11
11.34131126267377
 21
23.050085378048799
 31
0.0
  0
LINE
  5
74
  8
ANKLE_-_CYLINDER
 10
16.560311262673761
 20
21.675085378048809
 30
0.0
 11
16.560311262673761
 21
23.050085378048799
 31
0.0
  0
LINE
  5
75
  8
ANKLE_-_CYLINDER
 10
16.59131126267377
 20
21.675085378048809
 30
0.0
 11
16.59131126267377
 21
23.050085378048799
 31
0.0
  0
LINE
  5
76
  8
ANKLE_-_CYLINDER
 10
17.21631126267377
 20
21.800085378048781
 30
0.0
 11
17.247311262673769
 21
21.809385378048781
 31
0.0
  0
LINE
  5
77
  8
ANKLE_-_CYLINDER
 10
17.21631126267377
 20
22.925085378048799
 30
0.0
 11
17.247311262673751
 21
22.915785378048799
 31
0.0
  0
LINE
  5
78
  8
ANKLE_-_CYLINDER
 10
10.34131126267377
 20
22.175085378048799
 30
0.0
 11
10.34131126267377
 21
22.550085378048799
 31
0.0
  0
LINE
  5
79
  8
ANKLE_-_CYLINDER
 10
10.685311262673791
 20
21.809385378048781
 30
0.0
 11
10.685311262673791
 21
22.175085378048781
 31
0.0
  0
LINE
  5
7A
  8
ANKLE_-_CYLINDER
 10
10.685311262673791
 20
22.550085378048781
 30
0.0
 11
10.685311262673791
 21
22.915785378048799
 31
0.0
  0
LINE
  5
7B
  8
ANKLE_-_CYLINDER
 10
10.71631126267377
 20
21.800085378048781
 30
0.0
 11
10.685311262673791
 21
21.809385378048781
 31
0.0
  0
LINE
  5
7C
  8
ANKLE_-_CYLINDER
 10
10.71631126267377
 20
22.925085378048799
 30
0.0
 11
10.685311262673791
 21
22.915785378048788
 31
0.0
  0
LINE
  5
7D
  8
ANKLE_-_CYLINDER
 10
11.435311262673761
 20
23.050085378048781
 30
0.0
 11
11.435311262673761
 21
22.757585378048791
 31
0.0
  0
LINE
  5
7E
  8
ANKLE_-_CYLINDER
 10
16.497311262673769
 20
23.050085378048781
 30
0.0
 11
16.497311262673769
 21
22.757585378048791
 31
0.0
  0
LINE
  5
7F
  8
ANKLE_-_CYLINDER
 10
17.59131126267377
 20
22.550085378048781
 30
0.0
 11
17.247311262673769
 21
22.550085378048799
 31
0.0
  0
LINE
  5
80
  8
ANKLE_-_CYLINDER
 10
10.685311262673791
 20
22.550085378048799
 30
0.0
 11
10.34131126267377
 21
22.550085378048781
 31
0.0
  0
LINE
  5
81
  8
ANKLE_-_CYLINDER
 10
17.59131126267377
 20
22.175085378048781
 30
0.0
 11
17.247311262673769
 21
22.175085378048781
 31
0.0
  0
LINE
  5
82
  8
ANKLE_-_CYLINDER
 10
10.685311262673791
 20
22.175085378048781
 30
0.0
 11
10.34131126267377
 21
22.175085378048781
 31
0.0
  0
LINE
  5
83
  8
ANKLE_-_CYLINDER
 10
17.216711969572678
 20
26.34008537804878
 30
0.0
 11
17.09171196957266
 21
26.34008537804878
 31
0.0
  0
LINE
  5
84
  8
ANKLE_-_CYLINDER
 10
17.060711969572651
 20
26.34008537804878
 30
0.0
 11
16.59171196957266
 21
26.34008537804878
 31
0.0
  0
LINE
  5
85
  8
ANKLE_-_CYLINDER
 10
16.560711969572651
 20
26.34008537804878
 30
0.0
 11
15.247711969572659
 21
26.34008537804878
 31
0.0
  0
LINE
  5
86
  8
ANKLE_-_CYLINDER
 10
15.21671196957268
 20
26.34008537804878
 30
0.0
 11
14.9547159115904
 21
26.340085378048791
 31
0.0
  0
LINE
  5
87
  8
ANKLE_-_CYLINDER
 10
12.97790661375717
 20
26.340085378048791
 30
0.0
 11
12.71671196957266
 21
26.340085378048791
 31
0.0
  0
LINE
  5
88
  8
ANKLE_-_CYLINDER
 10
12.685711969572679
 20
26.34008537804878
 30
0.0
 11
11.372711969572659
 21
26.34008537804878
 31
0.0
  0
LINE
  5
89
  8
ANKLE_-_CYLINDER
 10
11.34171196957265
 20
26.34008537804878
 30
0.0
 11
10.872711969572659
 21
26.340085378048791
 31
0.0
  0
LINE
  5
8A
  8
ANKLE_-_CYLINDER
 10
10.84171196957266
 20
26.340085378048791
 30
0.0
 11
10.71671196957265
 21
26.340085378048791
 31
0.0
  0
LINE
  5
8B
  8
ANKLE_-_CYLINDER
 10
17.09171196957266
 20
26.309085378048788
 30
0.0
 11
17.060711969572651
 21
26.309085378048771
 31
0.0
  0
LINE
  5
8C
  8
ANKLE_-_CYLINDER
 10
16.59171196957266
 20
26.309085378048788
 30
0.0
 11
16.560711969572651
 21
26.309085378048788
 31
0.0
  0
LINE
  5
8D
  8
ANKLE_-_CYLINDER
 10
15.247711969572659
 20
26.309085378048788
 30
0.0
 11
15.21671196957268
 21
26.309085378048771
 31
0.0
  0
LINE
  5
8E
  8
ANKLE_-_CYLINDER
 10
12.71671196957266
 20
26.309085378048799
 30
0.0
 11
12.685711969572679
 21
26.309085378048799
 31
0.0
  0
LINE
  5
8F
  8
ANKLE_-_CYLINDER
 10
11.372711969572659
 20
26.309085378048799
 30
0.0
 11
11.34171196957265
 21
26.309085378048788
 31
0.0
  0
LINE
  5
90
  8
ANKLE_-_CYLINDER
 10
10.872711969572659
 20
26.309085378048799
 30
0.0
 11
10.84171196957266
 21
26.309085378048799
 31
0.0
  0
LINE
  5
91
  8
ANKLE_-_CYLINDER
 10
17.21671196957266
 20
24.96508537804878
 30
0.0
 11
17.09171196957266
 21
24.96508537804878
 31
0.0
  0
LINE
  5
92
  8
ANKLE_-_CYLINDER
 10
17.060711969572651
 20
24.96508537804878
 30
0.0
 11
16.591711969572678
 21
24.965085378048791
 31
0.0
  0
LINE
  5
93
  8
ANKLE_-_CYLINDER
 10
16.560711969572679
 20
24.965085378048791
 30
0.0
 11
16.497711969572659
 21
24.965085378048791
 31
0.0
  0
LINE
  5
94
  8
ANKLE_-_CYLINDER
 10
11.435711969572649
 20
24.965085378048791
 30
0.0
 11
11.372711969572631
 21
24.965085378048791
 31
0.0
  0
LINE
  5
95
  8
ANKLE_-_CYLINDER
 10
11.34171196957265
 20
24.965085378048791
 30
0.0
 11
10.872711969572659
 21
24.96508537804878
 31
0.0
  0
LINE
  5
96
  8
ANKLE_-_CYLINDER
 10
10.84171196957266
 20
24.96508537804878
 30
0.0
 11
10.71671196957265
 21
24.96508537804878
 31
0.0
  0
LINE
  5
97
  8
ANKLE_-_CYLINDER
 10
17.09171196957266
 20
24.996085378048772
 30
0.0
 11
17.060711969572651
 21
24.996085378048779
 31
0.0
  0
LINE
  5
98
  8
ANKLE_-_CYLINDER
 10
16.59171196957266
 20
24.996085378048772
 30
0.0
 11
16.560711969572651
 21
24.996085378048779
 31
0.0
  0
LINE
  5
99
  8
ANKLE_-_CYLINDER
 10
11.372711969572659
 20
24.996085378048779
 30
0.0
 11
11.34171196957265
 21
24.996085378048779
 31
0.0
  0
LINE
  5
9A
  8
ANKLE_-_CYLINDER
 10
10.872711969572659
 20
24.996085378048779
 30
0.0
 11
10.84171196957266
 21
24.996085378048779
 31
0.0
  0
LINE
  5
9B
  8
ANKLE_-_CYLINDER
 10
12.71671196957266
 20
26.34008537804878
 30
0.0
 11
12.71671196957266
 21
26.234947034793478
 31
0.0
  0
LINE
  5
9C
  8
ANKLE_-_CYLINDER
 10
12.685711969572679
 20
26.340085378048791
 30
0.0
 11
12.685711969572679
 21
26.220529433960909
 31
0.0
  0
LINE
  5
9D
  8
ANKLE_-_CYLINDER
 10
15.21671196957266
 20
26.34008537804878
 30
0.0
 11
15.21671196957266
 21
26.234579707376732
 31
0.0
  0
LINE
  5
9E
  8
ANKLE_-_CYLINDER
 10
15.247711969572659
 20
26.34008537804878
 30
0.0
 11
15.247711969572659
 21
26.220150995385819
 31
0.0
  0
LINE
  5
9F
  8
ANKLE_-_CYLINDER
 10
17.59171196957266
 20
25.84008537804878
 30
0.0
 11
17.59171196957266
 21
25.46508537804878
 31
0.0
  0
LINE
  5
A0
  8
ANKLE_-_CYLINDER
 10
10.71671196957265
 20
26.34008537804878
 30
0.0
 11
10.71671196957265
 21
24.965085378048791
 31
0.0
  0
LINE
  5
A1
  8
ANKLE_-_CYLINDER
 10
10.84171196957266
 20
26.34008537804878
 30
0.0
 11
10.84171196957266
 21
24.965085378048791
 31
0.0
  0
LINE
  5
A2
  8
ANKLE_-_CYLINDER
 10
10.872711969572659
 20
26.34008537804878
 30
0.0
 11
10.872711969572659
 21
24.965085378048791
 31
0.0
  0
LINE
  5
A3
  8
ANKLE_-_CYLINDER
 10
17.21671196957266
 20
26.340085378048791
 30
0.0
 11
17.21671196957266
 21
24.96508537804878
 31
0.0
  0
LINE
  5
A4
  8
ANKLE_-_CYLINDER
 10
17.09171196957266
 20
26.340085378048791
 30
0.0
 11
17.09171196957266
 21
24.96508537804878
 31
0.0
  0
LINE
  5
A5
  8
ANKLE_-_CYLINDER
 10
17.060711969572651
 20
26.340085378048791
 30
0.0
 11
17.060711969572651
 21
24.96508537804878
 31
0.0
  0
LINE
  5
A6
  8
ANKLE_-_CYLINDER
 10
17.247711969572631
 20
26.205785378048802
 30
0.0
 11
17.247711969572659
 21
25.840085378048801
 31
0.0
  0
LINE
  5
A7
  8
ANKLE_-_CYLINDER
 10
17.247711969572631
 20
25.465085378048791
 30
0.0
 11
17.247711969572631
 21
25.099385378048769
 31
0.0
  0
LINE
  5
A8
  8
ANKLE_-_CYLINDER
 10
11.372711969572659
 20
26.340085378048791
 30
0.0
 11
11.372711969572631
 21
24.96508537804878
 31
0.0
  0
LINE
  5
A9
  8
ANKLE_-_CYLINDER
 10
11.34171196957265
 20
26.340085378048791
 30
0.0
 11
11.34171196957265
 21
24.96508537804878
 31
0.0
  0
LINE
  5
AA
  8
ANKLE_-_CYLINDER
 10
16.560711969572651
 20
26.34008537804878
 30
0.0
 11
16.560711969572651
 21
24.96508537804878
 31
0.0
  0
LINE
  5
AB
  8
ANKLE_-_CYLINDER
 10
16.59171196957266
 20
26.34008537804878
 30
0.0
 11
16.59171196957266
 21
24.96508537804878
 31
0.0
  0
LINE
  5
AC
  8
ANKLE_-_CYLINDER
 10
17.21671196957266
 20
26.215085378048791
 30
0.0
 11
17.247711969572631
 21
26.205785378048802
 31
0.0
  0
LINE
  5
AD
  8
ANKLE_-_CYLINDER
 10
17.21671196957266
 20
25.09008537804878
 30
0.0
 11
17.247711969572631
 21
25.099385378048769
 31
0.0
  0
LINE
  5
AE
  8
ANKLE_-_CYLINDER
 10
10.34171196957266
 20
25.84008537804878
 30
0.0
 11
10.34171196957266
 21
25.46508537804878
 31
0.0
  0
LINE
  5
AF
  8
ANKLE_-_CYLINDER
 10
10.685711969572679
 20
26.205785378048802
 30
0.0
 11
10.685711969572679
 21
25.840085378048801
 31
0.0
  0
LINE
  5
B0
  8
ANKLE_-_CYLINDER
 10
10.685711969572679
 20
25.465085378048791
 30
0.0
 11
10.685711969572679
 21
25.099385378048769
 31
0.0
  0
LINE
  5
B1
  8
ANKLE_-_CYLINDER
 10
10.71671196957268
 20
26.215085378048791
 30
0.0
 11
10.685711969572679
 21
26.205785378048802
 31
0.0
  0
LINE
  5
B2
  8
ANKLE_-_CYLINDER
 10
10.71671196957268
 20
25.09008537804878
 30
0.0
 11
10.685711969572679
 21
25.09938537804879
 31
0.0
  0
LINE
  5
B3
  8
ANKLE_-_CYLINDER
 10
11.435711969572649
 20
24.965085378048791
 30
0.0
 11
11.435711969572649
 21
25.257585378048791
 31
0.0
  0
LINE
  5
B4
  8
ANKLE_-_CYLINDER
 10
16.497711969572659
 20
24.965085378048791
 30
0.0
 11
16.497711969572659
 21
25.257585378048791
 31
0.0
  0
LINE
  5
B5
  8
ANKLE_-_CYLINDER
 10
17.59171196957266
 20
25.465085378048791
 30
0.0
 11
17.247711969572631
 21
25.46508537804878
 31
0.0
  0
LINE
  5
B6
  8
ANKLE_-_CYLINDER
 10
10.685711969572679
 20
25.46508537804878
 30
0.0
 11
10.34171196957268
 21
25.465085378048791
 31
0.0
  0
LINE
  5
B7
  8
ANKLE_-_CYLINDER
 10
17.59171196957266
 20
25.840085378048791
 30
0.0
 11
17.247711969572631
 21
25.840085378048791
 31
0.0
  0
LINE
  5
B8
  8
ANKLE_-_CYLINDER
 10
10.685711969572679
 20
25.840085378048791
 30
0.0
 11
10.34171196957268
 21
25.840085378048791
 31
0.0
  0
LINE
  5
B9
  8
ANKLE_-_CYLINDER
 10
16.497711969572659
 20
25.257585378048791
 30
0.0
 11
16.40381126267377
 21
25.257585378048791
 31
0.0
  0
LINE
  5
BA
  8
ANKLE_-_CYLINDER
 10
11.52881126267377
 20
25.257585378048791
 30
0.0
 11
11.435711969572649
 21
25.257585378048791
 31
0.0
  0
LINE
  5
BB
  8
ANKLE_-_CYLINDER
 10
16.497311262673769
 20
22.757585378048791
 30
0.0
 11
16.40381126267377
 21
22.757585378048791
 31
0.0
  0
LINE
  5
BC
  8
ANKLE_-_CYLINDER
 10
11.52881126267377
 20
22.75758537804878
 30
0.0
 11
11.435311262673761
 21
22.757585378048791
 31
0.0
  0
LINE
  5
BD
  8
ANKLE_-_CYLINDER
 10
17.21631126267377
 20
12.68684808471547
 30
0.0
 11
17.09131126267377
 21
12.686848084715461
 31
0.0
  0
LINE
  5
BE
  8
ANKLE_-_CYLINDER
 10
17.060311262673761
 20
12.686848084715461
 30
0.0
 11
16.59131126267377
 21
12.686848084715461
 31
0.0
  0
LINE
  5
BF
  8
ANKLE_-_CYLINDER
 10
16.560311262673761
 20
12.686848084715461
 30
0.0
 11
15.247311262673771
 21
12.68684808471547
 31
0.0
  0
LINE
  5
C0
  8
ANKLE_-_CYLINDER
 10
15.21631126267377
 20
12.68684808471547
 30
0.0
 11
15.04567827885799
 21
12.68684808471547
 31
0.0
  0
LINE
  5
C1
  8
ANKLE_-_CYLINDER
 10
12.88694424648955
 20
12.68684808471547
 30
0.0
 11
12.71631126267377
 21
12.68684808471548
 31
0.0
  0
LINE
  5
C2
  8
ANKLE_-_CYLINDER
 10
12.685311262673761
 20
12.68684808471547
 30
0.0
 11
11.372311262673771
 21
12.68684808471547
 31
0.0
  0
LINE
  5
C3
  8
ANKLE_-_CYLINDER
 10
11.34131126267377
 20
12.68684808471547
 30
0.0
 11
10.872311262673771
 21
12.68684808471548
 31
0.0
  0
LINE
  5
C4
  8
ANKLE_-_CYLINDER
 10
10.84131126267377
 20
12.68684808471548
 30
0.0
 11
10.71631126267377
 21
12.68684808471548
 31
0.0
  0
LINE
  5
C5
  8
ANKLE_-_CYLINDER
 10
17.09131126267377
 20
12.655848084715471
 30
0.0
 11
17.060311262673761
 21
12.65584808471546
 31
0.0
  0
LINE
  5
C6
  8
ANKLE_-_CYLINDER
 10
16.59131126267377
 20
12.655848084715471
 30
0.0
 11
16.560311262673761
 21
12.655848084715471
 31
0.0
  0
LINE
  5
C7
  8
ANKLE_-_CYLINDER
 10
15.247311262673771
 20
12.655848084715471
 30
0.0
 11
15.21631126267377
 21
12.65584808471546
 31
0.0
  0
LINE
  5
C8
  8
ANKLE_-_CYLINDER
 10
12.71631126267377
 20
12.65584808471548
 30
0.0
 11
12.685311262673761
 21
12.65584808471548
 31
0.0
  0
LINE
  5
C9
  8
ANKLE_-_CYLINDER
 10
11.372311262673771
 20
12.65584808471548
 30
0.0
 11
11.34131126267377
 21
12.655848084715471
 31
0.0
  0
LINE
  5
CA
  8
ANKLE_-_CYLINDER
 10
10.872311262673771
 20
12.65584808471548
 30
0.0
 11
10.84131126267377
 21
12.65584808471548
 31
0.0
  0
LINE
  5
CB
  8
ANKLE_-_CYLINDER
 10
17.21631126267377
 20
11.31184808471547
 30
0.0
 11
17.09131126267377
 21
11.31184808471547
 31
0.0
  0
LINE
  5
CC
  8
ANKLE_-_CYLINDER
 10
17.060311262673761
 20
11.31184808471547
 30
0.0
 11
16.59131126267377
 21
11.31184808471548
 31
0.0
  0
LINE
  5
CD
  8
ANKLE_-_CYLINDER
 10
16.560311262673789
 20
11.31184808471548
 30
0.0
 11
15.247311262673771
 21
11.31184808471548
 31
0.0
  0
LINE
  5
CE
  8
ANKLE_-_CYLINDER
 10
15.21631126267377
 20
11.31184808471548
 30
0.0
 11
12.71631126267377
 21
11.31184808471548
 31
0.0
  0
LINE
  5
CF
  8
ANKLE_-_CYLINDER
 10
12.685311262673761
 20
11.31184808471548
 30
0.0
 11
11.372311262673771
 21
11.31184808471548
 31
0.0
  0
LINE
  5
D0
  8
ANKLE_-_CYLINDER
 10
11.34131126267377
 20
11.31184808471548
 30
0.0
 11
10.872311262673771
 21
11.31184808471547
 31
0.0
  0
LINE
  5
D1
  8
ANKLE_-_CYLINDER
 10
10.84131126267377
 20
11.31184808471547
 30
0.0
 11
10.71631126267377
 21
11.31184808471547
 31
0.0
  0
LINE
  5
D2
  8
ANKLE_-_CYLINDER
 10
17.09131126267377
 20
11.342848084715451
 30
0.0
 11
17.060311262673761
 21
11.34284808471546
 31
0.0
  0
LINE
  5
D3
  8
ANKLE_-_CYLINDER
 10
16.59131126267377
 20
11.342848084715451
 30
0.0
 11
16.560311262673761
 21
11.34284808471546
 31
0.0
  0
LINE
  5
D4
  8
ANKLE_-_CYLINDER
 10
15.247311262673771
 20
11.342848084715451
 30
0.0
 11
15.21631126267377
 21
11.34284808471546
 31
0.0
  0
LINE
  5
D5
  8
ANKLE_-_CYLINDER
 10
12.71631126267377
 20
11.34284808471546
 30
0.0
 11
12.685311262673761
 21
11.34284808471546
 31
0.0
  0
LINE
  5
D6
  8
ANKLE_-_CYLINDER
 10
11.372311262673771
 20
11.34284808471546
 30
0.0
 11
11.34131126267377
 21
11.34284808471546
 31
0.0
  0
LINE
  5
D7
  8
ANKLE_-_CYLINDER
 10
10.872311262673771
 20
11.342848084715479
 30
0.0
 11
10.84131126267377
 21
11.34284808471547
 31
0.0
  0
LINE
  5
D8
  8
ANKLE_-_CYLINDER
 10
12.71631126267377
 20
12.68684808471547
 30
0.0
 11
12.71631126267377
 21
11.31184808471547
 31
0.0
  0
LINE
  5
D9
  8
ANKLE_-_CYLINDER
 10
12.685311262673761
 20
12.68684808471548
 30
0.0
 11
12.685311262673761
 21
11.31184808471547
 31
0.0
  0
LINE
  5
DA
  8
ANKLE_-_CYLINDER
 10
15.21631126267377
 20
12.686848084715461
 30
0.0
 11
15.21631126267377
 21
11.31184808471547
 31
0.0
  0
LINE
  5
DB
  8
ANKLE_-_CYLINDER
 10
15.247311262673771
 20
12.686848084715461
 30
0.0
 11
15.247311262673771
 21
11.31184808471547
 31
0.0
  0
LINE
  5
DC
  8
ANKLE_-_CYLINDER
 10
17.59131126267377
 20
12.449348084715471
 30
0.0
 11
17.59131126267377
 21
11.549348084715479
 31
0.0
  0
LINE
  5
DD
  8
ANKLE_-_CYLINDER
 10
10.71631126267377
 20
12.68684808471547
 30
0.0
 11
10.71631126267377
 21
11.31184808471548
 31
0.0
  0
LINE
  5
DE
  8
ANKLE_-_CYLINDER
 10
10.84131126267377
 20
12.68684808471547
 30
0.0
 11
10.84131126267377
 21
11.31184808471548
 31
0.0
  0
LINE
  5
DF
  8
ANKLE_-_CYLINDER
 10
10.872311262673771
 20
12.68684808471547
 30
0.0
 11
10.872311262673771
 21
11.31184808471548
 31
0.0
  0
LINE
  5
E0
  8
ANKLE_-_CYLINDER
 10
17.21631126267377
 20
12.68684808471548
 30
0.0
 11
17.21631126267377
 21
11.31184808471547
 31
0.0
  0
LINE
  5
E1
  8
ANKLE_-_CYLINDER
 10
17.09131126267377
 20
12.68684808471548
 30
0.0
 11
17.09131126267377
 21
11.31184808471547
 31
0.0
  0
LINE
  5
E2
  8
ANKLE_-_CYLINDER
 10
17.060311262673761
 20
12.68684808471548
 30
0.0
 11
17.060311262673761
 21
11.31184808471547
 31
0.0
  0
LINE
  5
E3
  8
ANKLE_-_CYLINDER
 10
17.247311262673769
 20
12.52967817060537
 30
0.0
 11
17.247311262673769
 21
11.46901799882556
 31
0.0
  0
LINE
  5
E4
  8
ANKLE_-_CYLINDER
 10
11.372311262673771
 20
12.68684808471548
 30
0.0
 11
11.372311262673771
 21
11.31184808471547
 31
0.0
  0
LINE
  5
E5
  8
ANKLE_-_CYLINDER
 10
11.34131126267377
 20
12.68684808471548
 30
0.0
 11
11.34131126267377
 21
11.31184808471547
 31
0.0
  0
LINE
  5
E6
  8
ANKLE_-_CYLINDER
 10
16.560311262673761
 20
12.686848084715461
 30
0.0
 11
16.560311262673761
 21
11.31184808471547
 31
0.0
  0
LINE
  5
E7
  8
ANKLE_-_CYLINDER
 10
16.59131126267377
 20
12.686848084715461
 30
0.0
 11
16.59131126267377
 21
11.31184808471547
 31
0.0
  0
LINE
  5
E8
  8
ANKLE_-_CYLINDER
 10
17.21631126267377
 20
12.56184808471548
 30
0.0
 11
17.59131126267377
 21
12.449348084715471
 31
0.0
  0
LINE
  5
E9
  8
ANKLE_-_CYLINDER
 10
17.21631126267377
 20
11.43684808471547
 30
0.0
 11
17.59131126267377
 21
11.54934808471547
 31
0.0
  0
LINE
  5
EA
  8
ANKLE_-_CYLINDER
 10
17.59131126267377
 20
12.40842478901431
 30
0.0
 11
17.247311262673769
 21
12.52967817060537
 31
0.0
  0
LINE
  5
EB
  8
ANKLE_-_CYLINDER
 10
17.59131126267377
 20
11.59027138041664
 30
0.0
 11
17.247311262673769
 21
11.46901799882556
 31
0.0
  0
LINE
  5
EC
  8
ANKLE_-_CYLINDER
 10
10.34131126267377
 20
12.449348084715471
 30
0.0
 11
10.34131126267377
 21
11.549348084715479
 31
0.0
  0
LINE
  5
ED
  8
ANKLE_-_CYLINDER
 10
10.685311262673791
 20
12.52967817060537
 30
0.0
 11
10.685311262673791
 21
11.46901799882556
 31
0.0
  0
LINE
  5
EE
  8
ANKLE_-_CYLINDER
 10
10.71631126267377
 20
12.56184808471548
 30
0.0
 11
10.34131126267377
 21
12.449348084715471
 31
0.0
  0
LINE
  5
EF
  8
ANKLE_-_CYLINDER
 10
10.71631126267377
 20
11.43684808471547
 30
0.0
 11
10.34131126267377
 21
11.54934808471547
 31
0.0
  0
LINE
  5
F0
  8
ANKLE_-_CYLINDER
 10
10.34131126267377
 20
12.40842478901431
 30
0.0
 11
10.685311262673791
 21
12.52967817060537
 31
0.0
  0
LINE
  5
F1
  8
ANKLE_-_CYLINDER
 10
10.34131126267377
 20
11.59027138041664
 30
0.0
 11
10.685311262673791
 21
11.46901799882556
 31
0.0
  0
CIRCLE
  5
F2
  8
ANKLE_-_CYLINDER
 10
26.71735017925069
 20
11.99934808471547
 30
0.0
 40
0.6875
  0
ARC
  5
F3
  8
ANKLE_-_CYLINDER
 10
26.71735017925069
 20
11.99934808471547
 30
0.0
 40
0.45
 50
245.37568164783599
 51
294.6243183521641
  0
ARC
  5
F4
  8
ANKLE_-_CYLINDER
 10
26.71735017925069
 20
11.99934808471547
 30
0.0
 40
0.45
 50
65.375681647835989
 51
114.624318352164
  0
CIRCLE
  5
F5
  8
ANKLE_-_CYLINDER
 10
26.71735017925069
 20
11.99934808471547
 30
0.0
 40
0.5625
  0
LINE
  5
F6
  8
ANKLE_-_CYLINDER
 10
26.52985017925069
 20
12.51980364477801
 30
0.0
 11
26.52985017925069
 21
11.478892524652929
 31
0.0
  0
LINE
  5
F7
  8
ANKLE_-_CYLINDER
 10
26.90485017925069
 20
12.51980364477801
 30
0.0
 11
26.90485017925069
 21
11.478892524652929
 31
0.0
  0
ARC
  5
F8
  8
ANKLE_-_CYLINDER
 10
26.71735017925069
 20
11.99934808471547
 30
0.0
 40
0.5532000000000111
 50
109.81212928287761
 51
250.18787071712239
  0
ARC
  5
F9
  8
ANKLE_-_CYLINDER
 10
26.71735017925069
 20
11.99934808471547
 30
0.0
 40
0.5532000000000111
 50
289.81212928287601
 51
70.187870717124056
  0
CIRCLE
  5
FA
  8
ANKLE_-_CYLINDER
 10
30.007350179250651
 20
11.99934808471547
 30
0.0
 40
0.6875
  0
ARC
  5
FB
  8
ANKLE_-_CYLINDER
 10
30.007350179250651
 20
11.99934808471547
 30
0.0
 40
0.45
 50
245.37568164783599
 51
294.6243183521641
  0
ARC
  5
FC
  8
ANKLE_-_CYLINDER
 10
30.007350179250651
 20
11.99934808471547
 30
0.0
 40
0.45
 50
65.375681647835989
 51
114.624318352164
  0
CIRCLE
  5
FD
  8
ANKLE_-_CYLINDER
 10
30.007350179250651
 20
11.99934808471547
 30
0.0
 40
0.5625
  0
LINE
  5
FE
  8
ANKLE_-_CYLINDER
 10
29.819850179250651
 20
12.51980364477801
 30
0.0
 11
29.819850179250651
 21
11.478892524652929
 31
0.0
  0
LINE
  5
FF
  8
ANKLE_-_CYLINDER
 10
30.194850179250651
 20
12.51980364477801
 30
0.0
 11
30.194850179250651
 21
11.478892524652929
 31
0.0
  0
ARC
  5
100
  8
ANKLE_-_CYLINDER
 10
30.007350179250651
 20
11.99934808471547
 30
0.0
 40
0.5532000000000111
 50
109.81212928287761
 51
250.18787071712239
  0
ARC
  5
101
  8
ANKLE_-_CYLINDER
 10
30.007350179250651
 20
11.99934808471547
 30
0.0
 40
0.5532000000000111
 50
289.81212928287601
 51
70.187870717124056
  0
CIRCLE
  5
102
  8
ANKLE_-_CENTER
 10
13.96631126267377
 20
9.2783480847154731
 30
0.0
 40
0.125
  0
LINE
  5
19D
  8
DIMENSIONS
 10
11.46631126267377
 20
16.674348084715469
 30
0.0
 11
9.1862516565750791
 21
16.674348084715469
 31
0.0
  0
LINE
  5
19F
  8
DIMENSIONS
 10
13.90381126267377
 20
9.2783480847154731
 30
0.0
 11
9.1862516565750791
 21
9.2783480847154731
 31
0.0
  0
LINE
  5
1A0
  8
DIMENSIONS
 10
9.2487516565750791
 20
16.361848084715469
 30
0.0
 11
9.2487516565750791
 21
13.22634808471547
 31
0.0
  0
LINE
  5
1A1
  8
DIMENSIONS
 10
9.2487516565750791
 20
9.5908480847154731
 30
0.0
 11
9.2487516565750791
 21
12.72634808471547
 31
0.0
  0
SOLID
  5
1A2
  8
DIMENSIONS
 10
9.1966683232417523
 20
16.361848084715469
 30
0.0
 11
9.3008349899084095
 21
16.361848084715469
 31
0.0
 12
9.2487516565750791
 22
16.674348084715469
 32
0.0
 13
9.2487516565750791
 23
16.674348084715469
 33
0.0
  0
SOLID
  5
1A3
  8
DIMENSIONS
 10
9.1966683232417523
 20
9.5908480847154731
 30
0.0
 11
9.3008349899084095
 21
9.5908480847154731
 31
0.0
 12
9.2487516565750791
 22
9.2783480847154731
 32
0.0
 13
9.2487516565750791
 23
9.2783480847154731
 33
0.0
  0
TEXT
  5
1A4
  8
DIMENSIONS
 10
8.6311921327655483
 20
12.82009808471549
 30
0.0
 40
0.3125
  1
7.396
  0
LINE
  5
1A5
  8
DIMENSIONS
 10
25.799850179250669
 20
16.674348084715469
 30
0.0
 11
24.375003507111231
 21
16.674348084715469
 31
0.0
  0
LINE
  5
1A6
  8
DIMENSIONS
 10
26.65485017925069
 20
11.99934808471547
 30
0.0
 11
24.375003507111231
 21
11.99934808471547
 31
0.0
  0
LINE
  5
1A7
  8
DIMENSIONS
 10
24.437503507111231
 20
16.361848084715469
 30
0.0
 11
24.437503507111231
 21
14.586848084715481
 31
0.0
  0
LINE
  5
1A8
  8
DIMENSIONS
 10
24.437503507111231
 20
12.31184808471547
 30
0.0
 11
24.437503507111231
 21
14.08684808471547
 31
0.0
  0
SOLID
  5
1A9
  8
DIMENSIONS
 10
24.38542017377792
 20
16.361848084715469
 30
0.0
 11
24.489586840444581
 21
16.361848084715469
 31
0.0
 12
24.437503507111231
 22
16.674348084715469
 32
0.0
 13
24.437503507111231
 23
16.674348084715469
 33
0.0
  0
SOLID
  5
1AA
  8
DIMENSIONS
 10
24.38542017377792
 20
12.31184808471547
 30
0.0
 11
24.489586840444581
 21
12.31184808471547
 31
0.0
 12
24.437503507111231
 22
11.99934808471547
 32
0.0
 13
24.437503507111231
 23
11.99934808471547
 33
0.0
  0
TEXT
  5
1AB
  8
DIMENSIONS
 10
23.812503507111231
 20
14.1805980847155
 30
0.0
 40
0.3125
  1
4.675
  0
LINE
  5
1AC
  8
DIMENSIONS
 10
10.34171196957266
 20
25.902585378048791
 30
0.0
 11
10.34171196957266
 21
27.604984777391941
 31
0.0
  0
LINE
  5
1AD
  8
DIMENSIONS
 10
17.59171196957266
 20
25.902585378048791
 30
0.0
 11
17.59171196957266
 21
27.604984777391941
 31
0.0
  0
LINE
  5
1AE
  8
DIMENSIONS
 10
10.65421196957266
 20
27.542484777391941
 30
0.0
 11
13.24796196957265
 21
27.542484777391941
 31
0.0
  0
LINE
  5
1AF
  8
DIMENSIONS
 10
17.27921196957266
 20
27.542484777391941
 30
0.0
 11
14.68546196957265
 21
27.542484777391941
 31
0.0
  0
SOLID
  5
1B0
  8
DIMENSIONS
 10
10.65421196957266
 20
27.59456811072528
 30
0.0
 11
10.65421196957266
 21
27.490401444058602
 31
0.0
 12
10.34171196957266
 22
27.542484777391941
 32
0.0
 13
10.34171196957266
 23
27.542484777391941
 33
0.0
  0
SOLID
  5
1B1
  8
DIMENSIONS
 10
17.27921196957266
 20
27.59456811072528
 30
0.0
 11
17.27921196957266
 21
27.490401444058602
 31
0.0
 12
17.59171196957266
 22
27.542484777391941
 32
0.0
 13
17.59171196957266
 23
27.542484777391941
 33
0.0
  0
TEXT
  5
1B2
  8
DIMENSIONS
 10
13.34171196957266
 20
27.386234777391941
 30
0.0
 40
0.3125
  1
7.250
  0
SOLID
  5
1B3
  8
DIMENSIONS
 10
16.57451007325373
 20
16.941239148031009
 30
0.0
 11
16.40381126267377
 21
16.674348084715469
 31
0.0
 12
16.478723846741669
 22
16.982174380472319
 32
0.0
 13
16.478723846741669
 23
16.982174380472319
 33
0.0
1001
ACAD
1000
DSTYLE
1002
{
1070
   147
1040
0.09375
1070
    77
1070
     0
1002
}
  0
LINE
  5
1B4
  8
DIMENSIONS
 10
16.52661695999771
 20
16.961706764251659
 30
0.0
 11
17.096420087528401
 21
18.295015217286231
 31
0.0
1001
ACAD
1000
DSTYLE
1002
{
1070
   147
1040
0.09375
1070
    77
1070
     0
1002
}
  0
LINE
  5
1B5
  8
DIMENSIONS
 10
17.096420087528401
 20
18.295015217286231
 30
0.0
 11
17.408920087528401
 21
18.295015217286231
 31
0.0
1001
ACAD
1000
DSTYLE
1002
{
1070
   147
1040
0.09375
1070
    77
1070
     0
1002
}
  0
TEXT
  5
1B6
  8
DIMENSIONS
 10
17.502670087528401
 20
18.138765217286231
 30
0.0
 40
0.3125
  1
CENTER ANKLE
  0
SOLID
  5
1B7
  8
DIMENSIONS
 10
16.996510073253731
 20
12.953739148031
 30
0.0
 11
16.825811262673771
 21
12.686848084715461
 31
0.0
 12
16.90072384674167
 22
12.994674380472309
 32
0.0
 13
16.90072384674167
 23
12.994674380472309
 33
0.0
1001
ACAD
1000
DSTYLE
1002
{
1070
   147
1040
0.09375
1070
    77
1070
     0
1002
}
  0
LINE
  5
1B8
  8
DIMENSIONS
 10
16.948616959997711
 20
12.974206764251649
 30
0.0
 11
17.518420087528401
 21
14.307515217286211
 31
0.0
1001
ACAD
1000
DSTYLE
1002
{
1070
   147
1040
0.09375
1070
    77
1070
     0
1002
}
  0
LINE
  5
1B9
  8
DIMENSIONS
 10
17.518420087528401
 20
14.307515217286211
 30
0.0
 11
17.830920087528401
 21
14.307515217286211
 31
0.0
1001
ACAD
1000
DSTYLE
1002
{
1070
   147
1040
0.09375
1070
    77
1070
     0
1002
}
  0
TEXT
  5
1BA
  8
DIMENSIONS
 10
17.924670087528401
 20
14.151265217286211
 30
0.0
 40
0.3125
  1
CYLINDER
  0
LINE
  5
1BB
  8
DIMENSIONS
 10
25.862350179250669
 20
16.736848084715469
 30
0.0
 11
25.862350179250669
 21
17.701697949713129
 31
0.0
  0
LINE
  5
1BC
  8
DIMENSIONS
 10
30.862350179250669
 20
16.736848084715469
 30
0.0
 11
30.862350179250669
 21
17.701697949713129
 31
0.0
  0
LINE
  5
1BD
  8
DIMENSIONS
 10
26.174850179250669
 20
17.639197949713129
 30
0.0
 11
27.643600179250669
 21
17.639197949713129
 31
0.0
  0
LINE
  5
1BE
  8
DIMENSIONS
 10
30.549850179250669
 20
17.639197949713129
 30
0.0
 11
29.081100179250669
 21
17.639197949713129
 31
0.0
  0
SOLID
  5
1BF
  8
DIMENSIONS
 10
26.174850179250669
 20
17.691281283046461
 30
0.0
 11
26.174850179250669
 21
17.58711461637979
 31
0.0
 12
25.862350179250669
 22
17.639197949713129
 32
0.0
 13
25.862350179250669
 23
17.639197949713129
 33
0.0
  0
SOLID
  5
1C0
  8
DIMENSIONS
 10
30.549850179250669
 20
17.691281283046461
 30
0.0
 11
30.549850179250669
 21
17.58711461637979
 31
0.0
 12
30.862350179250669
 22
17.639197949713129
 32
0.0
 13
30.862350179250669
 23
17.639197949713129
 33
0.0
  0
TEXT
  5
1C1
  8
DIMENSIONS
 10
27.737350179250669
 20
17.482947949713129
 30
0.0
 40
0.3125
  1
5.000
  0
LINE
  5
1C2
  8
DIMENSIONS
 10
30.007350179250651
 20
11.93684808471547
 30
0.0
 11
30.007350179250651
 21
7.739439695484414
 31
0.0
  0
LINE
  5
1C3
  8
DIMENSIONS
 10
26.71735017925069
 20
11.93684808471547
 30
0.0
 11
26.71735017925069
 21
7.739439695484414
 31
0.0
  0
LINE
  5
1C4
  8
DIMENSIONS
 10
29.694850179250651
 20
7.801939695484414
 30
0.0
 11
29.081100179250669
 21
7.801939695484414
 31
0.0
  0
LINE
  5
1C5
  8
DIMENSIONS
 10
27.02985017925069
 20
7.801939695484414
 30
0.0
 11
27.643600179250669
 21
7.801939695484414
 31
0.0
  0
SOLID
  5
1C6
  8
DIMENSIONS
 10
29.694850179250651
 20
7.8540230288177488
 30
0.0
 11
29.694850179250651
 21
7.7498563621510783
 31
0.0
 12
30.007350179250651
 22
7.801939695484414
 32
0.0
 13
30.007350179250651
 23
7.801939695484414
 33
0.0
  0
SOLID
  5
1C7
  8
DIMENSIONS
 10
27.02985017925069
 20
7.8540230288177488
 30
0.0
 11
27.02985017925069
 21
7.7498563621510783
 31
0.0
 12
26.71735017925069
 22
7.801939695484414
 32
0.0
 13
26.71735017925069
 23
7.801939695484414
 33
0.0
  0
TEXT
  5
1C8
  8
DIMENSIONS
 10
27.737350179250669
 20
7.645689695484414
 30
0.0
 40
0.3125
  1
3.290
  0
LINE
  5
1C9
  8
ANKLE_-_WEDGE
 10
27.112350179250669
 20
12.67434808471546
 30
0.0
 11
27.112350179250669
 21
12.56204804917256
 31
0.0
  0
LINE
  5
1CB
  8
ANKLE_-_WEDGE
 10
27.112350179250669
 20
12.67434808471546
 30
0.0
 11
26.424350179250741
 21
13.656913913354019
 31
0.0
  0
LINE
  5
1CC
  8
ANKLE_-_WEDGE
 10
26.424350179250741
 20
13.656913913354019
 30
0.0
 11
26.09235017925069
 21
12.285759065650151
 31
0.0
  0
ARC
  5
1CD
  8
ANKLE_-_WEDGE
 10
26.71735017925069
 20
11.99934808471547
 30
0.0
 40
0.6875
 50
54.93219368802135
 51
155.38002267134181
  0
LINE
  5
1CE
  8
ANKLE_-_WEDGE
 10
29.612350179250669
 20
12.67434808471546
 30
0.0
 11
29.612350179250669
 21
12.56204804917256
 31
0.0
  0
LINE
  5
1CF
  8
ANKLE_-_WEDGE
 10
29.612350179250669
 20
12.67434808471546
 30
0.0
 11
30.30035017925066
 21
13.656913913354019
 31
0.0
  0
LINE
  5
1D0
  8
ANKLE_-_WEDGE
 10
30.30035017925066
 20
13.656913913354019
 30
0.0
 11
30.632350179250711
 21
12.285759065650151
 31
0.0
  0
ARC
  5
1D1
  8
ANKLE_-_WEDGE
 10
30.007350179250651
 20
11.99934808471547
 30
0.0
 40
0.6875
 50
24.619977328658159
 51
125.0678063119786
  0
LINE
  5
1D2
  8
ANKLE_-_WEDGE
 10
14.93531126267375
 20
13.656913913354019
 30
0.0
 11
12.99731126267379
 21
13.656913913354019
 31
0.0
  0
LINE
  5
1D3
  8
ANKLE_-_WEDGE
 10
15.09131126267377
 20
12.28575906565022
 30
0.0
 11
12.84131126267377
 21
12.285759065650231
 31
0.0
  0
LINE
  5
1D4
  8
ANKLE_-_WEDGE
 10
12.84131126267377
 20
12.28575906565022
 30
0.0
 11
12.997311262673771
 21
13.656913913354019
 31
0.0
  0
LINE
  5
1D5
  8
ANKLE_-_WEDGE
 10
15.09131126267377
 20
12.28575906565022
 30
0.0
 11
14.935311262673761
 21
13.656913913354019
 31
0.0
  0
SOLID
  5
1D6
  8
DIMENSIONS
 10
30.745543455616438
 20
13.114787607240659
 30
0.0
 11
30.483099646078941
 21
12.937327272386449
 31
0.0
 12
30.6738026005536
 22
13.19031206790935
 32
0.0
 13
30.6738026005536
 23
13.19031206790935
 33
0.0
1001
ACAD
1000
DSTYLE
1002
{
1070
   147
1040
0.09375
1070
    77
1070
     0
1002
}
  0
LINE
  5
1D7
  8
DIMENSIONS
 10
30.709673028085
 20
13.152549837574989
 30
0.0
 11
31.760945277626622
 21
14.1511557119924
 31
0.0
1001
ACAD
1000
DSTYLE
1002
{
1070
   147
1040
0.09375
1070
    77
1070
     0
1002
}
  0
LINE
  5
1D8
  8
DIMENSIONS
 10
31.760945277626622
 20
14.1511557119924
 30
0.0
 11
32.073445277626618
 21
14.1511557119924
 31
0.0
1001
ACAD
1000
DSTYLE
1002
{
1070
   147
1040
0.09375
1070
    77
1070
     0
1002
}
  0
TEXT
  5
1D9
  8
DIMENSIONS
 10
32.167195277626618
 20
13.9949057119924
 30
0.0
 40
0.3125
  1
WEDGE (OPTIONAL)
  0
LINE
  5
202
  8
DIMENSIONS
 10
16.40381126267377
 20
16.736848084715469
 30
0.0
 11
16.40381126267377
 21
17.701697949713129
 31
0.0
  0
LINE
  5
203
  8
DIMENSIONS
 10
11.52881126267377
 20
16.736848084715469
 30
0.0
 11
11.52881126267377
 21
17.701697949713129
 31
0.0
  0
LINE
  5
204
  8
DIMENSIONS
 10
16.09131126267377
 20
17.639197949713129
 30
0.0
 11
14.68506126267377
 21
17.639197949713129
 31
0.0
  0
LINE
  5
205
  8
DIMENSIONS
 10
11.84131126267377
 20
17.639197949713129
 30
0.0
 11
13.24756126267377
 21
17.639197949713129
 31
0.0
  0
SOLID
  5
206
  8
DIMENSIONS
 10
16.09131126267377
 20
17.691281283046461
 30
0.0
 11
16.09131126267377
 21
17.58711461637979
 31
0.0
 12
16.40381126267377
 22
17.639197949713129
 32
0.0
 13
16.40381126267377
 23
17.639197949713129
 33
0.0
  0
SOLID
  5
207
  8
DIMENSIONS
 10
11.84131126267377
 20
17.691281283046461
 30
0.0
 11
11.84131126267377
 21
17.58711461637979
 31
0.0
 12
11.52881126267377
 22
17.639197949713129
 32
0.0
 13
11.52881126267377
 23
17.639197949713129
 33
0.0
  0
TEXT
  5
209
  8
DIMENSIONS
 10
13.34131126267377
 20
17.482947949713129
 30
0.0
 40
0.3125
  1
4.875
  0
TEXT
  5
5C3
  8
0
  6
CONTINUOUS
 10
57.315538885753497
 20
19.975312514251709
 30
0.0
 40
0.12
  1
 
 51
7.0
  0
TEXT
  5
5C4
  8
0
  6
CONTINUOUS
 10
69.759635651233395
 20
27.038186943983359
 30
0.0
 40
0.24
  1
 
 51
7.0
  0
TEXT
  5
5C5
  8
0
  6
CONTINUOUS
 10
78.969400663146672
 20
26.718176957406278
 30
0.0
 40
0.24
  1
 
 51
7.0
  0
TEXT
  5
5C6
  8
0
  6
CONTINUOUS
 10
88.773360147579353
 20
9.8555961578789564
 30
0.0
 40
0.24
  1
 
 51
7.0
  0
LINE
  5
5DD
  8
FORM
 10
43.041208788750012
 20
1.2738095237500171
 30
0.0
 11
43.041208788750012
 21
30.47619047625
 31
0.0
  0
LINE
  5
5DE
  8
FORM
 10
42.726190473750037
 20
30.79120879125
 30
0.0
 11
1.2738095237500451
 21
30.79120879125
 31
0.0
  0
LINE
  5
5DF
  8
FORM
 10
42.726190473750037
 20
0.9587912087500357
 30
0.0
 11
1.2738095237500451
 21
0.9587912087500178
 31
0.0
  0
LINE
  5
5E0
  8
FORM
 10
0.9587912087500427
 20
1.2738095237500171
 30
0.0
 11
0.9587912087500427
 21
30.47619047625
 31
0.0
  0
TEXT
  5
5E1
  8
FORM
 10
37.037526234472928
 20
5.206275420631246
 30
0.0
 40
0.5334392170019531
  1
ASSEMBLY
 72
     1
 11
39.056974698837458
 21
5.206275420631246
 31
0.0
  0
TEXT
  5
5E2
  8
FORM
 10
36.084956204112288
 20
4.0776460783213357
 30
0.0
 40
0.5334392170019531
  1
CENTER ANKLE
 72
     1
 11
39.056974698837458
 21
4.0776460783213357
 31
0.0
  0
TEXT
  5
5E3
  8
FORM
 10
33.498854806118253
 20
2.0268467705730191
 30
0.0
 40
0.5334392170019531
  1
ASTROMECH DROID
  0
TEXT
  5
5E4
  8
FORM
 10
41.921886517477063
 20
2.0475849221067111
 30
0.0
 40
0.5334392170019531
  1
A
  0
TEXT
  5
5E5
  8
FORM
 10
34.544847194814977
 20
1.4041843246072041
 30
0.0
 40
0.2133756868007812
  1
FULL
  0
TEXT
  5
5E6
  8
FORM
 10
41.381479234680917
 20
1.4101568300009391
 30
0.0
 40
0.2133756868007812
  1
1   1
  0
TEXT
  5
5E7
  8
FORM
 10
37.84747907074582
 20
1.4266399292710359
 30
0.0
 40
0.2133756868007812
  1
APRIL 2005
 72
     2
 11
39.696735023019258
 21
1.4266399292710359
 31
0.0
  0
TEXT
  5
5E8
  8
FORM
  6
CONTINUOUS
 10
36.314742892209907
 20
1.4244931442114459
 30
0.0
 40
0.184356593395875
  1
DRAWN:
  0
TEXT
  5
5E9
  8
FORM
  6
CONTINUOUS
 10
33.461092438516587
 20
1.424666026206864
 30
0.0
 40
0.184356593395875
  1
SCALE:
  0
TEXT
  5
5EA
  8
FORM
  6
CONTINUOUS
 10
40.203435321383559
 20
1.422355711558928
 30
0.0
 40
0.184356593395875
  1
SHEET:   OF
  0
TEXT
  5
5EB
  8
FORM
  6
CONTINUOUS
 10
33.124433620069581
 20
2.8869297159639369
 30
0.0
 40
0.184356593395875
  1
DRAWING NO.
  0
TEXT
  5
5EC
  8
FORM
  6
CONTINUOUS
 10
41.850448103669223
 20
2.886929715963916
 30
0.0
 40
0.184356593395875
  1
REV.
 72
     1
 11
42.122593551063133
 21
2.886929715963916
 31
0.0
  0
LINE
  5
5ED
  8
FORM
  6
CONTINUOUS
 10
33.416182507258398
 20
6.6201507322303881
 30
0.0
 11
42.265298990260369
 21
6.6201507322303881
 31
0.0
  0
LINE
  5
5EE
  8
FORM
  6
CONTINUOUS
 10
32.95529102376868
 20
1.7347010072396991
 30
0.0
 11
32.95529102376868
 21
6.1592592487406881
 31
0.0
  0
LINE
  5
5EF
  8
FORM
  6
CONTINUOUS
 10
32.95529102376868
 20
3.1634646060577292
 30
0.0
 11
42.726190473750037
 21
3.1634646060577292
 31
0.0
  0
LINE
  5
5F0
  8
FORM
  6
CONTINUOUS
 10
32.95529102376868
 20
1.7347010072396991
 30
0.0
 11
42.726190473750037
 21
1.7347010072396991
 31
0.0
  0
LINE
  5
5F1
  8
FORM
  6
CONTINUOUS
 10
36.02646774253914
 20
1.7347010072396991
 30
0.0
 11
36.02646774253914
 21
1.2738095237500171
 31
0.0
  0
LINE
  5
5F2
  8
FORM
  6
CONTINUOUS
 10
40.065167876336673
 20
1.729027325745029
 30
0.0
 11
40.065167876336673
 21
1.2681358422553499
 31
0.0
  0
LINE
  5
5F3
  8
FORM
  6
CONTINUOUS
 10
41.508364231032502
 20
3.1634646060577292
 30
0.0
 11
41.508364231032502
 21
1.7347010072396991
 31
0.0
  0
ARC
  5
5F4
  8
FORM
 62
     5
 10
33.871474544026299
 20
5.2321095419160519
 30
0.0
 40
0.0502653185952511
 50
152.18113099770551
 51
330.99098814993278
  0
ARC
  5
5F5
  8
FORM
 62
     5
 10
34.089053834359689
 20
5.6511194128146256
 30
0.0
 40
0.0440746975210158
 50
335.3231536346421
 51
152.6722492633036
  0
ARC
  5
5F6
  8
FORM
 62
     5
 10
37.446185313816862
 20
3.5831642172472651
 30
0.0
 40
3.9868910433295368
 50
148.41494327216151
 51
155.19852313243231
  0
ARC
  5
5F7
  8
FORM
 62
     5
 10
38.217878471693112
 20
3.3107972970714812
 30
0.0
 40
4.7020631235383759
 50
150.40875710206339
 51
156.20744757951141
  0
ARC
  5
5F8
  8
FORM
 62
     7
 10
33.729336717812103
 20
4.809826363179055
 30
0.0
 40
0.0671652552709891
 50
161.128725237971
 51
346.89295927401378
  0
ARC
  5
5F9
  8
FORM
 62
     7
 10
53.367628910278214
 20
-3.6725418745125959
 30
0.0
 40
21.325803943529628
 50
153.58307292081309
 51
156.60691138966209
  0
ARC
  5
5FA
  8
FORM
 62
     7
 10
50.287568040148543
 20
-2.5644941525072609
 30
0.0
 40
18.16984879940825
 50
152.34095999775931
 51
152.9694116127464
  0
ARC
  5
5FB
  8
FORM
 62
     7
 10
50.491245112732379
 20
-3.156319562177472
 30
0.0
 40
18.62531302696754
 50
153.3711283527573
 51
154.60402195655351
  0
ARC
  5
5FC
  8
FORM
 62
     7
 10
34.698291427850862
 20
5.5948289454909697
 30
0.0
 40
0.4829018868449606
 50
23.468725928191009
 51
88.151617587883351
  0
ARC
  5
5FD
  8
FORM
 62
     7
 10
34.709083940719111
 20
5.6259614939592311
 30
0.0
 40
0.5699591598814008
 50
18.232625295665539
 51
154.63608874642691
  0
ARC
  5
5FE
  8
FORM
 62
     7
 10
34.879850029644352
 20
5.6853693813860771
 30
0.0
 40
0.3891907917568549
 50
336.99722732837893
 51
341.11190659806488
  0
ARC
  5
5FF
  8
FORM
 62
     7
 10
34.902997868184698
 20
5.7025814422175776
 30
0.0
 40
0.254907880192607
 50
333.24704424527528
 51
339.12675173356178
  0
ARC
  5
600
  8
FORM
 62
     7
 10
35.144104528932488
 20
5.5822157374328816
 30
0.0
 40
0.0146095491322771
 50
157.3747590211585
 51
243.18317341424029
  0
ARC
  5
601
  8
FORM
 62
     7
 10
35.230394320055908
 20
5.5355566237182643
 30
0.0
 40
0.0080289822227516
 50
246.7423667985764
 51
343.55073793579641
  0
ARC
  5
602
  8
FORM
 62
     7
 10
35.483045306224838
 20
6.206619545503723
 30
0.0
 40
0.7250687320987334
 50
241.5396617947477
 51
249.33988332022491
  0
ARC
  5
603
  8
FORM
 62
     7
 10
34.976191689776293
 20
5.437699301377072
 30
0.0
 40
0.1431349662916394
 50
210.28645373052609
 51
287.25915125833183
  0
ARC
  5
604
  8
FORM
 62
     7
 10
34.98849018096395
 20
5.3758026207478622
 30
0.0
 40
0.0806485752183996
 50
291.96730232828992
 51
10.20108836223371
  0
ARC
  5
605
  8
FORM
 62
     7
 10
34.351109148169897
 20
5.2378626299468207
 30
0.0
 40
0.5174748205137182
 50
14.28109924276106
 51
24.94726153987823
  0
ARC
  5
606
  8
FORM
 62
     7
 10
34.652931196600342
 20
5.3946009655135461
 30
0.0
 40
0.1783202582618736
 50
20.183063788867589
 51
47.833846572520187
  0
ARC
  5
607
  8
FORM
 62
     7
 10
34.686267484387962
 20
5.3042778782011162
 30
0.0
 40
0.2386691757260289
 50
68.784960310907422
 51
94.742087985452599
  0
ARC
  5
608
  8
FORM
 62
     7
 10
34.683670685861401
 20
5.4453282315651172
 30
0.0
 40
0.0983065334463515
 50
100.0375073429591
 51
170.98475346238999
  0
ARC
  5
609
  8
FORM
 62
     7
 10
35.146068355737633
 20
5.3773748188028661
 30
0.0
 40
0.5656654008735983
 50
171.52589863719891
 51
197.494741096675
  0
ARC
  5
60A
  8
FORM
 62
     7
 10
34.765023896344722
 20
5.3853778011441547
 30
0.0
 40
0.3028765796636133
 50
0.8906501289532242
 51
49.113860192417143
  0
ARC
  5
60B
  8
FORM
 62
     7
 10
34.701217881456863
 20
5.440931581139246
 30
0.0
 40
0.2383845564631639
 50
99.869748807366761
 51
175.59516845025641
  0
ARC
  5
60C
  8
FORM
 62
     7
 10
34.744201420967059
 20
5.3116713199521888
 30
0.0
 40
0.373645463646239
 50
54.104282451028212
 51
102.9674010870567
  0
ARC
  5
60D
  8
FORM
 62
     7
 10
35.798737905561801
 20
5.5339824388112886
 30
0.0
 40
1.236112335596137
 50
195.32307896217739
 51
209.29084315695809
  0
ARC
  5
60E
  8
FORM
 62
     7
 10
35.409798509503119
 20
5.3313058202242232
 30
0.0
 40
0.9548702630443076
 50
172.3003020759547
 51
200.12627387409299
  0
ARC
  5
60F
  8
FORM
 62
     7
 10
36.092512265563201
 20
5.5978118396088368
 30
0.0
 40
1.6876668147324001
 50
200.64629086238159
 51
210.0464960904439
  0
ARC
  5
610
  8
FORM
 62
     7
 10
33.76767256364964
 20
4.2896718057212553
 30
0.0
 40
1.147702755465478
 50
28.431949107384341
 51
33.865461133002469
  0
ARC
  5
611
  8
FORM
 62
     7
 10
34.710340361681652
 20
4.7838977609262834
 30
0.0
 40
0.0846287925897855
 50
201.56446042640411
 51
38.094090168146302
  0
ARC
  5
612
  8
FORM
 62
     5
 10
35.454047505527242
 20
5.486987961477829
 30
0.0
 40
0.0470753373534298
 50
227.6202696593605
 51
57.41211292120402
  0
ARC
  5
613
  8
FORM
 62
     5
 10
34.898862200054353
 20
4.7627373277749214
 30
0.0
 40
0.9594749055071699
 50
52.766851639305848
 51
65.063571515457895
  0
ARC
  5
614
  8
FORM
 62
     5
 10
34.452241791275881
 20
4.0702703323560518
 30
0.0
 40
1.6884350682882729
 50
54.932512589538803
 51
74.152868438598929
  0
ARC
  5
615
  8
FORM
 62
     5
 10
34.476586052909411
 20
3.568319054466826
 30
0.0
 40
2.1706024175541438
 50
78.393012355262385
 51
89.647961077025343
  0
ARC
  5
616
  8
FORM
 62
     5
 10
34.486274868053293
 20
5.8018806593051897
 30
0.0
 40
0.0631056771236446
 50
183.9979944211656
 51
273.313807745882
  0
ARC
  5
617
  8
FORM
 62
     5
 10
34.699258427880928
 20
5.818551646751942
 30
0.0
 40
0.2767389970018709
 50
145.6085916691928
 51
184.36670732083471
  0
ARC
  5
618
  8
FORM
 62
     5
 10
34.528989583128592
 20
5.938129286098885
 30
0.0
 40
0.0687363070342985
 50
75.244714174009715
 51
147.6929850116162
  0
ARC
  5
619
  8
FORM
 62
     5
 10
33.70963598272882
 20
2.7936800480859851
 30
0.0
 40
3.3181823868519218
 50
61.63724224152525
 51
75.392005557716686
  0
ARC
  5
61A
  8
FORM
 62
     5
 10
35.223247228975211
 20
5.6577302519658508
 30
0.0
 40
0.0839396329354631
 50
342.6982574268402
 51
41.672783787677609
  0
ARC
  5
61B
  8
FORM
 62
     7
 10
34.879850029644352
 20
5.6853693813860771
 30
0.0
 40
0.3891907917568549
 50
5.6380312699923048
 51
17.79145636873681
  0
ARC
  5
61C
  8
FORM
 62
     7
 10
35.056960777687792
 20
3.851378580987717
 30
0.0
 40
0.12453779538235
 50
88.432533024773406
 51
186.62631613112151
  0
ARC
  5
61D
  8
FORM
 62
     7
 10
35.076506660735461
 20
3.8773458445585289
 30
0.0
 40
0.1488228018527408
 50
195.7266305128272
 51
285.3806868435185
  0
ARC
  5
61E
  8
FORM
 62
     7
 10
34.901004024005331
 20
5.1943718606735914
 30
0.0
 40
1.4762551210247881
 50
278.37329371359471
 51
293.15208507016871
  0
ARC
  5
61F
  8
FORM
 62
     7
 10
35.39628782139313
 20
4.2652099364179641
 30
0.0
 40
0.3044715687368376
 50
257.51805604168283
 51
277.23103351305667
  0
ARC
  5
620
  8
FORM
 62
     7
 10
35.413358675393582
 20
4.0150829003075179
 30
0.0
 40
0.0561042920902449
 50
292.26031345923337
 51
12.867379300523741
  0
ARC
  5
621
  8
FORM
 62
     7
 10
35.371642472469617
 20
4.0070394983254651
 30
0.0
 40
0.0985747940549809
 50
12.02537552739555
 51
52.143631645159317
  0
ARC
  5
622
  8
FORM
 62
     7
 10
37.473498217784211
 20
6.5612572579000981
 30
0.0
 40
3.209307639712156
 50
219.6027792818598
 51
230.50020204080559
  0
ARC
  5
623
  8
FORM
 62
     7
 10
35.492352051740127
 20
4.9001252642901667
 30
0.0
 40
0.6241927637443375
 50
175.97523115435061
 51
218.04500009534149
  0
ARC
  5
624
  8
FORM
 62
     7
 10
35.227786425660057
 20
4.9628053673500361
 30
0.0
 40
0.3585845725200827
 50
149.96078860476399
 51
183.01641230856191
  0
ARC
  5
625
  8
FORM
 62
     7
 10
34.977287653388501
 20
5.1103132875677204
 30
0.0
 40
0.0679295281984907
 50
69.764209445538683
 51
151.8988190455112
  0
ARC
  5
626
  8
FORM
 62
     7
 10
34.969273382641418
 20
5.1056960066620496
 30
0.0
 40
0.0752672049169095
 50
357.6694469744499
 51
65.251102439515421
  0
ARC
  5
627
  8
FORM
 62
     7
 10
34.791927087049501
 20
5.0911418605530789
 30
0.0
 40
0.2528126373579358
 50
345.36193237678458
 51
2.6056939300727771
  0
ARC
  5
628
  8
FORM
 62
     7
 10
35.602090445328557
 20
4.8523853508412031
 30
0.0
 40
0.5919738308518
 50
162.8186183088072
 51
185.35496664157321
  0
ARC
  5
629
  8
FORM
 62
     7
 10
35.536094847929142
 20
4.9117694628322139
 30
0.0
 40
0.5358004355611984
 50
192.3534994193023
 51
222.30204766960321
  0
ARC
  5
62A
  8
FORM
 62
     7
 10
37.381905568116643
 20
6.3998094049418546
 30
0.0
 40
2.905942571467353
 50
219.50633019139829
 51
228.42762303996261
  0
ARC
  5
62B
  8
FORM
 62
     7
 10
35.140069253353388
 20
3.7985267963051679
 30
0.0
 40
0.5299960685152594
 50
32.971129457978812
 51
53.728419363024372
  0
ARC
  5
62C
  8
FORM
 62
     7
 10
35.427463202400318
 20
4.005618684982891
 30
0.0
 40
0.1770362522386045
 50
287.74749415951351
 51
27.352111896629431
  0
ARC
  5
62D
  8
FORM
 62
     7
 10
35.162594742576253
 20
2.8543408356064179
 30
0.0
 40
1.126178313661536
 50
81.426570944510217
 51
95.208118001959775
  0
ARC
  5
62E
  8
FORM
 62
     7
 10
34.676472279440553
 20
4.609856792041171
 30
0.0
 40
0.0501357382491115
 50
325.52447187114308
 51
75.340502228459755
  0
ARC
  5
62F
  8
FORM
 62
     7
 10
34.61470127619608
 20
4.6552100511053531
 30
0.0
 40
0.1267533236926462
 50
277.78730616127859
 51
324.42957968808531
  0
ARC
  5
630
  8
FORM
 62
     7
 10
34.592284758986878
 20
4.6762898657927741
 30
0.0
 40
0.1519139349688822
 50
243.48581874200181
 51
285.1065744639306
  0
ARC
  5
631
  8
FORM
 62
     7
 10
27.873109699751311
 20
-12.4932993511666
 30
0.0
 40
18.45638048052642
 50
68.327181839257534
 51
70.606105230637283
  0
ARC
  5
632
  8
FORM
 62
     7
 10
33.988713934221742
 20
4.8617714816310453
 30
0.0
 40
0.055607435478502
 50
76.445232091872313
 51
134.36352227876461
  0
ARC
  5
633
  8
FORM
 62
     7
 10
34.235945877333968
 20
4.4813881185518483
 30
0.0
 40
0.5083077403466757
 50
124.2547762008316
 51
135.012931962436
  0
ARC
  5
634
  8
FORM
 62
     7
 10
33.88597974463211
 20
4.8245660322519264
 30
0.0
 40
0.0187748724828842
 50
120.5491196217085
 51
251.48388650457539
  0
ARC
  5
635
  8
FORM
 62
     7
 10
31.359554693546059
 20
-2.20296417031589
 30
0.0
 40
7.4490944355826798
 50
64.85742894317822
 51
67.515132469299331
  0
ARC
  5
636
  8
FORM
 62
     7
 10
34.507034475662429
 20
4.4308185510845446
 30
0.0
 40
0.0703300633564829
 50
329.18566117941782
 51
69.52715124986382
  0
ARC
  5
637
  8
FORM
 62
     7
 10
34.322528644875732
 20
4.1521399941366823
 30
0.0
 40
0.403051872176304
 50
58.747973844557542
 51
81.106226592028094
  0
ARC
  5
638
  8
FORM
 62
     7
 10
34.279653491663872
 20
3.8849497208938919
 30
0.0
 40
0.673659077744691
 50
81.016817915507374
 51
97.679603827268224
  0
ARC
  5
639
  8
FORM
 62
     7
 10
34.350555487554189
 20
4.0873869344785581
 30
0.0
 40
0.4997006452258542
 50
121.5050128230592
 51
139.0957881060705
  0
ARC
  5
63A
  8
FORM
 62
     7
 10
34.486213611380677
 20
4.4200913009569014
 30
0.0
 40
0.0850716575372725
 50
277.70569210516868
 51
342.69880024124109
  0
ARC
  5
63B
  8
FORM
 62
     7
 10
34.460104330220553
 20
4.5160817648663851
 30
0.0
 40
0.184155782182425
 50
250.08394506358289
 51
281.75453717228322
  0
ARC
  5
63C
  8
FORM
 62
     7
 10
34.520271701466477
 20
4.5372247072865122
 30
0.0
 40
0.2298928288403392
 50
221.18187885427241
 51
237.68378775985289
  0
ARC
  5
63D
  8
FORM
 62
     7
 10
34.25064951074792
 20
4.2707129138400566
 30
0.0
 40
0.1502941988903953
 50
50.003848755011681
 51
75.5416830098399
  0
ARC
  5
63E
  8
FORM
 62
     7
 10
34.242700079187692
 20
4.3251886965059541
 30
0.0
 40
0.101781928913435
 50
63.4626603498468
 51
100.74200229027051
  0
ARC
  5
63F
  8
FORM
 62
     7
 10
34.223729261234972
 20
4.2529656105913531
 30
0.0
 40
0.1722214314986379
 50
89.999999999999588
 51
125.5974615489027
  0
ARC
  5
640
  8
FORM
 62
     7
 10
36.266687671707381
 20
5.4819654875490791
 30
0.0
 40
2.382967543868022
 50
197.51922498184919
 51
203.981481444731
  0
ARC
  5
641
  8
FORM
 62
     7
 10
33.485249637949622
 20
4.721360124868851
 30
0.0
 40
0.7243225282346643
 50
346.52409876011302
 51
356.71498770316703
  0
ARC
  5
642
  8
FORM
 62
     7
 10
31.359554693546059
 20
-2.20296417031589
 30
0.0
 40
7.4490944355826798
 50
69.286600818944066
 51
70.22311760076802
  0
ARC
  5
643
  8
FORM
 62
     7
 10
33.876169922815471
 20
4.0909024975958621
 30
0.0
 40
0.2184269840063441
 50
245.40259669902051
 51
275.40975098180542
  0
ARC
  5
644
  8
FORM
 62
     7
 10
34.642070270288407
 20
3.6967673023805361
 30
0.0
 40
0.8681469610074701
 50
126.68044463040199
 51
139.78708822539889
  0
ARC
  5
645
  8
FORM
 62
     7
 10
33.872083832704973
 20
4.7053139576373191
 30
0.0
 40
0.832231548816698
 50
271.69929119420118
 51
283.39540842056908
  0
ARC
  5
646
  8
FORM
 62
     7
 10
35.428271851831553
 20
2.78470176044189
 30
0.0
 40
2.0660410796836941
 50
134.5410403491789
 51
138.91474429089911
  0
ARC
  5
647
  8
FORM
 62
     7
 10
33.906328645442912
 20
4.1130944325259122
 30
0.0
 40
0.0546567449796842
 50
201.8252958964795
 51
267.16449786715452
  0
ARC
  5
648
  8
FORM
 62
     7
 10
33.89456231320203
 20
4.107909022344443
 30
0.0
 40
0.0418082902229875
 50
124.254854327418
 51
201.22329273937871
  0
ARC
  5
649
  8
FORM
 62
     7
 10
34.021864770200082
 20
4.0738934856997728
 30
0.0
 40
0.1832903804675856
 50
283.5751770312794
 51
324.58969283639942
  0
ARC
  5
64A
  8
FORM
 62
     7
 10
34.126398977664181
 20
3.986597707801109
 30
0.0
 40
0.0486742756789315
 50
337.14160324238759
 51
47.564966708928338
  0
ARC
  5
64B
  8
FORM
 62
     7
 10
34.05147943334795
 20
3.879563609001575
 30
0.0
 40
0.1790243893656499
 50
52.990730681111621
 51
91.748895977531333
  0
ARC
  5
64C
  8
FORM
 62
     7
 10
33.974820296360143
 20
4.5445147233887013
 30
0.0
 40
0.4911971362770459
 50
261.66603807207321
 51
278.33396192792679
  0
ARC
  5
64D
  8
FORM
 62
     7
 10
33.827351328547103
 20
3.9976720327520212
 30
0.0
 40
0.1134738832821913
 50
192.64550774538381
 51
248.2223967256862
  0
ARC
  5
64E
  8
FORM
 62
     7
 10
33.799462642063027
 20
4.0105271566674361
 30
0.0
 40
0.0910070849768819
 50
178.88427582775461
 51
204.46998391858139
  0
ARC
  5
64F
  8
FORM
 62
     7
 10
34.024590384061092
 20
3.9875275917867858
 30
0.0
 40
0.3170866660790294
 50
140.54690015149379
 51
175.5193383191162
  0
ARC
  5
650
  8
FORM
 62
     7
 10
37.147786536650827
 20
1.5008787794887259
 30
0.0
 40
4.3092627289205483
 50
137.4564398093305
 51
141.40545593619061
  0
POLYLINE
  5
651
  8
FORM
 62
     1
 10
34.588179408120531
 20
5.9634267402830048
 30
0.0
 66
     1
 70
     8
  0
VERTEX
  8
FORM
  5
953
 10
34.5882
 20
5.96343
 30
0.000000
  70
    32
  0
VERTEX
  8
FORM
  5
954
 10
34.5863
 20
5.96413
 30
0.000000
  70
    32
  0
VERTEX
  8
FORM
  5
955
 10
34.5843
 20
5.96461
 30
0.000000
  70
    32
  0
VERTEX
  8
FORM
  5
956
 10
34.5822
 20
5.96487
 30
0.000000
  70
    32
  0
VERTEX
  8
FORM
  5
957
 10
34.5800
 20
5.96490
 30
0.000000
  70
    32
  0
VERTEX
  8
FORM
  5
958
 10
34.5778
 20
5.96471
 30
0.000000
  70
    32
  0
VERTEX
  8
FORM
  5
959
 10
34.5754
 20
5.96429
 30
0.000000
  70
    32
  0
VERTEX
  8
FORM
  5
95A
 10
34.5731
 20
5.96365
 30
0.000000
  70
    32
  0
VERTEX
  8
FORM
  5
95B
 10
34.5706
 20
5.96279
 30
0.000000
  70
    32
  0
VERTEX
  8
FORM
  5
95C
 10
34.5681
 20
5.96170
 30
0.000000
  70
    32
  0
VERTEX
  8
FORM
  5
95D
 10
34.5656
 20
5.96040
 30
0.000000
  70
    32
  0
VERTEX
  8
FORM
  5
95E
 10
34.5630
 20
5.95889
 30
0.000000
  70
    32
  0
VERTEX
  8
FORM
  5
95F
 10
34.5603
 20
5.95716
 30
0.000000
  70
    32
  0
VERTEX
  8
FORM
  5
960
 10
34.5577
 20
5.95523
 30
0.000000
  70
    32
  0
VERTEX
  8
FORM
  5
961
 10
34.5550
 20
5.95309
 30
0.000000
  70
    32
  0
VERTEX
  8
FORM
  5
962
 10
34.5523
 20
5.95076
 30
0.000000
  70
    32
  0
VERTEX
  8
FORM
  5
963
 10
34.5496
 20
5.94824
 30
0.000000
  70
    32
  0
VERTEX
  8
FORM
  5
964
 10
34.5468
 20
5.94553
 30
0.000000
  70
    32
  0
VERTEX
  8
FORM
  5
965
 10
34.5441
 20
5.94264
 30
0.000000
  70
    32
  0
VERTEX
  8
FORM
  5
966
 10
34.5414
 20
5.93959
 30
0.000000
  70
    32
  0
VERTEX
  8
FORM
  5
967
 10
34.5387
 20
5.93636
 30
0.000000
  70
    32
  0
VERTEX
  8
FORM
  5
968
 10
34.5361
 20
5.93299
 30
0.000000
  70
    32
  0
VERTEX
  8
FORM
  5
969
 10
34.5334
 20
5.92946
 30
0.000000
  70
    32
  0
VERTEX
  8
FORM
  5
96A
 10
34.5308
 20
5.92579
 30
0.000000
  70
    32
  0
VERTEX
  8
FORM
  5
96B
 10
34.5282
 20
5.92199
 30
0.000000
  70
    32
  0
VERTEX
  8
FORM
  5
96C
 10
34.5257
 20
5.91807
 30
0.000000
  70
    32
  0
VERTEX
  8
FORM
  5
96D
 10
34.5233
 20
5.91404
 30
0.000000
  70
    32
  0
VERTEX
  8
FORM
  5
96E
 10
34.5209
 20
5.90991
 30
0.000000
  70
    32
  0
VERTEX
  8
FORM
  5
96F
 10
34.5185
 20
5.90568
 30
0.000000
  70
    32
  0
VERTEX
  8
FORM
  5
970
 10
34.5162
 20
5.90137
 30
0.000000
  70
    32
  0
VERTEX
  8
FORM
  5
971
 10
34.5140
 20
5.89699
 30
0.000000
  70
    32
  0
VERTEX
  8
FORM
  5
972
 10
34.5119
 20
5.89254
 30
0.000000
  70
    32
  0
VERTEX
  8
FORM
  5
973
 10
34.5099
 20
5.88805
 30
0.000000
  70
    32
  0
VERTEX
  8
FORM
  5
974
 10
34.5080
 20
5.88352
 30
0.000000
  70
    32
  0
VERTEX
  8
FORM
  5
975
 10
34.5061
 20
5.87895
 30
0.000000
  70
    32
  0
VERTEX
  8
FORM
  5
976
 10
34.5044
 20
5.87437
 30
0.000000
  70
    32
  0
VERTEX
  8
FORM
  5
977
 10
34.5028
 20
5.86978
 30
0.000000
  70
    32
  0
VERTEX
  8
FORM
  5
978
 10
34.5012
 20
5.86520
 30
0.000000
  70
    32
  0
VERTEX
  8
FORM
  5
979
 10
34.4998
 20
5.86063
 30
0.000000
  70
    32
  0
VERTEX
  8
FORM
  5
97A
 10
34.4985
 20
5.85608
 30
0.000000
  70
    32
  0
VERTEX
  8
FORM
  5
97B
 10
34.4973
 20
5.85158
 30
0.000000
  70
    32
  0
VERTEX
  8
FORM
  5
97C
 10
34.4963
 20
5.84712
 30
0.000000
  70
    32
  0
VERTEX
  8
FORM
  5
97D
 10
34.4953
 20
5.84272
 30
0.000000
  70
    32
  0
VERTEX
  8
FORM
  5
97E
 10
34.4945
 20
5.83838
 30
0.000000
  70
    32
  0
VERTEX
  8
FORM
  5
97F
 10
34.4938
 20
5.83413
 30
0.000000
  70
    32
  0
VERTEX
  8
FORM
  5
980
 10
34.4933
 20
5.82997
 30
0.000000
  70
    32
  0
VERTEX
  8
FORM
  5
981
 10
34.4929
 20
5.82591
 30
0.000000
  70
    32
  0
VERTEX
  8
FORM
  5
982
 10
34.4926
 20
5.82195
 30
0.000000
  70
    32
  0
VERTEX
  8
FORM
  5
983
 10
34.4924
 20
5.81812
 30
0.000000
  70
    32
  0
VERTEX
  8
FORM
  5
984
 10
34.4924
 20
5.81442
 30
0.000000
  70
    32
  0
VERTEX
  8
FORM
  5
985
 10
34.4925
 20
5.81085
 30
0.000000
  70
    32
  0
VERTEX
  8
FORM
  5
986
 10
34.4928
 20
5.80743
 30
0.000000
  70
    32
  0
VERTEX
  8
FORM
  5
987
 10
34.4931
 20
5.80416
 30
0.000000
  70
    32
  0
VERTEX
  8
FORM
  5
988
 10
34.4937
 20
5.80105
 30
0.000000
  70
    32
  0
VERTEX
  8
FORM
  5
989
 10
34.4943
 20
5.79812
 30
0.000000
  70
    32
  0
VERTEX
  8
FORM
  5
98A
 10
34.4951
 20
5.79536
 30
0.000000
  70
    32
  0
VERTEX
  8
FORM
  5
98B
 10
34.4960
 20
5.79278
 30
0.000000
  70
    32
  0
VERTEX
  8
FORM
  5
98C
 10
34.4970
 20
5.79039
 30
0.000000
  70
    32
  0
VERTEX
  8
FORM
  5
98D
 10
34.4981
 20
5.78820
 30
0.000000
  70
    32
  0
VERTEX
  8
FORM
  5
98E
 10
34.4994
 20
5.78621
 30
0.000000
  70
    32
  0
VERTEX
  8
FORM
  5
98F
 10
34.5008
 20
5.78443
 30
0.000000
  70
    32
  0
VERTEX
  8
FORM
  5
990
 10
34.5023
 20
5.78285
 30
0.000000
  70
    32
  0
VERTEX
  8
FORM
  5
991
 10
34.5039
 20
5.78149
 30
0.000000
  70
    32
  0
VERTEX
  8
FORM
  5
992
 10
34.5056
 20
5.78034
 30
0.000000
  70
    32
  0
VERTEX
  8
FORM
  5
993
 10
34.5074
 20
5.77941
 30
0.000000
  70
    32
  0
VERTEX
  8
FORM
  5
994
 10
34.5093
 20
5.77871
 30
0.000000
  70
    32
  0
VERTEX
  8
FORM
  5
995
 10
34.5113
 20
5.77823
 30
0.000000
  70
    32
  0
VERTEX
  8
FORM
  5
996
 10
34.5134
 20
5.77797
 30
0.000000
  70
    32
  0
VERTEX
  8
FORM
  5
997
 10
34.5155
 20
5.77794
 30
0.000000
  70
    32
  0
VERTEX
  8
FORM
  5
998
 10
34.5178
 20
5.77813
 30
0.000000
  70
    32
  0
VERTEX
  8
FORM
  5
999
 10
34.5201
 20
5.77855
 30
0.000000
  70
    32
  0
VERTEX
  8
FORM
  5
99A
 10
34.5225
 20
5.77919
 30
0.000000
  70
    32
  0
VERTEX
  8
FORM
  5
99B
 10
34.5249
 20
5.78005
 30
0.000000
  70
    32
  0
VERTEX
  8
FORM
  5
99C
 10
34.5274
 20
5.78114
 30
0.000000
  70
    32
  0
VERTEX
  8
FORM
  5
99D
 10
34.5300
 20
5.78244
 30
0.000000
  70
    32
  0
VERTEX
  8
FORM
  5
99E
 10
34.5326
 20
5.78395
 30
0.000000
  70
    32
  0
VERTEX
  8
FORM
  5
99F
 10
34.5352
 20
5.78568
 30
0.000000
  70
    32
  0
VERTEX
  8
FORM
  5
9A0
 10
34.5379
 20
5.78761
 30
0.000000
  70
    32
  0
VERTEX
  8
FORM
  5
9A1
 10
34.5406
 20
5.78975
 30
0.000000
  70
    32
  0
VERTEX
  8
FORM
  5
9A2
 10
34.5433
 20
5.79208
 30
0.000000
  70
    32
  0
VERTEX
  8
FORM
  5
9A3
 10
34.5460
 20
5.79460
 30
0.000000
  70
    32
  0
VERTEX
  8
FORM
  5
9A4
 10
34.5487
 20
5.79731
 30
0.000000
  70
    32
  0
VERTEX
  8
FORM
  5
9A5
 10
34.5514
 20
5.80020
 30
0.000000
  70
    32
  0
VERTEX
  8
FORM
  5
9A6
 10
34.5541
 20
5.80325
 30
0.000000
  70
    32
  0
VERTEX
  8
FORM
  5
9A7
 10
34.5568
 20
5.80648
 30
0.000000
  70
    32
  0
VERTEX
  8
FORM
  5
9A8
 10
34.5595
 20
5.80985
 30
0.000000
  70
    32
  0
VERTEX
  8
FORM
  5
9A9
 10
34.5621
 20
5.81338
 30
0.000000
  70
    32
  0
VERTEX
  8
FORM
  5
9AA
 10
34.5647
 20
5.81705
 30
0.000000
  70
    32
  0
VERTEX
  8
FORM
  5
9AB
 10
34.5673
 20
5.82085
 30
0.000000
  70
    32
  0
VERTEX
  8
FORM
  5
9AC
 10
34.5698
 20
5.82477
 30
0.000000
  70
    32
  0
VERTEX
  8
FORM
  5
9AD
 10
34.5723
 20
5.82880
 30
0.000000
  70
    32
  0
VERTEX
  8
FORM
  5
9AE
 10
34.5747
 20
5.83293
 30
0.000000
  70
    32
  0
VERTEX
  8
FORM
  5
9AF
 10
34.5770
 20
5.83716
 30
0.000000
  70
    32
  0
VERTEX
  8
FORM
  5
9B0
 10
34.5793
 20
5.84147
 30
0.000000
  70
    32
  0
VERTEX
  8
FORM
  5
9B1
 10
34.5815
 20
5.84585
 30
0.000000
  70
    32
  0
VERTEX
  8
FORM
  5
9B2
 10
34.5836
 20
5.85030
 30
0.000000
  70
    32
  0
VERTEX
  8
FORM
  5
9B3
 10
34.5856
 20
5.85479
 30
0.000000
  70
    32
  0
VERTEX
  8
FORM
  5
9B4
 10
34.5876
 20
5.85932
 30
0.000000
  70
    32
  0
VERTEX
  8
FORM
  5
9B5
 10
34.5894
 20
5.86389
 30
0.000000
  70
    32
  0
VERTEX
  8
FORM
  5
9B6
 10
34.5912
 20
5.86847
 30
0.000000
  70
    32
  0
VERTEX
  8
FORM
  5
9B7
 10
34.5928
 20
5.87306
 30
0.000000
  70
    32
  0
VERTEX
  8
FORM
  5
9B8
 10
34.5943
 20
5.87764
 30
0.000000
  70
    32
  0
VERTEX
  8
FORM
  5
9B9
 10
34.5957
 20
5.88221
 30
0.000000
  70
    32
  0
VERTEX
  8
FORM
  5
9BA
 10
34.5970
 20
5.88676
 30
0.000000
  70
    32
  0
VERTEX
  8
FORM
  5
9BB
 10
34.5982
 20
5.89127
 30
0.000000
  70
    32
  0
VERTEX
  8
FORM
  5
9BC
 10
34.5993
 20
5.89572
 30
0.000000
  70
    32
  0
VERTEX
  8
FORM
  5
9BD
 10
34.6002
 20
5.90013
 30
0.000000
  70
    32
  0
VERTEX
  8
FORM
  5
9BE
 10
34.6010
 20
5.90446
 30
0.000000
  70
    32
  0
VERTEX
  8
FORM
  5
9BF
 10
34.6017
 20
5.90871
 30
0.000000
  70
    32
  0
VERTEX
  8
FORM
  5
9C0
 10
34.6023
 20
5.91287
 30
0.000000
  70
    32
  0
VERTEX
  8
FORM
  5
9C1
 10
34.6027
 20
5.91693
 30
0.000000
  70
    32
  0
VERTEX
  8
FORM
  5
9C2
 10
34.6030
 20
5.92089
 30
0.000000
  70
    32
  0
VERTEX
  8
FORM
  5
9C3
 10
34.6031
 20
5.92472
 30
0.000000
  70
    32
  0
VERTEX
  8
FORM
  5
9C4
 10
34.6031
 20
5.92842
 30
0.000000
  70
    32
  0
VERTEX
  8
FORM
  5
9C5
 10
34.6030
 20
5.93199
 30
0.000000
  70
    32
  0
VERTEX
  8
FORM
  5
9C6
 10
34.6028
 20
5.93541
 30
0.000000
  70
    32
  0
VERTEX
  8
FORM
  5
9C7
 10
34.6024
 20
5.93868
 30
0.000000
  70
    32
  0
VERTEX
  8
FORM
  5
9C8
 10
34.6019
 20
5.94179
 30
0.000000
  70
    32
  0
VERTEX
  8
FORM
  5
9C9
 10
34.6013
 20
5.94472
 30
0.000000
  70
    32
  0
VERTEX
  8
FORM
  5
9CA
 10
34.6005
 20
5.94748
 30
0.000000
  70
    32
  0
VERTEX
  8
FORM
  5
9CB
 10
34.5996
 20
5.95006
 30
0.000000
  70
    32
  0
VERTEX
  8
FORM
  5
9CC
 10
34.5986
 20
5.95245
 30
0.000000
  70
    32
  0
VERTEX
  8
FORM
  5
9CD
 10
34.5974
 20
5.95464
 30
0.000000
  70
    32
  0
VERTEX
  8
FORM
  5
9CE
 10
34.5962
 20
5.95663
 30
0.000000
  70
    32
  0
VERTEX
  8
FORM
  5
9CF
 10
34.5948
 20
5.95841
 30
0.000000
  70
    32
  0
VERTEX
  8
FORM
  5
9D0
 10
34.5933
 20
5.95999
 30
0.000000
  70
    32
  0
VERTEX
  8
FORM
  5
9D1
 10
34.5917
 20
5.96135
 30
0.000000
  70
    32
  0
VERTEX
  8
FORM
  5
9D2
 10
34.5900
 20
5.96250
 30
0.000000
  70
    32
  0
VERTEX
  8
FORM
  5
9D3
 10
34.5882
 20
5.96343
 30
0.000000
  70
    32
  0
SEQEND
  8
FORM
  5
9D4
  0
ARC
  5
652
  8
FORM
 62
     7
 10
34.678422559705339
 20
5.6285689301790143
 30
0.0
 40
0.45030777473755
 50
85.485448269952457
 51
155.5006785655419
  0
TEXT
  5
653
  8
FORM
 62
     7
 10
33.094000516162978
 20
3.2737730496354831
 30
0.0
 40
0.1764102564
  1
R2-D2 BUILDERS CLUB
  0
ARC
  5
654
  8
FORM
 10
1.2738095237500451
 20
1.2738095237500171
 30
0.0
 40
0.315018315
 50
180.0
 51
270.0
  0
ARC
  5
655
  8
FORM
 10
1.2738095237500451
 20
1.2738095237500171
 30
0.0
 40
0.6300366300000001
 50
180.0
 51
270.0
  0
ARC
  5
656
  8
FORM
 10
1.2738095237500451
 20
1.2738095237500171
 30
0.0
 40
0.7087912087500001
 50
180.0
 51
270.0
  0
ARC
  5
657
  8
FORM
 10
1.2738095237500451
 20
1.2738095237500171
 30
0.0
 40
1.02380952375
 50
180.0
 51
270.0
  0
ARC
  5
658
  8
FORM
 10
1.2738095237500451
 20
30.47619047625
 30
0.0
 40
1.02380952375
 50
90.0
 51
180.0
  0
ARC
  5
659
  8
FORM
 10
1.2738095237500451
 20
30.47619047625
 30
0.0
 40
0.7087912087500001
 50
90.0
 51
180.0
  0
ARC
  5
65A
  8
FORM
 10
1.2738095237500451
 20
30.47619047625
 30
0.0
 40
0.6300366300000001
 50
90.0
 51
180.0
  0
ARC
  5
65B
  8
FORM
 10
1.2738095237500451
 20
30.47619047625
 30
0.0
 40
0.315018315
 50
90.0
 51
180.0
  0
ARC
  5
65C
  8
FORM
 10
42.726190473750037
 20
30.47619047625
 30
0.0
 40
0.6300366300000001
 50
0.0
 51
90.0
  0
ARC
  5
65D
  8
FORM
 10
42.726190473750037
 20
30.47619047625
 30
0.0
 40
0.7087912087500001
 50
0.0
 51
90.0
  0
ARC
  5
65E
  8
FORM
 10
42.726190473750037
 20
30.47619047625
 30
0.0
 40
1.02380952375
 50
0.0
 51
90.0
  0
ARC
  5
65F
  8
FORM
 10
42.726190473750037
 20
30.47619047625
 30
0.0
 40
0.315018315
 50
0.0
 51
90.0
  0
ARC
  5
660
  8
FORM
 10
42.726190473750037
 20
1.2738095237500171
 30
0.0
 40
1.02380952375
 50
270.0
 51
0.0
  0
ARC
  5
661
  8
FORM
 10
42.726190473750037
 20
1.2738095237500171
 30
0.0
 40
0.7087912087500001
 50
270.0
 51
0.0
  0
ARC
  5
662
  8
FORM
 10
42.726190473750037
 20
1.2738095237500171
 30
0.0
 40
0.6300366300000001
 50
270.0
 51
0.0
  0
ARC
  5
663
  8
FORM
 10
42.726190473750037
 20
1.2738095237500171
 30
0.0
 40
0.315018315
 50
270.0
 51
0.0
  0
LINE
  5
664
  8
FORM
 10
42.726190473750037
 20
0.643772893750036
 30
0.0
 11
1.2738095237500451
 21
0.6437728937500183
 31
0.0
  0
LINE
  5
665
  8
FORM
 10
42.726190473750037
 20
0.5650183150000352
 30
0.0
 11
1.2738095237500451
 21
0.5650183150000175
 31
0.0
  0
LINE
  5
666
  8
FORM
 10
42.726190473750037
 20
0.2500000000000178
 30
0.0
 11
1.2738095237500451
 21
0.25
 31
0.0
  0
LINE
  5
667
  8
FORM
 10
43.356227103750037
 20
1.2738095237500171
 30
0.0
 11
43.356227103750037
 21
30.47619047625
 31
0.0
  0
LINE
  5
668
  8
FORM
 10
43.434981682500073
 20
1.2738095237500171
 30
0.0
 11
43.434981682500073
 21
30.47619047625
 31
0.0
  0
LINE
  5
669
  8
FORM
 10
43.749999997500041
 20
1.2738095237500171
 30
0.0
 11
43.749999997500041
 21
30.47619047625
 31
0.0
  0
LINE
  5
66A
  8
FORM
 10
42.726190473750037
 20
31.10622710625
 30
0.0
 11
1.2738095237500451
 21
31.10622710625
 31
0.0
  0
LINE
  5
66B
  8
FORM
 10
42.726190473750037
 20
31.184981685
 30
0.0
 11
1.2738095237500451
 21
31.184981685
 31
0.0
  0
LINE
  5
66C
  8
FORM
 10
42.726190473750037
 20
31.5
 30
0.0
 11
1.2738095237500451
 21
31.5
 31
0.0
  0
LINE
  5
66D
  8
FORM
 10
0.6437728937500397
 20
1.2738095237500171
 30
0.0
 11
0.6437728937500397
 21
30.47619047625
 31
0.0
  0
LINE
  5
66E
  8
FORM
 10
0.5650183150000459
 20
1.2738095237500171
 30
0.0
 11
0.5650183150000459
 21
30.47619047625
 31
0.0
  0
LINE
  5
66F
  8
FORM
 10
0.2499999999999716
 20
1.2738095237500211
 30
0.0
 11
0.2500000000000426
 21
30.47619047625
 31
0.0
  0
LINE
  5
670
  8
FORM
  6
CONTINUOUS
 10
33.416182507258398
 20
1.2738095237500171
 30
0.0
 11
42.265298990260369
 21
1.2738095237500171
 31
0.0
  0
LINE
  5
671
  8
FORM
  6
CONTINUOUS
 10
42.726190473750037
 20
6.1592592487406881
 30
0.0
 11
42.726190473750037
 21
1.7347010072396991
 31
0.0
  0
ARC
  5
672
  8
FORM
  6
CONTINUOUS
 10
42.265298990260369
 20
1.7347010072396991
 30
0.0
 40
0.460891483489685
 50
270.0
 51
0.0
  0
ARC
  5
673
  8
FORM
  6
CONTINUOUS
 10
42.265298990260369
 20
6.1592592487406881
 30
0.0
 40
0.460891483489685
 50
359.99999999999989
 51
90.0
  0
ARC
  5
674
  8
FORM
  6
CONTINUOUS
 10
33.416182507258398
 20
1.7347010072396991
 30
0.0
 40
0.460891483489685
 50
180.0
 51
270.0
  0
ARC
  5
675
  8
FORM
  6
CONTINUOUS
 10
33.416182507258398
 20
6.1592592487406881
 30
0.0
 40
0.460891483489685
 50
90.0
 51
180.0
  0
LINE
  5
676
  8
0
 10
0.0
 20
0.0
 30
0.0
 11
0.0
 21
34.0
 31
0.0
  0
LINE
  5
677
  8
0
 10
0.0
 20
0.0
 30
0.0
 11
44.000000000000007
 21
0.0
 31
0.0
  0
LINE
  5
678
  8
0
 10
0.0
 20
34.0
 30
0.0
 11
44.000000000000007
 21
34.0
 31
0.0
  0
LINE
  5
679
  8
0
 10
44.000000000000007
 20
0.0
 30
0.0
 11
44.000000000000007
 21
34.0
 31
0.0
  0
LINE
  5
920
  8
0
 10
1.2738095237500451
 20
1.2738095237500171
 30
0.0
 11
1.2738095237500451
 21
2.2738095237500171
 31
0.0
  0
LINE
  5
921
  8
0
 10
1.2738095237500451
 20
1.3988095237500171
 30
0.0
 11
1.3988095237500451
 21
1.3988095237500171
 31
0.0
  0
LINE
  5
922
  8
0
 10
1.2738095237500451
 20
1.5238095237500171
 30
0.0
 11
1.5238095237500451
 21
1.5238095237500171
 31
0.0
  0
LINE
  5
923
  8
0
 10
1.2738095237500451
 20
1.6488095237500171
 30
0.0
 11
1.3988095237500451
 21
1.6488095237500171
 31
0.0
  0
LINE
  5
924
  8
0
 10
1.2738095237500451
 20
1.7738095237500171
 30
0.0
 11
1.6488095237500451
 21
1.7738095237500171
 31
0.0
  0
LINE
  5
925
  8
0
 10
1.2738095237500451
 20
1.8988095237500171
 30
0.0
 11
1.3988095237500451
 21
1.8988095237500171
 31
0.0
  0
LINE
  5
926
  8
0
 10
1.2738095237500451
 20
2.0238095237500171
 30
0.0
 11
1.5238095237500451
 21
2.0238095237500171
 31
0.0
  0
LINE
  5
927
  8
0
 10
1.2738095237500451
 20
2.1488095237500171
 30
0.0
 11
1.3988095237500451
 21
2.1488095237500171
 31
0.0
  0
LINE
  5
928
  8
0
 10
1.2738095237500451
 20
2.2738095237500171
 30
0.0
 11
1.6488095237500451
 21
2.2738095237500171
 31
0.0
  0
LINE
  5
929
  8
0
 10
1.2738095237500451
 20
1.2738095237500171
 30
0.0
 11
1.6488095237500451
 21
1.2738095237500171
 31
0.0
  0
TEXT
  5
92A
  8
0
 10
1.698078297376483
 20
1.740768962749534
 30
0.0
 40
0.0625
  1
1/2"
  0
TEXT
  5
92B
  8
0
 10
1.448078297376483
 20
1.615768962749534
 30
0.0
 40
0.0625
  1
3/8"
  0
TEXT
  5
92C
  8
0
 10
1.573078297376483
 20
1.490768962749534
 30
0.0
 40
0.0625
  1
1/4"
  0
TEXT
  5
92D
  8
0
 10
1.448078297376483
 20
1.365768962749534
 30
0.0
 40
0.0625
  1
1/8"
  0
TEXT
  5
92E
  8
0
 10
1.448078297376483
 20
1.865768962749534
 30
0.0
 40
0.0625
  1
5/8"
  0
TEXT
  5
92F
  8
0
 10
1.573078297376483
 20
1.990768962749534
 30
0.0
 40
0.0625
  1
3/4"
  0
TEXT
  5
930
  8
0
 10
1.448078297376483
 20
2.115768962749534
 30
0.0
 40
0.0625
  1
7/8"
  0
TEXT
  5
931
  8
0
 10
1.698078297376483
 20
2.240768962749534
 30
0.0
 40
0.0625
  1
1"
  0
ENDSEC
  0
EOF
