  0
SECTION
  2
HEADER
  9
$ACADVER
  1
AC1009
  9
$INSBASE
 10
0.0
 20
0.0
 30
0.0
  9
$EXTMIN
 10
0.0
 20
0.0
 30
0.0
  9
$EXTMAX
 10
22.000000000000011
 20
17.0
 30
0.0
  9
$LIMMIN
 10
0.0
 20
0.0
  9
$LIMMAX
 10
12.0
 20
9.0
  9
$ORTHOMODE
 70
     0
  9
$REGENMODE
 70
     1
  9
$FILLMODE
 70
     1
  9
$QTEXTMODE
 70
     0
  9
$MIRRTEXT
 70
     1
  9
$DRAGMODE
 70
     2
  9
$LTSCALE
 40
1.0
  9
$OSMODE
 70
    39
  9
$ATTMODE
 70
     1
  9
$TEXTSIZE
 40
0.1875
  9
$TRACEWID
 40
0.05
  9
$TEXTSTYLE
  7
STANDARD
  9
$CLAYER
  8
0
  9
$CELTYPE
  6
BYLAYER
  9
$CECOLOR
 62
   256
  9
$DIMSCALE
 40
1.0
  9
$DIMASZ
 40
0.15625
  9
$DIMEXO
 40
0.03125
  9
$DIMDLI
 40
1.0
  9
$DIMRND
 40
0.0
  9
$DIMDLE
 40
0.0
  9
$DIMEXE
 40
0.03125
  9
$DIMTP
 40
0.0
  9
$DIMTM
 40
0.0
  9
$DIMTXT
 40
0.15625
  9
$DIMCEN
 40
0.0
  9
$DIMTSZ
 40
0.0
  9
$DIMTOL
 70
     0
  9
$DIMLIM
 70
     0
  9
$DIMTIH
 70
     1
  9
$DIMTOH
 70
     1
  9
$DIMSE1
 70
     0
  9
$DIMSE2
 70
     0
  9
$DIMTAD
 70
     0
  9
$DIMZIN
 70
     0
  9
$DIMBLK
  1

  9
$DIMASO
 70
     1
  9
$DIMSHO
 70
     1
  9
$DIMPOST
  1

  9
$DIMAPOST
  1

  9
$DIMALT
 70
     0
  9
$DIMALTD
 70
     2
  9
$DIMALTF
 40
25.399999999999999
  9
$DIMLFAC
 40
1.0
  9
$DIMTOFL
 70
     0
  9
$DIMTVP
 40
0.0
  9
$DIMTIX
 70
     0
  9
$DIMSOXD
 70
     0
  9
$DIMSAH
 70
     0
  9
$DIMBLK1
  1

  9
$DIMBLK2
  1

  9
$DIMSTYLE
  2
STANDARD
  9
$DIMCLRD
 70
     0
  9
$DIMCLRE
 70
     0
  9
$DIMCLRT
 70
     0
  9
$DIMTFAC
 40
1.0
  9
$DIMGAP
 40
0.0625
  9
$LUNITS
 70
     2
  9
$LUPREC
 70
     7
  9
$SKETCHINC
 40
0.1
  9
$FILLETRAD
 40
0.182882812499999
  9
$AUNITS
 70
     0
  9
$AUPREC
 70
     8
  9
$MENU
  1
.
  9
$ELEVATION
 40
0.0
  9
$PELEVATION
 40
0.0
  9
$THICKNESS
 40
0.0
  9
$LIMCHECK
 70
     0
  9
$BLIPMODE
 70
     0
  9
$CHAMFERA
 40
0.0
  9
$CHAMFERB
 40
0.0
  9
$SKPOLY
 70
     0
  9
$TDCREATE
 40
2453087.3875628472
  9
$TDUPDATE
 40
2453462.5842333338
  9
$TDINDWG
 40
0.1451964468
  9
$TDUSRTIMER
 40
0.1451964468
  9
$USRTIMER
 70
     1
  9
$ANGBASE
 50
0.0
  9
$ANGDIR
 70
     0
  9
$PDMODE
 70
     0
  9
$PDSIZE
 40
0.0
  9
$PLINEWID
 40
0.0
  9
$COORDS
 70
     0
  9
$SPLFRAME
 70
     0
  9
$SPLINETYPE
 70
     6
  9
$SPLINESEGS
 70
     8
  9
$ATTDIA
 70
     0
  9
$ATTREQ
 70
     1
  9
$HANDLING
 70
     1
  9
$HANDSEED
  5
1148
  9
$SURFTAB1
 70
     6
  9
$SURFTAB2
 70
     6
  9
$SURFTYPE
 70
     6
  9
$SURFU
 70
     6
  9
$SURFV
 70
     6
  9
$UCSNAME
  2

  9
$UCSORG
 10
0.0
 20
0.0
 30
0.0
  9
$UCSXDIR
 10
1.0
 20
0.0
 30
0.0
  9
$UCSYDIR
 10
0.0
 20
1.0
 30
0.0
  9
$PUCSNAME
  2

  9
$PUCSORG
 10
0.0
 20
0.0
 30
0.0
  9
$PUCSXDIR
 10
1.0
 20
0.0
 30
0.0
  9
$PUCSYDIR
 10
0.0
 20
1.0
 30
0.0
  9
$USERI1
 70
     0
  9
$USERI2
 70
     0
  9
$USERI3
 70
     0
  9
$USERI4
 70
     0
  9
$USERI5
 70
     0
  9
$USERR1
 40
0.0
  9
$USERR2
 40
0.0
  9
$USERR3
 40
0.0
  9
$USERR4
 40
0.0
  9
$USERR5
 40
0.0
  9
$WORLDVIEW
 70
     1
  9
$SHADEDGE
 70
     3
  9
$SHADEDIF
 70
    70
  9
$TILEMODE
 70
     1
  9
$MAXACTVP
 70
    64
  9
$PLIMCHECK
 70
     0
  9
$PEXTMIN
 10
1.0000000000000000E+020
 20
1.0000000000000000E+020
 30
1.0000000000000000E+020
  9
$PEXTMAX
 10
-1.0000000000000000E+020
 20
-1.0000000000000000E+020
 30
-1.0000000000000000E+020
  9
$PLIMMIN
 10
0.0
 20
0.0
  9
$PLIMMAX
 10
12.0
 20
9.0
  9
$UNITMODE
 70
     0
  9
$VISRETAIN
 70
     1
  9
$PLINEGEN
 70
     0
  9
$PSLTSCALE
 70
     1
  0
ENDSEC
  0
SECTION
  2
TABLES
  0
TABLE
  2
VPORT
 70
     2
  0
VPORT
  2
*ACTIVE
 70
     0
 10
0.0
 20
0.0
 11
1.0
 21
1.0
 12
10.999892881457781
 22
8.4993266831401382
 13
0.0
 23
0.0
 14
0.5
 24
0.5
 15
0.5
 25
0.5
 16
0.0
 26
0.0
 36
1.0
 17
0.0
 27
0.0
 37
0.0
 40
17.21910810541512
 41
2.1727078891257992
 42
50.0
 43
0.0
 44
0.0
 50
0.0
 51
0.0
 71
     0
 72
 20000
 73
     1
 74
     2
 75
     0
 76
     0
 77
     0
 78
     0
  0
ENDTAB
  0
TABLE
  2
LTYPE
 70
     2
  0
LTYPE
  2
CONTINUOUS
 70
     0
  3
Solid line
 72
    65
 73
     0
 40
0.0
  0
LTYPE
  2
CENTER
 70
     0
  3
Center ____ _ ____ _ ____ _ ____ _ ____ _ ____
 72
    65
 73
     4
 40
2.0
 49
1.25
 49
-0.25
 49
0.25
 49
-0.25
  0
ENDTAB
  0
TABLE
  2
LAYER
 70
     5
  0
LAYER
  2
0
 70
     0
 62
     7
  6
CONTINUOUS
  0
LAYER
  2
FORM
 70
     0
 62
     5
  6
CONTINUOUS
  0
LAYER
  2
LEG_-_STRUT
 70
     0
 62
     7
  6
CONTINUOUS
  0
LAYER
  2
DIMENSIONS
 70
     0
 62
     1
  6
CONTINUOUS
  0
LAYER
  2
DEFPOINTS
 70
     0
 62
     7
  6
CONTINUOUS
  0
ENDTAB
  0
TABLE
  2
STYLE
 70
     1
  0
STYLE
  2
STANDARD
 70
     0
 40
0.0
 41
1.0
 50
0.0
 71
     0
 42
0.1875
  3
simplex.shx
  4

  0
ENDTAB
  0
TABLE
  2
VIEW
 70
     0
  0
ENDTAB
  0
TABLE
  2
UCS
 70
     0
  0
ENDTAB
  0
TABLE
  2
APPID
 70
     2
  0
APPID
  2
ACAD
 70
     0
  0
APPID
  2
DCO15
 70
     0
  0
ENDTAB
  0
TABLE
  2
DIMSTYLE
 70
     1
  0
DIMSTYLE
  2
STANDARD
 70
     0
  3

  4

  5

  6

  7

 40
1.0
 41
0.15625
 42
0.03125
 43
1.0
 44
0.03125
 45
0.0
 46
0.0
 47
0.0
 48
0.0
140
0.15625
141
0.0
142
0.0
143
25.399999999999999
144
1.0
145
0.0
146
1.0
147
0.0625
 71
     0
 72
     0
 73
     1
 74
     1
 75
     0
 76
     0
 77
     0
 78
     0
170
     0
171
     2
172
     0
173
     0
174
     0
175
     0
176
     0
177
     0
178
     0
  0
ENDTAB
  0
ENDSEC
  0
SECTION
  2
BLOCKS
  0
BLOCK
  8
0
  2
$MODEL_SPACE
 70
     0
 10
0.0
 20
0.0
 30
0.0
  3
$MODEL_SPACE
  1

  0
ENDBLK
  5
21
  8
0
  0
BLOCK
 67
     1
  8
0
  2
$PAPER_SPACE
 70
     0
 10
0.0
 20
0.0
 30
0.0
  3
$PAPER_SPACE
  1

  0
ENDBLK
  5
1D
 67
     1
  8
0
  0
ENDSEC
  0
SECTION
  2
ENTITIES
  0
LINE
  5
2E4
  8
LEG_-_STRUT
  6
CENTER
 10
5.7509031859080011
 20
11.57674992986853
 30
0.0
 11
8.8894857339136237
 21
11.57674992986853
 31
0.0
  0
LINE
  5
2E5
  8
LEG_-_STRUT
 10
13.29766370596834
 20
11.951749929868541
 30
0.0
 11
13.29766370596834
 21
11.201749929868541
 31
0.0
  0
LINE
  5
2E6
  8
LEG_-_STRUT
 10
9.0476637059683398
 20
11.201749929868541
 30
0.0
 11
13.29766370596834
 21
11.201749929868541
 31
0.0
  0
LINE
  5
2E7
  8
LEG_-_STRUT
 10
9.0476637059683451
 20
11.95174992986853
 30
0.0
 11
13.29766370596834
 21
11.95174992986853
 31
0.0
  0
LINE
  5
2E9
  8
LEG_-_STRUT
 10
9.0476637059683451
 20
11.95174992986855
 30
0.0
 11
9.0476637059683398
 21
11.201749929868541
 31
0.0
  0
LINE
  5
2EB
  8
LEG_-_STRUT
 10
5.8956118214159181
 20
11.82674992986853
 30
0.0
 11
6.5086637059683454
 21
11.82674992986853
 31
0.0
  0
LINE
  5
2EC
  8
LEG_-_STRUT
 10
6.2457155905207742
 20
11.32674992986853
 30
0.0
 11
6.5086637059683454
 21
11.32674992986853
 31
0.0
  0
LINE
  5
2ED
  8
LEG_-_STRUT
 10
6.5086637059683454
 20
11.95174992986853
 30
0.0
 11
6.5086637059683454
 21
11.201749929868541
 31
0.0
  0
LINE
  5
2EE
  8
LEG_-_STRUT
 10
6.570663705968343
 20
11.95174992986853
 30
0.0
 11
6.570663705968343
 21
11.201749929868541
 31
0.0
  0
LINE
  5
2EF
  8
LEG_-_STRUT
 10
6.6326637059683398
 20
11.95174992986853
 30
0.0
 11
6.6326637059683398
 21
11.201749929868541
 31
0.0
  0
LINE
  5
2F0
  8
LEG_-_STRUT
 10
6.6946637059683454
 20
11.95174992986853
 30
0.0
 11
6.6946637059683454
 21
11.201749929868541
 31
0.0
  0
LINE
  5
2F1
  8
LEG_-_STRUT
 10
6.7566637059683421
 20
11.95174992986853
 30
0.0
 11
6.7566637059683421
 21
11.201749929868541
 31
0.0
  0
LINE
  5
2F2
  8
LEG_-_STRUT
 10
6.8186637059683397
 20
11.95174992986853
 30
0.0
 11
6.8186637059683397
 21
11.201749929868541
 31
0.0
  0
LINE
  5
2F3
  8
LEG_-_STRUT
 10
6.8806637059683453
 20
12.062249929868541
 30
0.0
 11
6.8806637059683453
 21
11.09124992986853
 31
0.0
  0
LINE
  5
2F4
  8
LEG_-_STRUT
 10
6.5086637059683454
 20
11.95174992986853
 30
0.0
 11
6.570663705968343
 21
11.95174992986853
 31
0.0
  0
LINE
  5
2F5
  8
LEG_-_STRUT
 10
6.5086637059683454
 20
11.201749929868541
 30
0.0
 11
6.570663705968343
 21
11.201749929868541
 31
0.0
  0
LINE
  5
2F6
  8
LEG_-_STRUT
 10
6.6326637059683398
 20
11.95174992986853
 30
0.0
 11
6.6946637059683454
 21
11.95174992986853
 31
0.0
  0
LINE
  5
2F7
  8
LEG_-_STRUT
 10
6.7566637059683421
 20
11.95174992986853
 30
0.0
 11
6.8186637059683397
 21
11.95174992986853
 31
0.0
  0
LINE
  5
2F8
  8
LEG_-_STRUT
 10
6.570663705968343
 20
11.82674992986853
 30
0.0
 11
6.6326637059683398
 21
11.82674992986853
 31
0.0
  0
LINE
  5
2F9
  8
LEG_-_STRUT
 10
6.6946637059683454
 20
11.82674992986853
 30
0.0
 11
6.7566637059683421
 21
11.82674992986853
 31
0.0
  0
LINE
  5
2FA
  8
LEG_-_STRUT
 10
6.8186637059683397
 20
11.82674992986853
 30
0.0
 11
6.8806637059683453
 21
11.82674992986853
 31
0.0
  0
LINE
  5
2FC
  8
LEG_-_STRUT
 10
6.570663705968343
 20
11.32674992986853
 30
0.0
 11
6.6326637059683398
 21
11.32674992986853
 31
0.0
  0
LINE
  5
2FD
  8
LEG_-_STRUT
 10
6.6946637059683454
 20
11.32674992986853
 30
0.0
 11
6.7566637059683421
 21
11.32674992986853
 31
0.0
  0
LINE
  5
2FE
  8
LEG_-_STRUT
 10
6.8186637059683397
 20
11.32674992986853
 30
0.0
 11
6.8806637059683453
 21
11.32674992986853
 31
0.0
  0
LINE
  5
2FF
  8
LEG_-_STRUT
 10
6.6326637059683398
 20
11.201749929868541
 30
0.0
 11
6.6946637059683454
 21
11.201749929868541
 31
0.0
  0
LINE
  5
301
  8
LEG_-_STRUT
 10
6.7566637059683421
 20
11.201749929868541
 30
0.0
 11
6.8186637059683397
 21
11.201749929868541
 31
0.0
  0
LINE
  5
302
  8
LEG_-_STRUT
 10
6.9366637059683418
 20
12.13924992986853
 30
0.0
 11
7.3936637059683434
 21
12.139249929868541
 31
0.0
  0
LINE
  5
303
  8
LEG_-_STRUT
 10
6.9366637059683418
 20
11.014249929868541
 30
0.0
 11
7.3936637059683434
 21
11.014249929868541
 31
0.0
  0
LINE
  5
304
  8
LEG_-_STRUT
 10
7.5056637059683453
 20
12.06224992986853
 30
0.0
 11
7.5056637059683453
 21
11.09124992986853
 31
0.0
  0
LINE
  5
305
  8
LEG_-_STRUT
 10
7.5056637059683453
 20
11.951749929868541
 30
0.0
 11
7.6616637059683441
 21
11.951749929868541
 31
0.0
  0
LINE
  5
306
  8
LEG_-_STRUT
 10
7.5056637059683453
 20
11.201749929868541
 30
0.0
 11
7.6616637059683441
 21
11.201749929868541
 31
0.0
  0
LINE
  5
307
  8
LEG_-_STRUT
 10
7.6616637059683441
 20
12.014249929868541
 30
0.0
 11
8.2236637059683417
 21
12.014249929868541
 31
0.0
  0
LINE
  5
308
  8
LEG_-_STRUT
 10
7.6616637059683441
 20
11.13924992986853
 30
0.0
 11
8.2236637059683417
 21
11.13924992986853
 31
0.0
  0
LINE
  5
309
  8
LEG_-_STRUT
 10
7.6616637059683441
 20
12.014249929868541
 30
0.0
 11
7.6616637059683441
 21
11.13924992986853
 31
0.0
  0
LINE
  5
30A
  8
LEG_-_STRUT
 10
8.2236637059683417
 20
12.014249929868541
 30
0.0
 11
8.2236637059683417
 21
11.13924992986853
 31
0.0
  0
LINE
  5
30B
  8
LEG_-_STRUT
 10
8.2856637059683464
 20
12.014249929868541
 30
0.0
 11
8.2856637059683464
 21
11.13924992986853
 31
0.0
  0
LINE
  5
30C
  8
LEG_-_STRUT
 10
8.5976637059683441
 20
12.014249929868541
 30
0.0
 11
8.5976637059683441
 21
11.13924992986853
 31
0.0
  0
LINE
  5
30D
  8
LEG_-_STRUT
 10
8.2856637059683393
 20
12.014249929868541
 30
0.0
 11
8.5976637059683441
 21
12.014249929868541
 31
0.0
  0
LINE
  5
30E
  8
LEG_-_STRUT
 10
8.2856637059683393
 20
11.13924992986853
 30
0.0
 11
8.5976637059683441
 21
11.139249929868541
 31
0.0
  0
LINE
  5
30F
  8
LEG_-_STRUT
 10
8.2236637059683417
 20
11.201749929868541
 30
0.0
 11
8.2856637059683393
 21
11.201749929868541
 31
0.0
  0
LINE
  5
310
  8
LEG_-_STRUT
 10
8.2236637059683417
 20
11.951749929868541
 30
0.0
 11
8.2856637059683393
 21
11.951749929868541
 31
0.0
  0
LINE
  5
313
  8
LEG_-_STRUT
 10
8.5976637059683441
 20
11.326749929868541
 30
0.0
 11
9.0476637059683398
 21
11.326749929868541
 31
0.0
  0
LINE
  5
314
  8
LEG_-_STRUT
 10
8.5976637059683441
 20
11.826749929868541
 30
0.0
 11
9.0476637059683398
 21
11.826749929868541
 31
0.0
  0
LINE
  5
318
  8
LEG_-_STRUT
 10
7.3936637059683434
 20
12.139249929868541
 30
0.0
 11
7.3936637059683434
 21
11.014249929868541
 31
0.0
  0
LINE
  5
31B
  8
LEG_-_STRUT
 10
7.5056637059683453
 20
12.06224992986853
 30
0.0
 11
7.3936637059683434
 21
12.13924992986853
 31
0.0
  0
LINE
  5
31C
  8
LEG_-_STRUT
 10
7.5056637059683453
 20
11.09124992986853
 30
0.0
 11
7.3936637059683434
 21
11.014249929868541
 31
0.0
  0
LINE
  5
31D
  8
LEG_-_STRUT
 10
5.7810076056110651
 20
11.990421712234481
 30
0.0
 11
6.354584041962112
 21
11.17126966794549
 31
0.0
  0
LINE
  5
31E
  8
LEG_-_STRUT
 10
5.7810076056110651
 20
11.990421712234481
 30
0.0
 11
4.8594615557859484
 21
11.345148221339549
 31
0.0
  0
LINE
  5
31F
  8
LEG_-_STRUT
 10
6.354584041962112
 20
11.17126966794549
 30
0.0
 11
5.4330379921369953
 21
10.52599617705056
 31
0.0
  0
LINE
  5
320
  8
LEG_-_STRUT
 10
4.8594615557859484
 20
11.345148221339549
 30
0.0
 11
5.4330379921369953
 21
10.52599617705056
 31
0.0
  0
LINE
  5
322
  8
LEG_-_STRUT
 10
6.236554772711691
 20
11.01293665938374
 30
0.0
 11
5.622190739494946
 21
10.58275433212046
 31
0.0
  0
LINE
  5
323
  8
LEG_-_STRUT
 10
6.3082518272555674
 20
10.910542653847619
 30
0.0
 11
5.6938877940388286
 21
10.48036032658433
 31
0.0
  0
LINE
  5
324
  8
LEG_-_STRUT
 10
6.149796030889866
 20
11.027875558857721
 30
0.0
 11
6.1853577699436277
 21
10.977088132111801
 31
0.0
  0
LINE
  5
325
  8
LEG_-_STRUT
 10
5.6378260032092413
 20
10.66939028613832
 30
0.0
 11
5.6733877422630101
 21
10.6186028593924
 31
0.0
  0
LINE
  5
326
  8
LEG_-_STRUT
 10
6.236554772711691
 20
11.01293665938374
 30
0.0
 11
6.3082518272555674
 21
10.910542653847619
 31
0.0
  0
LINE
  5
327
  8
LEG_-_STRUT
 10
5.622190739494946
 20
10.58275433212046
 30
0.0
 11
5.6938877940388286
 21
10.48036032658433
 31
0.0
  0
LINE
  5
32B
  8
LEG_-_STRUT
 10
5.4330379921369953
 20
8.284582176215725
 30
0.0
 11
5.4330379921369953
 21
7.159582176215725
 31
0.0
  0
LINE
  5
32C
  8
LEG_-_STRUT
 10
6.354584041962112
 20
8.284582176215725
 30
0.0
 11
6.354584041962112
 21
7.159582176215725
 31
0.0
  0
LINE
  5
32D
  8
LEG_-_STRUT
 10
4.8594615557859484
 20
8.284582176215725
 30
0.0
 11
4.8594615557859484
 21
7.159582176215725
 31
0.0
  0
LINE
  5
32E
  8
LEG_-_STRUT
 10
4.8594615557859484
 20
7.159582176215725
 30
0.0
 11
6.354584041962112
 21
7.159582176215725
 31
0.0
  0
LINE
  5
330
  8
LEG_-_STRUT
 10
4.8594615557859484
 20
8.284582176215725
 30
0.0
 11
6.354584041962112
 21
8.284582176215725
 31
0.0
  0
POLYLINE
  5
336
  8
LEG_-_STRUT
 10
6.001069810647202
 20
8.097082176215725
 30
0.0
 66
     1
 70
     8
  0
VERTEX
  8
LEG_-_STRUT
  5
EBE
 10
6.00107
 20
8.09708
 30
0.000000
  70
    32
  0
VERTEX
  8
LEG_-_STRUT
  5
EBF
 10
5.98600
 20
8.09663
 30
0.000000
  70
    32
  0
VERTEX
  8
LEG_-_STRUT
  5
EC0
 10
5.97096
 20
8.09528
 30
0.000000
  70
    32
  0
VERTEX
  8
LEG_-_STRUT
  5
EC1
 10
5.95600
 20
8.09302
 30
0.000000
  70
    32
  0
VERTEX
  8
LEG_-_STRUT
  5
EC2
 10
5.94114
 20
8.08988
 30
0.000000
  70
    32
  0
VERTEX
  8
LEG_-_STRUT
  5
EC3
 10
5.92643
 20
8.08584
 30
0.000000
  70
    32
  0
VERTEX
  8
LEG_-_STRUT
  5
EC4
 10
5.91190
 20
8.08093
 30
0.000000
  70
    32
  0
VERTEX
  8
LEG_-_STRUT
  5
EC5
 10
5.89758
 20
8.07516
 30
0.000000
  70
    32
  0
VERTEX
  8
LEG_-_STRUT
  5
EC6
 10
5.88352
 20
8.06854
 30
0.000000
  70
    32
  0
VERTEX
  8
LEG_-_STRUT
  5
EC7
 10
5.86973
 20
8.06108
 30
0.000000
  70
    32
  0
VERTEX
  8
LEG_-_STRUT
  5
EC8
 10
5.85627
 20
8.05280
 30
0.000000
  70
    32
  0
VERTEX
  8
LEG_-_STRUT
  5
EC9
 10
5.84315
 20
8.04373
 30
0.000000
  70
    32
  0
VERTEX
  8
LEG_-_STRUT
  5
ECA
 10
5.83041
 20
8.03388
 30
0.000000
  70
    32
  0
VERTEX
  8
LEG_-_STRUT
  5
ECB
 10
5.81808
 20
8.02329
 30
0.000000
  70
    32
  0
VERTEX
  8
LEG_-_STRUT
  5
ECC
 10
5.80620
 20
8.01196
 30
0.000000
  70
    32
  0
VERTEX
  8
LEG_-_STRUT
  5
ECD
 10
5.79478
 20
7.99994
 30
0.000000
  70
    32
  0
VERTEX
  8
LEG_-_STRUT
  5
ECE
 10
5.78386
 20
7.98725
 30
0.000000
  70
    32
  0
VERTEX
  8
LEG_-_STRUT
  5
ECF
 10
5.77346
 20
7.97392
 30
0.000000
  70
    32
  0
VERTEX
  8
LEG_-_STRUT
  5
ED0
 10
5.76361
 20
7.95998
 30
0.000000
  70
    32
  0
VERTEX
  8
LEG_-_STRUT
  5
ED1
 10
5.75434
 20
7.94547
 30
0.000000
  70
    32
  0
VERTEX
  8
LEG_-_STRUT
  5
ED2
 10
5.74566
 20
7.93042
 30
0.000000
  70
    32
  0
VERTEX
  8
LEG_-_STRUT
  5
ED3
 10
5.73759
 20
7.91487
 30
0.000000
  70
    32
  0
VERTEX
  8
LEG_-_STRUT
  5
ED4
 10
5.73016
 20
7.89886
 30
0.000000
  70
    32
  0
VERTEX
  8
LEG_-_STRUT
  5
ED5
 10
5.72338
 20
7.88242
 30
0.000000
  70
    32
  0
VERTEX
  8
LEG_-_STRUT
  5
ED6
 10
5.71727
 20
7.86559
 30
0.000000
  70
    32
  0
VERTEX
  8
LEG_-_STRUT
  5
ED7
 10
5.71184
 20
7.84842
 30
0.000000
  70
    32
  0
VERTEX
  8
LEG_-_STRUT
  5
ED8
 10
5.70711
 20
7.83094
 30
0.000000
  70
    32
  0
VERTEX
  8
LEG_-_STRUT
  5
ED9
 10
5.70309
 20
7.81320
 30
0.000000
  70
    32
  0
VERTEX
  8
LEG_-_STRUT
  5
EDA
 10
5.69979
 20
7.79524
 30
0.000000
  70
    32
  0
VERTEX
  8
LEG_-_STRUT
  5
EDB
 10
5.69721
 20
7.77711
 30
0.000000
  70
    32
  0
VERTEX
  8
LEG_-_STRUT
  5
EDC
 10
5.69537
 20
7.75884
 30
0.000000
  70
    32
  0
VERTEX
  8
LEG_-_STRUT
  5
EDD
 10
5.69426
 20
7.74048
 30
0.000000
  70
    32
  0
VERTEX
  8
LEG_-_STRUT
  5
EDE
 10
5.69389
 20
7.72208
 30
0.000000
  70
    32
  0
VERTEX
  8
LEG_-_STRUT
  5
EDF
 10
5.69426
 20
7.70368
 30
0.000000
  70
    32
  0
VERTEX
  8
LEG_-_STRUT
  5
EE0
 10
5.69537
 20
7.68533
 30
0.000000
  70
    32
  0
VERTEX
  8
LEG_-_STRUT
  5
EE1
 10
5.69721
 20
7.66706
 30
0.000000
  70
    32
  0
VERTEX
  8
LEG_-_STRUT
  5
EE2
 10
5.69979
 20
7.64892
 30
0.000000
  70
    32
  0
VERTEX
  8
LEG_-_STRUT
  5
EE3
 10
5.70309
 20
7.63096
 30
0.000000
  70
    32
  0
VERTEX
  8
LEG_-_STRUT
  5
EE4
 10
5.70711
 20
7.61323
 30
0.000000
  70
    32
  0
VERTEX
  8
LEG_-_STRUT
  5
EE5
 10
5.71184
 20
7.59575
 30
0.000000
  70
    32
  0
VERTEX
  8
LEG_-_STRUT
  5
EE6
 10
5.71727
 20
7.57858
 30
0.000000
  70
    32
  0
VERTEX
  8
LEG_-_STRUT
  5
EE7
 10
5.72338
 20
7.56175
 30
0.000000
  70
    32
  0
VERTEX
  8
LEG_-_STRUT
  5
EE8
 10
5.73016
 20
7.54531
 30
0.000000
  70
    32
  0
VERTEX
  8
LEG_-_STRUT
  5
EE9
 10
5.73759
 20
7.52929
 30
0.000000
  70
    32
  0
VERTEX
  8
LEG_-_STRUT
  5
EEA
 10
5.74566
 20
7.51374
 30
0.000000
  70
    32
  0
VERTEX
  8
LEG_-_STRUT
  5
EEB
 10
5.75434
 20
7.49869
 30
0.000000
  70
    32
  0
VERTEX
  8
LEG_-_STRUT
  5
EEC
 10
5.76361
 20
7.48418
 30
0.000000
  70
    32
  0
VERTEX
  8
LEG_-_STRUT
  5
EED
 10
5.77346
 20
7.47025
 30
0.000000
  70
    32
  0
VERTEX
  8
LEG_-_STRUT
  5
EEE
 10
5.78386
 20
7.45692
 30
0.000000
  70
    32
  0
VERTEX
  8
LEG_-_STRUT
  5
EEF
 10
5.79478
 20
7.44423
 30
0.000000
  70
    32
  0
VERTEX
  8
LEG_-_STRUT
  5
EF0
 10
5.80620
 20
7.43220
 30
0.000000
  70
    32
  0
VERTEX
  8
LEG_-_STRUT
  5
EF1
 10
5.81808
 20
7.42088
 30
0.000000
  70
    32
  0
VERTEX
  8
LEG_-_STRUT
  5
EF2
 10
5.83041
 20
7.41028
 30
0.000000
  70
    32
  0
VERTEX
  8
LEG_-_STRUT
  5
EF3
 10
5.84315
 20
7.40043
 30
0.000000
  70
    32
  0
VERTEX
  8
LEG_-_STRUT
  5
EF4
 10
5.85627
 20
7.39136
 30
0.000000
  70
    32
  0
VERTEX
  8
LEG_-_STRUT
  5
EF5
 10
5.86973
 20
7.38309
 30
0.000000
  70
    32
  0
VERTEX
  8
LEG_-_STRUT
  5
EF6
 10
5.88352
 20
7.37563
 30
0.000000
  70
    32
  0
VERTEX
  8
LEG_-_STRUT
  5
EF7
 10
5.89758
 20
7.36900
 30
0.000000
  70
    32
  0
VERTEX
  8
LEG_-_STRUT
  5
EF8
 10
5.91190
 20
7.36323
 30
0.000000
  70
    32
  0
VERTEX
  8
LEG_-_STRUT
  5
EF9
 10
5.92643
 20
7.35832
 30
0.000000
  70
    32
  0
VERTEX
  8
LEG_-_STRUT
  5
EFA
 10
5.94114
 20
7.35429
 30
0.000000
  70
    32
  0
VERTEX
  8
LEG_-_STRUT
  5
EFB
 10
5.95600
 20
7.35114
 30
0.000000
  70
    32
  0
VERTEX
  8
LEG_-_STRUT
  5
EFC
 10
5.97096
 20
7.34889
 30
0.000000
  70
    32
  0
VERTEX
  8
LEG_-_STRUT
  5
EFD
 10
5.98600
 20
7.34753
 30
0.000000
  70
    32
  0
VERTEX
  8
LEG_-_STRUT
  5
EFE
 10
6.00107
 20
7.34708
 30
0.000000
  70
    32
  0
VERTEX
  8
LEG_-_STRUT
  5
EFF
 10
6.01614
 20
7.34753
 30
0.000000
  70
    32
  0
VERTEX
  8
LEG_-_STRUT
  5
F00
 10
6.03118
 20
7.34889
 30
0.000000
  70
    32
  0
VERTEX
  8
LEG_-_STRUT
  5
F01
 10
6.04614
 20
7.35114
 30
0.000000
  70
    32
  0
VERTEX
  8
LEG_-_STRUT
  5
F02
 10
6.06100
 20
7.35429
 30
0.000000
  70
    32
  0
VERTEX
  8
LEG_-_STRUT
  5
F03
 10
6.07571
 20
7.35832
 30
0.000000
  70
    32
  0
VERTEX
  8
LEG_-_STRUT
  5
F04
 10
6.09024
 20
7.36323
 30
0.000000
  70
    32
  0
VERTEX
  8
LEG_-_STRUT
  5
F05
 10
6.10456
 20
7.36900
 30
0.000000
  70
    32
  0
VERTEX
  8
LEG_-_STRUT
  5
F06
 10
6.11862
 20
7.37563
 30
0.000000
  70
    32
  0
VERTEX
  8
LEG_-_STRUT
  5
F07
 10
6.13241
 20
7.38309
 30
0.000000
  70
    32
  0
VERTEX
  8
LEG_-_STRUT
  5
F08
 10
6.14587
 20
7.39136
 30
0.000000
  70
    32
  0
VERTEX
  8
LEG_-_STRUT
  5
F09
 10
6.15899
 20
7.40043
 30
0.000000
  70
    32
  0
VERTEX
  8
LEG_-_STRUT
  5
F0A
 10
6.17173
 20
7.41028
 30
0.000000
  70
    32
  0
VERTEX
  8
LEG_-_STRUT
  5
F0B
 10
6.18406
 20
7.42088
 30
0.000000
  70
    32
  0
VERTEX
  8
LEG_-_STRUT
  5
F0C
 10
6.19594
 20
7.43220
 30
0.000000
  70
    32
  0
VERTEX
  8
LEG_-_STRUT
  5
F0D
 10
6.20736
 20
7.44423
 30
0.000000
  70
    32
  0
VERTEX
  8
LEG_-_STRUT
  5
F0E
 10
6.21828
 20
7.45692
 30
0.000000
  70
    32
  0
VERTEX
  8
LEG_-_STRUT
  5
F0F
 10
6.22868
 20
7.47025
 30
0.000000
  70
    32
  0
VERTEX
  8
LEG_-_STRUT
  5
F10
 10
6.23852
 20
7.48418
 30
0.000000
  70
    32
  0
VERTEX
  8
LEG_-_STRUT
  5
F11
 10
6.24780
 20
7.49869
 30
0.000000
  70
    32
  0
VERTEX
  8
LEG_-_STRUT
  5
F12
 10
6.25648
 20
7.51374
 30
0.000000
  70
    32
  0
VERTEX
  8
LEG_-_STRUT
  5
F13
 10
6.26455
 20
7.52929
 30
0.000000
  70
    32
  0
VERTEX
  8
LEG_-_STRUT
  5
F14
 10
6.27198
 20
7.54531
 30
0.000000
  70
    32
  0
VERTEX
  8
LEG_-_STRUT
  5
F15
 10
6.27876
 20
7.56175
 30
0.000000
  70
    32
  0
VERTEX
  8
LEG_-_STRUT
  5
F16
 10
6.28487
 20
7.57858
 30
0.000000
  70
    32
  0
VERTEX
  8
LEG_-_STRUT
  5
F17
 10
6.29030
 20
7.59575
 30
0.000000
  70
    32
  0
VERTEX
  8
LEG_-_STRUT
  5
F18
 10
6.29502
 20
7.61323
 30
0.000000
  70
    32
  0
VERTEX
  8
LEG_-_STRUT
  5
F19
 10
6.29905
 20
7.63096
 30
0.000000
  70
    32
  0
VERTEX
  8
LEG_-_STRUT
  5
F1A
 10
6.30235
 20
7.64892
 30
0.000000
  70
    32
  0
VERTEX
  8
LEG_-_STRUT
  5
F1B
 10
6.30493
 20
7.66706
 30
0.000000
  70
    32
  0
VERTEX
  8
LEG_-_STRUT
  5
F1C
 10
6.30677
 20
7.68533
 30
0.000000
  70
    32
  0
VERTEX
  8
LEG_-_STRUT
  5
F1D
 10
6.30788
 20
7.70368
 30
0.000000
  70
    32
  0
VERTEX
  8
LEG_-_STRUT
  5
F1E
 10
6.30825
 20
7.72208
 30
0.000000
  70
    32
  0
VERTEX
  8
LEG_-_STRUT
  5
F1F
 10
6.30788
 20
7.74048
 30
0.000000
  70
    32
  0
VERTEX
  8
LEG_-_STRUT
  5
F20
 10
6.30677
 20
7.75884
 30
0.000000
  70
    32
  0
VERTEX
  8
LEG_-_STRUT
  5
F21
 10
6.30493
 20
7.77711
 30
0.000000
  70
    32
  0
VERTEX
  8
LEG_-_STRUT
  5
F22
 10
6.30235
 20
7.79524
 30
0.000000
  70
    32
  0
VERTEX
  8
LEG_-_STRUT
  5
F23
 10
6.29905
 20
7.81320
 30
0.000000
  70
    32
  0
VERTEX
  8
LEG_-_STRUT
  5
F24
 10
6.29502
 20
7.83094
 30
0.000000
  70
    32
  0
VERTEX
  8
LEG_-_STRUT
  5
F25
 10
6.29030
 20
7.84842
 30
0.000000
  70
    32
  0
VERTEX
  8
LEG_-_STRUT
  5
F26
 10
6.28487
 20
7.86559
 30
0.000000
  70
    32
  0
VERTEX
  8
LEG_-_STRUT
  5
F27
 10
6.27876
 20
7.88242
 30
0.000000
  70
    32
  0
VERTEX
  8
LEG_-_STRUT
  5
F28
 10
6.27198
 20
7.89886
 30
0.000000
  70
    32
  0
VERTEX
  8
LEG_-_STRUT
  5
F29
 10
6.26455
 20
7.91487
 30
0.000000
  70
    32
  0
VERTEX
  8
LEG_-_STRUT
  5
F2A
 10
6.25648
 20
7.93042
 30
0.000000
  70
    32
  0
VERTEX
  8
LEG_-_STRUT
  5
F2B
 10
6.24780
 20
7.94547
 30
0.000000
  70
    32
  0
VERTEX
  8
LEG_-_STRUT
  5
F2C
 10
6.23852
 20
7.95998
 30
0.000000
  70
    32
  0
VERTEX
  8
LEG_-_STRUT
  5
F2D
 10
6.22868
 20
7.97392
 30
0.000000
  70
    32
  0
VERTEX
  8
LEG_-_STRUT
  5
F2E
 10
6.21828
 20
7.98725
 30
0.000000
  70
    32
  0
VERTEX
  8
LEG_-_STRUT
  5
F2F
 10
6.20736
 20
7.99994
 30
0.000000
  70
    32
  0
VERTEX
  8
LEG_-_STRUT
  5
F30
 10
6.19594
 20
8.01196
 30
0.000000
  70
    32
  0
VERTEX
  8
LEG_-_STRUT
  5
F31
 10
6.18406
 20
8.02329
 30
0.000000
  70
    32
  0
VERTEX
  8
LEG_-_STRUT
  5
F32
 10
6.17173
 20
8.03388
 30
0.000000
  70
    32
  0
VERTEX
  8
LEG_-_STRUT
  5
F33
 10
6.15899
 20
8.04373
 30
0.000000
  70
    32
  0
VERTEX
  8
LEG_-_STRUT
  5
F34
 10
6.14587
 20
8.05280
 30
0.000000
  70
    32
  0
VERTEX
  8
LEG_-_STRUT
  5
F35
 10
6.13241
 20
8.06108
 30
0.000000
  70
    32
  0
VERTEX
  8
LEG_-_STRUT
  5
F36
 10
6.11862
 20
8.06854
 30
0.000000
  70
    32
  0
VERTEX
  8
LEG_-_STRUT
  5
F37
 10
6.10456
 20
8.07516
 30
0.000000
  70
    32
  0
VERTEX
  8
LEG_-_STRUT
  5
F38
 10
6.09024
 20
8.08093
 30
0.000000
  70
    32
  0
VERTEX
  8
LEG_-_STRUT
  5
F39
 10
6.07571
 20
8.08584
 30
0.000000
  70
    32
  0
VERTEX
  8
LEG_-_STRUT
  5
F3A
 10
6.06100
 20
8.08988
 30
0.000000
  70
    32
  0
VERTEX
  8
LEG_-_STRUT
  5
F3B
 10
6.04614
 20
8.09302
 30
0.000000
  70
    32
  0
VERTEX
  8
LEG_-_STRUT
  5
F3C
 10
6.03118
 20
8.09528
 30
0.000000
  70
    32
  0
VERTEX
  8
LEG_-_STRUT
  5
F3D
 10
6.01614
 20
8.09663
 30
0.000000
  70
    32
  0
VERTEX
  8
LEG_-_STRUT
  5
F3E
 10
6.00107
 20
8.09708
 30
0.000000
  70
    32
  0
SEQEND
  8
LEG_-_STRUT
  5
F3F
  0
POLYLINE
  5
339
  8
LEG_-_STRUT
 10
5.9293727561033194
 20
8.097082176215725
 30
0.0
 66
     1
 70
     8
  0
VERTEX
  8
LEG_-_STRUT
  5
F40
 10
5.92937
 20
8.09708
 30
0.000000
  70
    32
  0
VERTEX
  8
LEG_-_STRUT
  5
F41
 10
5.92183
 20
8.09697
 30
0.000000
  70
    32
  0
VERTEX
  8
LEG_-_STRUT
  5
F42
 10
5.91430
 20
8.09663
 30
0.000000
  70
    32
  0
VERTEX
  8
LEG_-_STRUT
  5
F43
 10
5.90678
 20
8.09607
 30
0.000000
  70
    32
  0
VERTEX
  8
LEG_-_STRUT
  5
F44
 10
5.89926
 20
8.09528
 30
0.000000
  70
    32
  0
VERTEX
  8
LEG_-_STRUT
  5
F45
 10
5.89177
 20
8.09426
 30
0.000000
  70
    32
  0
VERTEX
  8
LEG_-_STRUT
  5
F46
 10
5.88430
 20
8.09302
 30
0.000000
  70
    32
  0
VERTEX
  8
LEG_-_STRUT
  5
F47
 10
5.87686
 20
8.09156
 30
0.000000
  70
    32
  0
VERTEX
  8
LEG_-_STRUT
  5
F48
 10
5.86944
 20
8.08988
 30
0.000000
  70
    32
  0
VERTEX
  8
LEG_-_STRUT
  5
F49
 10
5.86207
 20
8.08797
 30
0.000000
  70
    32
  0
VERTEX
  8
LEG_-_STRUT
  5
F4A
 10
5.85473
 20
8.08584
 30
0.000000
  70
    32
  0
VERTEX
  8
LEG_-_STRUT
  5
F4B
 10
5.84744
 20
8.08350
 30
0.000000
  70
    32
  0
VERTEX
  8
LEG_-_STRUT
  5
F4C
 10
5.84020
 20
8.08093
 30
0.000000
  70
    32
  0
VERTEX
  8
LEG_-_STRUT
  5
F4D
 10
5.83302
 20
8.07816
 30
0.000000
  70
    32
  0
VERTEX
  8
LEG_-_STRUT
  5
F4E
 10
5.82589
 20
8.07516
 30
0.000000
  70
    32
  0
VERTEX
  8
LEG_-_STRUT
  5
F4F
 10
5.81882
 20
8.07195
 30
0.000000
  70
    32
  0
VERTEX
  8
LEG_-_STRUT
  5
F50
 10
5.81182
 20
8.06854
 30
0.000000
  70
    32
  0
VERTEX
  8
LEG_-_STRUT
  5
F51
 10
5.80489
 20
8.06491
 30
0.000000
  70
    32
  0
VERTEX
  8
LEG_-_STRUT
  5
F52
 10
5.79804
 20
8.06108
 30
0.000000
  70
    32
  0
VERTEX
  8
LEG_-_STRUT
  5
F53
 10
5.79126
 20
8.05704
 30
0.000000
  70
    32
  0
VERTEX
  8
LEG_-_STRUT
  5
F54
 10
5.78457
 20
8.05280
 30
0.000000
  70
    32
  0
VERTEX
  8
LEG_-_STRUT
  5
F55
 10
5.77796
 20
8.04836
 30
0.000000
  70
    32
  0
VERTEX
  8
LEG_-_STRUT
  5
F56
 10
5.77145
 20
8.04373
 30
0.000000
  70
    32
  0
VERTEX
  8
LEG_-_STRUT
  5
F57
 10
5.76503
 20
8.03890
 30
0.000000
  70
    32
  0
VERTEX
  8
LEG_-_STRUT
  5
F58
 10
5.75871
 20
8.03388
 30
0.000000
  70
    32
  0
VERTEX
  8
LEG_-_STRUT
  5
F59
 10
5.75249
 20
8.02868
 30
0.000000
  70
    32
  0
VERTEX
  8
LEG_-_STRUT
  5
F5A
 10
5.74638
 20
8.02329
 30
0.000000
  70
    32
  0
VERTEX
  8
LEG_-_STRUT
  5
F5B
 10
5.74038
 20
8.01771
 30
0.000000
  70
    32
  0
VERTEX
  8
LEG_-_STRUT
  5
F5C
 10
5.73450
 20
8.01196
 30
0.000000
  70
    32
  0
VERTEX
  8
LEG_-_STRUT
  5
F5D
 10
5.72873
 20
8.00604
 30
0.000000
  70
    32
  0
VERTEX
  8
LEG_-_STRUT
  5
F5E
 10
5.72308
 20
7.99994
 30
0.000000
  70
    32
  0
VERTEX
  8
LEG_-_STRUT
  5
F5F
 10
5.71756
 20
7.99367
 30
0.000000
  70
    32
  0
VERTEX
  8
LEG_-_STRUT
  5
F60
 10
5.71216
 20
7.98725
 30
0.000000
  70
    32
  0
VERTEX
  8
LEG_-_STRUT
  5
F61
 10
5.70690
 20
7.98066
 30
0.000000
  70
    32
  0
VERTEX
  8
LEG_-_STRUT
  5
F62
 10
5.70177
 20
7.97392
 30
0.000000
  70
    32
  0
VERTEX
  8
LEG_-_STRUT
  5
F63
 10
5.69677
 20
7.96702
 30
0.000000
  70
    32
  0
VERTEX
  8
LEG_-_STRUT
  5
F64
 10
5.69192
 20
7.95998
 30
0.000000
  70
    32
  0
VERTEX
  8
LEG_-_STRUT
  5
F65
 10
5.68721
 20
7.95279
 30
0.000000
  70
    32
  0
VERTEX
  8
LEG_-_STRUT
  5
F66
 10
5.68264
 20
7.94547
 30
0.000000
  70
    32
  0
VERTEX
  8
LEG_-_STRUT
  5
F67
 10
5.67823
 20
7.93801
 30
0.000000
  70
    32
  0
VERTEX
  8
LEG_-_STRUT
  5
F68
 10
5.67396
 20
7.93042
 30
0.000000
  70
    32
  0
VERTEX
  8
LEG_-_STRUT
  5
F69
 10
5.66985
 20
7.92271
 30
0.000000
  70
    32
  0
VERTEX
  8
LEG_-_STRUT
  5
F6A
 10
5.66589
 20
7.91487
 30
0.000000
  70
    32
  0
VERTEX
  8
LEG_-_STRUT
  5
F6B
 10
5.66210
 20
7.90692
 30
0.000000
  70
    32
  0
VERTEX
  8
LEG_-_STRUT
  5
F6C
 10
5.65846
 20
7.89886
 30
0.000000
  70
    32
  0
VERTEX
  8
LEG_-_STRUT
  5
F6D
 10
5.65499
 20
7.89069
 30
0.000000
  70
    32
  0
VERTEX
  8
LEG_-_STRUT
  5
F6E
 10
5.65168
 20
7.88242
 30
0.000000
  70
    32
  0
VERTEX
  8
LEG_-_STRUT
  5
F6F
 10
5.64854
 20
7.87405
 30
0.000000
  70
    32
  0
VERTEX
  8
LEG_-_STRUT
  5
F70
 10
5.64557
 20
7.86559
 30
0.000000
  70
    32
  0
VERTEX
  8
LEG_-_STRUT
  5
F71
 10
5.64277
 20
7.85704
 30
0.000000
  70
    32
  0
VERTEX
  8
LEG_-_STRUT
  5
F72
 10
5.64015
 20
7.84842
 30
0.000000
  70
    32
  0
VERTEX
  8
LEG_-_STRUT
  5
F73
 10
5.63769
 20
7.83971
 30
0.000000
  70
    32
  0
VERTEX
  8
LEG_-_STRUT
  5
F74
 10
5.63542
 20
7.83094
 30
0.000000
  70
    32
  0
VERTEX
  8
LEG_-_STRUT
  5
F75
 10
5.63332
 20
7.82210
 30
0.000000
  70
    32
  0
VERTEX
  8
LEG_-_STRUT
  5
F76
 10
5.63140
 20
7.81320
 30
0.000000
  70
    32
  0
VERTEX
  8
LEG_-_STRUT
  5
F77
 10
5.62965
 20
7.80425
 30
0.000000
  70
    32
  0
VERTEX
  8
LEG_-_STRUT
  5
F78
 10
5.62809
 20
7.79524
 30
0.000000
  70
    32
  0
VERTEX
  8
LEG_-_STRUT
  5
F79
 10
5.62671
 20
7.78619
 30
0.000000
  70
    32
  0
VERTEX
  8
LEG_-_STRUT
  5
F7A
 10
5.62552
 20
7.77711
 30
0.000000
  70
    32
  0
VERTEX
  8
LEG_-_STRUT
  5
F7B
 10
5.62450
 20
7.76799
 30
0.000000
  70
    32
  0
VERTEX
  8
LEG_-_STRUT
  5
F7C
 10
5.62367
 20
7.75884
 30
0.000000
  70
    32
  0
VERTEX
  8
LEG_-_STRUT
  5
F7D
 10
5.62302
 20
7.74967
 30
0.000000
  70
    32
  0
VERTEX
  8
LEG_-_STRUT
  5
F7E
 10
5.62256
 20
7.74048
 30
0.000000
  70
    32
  0
VERTEX
  8
LEG_-_STRUT
  5
F7F
 10
5.62228
 20
7.73129
 30
0.000000
  70
    32
  0
VERTEX
  8
LEG_-_STRUT
  5
F80
 10
5.62219
 20
7.72208
 30
0.000000
  70
    32
  0
VERTEX
  8
LEG_-_STRUT
  5
F81
 10
5.62228
 20
7.71288
 30
0.000000
  70
    32
  0
VERTEX
  8
LEG_-_STRUT
  5
F82
 10
5.62256
 20
7.70368
 30
0.000000
  70
    32
  0
VERTEX
  8
LEG_-_STRUT
  5
F83
 10
5.62302
 20
7.69450
 30
0.000000
  70
    32
  0
VERTEX
  8
LEG_-_STRUT
  5
F84
 10
5.62367
 20
7.68533
 30
0.000000
  70
    32
  0
VERTEX
  8
LEG_-_STRUT
  5
F85
 10
5.62450
 20
7.67618
 30
0.000000
  70
    32
  0
VERTEX
  8
LEG_-_STRUT
  5
F86
 10
5.62552
 20
7.66706
 30
0.000000
  70
    32
  0
VERTEX
  8
LEG_-_STRUT
  5
F87
 10
5.62671
 20
7.65797
 30
0.000000
  70
    32
  0
VERTEX
  8
LEG_-_STRUT
  5
F88
 10
5.62809
 20
7.64892
 30
0.000000
  70
    32
  0
VERTEX
  8
LEG_-_STRUT
  5
F89
 10
5.62965
 20
7.63992
 30
0.000000
  70
    32
  0
VERTEX
  8
LEG_-_STRUT
  5
F8A
 10
5.63140
 20
7.63096
 30
0.000000
  70
    32
  0
VERTEX
  8
LEG_-_STRUT
  5
F8B
 10
5.63332
 20
7.62206
 30
0.000000
  70
    32
  0
VERTEX
  8
LEG_-_STRUT
  5
F8C
 10
5.63542
 20
7.61323
 30
0.000000
  70
    32
  0
VERTEX
  8
LEG_-_STRUT
  5
F8D
 10
5.63769
 20
7.60445
 30
0.000000
  70
    32
  0
VERTEX
  8
LEG_-_STRUT
  5
F8E
 10
5.64015
 20
7.59575
 30
0.000000
  70
    32
  0
VERTEX
  8
LEG_-_STRUT
  5
F8F
 10
5.64277
 20
7.58712
 30
0.000000
  70
    32
  0
VERTEX
  8
LEG_-_STRUT
  5
F90
 10
5.64557
 20
7.57858
 30
0.000000
  70
    32
  0
VERTEX
  8
LEG_-_STRUT
  5
F91
 10
5.64854
 20
7.57012
 30
0.000000
  70
    32
  0
VERTEX
  8
LEG_-_STRUT
  5
F92
 10
5.65168
 20
7.56175
 30
0.000000
  70
    32
  0
VERTEX
  8
LEG_-_STRUT
  5
F93
 10
5.65499
 20
7.55348
 30
0.000000
  70
    32
  0
VERTEX
  8
LEG_-_STRUT
  5
F94
 10
5.65846
 20
7.54531
 30
0.000000
  70
    32
  0
VERTEX
  8
LEG_-_STRUT
  5
F95
 10
5.66210
 20
7.53725
 30
0.000000
  70
    32
  0
VERTEX
  8
LEG_-_STRUT
  5
F96
 10
5.66589
 20
7.52929
 30
0.000000
  70
    32
  0
VERTEX
  8
LEG_-_STRUT
  5
F97
 10
5.66985
 20
7.52146
 30
0.000000
  70
    32
  0
VERTEX
  8
LEG_-_STRUT
  5
F98
 10
5.67396
 20
7.51374
 30
0.000000
  70
    32
  0
VERTEX
  8
LEG_-_STRUT
  5
F99
 10
5.67823
 20
7.50615
 30
0.000000
  70
    32
  0
VERTEX
  8
LEG_-_STRUT
  5
F9A
 10
5.68264
 20
7.49869
 30
0.000000
  70
    32
  0
VERTEX
  8
LEG_-_STRUT
  5
F9B
 10
5.68721
 20
7.49137
 30
0.000000
  70
    32
  0
VERTEX
  8
LEG_-_STRUT
  5
F9C
 10
5.69192
 20
7.48418
 30
0.000000
  70
    32
  0
VERTEX
  8
LEG_-_STRUT
  5
F9D
 10
5.69677
 20
7.47714
 30
0.000000
  70
    32
  0
VERTEX
  8
LEG_-_STRUT
  5
F9E
 10
5.70177
 20
7.47025
 30
0.000000
  70
    32
  0
VERTEX
  8
LEG_-_STRUT
  5
F9F
 10
5.70690
 20
7.46350
 30
0.000000
  70
    32
  0
VERTEX
  8
LEG_-_STRUT
  5
FA0
 10
5.71216
 20
7.45692
 30
0.000000
  70
    32
  0
VERTEX
  8
LEG_-_STRUT
  5
FA1
 10
5.71756
 20
7.45049
 30
0.000000
  70
    32
  0
VERTEX
  8
LEG_-_STRUT
  5
FA2
 10
5.72308
 20
7.44423
 30
0.000000
  70
    32
  0
VERTEX
  8
LEG_-_STRUT
  5
FA3
 10
5.72873
 20
7.43813
 30
0.000000
  70
    32
  0
VERTEX
  8
LEG_-_STRUT
  5
FA4
 10
5.73450
 20
7.43220
 30
0.000000
  70
    32
  0
VERTEX
  8
LEG_-_STRUT
  5
FA5
 10
5.74038
 20
7.42645
 30
0.000000
  70
    32
  0
VERTEX
  8
LEG_-_STRUT
  5
FA6
 10
5.74638
 20
7.42088
 30
0.000000
  70
    32
  0
VERTEX
  8
LEG_-_STRUT
  5
FA7
 10
5.75249
 20
7.41549
 30
0.000000
  70
    32
  0
VERTEX
  8
LEG_-_STRUT
  5
FA8
 10
5.75871
 20
7.41028
 30
0.000000
  70
    32
  0
VERTEX
  8
LEG_-_STRUT
  5
FA9
 10
5.76503
 20
7.40526
 30
0.000000
  70
    32
  0
VERTEX
  8
LEG_-_STRUT
  5
FAA
 10
5.77145
 20
7.40043
 30
0.000000
  70
    32
  0
VERTEX
  8
LEG_-_STRUT
  5
FAB
 10
5.77796
 20
7.39580
 30
0.000000
  70
    32
  0
VERTEX
  8
LEG_-_STRUT
  5
FAC
 10
5.78457
 20
7.39136
 30
0.000000
  70
    32
  0
VERTEX
  8
LEG_-_STRUT
  5
FAD
 10
5.79126
 20
7.38712
 30
0.000000
  70
    32
  0
VERTEX
  8
LEG_-_STRUT
  5
FAE
 10
5.79804
 20
7.38309
 30
0.000000
  70
    32
  0
VERTEX
  8
LEG_-_STRUT
  5
FAF
 10
5.80489
 20
7.37925
 30
0.000000
  70
    32
  0
VERTEX
  8
LEG_-_STRUT
  5
FB0
 10
5.81182
 20
7.37563
 30
0.000000
  70
    32
  0
VERTEX
  8
LEG_-_STRUT
  5
FB1
 10
5.81882
 20
7.37221
 30
0.000000
  70
    32
  0
VERTEX
  8
LEG_-_STRUT
  5
FB2
 10
5.82589
 20
7.36900
 30
0.000000
  70
    32
  0
VERTEX
  8
LEG_-_STRUT
  5
FB3
 10
5.83302
 20
7.36601
 30
0.000000
  70
    32
  0
VERTEX
  8
LEG_-_STRUT
  5
FB4
 10
5.84020
 20
7.36323
 30
0.000000
  70
    32
  0
VERTEX
  8
LEG_-_STRUT
  5
FB5
 10
5.84744
 20
7.36067
 30
0.000000
  70
    32
  0
VERTEX
  8
LEG_-_STRUT
  5
FB6
 10
5.85473
 20
7.35832
 30
0.000000
  70
    32
  0
VERTEX
  8
LEG_-_STRUT
  5
FB7
 10
5.86207
 20
7.35619
 30
0.000000
  70
    32
  0
VERTEX
  8
LEG_-_STRUT
  5
FB8
 10
5.86944
 20
7.35429
 30
0.000000
  70
    32
  0
VERTEX
  8
LEG_-_STRUT
  5
FB9
 10
5.87686
 20
7.35260
 30
0.000000
  70
    32
  0
VERTEX
  8
LEG_-_STRUT
  5
FBA
 10
5.88430
 20
7.35114
 30
0.000000
  70
    32
  0
VERTEX
  8
LEG_-_STRUT
  5
FBB
 10
5.89177
 20
7.34990
 30
0.000000
  70
    32
  0
VERTEX
  8
LEG_-_STRUT
  5
FBC
 10
5.89926
 20
7.34889
 30
0.000000
  70
    32
  0
VERTEX
  8
LEG_-_STRUT
  5
FBD
 10
5.90678
 20
7.34810
 30
0.000000
  70
    32
  0
VERTEX
  8
LEG_-_STRUT
  5
FBE
 10
5.91430
 20
7.34753
 30
0.000000
  70
    32
  0
VERTEX
  8
LEG_-_STRUT
  5
FBF
 10
5.92183
 20
7.34720
 30
0.000000
  70
    32
  0
VERTEX
  8
LEG_-_STRUT
  5
FC0
 10
5.92937
 20
7.34708
 30
0.000000
  70
    32
  0
SEQEND
  8
LEG_-_STRUT
  5
FC1
  0
LINE
  5
33A
  8
LEG_-_STRUT
 10
5.9293727561033194
 20
8.097082176215725
 30
0.0
 11
6.001069810647202
 21
8.097082176215725
 31
0.0
  0
LINE
  5
33B
  8
LEG_-_STRUT
 10
5.9293727561033194
 20
7.347082176215725
 30
0.0
 11
6.001069810647202
 21
7.347082176215725
 31
0.0
  0
LINE
  5
33F
  8
LEG_-_STRUT
  6
CENTER
 10
4.6239102694035381
 20
7.722082176215725
 30
0.0
 11
13.54766370596834
 21
7.722082176215725
 31
0.0
  0
LINE
  5
340
  8
LEG_-_STRUT
 10
6.9366637059683489
 20
8.284582176215725
 30
0.0
 11
7.3936637059683434
 21
8.284582176215725
 31
0.0
  0
LINE
  5
341
  8
LEG_-_STRUT
 10
6.9366637059683489
 20
7.159582176215725
 30
0.0
 11
7.3936637059683434
 21
7.159582176215725
 31
0.0
  0
LINE
  5
342
  8
LEG_-_STRUT
 10
6.8806637059683453
 20
8.2075821762157215
 30
0.0
 11
6.8806637059683453
 21
7.2365821762157241
 31
0.0
  0
LINE
  5
343
  8
LEG_-_STRUT
 10
6.354584041962112
 20
7.4720821762157206
 30
0.0
 11
6.5086637059683383
 21
7.4720821762157232
 31
0.0
  0
LINE
  5
344
  8
LEG_-_STRUT
 10
6.354584041962112
 20
7.9720821762157206
 30
0.0
 11
6.5086637059683383
 21
7.9720821762157206
 31
0.0
  0
LINE
  5
345
  8
LEG_-_STRUT
 10
6.8186637059683397
 20
8.0970821762157232
 30
0.0
 11
6.8186637059683397
 21
7.347082176215725
 31
0.0
  0
LINE
  5
346
  8
LEG_-_STRUT
 10
6.6946637059683454
 20
8.0970821762157232
 30
0.0
 11
6.6946637059683454
 21
7.347082176215725
 31
0.0
  0
LINE
  5
347
  8
LEG_-_STRUT
 10
6.7566637059683421
 20
8.0970821762157232
 30
0.0
 11
6.7566637059683421
 21
7.347082176215725
 31
0.0
  0
LINE
  5
348
  8
LEG_-_STRUT
 10
6.6326637059683469
 20
8.0970821762157232
 30
0.0
 11
6.6326637059683469
 21
7.347082176215725
 31
0.0
  0
LINE
  5
349
  8
LEG_-_STRUT
 10
6.5086637059683383
 20
8.0970821762157232
 30
0.0
 11
6.5086637059683383
 21
7.347082176215725
 31
0.0
  0
LINE
  5
34A
  8
LEG_-_STRUT
 10
6.570663705968343
 20
8.0970821762157232
 30
0.0
 11
6.570663705968343
 21
7.347082176215725
 31
0.0
  0
LINE
  5
34B
  8
LEG_-_STRUT
 10
6.7566637059683421
 20
7.347082176215725
 30
0.0
 11
6.8186637059683397
 21
7.347082176215725
 31
0.0
  0
LINE
  5
34C
  8
LEG_-_STRUT
 10
6.5086637059683383
 20
7.347082176215725
 30
0.0
 11
6.570663705968343
 21
7.347082176215725
 31
0.0
  0
LINE
  5
34D
  8
LEG_-_STRUT
 10
6.6326637059683469
 20
7.347082176215725
 30
0.0
 11
6.6946637059683454
 21
7.347082176215725
 31
0.0
  0
LINE
  5
34E
  8
LEG_-_STRUT
 10
6.570663705968343
 20
7.4720821762157232
 30
0.0
 11
6.6326637059683469
 21
7.4720821762157232
 31
0.0
  0
LINE
  5
34F
  8
LEG_-_STRUT
 10
6.6946637059683454
 20
7.4720821762157232
 30
0.0
 11
6.7566637059683421
 21
7.4720821762157232
 31
0.0
  0
LINE
  5
350
  8
LEG_-_STRUT
 10
6.8186637059683397
 20
7.4720821762157232
 30
0.0
 11
6.8806637059683453
 21
7.4720821762157206
 31
0.0
  0
LINE
  5
351
  8
LEG_-_STRUT
 10
6.7566637059683421
 20
8.0970821762157215
 30
0.0
 11
6.8186637059683397
 21
8.0970821762157215
 31
0.0
  0
LINE
  5
352
  8
LEG_-_STRUT
 10
6.570663705968343
 20
7.9720821762157206
 30
0.0
 11
6.6326637059683469
 21
7.9720821762157232
 31
0.0
  0
LINE
  5
353
  8
LEG_-_STRUT
 10
6.5086637059683383
 20
8.0970821762157215
 30
0.0
 11
6.570663705968343
 21
8.0970821762157215
 31
0.0
  0
LINE
  5
354
  8
LEG_-_STRUT
 10
6.6946637059683454
 20
7.9720821762157232
 30
0.0
 11
6.7566637059683421
 21
7.9720821762157232
 31
0.0
  0
LINE
  5
355
  8
LEG_-_STRUT
 10
6.6326637059683469
 20
8.0970821762157215
 30
0.0
 11
6.6946637059683454
 21
8.0970821762157215
 31
0.0
  0
LINE
  5
356
  8
LEG_-_STRUT
 10
6.8186637059683397
 20
7.9720821762157232
 30
0.0
 11
6.8806637059683453
 21
7.9720821762157232
 31
0.0
  0
LINE
  5
357
  8
LEG_-_STRUT
 10
8.2856637059683393
 20
7.284582176215725
 30
0.0
 11
8.5976637059683441
 21
7.2845821762157259
 31
0.0
  0
LINE
  5
358
  8
LEG_-_STRUT
 10
8.2856637059683393
 20
8.1595821762157268
 30
0.0
 11
8.5976637059683441
 21
8.1595821762157268
 31
0.0
  0
LINE
  5
359
  8
LEG_-_STRUT
 10
7.5056637059683453
 20
8.2075821762157215
 30
0.0
 11
7.5056637059683453
 21
7.2365821762157232
 31
0.0
  0
LINE
  5
35A
  8
LEG_-_STRUT
 10
7.3936637059683434
 20
8.284582176215725
 30
0.0
 11
7.3936637059683434
 21
7.159582176215725
 31
0.0
  0
LINE
  5
35B
  8
LEG_-_STRUT
 10
8.2856637059683464
 20
8.1595821762157268
 30
0.0
 11
8.2856637059683464
 21
7.284582176215725
 31
0.0
  0
LINE
  5
35C
  8
LEG_-_STRUT
 10
8.2236637059683417
 20
8.1595821762157268
 30
0.0
 11
8.2236637059683417
 21
7.284582176215725
 31
0.0
  0
LINE
  5
35D
  8
LEG_-_STRUT
 10
7.6616637059683441
 20
8.1595821762157268
 30
0.0
 11
7.6616637059683441
 21
7.284582176215725
 31
0.0
  0
LINE
  5
35E
  8
LEG_-_STRUT
 10
7.6616637059683441
 20
7.284582176215725
 30
0.0
 11
8.2236637059683417
 21
7.284582176215725
 31
0.0
  0
LINE
  5
35F
  8
LEG_-_STRUT
 10
7.5056637059683453
 20
7.2365821762157232
 30
0.0
 11
7.3936637059683434
 21
7.159582176215725
 31
0.0
  0
LINE
  5
360
  8
LEG_-_STRUT
 10
7.5056637059683453
 20
7.347082176215725
 30
0.0
 11
7.6616637059683441
 21
7.347082176215725
 31
0.0
  0
LINE
  5
361
  8
LEG_-_STRUT
 10
7.5056637059683453
 20
8.097082176215725
 30
0.0
 11
7.6616637059683441
 21
8.0970821762157268
 31
0.0
  0
LINE
  5
362
  8
LEG_-_STRUT
 10
8.2236637059683417
 20
7.347082176215725
 30
0.0
 11
8.2856637059683393
 21
7.347082176215725
 31
0.0
  0
LINE
  5
363
  8
LEG_-_STRUT
 10
8.2236637059683417
 20
8.0970821762157268
 30
0.0
 11
8.2856637059683393
 21
8.0970821762157268
 31
0.0
  0
LINE
  5
364
  8
LEG_-_STRUT
 10
7.6616637059683441
 20
8.1595821762157268
 30
0.0
 11
8.2236637059683417
 21
8.1595821762157268
 31
0.0
  0
LINE
  5
365
  8
LEG_-_STRUT
 10
7.5056637059683453
 20
8.2075821762157233
 30
0.0
 11
7.3936637059683434
 21
8.2845821762157232
 31
0.0
  0
LINE
  5
366
  8
LEG_-_STRUT
 10
8.5976637059683441
 20
8.1595821762157268
 30
0.0
 11
8.5976637059683441
 21
7.284582176215725
 31
0.0
  0
LINE
  5
367
  8
LEG_-_STRUT
 10
8.5976637059683441
 20
7.472082176215725
 30
0.0
 11
9.0476637059683398
 21
7.472082176215725
 31
0.0
  0
LINE
  5
368
  8
LEG_-_STRUT
 10
8.5976637059683441
 20
7.972082176215725
 30
0.0
 11
9.0476637059683398
 21
7.972082176215725
 31
0.0
  0
LINE
  5
400
  8
DIMENSIONS
 10
7.5056637059683453
 20
7.2053321762157232
 30
0.0
 11
7.5056637059683453
 21
6.628332176215725
 31
0.0
  0
LINE
  5
401
  8
DIMENSIONS
 10
6.8806637059683453
 20
7.128332176215725
 30
0.0
 11
6.8806637059683453
 21
6.628332176215725
 31
0.0
  0
LINE
  5
402
  8
DIMENSIONS
 10
7.6619137059683453
 20
6.659582176215725
 30
0.0
 11
7.8181637059683453
 21
6.659582176215725
 31
0.0
  0
LINE
  5
403
  8
DIMENSIONS
 10
6.7244137059683453
 20
6.659582176215725
 30
0.0
 11
6.5681637059683453
 21
6.659582176215725
 31
0.0
  0
SOLID
  5
404
  8
DIMENSIONS
 10
7.6619137059683453
 20
6.685623842882392
 30
0.0
 11
7.6619137059683453
 21
6.6335405095490572
 31
0.0
 12
7.5056637059683453
 22
6.659582176215725
 32
0.0
 13
7.5056637059683453
 23
6.659582176215725
 33
0.0
  0
SOLID
  5
405
  8
DIMENSIONS
 10
6.7244137059683453
 20
6.685623842882392
 30
0.0
 11
6.7244137059683453
 21
6.6335405095490572
 31
0.0
 12
6.8806637059683453
 22
6.659582176215725
 32
0.0
 13
6.8806637059683453
 23
6.659582176215725
 33
0.0
  0
LINE
  5
407
  8
DIMENSIONS
 10
7.5056637059683453
 20
8.2388321762157233
 30
0.0
 11
7.5056637059683453
 21
8.815832176215725
 31
0.0
  0
LINE
  5
408
  8
DIMENSIONS
 10
7.6616637059683441
 20
8.1908321762157268
 30
0.0
 11
7.6616637059683441
 21
8.815832176215725
 31
0.0
  0
LINE
  5
409
  8
DIMENSIONS
 10
7.3494137059683453
 20
8.784582176215725
 30
0.0
 11
7.1931637059683453
 21
8.784582176215725
 31
0.0
  0
LINE
  5
40A
  8
DIMENSIONS
 10
7.8179137059683441
 20
8.784582176215725
 30
0.0
 11
7.9741637059683441
 21
8.784582176215725
 31
0.0
  0
SOLID
  5
40B
  8
DIMENSIONS
 10
7.3494137059683453
 20
8.8106238428823911
 30
0.0
 11
7.3494137059683453
 21
8.7585405095490572
 31
0.0
 12
7.5056637059683453
 22
8.784582176215725
 32
0.0
 13
7.5056637059683453
 23
8.784582176215725
 33
0.0
  0
SOLID
  5
40C
  8
DIMENSIONS
 10
7.8179137059683441
 20
8.8106238428823911
 30
0.0
 11
7.8179137059683441
 21
8.7585405095490572
 31
0.0
 12
7.6616637059683441
 22
8.784582176215725
 32
0.0
 13
7.6616637059683441
 23
8.784582176215725
 33
0.0
  0
TEXT
  5
40E
  8
DIMENSIONS
 10
5.8806637059683453
 20
6.581457176215725
 30
0.0
 40
0.15625
  1
0.625
  0
TEXT
  5
40F
  8
DIMENSIONS
 10
8.0366637059683441
 20
8.706457176215725
 30
0.0
 40
0.15625
  1
0.156
  0
LINE
  5
434
  8
DIMENSIONS
 10
6.6326637059683469
 20
8.1283321762157215
 30
0.0
 11
6.6326637059683469
 21
8.815832176215725
 31
0.0
  0
LINE
  5
435
  8
DIMENSIONS
 10
6.570663705968343
 20
8.1283321762157215
 30
0.0
 11
6.570663705968343
 21
8.815832176215725
 31
0.0
  0
LINE
  5
436
  8
DIMENSIONS
 10
6.7889137059683469
 20
8.784582176215725
 30
0.0
 11
6.9451637059683469
 21
8.784582176215725
 31
0.0
  0
LINE
  5
437
  8
DIMENSIONS
 10
6.414413705968343
 20
8.784582176215725
 30
0.0
 11
6.258163705968343
 21
8.784582176215725
 31
0.0
  0
SOLID
  5
438
  8
DIMENSIONS
 10
6.7889137059683469
 20
8.8106238428823911
 30
0.0
 11
6.7889137059683469
 21
8.7585405095490572
 31
0.0
 12
6.6326637059683469
 22
8.784582176215725
 32
0.0
 13
6.6326637059683469
 23
8.784582176215725
 33
0.0
  0
SOLID
  5
439
  8
DIMENSIONS
 10
6.414413705968343
 20
8.8106238428823911
 30
0.0
 11
6.414413705968343
 21
8.7585405095490572
 31
0.0
 12
6.570663705968343
 22
8.784582176215725
 32
0.0
 13
6.570663705968343
 23
8.784582176215725
 33
0.0
  0
TEXT
  5
43B
  8
DIMENSIONS
 10
5.061371903978781
 20
8.706457176215725
 30
0.0
 40
0.15625
  1
0.062, 3X
  0
LINE
  5
44D
  8
DIMENSIONS
 10
6.8806637059683453
 20
12.170499929868541
 30
0.0
 11
6.8806637059683453
 21
12.67049992986853
 31
0.0
  0
LINE
  5
44E
  8
DIMENSIONS
 10
6.070663705968343
 20
11.60799992986853
 30
0.0
 11
6.070663705968343
 21
12.67049992986853
 31
0.0
  0
LINE
  5
44F
  8
DIMENSIONS
 10
7.0369137059683453
 20
12.639249929868541
 30
0.0
 11
7.1931637059683453
 21
12.639249929868541
 31
0.0
  0
LINE
  5
450
  8
DIMENSIONS
 10
5.914413705968343
 20
12.639249929868541
 30
0.0
 11
5.758163705968343
 21
12.639249929868541
 31
0.0
  0
SOLID
  5
451
  8
DIMENSIONS
 10
7.0369137059683453
 20
12.6652915965352
 30
0.0
 11
7.0369137059683453
 21
12.613208263201869
 31
0.0
 12
6.8806637059683453
 22
12.639249929868541
 32
0.0
 13
6.8806637059683453
 23
12.639249929868541
 33
0.0
  0
SOLID
  5
452
  8
DIMENSIONS
 10
5.914413705968343
 20
12.6652915965352
 30
0.0
 11
5.914413705968343
 21
12.613208263201869
 31
0.0
 12
6.070663705968343
 22
12.639249929868541
 32
0.0
 13
6.070663705968343
 23
12.639249929868541
 33
0.0
  0
TEXT
  5
454
  8
DIMENSIONS
 10
6.1780446583493003
 20
12.561124929868541
 30
0.0
 40
0.15625
  1
0.810
  0
LINE
  5
473
  8
DIMENSIONS
 10
4.8338630544019159
 20
11.32722395770358
 30
0.0
 11
4.4242870322574239
 21
11.040435739528061
 31
0.0
  0
LINE
  5
474
  8
DIMENSIONS
 10
5.4074394907529628
 20
10.508071913414589
 30
0.0
 11
4.9978634686084709
 21
10.221283695239061
 31
0.0
  0
LINE
  5
475
  8
DIMENSIONS
 10
4.5395068518213071
 20
10.930367496243869
 30
0.0
 11
4.6382070667562374
 21
10.78940898101953
 31
0.0
  0
LINE
  5
476
  8
DIMENSIONS
 10
4.933840651812651
 20
10.36720046579519
 30
0.0
 11
4.8351404368777153
 21
10.50815898101953
 31
0.0
  0
SOLID
  5
477
  8
DIMENSIONS
 10
4.5608389363079951
 20
10.94530438260718
 30
0.0
 11
4.5181747673346129
 21
10.915430609880559
 31
0.0
 12
4.4498855336414556
 22
11.058360003164029
 32
0.0
 13
4.4498855336414556
 23
11.058360003164029
 33
0.0
  0
SOLID
  5
478
  8
DIMENSIONS
 10
4.9551727362993381
 20
10.3821373521585
 30
0.0
 11
4.9125085673259568
 21
10.352263579431879
 31
0.0
 12
5.0234619699925034
 22
10.23920795887503
 32
0.0
 13
5.0234619699925034
 23
10.23920795887503
 33
0.0
  0
TEXT
  5
481
  8
DIMENSIONS
 10
4.439054704197928
 20
10.57065898101953
 30
0.0
 40
0.15625
  1
1.000
  0
LINE
  5
489
  8
LEG_-_STRUT
 10
9.0476637059683451
 20
8.0970821762157232
 30
0.0
 11
13.29766370596834
 21
8.0970821762157232
 31
0.0
  0
LINE
  5
48A
  8
LEG_-_STRUT
 10
9.0476637059683451
 20
8.0970821762157357
 30
0.0
 11
9.0476637059683398
 21
7.3470821762157348
 31
0.0
  0
LINE
  5
48B
  8
LEG_-_STRUT
 10
9.0476637059683398
 20
7.347082176215725
 30
0.0
 11
13.29766370596834
 21
7.347082176215725
 31
0.0
  0
LINE
  5
48C
  8
LEG_-_STRUT
 10
13.29766370596834
 20
8.097082176215725
 30
0.0
 11
13.29766370596834
 21
7.347082176215725
 31
0.0
  0
LINE
  5
49B
  8
DIMENSIONS
 10
8.5976637059683441
 20
12.045499929868541
 30
0.0
 11
8.5976637059683441
 21
12.67049992986853
 31
0.0
  0
LINE
  5
49C
  8
DIMENSIONS
 10
9.0476637059683451
 20
11.982999929868541
 30
0.0
 11
9.0476637059683451
 21
12.67049992986853
 31
0.0
  0
LINE
  5
49D
  8
DIMENSIONS
 10
8.4414137059683441
 20
12.639249929868541
 30
0.0
 11
8.2851637059683441
 21
12.639249929868541
 31
0.0
  0
LINE
  5
49E
  8
DIMENSIONS
 10
9.2039137059683451
 20
12.639249929868541
 30
0.0
 11
9.3601637059683451
 21
12.639249929868541
 31
0.0
  0
SOLID
  5
49F
  8
DIMENSIONS
 10
8.4414137059683441
 20
12.6652915965352
 30
0.0
 11
8.4414137059683441
 21
12.613208263201869
 31
0.0
 12
8.5976637059683441
 22
12.639249929868541
 32
0.0
 13
8.5976637059683441
 23
12.639249929868541
 33
0.0
  0
SOLID
  5
4A0
  8
DIMENSIONS
 10
9.2039137059683451
 20
12.6652915965352
 30
0.0
 11
9.2039137059683451
 21
12.613208263201869
 31
0.0
 12
9.0476637059683451
 22
12.639249929868541
 32
0.0
 13
9.0476637059683451
 23
12.639249929868541
 33
0.0
  0
TEXT
  5
4A2
  8
DIMENSIONS
 10
7.5910105516641551
 20
12.561124929868541
 30
0.0
 40
0.15625
  1
0.450
  0
LINE
  5
4BB
  8
LEG_-_STRUT
 10
6.9366637059683418
 20
12.139249929868541
 30
0.0
 11
6.9366637059683418
 21
11.014249929868541
 31
0.0
  0
LINE
  5
4BC
  8
LEG_-_STRUT
 10
6.8806637059683453
 20
11.091249929868541
 30
0.0
 11
6.9366637059683418
 21
11.014249929868541
 31
0.0
  0
LINE
  5
4BD
  8
LEG_-_STRUT
 10
6.9366637059683418
 20
12.139249929868541
 30
0.0
 11
6.8806637059683453
 21
12.062249929868541
 31
0.0
  0
LINE
  5
4D0
  8
DIMENSIONS
 10
13.32891370596834
 20
11.951749929868541
 30
0.0
 11
13.82891370596834
 21
11.951749929868541
 31
0.0
  0
LINE
  5
4D1
  8
DIMENSIONS
 10
13.32891370596834
 20
11.201749929868541
 30
0.0
 11
13.82891370596834
 21
11.201749929868541
 31
0.0
  0
LINE
  5
4D2
  8
DIMENSIONS
 10
13.79766370596834
 20
11.795499929868541
 30
0.0
 11
13.79766370596834
 21
11.717374929868541
 31
0.0
  0
LINE
  5
4D3
  8
DIMENSIONS
 10
13.79766370596834
 20
11.357999929868541
 30
0.0
 11
13.79766370596834
 21
11.436124929868541
 31
0.0
  0
SOLID
  5
4D4
  8
DIMENSIONS
 10
13.771622039301681
 20
11.795499929868541
 30
0.0
 11
13.823705372635009
 21
11.795499929868541
 31
0.0
 12
13.79766370596834
 22
11.951749929868541
 32
0.0
 13
13.79766370596834
 23
11.951749929868541
 33
0.0
  0
SOLID
  5
4D5
  8
DIMENSIONS
 10
13.771622039301681
 20
11.357999929868541
 30
0.0
 11
13.823705372635009
 21
11.357999929868541
 31
0.0
 12
13.79766370596834
 22
11.201749929868541
 32
0.0
 13
13.79766370596834
 23
11.201749929868541
 33
0.0
  0
TEXT
  5
4D7
  8
DIMENSIONS
 10
13.58112140638965
 20
11.498624929868541
 30
0.0
 40
0.15625
  1
%%C0.750
  0
LINE
  5
4E8
  8
DIMENSIONS
 10
9.0789137059683398
 20
11.326749929868541
 30
0.0
 11
9.5789137059683451
 21
11.326749929868541
 31
0.0
  0
LINE
  5
4E9
  8
DIMENSIONS
 10
9.0789137059683451
 20
11.826749929868541
 30
0.0
 11
9.5789137059683451
 21
11.826749929868541
 31
0.0
  0
LINE
  5
4EA
  8
DIMENSIONS
 10
9.5476637059683451
 20
11.170499929868541
 30
0.0
 11
9.5476637059683451
 21
11.014249929868541
 31
0.0
  0
LINE
  5
4EB
  8
DIMENSIONS
 10
9.5476637059683451
 20
11.982999929868541
 30
0.0
 11
9.5476637059683451
 21
12.139249929868541
 31
0.0
  0
SOLID
  5
4EC
  8
DIMENSIONS
 10
9.5216220393016826
 20
11.170499929868541
 30
0.0
 11
9.5737053726350112
 21
11.170499929868541
 31
0.0
 12
9.5476637059683451
 22
11.326749929868541
 32
0.0
 13
9.5476637059683451
 23
11.326749929868541
 33
0.0
  0
SOLID
  5
4ED
  8
DIMENSIONS
 10
9.5216220393016826
 20
11.982999929868541
 30
0.0
 11
9.5737053726350112
 21
11.982999929868541
 31
0.0
 12
9.5476637059683451
 22
11.826749929868541
 32
0.0
 13
9.5476637059683451
 23
11.826749929868541
 33
0.0
  0
TEXT
  5
4EF
  8
DIMENSIONS
 10
9.1694252411607593
 20
11.498624929868541
 30
0.0
 40
0.15625
  1
%%C0.500
  0
LINE
  5
4F0
  8
LEG_-_STRUT
  6
CENTER
 10
10.06045162832722
 20
11.57674992986853
 30
0.0
 11
13.54766370596834
 21
11.57674992986853
 31
0.0
  0
LINE
  5
4F3
  8
LEG_-_STRUT
 10
6.9366637059683489
 20
8.2845821762157232
 30
0.0
 11
6.8806637059683453
 21
8.2075821762157233
 31
0.0
  0
LINE
  5
4F4
  8
LEG_-_STRUT
 10
6.9366637059683489
 20
8.2845821762157232
 30
0.0
 11
6.9366637059683489
 21
7.1595821762157232
 31
0.0
  0
LINE
  5
4F5
  8
LEG_-_STRUT
 10
6.8806637059683453
 20
7.2365821762157232
 30
0.0
 11
6.9366637059683489
 21
7.1595821762157232
 31
0.0
  0
LINE
  5
4FA
  8
LEG_-_STRUT
 10
9.0476637059683398
 20
4.7861638044620767
 30
0.0
 11
13.29766370596834
 21
4.7861638044620767
 31
0.0
  0
LINE
  5
4FB
  8
LEG_-_STRUT
 10
9.0476637059683451
 20
4.0361638044620793
 30
0.0
 11
13.29766370596834
 21
4.0361638044620793
 31
0.0
  0
LINE
  5
4FD
  8
LEG_-_STRUT
 10
6.3082518272555674
 20
5.0773710804829904
 30
0.0
 11
5.6938877940388286
 21
5.5075534077462773
 31
0.0
  0
LINE
  5
4FE
  8
LEG_-_STRUT
 10
6.236554772711691
 20
4.9749770749468674
 30
0.0
 11
5.622190739494946
 21
5.4051594022101517
 31
0.0
  0
LINE
  5
4FF
  8
LEG_-_STRUT
 10
6.354584041962112
 20
4.816644066385126
 30
0.0
 11
5.4330379921369953
 21
5.4619175572800556
 31
0.0
  0
LINE
  5
500
  8
LEG_-_STRUT
 10
5.7810076056110651
 20
3.997492022096135
 30
0.0
 11
6.354584041962112
 21
4.816644066385126
 31
0.0
  0
LINE
  5
501
  8
LEG_-_STRUT
 10
5.8956118214159181
 20
4.1611638044620811
 30
0.0
 11
6.5086637059683454
 21
4.1611638044620811
 31
0.0
  0
LINE
  5
502
  8
LEG_-_STRUT
 10
5.7810076056110651
 20
3.997492022096135
 30
0.0
 11
4.8594615557859484
 21
4.6427655129910654
 31
0.0
  0
LINE
  5
503
  8
LEG_-_STRUT
 10
4.8594615557859484
 20
4.642765512991061
 30
0.0
 11
5.4330379921369953
 21
5.4619175572800556
 31
0.0
  0
LINE
  5
505
  8
LEG_-_STRUT
 10
5.6378260032092413
 20
5.3185234481922938
 30
0.0
 11
5.6733877422630101
 21
5.3693108749382112
 31
0.0
  0
LINE
  5
506
  8
LEG_-_STRUT
 10
8.5976637059683441
 20
4.6611638044620767
 30
0.0
 11
9.0476637059683398
 21
4.6611638044620749
 31
0.0
  0
LINE
  5
507
  8
LEG_-_STRUT
 10
8.5976637059683441
 20
4.1611638044620767
 30
0.0
 11
9.0476637059683398
 21
4.1611638044620767
 31
0.0
  0
LINE
  5
508
  8
LEG_-_STRUT
 10
6.9366637059683418
 20
4.9736638044620767
 30
0.0
 11
7.3936637059683434
 21
4.9736638044620767
 31
0.0
  0
LINE
  5
509
  8
LEG_-_STRUT
 10
6.9366637059683418
 20
3.8486638044620789
 30
0.0
 11
7.3936637059683434
 21
3.8486638044620771
 31
0.0
  0
LINE
  5
50A
  8
LEG_-_STRUT
 10
6.8806637059683453
 20
3.9256638044620749
 30
0.0
 11
6.8806637059683453
 21
4.8966638044620794
 31
0.0
  0
LINE
  5
50B
  8
LEG_-_STRUT
 10
6.9366637059683418
 20
3.8486638044620771
 30
0.0
 11
6.9366637059683418
 21
4.9736638044620767
 31
0.0
  0
LINE
  5
50C
  8
LEG_-_STRUT
 10
6.8186637059683397
 20
4.0361638044620793
 30
0.0
 11
6.8186637059683397
 21
4.7861638044620767
 31
0.0
  0
LINE
  5
50D
  8
LEG_-_STRUT
 10
6.7566637059683421
 20
4.0361638044620793
 30
0.0
 11
6.7566637059683421
 21
4.7861638044620767
 31
0.0
  0
LINE
  5
50E
  8
LEG_-_STRUT
 10
6.6946637059683454
 20
4.0361638044620793
 30
0.0
 11
6.6946637059683454
 21
4.7861638044620767
 31
0.0
  0
LINE
  5
50F
  8
LEG_-_STRUT
 10
6.6326637059683398
 20
4.0361638044620793
 30
0.0
 11
6.6326637059683398
 21
4.7861638044620767
 31
0.0
  0
LINE
  5
510
  8
LEG_-_STRUT
 10
6.570663705968343
 20
4.0361638044620793
 30
0.0
 11
6.570663705968343
 21
4.7861638044620767
 31
0.0
  0
LINE
  5
511
  8
LEG_-_STRUT
 10
6.5086637059683454
 20
4.0361638044620793
 30
0.0
 11
6.5086637059683454
 21
4.7861638044620767
 31
0.0
  0
LINE
  5
512
  8
LEG_-_STRUT
 10
6.6326637059683398
 20
4.7861638044620767
 30
0.0
 11
6.6946637059683454
 21
4.7861638044620767
 31
0.0
  0
LINE
  5
513
  8
LEG_-_STRUT
 10
6.2457155905207742
 20
4.6611638044620793
 30
0.0
 11
6.5086637059683454
 21
4.6611638044620793
 31
0.0
  0
LINE
  5
514
  8
LEG_-_STRUT
 10
6.149796030889866
 20
4.9600381754728904
 30
0.0
 11
6.1853577699436277
 21
5.010825602218806
 31
0.0
  0
LINE
  5
515
  8
LEG_-_STRUT
 10
6.236554772711691
 20
4.9749770749468674
 30
0.0
 11
6.3082518272555674
 21
5.0773710804829904
 31
0.0
  0
LINE
  5
516
  8
LEG_-_STRUT
 10
6.570663705968343
 20
4.6611638044620793
 30
0.0
 11
6.6326637059683398
 21
4.6611638044620793
 31
0.0
  0
LINE
  5
517
  8
LEG_-_STRUT
 10
6.5086637059683454
 20
4.7861638044620767
 30
0.0
 11
6.570663705968343
 21
4.7861638044620767
 31
0.0
  0
LINE
  5
518
  8
LEG_-_STRUT
 10
6.8806637059683453
 20
4.8966638044620767
 30
0.0
 11
6.9366637059683418
 21
4.9736638044620767
 31
0.0
  0
LINE
  5
519
  8
LEG_-_STRUT
 10
6.8186637059683397
 20
4.6611638044620793
 30
0.0
 11
6.8806637059683453
 21
4.6611638044620811
 31
0.0
  0
LINE
  5
51A
  8
LEG_-_STRUT
 10
6.7566637059683421
 20
4.7861638044620767
 30
0.0
 11
6.8186637059683397
 21
4.7861638044620767
 31
0.0
  0
LINE
  5
51B
  8
LEG_-_STRUT
 10
6.6946637059683454
 20
4.6611638044620793
 30
0.0
 11
6.7566637059683421
 21
4.6611638044620793
 31
0.0
  0
LINE
  5
51C
  8
LEG_-_STRUT
 10
6.6326637059683398
 20
4.0361638044620811
 30
0.0
 11
6.6946637059683454
 21
4.0361638044620811
 31
0.0
  0
LINE
  5
51D
  8
LEG_-_STRUT
 10
6.570663705968343
 20
4.1611638044620811
 30
0.0
 11
6.6326637059683398
 21
4.1611638044620793
 31
0.0
  0
LINE
  5
51E
  8
LEG_-_STRUT
 10
6.5086637059683454
 20
4.0361638044620811
 30
0.0
 11
6.570663705968343
 21
4.0361638044620811
 31
0.0
  0
LINE
  5
51F
  8
LEG_-_STRUT
 10
6.8186637059683397
 20
4.1611638044620793
 30
0.0
 11
6.8806637059683453
 21
4.1611638044620793
 31
0.0
  0
LINE
  5
520
  8
LEG_-_STRUT
 10
6.6946637059683454
 20
4.1611638044620793
 30
0.0
 11
6.7566637059683421
 21
4.1611638044620793
 31
0.0
  0
LINE
  5
521
  8
LEG_-_STRUT
 10
6.9366637059683418
 20
3.8486638044620771
 30
0.0
 11
6.8806637059683453
 21
3.9256638044620771
 31
0.0
  0
LINE
  5
522
  8
LEG_-_STRUT
 10
6.7566637059683421
 20
4.0361638044620811
 30
0.0
 11
6.8186637059683397
 21
4.0361638044620811
 31
0.0
  0
LINE
  5
523
  8
LEG_-_STRUT
 10
7.3936637059683434
 20
3.8486638044620771
 30
0.0
 11
7.3936637059683434
 21
4.9736638044620767
 31
0.0
  0
LINE
  5
524
  8
LEG_-_STRUT
 10
8.5976637059683441
 20
3.9736638044620749
 30
0.0
 11
8.5976637059683441
 21
4.8486638044620767
 31
0.0
  0
LINE
  5
525
  8
LEG_-_STRUT
 10
8.2856637059683464
 20
3.9736638044620749
 30
0.0
 11
8.2856637059683464
 21
4.8486638044620767
 31
0.0
  0
LINE
  5
526
  8
LEG_-_STRUT
 10
8.2236637059683417
 20
3.9736638044620749
 30
0.0
 11
8.2236637059683417
 21
4.8486638044620767
 31
0.0
  0
LINE
  5
527
  8
LEG_-_STRUT
 10
7.6616637059683441
 20
3.9736638044620749
 30
0.0
 11
7.6616637059683441
 21
4.8486638044620767
 31
0.0
  0
LINE
  5
528
  8
LEG_-_STRUT
 10
7.5056637059683453
 20
3.9256638044620811
 30
0.0
 11
7.5056637059683453
 21
4.8966638044620794
 31
0.0
  0
LINE
  5
529
  8
LEG_-_STRUT
 10
7.6616637059683441
 20
4.8486638044620767
 30
0.0
 11
8.2236637059683417
 21
4.8486638044620767
 31
0.0
  0
LINE
  5
52A
  8
LEG_-_STRUT
 10
7.5056637059683453
 20
4.8966638044620794
 30
0.0
 11
7.3936637059683434
 21
4.9736638044620767
 31
0.0
  0
LINE
  5
52B
  8
LEG_-_STRUT
 10
7.5056637059683453
 20
4.7861638044620767
 30
0.0
 11
7.6616637059683441
 21
4.7861638044620767
 31
0.0
  0
LINE
  5
52C
  8
LEG_-_STRUT
 10
8.2856637059683393
 20
4.8486638044620767
 30
0.0
 11
8.5976637059683441
 21
4.8486638044620749
 31
0.0
  0
LINE
  5
52D
  8
LEG_-_STRUT
 10
8.2236637059683417
 20
4.7861638044620767
 30
0.0
 11
8.2856637059683393
 21
4.7861638044620767
 31
0.0
  0
LINE
  5
52E
  8
LEG_-_STRUT
 10
7.6616637059683441
 20
3.9736638044620749
 30
0.0
 11
8.2236637059683417
 21
3.9736638044620749
 31
0.0
  0
LINE
  5
52F
  8
LEG_-_STRUT
 10
7.5056637059683453
 20
3.9256638044620789
 30
0.0
 11
7.3936637059683434
 21
3.8486638044620789
 31
0.0
  0
LINE
  5
530
  8
LEG_-_STRUT
 10
7.5056637059683453
 20
4.0361638044620767
 30
0.0
 11
7.6616637059683441
 21
4.0361638044620749
 31
0.0
  0
LINE
  5
531
  8
LEG_-_STRUT
 10
8.2856637059683393
 20
3.9736638044620749
 30
0.0
 11
8.5976637059683441
 21
3.9736638044620749
 31
0.0
  0
LINE
  5
532
  8
LEG_-_STRUT
 10
8.2236637059683417
 20
4.0361638044620749
 30
0.0
 11
8.2856637059683393
 21
4.0361638044620749
 31
0.0
  0
LINE
  5
533
  8
LEG_-_STRUT
 10
9.0476637059683451
 20
4.036163804462066
 30
0.0
 11
9.0476637059683398
 21
4.786163804462066
 31
0.0
  0
LINE
  5
534
  8
LEG_-_STRUT
 10
13.29766370596834
 20
4.0361638044620767
 30
0.0
 11
13.29766370596834
 21
4.7861638044620767
 31
0.0
  0
LINE
  5
551
  8
DIMENSIONS
 10
8.6289137059683441
 20
4.8486638044620767
 30
0.0
 11
8.8847224073476596
 21
4.8486638044620767
 31
0.0
  0
LINE
  5
552
  8
DIMENSIONS
 10
8.6289137059683441
 20
3.9736638044620749
 30
0.0
 11
8.8847224073476596
 21
3.9736638044620749
 31
0.0
  0
LINE
  5
553
  8
DIMENSIONS
 10
8.8534724073476596
 20
3.8174138044620749
 30
0.0
 11
8.8534724073476596
 21
3.676788804462074
 31
0.0
  0
LINE
  5
554
  8
DIMENSIONS
 10
8.8534724073476596
 20
5.0049138044620767
 30
0.0
 11
8.8534724073476596
 21
5.3087543516548301
 31
0.0
  0
SOLID
  5
555
  8
DIMENSIONS
 10
8.8274307406809882
 20
3.8174138044620749
 30
0.0
 11
8.879514074014331
 21
3.8174138044620749
 31
0.0
 12
8.8534724073476596
 22
3.9736638044620749
 32
0.0
 13
8.8534724073476596
 23
3.9736638044620749
 33
0.0
  0
SOLID
  5
556
  8
DIMENSIONS
 10
8.8274307406809882
 20
5.0049138044620767
 30
0.0
 11
8.879514074014331
 21
5.0049138044620767
 31
0.0
 12
8.8534724073476596
 22
4.8486638044620767
 32
0.0
 13
8.8534724073476596
 23
4.8486638044620767
 33
0.0
  0
LINE
  5
558
  8
DIMENSIONS
 10
8.1924137059683417
 20
4.7861638044620767
 30
0.0
 11
7.6929137059683441
 21
4.7861638044620767
 31
0.0
  0
LINE
  5
559
  8
DIMENSIONS
 10
8.1924137059683417
 20
4.0361638044620749
 30
0.0
 11
7.6929137059683441
 21
4.0361638044620749
 31
0.0
  0
LINE
  5
55A
  8
DIMENSIONS
 10
7.942663705968342
 20
3.8799138044620749
 30
0.0
 11
7.942663705968342
 21
3.7299739876495872
 31
0.0
  0
LINE
  5
55B
  8
DIMENSIONS
 10
7.942663705968342
 20
4.9424138044620767
 30
0.0
 11
7.942663705968342
 21
5.8087543516548301
 31
0.0
  0
SOLID
  5
55C
  8
DIMENSIONS
 10
7.9166220393016777
 20
3.8799138044620749
 30
0.0
 11
7.9687053726350143
 21
3.8799138044620749
 31
0.0
 12
7.942663705968342
 22
4.0361638044620749
 32
0.0
 13
7.942663705968342
 23
4.0361638044620749
 33
0.0
  0
SOLID
  5
55D
  8
DIMENSIONS
 10
7.9166220393016777
 20
4.9424138044620767
 30
0.0
 11
7.9687053726350143
 21
4.9424138044620767
 31
0.0
 12
7.942663705968342
 22
4.7861638044620767
 32
0.0
 13
7.942663705968342
 23
4.7861638044620767
 33
0.0
  0
TEXT
  5
55F
  8
DIMENSIONS
 10
9.0638918047254649
 20
5.2209312907040966
 30
0.0
 40
0.15625
  1
%%C0.875
  0
TEXT
  5
560
  8
DIMENSIONS
 10
8.1726925603489491
 20
5.7366923173704834
 30
0.0
 40
0.15625
  1
%%C0.750
  0
LINE
  5
567
  8
DIMENSIONS
 10
8.8534724073476596
 20
5.3087543516548301
 30
0.0
 11
9.0097224073476596
 21
5.3087543516548301
 31
0.0
1001
ACAD
1000
DSTYLE
1002
{
1070
   147
1040
0.0625
1070
    77
1070
     0
1002
}
  0
LINE
  5
568
  8
DIMENSIONS
 10
7.942663705968342
 20
5.8087543516548301
 30
0.0
 11
8.0989137059683411
 21
5.8087543516548301
 31
0.0
1001
ACAD
1000
DSTYLE
1002
{
1070
   147
1040
0.0625
1070
    77
1070
     0
1002
}
  0
LINE
  5
589
  8
DIMENSIONS
 10
7.6616637059683441
 20
3.9424138044620749
 30
0.0
 11
7.6616637059683441
 21
2.317413804462078
 31
0.0
  0
LINE
  5
58A
  8
DIMENSIONS
 10
8.2236637059683417
 20
3.9424138044620749
 30
0.0
 11
8.2236637059683417
 21
2.317413804462078
 31
0.0
  0
LINE
  5
58B
  8
DIMENSIONS
 10
7.5054137059683441
 20
2.348663804462078
 30
0.0
 11
7.3491637059683441
 21
2.348663804462078
 31
0.0
  0
LINE
  5
58C
  8
DIMENSIONS
 10
8.3799137059683417
 20
2.348663804462078
 30
0.0
 11
8.5361637059683417
 21
2.348663804462078
 31
0.0
  0
SOLID
  5
58D
  8
DIMENSIONS
 10
7.5054137059683441
 20
2.374705471128745
 30
0.0
 11
7.5054137059683441
 21
2.322622137795411
 31
0.0
 12
7.6616637059683441
 22
2.348663804462078
 32
0.0
 13
7.6616637059683441
 23
2.348663804462078
 33
0.0
  0
SOLID
  5
58E
  8
DIMENSIONS
 10
8.3799137059683417
 20
2.374705471128745
 30
0.0
 11
8.3799137059683417
 21
2.322622137795411
 31
0.0
 12
8.2236637059683417
 22
2.348663804462078
 32
0.0
 13
8.2236637059683417
 23
2.348663804462078
 33
0.0
  0
LINE
  5
590
  8
DIMENSIONS
 10
8.2856637059683464
 20
3.9424138044620749
 30
0.0
 11
8.2856637059683464
 21
3.3174138044620771
 31
0.0
  0
LINE
  5
591
  8
DIMENSIONS
 10
8.5976637059683441
 20
3.9424138044620749
 30
0.0
 11
8.5976637059683441
 21
3.3174138044620771
 31
0.0
  0
LINE
  5
592
  8
DIMENSIONS
 10
8.1294137059683464
 20
3.3486638044620771
 30
0.0
 11
7.9731637059683456
 21
3.3486638044620771
 31
0.0
  0
LINE
  5
593
  8
DIMENSIONS
 10
8.7539137059683441
 20
3.3486638044620771
 30
0.0
 11
8.9101637059683441
 21
3.3486638044620771
 31
0.0
  0
SOLID
  5
594
  8
DIMENSIONS
 10
8.1294137059683464
 20
3.3747054711287432
 30
0.0
 11
8.1294137059683464
 21
3.322622137795411
 31
0.0
 12
8.2856637059683464
 22
3.3486638044620771
 32
0.0
 13
8.2856637059683464
 23
3.3486638044620771
 33
0.0
  0
SOLID
  5
595
  8
DIMENSIONS
 10
8.7539137059683441
 20
3.3747054711287432
 30
0.0
 11
8.7539137059683441
 21
3.322622137795411
 31
0.0
 12
8.5976637059683441
 22
3.3486638044620771
 32
0.0
 13
8.5976637059683441
 23
3.3486638044620771
 33
0.0
  0
TEXT
  5
597
  8
DIMENSIONS
 10
8.5986637059683417
 20
2.270538804462078
 30
0.0
 40
0.15625
  1
0.562
  0
TEXT
  5
598
  8
DIMENSIONS
 10
8.9726637059683441
 20
3.2705388044620771
 30
0.0
 40
0.15625
  1
0.312
  0
TEXT
  5
5AE
  8
DIMENSIONS
 10
8.5011210615552582
 20
6.5734817836829356
 30
0.0
 40
0.15625
  1
%%C1.125
  0
LINE
  5
5AF
  8
DIMENSIONS
 10
8.2414913095928952
 20
6.659582176215725
 30
0.0
 11
8.3977413095928952
 21
6.659582176215725
 31
0.0
1001
ACAD
1000
DSTYLE
1002
{
1070
   147
1040
0.0625
1070
    77
1070
     0
1002
}
  0
LINE
  5
5DB
  8
DIMENSIONS
 10
6.3261760908915434
 20
10.884944152463589
 30
0.0
 11
6.8997525272425904
 21
10.0657921081746
 31
0.0
  0
LINE
  5
5DC
  8
DIMENSIONS
 10
5.7118120576747984
 20
10.454761825200301
 30
0.0
 11
6.2853884940258453
 21
9.6356097809113184
 31
0.0
  0
LINE
  5
5DD
  8
DIMENSIONS
 10
7.0098207705267788
 20
10.18101192773849
 30
0.0
 11
7.1378132774469298
 21
10.27063324591834
 31
0.0
  0
LINE
  5
5DE
  8
DIMENSIONS
 10
6.1394717234697254
 20
9.5715869641154967
 30
0.0
 11
6.0114792165495672
 21
9.4819656459356452
 31
0.0
  0
SOLID
  5
5E0
  8
DIMENSIONS
 10
6.9948838841634631
 20
10.202344012225179
 30
0.0
 11
7.0247576568900811
 21
10.159679843251791
 31
0.0
 12
6.8818282636066206
 22
10.09139060955863
 32
0.0
 13
6.8818282636066206
 23
10.09139060955863
 33
0.0
  0
SOLID
  5
5E1
  8
DIMENSIONS
 10
6.1245348371064159
 20
9.5929190486021891
 30
0.0
 11
6.1544086098330331
 21
9.5502548796288043
 31
0.0
 12
6.2674642303898764
 22
9.6612082822953482
 32
0.0
 13
6.2674642303898764
 23
9.6612082822953482
 33
0.0
  0
LINE
  5
5E3
  8
DIMENSIONS
 10
6.2032820335795966
 20
10.951489630727769
 30
0.0
 11
6.5617673062990027
 21
10.43951960304716
 31
0.0
  0
LINE
  5
5E4
  8
DIMENSIONS
 10
5.691312005898979
 20
10.59300435800837
 30
0.0
 11
6.0497972786183851
 21
10.08103433032775
 31
0.0
  0
LINE
  5
5E5
  8
DIMENSIONS
 10
6.6718355495831849
 20
10.554739422611039
 30
0.0
 11
6.7998280565033431
 21
10.644360740790891
 31
0.0
  0
LINE
  5
5E6
  8
DIMENSIONS
 10
5.9038805080622581
 20
10.01701151353193
 30
0.0
 11
5.7758880011421061
 21
9.927390195352082
 31
0.0
  0
LINE
  5
5E7
  8
DIMENSIONS
 10
6.9560780565033431
 20
10.644360740790891
 30
0.0
 11
6.7998280565033431
 21
10.644360740790891
 31
0.0
  0
SOLID
  5
5E8
  8
DIMENSIONS
 10
6.6568986632198843
 20
10.57607150709773
 30
0.0
 11
6.6867724359465006
 21
10.53340733812434
 31
0.0
 12
6.5438430426630338
 22
10.465118104431189
 32
0.0
 13
6.5438430426630338
 23
10.465118104431189
 33
0.0
  0
SOLID
  5
5E9
  8
DIMENSIONS
 10
5.8889436216989486
 20
10.038343598018621
 30
0.0
 11
5.9188173944255658
 21
9.9956794290452411
 31
0.0
 12
6.0318730149824162
 22
10.10663283171178
 32
0.0
 13
6.0318730149824162
 23
10.10663283171178
 33
0.0
  0
TEXT
  5
5EB
  8
DIMENSIONS
 10
6.2472034297022878
 20
9.8107731360710488
 30
0.0
 40
0.15625
  1
%%C0.750
  0
TEXT
  5
5EC
  8
DIMENSIONS
 10
7.0349023525637904
 20
10.566235740790891
 30
0.0
 40
0.15625
  1
%%C0.625
  0
LINE
  5
5EE
  8
LEG_-_STRUT
 10
5.622190739494946
 20
5.4051594022101543
 30
0.0
 11
5.6938877940388286
 21
5.5075534077462773
 31
0.0
  0
LINE
  5
613
  8
DIMENSIONS
 10
5.668289292654797
 20
10.46243606294837
 30
0.0
 11
4.2859702179171322
 21
9.4945258266059742
 31
0.0
  0
LINE
  5
614
  8
DIMENSIONS
 10
5.5965922381109152
 20
10.56483006848449
 30
0.0
 11
4.2142731633732486
 21
9.5969198321420972
 31
0.0
  0
LINE
  5
615
  8
DIMENSIONS
 10
4.4011900374810082
 20
9.3844575833217903
 30
0.0
 11
4.4908113556608589
 21
9.2564650764016356
 31
0.0
  0
LINE
  5
616
  8
DIMENSIONS
 10
4.1502503465774288
 20
9.7428366026982243
 30
0.0
 11
4.0606290283975781
 21
9.8708291096183771
 31
0.0
  0
LINE
  5
617
  8
DIMENSIONS
 10
4.0606290283975781
 20
9.8708291096183771
 30
0.0
 11
3.9043790283975781
 21
9.8708291096183771
 31
0.0
  0
SOLID
  5
618
  8
DIMENSIONS
 10
4.4225221219677016
 20
9.3993944696850988
 30
0.0
 11
4.3798579529943211
 21
9.3695206969584817
 31
0.0
 12
4.3115687193011558
 22
9.5124500902419449
 32
0.0
 13
4.3115687193011558
 23
9.5124500902419449
 33
0.0
  0
SOLID
  5
619
  8
DIMENSIONS
 10
4.1715824310641159
 20
9.7577734890615329
 30
0.0
 11
4.1289182620907354
 21
9.7278997163349157
 31
0.0
 12
4.2398716647572812
 22
9.6148440957780696
 32
0.0
 13
4.2398716647572812
 23
9.6148440957780696
 33
0.0
  0
LINE
  5
61B
  8
DIMENSIONS
 10
5.5877530589187003
 20
10.55864080858251
 30
0.0
 11
4.623849185517777
 21
9.88370805031761
 31
0.0
  0
LINE
  5
61C
  8
DIMENSIONS
 10
5.416695786682574
 20
10.514553241600391
 30
0.0
 11
4.5882874464640082
 21
9.9344954770635248
 31
0.0
  0
LINE
  5
61D
  8
DIMENSIONS
 10
4.7390690050816602
 20
9.7736398070334278
 30
0.0
 11
4.8286903232615108
 21
9.6456473001132732
 31
0.0
  0
LINE
  5
61E
  8
DIMENSIONS
 10
4.5242646296681812
 20
10.08041224761965
 30
0.0
 11
4.3479991417942037
 21
10.33214545278428
 31
0.0
  0
LINE
  5
61F
  8
DIMENSIONS
 10
4.3479991417942037
 20
10.33214545278428
 30
0.0
 11
4.1917491417942037
 21
10.33214545278428
 31
0.0
  0
SOLID
  5
620
  8
DIMENSIONS
 10
4.7604010895683544
 20
9.7885766933967382
 30
0.0
 11
4.7177369205949651
 21
9.7587029206701192
 31
0.0
 12
4.6494476869018007
 22
9.9016323139535807
 32
0.0
 13
4.6494476869018007
 23
9.9016323139535807
 33
0.0
  0
SOLID
  5
621
  8
DIMENSIONS
 10
4.5455967141548754
 20
10.09534913398296
 30
0.0
 11
4.502932545181487
 21
10.06547536125634
 31
0.0
 12
4.613885947848039
 22
9.9524197406994972
 32
0.0
 13
4.613885947848039
 23
9.9524197406994972
 33
0.0
  0
TEXT
  5
623
  8
DIMENSIONS
 10
3.2466409331594832
 20
9.7927041096183771
 30
0.0
 40
0.15625
  1
0.125
  0
TEXT
  5
624
  8
DIMENSIONS
 10
3.5042491417942041
 20
10.25402045278428
 30
0.0
 40
0.15625
  1
0.062
  0
LINE
  5
636
  8
DIMENSIONS
 10
6.070663705968343
 20
12.70174992986853
 30
0.0
 11
6.070663705968343
 21
13.235093956056501
 31
0.0
  0
LINE
  5
637
  8
DIMENSIONS
 10
5.4583708601636038
 20
12.451194737147031
 30
0.0
 11
5.1194766491834036
 21
12.93518582905484
 31
0.0
  0
ARC
  5
638
  8
DIMENSIONS
 10
6.070663705968343
 20
11.57674992986853
 30
0.0
 40
1.6270940261879669
 50
95.504235699461574
 51
99.305049903689095
  0
ARC
  5
639
  8
DIMENSIONS
 10
6.070663705968343
 20
11.57674992986853
 30
0.0
 40
1.6270940261879669
 50
116.0860684127004
 51
119.4957643005383
  0
SOLID
  5
63A
  8
DIMENSIONS
 10
5.9133435308755287
 20
13.222353235122499
 30
0.0
 11
5.915844314696975
 21
13.17032997406181
 31
0.0
 12
6.070663705968343
 22
13.203843956056501
 32
0.0
 13
6.070663705968343
 23
13.203843956056501
 33
0.0
  0
SOLID
  5
63B
  8
DIMENSIONS
 10
5.283444364035339
 20
12.97093503553106
 30
0.0
 11
5.2556535695284552
 21
13.0149843868519
 31
0.0
 12
5.1374009128193734
 22
12.90958732767081
 32
0.0
 13
5.1374009128193734
 23
12.90958732767081
 33
0.0
  0
TEXT
  5
63D
  8
DIMENSIONS
 10
5.4176966197643841
 20
13.05041208310517
 30
0.0
 40
0.15625
  1
35
  0
LINE
  5
65C
  8
DIMENSIONS
 10
4.8282115557859484
 20
8.284582176215725
 30
0.0
 11
3.828211555785948
 21
8.284582176215725
 31
0.0
  0
LINE
  5
65D
  8
DIMENSIONS
 10
4.8282115557859484
 20
7.159582176215725
 30
0.0
 11
3.828211555785948
 21
7.159582176215725
 31
0.0
  0
LINE
  5
65E
  8
DIMENSIONS
 10
3.859461555785948
 20
8.128332176215725
 30
0.0
 11
3.859461555785948
 21
7.862707176215725
 31
0.0
  0
LINE
  5
65F
  8
DIMENSIONS
 10
3.859461555785948
 20
7.315832176215725
 30
0.0
 11
3.859461555785948
 21
7.581457176215725
 31
0.0
  0
SOLID
  5
660
  8
DIMENSIONS
 10
3.8334198891192841
 20
8.128332176215725
 30
0.0
 11
3.8855032224526189
 21
8.128332176215725
 31
0.0
 12
3.859461555785948
 22
8.284582176215725
 32
0.0
 13
3.859461555785948
 23
8.284582176215725
 33
0.0
  0
SOLID
  5
661
  8
DIMENSIONS
 10
3.8334198891192841
 20
7.315832176215725
 30
0.0
 11
3.8855032224526189
 21
7.315832176215725
 31
0.0
 12
3.859461555785948
 22
7.159582176215725
 32
0.0
 13
3.859461555785948
 23
7.159582176215725
 33
0.0
  0
LINE
  5
663
  8
DIMENSIONS
 10
4.5926602694035381
 20
7.722082176215725
 30
0.0
 11
4.3282115557859484
 21
7.722082176215725
 31
0.0
  0
LINE
  5
664
  8
DIMENSIONS
 10
4.8282115557859484
 20
8.284582176215725
 30
0.0
 11
4.3282115557859484
 21
8.284582176215725
 31
0.0
  0
LINE
  5
665
  8
DIMENSIONS
 10
4.3594615557859484
 20
7.565832176215725
 30
0.0
 11
4.3594615557859484
 21
7.409582176215725
 31
0.0
  0
LINE
  5
666
  8
DIMENSIONS
 10
4.3594615557859484
 20
8.440832176215725
 30
0.0
 11
4.3594615557859484
 21
8.597082176215725
 31
0.0
  0
SOLID
  5
667
  8
DIMENSIONS
 10
4.3334198891192841
 20
7.565832176215725
 30
0.0
 11
4.3855032224526189
 21
7.565832176215725
 31
0.0
 12
4.3594615557859484
 22
7.722082176215725
 32
0.0
 13
4.3594615557859484
 23
7.722082176215725
 33
0.0
  0
SOLID
  5
668
  8
DIMENSIONS
 10
4.3334198891192841
 20
8.440832176215725
 30
0.0
 11
4.3855032224526189
 21
8.440832176215725
 31
0.0
 12
4.3594615557859484
 22
8.284582176215725
 32
0.0
 13
4.3594615557859484
 23
8.284582176215725
 33
0.0
  0
TEXT
  5
66A
  8
DIMENSIONS
 10
4.0469615557859484
 20
7.925207176215725
 30
0.0
 40
0.15625
  1
0.562
  0
TEXT
  5
66B
  8
DIMENSIONS
 10
3.5767234605478531
 20
7.643957176215725
 30
0.0
 40
0.15625
  1
1.125
  0
LINE
  5
683
  8
LEG_-_STRUT
  6
CENTER
 10
5.852716107948047
 20
4.4111638044620767
 30
0.0
 11
13.54766370596834
 21
4.4111638044620767
 31
0.0
  0
SOLID
  5
685
  8
DIMENSIONS
 10
6.6376220393016752
 20
4.9424138044620767
 30
0.0
 11
6.68970537263501
 21
4.9424138044620767
 31
0.0
 12
6.6636637059683386
 22
4.7861638044620767
 32
0.0
 13
6.6636637059683386
 23
4.7861638044620767
 33
0.0
  0
LINE
  5
686
  8
DIMENSIONS
 10
6.6636637059683386
 20
4.9424138044620767
 30
0.0
 11
6.6636637059683386
 21
5.1186652337067171
 31
0.0
  0
SOLID
  5
687
  8
DIMENSIONS
 10
6.6376220393016752
 20
3.8799138044620811
 30
0.0
 11
6.68970537263501
 21
3.8799138044620811
 31
0.0
 12
6.6636637059683386
 22
4.0361638044620811
 32
0.0
 13
6.6636637059683386
 23
4.0361638044620811
 33
0.0
  0
LINE
  5
688
  8
DIMENSIONS
 10
6.6636637059683386
 20
3.8799138044620811
 30
0.0
 11
6.6636637059683386
 21
3.3486638044620771
 31
0.0
  0
TEXT
  5
689
  8
DIMENSIONS
 10
5.6773913265457798
 20
3.2766017701777299
 30
0.0
 40
0.15625
  1
%%C0.750
  0
LINE
  5
68A
  8
DIMENSIONS
 10
6.5074137059683386
 20
3.3486638044620771
 30
0.0
 11
6.6636637059683386
 21
3.3486638044620771
 31
0.0
1001
ACAD
1000
DSTYLE
1002
{
1070
   147
1040
0.0625
1070
    77
1070
     0
1002
}
  0
LINE
  5
69A
  8
DIMENSIONS
 10
6.2144655905207742
 20
4.6611638044620793
 30
0.0
 11
4.3282115557859484
 21
4.6611638044620802
 31
0.0
  0
LINE
  5
69B
  8
DIMENSIONS
 10
5.8643618214159181
 20
4.1611638044620811
 30
0.0
 11
4.3282115557859484
 21
4.1611638044620811
 31
0.0
  0
LINE
  5
69C
  8
DIMENSIONS
 10
4.3594615557859484
 20
4.8174138044620802
 30
0.0
 11
4.3594615557859484
 21
4.9736638044620802
 31
0.0
  0
LINE
  5
69D
  8
DIMENSIONS
 10
4.3594615557859484
 20
4.0049138044620811
 30
0.0
 11
4.3594615557859484
 21
3.8486638044620811
 31
0.0
  0
SOLID
  5
69E
  8
DIMENSIONS
 10
4.3334198891192841
 20
4.8174138044620802
 30
0.0
 11
4.3855032224526189
 21
4.8174138044620802
 31
0.0
 12
4.3594615557859484
 22
4.6611638044620802
 32
0.0
 13
4.3594615557859484
 23
4.6611638044620802
 33
0.0
  0
SOLID
  5
69F
  8
DIMENSIONS
 10
4.3334198891192841
 20
4.0049138044620811
 30
0.0
 11
4.3855032224526189
 21
4.0049138044620811
 31
0.0
 12
4.3594615557859484
 22
4.1611638044620811
 32
0.0
 13
4.3594615557859484
 23
4.1611638044620811
 33
0.0
  0
TEXT
  5
6A1
  8
DIMENSIONS
 10
3.958482965969274
 20
4.3330388044620811
 30
0.0
 40
0.15625
  1
%%C0.500
  0
LINE
  5
6BB
  8
DIMENSIONS
 10
13.29766370596834
 20
11.98299992986853
 30
0.0
 11
13.29766370596834
 21
13.235093956056501
 31
0.0
  0
LINE
  5
6BC
  8
DIMENSIONS
 10
6.070663705968343
 20
11.639249929868541
 30
0.0
 11
6.070663705968343
 21
13.235093956056501
 31
0.0
  0
LINE
  5
6BD
  8
DIMENSIONS
 10
13.14141370596834
 20
13.203843956056501
 30
0.0
 11
10.05916370596834
 21
13.203843956056501
 31
0.0
  0
LINE
  5
6BE
  8
DIMENSIONS
 10
6.226913705968343
 20
13.203843956056501
 30
0.0
 11
9.3091637059683432
 21
13.203843956056501
 31
0.0
  0
SOLID
  5
6BF
  8
DIMENSIONS
 10
13.14141370596834
 20
13.22988562272316
 30
0.0
 11
13.14141370596834
 21
13.177802289389829
 31
0.0
 12
13.29766370596834
 22
13.203843956056501
 32
0.0
 13
13.29766370596834
 23
13.203843956056501
 33
0.0
  0
SOLID
  5
6C0
  8
DIMENSIONS
 10
6.226913705968343
 20
13.22988562272316
 30
0.0
 11
6.226913705968343
 21
13.177802289389829
 31
0.0
 12
6.070663705968343
 22
13.203843956056501
 32
0.0
 13
6.070663705968343
 23
13.203843956056501
 33
0.0
  0
TEXT
  5
6C2
  8
DIMENSIONS
 10
9.3716637059683432
 20
13.125718956056501
 30
0.0
 40
0.15625
  1
7.227
  0
LINE
  5
6D2
  8
DIMENSIONS
 10
13.29766370596834
 20
11.982999929868541
 30
0.0
 11
13.29766370596834
 21
12.67049992986853
 31
0.0
  0
LINE
  5
6D3
  8
DIMENSIONS
 10
9.0476637059683451
 20
11.98299992986853
 30
0.0
 11
9.0476637059683451
 21
12.67049992986853
 31
0.0
  0
LINE
  5
6D4
  8
DIMENSIONS
 10
13.14141370596834
 20
12.639249929868541
 30
0.0
 11
11.54766370596834
 21
12.639249929868541
 31
0.0
  0
LINE
  5
6D5
  8
DIMENSIONS
 10
9.2039137059683451
 20
12.639249929868541
 30
0.0
 11
10.79766370596835
 21
12.639249929868541
 31
0.0
  0
SOLID
  5
6D6
  8
DIMENSIONS
 10
13.14141370596834
 20
12.6652915965352
 30
0.0
 11
13.14141370596834
 21
12.613208263201869
 31
0.0
 12
13.29766370596834
 22
12.639249929868541
 32
0.0
 13
13.29766370596834
 23
12.639249929868541
 33
0.0
  0
SOLID
  5
6D7
  8
DIMENSIONS
 10
9.2039137059683451
 20
12.6652915965352
 30
0.0
 11
9.2039137059683451
 21
12.613208263201869
 31
0.0
 12
9.0476637059683451
 22
12.639249929868541
 32
0.0
 13
9.0476637059683451
 23
12.639249929868541
 33
0.0
  0
TEXT
  5
6D9
  8
DIMENSIONS
 10
10.86016370596834
 20
12.561124929868541
 30
0.0
 40
0.15625
  1
4.250
  0
LINE
  5
6E8
  8
DIMENSIONS
 10
5.7630833419750971
 20
12.016020213618511
 30
0.0
 11
5.1194766491834036
 21
12.93518582905484
 31
0.0
  0
LINE
  5
6E9
  8
DIMENSIONS
 10
4.8415372921499786
 20
11.370746722723579
 30
0.0
 11
4.1979305993582861
 21
12.28991233815991
 31
0.0
  0
LINE
  5
6EA
  8
DIMENSIONS
 10
5.0094084058992152
 20
12.81996600949096
 30
0.0
 11
4.877461201354925
 21
12.72757558222335
 31
0.0
  0
LINE
  5
6EB
  8
DIMENSIONS
 10
4.343847369914414
 20
12.35393515495573
 30
0.0
 11
4.4757945744587104
 21
12.44632558222335
 31
0.0
  0
SOLID
  5
6EC
  8
DIMENSIONS
 10
4.9944715195359128
 20
12.841298093977651
 30
0.0
 11
5.0243452922625229
 21
12.798633925004269
 31
0.0
 12
5.1374009128193734
 22
12.90958732767081
 32
0.0
 13
5.1374009128193734
 23
12.90958732767081
 33
0.0
  0
SOLID
  5
6ED
  8
DIMENSIONS
 10
4.3289104835511054
 20
12.375267239442421
 30
0.0
 11
4.3587842562777217
 21
12.332603070469039
 31
0.0
 12
4.2158548629942549
 22
12.26431383677588
 32
0.0
 13
4.2158548629942549
 23
12.26431383677588
 33
0.0
  0
TEXT
  5
6EF
  8
DIMENSIONS
 10
4.3938897926687233
 20
12.50882558222335
 30
0.0
 40
0.15625
  1
1.125
  0
LINE
  5
6FF
  8
LEG_-_STRUT
  6
CENTER
 10
6.0508048218308303
 20
10.62442253312879
 30
0.0
 11
5.2783732388241944
 21
11.727569158744361
 31
0.0
  0
LINE
  5
700
  8
DIMENSIONS
 10
4.8415372921499786
 20
11.370746722723579
 30
0.0
 11
4.5097557167977413
 21
11.84457991823664
 31
0.0
  0
LINE
  5
701
  8
DIMENSIONS
 10
5.1164455122664227
 20
12.231239480479919
 30
0.0
 11
5.2444380191865738
 21
12.320860798659769
 31
0.0
  0
LINE
  5
702
  8
DIMENSIONS
 10
4.399687473513552
 20
11.72936009867275
 30
0.0
 11
4.2716949665934001
 21
11.6397387804929
 31
0.0
  0
LINE
  5
703
  8
DIMENSIONS
 10
4.2716949665934001
 20
11.6397387804929
 30
0.0
 11
4.1154449665934001
 21
11.6397387804929
 31
0.0
  0
SOLID
  5
704
  8
DIMENSIONS
 10
5.101508625903115
 20
12.252571564966621
 30
0.0
 11
5.1313823986297322
 21
12.20990739599323
 31
0.0
 12
4.9884530053462646
 22
12.14161816230007
 32
0.0
 13
4.9884530053462646
 23
12.14161816230007
 33
0.0
  0
SOLID
  5
705
  8
DIMENSIONS
 10
4.3847505871502426
 20
11.750692183159449
 30
0.0
 11
4.4146243598768597
 21
11.708028014186061
 31
0.0
 12
4.5276799804337102
 22
11.81898141685261
 32
0.0
 13
4.5276799804337102
 23
11.81898141685261
 33
0.0
  0
TEXT
  5
707
  8
DIMENSIONS
 10
3.4279449665934001
 20
11.5616137804929
 30
0.0
 40
0.15625
  1
0.562
  0
LINE
  5
709
  8
DIMENSIONS
 10
5.2401009578718813
 20
11.78222764049988
 30
0.0
 11
4.9705287417102957
 21
12.167216663684099
 31
0.0
  0
LINE
  5
71C
  8
DIMENSIONS
 10
8.2236637059683417
 20
3.9424138044620749
 30
0.0
 11
8.2236637059683417
 21
2.8174138044620771
 31
0.0
  0
LINE
  5
71D
  8
DIMENSIONS
 10
8.2856637059683393
 20
3.9424138044620749
 30
0.0
 11
8.2856637059683393
 21
2.8174138044620771
 31
0.0
  0
LINE
  5
71E
  8
DIMENSIONS
 10
8.0674137059683417
 20
2.8486638044620771
 30
0.0
 11
7.9111637059683408
 21
2.8486638044620771
 31
0.0
  0
LINE
  5
71F
  8
DIMENSIONS
 10
8.4419137059683393
 20
2.8486638044620771
 30
0.0
 11
8.5981637059683393
 21
2.8486638044620771
 31
0.0
  0
SOLID
  5
720
  8
DIMENSIONS
 10
8.0674137059683417
 20
2.8747054711287441
 30
0.0
 11
8.0674137059683417
 21
2.8226221377954102
 31
0.0
 12
8.2236637059683417
 22
2.8486638044620771
 32
0.0
 13
8.2236637059683417
 23
2.8486638044620771
 33
0.0
  0
SOLID
  5
721
  8
DIMENSIONS
 10
8.4419137059683393
 20
2.8747054711287441
 30
0.0
 11
8.4419137059683393
 21
2.8226221377954102
 31
0.0
 12
8.2856637059683393
 22
2.8486638044620771
 32
0.0
 13
8.2856637059683393
 23
2.8486638044620771
 33
0.0
  0
TEXT
  5
723
  8
DIMENSIONS
 10
8.6606637059683393
 20
2.7705388044620771
 30
0.0
 40
0.15625
  1
0.062
  0
LINE
  5
737
  8
DIMENSIONS
 10
7.4249137059683434
 20
8.284582176215725
 30
0.0
 11
8.2727413095928952
 21
8.284582176215725
 31
0.0
  0
LINE
  5
738
  8
DIMENSIONS
 10
7.4249137059683434
 20
7.159582176215725
 30
0.0
 11
8.2727413095928952
 21
7.159582176215725
 31
0.0
  0
LINE
  5
739
  8
DIMENSIONS
 10
8.2414913095928952
 20
7.003332176215725
 30
0.0
 11
8.2414913095928952
 21
6.659582176215725
 31
0.0
  0
LINE
  5
73A
  8
DIMENSIONS
 10
8.2414913095928952
 20
8.440832176215725
 30
0.0
 11
8.2414913095928952
 21
8.5551905123593635
 31
0.0
  0
SOLID
  5
73B
  8
DIMENSIONS
 10
8.2154496429262238
 20
7.003332176215725
 30
0.0
 11
8.2675329762595595
 21
7.003332176215725
 31
0.0
 12
8.2414913095928952
 22
7.159582176215725
 32
0.0
 13
8.2414913095928952
 23
7.159582176215725
 33
0.0
  0
SOLID
  5
73C
  8
DIMENSIONS
 10
8.2154496429262291
 20
8.440832176215725
 30
0.0
 11
8.2675329762595666
 21
8.440832176215725
 31
0.0
 12
8.2414913095928952
 22
8.284582176215725
 32
0.0
 13
8.2414913095928952
 23
8.284582176215725
 33
0.0
  0
LINE
  5
753
  8
DIMENSIONS
 10
6.8186637059683397
 20
4.8174138044620767
 30
0.0
 11
6.8186637059683397
 21
5.8400043516548301
 31
0.0
  0
LINE
  5
754
  8
DIMENSIONS
 10
6.7566637059683421
 20
4.8174138044620767
 30
0.0
 11
6.7566637059683421
 21
5.8400043516548301
 31
0.0
  0
LINE
  5
755
  8
DIMENSIONS
 10
6.9749137059683397
 20
5.8087543516548301
 30
0.0
 11
7.1311637059683397
 21
5.8087543516548301
 31
0.0
  0
LINE
  5
756
  8
DIMENSIONS
 10
6.6004137059683421
 20
5.8087543516548301
 30
0.0
 11
6.4441637059683421
 21
5.8087543516548301
 31
0.0
  0
SOLID
  5
757
  8
DIMENSIONS
 10
6.9749137059683397
 20
5.8347960183214971
 30
0.0
 11
6.9749137059683397
 21
5.782712684988164
 31
0.0
 12
6.8186637059683397
 22
5.8087543516548301
 32
0.0
 13
6.8186637059683397
 23
5.8087543516548301
 33
0.0
  0
SOLID
  5
758
  8
DIMENSIONS
 10
6.6004137059683421
 20
5.8347960183214971
 30
0.0
 11
6.6004137059683421
 21
5.782712684988164
 31
0.0
 12
6.7566637059683421
 22
5.8087543516548301
 32
0.0
 13
6.7566637059683421
 23
5.8087543516548301
 33
0.0
  0
TEXT
  5
75A
  8
DIMENSIONS
 10
5.3744683732607612
 20
5.7306293516548301
 30
0.0
 40
0.15625
  1
0.062,3X
  0
LINE
  5
763
  8
LEG_-_STRUT
 10
15.269360301212521
 20
8.284582176215725
 30
0.0
 11
16.733785836396439
 21
8.2845821762157232
 31
0.0
  0
LINE
  5
764
  8
LEG_-_STRUT
 10
15.269360301212521
 20
7.159582176215725
 30
0.0
 11
16.733785836396439
 21
7.159582176215725
 31
0.0
  0
CIRCLE
  5
767
  8
LEG_-_STRUT
 10
16.320114054030491
 20
7.722082176215725
 30
0.0
 40
0.375
  0
CIRCLE
  5
768
  8
LEG_-_STRUT
 10
16.320114054030491
 20
7.722082176215725
 30
0.0
 40
0.4375
  0
CIRCLE
  5
769
  8
LEG_-_STRUT
 10
16.320114054030491
 20
7.722082176215725
 30
0.0
 40
0.5625
  0
LINE
  5
76F
  8
LEG_-_STRUT
 10
15.269360301212521
 20
8.284582176215725
 30
0.0
 11
15.269360301212521
 21
7.9530418679507191
 31
0.0
  0
LINE
  5
770
  8
LEG_-_STRUT
 10
16.733785836396439
 20
8.284582176215725
 30
0.0
 11
16.733785836396439
 21
8.1032408131035503
 31
0.0
  0
LINE
  5
771
  8
LEG_-_STRUT
 10
15.914633792107461
 20
8.284582176215725
 30
0.0
 11
15.914633792107461
 21
8.1119436993118335
 31
0.0
  0
LINE
  5
772
  8
LEG_-_STRUT
 10
16.733785836396439
 20
7.3409235393279033
 30
0.0
 11
16.733785836396439
 21
7.159582176215725
 31
0.0
  0
LINE
  5
773
  8
LEG_-_STRUT
 10
15.914633792107461
 20
7.3322206531196157
 30
0.0
 11
15.914633792107461
 21
7.159582176215725
 31
0.0
  0
POLYLINE
  5
77D
  8
LEG_-_STRUT
 10
15.438815614377949
 20
8.097082176215725
 30
0.0
 66
     1
 70
     8
  0
VERTEX
  8
LEG_-_STRUT
  5
FC2
 10
15.4388
 20
8.09708
 30
0.000000
  70
    32
  0
VERTEX
  8
LEG_-_STRUT
  5
FC3
 10
15.4283
 20
8.09663
 30
0.000000
  70
    32
  0
VERTEX
  8
LEG_-_STRUT
  5
FC4
 10
15.4177
 20
8.09528
 30
0.000000
  70
    32
  0
VERTEX
  8
LEG_-_STRUT
  5
FC5
 10
15.4073
 20
8.09302
 30
0.000000
  70
    32
  0
VERTEX
  8
LEG_-_STRUT
  5
FC6
 10
15.3969
 20
8.08988
 30
0.000000
  70
    32
  0
VERTEX
  8
LEG_-_STRUT
  5
FC7
 10
15.3866
 20
8.08584
 30
0.000000
  70
    32
  0
VERTEX
  8
LEG_-_STRUT
  5
FC8
 10
15.3764
 20
8.08093
 30
0.000000
  70
    32
  0
VERTEX
  8
LEG_-_STRUT
  5
FC9
 10
15.3664
 20
8.07516
 30
0.000000
  70
    32
  0
VERTEX
  8
LEG_-_STRUT
  5
FCA
 10
15.3565
 20
8.06854
 30
0.000000
  70
    32
  0
VERTEX
  8
LEG_-_STRUT
  5
FCB
 10
15.3469
 20
8.06108
 30
0.000000
  70
    32
  0
VERTEX
  8
LEG_-_STRUT
  5
FCC
 10
15.3374
 20
8.05280
 30
0.000000
  70
    32
  0
VERTEX
  8
LEG_-_STRUT
  5
FCD
 10
15.3282
 20
8.04373
 30
0.000000
  70
    32
  0
VERTEX
  8
LEG_-_STRUT
  5
FCE
 10
15.3193
 20
8.03388
 30
0.000000
  70
    32
  0
VERTEX
  8
LEG_-_STRUT
  5
FCF
 10
15.3107
 20
8.02329
 30
0.000000
  70
    32
  0
VERTEX
  8
LEG_-_STRUT
  5
FD0
 10
15.3024
 20
8.01196
 30
0.000000
  70
    32
  0
VERTEX
  8
LEG_-_STRUT
  5
FD1
 10
15.2944
 20
7.99994
 30
0.000000
  70
    32
  0
VERTEX
  8
LEG_-_STRUT
  5
FD2
 10
15.2867
 20
7.98725
 30
0.000000
  70
    32
  0
VERTEX
  8
LEG_-_STRUT
  5
FD3
 10
15.2794
 20
7.97392
 30
0.000000
  70
    32
  0
VERTEX
  8
LEG_-_STRUT
  5
FD4
 10
15.2725
 20
7.95998
 30
0.000000
  70
    32
  0
VERTEX
  8
LEG_-_STRUT
  5
FD5
 10
15.2661
 20
7.94547
 30
0.000000
  70
    32
  0
VERTEX
  8
LEG_-_STRUT
  5
FD6
 10
15.2600
 20
7.93042
 30
0.000000
  70
    32
  0
VERTEX
  8
LEG_-_STRUT
  5
FD7
 10
15.2543
 20
7.91487
 30
0.000000
  70
    32
  0
VERTEX
  8
LEG_-_STRUT
  5
FD8
 10
15.2491
 20
7.89886
 30
0.000000
  70
    32
  0
VERTEX
  8
LEG_-_STRUT
  5
FD9
 10
15.2444
 20
7.88242
 30
0.000000
  70
    32
  0
VERTEX
  8
LEG_-_STRUT
  5
FDA
 10
15.2401
 20
7.86559
 30
0.000000
  70
    32
  0
VERTEX
  8
LEG_-_STRUT
  5
FDB
 10
15.2363
 20
7.84842
 30
0.000000
  70
    32
  0
VERTEX
  8
LEG_-_STRUT
  5
FDC
 10
15.2330
 20
7.83094
 30
0.000000
  70
    32
  0
VERTEX
  8
LEG_-_STRUT
  5
FDD
 10
15.2302
 20
7.81320
 30
0.000000
  70
    32
  0
VERTEX
  8
LEG_-_STRUT
  5
FDE
 10
15.2279
 20
7.79524
 30
0.000000
  70
    32
  0
VERTEX
  8
LEG_-_STRUT
  5
FDF
 10
15.2261
 20
7.77711
 30
0.000000
  70
    32
  0
VERTEX
  8
LEG_-_STRUT
  5
FE0
 10
15.2248
 20
7.75884
 30
0.000000
  70
    32
  0
VERTEX
  8
LEG_-_STRUT
  5
FE1
 10
15.2240
 20
7.74048
 30
0.000000
  70
    32
  0
VERTEX
  8
LEG_-_STRUT
  5
FE2
 10
15.2237
 20
7.72208
 30
0.000000
  70
    32
  0
VERTEX
  8
LEG_-_STRUT
  5
FE3
 10
15.2240
 20
7.70368
 30
0.000000
  70
    32
  0
VERTEX
  8
LEG_-_STRUT
  5
FE4
 10
15.2248
 20
7.68533
 30
0.000000
  70
    32
  0
VERTEX
  8
LEG_-_STRUT
  5
FE5
 10
15.2261
 20
7.66706
 30
0.000000
  70
    32
  0
VERTEX
  8
LEG_-_STRUT
  5
FE6
 10
15.2279
 20
7.64892
 30
0.000000
  70
    32
  0
VERTEX
  8
LEG_-_STRUT
  5
FE7
 10
15.2302
 20
7.63096
 30
0.000000
  70
    32
  0
VERTEX
  8
LEG_-_STRUT
  5
FE8
 10
15.2330
 20
7.61323
 30
0.000000
  70
    32
  0
VERTEX
  8
LEG_-_STRUT
  5
FE9
 10
15.2363
 20
7.59575
 30
0.000000
  70
    32
  0
VERTEX
  8
LEG_-_STRUT
  5
FEA
 10
15.2401
 20
7.57858
 30
0.000000
  70
    32
  0
VERTEX
  8
LEG_-_STRUT
  5
FEB
 10
15.2444
 20
7.56175
 30
0.000000
  70
    32
  0
VERTEX
  8
LEG_-_STRUT
  5
FEC
 10
15.2491
 20
7.54531
 30
0.000000
  70
    32
  0
VERTEX
  8
LEG_-_STRUT
  5
FED
 10
15.2543
 20
7.52929
 30
0.000000
  70
    32
  0
VERTEX
  8
LEG_-_STRUT
  5
FEE
 10
15.2600
 20
7.51374
 30
0.000000
  70
    32
  0
VERTEX
  8
LEG_-_STRUT
  5
FEF
 10
15.2661
 20
7.49869
 30
0.000000
  70
    32
  0
VERTEX
  8
LEG_-_STRUT
  5
FF0
 10
15.2725
 20
7.48418
 30
0.000000
  70
    32
  0
VERTEX
  8
LEG_-_STRUT
  5
FF1
 10
15.2794
 20
7.47025
 30
0.000000
  70
    32
  0
VERTEX
  8
LEG_-_STRUT
  5
FF2
 10
15.2867
 20
7.45692
 30
0.000000
  70
    32
  0
VERTEX
  8
LEG_-_STRUT
  5
FF3
 10
15.2944
 20
7.44423
 30
0.000000
  70
    32
  0
VERTEX
  8
LEG_-_STRUT
  5
FF4
 10
15.3024
 20
7.43220
 30
0.000000
  70
    32
  0
VERTEX
  8
LEG_-_STRUT
  5
FF5
 10
15.3107
 20
7.42088
 30
0.000000
  70
    32
  0
VERTEX
  8
LEG_-_STRUT
  5
FF6
 10
15.3193
 20
7.41028
 30
0.000000
  70
    32
  0
VERTEX
  8
LEG_-_STRUT
  5
FF7
 10
15.3282
 20
7.40043
 30
0.000000
  70
    32
  0
VERTEX
  8
LEG_-_STRUT
  5
FF8
 10
15.3374
 20
7.39136
 30
0.000000
  70
    32
  0
VERTEX
  8
LEG_-_STRUT
  5
FF9
 10
15.3469
 20
7.38309
 30
0.000000
  70
    32
  0
VERTEX
  8
LEG_-_STRUT
  5
FFA
 10
15.3565
 20
7.37563
 30
0.000000
  70
    32
  0
VERTEX
  8
LEG_-_STRUT
  5
FFB
 10
15.3664
 20
7.36900
 30
0.000000
  70
    32
  0
VERTEX
  8
LEG_-_STRUT
  5
FFC
 10
15.3764
 20
7.36323
 30
0.000000
  70
    32
  0
VERTEX
  8
LEG_-_STRUT
  5
FFD
 10
15.3866
 20
7.35832
 30
0.000000
  70
    32
  0
VERTEX
  8
LEG_-_STRUT
  5
FFE
 10
15.3969
 20
7.35429
 30
0.000000
  70
    32
  0
VERTEX
  8
LEG_-_STRUT
  5
FFF
 10
15.4073
 20
7.35114
 30
0.000000
  70
    32
  0
VERTEX
  8
LEG_-_STRUT
  5
1000
 10
15.4177
 20
7.34889
 30
0.000000
  70
    32
  0
VERTEX
  8
LEG_-_STRUT
  5
1001
 10
15.4283
 20
7.34753
 30
0.000000
  70
    32
  0
VERTEX
  8
LEG_-_STRUT
  5
1002
 10
15.4388
 20
7.34708
 30
0.000000
  70
    32
  0
VERTEX
  8
LEG_-_STRUT
  5
1003
 10
15.4494
 20
7.34753
 30
0.000000
  70
    32
  0
VERTEX
  8
LEG_-_STRUT
  5
1004
 10
15.4599
 20
7.34889
 30
0.000000
  70
    32
  0
VERTEX
  8
LEG_-_STRUT
  5
1005
 10
15.4704
 20
7.35114
 30
0.000000
  70
    32
  0
VERTEX
  8
LEG_-_STRUT
  5
1006
 10
15.4808
 20
7.35429
 30
0.000000
  70
    32
  0
VERTEX
  8
LEG_-_STRUT
  5
1007
 10
15.4911
 20
7.35832
 30
0.000000
  70
    32
  0
VERTEX
  8
LEG_-_STRUT
  5
1008
 10
15.5013
 20
7.36323
 30
0.000000
  70
    32
  0
VERTEX
  8
LEG_-_STRUT
  5
1009
 10
15.5113
 20
7.36900
 30
0.000000
  70
    32
  0
VERTEX
  8
LEG_-_STRUT
  5
100A
 10
15.5211
 20
7.37563
 30
0.000000
  70
    32
  0
VERTEX
  8
LEG_-_STRUT
  5
100B
 10
15.5308
 20
7.38309
 30
0.000000
  70
    32
  0
VERTEX
  8
LEG_-_STRUT
  5
100C
 10
15.5402
 20
7.39136
 30
0.000000
  70
    32
  0
VERTEX
  8
LEG_-_STRUT
  5
100D
 10
15.5494
 20
7.40043
 30
0.000000
  70
    32
  0
VERTEX
  8
LEG_-_STRUT
  5
100E
 10
15.5583
 20
7.41028
 30
0.000000
  70
    32
  0
VERTEX
  8
LEG_-_STRUT
  5
100F
 10
15.5669
 20
7.42088
 30
0.000000
  70
    32
  0
VERTEX
  8
LEG_-_STRUT
  5
1010
 10
15.5753
 20
7.43220
 30
0.000000
  70
    32
  0
VERTEX
  8
LEG_-_STRUT
  5
1011
 10
15.5833
 20
7.44423
 30
0.000000
  70
    32
  0
VERTEX
  8
LEG_-_STRUT
  5
1012
 10
15.5909
 20
7.45692
 30
0.000000
  70
    32
  0
VERTEX
  8
LEG_-_STRUT
  5
1013
 10
15.5982
 20
7.47025
 30
0.000000
  70
    32
  0
VERTEX
  8
LEG_-_STRUT
  5
1014
 10
15.6051
 20
7.48418
 30
0.000000
  70
    32
  0
VERTEX
  8
LEG_-_STRUT
  5
1015
 10
15.6116
 20
7.49869
 30
0.000000
  70
    32
  0
VERTEX
  8
LEG_-_STRUT
  5
1016
 10
15.6177
 20
7.51374
 30
0.000000
  70
    32
  0
VERTEX
  8
LEG_-_STRUT
  5
1017
 10
15.6233
 20
7.52929
 30
0.000000
  70
    32
  0
VERTEX
  8
LEG_-_STRUT
  5
1018
 10
15.6285
 20
7.54531
 30
0.000000
  70
    32
  0
VERTEX
  8
LEG_-_STRUT
  5
1019
 10
15.6333
 20
7.56175
 30
0.000000
  70
    32
  0
VERTEX
  8
LEG_-_STRUT
  5
101A
 10
15.6375
 20
7.57858
 30
0.000000
  70
    32
  0
VERTEX
  8
LEG_-_STRUT
  5
101B
 10
15.6413
 20
7.59575
 30
0.000000
  70
    32
  0
VERTEX
  8
LEG_-_STRUT
  5
101C
 10
15.6446
 20
7.61323
 30
0.000000
  70
    32
  0
VERTEX
  8
LEG_-_STRUT
  5
101D
 10
15.6475
 20
7.63096
 30
0.000000
  70
    32
  0
VERTEX
  8
LEG_-_STRUT
  5
101E
 10
15.6498
 20
7.64892
 30
0.000000
  70
    32
  0
VERTEX
  8
LEG_-_STRUT
  5
101F
 10
15.6516
 20
7.66706
 30
0.000000
  70
    32
  0
VERTEX
  8
LEG_-_STRUT
  5
1020
 10
15.6529
 20
7.68533
 30
0.000000
  70
    32
  0
VERTEX
  8
LEG_-_STRUT
  5
1021
 10
15.6536
 20
7.70368
 30
0.000000
  70
    32
  0
VERTEX
  8
LEG_-_STRUT
  5
1022
 10
15.6539
 20
7.72208
 30
0.000000
  70
    32
  0
VERTEX
  8
LEG_-_STRUT
  5
1023
 10
15.6536
 20
7.74048
 30
0.000000
  70
    32
  0
VERTEX
  8
LEG_-_STRUT
  5
1024
 10
15.6529
 20
7.75884
 30
0.000000
  70
    32
  0
VERTEX
  8
LEG_-_STRUT
  5
1025
 10
15.6516
 20
7.77711
 30
0.000000
  70
    32
  0
VERTEX
  8
LEG_-_STRUT
  5
1026
 10
15.6498
 20
7.79524
 30
0.000000
  70
    32
  0
VERTEX
  8
LEG_-_STRUT
  5
1027
 10
15.6475
 20
7.81320
 30
0.000000
  70
    32
  0
VERTEX
  8
LEG_-_STRUT
  5
1028
 10
15.6446
 20
7.83094
 30
0.000000
  70
    32
  0
VERTEX
  8
LEG_-_STRUT
  5
1029
 10
15.6413
 20
7.84842
 30
0.000000
  70
    32
  0
VERTEX
  8
LEG_-_STRUT
  5
102A
 10
15.6375
 20
7.86559
 30
0.000000
  70
    32
  0
VERTEX
  8
LEG_-_STRUT
  5
102B
 10
15.6333
 20
7.88242
 30
0.000000
  70
    32
  0
VERTEX
  8
LEG_-_STRUT
  5
102C
 10
15.6285
 20
7.89886
 30
0.000000
  70
    32
  0
VERTEX
  8
LEG_-_STRUT
  5
102D
 10
15.6233
 20
7.91487
 30
0.000000
  70
    32
  0
VERTEX
  8
LEG_-_STRUT
  5
102E
 10
15.6177
 20
7.93042
 30
0.000000
  70
    32
  0
VERTEX
  8
LEG_-_STRUT
  5
102F
 10
15.6116
 20
7.94547
 30
0.000000
  70
    32
  0
VERTEX
  8
LEG_-_STRUT
  5
1030
 10
15.6051
 20
7.95998
 30
0.000000
  70
    32
  0
VERTEX
  8
LEG_-_STRUT
  5
1031
 10
15.5982
 20
7.97392
 30
0.000000
  70
    32
  0
VERTEX
  8
LEG_-_STRUT
  5
1032
 10
15.5909
 20
7.98725
 30
0.000000
  70
    32
  0
VERTEX
  8
LEG_-_STRUT
  5
1033
 10
15.5833
 20
7.99994
 30
0.000000
  70
    32
  0
VERTEX
  8
LEG_-_STRUT
  5
1034
 10
15.5753
 20
8.01196
 30
0.000000
  70
    32
  0
VERTEX
  8
LEG_-_STRUT
  5
1035
 10
15.5669
 20
8.02329
 30
0.000000
  70
    32
  0
VERTEX
  8
LEG_-_STRUT
  5
1036
 10
15.5583
 20
8.03388
 30
0.000000
  70
    32
  0
VERTEX
  8
LEG_-_STRUT
  5
1037
 10
15.5494
 20
8.04373
 30
0.000000
  70
    32
  0
VERTEX
  8
LEG_-_STRUT
  5
1038
 10
15.5402
 20
8.05280
 30
0.000000
  70
    32
  0
VERTEX
  8
LEG_-_STRUT
  5
1039
 10
15.5308
 20
8.06108
 30
0.000000
  70
    32
  0
VERTEX
  8
LEG_-_STRUT
  5
103A
 10
15.5211
 20
8.06854
 30
0.000000
  70
    32
  0
VERTEX
  8
LEG_-_STRUT
  5
103B
 10
15.5113
 20
8.07516
 30
0.000000
  70
    32
  0
VERTEX
  8
LEG_-_STRUT
  5
103C
 10
15.5013
 20
8.08093
 30
0.000000
  70
    32
  0
VERTEX
  8
LEG_-_STRUT
  5
103D
 10
15.4911
 20
8.08584
 30
0.000000
  70
    32
  0
VERTEX
  8
LEG_-_STRUT
  5
103E
 10
15.4808
 20
8.08988
 30
0.000000
  70
    32
  0
VERTEX
  8
LEG_-_STRUT
  5
103F
 10
15.4704
 20
8.09302
 30
0.000000
  70
    32
  0
VERTEX
  8
LEG_-_STRUT
  5
1040
 10
15.4599
 20
8.09528
 30
0.000000
  70
    32
  0
VERTEX
  8
LEG_-_STRUT
  5
1041
 10
15.4494
 20
8.09663
 30
0.000000
  70
    32
  0
VERTEX
  8
LEG_-_STRUT
  5
1042
 10
15.4388
 20
8.09708
 30
0.000000
  70
    32
  0
SEQEND
  8
LEG_-_STRUT
  5
1043
  0
POLYLINE
  5
780
  8
LEG_-_STRUT
 10
15.54120961991406
 20
7.347082176215725
 30
0.0
 66
     1
 70
     8
  0
VERTEX
  8
LEG_-_STRUT
  5
1044
 10
15.5412
 20
7.34708
 30
0.000000
  70
    32
  0
VERTEX
  8
LEG_-_STRUT
  5
1045
 10
15.5465
 20
7.34720
 30
0.000000
  70
    32
  0
VERTEX
  8
LEG_-_STRUT
  5
1046
 10
15.5518
 20
7.34753
 30
0.000000
  70
    32
  0
VERTEX
  8
LEG_-_STRUT
  5
1047
 10
15.5570
 20
7.34810
 30
0.000000
  70
    32
  0
VERTEX
  8
LEG_-_STRUT
  5
1048
 10
15.5623
 20
7.34889
 30
0.000000
  70
    32
  0
VERTEX
  8
LEG_-_STRUT
  5
1049
 10
15.5675
 20
7.34990
 30
0.000000
  70
    32
  0
VERTEX
  8
LEG_-_STRUT
  5
104A
 10
15.5728
 20
7.35114
 30
0.000000
  70
    32
  0
VERTEX
  8
LEG_-_STRUT
  5
104B
 10
15.5780
 20
7.35260
 30
0.000000
  70
    32
  0
VERTEX
  8
LEG_-_STRUT
  5
104C
 10
15.5832
 20
7.35429
 30
0.000000
  70
    32
  0
VERTEX
  8
LEG_-_STRUT
  5
104D
 10
15.5883
 20
7.35619
 30
0.000000
  70
    32
  0
VERTEX
  8
LEG_-_STRUT
  5
104E
 10
15.5935
 20
7.35832
 30
0.000000
  70
    32
  0
VERTEX
  8
LEG_-_STRUT
  5
104F
 10
15.5986
 20
7.36067
 30
0.000000
  70
    32
  0
VERTEX
  8
LEG_-_STRUT
  5
1050
 10
15.6036
 20
7.36323
 30
0.000000
  70
    32
  0
VERTEX
  8
LEG_-_STRUT
  5
1051
 10
15.6087
 20
7.36601
 30
0.000000
  70
    32
  0
VERTEX
  8
LEG_-_STRUT
  5
1052
 10
15.6137
 20
7.36900
 30
0.000000
  70
    32
  0
VERTEX
  8
LEG_-_STRUT
  5
1053
 10
15.6186
 20
7.37221
 30
0.000000
  70
    32
  0
VERTEX
  8
LEG_-_STRUT
  5
1054
 10
15.6235
 20
7.37563
 30
0.000000
  70
    32
  0
VERTEX
  8
LEG_-_STRUT
  5
1055
 10
15.6284
 20
7.37925
 30
0.000000
  70
    32
  0
VERTEX
  8
LEG_-_STRUT
  5
1056
 10
15.6332
 20
7.38309
 30
0.000000
  70
    32
  0
VERTEX
  8
LEG_-_STRUT
  5
1057
 10
15.6379
 20
7.38712
 30
0.000000
  70
    32
  0
VERTEX
  8
LEG_-_STRUT
  5
1058
 10
15.6426
 20
7.39136
 30
0.000000
  70
    32
  0
VERTEX
  8
LEG_-_STRUT
  5
1059
 10
15.6472
 20
7.39580
 30
0.000000
  70
    32
  0
VERTEX
  8
LEG_-_STRUT
  5
105A
 10
15.6518
 20
7.40043
 30
0.000000
  70
    32
  0
VERTEX
  8
LEG_-_STRUT
  5
105B
 10
15.6563
 20
7.40526
 30
0.000000
  70
    32
  0
VERTEX
  8
LEG_-_STRUT
  5
105C
 10
15.6607
 20
7.41028
 30
0.000000
  70
    32
  0
VERTEX
  8
LEG_-_STRUT
  5
105D
 10
15.6651
 20
7.41549
 30
0.000000
  70
    32
  0
VERTEX
  8
LEG_-_STRUT
  5
105E
 10
15.6693
 20
7.42088
 30
0.000000
  70
    32
  0
VERTEX
  8
LEG_-_STRUT
  5
105F
 10
15.6735
 20
7.42645
 30
0.000000
  70
    32
  0
VERTEX
  8
LEG_-_STRUT
  5
1060
 10
15.6777
 20
7.43220
 30
0.000000
  70
    32
  0
VERTEX
  8
LEG_-_STRUT
  5
1061
 10
15.6817
 20
7.43813
 30
0.000000
  70
    32
  0
VERTEX
  8
LEG_-_STRUT
  5
1062
 10
15.6857
 20
7.44423
 30
0.000000
  70
    32
  0
VERTEX
  8
LEG_-_STRUT
  5
1063
 10
15.6895
 20
7.45049
 30
0.000000
  70
    32
  0
VERTEX
  8
LEG_-_STRUT
  5
1064
 10
15.6933
 20
7.45692
 30
0.000000
  70
    32
  0
VERTEX
  8
LEG_-_STRUT
  5
1065
 10
15.6970
 20
7.46350
 30
0.000000
  70
    32
  0
VERTEX
  8
LEG_-_STRUT
  5
1066
 10
15.7006
 20
7.47025
 30
0.000000
  70
    32
  0
VERTEX
  8
LEG_-_STRUT
  5
1067
 10
15.7041
 20
7.47714
 30
0.000000
  70
    32
  0
VERTEX
  8
LEG_-_STRUT
  5
1068
 10
15.7075
 20
7.48418
 30
0.000000
  70
    32
  0
VERTEX
  8
LEG_-_STRUT
  5
1069
 10
15.7108
 20
7.49137
 30
0.000000
  70
    32
  0
VERTEX
  8
LEG_-_STRUT
  5
106A
 10
15.7140
 20
7.49869
 30
0.000000
  70
    32
  0
VERTEX
  8
LEG_-_STRUT
  5
106B
 10
15.7171
 20
7.50615
 30
0.000000
  70
    32
  0
VERTEX
  8
LEG_-_STRUT
  5
106C
 10
15.7201
 20
7.51374
 30
0.000000
  70
    32
  0
VERTEX
  8
LEG_-_STRUT
  5
106D
 10
15.7229
 20
7.52146
 30
0.000000
  70
    32
  0
VERTEX
  8
LEG_-_STRUT
  5
106E
 10
15.7257
 20
7.52929
 30
0.000000
  70
    32
  0
VERTEX
  8
LEG_-_STRUT
  5
106F
 10
15.7284
 20
7.53725
 30
0.000000
  70
    32
  0
VERTEX
  8
LEG_-_STRUT
  5
1070
 10
15.7309
 20
7.54531
 30
0.000000
  70
    32
  0
VERTEX
  8
LEG_-_STRUT
  5
1071
 10
15.7333
 20
7.55348
 30
0.000000
  70
    32
  0
VERTEX
  8
LEG_-_STRUT
  5
1072
 10
15.7356
 20
7.56175
 30
0.000000
  70
    32
  0
VERTEX
  8
LEG_-_STRUT
  5
1073
 10
15.7378
 20
7.57012
 30
0.000000
  70
    32
  0
VERTEX
  8
LEG_-_STRUT
  5
1074
 10
15.7399
 20
7.57858
 30
0.000000
  70
    32
  0
VERTEX
  8
LEG_-_STRUT
  5
1075
 10
15.7419
 20
7.58712
 30
0.000000
  70
    32
  0
VERTEX
  8
LEG_-_STRUT
  5
1076
 10
15.7437
 20
7.59575
 30
0.000000
  70
    32
  0
VERTEX
  8
LEG_-_STRUT
  5
1077
 10
15.7454
 20
7.60445
 30
0.000000
  70
    32
  0
VERTEX
  8
LEG_-_STRUT
  5
1078
 10
15.7470
 20
7.61323
 30
0.000000
  70
    32
  0
VERTEX
  8
LEG_-_STRUT
  5
1079
 10
15.7485
 20
7.62206
 30
0.000000
  70
    32
  0
VERTEX
  8
LEG_-_STRUT
  5
107A
 10
15.7499
 20
7.63096
 30
0.000000
  70
    32
  0
VERTEX
  8
LEG_-_STRUT
  5
107B
 10
15.7511
 20
7.63992
 30
0.000000
  70
    32
  0
VERTEX
  8
LEG_-_STRUT
  5
107C
 10
15.7522
 20
7.64892
 30
0.000000
  70
    32
  0
VERTEX
  8
LEG_-_STRUT
  5
107D
 10
15.7531
 20
7.65797
 30
0.000000
  70
    32
  0
VERTEX
  8
LEG_-_STRUT
  5
107E
 10
15.7540
 20
7.66706
 30
0.000000
  70
    32
  0
VERTEX
  8
LEG_-_STRUT
  5
107F
 10
15.7547
 20
7.67618
 30
0.000000
  70
    32
  0
VERTEX
  8
LEG_-_STRUT
  5
1080
 10
15.7553
 20
7.68533
 30
0.000000
  70
    32
  0
VERTEX
  8
LEG_-_STRUT
  5
1081
 10
15.7557
 20
7.69450
 30
0.000000
  70
    32
  0
VERTEX
  8
LEG_-_STRUT
  5
1082
 10
15.7560
 20
7.70368
 30
0.000000
  70
    32
  0
VERTEX
  8
LEG_-_STRUT
  5
1083
 10
15.7562
 20
7.71288
 30
0.000000
  70
    32
  0
VERTEX
  8
LEG_-_STRUT
  5
1084
 10
15.7563
 20
7.72208
 30
0.000000
  70
    32
  0
VERTEX
  8
LEG_-_STRUT
  5
1085
 10
15.7562
 20
7.73129
 30
0.000000
  70
    32
  0
VERTEX
  8
LEG_-_STRUT
  5
1086
 10
15.7560
 20
7.74048
 30
0.000000
  70
    32
  0
VERTEX
  8
LEG_-_STRUT
  5
1087
 10
15.7557
 20
7.74967
 30
0.000000
  70
    32
  0
VERTEX
  8
LEG_-_STRUT
  5
1088
 10
15.7553
 20
7.75884
 30
0.000000
  70
    32
  0
VERTEX
  8
LEG_-_STRUT
  5
1089
 10
15.7547
 20
7.76799
 30
0.000000
  70
    32
  0
VERTEX
  8
LEG_-_STRUT
  5
108A
 10
15.7540
 20
7.77711
 30
0.000000
  70
    32
  0
VERTEX
  8
LEG_-_STRUT
  5
108B
 10
15.7531
 20
7.78619
 30
0.000000
  70
    32
  0
VERTEX
  8
LEG_-_STRUT
  5
108C
 10
15.7522
 20
7.79524
 30
0.000000
  70
    32
  0
VERTEX
  8
LEG_-_STRUT
  5
108D
 10
15.7511
 20
7.80425
 30
0.000000
  70
    32
  0
VERTEX
  8
LEG_-_STRUT
  5
108E
 10
15.7499
 20
7.81320
 30
0.000000
  70
    32
  0
VERTEX
  8
LEG_-_STRUT
  5
108F
 10
15.7485
 20
7.82210
 30
0.000000
  70
    32
  0
VERTEX
  8
LEG_-_STRUT
  5
1090
 10
15.7470
 20
7.83094
 30
0.000000
  70
    32
  0
VERTEX
  8
LEG_-_STRUT
  5
1091
 10
15.7454
 20
7.83971
 30
0.000000
  70
    32
  0
VERTEX
  8
LEG_-_STRUT
  5
1092
 10
15.7437
 20
7.84842
 30
0.000000
  70
    32
  0
VERTEX
  8
LEG_-_STRUT
  5
1093
 10
15.7419
 20
7.85704
 30
0.000000
  70
    32
  0
VERTEX
  8
LEG_-_STRUT
  5
1094
 10
15.7399
 20
7.86559
 30
0.000000
  70
    32
  0
VERTEX
  8
LEG_-_STRUT
  5
1095
 10
15.7378
 20
7.87405
 30
0.000000
  70
    32
  0
VERTEX
  8
LEG_-_STRUT
  5
1096
 10
15.7356
 20
7.88242
 30
0.000000
  70
    32
  0
VERTEX
  8
LEG_-_STRUT
  5
1097
 10
15.7333
 20
7.89069
 30
0.000000
  70
    32
  0
VERTEX
  8
LEG_-_STRUT
  5
1098
 10
15.7309
 20
7.89886
 30
0.000000
  70
    32
  0
VERTEX
  8
LEG_-_STRUT
  5
1099
 10
15.7284
 20
7.90692
 30
0.000000
  70
    32
  0
VERTEX
  8
LEG_-_STRUT
  5
109A
 10
15.7257
 20
7.91487
 30
0.000000
  70
    32
  0
VERTEX
  8
LEG_-_STRUT
  5
109B
 10
15.7229
 20
7.92271
 30
0.000000
  70
    32
  0
VERTEX
  8
LEG_-_STRUT
  5
109C
 10
15.7201
 20
7.93042
 30
0.000000
  70
    32
  0
VERTEX
  8
LEG_-_STRUT
  5
109D
 10
15.7171
 20
7.93801
 30
0.000000
  70
    32
  0
VERTEX
  8
LEG_-_STRUT
  5
109E
 10
15.7140
 20
7.94547
 30
0.000000
  70
    32
  0
VERTEX
  8
LEG_-_STRUT
  5
109F
 10
15.7108
 20
7.95279
 30
0.000000
  70
    32
  0
VERTEX
  8
LEG_-_STRUT
  5
10A0
 10
15.7075
 20
7.95998
 30
0.000000
  70
    32
  0
VERTEX
  8
LEG_-_STRUT
  5
10A1
 10
15.7041
 20
7.96702
 30
0.000000
  70
    32
  0
VERTEX
  8
LEG_-_STRUT
  5
10A2
 10
15.7006
 20
7.97392
 30
0.000000
  70
    32
  0
VERTEX
  8
LEG_-_STRUT
  5
10A3
 10
15.6970
 20
7.98066
 30
0.000000
  70
    32
  0
VERTEX
  8
LEG_-_STRUT
  5
10A4
 10
15.6933
 20
7.98725
 30
0.000000
  70
    32
  0
VERTEX
  8
LEG_-_STRUT
  5
10A5
 10
15.6895
 20
7.99367
 30
0.000000
  70
    32
  0
VERTEX
  8
LEG_-_STRUT
  5
10A6
 10
15.6857
 20
7.99994
 30
0.000000
  70
    32
  0
VERTEX
  8
LEG_-_STRUT
  5
10A7
 10
15.6817
 20
8.00604
 30
0.000000
  70
    32
  0
VERTEX
  8
LEG_-_STRUT
  5
10A8
 10
15.6777
 20
8.01196
 30
0.000000
  70
    32
  0
VERTEX
  8
LEG_-_STRUT
  5
10A9
 10
15.6735
 20
8.01771
 30
0.000000
  70
    32
  0
VERTEX
  8
LEG_-_STRUT
  5
10AA
 10
15.6693
 20
8.02329
 30
0.000000
  70
    32
  0
VERTEX
  8
LEG_-_STRUT
  5
10AB
 10
15.6651
 20
8.02868
 30
0.000000
  70
    32
  0
VERTEX
  8
LEG_-_STRUT
  5
10AC
 10
15.6607
 20
8.03388
 30
0.000000
  70
    32
  0
VERTEX
  8
LEG_-_STRUT
  5
10AD
 10
15.6563
 20
8.03890
 30
0.000000
  70
    32
  0
VERTEX
  8
LEG_-_STRUT
  5
10AE
 10
15.6518
 20
8.04373
 30
0.000000
  70
    32
  0
VERTEX
  8
LEG_-_STRUT
  5
10AF
 10
15.6472
 20
8.04836
 30
0.000000
  70
    32
  0
VERTEX
  8
LEG_-_STRUT
  5
10B0
 10
15.6426
 20
8.05280
 30
0.000000
  70
    32
  0
VERTEX
  8
LEG_-_STRUT
  5
10B1
 10
15.6379
 20
8.05704
 30
0.000000
  70
    32
  0
VERTEX
  8
LEG_-_STRUT
  5
10B2
 10
15.6332
 20
8.06108
 30
0.000000
  70
    32
  0
VERTEX
  8
LEG_-_STRUT
  5
10B3
 10
15.6284
 20
8.06491
 30
0.000000
  70
    32
  0
VERTEX
  8
LEG_-_STRUT
  5
10B4
 10
15.6235
 20
8.06854
 30
0.000000
  70
    32
  0
VERTEX
  8
LEG_-_STRUT
  5
10B5
 10
15.6186
 20
8.07195
 30
0.000000
  70
    32
  0
VERTEX
  8
LEG_-_STRUT
  5
10B6
 10
15.6137
 20
8.07516
 30
0.000000
  70
    32
  0
VERTEX
  8
LEG_-_STRUT
  5
10B7
 10
15.6087
 20
8.07816
 30
0.000000
  70
    32
  0
VERTEX
  8
LEG_-_STRUT
  5
10B8
 10
15.6036
 20
8.08093
 30
0.000000
  70
    32
  0
VERTEX
  8
LEG_-_STRUT
  5
10B9
 10
15.5986
 20
8.08350
 30
0.000000
  70
    32
  0
VERTEX
  8
LEG_-_STRUT
  5
10BA
 10
15.5935
 20
8.08584
 30
0.000000
  70
    32
  0
VERTEX
  8
LEG_-_STRUT
  5
10BB
 10
15.5883
 20
8.08797
 30
0.000000
  70
    32
  0
VERTEX
  8
LEG_-_STRUT
  5
10BC
 10
15.5832
 20
8.08988
 30
0.000000
  70
    32
  0
VERTEX
  8
LEG_-_STRUT
  5
10BD
 10
15.5780
 20
8.09156
 30
0.000000
  70
    32
  0
VERTEX
  8
LEG_-_STRUT
  5
10BE
 10
15.5728
 20
8.09302
 30
0.000000
  70
    32
  0
VERTEX
  8
LEG_-_STRUT
  5
10BF
 10
15.5675
 20
8.09426
 30
0.000000
  70
    32
  0
VERTEX
  8
LEG_-_STRUT
  5
10C0
 10
15.5623
 20
8.09528
 30
0.000000
  70
    32
  0
VERTEX
  8
LEG_-_STRUT
  5
10C1
 10
15.5570
 20
8.09607
 30
0.000000
  70
    32
  0
VERTEX
  8
LEG_-_STRUT
  5
10C2
 10
15.5518
 20
8.09663
 30
0.000000
  70
    32
  0
VERTEX
  8
LEG_-_STRUT
  5
10C3
 10
15.5465
 20
8.09697
 30
0.000000
  70
    32
  0
VERTEX
  8
LEG_-_STRUT
  5
10C4
 10
15.5412
 20
8.09708
 30
0.000000
  70
    32
  0
SEQEND
  8
LEG_-_STRUT
  5
10C5
  0
LINE
  5
781
  8
LEG_-_STRUT
 10
15.54120961991406
 20
8.097082176215725
 30
0.0
 11
15.438815614377949
 21
8.097082176215725
 31
0.0
  0
LINE
  5
782
  8
LEG_-_STRUT
 10
15.54120961991406
 20
7.347082176215725
 30
0.0
 11
15.438815614377949
 21
7.347082176215725
 31
0.0
  0
LINE
  5
783
  8
LEG_-_STRUT
 10
15.269360301212521
 20
7.49112248448073
 30
0.0
 11
15.269360301212521
 21
7.159582176215725
 31
0.0
  0
LINE
  5
785
  8
LEG_-_STRUT
 10
16.320114054030491
 20
7.597082176215725
 30
0.0
 11
16.320114054030491
 21
7.847082176215725
 31
0.0
  0
LINE
  5
786
  8
LEG_-_STRUT
 10
16.195114054030491
 20
7.722082176215725
 30
0.0
 11
16.445114054030491
 21
7.722082176215725
 31
0.0
  0
TEXT
  5
B3C
  8
0
  6
CONTINUOUS
 10
67.918866984091807
 20
15.343810469091689
 30
0.0
 40
0.12
  1
 
 51
7.0
  0
TEXT
  5
B3D
  8
0
  6
CONTINUOUS
 10
80.362963749571691
 20
22.40668489882335
 30
0.0
 40
0.24
  1
 
 51
7.0
  0
TEXT
  5
B3E
  8
0
  6
CONTINUOUS
 10
89.572728761484967
 20
22.086674912246259
 30
0.0
 40
0.24
  1
 
 51
7.0
  0
TEXT
  5
B3F
  8
0
  6
CONTINUOUS
 10
99.376688245917677
 20
5.2240941127189373
 30
0.0
 40
0.24
  1
 
 51
7.0
  0
LINE
  5
BF7
  8
0
 10
0.0
 20
0.0
 30
0.0
 11
0.0
 21
17.0
 31
0.0
  0
LINE
  5
BF8
  8
0
 10
22.000000000000011
 20
0.0
 30
0.0
 11
22.000000000000011
 21
17.0
 31
0.0
  0
LINE
  5
BF9
  8
0
 10
0.0
 20
0.0
 30
0.0
 11
22.000000000000011
 21
0.0
 31
0.0
  0
LINE
  5
BFA
  8
0
 10
0.0
 20
17.0
 30
0.0
 11
22.000000000000011
 21
17.0
 31
0.0
  0
LINE
  5
C98
  8
FORM
 10
21.403846140107252
 20
0.7499999996674092
 30
0.0
 11
21.403846140107252
 21
15.153846144098431
 31
0.0
  0
LINE
  5
C99
  8
FORM
 10
21.249999986363441
 20
15.307692297842239
 30
0.0
 11
0.7499999996674376
 21
15.307692297842239
 31
0.0
  0
LINE
  5
C9A
  8
FORM
 10
21.249999986363441
 20
0.5961538459236025
 30
0.0
 11
0.7499999996674376
 21
0.5961538459235954
 31
0.0
  0
LINE
  5
C9B
  8
FORM
 10
0.5961538459236168
 20
0.7499999996674092
 30
0.0
 11
0.5961538459236168
 21
15.153846144098431
 31
0.0
  0
TEXT
  5
C9C
  8
FORM
 10
18.653855700495029
 20
2.6705065993040051
 30
0.0
 40
0.260516826749781
  1
STRUT
 72
     1
 11
19.243119951476679
 21
2.6705065993040051
 31
0.0
  0
TEXT
  5
C9D
  8
FORM
 10
18.926778090423369
 20
2.1193155254872589
 30
0.0
 40
0.260516826749781
  1
LEG
 72
     1
 11
19.243119951476679
 21
2.1193155254872589
 31
0.0
  0
TEXT
  5
C9E
  8
FORM
 10
16.770574233580572
 20
1.1177623757995749
 30
0.0
 40
0.260516826749781
  1
ASTROMECH DROID
  0
TEXT
  5
C9F
  8
FORM
 10
20.857200380049971
 20
1.1278903102633671
 30
0.0
 40
0.260516826749781
  1
A
  0
TEXT
  5
CA0
  8
FORM
 10
17.25446024791373
 20
0.813671414000872
 30
0.0
 40
0.1042067306999124
  1
FULL
  0
TEXT
  5
CA1
  8
FORM
 10
20.59328054442603
 20
0.8165882189588344
 30
0.0
 40
0.1042067306999124
  1
1   1
  0
TEXT
  5
CA2
  8
FORM
 10
18.86737348866825
 20
0.8246381046439915
 30
0.0
 40
0.1042067306999124
  1
APRIL 2005
 72
     2
 11
19.770498488067489
 21
0.8246381046439915
 31
0.0
  0
TEXT
  5
CA3
  8
FORM
  6
CONTINUOUS
 10
18.11882791355859
 20
0.8235896747318066
 30
0.0
 40
0.0900346153247244
  1
DRAWN:
  0
TEXT
  5
CA4
  8
FORM
  6
CONTINUOUS
 10
16.72518466957764
 20
0.8236741054737031
 30
0.0
 40
0.0900346153247244
  1
SCALE:
  0
TEXT
  5
CA5
  8
FORM
  6
CONTINUOUS
 10
20.017956773164951
 20
0.8225458122742352
 30
0.0
 40
0.0900346153247244
  1
SHEET:   OF
  0
TEXT
  5
CA6
  8
FORM
  6
CONTINUOUS
 10
16.560769897877751
 20
1.5378028837587541
 30
0.0
 40
0.0900346153247244
  1
DRAWING NO.
  0
TEXT
  5
CA7
  8
FORM
  6
CONTINUOUS
 10
20.822311852397561
 20
1.537802883758743
 30
0.0
 40
0.0900346153247244
  1
REV.
 72
     1
 11
20.955220094067389
 21
1.537802883758743
 31
0.0
  0
LINE
  5
CA8
  8
FORM
  6
CONTINUOUS
 10
16.703251912464879
 20
3.3610038440844141
 30
0.0
 11
21.024913448051631
 21
3.3610038440844141
 31
0.0
  0
LINE
  5
CA9
  8
FORM
  6
CONTINUOUS
 10
16.478165374153068
 20
0.9750865379792159
 30
0.0
 11
16.47816537415304
 21
3.1359173057725931
 31
0.0
  0
LINE
  5
CAA
  8
FORM
  6
CONTINUOUS
 10
16.478165374153068
 20
1.672854806745828
 30
0.0
 11
21.249999986363441
 21
1.672854806745828
 31
0.0
  0
LINE
  5
CAB
  8
FORM
  6
CONTINUOUS
 10
16.478165374153068
 20
0.9750865379792159
 30
0.0
 11
21.249999986363441
 21
0.9750865379792159
 31
0.0
  0
LINE
  5
CAC
  8
FORM
  6
CONTINUOUS
 10
17.978042375432761
 20
0.9750865379792159
 30
0.0
 11
17.978042375432761
 21
0.7499999996674092
 31
0.0
  0
LINE
  5
CAD
  8
FORM
  6
CONTINUOUS
 10
19.950430811671399
 20
0.9723156702741989
 30
0.0
 11
19.950430811671399
 21
0.7472291319623921
 31
0.0
  0
LINE
  5
CAE
  8
FORM
  6
CONTINUOUS
 10
20.65524763562988
 20
1.672854806745828
 30
0.0
 11
20.65524763562988
 21
0.9750865379792159
 31
0.0
  0
ARC
  5
CAF
  8
FORM
 62
     5
 10
16.925603837263061
 20
2.683123263179624
 30
0.0
 40
0.0245481788339413
 50
152.18113099770551
 51
330.99098814993278
  0
ARC
  5
CB0
  8
FORM
 62
     5
 10
17.031863490617191
 20
2.8877559907035391
 30
0.0
 40
0.0215248522646385
 50
335.32315363464198
 51
152.67224926330371
  0
ARC
  5
CB1
  8
FORM
 62
     5
 10
18.67139281679864
 20
1.8778243841790809
 30
0.0
 40
1.9470863223045181
 50
148.41494327216151
 51
155.19852313243231
  0
ARC
  5
CB2
  8
FORM
 62
     5
 10
19.048266219253641
 20
1.7448079813832851
 30
0.0
 40
2.2963564077758769
 50
150.40875710206339
 51
156.20744757951141
  0
ARC
  5
CB3
  8
FORM
 62
     7
 10
16.85618768961919
 20
2.476891943456518
 30
0.0
 40
0.0328016362752216
 50
161.128725237971
 51
346.89295927401372
  0
ARC
  5
CB4
  8
FORM
 62
     7
 10
26.44698154523395
 20
-1.665659984064163
 30
0.0
 40
10.414927500982669
 50
153.58307292081309
 51
156.60691138966209
  0
ARC
  5
CB5
  8
FORM
 62
     7
 10
24.94276577236284
 20
-1.1245203992272681
 30
0.0
 40
8.873647082696257
 50
152.34095999775931
 51
152.9694116127464
  0
ARC
  5
CB6
  8
FORM
 62
     7
 10
25.042235970541078
 20
-1.413551413076795
 30
0.0
 40
9.0960831006715779
 50
153.37112835275721
 51
154.60402195655351
  0
ARC
  5
CB7
  8
FORM
 62
     7
 10
17.329398129118289
 20
2.8602652973761158
 30
0.0
 40
0.2358358050601862
 50
23.468725928191049
 51
88.151617587883351
  0
ARC
  5
CB8
  8
FORM
 62
     7
 10
17.334668891213539
 20
2.8754695652234821
 30
0.0
 40
0.2783521476800796
 50
18.232625295665532
 51
154.63608874642679
  0
ARC
  5
CB9
  8
FORM
 62
     7
 10
17.41806628342875
 20
2.9044827195306051
 30
0.0
 40
0.1900699214402894
 50
336.99722732837893
 51
341.11190659806488
  0
ARC
  5
CBA
  8
FORM
 62
     7
 10
17.429371041778779
 20
2.912888609699027
 30
0.0
 40
0.1244898949022119
 50
333.24704424527522
 51
339.12675173356178
  0
ARC
  5
CBB
  8
FORM
 62
     7
 10
17.547120806258569
 20
2.8541053585607901
 30
0.0
 40
0.007134896083525
 50
157.37475902115841
 51
243.18317341424029
  0
ARC
  5
CBC
  8
FORM
 62
     7
 10
17.589262332130438
 20
2.8313183495512071
 30
0.0
 40
0.0039211308505914
 50
246.74236679857631
 51
343.55073793579641
  0
ARC
  5
CBD
  8
FORM
 62
     7
 10
17.712650022975261
 20
3.1590467530149189
 30
0.0
 40
0.3541033340658146
 50
241.5396617947477
 51
249.33988332022491
  0
ARC
  5
CBE
  8
FORM
 62
     7
 10
17.465116861604152
 20
2.7835275642507962
 30
0.0
 40
0.0699031230302257
 50
210.28645373052609
 51
287.25915125833183
  0
ARC
  5
CBF
  8
FORM
 62
     7
 10
17.471123101482849
 20
2.7532989527990699
 30
0.0
 40
0.0393865134548433
 50
291.96730232828992
 51
10.20108836223371
  0
ARC
  5
CC0
  8
FORM
 62
     7
 10
17.159843992632862
 20
2.6859329108208518
 30
0.0
 40
0.2527202610277017
 50
14.28109924276106
 51
24.947261539878259
  0
ARC
  5
CC1
  8
FORM
 62
     7
 10
17.30724545805592
 20
2.7624795397720869
 30
0.0
 40
0.0870866377029319
 50
20.183063788867599
 51
47.833846572520173
  0
ARC
  5
CC2
  8
FORM
 62
     7
 10
17.3235259706865
 20
2.7183682645997709
 30
0.0
 40
0.1165593648186974
 50
68.784960310907394
 51
94.742087985452599
  0
ARC
  5
CC3
  8
FORM
 62
     7
 10
17.322257766755691
 20
2.7872533208520021
 30
0.0
 40
0.0480101674679103
 50
100.0375073429591
 51
170.98475346238999
  0
ARC
  5
CC4
  8
FORM
 62
     7
 10
17.548079884465128
 20
2.754066770453373
 30
0.0
 40
0.2762551956077745
 50
171.52589863719891
 51
197.494741096675
  0
ARC
  5
CC5
  8
FORM
 62
     7
 10
17.361988404409459
 20
2.757975203687443
 30
0.0
 40
0.1479164690482495
 50
0.8906501289532242
 51
49.113860192417171
  0
ARC
  5
CC6
  8
FORM
 62
     7
 10
17.330827327390129
 20
2.7851061194825268
 30
0.0
 40
0.1164203647136616
 50
99.869748807366761
 51
175.59516845025641
  0
ARC
  5
CC7
  8
FORM
 62
     7
 10
17.351819288533541
 20
2.721979015220195
 30
0.0
 40
0.1824780170187834
 50
54.104282451028169
 51
102.9674010870567
  0
ARC
  5
CC8
  8
FORM
 62
     7
 10
17.86682547837183
 20
2.8305495615738461
 30
0.0
 40
0.603682768180479
 50
195.32307896217739
 51
209.290843156958
  0
ARC
  5
CC9
  8
FORM
 62
     7
 10
17.676878331574731
 20
2.7315679572076941
 30
0.0
 40
0.4663319886455236
 50
172.3003020759547
 51
200.12627387409299
  0
ARC
  5
CCA
  8
FORM
 62
     7
 10
18.010296677355178
 20
2.8617220596188409
 30
0.0
 40
0.8242093741364085
 50
200.64629086238159
 51
210.0464960904439
  0
ARC
  5
CCB
  8
FORM
 62
     7
 10
16.87490984687733
 20
2.2228629736894798
 30
0.0
 40
0.5605059965149727
 50
28.43194910738432
 51
33.865461133002448
  0
ARC
  5
CCC
  8
FORM
 62
     7
 10
17.335282492148369
 20
2.4642291377128478
 30
0.0
 40
0.0413303405420145
 50
201.56446042640411
 51
38.094090168146302
  0
ARC
  5
CCD
  8
FORM
 62
     5
 10
17.698488306364119
 20
2.8075987703319072
 30
0.0
 40
0.0229902810191139
 50
227.6202696593605
 51
57.412112921204063
  0
ARC
  5
CCE
  8
FORM
 62
     5
 10
17.427351296879159
 20
2.453894972691713
 30
0.0
 40
0.4685807675213703
 50
52.766851639305898
 51
65.063571515457895
  0
ARC
  5
CCF
  8
FORM
 62
     5
 10
17.209234353189519
 20
2.115713416994772
 30
0.0
 40
0.8245845677332351
 50
54.932512589538817
 51
74.152868438598915
  0
ARC
  5
CD0
  8
FORM
 62
     5
 10
17.22112341118936
 20
1.8705744209651269
 30
0.0
 40
1.0600616451387339
 50
78.393012355262385
 51
89.647961077025343
  0
ARC
  5
CD1
  8
FORM
 62
     5
 10
17.22585515811722
 20
2.9613835761542329
 30
0.0
 40
0.0308190515998151
 50
183.9979944211656
 51
273.313807745882
  0
ARC
  5
CD2
  8
FORM
 62
     5
 10
17.329870384946648
 20
2.9695252211814269
 30
0.0
 40
0.135151603104915
 50
145.60859166919269
 51
184.36670732083471
  0
ARC
  5
CD3
  8
FORM
 62
     5
 10
17.246715832908802
 20
3.027923603152622
 30
0.0
 40
0.0335688941126511
 50
75.244714174009715
 51
147.6929850116162
  0
ARC
  5
CD4
  8
FORM
 62
     5
 10
16.846566400398309
 20
1.4922623483111219
 30
0.0
 40
1.6205076763160291
 50
61.637242241525243
 51
75.392005557716701
  0
ARC
  5
CD5
  8
FORM
 62
     5
 10
17.585771892302471
 20
2.8909845400545029
 30
0.0
 40
0.0409937741994102
 50
342.69825742684009
 51
41.67278378767756
  0
ARC
  5
CD6
  8
FORM
 62
     7
 10
17.41806628342875
 20
2.9044827195306051
 30
0.0
 40
0.1900699214402894
 50
5.6380312699922799
 51
17.791456368736839
  0
ARC
  5
CD7
  8
FORM
 62
     7
 10
17.504562230095111
 20
2.0088127942983891
 30
0.0
 40
0.0608207837544583
 50
88.432533024773406
 51
186.62631613112151
  0
ARC
  5
CD8
  8
FORM
 62
     7
 10
17.514107893903319
 20
2.0214944811508531
 30
0.0
 40
0.0726809031862866
 50
195.7266305128272
 51
285.3806868435185
  0
ARC
  5
CD9
  8
FORM
 62
     7
 10
17.428397303924331
 20
2.6646932328165849
 30
0.0
 40
0.7209618028535085
 50
278.37329371359459
 51
293.15208507016871
  0
ARC
  5
CDA
  8
FORM
 62
     7
 10
17.670280088548289
 20
2.2109164793858191
 30
0.0
 40
0.1486954171998164
 50
257.51805604168283
 51
277.23103351305667
  0
ARC
  5
CDB
  8
FORM
 62
     7
 10
17.67861701724113
 20
2.0887614153130118
 30
0.0
 40
0.0273997705390677
 50
292.26031345923337
 51
12.867379300523719
  0
ARC
  5
CDC
  8
FORM
 62
     7
 10
17.658243987918532
 20
2.0848332422543971
 30
0.0
 40
0.0481411784627428
 50
12.02537552739555
 51
52.143631645159331
  0
ARC
  5
CDD
  8
FORM
 62
     7
 10
18.684731676867621
 20
3.3322419147777782
 30
0.0
 40
1.5673362882102819
 50
219.60277928185971
 51
230.5002020408055
  0
ARC
  5
CDE
  8
FORM
 62
     7
 10
17.71719517775902
 20
2.5209914067630801
 30
0.0
 40
0.3048383262947374
 50
175.97523115435061
 51
218.04500009534141
  0
ARC
  5
CDF
  8
FORM
 62
     7
 10
17.587988709286751
 20
2.5516026198667592
 30
0.0
 40
0.1751226981011722
 50
149.96078860476399
 51
183.01641230856191
  0
ARC
  5
CE0
  8
FORM
 62
     7
 10
17.465652099647009
 20
2.6236413715572442
 30
0.0
 40
0.03317488584424
 50
69.764209445538683
 51
151.8988190455112
  0
ARC
  5
CE1
  8
FORM
 62
     7
 10
17.461738153470581
 20
2.621386420418637
 30
0.0
 40
0.0367584023789668
 50
357.6694469744499
 51
65.251102439515435
  0
ARC
  5
CE2
  8
FORM
 62
     7
 10
17.375127171955011
 20
2.6142785816255478
 30
0.0
 40
0.1234666367742727
 50
345.36193237678458
 51
2.6056939300727819
  0
ARC
  5
CE3
  8
FORM
 62
     7
 10
17.77078834668831
 20
2.4976765653254129
 30
0.0
 40
0.289103498612585
 50
162.81861830880709
 51
185.35496664157321
  0
ARC
  5
CE4
  8
FORM
 62
     7
 10
17.738557938675601
 20
2.526678108373186
 30
0.0
 40
0.261669979998945
 50
192.3534994193023
 51
222.3020476696033
  0
ARC
  5
CE5
  8
FORM
 62
     7
 10
18.64000038287109
 20
3.2533952889623161
 30
0.0
 40
1.419181254971364
 50
219.50633019139829
 51
228.42762303996261
  0
ARC
  5
CE6
  8
FORM
 62
     7
 10
17.545150090279272
 20
1.9830014576086259
 30
0.0
 40
0.2588352891177654
 50
32.971129457978869
 51
53.728419363024337
  0
ARC
  5
CE7
  8
FORM
 62
     7
 10
17.685505274612328
 20
2.0841393566689059
 30
0.0
 40
0.0864595649942742
 50
287.74749415951351
 51
27.35211189662947
  0
ARC
  5
CE8
  8
FORM
 62
     7
 10
17.556150910590731
 20
1.521887384058928
 30
0.0
 40
0.5499940598264056
 50
81.426570944510203
 51
95.208118001959775
  0
ARC
  5
CE9
  8
FORM
 62
     7
 10
17.318742265947641
 20
2.379232385518228
 30
0.0
 40
0.0244848954091209
 50
325.52447187114308
 51
75.340502228459783
  0
ARC
  5
CEA
  8
FORM
 62
     7
 10
17.288575031823321
 20
2.4013816515593862
 30
0.0
 40
0.0619027859518531
 50
277.78730616127859
 51
324.42957968808531
  0
ARC
  5
CEB
  8
FORM
 62
     7
 10
17.277627430402191
 20
2.4116764447725738
 30
0.0
 40
0.0741905263351136
 50
243.48581874200181
 51
285.1065744639306
  0
ARC
  5
CEC
  8
FORM
 62
     7
 10
13.996169845325721
 20
-5.9734717723731041
 30
0.0
 40
9.0135811594364625
 50
68.327181839257534
 51
70.606105230637283
  0
ARC
  5
CED
  8
FORM
 62
     7
 10
16.98286028360284
 20
2.502260489661857
 30
0.0
 40
0.0271571196358057
 50
76.445232091872299
 51
134.36352227876461
  0
ARC
  5
CEE
  8
FORM
 62
     7
 10
17.103601465049461
 20
2.316491870596419
 30
0.0
 40
0.2482433149023289
 50
124.2547762008316
 51
135.012931962436
  0
ARC
  5
CEF
  8
FORM
 62
     7
 10
16.932687772438332
 20
2.4840903864877362
 30
0.0
 40
0.0091691237651447
 50
120.5491196217084
 51
251.48388650457539
  0
ARC
  5
CF0
  8
FORM
 62
     7
 10
15.698852283122079
 20
-0.947959245240991
 30
0.0
 40
3.6379298384249581
 50
64.85742894317822
 51
67.515132469299331
  0
ARC
  5
CF1
  8
FORM
 62
     7
 10
17.235993571129491
 20
2.291795105104121
 30
0.0
 40
0.0343472402230129
 50
329.18566117941782
 51
69.527151249863806
  0
ARC
  5
CF2
  8
FORM
 62
     7
 10
17.145886072427889
 20
2.1556962750494151
 30
0.0
 40
0.1968392862921899
 50
58.747973844557563
 51
81.106226592028094
  0
ARC
  5
CF3
  8
FORM
 62
     7
 10
17.124947044127829
 20
2.0252080021495891
 30
0.0
 40
0.3289962935825703
 50
81.016817915507374
 51
97.679603827268224
  0
ARC
  5
CF4
  8
FORM
 62
     7
 10
17.159573600239298
 20
2.1240726877937131
 30
0.0
 40
0.2440398498458748
 50
121.5050128230593
 51
139.09578810607039
  0
ARC
  5
CF5
  8
FORM
 62
     7
 10
17.225825242067831
 20
2.2865562155100809
 30
0.0
 40
0.0415466234232141
 50
277.70569210516868
 51
342.69880024124109
  0
ARC
  5
CF6
  8
FORM
 62
     7
 10
17.213074197788082
 20
2.3334352792513711
 30
0.0
 40
0.0899365447321688
 50
250.08394506358289
 51
281.75453717228322
  0
ARC
  5
CF7
  8
FORM
 62
     7
 10
17.2424582627973
 20
2.3437609022874879
 30
0.0
 40
0.1122732419236369
 50
221.18187885427241
 51
237.68378775985289
  0
ARC
  5
CF8
  8
FORM
 62
     7
 10
17.110782309270501
 20
2.213603979985677
 30
0.0
 40
0.0733994924367979
 50
50.003848755011681
 51
75.5416830098399
  0
ARC
  5
CF9
  8
FORM
 62
     7
 10
17.106900028743439
 20
2.2402084319691471
 30
0.0
 40
0.0497074536252231
 50
63.4626603498468
 51
100.74200229027051
  0
ARC
  5
CFA
  8
FORM
 62
     7
 10
17.09763521067914
 20
2.2049366923578511
 30
0.0
 40
0.0841081409133923
 50
89.999999999999588
 51
125.5974615489027
  0
ARC
  5
CFB
  8
FORM
 62
     7
 10
18.095359084955341
 20
2.805145934228654
 30
0.0
 40
1.1637748462988311
 50
197.51922498184919
 51
203.981481444731
  0
ARC
  5
CFC
  8
FORM
 62
     7
 10
16.736982371619181
 20
2.433687501517297
 30
0.0
 40
0.3537389089231183
 50
346.52409876011302
 51
356.71498770316703
  0
ARC
  5
CFD
  8
FORM
 62
     7
 10
15.698852283122079
 20
-0.947959245240991
 30
0.0
 40
3.6379298384249581
 50
69.286600818944052
 51
70.22311760076802
  0
ARC
  5
CFE
  8
FORM
 62
     7
 10
16.927896929228471
 20
2.1257895907104252
 30
0.0
 40
0.1066736432871782
 50
245.40259669902051
 51
275.40975098180542
  0
ARC
  5
CFF
  8
FORM
 62
     7
 10
17.301941284744011
 20
1.9333049606058379
 30
0.0
 40
0.4239787481416163
 50
126.68044463040199
 51
139.78708822539889
  0
ARC
  5
D00
  8
FORM
 62
     7
 10
16.925901396850129
 20
2.42585100124619
 30
0.0
 40
0.4064386631288638
 50
271.69929119420118
 51
283.39540842056908
  0
ARC
  5
D01
  8
FORM
 62
     7
 10
17.68590019642733
 20
1.487877603185271
 30
0.0
 40
1.0089968057446299
 50
134.5410403491789
 51
138.91474429089899
  0
ARC
  5
D02
  8
FORM
 62
     7
 10
16.942625607711989
 20
2.1366275124138698
 30
0.0
 40
0.0266928289273625
 50
201.8252958964795
 51
267.16449786715452
  0
ARC
  5
D03
  8
FORM
 62
     7
 10
16.9368792594118
 20
2.1340951027918962
 30
0.0
 40
0.0204180021895292
 50
124.254854327418
 51
201.22329273937871
  0
ARC
  5
D04
  8
FORM
 62
     7
 10
16.999050226745201
 20
2.1174828639755172
 30
0.0
 40
0.0895139066856433
 50
283.5751770312794
 51
324.58969283639942
  0
ARC
  5
D05
  8
FORM
 62
     7
 10
17.050101816405981
 20
2.0748500422369349
 30
0.0
 40
0.0237711578752802
 50
337.14160324238759
 51
47.56496670892831
  0
ARC
  5
D06
  8
FORM
 62
     7
 10
17.01351320176213
 20
2.0225775754130799
 30
0.0
 40
0.0874305156836371
 50
52.990730681111657
 51
91.748895977531376
  0
ARC
  5
D07
  8
FORM
 62
     7
 10
16.97607501860475
 20
2.3473211427073291
 30
0.0
 40
0.2398869733850244
 50
261.66603807207321
 51
278.33396192792679
  0
ARC
  5
D08
  8
FORM
 62
     7
 10
16.904055290181621
 20
2.0802584334887442
 30
0.0
 40
0.0554174778483587
 50
192.64550774538381
 51
248.2223967256862
  0
ARC
  5
D09
  8
FORM
 62
     7
 10
16.89043523400003
 20
2.0865365172575769
 30
0.0
 40
0.0444453205431241
 50
178.88427582775461
 51
204.46998391858139
  0
ARC
  5
D0A
  8
FORM
 62
     7
 10
17.00038134049047
 20
2.0753041716250129
 30
0.0
 40
0.1548562786887746
 50
140.54690015149379
 51
175.5193383191162
  0
ARC
  5
D0B
  8
FORM
 62
     7
 10
18.525663181526969
 20
0.8608942872864346
 30
0.0
 40
2.1045236570324608
 50
137.45643980933039
 51
141.40545593619069
  0
POLYLINE
  5
D0C
  8
FORM
 62
     1
 10
17.275622491608218
 20
3.0402781737931805
 30
0.0
 66
     1
 70
     8
  0
VERTEX
  8
FORM
  5
10C6
 10
17.2756
 20
3.04028
 30
0.000000
  70
    32
  0
VERTEX
  8
FORM
  5
10C7
 10
17.2747
 20
3.04062
 30
0.000000
  70
    32
  0
VERTEX
  8
FORM
  5
10C8
 10
17.2737
 20
3.04086
 30
0.000000
  70
    32
  0
VERTEX
  8
FORM
  5
10C9
 10
17.2727
 20
3.04098
 30
0.000000
  70
    32
  0
VERTEX
  8
FORM
  5
10CA
 10
17.2716
 20
3.04100
 30
0.000000
  70
    32
  0
VERTEX
  8
FORM
  5
10CB
 10
17.2705
 20
3.04091
 30
0.000000
  70
    32
  0
VERTEX
  8
FORM
  5
10CC
 10
17.2694
 20
3.04070
 30
0.000000
  70
    32
  0
VERTEX
  8
FORM
  5
10CD
 10
17.2682
 20
3.04039
 30
0.000000
  70
    32
  0
VERTEX
  8
FORM
  5
10CE
 10
17.2670
 20
3.03997
 30
0.000000
  70
    32
  0
VERTEX
  8
FORM
  5
10CF
 10
17.2658
 20
3.03944
 30
0.000000
  70
    32
  0
VERTEX
  8
FORM
  5
10D0
 10
17.2646
 20
3.03880
 30
0.000000
  70
    32
  0
VERTEX
  8
FORM
  5
10D1
 10
17.2633
 20
3.03806
 30
0.000000
  70
    32
  0
VERTEX
  8
FORM
  5
10D2
 10
17.2620
 20
3.03722
 30
0.000000
  70
    32
  0
VERTEX
  8
FORM
  5
10D3
 10
17.2607
 20
3.03627
 30
0.000000
  70
    32
  0
VERTEX
  8
FORM
  5
10D4
 10
17.2594
 20
3.03523
 30
0.000000
  70
    32
  0
VERTEX
  8
FORM
  5
10D5
 10
17.2581
 20
3.03409
 30
0.000000
  70
    32
  0
VERTEX
  8
FORM
  5
10D6
 10
17.2568
 20
3.03286
 30
0.000000
  70
    32
  0
VERTEX
  8
FORM
  5
10D7
 10
17.2554
 20
3.03154
 30
0.000000
  70
    32
  0
VERTEX
  8
FORM
  5
10D8
 10
17.2541
 20
3.03013
 30
0.000000
  70
    32
  0
VERTEX
  8
FORM
  5
10D9
 10
17.2528
 20
3.02864
 30
0.000000
  70
    32
  0
VERTEX
  8
FORM
  5
10DA
 10
17.2515
 20
3.02706
 30
0.000000
  70
    32
  0
VERTEX
  8
FORM
  5
10DB
 10
17.2502
 20
3.02541
 30
0.000000
  70
    32
  0
VERTEX
  8
FORM
  5
10DC
 10
17.2489
 20
3.02369
 30
0.000000
  70
    32
  0
VERTEX
  8
FORM
  5
10DD
 10
17.2476
 20
3.02190
 30
0.000000
  70
    32
  0
VERTEX
  8
FORM
  5
10DE
 10
17.2464
 20
3.02004
 30
0.000000
  70
    32
  0
VERTEX
  8
FORM
  5
10DF
 10
17.2451
 20
3.01813
 30
0.000000
  70
    32
  0
VERTEX
  8
FORM
  5
10E0
 10
17.2439
 20
3.01616
 30
0.000000
  70
    32
  0
VERTEX
  8
FORM
  5
10E1
 10
17.2427
 20
3.01414
 30
0.000000
  70
    32
  0
VERTEX
  8
FORM
  5
10E2
 10
17.2416
 20
3.01208
 30
0.000000
  70
    32
  0
VERTEX
  8
FORM
  5
10E3
 10
17.2405
 20
3.00997
 30
0.000000
  70
    32
  0
VERTEX
  8
FORM
  5
10E4
 10
17.2394
 20
3.00783
 30
0.000000
  70
    32
  0
VERTEX
  8
FORM
  5
10E5
 10
17.2384
 20
3.00566
 30
0.000000
  70
    32
  0
VERTEX
  8
FORM
  5
10E6
 10
17.2374
 20
3.00347
 30
0.000000
  70
    32
  0
VERTEX
  8
FORM
  5
10E7
 10
17.2364
 20
3.00125
 30
0.000000
  70
    32
  0
VERTEX
  8
FORM
  5
10E8
 10
17.2356
 20
2.99902
 30
0.000000
  70
    32
  0
VERTEX
  8
FORM
  5
10E9
 10
17.2347
 20
2.99679
 30
0.000000
  70
    32
  0
VERTEX
  8
FORM
  5
10EA
 10
17.2339
 20
2.99454
 30
0.000000
  70
    32
  0
VERTEX
  8
FORM
  5
10EB
 10
17.2332
 20
2.99231
 30
0.000000
  70
    32
  0
VERTEX
  8
FORM
  5
10EC
 10
17.2325
 20
2.99007
 30
0.000000
  70
    32
  0
VERTEX
  8
FORM
  5
10ED
 10
17.2318
 20
2.98785
 30
0.000000
  70
    32
  0
VERTEX
  8
FORM
  5
10EE
 10
17.2313
 20
2.98565
 30
0.000000
  70
    32
  0
VERTEX
  8
FORM
  5
10EF
 10
17.2307
 20
2.98348
 30
0.000000
  70
    32
  0
VERTEX
  8
FORM
  5
10F0
 10
17.2303
 20
2.98133
 30
0.000000
  70
    32
  0
VERTEX
  8
FORM
  5
10F1
 10
17.2299
 20
2.97921
 30
0.000000
  70
    32
  0
VERTEX
  8
FORM
  5
10F2
 10
17.2296
 20
2.97713
 30
0.000000
  70
    32
  0
VERTEX
  8
FORM
  5
10F3
 10
17.2293
 20
2.97510
 30
0.000000
  70
    32
  0
VERTEX
  8
FORM
  5
10F4
 10
17.2291
 20
2.97312
 30
0.000000
  70
    32
  0
VERTEX
  8
FORM
  5
10F5
 10
17.2289
 20
2.97119
 30
0.000000
  70
    32
  0
VERTEX
  8
FORM
  5
10F6
 10
17.2289
 20
2.96931
 30
0.000000
  70
    32
  0
VERTEX
  8
FORM
  5
10F7
 10
17.2289
 20
2.96751
 30
0.000000
  70
    32
  0
VERTEX
  8
FORM
  5
10F8
 10
17.2289
 20
2.96576
 30
0.000000
  70
    32
  0
VERTEX
  8
FORM
  5
10F9
 10
17.2290
 20
2.96409
 30
0.000000
  70
    32
  0
VERTEX
  8
FORM
  5
10FA
 10
17.2292
 20
2.96250
 30
0.000000
  70
    32
  0
VERTEX
  8
FORM
  5
10FB
 10
17.2295
 20
2.96098
 30
0.000000
  70
    32
  0
VERTEX
  8
FORM
  5
10FC
 10
17.2298
 20
2.95955
 30
0.000000
  70
    32
  0
VERTEX
  8
FORM
  5
10FD
 10
17.2301
 20
2.95820
 30
0.000000
  70
    32
  0
VERTEX
  8
FORM
  5
10FE
 10
17.2306
 20
2.95694
 30
0.000000
  70
    32
  0
VERTEX
  8
FORM
  5
10FF
 10
17.2311
 20
2.95577
 30
0.000000
  70
    32
  0
VERTEX
  8
FORM
  5
1100
 10
17.2316
 20
2.95470
 30
0.000000
  70
    32
  0
VERTEX
  8
FORM
  5
1101
 10
17.2323
 20
2.95373
 30
0.000000
  70
    32
  0
VERTEX
  8
FORM
  5
1102
 10
17.2329
 20
2.95286
 30
0.000000
  70
    32
  0
VERTEX
  8
FORM
  5
1103
 10
17.2337
 20
2.95209
 30
0.000000
  70
    32
  0
VERTEX
  8
FORM
  5
1104
 10
17.2344
 20
2.95142
 30
0.000000
  70
    32
  0
VERTEX
  8
FORM
  5
1105
 10
17.2353
 20
2.95086
 30
0.000000
  70
    32
  0
VERTEX
  8
FORM
  5
1106
 10
17.2362
 20
2.95041
 30
0.000000
  70
    32
  0
VERTEX
  8
FORM
  5
1107
 10
17.2371
 20
2.95007
 30
0.000000
  70
    32
  0
VERTEX
  8
FORM
  5
1108
 10
17.2381
 20
2.94983
 30
0.000000
  70
    32
  0
VERTEX
  8
FORM
  5
1109
 10
17.2391
 20
2.94971
 30
0.000000
  70
    32
  0
VERTEX
  8
FORM
  5
110A
 10
17.2401
 20
2.94969
 30
0.000000
  70
    32
  0
VERTEX
  8
FORM
  5
110B
 10
17.2412
 20
2.94978
 30
0.000000
  70
    32
  0
VERTEX
  8
FORM
  5
110C
 10
17.2424
 20
2.94999
 30
0.000000
  70
    32
  0
VERTEX
  8
FORM
  5
110D
 10
17.2435
 20
2.95030
 30
0.000000
  70
    32
  0
VERTEX
  8
FORM
  5
110E
 10
17.2447
 20
2.95072
 30
0.000000
  70
    32
  0
VERTEX
  8
FORM
  5
110F
 10
17.2460
 20
2.95125
 30
0.000000
  70
    32
  0
VERTEX
  8
FORM
  5
1110
 10
17.2472
 20
2.95189
 30
0.000000
  70
    32
  0
VERTEX
  8
FORM
  5
1111
 10
17.2485
 20
2.95263
 30
0.000000
  70
    32
  0
VERTEX
  8
FORM
  5
1112
 10
17.2498
 20
2.95347
 30
0.000000
  70
    32
  0
VERTEX
  8
FORM
  5
1113
 10
17.2511
 20
2.95442
 30
0.000000
  70
    32
  0
VERTEX
  8
FORM
  5
1114
 10
17.2524
 20
2.95546
 30
0.000000
  70
    32
  0
VERTEX
  8
FORM
  5
1115
 10
17.2537
 20
2.95660
 30
0.000000
  70
    32
  0
VERTEX
  8
FORM
  5
1116
 10
17.2550
 20
2.95783
 30
0.000000
  70
    32
  0
VERTEX
  8
FORM
  5
1117
 10
17.2563
 20
2.95915
 30
0.000000
  70
    32
  0
VERTEX
  8
FORM
  5
1118
 10
17.2577
 20
2.96056
 30
0.000000
  70
    32
  0
VERTEX
  8
FORM
  5
1119
 10
17.2590
 20
2.96205
 30
0.000000
  70
    32
  0
VERTEX
  8
FORM
  5
111A
 10
17.2603
 20
2.96363
 30
0.000000
  70
    32
  0
VERTEX
  8
FORM
  5
111B
 10
17.2616
 20
2.96528
 30
0.000000
  70
    32
  0
VERTEX
  8
FORM
  5
111C
 10
17.2629
 20
2.96700
 30
0.000000
  70
    32
  0
VERTEX
  8
FORM
  5
111D
 10
17.2642
 20
2.96879
 30
0.000000
  70
    32
  0
VERTEX
  8
FORM
  5
111E
 10
17.2654
 20
2.97065
 30
0.000000
  70
    32
  0
VERTEX
  8
FORM
  5
111F
 10
17.2667
 20
2.97256
 30
0.000000
  70
    32
  0
VERTEX
  8
FORM
  5
1120
 10
17.2679
 20
2.97453
 30
0.000000
  70
    32
  0
VERTEX
  8
FORM
  5
1121
 10
17.2690
 20
2.97655
 30
0.000000
  70
    32
  0
VERTEX
  8
FORM
  5
1122
 10
17.2702
 20
2.97861
 30
0.000000
  70
    32
  0
VERTEX
  8
FORM
  5
1123
 10
17.2713
 20
2.98072
 30
0.000000
  70
    32
  0
VERTEX
  8
FORM
  5
1124
 10
17.2724
 20
2.98286
 30
0.000000
  70
    32
  0
VERTEX
  8
FORM
  5
1125
 10
17.2734
 20
2.98503
 30
0.000000
  70
    32
  0
VERTEX
  8
FORM
  5
1126
 10
17.2744
 20
2.98722
 30
0.000000
  70
    32
  0
VERTEX
  8
FORM
  5
1127
 10
17.2753
 20
2.98944
 30
0.000000
  70
    32
  0
VERTEX
  8
FORM
  5
1128
 10
17.2762
 20
2.99167
 30
0.000000
  70
    32
  0
VERTEX
  8
FORM
  5
1129
 10
17.2771
 20
2.99390
 30
0.000000
  70
    32
  0
VERTEX
  8
FORM
  5
112A
 10
17.2779
 20
2.99615
 30
0.000000
  70
    32
  0
VERTEX
  8
FORM
  5
112B
 10
17.2786
 20
2.99838
 30
0.000000
  70
    32
  0
VERTEX
  8
FORM
  5
112C
 10
17.2793
 20
3.00062
 30
0.000000
  70
    32
  0
VERTEX
  8
FORM
  5
112D
 10
17.2800
 20
3.00284
 30
0.000000
  70
    32
  0
VERTEX
  8
FORM
  5
112E
 10
17.2805
 20
3.00504
 30
0.000000
  70
    32
  0
VERTEX
  8
FORM
  5
112F
 10
17.2810
 20
3.00721
 30
0.000000
  70
    32
  0
VERTEX
  8
FORM
  5
1130
 10
17.2815
 20
3.00936
 30
0.000000
  70
    32
  0
VERTEX
  8
FORM
  5
1131
 10
17.2819
 20
3.01148
 30
0.000000
  70
    32
  0
VERTEX
  8
FORM
  5
1132
 10
17.2822
 20
3.01356
 30
0.000000
  70
    32
  0
VERTEX
  8
FORM
  5
1133
 10
17.2825
 20
3.01559
 30
0.000000
  70
    32
  0
VERTEX
  8
FORM
  5
1134
 10
17.2827
 20
3.01757
 30
0.000000
  70
    32
  0
VERTEX
  8
FORM
  5
1135
 10
17.2828
 20
3.01950
 30
0.000000
  70
    32
  0
VERTEX
  8
FORM
  5
1136
 10
17.2829
 20
3.02137
 30
0.000000
  70
    32
  0
VERTEX
  8
FORM
  5
1137
 10
17.2829
 20
3.02318
 30
0.000000
  70
    32
  0
VERTEX
  8
FORM
  5
1138
 10
17.2829
 20
3.02493
 30
0.000000
  70
    32
  0
VERTEX
  8
FORM
  5
1139
 10
17.2828
 20
3.02660
 30
0.000000
  70
    32
  0
VERTEX
  8
FORM
  5
113A
 10
17.2826
 20
3.02819
 30
0.000000
  70
    32
  0
VERTEX
  8
FORM
  5
113B
 10
17.2823
 20
3.02971
 30
0.000000
  70
    32
  0
VERTEX
  8
FORM
  5
113C
 10
17.2820
 20
3.03114
 30
0.000000
  70
    32
  0
VERTEX
  8
FORM
  5
113D
 10
17.2816
 20
3.03249
 30
0.000000
  70
    32
  0
VERTEX
  8
FORM
  5
113E
 10
17.2812
 20
3.03375
 30
0.000000
  70
    32
  0
VERTEX
  8
FORM
  5
113F
 10
17.2807
 20
3.03492
 30
0.000000
  70
    32
  0
VERTEX
  8
FORM
  5
1140
 10
17.2801
 20
3.03599
 30
0.000000
  70
    32
  0
VERTEX
  8
FORM
  5
1141
 10
17.2795
 20
3.03696
 30
0.000000
  70
    32
  0
VERTEX
  8
FORM
  5
1142
 10
17.2789
 20
3.03783
 30
0.000000
  70
    32
  0
VERTEX
  8
FORM
  5
1143
 10
17.2781
 20
3.03860
 30
0.000000
  70
    32
  0
VERTEX
  8
FORM
  5
1144
 10
17.2773
 20
3.03927
 30
0.000000
  70
    32
  0
VERTEX
  8
FORM
  5
1145
 10
17.2765
 20
3.03983
 30
0.000000
  70
    32
  0
VERTEX
  8
FORM
  5
1146
 10
17.2756
 20
3.04028
 30
0.000000
  70
    32
  0
SEQEND
  8
FORM
  5
1147
  0
ARC
  5
D0D
  8
FORM
 62
     7
 10
17.31969472840197
 20
2.8767429643067852
 30
0.0
 40
0.2199177503197187
 50
85.485448269952457
 51
155.5006785655419
  0
TEXT
  5
D0E
  8
FORM
 62
     7
 10
16.545907219234721
 20
1.726726372181332
 30
0.0
 40
0.0861538460965367
  1
R2-D2 BUILDERS CLUB
  0
ARC
  5
D0F
  8
FORM
 10
0.7499999996674376
 20
0.7499999996674092
 30
0.0
 40
0.1538461537438154
 50
180.0
 51
270.0
  0
ARC
  5
D10
  8
FORM
 10
0.7499999996674376
 20
0.7499999996674092
 30
0.0
 40
0.3076923074876307
 50
180.0
 51
270.0
  0
ARC
  5
D11
  8
FORM
 10
0.7499999996674376
 20
0.7499999996674092
 30
0.0
 40
0.3461538459235846
 50
180.0
 51
270.0
  0
ARC
  5
D12
  8
FORM
 10
0.7499999996674376
 20
0.7499999996674092
 30
0.0
 40
0.4999999996674
 50
180.0
 51
270.0
  0
ARC
  5
D13
  8
FORM
 10
0.7499999996674376
 20
15.153846144098431
 30
0.0
 40
0.4999999996674
 50
90.0
 51
180.0
  0
ARC
  5
D14
  8
FORM
 10
0.7499999996674376
 20
15.153846144098431
 30
0.0
 40
0.3461538459235846
 50
90.0
 51
180.0
  0
ARC
  5
D15
  8
FORM
 10
0.7499999996674376
 20
15.153846144098431
 30
0.0
 40
0.3076923074876307
 50
90.0
 51
180.0
  0
ARC
  5
D16
  8
FORM
 10
0.7499999996674376
 20
15.153846144098431
 30
0.0
 40
0.1538461537438154
 50
90.0
 51
180.0
  0
ARC
  5
D17
  8
FORM
 10
21.249999986363441
 20
15.153846144098431
 30
0.0
 40
0.3076923074876307
 50
0.0
 51
90.0
  0
ARC
  5
D18
  8
FORM
 10
21.249999986363441
 20
15.153846144098431
 30
0.0
 40
0.3461538459235846
 50
0.0
 51
90.0
  0
ARC
  5
D19
  8
FORM
 10
21.249999986363441
 20
15.153846144098431
 30
0.0
 40
0.4999999996674
 50
0.0
 51
90.0
  0
ARC
  5
D1A
  8
FORM
 10
21.249999986363441
 20
15.153846144098431
 30
0.0
 40
0.1538461537438154
 50
0.0
 51
90.0
  0
ARC
  5
D1B
  8
FORM
 10
21.249999986363441
 20
0.7499999996674092
 30
0.0
 40
0.4999999996674
 50
270.0
 51
0.0
  0
ARC
  5
D1C
  8
FORM
 10
21.249999986363441
 20
0.7499999996674092
 30
0.0
 40
0.3461538459235846
 50
270.0
 51
0.0
  0
ARC
  5
D1D
  8
FORM
 10
21.249999986363441
 20
0.7499999996674092
 30
0.0
 40
0.3076923074876307
 50
270.0
 51
0.0
  0
ARC
  5
D1E
  8
FORM
 10
21.249999986363441
 20
0.7499999996674092
 30
0.0
 40
0.1538461537438154
 50
270.0
 51
0.0
  0
LINE
  5
D1F
  8
FORM
 10
21.249999986363441
 20
0.4423076921797886
 30
0.0
 11
0.7499999996674376
 21
0.442307692179778
 31
0.0
  0
LINE
  5
D20
  8
FORM
 10
21.249999986363441
 20
0.4038461537438352
 30
0.0
 11
0.7499999996674376
 21
0.4038461537438245
 31
0.0
  0
LINE
  5
D21
  8
FORM
 10
21.249999986363441
 20
0.2500000000000071
 30
0.0
 11
0.7499999996674376
 21
0.25
 31
0.0
  0
LINE
  5
D22
  8
FORM
 10
21.557692293851069
 20
0.7499999996674092
 30
0.0
 11
21.557692293851069
 21
15.153846144098431
 31
0.0
  0
LINE
  5
D23
  8
FORM
 10
21.59615383228704
 20
0.7499999996674092
 30
0.0
 11
21.59615383228704
 21
15.153846144098431
 31
0.0
  0
LINE
  5
D24
  8
FORM
 10
21.749999986030851
 20
0.7499999996674092
 30
0.0
 11
21.749999986030851
 21
15.153846144098431
 31
0.0
  0
LINE
  5
D25
  8
FORM
 10
21.249999986363441
 20
15.46153845158606
 30
0.0
 11
0.7499999996674376
 21
15.46153845158606
 31
0.0
  0
LINE
  5
D26
  8
FORM
 10
21.249999986363441
 20
15.499999990022021
 30
0.0
 11
0.7499999996674376
 21
15.499999990022021
 31
0.0
  0
LINE
  5
D27
  8
FORM
 10
21.249999986363441
 20
15.653846143765829
 30
0.0
 11
0.7499999996674376
 21
15.653846143765829
 31
0.0
  0
LINE
  5
D28
  8
FORM
 10
0.4423076921798029
 20
0.7499999996674092
 30
0.0
 11
0.4423076921798029
 21
15.153846144098431
 31
0.0
  0
LINE
  5
D29
  8
FORM
 10
0.4038461537438565
 20
0.7499999996674092
 30
0.0
 11
0.4038461537438565
 21
15.153846144098431
 31
0.0
  0
LINE
  5
D2A
  8
FORM
 10
0.25
 20
0.7499999996674092
 30
0.0
 11
0.2500000000000426
 21
15.153846144098431
 31
0.0
  0
LINE
  5
D2B
  8
FORM
  6
CONTINUOUS
 10
16.703251912464879
 20
0.7499999996674092
 30
0.0
 11
21.024913448051631
 21
0.7499999996674092
 31
0.0
  0
LINE
  5
D2C
  8
FORM
  6
CONTINUOUS
 10
21.249999986363441
 20
3.1359173057725931
 30
0.0
 11
21.249999986363441
 21
0.9750865379792159
 31
0.0
  0
ARC
  5
D2D
  8
FORM
  6
CONTINUOUS
 10
21.024913448051631
 20
0.9750865379792159
 30
0.0
 40
0.2250865383118096
 50
270.0
 51
0.0
  0
ARC
  5
D2E
  8
FORM
  6
CONTINUOUS
 10
21.024913448051631
 20
3.1359173057725931
 30
0.0
 40
0.2250865383118096
 50
359.99999999999989
 51
90.0
  0
ARC
  5
D2F
  8
FORM
  6
CONTINUOUS
 10
16.703251912464879
 20
0.9750865379792159
 30
0.0
 40
0.2250865383118096
 50
180.0
 51
270.0
  0
ARC
  5
D30
  8
FORM
  6
CONTINUOUS
 10
16.703251912464879
 20
3.1359173057725931
 30
0.0
 40
0.2250865383118096
 50
90.0
 51
180.0
  0
LINE
  5
E75
  8
0
 10
0.7499999996674376
 20
0.7499999996674092
 30
0.0
 11
0.7499999996674376
 21
1.7499999996674089
 31
0.0
  0
LINE
  5
E76
  8
0
 10
0.7499999996674376
 20
0.8749999996674091
 30
0.0
 11
0.8749999996674375
 21
0.8749999996674091
 31
0.0
  0
LINE
  5
E77
  8
0
 10
0.7499999996674376
 20
0.9999999996674091
 30
0.0
 11
0.9999999996674375
 21
0.9999999996674091
 31
0.0
  0
LINE
  5
E78
  8
0
 10
0.7499999996674376
 20
1.1249999996674089
 30
0.0
 11
0.8749999996674375
 21
1.1249999996674089
 31
0.0
  0
LINE
  5
E79
  8
0
 10
0.7499999996674376
 20
1.2499999996674089
 30
0.0
 11
1.1249999996674369
 21
1.2499999996674089
 31
0.0
  0
LINE
  5
E7A
  8
0
 10
0.7499999996674376
 20
1.3749999996674089
 30
0.0
 11
0.8749999996674375
 21
1.3749999996674089
 31
0.0
  0
LINE
  5
E7B
  8
0
 10
0.7499999996674376
 20
1.4999999996674089
 30
0.0
 11
0.9999999996674375
 21
1.4999999996674089
 31
0.0
  0
LINE
  5
E7C
  8
0
 10
0.7499999996674376
 20
1.6249999996674089
 30
0.0
 11
0.8749999996674375
 21
1.6249999996674089
 31
0.0
  0
LINE
  5
E7D
  8
0
 10
0.7499999996674376
 20
1.7499999996674089
 30
0.0
 11
1.1249999996674369
 21
1.7499999996674089
 31
0.0
  0
LINE
  5
E7E
  8
0
 10
0.7499999996674376
 20
0.7499999996674092
 30
0.0
 11
1.1249999996674369
 21
0.7499999996674092
 31
0.0
  0
TEXT
  5
E7F
  8
0
 10
1.1742687732938739
 20
1.216959438666926
 30
0.0
 40
0.0625
  1
1/2"
  0
TEXT
  5
E80
  8
0
 10
0.9242687732938748
 20
1.091959438666926
 30
0.0
 40
0.0625
  1
3/8"
  0
TEXT
  5
E81
  8
0
 10
1.0492687732938739
 20
0.966959438666926
 30
0.0
 40
0.0625
  1
1/4"
  0
TEXT
  5
E82
  8
0
 10
0.9242687732938748
 20
0.841959438666926
 30
0.0
 40
0.0625
  1
1/8"
  0
TEXT
  5
E83
  8
0
 10
0.9242687732938748
 20
1.341959438666926
 30
0.0
 40
0.0625
  1
5/8"
  0
TEXT
  5
E84
  8
0
 10
1.0492687732938739
 20
1.466959438666926
 30
0.0
 40
0.0625
  1
3/4"
  0
TEXT
  5
E85
  8
0
 10
0.9242687732938748
 20
1.591959438666926
 30
0.0
 40
0.0625
  1
7/8"
  0
TEXT
  5
E86
  8
0
 10
1.1742687732938739
 20
1.716959438666926
 30
0.0
 40
0.0625
  1
1"
  0
ENDSEC
  0
EOF
