  0
SECTION
  2
HEADER
  9
$ACADVER
  1
AC1009
  9
$INSBASE
 10
0.0
 20
0.0
 30
0.0
  9
$EXTMIN
 10
0.0
 20
0.0
 30
0.0
  9
$EXTMAX
 10
44.0
 20
34.0
 30
0.0
  9
$LIMMIN
 10
0.0
 20
0.0
  9
$LIMMAX
 10
12.0
 20
9.0
  9
$ORTHOMODE
 70
     0
  9
$REGENMODE
 70
     1
  9
$FILLMODE
 70
     1
  9
$QTEXTMODE
 70
     0
  9
$MIRRTEXT
 70
     1
  9
$DRAGMODE
 70
     2
  9
$LTSCALE
 40
1.0
  9
$OSMODE
 70
    39
  9
$ATTMODE
 70
     1
  9
$TEXTSIZE
 40
0.1875
  9
$TRACEWID
 40
0.05
  9
$TEXTSTYLE
  7
STANDARD
  9
$CLAYER
  8
0
  9
$CELTYPE
  6
BYLAYER
  9
$CECOLOR
 62
   256
  9
$DIMSCALE
 40
1.0
  9
$DIMASZ
 40
0.25
  9
$DIMEXO
 40
0.0625
  9
$DIMDLI
 40
0.38
  9
$DIMRND
 40
0.0
  9
$DIMDLE
 40
0.0
  9
$DIMEXE
 40
0.0625
  9
$DIMTP
 40
0.0
  9
$DIMTM
 40
0.0
  9
$DIMTXT
 40
0.25
  9
$DIMCEN
 40
0.0
  9
$DIMTSZ
 40
0.0
  9
$DIMTOL
 70
     0
  9
$DIMLIM
 70
     0
  9
$DIMTIH
 70
     1
  9
$DIMTOH
 70
     1
  9
$DIMSE1
 70
     0
  9
$DIMSE2
 70
     0
  9
$DIMTAD
 70
     0
  9
$DIMZIN
 70
     0
  9
$DIMBLK
  1

  9
$DIMASO
 70
     1
  9
$DIMSHO
 70
     1
  9
$DIMPOST
  1

  9
$DIMAPOST
  1

  9
$DIMALT
 70
     0
  9
$DIMALTD
 70
     2
  9
$DIMALTF
 40
25.399999999999999
  9
$DIMLFAC
 40
1.0
  9
$DIMTOFL
 70
     0
  9
$DIMTVP
 40
0.0
  9
$DIMTIX
 70
     0
  9
$DIMSOXD
 70
     0
  9
$DIMSAH
 70
     0
  9
$DIMBLK1
  1

  9
$DIMBLK2
  1

  9
$DIMSTYLE
  2
STANDARD
  9
$DIMCLRD
 70
     0
  9
$DIMCLRE
 70
     0
  9
$DIMCLRT
 70
     0
  9
$DIMTFAC
 40
1.0
  9
$DIMGAP
 40
0.09
  9
$LUNITS
 70
     2
  9
$LUPREC
 70
     7
  9
$SKETCHINC
 40
0.1
  9
$FILLETRAD
 40
0.182882812499999
  9
$AUNITS
 70
     0
  9
$AUPREC
 70
     8
  9
$MENU
  1
.
  9
$ELEVATION
 40
0.0
  9
$PELEVATION
 40
0.0
  9
$THICKNESS
 40
0.0
  9
$LIMCHECK
 70
     0
  9
$BLIPMODE
 70
     0
  9
$CHAMFERA
 40
0.0
  9
$CHAMFERB
 40
0.0
  9
$SKPOLY
 70
     0
  9
$TDCREATE
 40
2453087.3875628472
  9
$TDUPDATE
 40
2453462.5838988312
  9
$TDINDWG
 40
0.1445948032
  9
$TDUSRTIMER
 40
0.1445948032
  9
$USRTIMER
 70
     1
  9
$ANGBASE
 50
0.0
  9
$ANGDIR
 70
     0
  9
$PDMODE
 70
     0
  9
$PDSIZE
 40
0.0
  9
$PLINEWID
 40
0.0
  9
$COORDS
 70
     0
  9
$SPLFRAME
 70
     0
  9
$SPLINETYPE
 70
     6
  9
$SPLINESEGS
 70
     8
  9
$ATTDIA
 70
     0
  9
$ATTREQ
 70
     1
  9
$HANDLING
 70
     1
  9
$HANDSEED
  5
1DC2
  9
$SURFTAB1
 70
     6
  9
$SURFTAB2
 70
     6
  9
$SURFTYPE
 70
     6
  9
$SURFU
 70
     6
  9
$SURFV
 70
     6
  9
$UCSNAME
  2

  9
$UCSORG
 10
0.0
 20
0.0
 30
0.0
  9
$UCSXDIR
 10
1.0
 20
0.0
 30
0.0
  9
$UCSYDIR
 10
0.0
 20
1.0
 30
0.0
  9
$PUCSNAME
  2

  9
$PUCSORG
 10
0.0
 20
0.0
 30
0.0
  9
$PUCSXDIR
 10
1.0
 20
0.0
 30
0.0
  9
$PUCSYDIR
 10
0.0
 20
1.0
 30
0.0
  9
$USERI1
 70
     0
  9
$USERI2
 70
     0
  9
$USERI3
 70
     0
  9
$USERI4
 70
     0
  9
$USERI5
 70
     0
  9
$USERR1
 40
0.0
  9
$USERR2
 40
0.0
  9
$USERR3
 40
0.0
  9
$USERR4
 40
0.0
  9
$USERR5
 40
0.0
  9
$WORLDVIEW
 70
     1
  9
$SHADEDGE
 70
     3
  9
$SHADEDIF
 70
    70
  9
$TILEMODE
 70
     1
  9
$MAXACTVP
 70
    64
  9
$PLIMCHECK
 70
     0
  9
$PEXTMIN
 10
1.0000000000000000E+020
 20
1.0000000000000000E+020
 30
1.0000000000000000E+020
  9
$PEXTMAX
 10
-1.0000000000000000E+020
 20
-1.0000000000000000E+020
 30
-1.0000000000000000E+020
  9
$PLIMMIN
 10
0.0
 20
0.0
  9
$PLIMMAX
 10
12.0
 20
9.0
  9
$UNITMODE
 70
     0
  9
$VISRETAIN
 70
     1
  9
$PLINEGEN
 70
     0
  9
$PSLTSCALE
 70
     1
  0
ENDSEC
  0
SECTION
  2
TABLES
  0
TABLE
  2
VPORT
 70
     2
  0
VPORT
  2
*ACTIVE
 70
     0
 10
0.0
 20
0.0
 11
1.0
 21
1.0
 12
21.99816241061308
 22
17.001370510613761
 13
0.0
 23
0.0
 14
0.5
 24
0.5
 15
0.5
 25
0.5
 16
0.0
 26
0.0
 36
1.0
 17
0.0
 27
0.0
 37
0.0
 40
34.437889211914431
 41
2.1727078891257992
 42
50.0
 43
0.0
 44
0.0
 50
0.0
 51
0.0
 71
     0
 72
 20000
 73
     1
 74
     2
 75
     0
 76
     0
 77
     0
 78
     0
  0
ENDTAB
  0
TABLE
  2
LTYPE
 70
     3
  0
LTYPE
  2
CONTINUOUS
 70
     0
  3
Solid line
 72
    65
 73
     0
 40
0.0
  0
LTYPE
  2
HIDDEN
 70
     0
  3
Hidden __ __ __ __ __ __ __ __ __ __ __ __ __ _
 72
    65
 73
     2
 40
0.375
 49
0.25
 49
-0.125
  0
LTYPE
  2
CENTER
 70
     0
  3
Center ____ _ ____ _ ____ _ ____ _ ____ _ ____
 72
    65
 73
     4
 40
2.0
 49
1.25
 49
-0.25
 49
0.25
 49
-0.25
  0
ENDTAB
  0
TABLE
  2
LAYER
 70
     5
  0
LAYER
  2
0
 70
     0
 62
     7
  6
CONTINUOUS
  0
LAYER
  2
FORM
 70
     0
 62
     5
  6
CONTINUOUS
  0
LAYER
  2
LEG_-_OUTER
 70
     0
 62
     7
  6
CONTINUOUS
  0
LAYER
  2
DIMENSIONS
 70
     0
 62
     1
  6
CONTINUOUS
  0
LAYER
  2
DEFPOINTS
 70
     0
 62
     7
  6
CONTINUOUS
  0
ENDTAB
  0
TABLE
  2
STYLE
 70
     1
  0
STYLE
  2
STANDARD
 70
     0
 40
0.0
 41
1.0
 50
0.0
 71
     0
 42
0.1875
  3
simplex.shx
  4

  0
ENDTAB
  0
TABLE
  2
VIEW
 70
     0
  0
ENDTAB
  0
TABLE
  2
UCS
 70
     0
  0
ENDTAB
  0
TABLE
  2
APPID
 70
     2
  0
APPID
  2
ACAD
 70
     0
  0
APPID
  2
DCO15
 70
     0
  0
ENDTAB
  0
TABLE
  2
DIMSTYLE
 70
     1
  0
DIMSTYLE
  2
STANDARD
 70
     0
  3

  4

  5

  6

  7

 40
1.0
 41
0.25
 42
0.0625
 43
0.38
 44
0.0625
 45
0.0
 46
0.0
 47
0.0
 48
0.0
140
0.25
141
0.0
142
0.0
143
25.399999999999999
144
1.0
145
0.0
146
1.0
147
0.09
 71
     0
 72
     0
 73
     1
 74
     1
 75
     0
 76
     0
 77
     0
 78
     0
170
     0
171
     2
172
     0
173
     0
174
     0
175
     0
176
     0
177
     0
178
     0
  0
ENDTAB
  0
ENDSEC
  0
SECTION
  2
BLOCKS
  0
BLOCK
  8
0
  2
$MODEL_SPACE
 70
     0
 10
0.0
 20
0.0
 30
0.0
  3
$MODEL_SPACE
  1

  0
ENDBLK
  5
21
  8
0
  0
BLOCK
 67
     1
  8
0
  2
$PAPER_SPACE
 70
     0
 10
0.0
 20
0.0
 30
0.0
  3
$PAPER_SPACE
  1

  0
ENDBLK
  5
1D
 67
     1
  8
0
  0
ENDSEC
  0
SECTION
  2
ENTITIES
  0
LINE
  5
1241
  8
LEG_-_OUTER
 10
24.278190310552251
 20
21.958174285564962
 30
0.0
 11
29.30319031055225
 21
21.958174285564962
 31
0.0
  0
LINE
  5
1242
  8
LEG_-_OUTER
 10
24.278190310552251
 20
17.583174285564962
 30
0.0
 11
29.30319031055225
 21
17.583174285564962
 31
0.0
  0
LINE
  5
1251
  8
LEG_-_OUTER
 10
8.6204790273424976
 20
15.75817428556496
 30
0.0
 11
6.8704790273424967
 21
15.75817428556496
 31
0.0
  0
LINE
  5
1252
  8
LEG_-_OUTER
 10
8.6204790273424976
 20
23.783174285564961
 30
0.0
 11
6.8704790273424967
 21
23.783174285564961
 31
0.0
  0
LINE
  5
1253
  8
LEG_-_OUTER
 10
6.8704790273424967
 20
15.75817428556496
 30
0.0
 11
6.8704790273424967
 21
23.783174285564961
 31
0.0
  0
LINE
  5
1254
  8
LEG_-_OUTER
 10
8.6204790273424976
 20
15.75817428556496
 30
0.0
 11
8.6204790273424976
 21
23.783174285564961
 31
0.0
  0
LINE
  5
1256
  8
LEG_-_OUTER
 10
31.80319031055225
 20
9.6410375917875442
 30
0.0
 11
29.403190310552251
 21
9.6410375917875442
 31
0.0
  0
LINE
  5
125A
  8
LEG_-_OUTER
 10
22.902954169114651
 20
11.391037591787541
 30
0.0
 11
22.902954169114651
 21
9.6410375917875442
 31
0.0
  0
LINE
  5
125B
  8
LEG_-_OUTER
 10
24.278190310552251
 20
11.391037591787541
 30
0.0
 11
24.278190310552251
 21
11.203537591787541
 31
0.0
  0
LINE
  5
125C
  8
LEG_-_OUTER
 10
31.80319031055225
 20
11.391037591787541
 30
0.0
 11
29.403190310552251
 21
11.391037591787541
 31
0.0
  0
LINE
  5
125F
  8
LEG_-_OUTER
 10
13.75269031055225
 20
11.391037591787541
 30
0.0
 11
13.75269031055225
 21
9.6410375917875442
 31
0.0
  0
LINE
  5
1267
  8
LEG_-_OUTER
 10
17.765190310552239
 20
15.75817428556496
 30
0.0
 11
22.902954169114651
 21
15.75817428556496
 31
0.0
  0
LINE
  5
1268
  8
LEG_-_OUTER
 10
17.765190310552239
 20
23.783174285564961
 30
0.0
 11
22.902954169114651
 21
23.783174285564961
 31
0.0
  0
LINE
  5
126A
  8
LEG_-_OUTER
 10
22.902954169114651
 20
15.75817428556496
 30
0.0
 11
24.278190310552251
 21
17.583174285564962
 31
0.0
  0
LINE
  5
126B
  8
LEG_-_OUTER
 10
24.278190310552311
 20
21.958174285564962
 30
0.0
 11
22.902954169114651
 21
23.783174285564961
 31
0.0
  0
ARC
  5
126C
  8
LEG_-_OUTER
 10
17.765190310552239
 20
19.770674285564962
 30
0.0
 40
4.0125000000000002
 50
90.0
 51
270.0
  0
LINE
  5
1364
  8
LEG_-_OUTER
 10
31.80319031055225
 20
21.958174285564962
 30
0.0
 11
31.80319031055225
 21
17.583174285564962
 31
0.0
  0
LINE
  5
1365
  8
LEG_-_OUTER
  6
HIDDEN
 10
23.879473519453342
 20
21.86417428556495
 30
0.0
 11
22.90437336442292
 21
23.15817589685928
 31
0.0
  0
LINE
  5
1366
  8
LEG_-_OUTER
  6
HIDDEN
 10
22.90437336442292
 20
16.383172674270629
 30
0.0
 11
23.879473519453342
 21
17.677174285564959
 31
0.0
  0
LINE
  5
1368
  8
LEG_-_OUTER
  6
HIDDEN
 10
23.879473519453342
 20
17.677174285564959
 30
0.0
 11
24.653190310552251
 21
17.677174285564959
 31
0.0
  0
LINE
  5
1369
  8
LEG_-_OUTER
  6
HIDDEN
 10
23.879473519453342
 20
21.86417428556495
 30
0.0
 11
24.653190310552251
 21
21.86417428556496
 31
0.0
  0
LINE
  5
136A
  8
LEG_-_OUTER
  6
HIDDEN
 10
24.653190310552251
 20
17.583174285564962
 30
0.0
 11
24.653190310552251
 21
17.677174285564959
 31
0.0
  0
LINE
  5
136B
  8
LEG_-_OUTER
  6
HIDDEN
 10
24.653190310552251
 20
21.86417428556496
 30
0.0
 11
24.653190310552251
 21
21.958174285564962
 31
0.0
  0
LINE
  5
136C
  8
LEG_-_OUTER
 10
29.30319031055225
 20
21.958174285564962
 30
0.0
 11
29.30319031055225
 21
17.583174285564962
 31
0.0
  0
LINE
  5
136D
  8
LEG_-_OUTER
 10
29.403190310552251
 20
21.958174285564962
 30
0.0
 11
29.403190310552251
 21
17.583174285564962
 31
0.0
  0
LINE
  5
136E
  8
LEG_-_OUTER
 10
24.653190310552251
 20
9.8285375917875442
 30
0.0
 11
23.203622235105652
 21
9.8285375917875442
 31
0.0
  0
LINE
  5
136F
  8
LEG_-_OUTER
 10
24.653190310552251
 20
11.203537591787541
 30
0.0
 11
23.203622235105652
 21
11.203537591787541
 31
0.0
  0
LINE
  5
1370
  8
LEG_-_OUTER
 10
24.653190310552251
 20
11.203537591787541
 30
0.0
 11
24.653190310552251
 21
9.8285375917875442
 31
0.0
  0
LINE
  5
1371
  8
LEG_-_OUTER
 10
24.278190310552251
 20
9.8285375917875442
 30
0.0
 11
24.278190310552251
 21
9.6410375917875442
 31
0.0
  0
LINE
  5
1372
  8
LEG_-_OUTER
 10
23.879473519453342
 20
11.203537591787541
 30
0.0
 11
23.879473519453342
 21
9.8285375917875442
 31
0.0
  0
LINE
  5
1375
  8
LEG_-_OUTER
 10
31.80319031055225
 20
11.391037591787541
 30
0.0
 11
31.80319031055225
 21
9.6410375917875442
 31
0.0
  0
LINE
  5
1376
  8
LEG_-_OUTER
 10
29.403190310552251
 20
11.391037591787541
 30
0.0
 11
29.403190310552251
 21
9.6410375917875442
 31
0.0
  0
LINE
  5
1377
  8
LEG_-_OUTER
 10
29.30319031055225
 20
11.391037591787541
 30
0.0
 11
29.30319031055225
 21
9.6410375917875442
 31
0.0
  0
LINE
  5
137D
  8
LEG_-_OUTER
 10
23.203622235105652
 20
11.203537591787541
 30
0.0
 11
23.203622235105652
 21
9.8285375917875442
 31
0.0
  0
LINE
  5
139E
  8
DIMENSIONS
 10
24.715690310552251
 20
9.8285375917875442
 30
0.0
 11
25.715690310552251
 21
9.8285375917875442
 31
0.0
  0
LINE
  5
139F
  8
DIMENSIONS
 10
24.715690310552251
 20
11.203537591787541
 30
0.0
 11
25.715690310552251
 21
11.203537591787541
 31
0.0
  0
LINE
  5
13A0
  8
DIMENSIONS
 10
25.653190310552251
 20
10.078537591787541
 30
0.0
 11
25.653190310552251
 21
10.301037591787541
 31
0.0
  0
LINE
  5
13A1
  8
DIMENSIONS
 10
25.653190310552251
 20
10.953537591787541
 30
0.0
 11
25.653190310552251
 21
10.73103759178754
 31
0.0
  0
SOLID
  5
13A2
  8
DIMENSIONS
 10
25.61152364388559
 20
10.078537591787541
 30
0.0
 11
25.694856977218912
 21
10.078537591787541
 31
0.0
 12
25.653190310552251
 22
9.8285375917875442
 32
0.0
 13
25.653190310552251
 23
9.8285375917875442
 33
0.0
  0
SOLID
  5
13A3
  8
DIMENSIONS
 10
25.61152364388559
 20
10.953537591787541
 30
0.0
 11
25.694856977218912
 21
10.953537591787541
 31
0.0
 12
25.653190310552251
 22
11.203537591787541
 32
0.0
 13
25.653190310552251
 23
11.203537591787541
 33
0.0
  0
LINE
  5
13A5
  8
DIMENSIONS
 10
24.715690310552251
 20
9.8285375917875442
 30
0.0
 11
25.715690310552251
 21
9.8285375917875442
 31
0.0
  0
LINE
  5
13A6
  8
DIMENSIONS
 10
24.340690310552251
 20
9.6410375917875442
 30
0.0
 11
25.715690310552251
 21
9.6410375917875442
 31
0.0
  0
LINE
  5
13A7
  8
DIMENSIONS
 10
25.653190310552251
 20
10.078537591787541
 30
0.0
 11
25.653190310552251
 21
10.328537591787541
 31
0.0
  0
LINE
  5
13A8
  8
DIMENSIONS
 10
25.653190310552251
 20
9.3910375917875442
 30
0.0
 11
25.653190310552251
 21
9.1410375917875442
 31
0.0
  0
LINE
  5
13A9
  8
DIMENSIONS
 10
25.903190310552251
 20
9.1410375917875442
 30
0.0
 11
25.653190310552251
 21
9.1410375917875442
 31
0.0
  0
SOLID
  5
13AA
  8
DIMENSIONS
 10
25.61152364388559
 20
10.078537591787541
 30
0.0
 11
25.694856977218912
 21
10.078537591787541
 31
0.0
 12
25.653190310552251
 22
9.8285375917875442
 32
0.0
 13
25.653190310552251
 23
9.8285375917875442
 33
0.0
  0
SOLID
  5
13AB
  8
DIMENSIONS
 10
25.61152364388559
 20
9.3910375917875442
 30
0.0
 11
25.694856977218912
 21
9.3910375917875442
 31
0.0
 12
25.653190310552251
 22
9.6410375917875442
 32
0.0
 13
25.653190310552251
 23
9.6410375917875442
 33
0.0
  0
TEXT
  5
13AD
  8
DIMENSIONS
 10
25.176999834361769
 20
10.391037591787541
 30
0.0
 40
0.25
  1
1.375
  0
TEXT
  5
13AE
  8
DIMENSIONS
 10
26.00059688030333
 20
9.0160375917875477
 30
0.0
 40
0.25
  1
0.188
  0
LINE
  5
13C0
  8
DIMENSIONS
 10
17.211984623974299
 20
15.75817428556496
 30
0.0
 11
12.69019031055222
 21
15.75817428556496
 31
0.0
  0
LINE
  5
13C1
  8
DIMENSIONS
 10
13.44019031055222
 20
19.770674285564962
 30
0.0
 11
12.69019031055222
 21
19.770674285564962
 31
0.0
  0
LINE
  5
13C2
  8
DIMENSIONS
 10
12.75269031055222
 20
16.008174285564959
 30
0.0
 11
12.75269031055222
 21
17.54942428556496
 31
0.0
  0
LINE
  5
13C3
  8
DIMENSIONS
 10
12.75269031055222
 20
19.520674285564962
 30
0.0
 11
12.75269031055222
 21
17.97942428556496
 31
0.0
  0
SOLID
  5
13C4
  8
DIMENSIONS
 10
12.71102364388557
 20
16.008174285564959
 30
0.0
 11
12.794356977218911
 21
16.008174285564959
 31
0.0
 12
12.75269031055222
 22
15.75817428556496
 32
0.0
 13
12.75269031055222
 23
15.75817428556496
 33
0.0
  0
SOLID
  5
13C5
  8
DIMENSIONS
 10
12.71102364388557
 20
19.520674285564962
 30
0.0
 11
12.794356977218911
 21
19.520674285564962
 31
0.0
 12
12.75269031055222
 22
19.770674285564962
 32
0.0
 13
12.75269031055222
 23
19.770674285564962
 33
0.0
  0
TEXT
  5
13C7
  8
DIMENSIONS
 10
12.27649983436174
 20
17.63942428556496
 30
0.0
 40
0.25
  1
4.013
  0
LINE
  5
13F6
  8
DIMENSIONS
 10
8.6829790273424976
 20
15.75817428556496
 30
0.0
 11
9.6829790273424976
 21
15.75817428556496
 31
0.0
  0
LINE
  5
13F7
  8
DIMENSIONS
 10
8.6829790273424976
 20
23.783174285564961
 30
0.0
 11
9.6829790273424976
 21
23.783174285564961
 31
0.0
  0
LINE
  5
13F8
  8
DIMENSIONS
 10
9.6204790273424976
 20
16.008174285564959
 30
0.0
 11
9.6204790273424976
 21
19.555674285564962
 31
0.0
  0
LINE
  5
13F9
  8
DIMENSIONS
 10
9.6204790273424976
 20
23.53317428556495
 30
0.0
 11
9.6204790273424976
 21
19.985674285564961
 31
0.0
  0
SOLID
  5
13FA
  8
DIMENSIONS
 10
9.5788123606758102
 20
16.008174285564959
 30
0.0
 11
9.6621456940091548
 21
16.008174285564959
 31
0.0
 12
9.6204790273424976
 22
15.75817428556496
 32
0.0
 13
9.6204790273424976
 23
15.75817428556496
 33
0.0
  0
SOLID
  5
13FB
  8
DIMENSIONS
 10
9.5788123606758102
 20
23.53317428556495
 30
0.0
 11
9.6621456940091548
 21
23.53317428556495
 31
0.0
 12
9.6204790273424976
 22
23.783174285564961
 32
0.0
 13
9.6204790273424976
 23
23.783174285564961
 33
0.0
  0
LINE
  5
13FD
  8
DIMENSIONS
 10
6.8704790273424967
 20
15.69567428556496
 30
0.0
 11
6.8704790273424967
 21
14.69567428556496
 31
0.0
  0
LINE
  5
13FE
  8
DIMENSIONS
 10
8.6204790273424976
 20
15.69567428556496
 30
0.0
 11
8.6204790273424976
 21
14.69567428556496
 31
0.0
  0
LINE
  5
13FF
  8
DIMENSIONS
 10
6.6204790273424967
 20
14.75817428556496
 30
0.0
 11
6.3704790273424967
 21
14.75817428556496
 31
0.0
  0
LINE
  5
1400
  8
DIMENSIONS
 10
8.8704790273424976
 20
14.75817428556496
 30
0.0
 11
9.1204790273424976
 21
14.75817428556496
 31
0.0
  0
SOLID
  5
1401
  8
DIMENSIONS
 10
6.6204790273424967
 20
14.799840952231619
 30
0.0
 11
6.6204790273424967
 21
14.716507618898291
 31
0.0
 12
6.8704790273424967
 22
14.75817428556496
 32
0.0
 13
6.8704790273424967
 23
14.75817428556496
 33
0.0
  0
SOLID
  5
1402
  8
DIMENSIONS
 10
8.8704790273424976
 20
14.799840952231619
 30
0.0
 11
8.8704790273424976
 21
14.716507618898291
 31
0.0
 12
8.6204790273424976
 22
14.75817428556496
 32
0.0
 13
8.6204790273424976
 23
14.75817428556496
 33
0.0
  0
LINE
  5
1404
  8
DIMENSIONS
 10
17.765190310552239
 20
15.44567428556496
 30
0.0
 11
17.765190310552239
 21
14.69567428556496
 31
0.0
  0
LINE
  5
1405
  8
DIMENSIONS
 10
13.75269031055222
 20
19.248413953179458
 30
0.0
 11
13.75269031055222
 21
14.69567428556496
 31
0.0
  0
LINE
  5
1406
  8
DIMENSIONS
 10
17.515190310552239
 20
14.75817428556496
 30
0.0
 11
16.325130786742701
 21
14.75817428556496
 31
0.0
  0
LINE
  5
1407
  8
DIMENSIONS
 10
14.00269031055222
 20
14.75817428556496
 30
0.0
 11
15.192749834361759
 21
14.75817428556496
 31
0.0
  0
SOLID
  5
1408
  8
DIMENSIONS
 10
17.515190310552239
 20
14.799840952231619
 30
0.0
 11
17.515190310552239
 21
14.716507618898291
 31
0.0
 12
17.765190310552239
 22
14.75817428556496
 32
0.0
 13
17.765190310552239
 23
14.75817428556496
 33
0.0
  0
SOLID
  5
1409
  8
DIMENSIONS
 10
14.00269031055222
 20
14.799840952231619
 30
0.0
 11
14.00269031055222
 21
14.716507618898291
 31
0.0
 12
13.75269031055222
 22
14.75817428556496
 32
0.0
 13
13.75269031055222
 23
14.75817428556496
 33
0.0
  0
TEXT
  5
140B
  8
DIMENSIONS
 10
7.2692885511520151
 20
14.63317428556496
 30
0.0
 40
0.25
  1
1.750
  0
TEXT
  5
140C
  8
DIMENSIONS
 10
9.1204790273424692
 20
19.645674285564951
 30
0.0
 40
0.25
  1
8.025
  0
TEXT
  5
140D
  8
DIMENSIONS
 10
15.282749834361759
 20
14.63317428556496
 30
0.0
 40
0.25
  1
4.013
  0
LINE
  5
1432
  8
DIMENSIONS
 10
17.765190310552239
 20
15.44567428556496
 30
0.0
 11
17.765190310552239
 21
14.69567428556496
 31
0.0
  0
LINE
  5
1433
  8
DIMENSIONS
 10
24.278190310552251
 20
17.520674285564962
 30
0.0
 11
24.278190310552251
 21
14.69567428556496
 31
0.0
  0
LINE
  5
1434
  8
DIMENSIONS
 10
18.015190310552239
 20
14.75817428556496
 30
0.0
 11
20.455499834361781
 21
14.75817428556496
 31
0.0
  0
LINE
  5
1435
  8
DIMENSIONS
 10
24.028190310552251
 20
14.75817428556496
 30
0.0
 11
21.587880786742708
 21
14.75817428556496
 31
0.0
  0
SOLID
  5
1436
  8
DIMENSIONS
 10
18.015190310552239
 20
14.799840952231619
 30
0.0
 11
18.015190310552239
 21
14.716507618898291
 31
0.0
 12
17.765190310552239
 22
14.75817428556496
 32
0.0
 13
17.765190310552239
 23
14.75817428556496
 33
0.0
  0
SOLID
  5
1437
  8
DIMENSIONS
 10
24.028190310552251
 20
14.799840952231619
 30
0.0
 11
24.028190310552251
 21
14.716507618898291
 31
0.0
 12
24.278190310552251
 22
14.75817428556496
 32
0.0
 13
24.278190310552251
 23
14.75817428556496
 33
0.0
  0
TEXT
  5
1439
  8
DIMENSIONS
 10
20.545499834361781
 20
14.63317428556496
 30
0.0
 40
0.25
  1
6.513
  0
LINE
  5
1449
  8
DIMENSIONS
 10
31.80319031055225
 20
11.453537591787541
 30
0.0
 11
31.80319031055225
 21
12.453537591787541
 31
0.0
  0
LINE
  5
144A
  8
DIMENSIONS
 10
13.75269031055225
 20
11.453537591787541
 30
0.0
 11
13.75269031055225
 21
12.453537591787541
 31
0.0
  0
LINE
  5
144B
  8
DIMENSIONS
 10
31.55319031055225
 20
12.391037591787541
 30
0.0
 11
23.40960697721891
 21
12.391037591787541
 31
0.0
  0
LINE
  5
144C
  8
DIMENSIONS
 10
14.00269031055225
 20
12.391037591787541
 30
0.0
 11
22.146273643885561
 21
12.391037591787541
 31
0.0
  0
SOLID
  5
144D
  8
DIMENSIONS
 10
31.55319031055225
 20
12.43270425845421
 30
0.0
 11
31.55319031055225
 21
12.34937092512088
 31
0.0
 12
31.80319031055225
 22
12.391037591787541
 32
0.0
 13
31.80319031055225
 23
12.391037591787541
 33
0.0
  0
SOLID
  5
144E
  8
DIMENSIONS
 10
14.00269031055225
 20
12.43270425845421
 30
0.0
 11
14.00269031055225
 21
12.34937092512088
 31
0.0
 12
13.75269031055225
 22
12.391037591787541
 32
0.0
 13
13.75269031055225
 23
12.391037591787541
 33
0.0
  0
TEXT
  5
1450
  8
DIMENSIONS
 10
22.236273643885571
 20
12.266037591787541
 30
0.0
 40
0.25
  1
18.051
  0
LINE
  5
1471
  8
DIMENSIONS
 10
31.86569031055225
 20
17.583174285564962
 30
0.0
 11
32.86569031055226
 21
17.583174285564962
 31
0.0
  0
LINE
  5
1472
  8
DIMENSIONS
 10
22.965454169114651
 20
15.75817428556496
 30
0.0
 11
32.86569031055226
 21
15.75817428556496
 31
0.0
  0
LINE
  5
1473
  8
DIMENSIONS
 10
32.803190310552253
 20
17.333174285564962
 30
0.0
 11
32.803190310552253
 21
16.88567428556496
 31
0.0
  0
LINE
  5
1474
  8
DIMENSIONS
 10
32.803190310552253
 20
16.008174285564959
 30
0.0
 11
32.803190310552253
 21
16.45567428556496
 31
0.0
  0
SOLID
  5
1475
  8
DIMENSIONS
 10
32.761523643885567
 20
17.333174285564962
 30
0.0
 11
32.84485697721891
 21
17.333174285564962
 31
0.0
 12
32.803190310552253
 22
17.583174285564962
 32
0.0
 13
32.803190310552253
 23
17.583174285564962
 33
0.0
  0
SOLID
  5
1476
  8
DIMENSIONS
 10
32.761523643885567
 20
16.008174285564959
 30
0.0
 11
32.84485697721891
 21
16.008174285564959
 31
0.0
 12
32.803190310552253
 22
15.75817428556496
 32
0.0
 13
32.803190310552253
 23
15.75817428556496
 33
0.0
  0
LINE
  5
1478
  8
DIMENSIONS
 10
31.86569031055225
 20
17.583174285564962
 30
0.0
 11
32.86569031055226
 21
17.583174285564962
 31
0.0
  0
LINE
  5
1479
  8
DIMENSIONS
 10
31.86569031055225
 20
21.958174285564962
 30
0.0
 11
32.86569031055226
 21
21.958174285564962
 31
0.0
  0
LINE
  5
147A
  8
DIMENSIONS
 10
32.803190310552253
 20
17.833174285564962
 30
0.0
 11
32.803190310552253
 21
19.555674285564962
 31
0.0
  0
LINE
  5
147B
  8
DIMENSIONS
 10
32.803190310552253
 20
21.708174285564962
 30
0.0
 11
32.803190310552253
 21
19.985674285564961
 31
0.0
  0
SOLID
  5
147C
  8
DIMENSIONS
 10
32.761523643885567
 20
17.833174285564962
 30
0.0
 11
32.84485697721891
 21
17.833174285564962
 31
0.0
 12
32.803190310552253
 22
17.583174285564962
 32
0.0
 13
32.803190310552253
 23
17.583174285564962
 33
0.0
  0
SOLID
  5
147D
  8
DIMENSIONS
 10
32.761523643885567
 20
21.708174285564962
 30
0.0
 11
32.84485697721891
 21
21.708174285564962
 31
0.0
 12
32.803190310552253
 22
21.958174285564962
 32
0.0
 13
32.803190310552253
 23
21.958174285564962
 33
0.0
  0
TEXT
  5
147F
  8
DIMENSIONS
 10
32.326999834361771
 20
16.54567428556496
 30
0.0
 40
0.25
  1
1.825
  0
TEXT
  5
1480
  8
DIMENSIONS
 10
32.30319031055226
 20
19.645674285564962
 30
0.0
 40
0.25
  1
4.375
  0
LINE
  5
148F
  8
DIMENSIONS
 10
24.278190310552251
 20
17.520674285564962
 30
0.0
 11
24.278190310552251
 21
14.69567428556496
 31
0.0
  0
LINE
  5
1490
  8
DIMENSIONS
 10
24.653190310552251
 20
17.520674285564962
 30
0.0
 11
24.653190310552251
 21
14.69567428556496
 31
0.0
  0
LINE
  5
1491
  8
DIMENSIONS
 10
24.028190310552251
 20
14.75817428556496
 30
0.0
 11
23.778190310552251
 21
14.75817428556496
 31
0.0
  0
LINE
  5
1492
  8
DIMENSIONS
 10
24.903190310552251
 20
14.75817428556496
 30
0.0
 11
25.153190310552251
 21
14.75817428556496
 31
0.0
  0
SOLID
  5
1493
  8
DIMENSIONS
 10
24.028190310552251
 20
14.799840952231619
 30
0.0
 11
24.028190310552251
 21
14.716507618898291
 31
0.0
 12
24.278190310552251
 22
14.75817428556496
 32
0.0
 13
24.278190310552251
 23
14.75817428556496
 33
0.0
  0
SOLID
  5
1494
  8
DIMENSIONS
 10
24.903190310552251
 20
14.799840952231619
 30
0.0
 11
24.903190310552251
 21
14.716507618898291
 31
0.0
 12
24.653190310552251
 22
14.75817428556496
 32
0.0
 13
24.653190310552251
 23
14.75817428556496
 33
0.0
  0
TEXT
  5
1496
  8
DIMENSIONS
 10
25.243190310552251
 20
14.63317428556496
 30
0.0
 40
0.25
  1
0.375
  0
LINE
  5
14A7
  8
DIMENSIONS
 10
24.715690310552251
 20
17.677174285564959
 30
0.0
 11
25.715690310552251
 21
17.677174285564959
 31
0.0
  0
LINE
  5
14A9
  8
DIMENSIONS
 10
25.653190310552251
 20
17.927174285564959
 30
0.0
 11
25.653190310552251
 21
18.177174285564959
 31
0.0
  0
LINE
  5
14AA
  8
DIMENSIONS
 10
25.653190310552251
 20
17.333174285564962
 30
0.0
 11
25.653190310552251
 21
17.083174285564962
 31
0.0
  0
LINE
  5
14AB
  8
DIMENSIONS
 10
25.903190310552251
 20
17.083174285564962
 30
0.0
 11
25.653190310552251
 21
17.083174285564962
 31
0.0
  0
SOLID
  5
14AC
  8
DIMENSIONS
 10
25.61152364388559
 20
17.927174285564959
 30
0.0
 11
25.694856977218912
 21
17.927174285564959
 31
0.0
 12
25.653190310552251
 22
17.677174285564959
 32
0.0
 13
25.653190310552251
 23
17.677174285564959
 33
0.0
  0
SOLID
  5
14AD
  8
DIMENSIONS
 10
25.61152364388559
 20
17.333174285564962
 30
0.0
 11
25.694856977218912
 21
17.333174285564962
 31
0.0
 12
25.653190310552251
 22
17.583174285564962
 32
0.0
 13
25.653190310552251
 23
17.583174285564962
 33
0.0
  0
TEXT
  5
14AF
  8
DIMENSIONS
 10
26.027941111155339
 20
16.958174285564962
 30
0.0
 40
0.25
  1
0.094
  0
LINE
  5
14D5
  8
DIMENSIONS
 10
17.765190310552239
 20
24.095674285564961
 30
0.0
 11
17.765190310552239
 21
25.84567428556495
 31
0.0
  0
LINE
  5
14D6
  8
DIMENSIONS
 10
31.80319031055225
 20
22.020674285564962
 30
0.0
 11
31.80319031055225
 21
25.84567428556495
 31
0.0
  0
LINE
  5
14D7
  8
DIMENSIONS
 10
18.015190310552239
 20
25.78317428556495
 30
0.0
 11
24.098952215314139
 21
25.78317428556495
 31
0.0
  0
LINE
  5
14D8
  8
DIMENSIONS
 10
31.55319031055225
 20
25.78317428556495
 30
0.0
 11
25.469428405790332
 21
25.78317428556495
 31
0.0
  0
SOLID
  5
14D9
  8
DIMENSIONS
 10
18.015190310552239
 20
25.824840952231629
 30
0.0
 11
18.015190310552239
 21
25.741507618898279
 31
0.0
 12
17.765190310552239
 22
25.78317428556495
 32
0.0
 13
17.765190310552239
 23
25.78317428556495
 33
0.0
  0
SOLID
  5
14DA
  8
DIMENSIONS
 10
31.55319031055225
 20
25.824840952231629
 30
0.0
 11
31.55319031055225
 21
25.741507618898279
 31
0.0
 12
31.80319031055225
 22
25.78317428556495
 32
0.0
 13
31.80319031055225
 23
25.78317428556495
 33
0.0
  0
TEXT
  5
14DC
  8
DIMENSIONS
 10
24.188952215314149
 20
25.658174285564961
 30
0.0
 40
0.25
  1
14.038
  0
LINE
  5
14FA
  8
DIMENSIONS
 10
29.403190310552251
 20
22.020674285564962
 30
0.0
 11
29.403190310552251
 21
24.84567428556495
 31
0.0
  0
LINE
  5
14FB
  8
DIMENSIONS
 10
29.30319031055225
 20
22.020674285564962
 30
0.0
 11
29.30319031055225
 21
24.84567428556495
 31
0.0
  0
LINE
  5
14FC
  8
DIMENSIONS
 10
29.653190310552251
 20
24.783174285564961
 30
0.0
 11
29.903190310552251
 21
24.783174285564961
 31
0.0
  0
LINE
  5
14FD
  8
DIMENSIONS
 10
29.05319031055226
 20
24.783174285564961
 30
0.0
 11
28.80319031055226
 21
24.783174285564961
 31
0.0
  0
SOLID
  5
14FE
  8
DIMENSIONS
 10
29.653190310552251
 20
24.824840952231629
 30
0.0
 11
29.653190310552251
 21
24.741507618898279
 31
0.0
 12
29.403190310552251
 22
24.783174285564961
 32
0.0
 13
29.403190310552251
 23
24.783174285564961
 33
0.0
  0
SOLID
  5
14FF
  8
DIMENSIONS
 10
29.05319031055226
 20
24.824840952231629
 30
0.0
 11
29.05319031055226
 21
24.741507618898279
 31
0.0
 12
29.30319031055225
 22
24.783174285564961
 32
0.0
 13
29.30319031055225
 23
24.783174285564961
 33
0.0
  0
LINE
  5
1501
  8
DIMENSIONS
 10
31.80319031055225
 20
22.020674285564962
 30
0.0
 11
31.80319031055225
 21
24.84567428556495
 31
0.0
  0
LINE
  5
1502
  8
DIMENSIONS
 10
29.403190310552251
 20
22.020674285564962
 30
0.0
 11
29.403190310552251
 21
24.84567428556495
 31
0.0
  0
LINE
  5
1503
  8
DIMENSIONS
 10
31.55319031055225
 20
24.783174285564961
 30
0.0
 11
31.193190310552239
 21
24.783174285564961
 31
0.0
  0
LINE
  5
1504
  8
DIMENSIONS
 10
29.653190310552251
 20
24.783174285564961
 30
0.0
 11
30.013190310552229
 21
24.783174285564961
 31
0.0
  0
SOLID
  5
1505
  8
DIMENSIONS
 10
31.55319031055225
 20
24.824840952231629
 30
0.0
 11
31.55319031055225
 21
24.741507618898279
 31
0.0
 12
31.80319031055225
 22
24.783174285564961
 32
0.0
 13
31.80319031055225
 23
24.783174285564961
 33
0.0
  0
SOLID
  5
1506
  8
DIMENSIONS
 10
29.653190310552251
 20
24.824840952231629
 30
0.0
 11
29.653190310552251
 21
24.741507618898279
 31
0.0
 12
29.403190310552251
 22
24.783174285564961
 32
0.0
 13
29.403190310552251
 23
24.783174285564961
 33
0.0
  0
TEXT
  5
1508
  8
DIMENSIONS
 10
27.76080935817129
 20
24.65817428556495
 30
0.0
 40
0.25
  1
0.100
  0
TEXT
  5
1509
  8
DIMENSIONS
 10
30.10319031055224
 20
24.65817428556495
 30
0.0
 40
0.25
  1
2.400
  0
LINE
  5
153D
  8
LEG_-_OUTER
  6
HIDDEN
 10
23.203861680690672
 20
23.383856530541308
 30
0.0
 11
22.90437336442292
 21
23.15817589685928
 31
0.0
  0
LINE
  5
154E
  8
DIMENSIONS
 10
22.952868888492588
 20
23.820787724511959
 30
0.0
 11
23.751504398539879
 21
24.422602747664008
 31
0.0
  0
LINE
  5
154F
  8
DIMENSIONS
 10
23.253776400068631
 20
23.42146996948831
 30
0.0
 11
24.052411910115922
 21
24.02328499264037
 31
0.0
  0
LINE
  5
1550
  8
DIMENSIONS
 10
23.55113592337392
 20
24.584648186228829
 30
0.0
 11
23.400682167585899
 21
24.784307063740659
 31
0.0
  0
LINE
  5
1551
  8
DIMENSIONS
 10
24.15295094652598
 20
23.786012676181539
 30
0.0
 11
24.303404702314001
 21
23.586353798669709
 31
0.0
  0
LINE
  5
1552
  8
DIMENSIONS
 10
24.303404702314001
 20
23.586353798669709
 30
0.0
 11
24.553404702314001
 21
23.586353798669709
 31
0.0
  0
SOLID
  5
1553
  8
DIMENSIONS
 10
23.584412402959231
 20
24.60972381219349
 30
0.0
 11
23.517859443788609
 21
24.559572560264161
 31
0.0
 12
23.701589679161941
 22
24.38498930871701
 32
0.0
 13
23.701589679161941
 23
24.38498930871701
 33
0.0
  0
SOLID
  5
1554
  8
DIMENSIONS
 10
24.186227426111291
 20
23.811088302146199
 30
0.0
 11
24.119674466940669
 21
23.760937050216871
 31
0.0
 12
24.002497190737959
 22
23.985671553693361
 32
0.0
 13
24.002497190737959
 23
23.985671553693361
 33
0.0
  0
TEXT
  5
1556
  8
DIMENSIONS
 10
24.643404702313969
 20
23.461353798669709
 30
0.0
 40
0.25
  1
0.500
  0
LINE
  5
1557
  8
LEG_-_OUTER
  6
HIDDEN
 10
23.203861680690672
 20
16.157492040588611
 30
0.0
 11
22.90437336442292
 21
16.383172674270629
 31
0.0
  0
LINE
  5
1568
  8
DIMENSIONS
 10
22.86675992547595
 20
23.208090616237239
 30
0.0
 11
21.656362837066609
 21
24.814341804515202
 31
0.0
  0
LINE
  5
1569
  8
DIMENSIONS
 10
22.193123469793161
 20
25.140561474607281
 30
0.0
 11
22.392782347304969
 21
25.29101523039531
 31
0.0
  0
LINE
  5
156A
  8
DIMENSIONS
 10
21.494317398501781
 20
24.613973329349228
 30
0.0
 11
21.294658520989969
 21
24.463519573561211
 31
0.0
  0
LINE
  5
156B
  8
DIMENSIONS
 10
21.294658520989969
 20
24.463519573561211
 30
0.0
 11
21.044658520989969
 21
24.463519573561211
 31
0.0
  0
SOLID
  5
156C
  8
DIMENSIONS
 10
22.168047843828479
 20
25.173837954192589
 30
0.0
 11
22.218199095757829
 21
25.107284995021988
 31
0.0
 12
21.993464592281331
 22
24.990107718819271
 32
0.0
 13
21.993464592281331
 23
24.990107718819271
 33
0.0
  0
SOLID
  5
156D
  8
DIMENSIONS
 10
21.469241772537121
 20
24.647249808934529
 30
0.0
 11
21.519393024466471
 21
24.580696849763921
 31
0.0
 12
21.693976276013618
 22
24.76442708513725
 32
0.0
 13
21.693976276013618
 23
24.76442708513725
 33
0.0
  0
TEXT
  5
156F
  8
DIMENSIONS
 10
19.954658520989959
 20
24.338519573561221
 30
0.0
 40
0.25
  1
0.375
  0
LINE
  5
1572
  8
DIMENSIONS
 10
22.86534073016762
 20
23.833089004942909
 30
0.0
 11
21.955851153334319
 21
25.04002243819723
 31
0.0
  0
LINE
  5
1575
  8
LEG_-_OUTER
 10
29.403190310552251
 20
9.7035375917875442
 30
0.0
 11
29.30319031055225
 21
9.7035375917875442
 31
0.0
  0
LINE
  5
1576
  8
LEG_-_OUTER
 10
29.403190310552251
 20
11.328537591787541
 30
0.0
 11
29.30319031055225
 21
11.328537591787541
 31
0.0
  0
LINE
  5
1577
  8
LEG_-_OUTER
 10
29.30319031055225
 20
9.6410375917875442
 30
0.0
 11
13.75269031055225
 21
9.6410375917875442
 31
0.0
  0
LINE
  5
1578
  8
LEG_-_OUTER
 10
29.30319031055225
 20
11.391037591787541
 30
0.0
 11
13.75269031055225
 21
11.391037591787541
 31
0.0
  0
LINE
  5
1579
  8
LEG_-_OUTER
 10
29.30319031055225
 20
17.645674285564962
 30
0.0
 11
29.403190310552251
 21
17.645674285564962
 31
0.0
  0
LINE
  5
157A
  8
LEG_-_OUTER
 10
29.30319031055225
 20
21.895674285564962
 30
0.0
 11
29.403190310552251
 21
21.895674285564962
 31
0.0
  0
LINE
  5
157B
  8
LEG_-_OUTER
 10
29.403190310552251
 20
21.958174285564962
 30
0.0
 11
31.80319031055225
 21
21.958174285564962
 31
0.0
  0
LINE
  5
157C
  8
LEG_-_OUTER
 10
29.403190310552251
 20
17.583174285564962
 30
0.0
 11
31.80319031055225
 21
17.583174285564962
 31
0.0
  0
LINE
  5
15A6
  8
DIMENSIONS
 10
29.24069031055225
 20
21.895674285564962
 30
0.0
 11
28.24069031055226
 21
21.895674285564962
 31
0.0
  0
LINE
  5
15A7
  8
DIMENSIONS
 10
28.30319031055225
 20
22.208174285564962
 30
0.0
 11
28.30319031055225
 21
22.609648249297269
 31
0.0
  0
LINE
  5
15A8
  8
DIMENSIONS
 10
28.30319031055225
 20
21.645674285564962
 30
0.0
 11
28.30319031055225
 21
21.395674285564962
 31
0.0
  0
LINE
  5
15A9
  8
DIMENSIONS
 10
28.30319031055225
 20
22.609648249297269
 30
0.0
 11
28.05319031055225
 21
22.609648249297269
 31
0.0
  0
SOLID
  5
15AA
  8
DIMENSIONS
 10
28.261523643885571
 20
22.208174285564962
 30
0.0
 11
28.34485697721891
 21
22.208174285564962
 31
0.0
 12
28.30319031055225
 22
21.958174285564962
 32
0.0
 13
28.30319031055225
 23
21.958174285564962
 33
0.0
  0
SOLID
  5
15AB
  8
DIMENSIONS
 10
28.261523643885571
 20
21.645674285564962
 30
0.0
 11
28.34485697721891
 21
21.645674285564962
 31
0.0
 12
28.30319031055225
 22
21.895674285564962
 32
0.0
 13
28.30319031055225
 23
21.895674285564962
 33
0.0
  0
TEXT
  5
15AD
  8
DIMENSIONS
 10
25.219140223972492
 20
22.48464824929728
 30
0.0
 40
0.25
  1
0.062 TYPICAL
  0
LINE
  5
15B9
  8
DIMENSIONS
 10
17.765190310552239
 20
19.770674285564962
 30
0.0
 11
16.641830414844382
 21
20.873736927032919
 31
0.0
  0
LINE
  5
15BA
  8
DIMENSIONS
 10
15.08055816765704
 20
22.40679956850088
 30
0.0
 11
16.20391806336491
 21
21.303736927032919
 31
0.0
  0
SOLID
  5
15BB
  8
DIMENSIONS
 10
15.10975113867516
 20
22.436529714047889
 30
0.0
 11
15.051365196638921
 21
22.37706942295387
 31
0.0
 12
14.90217729437498
 22
22.581957394609571
 32
0.0
 13
14.90217729437498
 23
22.581957394609571
 33
0.0
  0
TEXT
  5
15BD
  8
DIMENSIONS
 10
15.821683762914169
 20
20.963736927032919
 30
0.0
 40
0.25
  1
R4.013
  0
ARC
  5
15CE
  8
DIMENSIONS
 10
24.278190310552251
 20
17.583174285564951
 30
0.0
 40
1.2150081387736991
 50
209.2520225195901
 51
232.9999999999998
  0
LINE
  5
15CF
  8
DIMENSIONS
 10
23.218121518210811
 20
16.98945807996661
 30
0.0
 11
22.968121518210811
 21
16.98945807996661
 31
0.0
  0
ARC
  5
15D0
  8
DIMENSIONS
 10
24.278190310552251
 20
17.583174285564962
 30
0.0
 40
1.2150081387736991
 50
209.3798551451668
 51
221.18992757258329
  0
ARC
  5
15D1
  8
DIMENSIONS
 10
24.278190310552251
 20
17.583174285564962
 30
0.0
 40
1.2150081387736991
 50
281.81007242741651
 51
293.62014485483309
  0
SOLID
  5
15D2
  8
DIMENSIONS
 10
23.39222544630783
 20
16.813542082450571
 30
0.0
 11
23.33549334166122
 21
16.752501827316671
 31
0.0
 12
23.546980159386209
 22
16.612825640943811
 32
0.0
 13
23.546980159386209
 23
16.612825640943811
 33
0.0
  0
SOLID
  5
15D3
  8
DIMENSIONS
 10
24.531150420430091
 20
16.352440565031081
 30
0.0
 11
24.52257708965621
 21
16.435331713194721
 31
0.0
 12
24.278190310552251
 22
16.36816614679125
 32
0.0
 13
24.278190310552251
 23
16.36816614679125
 33
0.0
  0
TEXT
  5
15D5
  8
DIMENSIONS
 10
22.354311994401289
 20
16.86445807996661
 30
0.0
 40
0.25
  1
37°
  0
LINE
  5
15EE
  8
LEG_-_OUTER
  6
CENTER
 10
8.8704790273424976
 20
19.770674285564962
 30
0.0
 11
6.6204790273424967
 21
19.770674285564962
 31
0.0
  0
LINE
  5
15F5
  8
LEG_-_OUTER
  6
CENTER
 10
17.765190310552239
 20
11.641037591787541
 30
0.0
 11
17.765190310552239
 21
9.3910375917875442
 31
0.0
  0
LINE
  5
15F9
  8
LEG_-_OUTER
  6
CENTER
 10
13.50269031055222
 20
19.770674285564962
 30
0.0
 11
32.053190310552253
 21
19.770674285564962
 31
0.0
  0
LINE
  5
15FA
  8
LEG_-_OUTER
  6
CENTER
 10
17.765190310552239
 20
24.033174285564961
 30
0.0
 11
17.765190310552239
 21
15.50817428556496
 31
0.0
  0
LINE
  5
15FC
  8
LEG_-_OUTER
 10
17.765190310552239
 20
24.033174285564961
 30
0.0
 11
17.765190310552239
 21
24.033174285564961
 31
0.0
  0
TEXT
  5
19BE
  8
0
  6
CONTINUOUS
 10
84.570077469927057
 20
22.707515821340809
 30
0.0
 40
0.12
  1
 
 51
7.0
  0
TEXT
  5
19BF
  8
0
  6
CONTINUOUS
 10
97.014174235406955
 20
29.77039025107247
 30
0.0
 40
0.24
  1
 
 51
7.0
  0
TEXT
  5
19C0
  8
0
  6
CONTINUOUS
 10
106.2239392473202
 20
29.450380264495379
 30
0.0
 40
0.24
  1
 
 51
7.0
  0
TEXT
  5
19C1
  8
0
  6
CONTINUOUS
 10
116.0278987317529
 20
12.587799464968059
 30
0.0
 40
0.24
  1
 
 51
7.0
  0
LINE
  5
19D8
  8
FORM
 10
43.041208788750033
 20
1.2738095237500171
 30
0.0
 11
43.041208788750033
 21
30.47619047625
 31
0.0
  0
LINE
  5
19D9
  8
FORM
 10
42.726190473750037
 20
30.79120879125
 30
0.0
 11
1.2738095237500311
 21
30.79120879125
 31
0.0
  0
LINE
  5
19DA
  8
FORM
 10
42.726190473750037
 20
0.9587912087500357
 30
0.0
 11
1.2738095237500311
 21
0.9587912087500178
 31
0.0
  0
LINE
  5
19DB
  8
FORM
 10
0.9587912087500569
 20
1.2738095237500171
 30
0.0
 11
0.9587912087500569
 21
30.47619047625
 31
0.0
  0
TEXT
  5
19DC
  8
FORM
 10
37.410275980411463
 20
5.206275420631246
 30
0.0
 40
0.5334392170019531
  1
OUTER
 72
     1
 11
38.616864685534921
 21
5.206275420631246
 31
0.0
  0
TEXT
  5
19DD
  8
FORM
 10
37.969117064889701
 20
4.0776460783213357
 30
0.0
 40
0.5334392170019531
  1
LEG
 72
     1
 11
38.616864685534921
 21
4.0776460783213357
 31
0.0
  0
TEXT
  5
19DE
  8
FORM
 10
33.49885480611826
 20
2.0268467705730191
 30
0.0
 40
0.5334392170019531
  1
ASTROMECH DROID
  0
TEXT
  5
19DF
  8
FORM
 10
41.921886517477049
 20
2.0475849221067111
 30
0.0
 40
0.5334392170019531
  1
A
  0
TEXT
  5
19E0
  8
FORM
 10
34.544847194814992
 20
1.4041843246072041
 30
0.0
 40
0.2133756868007812
  1
FULL
  0
TEXT
  5
19E1
  8
FORM
 10
41.38147923468091
 20
1.4101568300009391
 30
0.0
 40
0.2133756868007812
  1
1   1
  0
TEXT
  5
19E2
  8
FORM
 10
37.847479070745841
 20
1.4266399292710359
 30
0.0
 40
0.2133756868007812
  1
APRIL 2005
 72
     2
 11
39.696735023019272
 21
1.4266399292710359
 31
0.0
  0
TEXT
  5
19E3
  8
FORM
  6
CONTINUOUS
 10
36.314742892209921
 20
1.4244931442114459
 30
0.0
 40
0.184356593395875
  1
DRAWN:
  0
TEXT
  5
19E4
  8
FORM
  6
CONTINUOUS
 10
33.461092438516573
 20
1.424666026206864
 30
0.0
 40
0.184356593395875
  1
SCALE:
  0
TEXT
  5
19E5
  8
FORM
  6
CONTINUOUS
 10
40.203435321383573
 20
1.422355711558928
 30
0.0
 40
0.184356593395875
  1
SHEET:   OF
  0
TEXT
  5
19E6
  8
FORM
  6
CONTINUOUS
 10
33.124433620069567
 20
2.8869297159639369
 30
0.0
 40
0.184356593395875
  1
DRAWING NO.
  0
TEXT
  5
19E7
  8
FORM
  6
CONTINUOUS
 10
41.850448103669237
 20
2.886929715963916
 30
0.0
 40
0.184356593395875
  1
REV.
 72
     1
 11
42.12259355106314
 21
2.886929715963916
 31
0.0
  0
LINE
  5
19E8
  8
FORM
  6
CONTINUOUS
 10
33.416182507258391
 20
6.6201507322303881
 30
0.0
 11
42.265298990260362
 21
6.6201507322303881
 31
0.0
  0
LINE
  5
19E9
  8
FORM
  6
CONTINUOUS
 10
32.955291023768702
 20
1.7347010072396991
 30
0.0
 11
32.955291023768673
 21
6.1592592487406881
 31
0.0
  0
LINE
  5
19EA
  8
FORM
  6
CONTINUOUS
 10
32.955291023768702
 20
3.1634646060577292
 30
0.0
 11
42.726190473750037
 21
3.1634646060577292
 31
0.0
  0
LINE
  5
19EB
  8
FORM
  6
CONTINUOUS
 10
32.955291023768702
 20
1.7347010072396991
 30
0.0
 11
42.726190473750037
 21
1.7347010072396991
 31
0.0
  0
LINE
  5
19EC
  8
FORM
  6
CONTINUOUS
 10
36.026467742539118
 20
1.7347010072396991
 30
0.0
 11
36.026467742539118
 21
1.2738095237500171
 31
0.0
  0
LINE
  5
19ED
  8
FORM
  6
CONTINUOUS
 10
40.065167876336659
 20
1.729027325745029
 30
0.0
 11
40.065167876336659
 21
1.2681358422553499
 31
0.0
  0
LINE
  5
19EE
  8
FORM
  6
CONTINUOUS
 10
41.508364231032488
 20
3.1634646060577292
 30
0.0
 11
41.508364231032488
 21
1.7347010072396991
 31
0.0
  0
ARC
  5
19EF
  8
FORM
 62
     5
 10
33.87147454402632
 20
5.2321095419160519
 30
0.0
 40
0.0502653185952511
 50
152.18113099770551
 51
330.99098814993278
  0
ARC
  5
19F0
  8
FORM
 62
     5
 10
34.089053834359703
 20
5.6511194128146256
 30
0.0
 40
0.0440746975210158
 50
335.32315363464198
 51
152.6722492633038
  0
ARC
  5
19F1
  8
FORM
 62
     5
 10
37.446185313816841
 20
3.5831642172472651
 30
0.0
 40
3.9868910433295368
 50
148.41494327216151
 51
155.19852313243231
  0
ARC
  5
19F2
  8
FORM
 62
     5
 10
38.217878471693133
 20
3.3107972970714812
 30
0.0
 40
4.7020631235383759
 50
150.40875710206339
 51
156.20744757951141
  0
ARC
  5
19F3
  8
FORM
 62
     7
 10
33.729336717812117
 20
4.809826363179055
 30
0.0
 40
0.0671652552709891
 50
161.128725237971
 51
346.89295927401372
  0
ARC
  5
19F4
  8
FORM
 62
     7
 10
53.367628910278228
 20
-3.6725418745125959
 30
0.0
 40
21.325803943529628
 50
153.58307292081321
 51
156.60691138966209
  0
ARC
  5
19F5
  8
FORM
 62
     7
 10
50.287568040148528
 20
-2.5644941525072609
 30
0.0
 40
18.16984879940825
 50
152.34095999775931
 51
152.9694116127464
  0
ARC
  5
19F6
  8
FORM
 62
     7
 10
50.4912451127324
 20
-3.156319562177472
 30
0.0
 40
18.62531302696754
 50
153.3711283527573
 51
154.6040219565534
  0
ARC
  5
19F7
  8
FORM
 62
     7
 10
34.698291427850847
 20
5.5948289454909697
 30
0.0
 40
0.4829018868449606
 50
23.46872592819097
 51
88.151617587883351
  0
ARC
  5
19F8
  8
FORM
 62
     7
 10
34.709083940719118
 20
5.6259614939592311
 30
0.0
 40
0.5699591598814008
 50
18.23262529566556
 51
154.63608874642691
  0
ARC
  5
19F9
  8
FORM
 62
     7
 10
34.879850029644359
 20
5.6853693813860771
 30
0.0
 40
0.3891907917568549
 50
336.99722732837881
 51
341.11190659806482
  0
ARC
  5
19FA
  8
FORM
 62
     7
 10
34.902997868184677
 20
5.7025814422175776
 30
0.0
 40
0.254907880192607
 50
333.24704424527522
 51
339.12675173356178
  0
ARC
  5
19FB
  8
FORM
 62
     7
 10
35.144104528932502
 20
5.5822157374328816
 30
0.0
 40
0.0146095491322771
 50
157.37475902115841
 51
243.18317341424029
  0
ARC
  5
19FC
  8
FORM
 62
     7
 10
35.230394320055893
 20
5.5355566237182643
 30
0.0
 40
0.0080289822227516
 50
246.7423667985764
 51
343.55073793579641
  0
ARC
  5
19FD
  8
FORM
 62
     7
 10
35.483045306224852
 20
6.206619545503723
 30
0.0
 40
0.7250687320987334
 50
241.5396617947477
 51
249.33988332022491
  0
ARC
  5
19FE
  8
FORM
 62
     7
 10
34.9761916897763
 20
5.437699301377072
 30
0.0
 40
0.1431349662916394
 50
210.28645373052609
 51
287.25915125833183
  0
ARC
  5
19FF
  8
FORM
 62
     7
 10
34.988490180963971
 20
5.3758026207478622
 30
0.0
 40
0.0806485752183996
 50
291.96730232828992
 51
10.20108836223371
  0
ARC
  5
1A00
  8
FORM
 62
     7
 10
34.351109148169911
 20
5.2378626299468207
 30
0.0
 40
0.5174748205137182
 50
14.28109924276106
 51
24.94726153987823
  0
ARC
  5
1A01
  8
FORM
 62
     7
 10
34.652931196600349
 20
5.3946009655135461
 30
0.0
 40
0.1783202582618736
 50
20.183063788867571
 51
47.833846572520187
  0
ARC
  5
1A02
  8
FORM
 62
     7
 10
34.68626748438794
 20
5.3042778782011162
 30
0.0
 40
0.2386691757260289
 50
68.784960310907422
 51
94.742087985452599
  0
ARC
  5
1A03
  8
FORM
 62
     7
 10
34.683670685861422
 20
5.4453282315651172
 30
0.0
 40
0.0983065334463515
 50
100.0375073429591
 51
170.98475346238999
  0
ARC
  5
1A04
  8
FORM
 62
     7
 10
35.146068355737611
 20
5.3773748188028661
 30
0.0
 40
0.5656654008735983
 50
171.52589863719891
 51
197.494741096675
  0
ARC
  5
1A05
  8
FORM
 62
     7
 10
34.765023896344701
 20
5.3853778011441547
 30
0.0
 40
0.3028765796636133
 50
0.8906501289531732
 51
49.113860192417143
  0
ARC
  5
1A06
  8
FORM
 62
     7
 10
34.70121788145687
 20
5.440931581139246
 30
0.0
 40
0.2383845564631639
 50
99.869748807366761
 51
175.59516845025641
  0
ARC
  5
1A07
  8
FORM
 62
     7
 10
34.74420142096708
 20
5.3116713199521888
 30
0.0
 40
0.373645463646239
 50
54.104282451028212
 51
102.9674010870567
  0
ARC
  5
1A08
  8
FORM
 62
     7
 10
35.798737905561808
 20
5.5339824388112886
 30
0.0
 40
1.236112335596137
 50
195.32307896217739
 51
209.29084315695809
  0
ARC
  5
1A09
  8
FORM
 62
     7
 10
35.409798509503133
 20
5.3313058202242232
 30
0.0
 40
0.9548702630443076
 50
172.3003020759547
 51
200.12627387409299
  0
ARC
  5
1A0A
  8
FORM
 62
     7
 10
36.092512265563222
 20
5.5978118396088368
 30
0.0
 40
1.6876668147324001
 50
200.64629086238159
 51
210.04649609044409
  0
ARC
  5
1A0B
  8
FORM
 62
     7
 10
33.767672563649661
 20
4.2896718057212553
 30
0.0
 40
1.147702755465478
 50
28.43194910738443
 51
33.865461133002469
  0
ARC
  5
1A0C
  8
FORM
 62
     7
 10
34.710340361681631
 20
4.7838977609262834
 30
0.0
 40
0.0846287925897855
 50
201.5644604264042
 51
38.094090168146302
  0
ARC
  5
1A0D
  8
FORM
 62
     5
 10
35.454047505527257
 20
5.486987961477829
 30
0.0
 40
0.0470753373534298
 50
227.6202696593605
 51
57.41211292120402
  0
ARC
  5
1A0E
  8
FORM
 62
     5
 10
34.898862200054367
 20
4.7627373277749214
 30
0.0
 40
0.9594749055071699
 50
52.766851639305919
 51
65.063571515457895
  0
ARC
  5
1A0F
  8
FORM
 62
     5
 10
34.452241791275902
 20
4.0702703323560518
 30
0.0
 40
1.6884350682882729
 50
54.932512589538803
 51
74.152868438598929
  0
ARC
  5
1A10
  8
FORM
 62
     5
 10
34.476586052909433
 20
3.568319054466826
 30
0.0
 40
2.1706024175541438
 50
78.393012355262385
 51
89.647961077025343
  0
ARC
  5
1A11
  8
FORM
 62
     5
 10
34.486274868053272
 20
5.8018806593051897
 30
0.0
 40
0.0631056771236446
 50
183.9979944211656
 51
273.313807745882
  0
ARC
  5
1A12
  8
FORM
 62
     5
 10
34.69925842788092
 20
5.818551646751942
 30
0.0
 40
0.2767389970018709
 50
145.6085916691928
 51
184.36670732083459
  0
ARC
  5
1A13
  8
FORM
 62
     5
 10
34.528989583128613
 20
5.938129286098885
 30
0.0
 40
0.0687363070342985
 50
75.244714174009715
 51
147.6929850116162
  0
ARC
  5
1A14
  8
FORM
 62
     5
 10
33.709635982728827
 20
2.7936800480859851
 30
0.0
 40
3.3181823868519218
 50
61.63724224152525
 51
75.392005557716686
  0
ARC
  5
1A15
  8
FORM
 62
     5
 10
35.223247228975197
 20
5.6577302519658508
 30
0.0
 40
0.0839396329354631
 50
342.69825742684009
 51
41.67278378767756
  0
ARC
  5
1A16
  8
FORM
 62
     7
 10
34.879850029644359
 20
5.6853693813860771
 30
0.0
 40
0.3891907917568549
 50
5.6380312699922861
 51
17.791456368736871
  0
ARC
  5
1A17
  8
FORM
 62
     7
 10
35.056960777687777
 20
3.851378580987717
 30
0.0
 40
0.12453779538235
 50
88.432533024773406
 51
186.62631613112151
  0
ARC
  5
1A18
  8
FORM
 62
     7
 10
35.076506660735483
 20
3.8773458445585289
 30
0.0
 40
0.1488228018527408
 50
195.7266305128272
 51
285.3806868435185
  0
ARC
  5
1A19
  8
FORM
 62
     7
 10
34.901004024005353
 20
5.1943718606735914
 30
0.0
 40
1.4762551210247881
 50
278.37329371359459
 51
293.15208507016871
  0
ARC
  5
1A1A
  8
FORM
 62
     7
 10
35.396287821393123
 20
4.2652099364179641
 30
0.0
 40
0.3044715687368376
 50
257.51805604168283
 51
277.23103351305667
  0
ARC
  5
1A1B
  8
FORM
 62
     7
 10
35.413358675393567
 20
4.0150829003075179
 30
0.0
 40
0.0561042920902449
 50
292.26031345923337
 51
12.86737930052367
  0
ARC
  5
1A1C
  8
FORM
 62
     7
 10
35.371642472469631
 20
4.0070394983254651
 30
0.0
 40
0.0985747940549809
 50
12.0253755273956
 51
52.143631645159317
  0
ARC
  5
1A1D
  8
FORM
 62
     7
 10
37.473498217784197
 20
6.5612572579000981
 30
0.0
 40
3.209307639712156
 50
219.60277928185971
 51
230.5002020408055
  0
ARC
  5
1A1E
  8
FORM
 62
     7
 10
35.492352051740113
 20
4.9001252642901667
 30
0.0
 40
0.6241927637443375
 50
175.97523115435061
 51
218.04500009534149
  0
ARC
  5
1A1F
  8
FORM
 62
     7
 10
35.227786425660071
 20
4.9628053673500361
 30
0.0
 40
0.3585845725200827
 50
149.96078860476399
 51
183.01641230856191
  0
ARC
  5
1A20
  8
FORM
 62
     7
 10
34.977287653388522
 20
5.1103132875677204
 30
0.0
 40
0.0679295281984907
 50
69.764209445538683
 51
151.89881904551129
  0
ARC
  5
1A21
  8
FORM
 62
     7
 10
34.969273382641433
 20
5.1056960066620496
 30
0.0
 40
0.0752672049169095
 50
357.6694469744499
 51
65.251102439515421
  0
ARC
  5
1A22
  8
FORM
 62
     7
 10
34.791927087049523
 20
5.0911418605530789
 30
0.0
 40
0.2528126373579358
 50
345.36193237678458
 51
2.6056939300727819
  0
ARC
  5
1A23
  8
FORM
 62
     7
 10
35.602090445328571
 20
4.8523853508412031
 30
0.0
 40
0.5919738308518
 50
162.81861830880729
 51
185.35496664157321
  0
ARC
  5
1A24
  8
FORM
 62
     7
 10
35.536094847929149
 20
4.9117694628322139
 30
0.0
 40
0.5358004355611984
 50
192.3534994193023
 51
222.3020476696031
  0
ARC
  5
1A25
  8
FORM
 62
     7
 10
37.381905568116622
 20
6.3998094049418546
 30
0.0
 40
2.905942571467353
 50
219.50633019139821
 51
228.42762303996261
  0
ARC
  5
1A26
  8
FORM
 62
     7
 10
35.140069253353403
 20
3.7985267963051679
 30
0.0
 40
0.5299960685152594
 50
32.971129457978869
 51
53.728419363024372
  0
ARC
  5
1A27
  8
FORM
 62
     7
 10
35.427463202400332
 20
4.005618684982891
 30
0.0
 40
0.1770362522386045
 50
287.74749415951351
 51
27.352111896629431
  0
ARC
  5
1A28
  8
FORM
 62
     7
 10
35.16259474257626
 20
2.8543408356064179
 30
0.0
 40
1.126178313661536
 50
81.426570944510217
 51
95.208118001959775
  0
ARC
  5
1A29
  8
FORM
 62
     7
 10
34.676472279440532
 20
4.609856792041171
 30
0.0
 40
0.0501357382491115
 50
325.52447187114319
 51
75.340502228459755
  0
ARC
  5
1A2A
  8
FORM
 62
     7
 10
34.614701276196087
 20
4.6552100511053531
 30
0.0
 40
0.1267533236926462
 50
277.78730616127859
 51
324.42957968808531
  0
ARC
  5
1A2B
  8
FORM
 62
     7
 10
34.592284758986892
 20
4.6762898657927741
 30
0.0
 40
0.1519139349688822
 50
243.48581874200181
 51
285.1065744639306
  0
ARC
  5
1A2C
  8
FORM
 62
     7
 10
27.8731096997513
 20
-12.4932993511666
 30
0.0
 40
18.45638048052642
 50
68.327181839257534
 51
70.606105230637283
  0
ARC
  5
1A2D
  8
FORM
 62
     7
 10
33.988713934221749
 20
4.8617714816310453
 30
0.0
 40
0.055607435478502
 50
76.445232091872313
 51
134.36352227876461
  0
ARC
  5
1A2E
  8
FORM
 62
     7
 10
34.23594587733399
 20
4.4813881185518483
 30
0.0
 40
0.5083077403466757
 50
124.2547762008316
 51
135.012931962436
  0
ARC
  5
1A2F
  8
FORM
 62
     7
 10
33.885979744632088
 20
4.8245660322519264
 30
0.0
 40
0.0187748724828842
 50
120.5491196217084
 51
251.48388650457539
  0
ARC
  5
1A30
  8
FORM
 62
     7
 10
31.35955469354608
 20
-2.20296417031589
 30
0.0
 40
7.4490944355826798
 50
64.85742894317822
 51
67.515132469299331
  0
ARC
  5
1A31
  8
FORM
 62
     7
 10
34.507034475662408
 20
4.4308185510845446
 30
0.0
 40
0.0703300633564829
 50
329.18566117941782
 51
69.52715124986382
  0
ARC
  5
1A32
  8
FORM
 62
     7
 10
34.322528644875717
 20
4.1521399941366823
 30
0.0
 40
0.403051872176304
 50
58.747973844557542
 51
81.106226592028094
  0
ARC
  5
1A33
  8
FORM
 62
     7
 10
34.279653491663879
 20
3.8849497208938919
 30
0.0
 40
0.673659077744691
 50
81.016817915507374
 51
97.679603827268224
  0
ARC
  5
1A34
  8
FORM
 62
     7
 10
34.350555487554203
 20
4.0873869344785581
 30
0.0
 40
0.4997006452258542
 50
121.5050128230593
 51
139.09578810607039
  0
ARC
  5
1A35
  8
FORM
 62
     7
 10
34.486213611380663
 20
4.4200913009569014
 30
0.0
 40
0.0850716575372725
 50
277.70569210516868
 51
342.69880024124109
  0
ARC
  5
1A36
  8
FORM
 62
     7
 10
34.46010433022056
 20
4.5160817648663851
 30
0.0
 40
0.184155782182425
 50
250.08394506358289
 51
281.75453717228322
  0
ARC
  5
1A37
  8
FORM
 62
     7
 10
34.52027170146647
 20
4.5372247072865122
 30
0.0
 40
0.2298928288403392
 50
221.18187885427241
 51
237.68378775985289
  0
ARC
  5
1A38
  8
FORM
 62
     7
 10
34.250649510747913
 20
4.2707129138400566
 30
0.0
 40
0.1502941988903953
 50
50.003848755011681
 51
75.5416830098399
  0
ARC
  5
1A39
  8
FORM
 62
     7
 10
34.242700079187699
 20
4.3251886965059541
 30
0.0
 40
0.101781928913435
 50
63.4626603498468
 51
100.74200229027051
  0
ARC
  5
1A3A
  8
FORM
 62
     7
 10
34.223729261234951
 20
4.2529656105913531
 30
0.0
 40
0.1722214314986379
 50
89.999999999999588
 51
125.5974615489027
  0
ARC
  5
1A3B
  8
FORM
 62
     7
 10
36.266687671707359
 20
5.4819654875490791
 30
0.0
 40
2.382967543868022
 50
197.51922498184919
 51
203.981481444731
  0
ARC
  5
1A3C
  8
FORM
 62
     7
 10
33.485249637949607
 20
4.721360124868851
 30
0.0
 40
0.7243225282346643
 50
346.52409876011302
 51
356.71498770316703
  0
ARC
  5
1A3D
  8
FORM
 62
     7
 10
31.35955469354608
 20
-2.20296417031589
 30
0.0
 40
7.4490944355826798
 50
69.286600818944066
 51
70.22311760076802
  0
ARC
  5
1A3E
  8
FORM
 62
     7
 10
33.876169922815478
 20
4.0909024975958621
 30
0.0
 40
0.2184269840063441
 50
245.40259669902051
 51
275.40975098180542
  0
ARC
  5
1A3F
  8
FORM
 62
     7
 10
34.642070270288428
 20
3.6967673023805361
 30
0.0
 40
0.8681469610074701
 50
126.68044463040199
 51
139.78708822539889
  0
ARC
  5
1A40
  8
FORM
 62
     7
 10
33.872083832704959
 20
4.7053139576373191
 30
0.0
 40
0.832231548816698
 50
271.69929119420118
 51
283.39540842056908
  0
ARC
  5
1A41
  8
FORM
 62
     7
 10
35.428271851831568
 20
2.78470176044189
 30
0.0
 40
2.0660410796836941
 50
134.5410403491789
 51
138.91474429089911
  0
ARC
  5
1A42
  8
FORM
 62
     7
 10
33.906328645442898
 20
4.1130944325259122
 30
0.0
 40
0.0546567449796842
 50
201.8252958964795
 51
267.16449786715452
  0
ARC
  5
1A43
  8
FORM
 62
     7
 10
33.894562313202023
 20
4.107909022344443
 30
0.0
 40
0.0418082902229875
 50
124.254854327418
 51
201.22329273937871
  0
ARC
  5
1A44
  8
FORM
 62
     7
 10
34.021864770200096
 20
4.0738934856997728
 30
0.0
 40
0.1832903804675856
 50
283.5751770312794
 51
324.58969283639942
  0
ARC
  5
1A45
  8
FORM
 62
     7
 10
34.126398977664167
 20
3.986597707801109
 30
0.0
 40
0.0486742756789315
 50
337.14160324238748
 51
47.564966708928338
  0
ARC
  5
1A46
  8
FORM
 62
     7
 10
34.051479433347943
 20
3.879563609001575
 30
0.0
 40
0.1790243893656499
 50
52.990730681111621
 51
91.748895977531333
  0
ARC
  5
1A47
  8
FORM
 62
     7
 10
33.97482029636015
 20
4.5445147233887013
 30
0.0
 40
0.4911971362770459
 50
261.66603807207321
 51
278.33396192792679
  0
ARC
  5
1A48
  8
FORM
 62
     7
 10
33.827351328547081
 20
3.9976720327520212
 30
0.0
 40
0.1134738832821913
 50
192.64550774538381
 51
248.2223967256862
  0
ARC
  5
1A49
  8
FORM
 62
     7
 10
33.799462642063048
 20
4.0105271566674361
 30
0.0
 40
0.0910070849768819
 50
178.88427582775449
 51
204.46998391858139
  0
ARC
  5
1A4A
  8
FORM
 62
     7
 10
34.024590384061071
 20
3.9875275917867858
 30
0.0
 40
0.3170866660790294
 50
140.54690015149379
 51
175.51933831911609
  0
ARC
  5
1A4B
  8
FORM
 62
     7
 10
37.147786536650841
 20
1.5008787794887259
 30
0.0
 40
4.3092627289205483
 50
137.45643980933039
 51
141.40545593619061
  0
POLYLINE
  5
1A4C
  8
FORM
 62
     1
 10
34.588179408120517
 20
5.9634267402830048
 30
0.0
 66
     1
 70
     8
  0
VERTEX
  8
FORM
  5
1D40
 10
34.5882
 20
5.96343
 30
0.000000
  70
    32
  0
VERTEX
  8
FORM
  5
1D41
 10
34.5863
 20
5.96413
 30
0.000000
  70
    32
  0
VERTEX
  8
FORM
  5
1D42
 10
34.5843
 20
5.96461
 30
0.000000
  70
    32
  0
VERTEX
  8
FORM
  5
1D43
 10
34.5822
 20
5.96487
 30
0.000000
  70
    32
  0
VERTEX
  8
FORM
  5
1D44
 10
34.5800
 20
5.96490
 30
0.000000
  70
    32
  0
VERTEX
  8
FORM
  5
1D45
 10
34.5778
 20
5.96471
 30
0.000000
  70
    32
  0
VERTEX
  8
FORM
  5
1D46
 10
34.5754
 20
5.96429
 30
0.000000
  70
    32
  0
VERTEX
  8
FORM
  5
1D47
 10
34.5731
 20
5.96365
 30
0.000000
  70
    32
  0
VERTEX
  8
FORM
  5
1D48
 10
34.5706
 20
5.96279
 30
0.000000
  70
    32
  0
VERTEX
  8
FORM
  5
1D49
 10
34.5681
 20
5.96170
 30
0.000000
  70
    32
  0
VERTEX
  8
FORM
  5
1D4A
 10
34.5656
 20
5.96040
 30
0.000000
  70
    32
  0
VERTEX
  8
FORM
  5
1D4B
 10
34.5630
 20
5.95889
 30
0.000000
  70
    32
  0
VERTEX
  8
FORM
  5
1D4C
 10
34.5603
 20
5.95716
 30
0.000000
  70
    32
  0
VERTEX
  8
FORM
  5
1D4D
 10
34.5577
 20
5.95523
 30
0.000000
  70
    32
  0
VERTEX
  8
FORM
  5
1D4E
 10
34.5550
 20
5.95309
 30
0.000000
  70
    32
  0
VERTEX
  8
FORM
  5
1D4F
 10
34.5523
 20
5.95076
 30
0.000000
  70
    32
  0
VERTEX
  8
FORM
  5
1D50
 10
34.5496
 20
5.94824
 30
0.000000
  70
    32
  0
VERTEX
  8
FORM
  5
1D51
 10
34.5468
 20
5.94553
 30
0.000000
  70
    32
  0
VERTEX
  8
FORM
  5
1D52
 10
34.5441
 20
5.94264
 30
0.000000
  70
    32
  0
VERTEX
  8
FORM
  5
1D53
 10
34.5414
 20
5.93959
 30
0.000000
  70
    32
  0
VERTEX
  8
FORM
  5
1D54
 10
34.5387
 20
5.93636
 30
0.000000
  70
    32
  0
VERTEX
  8
FORM
  5
1D55
 10
34.5361
 20
5.93299
 30
0.000000
  70
    32
  0
VERTEX
  8
FORM
  5
1D56
 10
34.5334
 20
5.92946
 30
0.000000
  70
    32
  0
VERTEX
  8
FORM
  5
1D57
 10
34.5308
 20
5.92579
 30
0.000000
  70
    32
  0
VERTEX
  8
FORM
  5
1D58
 10
34.5282
 20
5.92199
 30
0.000000
  70
    32
  0
VERTEX
  8
FORM
  5
1D59
 10
34.5257
 20
5.91807
 30
0.000000
  70
    32
  0
VERTEX
  8
FORM
  5
1D5A
 10
34.5233
 20
5.91404
 30
0.000000
  70
    32
  0
VERTEX
  8
FORM
  5
1D5B
 10
34.5209
 20
5.90991
 30
0.000000
  70
    32
  0
VERTEX
  8
FORM
  5
1D5C
 10
34.5185
 20
5.90568
 30
0.000000
  70
    32
  0
VERTEX
  8
FORM
  5
1D5D
 10
34.5162
 20
5.90137
 30
0.000000
  70
    32
  0
VERTEX
  8
FORM
  5
1D5E
 10
34.5140
 20
5.89699
 30
0.000000
  70
    32
  0
VERTEX
  8
FORM
  5
1D5F
 10
34.5119
 20
5.89254
 30
0.000000
  70
    32
  0
VERTEX
  8
FORM
  5
1D60
 10
34.5099
 20
5.88805
 30
0.000000
  70
    32
  0
VERTEX
  8
FORM
  5
1D61
 10
34.5080
 20
5.88352
 30
0.000000
  70
    32
  0
VERTEX
  8
FORM
  5
1D62
 10
34.5061
 20
5.87895
 30
0.000000
  70
    32
  0
VERTEX
  8
FORM
  5
1D63
 10
34.5044
 20
5.87437
 30
0.000000
  70
    32
  0
VERTEX
  8
FORM
  5
1D64
 10
34.5028
 20
5.86978
 30
0.000000
  70
    32
  0
VERTEX
  8
FORM
  5
1D65
 10
34.5012
 20
5.86520
 30
0.000000
  70
    32
  0
VERTEX
  8
FORM
  5
1D66
 10
34.4998
 20
5.86063
 30
0.000000
  70
    32
  0
VERTEX
  8
FORM
  5
1D67
 10
34.4985
 20
5.85608
 30
0.000000
  70
    32
  0
VERTEX
  8
FORM
  5
1D68
 10
34.4973
 20
5.85158
 30
0.000000
  70
    32
  0
VERTEX
  8
FORM
  5
1D69
 10
34.4963
 20
5.84712
 30
0.000000
  70
    32
  0
VERTEX
  8
FORM
  5
1D6A
 10
34.4953
 20
5.84272
 30
0.000000
  70
    32
  0
VERTEX
  8
FORM
  5
1D6B
 10
34.4945
 20
5.83838
 30
0.000000
  70
    32
  0
VERTEX
  8
FORM
  5
1D6C
 10
34.4938
 20
5.83413
 30
0.000000
  70
    32
  0
VERTEX
  8
FORM
  5
1D6D
 10
34.4933
 20
5.82997
 30
0.000000
  70
    32
  0
VERTEX
  8
FORM
  5
1D6E
 10
34.4929
 20
5.82591
 30
0.000000
  70
    32
  0
VERTEX
  8
FORM
  5
1D6F
 10
34.4926
 20
5.82195
 30
0.000000
  70
    32
  0
VERTEX
  8
FORM
  5
1D70
 10
34.4924
 20
5.81812
 30
0.000000
  70
    32
  0
VERTEX
  8
FORM
  5
1D71
 10
34.4924
 20
5.81442
 30
0.000000
  70
    32
  0
VERTEX
  8
FORM
  5
1D72
 10
34.4925
 20
5.81085
 30
0.000000
  70
    32
  0
VERTEX
  8
FORM
  5
1D73
 10
34.4928
 20
5.80743
 30
0.000000
  70
    32
  0
VERTEX
  8
FORM
  5
1D74
 10
34.4931
 20
5.80416
 30
0.000000
  70
    32
  0
VERTEX
  8
FORM
  5
1D75
 10
34.4937
 20
5.80105
 30
0.000000
  70
    32
  0
VERTEX
  8
FORM
  5
1D76
 10
34.4943
 20
5.79812
 30
0.000000
  70
    32
  0
VERTEX
  8
FORM
  5
1D77
 10
34.4951
 20
5.79536
 30
0.000000
  70
    32
  0
VERTEX
  8
FORM
  5
1D78
 10
34.4960
 20
5.79278
 30
0.000000
  70
    32
  0
VERTEX
  8
FORM
  5
1D79
 10
34.4970
 20
5.79039
 30
0.000000
  70
    32
  0
VERTEX
  8
FORM
  5
1D7A
 10
34.4981
 20
5.78820
 30
0.000000
  70
    32
  0
VERTEX
  8
FORM
  5
1D7B
 10
34.4994
 20
5.78621
 30
0.000000
  70
    32
  0
VERTEX
  8
FORM
  5
1D7C
 10
34.5008
 20
5.78443
 30
0.000000
  70
    32
  0
VERTEX
  8
FORM
  5
1D7D
 10
34.5023
 20
5.78285
 30
0.000000
  70
    32
  0
VERTEX
  8
FORM
  5
1D7E
 10
34.5039
 20
5.78149
 30
0.000000
  70
    32
  0
VERTEX
  8
FORM
  5
1D7F
 10
34.5056
 20
5.78034
 30
0.000000
  70
    32
  0
VERTEX
  8
FORM
  5
1D80
 10
34.5074
 20
5.77941
 30
0.000000
  70
    32
  0
VERTEX
  8
FORM
  5
1D81
 10
34.5093
 20
5.77871
 30
0.000000
  70
    32
  0
VERTEX
  8
FORM
  5
1D82
 10
34.5113
 20
5.77823
 30
0.000000
  70
    32
  0
VERTEX
  8
FORM
  5
1D83
 10
34.5134
 20
5.77797
 30
0.000000
  70
    32
  0
VERTEX
  8
FORM
  5
1D84
 10
34.5155
 20
5.77794
 30
0.000000
  70
    32
  0
VERTEX
  8
FORM
  5
1D85
 10
34.5178
 20
5.77813
 30
0.000000
  70
    32
  0
VERTEX
  8
FORM
  5
1D86
 10
34.5201
 20
5.77855
 30
0.000000
  70
    32
  0
VERTEX
  8
FORM
  5
1D87
 10
34.5225
 20
5.77919
 30
0.000000
  70
    32
  0
VERTEX
  8
FORM
  5
1D88
 10
34.5249
 20
5.78005
 30
0.000000
  70
    32
  0
VERTEX
  8
FORM
  5
1D89
 10
34.5274
 20
5.78114
 30
0.000000
  70
    32
  0
VERTEX
  8
FORM
  5
1D8A
 10
34.5300
 20
5.78244
 30
0.000000
  70
    32
  0
VERTEX
  8
FORM
  5
1D8B
 10
34.5326
 20
5.78395
 30
0.000000
  70
    32
  0
VERTEX
  8
FORM
  5
1D8C
 10
34.5352
 20
5.78568
 30
0.000000
  70
    32
  0
VERTEX
  8
FORM
  5
1D8D
 10
34.5379
 20
5.78761
 30
0.000000
  70
    32
  0
VERTEX
  8
FORM
  5
1D8E
 10
34.5406
 20
5.78975
 30
0.000000
  70
    32
  0
VERTEX
  8
FORM
  5
1D8F
 10
34.5433
 20
5.79208
 30
0.000000
  70
    32
  0
VERTEX
  8
FORM
  5
1D90
 10
34.5460
 20
5.79460
 30
0.000000
  70
    32
  0
VERTEX
  8
FORM
  5
1D91
 10
34.5487
 20
5.79731
 30
0.000000
  70
    32
  0
VERTEX
  8
FORM
  5
1D92
 10
34.5514
 20
5.80020
 30
0.000000
  70
    32
  0
VERTEX
  8
FORM
  5
1D93
 10
34.5541
 20
5.80325
 30
0.000000
  70
    32
  0
VERTEX
  8
FORM
  5
1D94
 10
34.5568
 20
5.80648
 30
0.000000
  70
    32
  0
VERTEX
  8
FORM
  5
1D95
 10
34.5595
 20
5.80985
 30
0.000000
  70
    32
  0
VERTEX
  8
FORM
  5
1D96
 10
34.5621
 20
5.81338
 30
0.000000
  70
    32
  0
VERTEX
  8
FORM
  5
1D97
 10
34.5647
 20
5.81705
 30
0.000000
  70
    32
  0
VERTEX
  8
FORM
  5
1D98
 10
34.5673
 20
5.82085
 30
0.000000
  70
    32
  0
VERTEX
  8
FORM
  5
1D99
 10
34.5698
 20
5.82477
 30
0.000000
  70
    32
  0
VERTEX
  8
FORM
  5
1D9A
 10
34.5723
 20
5.82880
 30
0.000000
  70
    32
  0
VERTEX
  8
FORM
  5
1D9B
 10
34.5747
 20
5.83293
 30
0.000000
  70
    32
  0
VERTEX
  8
FORM
  5
1D9C
 10
34.5770
 20
5.83716
 30
0.000000
  70
    32
  0
VERTEX
  8
FORM
  5
1D9D
 10
34.5793
 20
5.84147
 30
0.000000
  70
    32
  0
VERTEX
  8
FORM
  5
1D9E
 10
34.5815
 20
5.84585
 30
0.000000
  70
    32
  0
VERTEX
  8
FORM
  5
1D9F
 10
34.5836
 20
5.85030
 30
0.000000
  70
    32
  0
VERTEX
  8
FORM
  5
1DA0
 10
34.5856
 20
5.85479
 30
0.000000
  70
    32
  0
VERTEX
  8
FORM
  5
1DA1
 10
34.5876
 20
5.85932
 30
0.000000
  70
    32
  0
VERTEX
  8
FORM
  5
1DA2
 10
34.5894
 20
5.86389
 30
0.000000
  70
    32
  0
VERTEX
  8
FORM
  5
1DA3
 10
34.5912
 20
5.86847
 30
0.000000
  70
    32
  0
VERTEX
  8
FORM
  5
1DA4
 10
34.5928
 20
5.87306
 30
0.000000
  70
    32
  0
VERTEX
  8
FORM
  5
1DA5
 10
34.5943
 20
5.87764
 30
0.000000
  70
    32
  0
VERTEX
  8
FORM
  5
1DA6
 10
34.5957
 20
5.88221
 30
0.000000
  70
    32
  0
VERTEX
  8
FORM
  5
1DA7
 10
34.5970
 20
5.88676
 30
0.000000
  70
    32
  0
VERTEX
  8
FORM
  5
1DA8
 10
34.5982
 20
5.89127
 30
0.000000
  70
    32
  0
VERTEX
  8
FORM
  5
1DA9
 10
34.5993
 20
5.89572
 30
0.000000
  70
    32
  0
VERTEX
  8
FORM
  5
1DAA
 10
34.6002
 20
5.90013
 30
0.000000
  70
    32
  0
VERTEX
  8
FORM
  5
1DAB
 10
34.6010
 20
5.90446
 30
0.000000
  70
    32
  0
VERTEX
  8
FORM
  5
1DAC
 10
34.6017
 20
5.90871
 30
0.000000
  70
    32
  0
VERTEX
  8
FORM
  5
1DAD
 10
34.6023
 20
5.91287
 30
0.000000
  70
    32
  0
VERTEX
  8
FORM
  5
1DAE
 10
34.6027
 20
5.91693
 30
0.000000
  70
    32
  0
VERTEX
  8
FORM
  5
1DAF
 10
34.6030
 20
5.92089
 30
0.000000
  70
    32
  0
VERTEX
  8
FORM
  5
1DB0
 10
34.6031
 20
5.92472
 30
0.000000
  70
    32
  0
VERTEX
  8
FORM
  5
1DB1
 10
34.6031
 20
5.92842
 30
0.000000
  70
    32
  0
VERTEX
  8
FORM
  5
1DB2
 10
34.6030
 20
5.93199
 30
0.000000
  70
    32
  0
VERTEX
  8
FORM
  5
1DB3
 10
34.6028
 20
5.93541
 30
0.000000
  70
    32
  0
VERTEX
  8
FORM
  5
1DB4
 10
34.6024
 20
5.93868
 30
0.000000
  70
    32
  0
VERTEX
  8
FORM
  5
1DB5
 10
34.6019
 20
5.94179
 30
0.000000
  70
    32
  0
VERTEX
  8
FORM
  5
1DB6
 10
34.6013
 20
5.94472
 30
0.000000
  70
    32
  0
VERTEX
  8
FORM
  5
1DB7
 10
34.6005
 20
5.94748
 30
0.000000
  70
    32
  0
VERTEX
  8
FORM
  5
1DB8
 10
34.5996
 20
5.95006
 30
0.000000
  70
    32
  0
VERTEX
  8
FORM
  5
1DB9
 10
34.5986
 20
5.95245
 30
0.000000
  70
    32
  0
VERTEX
  8
FORM
  5
1DBA
 10
34.5974
 20
5.95464
 30
0.000000
  70
    32
  0
VERTEX
  8
FORM
  5
1DBB
 10
34.5962
 20
5.95663
 30
0.000000
  70
    32
  0
VERTEX
  8
FORM
  5
1DBC
 10
34.5948
 20
5.95841
 30
0.000000
  70
    32
  0
VERTEX
  8
FORM
  5
1DBD
 10
34.5933
 20
5.95999
 30
0.000000
  70
    32
  0
VERTEX
  8
FORM
  5
1DBE
 10
34.5917
 20
5.96135
 30
0.000000
  70
    32
  0
VERTEX
  8
FORM
  5
1DBF
 10
34.5900
 20
5.96250
 30
0.000000
  70
    32
  0
VERTEX
  8
FORM
  5
1DC0
 10
34.5882
 20
5.96343
 30
0.000000
  70
    32
  0
SEQEND
  8
FORM
  5
1DC1
  0
ARC
  5
1A4D
  8
FORM
 62
     7
 10
34.678422559705353
 20
5.6285689301790143
 30
0.0
 40
0.45030777473755
 50
85.485448269952457
 51
155.5006785655419
  0
TEXT
  5
1A4E
  8
FORM
 62
     7
 10
33.094000516162993
 20
3.2737730496354831
 30
0.0
 40
0.1764102564
  1
R2-D2 BUILDERS CLUB
  0
ARC
  5
1A4F
  8
FORM
 10
1.2738095237500311
 20
1.2738095237500171
 30
0.0
 40
0.315018315
 50
180.0
 51
270.0
  0
ARC
  5
1A50
  8
FORM
 10
1.2738095237500311
 20
1.2738095237500171
 30
0.0
 40
0.6300366300000001
 50
180.0
 51
270.0
  0
ARC
  5
1A51
  8
FORM
 10
1.2738095237500311
 20
1.2738095237500171
 30
0.0
 40
0.7087912087500001
 50
180.0
 51
270.0
  0
ARC
  5
1A52
  8
FORM
 10
1.2738095237500311
 20
1.2738095237500171
 30
0.0
 40
1.02380952375
 50
180.0
 51
270.0
  0
ARC
  5
1A53
  8
FORM
 10
1.2738095237500311
 20
30.47619047625
 30
0.0
 40
1.02380952375
 50
90.0
 51
180.0
  0
ARC
  5
1A54
  8
FORM
 10
1.2738095237500311
 20
30.47619047625
 30
0.0
 40
0.7087912087500001
 50
90.0
 51
180.0
  0
ARC
  5
1A55
  8
FORM
 10
1.2738095237500311
 20
30.47619047625
 30
0.0
 40
0.6300366300000001
 50
90.0
 51
180.0
  0
ARC
  5
1A56
  8
FORM
 10
1.2738095237500311
 20
30.47619047625
 30
0.0
 40
0.315018315
 50
90.0
 51
180.0
  0
ARC
  5
1A57
  8
FORM
 10
42.726190473750037
 20
30.47619047625
 30
0.0
 40
0.6300366300000001
 50
0.0
 51
90.0
  0
ARC
  5
1A58
  8
FORM
 10
42.726190473750037
 20
30.47619047625
 30
0.0
 40
0.7087912087500001
 50
0.0
 51
90.0
  0
ARC
  5
1A59
  8
FORM
 10
42.726190473750037
 20
30.47619047625
 30
0.0
 40
1.02380952375
 50
0.0
 51
90.0
  0
ARC
  5
1A5A
  8
FORM
 10
42.726190473750037
 20
30.47619047625
 30
0.0
 40
0.315018315
 50
0.0
 51
90.0
  0
ARC
  5
1A5B
  8
FORM
 10
42.726190473750037
 20
1.2738095237500171
 30
0.0
 40
1.02380952375
 50
270.0
 51
0.0
  0
ARC
  5
1A5C
  8
FORM
 10
42.726190473750037
 20
1.2738095237500171
 30
0.0
 40
0.7087912087500001
 50
270.0
 51
0.0
  0
ARC
  5
1A5D
  8
FORM
 10
42.726190473750037
 20
1.2738095237500171
 30
0.0
 40
0.6300366300000001
 50
270.0
 51
0.0
  0
ARC
  5
1A5E
  8
FORM
 10
42.726190473750037
 20
1.2738095237500171
 30
0.0
 40
0.315018315
 50
270.0
 51
0.0
  0
LINE
  5
1A5F
  8
FORM
 10
42.726190473750037
 20
0.643772893750036
 30
0.0
 11
1.2738095237500311
 21
0.6437728937500183
 31
0.0
  0
LINE
  5
1A60
  8
FORM
 10
42.726190473750037
 20
0.5650183150000352
 30
0.0
 11
1.2738095237500311
 21
0.5650183150000175
 31
0.0
  0
LINE
  5
1A61
  8
FORM
 10
42.726190473750037
 20
0.2500000000000178
 30
0.0
 11
1.2738095237500311
 21
0.25
 31
0.0
  0
LINE
  5
1A62
  8
FORM
 10
43.356227103750051
 20
1.2738095237500171
 30
0.0
 11
43.356227103750051
 21
30.47619047625
 31
0.0
  0
LINE
  5
1A63
  8
FORM
 10
43.434981682500052
 20
1.2738095237500171
 30
0.0
 11
43.434981682500052
 21
30.47619047625
 31
0.0
  0
LINE
  5
1A64
  8
FORM
 10
43.749999997500048
 20
1.2738095237500171
 30
0.0
 11
43.749999997500048
 21
30.47619047625
 31
0.0
  0
LINE
  5
1A65
  8
FORM
 10
42.726190473750037
 20
31.10622710625
 30
0.0
 11
1.2738095237500311
 21
31.10622710625
 31
0.0
  0
LINE
  5
1A66
  8
FORM
 10
42.726190473750037
 20
31.184981685
 30
0.0
 11
1.2738095237500311
 21
31.184981685
 31
0.0
  0
LINE
  5
1A67
  8
FORM
 10
42.726190473750037
 20
31.5
 30
0.0
 11
1.2738095237500311
 21
31.5
 31
0.0
  0
LINE
  5
1A68
  8
FORM
 10
0.6437728937500254
 20
1.2738095237500171
 30
0.0
 11
0.6437728937500254
 21
30.47619047625
 31
0.0
  0
LINE
  5
1A69
  8
FORM
 10
0.5650183150000601
 20
1.2738095237500171
 30
0.0
 11
0.5650183150000601
 21
30.47619047625
 31
0.0
  0
LINE
  5
1A6A
  8
FORM
 10
0.2499999999999716
 20
1.2738095237500211
 30
0.0
 11
0.2500000000000284
 21
30.47619047625
 31
0.0
  0
LINE
  5
1A6B
  8
FORM
  6
CONTINUOUS
 10
33.416182507258391
 20
1.2738095237500171
 30
0.0
 11
42.265298990260362
 21
1.2738095237500171
 31
0.0
  0
LINE
  5
1A6C
  8
FORM
  6
CONTINUOUS
 10
42.726190473750037
 20
6.1592592487406881
 30
0.0
 11
42.726190473750037
 21
1.7347010072396991
 31
0.0
  0
ARC
  5
1A6D
  8
FORM
  6
CONTINUOUS
 10
42.265298990260362
 20
1.7347010072396991
 30
0.0
 40
0.460891483489685
 50
270.0
 51
0.0
  0
ARC
  5
1A6E
  8
FORM
  6
CONTINUOUS
 10
42.265298990260362
 20
6.1592592487406881
 30
0.0
 40
0.460891483489685
 50
359.99999999999989
 51
90.0
  0
ARC
  5
1A6F
  8
FORM
  6
CONTINUOUS
 10
33.416182507258391
 20
1.7347010072396991
 30
0.0
 40
0.460891483489685
 50
180.0
 51
270.0
  0
ARC
  5
1A70
  8
FORM
  6
CONTINUOUS
 10
33.416182507258391
 20
6.1592592487406881
 30
0.0
 40
0.460891483489685
 50
90.0
 51
180.0
  0
LINE
  5
1A71
  8
0
 10
0.0
 20
0.0
 30
0.0
 11
0.0
 21
34.0
 31
0.0
  0
LINE
  5
1A72
  8
0
 10
0.0
 20
0.0
 30
0.0
 11
44.0
 21
0.0
 31
0.0
  0
LINE
  5
1A73
  8
0
 10
0.0
 20
34.0
 30
0.0
 11
44.0
 21
34.0
 31
0.0
  0
LINE
  5
1A74
  8
0
 10
44.0
 20
0.0
 30
0.0
 11
44.0
 21
34.0
 31
0.0
  0
LINE
  5
1D1B
  8
0
 10
1.2738095237500311
 20
1.2738095237500171
 30
0.0
 11
1.2738095237500311
 21
2.2738095237500171
 31
0.0
  0
LINE
  5
1D1C
  8
0
 10
1.2738095237500311
 20
1.3988095237500171
 30
0.0
 11
1.3988095237500311
 21
1.3988095237500171
 31
0.0
  0
LINE
  5
1D1D
  8
0
 10
1.2738095237500311
 20
1.5238095237500171
 30
0.0
 11
1.5238095237500311
 21
1.5238095237500171
 31
0.0
  0
LINE
  5
1D1E
  8
0
 10
1.2738095237500311
 20
1.6488095237500171
 30
0.0
 11
1.3988095237500311
 21
1.6488095237500171
 31
0.0
  0
LINE
  5
1D1F
  8
0
 10
1.2738095237500311
 20
1.7738095237500171
 30
0.0
 11
1.6488095237500311
 21
1.7738095237500171
 31
0.0
  0
LINE
  5
1D20
  8
0
 10
1.2738095237500311
 20
1.8988095237500171
 30
0.0
 11
1.3988095237500311
 21
1.8988095237500171
 31
0.0
  0
LINE
  5
1D21
  8
0
 10
1.2738095237500311
 20
2.0238095237500171
 30
0.0
 11
1.5238095237500311
 21
2.0238095237500171
 31
0.0
  0
LINE
  5
1D22
  8
0
 10
1.2738095237500311
 20
2.1488095237500171
 30
0.0
 11
1.3988095237500311
 21
2.1488095237500171
 31
0.0
  0
LINE
  5
1D23
  8
0
 10
1.2738095237500311
 20
2.2738095237500171
 30
0.0
 11
1.6488095237500311
 21
2.2738095237500171
 31
0.0
  0
LINE
  5
1D24
  8
0
 10
1.2738095237500311
 20
1.2738095237500171
 30
0.0
 11
1.6488095237500311
 21
1.2738095237500171
 31
0.0
  0
TEXT
  5
1D25
  8
0
 10
1.698078297376497
 20
1.740768962749534
 30
0.0
 40
0.0625
  1
1/2"
  0
TEXT
  5
1D26
  8
0
 10
1.448078297376497
 20
1.615768962749534
 30
0.0
 40
0.0625
  1
3/8"
  0
TEXT
  5
1D27
  8
0
 10
1.573078297376497
 20
1.490768962749534
 30
0.0
 40
0.0625
  1
1/4"
  0
TEXT
  5
1D28
  8
0
 10
1.448078297376497
 20
1.365768962749534
 30
0.0
 40
0.0625
  1
1/8"
  0
TEXT
  5
1D29
  8
0
 10
1.448078297376497
 20
1.865768962749534
 30
0.0
 40
0.0625
  1
5/8"
  0
TEXT
  5
1D2A
  8
0
 10
1.573078297376497
 20
1.990768962749534
 30
0.0
 40
0.0625
  1
3/4"
  0
TEXT
  5
1D2B
  8
0
 10
1.448078297376497
 20
2.115768962749534
 30
0.0
 40
0.0625
  1
7/8"
  0
TEXT
  5
1D2C
  8
0
 10
1.698078297376497
 20
2.240768962749534
 30
0.0
 40
0.0625
  1
1"
  0
ENDSEC
  0
EOF
