  0
SECTION
  2
HEADER
  9
$ACADVER
  1
AC1009
  9
$INSBASE
 10
0.0
 20
0.0
 30
0.0
  9
$EXTMIN
 10
-0.0025867663239438
 20
-0.0013563369247009
 30
-0.0000000349181948
  9
$EXTMAX
 10
17.001820046492622
 20
11.0010029592683
 30
0.0000000814935746
  9
$LIMMIN
 10
0.0
 20
0.0
  9
$LIMMAX
 10
34.0
 20
26.0
  9
$ORTHOMODE
 70
     0
  9
$REGENMODE
 70
     1
  9
$FILLMODE
 70
     1
  9
$QTEXTMODE
 70
     0
  9
$MIRRTEXT
 70
     1
  9
$DRAGMODE
 70
     2
  9
$LTSCALE
 40
1.0
  9
$OSMODE
 70
    39
  9
$ATTMODE
 70
     1
  9
$TEXTSIZE
 40
0.156
  9
$TRACEWID
 40
0.05
  9
$TEXTSTYLE
  7
STANDARD
  9
$CLAYER
  8
0
  9
$CELTYPE
  6
BYLAYER
  9
$CECOLOR
 62
   256
  9
$DIMSCALE
 40
1.0
  9
$DIMASZ
 40
0.2
  9
$DIMEXO
 40
0.0625
  9
$DIMDLI
 40
0.38
  9
$DIMRND
 40
0.0
  9
$DIMDLE
 40
0.0
  9
$DIMEXE
 40
0.0625
  9
$DIMTP
 40
0.0
  9
$DIMTM
 40
0.0
  9
$DIMTXT
 40
0.2
  9
$DIMCEN
 40
0.0
  9
$DIMTSZ
 40
0.0
  9
$DIMTOL
 70
     0
  9
$DIMLIM
 70
     0
  9
$DIMTIH
 70
     1
  9
$DIMTOH
 70
     1
  9
$DIMSE1
 70
     0
  9
$DIMSE2
 70
     0
  9
$DIMTAD
 70
     0
  9
$DIMZIN
 70
     0
  9
$DIMBLK
  1

  9
$DIMASO
 70
     0
  9
$DIMSHO
 70
     0
  9
$DIMPOST
  1

  9
$DIMAPOST
  1

  9
$DIMALT
 70
     0
  9
$DIMALTD
 70
     2
  9
$DIMALTF
 40
25.399999999999999
  9
$DIMLFAC
 40
1.0
  9
$DIMTOFL
 70
     0
  9
$DIMTVP
 40
0.0
  9
$DIMTIX
 70
     0
  9
$DIMSOXD
 70
     0
  9
$DIMSAH
 70
     0
  9
$DIMBLK1
  1

  9
$DIMBLK2
  1

  9
$DIMSTYLE
  2
STANDARD
  9
$DIMCLRD
 70
     0
  9
$DIMCLRE
 70
     0
  9
$DIMCLRT
 70
     0
  9
$DIMTFAC
 40
1.0
  9
$DIMGAP
 40
0.0625
  9
$LUNITS
 70
     2
  9
$LUPREC
 70
     8
  9
$SKETCHINC
 40
0.1
  9
$FILLETRAD
 40
0.0
  9
$AUNITS
 70
     0
  9
$AUPREC
 70
     0
  9
$MENU
  1
acad
  9
$ELEVATION
 40
0.0
  9
$PELEVATION
 40
0.0
  9
$THICKNESS
 40
0.0
  9
$LIMCHECK
 70
     0
  9
$BLIPMODE
 70
     0
  9
$CHAMFERA
 40
0.0
  9
$CHAMFERB
 40
0.0
  9
$SKPOLY
 70
     0
  9
$TDCREATE
 40
2448880.8877262729
  9
$TDUPDATE
 40
2453549.6810529982
  9
$TDINDWG
 40
2.0024937615999998
  9
$TDUSRTIMER
 40
2.0024938773000001
  9
$USRTIMER
 70
     1
  9
$ANGBASE
 50
0.0
  9
$ANGDIR
 70
     0
  9
$PDMODE
 70
     0
  9
$PDSIZE
 40
0.0
  9
$PLINEWID
 40
0.0
  9
$COORDS
 70
     1
  9
$SPLFRAME
 70
     0
  9
$SPLINETYPE
 70
     6
  9
$SPLINESEGS
 70
     8
  9
$ATTDIA
 70
     0
  9
$ATTREQ
 70
     1
  9
$HANDLING
 70
     1
  9
$HANDSEED
  5
172C
  9
$SURFTAB1
 70
     6
  9
$SURFTAB2
 70
     6
  9
$SURFTYPE
 70
     6
  9
$SURFU
 70
     6
  9
$SURFV
 70
     6
  9
$UCSNAME
  2

  9
$UCSORG
 10
0.0
 20
0.0
 30
0.0
  9
$UCSXDIR
 10
1.0
 20
0.0
 30
0.0
  9
$UCSYDIR
 10
0.0
 20
1.0
 30
0.0
  9
$PUCSNAME
  2

  9
$PUCSORG
 10
0.0
 20
0.0
 30
0.0
  9
$PUCSXDIR
 10
1.0
 20
0.0
 30
0.0
  9
$PUCSYDIR
 10
0.0
 20
1.0
 30
0.0
  9
$USERI1
 70
     0
  9
$USERI2
 70
     0
  9
$USERI3
 70
     0
  9
$USERI4
 70
     0
  9
$USERI5
 70
     0
  9
$USERR1
 40
0.0
  9
$USERR2
 40
0.0
  9
$USERR3
 40
0.0
  9
$USERR4
 40
0.0
  9
$USERR5
 40
0.0
  9
$WORLDVIEW
 70
     1
  9
$SHADEDGE
 70
     3
  9
$SHADEDIF
 70
    70
  9
$TILEMODE
 70
     1
  9
$MAXACTVP
 70
    16
  9
$PLIMCHECK
 70
     0
  9
$PEXTMIN
 10
1.0000000000000000E+020
 20
1.0000000000000000E+020
 30
1.0000000000000000E+020
  9
$PEXTMAX
 10
-1.0000000000000000E+020
 20
-1.0000000000000000E+020
 30
-1.0000000000000000E+020
  9
$PLIMMIN
 10
0.0
 20
0.0
  9
$PLIMMAX
 10
12.0
 20
9.0
  9
$UNITMODE
 70
     0
  9
$VISRETAIN
 70
     0
  9
$PLINEGEN
 70
     1
  9
$PSLTSCALE
 70
     0
  0
ENDSEC
  0
SECTION
  2
TABLES
  0
TABLE
  2
VPORT
 70
     7
  0
VPORT
  2
*ACTIVE
 70
     0
 10
0.0
 20
0.0
 11
1.0
 21
1.0
 12
8.4996166400843407
 22
5.4998233111717978
 13
0.0
 23
0.0
 14
0.5
 24
0.5
 15
0.0
 25
0.0
 16
0.0
 26
0.0
 36
1.0
 17
0.0
 27
0.0
 37
0.0
 40
11.15273322734825
 41
2.3264840182648401
 42
50.0
 43
0.0
 44
0.0
 50
0.0
 51
0.0
 71
     0
 72
 20000
 73
     1
 74
     0
 75
     0
 76
     0
 77
     0
 78
     0
  0
ENDTAB
  0
TABLE
  2
LTYPE
 70
     3
  0
LTYPE
  2
CONTINUOUS
 70
     0
  3
Solid line
 72
    65
 73
     0
 40
0.0
  0
LTYPE
  2
HIDDEN2
 70
     0
  3
_ _ _ _ _ _ _ _ _ _ _ _ _ _ _ _ _ _ _ _ _ _ _ _
 72
    65
 73
     2
 40
0.1875
 49
0.125
 49
-0.0625
  0
ENDTAB
  0
TABLE
  2
LAYER
 70
     7
  0
LAYER
  2
0
 70
     0
 62
     7
  6
CONTINUOUS
  0
LAYER
  2
DIMENSIONS
 70
     0
 62
     1
  6
CONTINUOUS
  0
LAYER
  2
FORM
 70
     0
 62
     5
  6
CONTINUOUS
  0
LAYER
  2
DEFPOINTS
 70
     0
 62
     7
  6
CONTINUOUS
  0
ENDTAB
  0
TABLE
  2
STYLE
 70
     2
  0
STYLE
  2
STANDARD
 70
     0
 40
0.0
 41
1.0
 50
7.0
 71
     0
 42
0.156
  3
simplex
  4

  0
ENDTAB
  0
TABLE
  2
VIEW
 70
     0
  0
ENDTAB
  0
TABLE
  2
UCS
 70
     0
  0
ENDTAB
  0
TABLE
  2
APPID
 70
     6
  0
APPID
  2
ACAD
 70
     0
  0
APPID
  2
DCO15
 70
     0
  0
APPID
  2
SI-MECH
 70
     0
  0
APPID
  2
DPVAR
 70
     0
  0
APPID
  2
ACAD_DSTYLE_DIMTEXT_FILL
 70
     0
  0
APPID
  2
ACAD_PSEXT
 70
     0
  0
ENDTAB
  0
TABLE
  2
DIMSTYLE
 70
     2
  0
DIMSTYLE
  2
STANDARD
 70
     0
  3

  4

  5

  6

  7

 40
1.0
 41
0.2
 42
0.0625
 43
0.38
 44
0.0625
 45
0.0
 46
0.0
 47
0.0
 48
0.0
140
0.2
141
0.0
142
0.0
143
25.399999999999999
144
1.0
145
0.0
146
1.0
147
0.0625
 71
     0
 72
     0
 73
     1
 74
     1
 75
     0
 76
     0
 77
     0
 78
     0
170
     0
171
     2
172
     0
173
     0
174
     0
175
     0
176
     0
177
     0
178
     0
  0
ENDTAB
  0
ENDSEC
  0
SECTION
  2
BLOCKS
  0
BLOCK
  8
0
 62
     7
  2
$MODEL_SPACE
 70
     0
 10
0.0
 20
0.0
 30
0.0
  3
$MODEL_SPACE
  1

  0
ENDBLK
  5
9
  8
0
 62
     7
  0
BLOCK
 67
     1
  8
0
 62
     7
  2
$PAPER_SPACE
 70
     0
 10
0.0
 20
0.0
 30
0.0
  3
$PAPER_SPACE
  1

  0
ENDBLK
  5
E
 67
     1
  8
0
 62
     7
  0
BLOCK
  8
0
  2
*U0
 70
     1
 10
0.0
 20
0.0
 30
0.0
  3
*U0
  1
*XXX
  0
ENDBLK
  5
702
  8
0
  0
BLOCK
  8
0
  2
*U1
 70
     1
 10
0.0
 20
0.0
 30
0.0
  3
*U1
  1
*XXX
  0
ENDBLK
  5
134C
  8
0
  0
ENDSEC
  0
SECTION
  2
ENTITIES
  0
LINE
  5
494
  8
0
 10
8.9909533738305001
 20
6.4705181390863897
 30
0.0
 11
9.7409533738305001
 21
6.4705181390863897
 31
0.0
  0
LINE
  5
495
  8
0
 10
9.0859533738305274
 20
6.5705181390864134
 30
0.0
 11
9.6459533738304728
 21
6.5705181390864134
 31
0.0
  0
LINE
  5
496
  8
0
 10
8.9909533738305001
 20
6.383457531486453
 30
0.0
 11
9.0780139814305514
 21
6.4705181390863897
 31
0.0
  0
LINE
  5
497
  8
0
 10
8.9909533738305001
 20
6.4258839382864714
 30
0.0
 11
9.0355875746304193
 21
6.4705181390863897
 31
0.0
  0
LINE
  5
498
  8
0
 10
9.7409533738305001
 20
6.4258839382864714
 30
0.0
 11
9.6963191731306253
 21
6.4705181390863897
 31
0.0
  0
LINE
  5
499
  8
0
 10
9.7409533738305001
 20
6.383457531486453
 30
0.0
 11
9.6538927662304488
 21
6.4705181390863897
 31
0.0
  0
ARC
  5
49A
  8
0
 10
9.836761390430631
 20
6.6566607547864676
 30
0.0
 40
0.209351975
 50
204.29737913790129
 51
242.76501943339861
  0
ARC
  5
49B
  8
0
 10
8.8951453573304136
 20
6.6566607547864676
 30
0.0
 40
0.209351975
 50
297.23498056660151
 51
335.70262086209868
  0
LINE
  5
4A0
  8
0
 10
5.0969959715308866
 20
6.5705181390864134
 30
0.0
 11
5.656995971530832
 21
6.5705181390864134
 31
0.0
  0
LINE
  5
4A1
  8
0
 10
5.0019959715308602
 20
6.4705181390863897
 30
0.0
 11
5.7519959715308602
 21
6.4705181390863897
 31
0.0
  0
LINE
  5
4A5
  8
0
 10
8.9909533738305001
 20
5.9455181390864134
 30
0.0
 11
9.7409533738305001
 21
5.9455181390864134
 31
0.0
  0
LINE
  5
4A6
  8
0
 10
9.6985269670303662
 20
5.9455181390864134
 30
0.0
 11
9.7409533738305001
 21
5.9879445459864762
 31
0.0
  0
LINE
  5
4A7
  8
0
 10
9.6561005601306462
 20
5.9455181390864134
 30
0.0
 11
9.7409533738305001
 21
6.03037095278638
 31
0.0
  0
LINE
  5
4A8
  8
0
 10
9.6136741532304697
 20
5.9455181390864134
 30
0.0
 11
9.7409533738305001
 21
6.0727973596864429
 31
0.0
  0
LINE
  5
4A9
  8
0
 10
9.5712477464303376
 20
5.9455181390864134
 30
0.0
 11
9.7409533738305001
 21
6.115223766586392
 31
0.0
  0
LINE
  5
4AA
  8
0
 10
9.5288213395306158
 20
5.9455181390864134
 30
0.0
 11
9.7409533738305001
 21
6.1576501733864113
 31
0.0
  0
LINE
  5
4AB
  8
0
 10
9.4863949326304393
 20
5.9455181390864134
 30
0.0
 11
9.7409533738305001
 21
6.2000765802864741
 31
0.0
  0
LINE
  5
4AC
  8
0
 10
9.4439685257304902
 20
5.9455181390864134
 30
0.0
 11
9.7409533738305001
 21
6.2425029871864233
 31
0.0
  0
LINE
  5
4AD
  8
0
 10
9.4015421189305854
 20
5.9455181390864134
 30
0.0
 11
9.7409533738305001
 21
6.2849293939864408
 31
0.0
  0
LINE
  5
4AE
  8
0
 10
9.3591157120304072
 20
5.9455181390864134
 30
0.0
 11
9.7409533738305001
 21
6.3273558008863899
 31
0.0
  0
LINE
  5
4AF
  8
0
 10
9.0333797807304492
 20
5.9455181390864134
 30
0.0
 11
8.9909533738305001
 21
5.9879445459864762
 31
0.0
  0
LINE
  5
4B0
  8
0
 10
9.0758061876303984
 20
5.9455181390864134
 30
0.0
 11
8.9909533738305001
 21
6.03037095278638
 31
0.0
  0
LINE
  5
4B1
  8
0
 10
9.3727910357306357
 20
5.9455181390864134
 30
0.0
 11
8.9909533738305001
 21
6.3273558008863899
 31
0.0
  0
LINE
  5
4B2
  8
0
 10
9.3303646288304591
 20
5.9455181390864134
 30
0.0
 11
8.9909533738305001
 21
6.2849293939864408
 31
0.0
  0
LINE
  5
4B3
  8
0
 10
9.2879382219305082
 20
5.9455181390864134
 30
0.0
 11
8.9909533738305001
 21
6.2425029871864233
 31
0.0
  0
LINE
  5
4B4
  8
0
 10
9.2455118151306053
 20
5.9455181390864134
 30
0.0
 11
8.9909533738305001
 21
6.2000765802864741
 31
0.0
  0
LINE
  5
4B5
  8
0
 10
9.2030854082304288
 20
5.9455181390864134
 30
0.0
 11
8.9909533738305001
 21
6.1576501733864113
 31
0.0
  0
LINE
  5
4B6
  8
0
 10
9.1606590013304796
 20
5.9455181390864134
 30
0.0
 11
8.9909533738305001
 21
6.115223766586392
 31
0.0
  0
LINE
  5
4B7
  8
0
 10
9.1182325945305749
 20
5.9455181390864134
 30
0.0
 11
8.9909533738305001
 21
6.0727973596864429
 31
0.0
  0
ARC
  5
4B8
  8
0
 10
4.9061879550307728
 20
6.6566607547864676
 30
0.0
 40
0.209351975
 50
297.23498056660151
 51
335.70262086209868
  0
ARC
  5
4B9
  8
0
 10
5.8478039881309911
 20
6.6566607547864676
 30
0.0
 40
0.209351975
 50
204.29737913790129
 51
242.76501943339861
  0
LINE
  5
4C4
  8
0
 10
5.0019959715308602
 20
5.9455181390864134
 30
0.0
 11
5.7519959715308602
 21
5.9455181390864134
 31
0.0
  0
LINE
  5
4E3
  8
0
 10
5.7519959715308602
 20
5.9455181390864134
 30
0.0
 11
5.7519959715308602
 21
6.4705181390863897
 31
0.0
  0
LINE
  5
4E4
  8
0
 10
5.0019959715308602
 20
5.9455181390864134
 30
0.0
 11
5.0019959715308602
 21
6.4705181390863897
 31
0.0
  0
LINE
  5
4E5
  8
0
  6
HIDDEN2
 10
5.1269959715308602
 20
5.1955181390864142
 30
0.0
 11
5.1269959715308602
 21
6.5705181390864134
 31
0.0
  0
LINE
  5
4E7
  8
0
  6
HIDDEN2
 10
5.6269959715308611
 20
5.1955181390864142
 30
0.0
 11
5.6269959715308602
 21
6.5705181390864134
 31
0.0
  0
CIRCLE
  5
4EB
  8
0
 10
5.3769959715308602
 20
3.3767715219884411
 30
0.0
 40
0.375
  0
CIRCLE
  5
4EC
  8
0
 10
5.3769959715308602
 20
3.3767715219884411
 30
0.0
 40
0.25
  0
LINE
  5
4F1
  8
0
 10
8.9909533738305001
 20
5.9455181390864134
 30
0.0
 11
8.9909533738305001
 21
6.4705181390863897
 31
0.0
  0
LINE
  5
4F2
  8
0
 10
9.7409533738305001
 20
5.9455181390864134
 30
0.0
 11
9.7409533738305001
 21
6.4705181390863897
 31
0.0
  0
LINE
  5
4F3
  8
0
 10
9.3166893051304598
 20
5.9455181390864134
 30
0.0
 11
9.7409533738305001
 21
6.3697822077864528
 31
0.0
  0
LINE
  5
4F4
  8
0
 10
9.2742628983305551
 20
5.9455181390864134
 30
0.0
 11
9.7409533738305001
 21
6.4122086146864019
 31
0.0
  0
LINE
  5
4F5
  8
0
 10
9.2318364914303785
 20
5.9455181390864134
 30
0.0
 11
9.7409533738305001
 21
6.4546350214864212
 31
0.0
  0
LINE
  5
4F6
  8
0
 10
9.1894100845306568
 20
5.9455181390864134
 30
0.0
 11
9.7144100845305204
 21
6.4705181390863897
 31
0.0
  0
LINE
  5
4F7
  8
0
 10
9.1469836776304803
 20
5.9455181390864134
 30
0.0
 11
9.6719836776305712
 21
6.4705181390863897
 31
0.0
  0
LINE
  5
4F8
  8
0
 10
9.1045572708303482
 20
5.9455181390864134
 30
0.0
 11
9.6295572708304391
 21
6.4705181390863897
 31
0.0
  0
LINE
  5
4F9
  8
0
 10
9.0621308639306264
 20
5.9455181390864134
 30
0.0
 11
9.5871308639304882
 21
6.4705181390863897
 31
0.0
  0
LINE
  5
4FA
  8
0
 10
9.0197044570304499
 20
5.9455181390864134
 30
0.0
 11
9.5447044570305408
 21
6.4705181390863897
 31
0.0
  0
LINE
  5
4FB
  8
0
 10
8.9909533738305001
 20
5.9591934627864118
 30
0.0
 11
9.5022780502304087
 21
6.4705181390863897
 31
0.0
  0
LINE
  5
4FC
  8
0
 10
8.9909533738305001
 20
6.0016198695864311
 30
0.0
 11
9.4598516433304596
 21
6.4705181390863897
 31
0.0
  0
LINE
  5
4FD
  8
0
 10
8.9909533738305001
 20
6.0440462764863803
 30
0.0
 11
9.4174252364305104
 21
6.4705181390863897
 31
0.0
  0
LINE
  5
4FE
  8
0
 10
8.9909533738305001
 20
6.0864726833864431
 30
0.0
 11
9.3749988295303321
 21
6.4705181390863897
 31
0.0
  0
LINE
  5
4FF
  8
0
 10
8.9909533738305001
 20
6.1288990901864606
 30
0.0
 11
9.3325724227306566
 21
6.4705181390863897
 31
0.0
  0
LINE
  5
500
  8
0
 10
8.9909533738305001
 20
6.1713254970864098
 30
0.0
 11
9.2901460158304801
 21
6.4705181390863897
 31
0.0
  0
LINE
  5
501
  8
0
 10
8.9909533738305001
 20
6.2137519039864726
 30
0.0
 11
9.2477196089305291
 21
6.4705181390863897
 31
0.0
  0
LINE
  5
502
  8
0
 10
8.9909533738305001
 20
6.2561783108864217
 30
0.0
 11
9.2052932021306262
 21
6.4705181390863897
 31
0.0
  0
LINE
  5
503
  8
0
 10
8.9909533738305001
 20
6.298604717686441
 30
0.0
 11
9.1628667952304497
 21
6.4705181390863897
 31
0.0
  0
LINE
  5
504
  8
0
 10
8.9909533738305001
 20
6.3410311245863902
 30
0.0
 11
9.1204403883305005
 21
6.4705181390863897
 31
0.0
  0
LINE
  5
505
  8
0
 10
9.7409533738305001
 20
6.0016198695864311
 30
0.0
 11
9.2720551044303576
 21
6.4705181390863897
 31
0.0
  0
LINE
  5
506
  8
0
 10
9.500070256330666
 20
5.9455181390864134
 30
0.0
 11
8.9909533738305001
 21
6.4546350214864212
 31
0.0
  0
LINE
  5
507
  8
0
 10
9.4576438494304895
 20
5.9455181390864134
 30
0.0
 11
8.9909533738305001
 21
6.4122086146864019
 31
0.0
  0
LINE
  5
508
  8
0
 10
9.4152174426303574
 20
5.9455181390864134
 30
0.0
 11
8.9909533738305001
 21
6.3697822077864528
 31
0.0
  0
LINE
  5
509
  8
0
 10
9.6697758838304182
 20
5.9455181390864134
 30
0.0
 11
9.1447758838305546
 21
6.4705181390863897
 31
0.0
  0
LINE
  5
50A
  8
0
 10
9.6273494769304691
 20
5.9455181390864134
 30
0.0
 11
9.1023494769306055
 21
6.4705181390863897
 31
0.0
  0
LINE
  5
50B
  8
0
 10
9.5849230700305181
 20
5.9455181390864134
 30
0.0
 11
9.0599230700304272
 21
6.4705181390863897
 31
0.0
  0
LINE
  5
50C
  8
0
 10
9.5424966632303878
 20
5.9455181390864134
 30
0.0
 11
9.0174966632305242
 21
6.4705181390863897
 31
0.0
  0
LINE
  5
50D
  8
0
 10
9.7409533738305001
 20
6.3410311245863902
 30
0.0
 11
9.6114663594305441
 21
6.4705181390863897
 31
0.0
  0
LINE
  5
50E
  8
0
 10
9.7409533738305001
 20
6.298604717686441
 30
0.0
 11
9.5690399525305931
 21
6.4705181390863897
 31
0.0
  0
LINE
  5
50F
  8
0
 10
9.7409533738305001
 20
6.2561783108864217
 30
0.0
 11
9.5266135456304184
 21
6.4705181390863897
 31
0.0
  0
LINE
  5
510
  8
0
 10
9.7409533738305001
 20
6.2137519039864726
 30
0.0
 11
9.4841871387304693
 21
6.4705181390863897
 31
0.0
  0
LINE
  5
511
  8
0
 10
9.7409533738305001
 20
6.1713254970864098
 30
0.0
 11
9.4417607319305645
 21
6.4705181390863897
 31
0.0
  0
LINE
  5
512
  8
0
 10
9.7409533738305001
 20
6.1288990901864606
 30
0.0
 11
9.399334325030388
 21
6.4705181390863897
 31
0.0
  0
LINE
  5
513
  8
0
 10
9.7409533738305001
 20
6.0864726833864431
 30
0.0
 11
9.3569079181306662
 21
6.4705181390863897
 31
0.0
  0
LINE
  5
514
  8
0
 10
9.7409533738305001
 20
6.0440462764863803
 30
0.0
 11
9.3144815113305341
 21
6.4705181390863897
 31
0.0
  0
LINE
  5
515
  8
0
 10
9.7409533738305001
 20
5.9591934627864118
 30
0.0
 11
9.2296286975306359
 21
6.4705181390863897
 31
0.0
  0
LINE
  5
516
  8
0
 10
9.7122022906305503
 20
5.9455181390864134
 30
0.0
 11
9.1872022906304593
 21
6.4705181390863897
 31
0.0
  0
INSERT
  5
76A
  8
0
  2
*U0
 10
4.2075020348423058
 20
-0.5424913843350973
 30
0.0
1001
DPVAR
1002
{
1002
{
1000
ALTFMT
1000
ALT
1002
}
1002
{
1000
APPID
1000
SI-MECH
1002
}
1002
{
1000
APPVER
1040
4.129999999999999
1002
}
1002
{
1000
BALLSIZE
1040
0.18
1002
}
1002
{
1000
BLKCHK
1000

1002
}
1002
{
1000
CLIPHID
1070
     0
1002
}
1002
{
1000
DBWRITE
1070
     0
1002
}
1002
{
1000
DRILLANG
1040
118.0
1002
}
1002
{
1000
DRILLDIST
1040
1.0
1002
}
1002
{
1000
DRILLM
1070
     0
1002
}
1002
{
1000
DWGSCALE
1040
1.0
1002
}
1002
{
1000
FORMAT
1000
STD0V00A
1002
}
1002
{
1000
GDIMSIZE
1040
0.18
1002
}
1002
{
1000
GEODAT
1000
A
1002
}
1002
{
1000
GEOPTS
1040
10.0
1002
}
1002
{
1000
GEOSYM
1000
POSITION
1002
}
1002
{
1000
GEOTGT
1000
A1
1002
}
1002
{
1000
GEOTOL
1040
0.1
1002
}
1002
{
1000
GEOTSZ
1040
0.0
1002
}
1002
{
1000
HDWALTD
1070
     0
1002
}
1002
{
1000
HDWCAT
1000
RING
1002
}
1002
{
1000
HDWCSKH
1070
     0
1002
}
1002
{
1000
HDWGROUP
1000
ALL_RING
1002
}
1002
{
1000
HDWLG
1040
0.0
1002
}
1002
{
1000
HDWPEME
1070
     0
1002
}
1002
{
1000
HDWRCSDP
1070
     1
1002
}
1002
{
1000
HDWSTAN
1000
ALL_
1002
}
1002
{
1000
HDWTYPE
1000
SH-12
1002
}
1002
{
1000
HOLECEN
1070
     1
1002
}
1002
{
1000
HOLEEANG
1040
0.0
1002
}
1002
{
1000
HOLESTART
1070
     0
1002
}
1002
{
1000
HOLETYPE
1000
IN-STD
1002
}
1002
{
1000
ITEMAUCS
1070
     1
1002
}
1002
{
1000
ITEMCLRH
1070
     5
1002
}
1002
{
1000
ITEMCTRL
1070
     1
1002
}
1002
{
1000
ITEMCTRM
1070
     1
1002
}
1002
{
1000
ITEMDSPL
1070
     0
1002
}
1002
{
1000
ITEMSIZE
1000
SH-12
1002
}
1002
{
1000
ITEMVIEW
1070
     3
1002
}
1002
{
1000
LAYER
1000
LAYER
1002
}
1002
{
1000
LYRMAP
1000
LYRMAP
1002
}
1002
{
1000
MLIBLOC
1000
LOCAL
1002
}
1002
{
1000
MLIBSLIDES
1000
9
1002
}
1002
{
1000
MLIBSCALE
1000
U
1002
}
1002
{
1000
SDIMSIZE
1040
0.18
1002
}
1002
{
1000
SFTHDW
1070
     0
1002
}
1002
{
1000
SHTSET
1070
     7
1002
}
1002
{
1000
SLDBGCLR
1070
     0
1002
}
1002
{
1000
STANDARD
1000
ANSI
1002
}
1002
{
1000
SURFAREA
1070
     0
1002
}
1002
{
1000
SURFLAY
1000

1002
}
1002
{
1000
SURFMAT
1040
0.0
1002
}
1002
{
1000
SURFMAXR
1040
63.0
1002
}
1002
{
1000
SURFMINR
1040
0.0
1002
}
1002
{
1000
SURFSPEC
1000

1002
}
1002
{
1000
SURFTYPE
1000

1002
}
1002
{
1000
SURFWAVH
1040
0.0
1002
}
1002
{
1000
SURFWAVW
1040
0.0
1002
}
1002
{
1000
SURFWIDC
1040
0.0
1002
}
1002
{
1000
SURFWIDM
1040
0.0
1002
}
1002
{
1000
TAPDIST
1040
0.0
1002
}
1002
{
1000
THREAD
1070
     0
1002
}
1002
{
1000
TOOTHSEG
1070
     1
1002
}
1002
{
1000
UNIT
1000
IN
1002
}
1002
{
1000
WDIMSIZE
1040
0.18
1002
}
1002
{
1000
WELDALL
1070
     1
1002
}
1002
{
1000
WELDANG
1070
     0
1002
}
1002
{
1000
WELDBACK
1070
     0
1002
}
1002
{
1000
WELDCON
1000

1002
}
1002
{
1000
WELDFIN
1000

1002
}
1002
{
1000
WELDFLD
1070
     0
1002
}
1002
{
1000
WELDLG
1040
10.0
1002
}
1002
{
1000
WELDMELT
1070
     0
1002
}
1002
{
1000
WELDNUM
1070
     0
1002
}
1002
{
1000
WELDOPP
1000

1002
}
1002
{
1000
WELDPIT
1040
30.0
1002
}
1002
{
1000
WELDROOT
1040
0.0
1002
}
1002
{
1000
WELDSIZE
1040
3.0
1002
}
1002
{
1000
WELDSPEC
1000

1002
}
1002
{
1000
WELDSYM
1000
BEV
1002
}
1002
{
1000
WELDTHRT
1040
0.0
1002
}
1002
{
1000
XLINEO
1070
     3
1002
}
1002
{
1000
XYMINUS
1070
     0
1002
}
1002
{
1000
ZPOINT
1070
     0
1002
}
1002
}
  0
LINE
  5
AAA
  8
DIMENSIONS
 10
5.6747411477027176
 20
3.7141849332014329
 30
0.0
 11
5.8070723371124373
 21
3.8641464492960971
 31
0.0
  0
LINE
  5
AAB
  8
DIMENSIONS
 10
5.8070723371124373
 20
3.8641464492960971
 30
0.0
 11
6.0070723371124357
 21
3.8641464492960971
 31
0.0
  0
SOLID
  5
AAC
  8
DIMENSIONS
 10
5.6497475616869428
 20
3.7362401314363858
 30
0.0
 11
5.6997347337184996
 21
3.692129734966481
 31
0.0
 12
5.542409958293006
 22
3.5642234171067702
 32
0.0
 13
5.542409958293006
 23
3.5642234171067702
 33
0.0
  0
TEXT
  5
AAE
  8
DIMENSIONS
 10
6.059047946177901
 20
3.764146449296097
 30
0.0
 40
0.2
  1
%%C0.500 THRU
 51
7.0
  0
LINE
  5
AB1
  8
DIMENSIONS
 10
9.9012573455385038
 20
6.518862305338625
 30
0.0
 11
10.033588534948221
 21
6.6688238214332891
 31
0.0
  0
LINE
  5
AB2
  8
DIMENSIONS
 10
10.033588534948221
 20
6.6688238214332891
 30
0.0
 11
10.23358853494822
 21
6.6688238214332891
 31
0.0
  0
SOLID
  5
AB3
  8
DIMENSIONS
 10
9.8762637595227272
 20
6.5409175035735778
 30
0.0
 11
9.9262509315542857
 21
6.496807107103673
 31
0.0
 12
9.7689261561287921
 22
6.3689007892439617
 32
0.0
 13
9.7689261561287921
 23
6.3689007892439617
 33
0.0
  0
TEXT
  5
AB4
  8
DIMENSIONS
 10
10.28556414401368
 20
6.5688238214332886
 30
0.0
 40
0.2
  1
MEDIUM DIAMOND
 51
7.0
  0
TEXT
  5
AB5
  8
DIMENSIONS
 10
10.28556414401368
 20
6.2703197264614321
 30
0.0
 40
0.2
  1
KNURL
 51
7.0
  0
LINE
  5
AB6
  8
DIMENSIONS
 10
5.0019959715308602
 20
5.8830181390864134
 30
0.0
 11
5.0019959715308602
 21
5.1381497525483537
 31
0.0
  0
LINE
  5
AB7
  8
DIMENSIONS
 10
5.7519959715308602
 20
5.8830181390864134
 30
0.0
 11
5.7519959715308602
 21
5.1381497525483537
 31
0.0
  0
LINE
  5
AB8
  8
DIMENSIONS
 10
4.80199597153086
 20
5.2006497525483537
 30
0.0
 11
4.6019959715308607
 21
5.2006497525483537
 31
0.0
  0
LINE
  5
AB9
  8
DIMENSIONS
 10
5.951995971530863
 20
5.2006497525483537
 30
0.0
 11
6.1519959715308579
 21
5.2006497525483537
 31
0.0
  0
SOLID
  5
ABA
  8
DIMENSIONS
 10
4.80199597153086
 20
5.2339830858816869
 30
0.0
 11
4.80199597153086
 21
5.1673164192150214
 31
0.0
 12
5.0019959715308602
 22
5.2006497525483537
 32
0.0
 13
5.0019959715308602
 23
5.2006497525483537
 33
0.0
  0
SOLID
  5
ABB
  8
DIMENSIONS
 10
5.951995971530863
 20
5.2339830858816869
 30
0.0
 11
5.951995971530863
 21
5.1673164192150214
 31
0.0
 12
5.7519959715308602
 22
5.2006497525483537
 32
0.0
 13
5.7519959715308602
 23
5.2006497525483537
 33
0.0
  0
LINE
  5
ABD
  8
DIMENSIONS
 10
5.8144959715308602
 20
5.9455181390864134
 30
0.0
 11
6.4844460580480847
 21
5.9455181390864134
 31
0.0
  0
LINE
  5
ABE
  8
DIMENSIONS
 10
5.8144959715660169
 20
6.4705181390363782
 30
0.0
 11
6.4844460580480847
 21
6.4705181390363782
 31
0.0
  0
LINE
  5
ABF
  8
DIMENSIONS
 10
6.4219460580480847
 20
5.7455181390864123
 30
0.0
 11
6.4219460580480847
 21
5.545518139086413
 31
0.0
  0
LINE
  5
AC0
  8
DIMENSIONS
 10
6.4219460580480847
 20
6.6705181390363784
 30
0.0
 11
6.4219460580480847
 21
6.8705181390363776
 31
0.0
  0
SOLID
  5
AC1
  8
DIMENSIONS
 10
6.3886127247147542
 20
5.7455181390864123
 30
0.0
 11
6.455279391381417
 21
5.7455181390864123
 31
0.0
 12
6.4219460580480847
 22
5.9455181390864134
 32
0.0
 13
6.4219460580480847
 23
5.9455181390864134
 33
0.0
  0
SOLID
  5
AC2
  8
DIMENSIONS
 10
6.3886127247147542
 20
6.6705181390363784
 30
0.0
 11
6.455279391381417
 21
6.6705181390363784
 31
0.0
 12
6.4219460580480847
 22
6.4705181390363782
 32
0.0
 13
6.4219460580480847
 23
6.4705181390363782
 33
0.0
  0
LINE
  5
AC4
  8
DIMENSIONS
 10
8.9284533738305001
 20
5.9455181390864134
 30
0.0
 11
8.2592437567595383
 21
5.9455181390864134
 31
0.0
  0
LINE
  5
AC5
  8
DIMENSIONS
 10
9.0234533739249798
 20
6.5705181390864134
 30
0.0
 11
8.2592437567595383
 21
6.5705181390864134
 31
0.0
  0
LINE
  5
AC6
  8
DIMENSIONS
 10
8.3217437567595383
 20
5.7455181390864141
 30
0.0
 11
8.3217437567595383
 21
5.545518139086413
 31
0.0
  0
LINE
  5
AC7
  8
DIMENSIONS
 10
8.3217437567595383
 20
6.7705181390864126
 30
0.0
 11
8.3217437567595383
 21
6.9705181390864128
 31
0.0
  0
SOLID
  5
AC8
  8
DIMENSIONS
 10
8.2884104234262068
 20
5.7455181390864141
 30
0.0
 11
8.3550770900928697
 21
5.7455181390864141
 31
0.0
 12
8.3217437567595383
 22
5.9455181390864134
 32
0.0
 13
8.3217437567595383
 23
5.9455181390864134
 33
0.0
  0
SOLID
  5
AC9
  8
DIMENSIONS
 10
8.2884104234262068
 20
6.7705181390864126
 30
0.0
 11
8.3550770900928697
 21
6.7705181390864126
 31
0.0
 12
8.3217437567595383
 22
6.5705181390864134
 32
0.0
 13
8.3217437567595383
 23
6.5705181390864134
 33
0.0
  0
LINE
  5
ACB
  8
DIMENSIONS
 10
5.8478039881309911
 20
6.7191607547864676
 30
0.0
 11
5.8478039881309911
 21
7.3526783470561616
 31
0.0
  0
LINE
  5
ACC
  8
DIMENSIONS
 10
4.9061879550307728
 20
6.7191607547864676
 30
0.0
 11
4.9061879550307728
 21
7.3526783470561616
 31
0.0
  0
LINE
  5
ACD
  8
DIMENSIONS
 10
6.0478039881309931
 20
7.2901783470561616
 30
0.0
 11
6.2478039881309888
 21
7.2901783470561616
 31
0.0
  0
LINE
  5
ACE
  8
DIMENSIONS
 10
4.7061879550307744
 20
7.2901783470561616
 30
0.0
 11
4.5061879550307751
 21
7.2901783470561616
 31
0.0
  0
SOLID
  5
ACF
  8
DIMENSIONS
 10
6.0478039881309931
 20
7.3235116803894948
 30
0.0
 11
6.0478039881309931
 21
7.2568450137228293
 31
0.0
 12
5.8478039881309911
 22
7.2901783470561616
 32
0.0
 13
5.8478039881309911
 23
7.2901783470561616
 33
0.0
  0
SOLID
  5
AD0
  8
DIMENSIONS
 10
4.7061879550307744
 20
7.3235116803894948
 30
0.0
 11
4.7061879550307744
 21
7.2568450137228293
 31
0.0
 12
4.9061879550307728
 22
7.2901783470561616
 32
0.0
 13
4.9061879550307728
 23
7.2901783470561616
 33
0.0
  0
LINE
  5
AD2
  8
DIMENSIONS
 10
4.9394959715308602
 20
5.9455181390864134
 30
0.0
 11
4.2034958866930259
 21
5.9455181390864134
 31
0.0
  0
LINE
  5
AD3
  8
DIMENSIONS
 10
4.8436879550307728
 20
6.6566607547864676
 30
0.0
 11
4.2034958866930259
 21
6.6566607547864676
 31
0.0
  0
LINE
  5
AD4
  8
DIMENSIONS
 10
4.2659958866930259
 20
5.7455181390864132
 30
0.0
 11
4.2659958866930259
 21
5.545518139086413
 31
0.0
  0
LINE
  5
AD5
  8
DIMENSIONS
 10
4.2659958866930259
 20
6.8566607547864677
 30
0.0
 11
4.2659958866930259
 21
7.0566607547864679
 31
0.0
  0
SOLID
  5
AD6
  8
DIMENSIONS
 10
4.2326625533596953
 20
5.7455181390864132
 30
0.0
 11
4.2993292200263582
 21
5.7455181390864132
 31
0.0
 12
4.2659958866930259
 22
5.9455181390864134
 32
0.0
 13
4.2659958866930259
 23
5.9455181390864134
 33
0.0
  0
SOLID
  5
AD7
  8
DIMENSIONS
 10
4.2326625533596953
 20
6.8566607547864677
 30
0.0
 11
4.2993292200263582
 21
6.8566607547864677
 31
0.0
 12
4.2659958866930259
 22
6.6566607547864676
 32
0.0
 13
4.2659958866930259
 23
6.6566607547864676
 33
0.0
  0
TEXT
  5
AD9
  8
DIMENSIONS
 10
3.910359997040231
 20
6.2010894469364413
 30
0.0
 40
0.2
  1
0.711
 51
7.0
  0
TEXT
  5
ADA
  8
DIMENSIONS
 10
6.203971580596324
 20
5.1006497525483541
 30
0.0
 40
0.2
  1
0.750
 51
7.0
  0
TEXT
  5
ADB
  8
DIMENSIONS
 10
6.0120063554988006
 20
6.1080181390613957
 30
0.0
 40
0.2
  1
0.525
 51
7.0
  0
TEXT
  5
ADC
  8
DIMENSIONS
 10
7.9118040542102568
 20
6.1580181390864137
 30
0.0
 40
0.2
  1
0.625
 51
7.0
  0
TEXT
  5
ADD
  8
DIMENSIONS
 10
4.9665559783262374
 20
7.190178347056162
 30
0.0
 40
0.2
  1
0.942
 51
7.0
  0
LINE
  5
ADE
  8
DIMENSIONS
 10
7.0915589689186902
 20
7.4820738228729411
 30
0.0
 11
6.89155896891869
 21
7.4820738228729411
 31
0.0
  0
LINE
  5
ADF
  8
DIMENSIONS
 10
6.89155896891869
 20
7.4820738228729411
 30
0.0
 11
5.8404685580950177
 21
6.6508598149843392
 31
0.0
  0
SOLID
  5
AE1
  8
DIMENSIONS
 10
5.8197922132511621
 20
6.6770055579458454
 30
0.0
 11
5.8611449029388707
 21
6.624714072022833
 31
0.0
 12
5.6835941003259833
 22
6.5268017459212144
 32
0.0
 13
5.6835941003259833
 23
6.5268017459212144
 33
0.0
  0
TEXT
  5
AE2
  8
DIMENSIONS
 10
7.1540589689186902
 20
7.3820738228729388
 30
0.0
 40
0.2
  1
R0.209
 51
7.0
  0
TEXT
  5
FD7
  8
0
  6
CONTINUOUS
 10
59.010181460038162
 20
13.53406035055832
 30
0.0
 40
0.12
  1
 
 51
7.0
  0
TEXT
  5
FD8
  8
0
  6
CONTINUOUS
 10
71.454278225518067
 20
20.59693478028997
 30
0.0
 40
0.24
  1
 
 51
7.0
  0
TEXT
  5
FD9
  8
0
  6
CONTINUOUS
 10
80.664043237431329
 20
20.27692479371289
 30
0.0
 40
0.24
  1
 
 51
7.0
  0
TEXT
  5
FDA
  8
0
  6
CONTINUOUS
 10
90.468002721864025
 20
3.4143439941855682
 30
0.0
 40
0.24
  1
 
 51
7.0
  0
LINE
  5
1096
  8
0
 10
0.0
 20
0.0
 30
0.0
 11
0.0
 21
11.0
 31
0.0
  0
LINE
  5
1097
  8
0
 10
17.0
 20
0.0
 30
0.0
 11
17.0
 21
11.0
 31
0.0
  0
LINE
  5
1098
  8
0
 10
0.0
 20
0.0
 30
0.0
 11
17.0
 21
0.0
 31
0.0
  0
LINE
  5
1099
  8
0
 10
0.0
 20
11.0
 30
0.0
 11
17.0
 21
11.0
 31
0.0
  0
LINE
  5
11CC
  8
FORM
 10
16.484147612058631
 20
0.6340090048041951
 30
0.0
 11
16.484147612058631
 21
9.6159909951958085
 31
0.0
  0
LINE
  5
11CD
  8
FORM
 10
16.365990995195801
 20
9.7341476120586332
 30
0.0
 11
0.6340090048042164
 21
9.7341476120586332
 31
0.0
  0
LINE
  5
11CE
  8
FORM
 10
16.365990995195801
 20
0.5158523879413757
 30
0.0
 11
0.6340090048042164
 21
0.5158523879413686
 31
0.0
  0
LINE
  5
11CF
  8
FORM
 10
0.5158523879413864
 20
0.6340090048041951
 30
0.0
 11
0.5158523879413864
 21
9.6159909951958085
 31
0.0
  0
TEXT
  5
11D0
  8
FORM
 10
13.829026757812651
 20
2.1089926618780011
 30
0.0
 40
0.2000816148829512
  1
HOSE FITTING
 72
     1
 11
14.824670984254
 21
2.1089926618780011
 31
0.0
  0
TEXT
  5
11D1
  8
FORM
 10
13.88619293349349
 20
1.685667990169768
 30
0.0
 40
0.2000816148829512
  1
OUTER FOOT
 72
     1
 11
14.824670984254
 21
1.685667990169768
 31
0.0
  0
TEXT
  5
11D2
  8
FORM
 10
12.951659298779081
 20
0.9164571331179516
 30
0.0
 40
0.2000816148829512
  1
ASTROMECH DROID
  0
TEXT
  5
11D3
  8
FORM
 10
16.064313823179301
 20
0.9242355691914526
 30
0.0
 40
0.2000816148829512
  1
A
  0
TEXT
  5
11D4
  8
FORM
 10
13.297344515919219
 20
0.6829097977420595
 30
0.0
 40
0.0800326459531805
  1
FULL
  0
TEXT
  5
11D5
  8
FORM
 10
15.8616186361924
 20
0.68514995648178
 30
0.0
 40
0.0800326459531805
  1
1   1
  0
TEXT
  5
11D6
  8
FORM
 10
14.536090933578519
 20
0.6913324136673822
 30
0.0
 40
0.0800326459531805
  1
APRIL 2005
 72
     2
 11
15.22970719850608
 21
0.6913324136673822
 31
0.0
  0
TEXT
  5
11D7
  8
FORM
  6
CONTINUOUS
 10
13.96119445049923
 20
0.6905272006124755
 30
0.0
 40
0.069148206103548
  1
DRAWN:
  0
TEXT
  5
11D8
  8
FORM
  6
CONTINUOUS
 10
12.89085133944082
 20
0.6905920449428608
 30
0.0
 40
0.069148206103548
  1
SCALE:
  0
TEXT
  5
11D9
  8
FORM
  6
CONTINUOUS
 10
15.419759618214149
 20
0.689725495444975
 30
0.0
 40
0.069148206103548
  1
SHEET:   OF
  0
TEXT
  5
11DA
  8
FORM
  6
CONTINUOUS
 10
12.76457783364566
 20
1.239055808210245
 30
0.0
 40
0.069148206103548
  1
DRAWING NO.
  0
TEXT
  5
11DB
  8
FORM
  6
CONTINUOUS
 10
16.03751880559571
 20
1.239055808210235
 30
0.0
 40
0.069148206103548
  1
REV.
 72
     1
 11
16.139594728891421
 21
1.239055808210235
 31
0.0
  0
LINE
  5
11DC
  8
FORM
  6
CONTINUOUS
 10
12.874006586966649
 20
2.639306981807088
 30
0.0
 11
16.19312047993693
 21
2.639306981807088
 31
0.0
  0
LINE
  5
11DD
  8
FORM
  6
CONTINUOUS
 10
12.70113607170777
 20
0.8068795200630631
 30
0.0
 11
12.70113607170776
 21
2.4664364665482088
 31
0.0
  0
LINE
  5
11DE
  8
FORM
  6
CONTINUOUS
 10
12.70113607170777
 20
1.342778117365558
 30
0.0
 11
16.365990995195801
 21
1.342778117365558
 31
0.0
  0
LINE
  5
11DF
  8
FORM
  6
CONTINUOUS
 10
12.70113607170777
 20
0.8068795200630631
 30
0.0
 11
16.365990995195801
 21
0.8068795200630631
 31
0.0
  0
LINE
  5
11E0
  8
FORM
  6
CONTINUOUS
 10
13.85306862165424
 20
0.8068795200630631
 30
0.0
 11
13.85306862165424
 21
0.6340090048041951
 31
0.0
  0
LINE
  5
11E1
  8
FORM
  6
CONTINUOUS
 10
15.367898463636489
 20
0.8047514437619511
 30
0.0
 11
15.367898463636489
 21
0.6318809285030831
 31
0.0
  0
LINE
  5
11E2
  8
FORM
  6
CONTINUOUS
 10
15.90921047827166
 20
1.342778117365558
 30
0.0
 11
15.90921047827166
 21
0.8068795200630631
 31
0.0
  0
ARC
  5
11E3
  8
FORM
 62
     5
 10
13.04477686979633
 20
2.1186824869621002
 30
0.0
 40
0.0188534434600954
 50
152.18113099770559
 51
330.99098814993278
  0
ARC
  5
11E4
  8
FORM
 62
     5
 10
13.126386197321329
 20
2.2758441071602951
 30
0.0
 40
0.0165314742043987
 50
335.3231536346421
 51
152.67224926330371
  0
ARC
  5
11E5
  8
FORM
 62
     5
 10
14.38557424794738
 20
1.5001984443608301
 30
0.0
 40
1.495397362786747
 50
148.41494327216151
 51
155.19852313243231
  0
ARC
  5
11E6
  8
FORM
 62
     5
 10
14.67501980856775
 20
1.3980394513723831
 30
0.0
 40
1.763643078824644
 50
150.40875710206339
 51
156.20744757951141
  0
ARC
  5
11E7
  8
FORM
 62
     7
 10
12.991464018212749
 20
1.9602931191640911
 30
0.0
 40
0.0251922474207515
 50
161.128725237971
 51
346.89295927401378
  0
ARC
  5
11E8
  8
FORM
 62
     7
 10
20.35736643066603
 20
-1.2212613690260521
 30
0.0
 40
7.9988518948410858
 50
153.58307292081309
 51
156.60691138966209
  0
ARC
  5
11E9
  8
FORM
 62
     7
 10
19.202101625995549
 20
-0.8056564218828584
 30
0.0
 40
6.8151207749529688
 50
152.34095999775931
 51
152.9694116127464
  0
ARC
  5
11EA
  8
FORM
 62
     7
 10
19.278496529666569
 20
-1.0276374460023261
 30
0.0
 40
6.9859556428572267
 50
153.3711283527573
 51
154.60402195655351
  0
ARC
  5
11EB
  8
FORM
 62
     7
 10
13.354898158324501
 20
2.2547307595741688
 30
0.0
 40
0.1811261457171982
 50
23.468725928190992
 51
88.151617587883351
  0
ARC
  5
11EC
  8
FORM
 62
     7
 10
13.358946198540719
 20
2.26640791111162
 30
0.0
 40
0.2137794625736775
 50
18.23262529566556
 51
154.63608874642691
  0
ARC
  5
11ED
  8
FORM
 62
     7
 10
13.42299689775896
 20
2.288690536149864
 30
0.0
 40
0.1459771228480954
 50
336.99722732837893
 51
341.11190659806488
  0
ARC
  5
11EE
  8
FORM
 62
     7
 10
13.431679155771841
 20
2.2951464111902951
 30
0.0
 40
0.0956104813627528
 50
333.24704424527528
 51
339.12675173356178
  0
ARC
  5
11EF
  8
FORM
 62
     7
 10
13.522113095579609
 20
2.2499998156227639
 30
0.0
 40
0.0054797286924766
 50
157.37475902115841
 51
243.18317341424029
  0
ARC
  5
11F0
  8
FORM
 62
     7
 10
13.55447854642312
 20
2.2324989823066552
 30
0.0
 40
0.0030114991132884
 50
246.74236679857631
 51
343.55073793579641
  0
ARC
  5
11F1
  8
FORM
 62
     7
 10
13.649242515218971
 20
2.4842002985944158
 30
0.0
 40
0.271957738005823
 50
241.5396617947477
 51
249.33988332022491
  0
ARC
  5
11F2
  8
FORM
 62
     7
 10
13.4591325891842
 20
2.1957947984781958
 30
0.0
 40
0.0536868574507958
 50
210.28645373052609
 51
287.25915125833183
  0
ARC
  5
11F3
  8
FORM
 62
     7
 10
13.46374548958414
 20
2.1725786804623719
 30
0.0
 40
0.0302495516891243
 50
291.96730232828992
 51
10.20108836223371
  0
ARC
  5
11F4
  8
FORM
 62
     7
 10
13.224677527813469
 20
2.120840346952654
 30
0.0
 40
0.1940937119913158
 50
14.28109924276106
 51
24.947261539878241
  0
ARC
  5
11F5
  8
FORM
 62
     7
 10
13.33788450797635
 20
2.1796295366011149
 30
0.0
 40
0.0668841061965828
 50
20.18306378886756
 51
47.833846572520173
  0
ARC
  5
11F6
  8
FORM
 62
     7
 10
13.350388234890611
 20
2.1457512828194529
 30
0.0
 40
0.089519691428821
 50
68.784960310907394
 51
94.742087985452599
  0
ARC
  5
11F7
  8
FORM
 62
     7
 10
13.34941423143124
 20
2.1986562466492421
 30
0.0
 40
0.036872673284197
 50
100.0375073429591
 51
170.98475346238999
  0
ARC
  5
11F8
  8
FORM
 62
     7
 10
13.52284968491537
 20
2.1731683782493638
 30
0.0
 40
0.2121689656157903
 50
171.52589863719891
 51
197.494741096675
  0
ARC
  5
11F9
  8
FORM
 62
     7
 10
13.379928076702869
 20
2.1761701253644778
 30
0.0
 40
0.1136025122223039
 50
0.8906501289532242
 51
49.113860192417171
  0
ARC
  5
11FA
  8
FORM
 62
     7
 10
13.355995808337299
 20
2.1970071573261332
 30
0.0
 40
0.0894129368447451
 50
99.869748807366761
 51
175.59516845025641
  0
ARC
  5
11FB
  8
FORM
 62
     7
 10
13.37211801256317
 20
2.1485244043259861
 30
0.0
 40
0.1401464035212747
 50
54.104282451028169
 51
102.9674010870567
  0
ARC
  5
11FC
  8
FORM
 62
     7
 10
13.76765204168187
 20
2.2319085392940821
 30
0.0
 40
0.4636392383612588
 50
195.32307896217739
 51
209.29084315695809
  0
ARC
  5
11FD
  8
FORM
 62
     7
 10
13.62176921197093
 20
2.1558888844703752
 30
0.0
 40
0.358151365974493
 50
172.3003020759547
 51
200.12627387409299
  0
ARC
  5
11FE
  8
FORM
 62
     7
 10
13.87784050643449
 20
2.2558495792130411
 30
0.0
 40
0.6330076434458865
 50
200.64629086238159
 51
210.04649609044401
  0
ARC
  5
11FF
  8
FORM
 62
     7
 10
13.00584297217528
 20
1.7651942952909601
 30
0.0
 40
0.4304787001033431
 50
28.431949107384359
 51
33.865461133002448
  0
ARC
  5
1200
  8
FORM
 62
     7
 10
13.35941745510968
 20
1.950567856294313
 30
0.0
 40
0.0317424459006294
 50
201.56446042640411
 51
38.094090168146302
  0
ARC
  5
1201
  8
FORM
 62
     5
 10
13.6383660618074
 20
2.2142819182737798
 30
0.0
 40
0.0176569498803825
 50
227.6202696593605
 51
57.412112921204063
  0
ARC
  5
1202
  8
FORM
 62
     5
 10
13.430127955313081
 20
1.9426310314385331
 30
0.0
 40
0.359878468651919
 50
52.766851639305827
 51
65.063571515457895
  0
ARC
  5
1203
  8
FORM
 62
     5
 10
13.262610214247269
 20
1.682901505973134
 30
0.0
 40
0.6332957988855307
 50
54.932512589538817
 51
74.152868438598915
  0
ARC
  5
1204
  8
FORM
 62
     5
 10
13.271741224914511
 20
1.4946303420398119
 30
0.0
 40
0.8141464353032019
 50
78.393012355262385
 51
89.647961077025343
  0
ARC
  5
1205
  8
FORM
 62
     5
 10
13.27537529177442
 20
2.3323914188280241
 30
0.0
 40
0.0236695866834528
 50
183.9979944211656
 51
273.313807745882
  0
ARC
  5
1206
  8
FORM
 62
     5
 10
13.35526085930606
 20
2.3386443488409041
 30
0.0
 40
0.103798865281065
 50
145.6085916691928
 51
184.36670732083471
  0
ARC
  5
1207
  8
FORM
 62
     5
 10
13.291396665717601
 20
2.3834953579566038
 30
0.0
 40
0.0257815152583025
 50
75.244714174009715
 51
147.69298501161609
  0
ARC
  5
1208
  8
FORM
 62
     5
 10
12.984074694810539
 20
1.2040798567959881
 30
0.0
 40
1.244579080947225
 50
61.637242241525243
 51
75.392005557716701
  0
ARC
  5
1209
  8
FORM
 62
     5
 10
13.551797825772001
 20
2.2783236912083922
 30
0.0
 40
0.0314839568879094
 50
342.6982574268402
 51
41.672783787677623
  0
ARC
  5
120A
  8
FORM
 62
     7
 10
13.42299689775896
 20
2.288690536149864
 30
0.0
 40
0.1459771228480954
 50
5.6380312699922861
 51
17.791456368736831
  0
ARC
  5
120B
  8
FORM
 62
     7
 10
13.489427342601051
 20
1.6007999024493449
 30
0.0
 40
0.046711457312993
 50
88.432533024773406
 51
186.62631613112151
  0
ARC
  5
120C
  8
FORM
 62
     7
 10
13.49675858432429
 20
1.6105396663507321
 30
0.0
 40
0.0558202426388025
 50
195.7266305128272
 51
285.3806868435185
  0
ARC
  5
120D
  8
FORM
 62
     7
 10
13.43093130756249
 20
2.1045278917162409
 30
0.0
 40
0.5537116491995469
 50
278.37329371359459
 51
293.15208507016871
  0
ARC
  5
120E
  8
FORM
 62
     7
 10
13.61670164249148
 20
1.756019172507965
 30
0.0
 40
0.1142007584316564
 50
257.51805604168283
 51
277.23103351305667
  0
ARC
  5
120F
  8
FORM
 62
     7
 10
13.62310455387666
 20
1.6622018832727781
 30
0.0
 40
0.0210435172471391
 50
292.26031345923337
 51
12.86737930052373
  0
ARC
  5
1210
  8
FORM
 62
     7
 10
13.607457700436219
 20
1.659184975616895
 30
0.0
 40
0.036973292087752
 50
12.02537552739556
 51
52.143631645159331
  0
ARC
  5
1211
  8
FORM
 62
     7
 10
14.395818732714821
 20
2.6172173020938132
 30
0.0
 40
1.2037424972589701
 50
219.60277928185971
 51
230.50020204080559
  0
ARC
  5
1212
  8
FORM
 62
     7
 10
13.652733275951681
 20
1.9941623012201211
 30
0.0
 40
0.2341213247689704
 50
175.97523115435061
 51
218.04500009534149
  0
ARC
  5
1213
  8
FORM
 62
     7
 10
13.55350038114107
 20
2.0176722641953471
 30
0.0
 40
0.1344973861223784
 50
149.96078860476399
 51
183.01641230856191
  0
ARC
  5
1214
  8
FORM
 62
     7
 10
13.45954366164081
 20
2.07299932292015
 30
0.0
 40
0.0254789098120269
 50
69.764209445538683
 51
151.8988190455112
  0
ARC
  5
1215
  8
FORM
 62
     7
 10
13.456537680486679
 20
2.07126747983376
 30
0.0
 40
0.0282311150502572
 50
357.6694469744499
 51
65.251102439515435
  0
ARC
  5
1216
  8
FORM
 62
     7
 10
13.39001888680861
 20
2.0658085316276411
 30
0.0
 40
0.0948246006914946
 50
345.36193237678458
 51
2.6056939300727771
  0
ARC
  5
1217
  8
FORM
 62
     7
 10
13.693893794908741
 20
1.9762560830929199
 30
0.0
 40
0.2220366937229542
 50
162.8186183088072
 51
185.35496664157321
  0
ARC
  5
1218
  8
FORM
 62
     7
 10
13.669140261081489
 20
1.998529790474858
 30
0.0
 40
0.2009672573467367
 50
192.35349941930221
 51
222.30204766960321
  0
ARC
  5
1219
  8
FORM
 62
     7
 10
14.361464293309529
 20
2.5566616734304008
 30
0.0
 40
1.0899567634416629
 50
219.50633019139829
 51
228.42762303996261
  0
ARC
  5
121A
  8
FORM
 62
     7
 10
13.52059955021468
 20
1.580976331006358
 30
0.0
 40
0.1987901636968699
 50
32.971129457978812
 51
53.728419363024351
  0
ARC
  5
121B
  8
FORM
 62
     7
 10
13.62839485959608
 20
1.6586520589902769
 30
0.0
 40
0.0664025030626794
 50
287.74749415951351
 51
27.352111896629431
  0
ARC
  5
121C
  8
FORM
 62
     7
 10
13.529048378339979
 20
1.226832417800729
 30
0.0
 40
0.4224053434052901
 50
81.426570944510203
 51
95.208118001959775
  0
ARC
  5
121D
  8
FORM
 62
     7
 10
13.34671426349607
 20
1.8852888198072
 30
0.0
 40
0.0188048406500912
 50
325.52447187114308
 51
75.340502228459783
  0
ARC
  5
121E
  8
FORM
 62
     7
 10
13.323545284373109
 20
1.9022998550377319
 30
0.0
 40
0.0475424544875808
 50
277.78730616127859
 51
324.42957968808531
  0
ARC
  5
121F
  8
FORM
 62
     7
 10
13.31513732931408
 20
1.9102064416359139
 30
0.0
 40
0.0569796604055946
 50
243.48581874200181
 51
285.1065744639306
  0
ARC
  5
1220
  8
FORM
 62
     7
 10
10.794918804532889
 20
-4.5297384066513864
 30
0.0
 40
6.9225926661188568
 50
68.327181839257534
 51
70.606105230637283
  0
ARC
  5
1221
  8
FORM
 62
     7
 10
13.088750851780709
 20
1.9797766195403339
 30
0.0
 40
0.0208571569832622
 50
76.445232091872299
 51
134.36352227876461
  0
ARC
  5
1222
  8
FORM
 62
     7
 10
13.18148225369479
 20
1.8371029743830929
 30
0.0
 40
0.1906553367366958
 50
124.2547762008316
 51
135.012931962436
  0
ARC
  5
1223
  8
FORM
 62
     7
 10
13.050217459593449
 20
1.9658216530568851
 30
0.0
 40
0.0070420521886436
 50
120.5491196217085
 51
251.48388650457539
  0
ARC
  5
1224
  8
FORM
 62
     7
 10
12.102609582274271
 20
-0.6700542757339605
 30
0.0
 40
2.793995635460623
 50
64.85742894317822
 51
67.515132469299331
  0
ARC
  5
1225
  8
FORM
 62
     7
 10
13.28316177556187
 20
1.818135413693315
 30
0.0
 40
0.0263792990891666
 50
329.18566117941782
 51
69.527151249863806
  0
ARC
  5
1226
  8
FORM
 62
     7
 10
13.21395759371225
 20
1.7136090610551411
 30
0.0
 40
0.1511761169714233
 50
58.747973844557563
 51
81.106226592028094
  0
ARC
  5
1227
  8
FORM
 62
     7
 10
13.19787604286341
 20
1.61339171735872
 30
0.0
 40
0.252675078733898
 50
81.016817915507374
 51
97.679603827268224
  0
ARC
  5
1228
  8
FORM
 62
     7
 10
13.224469861585421
 20
1.689321576498183
 30
0.0
 40
0.1874269998684321
 50
121.5050128230592
 51
139.09578810607039
  0
ARC
  5
1229
  8
FORM
 62
     7
 10
13.2753523157097
 20
1.814111852132068
 30
0.0
 40
0.0319085550486712
 50
277.70569210516868
 51
342.69880024124109
  0
ARC
  5
122A
  8
FORM
 62
     7
 10
13.265559284055019
 20
1.850115817382906
 30
0.0
 40
0.0690728861222022
 50
250.08394506358289
 51
281.75453717228322
  0
ARC
  5
122B
  8
FORM
 62
     7
 10
13.28812677519262
 20
1.858046081840345
 30
0.0
 40
0.0862278718518301
 50
221.18187885427241
 51
237.68378775985289
  0
ARC
  5
122C
  8
FORM
 62
     7
 10
13.186997271384399
 20
1.7580832213708599
 30
0.0
 40
0.0563721321250733
 50
50.003848755011681
 51
75.5416830098399
  0
ARC
  5
122D
  8
FORM
 62
     7
 10
13.18401561001931
 20
1.7785159196435201
 30
0.0
 40
0.0381762196213393
 50
63.4626603498468
 51
100.74200229027051
  0
ARC
  5
122E
  8
FORM
 62
     7
 10
13.17690006288543
 20
1.751426588373806
 30
0.0
 40
0.064596567019134
 50
89.999999999999588
 51
125.5974615489027
  0
ARC
  5
122F
  8
FORM
 62
     7
 10
13.943169967455511
 20
2.2123980959706131
 30
0.0
 40
0.8938000416812776
 50
197.51922498184919
 51
203.981481444731
  0
ARC
  5
1230
  8
FORM
 62
     7
 10
12.899912187086739
 20
1.927111329637615
 30
0.0
 40
0.271677852932892
 50
346.52409876011302
 51
356.71498770316703
  0
ARC
  5
1231
  8
FORM
 62
     7
 10
12.102609582274271
 20
-0.6700542757339605
 30
0.0
 40
2.793995635460623
 50
69.286600818944052
 51
70.223117600768035
  0
ARC
  5
1232
  8
FORM
 62
     7
 10
13.04653800572463
 20
1.690640188859845
 30
0.0
 40
0.0819272792495905
 50
245.40259669902051
 51
275.40975098180542
  0
ARC
  5
1233
  8
FORM
 62
     7
 10
13.33381080734401
 20
1.5428085262683771
 30
0.0
 40
0.3256233144805797
 50
126.68044463040199
 51
139.78708822539889
  0
ARC
  5
1234
  8
FORM
 62
     7
 10
13.04500540091828
 20
1.9210927562931019
 30
0.0
 40
0.3121522132917629
 50
271.69929119420118
 51
283.39540842056908
  0
ARC
  5
1235
  8
FORM
 62
     7
 10
13.628698166662589
 20
1.200712293569552
 30
0.0
 40
0.7749277189646824
 50
134.5410403491789
 51
138.91474429089911
  0
ARC
  5
1236
  8
FORM
 62
     7
 10
13.05784989606523
 20
1.6989639079203509
 30
0.0
 40
0.0205005733572468
 50
201.8252958964795
 51
267.16449786715452
  0
ARC
  5
1237
  8
FORM
 62
     7
 10
13.05343659707826
 20
1.697018971721679
 30
0.0
 40
0.0156813934122129
 50
124.254854327418
 51
201.22329273937871
  0
ARC
  5
1238
  8
FORM
 62
     7
 10
13.10118501969685
 20
1.684260473122293
 30
0.0
 40
0.068748292490709
 50
283.5751770312794
 51
324.58969283639931
  0
ARC
  5
1239
  8
FORM
 62
     7
 10
13.14039356000154
 20
1.6515176982048621
 30
0.0
 40
0.0182566773696035
 50
337.14160324238748
 51
47.56496670892831
  0
ARC
  5
123A
  8
FORM
 62
     7
 10
13.112292844989749
 20
1.6113715022507791
 30
0.0
 40
0.0671482106790479
 50
52.990730681111657
 51
91.748895977531376
  0
ARC
  5
123B
  8
FORM
 62
     7
 10
13.08353964605875
 20
1.8607804106031369
 30
0.0
 40
0.1842375159526987
 50
261.66603807207321
 51
278.33396192792679
  0
ARC
  5
123C
  8
FORM
 62
     7
 10
13.02822719754589
 20
1.655671440092024
 30
0.0
 40
0.0425616210629247
 50
192.64550774538381
 51
248.2223967256862
  0
ARC
  5
123D
  8
FORM
 62
     7
 10
13.017766749099581
 20
1.660493121495527
 30
0.0
 40
0.0341348066426429
 50
178.88427582775461
 51
204.46998391858139
  0
ARC
  5
123E
  8
FORM
 62
     7
 10
13.10220733902673
 20
1.651866477753827
 30
0.0
 40
0.1189324110130265
 50
140.54690015149379
 51
175.5193383191162
  0
ARC
  5
123F
  8
FORM
 62
     7
 10
14.273651263450629
 20
0.7191778149149535
 30
0.0
 40
1.6163120713229819
 50
137.4564398093305
 51
141.40545593619061
  0
POLYLINE
  5
1240
  8
FORM
 62
     1
 10
13.313597500211122
 20
2.3929838907158456
 30
0.0
 66
     1
 70
     8
  0
VERTEX
  8
FORM
  5
16AA
 10
13.3136
 20
2.39298
 30
0.000000
  70
    32
  0
VERTEX
  8
FORM
  5
16AB
 10
13.3129
 20
2.39325
 30
0.000000
  70
    32
  0
VERTEX
  8
FORM
  5
16AC
 10
13.3121
 20
2.39343
 30
0.000000
  70
    32
  0
VERTEX
  8
FORM
  5
16AD
 10
13.3113
 20
2.39353
 30
0.000000
  70
    32
  0
VERTEX
  8
FORM
  5
16AE
 10
13.3105
 20
2.39354
 30
0.000000
  70
    32
  0
VERTEX
  8
FORM
  5
16AF
 10
13.3097
 20
2.39347
 30
0.000000
  70
    32
  0
VERTEX
  8
FORM
  5
16B0
 10
13.3088
 20
2.39331
 30
0.000000
  70
    32
  0
VERTEX
  8
FORM
  5
16B1
 10
13.3079
 20
2.39307
 30
0.000000
  70
    32
  0
VERTEX
  8
FORM
  5
16B2
 10
13.3070
 20
2.39274
 30
0.000000
  70
    32
  0
VERTEX
  8
FORM
  5
16B3
 10
13.3061
 20
2.39234
 30
0.000000
  70
    32
  0
VERTEX
  8
FORM
  5
16B4
 10
13.3051
 20
2.39185
 30
0.000000
  70
    32
  0
VERTEX
  8
FORM
  5
16B5
 10
13.3041
 20
2.39128
 30
0.000000
  70
    32
  0
VERTEX
  8
FORM
  5
16B6
 10
13.3032
 20
2.39063
 30
0.000000
  70
    32
  0
VERTEX
  8
FORM
  5
16B7
 10
13.3022
 20
2.38991
 30
0.000000
  70
    32
  0
VERTEX
  8
FORM
  5
16B8
 10
13.3011
 20
2.38911
 30
0.000000
  70
    32
  0
VERTEX
  8
FORM
  5
16B9
 10
13.3001
 20
2.38823
 30
0.000000
  70
    32
  0
VERTEX
  8
FORM
  5
16BA
 10
13.2991
 20
2.38729
 30
0.000000
  70
    32
  0
VERTEX
  8
FORM
  5
16BB
 10
13.2981
 20
2.38627
 30
0.000000
  70
    32
  0
VERTEX
  8
FORM
  5
16BC
 10
13.2971
 20
2.38519
 30
0.000000
  70
    32
  0
VERTEX
  8
FORM
  5
16BD
 10
13.2961
 20
2.38404
 30
0.000000
  70
    32
  0
VERTEX
  8
FORM
  5
16BE
 10
13.2951
 20
2.38283
 30
0.000000
  70
    32
  0
VERTEX
  8
FORM
  5
16BF
 10
13.2941
 20
2.38157
 30
0.000000
  70
    32
  0
VERTEX
  8
FORM
  5
16C0
 10
13.2931
 20
2.38024
 30
0.000000
  70
    32
  0
VERTEX
  8
FORM
  5
16C1
 10
13.2921
 20
2.37887
 30
0.000000
  70
    32
  0
VERTEX
  8
FORM
  5
16C2
 10
13.2911
 20
2.37744
 30
0.000000
  70
    32
  0
VERTEX
  8
FORM
  5
16C3
 10
13.2902
 20
2.37597
 30
0.000000
  70
    32
  0
VERTEX
  8
FORM
  5
16C4
 10
13.2892
 20
2.37446
 30
0.000000
  70
    32
  0
VERTEX
  8
FORM
  5
16C5
 10
13.2883
 20
2.37291
 30
0.000000
  70
    32
  0
VERTEX
  8
FORM
  5
16C6
 10
13.2875
 20
2.37132
 30
0.000000
  70
    32
  0
VERTEX
  8
FORM
  5
16C7
 10
13.2866
 20
2.36971
 30
0.000000
  70
    32
  0
VERTEX
  8
FORM
  5
16C8
 10
13.2858
 20
2.36806
 30
0.000000
  70
    32
  0
VERTEX
  8
FORM
  5
16C9
 10
13.2850
 20
2.36640
 30
0.000000
  70
    32
  0
VERTEX
  8
FORM
  5
16CA
 10
13.2842
 20
2.36471
 30
0.000000
  70
    32
  0
VERTEX
  8
FORM
  5
16CB
 10
13.2835
 20
2.36301
 30
0.000000
  70
    32
  0
VERTEX
  8
FORM
  5
16CC
 10
13.2828
 20
2.36130
 30
0.000000
  70
    32
  0
VERTEX
  8
FORM
  5
16CD
 10
13.2822
 20
2.35958
 30
0.000000
  70
    32
  0
VERTEX
  8
FORM
  5
16CE
 10
13.2816
 20
2.35786
 30
0.000000
  70
    32
  0
VERTEX
  8
FORM
  5
16CF
 10
13.2810
 20
2.35614
 30
0.000000
  70
    32
  0
VERTEX
  8
FORM
  5
16D0
 10
13.2805
 20
2.35443
 30
0.000000
  70
    32
  0
VERTEX
  8
FORM
  5
16D1
 10
13.2800
 20
2.35272
 30
0.000000
  70
    32
  0
VERTEX
  8
FORM
  5
16D2
 10
13.2795
 20
2.35103
 30
0.000000
  70
    32
  0
VERTEX
  8
FORM
  5
16D3
 10
13.2791
 20
2.34936
 30
0.000000
  70
    32
  0
VERTEX
  8
FORM
  5
16D4
 10
13.2788
 20
2.34771
 30
0.000000
  70
    32
  0
VERTEX
  8
FORM
  5
16D5
 10
13.2785
 20
2.34608
 30
0.000000
  70
    32
  0
VERTEX
  8
FORM
  5
16D6
 10
13.2782
 20
2.34449
 30
0.000000
  70
    32
  0
VERTEX
  8
FORM
  5
16D7
 10
13.2780
 20
2.34293
 30
0.000000
  70
    32
  0
VERTEX
  8
FORM
  5
16D8
 10
13.2778
 20
2.34140
 30
0.000000
  70
    32
  0
VERTEX
  8
FORM
  5
16D9
 10
13.2777
 20
2.33992
 30
0.000000
  70
    32
  0
VERTEX
  8
FORM
  5
16DA
 10
13.2777
 20
2.33848
 30
0.000000
  70
    32
  0
VERTEX
  8
FORM
  5
16DB
 10
13.2777
 20
2.33709
 30
0.000000
  70
    32
  0
VERTEX
  8
FORM
  5
16DC
 10
13.2777
 20
2.33575
 30
0.000000
  70
    32
  0
VERTEX
  8
FORM
  5
16DD
 10
13.2778
 20
2.33447
 30
0.000000
  70
    32
  0
VERTEX
  8
FORM
  5
16DE
 10
13.2780
 20
2.33325
 30
0.000000
  70
    32
  0
VERTEX
  8
FORM
  5
16DF
 10
13.2781
 20
2.33208
 30
0.000000
  70
    32
  0
VERTEX
  8
FORM
  5
16E0
 10
13.2784
 20
2.33098
 30
0.000000
  70
    32
  0
VERTEX
  8
FORM
  5
16E1
 10
13.2787
 20
2.32994
 30
0.000000
  70
    32
  0
VERTEX
  8
FORM
  5
16E2
 10
13.2790
 20
2.32898
 30
0.000000
  70
    32
  0
VERTEX
  8
FORM
  5
16E3
 10
13.2794
 20
2.32808
 30
0.000000
  70
    32
  0
VERTEX
  8
FORM
  5
16E4
 10
13.2798
 20
2.32726
 30
0.000000
  70
    32
  0
VERTEX
  8
FORM
  5
16E5
 10
13.2803
 20
2.32651
 30
0.000000
  70
    32
  0
VERTEX
  8
FORM
  5
16E6
 10
13.2808
 20
2.32584
 30
0.000000
  70
    32
  0
VERTEX
  8
FORM
  5
16E7
 10
13.2814
 20
2.32525
 30
0.000000
  70
    32
  0
VERTEX
  8
FORM
  5
16E8
 10
13.2820
 20
2.32474
 30
0.000000
  70
    32
  0
VERTEX
  8
FORM
  5
16E9
 10
13.2826
 20
2.32431
 30
0.000000
  70
    32
  0
VERTEX
  8
FORM
  5
16EA
 10
13.2833
 20
2.32396
 30
0.000000
  70
    32
  0
VERTEX
  8
FORM
  5
16EB
 10
13.2840
 20
2.32370
 30
0.000000
  70
    32
  0
VERTEX
  8
FORM
  5
16EC
 10
13.2848
 20
2.32352
 30
0.000000
  70
    32
  0
VERTEX
  8
FORM
  5
16ED
 10
13.2855
 20
2.32342
 30
0.000000
  70
    32
  0
VERTEX
  8
FORM
  5
16EE
 10
13.2864
 20
2.32341
 30
0.000000
  70
    32
  0
VERTEX
  8
FORM
  5
16EF
 10
13.2872
 20
2.32348
 30
0.000000
  70
    32
  0
VERTEX
  8
FORM
  5
16F0
 10
13.2881
 20
2.32364
 30
0.000000
  70
    32
  0
VERTEX
  8
FORM
  5
16F1
 10
13.2890
 20
2.32388
 30
0.000000
  70
    32
  0
VERTEX
  8
FORM
  5
16F2
 10
13.2899
 20
2.32420
 30
0.000000
  70
    32
  0
VERTEX
  8
FORM
  5
16F3
 10
13.2908
 20
2.32461
 30
0.000000
  70
    32
  0
VERTEX
  8
FORM
  5
16F4
 10
13.2918
 20
2.32510
 30
0.000000
  70
    32
  0
VERTEX
  8
FORM
  5
16F5
 10
13.2927
 20
2.32567
 30
0.000000
  70
    32
  0
VERTEX
  8
FORM
  5
16F6
 10
13.2937
 20
2.32631
 30
0.000000
  70
    32
  0
VERTEX
  8
FORM
  5
16F7
 10
13.2947
 20
2.32704
 30
0.000000
  70
    32
  0
VERTEX
  8
FORM
  5
16F8
 10
13.2957
 20
2.32784
 30
0.000000
  70
    32
  0
VERTEX
  8
FORM
  5
16F9
 10
13.2968
 20
2.32872
 30
0.000000
  70
    32
  0
VERTEX
  8
FORM
  5
16FA
 10
13.2978
 20
2.32966
 30
0.000000
  70
    32
  0
VERTEX
  8
FORM
  5
16FB
 10
13.2988
 20
2.33068
 30
0.000000
  70
    32
  0
VERTEX
  8
FORM
  5
16FC
 10
13.2998
 20
2.33176
 30
0.000000
  70
    32
  0
VERTEX
  8
FORM
  5
16FD
 10
13.3008
 20
2.33291
 30
0.000000
  70
    32
  0
VERTEX
  8
FORM
  5
16FE
 10
13.3018
 20
2.33412
 30
0.000000
  70
    32
  0
VERTEX
  8
FORM
  5
16FF
 10
13.3028
 20
2.33538
 30
0.000000
  70
    32
  0
VERTEX
  8
FORM
  5
1700
 10
13.3038
 20
2.33671
 30
0.000000
  70
    32
  0
VERTEX
  8
FORM
  5
1701
 10
13.3048
 20
2.33808
 30
0.000000
  70
    32
  0
VERTEX
  8
FORM
  5
1702
 10
13.3058
 20
2.33950
 30
0.000000
  70
    32
  0
VERTEX
  8
FORM
  5
1703
 10
13.3067
 20
2.34098
 30
0.000000
  70
    32
  0
VERTEX
  8
FORM
  5
1704
 10
13.3076
 20
2.34249
 30
0.000000
  70
    32
  0
VERTEX
  8
FORM
  5
1705
 10
13.3085
 20
2.34404
 30
0.000000
  70
    32
  0
VERTEX
  8
FORM
  5
1706
 10
13.3094
 20
2.34562
 30
0.000000
  70
    32
  0
VERTEX
  8
FORM
  5
1707
 10
13.3103
 20
2.34724
 30
0.000000
  70
    32
  0
VERTEX
  8
FORM
  5
1708
 10
13.3111
 20
2.34888
 30
0.000000
  70
    32
  0
VERTEX
  8
FORM
  5
1709
 10
13.3119
 20
2.35055
 30
0.000000
  70
    32
  0
VERTEX
  8
FORM
  5
170A
 10
13.3126
 20
2.35224
 30
0.000000
  70
    32
  0
VERTEX
  8
FORM
  5
170B
 10
13.3134
 20
2.35394
 30
0.000000
  70
    32
  0
VERTEX
  8
FORM
  5
170C
 10
13.3141
 20
2.35565
 30
0.000000
  70
    32
  0
VERTEX
  8
FORM
  5
170D
 10
13.3147
 20
2.35737
 30
0.000000
  70
    32
  0
VERTEX
  8
FORM
  5
170E
 10
13.3153
 20
2.35909
 30
0.000000
  70
    32
  0
VERTEX
  8
FORM
  5
170F
 10
13.3159
 20
2.36081
 30
0.000000
  70
    32
  0
VERTEX
  8
FORM
  5
1710
 10
13.3164
 20
2.36252
 30
0.000000
  70
    32
  0
VERTEX
  8
FORM
  5
1711
 10
13.3169
 20
2.36423
 30
0.000000
  70
    32
  0
VERTEX
  8
FORM
  5
1712
 10
13.3174
 20
2.36592
 30
0.000000
  70
    32
  0
VERTEX
  8
FORM
  5
1713
 10
13.3178
 20
2.36759
 30
0.000000
  70
    32
  0
VERTEX
  8
FORM
  5
1714
 10
13.3181
 20
2.36924
 30
0.000000
  70
    32
  0
VERTEX
  8
FORM
  5
1715
 10
13.3184
 20
2.37087
 30
0.000000
  70
    32
  0
VERTEX
  8
FORM
  5
1716
 10
13.3187
 20
2.37246
 30
0.000000
  70
    32
  0
VERTEX
  8
FORM
  5
1717
 10
13.3189
 20
2.37402
 30
0.000000
  70
    32
  0
VERTEX
  8
FORM
  5
1718
 10
13.3190
 20
2.37555
 30
0.000000
  70
    32
  0
VERTEX
  8
FORM
  5
1719
 10
13.3191
 20
2.37703
 30
0.000000
  70
    32
  0
VERTEX
  8
FORM
  5
171A
 10
13.3192
 20
2.37847
 30
0.000000
  70
    32
  0
VERTEX
  8
FORM
  5
171B
 10
13.3192
 20
2.37986
 30
0.000000
  70
    32
  0
VERTEX
  8
FORM
  5
171C
 10
13.3192
 20
2.38119
 30
0.000000
  70
    32
  0
VERTEX
  8
FORM
  5
171D
 10
13.3191
 20
2.38248
 30
0.000000
  70
    32
  0
VERTEX
  8
FORM
  5
171E
 10
13.3189
 20
2.38370
 30
0.000000
  70
    32
  0
VERTEX
  8
FORM
  5
171F
 10
13.3187
 20
2.38487
 30
0.000000
  70
    32
  0
VERTEX
  8
FORM
  5
1720
 10
13.3185
 20
2.38597
 30
0.000000
  70
    32
  0
VERTEX
  8
FORM
  5
1721
 10
13.3182
 20
2.38700
 30
0.000000
  70
    32
  0
VERTEX
  8
FORM
  5
1722
 10
13.3179
 20
2.38797
 30
0.000000
  70
    32
  0
VERTEX
  8
FORM
  5
1723
 10
13.3175
 20
2.38887
 30
0.000000
  70
    32
  0
VERTEX
  8
FORM
  5
1724
 10
13.3171
 20
2.38969
 30
0.000000
  70
    32
  0
VERTEX
  8
FORM
  5
1725
 10
13.3166
 20
2.39043
 30
0.000000
  70
    32
  0
VERTEX
  8
FORM
  5
1726
 10
13.3161
 20
2.39110
 30
0.000000
  70
    32
  0
VERTEX
  8
FORM
  5
1727
 10
13.3155
 20
2.39170
 30
0.000000
  70
    32
  0
VERTEX
  8
FORM
  5
1728
 10
13.3149
 20
2.39221
 30
0.000000
  70
    32
  0
VERTEX
  8
FORM
  5
1729
 10
13.3143
 20
2.39264
 30
0.000000
  70
    32
  0
VERTEX
  8
FORM
  5
172A
 10
13.3136
 20
2.39298
 30
0.000000
  70
    32
  0
SEQEND
  8
FORM
  5
172B
  0
ARC
  5
1241
  8
FORM
 62
     7
 10
13.34744577181497
 20
2.2673859045416691
 30
0.0
 40
0.1689007929904549
 50
85.485448269952457
 51
155.5006785655419
  0
TEXT
  5
1242
  8
FORM
 62
     7
 10
12.75316302876921
 20
1.384152449853342
 30
0.0
 40
0.0661677054431832
  1
R2-D2 BUILDERS CLUB
  0
ARC
  5
1243
  8
FORM
 10
0.6340090048042164
 20
0.6340090048041951
 30
0.0
 40
0.1181566168628271
 50
180.0
 51
270.0
  0
ARC
  5
1244
  8
FORM
 10
0.6340090048042164
 20
0.6340090048041951
 30
0.0
 40
0.2363132337256541
 50
180.0
 51
270.0
  0
ARC
  5
1245
  8
FORM
 10
0.6340090048042164
 20
0.6340090048041951
 30
0.0
 40
0.2658523879413609
 50
180.0
 51
270.0
  0
ARC
  5
1246
  8
FORM
 10
0.6340090048042164
 20
0.6340090048041951
 30
0.0
 40
0.3840090048041879
 50
180.0
 51
270.0
  0
ARC
  5
1247
  8
FORM
 10
0.6340090048042164
 20
9.6159909951958085
 30
0.0
 40
0.3840090048041879
 50
90.0
 51
180.0
  0
ARC
  5
1248
  8
FORM
 10
0.6340090048042164
 20
9.6159909951958085
 30
0.0
 40
0.2658523879413609
 50
90.0
 51
180.0
  0
ARC
  5
1249
  8
FORM
 10
0.6340090048042164
 20
9.6159909951958085
 30
0.0
 40
0.2363132337256541
 50
90.0
 51
180.0
  0
ARC
  5
124A
  8
FORM
 10
0.6340090048042164
 20
9.6159909951958085
 30
0.0
 40
0.1181566168628271
 50
90.0
 51
180.0
  0
ARC
  5
124B
  8
FORM
 10
16.365990995195801
 20
9.6159909951958085
 30
0.0
 40
0.2363132337256541
 50
0.0
 51
90.0
  0
ARC
  5
124C
  8
FORM
 10
16.365990995195801
 20
9.6159909951958085
 30
0.0
 40
0.2658523879413609
 50
0.0
 51
90.0
  0
ARC
  5
124D
  8
FORM
 10
16.365990995195801
 20
9.6159909951958085
 30
0.0
 40
0.3840090048041879
 50
0.0
 51
90.0
  0
ARC
  5
124E
  8
FORM
 10
16.365990995195801
 20
9.6159909951958085
 30
0.0
 40
0.1181566168628271
 50
0.0
 51
90.0
  0
ARC
  5
124F
  8
FORM
 10
16.365990995195801
 20
0.6340090048041951
 30
0.0
 40
0.3840090048041879
 50
270.0
 51
0.0
  0
ARC
  5
1250
  8
FORM
 10
16.365990995195801
 20
0.6340090048041951
 30
0.0
 40
0.2658523879413609
 50
270.0
 51
0.0
  0
ARC
  5
1251
  8
FORM
 10
16.365990995195801
 20
0.6340090048041951
 30
0.0
 40
0.2363132337256541
 50
270.0
 51
0.0
  0
ARC
  5
1252
  8
FORM
 10
16.365990995195801
 20
0.6340090048041951
 30
0.0
 40
0.1181566168628271
 50
270.0
 51
0.0
  0
LINE
  5
1253
  8
FORM
 10
16.365990995195801
 20
0.3976957710785456
 30
0.0
 11
0.6340090048042164
 21
0.397695771078542
 31
0.0
  0
LINE
  5
1254
  8
FORM
 10
16.365990995195801
 20
0.3681566168628407
 30
0.0
 11
0.6340090048042164
 21
0.3681566168628336
 31
0.0
  0
LINE
  5
1255
  8
FORM
 10
16.365990995195801
 20
0.2500000000000071
 30
0.0
 11
0.6340090048042164
 21
0.25
 31
0.0
  0
LINE
  5
1256
  8
FORM
 10
16.602304228921469
 20
0.6340090048041951
 30
0.0
 11
16.602304228921469
 21
9.6159909951958085
 31
0.0
  0
LINE
  5
1257
  8
FORM
 10
16.631843383137159
 20
0.6340090048041951
 30
0.0
 11
16.631843383137159
 21
9.6159909951958085
 31
0.0
  0
LINE
  5
1258
  8
FORM
 10
16.75
 20
0.6340090048041951
 30
0.0
 11
16.75
 21
9.6159909951958085
 31
0.0
  0
LINE
  5
1259
  8
FORM
 10
16.365990995195801
 20
9.8523042289214651
 30
0.0
 11
0.6340090048042164
 21
9.8523042289214651
 31
0.0
  0
LINE
  5
125A
  8
FORM
 10
16.365990995195801
 20
9.8818433831371681
 30
0.0
 11
0.6340090048042164
 21
9.8818433831371681
 31
0.0
  0
LINE
  5
125B
  8
FORM
 10
16.365990995195801
 20
10.0
 30
0.0
 11
0.6340090048042164
 21
10.0
 31
0.0
  0
LINE
  5
125C
  8
FORM
 10
0.3976957710785598
 20
0.6340090048041951
 30
0.0
 11
0.3976957710785598
 21
9.6159909951958085
 31
0.0
  0
LINE
  5
125D
  8
FORM
 10
0.3681566168628585
 20
0.6340090048041951
 30
0.0
 11
0.3681566168628585
 21
9.6159909951958085
 31
0.0
  0
LINE
  5
125E
  8
FORM
 10
0.25
 20
0.6340090048041951
 30
0.0
 11
0.250000000000032
 21
9.6159909951958085
 31
0.0
  0
LINE
  5
125F
  8
FORM
  6
CONTINUOUS
 10
12.874006586966649
 20
0.6340090048041951
 30
0.0
 11
16.19312047993693
 21
0.6340090048041951
 31
0.0
  0
LINE
  5
1260
  8
FORM
  6
CONTINUOUS
 10
16.365990995195801
 20
2.4664364665482088
 30
0.0
 11
16.365990995195801
 21
0.8068795200630631
 31
0.0
  0
ARC
  5
1261
  8
FORM
  6
CONTINUOUS
 10
16.19312047993693
 20
0.8068795200630631
 30
0.0
 40
0.1728705152588689
 50
270.0
 51
0.0
  0
ARC
  5
1262
  8
FORM
  6
CONTINUOUS
 10
16.19312047993693
 20
2.4664364665482088
 30
0.0
 40
0.1728705152588689
 50
359.99999999999989
 51
90.0
  0
ARC
  5
1263
  8
FORM
  6
CONTINUOUS
 10
12.874006586966649
 20
0.8068795200630631
 30
0.0
 40
0.1728705152588689
 50
180.0
 51
270.0
  0
ARC
  5
1264
  8
FORM
  6
CONTINUOUS
 10
12.874006586966649
 20
2.4664364665482088
 30
0.0
 40
0.1728705152588689
 50
90.0
 51
180.0
  0
LINE
  5
12FE
  8
0
 10
0.6340090048042164
 20
0.6340090048041951
 30
0.0
 11
0.6340090048042164
 21
1.6340090048041951
 31
0.0
  0
LINE
  5
12FF
  8
0
 10
0.6340090048042164
 20
0.7590090048041951
 30
0.0
 11
0.7590090048042164
 21
0.7590090048041951
 31
0.0
  0
LINE
  5
1300
  8
0
 10
0.6340090048042164
 20
0.884009004804195
 30
0.0
 11
0.8840090048042164
 21
0.884009004804195
 31
0.0
  0
LINE
  5
1301
  8
0
 10
0.6340090048042164
 20
1.0090090048041951
 30
0.0
 11
0.7590090048042164
 21
1.0090090048041951
 31
0.0
  0
LINE
  5
1302
  8
0
 10
0.6340090048042164
 20
1.1340090048041951
 30
0.0
 11
1.009009004804216
 21
1.1340090048041951
 31
0.0
  0
LINE
  5
1303
  8
0
 10
0.6340090048042164
 20
1.2590090048041951
 30
0.0
 11
0.7590090048042164
 21
1.2590090048041951
 31
0.0
  0
LINE
  5
1304
  8
0
 10
0.6340090048042164
 20
1.3840090048041951
 30
0.0
 11
0.8840090048042164
 21
1.3840090048041951
 31
0.0
  0
LINE
  5
1305
  8
0
 10
0.6340090048042164
 20
1.5090090048041951
 30
0.0
 11
0.7590090048042164
 21
1.5090090048041951
 31
0.0
  0
LINE
  5
1306
  8
0
 10
0.6340090048042164
 20
1.6340090048041951
 30
0.0
 11
1.009009004804216
 21
1.6340090048041951
 31
0.0
  0
LINE
  5
1307
  8
0
 10
0.6340090048042164
 20
0.6340090048041951
 30
0.0
 11
1.009009004804216
 21
0.6340090048041951
 31
0.0
  0
TEXT
  5
1308
  8
0
 10
1.058277778430653
 20
1.1009684438037111
 30
0.0
 40
0.0625
  1
1/2"
  0
TEXT
  5
1309
  8
0
 10
0.8082777784306536
 20
0.975968443803712
 30
0.0
 40
0.0625
  1
3/8"
  0
TEXT
  5
130A
  8
0
 10
0.9332777784306536
 20
0.850968443803712
 30
0.0
 40
0.0625
  1
1/4"
  0
TEXT
  5
130B
  8
0
 10
0.8082777784306536
 20
0.725968443803712
 30
0.0
 40
0.0625
  1
1/8"
  0
TEXT
  5
130C
  8
0
 10
0.8082777784306536
 20
1.2259684438037111
 30
0.0
 40
0.0625
  1
5/8"
  0
TEXT
  5
130D
  8
0
 10
0.9332777784306536
 20
1.3509684438037111
 30
0.0
 40
0.0625
  1
3/4"
  0
TEXT
  5
130E
  8
0
 10
0.8082777784306536
 20
1.4759684438037111
 30
0.0
 40
0.0625
  1
7/8"
  0
TEXT
  5
130F
  8
0
 10
1.058277778430653
 20
1.6009684438037111
 30
0.0
 40
0.0625
  1
1"
  0
LINE
  5
14DB
  8
0
 10
9.0534533738305001
 20
5.8205181390864134
 30
0.0
 11
9.6784533738305001
 21
5.8205181390864134
 31
0.0
  0
LINE
  5
14DC
  8
0
 10
9.6784533738305001
 20
5.9455181390864134
 30
0.0
 11
9.6784533738305001
 21
5.8205181390864134
 31
0.0
  0
LINE
  5
14DD
  8
0
 10
9.0534533738305001
 20
5.9455181390864134
 30
0.0
 11
9.0534533738305001
 21
5.8205181390864134
 31
0.0
  0
LINE
  5
14FE
  8
0
 10
5.0644959715308602
 20
5.9455181390864134
 30
0.0
 11
5.0644959715308602
 21
5.8205181390864134
 31
0.0
  0
LINE
  5
14FF
  8
0
 10
5.6894959715308602
 20
5.9455181390864134
 30
0.0
 11
5.6894959715308602
 21
5.8205181390864134
 31
0.0
  0
LINE
  5
1500
  8
0
 10
5.0644959715308602
 20
5.8205181390864134
 30
0.0
 11
5.6894959715308602
 21
5.8205181390864134
 31
0.0
  0
INSERT
  5
1553
  8
0
  2
*U1
 10
21.717113995400322
 20
0.6245345412233654
 30
0.0
1001
DPVAR
1002
{
1002
{
1000
ALTFMT
1000
ALT
1002
}
1002
{
1000
APPID
1000
SI-MECH
1002
}
1002
{
1000
APPVER
1040
4.129999999999999
1002
}
1002
{
1000
BALLSIZE
1040
0.18
1002
}
1002
{
1000
BLKCHK
1000

1002
}
1002
{
1000
CLIPHID
1070
     0
1002
}
1002
{
1000
DBWRITE
1070
     0
1002
}
1002
{
1000
DRILLANG
1040
118.0
1002
}
1002
{
1000
DRILLDIST
1040
1.0
1002
}
1002
{
1000
DRILLM
1070
     0
1002
}
1002
{
1000
DWGSCALE
1040
1.0
1002
}
1002
{
1000
FORMAT
1000
STD0V00A
1002
}
1002
{
1000
GDIMSIZE
1040
0.18
1002
}
1002
{
1000
GEODAT
1000
A
1002
}
1002
{
1000
GEOPTS
1040
10.0
1002
}
1002
{
1000
GEOSYM
1000
POSITION
1002
}
1002
{
1000
GEOTGT
1000
A1
1002
}
1002
{
1000
GEOTOL
1040
0.1
1002
}
1002
{
1000
GEOTSZ
1040
0.0
1002
}
1002
{
1000
HDWALTD
1070
     0
1002
}
1002
{
1000
HDWCAT
1000
RING
1002
}
1002
{
1000
HDWCSKH
1070
     0
1002
}
1002
{
1000
HDWGROUP
1000
ALL_RING
1002
}
1002
{
1000
HDWLG
1040
0.0
1002
}
1002
{
1000
HDWPEME
1070
     0
1002
}
1002
{
1000
HDWRCSDP
1070
     1
1002
}
1002
{
1000
HDWSTAN
1000
ALL_
1002
}
1002
{
1000
HDWTYPE
1000
SH-12
1002
}
1002
{
1000
HOLECEN
1070
     1
1002
}
1002
{
1000
HOLEEANG
1040
0.0
1002
}
1002
{
1000
HOLESTART
1070
     0
1002
}
1002
{
1000
HOLETYPE
1000
IN-STD
1002
}
1002
{
1000
ITEMAUCS
1070
     1
1002
}
1002
{
1000
ITEMCLRH
1070
     5
1002
}
1002
{
1000
ITEMCTRL
1070
     1
1002
}
1002
{
1000
ITEMCTRM
1070
     1
1002
}
1002
{
1000
ITEMDSPL
1070
     0
1002
}
1002
{
1000
ITEMSIZE
1000
SH-12
1002
}
1002
{
1000
ITEMVIEW
1070
     3
1002
}
1002
{
1000
LAYER
1000
LAYER
1002
}
1002
{
1000
LYRMAP
1000
LYRMAP
1002
}
1002
{
1000
MLIBLOC
1000
LOCAL
1002
}
1002
{
1000
MLIBSLIDES
1000
9
1002
}
1002
{
1000
MLIBSCALE
1000
U
1002
}
1002
{
1000
SDIMSIZE
1040
0.18
1002
}
1002
{
1000
SFTHDW
1070
     0
1002
}
1002
{
1000
SHTSET
1070
     7
1002
}
1002
{
1000
SLDBGCLR
1070
     0
1002
}
1002
{
1000
STANDARD
1000
ANSI
1002
}
1002
{
1000
SURFAREA
1070
     0
1002
}
1002
{
1000
SURFLAY
1000

1002
}
1002
{
1000
SURFMAT
1040
0.0
1002
}
1002
{
1000
SURFMAXR
1040
63.0
1002
}
1002
{
1000
SURFMINR
1040
0.0
1002
}
1002
{
1000
SURFSPEC
1000

1002
}
1002
{
1000
SURFTYPE
1000

1002
}
1002
{
1000
SURFWAVH
1040
0.0
1002
}
1002
{
1000
SURFWAVW
1040
0.0
1002
}
1002
{
1000
SURFWIDC
1040
0.0
1002
}
1002
{
1000
SURFWIDM
1040
0.0
1002
}
1002
{
1000
TAPDIST
1040
0.0
1002
}
1002
{
1000
THREAD
1070
     0
1002
}
1002
{
1000
TOOTHSEG
1070
     1
1002
}
1002
{
1000
UNIT
1000
IN
1002
}
1002
{
1000
WDIMSIZE
1040
0.18
1002
}
1002
{
1000
WELDALL
1070
     1
1002
}
1002
{
1000
WELDANG
1070
     0
1002
}
1002
{
1000
WELDBACK
1070
     0
1002
}
1002
{
1000
WELDCON
1000

1002
}
1002
{
1000
WELDFIN
1000

1002
}
1002
{
1000
WELDFLD
1070
     0
1002
}
1002
{
1000
WELDLG
1040
10.0
1002
}
1002
{
1000
WELDMELT
1070
     0
1002
}
1002
{
1000
WELDNUM
1070
     0
1002
}
1002
{
1000
WELDOPP
1000

1002
}
1002
{
1000
WELDPIT
1040
30.0
1002
}
1002
{
1000
WELDROOT
1040
0.0
1002
}
1002
{
1000
WELDSIZE
1040
3.0
1002
}
1002
{
1000
WELDSPEC
1000

1002
}
1002
{
1000
WELDSYM
1000
BEV
1002
}
1002
{
1000
WELDTHRT
1040
0.0
1002
}
1002
{
1000
XLINEO
1070
     3
1002
}
1002
{
1000
XYMINUS
1070
     0
1002
}
1002
{
1000
ZPOINT
1070
     0
1002
}
1002
}
  0
LINE
  5
1554
  8
0
 10
9.1015658962629686
 20
5.8066292501975241
 30
0.0
 11
9.3117222902333339
 21
5.8176692541795516
 31
0.0
  0
LINE
  5
1555
  8
0
 10
9.6784533738305001
 20
5.1955181390864116
 30
0.0
 11
9.6303408513980315
 21
5.223295916864191
 31
0.0
  0
LINE
  5
1556
  8
0
 10
9.6303408513980315
 20
5.223295916864191
 30
0.0
 11
9.6784533738305001
 21
5.2510736946419678
 31
0.0
  0
LINE
  5
1557
  8
0
 10
9.6784533738305001
 20
5.2510736946419678
 30
0.0
 11
9.6303408513980315
 21
5.2788514724197464
 31
0.0
  0
LINE
  5
1558
  8
0
 10
9.6303408513980315
 20
5.2788514724197464
 30
0.0
 11
9.6784533738305001
 21
5.3066292501975241
 31
0.0
  0
LINE
  5
1559
  8
0
 10
9.6784533738305001
 20
5.3066292501975241
 30
0.0
 11
9.6303408513980315
 21
5.3344070279753009
 31
0.0
  0
LINE
  5
155A
  8
0
 10
9.6303408513980315
 20
5.3344070279753009
 30
0.0
 11
9.6784533738305001
 21
5.3621848057530794
 31
0.0
  0
LINE
  5
155B
  8
0
 10
9.6784533738305001
 20
5.3621848057530794
 30
0.0
 11
9.6303408513980315
 21
5.3899625835308571
 31
0.0
  0
LINE
  5
155C
  8
0
 10
9.6303408513980315
 20
5.3899625835308571
 30
0.0
 11
9.6784533738305001
 21
5.4177403613086348
 31
0.0
  0
LINE
  5
155D
  8
0
 10
9.6784533738305001
 20
5.4177403613086348
 30
0.0
 11
9.6303408513980315
 21
5.4455181390864134
 31
0.0
  0
LINE
  5
155E
  8
0
 10
9.6303408513980315
 20
5.4455181390864134
 30
0.0
 11
9.6784533738305001
 21
5.473295916864191
 31
0.0
  0
LINE
  5
155F
  8
0
 10
9.6784533738305001
 20
5.473295916864191
 30
0.0
 11
9.6303408513980315
 21
5.5010736946419678
 31
0.0
  0
LINE
  5
1560
  8
0
 10
9.6303408513980315
 20
5.5010736946419678
 30
0.0
 11
9.6784533738305001
 21
5.5288514724197464
 31
0.0
  0
LINE
  5
1561
  8
0
 10
9.6784533738305001
 20
5.5288514724197464
 30
0.0
 11
9.6303408513980315
 21
5.5566292501975241
 31
0.0
  0
LINE
  5
1562
  8
0
 10
9.6303408513980315
 20
5.5566292501975241
 30
0.0
 11
9.6784533738305001
 21
5.5844070279753009
 31
0.0
  0
LINE
  5
1563
  8
0
 10
9.6784533738305001
 20
5.5844070279753009
 30
0.0
 11
9.6303408513980315
 21
5.6121848057530794
 31
0.0
  0
LINE
  5
1564
  8
0
 10
9.6303408513980315
 20
5.6121848057530794
 30
0.0
 11
9.6784533738305001
 21
5.6399625835308571
 31
0.0
  0
LINE
  5
1565
  8
0
 10
9.6784533738305001
 20
5.6399625835308571
 30
0.0
 11
9.6303408513980315
 21
5.6677403613086348
 31
0.0
  0
LINE
  5
1566
  8
0
 10
9.6303408513980315
 20
5.6677403613086348
 30
0.0
 11
9.6784533738305001
 21
5.6955181390864134
 31
0.0
  0
LINE
  5
1567
  8
0
 10
9.6784533738305001
 20
5.6955181390864134
 30
0.0
 11
9.6303408513980315
 21
5.723295916864191
 31
0.0
  0
LINE
  5
1568
  8
0
 10
9.6303408513980315
 20
5.723295916864191
 30
0.0
 11
9.6784533738305001
 21
5.7510736946419678
 31
0.0
  0
LINE
  5
1569
  8
0
 10
9.6784533738305001
 20
5.7510736946419678
 30
0.0
 11
9.6303408513980315
 21
5.7788514724197464
 31
0.0
  0
LINE
  5
156A
  8
0
 10
9.6303408513980315
 20
5.7788514724197464
 30
0.0
 11
9.6784533738305001
 21
5.8066292501975241
 31
0.0
  0
LINE
  5
156B
  8
0
 10
9.6784533738305001
 20
5.8066292501975241
 30
0.0
 11
9.6784533738305001
 21
5.8205181390864134
 31
0.0
  0
LINE
  5
156C
  8
0
 10
9.1015658962629686
 20
5.1955181390864134
 30
0.0
 11
9.0534533738305001
 21
5.223295916864191
 31
0.0
  0
LINE
  5
156D
  8
0
 10
9.0534533738305001
 20
5.223295916864191
 30
0.0
 11
9.1015658962629686
 21
5.2510736946419678
 31
0.0
  0
LINE
  5
156E
  8
0
 10
9.1015658962629686
 20
5.2510736946419678
 30
0.0
 11
9.0534533738305001
 21
5.2788514724197464
 31
0.0
  0
LINE
  5
156F
  8
0
 10
9.0534533738305001
 20
5.2788514724197464
 30
0.0
 11
9.1015658962629686
 21
5.3066292501975241
 31
0.0
  0
LINE
  5
1570
  8
0
 10
9.1015658962629686
 20
5.3066292501975241
 30
0.0
 11
9.0534533738305001
 21
5.3344070279753009
 31
0.0
  0
LINE
  5
1571
  8
0
 10
9.0534533738305001
 20
5.3344070279753009
 30
0.0
 11
9.1015658962629686
 21
5.3621848057530794
 31
0.0
  0
LINE
  5
1572
  8
0
 10
9.1015658962629686
 20
5.3621848057530794
 30
0.0
 11
9.0534533738305001
 21
5.3899625835308571
 31
0.0
  0
LINE
  5
1573
  8
0
 10
9.0534533738305001
 20
5.3899625835308571
 30
0.0
 11
9.1015658962629686
 21
5.4177403613086348
 31
0.0
  0
LINE
  5
1574
  8
0
 10
9.1015658962629686
 20
5.4177403613086348
 30
0.0
 11
9.0534533738305001
 21
5.4455181390864134
 31
0.0
  0
LINE
  5
1575
  8
0
 10
9.0534533738305001
 20
5.4455181390864134
 30
0.0
 11
9.1015658962629686
 21
5.473295916864191
 31
0.0
  0
LINE
  5
1576
  8
0
 10
9.1015658962629686
 20
5.473295916864191
 30
0.0
 11
9.0534533738305001
 21
5.5010736946419678
 31
0.0
  0
LINE
  5
1577
  8
0
 10
9.0534533738305001
 20
5.5010736946419678
 30
0.0
 11
9.1015658962629686
 21
5.5288514724197464
 31
0.0
  0
LINE
  5
1578
  8
0
 10
9.1015658962629686
 20
5.5288514724197464
 30
0.0
 11
9.0534533738305001
 21
5.5566292501975241
 31
0.0
  0
LINE
  5
1579
  8
0
 10
9.0534533738305001
 20
5.5566292501975241
 30
0.0
 11
9.1015658962629686
 21
5.5844070279753009
 31
0.0
  0
LINE
  5
157A
  8
0
 10
9.1015658962629686
 20
5.5844070279753009
 30
0.0
 11
9.0534533738305001
 21
5.6121848057530803
 31
0.0
  0
LINE
  5
157B
  8
0
 10
9.0534533738305001
 20
5.6121848057530803
 30
0.0
 11
9.1015658962629686
 21
5.6399625835308571
 31
0.0
  0
LINE
  5
157C
  8
0
 10
9.1015658962629686
 20
5.6399625835308571
 30
0.0
 11
9.0534533738305001
 21
5.6677403613086348
 31
0.0
  0
LINE
  5
157D
  8
0
 10
9.0534533738305001
 20
5.6677403613086348
 30
0.0
 11
9.1015658962629686
 21
5.6955181390864134
 31
0.0
  0
LINE
  5
157E
  8
0
 10
9.1015658962629686
 20
5.6955181390864134
 30
0.0
 11
9.0534533738305001
 21
5.723295916864191
 31
0.0
  0
LINE
  5
157F
  8
0
 10
9.0534533738305001
 20
5.723295916864191
 30
0.0
 11
9.1015658962629686
 21
5.7510736946419678
 31
0.0
  0
LINE
  5
1580
  8
0
 10
9.1015658962629686
 20
5.7510736946419678
 30
0.0
 11
9.0534533738305001
 21
5.7788514724197464
 31
0.0
  0
LINE
  5
1581
  8
0
 10
9.0534533738305001
 20
5.7788514724197464
 30
0.0
 11
9.1015658962629686
 21
5.8066292501975241
 31
0.0
  0
LINE
  5
1582
  8
0
 10
9.1015658962629686
 20
5.8066292501975241
 30
0.0
 11
9.0775096350467308
 21
5.8205181390864134
 31
0.0
  0
LINE
  5
1583
  8
0
 10
9.6784533738305001
 20
5.1955181390864116
 30
0.0
 11
9.0534533738305001
 21
5.223295916864191
 31
0.0
  0
LINE
  5
1584
  8
0
 10
9.6303408513980315
 20
5.223295916864191
 30
0.0
 11
9.1015658962629686
 21
5.2510736946419678
 31
0.0
  0
LINE
  5
1585
  8
0
 10
9.6784533738305001
 20
5.2510736946419678
 30
0.0
 11
9.0534533738305001
 21
5.2788514724197464
 31
0.0
  0
LINE
  5
1586
  8
0
 10
9.6303408513980315
 20
5.2788514724197464
 30
0.0
 11
9.1015658962629686
 21
5.3066292501975241
 31
0.0
  0
LINE
  5
1587
  8
0
 10
9.6784533738305001
 20
5.3066292501975241
 30
0.0
 11
9.0534533738305001
 21
5.3344070279753009
 31
0.0
  0
LINE
  5
1588
  8
0
 10
9.6303408513980315
 20
5.3344070279753009
 30
0.0
 11
9.1015658962629686
 21
5.3621848057530794
 31
0.0
  0
LINE
  5
1589
  8
0
 10
9.6784533738305001
 20
5.3621848057530794
 30
0.0
 11
9.0534533738305001
 21
5.3899625835308571
 31
0.0
  0
LINE
  5
158A
  8
0
 10
9.6303408513980315
 20
5.3899625835308571
 30
0.0
 11
9.1015658962629686
 21
5.4177403613086348
 31
0.0
  0
LINE
  5
158B
  8
0
 10
9.6784533738305001
 20
5.4177403613086348
 30
0.0
 11
9.0534533738305001
 21
5.4455181390864134
 31
0.0
  0
LINE
  5
158C
  8
0
 10
9.6303408513980315
 20
5.4455181390864134
 30
0.0
 11
9.1015658962629686
 21
5.473295916864191
 31
0.0
  0
LINE
  5
158D
  8
0
 10
9.6784533738305001
 20
5.473295916864191
 30
0.0
 11
9.0534533738305001
 21
5.5010736946419678
 31
0.0
  0
LINE
  5
158E
  8
0
 10
9.6303408513980315
 20
5.5010736946419678
 30
0.0
 11
9.1015658962629686
 21
5.5288514724197464
 31
0.0
  0
LINE
  5
158F
  8
0
 10
9.6784533738305001
 20
5.5288514724197464
 30
0.0
 11
9.0534533738305001
 21
5.5566292501975241
 31
0.0
  0
LINE
  5
1590
  8
0
 10
9.6303408513980315
 20
5.5566292501975241
 30
0.0
 11
9.1015658962629686
 21
5.5844070279753009
 31
0.0
  0
LINE
  5
1591
  8
0
 10
9.6784533738305001
 20
5.5844070279753009
 30
0.0
 11
9.0534533738305001
 21
5.6121848057530803
 31
0.0
  0
LINE
  5
1592
  8
0
 10
9.6303408513980315
 20
5.6121848057530794
 30
0.0
 11
9.1015658962629686
 21
5.6399625835308571
 31
0.0
  0
LINE
  5
1593
  8
0
 10
9.6784533738305001
 20
5.6399625835308571
 30
0.0
 11
9.0534533738305001
 21
5.6677403613086348
 31
0.0
  0
LINE
  5
1594
  8
0
 10
9.6303408513980315
 20
5.6677403613086348
 30
0.0
 11
9.1015658962629686
 21
5.6955181390864134
 31
0.0
  0
LINE
  5
1595
  8
0
 10
9.6784533738305001
 20
5.6955181390864134
 30
0.0
 11
9.0534533738305001
 21
5.723295916864191
 31
0.0
  0
LINE
  5
1596
  8
0
 10
9.6303408513980315
 20
5.723295916864191
 30
0.0
 11
9.1015658962629686
 21
5.7510736946419678
 31
0.0
  0
LINE
  5
1597
  8
0
 10
9.6784533738305001
 20
5.7510736946419678
 30
0.0
 11
9.0534533738305001
 21
5.7788514724197464
 31
0.0
  0
LINE
  5
1598
  8
0
 10
9.6303408513980315
 20
5.7788514724197464
 30
0.0
 11
9.1015658962629686
 21
5.8066292501975241
 31
0.0
  0
LINE
  5
1599
  8
0
 10
9.1015658962629651
 20
5.1955181390864134
 30
0.0
 11
9.6784533738304912
 21
5.1955181390864134
 31
0.0
  0
LINE
  5
159A
  8
0
 10
5.1126084939633278
 20
5.8066292501975241
 30
0.0
 11
5.3227648879336966
 21
5.8176692541795516
 31
0.0
  0
LINE
  5
159B
  8
0
 10
5.6413834490983907
 20
5.3344070279753009
 30
0.0
 11
5.1126084939633278
 21
5.3621848057530794
 31
0.0
  0
LINE
  5
159C
  8
0
 10
5.6413834490983907
 20
5.3899625835308571
 30
0.0
 11
5.1126084939633278
 21
5.4177403613086348
 31
0.0
  0
LINE
  5
159D
  8
0
 10
5.6413834490983907
 20
5.4455181390864134
 30
0.0
 11
5.1126084939633278
 21
5.473295916864191
 31
0.0
  0
LINE
  5
159E
  8
0
 10
5.6413834490983907
 20
5.5010736946419678
 30
0.0
 11
5.1126084939633278
 21
5.5288514724197464
 31
0.0
  0
LINE
  5
159F
  8
0
 10
5.6413834490983907
 20
5.5566292501975241
 30
0.0
 11
5.1126084939633278
 21
5.5844070279753009
 31
0.0
  0
LINE
  5
15A0
  8
0
 10
5.6413834490983907
 20
5.6121848057530794
 30
0.0
 11
5.1126084939633278
 21
5.6399625835308571
 31
0.0
  0
LINE
  5
15A1
  8
0
 10
5.6413834490983907
 20
5.6677403613086348
 30
0.0
 11
5.1126084939633278
 21
5.6955181390864134
 31
0.0
  0
LINE
  5
15A2
  8
0
 10
5.6413834490983907
 20
5.723295916864191
 30
0.0
 11
5.1126084939633278
 21
5.7510736946419678
 31
0.0
  0
LINE
  5
15A3
  8
0
 10
5.6413834490983907
 20
5.7788514724197464
 30
0.0
 11
5.1126084939633278
 21
5.8066292501975241
 31
0.0
  0
LINE
  5
15A4
  8
0
 10
5.6413834490983907
 20
5.223295916864191
 30
0.0
 11
5.1126084939633278
 21
5.2510736946419678
 31
0.0
  0
LINE
  5
15A5
  8
0
 10
5.6413834490983907
 20
5.2788514724197464
 30
0.0
 11
5.1126084939633278
 21
5.3066292501975241
 31
0.0
  0
LINE
  5
15A6
  8
0
 10
5.6894959715308602
 20
5.1955181390864116
 30
0.0
 11
5.0644959715308602
 21
5.223295916864191
 31
0.0
  0
LINE
  5
15A7
  8
0
 10
5.6894959715308602
 20
5.2510736946419678
 30
0.0
 11
5.0644959715308602
 21
5.2788514724197464
 31
0.0
  0
LINE
  5
15A8
  8
0
 10
5.6894959715308602
 20
5.3066292501975241
 30
0.0
 11
5.0644959715308602
 21
5.3344070279753009
 31
0.0
  0
LINE
  5
15A9
  8
0
 10
5.6894959715308602
 20
5.3621848057530794
 30
0.0
 11
5.0644959715308602
 21
5.3899625835308571
 31
0.0
  0
LINE
  5
15AA
  8
0
 10
5.6894959715308602
 20
5.4177403613086348
 30
0.0
 11
5.0644959715308602
 21
5.4455181390864134
 31
0.0
  0
LINE
  5
15AB
  8
0
 10
5.6894959715308602
 20
5.473295916864191
 30
0.0
 11
5.0644959715308602
 21
5.5010736946419678
 31
0.0
  0
LINE
  5
15AC
  8
0
 10
5.6894959715308602
 20
5.5288514724197464
 30
0.0
 11
5.0644959715308602
 21
5.5566292501975241
 31
0.0
  0
LINE
  5
15AD
  8
0
 10
5.6894959715308602
 20
5.5844070279753009
 30
0.0
 11
5.0644959715308602
 21
5.6121848057530803
 31
0.0
  0
LINE
  5
15AE
  8
0
 10
5.6894959715308602
 20
5.6399625835308571
 30
0.0
 11
5.0644959715308602
 21
5.6677403613086348
 31
0.0
  0
LINE
  5
15AF
  8
0
 10
5.6894959715308602
 20
5.6955181390864134
 30
0.0
 11
5.0644959715308602
 21
5.723295916864191
 31
0.0
  0
LINE
  5
15B0
  8
0
 10
5.6894959715308602
 20
5.7510736946419678
 30
0.0
 11
5.0644959715308602
 21
5.7788514724197464
 31
0.0
  0
LINE
  5
15B1
  8
0
 10
5.1126084939633278
 20
5.1955181390864134
 30
0.0
 11
5.6894959715308557
 21
5.1955181390864134
 31
0.0
  0
LINE
  5
15B2
  8
0
 10
5.0644959715308602
 20
5.8205181390864134
 30
0.0
 11
5.6894959715308602
 21
5.8205181390864134
 31
0.0
  0
LINE
  5
15B3
  8
0
 10
5.1126084939633278
 20
5.5844070279753009
 30
0.0
 11
5.0644959715308602
 21
5.6121848057530803
 31
0.0
  0
LINE
  5
15B4
  8
0
 10
5.0644959715308602
 20
5.3344070279753009
 30
0.0
 11
5.1126084939633278
 21
5.3621848057530794
 31
0.0
  0
LINE
  5
15B5
  8
0
 10
5.1126084939633278
 20
5.3621848057530794
 30
0.0
 11
5.0644959715308602
 21
5.3899625835308571
 31
0.0
  0
LINE
  5
15B6
  8
0
 10
5.0644959715308602
 20
5.3899625835308571
 30
0.0
 11
5.1126084939633278
 21
5.4177403613086348
 31
0.0
  0
LINE
  5
15B7
  8
0
 10
5.1126084939633278
 20
5.4177403613086348
 30
0.0
 11
5.0644959715308602
 21
5.4455181390864134
 31
0.0
  0
LINE
  5
15B8
  8
0
 10
5.0644959715308602
 20
5.4455181390864134
 30
0.0
 11
5.1126084939633278
 21
5.473295916864191
 31
0.0
  0
LINE
  5
15B9
  8
0
 10
5.1126084939633278
 20
5.473295916864191
 30
0.0
 11
5.0644959715308602
 21
5.5010736946419678
 31
0.0
  0
LINE
  5
15BA
  8
0
 10
5.0644959715308602
 20
5.5010736946419678
 30
0.0
 11
5.1126084939633278
 21
5.5288514724197464
 31
0.0
  0
LINE
  5
15BB
  8
0
 10
5.1126084939633278
 20
5.5288514724197464
 30
0.0
 11
5.0644959715308602
 21
5.5566292501975241
 31
0.0
  0
LINE
  5
15BC
  8
0
 10
5.0644959715308602
 20
5.5566292501975241
 30
0.0
 11
5.1126084939633278
 21
5.5844070279753009
 31
0.0
  0
LINE
  5
15BD
  8
0
 10
5.1126084939633278
 20
5.1955181390864134
 30
0.0
 11
5.0644959715308602
 21
5.223295916864191
 31
0.0
  0
LINE
  5
15BE
  8
0
 10
5.0644959715308602
 20
5.223295916864191
 30
0.0
 11
5.1126084939633278
 21
5.2510736946419678
 31
0.0
  0
LINE
  5
15BF
  8
0
 10
5.1126084939633278
 20
5.2510736946419678
 30
0.0
 11
5.0644959715308602
 21
5.2788514724197464
 31
0.0
  0
LINE
  5
15C0
  8
0
 10
5.0644959715308602
 20
5.2788514724197464
 30
0.0
 11
5.1126084939633278
 21
5.3066292501975241
 31
0.0
  0
LINE
  5
15C1
  8
0
 10
5.1126084939633278
 20
5.3066292501975241
 30
0.0
 11
5.0644959715308602
 21
5.3344070279753009
 31
0.0
  0
LINE
  5
15C2
  8
0
 10
5.0644959715308602
 20
5.6121848057530803
 30
0.0
 11
5.1126084939633278
 21
5.6399625835308571
 31
0.0
  0
LINE
  5
15C3
  8
0
 10
5.1126084939633278
 20
5.6399625835308571
 30
0.0
 11
5.0644959715308602
 21
5.6677403613086348
 31
0.0
  0
LINE
  5
15C4
  8
0
 10
5.0644959715308602
 20
5.6677403613086348
 30
0.0
 11
5.1126084939633278
 21
5.6955181390864134
 31
0.0
  0
LINE
  5
15C5
  8
0
 10
5.1126084939633278
 20
5.6955181390864134
 30
0.0
 11
5.0644959715308602
 21
5.723295916864191
 31
0.0
  0
LINE
  5
15C6
  8
0
 10
5.0644959715308602
 20
5.723295916864191
 30
0.0
 11
5.1126084939633278
 21
5.7510736946419678
 31
0.0
  0
LINE
  5
15C7
  8
0
 10
5.1126084939633278
 20
5.7510736946419678
 30
0.0
 11
5.0644959715308602
 21
5.7788514724197464
 31
0.0
  0
LINE
  5
15C8
  8
0
 10
5.0644959715308602
 20
5.7788514724197464
 30
0.0
 11
5.1126084939633278
 21
5.8066292501975241
 31
0.0
  0
LINE
  5
15C9
  8
0
 10
5.1126084939633278
 20
5.8066292501975241
 30
0.0
 11
5.0885522327470936
 21
5.8205181390864134
 31
0.0
  0
LINE
  5
15CA
  8
0
 10
5.6894959715308602
 20
5.5844070279753009
 30
0.0
 11
5.6413834490983907
 21
5.6121848057530794
 31
0.0
  0
LINE
  5
15CB
  8
0
 10
5.6894959715308602
 20
5.1955181390864116
 30
0.0
 11
5.6413834490983907
 21
5.223295916864191
 31
0.0
  0
LINE
  5
15CC
  8
0
 10
5.6413834490983907
 20
5.223295916864191
 30
0.0
 11
5.6894959715308602
 21
5.2510736946419678
 31
0.0
  0
LINE
  5
15CD
  8
0
 10
5.6894959715308602
 20
5.2510736946419678
 30
0.0
 11
5.6413834490983907
 21
5.2788514724197464
 31
0.0
  0
LINE
  5
15CE
  8
0
 10
5.6413834490983907
 20
5.2788514724197464
 30
0.0
 11
5.6894959715308602
 21
5.3066292501975241
 31
0.0
  0
LINE
  5
15CF
  8
0
 10
5.6894959715308602
 20
5.3066292501975241
 30
0.0
 11
5.6413834490983907
 21
5.3344070279753009
 31
0.0
  0
LINE
  5
15D0
  8
0
 10
5.6413834490983907
 20
5.3344070279753009
 30
0.0
 11
5.6894959715308602
 21
5.3621848057530794
 31
0.0
  0
LINE
  5
15D1
  8
0
 10
5.6894959715308602
 20
5.3621848057530794
 30
0.0
 11
5.6413834490983907
 21
5.3899625835308571
 31
0.0
  0
LINE
  5
15D2
  8
0
 10
5.6413834490983907
 20
5.3899625835308571
 30
0.0
 11
5.6894959715308602
 21
5.4177403613086348
 31
0.0
  0
LINE
  5
15D3
  8
0
 10
5.6894959715308602
 20
5.4177403613086348
 30
0.0
 11
5.6413834490983907
 21
5.4455181390864134
 31
0.0
  0
LINE
  5
15D4
  8
0
 10
5.6413834490983907
 20
5.4455181390864134
 30
0.0
 11
5.6894959715308602
 21
5.473295916864191
 31
0.0
  0
LINE
  5
15D5
  8
0
 10
5.6894959715308602
 20
5.473295916864191
 30
0.0
 11
5.6413834490983907
 21
5.5010736946419678
 31
0.0
  0
LINE
  5
15D6
  8
0
 10
5.6413834490983907
 20
5.5010736946419678
 30
0.0
 11
5.6894959715308602
 21
5.5288514724197464
 31
0.0
  0
LINE
  5
15D7
  8
0
 10
5.6894959715308602
 20
5.5288514724197464
 30
0.0
 11
5.6413834490983907
 21
5.5566292501975241
 31
0.0
  0
LINE
  5
15D8
  8
0
 10
5.6413834490983907
 20
5.5566292501975241
 30
0.0
 11
5.6894959715308602
 21
5.5844070279753009
 31
0.0
  0
LINE
  5
15D9
  8
0
 10
5.6894959715308602
 20
5.8066292501975241
 30
0.0
 11
5.6894959715308602
 21
5.8205181390864134
 31
0.0
  0
LINE
  5
15DA
  8
0
 10
5.6413834490983907
 20
5.6121848057530794
 30
0.0
 11
5.6894959715308602
 21
5.6399625835308571
 31
0.0
  0
LINE
  5
15DB
  8
0
 10
5.6894959715308602
 20
5.6399625835308571
 30
0.0
 11
5.6413834490983907
 21
5.6677403613086348
 31
0.0
  0
LINE
  5
15DC
  8
0
 10
5.6413834490983907
 20
5.6677403613086348
 30
0.0
 11
5.6894959715308602
 21
5.6955181390864134
 31
0.0
  0
LINE
  5
15DD
  8
0
 10
5.6894959715308602
 20
5.6955181390864134
 30
0.0
 11
5.6413834490983907
 21
5.723295916864191
 31
0.0
  0
LINE
  5
15DE
  8
0
 10
5.6413834490983907
 20
5.723295916864191
 30
0.0
 11
5.6894959715308602
 21
5.7510736946419678
 31
0.0
  0
LINE
  5
15DF
  8
0
 10
5.6894959715308602
 20
5.7510736946419678
 30
0.0
 11
5.6413834490983907
 21
5.7788514724197464
 31
0.0
  0
LINE
  5
15E0
  8
0
 10
5.6413834490983907
 20
5.7788514724197464
 30
0.0
 11
5.6894959715308602
 21
5.8066292501975241
 31
0.0
  0
TEXT
  5
15E6
  8
DIMENSIONS
 10
10.2591809495852
 20
5.7292053903718161
 30
0.0
 40
0.156
  1
5/8-18 THREAD
 51
7.0
  0
POLYLINE
  5
15E7
  8
DIMENSIONS
 66
     1
 10
0.0
 20
0.0
 30
0.0
1001
ACAD
1000
DSTYLE
1002
{
1070
   147
1040
0.09
1070
    77
1070
     0
1070
    41
1040
0.156
1070
    42
1040
0.0625
1070
    44
1040
0.0625
1070
   140
1040
0.156
1070
   141
1040
0.0
1070
   271
1070
     4
1002
}
  0
VERTEX
  5
16A6
  8
DIMENSIONS
 10
9.7450986548735372
 20
5.4398166469903941
 30
0.0
  0
VERTEX
  5
16A7
  8
DIMENSIONS
 10
9.9726492509027125
 20
5.807205390371819
 30
0.0
  0
VERTEX
  5
16A8
  8
DIMENSIONS
 10
10.12864925090272
 20
5.807205390371819
 30
0.0
  0
SEQEND
  5
16A9
  8
DIMENSIONS
  0
SOLID
  5
15E8
  8
DIMENSIONS
 10
9.7229949784946754
 20
5.4535070630008269
 30
0.0
 11
9.6629561588109052
 21
5.307194588717266
 31
0.0
 12
9.767202331252399
 22
5.4261262309799463
 32
0.0
 13
9.767202331252399
 23
5.4261262309799463
 33
0.0
1001
ACAD
1000
DSTYLE
1002
{
1070
   147
1040
0.09
1070
    77
1070
     0
1070
    41
1040
0.156
1070
    42
1040
0.0625
1070
    44
1040
0.0625
1070
   140
1040
0.156
1070
   141
1040
0.0
1070
   271
1070
     4
1002
}
  0
TEXT
  5
1686
  8
DIMENSIONS
 10
10.22980274230828
 20
5.4260252926656953
 30
0.0
 40
0.156
  1
3/4" LONG
 51
7.0
  0
ENDSEC
  0
EOF
