  0
SECTION
  2
HEADER
  9
$ACADVER
  1
AC1009
  9
$INSBASE
 10
0.0
 20
0.0
 30
0.0
  9
$EXTMIN
 10
0.0
 20
0.0
 30
0.0
  9
$EXTMAX
 10
17.0
 20
11.0
 30
0.0
  9
$LIMMIN
 10
0.0
 20
0.0
  9
$LIMMAX
 10
12.0
 20
9.0
  9
$ORTHOMODE
 70
     0
  9
$REGENMODE
 70
     1
  9
$FILLMODE
 70
     1
  9
$QTEXTMODE
 70
     0
  9
$MIRRTEXT
 70
     0
  9
$DRAGMODE
 70
     2
  9
$LTSCALE
 40
1.0
  9
$OSMODE
 70
    39
  9
$ATTMODE
 70
     1
  9
$TEXTSIZE
 40
0.2
  9
$TRACEWID
 40
0.05
  9
$TEXTSTYLE
  7
STANDARD
  9
$CLAYER
  8
DIMENSIONS
  9
$CELTYPE
  6
BYLAYER
  9
$CECOLOR
 62
   256
  9
$DIMSCALE
 40
1.0
  9
$DIMASZ
 40
0.3125
  9
$DIMEXO
 40
0.0625
  9
$DIMDLI
 40
0.38
  9
$DIMRND
 40
0.0
  9
$DIMDLE
 40
0.0
  9
$DIMEXE
 40
0.0625
  9
$DIMTP
 40
0.0
  9
$DIMTM
 40
0.0
  9
$DIMTXT
 40
0.3125
  9
$DIMCEN
 40
0.0
  9
$DIMTSZ
 40
0.0
  9
$DIMTOL
 70
     0
  9
$DIMLIM
 70
     0
  9
$DIMTIH
 70
     1
  9
$DIMTOH
 70
     1
  9
$DIMSE1
 70
     0
  9
$DIMSE2
 70
     0
  9
$DIMTAD
 70
     0
  9
$DIMZIN
 70
     0
  9
$DIMBLK
  1

  9
$DIMASO
 70
     1
  9
$DIMSHO
 70
     1
  9
$DIMPOST
  1

  9
$DIMAPOST
  1

  9
$DIMALT
 70
     0
  9
$DIMALTD
 70
     2
  9
$DIMALTF
 40
25.399999999999999
  9
$DIMLFAC
 40
1.0
  9
$DIMTOFL
 70
     0
  9
$DIMTVP
 40
0.0
  9
$DIMTIX
 70
     0
  9
$DIMSOXD
 70
     0
  9
$DIMSAH
 70
     0
  9
$DIMBLK1
  1

  9
$DIMBLK2
  1

  9
$DIMSTYLE
  2
STANDARD
  9
$DIMCLRD
 70
     0
  9
$DIMCLRE
 70
     0
  9
$DIMCLRT
 70
     0
  9
$DIMTFAC
 40
1.0
  9
$DIMGAP
 40
0.09375
  9
$LUNITS
 70
     2
  9
$LUPREC
 70
     8
  9
$SKETCHINC
 40
0.1
  9
$FILLETRAD
 40
0.0
  9
$AUNITS
 70
     0
  9
$AUPREC
 70
     8
  9
$MENU
  1
.
  9
$ELEVATION
 40
0.0
  9
$PELEVATION
 40
0.0
  9
$THICKNESS
 40
0.0
  9
$LIMCHECK
 70
     0
  9
$BLIPMODE
 70
     0
  9
$CHAMFERA
 40
0.0
  9
$CHAMFERB
 40
0.0
  9
$SKPOLY
 70
     0
  9
$TDCREATE
 40
2453392.4162583221
  9
$TDUPDATE
 40
2453469.639475625
  9
$TDINDWG
 40
0.2584642708
  9
$TDUSRTIMER
 40
0.2584589352
  9
$USRTIMER
 70
     1
  9
$ANGBASE
 50
0.0
  9
$ANGDIR
 70
     0
  9
$PDMODE
 70
     0
  9
$PDSIZE
 40
0.0
  9
$PLINEWID
 40
0.0
  9
$COORDS
 70
     0
  9
$SPLFRAME
 70
     0
  9
$SPLINETYPE
 70
     6
  9
$SPLINESEGS
 70
     8
  9
$ATTDIA
 70
     0
  9
$ATTREQ
 70
     1
  9
$HANDLING
 70
     1
  9
$HANDSEED
  5
99A
  9
$SURFTAB1
 70
     6
  9
$SURFTAB2
 70
     6
  9
$SURFTYPE
 70
     6
  9
$SURFU
 70
     6
  9
$SURFV
 70
     6
  9
$UCSNAME
  2

  9
$UCSORG
 10
0.0
 20
0.0
 30
0.0
  9
$UCSXDIR
 10
1.0
 20
0.0
 30
0.0
  9
$UCSYDIR
 10
0.0
 20
1.0
 30
0.0
  9
$PUCSNAME
  2

  9
$PUCSORG
 10
0.0
 20
0.0
 30
0.0
  9
$PUCSXDIR
 10
1.0
 20
0.0
 30
0.0
  9
$PUCSYDIR
 10
0.0
 20
1.0
 30
0.0
  9
$USERI1
 70
     0
  9
$USERI2
 70
     0
  9
$USERI3
 70
     0
  9
$USERI4
 70
     0
  9
$USERI5
 70
     0
  9
$USERR1
 40
0.0
  9
$USERR2
 40
0.0
  9
$USERR3
 40
0.0
  9
$USERR4
 40
0.0
  9
$USERR5
 40
0.0
  9
$WORLDVIEW
 70
     1
  9
$SHADEDGE
 70
     3
  9
$SHADEDIF
 70
    70
  9
$TILEMODE
 70
     1
  9
$MAXACTVP
 70
    64
  9
$PLIMCHECK
 70
     0
  9
$PEXTMIN
 10
0.0
 20
0.0
 30
0.0
  9
$PEXTMAX
 10
0.0
 20
0.0
 30
0.0
  9
$PLIMMIN
 10
0.0
 20
0.0
  9
$PLIMMAX
 10
12.0
 20
9.0
  9
$UNITMODE
 70
     0
  9
$VISRETAIN
 70
     1
  9
$PLINEGEN
 70
     0
  9
$PSLTSCALE
 70
     1
  0
ENDSEC
  0
SECTION
  2
TABLES
  0
TABLE
  2
VPORT
 70
     2
  0
VPORT
  2
*ACTIVE
 70
     0
 10
0.0
 20
0.0
 11
1.0
 21
1.0
 12
8.4981527781439503
 22
5.4991820018593032
 13
0.0
 23
0.0
 14
0.5
 24
0.5
 15
0.5
 25
0.5
 16
0.0
 26
0.0
 36
1.0
 17
0.0
 27
0.0
 37
0.0
 40
11.14236130363695
 41
2.1727078891257992
 42
50.0
 43
0.0
 44
0.0
 50
0.0
 51
0.0
 71
     0
 72
 20000
 73
     1
 74
     2
 75
     0
 76
     0
 77
     0
 78
     0
  0
ENDTAB
  0
TABLE
  2
LTYPE
 70
     1
  0
LTYPE
  2
CONTINUOUS
 70
     0
  3
Solid line
 72
    65
 73
     0
 40
0.0
  0
ENDTAB
  0
TABLE
  2
LAYER
 70
     5
  0
LAYER
  2
0
 70
     0
 62
     7
  6
CONTINUOUS
  0
LAYER
  2
OUTER_FOOT_-_SIDE_STRIP
 70
     0
 62
     7
  6
CONTINUOUS
  0
LAYER
  2
DIMENSIONS
 70
     0
 62
     1
  6
CONTINUOUS
  0
LAYER
  2
FORM
 70
     0
 62
     5
  6
CONTINUOUS
  0
LAYER
  2
DEFPOINTS
 70
     0
 62
     7
  6
CONTINUOUS
  0
ENDTAB
  0
TABLE
  2
STYLE
 70
     1
  0
STYLE
  2
STANDARD
 70
     0
 40
0.0
 41
1.0
 50
0.0
 71
     0
 42
0.2
  3
simplex.shx
  4

  0
ENDTAB
  0
TABLE
  2
VIEW
 70
     0
  0
ENDTAB
  0
TABLE
  2
UCS
 70
     0
  0
ENDTAB
  0
TABLE
  2
APPID
 70
     4
  0
APPID
  2
ACAD
 70
     0
  0
APPID
  2
ACAECLAYERSTANDARD
 70
     0
  0
APPID
  2
DCO15
 70
     0
  0
APPID
  2
ACAD_PSEXT
 70
     0
  0
ENDTAB
  0
TABLE
  2
DIMSTYLE
 70
     1
  0
DIMSTYLE
  2
STANDARD
 70
     0
  3

  4

  5

  6

  7

 40
1.0
 41
0.3125
 42
0.0625
 43
0.38
 44
0.0625
 45
0.0
 46
0.0
 47
0.0
 48
0.0
140
0.3125
141
0.0
142
0.0
143
25.399999999999999
144
1.0
145
0.0
146
1.0
147
0.09375
 71
     0
 72
     0
 73
     1
 74
     1
 75
     0
 76
     0
 77
     0
 78
     0
170
     0
171
     2
172
     0
173
     0
174
     0
175
     0
176
     0
177
     0
178
     0
  0
ENDTAB
  0
ENDSEC
  0
SECTION
  2
BLOCKS
  0
BLOCK
  8
0
  2
$MODEL_SPACE
 70
     0
 10
0.0
 20
0.0
 30
0.0
  3
$MODEL_SPACE
  1

  0
ENDBLK
  5
B
  8
0
  0
BLOCK
 67
     1
  8
0
  2
$PAPER_SPACE
 70
     0
 10
0.0
 20
0.0
 30
0.0
  3
$PAPER_SPACE
  1

  0
ENDBLK
  5
10
 67
     1
  8
0
  0
BLOCK
  8
0
  2
*U0
 70
     1
 10
0.0
 20
0.0
 30
0.0
  3
*U0
  1

  0
TEXT
  5
915
  8
DIMENSIONS
 10
2.2034847939166911
 20
6.7315683916719991
 30
0.0
 40
0.3125
  1
0.274
  0
ENDBLK
  5
917
  8
0
  0
ENDSEC
  0
SECTION
  2
ENTITIES
  0
LINE
  5
124
  8
OUTER_FOOT_-_SIDE_STRIP
 10
4.4611157462976427
 20
5.8878183916719991
 30
0.0
 11
10.764115746297639
 21
5.8878183916719991
 31
0.0
  0
LINE
  5
129
  8
OUTER_FOOT_-_SIDE_STRIP
 10
4.1871157462976418
 20
5.456818391671999
 30
0.0
 11
11.03811574629764
 21
5.4568183916720008
 31
0.0
  0
LINE
  5
12A
  8
OUTER_FOOT_-_SIDE_STRIP
 10
4.1871157462976418
 20
5.456818391671999
 30
0.0
 11
4.4611157462976427
 21
5.8878183916719991
 31
0.0
  0
LINE
  5
12B
  8
OUTER_FOOT_-_SIDE_STRIP
 10
11.03811574629764
 20
5.456818391671999
 30
0.0
 11
10.764115746297639
 21
5.8878183916719991
 31
0.0
  0
LINE
  5
12C
  8
OUTER_FOOT_-_SIDE_STRIP
 10
14.21073262693894
 20
5.8878183916719991
 30
0.0
 11
14.33573262693894
 21
5.8878183916719991
 31
0.0
  0
LINE
  5
12D
  8
OUTER_FOOT_-_SIDE_STRIP
 10
14.21073262693894
 20
5.4568183916719981
 30
0.0
 11
14.33573262693894
 21
5.4568183916719981
 31
0.0
  0
LINE
  5
12E
  8
OUTER_FOOT_-_SIDE_STRIP
 10
14.21073262693894
 20
5.8878183916719991
 30
0.0
 11
14.21073262693894
 21
5.456818391671999
 31
0.0
  0
LINE
  5
12F
  8
OUTER_FOOT_-_SIDE_STRIP
 10
14.33573262693894
 20
5.8878183916719991
 30
0.0
 11
14.33573262693894
 21
5.456818391671999
 31
0.0
  0
LINE
  5
19C
  8
DIMENSIONS
 10
14.33573262693894
 20
5.9503183916719991
 30
0.0
 11
14.33573262693894
 21
6.9503183916719991
 31
0.0
  0
LINE
  5
19D
  8
DIMENSIONS
 10
14.21073262693894
 20
5.9503183916719991
 30
0.0
 11
14.21073262693894
 21
6.9503183916719991
 31
0.0
  0
LINE
  5
19E
  8
DIMENSIONS
 10
14.64823262693894
 20
6.8878183916719991
 30
0.0
 11
14.96073262693894
 21
6.8878183916719991
 31
0.0
  0
LINE
  5
19F
  8
DIMENSIONS
 10
13.89823262693894
 20
6.8878183916719991
 30
0.0
 11
13.58573262693894
 21
6.8878183916719991
 31
0.0
  0
SOLID
  5
1A0
  8
DIMENSIONS
 10
14.64823262693894
 20
6.9399017250053312
 30
0.0
 11
14.64823262693894
 21
6.835735058338666
 31
0.0
 12
14.33573262693894
 22
6.8878183916719991
 32
0.0
 13
14.33573262693894
 23
6.8878183916719991
 33
0.0
  0
SOLID
  5
1A1
  8
DIMENSIONS
 10
13.89823262693894
 20
6.9399017250053312
 30
0.0
 11
13.89823262693894
 21
6.835735058338666
 31
0.0
 12
14.21073262693894
 22
6.8878183916719991
 32
0.0
 13
14.21073262693894
 23
6.8878183916719991
 33
0.0
  0
LINE
  5
1A3
  8
DIMENSIONS
 10
4.1871157462976418
 20
5.394318391671999
 30
0.0
 11
4.1871157462976418
 21
4.3943183916720008
 31
0.0
  0
LINE
  5
1A4
  8
DIMENSIONS
 10
11.03811574629764
 20
5.3943183916720008
 30
0.0
 11
11.03811574629764
 21
4.3943183916720008
 31
0.0
  0
LINE
  5
1A5
  8
DIMENSIONS
 10
4.4996157462976418
 20
4.4568183916720008
 30
0.0
 11
6.9608300320119261
 21
4.4568183916720008
 31
0.0
  0
LINE
  5
1A6
  8
DIMENSIONS
 10
10.72561574629764
 20
4.4568183916720008
 30
0.0
 11
8.2644014605833576
 21
4.4568183916720008
 31
0.0
  0
SOLID
  5
1A7
  8
DIMENSIONS
 10
4.4996157462976418
 20
4.5089017250053329
 30
0.0
 11
4.4996157462976418
 21
4.4047350583386686
 31
0.0
 12
4.1871157462976418
 22
4.4568183916720008
 32
0.0
 13
4.1871157462976418
 23
4.4568183916720008
 33
0.0
  0
SOLID
  5
1A8
  8
DIMENSIONS
 10
10.72561574629764
 20
4.5089017250053329
 30
0.0
 11
10.72561574629764
 21
4.4047350583386686
 31
0.0
 12
11.03811574629764
 22
4.4568183916720008
 32
0.0
 13
11.03811574629764
 23
4.4568183916720008
 33
0.0
  0
LINE
  5
1AA
  8
DIMENSIONS
 10
4.4611157462976427
 20
5.9503183916719991
 30
0.0
 11
4.4611157462976427
 21
6.9503183916719991
 31
0.0
  0
LINE
  5
1AB
  8
DIMENSIONS
 10
10.764115746297639
 20
5.9503183916719991
 30
0.0
 11
10.764115746297639
 21
6.9503183916719991
 31
0.0
  0
LINE
  5
1AC
  8
DIMENSIONS
 10
4.7736157462976427
 20
6.8878183916719991
 30
0.0
 11
6.8938657462976423
 21
6.8878183916719991
 31
0.0
  0
LINE
  5
1AD
  8
DIMENSIONS
 10
10.451615746297639
 20
6.8878183916719991
 30
0.0
 11
8.3313657462976423
 21
6.8878183916719991
 31
0.0
  0
SOLID
  5
1AE
  8
DIMENSIONS
 10
4.7736157462976427
 20
6.9399017250053312
 30
0.0
 11
4.7736157462976427
 21
6.835735058338666
 31
0.0
 12
4.4611157462976427
 22
6.8878183916719991
 32
0.0
 13
4.4611157462976427
 23
6.8878183916719991
 33
0.0
  0
SOLID
  5
1AF
  8
DIMENSIONS
 10
10.451615746297639
 20
6.9399017250053312
 30
0.0
 11
10.451615746297639
 21
6.835735058338666
 31
0.0
 12
10.764115746297639
 22
6.8878183916719991
 32
0.0
 13
10.764115746297639
 23
6.8878183916719991
 33
0.0
  0
LINE
  5
1B1
  8
DIMENSIONS
 10
4.4611157462976427
 20
5.9503183916719991
 30
0.0
 11
4.4611157462976427
 21
6.9503183916719991
 31
0.0
  0
LINE
  5
1B2
  8
DIMENSIONS
 10
4.1871157462976418
 20
5.519318391671999
 30
0.0
 11
4.1871157462976418
 21
6.9503183916719991
 31
0.0
  0
LINE
  5
1B3
  8
DIMENSIONS
 10
4.7736157462976427
 20
6.8878183916719991
 30
0.0
 11
5.0861157462976427
 21
6.8878183916719991
 31
0.0
  0
LINE
  5
1B4
  8
DIMENSIONS
 10
3.8746157462976418
 20
6.8878183916719991
 30
0.0
 11
3.5621157462976418
 21
6.8878183916719991
 31
0.0
  0
SOLID
  5
1B5
  8
DIMENSIONS
 10
4.7736157462976427
 20
6.9399017250053312
 30
0.0
 11
4.7736157462976427
 21
6.835735058338666
 31
0.0
 12
4.4611157462976427
 22
6.8878183916719991
 32
0.0
 13
4.4611157462976427
 23
6.8878183916719991
 33
0.0
  0
SOLID
  5
1B6
  8
DIMENSIONS
 10
3.8746157462976418
 20
6.9399017250053312
 30
0.0
 11
3.8746157462976418
 21
6.835735058338666
 31
0.0
 12
4.1871157462976418
 22
6.8878183916719991
 32
0.0
 13
4.1871157462976418
 23
6.8878183916719991
 33
0.0
  0
INSERT
  5
1B7
  8
DIMENSIONS
  2
*U0
 10
0.0
 20
0.0
 30
0.0
  0
TEXT
  5
1B8
  8
DIMENSIONS
 10
12.30150643646275
 20
6.7315683916719991
 30
0.0
 40
0.3125
  1
0.125
  0
TEXT
  5
1B9
  8
DIMENSIONS
 10
7.0545800320119261
 20
4.3005683916720008
 30
0.0
 40
0.3125
  1
6.851
  0
TEXT
  5
1BA
  8
DIMENSIONS
 10
6.9876157462976423
 20
6.7315683916719991
 30
0.0
 40
0.3125
  1
6.303
  0
LINE
  5
1E5
  8
DIMENSIONS
 10
14.14823262693894
 20
5.8878183916719991
 30
0.0
 11
13.33548559020813
 21
5.8878183916719991
 31
0.0
  0
LINE
  5
1E6
  8
DIMENSIONS
 10
14.14823262693894
 20
5.456818391671999
 30
0.0
 11
13.33548559020813
 21
5.456818391671999
 31
0.0
  0
LINE
  5
1E7
  8
DIMENSIONS
 10
13.39798559020813
 20
6.2003183916719991
 30
0.0
 11
13.39798559020813
 21
6.5128183916719991
 31
0.0
  0
LINE
  5
1E8
  8
DIMENSIONS
 10
13.39798559020813
 20
5.144318391671999
 30
0.0
 11
13.39798559020813
 21
4.4898760243101536
 31
0.0
  0
LINE
  5
1E9
  8
DIMENSIONS
 10
13.39798559020813
 20
4.4898760243101536
 30
0.0
 11
13.08548559020813
 21
4.4898760243101536
 31
0.0
  0
SOLID
  5
1EA
  8
DIMENSIONS
 10
13.34590225687479
 20
6.2003183916719991
 30
0.0
 11
13.45006892354146
 21
6.2003183916719991
 31
0.0
 12
13.39798559020813
 22
5.8878183916719991
 32
0.0
 13
13.39798559020813
 23
5.8878183916719991
 33
0.0
  0
SOLID
  5
1EB
  8
DIMENSIONS
 10
13.34590225687479
 20
5.144318391671999
 30
0.0
 11
13.45006892354146
 21
5.144318391671999
 31
0.0
 12
13.39798559020813
 22
5.456818391671999
 32
0.0
 13
13.39798559020813
 23
5.456818391671999
 33
0.0
  0
TEXT
  5
1ED
  8
DIMENSIONS
 10
11.875664161636699
 20
4.3336260243101563
 30
0.0
 40
0.3125
  1
0.431
  0
TEXT
  5
593
  8
0
  6
CONTINUOUS
 10
66.312520341652984
 20
20.67696070328763
 30
0.0
 40
0.12
  1
 
 51
7.0
  0
TEXT
  5
594
  8
0
  6
CONTINUOUS
 10
78.756617107132882
 20
27.73983513301928
 30
0.0
 40
0.24
  1
 
 51
7.0
  0
TEXT
  5
595
  8
0
  6
CONTINUOUS
 10
87.966382119046159
 20
27.4198251464422
 30
0.0
 40
0.24
  1
 
 51
7.0
  0
TEXT
  5
596
  8
0
  6
CONTINUOUS
 10
97.770341603478883
 20
10.55724434691488
 30
0.0
 40
0.24
  1
 
 51
7.0
  0
LINE
  5
652
  8
0
 10
0.0
 20
0.0
 30
0.0
 11
0.0
 21
11.0
 31
0.0
  0
LINE
  5
653
  8
0
 10
17.0
 20
0.0
 30
0.0
 11
17.0
 21
11.0
 31
0.0
  0
LINE
  5
654
  8
0
 10
0.0
 20
0.0
 30
0.0
 11
17.0
 21
0.0
 31
0.0
  0
LINE
  5
655
  8
0
 10
0.0
 20
11.0
 30
0.0
 11
17.0
 21
11.0
 31
0.0
  0
LINE
  5
788
  8
FORM
 10
16.484147612058631
 20
0.6340090048041951
 30
0.0
 11
16.484147612058631
 21
9.6159909951958085
 31
0.0
  0
LINE
  5
789
  8
FORM
 10
16.365990995195801
 20
9.7341476120586332
 30
0.0
 11
0.63400900480422
 21
9.7341476120586332
 31
0.0
  0
LINE
  5
78A
  8
FORM
 10
16.365990995195801
 20
0.5158523879413757
 30
0.0
 11
0.63400900480422
 21
0.5158523879413686
 31
0.0
  0
LINE
  5
78B
  8
FORM
 10
0.5158523879413864
 20
0.6340090048041951
 30
0.0
 11
0.5158523879413864
 21
9.6159909951958085
 31
0.0
  0
TEXT
  5
78C
  8
FORM
 10
14.02434452472219
 20
2.1089926618780011
 30
0.0
 40
0.2000816148829512
  1
SIDE STRIP
 72
     1
 11
14.824670984254
 21
2.1089926618780011
 31
0.0
  0
TEXT
  5
78D
  8
FORM
 10
13.88619293349349
 20
1.685667990169768
 30
0.0
 40
0.2000816148829512
  1
OUTER FOOT
 72
     1
 11
14.824670984254
 21
1.685667990169768
 31
0.0
  0
TEXT
  5
78E
  8
FORM
 10
12.951659298779081
 20
0.9164571331179516
 30
0.0
 40
0.2000816148829512
  1
ASTROMECH DROID
  0
TEXT
  5
78F
  8
FORM
 10
16.064313823179301
 20
0.9242355691914526
 30
0.0
 40
0.2000816148829512
  1
A
  0
TEXT
  5
790
  8
FORM
 10
13.297344515919219
 20
0.6829097977420595
 30
0.0
 40
0.0800326459531805
  1
FULL
  0
TEXT
  5
791
  8
FORM
 10
15.8616186361924
 20
0.68514995648178
 30
0.0
 40
0.0800326459531805
  1
1   1
  0
TEXT
  5
792
  8
FORM
 10
14.536090933578519
 20
0.6913324136673822
 30
0.0
 40
0.0800326459531805
  1
APRIL 2005
 72
     2
 11
15.22970719850608
 21
0.6913324136673822
 31
0.0
  0
TEXT
  5
793
  8
FORM
  6
CONTINUOUS
 10
13.96119445049923
 20
0.6905272006124755
 30
0.0
 40
0.069148206103548
  1
DRAWN:
  0
TEXT
  5
794
  8
FORM
  6
CONTINUOUS
 10
12.89085133944082
 20
0.6905920449428608
 30
0.0
 40
0.069148206103548
  1
SCALE:
  0
TEXT
  5
795
  8
FORM
  6
CONTINUOUS
 10
15.419759618214149
 20
0.689725495444975
 30
0.0
 40
0.069148206103548
  1
SHEET:   OF
  0
TEXT
  5
796
  8
FORM
  6
CONTINUOUS
 10
12.76457783364566
 20
1.239055808210245
 30
0.0
 40
0.069148206103548
  1
DRAWING NO.
  0
TEXT
  5
797
  8
FORM
  6
CONTINUOUS
 10
16.03751880559571
 20
1.239055808210235
 30
0.0
 40
0.069148206103548
  1
REV.
 72
     1
 11
16.139594728891421
 21
1.239055808210235
 31
0.0
  0
LINE
  5
798
  8
FORM
  6
CONTINUOUS
 10
12.874006586966649
 20
2.639306981807088
 30
0.0
 11
16.19312047993693
 21
2.639306981807088
 31
0.0
  0
LINE
  5
799
  8
FORM
  6
CONTINUOUS
 10
12.70113607170777
 20
0.8068795200630631
 30
0.0
 11
12.70113607170776
 21
2.4664364665482088
 31
0.0
  0
LINE
  5
79A
  8
FORM
  6
CONTINUOUS
 10
12.70113607170777
 20
1.342778117365558
 30
0.0
 11
16.365990995195801
 21
1.342778117365558
 31
0.0
  0
LINE
  5
79B
  8
FORM
  6
CONTINUOUS
 10
12.70113607170777
 20
0.8068795200630631
 30
0.0
 11
16.365990995195801
 21
0.8068795200630631
 31
0.0
  0
LINE
  5
79C
  8
FORM
  6
CONTINUOUS
 10
13.85306862165424
 20
0.8068795200630631
 30
0.0
 11
13.85306862165424
 21
0.6340090048041951
 31
0.0
  0
LINE
  5
79D
  8
FORM
  6
CONTINUOUS
 10
15.367898463636489
 20
0.8047514437619511
 30
0.0
 11
15.367898463636489
 21
0.6318809285030831
 31
0.0
  0
LINE
  5
79E
  8
FORM
  6
CONTINUOUS
 10
15.90921047827166
 20
1.342778117365558
 30
0.0
 11
15.90921047827166
 21
0.8068795200630631
 31
0.0
  0
ARC
  5
79F
  8
FORM
 62
     5
 10
13.04477686979633
 20
2.1186824869621002
 30
0.0
 40
0.0188534434600954
 50
152.18113099770551
 51
330.99098814993278
  0
ARC
  5
7A0
  8
FORM
 62
     5
 10
13.126386197321329
 20
2.2758441071602951
 30
0.0
 40
0.0165314742043987
 50
335.32315363464198
 51
152.67224926330371
  0
ARC
  5
7A1
  8
FORM
 62
     5
 10
14.38557424794738
 20
1.5001984443608301
 30
0.0
 40
1.495397362786747
 50
148.41494327216151
 51
155.19852313243231
  0
ARC
  5
7A2
  8
FORM
 62
     5
 10
14.67501980856775
 20
1.3980394513723831
 30
0.0
 40
1.763643078824644
 50
150.40875710206339
 51
156.20744757951141
  0
ARC
  5
7A3
  8
FORM
 62
     7
 10
12.991464018212749
 20
1.9602931191640911
 30
0.0
 40
0.0251922474207515
 50
161.12872523797091
 51
346.89295927401372
  0
ARC
  5
7A4
  8
FORM
 62
     7
 10
20.35736643066603
 20
-1.2212613690260521
 30
0.0
 40
7.9988518948410858
 50
153.58307292081321
 51
156.60691138966209
  0
ARC
  5
7A5
  8
FORM
 62
     7
 10
19.202101625995549
 20
-0.8056564218828584
 30
0.0
 40
6.8151207749529688
 50
152.34095999775931
 51
152.9694116127464
  0
ARC
  5
7A6
  8
FORM
 62
     7
 10
19.278496529666569
 20
-1.0276374460023261
 30
0.0
 40
6.9859556428572267
 50
153.3711283527573
 51
154.60402195655351
  0
ARC
  5
7A7
  8
FORM
 62
     7
 10
13.354898158324501
 20
2.2547307595741688
 30
0.0
 40
0.1811261457171982
 50
23.468725928191049
 51
88.151617587883351
  0
ARC
  5
7A8
  8
FORM
 62
     7
 10
13.358946198540719
 20
2.26640791111162
 30
0.0
 40
0.2137794625736775
 50
18.23262529566556
 51
154.63608874642691
  0
ARC
  5
7A9
  8
FORM
 62
     7
 10
13.42299689775896
 20
2.288690536149864
 30
0.0
 40
0.1459771228480954
 50
336.99722732837893
 51
341.11190659806488
  0
ARC
  5
7AA
  8
FORM
 62
     7
 10
13.431679155771841
 20
2.2951464111902951
 30
0.0
 40
0.0956104813627528
 50
333.24704424527522
 51
339.12675173356178
  0
ARC
  5
7AB
  8
FORM
 62
     7
 10
13.522113095579609
 20
2.2499998156227639
 30
0.0
 40
0.0054797286924766
 50
157.37475902115841
 51
243.18317341424029
  0
ARC
  5
7AC
  8
FORM
 62
     7
 10
13.55447854642312
 20
2.2324989823066552
 30
0.0
 40
0.0030114991132884
 50
246.7423667985764
 51
343.55073793579641
  0
ARC
  5
7AD
  8
FORM
 62
     7
 10
13.649242515218971
 20
2.4842002985944158
 30
0.0
 40
0.271957738005823
 50
241.5396617947477
 51
249.33988332022491
  0
ARC
  5
7AE
  8
FORM
 62
     7
 10
13.4591325891842
 20
2.1957947984781958
 30
0.0
 40
0.0536868574507958
 50
210.28645373052609
 51
287.25915125833183
  0
ARC
  5
7AF
  8
FORM
 62
     7
 10
13.46374548958414
 20
2.1725786804623719
 30
0.0
 40
0.0302495516891243
 50
291.96730232828992
 51
10.20108836223371
  0
ARC
  5
7B0
  8
FORM
 62
     7
 10
13.224677527813469
 20
2.120840346952654
 30
0.0
 40
0.1940937119913158
 50
14.281099242761019
 51
24.94726153987823
  0
ARC
  5
7B1
  8
FORM
 62
     7
 10
13.33788450797635
 20
2.1796295366011149
 30
0.0
 40
0.0668841061965828
 50
20.183063788867571
 51
47.833846572520187
  0
ARC
  5
7B2
  8
FORM
 62
     7
 10
13.350388234890611
 20
2.1457512828194529
 30
0.0
 40
0.089519691428821
 50
68.784960310907422
 51
94.742087985452599
  0
ARC
  5
7B3
  8
FORM
 62
     7
 10
13.34941423143124
 20
2.1986562466492421
 30
0.0
 40
0.036872673284197
 50
100.0375073429591
 51
170.98475346238999
  0
ARC
  5
7B4
  8
FORM
 62
     7
 10
13.52284968491537
 20
2.1731683782493638
 30
0.0
 40
0.2121689656157903
 50
171.52589863719891
 51
197.494741096675
  0
ARC
  5
7B5
  8
FORM
 62
     7
 10
13.379928076702869
 20
2.1761701253644778
 30
0.0
 40
0.1136025122223039
 50
0.8906501289531732
 51
49.113860192417143
  0
ARC
  5
7B6
  8
FORM
 62
     7
 10
13.355995808337299
 20
2.1970071573261332
 30
0.0
 40
0.0894129368447451
 50
99.869748807366761
 51
175.59516845025641
  0
ARC
  5
7B7
  8
FORM
 62
     7
 10
13.37211801256317
 20
2.1485244043259861
 30
0.0
 40
0.1401464035212747
 50
54.104282451028212
 51
102.9674010870567
  0
ARC
  5
7B8
  8
FORM
 62
     7
 10
13.76765204168187
 20
2.2319085392940821
 30
0.0
 40
0.4636392383612588
 50
195.32307896217739
 51
209.290843156958
  0
ARC
  5
7B9
  8
FORM
 62
     7
 10
13.62176921197093
 20
2.1558888844703752
 30
0.0
 40
0.358151365974493
 50
172.3003020759547
 51
200.12627387409299
  0
ARC
  5
7BA
  8
FORM
 62
     7
 10
13.87784050643449
 20
2.2558495792130411
 30
0.0
 40
0.6330076434458865
 50
200.64629086238159
 51
210.0464960904439
  0
ARC
  5
7BB
  8
FORM
 62
     7
 10
13.00584297217528
 20
1.7651942952909601
 30
0.0
 40
0.4304787001033431
 50
28.431949107384341
 51
33.865461133002469
  0
ARC
  5
7BC
  8
FORM
 62
     7
 10
13.35941745510968
 20
1.950567856294313
 30
0.0
 40
0.0317424459006294
 50
201.56446042640411
 51
38.094090168146302
  0
ARC
  5
7BD
  8
FORM
 62
     5
 10
13.6383660618074
 20
2.2142819182737798
 30
0.0
 40
0.0176569498803825
 50
227.6202696593605
 51
57.41211292120402
  0
ARC
  5
7BE
  8
FORM
 62
     5
 10
13.430127955313081
 20
1.9426310314385331
 30
0.0
 40
0.359878468651919
 50
52.766851639305919
 51
65.063571515457895
  0
ARC
  5
7BF
  8
FORM
 62
     5
 10
13.262610214247269
 20
1.682901505973134
 30
0.0
 40
0.6332957988855307
 50
54.932512589538803
 51
74.152868438598929
  0
ARC
  5
7C0
  8
FORM
 62
     5
 10
13.271741224914511
 20
1.4946303420398119
 30
0.0
 40
0.8141464353032019
 50
78.393012355262385
 51
89.647961077025343
  0
ARC
  5
7C1
  8
FORM
 62
     5
 10
13.27537529177442
 20
2.3323914188280241
 30
0.0
 40
0.0236695866834528
 50
183.9979944211656
 51
273.313807745882
  0
ARC
  5
7C2
  8
FORM
 62
     5
 10
13.35526085930606
 20
2.3386443488409041
 30
0.0
 40
0.103798865281065
 50
145.6085916691928
 51
184.36670732083471
  0
ARC
  5
7C3
  8
FORM
 62
     5
 10
13.291396665717601
 20
2.3834953579566038
 30
0.0
 40
0.0257815152583025
 50
75.244714174009715
 51
147.6929850116162
  0
ARC
  5
7C4
  8
FORM
 62
     5
 10
12.984074694810539
 20
1.2040798567959881
 30
0.0
 40
1.244579080947225
 50
61.63724224152525
 51
75.392005557716686
  0
ARC
  5
7C5
  8
FORM
 62
     5
 10
13.551797825772001
 20
2.2783236912083922
 30
0.0
 40
0.0314839568879094
 50
342.6982574268402
 51
41.67278378767756
  0
ARC
  5
7C6
  8
FORM
 62
     7
 10
13.42299689775896
 20
2.288690536149864
 30
0.0
 40
0.1459771228480954
 50
5.6380312699923048
 51
17.791456368736871
  0
ARC
  5
7C7
  8
FORM
 62
     7
 10
13.489427342601051
 20
1.6007999024493449
 30
0.0
 40
0.046711457312993
 50
88.432533024773406
 51
186.62631613112151
  0
ARC
  5
7C8
  8
FORM
 62
     7
 10
13.49675858432429
 20
1.6105396663507321
 30
0.0
 40
0.0558202426388025
 50
195.7266305128272
 51
285.3806868435185
  0
ARC
  5
7C9
  8
FORM
 62
     7
 10
13.43093130756249
 20
2.1045278917162409
 30
0.0
 40
0.5537116491995469
 50
278.37329371359471
 51
293.15208507016871
  0
ARC
  5
7CA
  8
FORM
 62
     7
 10
13.61670164249148
 20
1.756019172507965
 30
0.0
 40
0.1142007584316564
 50
257.51805604168283
 51
277.23103351305667
  0
ARC
  5
7CB
  8
FORM
 62
     7
 10
13.62310455387666
 20
1.6622018832727781
 30
0.0
 40
0.0210435172471391
 50
292.26031345923337
 51
12.86737930052367
  0
ARC
  5
7CC
  8
FORM
 62
     7
 10
13.607457700436219
 20
1.659184975616895
 30
0.0
 40
0.036973292087752
 50
12.0253755273956
 51
52.143631645159317
  0
ARC
  5
7CD
  8
FORM
 62
     7
 10
14.395818732714821
 20
2.6172173020938132
 30
0.0
 40
1.2037424972589701
 50
219.60277928185971
 51
230.5002020408055
  0
ARC
  5
7CE
  8
FORM
 62
     7
 10
13.652733275951681
 20
1.9941623012201211
 30
0.0
 40
0.2341213247689704
 50
175.97523115435061
 51
218.04500009534141
  0
ARC
  5
7CF
  8
FORM
 62
     7
 10
13.55350038114107
 20
2.0176722641953471
 30
0.0
 40
0.1344973861223784
 50
149.96078860476399
 51
183.01641230856191
  0
ARC
  5
7D0
  8
FORM
 62
     7
 10
13.45954366164081
 20
2.07299932292015
 30
0.0
 40
0.0254789098120269
 50
69.764209445538683
 51
151.8988190455112
  0
ARC
  5
7D1
  8
FORM
 62
     7
 10
13.456537680486679
 20
2.07126747983376
 30
0.0
 40
0.0282311150502572
 50
357.6694469744499
 51
65.251102439515421
  0
ARC
  5
7D2
  8
FORM
 62
     7
 10
13.39001888680861
 20
2.0658085316276411
 30
0.0
 40
0.0948246006914946
 50
345.36193237678458
 51
2.6056939300727819
  0
ARC
  5
7D3
  8
FORM
 62
     7
 10
13.693893794908741
 20
1.9762560830929199
 30
0.0
 40
0.2220366937229542
 50
162.8186183088072
 51
185.35496664157321
  0
ARC
  5
7D4
  8
FORM
 62
     7
 10
13.669140261081489
 20
1.998529790474858
 30
0.0
 40
0.2009672573467367
 50
192.3534994193023
 51
222.3020476696033
  0
ARC
  5
7D5
  8
FORM
 62
     7
 10
14.361464293309529
 20
2.5566616734304008
 30
0.0
 40
1.0899567634416629
 50
219.50633019139829
 51
228.42762303996261
  0
ARC
  5
7D6
  8
FORM
 62
     7
 10
13.52059955021468
 20
1.580976331006358
 30
0.0
 40
0.1987901636968699
 50
32.971129457978869
 51
53.728419363024372
  0
ARC
  5
7D7
  8
FORM
 62
     7
 10
13.62839485959608
 20
1.6586520589902769
 30
0.0
 40
0.0664025030626794
 50
287.74749415951351
 51
27.352111896629431
  0
ARC
  5
7D8
  8
FORM
 62
     7
 10
13.529048378339979
 20
1.226832417800729
 30
0.0
 40
0.4224053434052901
 50
81.426570944510217
 51
95.208118001959775
  0
ARC
  5
7D9
  8
FORM
 62
     7
 10
13.34671426349607
 20
1.8852888198072
 30
0.0
 40
0.0188048406500912
 50
325.52447187114308
 51
75.340502228459755
  0
ARC
  5
7DA
  8
FORM
 62
     7
 10
13.323545284373109
 20
1.9022998550377319
 30
0.0
 40
0.0475424544875808
 50
277.78730616127859
 51
324.42957968808531
  0
ARC
  5
7DB
  8
FORM
 62
     7
 10
13.31513732931408
 20
1.9102064416359139
 30
0.0
 40
0.0569796604055946
 50
243.48581874200181
 51
285.1065744639306
  0
ARC
  5
7DC
  8
FORM
 62
     7
 10
10.794918804532889
 20
-4.5297384066513864
 30
0.0
 40
6.9225926661188568
 50
68.327181839257534
 51
70.606105230637283
  0
ARC
  5
7DD
  8
FORM
 62
     7
 10
13.088750851780709
 20
1.9797766195403339
 30
0.0
 40
0.0208571569832622
 50
76.445232091872313
 51
134.36352227876461
  0
ARC
  5
7DE
  8
FORM
 62
     7
 10
13.18148225369479
 20
1.8371029743830929
 30
0.0
 40
0.1906553367366958
 50
124.2547762008316
 51
135.012931962436
  0
ARC
  5
7DF
  8
FORM
 62
     7
 10
13.050217459593449
 20
1.9658216530568851
 30
0.0
 40
0.0070420521886436
 50
120.5491196217084
 51
251.48388650457539
  0
ARC
  5
7E0
  8
FORM
 62
     7
 10
12.102609582274271
 20
-0.6700542757339605
 30
0.0
 40
2.793995635460623
 50
64.85742894317822
 51
67.515132469299331
  0
ARC
  5
7E1
  8
FORM
 62
     7
 10
13.28316177556187
 20
1.818135413693315
 30
0.0
 40
0.0263792990891666
 50
329.18566117941782
 51
69.52715124986382
  0
ARC
  5
7E2
  8
FORM
 62
     7
 10
13.21395759371225
 20
1.7136090610551411
 30
0.0
 40
0.1511761169714233
 50
58.747973844557542
 51
81.106226592028094
  0
ARC
  5
7E3
  8
FORM
 62
     7
 10
13.19787604286341
 20
1.61339171735872
 30
0.0
 40
0.252675078733898
 50
81.016817915507374
 51
97.679603827268224
  0
ARC
  5
7E4
  8
FORM
 62
     7
 10
13.224469861585421
 20
1.689321576498183
 30
0.0
 40
0.1874269998684321
 50
121.5050128230593
 51
139.09578810607039
  0
ARC
  5
7E5
  8
FORM
 62
     7
 10
13.2753523157097
 20
1.814111852132068
 30
0.0
 40
0.0319085550486712
 50
277.70569210516868
 51
342.69880024124109
  0
ARC
  5
7E6
  8
FORM
 62
     7
 10
13.265559284055019
 20
1.850115817382906
 30
0.0
 40
0.0690728861222022
 50
250.08394506358289
 51
281.75453717228322
  0
ARC
  5
7E7
  8
FORM
 62
     7
 10
13.28812677519262
 20
1.858046081840345
 30
0.0
 40
0.0862278718518301
 50
221.18187885427241
 51
237.68378775985289
  0
ARC
  5
7E8
  8
FORM
 62
     7
 10
13.186997271384399
 20
1.7580832213708599
 30
0.0
 40
0.0563721321250733
 50
50.003848755011681
 51
75.5416830098399
  0
ARC
  5
7E9
  8
FORM
 62
     7
 10
13.18401561001931
 20
1.7785159196435201
 30
0.0
 40
0.0381762196213393
 50
63.4626603498468
 51
100.74200229027051
  0
ARC
  5
7EA
  8
FORM
 62
     7
 10
13.17690006288543
 20
1.751426588373806
 30
0.0
 40
0.064596567019134
 50
89.999999999999588
 51
125.5974615489027
  0
ARC
  5
7EB
  8
FORM
 62
     7
 10
13.943169967455511
 20
2.2123980959706131
 30
0.0
 40
0.8938000416812776
 50
197.51922498184919
 51
203.981481444731
  0
ARC
  5
7EC
  8
FORM
 62
     7
 10
12.899912187086739
 20
1.927111329637615
 30
0.0
 40
0.271677852932892
 50
346.52409876011302
 51
356.71498770316703
  0
ARC
  5
7ED
  8
FORM
 62
     7
 10
12.102609582274271
 20
-0.6700542757339605
 30
0.0
 40
2.793995635460623
 50
69.286600818944066
 51
70.22311760076802
  0
ARC
  5
7EE
  8
FORM
 62
     7
 10
13.04653800572463
 20
1.690640188859845
 30
0.0
 40
0.0819272792495905
 50
245.40259669902051
 51
275.40975098180542
  0
ARC
  5
7EF
  8
FORM
 62
     7
 10
13.33381080734401
 20
1.5428085262683771
 30
0.0
 40
0.3256233144805797
 50
126.68044463040199
 51
139.78708822539889
  0
ARC
  5
7F0
  8
FORM
 62
     7
 10
13.04500540091828
 20
1.9210927562931019
 30
0.0
 40
0.3121522132917629
 50
271.69929119420118
 51
283.39540842056908
  0
ARC
  5
7F1
  8
FORM
 62
     7
 10
13.628698166662589
 20
1.200712293569552
 30
0.0
 40
0.7749277189646824
 50
134.5410403491789
 51
138.91474429089899
  0
ARC
  5
7F2
  8
FORM
 62
     7
 10
13.05784989606523
 20
1.6989639079203509
 30
0.0
 40
0.0205005733572468
 50
201.8252958964795
 51
267.16449786715452
  0
ARC
  5
7F3
  8
FORM
 62
     7
 10
13.05343659707826
 20
1.697018971721679
 30
0.0
 40
0.0156813934122129
 50
124.254854327418
 51
201.22329273937859
  0
ARC
  5
7F4
  8
FORM
 62
     7
 10
13.10118501969685
 20
1.684260473122293
 30
0.0
 40
0.068748292490709
 50
283.5751770312794
 51
324.58969283639942
  0
ARC
  5
7F5
  8
FORM
 62
     7
 10
13.14039356000154
 20
1.6515176982048621
 30
0.0
 40
0.0182566773696035
 50
337.14160324238759
 51
47.564966708928338
  0
ARC
  5
7F6
  8
FORM
 62
     7
 10
13.112292844989749
 20
1.6113715022507791
 30
0.0
 40
0.0671482106790479
 50
52.990730681111621
 51
91.748895977531333
  0
ARC
  5
7F7
  8
FORM
 62
     7
 10
13.08353964605875
 20
1.8607804106031369
 30
0.0
 40
0.1842375159526987
 50
261.66603807207321
 51
278.33396192792679
  0
ARC
  5
7F8
  8
FORM
 62
     7
 10
13.02822719754589
 20
1.655671440092024
 30
0.0
 40
0.0425616210629247
 50
192.64550774538381
 51
248.2223967256862
  0
ARC
  5
7F9
  8
FORM
 62
     7
 10
13.017766749099581
 20
1.660493121495527
 30
0.0
 40
0.0341348066426429
 50
178.88427582775449
 51
204.46998391858139
  0
ARC
  5
7FA
  8
FORM
 62
     7
 10
13.10220733902673
 20
1.651866477753827
 30
0.0
 40
0.1189324110130265
 50
140.54690015149379
 51
175.51933831911609
  0
ARC
  5
7FB
  8
FORM
 62
     7
 10
14.273651263450629
 20
0.7191778149149535
 30
0.0
 40
1.6163120713229819
 50
137.45643980933039
 51
141.40545593619061
  0
POLYLINE
  5
7FC
  8
FORM
 62
     1
 10
13.313597500211122
 20
2.3929838907158456
 30
0.0
 66
     1
 70
     8
  0
VERTEX
  8
FORM
  5
918
 10
13.3136
 20
2.39298
 30
0.000000
  70
    32
  0
VERTEX
  8
FORM
  5
919
 10
13.3129
 20
2.39325
 30
0.000000
  70
    32
  0
VERTEX
  8
FORM
  5
91A
 10
13.3121
 20
2.39343
 30
0.000000
  70
    32
  0
VERTEX
  8
FORM
  5
91B
 10
13.3113
 20
2.39353
 30
0.000000
  70
    32
  0
VERTEX
  8
FORM
  5
91C
 10
13.3105
 20
2.39354
 30
0.000000
  70
    32
  0
VERTEX
  8
FORM
  5
91D
 10
13.3097
 20
2.39347
 30
0.000000
  70
    32
  0
VERTEX
  8
FORM
  5
91E
 10
13.3088
 20
2.39331
 30
0.000000
  70
    32
  0
VERTEX
  8
FORM
  5
91F
 10
13.3079
 20
2.39307
 30
0.000000
  70
    32
  0
VERTEX
  8
FORM
  5
920
 10
13.3070
 20
2.39274
 30
0.000000
  70
    32
  0
VERTEX
  8
FORM
  5
921
 10
13.3061
 20
2.39234
 30
0.000000
  70
    32
  0
VERTEX
  8
FORM
  5
922
 10
13.3051
 20
2.39185
 30
0.000000
  70
    32
  0
VERTEX
  8
FORM
  5
923
 10
13.3041
 20
2.39128
 30
0.000000
  70
    32
  0
VERTEX
  8
FORM
  5
924
 10
13.3032
 20
2.39063
 30
0.000000
  70
    32
  0
VERTEX
  8
FORM
  5
925
 10
13.3022
 20
2.38991
 30
0.000000
  70
    32
  0
VERTEX
  8
FORM
  5
926
 10
13.3011
 20
2.38911
 30
0.000000
  70
    32
  0
VERTEX
  8
FORM
  5
927
 10
13.3001
 20
2.38823
 30
0.000000
  70
    32
  0
VERTEX
  8
FORM
  5
928
 10
13.2991
 20
2.38729
 30
0.000000
  70
    32
  0
VERTEX
  8
FORM
  5
929
 10
13.2981
 20
2.38627
 30
0.000000
  70
    32
  0
VERTEX
  8
FORM
  5
92A
 10
13.2971
 20
2.38519
 30
0.000000
  70
    32
  0
VERTEX
  8
FORM
  5
92B
 10
13.2961
 20
2.38404
 30
0.000000
  70
    32
  0
VERTEX
  8
FORM
  5
92C
 10
13.2951
 20
2.38283
 30
0.000000
  70
    32
  0
VERTEX
  8
FORM
  5
92D
 10
13.2941
 20
2.38157
 30
0.000000
  70
    32
  0
VERTEX
  8
FORM
  5
92E
 10
13.2931
 20
2.38024
 30
0.000000
  70
    32
  0
VERTEX
  8
FORM
  5
92F
 10
13.2921
 20
2.37887
 30
0.000000
  70
    32
  0
VERTEX
  8
FORM
  5
930
 10
13.2911
 20
2.37744
 30
0.000000
  70
    32
  0
VERTEX
  8
FORM
  5
931
 10
13.2902
 20
2.37597
 30
0.000000
  70
    32
  0
VERTEX
  8
FORM
  5
932
 10
13.2892
 20
2.37446
 30
0.000000
  70
    32
  0
VERTEX
  8
FORM
  5
933
 10
13.2883
 20
2.37291
 30
0.000000
  70
    32
  0
VERTEX
  8
FORM
  5
934
 10
13.2875
 20
2.37132
 30
0.000000
  70
    32
  0
VERTEX
  8
FORM
  5
935
 10
13.2866
 20
2.36971
 30
0.000000
  70
    32
  0
VERTEX
  8
FORM
  5
936
 10
13.2858
 20
2.36806
 30
0.000000
  70
    32
  0
VERTEX
  8
FORM
  5
937
 10
13.2850
 20
2.36640
 30
0.000000
  70
    32
  0
VERTEX
  8
FORM
  5
938
 10
13.2842
 20
2.36471
 30
0.000000
  70
    32
  0
VERTEX
  8
FORM
  5
939
 10
13.2835
 20
2.36301
 30
0.000000
  70
    32
  0
VERTEX
  8
FORM
  5
93A
 10
13.2828
 20
2.36130
 30
0.000000
  70
    32
  0
VERTEX
  8
FORM
  5
93B
 10
13.2822
 20
2.35958
 30
0.000000
  70
    32
  0
VERTEX
  8
FORM
  5
93C
 10
13.2816
 20
2.35786
 30
0.000000
  70
    32
  0
VERTEX
  8
FORM
  5
93D
 10
13.2810
 20
2.35614
 30
0.000000
  70
    32
  0
VERTEX
  8
FORM
  5
93E
 10
13.2805
 20
2.35443
 30
0.000000
  70
    32
  0
VERTEX
  8
FORM
  5
93F
 10
13.2800
 20
2.35272
 30
0.000000
  70
    32
  0
VERTEX
  8
FORM
  5
940
 10
13.2795
 20
2.35103
 30
0.000000
  70
    32
  0
VERTEX
  8
FORM
  5
941
 10
13.2791
 20
2.34936
 30
0.000000
  70
    32
  0
VERTEX
  8
FORM
  5
942
 10
13.2788
 20
2.34771
 30
0.000000
  70
    32
  0
VERTEX
  8
FORM
  5
943
 10
13.2785
 20
2.34608
 30
0.000000
  70
    32
  0
VERTEX
  8
FORM
  5
944
 10
13.2782
 20
2.34449
 30
0.000000
  70
    32
  0
VERTEX
  8
FORM
  5
945
 10
13.2780
 20
2.34293
 30
0.000000
  70
    32
  0
VERTEX
  8
FORM
  5
946
 10
13.2778
 20
2.34140
 30
0.000000
  70
    32
  0
VERTEX
  8
FORM
  5
947
 10
13.2777
 20
2.33992
 30
0.000000
  70
    32
  0
VERTEX
  8
FORM
  5
948
 10
13.2777
 20
2.33848
 30
0.000000
  70
    32
  0
VERTEX
  8
FORM
  5
949
 10
13.2777
 20
2.33709
 30
0.000000
  70
    32
  0
VERTEX
  8
FORM
  5
94A
 10
13.2777
 20
2.33575
 30
0.000000
  70
    32
  0
VERTEX
  8
FORM
  5
94B
 10
13.2778
 20
2.33447
 30
0.000000
  70
    32
  0
VERTEX
  8
FORM
  5
94C
 10
13.2780
 20
2.33325
 30
0.000000
  70
    32
  0
VERTEX
  8
FORM
  5
94D
 10
13.2781
 20
2.33208
 30
0.000000
  70
    32
  0
VERTEX
  8
FORM
  5
94E
 10
13.2784
 20
2.33098
 30
0.000000
  70
    32
  0
VERTEX
  8
FORM
  5
94F
 10
13.2787
 20
2.32994
 30
0.000000
  70
    32
  0
VERTEX
  8
FORM
  5
950
 10
13.2790
 20
2.32898
 30
0.000000
  70
    32
  0
VERTEX
  8
FORM
  5
951
 10
13.2794
 20
2.32808
 30
0.000000
  70
    32
  0
VERTEX
  8
FORM
  5
952
 10
13.2798
 20
2.32726
 30
0.000000
  70
    32
  0
VERTEX
  8
FORM
  5
953
 10
13.2803
 20
2.32651
 30
0.000000
  70
    32
  0
VERTEX
  8
FORM
  5
954
 10
13.2808
 20
2.32584
 30
0.000000
  70
    32
  0
VERTEX
  8
FORM
  5
955
 10
13.2814
 20
2.32525
 30
0.000000
  70
    32
  0
VERTEX
  8
FORM
  5
956
 10
13.2820
 20
2.32474
 30
0.000000
  70
    32
  0
VERTEX
  8
FORM
  5
957
 10
13.2826
 20
2.32431
 30
0.000000
  70
    32
  0
VERTEX
  8
FORM
  5
958
 10
13.2833
 20
2.32396
 30
0.000000
  70
    32
  0
VERTEX
  8
FORM
  5
959
 10
13.2840
 20
2.32370
 30
0.000000
  70
    32
  0
VERTEX
  8
FORM
  5
95A
 10
13.2848
 20
2.32352
 30
0.000000
  70
    32
  0
VERTEX
  8
FORM
  5
95B
 10
13.2855
 20
2.32342
 30
0.000000
  70
    32
  0
VERTEX
  8
FORM
  5
95C
 10
13.2864
 20
2.32341
 30
0.000000
  70
    32
  0
VERTEX
  8
FORM
  5
95D
 10
13.2872
 20
2.32348
 30
0.000000
  70
    32
  0
VERTEX
  8
FORM
  5
95E
 10
13.2881
 20
2.32364
 30
0.000000
  70
    32
  0
VERTEX
  8
FORM
  5
95F
 10
13.2890
 20
2.32388
 30
0.000000
  70
    32
  0
VERTEX
  8
FORM
  5
960
 10
13.2899
 20
2.32420
 30
0.000000
  70
    32
  0
VERTEX
  8
FORM
  5
961
 10
13.2908
 20
2.32461
 30
0.000000
  70
    32
  0
VERTEX
  8
FORM
  5
962
 10
13.2918
 20
2.32510
 30
0.000000
  70
    32
  0
VERTEX
  8
FORM
  5
963
 10
13.2927
 20
2.32567
 30
0.000000
  70
    32
  0
VERTEX
  8
FORM
  5
964
 10
13.2937
 20
2.32631
 30
0.000000
  70
    32
  0
VERTEX
  8
FORM
  5
965
 10
13.2947
 20
2.32704
 30
0.000000
  70
    32
  0
VERTEX
  8
FORM
  5
966
 10
13.2957
 20
2.32784
 30
0.000000
  70
    32
  0
VERTEX
  8
FORM
  5
967
 10
13.2968
 20
2.32872
 30
0.000000
  70
    32
  0
VERTEX
  8
FORM
  5
968
 10
13.2978
 20
2.32966
 30
0.000000
  70
    32
  0
VERTEX
  8
FORM
  5
969
 10
13.2988
 20
2.33068
 30
0.000000
  70
    32
  0
VERTEX
  8
FORM
  5
96A
 10
13.2998
 20
2.33176
 30
0.000000
  70
    32
  0
VERTEX
  8
FORM
  5
96B
 10
13.3008
 20
2.33291
 30
0.000000
  70
    32
  0
VERTEX
  8
FORM
  5
96C
 10
13.3018
 20
2.33412
 30
0.000000
  70
    32
  0
VERTEX
  8
FORM
  5
96D
 10
13.3028
 20
2.33538
 30
0.000000
  70
    32
  0
VERTEX
  8
FORM
  5
96E
 10
13.3038
 20
2.33671
 30
0.000000
  70
    32
  0
VERTEX
  8
FORM
  5
96F
 10
13.3048
 20
2.33808
 30
0.000000
  70
    32
  0
VERTEX
  8
FORM
  5
970
 10
13.3058
 20
2.33950
 30
0.000000
  70
    32
  0
VERTEX
  8
FORM
  5
971
 10
13.3067
 20
2.34098
 30
0.000000
  70
    32
  0
VERTEX
  8
FORM
  5
972
 10
13.3076
 20
2.34249
 30
0.000000
  70
    32
  0
VERTEX
  8
FORM
  5
973
 10
13.3085
 20
2.34404
 30
0.000000
  70
    32
  0
VERTEX
  8
FORM
  5
974
 10
13.3094
 20
2.34562
 30
0.000000
  70
    32
  0
VERTEX
  8
FORM
  5
975
 10
13.3103
 20
2.34724
 30
0.000000
  70
    32
  0
VERTEX
  8
FORM
  5
976
 10
13.3111
 20
2.34888
 30
0.000000
  70
    32
  0
VERTEX
  8
FORM
  5
977
 10
13.3119
 20
2.35055
 30
0.000000
  70
    32
  0
VERTEX
  8
FORM
  5
978
 10
13.3126
 20
2.35224
 30
0.000000
  70
    32
  0
VERTEX
  8
FORM
  5
979
 10
13.3134
 20
2.35394
 30
0.000000
  70
    32
  0
VERTEX
  8
FORM
  5
97A
 10
13.3141
 20
2.35565
 30
0.000000
  70
    32
  0
VERTEX
  8
FORM
  5
97B
 10
13.3147
 20
2.35737
 30
0.000000
  70
    32
  0
VERTEX
  8
FORM
  5
97C
 10
13.3153
 20
2.35909
 30
0.000000
  70
    32
  0
VERTEX
  8
FORM
  5
97D
 10
13.3159
 20
2.36081
 30
0.000000
  70
    32
  0
VERTEX
  8
FORM
  5
97E
 10
13.3164
 20
2.36252
 30
0.000000
  70
    32
  0
VERTEX
  8
FORM
  5
97F
 10
13.3169
 20
2.36423
 30
0.000000
  70
    32
  0
VERTEX
  8
FORM
  5
980
 10
13.3174
 20
2.36592
 30
0.000000
  70
    32
  0
VERTEX
  8
FORM
  5
981
 10
13.3178
 20
2.36759
 30
0.000000
  70
    32
  0
VERTEX
  8
FORM
  5
982
 10
13.3181
 20
2.36924
 30
0.000000
  70
    32
  0
VERTEX
  8
FORM
  5
983
 10
13.3184
 20
2.37087
 30
0.000000
  70
    32
  0
VERTEX
  8
FORM
  5
984
 10
13.3187
 20
2.37246
 30
0.000000
  70
    32
  0
VERTEX
  8
FORM
  5
985
 10
13.3189
 20
2.37402
 30
0.000000
  70
    32
  0
VERTEX
  8
FORM
  5
986
 10
13.3190
 20
2.37555
 30
0.000000
  70
    32
  0
VERTEX
  8
FORM
  5
987
 10
13.3191
 20
2.37703
 30
0.000000
  70
    32
  0
VERTEX
  8
FORM
  5
988
 10
13.3192
 20
2.37847
 30
0.000000
  70
    32
  0
VERTEX
  8
FORM
  5
989
 10
13.3192
 20
2.37986
 30
0.000000
  70
    32
  0
VERTEX
  8
FORM
  5
98A
 10
13.3192
 20
2.38119
 30
0.000000
  70
    32
  0
VERTEX
  8
FORM
  5
98B
 10
13.3191
 20
2.38248
 30
0.000000
  70
    32
  0
VERTEX
  8
FORM
  5
98C
 10
13.3189
 20
2.38370
 30
0.000000
  70
    32
  0
VERTEX
  8
FORM
  5
98D
 10
13.3187
 20
2.38487
 30
0.000000
  70
    32
  0
VERTEX
  8
FORM
  5
98E
 10
13.3185
 20
2.38597
 30
0.000000
  70
    32
  0
VERTEX
  8
FORM
  5
98F
 10
13.3182
 20
2.38700
 30
0.000000
  70
    32
  0
VERTEX
  8
FORM
  5
990
 10
13.3179
 20
2.38797
 30
0.000000
  70
    32
  0
VERTEX
  8
FORM
  5
991
 10
13.3175
 20
2.38887
 30
0.000000
  70
    32
  0
VERTEX
  8
FORM
  5
992
 10
13.3171
 20
2.38969
 30
0.000000
  70
    32
  0
VERTEX
  8
FORM
  5
993
 10
13.3166
 20
2.39043
 30
0.000000
  70
    32
  0
VERTEX
  8
FORM
  5
994
 10
13.3161
 20
2.39110
 30
0.000000
  70
    32
  0
VERTEX
  8
FORM
  5
995
 10
13.3155
 20
2.39170
 30
0.000000
  70
    32
  0
VERTEX
  8
FORM
  5
996
 10
13.3149
 20
2.39221
 30
0.000000
  70
    32
  0
VERTEX
  8
FORM
  5
997
 10
13.3143
 20
2.39264
 30
0.000000
  70
    32
  0
VERTEX
  8
FORM
  5
998
 10
13.3136
 20
2.39298
 30
0.000000
  70
    32
  0
SEQEND
  8
FORM
  5
999
  0
ARC
  5
7FD
  8
FORM
 62
     7
 10
13.34744577181497
 20
2.2673859045416691
 30
0.0
 40
0.1689007929904549
 50
85.485448269952457
 51
155.5006785655419
  0
TEXT
  5
7FE
  8
FORM
 62
     7
 10
12.75316302876921
 20
1.384152449853342
 30
0.0
 40
0.0661677054431832
  1
R2-D2 BUILDERS CLUB
  0
ARC
  5
7FF
  8
FORM
 10
0.63400900480422
 20
0.6340090048041951
 30
0.0
 40
0.1181566168628271
 50
180.0
 51
270.0
  0
ARC
  5
800
  8
FORM
 10
0.63400900480422
 20
0.6340090048041951
 30
0.0
 40
0.2363132337256541
 50
180.0
 51
270.0
  0
ARC
  5
801
  8
FORM
 10
0.63400900480422
 20
0.6340090048041951
 30
0.0
 40
0.2658523879413609
 50
180.0
 51
270.0
  0
ARC
  5
802
  8
FORM
 10
0.63400900480422
 20
0.6340090048041951
 30
0.0
 40
0.3840090048041879
 50
180.0
 51
270.0
  0
ARC
  5
803
  8
FORM
 10
0.63400900480422
 20
9.6159909951958085
 30
0.0
 40
0.3840090048041879
 50
90.0
 51
180.0
  0
ARC
  5
804
  8
FORM
 10
0.63400900480422
 20
9.6159909951958085
 30
0.0
 40
0.2658523879413609
 50
90.0
 51
180.0
  0
ARC
  5
805
  8
FORM
 10
0.63400900480422
 20
9.6159909951958085
 30
0.0
 40
0.2363132337256541
 50
90.0
 51
180.0
  0
ARC
  5
806
  8
FORM
 10
0.63400900480422
 20
9.6159909951958085
 30
0.0
 40
0.1181566168628271
 50
90.0
 51
180.0
  0
ARC
  5
807
  8
FORM
 10
16.365990995195801
 20
9.6159909951958085
 30
0.0
 40
0.2363132337256541
 50
0.0
 51
90.0
  0
ARC
  5
808
  8
FORM
 10
16.365990995195801
 20
9.6159909951958085
 30
0.0
 40
0.2658523879413609
 50
0.0
 51
90.0
  0
ARC
  5
809
  8
FORM
 10
16.365990995195801
 20
9.6159909951958085
 30
0.0
 40
0.3840090048041879
 50
0.0
 51
90.0
  0
ARC
  5
80A
  8
FORM
 10
16.365990995195801
 20
9.6159909951958085
 30
0.0
 40
0.1181566168628271
 50
0.0
 51
90.0
  0
ARC
  5
80B
  8
FORM
 10
16.365990995195801
 20
0.6340090048041951
 30
0.0
 40
0.3840090048041879
 50
270.0
 51
0.0
  0
ARC
  5
80C
  8
FORM
 10
16.365990995195801
 20
0.6340090048041951
 30
0.0
 40
0.2658523879413609
 50
270.0
 51
0.0
  0
ARC
  5
80D
  8
FORM
 10
16.365990995195801
 20
0.6340090048041951
 30
0.0
 40
0.2363132337256541
 50
270.0
 51
0.0
  0
ARC
  5
80E
  8
FORM
 10
16.365990995195801
 20
0.6340090048041951
 30
0.0
 40
0.1181566168628271
 50
270.0
 51
0.0
  0
LINE
  5
80F
  8
FORM
 10
16.365990995195801
 20
0.3976957710785456
 30
0.0
 11
0.63400900480422
 21
0.397695771078542
 31
0.0
  0
LINE
  5
810
  8
FORM
 10
16.365990995195801
 20
0.3681566168628407
 30
0.0
 11
0.63400900480422
 21
0.3681566168628336
 31
0.0
  0
LINE
  5
811
  8
FORM
 10
16.365990995195801
 20
0.2500000000000071
 30
0.0
 11
0.63400900480422
 21
0.25
 31
0.0
  0
LINE
  5
812
  8
FORM
 10
16.602304228921469
 20
0.6340090048041951
 30
0.0
 11
16.602304228921469
 21
9.6159909951958085
 31
0.0
  0
LINE
  5
813
  8
FORM
 10
16.631843383137159
 20
0.6340090048041951
 30
0.0
 11
16.631843383137159
 21
9.6159909951958085
 31
0.0
  0
LINE
  5
814
  8
FORM
 10
16.75
 20
0.6340090048041951
 30
0.0
 11
16.75
 21
9.6159909951958085
 31
0.0
  0
LINE
  5
815
  8
FORM
 10
16.365990995195801
 20
9.8523042289214651
 30
0.0
 11
0.63400900480422
 21
9.8523042289214651
 31
0.0
  0
LINE
  5
816
  8
FORM
 10
16.365990995195801
 20
9.8818433831371681
 30
0.0
 11
0.63400900480422
 21
9.8818433831371681
 31
0.0
  0
LINE
  5
817
  8
FORM
 10
16.365990995195801
 20
10.0
 30
0.0
 11
0.63400900480422
 21
10.0
 31
0.0
  0
LINE
  5
818
  8
FORM
 10
0.3976957710785598
 20
0.6340090048041951
 30
0.0
 11
0.3976957710785598
 21
9.6159909951958085
 31
0.0
  0
LINE
  5
819
  8
FORM
 10
0.3681566168628549
 20
0.6340090048041951
 30
0.0
 11
0.3681566168628549
 21
9.6159909951958085
 31
0.0
  0
LINE
  5
81A
  8
FORM
 10
0.25
 20
0.6340090048041951
 30
0.0
 11
0.250000000000032
 21
9.6159909951958085
 31
0.0
  0
LINE
  5
81B
  8
FORM
  6
CONTINUOUS
 10
12.874006586966649
 20
0.6340090048041951
 30
0.0
 11
16.19312047993693
 21
0.6340090048041951
 31
0.0
  0
LINE
  5
81C
  8
FORM
  6
CONTINUOUS
 10
16.365990995195801
 20
2.4664364665482088
 30
0.0
 11
16.365990995195801
 21
0.8068795200630631
 31
0.0
  0
ARC
  5
81D
  8
FORM
  6
CONTINUOUS
 10
16.19312047993693
 20
0.8068795200630631
 30
0.0
 40
0.1728705152588689
 50
270.0
 51
0.0
  0
ARC
  5
81E
  8
FORM
  6
CONTINUOUS
 10
16.19312047993693
 20
2.4664364665482088
 30
0.0
 40
0.1728705152588689
 50
359.99999999999989
 51
90.0
  0
ARC
  5
81F
  8
FORM
  6
CONTINUOUS
 10
12.874006586966649
 20
0.8068795200630631
 30
0.0
 40
0.1728705152588689
 50
180.0
 51
270.0
  0
ARC
  5
820
  8
FORM
  6
CONTINUOUS
 10
12.874006586966649
 20
2.4664364665482088
 30
0.0
 40
0.1728705152588689
 50
90.0
 51
180.0
  0
LINE
  5
8BA
  8
0
 10
0.63400900480422
 20
0.6340090048041951
 30
0.0
 11
0.63400900480422
 21
1.6340090048041951
 31
0.0
  0
LINE
  5
8BB
  8
0
 10
0.63400900480422
 20
0.7590090048041951
 30
0.0
 11
0.75900900480422
 21
0.7590090048041951
 31
0.0
  0
LINE
  5
8BC
  8
0
 10
0.63400900480422
 20
0.884009004804195
 30
0.0
 11
0.8840090048042198
 21
0.884009004804195
 31
0.0
  0
LINE
  5
8BD
  8
0
 10
0.63400900480422
 20
1.0090090048041951
 30
0.0
 11
0.75900900480422
 21
1.0090090048041951
 31
0.0
  0
LINE
  5
8BE
  8
0
 10
0.63400900480422
 20
1.1340090048041951
 30
0.0
 11
1.0090090048042191
 21
1.1340090048041951
 31
0.0
  0
LINE
  5
8BF
  8
0
 10
0.63400900480422
 20
1.2590090048041951
 30
0.0
 11
0.75900900480422
 21
1.2590090048041951
 31
0.0
  0
LINE
  5
8C0
  8
0
 10
0.63400900480422
 20
1.3840090048041951
 30
0.0
 11
0.8840090048042198
 21
1.3840090048041951
 31
0.0
  0
LINE
  5
8C1
  8
0
 10
0.63400900480422
 20
1.5090090048041951
 30
0.0
 11
0.75900900480422
 21
1.5090090048041951
 31
0.0
  0
LINE
  5
8C2
  8
0
 10
0.63400900480422
 20
1.6340090048041951
 30
0.0
 11
1.0090090048042191
 21
1.6340090048041951
 31
0.0
  0
LINE
  5
8C3
  8
0
 10
0.63400900480422
 20
0.6340090048041951
 30
0.0
 11
1.0090090048042191
 21
0.6340090048041951
 31
0.0
  0
TEXT
  5
8C4
  8
0
 10
1.058277778430657
 20
1.1009684438037111
 30
0.0
 40
0.0625
  1
1/2"
  0
TEXT
  5
8C5
  8
0
 10
0.8082777784306571
 20
0.975968443803712
 30
0.0
 40
0.0625
  1
3/8"
  0
TEXT
  5
8C6
  8
0
 10
0.9332777784306571
 20
0.850968443803712
 30
0.0
 40
0.0625
  1
1/4"
  0
TEXT
  5
8C7
  8
0
 10
0.8082777784306571
 20
0.725968443803712
 30
0.0
 40
0.0625
  1
1/8"
  0
TEXT
  5
8C8
  8
0
 10
0.8082777784306571
 20
1.2259684438037111
 30
0.0
 40
0.0625
  1
5/8"
  0
TEXT
  5
8C9
  8
0
 10
0.9332777784306571
 20
1.3509684438037111
 30
0.0
 40
0.0625
  1
3/4"
  0
TEXT
  5
8CA
  8
0
 10
0.8082777784306571
 20
1.4759684438037111
 30
0.0
 40
0.0625
  1
7/8"
  0
TEXT
  5
8CB
  8
0
 10
1.058277778430657
 20
1.6009684438037111
 30
0.0
 40
0.0625
  1
1"
  0
ENDSEC
  0
EOF
