  0
SECTION
  2
HEADER
  9
$ACADVER
  1
AC1009
  9
$INSBASE
 10
0.0
 20
0.0
 30
0.0
  9
$EXTMIN
 10
0.0
 20
0.0
 30
0.0
  9
$EXTMAX
 10
22.0
 20
17.0
 30
0.0
  9
$LIMMIN
 10
0.0
 20
0.0
  9
$LIMMAX
 10
12.0
 20
9.0
  9
$ORTHOMODE
 70
     0
  9
$REGENMODE
 70
     1
  9
$FILLMODE
 70
     1
  9
$QTEXTMODE
 70
     0
  9
$MIRRTEXT
 70
     1
  9
$DRAGMODE
 70
     2
  9
$LTSCALE
 40
1.0
  9
$OSMODE
 70
    39
  9
$ATTMODE
 70
     1
  9
$TEXTSIZE
 40
0.1875
  9
$TRACEWID
 40
0.05
  9
$TEXTSTYLE
  7
STANDARD
  9
$CLAYER
  8
DIMENSIONS
  9
$CELTYPE
  6
BYLAYER
  9
$CECOLOR
 62
   256
  9
$DIMSCALE
 40
1.0
  9
$DIMASZ
 40
0.25
  9
$DIMEXO
 40
0.0625
  9
$DIMDLI
 40
0.38
  9
$DIMRND
 40
0.0
  9
$DIMDLE
 40
0.0
  9
$DIMEXE
 40
0.0625
  9
$DIMTP
 40
0.0
  9
$DIMTM
 40
0.0
  9
$DIMTXT
 40
0.25
  9
$DIMCEN
 40
0.0
  9
$DIMTSZ
 40
0.0
  9
$DIMTOL
 70
     0
  9
$DIMLIM
 70
     0
  9
$DIMTIH
 70
     1
  9
$DIMTOH
 70
     1
  9
$DIMSE1
 70
     0
  9
$DIMSE2
 70
     0
  9
$DIMTAD
 70
     0
  9
$DIMZIN
 70
     0
  9
$DIMBLK
  1

  9
$DIMASO
 70
     1
  9
$DIMSHO
 70
     1
  9
$DIMPOST
  1

  9
$DIMAPOST
  1

  9
$DIMALT
 70
     0
  9
$DIMALTD
 70
     2
  9
$DIMALTF
 40
25.399999999999999
  9
$DIMLFAC
 40
1.0
  9
$DIMTOFL
 70
     0
  9
$DIMTVP
 40
0.0
  9
$DIMTIX
 70
     0
  9
$DIMSOXD
 70
     0
  9
$DIMSAH
 70
     0
  9
$DIMBLK1
  1

  9
$DIMBLK2
  1

  9
$DIMSTYLE
  2
STANDARD
  9
$DIMCLRD
 70
     0
  9
$DIMCLRE
 70
     0
  9
$DIMCLRT
 70
     0
  9
$DIMTFAC
 40
1.0
  9
$DIMGAP
 40
0.09
  9
$LUNITS
 70
     2
  9
$LUPREC
 70
     7
  9
$SKETCHINC
 40
0.1
  9
$FILLETRAD
 40
0.182882812499999
  9
$AUNITS
 70
     0
  9
$AUPREC
 70
     8
  9
$MENU
  1
.
  9
$ELEVATION
 40
0.0
  9
$PELEVATION
 40
0.0
  9
$THICKNESS
 40
0.0
  9
$LIMCHECK
 70
     0
  9
$BLIPMODE
 70
     0
  9
$CHAMFERA
 40
0.0
  9
$CHAMFERB
 40
0.0
  9
$SKPOLY
 70
     0
  9
$TDCREATE
 40
2453087.4292295142
  9
$TDUPDATE
 40
2453469.6398148839
  9
$TDINDWG
 40
0.0475567824
  9
$TDUSRTIMER
 40
0.0475567824
  9
$USRTIMER
 70
     1
  9
$ANGBASE
 50
0.0
  9
$ANGDIR
 70
     0
  9
$PDMODE
 70
     0
  9
$PDSIZE
 40
0.0
  9
$PLINEWID
 40
0.0
  9
$COORDS
 70
     0
  9
$SPLFRAME
 70
     0
  9
$SPLINETYPE
 70
     6
  9
$SPLINESEGS
 70
     8
  9
$ATTDIA
 70
     0
  9
$ATTREQ
 70
     1
  9
$HANDLING
 70
     1
  9
$HANDSEED
  5
C18
  9
$SURFTAB1
 70
     6
  9
$SURFTAB2
 70
     6
  9
$SURFTYPE
 70
     6
  9
$SURFU
 70
     6
  9
$SURFV
 70
     6
  9
$UCSNAME
  2

  9
$UCSORG
 10
0.0
 20
0.0
 30
0.0
  9
$UCSXDIR
 10
1.0
 20
0.0
 30
0.0
  9
$UCSYDIR
 10
0.0
 20
1.0
 30
0.0
  9
$PUCSNAME
  2

  9
$PUCSORG
 10
0.0
 20
0.0
 30
0.0
  9
$PUCSXDIR
 10
1.0
 20
0.0
 30
0.0
  9
$PUCSYDIR
 10
0.0
 20
1.0
 30
0.0
  9
$USERI1
 70
     0
  9
$USERI2
 70
     0
  9
$USERI3
 70
     0
  9
$USERI4
 70
     0
  9
$USERI5
 70
     0
  9
$USERR1
 40
0.0
  9
$USERR2
 40
0.0
  9
$USERR3
 40
0.0
  9
$USERR4
 40
0.0
  9
$USERR5
 40
0.0
  9
$WORLDVIEW
 70
     1
  9
$SHADEDGE
 70
     3
  9
$SHADEDIF
 70
    70
  9
$TILEMODE
 70
     1
  9
$MAXACTVP
 70
    64
  9
$PLIMCHECK
 70
     0
  9
$PEXTMIN
 10
1.0000000000000000E+020
 20
1.0000000000000000E+020
 30
1.0000000000000000E+020
  9
$PEXTMAX
 10
-1.0000000000000000E+020
 20
-1.0000000000000000E+020
 30
-1.0000000000000000E+020
  9
$PLIMMIN
 10
0.0
 20
0.0
  9
$PLIMMAX
 10
12.0
 20
9.0
  9
$UNITMODE
 70
     0
  9
$VISRETAIN
 70
     1
  9
$PLINEGEN
 70
     0
  9
$PSLTSCALE
 70
     1
  0
ENDSEC
  0
SECTION
  2
TABLES
  0
TABLE
  2
VPORT
 70
     2
  0
VPORT
  2
*ACTIVE
 70
     0
 10
0.0
 20
0.0
 11
1.0
 21
1.0
 12
11.00023718681649
 22
8.5005925338350128
 13
0.0
 23
0.0
 14
0.5
 24
0.5
 15
0.5
 25
0.5
 16
0.0
 26
0.0
 36
1.0
 17
0.0
 27
0.0
 37
0.0
 40
17.219787677199971
 41
2.1727078891257992
 42
50.0
 43
0.0
 44
0.0
 50
0.0
 51
0.0
 71
     0
 72
 20000
 73
     1
 74
     2
 75
     0
 76
     0
 77
     0
 78
     0
  0
ENDTAB
  0
TABLE
  2
LTYPE
 70
     2
  0
LTYPE
  2
CONTINUOUS
 70
     0
  3
Solid line
 72
    65
 73
     0
 40
0.0
  0
LTYPE
  2
HIDDEN2
 70
     0
  3
Hidden (.5x) _ _ _ _ _ _ _ _ _ _ _ _ _ _ _ _ _
 72
    65
 73
     2
 40
0.1875
 49
0.125
 49
-0.0625
  0
ENDTAB
  0
TABLE
  2
LAYER
 70
     5
  0
LAYER
  2
0
 70
     0
 62
     7
  6
CONTINUOUS
  0
LAYER
  2
FORM
 70
     0
 62
     5
  6
CONTINUOUS
  0
LAYER
  2
OUTER_FOOT_-_SIDE_DETAIL
 70
     0
 62
     7
  6
CONTINUOUS
  0
LAYER
  2
DIMENSIONS
 70
     0
 62
     1
  6
CONTINUOUS
  0
LAYER
  2
DEFPOINTS
 70
     0
 62
     7
  6
CONTINUOUS
  0
ENDTAB
  0
TABLE
  2
STYLE
 70
     1
  0
STYLE
  2
STANDARD
 70
     0
 40
0.0
 41
1.0
 50
0.0
 71
     0
 42
0.1875
  3
simplex.shx
  4

  0
ENDTAB
  0
TABLE
  2
VIEW
 70
     0
  0
ENDTAB
  0
TABLE
  2
UCS
 70
     0
  0
ENDTAB
  0
TABLE
  2
APPID
 70
     4
  0
APPID
  2
ACAD
 70
     0
  0
APPID
  2
DCO15
 70
     0
  0
APPID
  2
ACAECLAYERSTANDARD
 70
     0
  0
APPID
  2
ACAD_PSEXT
 70
     0
  0
ENDTAB
  0
TABLE
  2
DIMSTYLE
 70
     1
  0
DIMSTYLE
  2
STANDARD
 70
     0
  3

  4

  5

  6

  7

 40
1.0
 41
0.25
 42
0.0625
 43
0.38
 44
0.0625
 45
0.0
 46
0.0
 47
0.0
 48
0.0
140
0.25
141
0.0
142
0.0
143
25.399999999999999
144
1.0
145
0.0
146
1.0
147
0.09
 71
     0
 72
     0
 73
     1
 74
     1
 75
     0
 76
     0
 77
     0
 78
     0
170
     0
171
     2
172
     0
173
     0
174
     0
175
     0
176
     0
177
     0
178
     0
  0
ENDTAB
  0
ENDSEC
  0
SECTION
  2
BLOCKS
  0
BLOCK
  8
0
  2
$MODEL_SPACE
 70
     0
 10
0.0
 20
0.0
 30
0.0
  3
$MODEL_SPACE
  1

  0
ENDBLK
  5
21
  8
0
  0
BLOCK
 67
     1
  8
0
  2
$PAPER_SPACE
 70
     0
 10
0.0
 20
0.0
 30
0.0
  3
$PAPER_SPACE
  1

  0
ENDBLK
  5
1D
 67
     1
  8
0
  0
ENDSEC
  0
SECTION
  2
ENTITIES
  0
ARC
  5
2E2
  8
OUTER_FOOT_-_SIDE_DETAIL
 10
7.8818167707387374
 20
7.5591355838536698
 30
0.0
 40
3.125
 50
0.0
 51
180.0
  0
LINE
  5
2E3
  8
OUTER_FOOT_-_SIDE_DETAIL
 10
4.7568167707387436
 20
7.5591355838536698
 30
0.0
 11
11.006816770738739
 21
7.5591355838536698
 31
0.0
  0
LINE
  5
2E5
  8
OUTER_FOOT_-_SIDE_DETAIL
 10
8.8818167707387374
 20
10.07313558385367
 30
0.0
 11
8.8818167707387374
 21
10.19813558385367
 31
0.0
  0
LINE
  5
2E8
  8
OUTER_FOOT_-_SIDE_DETAIL
 10
6.8818167707387436
 20
10.07313558385367
 30
0.0
 11
6.8818167707387436
 21
10.19813558385367
 31
0.0
  0
LINE
  5
2E9
  8
OUTER_FOOT_-_SIDE_DETAIL
 10
9.1318167707387374
 20
7.5591355838536698
 30
0.0
 11
9.1318167707387374
 21
10.42324539320107
 31
0.0
  0
LINE
  5
2EA
  8
OUTER_FOOT_-_SIDE_DETAIL
 10
6.6318167707387436
 20
7.5591355838536698
 30
0.0
 11
6.6318167707387436
 21
10.42324539320107
 31
0.0
  0
LINE
  5
2EC
  8
OUTER_FOOT_-_SIDE_DETAIL
 10
15.254665661232959
 20
7.5591355838536698
 30
0.0
 11
15.254665661232959
 21
10.684135583853671
 31
0.0
  0
LINE
  5
2EF
  8
OUTER_FOOT_-_SIDE_DETAIL
 10
15.254665661232959
 20
7.5591355838536698
 30
0.0
 11
15.110665661232961
 21
7.69813558385367
 31
0.0
  0
LINE
  5
2F0
  8
OUTER_FOOT_-_SIDE_DETAIL
 10
15.254665661232959
 20
10.684135583853671
 30
0.0
 11
16.269665661232949
 21
10.684135583853671
 31
0.0
  0
LINE
  5
2F1
  8
OUTER_FOOT_-_SIDE_DETAIL
 10
15.110665661232961
 20
7.69813558385367
 30
0.0
 11
15.254665661232959
 21
10.684135583853671
 31
0.0
  0
LINE
  5
2F3
  8
OUTER_FOOT_-_SIDE_DETAIL
 10
15.254665661232959
 20
7.5591355838536698
 30
0.0
 11
16.269665661232949
 21
10.684135583853671
 31
0.0
  0
LINE
  5
2F4
  8
OUTER_FOOT_-_SIDE_DETAIL
 10
6.8818167707387436
 20
10.07313558385367
 30
0.0
 11
8.8818167707387374
 21
10.07313558385367
 31
0.0
  0
LINE
  5
2F5
  8
OUTER_FOOT_-_SIDE_DETAIL
 10
6.8818167707387436
 20
10.29813558385367
 30
0.0
 11
8.8818167707387374
 21
10.29813558385367
 31
0.0
  0
LINE
  5
2F6
  8
OUTER_FOOT_-_SIDE_DETAIL
 10
6.8818167707387436
 20
10.19813558385367
 30
0.0
 11
8.8818167707387374
 21
10.19813558385367
 31
0.0
  0
LINE
  5
2F7
  8
OUTER_FOOT_-_SIDE_DETAIL
 10
6.8818167707387436
 20
10.42313558385367
 30
0.0
 11
8.8818167707387374
 21
10.42313558385367
 31
0.0
  0
LINE
  5
2F8
  8
OUTER_FOOT_-_SIDE_DETAIL
  6
HIDDEN2
 10
15.236050791842469
 20
10.29813558385367
 30
0.0
 11
15.394665661232951
 21
10.29813558385367
 31
0.0
  0
LINE
  5
2F9
  8
OUTER_FOOT_-_SIDE_DETAIL
  6
HIDDEN2
 10
15.24207892312176
 20
10.42313558385367
 30
0.0
 11
15.394665661232951
 21
10.42313558385367
 31
0.0
  0
LINE
  5
2FA
  8
OUTER_FOOT_-_SIDE_DETAIL
  6
HIDDEN2
 10
15.225200155539721
 20
10.07313558385367
 30
0.0
 11
15.394665661232951
 21
10.07313558385367
 31
0.0
  0
LINE
  5
2FB
  8
OUTER_FOOT_-_SIDE_DETAIL
  6
HIDDEN2
 10
15.23122828681902
 20
10.19813558385367
 30
0.0
 11
15.39466566123296
 21
10.19813558385367
 31
0.0
  0
LINE
  5
2FD
  8
OUTER_FOOT_-_SIDE_DETAIL
  6
HIDDEN2
 10
15.394665661232951
 20
10.42313558385367
 30
0.0
 11
15.394665661232951
 21
10.29813558385367
 31
0.0
  0
LINE
  5
2FE
  8
OUTER_FOOT_-_SIDE_DETAIL
  6
HIDDEN2
 10
15.394665661232951
 20
10.19813558385367
 30
0.0
 11
15.394665661232951
 21
10.07313558385367
 31
0.0
  0
LINE
  5
2FF
  8
OUTER_FOOT_-_SIDE_DETAIL
 10
8.8818167707387374
 20
10.29813558385367
 30
0.0
 11
8.8818167707387374
 21
10.42313558385367
 31
0.0
  0
LINE
  5
300
  8
OUTER_FOOT_-_SIDE_DETAIL
 10
6.8818167707387436
 20
10.29813558385367
 30
0.0
 11
6.8818167707387436
 21
10.42313558385367
 31
0.0
  0
LINE
  5
384
  8
DIMENSIONS
 10
15.254665661232959
 20
10.746635583853671
 30
0.0
 11
15.254665661232959
 21
12.246635583853671
 31
0.0
  0
LINE
  5
385
  8
DIMENSIONS
 10
16.269665661232949
 20
10.746635583853671
 30
0.0
 11
16.269665661232949
 21
12.246635583853671
 31
0.0
  0
LINE
  5
386
  8
DIMENSIONS
 10
15.004665661232959
 20
12.184135583853671
 30
0.0
 11
14.754665661232959
 21
12.184135583853671
 31
0.0
  0
LINE
  5
387
  8
DIMENSIONS
 10
16.519665661232949
 20
12.184135583853671
 30
0.0
 11
16.769665661232949
 21
12.184135583853671
 31
0.0
  0
SOLID
  5
388
  8
DIMENSIONS
 10
15.004665661232959
 20
12.22580225052033
 30
0.0
 11
15.004665661232959
 21
12.142468917186999
 31
0.0
 12
15.254665661232959
 22
12.184135583853671
 32
0.0
 13
15.254665661232959
 23
12.184135583853671
 33
0.0
  0
SOLID
  5
389
  8
DIMENSIONS
 10
16.519665661232949
 20
12.22580225052033
 30
0.0
 11
16.519665661232949
 21
12.142468917186999
 31
0.0
 12
16.269665661232949
 22
12.184135583853671
 32
0.0
 13
16.269665661232949
 23
12.184135583853671
 33
0.0
  0
LINE
  5
38B
  8
DIMENSIONS
 10
15.394665661232951
 20
10.48563558385367
 30
0.0
 11
15.394665661232951
 21
11.496635583853671
 31
0.0
  0
LINE
  5
38C
  8
DIMENSIONS
 10
16.269665661232949
 20
10.746635583853671
 30
0.0
 11
16.269665661232949
 21
11.496635583853671
 31
0.0
  0
LINE
  5
38D
  8
DIMENSIONS
 10
15.144665661232951
 20
11.434135583853671
 30
0.0
 11
14.894665661232951
 21
11.434135583853671
 31
0.0
  0
LINE
  5
38E
  8
DIMENSIONS
 10
16.519665661232949
 20
11.434135583853671
 30
0.0
 11
16.769665661232949
 21
11.434135583853671
 31
0.0
  0
SOLID
  5
38F
  8
DIMENSIONS
 10
15.144665661232951
 20
11.47580225052033
 30
0.0
 11
15.144665661232951
 21
11.392468917186999
 31
0.0
 12
15.394665661232951
 22
11.434135583853671
 32
0.0
 13
15.394665661232951
 23
11.434135583853671
 33
0.0
  0
SOLID
  5
390
  8
DIMENSIONS
 10
16.519665661232949
 20
11.47580225052033
 30
0.0
 11
16.519665661232949
 21
11.392468917186999
 31
0.0
 12
16.269665661232949
 22
11.434135583853671
 32
0.0
 13
16.269665661232949
 23
11.434135583853671
 33
0.0
  0
LINE
  5
392
  8
DIMENSIONS
 10
15.254665661232959
 20
7.4966355838536698
 30
0.0
 11
15.254665661232959
 21
6.7466355838536698
 31
0.0
  0
LINE
  5
393
  8
DIMENSIONS
 10
15.110665661232961
 20
7.63563558385367
 30
0.0
 11
15.110665661232961
 21
6.7466355838536698
 31
0.0
  0
LINE
  5
394
  8
DIMENSIONS
 10
15.504665661232959
 20
6.8091355838536698
 30
0.0
 11
15.754665661232959
 21
6.8091355838536698
 31
0.0
  0
LINE
  5
395
  8
DIMENSIONS
 10
14.860665661232961
 20
6.8091355838536698
 30
0.0
 11
14.61066566123295
 21
6.8091355838536698
 31
0.0
  0
SOLID
  5
396
  8
DIMENSIONS
 10
15.504665661232959
 20
6.8508022505203376
 30
0.0
 11
15.504665661232959
 21
6.7674689171870037
 31
0.0
 12
15.254665661232959
 22
6.8091355838536698
 32
0.0
 13
15.254665661232959
 23
6.8091355838536698
 33
0.0
  0
SOLID
  5
397
  8
DIMENSIONS
 10
14.860665661232961
 20
6.8508022505203376
 30
0.0
 11
14.860665661232961
 21
6.7674689171870037
 31
0.0
 12
15.110665661232961
 22
6.8091355838536698
 32
0.0
 13
15.110665661232961
 23
6.8091355838536698
 33
0.0
  0
TEXT
  5
39A
  8
DIMENSIONS
 10
16.859665661232949
 20
12.059135583853671
 30
0.0
 40
0.25
  1
1.015
  0
TEXT
  5
39B
  8
DIMENSIONS
 10
16.859665661232949
 20
11.309135583853671
 30
0.0
 40
0.25
  1
0.875
  0
TEXT
  5
39C
  8
DIMENSIONS
 10
13.55637994694724
 20
6.6841355838536698
 30
0.0
 40
0.25
  1
0.144
  0
LINE
  5
3CB
  8
DIMENSIONS
 10
8.9443167707387374
 20
10.29813558385367
 30
0.0
 11
12.569316770738739
 21
10.29813558385367
 31
0.0
  0
LINE
  5
3CC
  8
DIMENSIONS
 10
8.9443167707387374
 20
10.42313558385367
 30
0.0
 11
12.569316770738739
 21
10.42313558385367
 31
0.0
  0
LINE
  5
3CD
  8
DIMENSIONS
 10
12.506816770738739
 20
10.04813558385367
 30
0.0
 11
12.506816770738739
 21
9.7981355838536661
 31
0.0
  0
LINE
  5
3CE
  8
DIMENSIONS
 10
12.506816770738739
 20
10.67313558385367
 30
0.0
 11
12.506816770738739
 21
10.92313558385367
 31
0.0
  0
LINE
  5
3CF
  8
DIMENSIONS
 10
12.506816770738739
 20
10.92313558385367
 30
0.0
 11
12.756816770738739
 21
10.92313558385367
 31
0.0
  0
SOLID
  5
3D0
  8
DIMENSIONS
 10
12.46515010407208
 20
10.04813558385367
 30
0.0
 11
12.548483437405411
 21
10.04813558385367
 31
0.0
 12
12.506816770738739
 22
10.29813558385367
 32
0.0
 13
12.506816770738739
 23
10.29813558385367
 33
0.0
  0
SOLID
  5
3D1
  8
DIMENSIONS
 10
12.46515010407208
 20
10.67313558385367
 30
0.0
 11
12.548483437405411
 21
10.67313558385367
 31
0.0
 12
12.506816770738739
 22
10.42313558385367
 32
0.0
 13
12.506816770738739
 23
10.42313558385367
 33
0.0
  0
LINE
  5
3D3
  8
DIMENSIONS
 10
11.06931677073873
 20
7.5591355838536698
 30
0.0
 11
12.569316770738739
 21
7.5591355838536698
 31
0.0
  0
LINE
  5
3D4
  8
DIMENSIONS
 10
8.9443167707387374
 20
10.29813558385367
 30
0.0
 11
12.569316770738739
 21
10.29813558385367
 31
0.0
  0
LINE
  5
3D5
  8
DIMENSIONS
 10
12.506816770738739
 20
7.8091355838536698
 30
0.0
 11
12.506816770738739
 21
8.9916463663224029
 31
0.0
  0
LINE
  5
3D6
  8
DIMENSIONS
 10
12.506816770738739
 20
10.04813558385367
 30
0.0
 11
12.506816770738739
 21
9.4216463663224026
 31
0.0
  0
SOLID
  5
3D7
  8
DIMENSIONS
 10
12.46515010407208
 20
7.8091355838536698
 30
0.0
 11
12.548483437405411
 21
7.8091355838536698
 31
0.0
 12
12.506816770738739
 22
7.5591355838536698
 32
0.0
 13
12.506816770738739
 23
7.5591355838536698
 33
0.0
  0
SOLID
  5
3D8
  8
DIMENSIONS
 10
12.46515010407208
 20
10.04813558385367
 30
0.0
 11
12.548483437405411
 21
10.04813558385367
 31
0.0
 12
12.506816770738739
 22
10.29813558385367
 32
0.0
 13
12.506816770738739
 23
10.29813558385367
 33
0.0
  0
LINE
  5
3DA
  8
DIMENSIONS
 10
11.06931677073873
 20
7.5591355838536698
 30
0.0
 11
11.81931677073873
 21
7.5591355838536698
 31
0.0
  0
LINE
  5
3DB
  8
DIMENSIONS
 10
8.9443167707387374
 20
10.07313558385367
 30
0.0
 11
11.81931677073873
 21
10.07313558385367
 31
0.0
  0
LINE
  5
3DC
  8
DIMENSIONS
 10
11.756816770738739
 20
7.8091355838536698
 30
0.0
 11
11.756816770738739
 21
8.5217039577285796
 31
0.0
  0
LINE
  5
3DD
  8
DIMENSIONS
 10
11.756816770738739
 20
9.8231355838536718
 30
0.0
 11
11.756816770738739
 21
8.9517039577285793
 31
0.0
  0
SOLID
  5
3DE
  8
DIMENSIONS
 10
11.71515010407208
 20
7.8091355838536698
 30
0.0
 11
11.798483437405411
 21
7.8091355838536698
 31
0.0
 12
11.756816770738739
 22
7.5591355838536698
 32
0.0
 13
11.756816770738739
 23
7.5591355838536698
 33
0.0
  0
SOLID
  5
3DF
  8
DIMENSIONS
 10
11.71515010407208
 20
9.8231355838536718
 30
0.0
 11
11.798483437405411
 21
9.8231355838536718
 31
0.0
 12
11.756816770738739
 22
10.07313558385367
 32
0.0
 13
11.756816770738739
 23
10.07313558385367
 33
0.0
  0
LINE
  5
3E1
  8
DIMENSIONS
 10
9.1318167707387374
 20
7.4966355838536698
 30
0.0
 11
9.1318167707387374
 21
5.9966355838536698
 31
0.0
  0
LINE
  5
3E2
  8
DIMENSIONS
 10
6.6318167707387436
 20
7.4966355838536698
 30
0.0
 11
6.6318167707387436
 21
5.9966355838536698
 31
0.0
  0
LINE
  5
3E3
  8
DIMENSIONS
 10
8.8818167707387374
 20
6.0591355838536698
 30
0.0
 11
8.4718167707387408
 21
6.0591355838536698
 31
0.0
  0
LINE
  5
3E4
  8
DIMENSIONS
 10
6.8818167707387436
 20
6.0591355838536698
 30
0.0
 11
7.2918167707387482
 21
6.0591355838536698
 31
0.0
  0
SOLID
  5
3E5
  8
DIMENSIONS
 10
8.8818167707387374
 20
6.1008022505203359
 30
0.0
 11
8.8818167707387374
 21
6.0174689171870037
 31
0.0
 12
9.1318167707387374
 22
6.0591355838536698
 32
0.0
 13
9.1318167707387374
 23
6.0591355838536698
 33
0.0
  0
SOLID
  5
3E6
  8
DIMENSIONS
 10
6.8818167707387436
 20
6.1008022505203359
 30
0.0
 11
6.8818167707387436
 21
6.0174689171870037
 31
0.0
 12
6.6318167707387436
 22
6.0591355838536698
 32
0.0
 13
6.6318167707387436
 23
6.0591355838536698
 33
0.0
  0
LINE
  5
3E8
  8
DIMENSIONS
 10
8.8818167707387374
 20
10.01063558385367
 30
0.0
 11
8.8818167707387374
 21
6.7466355838536698
 31
0.0
  0
LINE
  5
3E9
  8
DIMENSIONS
 10
6.8818167707387436
 20
10.01063558385367
 30
0.0
 11
6.8818167707387436
 21
6.7466355838536698
 31
0.0
  0
LINE
  5
3EA
  8
DIMENSIONS
 10
8.6318167707387374
 20
6.8091355838536698
 30
0.0
 11
8.4718167707387408
 21
6.8091355838536698
 31
0.0
  0
LINE
  5
3EB
  8
DIMENSIONS
 10
7.1318167707387436
 20
6.8091355838536698
 30
0.0
 11
7.2918167707387482
 21
6.8091355838536698
 31
0.0
  0
SOLID
  5
3EC
  8
DIMENSIONS
 10
8.6318167707387374
 20
6.8508022505203376
 30
0.0
 11
8.6318167707387374
 21
6.7674689171870037
 31
0.0
 12
8.8818167707387374
 22
6.8091355838536698
 32
0.0
 13
8.8818167707387374
 23
6.8091355838536698
 33
0.0
  0
SOLID
  5
3ED
  8
DIMENSIONS
 10
7.1318167707387436
 20
6.8508022505203376
 30
0.0
 11
7.1318167707387436
 21
6.7674689171870037
 31
0.0
 12
6.8818167707387436
 22
6.8091355838536698
 32
0.0
 13
6.8818167707387436
 23
6.8091355838536698
 33
0.0
  0
TEXT
  5
3EF
  8
DIMENSIONS
 10
12.846816770738741
 20
10.79813558385367
 30
0.0
 40
0.25
  1
0.125
  0
TEXT
  5
3F0
  8
DIMENSIONS
 10
12.012769151691121
 20
9.0816463663224045
 30
0.0
 40
0.25
  1
2.739
  0
TEXT
  5
3F1
  8
DIMENSIONS
 10
11.27467391359589
 20
8.6117039577285794
 30
0.0
 40
0.25
  1
2.514
  0
TEXT
  5
3F2
  8
DIMENSIONS
 10
7.3818167707387374
 20
5.9341355838536698
 30
0.0
 40
0.25
  1
2.500
  0
TEXT
  5
3F3
  8
DIMENSIONS
 10
7.3818167707387374
 20
6.6841355838536698
 30
0.0
 40
0.25
  1
2.000
  0
LINE
  5
3F4
  8
DIMENSIONS
 10
8.8818167707387374
 20
5.3091355838536698
 30
0.0
 11
8.4718167707387408
 21
5.3091355838536698
 31
0.0
  0
LINE
  5
403
  8
DIMENSIONS
 10
11.006816770738739
 20
7.4966355838536698
 30
0.0
 11
11.006816770738739
 21
5.2466355838536698
 31
0.0
  0
LINE
  5
404
  8
DIMENSIONS
 10
4.7568167707387436
 20
7.4966355838536698
 30
0.0
 11
4.7568167707387436
 21
5.2466355838536698
 31
0.0
  0
LINE
  5
405
  8
DIMENSIONS
 10
10.75681677073873
 20
5.3091355838536698
 30
0.0
 11
8.4718167707387408
 21
5.3091355838536698
 31
0.0
  0
LINE
  5
406
  8
DIMENSIONS
 10
5.0068167707387436
 20
5.3091355838536698
 30
0.0
 11
7.2918167707387482
 21
5.3091355838536698
 31
0.0
  0
SOLID
  5
407
  8
DIMENSIONS
 10
10.75681677073873
 20
5.3508022505203359
 30
0.0
 11
10.75681677073873
 21
5.2674689171870037
 31
0.0
 12
11.006816770738739
 22
5.3091355838536698
 32
0.0
 13
11.006816770738739
 23
5.3091355838536698
 33
0.0
  0
SOLID
  5
408
  8
DIMENSIONS
 10
5.0068167707387436
 20
5.3508022505203359
 30
0.0
 11
5.0068167707387436
 21
5.2674689171870037
 31
0.0
 12
4.7568167707387436
 22
5.3091355838536698
 32
0.0
 13
4.7568167707387436
 23
5.3091355838536698
 33
0.0
  0
TEXT
  5
40A
  8
DIMENSIONS
 10
7.3818167707387374
 20
5.1841355838536698
 30
0.0
 40
0.25
  1
6.250
  0
LINE
  5
419
  8
DIMENSIONS
 10
15.317165661232959
 20
7.5591355838536698
 30
0.0
 11
17.213732777198171
 21
7.5591355838536698
 31
0.0
  0
LINE
  5
41A
  8
DIMENSIONS
 10
16.332165661232949
 20
10.684135583853671
 30
0.0
 11
17.213732777198171
 21
10.684135583853671
 31
0.0
  0
LINE
  5
41B
  8
DIMENSIONS
 10
17.151232777198171
 20
7.8091355838536698
 30
0.0
 11
17.151232777198171
 21
8.9066355838536708
 31
0.0
  0
LINE
  5
41C
  8
DIMENSIONS
 10
17.151232777198171
 20
10.434135583853671
 30
0.0
 11
17.151232777198171
 21
9.3366355838536705
 31
0.0
  0
SOLID
  5
41D
  8
DIMENSIONS
 10
17.10956611053151
 20
7.8091355838536698
 30
0.0
 11
17.192899443864839
 21
7.8091355838536698
 31
0.0
 12
17.151232777198171
 22
7.5591355838536698
 32
0.0
 13
17.151232777198171
 23
7.5591355838536698
 33
0.0
  0
SOLID
  5
41E
  8
DIMENSIONS
 10
17.10956611053151
 20
10.434135583853671
 30
0.0
 11
17.192899443864839
 21
10.434135583853671
 31
0.0
 12
17.151232777198171
 22
10.684135583853671
 32
0.0
 13
17.151232777198171
 23
10.684135583853671
 33
0.0
  0
TEXT
  5
420
  8
DIMENSIONS
 10
16.6750423010077
 20
8.9966355838536725
 30
0.0
 40
0.25
  1
3.125
  0
LINE
  5
437
  8
DIMENSIONS
 10
16.269665661232949
 20
10.621635583853671
 30
0.0
 11
16.269665661232949
 21
5.9966355838536698
 31
0.0
  0
LINE
  5
438
  8
DIMENSIONS
 10
15.110665661232961
 20
7.63563558385367
 30
0.0
 11
15.110665661232961
 21
5.9966355838536698
 31
0.0
  0
LINE
  5
439
  8
DIMENSIONS
 10
16.519665661232949
 20
6.0591355838536698
 30
0.0
 11
16.769665661232949
 21
6.0591355838536698
 31
0.0
  0
LINE
  5
43A
  8
DIMENSIONS
 10
14.860665661232961
 20
6.0591355838536698
 30
0.0
 11
14.61066566123295
 21
6.0591355838536698
 31
0.0
  0
SOLID
  5
43B
  8
DIMENSIONS
 10
16.519665661232949
 20
6.1008022505203359
 30
0.0
 11
16.519665661232949
 21
6.0174689171870037
 31
0.0
 12
16.269665661232949
 22
6.0591355838536698
 32
0.0
 13
16.269665661232949
 23
6.0591355838536698
 33
0.0
  0
SOLID
  5
43C
  8
DIMENSIONS
 10
14.860665661232961
 20
6.1008022505203359
 30
0.0
 11
14.860665661232961
 21
6.0174689171870037
 31
0.0
 12
15.110665661232961
 22
6.0591355838536698
 32
0.0
 13
15.110665661232961
 23
6.0591355838536698
 33
0.0
  0
TEXT
  5
43E
  8
DIMENSIONS
 10
15.24373708980438
 20
5.9341355838536698
 30
0.0
 40
0.25
  1
1.159
  0
LINE
  5
445
  8
OUTER_FOOT_-_SIDE_DETAIL
 10
9.1318167707387374
 20
7.69813558385367
 30
0.0
 11
6.6318167707387436
 21
7.69813558385367
 31
0.0
  0
LINE
  5
467
  8
DIMENSIONS
 10
15.192165661232959
 20
7.5591355838536698
 30
0.0
 11
14.40711826490165
 21
7.5591355838536698
 31
0.0
  0
LINE
  5
468
  8
DIMENSIONS
 10
15.04816566123295
 20
7.69813558385367
 30
0.0
 11
14.40711826490165
 21
7.69813558385367
 31
0.0
  0
LINE
  5
469
  8
DIMENSIONS
 10
14.46961826490165
 20
7.3091355838536698
 30
0.0
 11
14.46961826490165
 21
7.0591355838536698
 31
0.0
  0
LINE
  5
46A
  8
DIMENSIONS
 10
14.46961826490165
 20
7.94813558385367
 30
0.0
 11
14.46961826490165
 21
8.19813558385367
 31
0.0
  0
LINE
  5
46B
  8
DIMENSIONS
 10
14.21961826490165
 20
8.19813558385367
 30
0.0
 11
14.46961826490165
 21
8.19813558385367
 31
0.0
  0
SOLID
  5
46C
  8
DIMENSIONS
 10
14.42795159823498
 20
7.3091355838536698
 30
0.0
 11
14.511284931568319
 21
7.3091355838536698
 31
0.0
 12
14.46961826490165
 22
7.5591355838536698
 32
0.0
 13
14.46961826490165
 23
7.5591355838536698
 33
0.0
  0
SOLID
  5
46D
  8
DIMENSIONS
 10
14.42795159823498
 20
7.94813558385367
 30
0.0
 11
14.511284931568319
 21
7.94813558385367
 31
0.0
 12
14.46961826490165
 22
7.69813558385367
 32
0.0
 13
14.46961826490165
 23
7.69813558385367
 33
0.0
  0
TEXT
  5
46F
  8
DIMENSIONS
 10
13.191225561985499
 20
8.0731355838536736
 30
0.0
 40
0.25
  1
0.139
  0
TEXT
  5
813
  8
0
  6
CONTINUOUS
 10
71.621444804331546
 20
16.326266872980518
 30
0.0
 40
0.12
  1
 
 51
7.0
  0
TEXT
  5
814
  8
0
  6
CONTINUOUS
 10
84.065541569811458
 20
23.389141302712179
 30
0.0
 40
0.24
  1
 
 51
7.0
  0
TEXT
  5
815
  8
0
  6
CONTINUOUS
 10
93.275306581724735
 20
23.069131316135099
 30
0.0
 40
0.24
  1
 
 51
7.0
  0
TEXT
  5
816
  8
0
  6
CONTINUOUS
 10
103.0792660661574
 20
6.2065505166077726
 30
0.0
 40
0.24
  1
 
 51
7.0
  0
LINE
  5
8CE
  8
0
 10
0.0
 20
0.0
 30
0.0
 11
0.0
 21
17.0
 31
0.0
  0
LINE
  5
8CF
  8
0
 10
22.0
 20
0.0
 30
0.0
 11
22.0
 21
17.0
 31
0.0
  0
LINE
  5
8D0
  8
0
 10
0.0
 20
0.0
 30
0.0
 11
22.0
 21
0.0
 31
0.0
  0
LINE
  5
8D1
  8
0
 10
0.0
 20
17.0
 30
0.0
 11
22.0
 21
17.0
 31
0.0
  0
LINE
  5
96F
  8
FORM
 10
21.403846140107252
 20
0.7499999996674092
 30
0.0
 11
21.403846140107252
 21
15.153846144098431
 31
0.0
  0
LINE
  5
970
  8
FORM
 10
21.249999986363441
 20
15.307692297842239
 30
0.0
 11
0.7499999996674376
 21
15.307692297842239
 31
0.0
  0
LINE
  5
971
  8
FORM
 10
21.249999986363441
 20
0.5961538459236025
 30
0.0
 11
0.7499999996674376
 21
0.5961538459235954
 31
0.0
  0
LINE
  5
972
  8
FORM
 10
0.5961538459236168
 20
0.7499999996674092
 30
0.0
 11
0.5961538459236168
 21
15.153846144098431
 31
0.0
  0
TEXT
  5
973
  8
FORM
 10
18.08319979428121
 20
2.6705065993040051
 30
0.0
 40
0.260516826749781
  1
SIDE DETAIL
 72
     1
 11
19.243119951476672
 21
2.6705065993040051
 31
0.0
  0
TEXT
  5
974
  8
FORM
 10
18.021171978388409
 20
2.1193155254872589
 30
0.0
 40
0.260516826749781
  1
OUTER FOOT
 72
     1
 11
19.243119951476672
 21
2.1193155254872589
 31
0.0
  0
TEXT
  5
975
  8
FORM
 10
16.770574233580561
 20
1.1177623757995749
 30
0.0
 40
0.260516826749781
  1
ASTROMECH DROID
  0
TEXT
  5
976
  8
FORM
 10
20.85720038004996
 20
1.1278903102633671
 30
0.0
 40
0.260516826749781
  1
A
  0
TEXT
  5
977
  8
FORM
 10
17.25446024791373
 20
0.813671414000872
 30
0.0
 40
0.1042067306999124
  1
FULL
  0
TEXT
  5
978
  8
FORM
 10
20.593280544426019
 20
0.8165882189588344
 30
0.0
 40
0.1042067306999124
  1
1   1
  0
TEXT
  5
979
  8
FORM
 10
18.867373488668239
 20
0.8246381046439915
 30
0.0
 40
0.1042067306999124
  1
APRIL 2005
 72
     2
 11
19.770498488067489
 21
0.8246381046439915
 31
0.0
  0
TEXT
  5
97A
  8
FORM
  6
CONTINUOUS
 10
18.118827913558601
 20
0.8235896747318066
 30
0.0
 40
0.0900346153247244
  1
DRAWN:
  0
TEXT
  5
97B
  8
FORM
  6
CONTINUOUS
 10
16.72518466957764
 20
0.8236741054737031
 30
0.0
 40
0.0900346153247244
  1
SCALE:
  0
TEXT
  5
97C
  8
FORM
  6
CONTINUOUS
 10
20.01795677316494
 20
0.8225458122742352
 30
0.0
 40
0.0900346153247244
  1
SHEET:   OF
  0
TEXT
  5
97D
  8
FORM
  6
CONTINUOUS
 10
16.560769897877751
 20
1.5378028837587541
 30
0.0
 40
0.0900346153247244
  1
DRAWING NO.
  0
TEXT
  5
97E
  8
FORM
  6
CONTINUOUS
 10
20.822311852397561
 20
1.537802883758743
 30
0.0
 40
0.0900346153247244
  1
REV.
 72
     1
 11
20.955220094067389
 21
1.537802883758743
 31
0.0
  0
LINE
  5
97F
  8
FORM
  6
CONTINUOUS
 10
16.703251912464879
 20
3.3610038440844141
 30
0.0
 11
21.02491344805162
 21
3.3610038440844141
 31
0.0
  0
LINE
  5
980
  8
FORM
  6
CONTINUOUS
 10
16.478165374153061
 20
0.9750865379792159
 30
0.0
 11
16.478165374153029
 21
3.1359173057725931
 31
0.0
  0
LINE
  5
981
  8
FORM
  6
CONTINUOUS
 10
16.478165374153061
 20
1.672854806745828
 30
0.0
 11
21.249999986363441
 21
1.672854806745828
 31
0.0
  0
LINE
  5
982
  8
FORM
  6
CONTINUOUS
 10
16.478165374153061
 20
0.9750865379792159
 30
0.0
 11
21.249999986363441
 21
0.9750865379792159
 31
0.0
  0
LINE
  5
983
  8
FORM
  6
CONTINUOUS
 10
17.97804237543275
 20
0.9750865379792159
 30
0.0
 11
17.97804237543275
 21
0.7499999996674092
 31
0.0
  0
LINE
  5
984
  8
FORM
  6
CONTINUOUS
 10
19.950430811671389
 20
0.9723156702741989
 30
0.0
 11
19.950430811671389
 21
0.7472291319623921
 31
0.0
  0
LINE
  5
985
  8
FORM
  6
CONTINUOUS
 10
20.65524763562988
 20
1.672854806745828
 30
0.0
 11
20.65524763562988
 21
0.9750865379792159
 31
0.0
  0
ARC
  5
986
  8
FORM
 62
     5
 10
16.925603837263051
 20
2.683123263179624
 30
0.0
 40
0.0245481788339413
 50
152.18113099770551
 51
330.99098814993278
  0
ARC
  5
987
  8
FORM
 62
     5
 10
17.03186349061718
 20
2.8877559907035391
 30
0.0
 40
0.0215248522646385
 50
335.32315363464198
 51
152.6722492633036
  0
ARC
  5
988
  8
FORM
 62
     5
 10
18.67139281679863
 20
1.8778243841790809
 30
0.0
 40
1.9470863223045181
 50
148.41494327216151
 51
155.19852313243231
  0
ARC
  5
989
  8
FORM
 62
     5
 10
19.04826621925363
 20
1.7448079813832851
 30
0.0
 40
2.2963564077758769
 50
150.40875710206339
 51
156.20744757951141
  0
ARC
  5
98A
  8
FORM
 62
     7
 10
16.856187689619201
 20
2.476891943456518
 30
0.0
 40
0.0328016362752216
 50
161.128725237971
 51
346.89295927401372
  0
ARC
  5
98B
  8
FORM
 62
     7
 10
26.446981545233939
 20
-1.665659984064163
 30
0.0
 40
10.414927500982669
 50
153.58307292081309
 51
156.60691138966209
  0
ARC
  5
98C
  8
FORM
 62
     7
 10
24.942765772362829
 20
-1.1245203992272681
 30
0.0
 40
8.873647082696257
 50
152.3409599977594
 51
152.9694116127464
  0
ARC
  5
98D
  8
FORM
 62
     7
 10
25.042235970541071
 20
-1.413551413076795
 30
0.0
 40
9.0960831006715779
 50
153.3711283527573
 51
154.60402195655351
  0
ARC
  5
98E
  8
FORM
 62
     7
 10
17.329398129118289
 20
2.8602652973761158
 30
0.0
 40
0.2358358050601862
 50
23.468725928191049
 51
88.151617587883351
  0
ARC
  5
98F
  8
FORM
 62
     7
 10
17.33466889121355
 20
2.8754695652234821
 30
0.0
 40
0.2783521476800796
 50
18.232625295665532
 51
154.63608874642679
  0
ARC
  5
990
  8
FORM
 62
     7
 10
17.41806628342874
 20
2.9044827195306051
 30
0.0
 40
0.1900699214402894
 50
336.99722732837893
 51
341.11190659806488
  0
ARC
  5
991
  8
FORM
 62
     7
 10
17.429371041778779
 20
2.912888609699027
 30
0.0
 40
0.1244898949022119
 50
333.24704424527522
 51
339.12675173356178
  0
ARC
  5
992
  8
FORM
 62
     7
 10
17.547120806258562
 20
2.8541053585607901
 30
0.0
 40
0.007134896083525
 50
157.3747590211585
 51
243.18317341424029
  0
ARC
  5
993
  8
FORM
 62
     7
 10
17.589262332130431
 20
2.8313183495512071
 30
0.0
 40
0.0039211308505914
 50
246.74236679857631
 51
343.55073793579641
  0
ARC
  5
994
  8
FORM
 62
     7
 10
17.71265002297525
 20
3.1590467530149189
 30
0.0
 40
0.3541033340658146
 50
241.5396617947477
 51
249.33988332022491
  0
ARC
  5
995
  8
FORM
 62
     7
 10
17.465116861604141
 20
2.7835275642507962
 30
0.0
 40
0.0699031230302257
 50
210.28645373052609
 51
287.25915125833183
  0
ARC
  5
996
  8
FORM
 62
     7
 10
17.471123101482839
 20
2.7532989527990699
 30
0.0
 40
0.0393865134548433
 50
291.96730232828992
 51
10.20108836223371
  0
ARC
  5
997
  8
FORM
 62
     7
 10
17.159843992632862
 20
2.6859329108208518
 30
0.0
 40
0.2527202610277017
 50
14.28109924276106
 51
24.94726153987823
  0
ARC
  5
998
  8
FORM
 62
     7
 10
17.30724545805592
 20
2.7624795397720869
 30
0.0
 40
0.0870866377029319
 50
20.183063788867621
 51
47.833846572520187
  0
ARC
  5
999
  8
FORM
 62
     7
 10
17.323525970686489
 20
2.7183682645997709
 30
0.0
 40
0.1165593648186974
 50
68.784960310907422
 51
94.742087985452599
  0
ARC
  5
99A
  8
FORM
 62
     7
 10
17.32225776675568
 20
2.7872533208520021
 30
0.0
 40
0.0480101674679103
 50
100.0375073429591
 51
170.98475346238999
  0
ARC
  5
99B
  8
FORM
 62
     7
 10
17.548079884465121
 20
2.754066770453373
 30
0.0
 40
0.2762551956077745
 50
171.52589863719891
 51
197.494741096675
  0
ARC
  5
99C
  8
FORM
 62
     7
 10
17.361988404409459
 20
2.757975203687443
 30
0.0
 40
0.1479164690482495
 50
0.8906501289532242
 51
49.113860192417171
  0
ARC
  5
99D
  8
FORM
 62
     7
 10
17.330827327390121
 20
2.7851061194825268
 30
0.0
 40
0.1164203647136616
 50
99.869748807366761
 51
175.59516845025641
  0
ARC
  5
99E
  8
FORM
 62
     7
 10
17.35181928853353
 20
2.721979015220195
 30
0.0
 40
0.1824780170187834
 50
54.104282451028169
 51
102.9674010870567
  0
ARC
  5
99F
  8
FORM
 62
     7
 10
17.866825478371819
 20
2.8305495615738461
 30
0.0
 40
0.603682768180479
 50
195.32307896217739
 51
209.290843156958
  0
ARC
  5
9A0
  8
FORM
 62
     7
 10
17.676878331574731
 20
2.7315679572076941
 30
0.0
 40
0.4663319886455236
 50
172.3003020759547
 51
200.12627387409299
  0
ARC
  5
9A1
  8
FORM
 62
     7
 10
18.010296677355171
 20
2.8617220596188409
 30
0.0
 40
0.8242093741364085
 50
200.64629086238159
 51
210.0464960904439
  0
ARC
  5
9A2
  8
FORM
 62
     7
 10
16.87490984687733
 20
2.2228629736894798
 30
0.0
 40
0.5605059965149727
 50
28.431949107384298
 51
33.865461133002469
  0
ARC
  5
9A3
  8
FORM
 62
     7
 10
17.335282492148359
 20
2.4642291377128478
 30
0.0
 40
0.0413303405420145
 50
201.56446042640411
 51
38.094090168146302
  0
ARC
  5
9A4
  8
FORM
 62
     5
 10
17.698488306364109
 20
2.8075987703319072
 30
0.0
 40
0.0229902810191139
 50
227.6202696593605
 51
57.412112921204063
  0
ARC
  5
9A5
  8
FORM
 62
     5
 10
17.427351296879149
 20
2.453894972691713
 30
0.0
 40
0.4685807675213703
 50
52.766851639305898
 51
65.063571515457895
  0
ARC
  5
9A6
  8
FORM
 62
     5
 10
17.209234353189508
 20
2.115713416994772
 30
0.0
 40
0.8245845677332351
 50
54.932512589538803
 51
74.152868438598929
  0
ARC
  5
9A7
  8
FORM
 62
     5
 10
17.22112341118936
 20
1.8705744209651269
 30
0.0
 40
1.0600616451387339
 50
78.393012355262385
 51
89.647961077025343
  0
ARC
  5
9A8
  8
FORM
 62
     5
 10
17.225855158117209
 20
2.9613835761542329
 30
0.0
 40
0.0308190515998151
 50
183.9979944211656
 51
273.313807745882
  0
ARC
  5
9A9
  8
FORM
 62
     5
 10
17.329870384946641
 20
2.9695252211814269
 30
0.0
 40
0.135151603104915
 50
145.60859166919269
 51
184.36670732083471
  0
ARC
  5
9AA
  8
FORM
 62
     5
 10
17.246715832908791
 20
3.027923603152622
 30
0.0
 40
0.0335688941126511
 50
75.244714174009715
 51
147.6929850116162
  0
ARC
  5
9AB
  8
FORM
 62
     5
 10
16.846566400398309
 20
1.4922623483111219
 30
0.0
 40
1.6205076763160291
 50
61.637242241525243
 51
75.392005557716686
  0
ARC
  5
9AC
  8
FORM
 62
     5
 10
17.585771892302461
 20
2.8909845400545029
 30
0.0
 40
0.0409937741994102
 50
342.69825742684009
 51
41.67278378767756
  0
ARC
  5
9AD
  8
FORM
 62
     7
 10
17.41806628342874
 20
2.9044827195306051
 30
0.0
 40
0.1900699214402894
 50
5.6380312699922799
 51
17.791456368736839
  0
ARC
  5
9AE
  8
FORM
 62
     7
 10
17.5045622300951
 20
2.0088127942983891
 30
0.0
 40
0.0608207837544583
 50
88.432533024773406
 51
186.62631613112151
  0
ARC
  5
9AF
  8
FORM
 62
     7
 10
17.514107893903311
 20
2.0214944811508531
 30
0.0
 40
0.0726809031862866
 50
195.7266305128272
 51
285.3806868435185
  0
ARC
  5
9B0
  8
FORM
 62
     7
 10
17.428397303924321
 20
2.6646932328165849
 30
0.0
 40
0.7209618028535085
 50
278.37329371359471
 51
293.15208507016871
  0
ARC
  5
9B1
  8
FORM
 62
     7
 10
17.670280088548282
 20
2.2109164793858191
 30
0.0
 40
0.1486954171998164
 50
257.51805604168283
 51
277.23103351305667
  0
ARC
  5
9B2
  8
FORM
 62
     7
 10
17.67861701724112
 20
2.0887614153130118
 30
0.0
 40
0.0273997705390677
 50
292.26031345923337
 51
12.867379300523719
  0
ARC
  5
9B3
  8
FORM
 62
     7
 10
17.658243987918521
 20
2.0848332422543971
 30
0.0
 40
0.0481411784627428
 50
12.02537552739555
 51
52.143631645159317
  0
ARC
  5
9B4
  8
FORM
 62
     7
 10
18.68473167686761
 20
3.3322419147777782
 30
0.0
 40
1.5673362882102819
 50
219.60277928185971
 51
230.5002020408055
  0
ARC
  5
9B5
  8
FORM
 62
     7
 10
17.71719517775902
 20
2.5209914067630801
 30
0.0
 40
0.3048383262947374
 50
175.97523115435061
 51
218.04500009534141
  0
ARC
  5
9B6
  8
FORM
 62
     7
 10
17.587988709286751
 20
2.5516026198667592
 30
0.0
 40
0.1751226981011722
 50
149.96078860476399
 51
183.01641230856191
  0
ARC
  5
9B7
  8
FORM
 62
     7
 10
17.465652099646999
 20
2.6236413715572442
 30
0.0
 40
0.03317488584424
 50
69.764209445538683
 51
151.8988190455112
  0
ARC
  5
9B8
  8
FORM
 62
     7
 10
17.461738153470581
 20
2.621386420418637
 30
0.0
 40
0.0367584023789668
 50
357.6694469744499
 51
65.251102439515435
  0
ARC
  5
9B9
  8
FORM
 62
     7
 10
17.375127171955
 20
2.6142785816255478
 30
0.0
 40
0.1234666367742727
 50
345.36193237678458
 51
2.6056939300727819
  0
ARC
  5
9BA
  8
FORM
 62
     7
 10
17.770788346688299
 20
2.4976765653254129
 30
0.0
 40
0.289103498612585
 50
162.81861830880709
 51
185.35496664157321
  0
ARC
  5
9BB
  8
FORM
 62
     7
 10
17.738557938675601
 20
2.526678108373186
 30
0.0
 40
0.261669979998945
 50
192.3534994193023
 51
222.3020476696033
  0
ARC
  5
9BC
  8
FORM
 62
     7
 10
18.640000382871079
 20
3.2533952889623161
 30
0.0
 40
1.419181254971364
 50
219.50633019139829
 51
228.42762303996261
  0
ARC
  5
9BD
  8
FORM
 62
     7
 10
17.545150090279261
 20
1.9830014576086259
 30
0.0
 40
0.2588352891177654
 50
32.971129457978869
 51
53.728419363024337
  0
ARC
  5
9BE
  8
FORM
 62
     7
 10
17.685505274612321
 20
2.0841393566689059
 30
0.0
 40
0.0864595649942742
 50
287.74749415951351
 51
27.35211189662947
  0
ARC
  5
9BF
  8
FORM
 62
     7
 10
17.556150910590731
 20
1.521887384058928
 30
0.0
 40
0.5499940598264056
 50
81.426570944510203
 51
95.208118001959775
  0
ARC
  5
9C0
  8
FORM
 62
     7
 10
17.31874226594763
 20
2.379232385518228
 30
0.0
 40
0.0244848954091209
 50
325.52447187114308
 51
75.340502228459783
  0
ARC
  5
9C1
  8
FORM
 62
     7
 10
17.28857503182331
 20
2.4013816515593862
 30
0.0
 40
0.0619027859518531
 50
277.78730616127859
 51
324.42957968808531
  0
ARC
  5
9C2
  8
FORM
 62
     7
 10
17.277627430402191
 20
2.4116764447725738
 30
0.0
 40
0.0741905263351136
 50
243.48581874200181
 51
285.1065744639306
  0
ARC
  5
9C3
  8
FORM
 62
     7
 10
13.99616984532571
 20
-5.9734717723731041
 30
0.0
 40
9.0135811594364625
 50
68.327181839257534
 51
70.606105230637283
  0
ARC
  5
9C4
  8
FORM
 62
     7
 10
16.982860283602829
 20
2.502260489661857
 30
0.0
 40
0.0271571196358057
 50
76.445232091872299
 51
134.36352227876461
  0
ARC
  5
9C5
  8
FORM
 62
     7
 10
17.103601465049451
 20
2.316491870596419
 30
0.0
 40
0.2482433149023289
 50
124.2547762008316
 51
135.012931962436
  0
ARC
  5
9C6
  8
FORM
 62
     7
 10
16.932687772438332
 20
2.4840903864877362
 30
0.0
 40
0.0091691237651447
 50
120.5491196217084
 51
251.48388650457539
  0
ARC
  5
9C7
  8
FORM
 62
     7
 10
15.698852283122079
 20
-0.947959245240991
 30
0.0
 40
3.6379298384249581
 50
64.85742894317822
 51
67.515132469299331
  0
ARC
  5
9C8
  8
FORM
 62
     7
 10
17.23599357112948
 20
2.291795105104121
 30
0.0
 40
0.0343472402230129
 50
329.18566117941782
 51
69.527151249863806
  0
ARC
  5
9C9
  8
FORM
 62
     7
 10
17.145886072427881
 20
2.1556962750494151
 30
0.0
 40
0.1968392862921899
 50
58.747973844557571
 51
81.106226592028065
  0
ARC
  5
9CA
  8
FORM
 62
     7
 10
17.124947044127829
 20
2.0252080021495891
 30
0.0
 40
0.3289962935825703
 50
81.016817915507374
 51
97.679603827268224
  0
ARC
  5
9CB
  8
FORM
 62
     7
 10
17.159573600239298
 20
2.1240726877937131
 30
0.0
 40
0.2440398498458748
 50
121.5050128230593
 51
139.0957881060705
  0
ARC
  5
9CC
  8
FORM
 62
     7
 10
17.225825242067831
 20
2.2865562155100809
 30
0.0
 40
0.0415466234232141
 50
277.70569210516868
 51
342.69880024124109
  0
ARC
  5
9CD
  8
FORM
 62
     7
 10
17.213074197788071
 20
2.3334352792513711
 30
0.0
 40
0.0899365447321688
 50
250.08394506358289
 51
281.75453717228322
  0
ARC
  5
9CE
  8
FORM
 62
     7
 10
17.2424582627973
 20
2.3437609022874879
 30
0.0
 40
0.1122732419236369
 50
221.18187885427241
 51
237.68378775985289
  0
ARC
  5
9CF
  8
FORM
 62
     7
 10
17.11078230927049
 20
2.213603979985677
 30
0.0
 40
0.0733994924367979
 50
50.003848755011681
 51
75.5416830098399
  0
ARC
  5
9D0
  8
FORM
 62
     7
 10
17.10690002874345
 20
2.2402084319691471
 30
0.0
 40
0.0497074536252231
 50
63.4626603498468
 51
100.74200229027051
  0
ARC
  5
9D1
  8
FORM
 62
     7
 10
17.09763521067913
 20
2.2049366923578511
 30
0.0
 40
0.0841081409133923
 50
89.999999999999588
 51
125.5974615489027
  0
ARC
  5
9D2
  8
FORM
 62
     7
 10
18.09535908495533
 20
2.805145934228654
 30
0.0
 40
1.1637748462988311
 50
197.51922498184919
 51
203.981481444731
  0
ARC
  5
9D3
  8
FORM
 62
     7
 10
16.736982371619181
 20
2.433687501517297
 30
0.0
 40
0.3537389089231183
 50
346.52409876011302
 51
356.71498770316703
  0
ARC
  5
9D4
  8
FORM
 62
     7
 10
15.698852283122079
 20
-0.947959245240991
 30
0.0
 40
3.6379298384249581
 50
69.286600818944052
 51
70.22311760076802
  0
ARC
  5
9D5
  8
FORM
 62
     7
 10
16.92789692922846
 20
2.1257895907104252
 30
0.0
 40
0.1066736432871782
 50
245.40259669902051
 51
275.40975098180542
  0
ARC
  5
9D6
  8
FORM
 62
     7
 10
17.301941284744
 20
1.9333049606058379
 30
0.0
 40
0.4239787481416163
 50
126.68044463040199
 51
139.78708822539889
  0
ARC
  5
9D7
  8
FORM
 62
     7
 10
16.925901396850119
 20
2.42585100124619
 30
0.0
 40
0.4064386631288638
 50
271.69929119420118
 51
283.39540842056908
  0
ARC
  5
9D8
  8
FORM
 62
     7
 10
17.685900196427319
 20
1.487877603185271
 30
0.0
 40
1.0089968057446299
 50
134.5410403491789
 51
138.91474429089899
  0
ARC
  5
9D9
  8
FORM
 62
     7
 10
16.942625607711989
 20
2.1366275124138698
 30
0.0
 40
0.0266928289273625
 50
201.8252958964795
 51
267.16449786715452
  0
ARC
  5
9DA
  8
FORM
 62
     7
 10
16.936879259411789
 20
2.1340951027918962
 30
0.0
 40
0.0204180021895292
 50
124.254854327418
 51
201.22329273937871
  0
ARC
  5
9DB
  8
FORM
 62
     7
 10
16.999050226745201
 20
2.1174828639755172
 30
0.0
 40
0.0895139066856433
 50
283.5751770312794
 51
324.58969283639942
  0
ARC
  5
9DC
  8
FORM
 62
     7
 10
17.05010181640597
 20
2.0748500422369349
 30
0.0
 40
0.0237711578752802
 50
337.14160324238759
 51
47.56496670892831
  0
ARC
  5
9DD
  8
FORM
 62
     7
 10
17.01351320176212
 20
2.0225775754130799
 30
0.0
 40
0.0874305156836371
 50
52.990730681111657
 51
91.748895977531376
  0
ARC
  5
9DE
  8
FORM
 62
     7
 10
16.97607501860476
 20
2.3473211427073291
 30
0.0
 40
0.2398869733850244
 50
261.66603807207321
 51
278.33396192792679
  0
ARC
  5
9DF
  8
FORM
 62
     7
 10
16.904055290181631
 20
2.0802584334887442
 30
0.0
 40
0.0554174778483587
 50
192.64550774538381
 51
248.2223967256862
  0
ARC
  5
9E0
  8
FORM
 62
     7
 10
16.890435234000019
 20
2.0865365172575769
 30
0.0
 40
0.0444453205431241
 50
178.88427582775461
 51
204.46998391858139
  0
ARC
  5
9E1
  8
FORM
 62
     7
 10
17.00038134049046
 20
2.0753041716250129
 30
0.0
 40
0.1548562786887746
 50
140.54690015149379
 51
175.5193383191162
  0
ARC
  5
9E2
  8
FORM
 62
     7
 10
18.525663181526959
 20
0.8608942872864346
 30
0.0
 40
2.1045236570324608
 50
137.45643980933039
 51
141.40545593619069
  0
POLYLINE
  5
9E3
  8
FORM
 62
     1
 10
17.275622491608207
 20
3.0402781737931805
 30
0.0
 66
     1
 70
     8
  0
VERTEX
  8
FORM
  5
B96
 10
17.2756
 20
3.04028
 30
0.000000
  70
    32
  0
VERTEX
  8
FORM
  5
B97
 10
17.2747
 20
3.04062
 30
0.000000
  70
    32
  0
VERTEX
  8
FORM
  5
B98
 10
17.2737
 20
3.04086
 30
0.000000
  70
    32
  0
VERTEX
  8
FORM
  5
B99
 10
17.2727
 20
3.04098
 30
0.000000
  70
    32
  0
VERTEX
  8
FORM
  5
B9A
 10
17.2716
 20
3.04100
 30
0.000000
  70
    32
  0
VERTEX
  8
FORM
  5
B9B
 10
17.2705
 20
3.04091
 30
0.000000
  70
    32
  0
VERTEX
  8
FORM
  5
B9C
 10
17.2694
 20
3.04070
 30
0.000000
  70
    32
  0
VERTEX
  8
FORM
  5
B9D
 10
17.2682
 20
3.04039
 30
0.000000
  70
    32
  0
VERTEX
  8
FORM
  5
B9E
 10
17.2670
 20
3.03997
 30
0.000000
  70
    32
  0
VERTEX
  8
FORM
  5
B9F
 10
17.2658
 20
3.03944
 30
0.000000
  70
    32
  0
VERTEX
  8
FORM
  5
BA0
 10
17.2646
 20
3.03880
 30
0.000000
  70
    32
  0
VERTEX
  8
FORM
  5
BA1
 10
17.2633
 20
3.03806
 30
0.000000
  70
    32
  0
VERTEX
  8
FORM
  5
BA2
 10
17.2620
 20
3.03722
 30
0.000000
  70
    32
  0
VERTEX
  8
FORM
  5
BA3
 10
17.2607
 20
3.03627
 30
0.000000
  70
    32
  0
VERTEX
  8
FORM
  5
BA4
 10
17.2594
 20
3.03523
 30
0.000000
  70
    32
  0
VERTEX
  8
FORM
  5
BA5
 10
17.2581
 20
3.03409
 30
0.000000
  70
    32
  0
VERTEX
  8
FORM
  5
BA6
 10
17.2568
 20
3.03286
 30
0.000000
  70
    32
  0
VERTEX
  8
FORM
  5
BA7
 10
17.2554
 20
3.03154
 30
0.000000
  70
    32
  0
VERTEX
  8
FORM
  5
BA8
 10
17.2541
 20
3.03013
 30
0.000000
  70
    32
  0
VERTEX
  8
FORM
  5
BA9
 10
17.2528
 20
3.02864
 30
0.000000
  70
    32
  0
VERTEX
  8
FORM
  5
BAA
 10
17.2515
 20
3.02706
 30
0.000000
  70
    32
  0
VERTEX
  8
FORM
  5
BAB
 10
17.2502
 20
3.02541
 30
0.000000
  70
    32
  0
VERTEX
  8
FORM
  5
BAC
 10
17.2489
 20
3.02369
 30
0.000000
  70
    32
  0
VERTEX
  8
FORM
  5
BAD
 10
17.2476
 20
3.02190
 30
0.000000
  70
    32
  0
VERTEX
  8
FORM
  5
BAE
 10
17.2464
 20
3.02004
 30
0.000000
  70
    32
  0
VERTEX
  8
FORM
  5
BAF
 10
17.2451
 20
3.01813
 30
0.000000
  70
    32
  0
VERTEX
  8
FORM
  5
BB0
 10
17.2439
 20
3.01616
 30
0.000000
  70
    32
  0
VERTEX
  8
FORM
  5
BB1
 10
17.2427
 20
3.01414
 30
0.000000
  70
    32
  0
VERTEX
  8
FORM
  5
BB2
 10
17.2416
 20
3.01208
 30
0.000000
  70
    32
  0
VERTEX
  8
FORM
  5
BB3
 10
17.2405
 20
3.00997
 30
0.000000
  70
    32
  0
VERTEX
  8
FORM
  5
BB4
 10
17.2394
 20
3.00783
 30
0.000000
  70
    32
  0
VERTEX
  8
FORM
  5
BB5
 10
17.2384
 20
3.00566
 30
0.000000
  70
    32
  0
VERTEX
  8
FORM
  5
BB6
 10
17.2374
 20
3.00347
 30
0.000000
  70
    32
  0
VERTEX
  8
FORM
  5
BB7
 10
17.2364
 20
3.00125
 30
0.000000
  70
    32
  0
VERTEX
  8
FORM
  5
BB8
 10
17.2356
 20
2.99902
 30
0.000000
  70
    32
  0
VERTEX
  8
FORM
  5
BB9
 10
17.2347
 20
2.99679
 30
0.000000
  70
    32
  0
VERTEX
  8
FORM
  5
BBA
 10
17.2339
 20
2.99454
 30
0.000000
  70
    32
  0
VERTEX
  8
FORM
  5
BBB
 10
17.2332
 20
2.99231
 30
0.000000
  70
    32
  0
VERTEX
  8
FORM
  5
BBC
 10
17.2325
 20
2.99007
 30
0.000000
  70
    32
  0
VERTEX
  8
FORM
  5
BBD
 10
17.2318
 20
2.98785
 30
0.000000
  70
    32
  0
VERTEX
  8
FORM
  5
BBE
 10
17.2313
 20
2.98565
 30
0.000000
  70
    32
  0
VERTEX
  8
FORM
  5
BBF
 10
17.2307
 20
2.98348
 30
0.000000
  70
    32
  0
VERTEX
  8
FORM
  5
BC0
 10
17.2303
 20
2.98133
 30
0.000000
  70
    32
  0
VERTEX
  8
FORM
  5
BC1
 10
17.2299
 20
2.97921
 30
0.000000
  70
    32
  0
VERTEX
  8
FORM
  5
BC2
 10
17.2296
 20
2.97713
 30
0.000000
  70
    32
  0
VERTEX
  8
FORM
  5
BC3
 10
17.2293
 20
2.97510
 30
0.000000
  70
    32
  0
VERTEX
  8
FORM
  5
BC4
 10
17.2291
 20
2.97312
 30
0.000000
  70
    32
  0
VERTEX
  8
FORM
  5
BC5
 10
17.2289
 20
2.97119
 30
0.000000
  70
    32
  0
VERTEX
  8
FORM
  5
BC6
 10
17.2289
 20
2.96931
 30
0.000000
  70
    32
  0
VERTEX
  8
FORM
  5
BC7
 10
17.2289
 20
2.96751
 30
0.000000
  70
    32
  0
VERTEX
  8
FORM
  5
BC8
 10
17.2289
 20
2.96576
 30
0.000000
  70
    32
  0
VERTEX
  8
FORM
  5
BC9
 10
17.2290
 20
2.96409
 30
0.000000
  70
    32
  0
VERTEX
  8
FORM
  5
BCA
 10
17.2292
 20
2.96250
 30
0.000000
  70
    32
  0
VERTEX
  8
FORM
  5
BCB
 10
17.2295
 20
2.96098
 30
0.000000
  70
    32
  0
VERTEX
  8
FORM
  5
BCC
 10
17.2298
 20
2.95955
 30
0.000000
  70
    32
  0
VERTEX
  8
FORM
  5
BCD
 10
17.2301
 20
2.95820
 30
0.000000
  70
    32
  0
VERTEX
  8
FORM
  5
BCE
 10
17.2306
 20
2.95694
 30
0.000000
  70
    32
  0
VERTEX
  8
FORM
  5
BCF
 10
17.2311
 20
2.95577
 30
0.000000
  70
    32
  0
VERTEX
  8
FORM
  5
BD0
 10
17.2316
 20
2.95470
 30
0.000000
  70
    32
  0
VERTEX
  8
FORM
  5
BD1
 10
17.2323
 20
2.95373
 30
0.000000
  70
    32
  0
VERTEX
  8
FORM
  5
BD2
 10
17.2329
 20
2.95286
 30
0.000000
  70
    32
  0
VERTEX
  8
FORM
  5
BD3
 10
17.2337
 20
2.95209
 30
0.000000
  70
    32
  0
VERTEX
  8
FORM
  5
BD4
 10
17.2344
 20
2.95142
 30
0.000000
  70
    32
  0
VERTEX
  8
FORM
  5
BD5
 10
17.2353
 20
2.95086
 30
0.000000
  70
    32
  0
VERTEX
  8
FORM
  5
BD6
 10
17.2362
 20
2.95041
 30
0.000000
  70
    32
  0
VERTEX
  8
FORM
  5
BD7
 10
17.2371
 20
2.95007
 30
0.000000
  70
    32
  0
VERTEX
  8
FORM
  5
BD8
 10
17.2381
 20
2.94983
 30
0.000000
  70
    32
  0
VERTEX
  8
FORM
  5
BD9
 10
17.2391
 20
2.94971
 30
0.000000
  70
    32
  0
VERTEX
  8
FORM
  5
BDA
 10
17.2401
 20
2.94969
 30
0.000000
  70
    32
  0
VERTEX
  8
FORM
  5
BDB
 10
17.2412
 20
2.94978
 30
0.000000
  70
    32
  0
VERTEX
  8
FORM
  5
BDC
 10
17.2424
 20
2.94999
 30
0.000000
  70
    32
  0
VERTEX
  8
FORM
  5
BDD
 10
17.2435
 20
2.95030
 30
0.000000
  70
    32
  0
VERTEX
  8
FORM
  5
BDE
 10
17.2447
 20
2.95072
 30
0.000000
  70
    32
  0
VERTEX
  8
FORM
  5
BDF
 10
17.2460
 20
2.95125
 30
0.000000
  70
    32
  0
VERTEX
  8
FORM
  5
BE0
 10
17.2472
 20
2.95189
 30
0.000000
  70
    32
  0
VERTEX
  8
FORM
  5
BE1
 10
17.2485
 20
2.95263
 30
0.000000
  70
    32
  0
VERTEX
  8
FORM
  5
BE2
 10
17.2498
 20
2.95347
 30
0.000000
  70
    32
  0
VERTEX
  8
FORM
  5
BE3
 10
17.2511
 20
2.95442
 30
0.000000
  70
    32
  0
VERTEX
  8
FORM
  5
BE4
 10
17.2524
 20
2.95546
 30
0.000000
  70
    32
  0
VERTEX
  8
FORM
  5
BE5
 10
17.2537
 20
2.95660
 30
0.000000
  70
    32
  0
VERTEX
  8
FORM
  5
BE6
 10
17.2550
 20
2.95783
 30
0.000000
  70
    32
  0
VERTEX
  8
FORM
  5
BE7
 10
17.2563
 20
2.95915
 30
0.000000
  70
    32
  0
VERTEX
  8
FORM
  5
BE8
 10
17.2577
 20
2.96056
 30
0.000000
  70
    32
  0
VERTEX
  8
FORM
  5
BE9
 10
17.2590
 20
2.96205
 30
0.000000
  70
    32
  0
VERTEX
  8
FORM
  5
BEA
 10
17.2603
 20
2.96363
 30
0.000000
  70
    32
  0
VERTEX
  8
FORM
  5
BEB
 10
17.2616
 20
2.96528
 30
0.000000
  70
    32
  0
VERTEX
  8
FORM
  5
BEC
 10
17.2629
 20
2.96700
 30
0.000000
  70
    32
  0
VERTEX
  8
FORM
  5
BED
 10
17.2642
 20
2.96879
 30
0.000000
  70
    32
  0
VERTEX
  8
FORM
  5
BEE
 10
17.2654
 20
2.97065
 30
0.000000
  70
    32
  0
VERTEX
  8
FORM
  5
BEF
 10
17.2667
 20
2.97256
 30
0.000000
  70
    32
  0
VERTEX
  8
FORM
  5
BF0
 10
17.2679
 20
2.97453
 30
0.000000
  70
    32
  0
VERTEX
  8
FORM
  5
BF1
 10
17.2690
 20
2.97655
 30
0.000000
  70
    32
  0
VERTEX
  8
FORM
  5
BF2
 10
17.2702
 20
2.97861
 30
0.000000
  70
    32
  0
VERTEX
  8
FORM
  5
BF3
 10
17.2713
 20
2.98072
 30
0.000000
  70
    32
  0
VERTEX
  8
FORM
  5
BF4
 10
17.2724
 20
2.98286
 30
0.000000
  70
    32
  0
VERTEX
  8
FORM
  5
BF5
 10
17.2734
 20
2.98503
 30
0.000000
  70
    32
  0
VERTEX
  8
FORM
  5
BF6
 10
17.2744
 20
2.98722
 30
0.000000
  70
    32
  0
VERTEX
  8
FORM
  5
BF7
 10
17.2753
 20
2.98944
 30
0.000000
  70
    32
  0
VERTEX
  8
FORM
  5
BF8
 10
17.2762
 20
2.99167
 30
0.000000
  70
    32
  0
VERTEX
  8
FORM
  5
BF9
 10
17.2771
 20
2.99390
 30
0.000000
  70
    32
  0
VERTEX
  8
FORM
  5
BFA
 10
17.2779
 20
2.99615
 30
0.000000
  70
    32
  0
VERTEX
  8
FORM
  5
BFB
 10
17.2786
 20
2.99838
 30
0.000000
  70
    32
  0
VERTEX
  8
FORM
  5
BFC
 10
17.2793
 20
3.00062
 30
0.000000
  70
    32
  0
VERTEX
  8
FORM
  5
BFD
 10
17.2800
 20
3.00284
 30
0.000000
  70
    32
  0
VERTEX
  8
FORM
  5
BFE
 10
17.2805
 20
3.00504
 30
0.000000
  70
    32
  0
VERTEX
  8
FORM
  5
BFF
 10
17.2810
 20
3.00721
 30
0.000000
  70
    32
  0
VERTEX
  8
FORM
  5
C00
 10
17.2815
 20
3.00936
 30
0.000000
  70
    32
  0
VERTEX
  8
FORM
  5
C01
 10
17.2819
 20
3.01148
 30
0.000000
  70
    32
  0
VERTEX
  8
FORM
  5
C02
 10
17.2822
 20
3.01356
 30
0.000000
  70
    32
  0
VERTEX
  8
FORM
  5
C03
 10
17.2825
 20
3.01559
 30
0.000000
  70
    32
  0
VERTEX
  8
FORM
  5
C04
 10
17.2827
 20
3.01757
 30
0.000000
  70
    32
  0
VERTEX
  8
FORM
  5
C05
 10
17.2828
 20
3.01950
 30
0.000000
  70
    32
  0
VERTEX
  8
FORM
  5
C06
 10
17.2829
 20
3.02137
 30
0.000000
  70
    32
  0
VERTEX
  8
FORM
  5
C07
 10
17.2829
 20
3.02318
 30
0.000000
  70
    32
  0
VERTEX
  8
FORM
  5
C08
 10
17.2829
 20
3.02493
 30
0.000000
  70
    32
  0
VERTEX
  8
FORM
  5
C09
 10
17.2828
 20
3.02660
 30
0.000000
  70
    32
  0
VERTEX
  8
FORM
  5
C0A
 10
17.2826
 20
3.02819
 30
0.000000
  70
    32
  0
VERTEX
  8
FORM
  5
C0B
 10
17.2823
 20
3.02971
 30
0.000000
  70
    32
  0
VERTEX
  8
FORM
  5
C0C
 10
17.2820
 20
3.03114
 30
0.000000
  70
    32
  0
VERTEX
  8
FORM
  5
C0D
 10
17.2816
 20
3.03249
 30
0.000000
  70
    32
  0
VERTEX
  8
FORM
  5
C0E
 10
17.2812
 20
3.03375
 30
0.000000
  70
    32
  0
VERTEX
  8
FORM
  5
C0F
 10
17.2807
 20
3.03492
 30
0.000000
  70
    32
  0
VERTEX
  8
FORM
  5
C10
 10
17.2801
 20
3.03599
 30
0.000000
  70
    32
  0
VERTEX
  8
FORM
  5
C11
 10
17.2795
 20
3.03696
 30
0.000000
  70
    32
  0
VERTEX
  8
FORM
  5
C12
 10
17.2789
 20
3.03783
 30
0.000000
  70
    32
  0
VERTEX
  8
FORM
  5
C13
 10
17.2781
 20
3.03860
 30
0.000000
  70
    32
  0
VERTEX
  8
FORM
  5
C14
 10
17.2773
 20
3.03927
 30
0.000000
  70
    32
  0
VERTEX
  8
FORM
  5
C15
 10
17.2765
 20
3.03983
 30
0.000000
  70
    32
  0
VERTEX
  8
FORM
  5
C16
 10
17.2756
 20
3.04028
 30
0.000000
  70
    32
  0
SEQEND
  8
FORM
  5
C17
  0
ARC
  5
9E4
  8
FORM
 62
     7
 10
17.31969472840197
 20
2.8767429643067852
 30
0.0
 40
0.2199177503197187
 50
85.485448269952457
 51
155.5006785655419
  0
TEXT
  5
9E5
  8
FORM
 62
     7
 10
16.545907219234731
 20
1.726726372181332
 30
0.0
 40
0.0861538460965367
  1
R2-D2 BUILDERS CLUB
  0
ARC
  5
9E6
  8
FORM
 10
0.7499999996674376
 20
0.7499999996674092
 30
0.0
 40
0.1538461537438154
 50
180.0
 51
270.0
  0
ARC
  5
9E7
  8
FORM
 10
0.7499999996674376
 20
0.7499999996674092
 30
0.0
 40
0.3076923074876307
 50
180.0
 51
270.0
  0
ARC
  5
9E8
  8
FORM
 10
0.7499999996674376
 20
0.7499999996674092
 30
0.0
 40
0.3461538459235846
 50
180.0
 51
270.0
  0
ARC
  5
9E9
  8
FORM
 10
0.7499999996674376
 20
0.7499999996674092
 30
0.0
 40
0.4999999996674
 50
180.0
 51
270.0
  0
ARC
  5
9EA
  8
FORM
 10
0.7499999996674376
 20
15.153846144098431
 30
0.0
 40
0.4999999996674
 50
90.0
 51
180.0
  0
ARC
  5
9EB
  8
FORM
 10
0.7499999996674376
 20
15.153846144098431
 30
0.0
 40
0.3461538459235846
 50
90.0
 51
180.0
  0
ARC
  5
9EC
  8
FORM
 10
0.7499999996674376
 20
15.153846144098431
 30
0.0
 40
0.3076923074876307
 50
90.0
 51
180.0
  0
ARC
  5
9ED
  8
FORM
 10
0.7499999996674376
 20
15.153846144098431
 30
0.0
 40
0.1538461537438154
 50
90.0
 51
180.0
  0
ARC
  5
9EE
  8
FORM
 10
21.249999986363441
 20
15.153846144098431
 30
0.0
 40
0.3076923074876307
 50
0.0
 51
90.0
  0
ARC
  5
9EF
  8
FORM
 10
21.249999986363441
 20
15.153846144098431
 30
0.0
 40
0.3461538459235846
 50
0.0
 51
90.0
  0
ARC
  5
9F0
  8
FORM
 10
21.249999986363441
 20
15.153846144098431
 30
0.0
 40
0.4999999996674
 50
0.0
 51
90.0
  0
ARC
  5
9F1
  8
FORM
 10
21.249999986363441
 20
15.153846144098431
 30
0.0
 40
0.1538461537438154
 50
0.0
 51
90.0
  0
ARC
  5
9F2
  8
FORM
 10
21.249999986363441
 20
0.7499999996674092
 30
0.0
 40
0.4999999996674
 50
270.0
 51
0.0
  0
ARC
  5
9F3
  8
FORM
 10
21.249999986363441
 20
0.7499999996674092
 30
0.0
 40
0.3461538459235846
 50
270.0
 51
0.0
  0
ARC
  5
9F4
  8
FORM
 10
21.249999986363441
 20
0.7499999996674092
 30
0.0
 40
0.3076923074876307
 50
270.0
 51
0.0
  0
ARC
  5
9F5
  8
FORM
 10
21.249999986363441
 20
0.7499999996674092
 30
0.0
 40
0.1538461537438154
 50
270.0
 51
0.0
  0
LINE
  5
9F6
  8
FORM
 10
21.249999986363441
 20
0.4423076921797886
 30
0.0
 11
0.7499999996674376
 21
0.442307692179778
 31
0.0
  0
LINE
  5
9F7
  8
FORM
 10
21.249999986363441
 20
0.4038461537438352
 30
0.0
 11
0.7499999996674376
 21
0.4038461537438245
 31
0.0
  0
LINE
  5
9F8
  8
FORM
 10
21.249999986363441
 20
0.2500000000000071
 30
0.0
 11
0.7499999996674376
 21
0.25
 31
0.0
  0
LINE
  5
9F9
  8
FORM
 10
21.55769229385108
 20
0.7499999996674092
 30
0.0
 11
21.55769229385108
 21
15.153846144098431
 31
0.0
  0
LINE
  5
9FA
  8
FORM
 10
21.59615383228703
 20
0.7499999996674092
 30
0.0
 11
21.59615383228703
 21
15.153846144098431
 31
0.0
  0
LINE
  5
9FB
  8
FORM
 10
21.74999998603084
 20
0.7499999996674092
 30
0.0
 11
21.74999998603084
 21
15.153846144098431
 31
0.0
  0
LINE
  5
9FC
  8
FORM
 10
21.249999986363441
 20
15.46153845158606
 30
0.0
 11
0.7499999996674376
 21
15.46153845158606
 31
0.0
  0
LINE
  5
9FD
  8
FORM
 10
21.249999986363441
 20
15.499999990022021
 30
0.0
 11
0.7499999996674376
 21
15.499999990022021
 31
0.0
  0
LINE
  5
9FE
  8
FORM
 10
21.249999986363441
 20
15.653846143765829
 30
0.0
 11
0.7499999996674376
 21
15.653846143765829
 31
0.0
  0
LINE
  5
9FF
  8
FORM
 10
0.4423076921798029
 20
0.7499999996674092
 30
0.0
 11
0.4423076921798029
 21
15.153846144098431
 31
0.0
  0
LINE
  5
A00
  8
FORM
 10
0.4038461537438565
 20
0.7499999996674092
 30
0.0
 11
0.4038461537438565
 21
15.153846144098431
 31
0.0
  0
LINE
  5
A01
  8
FORM
 10
0.25
 20
0.7499999996674092
 30
0.0
 11
0.2500000000000426
 21
15.153846144098431
 31
0.0
  0
LINE
  5
A02
  8
FORM
  6
CONTINUOUS
 10
16.703251912464879
 20
0.7499999996674092
 30
0.0
 11
21.02491344805162
 21
0.7499999996674092
 31
0.0
  0
LINE
  5
A03
  8
FORM
  6
CONTINUOUS
 10
21.249999986363441
 20
3.1359173057725931
 30
0.0
 11
21.249999986363441
 21
0.9750865379792159
 31
0.0
  0
ARC
  5
A04
  8
FORM
  6
CONTINUOUS
 10
21.02491344805162
 20
0.9750865379792159
 30
0.0
 40
0.2250865383118096
 50
270.0
 51
0.0
  0
ARC
  5
A05
  8
FORM
  6
CONTINUOUS
 10
21.02491344805162
 20
3.1359173057725931
 30
0.0
 40
0.2250865383118096
 50
359.99999999999989
 51
90.0
  0
ARC
  5
A06
  8
FORM
  6
CONTINUOUS
 10
16.703251912464879
 20
0.9750865379792159
 30
0.0
 40
0.2250865383118096
 50
180.0
 51
270.0
  0
ARC
  5
A07
  8
FORM
  6
CONTINUOUS
 10
16.703251912464879
 20
3.1359173057725931
 30
0.0
 40
0.2250865383118096
 50
90.0
 51
180.0
  0
LINE
  5
B4C
  8
0
 10
0.7499999996674376
 20
0.7499999996674092
 30
0.0
 11
0.7499999996674376
 21
1.7499999996674089
 31
0.0
  0
LINE
  5
B4D
  8
0
 10
0.7499999996674376
 20
0.8749999996674091
 30
0.0
 11
0.8749999996674375
 21
0.8749999996674091
 31
0.0
  0
LINE
  5
B4E
  8
0
 10
0.7499999996674376
 20
0.9999999996674091
 30
0.0
 11
0.9999999996674375
 21
0.9999999996674091
 31
0.0
  0
LINE
  5
B4F
  8
0
 10
0.7499999996674376
 20
1.1249999996674089
 30
0.0
 11
0.8749999996674375
 21
1.1249999996674089
 31
0.0
  0
LINE
  5
B50
  8
0
 10
0.7499999996674376
 20
1.2499999996674089
 30
0.0
 11
1.1249999996674369
 21
1.2499999996674089
 31
0.0
  0
LINE
  5
B51
  8
0
 10
0.7499999996674376
 20
1.3749999996674089
 30
0.0
 11
0.8749999996674375
 21
1.3749999996674089
 31
0.0
  0
LINE
  5
B52
  8
0
 10
0.7499999996674376
 20
1.4999999996674089
 30
0.0
 11
0.9999999996674375
 21
1.4999999996674089
 31
0.0
  0
LINE
  5
B53
  8
0
 10
0.7499999996674376
 20
1.6249999996674089
 30
0.0
 11
0.8749999996674375
 21
1.6249999996674089
 31
0.0
  0
LINE
  5
B54
  8
0
 10
0.7499999996674376
 20
1.7499999996674089
 30
0.0
 11
1.1249999996674369
 21
1.7499999996674089
 31
0.0
  0
LINE
  5
B55
  8
0
 10
0.7499999996674376
 20
0.7499999996674092
 30
0.0
 11
1.1249999996674369
 21
0.7499999996674092
 31
0.0
  0
TEXT
  5
B56
  8
0
 10
1.1742687732938739
 20
1.216959438666926
 30
0.0
 40
0.0625
  1
1/2"
  0
TEXT
  5
B57
  8
0
 10
0.9242687732938748
 20
1.091959438666926
 30
0.0
 40
0.0625
  1
3/8"
  0
TEXT
  5
B58
  8
0
 10
1.0492687732938739
 20
0.966959438666926
 30
0.0
 40
0.0625
  1
1/4"
  0
TEXT
  5
B59
  8
0
 10
0.9242687732938748
 20
0.841959438666926
 30
0.0
 40
0.0625
  1
1/8"
  0
TEXT
  5
B5A
  8
0
 10
0.9242687732938748
 20
1.341959438666926
 30
0.0
 40
0.0625
  1
5/8"
  0
TEXT
  5
B5B
  8
0
 10
1.0492687732938739
 20
1.466959438666926
 30
0.0
 40
0.0625
  1
3/4"
  0
TEXT
  5
B5C
  8
0
 10
0.9242687732938748
 20
1.591959438666926
 30
0.0
 40
0.0625
  1
7/8"
  0
TEXT
  5
B5D
  8
0
 10
1.1742687732938739
 20
1.716959438666926
 30
0.0
 40
0.0625
  1
1"
  0
ENDSEC
  0
EOF
