  0
SECTION
  2
HEADER
  9
$ACADVER
  1
AC1009
  9
$INSBASE
 10
0.0
 20
0.0
 30
0.0
  9
$EXTMIN
 10
0.0
 20
0.0
 30
0.0
  9
$EXTMAX
 10
17.0
 20
11.0
 30
0.0
  9
$LIMMIN
 10
0.0
 20
0.0
  9
$LIMMAX
 10
12.0
 20
9.0
  9
$ORTHOMODE
 70
     0
  9
$REGENMODE
 70
     1
  9
$FILLMODE
 70
     1
  9
$QTEXTMODE
 70
     0
  9
$MIRRTEXT
 70
     1
  9
$DRAGMODE
 70
     2
  9
$LTSCALE
 40
1.0
  9
$OSMODE
 70
    39
  9
$ATTMODE
 70
     1
  9
$TEXTSIZE
 40
0.1875
  9
$TRACEWID
 40
0.05
  9
$TEXTSTYLE
  7
STANDARD
  9
$CLAYER
  8
0
  9
$CELTYPE
  6
BYLAYER
  9
$CECOLOR
 62
   256
  9
$DIMSCALE
 40
1.0
  9
$DIMASZ
 40
0.25
  9
$DIMEXO
 40
0.0625
  9
$DIMDLI
 40
1.0
  9
$DIMRND
 40
0.0
  9
$DIMDLE
 40
0.0
  9
$DIMEXE
 40
0.0625
  9
$DIMTP
 40
0.0
  9
$DIMTM
 40
0.0
  9
$DIMTXT
 40
0.25
  9
$DIMCEN
 40
0.0
  9
$DIMTSZ
 40
0.0
  9
$DIMTOL
 70
     0
  9
$DIMLIM
 70
     0
  9
$DIMTIH
 70
     1
  9
$DIMTOH
 70
     1
  9
$DIMSE1
 70
     0
  9
$DIMSE2
 70
     0
  9
$DIMTAD
 70
     0
  9
$DIMZIN
 70
     0
  9
$DIMBLK
  1

  9
$DIMASO
 70
     1
  9
$DIMSHO
 70
     1
  9
$DIMPOST
  1

  9
$DIMAPOST
  1

  9
$DIMALT
 70
     0
  9
$DIMALTD
 70
     2
  9
$DIMALTF
 40
25.399999999999999
  9
$DIMLFAC
 40
1.0
  9
$DIMTOFL
 70
     0
  9
$DIMTVP
 40
0.0
  9
$DIMTIX
 70
     0
  9
$DIMSOXD
 70
     0
  9
$DIMSAH
 70
     0
  9
$DIMBLK1
  1

  9
$DIMBLK2
  1

  9
$DIMSTYLE
  2
STANDARD
  9
$DIMCLRD
 70
   256
  9
$DIMCLRE
 70
   256
  9
$DIMCLRT
 70
   256
  9
$DIMTFAC
 40
1.0
  9
$DIMGAP
 40
0.0625
  9
$LUNITS
 70
     2
  9
$LUPREC
 70
     8
  9
$SKETCHINC
 40
0.1
  9
$FILLETRAD
 40
0.0
  9
$AUNITS
 70
     0
  9
$AUPREC
 70
     0
  9
$MENU
  1
.
  9
$ELEVATION
 40
0.0
  9
$PELEVATION
 40
0.0
  9
$THICKNESS
 40
0.0
  9
$LIMCHECK
 70
     0
  9
$BLIPMODE
 70
     0
  9
$CHAMFERA
 40
0.0
  9
$CHAMFERB
 40
0.0
  9
$SKPOLY
 70
     0
  9
$TDCREATE
 40
2452227.939733333
  9
$TDUPDATE
 40
2453469.6401843978
  9
$TDINDWG
 40
1.7894199653
  9
$TDUSRTIMER
 40
1.7894193866000001
  9
$USRTIMER
 70
     1
  9
$ANGBASE
 50
0.0
  9
$ANGDIR
 70
     0
  9
$PDMODE
 70
     0
  9
$PDSIZE
 40
0.0
  9
$PLINEWID
 40
0.0
  9
$COORDS
 70
     0
  9
$SPLFRAME
 70
     0
  9
$SPLINETYPE
 70
     6
  9
$SPLINESEGS
 70
     8
  9
$ATTDIA
 70
     0
  9
$ATTREQ
 70
     1
  9
$HANDLING
 70
     1
  9
$HANDSEED
  5
A99
  9
$SURFTAB1
 70
     6
  9
$SURFTAB2
 70
     6
  9
$SURFTYPE
 70
     6
  9
$SURFU
 70
     6
  9
$SURFV
 70
     6
  9
$UCSNAME
  2

  9
$UCSORG
 10
0.0
 20
0.0
 30
0.0
  9
$UCSXDIR
 10
1.0
 20
0.0
 30
0.0
  9
$UCSYDIR
 10
0.0
 20
1.0
 30
0.0
  9
$PUCSNAME
  2

  9
$PUCSORG
 10
0.0
 20
0.0
 30
0.0
  9
$PUCSXDIR
 10
1.0
 20
0.0
 30
0.0
  9
$PUCSYDIR
 10
0.0
 20
1.0
 30
0.0
  9
$USERI1
 70
     0
  9
$USERI2
 70
     0
  9
$USERI3
 70
     0
  9
$USERI4
 70
     0
  9
$USERI5
 70
     0
  9
$USERR1
 40
0.0
  9
$USERR2
 40
0.0
  9
$USERR3
 40
0.0
  9
$USERR4
 40
0.0
  9
$USERR5
 40
0.0
  9
$WORLDVIEW
 70
     1
  9
$SHADEDGE
 70
     3
  9
$SHADEDIF
 70
    70
  9
$TILEMODE
 70
     1
  9
$MAXACTVP
 70
    64
  9
$PLIMCHECK
 70
     0
  9
$PEXTMIN
 10
1.0000000000000000E+020
 20
1.0000000000000000E+020
 30
1.0000000000000000E+020
  9
$PEXTMAX
 10
-1.0000000000000000E+020
 20
-1.0000000000000000E+020
 30
-1.0000000000000000E+020
  9
$PLIMMIN
 10
0.0
 20
0.0
  9
$PLIMMAX
 10
12.0
 20
9.0
  9
$UNITMODE
 70
     0
  9
$VISRETAIN
 70
     1
  9
$PLINEGEN
 70
     0
  9
$PSLTSCALE
 70
     1
  0
ENDSEC
  0
SECTION
  2
TABLES
  0
TABLE
  2
VPORT
 70
     2
  0
VPORT
  2
*ACTIVE
 70
     0
 10
0.0
 20
0.0
 11
1.0
 21
1.0
 12
8.5030992516629453
 22
5.4996095636673852
 13
0.0
 23
0.0
 14
0.5
 24
0.5
 15
0.5
 25
0.5
 16
0.0
 26
0.0
 36
1.0
 17
0.0
 27
0.0
 37
0.0
 40
11.14171709003887
 41
2.1727078891257992
 42
50.0
 43
0.0
 44
0.0
 50
0.0
 51
0.0
 71
     0
 72
 20000
 73
     1
 74
     2
 75
     0
 76
     0
 77
     0
 78
     0
  0
ENDTAB
  0
TABLE
  2
LTYPE
 70
     1
  0
LTYPE
  2
CONTINUOUS
 70
     0
  3
Solid line
 72
    65
 73
     0
 40
0.0
  0
ENDTAB
  0
TABLE
  2
LAYER
 70
     5
  0
LAYER
  2
0
 70
     0
 62
     7
  6
CONTINUOUS
  0
LAYER
  2
OUTER_FOOT_-_FRONT_STRIP
 70
     0
 62
     7
  6
CONTINUOUS
  0
LAYER
  2
DIMENSIONS
 70
     0
 62
     1
  6
CONTINUOUS
  0
LAYER
  2
DEFPOINTS
 70
     0
 62
     7
  6
CONTINUOUS
  0
LAYER
  2
FORM
 70
     0
 62
     5
  6
CONTINUOUS
  0
ENDTAB
  0
TABLE
  2
STYLE
 70
     1
  0
STYLE
  2
STANDARD
 70
     0
 40
0.0
 41
1.0
 50
0.0
 71
     0
 42
0.1875
  3
simplex.shx
  4

  0
ENDTAB
  0
TABLE
  2
VIEW
 70
     0
  0
ENDTAB
  0
TABLE
  2
UCS
 70
     0
  0
ENDTAB
  0
TABLE
  2
APPID
 70
     5
  0
APPID
  2
ACAD
 70
     0
  0
APPID
  2
ACAD_DSTYLE_DIMTEXT_FILL
 70
     0
  0
APPID
  2
ACAECLAYERSTANDARD
 70
     0
  0
APPID
  2
DCO15
 70
     0
  0
APPID
  2
ACAD_PSEXT
 70
     0
  0
ENDTAB
  0
TABLE
  2
DIMSTYLE
 70
     1
  0
DIMSTYLE
  2
STANDARD
 70
     0
  3

  4

  5

  6

  7

 40
1.0
 41
0.25
 42
0.0625
 43
1.0
 44
0.0625
 45
0.0
 46
0.0
 47
0.0
 48
0.0
140
0.25
141
0.0
142
0.0
143
25.399999999999999
144
1.0
145
0.0
146
1.0
147
0.0625
 71
     0
 72
     0
 73
     1
 74
     1
 75
     0
 76
     0
 77
     0
 78
     0
170
     0
171
     2
172
     0
173
     0
174
     0
175
     0
176
   256
177
   256
178
   256
  0
ENDTAB
  0
ENDSEC
  0
SECTION
  2
BLOCKS
  0
BLOCK
  8
0
  2
$MODEL_SPACE
 70
     0
 10
0.0
 20
0.0
 30
0.0
  3
$MODEL_SPACE
  1

  0
ENDBLK
  5
9
  8
0
  0
BLOCK
 67
     1
  8
0
  2
$PAPER_SPACE
 70
     0
 10
0.0
 20
0.0
 30
0.0
  3
$PAPER_SPACE
  1

  0
ENDBLK
  5
E
 67
     1
  8
0
  0
ENDSEC
  0
SECTION
  2
ENTITIES
  0
LINE
  5
28
  8
OUTER_FOOT_-_FRONT_STRIP
 10
4.4931159120942041
 20
2.5074973588845162
 30
0.0
 11
4.6716344129369674
 21
2.6324973588845171
 31
0.0
  0
LINE
  5
2A
  8
OUTER_FOOT_-_FRONT_STRIP
 10
4.4931159120942041
 20
7.6276805017286691
 30
0.0
 11
8.0101159120942071
 21
7.6276805017286691
 31
0.0
  0
LINE
  5
2B
  8
OUTER_FOOT_-_FRONT_STRIP
 10
4.4931159120942041
 20
6.6276805017286691
 30
0.0
 11
8.0101159120942071
 21
6.6276805017286691
 31
0.0
  0
LINE
  5
2C
  8
OUTER_FOOT_-_FRONT_STRIP
 10
4.6716344129369674
 20
2.6324973588845171
 30
0.0
 11
7.9225899698179907
 21
2.6324973588845171
 31
0.0
  0
LINE
  5
2D
  8
OUTER_FOOT_-_FRONT_STRIP
 10
4.4931159120942041
 20
2.5074973588845162
 30
0.0
 11
8.0101159120942071
 21
2.5074973588845162
 31
0.0
  0
LINE
  5
2E
  8
OUTER_FOOT_-_FRONT_STRIP
 10
8.0101159120942071
 20
2.5074973588845162
 30
0.0
 11
7.9225899698179907
 21
2.6324973588845171
 31
0.0
  0
LINE
  5
2F
  8
OUTER_FOOT_-_FRONT_STRIP
 10
4.4931159120942041
 20
6.6276805017286691
 30
0.0
 11
4.4931159120942041
 21
7.6276805017286691
 31
0.0
  0
LINE
  5
30
  8
OUTER_FOOT_-_FRONT_STRIP
 10
8.0101159120942071
 20
6.6276805017286691
 30
0.0
 11
8.0101159120942071
 21
7.6276805017286691
 31
0.0
  0
LINE
  5
31
  8
OUTER_FOOT_-_FRONT_STRIP
 10
4.6716344129369674
 20
6.6276805017286691
 30
0.0
 11
4.6716344129369674
 21
7.6276805017286691
 31
0.0
  0
LINE
  5
32
  8
OUTER_FOOT_-_FRONT_STRIP
 10
7.9225899698179907
 20
6.6276805017286691
 30
0.0
 11
7.9225899698179907
 21
7.6276805017286691
 31
0.0
  0
LINE
  5
CB
  8
DIMENSIONS
 10
8.0101159120942071
 20
2.5699973588845162
 30
0.0
 11
8.0101159120942071
 21
3.966880605344417
 31
0.0
  0
LINE
  5
CC
  8
DIMENSIONS
 10
7.8867414425460458
 20
2.683694361652579
 30
0.0
 11
7.1730480703193029
 21
3.7029541286232428
 31
0.0
  0
ARC
  5
CD
  8
DIMENSIONS
 10
8.0101159120942071
 20
2.5074973588845162
 30
0.0
 40
1.396883246459901
 50
69.380474280149201
 51
89.999999999999986
  0
LINE
  5
CE
  8
DIMENSIONS
 10
8.5020431905026896
 20
3.8148956750062619
 30
0.0
 11
8.7520431905026896
 21
3.8148956750062628
 31
0.0
  0
ARC
  5
CF
  8
DIMENSIONS
 10
8.0101159120942071
 20
2.5074973588845162
 30
0.0
 40
1.396883246459901
 50
69.464095150939201
 51
79.732047575469579
  0
ARC
  5
D0
  8
DIMENSIONS
 10
8.0101159120942071
 20
2.5074973588845162
 30
0.0
 40
1.396883246459901
 50
135.26795242453079
 51
145.53590484906121
  0
SOLID
  5
D1
  8
DIMENSIONS
 10
8.2553844173941968
 20
3.840509865415866
 30
0.0
 11
8.2628414949223696
 21
3.9235088801038911
 31
0.0
 12
8.0101159120942071
 22
3.9043806053444161
 32
0.0
 13
8.0101159120942071
 23
3.9043806053444161
 33
0.0
  0
SOLID
  5
D2
  8
DIMENSIONS
 10
6.9909043921033378
 20
3.522468652054803
 30
0.0
 11
7.0446191514703784
 21
3.4587570434533421
 31
0.0
 12
7.2088965975912407
 22
3.6517571258551822
 32
0.0
 13
7.2088965975912407
 23
3.6517571258551822
 33
0.0
  0
TEXT
  5
DC
  8
DIMENSIONS
 10
8.8145431905026825
 20
3.6898956750062619
 30
0.0
 40
0.25
  1
35°
  0
LINE
  5
EF
  8
DIMENSIONS
 10
4.7228314157050297
 20
2.6683458861564571
 30
0.0
 11
5.7273673142440984
 21
3.3717294947157761
 31
0.0
  0
LINE
  5
F0
  8
DIMENSIONS
 10
4.4931159120942041
 20
2.5699973588845162
 30
0.0
 11
4.4931159120942041
 21
4.0142401067723039
 31
0.0
  0
ARC
  5
F1
  8
DIMENSIONS
 10
4.4931159120942041
 20
2.5074973588845171
 30
0.0
 40
1.4442427478877871
 50
44.930386627934901
 51
49.216659345144478
  0
ARC
  5
F2
  8
DIMENSIONS
 10
4.4931159120942041
 20
2.5074973588845171
 30
0.0
 40
1.4442427478877871
 50
76.282826833211089
 51
80.069613372065106
  0
SOLID
  5
F3
  8
DIMENSIONS
 10
5.547524562928202
 20
3.5542530867532331
 30
0.0
 11
5.4836549971277364
 21
3.5007262429372101
 31
0.0
 12
5.6761703114760351
 22
3.3358809674438361
 32
0.0
 13
5.6761703114760351
 23
3.3358809674438361
 33
0.0
  0
SOLID
  5
F4
  8
DIMENSIONS
 10
4.7385715044528851
 20
3.8885921591337529
 30
0.0
 11
4.745784050045998
 21
3.9716127808521642
 31
0.0
 12
4.4931159120942041
 22
3.9517401067723039
 32
0.0
 13
4.4931159120942041
 23
3.9517401067723039
 33
0.0
  0
TEXT
  5
F6
  8
DIMENSIONS
 10
4.8980882362013807
 20
3.6635563220000691
 30
0.0
 40
0.25
  1
55°
  0
LINE
  5
F7
  8
DIMENSIONS
 10
8.0101159120942071
 20
6.5651805017286691
 30
0.0
 11
8.0101159120942071
 21
5.0651805017286691
 31
0.0
  0
LINE
  5
F8
  8
DIMENSIONS
 10
4.4931159120942041
 20
6.5651805017286691
 30
0.0
 11
4.4931159120942041
 21
5.0651805017286691
 31
0.0
  0
LINE
  5
F9
  8
DIMENSIONS
 10
7.7601159120942071
 20
5.1276805017286691
 30
0.0
 11
6.7903063882846757
 21
5.1276805017286691
 31
0.0
  0
LINE
  5
FA
  8
DIMENSIONS
 10
4.7431159120942041
 20
5.1276805017286691
 30
0.0
 11
5.7129254359037267
 21
5.1276805017286691
 31
0.0
  0
SOLID
  5
FB
  8
DIMENSIONS
 10
7.7601159120942071
 20
5.169347168395336
 30
0.0
 11
7.7601159120942071
 21
5.0860138350620021
 31
0.0
 12
8.0101159120942071
 22
5.1276805017286691
 32
0.0
 13
8.0101159120942071
 23
5.1276805017286691
 33
0.0
  0
SOLID
  5
FC
  8
DIMENSIONS
 10
4.7431159120942041
 20
5.169347168395336
 30
0.0
 11
4.7431159120942041
 21
5.0860138350620021
 31
0.0
 12
4.4931159120942041
 22
5.1276805017286691
 32
0.0
 13
4.4931159120942041
 23
5.1276805017286691
 33
0.0
  0
LINE
  5
FE
  8
DIMENSIONS
 10
11.065040749159269
 20
6.6276805017286691
 30
0.0
 11
11.815040749159269
 21
6.6276805017286691
 31
0.0
  0
LINE
  5
FF
  8
DIMENSIONS
 10
11.065040749159269
 20
7.6276805017286691
 30
0.0
 11
11.815040749159269
 21
7.6276805017286691
 31
0.0
  0
LINE
  5
100
  8
DIMENSIONS
 10
11.752540749159269
 20
6.3776805017286691
 30
0.0
 11
11.752540749159269
 21
6.1276805017286691
 31
0.0
  0
LINE
  5
101
  8
DIMENSIONS
 10
11.752540749159269
 20
7.8776805017286691
 30
0.0
 11
11.752540749159269
 21
8.1276805017286691
 31
0.0
  0
SOLID
  5
102
  8
DIMENSIONS
 10
11.710874082492611
 20
6.3776805017286691
 30
0.0
 11
11.79420741582593
 21
6.3776805017286691
 31
0.0
 12
11.752540749159269
 22
6.6276805017286691
 32
0.0
 13
11.752540749159269
 23
6.6276805017286691
 33
0.0
  0
SOLID
  5
103
  8
DIMENSIONS
 10
11.710874082492611
 20
7.8776805017286691
 30
0.0
 11
11.79420741582593
 21
7.8776805017286691
 31
0.0
 12
11.752540749159269
 22
7.6276805017286691
 32
0.0
 13
11.752540749159269
 23
7.6276805017286691
 33
0.0
  0
TEXT
  5
105
  8
DIMENSIONS
 10
5.7754254359037267
 20
5.0026805017286691
 30
0.0
 40
0.25
  1
3.517
  0
TEXT
  5
106
  8
DIMENSIONS
 10
11.2763502729688
 20
7.00268050172867
 30
0.0
 40
0.25
  1
1.000
  0
LINE
  5
107
  8
OUTER_FOOT_-_FRONT_STRIP
 10
10.877540749159269
 20
7.6276805017286691
 30
0.0
 11
11.002540749159269
 21
7.6276805017286691
 31
0.0
  0
LINE
  5
108
  8
OUTER_FOOT_-_FRONT_STRIP
 10
10.877540749159269
 20
6.6276805017286691
 30
0.0
 11
11.002540749159269
 21
6.6276805017286691
 31
0.0
  0
LINE
  5
109
  8
OUTER_FOOT_-_FRONT_STRIP
 10
10.877540749159269
 20
6.6276805017286691
 30
0.0
 11
10.877540749159269
 21
7.6276805017286691
 31
0.0
  0
LINE
  5
10A
  8
OUTER_FOOT_-_FRONT_STRIP
 10
11.002540749159269
 20
6.6276805017286691
 30
0.0
 11
11.002540749159269
 21
7.6276805017286691
 31
0.0
  0
LINE
  5
119
  8
DIMENSIONS
 10
10.877540749159269
 20
6.5651805017286691
 30
0.0
 11
10.877540749159269
 21
5.8151805017286691
 31
0.0
  0
LINE
  5
11A
  8
DIMENSIONS
 10
11.002540749159269
 20
6.5651805017286691
 30
0.0
 11
11.002540749159269
 21
5.8151805017286691
 31
0.0
  0
LINE
  5
11B
  8
DIMENSIONS
 10
10.627540749159269
 20
5.8776805017286691
 30
0.0
 11
10.377540749159269
 21
5.8776805017286691
 31
0.0
  0
LINE
  5
11C
  8
DIMENSIONS
 10
11.252540749159269
 20
5.8776805017286691
 30
0.0
 11
11.502540749159269
 21
5.8776805017286691
 31
0.0
  0
SOLID
  5
11D
  8
DIMENSIONS
 10
10.627540749159269
 20
5.919347168395336
 30
0.0
 11
10.627540749159269
 21
5.8360138350620021
 31
0.0
 12
10.877540749159269
 22
5.8776805017286691
 32
0.0
 13
10.877540749159269
 23
5.8776805017286691
 33
0.0
  0
SOLID
  5
11E
  8
DIMENSIONS
 10
11.252540749159269
 20
5.919347168395336
 30
0.0
 11
11.252540749159269
 21
5.8360138350620021
 31
0.0
 12
11.002540749159269
 22
5.8776805017286691
 32
0.0
 13
11.002540749159269
 23
5.8776805017286691
 33
0.0
  0
TEXT
  5
120
  8
DIMENSIONS
 10
11.565040749159269
 20
5.7526805017286691
 30
0.0
 40
0.25
  1
0.125
  0
LINE
  5
265
  8
OUTER_FOOT_-_FRONT_STRIP
 10
5.4221159120942062
 20
7.0236506877629941
 30
0.0
 11
5.4221159120942062
 21
7.2317103156943432
 31
0.0
  0
LINE
  5
266
  8
OUTER_FOOT_-_FRONT_STRIP
 10
7.1721159120942062
 20
7.0236506877629941
 30
0.0
 11
7.1721159120942062
 21
7.2317103156943432
 31
0.0
  0
LINE
  5
269
  8
0
 10
7.2761457260598803
 20
7.1276805017286691
 30
0.0
 11
7.0680860981285321
 21
7.1276805017286691
 31
0.0
  0
LINE
  5
26A
  8
0
 10
5.5261457260598803
 20
7.1276805017286691
 30
0.0
 11
5.3180860981285321
 21
7.1276805017286691
 31
0.0
  0
LINE
  5
296
  8
DIMENSIONS
 10
5.4221159120942062
 20
6.9611506877629941
 30
0.0
 11
5.4221159120942062
 21
5.8151805017286691
 31
0.0
  0
LINE
  5
297
  8
DIMENSIONS
 10
4.4931159120942041
 20
6.5651805017286691
 30
0.0
 11
4.4931159120942041
 21
5.8151805017286691
 31
0.0
  0
LINE
  5
299
  8
DIMENSIONS
 10
4.2431159120942041
 20
5.8776805017286691
 30
0.0
 11
3.9931159120942041
 21
5.8776805017286691
 31
0.0
  0
SOLID
  5
29B
  8
DIMENSIONS
 10
4.2431159120942041
 20
5.919347168395336
 30
0.0
 11
4.2431159120942041
 21
5.8360138350620021
 31
0.0
 12
4.4931159120942041
 22
5.8776805017286691
 32
0.0
 13
4.4931159120942041
 23
5.8776805017286691
 33
0.0
  0
LINE
  5
29D
  8
DIMENSIONS
 10
7.1721159120942062
 20
6.9611506877629941
 30
0.0
 11
7.1721159120942062
 21
5.8151805017286691
 31
0.0
  0
LINE
  5
29E
  8
DIMENSIONS
 10
8.0101159120942071
 20
6.5651805017286691
 30
0.0
 11
8.0101159120942071
 21
5.8151805017286691
 31
0.0
  0
LINE
  5
2A0
  8
DIMENSIONS
 10
8.2601159120942071
 20
5.8776805017286691
 30
0.0
 11
8.5101159120942071
 21
5.8776805017286691
 31
0.0
  0
SOLID
  5
2A2
  8
DIMENSIONS
 10
8.2601159120942071
 20
5.919347168395336
 30
0.0
 11
8.2601159120942071
 21
5.8360138350620021
 31
0.0
 12
8.0101159120942071
 22
5.8776805017286691
 32
0.0
 13
8.0101159120942071
 23
5.8776805017286691
 33
0.0
  0
LINE
  5
2A4
  8
DIMENSIONS
 10
7.1721159120942062
 20
6.9611506877629941
 30
0.0
 11
7.1721159120942062
 21
5.8151805017286691
 31
0.0
  0
LINE
  5
2A5
  8
DIMENSIONS
 10
5.4221159120942062
 20
6.9611506877629941
 30
0.0
 11
5.4221159120942062
 21
5.8151805017286691
 31
0.0
  0
LINE
  5
2A6
  8
DIMENSIONS
 10
6.9221159120942062
 20
5.8776805017286691
 30
0.0
 11
6.8358063882846798
 21
5.8776805017286691
 31
0.0
  0
LINE
  5
2A7
  8
DIMENSIONS
 10
5.6721159120942062
 20
5.8776805017286691
 30
0.0
 11
5.7584254359037308
 21
5.8776805017286691
 31
0.0
  0
SOLID
  5
2A8
  8
DIMENSIONS
 10
6.9221159120942062
 20
5.919347168395336
 30
0.0
 11
6.9221159120942062
 21
5.8360138350620021
 31
0.0
 12
7.1721159120942062
 22
5.8776805017286691
 32
0.0
 13
7.1721159120942062
 23
5.8776805017286691
 33
0.0
  0
SOLID
  5
2A9
  8
DIMENSIONS
 10
5.6721159120942062
 20
5.919347168395336
 30
0.0
 11
5.6721159120942062
 21
5.8360138350620021
 31
0.0
 12
5.4221159120942062
 22
5.8776805017286691
 32
0.0
 13
5.4221159120942062
 23
5.8776805017286691
 33
0.0
  0
TEXT
  5
2AB
  8
DIMENSIONS
 10
2.9425206739989629
 20
5.7526805017286691
 30
0.0
 40
0.25
  1
0.929
  0
TEXT
  5
2AC
  8
DIMENSIONS
 10
8.5726159120942071
 20
5.7526805017286691
 30
0.0
 40
0.25
  1
0.838
  0
TEXT
  5
2AD
  8
DIMENSIONS
 10
5.8209254359037308
 20
5.7526805017286691
 30
0.0
 40
0.25
  1
1.750
  0
LINE
  5
2BD
  8
DIMENSIONS
 10
8.0726159120942071
 20
6.6276805017286691
 30
0.0
 11
8.8226159120942
 21
6.6276805017286691
 31
0.0
  0
LINE
  5
2BE
  8
DIMENSIONS
 10
7.3386457260598803
 20
7.1276805017286691
 30
0.0
 11
8.8226159120942071
 21
7.1276805017286691
 31
0.0
  0
LINE
  5
2BF
  8
DIMENSIONS
 10
8.7601159120942
 20
6.3776805017286691
 30
0.0
 11
8.7601159120942
 21
6.1276805017286691
 31
0.0
  0
LINE
  5
2C0
  8
DIMENSIONS
 10
8.7601159120942071
 20
7.3776805017286691
 30
0.0
 11
8.7601159120942071
 21
7.6276805017286691
 31
0.0
  0
SOLID
  5
2C1
  8
DIMENSIONS
 10
8.7184492454275357
 20
6.3776805017286691
 30
0.0
 11
8.8017825787608714
 21
6.3776805017286691
 31
0.0
 12
8.7601159120942
 22
6.6276805017286691
 32
0.0
 13
8.7601159120942
 23
6.6276805017286691
 33
0.0
  0
SOLID
  5
2C2
  8
DIMENSIONS
 10
8.7184492454275357
 20
7.3776805017286691
 30
0.0
 11
8.8017825787608714
 21
7.3776805017286691
 31
0.0
 12
8.7601159120942071
 22
7.1276805017286691
 32
0.0
 13
8.7601159120942071
 23
7.1276805017286691
 33
0.0
  0
TEXT
  5
2C4
  8
DIMENSIONS
 10
8.2601159120942
 20
6.7526805017286691
 30
0.0
 40
0.25
  1
0.500
  0
TEXT
  5
2C8
  8
DIMENSIONS
 10
6.5000945931141336
 20
8.4579901158739794
 30
0.0
 40
0.25
  1
REFERENCE, HOSE
  0
TEXT
  5
2C9
  8
DIMENSIONS
 10
6.5000945931141336
 20
8.0413234492073116
 30
0.0
 40
0.25
  1
FITTING LOCATION
  0
SOLID
  5
2CA
  8
DIMENSIONS
 10
5.5753726529074177
 20
7.3295430354153899
 30
0.0
 11
5.4221159120942062
 21
7.1276805017286691
 31
0.0
 12
5.5016195749110031
 22
7.3683364360203942
 32
0.0
 13
5.5016195749110031
 23
7.3683364360203942
 33
0.0
1001
ACAD
1000
DSTYLE
1002
{
1070
   147
1040
0.0625
1070
    77
1070
     0
1002
}
  0
LINE
  5
2CC
  8
DIMENSIONS
 10
5.5384961139092113
 20
7.3489397357178934
 30
0.0
 11
6.1875945931141336
 21
8.5829901158739794
 31
0.0
1001
ACAD
1000
DSTYLE
1002
{
1070
   147
1040
0.0625
1070
    77
1070
     0
1002
}
  0
LINE
  5
2CD
  8
DIMENSIONS
 10
6.1875945931141336
 20
8.5829901158739794
 30
0.0
 11
6.4375945931141336
 21
8.5829901158739794
 31
0.0
1001
ACAD
1000
DSTYLE
1002
{
1070
   147
1040
0.0625
1070
    77
1070
     0
1002
}
  0
TEXT
  5
696
  8
0
  6
CONTINUOUS
 10
64.253700048636219
 20
14.5523178494217
 30
0.0
 40
0.12
  1
 
 51
7.0
  0
TEXT
  5
697
  8
0
  6
CONTINUOUS
 10
76.697796814116117
 20
21.615192279153352
 30
0.0
 40
0.24
  1
 
 51
7.0
  0
TEXT
  5
698
  8
0
  6
CONTINUOUS
 10
85.907561826029394
 20
21.295182292576271
 30
0.0
 40
0.24
  1
 
 51
7.0
  0
TEXT
  5
699
  8
0
  6
CONTINUOUS
 10
95.711521310462089
 20
4.4326014930489448
 30
0.0
 40
0.24
  1
 
 51
7.0
  0
LINE
  5
755
  8
0
 10
0.0
 20
0.0
 30
0.0
 11
0.0
 21
11.0
 31
0.0
  0
LINE
  5
756
  8
0
 10
17.0
 20
0.0
 30
0.0
 11
17.0
 21
11.0
 31
0.0
  0
LINE
  5
757
  8
0
 10
0.0
 20
0.0
 30
0.0
 11
17.0
 21
0.0
 31
0.0
  0
LINE
  5
758
  8
0
 10
0.0
 20
11.0
 30
0.0
 11
17.0
 21
11.0
 31
0.0
  0
LINE
  5
88B
  8
FORM
 10
16.484147612058631
 20
0.6340090048041951
 30
0.0
 11
16.484147612058631
 21
9.6159909951958085
 31
0.0
  0
LINE
  5
88C
  8
FORM
 10
16.365990995195801
 20
9.7341476120586332
 30
0.0
 11
0.6340090048042164
 21
9.7341476120586332
 31
0.0
  0
LINE
  5
88D
  8
FORM
 10
16.365990995195801
 20
0.5158523879413757
 30
0.0
 11
0.6340090048042164
 21
0.5158523879413686
 31
0.0
  0
LINE
  5
88E
  8
FORM
 10
0.5158523879413864
 20
0.6340090048041951
 30
0.0
 11
0.5158523879413864
 21
9.6159909951958085
 31
0.0
  0
TEXT
  5
88F
  8
FORM
 10
13.86713754159987
 20
2.1089926618780011
 30
0.0
 40
0.2000816148829512
  1
FRONT STRIP
 72
     1
 11
14.824670984254
 21
2.1089926618780011
 31
0.0
  0
TEXT
  5
890
  8
FORM
 10
13.88619293349349
 20
1.685667990169768
 30
0.0
 40
0.2000816148829512
  1
OUTER FOOT
 72
     1
 11
14.824670984254
 21
1.685667990169768
 31
0.0
  0
TEXT
  5
891
  8
FORM
 10
12.951659298779081
 20
0.9164571331179516
 30
0.0
 40
0.2000816148829512
  1
ASTROMECH DROID
  0
TEXT
  5
892
  8
FORM
 10
16.064313823179301
 20
0.9242355691914526
 30
0.0
 40
0.2000816148829512
  1
A
  0
TEXT
  5
893
  8
FORM
 10
13.297344515919219
 20
0.6829097977420595
 30
0.0
 40
0.0800326459531805
  1
FULL
  0
TEXT
  5
894
  8
FORM
 10
15.8616186361924
 20
0.68514995648178
 30
0.0
 40
0.0800326459531805
  1
1   1
  0
TEXT
  5
895
  8
FORM
 10
14.536090933578519
 20
0.6913324136673822
 30
0.0
 40
0.0800326459531805
  1
APRIL 2005
 72
     2
 11
15.22970719850608
 21
0.6913324136673822
 31
0.0
  0
TEXT
  5
896
  8
FORM
  6
CONTINUOUS
 10
13.96119445049923
 20
0.6905272006124755
 30
0.0
 40
0.069148206103548
  1
DRAWN:
  0
TEXT
  5
897
  8
FORM
  6
CONTINUOUS
 10
12.89085133944082
 20
0.6905920449428608
 30
0.0
 40
0.069148206103548
  1
SCALE:
  0
TEXT
  5
898
  8
FORM
  6
CONTINUOUS
 10
15.419759618214149
 20
0.689725495444975
 30
0.0
 40
0.069148206103548
  1
SHEET:   OF
  0
TEXT
  5
899
  8
FORM
  6
CONTINUOUS
 10
12.76457783364566
 20
1.239055808210245
 30
0.0
 40
0.069148206103548
  1
DRAWING NO.
  0
TEXT
  5
89A
  8
FORM
  6
CONTINUOUS
 10
16.03751880559571
 20
1.239055808210235
 30
0.0
 40
0.069148206103548
  1
REV.
 72
     1
 11
16.139594728891421
 21
1.239055808210235
 31
0.0
  0
LINE
  5
89B
  8
FORM
  6
CONTINUOUS
 10
12.874006586966649
 20
2.639306981807088
 30
0.0
 11
16.19312047993693
 21
2.639306981807088
 31
0.0
  0
LINE
  5
89C
  8
FORM
  6
CONTINUOUS
 10
12.701136071707779
 20
0.8068795200630631
 30
0.0
 11
12.701136071707751
 21
2.4664364665482088
 31
0.0
  0
LINE
  5
89D
  8
FORM
  6
CONTINUOUS
 10
12.701136071707779
 20
1.342778117365558
 30
0.0
 11
16.365990995195801
 21
1.342778117365558
 31
0.0
  0
LINE
  5
89E
  8
FORM
  6
CONTINUOUS
 10
12.701136071707779
 20
0.8068795200630631
 30
0.0
 11
16.365990995195801
 21
0.8068795200630631
 31
0.0
  0
LINE
  5
89F
  8
FORM
  6
CONTINUOUS
 10
13.85306862165424
 20
0.8068795200630631
 30
0.0
 11
13.85306862165424
 21
0.6340090048041951
 31
0.0
  0
LINE
  5
8A0
  8
FORM
  6
CONTINUOUS
 10
15.367898463636489
 20
0.8047514437619511
 30
0.0
 11
15.367898463636489
 21
0.6318809285030831
 31
0.0
  0
LINE
  5
8A1
  8
FORM
  6
CONTINUOUS
 10
15.90921047827166
 20
1.342778117365558
 30
0.0
 11
15.90921047827166
 21
0.8068795200630631
 31
0.0
  0
ARC
  5
8A2
  8
FORM
 62
     5
 10
13.04477686979633
 20
2.1186824869621002
 30
0.0
 40
0.0188534434600954
 50
152.18113099770559
 51
330.99098814993278
  0
ARC
  5
8A3
  8
FORM
 62
     5
 10
13.126386197321329
 20
2.2758441071602951
 30
0.0
 40
0.0165314742043987
 50
335.32315363464198
 51
152.67224926330371
  0
ARC
  5
8A4
  8
FORM
 62
     5
 10
14.38557424794738
 20
1.5001984443608301
 30
0.0
 40
1.495397362786747
 50
148.41494327216151
 51
155.19852313243231
  0
ARC
  5
8A5
  8
FORM
 62
     5
 10
14.67501980856775
 20
1.3980394513723831
 30
0.0
 40
1.763643078824644
 50
150.40875710206339
 51
156.20744757951141
  0
ARC
  5
8A6
  8
FORM
 62
     7
 10
12.991464018212749
 20
1.9602931191640911
 30
0.0
 40
0.0251922474207515
 50
161.128725237971
 51
346.89295927401372
  0
ARC
  5
8A7
  8
FORM
 62
     7
 10
20.35736643066603
 20
-1.2212613690260521
 30
0.0
 40
7.9988518948410858
 50
153.58307292081309
 51
156.60691138966209
  0
ARC
  5
8A8
  8
FORM
 62
     7
 10
19.202101625995549
 20
-0.8056564218828584
 30
0.0
 40
6.8151207749529688
 50
152.34095999775931
 51
152.9694116127464
  0
ARC
  5
8A9
  8
FORM
 62
     7
 10
19.278496529666569
 20
-1.0276374460023261
 30
0.0
 40
6.9859556428572267
 50
153.3711283527573
 51
154.60402195655351
  0
ARC
  5
8AA
  8
FORM
 62
     7
 10
13.354898158324501
 20
2.2547307595741688
 30
0.0
 40
0.1811261457171982
 50
23.468725928191049
 51
88.151617587883351
  0
ARC
  5
8AB
  8
FORM
 62
     7
 10
13.358946198540719
 20
2.26640791111162
 30
0.0
 40
0.2137794625736775
 50
18.232625295665532
 51
154.63608874642691
  0
ARC
  5
8AC
  8
FORM
 62
     7
 10
13.42299689775896
 20
2.288690536149864
 30
0.0
 40
0.1459771228480954
 50
336.99722732837893
 51
341.11190659806488
  0
ARC
  5
8AD
  8
FORM
 62
     7
 10
13.431679155771841
 20
2.2951464111902951
 30
0.0
 40
0.0956104813627528
 50
333.24704424527522
 51
339.12675173356178
  0
ARC
  5
8AE
  8
FORM
 62
     7
 10
13.522113095579609
 20
2.2499998156227639
 30
0.0
 40
0.0054797286924766
 50
157.37475902115841
 51
243.18317341424029
  0
ARC
  5
8AF
  8
FORM
 62
     7
 10
13.55447854642312
 20
2.2324989823066552
 30
0.0
 40
0.0030114991132884
 50
246.74236679857631
 51
343.55073793579641
  0
ARC
  5
8B0
  8
FORM
 62
     7
 10
13.649242515218971
 20
2.4842002985944158
 30
0.0
 40
0.271957738005823
 50
241.5396617947477
 51
249.33988332022491
  0
ARC
  5
8B1
  8
FORM
 62
     7
 10
13.4591325891842
 20
2.1957947984781958
 30
0.0
 40
0.0536868574507958
 50
210.28645373052609
 51
287.25915125833183
  0
ARC
  5
8B2
  8
FORM
 62
     7
 10
13.46374548958414
 20
2.1725786804623719
 30
0.0
 40
0.0302495516891243
 50
291.96730232828992
 51
10.20108836223371
  0
ARC
  5
8B3
  8
FORM
 62
     7
 10
13.224677527813469
 20
2.120840346952654
 30
0.0
 40
0.1940937119913158
 50
14.28109924276106
 51
24.947261539878259
  0
ARC
  5
8B4
  8
FORM
 62
     7
 10
13.33788450797635
 20
2.1796295366011149
 30
0.0
 40
0.0668841061965828
 50
20.183063788867599
 51
47.833846572520173
  0
ARC
  5
8B5
  8
FORM
 62
     7
 10
13.350388234890611
 20
2.1457512828194529
 30
0.0
 40
0.089519691428821
 50
68.784960310907394
 51
94.742087985452599
  0
ARC
  5
8B6
  8
FORM
 62
     7
 10
13.34941423143124
 20
2.1986562466492421
 30
0.0
 40
0.036872673284197
 50
100.0375073429591
 51
170.98475346238999
  0
ARC
  5
8B7
  8
FORM
 62
     7
 10
13.52284968491537
 20
2.1731683782493638
 30
0.0
 40
0.2121689656157903
 50
171.52589863719891
 51
197.49474109667489
  0
ARC
  5
8B8
  8
FORM
 62
     7
 10
13.379928076702869
 20
2.1761701253644778
 30
0.0
 40
0.1136025122223039
 50
0.8906501289532242
 51
49.113860192417171
  0
ARC
  5
8B9
  8
FORM
 62
     7
 10
13.355995808337299
 20
2.1970071573261332
 30
0.0
 40
0.0894129368447451
 50
99.869748807366761
 51
175.59516845025641
  0
ARC
  5
8BA
  8
FORM
 62
     7
 10
13.37211801256317
 20
2.1485244043259861
 30
0.0
 40
0.1401464035212747
 50
54.104282451028169
 51
102.9674010870567
  0
ARC
  5
8BB
  8
FORM
 62
     7
 10
13.76765204168187
 20
2.2319085392940821
 30
0.0
 40
0.4636392383612588
 50
195.32307896217739
 51
209.290843156958
  0
ARC
  5
8BC
  8
FORM
 62
     7
 10
13.62176921197093
 20
2.1558888844703752
 30
0.0
 40
0.358151365974493
 50
172.3003020759547
 51
200.12627387409299
  0
ARC
  5
8BD
  8
FORM
 62
     7
 10
13.87784050643449
 20
2.2558495792130411
 30
0.0
 40
0.6330076434458865
 50
200.64629086238159
 51
210.0464960904439
  0
ARC
  5
8BE
  8
FORM
 62
     7
 10
13.00584297217528
 20
1.7651942952909601
 30
0.0
 40
0.4304787001033431
 50
28.43194910738432
 51
33.865461133002448
  0
ARC
  5
8BF
  8
FORM
 62
     7
 10
13.35941745510968
 20
1.950567856294313
 30
0.0
 40
0.0317424459006294
 50
201.56446042640411
 51
38.094090168146302
  0
ARC
  5
8C0
  8
FORM
 62
     5
 10
13.6383660618074
 20
2.2142819182737798
 30
0.0
 40
0.0176569498803825
 50
227.6202696593605
 51
57.412112921204063
  0
ARC
  5
8C1
  8
FORM
 62
     5
 10
13.430127955313081
 20
1.9426310314385331
 30
0.0
 40
0.359878468651919
 50
52.766851639305898
 51
65.063571515457895
  0
ARC
  5
8C2
  8
FORM
 62
     5
 10
13.262610214247269
 20
1.682901505973134
 30
0.0
 40
0.6332957988855307
 50
54.932512589538817
 51
74.152868438598915
  0
ARC
  5
8C3
  8
FORM
 62
     5
 10
13.271741224914511
 20
1.4946303420398119
 30
0.0
 40
0.8141464353032019
 50
78.393012355262385
 51
89.647961077025343
  0
ARC
  5
8C4
  8
FORM
 62
     5
 10
13.27537529177442
 20
2.3323914188280241
 30
0.0
 40
0.0236695866834528
 50
183.9979944211656
 51
273.313807745882
  0
ARC
  5
8C5
  8
FORM
 62
     5
 10
13.35526085930606
 20
2.3386443488409041
 30
0.0
 40
0.103798865281065
 50
145.60859166919269
 51
184.36670732083459
  0
ARC
  5
8C6
  8
FORM
 62
     5
 10
13.291396665717601
 20
2.3834953579566038
 30
0.0
 40
0.0257815152583025
 50
75.244714174009715
 51
147.6929850116162
  0
ARC
  5
8C7
  8
FORM
 62
     5
 10
12.984074694810539
 20
1.2040798567959881
 30
0.0
 40
1.244579080947225
 50
61.637242241525243
 51
75.392005557716701
  0
ARC
  5
8C8
  8
FORM
 62
     5
 10
13.551797825772001
 20
2.2783236912083922
 30
0.0
 40
0.0314839568879094
 50
342.6982574268402
 51
41.67278378767756
  0
ARC
  5
8C9
  8
FORM
 62
     7
 10
13.42299689775896
 20
2.288690536149864
 30
0.0
 40
0.1459771228480954
 50
5.6380312699922799
 51
17.791456368736839
  0
ARC
  5
8CA
  8
FORM
 62
     7
 10
13.489427342601051
 20
1.6007999024493449
 30
0.0
 40
0.046711457312993
 50
88.432533024773406
 51
186.62631613112151
  0
ARC
  5
8CB
  8
FORM
 62
     7
 10
13.49675858432429
 20
1.6105396663507321
 30
0.0
 40
0.0558202426388025
 50
195.7266305128272
 51
285.3806868435185
  0
ARC
  5
8CC
  8
FORM
 62
     7
 10
13.43093130756249
 20
2.1045278917162409
 30
0.0
 40
0.5537116491995469
 50
278.37329371359459
 51
293.15208507016871
  0
ARC
  5
8CD
  8
FORM
 62
     7
 10
13.61670164249148
 20
1.756019172507965
 30
0.0
 40
0.1142007584316564
 50
257.51805604168283
 51
277.23103351305667
  0
ARC
  5
8CE
  8
FORM
 62
     7
 10
13.62310455387666
 20
1.6622018832727781
 30
0.0
 40
0.0210435172471391
 50
292.26031345923337
 51
12.867379300523719
  0
ARC
  5
8CF
  8
FORM
 62
     7
 10
13.607457700436219
 20
1.659184975616895
 30
0.0
 40
0.036973292087752
 50
12.02537552739555
 51
52.143631645159331
  0
ARC
  5
8D0
  8
FORM
 62
     7
 10
14.395818732714821
 20
2.6172173020938132
 30
0.0
 40
1.2037424972589701
 50
219.60277928185971
 51
230.5002020408055
  0
ARC
  5
8D1
  8
FORM
 62
     7
 10
13.652733275951681
 20
1.9941623012201211
 30
0.0
 40
0.2341213247689704
 50
175.97523115435061
 51
218.04500009534141
  0
ARC
  5
8D2
  8
FORM
 62
     7
 10
13.55350038114107
 20
2.0176722641953471
 30
0.0
 40
0.1344973861223784
 50
149.96078860476399
 51
183.01641230856191
  0
ARC
  5
8D3
  8
FORM
 62
     7
 10
13.45954366164081
 20
2.07299932292015
 30
0.0
 40
0.0254789098120269
 50
69.764209445538683
 51
151.8988190455112
  0
ARC
  5
8D4
  8
FORM
 62
     7
 10
13.456537680486679
 20
2.07126747983376
 30
0.0
 40
0.0282311150502572
 50
357.6694469744499
 51
65.251102439515435
  0
ARC
  5
8D5
  8
FORM
 62
     7
 10
13.39001888680861
 20
2.0658085316276411
 30
0.0
 40
0.0948246006914946
 50
345.36193237678458
 51
2.6056939300727819
  0
ARC
  5
8D6
  8
FORM
 62
     7
 10
13.693893794908741
 20
1.9762560830929199
 30
0.0
 40
0.2220366937229542
 50
162.8186183088072
 51
185.35496664157321
  0
ARC
  5
8D7
  8
FORM
 62
     7
 10
13.669140261081489
 20
1.998529790474858
 30
0.0
 40
0.2009672573467367
 50
192.35349941930221
 51
222.3020476696033
  0
ARC
  5
8D8
  8
FORM
 62
     7
 10
14.361464293309529
 20
2.5566616734304008
 30
0.0
 40
1.0899567634416629
 50
219.50633019139829
 51
228.42762303996261
  0
ARC
  5
8D9
  8
FORM
 62
     7
 10
13.52059955021468
 20
1.580976331006358
 30
0.0
 40
0.1987901636968699
 50
32.971129457978869
 51
53.728419363024337
  0
ARC
  5
8DA
  8
FORM
 62
     7
 10
13.62839485959608
 20
1.6586520589902769
 30
0.0
 40
0.0664025030626794
 50
287.74749415951351
 51
27.35211189662947
  0
ARC
  5
8DB
  8
FORM
 62
     7
 10
13.529048378339979
 20
1.226832417800729
 30
0.0
 40
0.4224053434052901
 50
81.426570944510203
 51
95.208118001959775
  0
ARC
  5
8DC
  8
FORM
 62
     7
 10
13.34671426349607
 20
1.8852888198072
 30
0.0
 40
0.0188048406500912
 50
325.52447187114308
 51
75.340502228459783
  0
ARC
  5
8DD
  8
FORM
 62
     7
 10
13.323545284373109
 20
1.9022998550377319
 30
0.0
 40
0.0475424544875808
 50
277.78730616127859
 51
324.42957968808531
  0
ARC
  5
8DE
  8
FORM
 62
     7
 10
13.31513732931408
 20
1.9102064416359139
 30
0.0
 40
0.0569796604055946
 50
243.48581874200181
 51
285.1065744639306
  0
ARC
  5
8DF
  8
FORM
 62
     7
 10
10.79491880453288
 20
-4.5297384066513864
 30
0.0
 40
6.9225926661188568
 50
68.327181839257534
 51
70.606105230637283
  0
ARC
  5
8E0
  8
FORM
 62
     7
 10
13.088750851780709
 20
1.9797766195403339
 30
0.0
 40
0.0208571569832622
 50
76.445232091872299
 51
134.36352227876461
  0
ARC
  5
8E1
  8
FORM
 62
     7
 10
13.18148225369479
 20
1.8371029743830929
 30
0.0
 40
0.1906553367366958
 50
124.2547762008316
 51
135.012931962436
  0
ARC
  5
8E2
  8
FORM
 62
     7
 10
13.050217459593449
 20
1.9658216530568851
 30
0.0
 40
0.0070420521886436
 50
120.5491196217084
 51
251.48388650457539
  0
ARC
  5
8E3
  8
FORM
 62
     7
 10
12.102609582274271
 20
-0.6700542757339605
 30
0.0
 40
2.793995635460623
 50
64.85742894317822
 51
67.515132469299331
  0
ARC
  5
8E4
  8
FORM
 62
     7
 10
13.28316177556187
 20
1.818135413693315
 30
0.0
 40
0.0263792990891666
 50
329.18566117941782
 51
69.527151249863806
  0
ARC
  5
8E5
  8
FORM
 62
     7
 10
13.21395759371225
 20
1.7136090610551411
 30
0.0
 40
0.1511761169714233
 50
58.747973844557563
 51
81.106226592028094
  0
ARC
  5
8E6
  8
FORM
 62
     7
 10
13.19787604286341
 20
1.61339171735872
 30
0.0
 40
0.252675078733898
 50
81.016817915507374
 51
97.679603827268224
  0
ARC
  5
8E7
  8
FORM
 62
     7
 10
13.224469861585421
 20
1.689321576498183
 30
0.0
 40
0.1874269998684321
 50
121.5050128230593
 51
139.09578810607039
  0
ARC
  5
8E8
  8
FORM
 62
     7
 10
13.2753523157097
 20
1.814111852132068
 30
0.0
 40
0.0319085550486712
 50
277.70569210516868
 51
342.69880024124109
  0
ARC
  5
8E9
  8
FORM
 62
     7
 10
13.265559284055019
 20
1.850115817382906
 30
0.0
 40
0.0690728861222022
 50
250.08394506358289
 51
281.75453717228322
  0
ARC
  5
8EA
  8
FORM
 62
     7
 10
13.28812677519262
 20
1.858046081840345
 30
0.0
 40
0.0862278718518301
 50
221.18187885427241
 51
237.68378775985289
  0
ARC
  5
8EB
  8
FORM
 62
     7
 10
13.186997271384399
 20
1.7580832213708599
 30
0.0
 40
0.0563721321250733
 50
50.003848755011681
 51
75.5416830098399
  0
ARC
  5
8EC
  8
FORM
 62
     7
 10
13.18401561001931
 20
1.7785159196435201
 30
0.0
 40
0.0381762196213393
 50
63.4626603498468
 51
100.74200229027051
  0
ARC
  5
8ED
  8
FORM
 62
     7
 10
13.17690006288543
 20
1.751426588373806
 30
0.0
 40
0.064596567019134
 50
89.999999999999588
 51
125.5974615489027
  0
ARC
  5
8EE
  8
FORM
 62
     7
 10
13.943169967455511
 20
2.2123980959706131
 30
0.0
 40
0.8938000416812776
 50
197.51922498184919
 51
203.981481444731
  0
ARC
  5
8EF
  8
FORM
 62
     7
 10
12.899912187086739
 20
1.927111329637615
 30
0.0
 40
0.271677852932892
 50
346.52409876011302
 51
356.71498770316703
  0
ARC
  5
8F0
  8
FORM
 62
     7
 10
12.102609582274271
 20
-0.6700542757339605
 30
0.0
 40
2.793995635460623
 50
69.286600818944052
 51
70.22311760076802
  0
ARC
  5
8F1
  8
FORM
 62
     7
 10
13.04653800572463
 20
1.690640188859845
 30
0.0
 40
0.0819272792495905
 50
245.40259669902051
 51
275.40975098180542
  0
ARC
  5
8F2
  8
FORM
 62
     7
 10
13.33381080734401
 20
1.5428085262683771
 30
0.0
 40
0.3256233144805797
 50
126.68044463040199
 51
139.78708822539889
  0
ARC
  5
8F3
  8
FORM
 62
     7
 10
13.04500540091828
 20
1.9210927562931019
 30
0.0
 40
0.3121522132917629
 50
271.69929119420118
 51
283.39540842056908
  0
ARC
  5
8F4
  8
FORM
 62
     7
 10
13.628698166662589
 20
1.200712293569552
 30
0.0
 40
0.7749277189646824
 50
134.5410403491789
 51
138.91474429089899
  0
ARC
  5
8F5
  8
FORM
 62
     7
 10
13.05784989606523
 20
1.6989639079203509
 30
0.0
 40
0.0205005733572468
 50
201.8252958964795
 51
267.16449786715452
  0
ARC
  5
8F6
  8
FORM
 62
     7
 10
13.05343659707826
 20
1.697018971721679
 30
0.0
 40
0.0156813934122129
 50
124.254854327418
 51
201.22329273937871
  0
ARC
  5
8F7
  8
FORM
 62
     7
 10
13.10118501969685
 20
1.684260473122293
 30
0.0
 40
0.068748292490709
 50
283.5751770312794
 51
324.58969283639942
  0
ARC
  5
8F8
  8
FORM
 62
     7
 10
13.14039356000154
 20
1.6515176982048621
 30
0.0
 40
0.0182566773696035
 50
337.14160324238759
 51
47.56496670892831
  0
ARC
  5
8F9
  8
FORM
 62
     7
 10
13.112292844989749
 20
1.6113715022507791
 30
0.0
 40
0.0671482106790479
 50
52.990730681111657
 51
91.748895977531376
  0
ARC
  5
8FA
  8
FORM
 62
     7
 10
13.08353964605875
 20
1.8607804106031369
 30
0.0
 40
0.1842375159526987
 50
261.66603807207321
 51
278.33396192792679
  0
ARC
  5
8FB
  8
FORM
 62
     7
 10
13.02822719754589
 20
1.655671440092024
 30
0.0
 40
0.0425616210629247
 50
192.64550774538381
 51
248.2223967256862
  0
ARC
  5
8FC
  8
FORM
 62
     7
 10
13.017766749099581
 20
1.660493121495527
 30
0.0
 40
0.0341348066426429
 50
178.88427582775461
 51
204.46998391858139
  0
ARC
  5
8FD
  8
FORM
 62
     7
 10
13.10220733902673
 20
1.651866477753827
 30
0.0
 40
0.1189324110130265
 50
140.54690015149379
 51
175.5193383191162
  0
ARC
  5
8FE
  8
FORM
 62
     7
 10
14.273651263450629
 20
0.7191778149149535
 30
0.0
 40
1.6163120713229819
 50
137.45643980933039
 51
141.40545593619069
  0
POLYLINE
  5
8FF
  8
FORM
 62
     1
 10
13.313597500211122
 20
2.3929838907158456
 30
0.0
 66
     1
 70
     8
  0
VERTEX
  8
FORM
  5
A17
 10
13.3136
 20
2.39298
 30
0.000000
  70
    32
  0
VERTEX
  8
FORM
  5
A18
 10
13.3129
 20
2.39325
 30
0.000000
  70
    32
  0
VERTEX
  8
FORM
  5
A19
 10
13.3121
 20
2.39343
 30
0.000000
  70
    32
  0
VERTEX
  8
FORM
  5
A1A
 10
13.3113
 20
2.39353
 30
0.000000
  70
    32
  0
VERTEX
  8
FORM
  5
A1B
 10
13.3105
 20
2.39354
 30
0.000000
  70
    32
  0
VERTEX
  8
FORM
  5
A1C
 10
13.3097
 20
2.39347
 30
0.000000
  70
    32
  0
VERTEX
  8
FORM
  5
A1D
 10
13.3088
 20
2.39331
 30
0.000000
  70
    32
  0
VERTEX
  8
FORM
  5
A1E
 10
13.3079
 20
2.39307
 30
0.000000
  70
    32
  0
VERTEX
  8
FORM
  5
A1F
 10
13.3070
 20
2.39274
 30
0.000000
  70
    32
  0
VERTEX
  8
FORM
  5
A20
 10
13.3061
 20
2.39234
 30
0.000000
  70
    32
  0
VERTEX
  8
FORM
  5
A21
 10
13.3051
 20
2.39185
 30
0.000000
  70
    32
  0
VERTEX
  8
FORM
  5
A22
 10
13.3041
 20
2.39128
 30
0.000000
  70
    32
  0
VERTEX
  8
FORM
  5
A23
 10
13.3032
 20
2.39063
 30
0.000000
  70
    32
  0
VERTEX
  8
FORM
  5
A24
 10
13.3022
 20
2.38991
 30
0.000000
  70
    32
  0
VERTEX
  8
FORM
  5
A25
 10
13.3011
 20
2.38911
 30
0.000000
  70
    32
  0
VERTEX
  8
FORM
  5
A26
 10
13.3001
 20
2.38823
 30
0.000000
  70
    32
  0
VERTEX
  8
FORM
  5
A27
 10
13.2991
 20
2.38729
 30
0.000000
  70
    32
  0
VERTEX
  8
FORM
  5
A28
 10
13.2981
 20
2.38627
 30
0.000000
  70
    32
  0
VERTEX
  8
FORM
  5
A29
 10
13.2971
 20
2.38519
 30
0.000000
  70
    32
  0
VERTEX
  8
FORM
  5
A2A
 10
13.2961
 20
2.38404
 30
0.000000
  70
    32
  0
VERTEX
  8
FORM
  5
A2B
 10
13.2951
 20
2.38283
 30
0.000000
  70
    32
  0
VERTEX
  8
FORM
  5
A2C
 10
13.2941
 20
2.38157
 30
0.000000
  70
    32
  0
VERTEX
  8
FORM
  5
A2D
 10
13.2931
 20
2.38024
 30
0.000000
  70
    32
  0
VERTEX
  8
FORM
  5
A2E
 10
13.2921
 20
2.37887
 30
0.000000
  70
    32
  0
VERTEX
  8
FORM
  5
A2F
 10
13.2911
 20
2.37744
 30
0.000000
  70
    32
  0
VERTEX
  8
FORM
  5
A30
 10
13.2902
 20
2.37597
 30
0.000000
  70
    32
  0
VERTEX
  8
FORM
  5
A31
 10
13.2892
 20
2.37446
 30
0.000000
  70
    32
  0
VERTEX
  8
FORM
  5
A32
 10
13.2883
 20
2.37291
 30
0.000000
  70
    32
  0
VERTEX
  8
FORM
  5
A33
 10
13.2875
 20
2.37132
 30
0.000000
  70
    32
  0
VERTEX
  8
FORM
  5
A34
 10
13.2866
 20
2.36971
 30
0.000000
  70
    32
  0
VERTEX
  8
FORM
  5
A35
 10
13.2858
 20
2.36806
 30
0.000000
  70
    32
  0
VERTEX
  8
FORM
  5
A36
 10
13.2850
 20
2.36640
 30
0.000000
  70
    32
  0
VERTEX
  8
FORM
  5
A37
 10
13.2842
 20
2.36471
 30
0.000000
  70
    32
  0
VERTEX
  8
FORM
  5
A38
 10
13.2835
 20
2.36301
 30
0.000000
  70
    32
  0
VERTEX
  8
FORM
  5
A39
 10
13.2828
 20
2.36130
 30
0.000000
  70
    32
  0
VERTEX
  8
FORM
  5
A3A
 10
13.2822
 20
2.35958
 30
0.000000
  70
    32
  0
VERTEX
  8
FORM
  5
A3B
 10
13.2816
 20
2.35786
 30
0.000000
  70
    32
  0
VERTEX
  8
FORM
  5
A3C
 10
13.2810
 20
2.35614
 30
0.000000
  70
    32
  0
VERTEX
  8
FORM
  5
A3D
 10
13.2805
 20
2.35443
 30
0.000000
  70
    32
  0
VERTEX
  8
FORM
  5
A3E
 10
13.2800
 20
2.35272
 30
0.000000
  70
    32
  0
VERTEX
  8
FORM
  5
A3F
 10
13.2795
 20
2.35103
 30
0.000000
  70
    32
  0
VERTEX
  8
FORM
  5
A40
 10
13.2791
 20
2.34936
 30
0.000000
  70
    32
  0
VERTEX
  8
FORM
  5
A41
 10
13.2788
 20
2.34771
 30
0.000000
  70
    32
  0
VERTEX
  8
FORM
  5
A42
 10
13.2785
 20
2.34608
 30
0.000000
  70
    32
  0
VERTEX
  8
FORM
  5
A43
 10
13.2782
 20
2.34449
 30
0.000000
  70
    32
  0
VERTEX
  8
FORM
  5
A44
 10
13.2780
 20
2.34293
 30
0.000000
  70
    32
  0
VERTEX
  8
FORM
  5
A45
 10
13.2778
 20
2.34140
 30
0.000000
  70
    32
  0
VERTEX
  8
FORM
  5
A46
 10
13.2777
 20
2.33992
 30
0.000000
  70
    32
  0
VERTEX
  8
FORM
  5
A47
 10
13.2777
 20
2.33848
 30
0.000000
  70
    32
  0
VERTEX
  8
FORM
  5
A48
 10
13.2777
 20
2.33709
 30
0.000000
  70
    32
  0
VERTEX
  8
FORM
  5
A49
 10
13.2777
 20
2.33575
 30
0.000000
  70
    32
  0
VERTEX
  8
FORM
  5
A4A
 10
13.2778
 20
2.33447
 30
0.000000
  70
    32
  0
VERTEX
  8
FORM
  5
A4B
 10
13.2780
 20
2.33325
 30
0.000000
  70
    32
  0
VERTEX
  8
FORM
  5
A4C
 10
13.2781
 20
2.33208
 30
0.000000
  70
    32
  0
VERTEX
  8
FORM
  5
A4D
 10
13.2784
 20
2.33098
 30
0.000000
  70
    32
  0
VERTEX
  8
FORM
  5
A4E
 10
13.2787
 20
2.32994
 30
0.000000
  70
    32
  0
VERTEX
  8
FORM
  5
A4F
 10
13.2790
 20
2.32898
 30
0.000000
  70
    32
  0
VERTEX
  8
FORM
  5
A50
 10
13.2794
 20
2.32808
 30
0.000000
  70
    32
  0
VERTEX
  8
FORM
  5
A51
 10
13.2798
 20
2.32726
 30
0.000000
  70
    32
  0
VERTEX
  8
FORM
  5
A52
 10
13.2803
 20
2.32651
 30
0.000000
  70
    32
  0
VERTEX
  8
FORM
  5
A53
 10
13.2808
 20
2.32584
 30
0.000000
  70
    32
  0
VERTEX
  8
FORM
  5
A54
 10
13.2814
 20
2.32525
 30
0.000000
  70
    32
  0
VERTEX
  8
FORM
  5
A55
 10
13.2820
 20
2.32474
 30
0.000000
  70
    32
  0
VERTEX
  8
FORM
  5
A56
 10
13.2826
 20
2.32431
 30
0.000000
  70
    32
  0
VERTEX
  8
FORM
  5
A57
 10
13.2833
 20
2.32396
 30
0.000000
  70
    32
  0
VERTEX
  8
FORM
  5
A58
 10
13.2840
 20
2.32370
 30
0.000000
  70
    32
  0
VERTEX
  8
FORM
  5
A59
 10
13.2848
 20
2.32352
 30
0.000000
  70
    32
  0
VERTEX
  8
FORM
  5
A5A
 10
13.2855
 20
2.32342
 30
0.000000
  70
    32
  0
VERTEX
  8
FORM
  5
A5B
 10
13.2864
 20
2.32341
 30
0.000000
  70
    32
  0
VERTEX
  8
FORM
  5
A5C
 10
13.2872
 20
2.32348
 30
0.000000
  70
    32
  0
VERTEX
  8
FORM
  5
A5D
 10
13.2881
 20
2.32364
 30
0.000000
  70
    32
  0
VERTEX
  8
FORM
  5
A5E
 10
13.2890
 20
2.32388
 30
0.000000
  70
    32
  0
VERTEX
  8
FORM
  5
A5F
 10
13.2899
 20
2.32420
 30
0.000000
  70
    32
  0
VERTEX
  8
FORM
  5
A60
 10
13.2908
 20
2.32461
 30
0.000000
  70
    32
  0
VERTEX
  8
FORM
  5
A61
 10
13.2918
 20
2.32510
 30
0.000000
  70
    32
  0
VERTEX
  8
FORM
  5
A62
 10
13.2927
 20
2.32567
 30
0.000000
  70
    32
  0
VERTEX
  8
FORM
  5
A63
 10
13.2937
 20
2.32631
 30
0.000000
  70
    32
  0
VERTEX
  8
FORM
  5
A64
 10
13.2947
 20
2.32704
 30
0.000000
  70
    32
  0
VERTEX
  8
FORM
  5
A65
 10
13.2957
 20
2.32784
 30
0.000000
  70
    32
  0
VERTEX
  8
FORM
  5
A66
 10
13.2968
 20
2.32872
 30
0.000000
  70
    32
  0
VERTEX
  8
FORM
  5
A67
 10
13.2978
 20
2.32966
 30
0.000000
  70
    32
  0
VERTEX
  8
FORM
  5
A68
 10
13.2988
 20
2.33068
 30
0.000000
  70
    32
  0
VERTEX
  8
FORM
  5
A69
 10
13.2998
 20
2.33176
 30
0.000000
  70
    32
  0
VERTEX
  8
FORM
  5
A6A
 10
13.3008
 20
2.33291
 30
0.000000
  70
    32
  0
VERTEX
  8
FORM
  5
A6B
 10
13.3018
 20
2.33412
 30
0.000000
  70
    32
  0
VERTEX
  8
FORM
  5
A6C
 10
13.3028
 20
2.33538
 30
0.000000
  70
    32
  0
VERTEX
  8
FORM
  5
A6D
 10
13.3038
 20
2.33671
 30
0.000000
  70
    32
  0
VERTEX
  8
FORM
  5
A6E
 10
13.3048
 20
2.33808
 30
0.000000
  70
    32
  0
VERTEX
  8
FORM
  5
A6F
 10
13.3058
 20
2.33950
 30
0.000000
  70
    32
  0
VERTEX
  8
FORM
  5
A70
 10
13.3067
 20
2.34098
 30
0.000000
  70
    32
  0
VERTEX
  8
FORM
  5
A71
 10
13.3076
 20
2.34249
 30
0.000000
  70
    32
  0
VERTEX
  8
FORM
  5
A72
 10
13.3085
 20
2.34404
 30
0.000000
  70
    32
  0
VERTEX
  8
FORM
  5
A73
 10
13.3094
 20
2.34562
 30
0.000000
  70
    32
  0
VERTEX
  8
FORM
  5
A74
 10
13.3103
 20
2.34724
 30
0.000000
  70
    32
  0
VERTEX
  8
FORM
  5
A75
 10
13.3111
 20
2.34888
 30
0.000000
  70
    32
  0
VERTEX
  8
FORM
  5
A76
 10
13.3119
 20
2.35055
 30
0.000000
  70
    32
  0
VERTEX
  8
FORM
  5
A77
 10
13.3126
 20
2.35224
 30
0.000000
  70
    32
  0
VERTEX
  8
FORM
  5
A78
 10
13.3134
 20
2.35394
 30
0.000000
  70
    32
  0
VERTEX
  8
FORM
  5
A79
 10
13.3141
 20
2.35565
 30
0.000000
  70
    32
  0
VERTEX
  8
FORM
  5
A7A
 10
13.3147
 20
2.35737
 30
0.000000
  70
    32
  0
VERTEX
  8
FORM
  5
A7B
 10
13.3153
 20
2.35909
 30
0.000000
  70
    32
  0
VERTEX
  8
FORM
  5
A7C
 10
13.3159
 20
2.36081
 30
0.000000
  70
    32
  0
VERTEX
  8
FORM
  5
A7D
 10
13.3164
 20
2.36252
 30
0.000000
  70
    32
  0
VERTEX
  8
FORM
  5
A7E
 10
13.3169
 20
2.36423
 30
0.000000
  70
    32
  0
VERTEX
  8
FORM
  5
A7F
 10
13.3174
 20
2.36592
 30
0.000000
  70
    32
  0
VERTEX
  8
FORM
  5
A80
 10
13.3178
 20
2.36759
 30
0.000000
  70
    32
  0
VERTEX
  8
FORM
  5
A81
 10
13.3181
 20
2.36924
 30
0.000000
  70
    32
  0
VERTEX
  8
FORM
  5
A82
 10
13.3184
 20
2.37087
 30
0.000000
  70
    32
  0
VERTEX
  8
FORM
  5
A83
 10
13.3187
 20
2.37246
 30
0.000000
  70
    32
  0
VERTEX
  8
FORM
  5
A84
 10
13.3189
 20
2.37402
 30
0.000000
  70
    32
  0
VERTEX
  8
FORM
  5
A85
 10
13.3190
 20
2.37555
 30
0.000000
  70
    32
  0
VERTEX
  8
FORM
  5
A86
 10
13.3191
 20
2.37703
 30
0.000000
  70
    32
  0
VERTEX
  8
FORM
  5
A87
 10
13.3192
 20
2.37847
 30
0.000000
  70
    32
  0
VERTEX
  8
FORM
  5
A88
 10
13.3192
 20
2.37986
 30
0.000000
  70
    32
  0
VERTEX
  8
FORM
  5
A89
 10
13.3192
 20
2.38119
 30
0.000000
  70
    32
  0
VERTEX
  8
FORM
  5
A8A
 10
13.3191
 20
2.38248
 30
0.000000
  70
    32
  0
VERTEX
  8
FORM
  5
A8B
 10
13.3189
 20
2.38370
 30
0.000000
  70
    32
  0
VERTEX
  8
FORM
  5
A8C
 10
13.3187
 20
2.38487
 30
0.000000
  70
    32
  0
VERTEX
  8
FORM
  5
A8D
 10
13.3185
 20
2.38597
 30
0.000000
  70
    32
  0
VERTEX
  8
FORM
  5
A8E
 10
13.3182
 20
2.38700
 30
0.000000
  70
    32
  0
VERTEX
  8
FORM
  5
A8F
 10
13.3179
 20
2.38797
 30
0.000000
  70
    32
  0
VERTEX
  8
FORM
  5
A90
 10
13.3175
 20
2.38887
 30
0.000000
  70
    32
  0
VERTEX
  8
FORM
  5
A91
 10
13.3171
 20
2.38969
 30
0.000000
  70
    32
  0
VERTEX
  8
FORM
  5
A92
 10
13.3166
 20
2.39043
 30
0.000000
  70
    32
  0
VERTEX
  8
FORM
  5
A93
 10
13.3161
 20
2.39110
 30
0.000000
  70
    32
  0
VERTEX
  8
FORM
  5
A94
 10
13.3155
 20
2.39170
 30
0.000000
  70
    32
  0
VERTEX
  8
FORM
  5
A95
 10
13.3149
 20
2.39221
 30
0.000000
  70
    32
  0
VERTEX
  8
FORM
  5
A96
 10
13.3143
 20
2.39264
 30
0.000000
  70
    32
  0
VERTEX
  8
FORM
  5
A97
 10
13.3136
 20
2.39298
 30
0.000000
  70
    32
  0
SEQEND
  8
FORM
  5
A98
  0
ARC
  5
900
  8
FORM
 62
     7
 10
13.34744577181497
 20
2.2673859045416691
 30
0.0
 40
0.1689007929904549
 50
85.485448269952457
 51
155.5006785655419
  0
TEXT
  5
901
  8
FORM
 62
     7
 10
12.75316302876921
 20
1.384152449853342
 30
0.0
 40
0.0661677054431832
  1
R2-D2 BUILDERS CLUB
  0
ARC
  5
902
  8
FORM
 10
0.6340090048042164
 20
0.6340090048041951
 30
0.0
 40
0.1181566168628271
 50
180.0
 51
270.0
  0
ARC
  5
903
  8
FORM
 10
0.6340090048042164
 20
0.6340090048041951
 30
0.0
 40
0.2363132337256541
 50
180.0
 51
270.0
  0
ARC
  5
904
  8
FORM
 10
0.6340090048042164
 20
0.6340090048041951
 30
0.0
 40
0.2658523879413609
 50
180.0
 51
270.0
  0
ARC
  5
905
  8
FORM
 10
0.6340090048042164
 20
0.6340090048041951
 30
0.0
 40
0.3840090048041879
 50
180.0
 51
270.0
  0
ARC
  5
906
  8
FORM
 10
0.6340090048042164
 20
9.6159909951958085
 30
0.0
 40
0.3840090048041879
 50
90.0
 51
180.0
  0
ARC
  5
907
  8
FORM
 10
0.6340090048042164
 20
9.6159909951958085
 30
0.0
 40
0.2658523879413609
 50
90.0
 51
180.0
  0
ARC
  5
908
  8
FORM
 10
0.6340090048042164
 20
9.6159909951958085
 30
0.0
 40
0.2363132337256541
 50
90.0
 51
180.0
  0
ARC
  5
909
  8
FORM
 10
0.6340090048042164
 20
9.6159909951958085
 30
0.0
 40
0.1181566168628271
 50
90.0
 51
180.0
  0
ARC
  5
90A
  8
FORM
 10
16.365990995195801
 20
9.6159909951958085
 30
0.0
 40
0.2363132337256541
 50
0.0
 51
90.0
  0
ARC
  5
90B
  8
FORM
 10
16.365990995195801
 20
9.6159909951958085
 30
0.0
 40
0.2658523879413609
 50
0.0
 51
90.0
  0
ARC
  5
90C
  8
FORM
 10
16.365990995195801
 20
9.6159909951958085
 30
0.0
 40
0.3840090048041879
 50
0.0
 51
90.0
  0
ARC
  5
90D
  8
FORM
 10
16.365990995195801
 20
9.6159909951958085
 30
0.0
 40
0.1181566168628271
 50
0.0
 51
90.0
  0
ARC
  5
90E
  8
FORM
 10
16.365990995195801
 20
0.6340090048041951
 30
0.0
 40
0.3840090048041879
 50
270.0
 51
0.0
  0
ARC
  5
90F
  8
FORM
 10
16.365990995195801
 20
0.6340090048041951
 30
0.0
 40
0.2658523879413609
 50
270.0
 51
0.0
  0
ARC
  5
910
  8
FORM
 10
16.365990995195801
 20
0.6340090048041951
 30
0.0
 40
0.2363132337256541
 50
270.0
 51
0.0
  0
ARC
  5
911
  8
FORM
 10
16.365990995195801
 20
0.6340090048041951
 30
0.0
 40
0.1181566168628271
 50
270.0
 51
0.0
  0
LINE
  5
912
  8
FORM
 10
16.365990995195801
 20
0.3976957710785456
 30
0.0
 11
0.6340090048042164
 21
0.397695771078542
 31
0.0
  0
LINE
  5
913
  8
FORM
 10
16.365990995195801
 20
0.3681566168628407
 30
0.0
 11
0.6340090048042164
 21
0.3681566168628336
 31
0.0
  0
LINE
  5
914
  8
FORM
 10
16.365990995195801
 20
0.2500000000000071
 30
0.0
 11
0.6340090048042164
 21
0.25
 31
0.0
  0
LINE
  5
915
  8
FORM
 10
16.602304228921469
 20
0.6340090048041951
 30
0.0
 11
16.602304228921469
 21
9.6159909951958085
 31
0.0
  0
LINE
  5
916
  8
FORM
 10
16.631843383137159
 20
0.6340090048041951
 30
0.0
 11
16.631843383137159
 21
9.6159909951958085
 31
0.0
  0
LINE
  5
917
  8
FORM
 10
16.75
 20
0.6340090048041951
 30
0.0
 11
16.75
 21
9.6159909951958085
 31
0.0
  0
LINE
  5
918
  8
FORM
 10
16.365990995195801
 20
9.8523042289214651
 30
0.0
 11
0.6340090048042164
 21
9.8523042289214651
 31
0.0
  0
LINE
  5
919
  8
FORM
 10
16.365990995195801
 20
9.8818433831371681
 30
0.0
 11
0.6340090048042164
 21
9.8818433831371681
 31
0.0
  0
LINE
  5
91A
  8
FORM
 10
16.365990995195801
 20
10.0
 30
0.0
 11
0.6340090048042164
 21
10.0
 31
0.0
  0
LINE
  5
91B
  8
FORM
 10
0.3976957710785598
 20
0.6340090048041951
 30
0.0
 11
0.3976957710785598
 21
9.6159909951958085
 31
0.0
  0
LINE
  5
91C
  8
FORM
 10
0.3681566168628585
 20
0.6340090048041951
 30
0.0
 11
0.3681566168628585
 21
9.6159909951958085
 31
0.0
  0
LINE
  5
91D
  8
FORM
 10
0.25
 20
0.6340090048041951
 30
0.0
 11
0.250000000000032
 21
9.6159909951958085
 31
0.0
  0
LINE
  5
91E
  8
FORM
  6
CONTINUOUS
 10
12.874006586966649
 20
0.6340090048041951
 30
0.0
 11
16.19312047993693
 21
0.6340090048041951
 31
0.0
  0
LINE
  5
91F
  8
FORM
  6
CONTINUOUS
 10
16.365990995195801
 20
2.4664364665482088
 30
0.0
 11
16.365990995195801
 21
0.8068795200630631
 31
0.0
  0
ARC
  5
920
  8
FORM
  6
CONTINUOUS
 10
16.19312047993693
 20
0.8068795200630631
 30
0.0
 40
0.1728705152588689
 50
270.0
 51
0.0
  0
ARC
  5
921
  8
FORM
  6
CONTINUOUS
 10
16.19312047993693
 20
2.4664364665482088
 30
0.0
 40
0.1728705152588689
 50
359.99999999999989
 51
90.0
  0
ARC
  5
922
  8
FORM
  6
CONTINUOUS
 10
12.874006586966649
 20
0.8068795200630631
 30
0.0
 40
0.1728705152588689
 50
180.0
 51
270.0
  0
ARC
  5
923
  8
FORM
  6
CONTINUOUS
 10
12.874006586966649
 20
2.4664364665482088
 30
0.0
 40
0.1728705152588689
 50
90.0
 51
180.0
  0
LINE
  5
9BD
  8
0
 10
0.6340090048042164
 20
0.6340090048041951
 30
0.0
 11
0.6340090048042164
 21
1.6340090048041951
 31
0.0
  0
LINE
  5
9BE
  8
0
 10
0.6340090048042164
 20
0.7590090048041951
 30
0.0
 11
0.7590090048042164
 21
0.7590090048041951
 31
0.0
  0
LINE
  5
9BF
  8
0
 10
0.6340090048042164
 20
0.884009004804195
 30
0.0
 11
0.8840090048042164
 21
0.884009004804195
 31
0.0
  0
LINE
  5
9C0
  8
0
 10
0.6340090048042164
 20
1.0090090048041951
 30
0.0
 11
0.7590090048042164
 21
1.0090090048041951
 31
0.0
  0
LINE
  5
9C1
  8
0
 10
0.6340090048042164
 20
1.1340090048041951
 30
0.0
 11
1.009009004804216
 21
1.1340090048041951
 31
0.0
  0
LINE
  5
9C2
  8
0
 10
0.6340090048042164
 20
1.2590090048041951
 30
0.0
 11
0.7590090048042164
 21
1.2590090048041951
 31
0.0
  0
LINE
  5
9C3
  8
0
 10
0.6340090048042164
 20
1.3840090048041951
 30
0.0
 11
0.8840090048042164
 21
1.3840090048041951
 31
0.0
  0
LINE
  5
9C4
  8
0
 10
0.6340090048042164
 20
1.5090090048041951
 30
0.0
 11
0.7590090048042164
 21
1.5090090048041951
 31
0.0
  0
LINE
  5
9C5
  8
0
 10
0.6340090048042164
 20
1.6340090048041951
 30
0.0
 11
1.009009004804216
 21
1.6340090048041951
 31
0.0
  0
LINE
  5
9C6
  8
0
 10
0.6340090048042164
 20
0.6340090048041951
 30
0.0
 11
1.009009004804216
 21
0.6340090048041951
 31
0.0
  0
TEXT
  5
9C7
  8
0
 10
1.058277778430653
 20
1.1009684438037111
 30
0.0
 40
0.0625
  1
1/2"
  0
TEXT
  5
9C8
  8
0
 10
0.8082777784306536
 20
0.975968443803712
 30
0.0
 40
0.0625
  1
3/8"
  0
TEXT
  5
9C9
  8
0
 10
0.9332777784306536
 20
0.850968443803712
 30
0.0
 40
0.0625
  1
1/4"
  0
TEXT
  5
9CA
  8
0
 10
0.8082777784306536
 20
0.725968443803712
 30
0.0
 40
0.0625
  1
1/8"
  0
TEXT
  5
9CB
  8
0
 10
0.8082777784306536
 20
1.2259684438037111
 30
0.0
 40
0.0625
  1
5/8"
  0
TEXT
  5
9CC
  8
0
 10
0.9332777784306536
 20
1.3509684438037111
 30
0.0
 40
0.0625
  1
3/4"
  0
TEXT
  5
9CD
  8
0
 10
0.8082777784306536
 20
1.4759684438037111
 30
0.0
 40
0.0625
  1
7/8"
  0
TEXT
  5
9CE
  8
0
 10
1.058277778430653
 20
1.6009684438037111
 30
0.0
 40
0.0625
  1
1"
  0
ENDSEC
  0
EOF
