  0
SECTION
  2
HEADER
  9
$ACADVER
  1
AC1009
  9
$INSBASE
 10
0.0
 20
0.0
 30
0.0
  9
$EXTMIN
 10
0.0
 20
0.0
 30
0.0
  9
$EXTMAX
 10
17.0
 20
11.0
 30
0.0
  9
$LIMMIN
 10
0.0
 20
0.0
  9
$LIMMAX
 10
12.0
 20
9.0
  9
$ORTHOMODE
 70
     0
  9
$REGENMODE
 70
     1
  9
$FILLMODE
 70
     1
  9
$QTEXTMODE
 70
     0
  9
$MIRRTEXT
 70
     1
  9
$DRAGMODE
 70
     2
  9
$LTSCALE
 40
1.0
  9
$OSMODE
 70
    39
  9
$ATTMODE
 70
     1
  9
$TEXTSIZE
 40
0.1875
  9
$TRACEWID
 40
0.05
  9
$TEXTSTYLE
  7
STANDARD
  9
$CLAYER
  8
0
  9
$CELTYPE
  6
BYLAYER
  9
$CECOLOR
 62
   256
  9
$DIMSCALE
 40
1.0
  9
$DIMASZ
 40
0.25
  9
$DIMEXO
 40
0.0625
  9
$DIMDLI
 40
1.0
  9
$DIMRND
 40
0.0
  9
$DIMDLE
 40
0.0
  9
$DIMEXE
 40
0.0625
  9
$DIMTP
 40
0.0
  9
$DIMTM
 40
0.0
  9
$DIMTXT
 40
0.25
  9
$DIMCEN
 40
0.0
  9
$DIMTSZ
 40
0.0
  9
$DIMTOL
 70
     0
  9
$DIMLIM
 70
     0
  9
$DIMTIH
 70
     1
  9
$DIMTOH
 70
     1
  9
$DIMSE1
 70
     0
  9
$DIMSE2
 70
     0
  9
$DIMTAD
 70
     0
  9
$DIMZIN
 70
     0
  9
$DIMBLK
  1

  9
$DIMASO
 70
     1
  9
$DIMSHO
 70
     1
  9
$DIMPOST
  1

  9
$DIMAPOST
  1

  9
$DIMALT
 70
     0
  9
$DIMALTD
 70
     2
  9
$DIMALTF
 40
25.399999999999999
  9
$DIMLFAC
 40
1.0
  9
$DIMTOFL
 70
     0
  9
$DIMTVP
 40
0.0
  9
$DIMTIX
 70
     0
  9
$DIMSOXD
 70
     0
  9
$DIMSAH
 70
     0
  9
$DIMBLK1
  1

  9
$DIMBLK2
  1

  9
$DIMSTYLE
  2
STANDARD
  9
$DIMCLRD
 70
   256
  9
$DIMCLRE
 70
   256
  9
$DIMCLRT
 70
   256
  9
$DIMTFAC
 40
1.0
  9
$DIMGAP
 40
0.0625
  9
$LUNITS
 70
     2
  9
$LUPREC
 70
     8
  9
$SKETCHINC
 40
0.1
  9
$FILLETRAD
 40
0.0
  9
$AUNITS
 70
     0
  9
$AUPREC
 70
     0
  9
$MENU
  1
.
  9
$ELEVATION
 40
0.0
  9
$PELEVATION
 40
0.0
  9
$THICKNESS
 40
0.0
  9
$LIMCHECK
 70
     0
  9
$BLIPMODE
 70
     0
  9
$CHAMFERA
 40
0.0
  9
$CHAMFERB
 40
0.0
  9
$SKPOLY
 70
     0
  9
$TDCREATE
 40
2452227.939733333
  9
$TDUPDATE
 40
2453469.640027917
  9
$TDINDWG
 40
1.7842579398
  9
$TDUSRTIMER
 40
1.7842573611000001
  9
$USRTIMER
 70
     1
  9
$ANGBASE
 50
0.0
  9
$ANGDIR
 70
     0
  9
$PDMODE
 70
     0
  9
$PDSIZE
 40
0.0
  9
$PLINEWID
 40
0.0
  9
$COORDS
 70
     0
  9
$SPLFRAME
 70
     0
  9
$SPLINETYPE
 70
     6
  9
$SPLINESEGS
 70
     8
  9
$ATTDIA
 70
     0
  9
$ATTREQ
 70
     1
  9
$HANDLING
 70
     1
  9
$HANDSEED
  5
A18
  9
$SURFTAB1
 70
     6
  9
$SURFTAB2
 70
     6
  9
$SURFTYPE
 70
     6
  9
$SURFU
 70
     6
  9
$SURFV
 70
     6
  9
$UCSNAME
  2

  9
$UCSORG
 10
0.0
 20
0.0
 30
0.0
  9
$UCSXDIR
 10
1.0
 20
0.0
 30
0.0
  9
$UCSYDIR
 10
0.0
 20
1.0
 30
0.0
  9
$PUCSNAME
  2

  9
$PUCSORG
 10
0.0
 20
0.0
 30
0.0
  9
$PUCSXDIR
 10
1.0
 20
0.0
 30
0.0
  9
$PUCSYDIR
 10
0.0
 20
1.0
 30
0.0
  9
$USERI1
 70
     0
  9
$USERI2
 70
     0
  9
$USERI3
 70
     0
  9
$USERI4
 70
     0
  9
$USERI5
 70
     0
  9
$USERR1
 40
0.0
  9
$USERR2
 40
0.0
  9
$USERR3
 40
0.0
  9
$USERR4
 40
0.0
  9
$USERR5
 40
0.0
  9
$WORLDVIEW
 70
     1
  9
$SHADEDGE
 70
     3
  9
$SHADEDIF
 70
    70
  9
$TILEMODE
 70
     1
  9
$MAXACTVP
 70
    64
  9
$PLIMCHECK
 70
     0
  9
$PEXTMIN
 10
1.0000000000000000E+020
 20
1.0000000000000000E+020
 30
1.0000000000000000E+020
  9
$PEXTMAX
 10
-1.0000000000000000E+020
 20
-1.0000000000000000E+020
 30
-1.0000000000000000E+020
  9
$PLIMMIN
 10
0.0
 20
0.0
  9
$PLIMMAX
 10
12.0
 20
9.0
  9
$UNITMODE
 70
     0
  9
$VISRETAIN
 70
     1
  9
$PLINEGEN
 70
     0
  9
$PSLTSCALE
 70
     1
  0
ENDSEC
  0
SECTION
  2
TABLES
  0
TABLE
  2
VPORT
 70
     2
  0
VPORT
  2
*ACTIVE
 70
     0
 10
0.0
 20
0.0
 11
1.0
 21
1.0
 12
8.4967733234398111
 22
5.499891240463568
 13
0.0
 23
0.0
 14
0.5
 24
0.5
 15
0.5
 25
0.5
 16
0.0
 26
0.0
 36
1.0
 17
0.0
 27
0.0
 37
0.0
 40
11.144372728365161
 41
2.1727078891257992
 42
50.0
 43
0.0
 44
0.0
 50
0.0
 51
0.0
 71
     0
 72
 20000
 73
     1
 74
     2
 75
     0
 76
     0
 77
     0
 78
     0
  0
ENDTAB
  0
TABLE
  2
LTYPE
 70
     1
  0
LTYPE
  2
CONTINUOUS
 70
     0
  3
Solid line
 72
    65
 73
     0
 40
0.0
  0
ENDTAB
  0
TABLE
  2
LAYER
 70
     5
  0
LAYER
  2
0
 70
     0
 62
     7
  6
CONTINUOUS
  0
LAYER
  2
OUTER_FOOT_-_REAR_STRIP
 70
     0
 62
     7
  6
CONTINUOUS
  0
LAYER
  2
DIMENSIONS
 70
     0
 62
     1
  6
CONTINUOUS
  0
LAYER
  2
DEFPOINTS
 70
     0
 62
     7
  6
CONTINUOUS
  0
LAYER
  2
FORM
 70
     0
 62
     5
  6
CONTINUOUS
  0
ENDTAB
  0
TABLE
  2
STYLE
 70
     1
  0
STYLE
  2
STANDARD
 70
     0
 40
0.0
 41
1.0
 50
0.0
 71
     0
 42
0.1875
  3
simplex.shx
  4

  0
ENDTAB
  0
TABLE
  2
VIEW
 70
     0
  0
ENDTAB
  0
TABLE
  2
UCS
 70
     0
  0
ENDTAB
  0
TABLE
  2
APPID
 70
     5
  0
APPID
  2
ACAD
 70
     0
  0
APPID
  2
ACAD_DSTYLE_DIMTEXT_FILL
 70
     0
  0
APPID
  2
ACAECLAYERSTANDARD
 70
     0
  0
APPID
  2
DCO15
 70
     0
  0
APPID
  2
ACAD_PSEXT
 70
     0
  0
ENDTAB
  0
TABLE
  2
DIMSTYLE
 70
     1
  0
DIMSTYLE
  2
STANDARD
 70
     0
  3

  4

  5

  6

  7

 40
1.0
 41
0.25
 42
0.0625
 43
1.0
 44
0.0625
 45
0.0
 46
0.0
 47
0.0
 48
0.0
140
0.25
141
0.0
142
0.0
143
25.399999999999999
144
1.0
145
0.0
146
1.0
147
0.0625
 71
     0
 72
     0
 73
     1
 74
     1
 75
     0
 76
     0
 77
     0
 78
     0
170
     0
171
     2
172
     0
173
     0
174
     0
175
     0
176
   256
177
   256
178
   256
  0
ENDTAB
  0
ENDSEC
  0
SECTION
  2
BLOCKS
  0
BLOCK
  8
0
  2
$MODEL_SPACE
 70
     0
 10
0.0
 20
0.0
 30
0.0
  3
$MODEL_SPACE
  1

  0
ENDBLK
  5
9
  8
0
  0
BLOCK
 67
     1
  8
0
  2
$PAPER_SPACE
 70
     0
 10
0.0
 20
0.0
 30
0.0
  3
$PAPER_SPACE
  1

  0
ENDBLK
  5
E
 67
     1
  8
0
  0
ENDSEC
  0
SECTION
  2
ENTITIES
  0
LINE
  5
28
  8
OUTER_FOOT_-_REAR_STRIP
 10
4.2849111300626239
 20
2.681386487703366
 30
0.0
 11
4.4634296309053907
 21
2.8063864877033668
 31
0.0
  0
LINE
  5
2A
  8
OUTER_FOOT_-_REAR_STRIP
 10
4.2849111300626239
 20
7.801569630547518
 30
0.0
 11
7.8019111300626269
 21
7.801569630547518
 31
0.0
  0
LINE
  5
2B
  8
OUTER_FOOT_-_REAR_STRIP
 10
4.2849111300626239
 20
6.801569630547518
 30
0.0
 11
7.8019111300626269
 21
6.801569630547518
 31
0.0
  0
LINE
  5
2C
  8
OUTER_FOOT_-_REAR_STRIP
 10
4.4634296309053907
 20
2.8063864877033668
 30
0.0
 11
7.7143851877864122
 21
2.8063864877033668
 31
0.0
  0
LINE
  5
2D
  8
OUTER_FOOT_-_REAR_STRIP
 10
4.2849111300626239
 20
2.681386487703366
 30
0.0
 11
7.8019111300626269
 21
2.681386487703366
 31
0.0
  0
LINE
  5
2E
  8
OUTER_FOOT_-_REAR_STRIP
 10
7.8019111300626269
 20
2.681386487703366
 30
0.0
 11
7.7143851877864122
 21
2.8063864877033668
 31
0.0
  0
LINE
  5
2F
  8
OUTER_FOOT_-_REAR_STRIP
 10
4.2849111300626239
 20
6.801569630547518
 30
0.0
 11
4.2849111300626239
 21
7.801569630547518
 31
0.0
  0
LINE
  5
30
  8
OUTER_FOOT_-_REAR_STRIP
 10
7.8019111300626269
 20
6.801569630547518
 30
0.0
 11
7.8019111300626269
 21
7.801569630547518
 31
0.0
  0
LINE
  5
31
  8
OUTER_FOOT_-_REAR_STRIP
 10
4.4634296309053907
 20
6.801569630547518
 30
0.0
 11
4.4634296309053907
 21
7.801569630547518
 31
0.0
  0
LINE
  5
32
  8
OUTER_FOOT_-_REAR_STRIP
 10
7.7143851877864122
 20
6.801569630547518
 30
0.0
 11
7.7143851877864122
 21
7.801569630547518
 31
0.0
  0
LINE
  5
CB
  8
DIMENSIONS
 10
7.8019111300626269
 20
2.743886487703366
 30
0.0
 11
7.8019111300626269
 21
4.1407697341632668
 31
0.0
  0
LINE
  5
CC
  8
DIMENSIONS
 10
7.6785366605144674
 20
2.8575834904714288
 30
0.0
 11
6.9648432882877236
 21
3.876843257442093
 31
0.0
  0
ARC
  5
CD
  8
DIMENSIONS
 10
7.8019111300626269
 20
2.681386487703366
 30
0.0
 40
1.396883246459901
 50
69.380474280149201
 51
89.999999999999986
  0
LINE
  5
CE
  8
DIMENSIONS
 10
8.2938384084711103
 20
3.9887848038251121
 30
0.0
 11
8.5438384084711103
 21
3.988784803825113
 31
0.0
  0
ARC
  5
CF
  8
DIMENSIONS
 10
7.8019111300626269
 20
2.681386487703366
 30
0.0
 40
1.396883246459901
 50
69.464095150939201
 51
79.732047575469579
  0
ARC
  5
D0
  8
DIMENSIONS
 10
7.8019111300626269
 20
2.681386487703366
 30
0.0
 40
1.396883246459901
 50
135.26795242453079
 51
145.53590484906121
  0
SOLID
  5
D1
  8
DIMENSIONS
 10
8.0471796353626175
 20
4.0143989942347149
 30
0.0
 11
8.0546367128907903
 21
4.0973980089227409
 31
0.0
 12
7.8019111300626269
 22
4.0782697341632659
 32
0.0
 13
7.8019111300626269
 23
4.0782697341632659
 33
0.0
  0
SOLID
  5
D2
  8
DIMENSIONS
 10
6.7826996100717594
 20
3.6963577808736532
 30
0.0
 11
6.8364143694387991
 21
3.6326461722721919
 31
0.0
 12
7.0006918155596622
 22
3.8256462546740311
 32
0.0
 13
7.0006918155596622
 23
3.8256462546740311
 33
0.0
  0
TEXT
  5
DC
  8
DIMENSIONS
 10
8.6063384084711032
 20
3.8637848038251121
 30
0.0
 40
0.25
  1
35°
  0
LINE
  5
EF
  8
DIMENSIONS
 10
4.5146266336734513
 20
2.8422350149753068
 30
0.0
 11
5.5191625322125191
 21
3.545618623534625
 31
0.0
  0
LINE
  5
F0
  8
DIMENSIONS
 10
4.2849111300626239
 20
2.743886487703366
 30
0.0
 11
4.2849111300626239
 21
4.1881292355911537
 31
0.0
  0
ARC
  5
F1
  8
DIMENSIONS
 10
4.2849111300626239
 20
2.6813864877033668
 30
0.0
 40
1.4442427478877871
 50
44.930386627934901
 51
49.216659345144478
  0
ARC
  5
F2
  8
DIMENSIONS
 10
4.2849111300626239
 20
2.6813864877033668
 30
0.0
 40
1.4442427478877871
 50
76.282826833211089
 51
80.069613372065106
  0
SOLID
  5
F3
  8
DIMENSIONS
 10
5.3393197808966191
 20
3.728142215572082
 30
0.0
 11
5.2754502150961571
 21
3.674615371756059
 31
0.0
 12
5.4679655294444549
 22
3.5097700962626859
 32
0.0
 13
5.4679655294444549
 23
3.5097700962626859
 33
0.0
  0
SOLID
  5
F4
  8
DIMENSIONS
 10
4.5303667224213049
 20
4.0624812879526031
 30
0.0
 11
4.5375792680144178
 21
4.1455019096710144
 31
0.0
 12
4.2849111300626239
 22
4.1256292355911537
 32
0.0
 13
4.2849111300626239
 23
4.1256292355911537
 33
0.0
  0
TEXT
  5
F6
  8
DIMENSIONS
 10
4.6898834541698022
 20
3.837445450818918
 30
0.0
 40
0.25
  1
55°
  0
LINE
  5
F7
  8
DIMENSIONS
 10
7.8019111300626269
 20
6.739069630547518
 30
0.0
 11
7.8019111300626269
 21
5.989069630547518
 31
0.0
  0
LINE
  5
F8
  8
DIMENSIONS
 10
4.2849111300626239
 20
6.739069630547518
 30
0.0
 11
4.2849111300626239
 21
5.989069630547518
 31
0.0
  0
LINE
  5
F9
  8
DIMENSIONS
 10
7.5519111300626269
 20
6.051569630547518
 30
0.0
 11
6.5821016062530973
 21
6.051569630547518
 31
0.0
  0
LINE
  5
FA
  8
DIMENSIONS
 10
4.5349111300626239
 20
6.051569630547518
 30
0.0
 11
5.5047206538721483
 21
6.051569630547518
 31
0.0
  0
SOLID
  5
FB
  8
DIMENSIONS
 10
7.5519111300626269
 20
6.0932362972141858
 30
0.0
 11
7.5519111300626269
 21
6.0099029638808501
 31
0.0
 12
7.8019111300626269
 22
6.051569630547518
 32
0.0
 13
7.8019111300626269
 23
6.051569630547518
 33
0.0
  0
SOLID
  5
FC
  8
DIMENSIONS
 10
4.5349111300626239
 20
6.0932362972141858
 30
0.0
 11
4.5349111300626239
 21
6.0099029638808501
 31
0.0
 12
4.2849111300626239
 22
6.051569630547518
 32
0.0
 13
4.2849111300626239
 23
6.051569630547518
 33
0.0
  0
LINE
  5
FE
  8
DIMENSIONS
 10
7.8644111300626269
 20
6.801569630547518
 30
0.0
 11
8.6144111300626278
 21
6.801569630547518
 31
0.0
  0
LINE
  5
FF
  8
DIMENSIONS
 10
7.8644111300626269
 20
7.801569630547518
 30
0.0
 11
8.6144111300626278
 21
7.801569630547518
 31
0.0
  0
LINE
  5
100
  8
DIMENSIONS
 10
8.5519111300626278
 20
6.551569630547518
 30
0.0
 11
8.5519111300626278
 21
6.301569630547518
 31
0.0
  0
LINE
  5
101
  8
DIMENSIONS
 10
8.5519111300626278
 20
8.0515696305475188
 30
0.0
 11
8.5519111300626278
 21
8.3015696305475188
 31
0.0
  0
SOLID
  5
102
  8
DIMENSIONS
 10
8.5102444633959564
 20
6.551569630547518
 30
0.0
 11
8.5935777967292921
 21
6.551569630547518
 31
0.0
 12
8.5519111300626278
 22
6.801569630547518
 32
0.0
 13
8.5519111300626278
 23
6.801569630547518
 33
0.0
  0
SOLID
  5
103
  8
DIMENSIONS
 10
8.5102444633959564
 20
8.0515696305475188
 30
0.0
 11
8.5935777967292921
 21
8.0515696305475188
 31
0.0
 12
8.5519111300626278
 22
7.801569630547518
 32
0.0
 13
8.5519111300626278
 23
7.801569630547518
 33
0.0
  0
TEXT
  5
105
  8
DIMENSIONS
 10
5.5672206538721483
 20
5.926569630547518
 30
0.0
 40
0.25
  1
3.517
  0
TEXT
  5
106
  8
DIMENSIONS
 10
8.0757206538721462
 20
7.1765696305475197
 30
0.0
 40
0.25
  1
1.000
  0
LINE
  5
107
  8
OUTER_FOOT_-_REAR_STRIP
 10
10.66933596712769
 20
7.801569630547518
 30
0.0
 11
10.79433596712769
 21
7.801569630547518
 31
0.0
  0
LINE
  5
108
  8
OUTER_FOOT_-_REAR_STRIP
 10
10.66933596712769
 20
6.801569630547518
 30
0.0
 11
10.79433596712769
 21
6.801569630547518
 31
0.0
  0
LINE
  5
109
  8
OUTER_FOOT_-_REAR_STRIP
 10
10.66933596712769
 20
6.801569630547518
 30
0.0
 11
10.66933596712769
 21
7.801569630547518
 31
0.0
  0
LINE
  5
10A
  8
OUTER_FOOT_-_REAR_STRIP
 10
10.79433596712769
 20
6.801569630547518
 30
0.0
 11
10.79433596712769
 21
7.801569630547518
 31
0.0
  0
LINE
  5
119
  8
DIMENSIONS
 10
10.66933596712769
 20
6.739069630547518
 30
0.0
 11
10.66933596712769
 21
5.989069630547518
 31
0.0
  0
LINE
  5
11A
  8
DIMENSIONS
 10
10.79433596712769
 20
6.739069630547518
 30
0.0
 11
10.79433596712769
 21
5.989069630547518
 31
0.0
  0
LINE
  5
11B
  8
DIMENSIONS
 10
10.41933596712769
 20
6.051569630547518
 30
0.0
 11
10.16933596712769
 21
6.051569630547518
 31
0.0
  0
LINE
  5
11C
  8
DIMENSIONS
 10
11.04433596712769
 20
6.051569630547518
 30
0.0
 11
11.29433596712769
 21
6.051569630547518
 31
0.0
  0
SOLID
  5
11D
  8
DIMENSIONS
 10
10.41933596712769
 20
6.0932362972141858
 30
0.0
 11
10.41933596712769
 21
6.0099029638808501
 31
0.0
 12
10.66933596712769
 22
6.051569630547518
 32
0.0
 13
10.66933596712769
 23
6.051569630547518
 33
0.0
  0
SOLID
  5
11E
  8
DIMENSIONS
 10
11.04433596712769
 20
6.0932362972141858
 30
0.0
 11
11.04433596712769
 21
6.0099029638808501
 31
0.0
 12
10.79433596712769
 22
6.051569630547518
 32
0.0
 13
10.79433596712769
 23
6.051569630547518
 33
0.0
  0
TEXT
  5
120
  8
DIMENSIONS
 10
11.35683596712769
 20
5.926569630547518
 30
0.0
 40
0.25
  1
0.125
  0
TEXT
  5
615
  8
0
  6
CONTINUOUS
 10
60.610524578723208
 20
15.281672850131519
 30
0.0
 40
0.12
  1
 
 51
7.0
  0
TEXT
  5
616
  8
0
  6
CONTINUOUS
 10
73.054621344203085
 20
22.344547279863171
 30
0.0
 40
0.24
  1
 
 51
7.0
  0
TEXT
  5
617
  8
0
  6
CONTINUOUS
 10
82.264386356116376
 20
22.024537293286091
 30
0.0
 40
0.24
  1
 
 51
7.0
  0
TEXT
  5
618
  8
0
  6
CONTINUOUS
 10
92.068345840549085
 20
5.1619564937587681
 30
0.0
 40
0.24
  1
 
 51
7.0
  0
LINE
  5
6D4
  8
0
 10
0.0
 20
0.0
 30
0.0
 11
0.0
 21
11.0
 31
0.0
  0
LINE
  5
6D5
  8
0
 10
17.0
 20
0.0
 30
0.0
 11
17.0
 21
11.0
 31
0.0
  0
LINE
  5
6D6
  8
0
 10
0.0
 20
0.0
 30
0.0
 11
17.0
 21
0.0
 31
0.0
  0
LINE
  5
6D7
  8
0
 10
0.0
 20
11.0
 30
0.0
 11
17.0
 21
11.0
 31
0.0
  0
LINE
  5
80A
  8
FORM
 10
16.484147612058631
 20
0.6340090048041951
 30
0.0
 11
16.484147612058631
 21
9.6159909951958085
 31
0.0
  0
LINE
  5
80B
  8
FORM
 10
16.365990995195801
 20
9.7341476120586332
 30
0.0
 11
0.6340090048042164
 21
9.7341476120586332
 31
0.0
  0
LINE
  5
80C
  8
FORM
 10
16.365990995195801
 20
0.5158523879413757
 30
0.0
 11
0.6340090048042164
 21
0.5158523879413686
 31
0.0
  0
LINE
  5
80D
  8
FORM
 10
0.5158523879413864
 20
0.6340090048041951
 30
0.0
 11
0.5158523879413864
 21
9.6159909951958085
 31
0.0
  0
TEXT
  5
80E
  8
FORM
 10
13.952886805121141
 20
2.1089926618780011
 30
0.0
 40
0.2000816148829512
  1
REAR STRIP
 72
     1
 11
14.824670984254
 21
2.1089926618780011
 31
0.0
  0
TEXT
  5
80F
  8
FORM
 10
13.88619293349349
 20
1.685667990169768
 30
0.0
 40
0.2000816148829512
  1
OUTER FOOT
 72
     1
 11
14.824670984254
 21
1.685667990169768
 31
0.0
  0
TEXT
  5
810
  8
FORM
 10
12.951659298779081
 20
0.9164571331179516
 30
0.0
 40
0.2000816148829512
  1
ASTROMECH DROID
  0
TEXT
  5
811
  8
FORM
 10
16.064313823179301
 20
0.9242355691914526
 30
0.0
 40
0.2000816148829512
  1
A
  0
TEXT
  5
812
  8
FORM
 10
13.297344515919219
 20
0.6829097977420595
 30
0.0
 40
0.0800326459531805
  1
FULL
  0
TEXT
  5
813
  8
FORM
 10
15.8616186361924
 20
0.68514995648178
 30
0.0
 40
0.0800326459531805
  1
1   1
  0
TEXT
  5
814
  8
FORM
 10
14.536090933578519
 20
0.6913324136673822
 30
0.0
 40
0.0800326459531805
  1
APRIL 2005
 72
     2
 11
15.22970719850608
 21
0.6913324136673822
 31
0.0
  0
TEXT
  5
815
  8
FORM
  6
CONTINUOUS
 10
13.96119445049923
 20
0.6905272006124755
 30
0.0
 40
0.069148206103548
  1
DRAWN:
  0
TEXT
  5
816
  8
FORM
  6
CONTINUOUS
 10
12.89085133944082
 20
0.6905920449428608
 30
0.0
 40
0.069148206103548
  1
SCALE:
  0
TEXT
  5
817
  8
FORM
  6
CONTINUOUS
 10
15.419759618214149
 20
0.689725495444975
 30
0.0
 40
0.069148206103548
  1
SHEET:   OF
  0
TEXT
  5
818
  8
FORM
  6
CONTINUOUS
 10
12.76457783364566
 20
1.239055808210245
 30
0.0
 40
0.069148206103548
  1
DRAWING NO.
  0
TEXT
  5
819
  8
FORM
  6
CONTINUOUS
 10
16.03751880559571
 20
1.239055808210235
 30
0.0
 40
0.069148206103548
  1
REV.
 72
     1
 11
16.139594728891421
 21
1.239055808210235
 31
0.0
  0
LINE
  5
81A
  8
FORM
  6
CONTINUOUS
 10
12.874006586966649
 20
2.639306981807088
 30
0.0
 11
16.19312047993693
 21
2.639306981807088
 31
0.0
  0
LINE
  5
81B
  8
FORM
  6
CONTINUOUS
 10
12.70113607170777
 20
0.8068795200630631
 30
0.0
 11
12.70113607170776
 21
2.4664364665482088
 31
0.0
  0
LINE
  5
81C
  8
FORM
  6
CONTINUOUS
 10
12.70113607170777
 20
1.342778117365558
 30
0.0
 11
16.365990995195801
 21
1.342778117365558
 31
0.0
  0
LINE
  5
81D
  8
FORM
  6
CONTINUOUS
 10
12.70113607170777
 20
0.8068795200630631
 30
0.0
 11
16.365990995195801
 21
0.8068795200630631
 31
0.0
  0
LINE
  5
81E
  8
FORM
  6
CONTINUOUS
 10
13.85306862165424
 20
0.8068795200630631
 30
0.0
 11
13.85306862165424
 21
0.6340090048041951
 31
0.0
  0
LINE
  5
81F
  8
FORM
  6
CONTINUOUS
 10
15.367898463636489
 20
0.8047514437619511
 30
0.0
 11
15.367898463636489
 21
0.6318809285030831
 31
0.0
  0
LINE
  5
820
  8
FORM
  6
CONTINUOUS
 10
15.90921047827166
 20
1.342778117365558
 30
0.0
 11
15.90921047827166
 21
0.8068795200630631
 31
0.0
  0
ARC
  5
821
  8
FORM
 62
     5
 10
13.04477686979633
 20
2.1186824869621002
 30
0.0
 40
0.0188534434600954
 50
152.18113099770559
 51
330.99098814993278
  0
ARC
  5
822
  8
FORM
 62
     5
 10
13.126386197321329
 20
2.2758441071602951
 30
0.0
 40
0.0165314742043987
 50
335.3231536346421
 51
152.67224926330371
  0
ARC
  5
823
  8
FORM
 62
     5
 10
14.38557424794738
 20
1.5001984443608301
 30
0.0
 40
1.495397362786747
 50
148.41494327216151
 51
155.19852313243231
  0
ARC
  5
824
  8
FORM
 62
     5
 10
14.67501980856775
 20
1.3980394513723831
 30
0.0
 40
1.763643078824644
 50
150.40875710206339
 51
156.20744757951141
  0
ARC
  5
825
  8
FORM
 62
     7
 10
12.991464018212749
 20
1.9602931191640911
 30
0.0
 40
0.0251922474207515
 50
161.128725237971
 51
346.89295927401378
  0
ARC
  5
826
  8
FORM
 62
     7
 10
20.35736643066603
 20
-1.2212613690260521
 30
0.0
 40
7.9988518948410858
 50
153.58307292081309
 51
156.60691138966209
  0
ARC
  5
827
  8
FORM
 62
     7
 10
19.202101625995549
 20
-0.8056564218828584
 30
0.0
 40
6.8151207749529688
 50
152.34095999775931
 51
152.9694116127464
  0
ARC
  5
828
  8
FORM
 62
     7
 10
19.278496529666569
 20
-1.0276374460023261
 30
0.0
 40
6.9859556428572267
 50
153.3711283527573
 51
154.60402195655351
  0
ARC
  5
829
  8
FORM
 62
     7
 10
13.354898158324501
 20
2.2547307595741688
 30
0.0
 40
0.1811261457171982
 50
23.468725928191009
 51
88.151617587883351
  0
ARC
  5
82A
  8
FORM
 62
     7
 10
13.358946198540719
 20
2.26640791111162
 30
0.0
 40
0.2137794625736775
 50
18.23262529566556
 51
154.63608874642691
  0
ARC
  5
82B
  8
FORM
 62
     7
 10
13.42299689775896
 20
2.288690536149864
 30
0.0
 40
0.1459771228480954
 50
336.99722732837893
 51
341.11190659806488
  0
ARC
  5
82C
  8
FORM
 62
     7
 10
13.431679155771841
 20
2.2951464111902951
 30
0.0
 40
0.0956104813627528
 50
333.24704424527528
 51
339.12675173356178
  0
ARC
  5
82D
  8
FORM
 62
     7
 10
13.522113095579609
 20
2.2499998156227639
 30
0.0
 40
0.0054797286924766
 50
157.37475902115841
 51
243.18317341424029
  0
ARC
  5
82E
  8
FORM
 62
     7
 10
13.55447854642312
 20
2.2324989823066552
 30
0.0
 40
0.0030114991132884
 50
246.74236679857631
 51
343.55073793579641
  0
ARC
  5
82F
  8
FORM
 62
     7
 10
13.649242515218971
 20
2.4842002985944158
 30
0.0
 40
0.271957738005823
 50
241.5396617947477
 51
249.33988332022491
  0
ARC
  5
830
  8
FORM
 62
     7
 10
13.4591325891842
 20
2.1957947984781958
 30
0.0
 40
0.0536868574507958
 50
210.28645373052609
 51
287.25915125833183
  0
ARC
  5
831
  8
FORM
 62
     7
 10
13.46374548958414
 20
2.1725786804623719
 30
0.0
 40
0.0302495516891243
 50
291.96730232828992
 51
10.20108836223371
  0
ARC
  5
832
  8
FORM
 62
     7
 10
13.224677527813469
 20
2.120840346952654
 30
0.0
 40
0.1940937119913158
 50
14.28109924276106
 51
24.947261539878259
  0
ARC
  5
833
  8
FORM
 62
     7
 10
13.33788450797635
 20
2.1796295366011149
 30
0.0
 40
0.0668841061965828
 50
20.18306378886756
 51
47.833846572520173
  0
ARC
  5
834
  8
FORM
 62
     7
 10
13.350388234890611
 20
2.1457512828194529
 30
0.0
 40
0.089519691428821
 50
68.784960310907394
 51
94.742087985452599
  0
ARC
  5
835
  8
FORM
 62
     7
 10
13.34941423143124
 20
2.1986562466492421
 30
0.0
 40
0.036872673284197
 50
100.0375073429591
 51
170.98475346238999
  0
ARC
  5
836
  8
FORM
 62
     7
 10
13.52284968491537
 20
2.1731683782493638
 30
0.0
 40
0.2121689656157903
 50
171.52589863719891
 51
197.49474109667489
  0
ARC
  5
837
  8
FORM
 62
     7
 10
13.379928076702869
 20
2.1761701253644778
 30
0.0
 40
0.1136025122223039
 50
0.8906501289532242
 51
49.113860192417171
  0
ARC
  5
838
  8
FORM
 62
     7
 10
13.355995808337299
 20
2.1970071573261332
 30
0.0
 40
0.0894129368447451
 50
99.869748807366761
 51
175.59516845025641
  0
ARC
  5
839
  8
FORM
 62
     7
 10
13.37211801256317
 20
2.1485244043259861
 30
0.0
 40
0.1401464035212747
 50
54.104282451028169
 51
102.9674010870567
  0
ARC
  5
83A
  8
FORM
 62
     7
 10
13.76765204168187
 20
2.2319085392940821
 30
0.0
 40
0.4636392383612588
 50
195.32307896217739
 51
209.29084315695809
  0
ARC
  5
83B
  8
FORM
 62
     7
 10
13.62176921197093
 20
2.1558888844703752
 30
0.0
 40
0.358151365974493
 50
172.3003020759547
 51
200.12627387409299
  0
ARC
  5
83C
  8
FORM
 62
     7
 10
13.87784050643449
 20
2.2558495792130411
 30
0.0
 40
0.6330076434458865
 50
200.64629086238159
 51
210.0464960904439
  0
ARC
  5
83D
  8
FORM
 62
     7
 10
13.00584297217528
 20
1.7651942952909601
 30
0.0
 40
0.4304787001033431
 50
28.431949107384369
 51
33.865461133002448
  0
ARC
  5
83E
  8
FORM
 62
     7
 10
13.35941745510968
 20
1.950567856294313
 30
0.0
 40
0.0317424459006294
 50
201.56446042640411
 51
38.094090168146302
  0
ARC
  5
83F
  8
FORM
 62
     5
 10
13.6383660618074
 20
2.2142819182737798
 30
0.0
 40
0.0176569498803825
 50
227.6202696593605
 51
57.412112921204063
  0
ARC
  5
840
  8
FORM
 62
     5
 10
13.430127955313081
 20
1.9426310314385331
 30
0.0
 40
0.359878468651919
 50
52.766851639305827
 51
65.063571515457895
  0
ARC
  5
841
  8
FORM
 62
     5
 10
13.262610214247269
 20
1.682901505973134
 30
0.0
 40
0.6332957988855307
 50
54.932512589538817
 51
74.152868438598915
  0
ARC
  5
842
  8
FORM
 62
     5
 10
13.271741224914511
 20
1.4946303420398119
 30
0.0
 40
0.8141464353032019
 50
78.393012355262385
 51
89.647961077025343
  0
ARC
  5
843
  8
FORM
 62
     5
 10
13.27537529177442
 20
2.3323914188280241
 30
0.0
 40
0.0236695866834528
 50
183.9979944211656
 51
273.313807745882
  0
ARC
  5
844
  8
FORM
 62
     5
 10
13.35526085930606
 20
2.3386443488409041
 30
0.0
 40
0.103798865281065
 50
145.6085916691928
 51
184.36670732083459
  0
ARC
  5
845
  8
FORM
 62
     5
 10
13.291396665717601
 20
2.3834953579566038
 30
0.0
 40
0.0257815152583025
 50
75.244714174009715
 51
147.69298501161609
  0
ARC
  5
846
  8
FORM
 62
     5
 10
12.984074694810539
 20
1.2040798567959881
 30
0.0
 40
1.244579080947225
 50
61.637242241525243
 51
75.392005557716701
  0
ARC
  5
847
  8
FORM
 62
     5
 10
13.551797825772001
 20
2.2783236912083922
 30
0.0
 40
0.0314839568879094
 50
342.69825742684009
 51
41.672783787677609
  0
ARC
  5
848
  8
FORM
 62
     7
 10
13.42299689775896
 20
2.288690536149864
 30
0.0
 40
0.1459771228480954
 50
5.6380312699922799
 51
17.791456368736839
  0
ARC
  5
849
  8
FORM
 62
     7
 10
13.489427342601051
 20
1.6007999024493449
 30
0.0
 40
0.046711457312993
 50
88.432533024773406
 51
186.62631613112151
  0
ARC
  5
84A
  8
FORM
 62
     7
 10
13.49675858432429
 20
1.6105396663507321
 30
0.0
 40
0.0558202426388025
 50
195.7266305128272
 51
285.3806868435185
  0
ARC
  5
84B
  8
FORM
 62
     7
 10
13.43093130756249
 20
2.1045278917162409
 30
0.0
 40
0.5537116491995469
 50
278.37329371359459
 51
293.15208507016871
  0
ARC
  5
84C
  8
FORM
 62
     7
 10
13.61670164249148
 20
1.756019172507965
 30
0.0
 40
0.1142007584316564
 50
257.51805604168283
 51
277.23103351305667
  0
ARC
  5
84D
  8
FORM
 62
     7
 10
13.62310455387666
 20
1.6622018832727781
 30
0.0
 40
0.0210435172471391
 50
292.26031345923337
 51
12.867379300523741
  0
ARC
  5
84E
  8
FORM
 62
     7
 10
13.607457700436219
 20
1.659184975616895
 30
0.0
 40
0.036973292087752
 50
12.02537552739555
 51
52.143631645159331
  0
ARC
  5
84F
  8
FORM
 62
     7
 10
14.395818732714821
 20
2.6172173020938132
 30
0.0
 40
1.2037424972589701
 50
219.60277928185971
 51
230.50020204080559
  0
ARC
  5
850
  8
FORM
 62
     7
 10
13.652733275951681
 20
1.9941623012201211
 30
0.0
 40
0.2341213247689704
 50
175.97523115435061
 51
218.04500009534149
  0
ARC
  5
851
  8
FORM
 62
     7
 10
13.55350038114107
 20
2.0176722641953471
 30
0.0
 40
0.1344973861223784
 50
149.96078860476399
 51
183.01641230856191
  0
ARC
  5
852
  8
FORM
 62
     7
 10
13.45954366164081
 20
2.07299932292015
 30
0.0
 40
0.0254789098120269
 50
69.764209445538683
 51
151.8988190455112
  0
ARC
  5
853
  8
FORM
 62
     7
 10
13.456537680486679
 20
2.07126747983376
 30
0.0
 40
0.0282311150502572
 50
357.6694469744499
 51
65.251102439515435
  0
ARC
  5
854
  8
FORM
 62
     7
 10
13.39001888680861
 20
2.0658085316276411
 30
0.0
 40
0.0948246006914946
 50
345.36193237678458
 51
2.6056939300727771
  0
ARC
  5
855
  8
FORM
 62
     7
 10
13.693893794908741
 20
1.9762560830929199
 30
0.0
 40
0.2220366937229542
 50
162.8186183088072
 51
185.35496664157321
  0
ARC
  5
856
  8
FORM
 62
     7
 10
13.669140261081489
 20
1.998529790474858
 30
0.0
 40
0.2009672573467367
 50
192.3534994193023
 51
222.30204766960321
  0
ARC
  5
857
  8
FORM
 62
     7
 10
14.361464293309529
 20
2.5566616734304008
 30
0.0
 40
1.0899567634416629
 50
219.50633019139829
 51
228.42762303996261
  0
ARC
  5
858
  8
FORM
 62
     7
 10
13.52059955021468
 20
1.580976331006358
 30
0.0
 40
0.1987901636968699
 50
32.971129457978812
 51
53.728419363024337
  0
ARC
  5
859
  8
FORM
 62
     7
 10
13.62839485959608
 20
1.6586520589902769
 30
0.0
 40
0.0664025030626794
 50
287.74749415951351
 51
27.352111896629431
  0
ARC
  5
85A
  8
FORM
 62
     7
 10
13.529048378339979
 20
1.226832417800729
 30
0.0
 40
0.4224053434052901
 50
81.426570944510203
 51
95.208118001959775
  0
ARC
  5
85B
  8
FORM
 62
     7
 10
13.34671426349607
 20
1.8852888198072
 30
0.0
 40
0.0188048406500912
 50
325.52447187114308
 51
75.340502228459783
  0
ARC
  5
85C
  8
FORM
 62
     7
 10
13.323545284373109
 20
1.9022998550377319
 30
0.0
 40
0.0475424544875808
 50
277.78730616127859
 51
324.42957968808531
  0
ARC
  5
85D
  8
FORM
 62
     7
 10
13.31513732931408
 20
1.9102064416359139
 30
0.0
 40
0.0569796604055946
 50
243.48581874200181
 51
285.1065744639306
  0
ARC
  5
85E
  8
FORM
 62
     7
 10
10.794918804532889
 20
-4.5297384066513864
 30
0.0
 40
6.9225926661188568
 50
68.327181839257534
 51
70.606105230637283
  0
ARC
  5
85F
  8
FORM
 62
     7
 10
13.088750851780709
 20
1.9797766195403339
 30
0.0
 40
0.0208571569832622
 50
76.445232091872299
 51
134.36352227876461
  0
ARC
  5
860
  8
FORM
 62
     7
 10
13.18148225369479
 20
1.8371029743830929
 30
0.0
 40
0.1906553367366958
 50
124.2547762008316
 51
135.012931962436
  0
ARC
  5
861
  8
FORM
 62
     7
 10
13.050217459593449
 20
1.9658216530568851
 30
0.0
 40
0.0070420521886436
 50
120.5491196217085
 51
251.48388650457539
  0
ARC
  5
862
  8
FORM
 62
     7
 10
12.102609582274271
 20
-0.6700542757339605
 30
0.0
 40
2.793995635460623
 50
64.85742894317822
 51
67.515132469299331
  0
ARC
  5
863
  8
FORM
 62
     7
 10
13.28316177556187
 20
1.818135413693315
 30
0.0
 40
0.0263792990891666
 50
329.18566117941782
 51
69.527151249863806
  0
ARC
  5
864
  8
FORM
 62
     7
 10
13.21395759371225
 20
1.7136090610551411
 30
0.0
 40
0.1511761169714233
 50
58.747973844557563
 51
81.106226592028094
  0
ARC
  5
865
  8
FORM
 62
     7
 10
13.19787604286341
 20
1.61339171735872
 30
0.0
 40
0.252675078733898
 50
81.016817915507374
 51
97.679603827268224
  0
ARC
  5
866
  8
FORM
 62
     7
 10
13.224469861585421
 20
1.689321576498183
 30
0.0
 40
0.1874269998684321
 50
121.5050128230592
 51
139.09578810607039
  0
ARC
  5
867
  8
FORM
 62
     7
 10
13.2753523157097
 20
1.814111852132068
 30
0.0
 40
0.0319085550486712
 50
277.70569210516868
 51
342.69880024124109
  0
ARC
  5
868
  8
FORM
 62
     7
 10
13.265559284055019
 20
1.850115817382906
 30
0.0
 40
0.0690728861222022
 50
250.08394506358289
 51
281.75453717228322
  0
ARC
  5
869
  8
FORM
 62
     7
 10
13.28812677519262
 20
1.858046081840345
 30
0.0
 40
0.0862278718518301
 50
221.18187885427241
 51
237.68378775985289
  0
ARC
  5
86A
  8
FORM
 62
     7
 10
13.186997271384399
 20
1.7580832213708599
 30
0.0
 40
0.0563721321250733
 50
50.003848755011681
 51
75.5416830098399
  0
ARC
  5
86B
  8
FORM
 62
     7
 10
13.18401561001931
 20
1.7785159196435201
 30
0.0
 40
0.0381762196213393
 50
63.4626603498468
 51
100.74200229027051
  0
ARC
  5
86C
  8
FORM
 62
     7
 10
13.17690006288543
 20
1.751426588373806
 30
0.0
 40
0.064596567019134
 50
89.999999999999588
 51
125.5974615489027
  0
ARC
  5
86D
  8
FORM
 62
     7
 10
13.943169967455511
 20
2.2123980959706131
 30
0.0
 40
0.8938000416812776
 50
197.51922498184919
 51
203.981481444731
  0
ARC
  5
86E
  8
FORM
 62
     7
 10
12.899912187086739
 20
1.927111329637615
 30
0.0
 40
0.271677852932892
 50
346.52409876011302
 51
356.71498770316703
  0
ARC
  5
86F
  8
FORM
 62
     7
 10
12.102609582274271
 20
-0.6700542757339605
 30
0.0
 40
2.793995635460623
 50
69.286600818944052
 51
70.22311760076802
  0
ARC
  5
870
  8
FORM
 62
     7
 10
13.04653800572463
 20
1.690640188859845
 30
0.0
 40
0.0819272792495905
 50
245.40259669902051
 51
275.40975098180542
  0
ARC
  5
871
  8
FORM
 62
     7
 10
13.33381080734401
 20
1.5428085262683771
 30
0.0
 40
0.3256233144805797
 50
126.68044463040199
 51
139.78708822539889
  0
ARC
  5
872
  8
FORM
 62
     7
 10
13.04500540091828
 20
1.9210927562931019
 30
0.0
 40
0.3121522132917629
 50
271.69929119420118
 51
283.39540842056908
  0
ARC
  5
873
  8
FORM
 62
     7
 10
13.628698166662589
 20
1.200712293569552
 30
0.0
 40
0.7749277189646824
 50
134.5410403491789
 51
138.91474429089911
  0
ARC
  5
874
  8
FORM
 62
     7
 10
13.05784989606523
 20
1.6989639079203509
 30
0.0
 40
0.0205005733572468
 50
201.8252958964795
 51
267.16449786715452
  0
ARC
  5
875
  8
FORM
 62
     7
 10
13.05343659707826
 20
1.697018971721679
 30
0.0
 40
0.0156813934122129
 50
124.254854327418
 51
201.22329273937871
  0
ARC
  5
876
  8
FORM
 62
     7
 10
13.10118501969685
 20
1.684260473122293
 30
0.0
 40
0.068748292490709
 50
283.5751770312794
 51
324.58969283639942
  0
ARC
  5
877
  8
FORM
 62
     7
 10
13.14039356000154
 20
1.6515176982048621
 30
0.0
 40
0.0182566773696035
 50
337.14160324238748
 51
47.56496670892831
  0
ARC
  5
878
  8
FORM
 62
     7
 10
13.112292844989749
 20
1.6113715022507791
 30
0.0
 40
0.0671482106790479
 50
52.990730681111657
 51
91.748895977531376
  0
ARC
  5
879
  8
FORM
 62
     7
 10
13.08353964605875
 20
1.8607804106031369
 30
0.0
 40
0.1842375159526987
 50
261.66603807207321
 51
278.33396192792679
  0
ARC
  5
87A
  8
FORM
 62
     7
 10
13.02822719754589
 20
1.655671440092024
 30
0.0
 40
0.0425616210629247
 50
192.64550774538381
 51
248.2223967256862
  0
ARC
  5
87B
  8
FORM
 62
     7
 10
13.017766749099581
 20
1.660493121495527
 30
0.0
 40
0.0341348066426429
 50
178.88427582775461
 51
204.46998391858139
  0
ARC
  5
87C
  8
FORM
 62
     7
 10
13.10220733902673
 20
1.651866477753827
 30
0.0
 40
0.1189324110130265
 50
140.54690015149379
 51
175.5193383191162
  0
ARC
  5
87D
  8
FORM
 62
     7
 10
14.273651263450629
 20
0.7191778149149535
 30
0.0
 40
1.6163120713229819
 50
137.4564398093305
 51
141.40545593619061
  0
POLYLINE
  5
87E
  8
FORM
 62
     1
 10
13.313597500211122
 20
2.3929838907158456
 30
0.0
 66
     1
 70
     8
  0
VERTEX
  8
FORM
  5
996
 10
13.3136
 20
2.39298
 30
0.000000
  70
    32
  0
VERTEX
  8
FORM
  5
997
 10
13.3129
 20
2.39325
 30
0.000000
  70
    32
  0
VERTEX
  8
FORM
  5
998
 10
13.3121
 20
2.39343
 30
0.000000
  70
    32
  0
VERTEX
  8
FORM
  5
999
 10
13.3113
 20
2.39353
 30
0.000000
  70
    32
  0
VERTEX
  8
FORM
  5
99A
 10
13.3105
 20
2.39354
 30
0.000000
  70
    32
  0
VERTEX
  8
FORM
  5
99B
 10
13.3097
 20
2.39347
 30
0.000000
  70
    32
  0
VERTEX
  8
FORM
  5
99C
 10
13.3088
 20
2.39331
 30
0.000000
  70
    32
  0
VERTEX
  8
FORM
  5
99D
 10
13.3079
 20
2.39307
 30
0.000000
  70
    32
  0
VERTEX
  8
FORM
  5
99E
 10
13.3070
 20
2.39274
 30
0.000000
  70
    32
  0
VERTEX
  8
FORM
  5
99F
 10
13.3061
 20
2.39234
 30
0.000000
  70
    32
  0
VERTEX
  8
FORM
  5
9A0
 10
13.3051
 20
2.39185
 30
0.000000
  70
    32
  0
VERTEX
  8
FORM
  5
9A1
 10
13.3041
 20
2.39128
 30
0.000000
  70
    32
  0
VERTEX
  8
FORM
  5
9A2
 10
13.3032
 20
2.39063
 30
0.000000
  70
    32
  0
VERTEX
  8
FORM
  5
9A3
 10
13.3022
 20
2.38991
 30
0.000000
  70
    32
  0
VERTEX
  8
FORM
  5
9A4
 10
13.3011
 20
2.38911
 30
0.000000
  70
    32
  0
VERTEX
  8
FORM
  5
9A5
 10
13.3001
 20
2.38823
 30
0.000000
  70
    32
  0
VERTEX
  8
FORM
  5
9A6
 10
13.2991
 20
2.38729
 30
0.000000
  70
    32
  0
VERTEX
  8
FORM
  5
9A7
 10
13.2981
 20
2.38627
 30
0.000000
  70
    32
  0
VERTEX
  8
FORM
  5
9A8
 10
13.2971
 20
2.38519
 30
0.000000
  70
    32
  0
VERTEX
  8
FORM
  5
9A9
 10
13.2961
 20
2.38404
 30
0.000000
  70
    32
  0
VERTEX
  8
FORM
  5
9AA
 10
13.2951
 20
2.38283
 30
0.000000
  70
    32
  0
VERTEX
  8
FORM
  5
9AB
 10
13.2941
 20
2.38157
 30
0.000000
  70
    32
  0
VERTEX
  8
FORM
  5
9AC
 10
13.2931
 20
2.38024
 30
0.000000
  70
    32
  0
VERTEX
  8
FORM
  5
9AD
 10
13.2921
 20
2.37887
 30
0.000000
  70
    32
  0
VERTEX
  8
FORM
  5
9AE
 10
13.2911
 20
2.37744
 30
0.000000
  70
    32
  0
VERTEX
  8
FORM
  5
9AF
 10
13.2902
 20
2.37597
 30
0.000000
  70
    32
  0
VERTEX
  8
FORM
  5
9B0
 10
13.2892
 20
2.37446
 30
0.000000
  70
    32
  0
VERTEX
  8
FORM
  5
9B1
 10
13.2883
 20
2.37291
 30
0.000000
  70
    32
  0
VERTEX
  8
FORM
  5
9B2
 10
13.2875
 20
2.37132
 30
0.000000
  70
    32
  0
VERTEX
  8
FORM
  5
9B3
 10
13.2866
 20
2.36971
 30
0.000000
  70
    32
  0
VERTEX
  8
FORM
  5
9B4
 10
13.2858
 20
2.36806
 30
0.000000
  70
    32
  0
VERTEX
  8
FORM
  5
9B5
 10
13.2850
 20
2.36640
 30
0.000000
  70
    32
  0
VERTEX
  8
FORM
  5
9B6
 10
13.2842
 20
2.36471
 30
0.000000
  70
    32
  0
VERTEX
  8
FORM
  5
9B7
 10
13.2835
 20
2.36301
 30
0.000000
  70
    32
  0
VERTEX
  8
FORM
  5
9B8
 10
13.2828
 20
2.36130
 30
0.000000
  70
    32
  0
VERTEX
  8
FORM
  5
9B9
 10
13.2822
 20
2.35958
 30
0.000000
  70
    32
  0
VERTEX
  8
FORM
  5
9BA
 10
13.2816
 20
2.35786
 30
0.000000
  70
    32
  0
VERTEX
  8
FORM
  5
9BB
 10
13.2810
 20
2.35614
 30
0.000000
  70
    32
  0
VERTEX
  8
FORM
  5
9BC
 10
13.2805
 20
2.35443
 30
0.000000
  70
    32
  0
VERTEX
  8
FORM
  5
9BD
 10
13.2800
 20
2.35272
 30
0.000000
  70
    32
  0
VERTEX
  8
FORM
  5
9BE
 10
13.2795
 20
2.35103
 30
0.000000
  70
    32
  0
VERTEX
  8
FORM
  5
9BF
 10
13.2791
 20
2.34936
 30
0.000000
  70
    32
  0
VERTEX
  8
FORM
  5
9C0
 10
13.2788
 20
2.34771
 30
0.000000
  70
    32
  0
VERTEX
  8
FORM
  5
9C1
 10
13.2785
 20
2.34608
 30
0.000000
  70
    32
  0
VERTEX
  8
FORM
  5
9C2
 10
13.2782
 20
2.34449
 30
0.000000
  70
    32
  0
VERTEX
  8
FORM
  5
9C3
 10
13.2780
 20
2.34293
 30
0.000000
  70
    32
  0
VERTEX
  8
FORM
  5
9C4
 10
13.2778
 20
2.34140
 30
0.000000
  70
    32
  0
VERTEX
  8
FORM
  5
9C5
 10
13.2777
 20
2.33992
 30
0.000000
  70
    32
  0
VERTEX
  8
FORM
  5
9C6
 10
13.2777
 20
2.33848
 30
0.000000
  70
    32
  0
VERTEX
  8
FORM
  5
9C7
 10
13.2777
 20
2.33709
 30
0.000000
  70
    32
  0
VERTEX
  8
FORM
  5
9C8
 10
13.2777
 20
2.33575
 30
0.000000
  70
    32
  0
VERTEX
  8
FORM
  5
9C9
 10
13.2778
 20
2.33447
 30
0.000000
  70
    32
  0
VERTEX
  8
FORM
  5
9CA
 10
13.2780
 20
2.33325
 30
0.000000
  70
    32
  0
VERTEX
  8
FORM
  5
9CB
 10
13.2781
 20
2.33208
 30
0.000000
  70
    32
  0
VERTEX
  8
FORM
  5
9CC
 10
13.2784
 20
2.33098
 30
0.000000
  70
    32
  0
VERTEX
  8
FORM
  5
9CD
 10
13.2787
 20
2.32994
 30
0.000000
  70
    32
  0
VERTEX
  8
FORM
  5
9CE
 10
13.2790
 20
2.32898
 30
0.000000
  70
    32
  0
VERTEX
  8
FORM
  5
9CF
 10
13.2794
 20
2.32808
 30
0.000000
  70
    32
  0
VERTEX
  8
FORM
  5
9D0
 10
13.2798
 20
2.32726
 30
0.000000
  70
    32
  0
VERTEX
  8
FORM
  5
9D1
 10
13.2803
 20
2.32651
 30
0.000000
  70
    32
  0
VERTEX
  8
FORM
  5
9D2
 10
13.2808
 20
2.32584
 30
0.000000
  70
    32
  0
VERTEX
  8
FORM
  5
9D3
 10
13.2814
 20
2.32525
 30
0.000000
  70
    32
  0
VERTEX
  8
FORM
  5
9D4
 10
13.2820
 20
2.32474
 30
0.000000
  70
    32
  0
VERTEX
  8
FORM
  5
9D5
 10
13.2826
 20
2.32431
 30
0.000000
  70
    32
  0
VERTEX
  8
FORM
  5
9D6
 10
13.2833
 20
2.32396
 30
0.000000
  70
    32
  0
VERTEX
  8
FORM
  5
9D7
 10
13.2840
 20
2.32370
 30
0.000000
  70
    32
  0
VERTEX
  8
FORM
  5
9D8
 10
13.2848
 20
2.32352
 30
0.000000
  70
    32
  0
VERTEX
  8
FORM
  5
9D9
 10
13.2855
 20
2.32342
 30
0.000000
  70
    32
  0
VERTEX
  8
FORM
  5
9DA
 10
13.2864
 20
2.32341
 30
0.000000
  70
    32
  0
VERTEX
  8
FORM
  5
9DB
 10
13.2872
 20
2.32348
 30
0.000000
  70
    32
  0
VERTEX
  8
FORM
  5
9DC
 10
13.2881
 20
2.32364
 30
0.000000
  70
    32
  0
VERTEX
  8
FORM
  5
9DD
 10
13.2890
 20
2.32388
 30
0.000000
  70
    32
  0
VERTEX
  8
FORM
  5
9DE
 10
13.2899
 20
2.32420
 30
0.000000
  70
    32
  0
VERTEX
  8
FORM
  5
9DF
 10
13.2908
 20
2.32461
 30
0.000000
  70
    32
  0
VERTEX
  8
FORM
  5
9E0
 10
13.2918
 20
2.32510
 30
0.000000
  70
    32
  0
VERTEX
  8
FORM
  5
9E1
 10
13.2927
 20
2.32567
 30
0.000000
  70
    32
  0
VERTEX
  8
FORM
  5
9E2
 10
13.2937
 20
2.32631
 30
0.000000
  70
    32
  0
VERTEX
  8
FORM
  5
9E3
 10
13.2947
 20
2.32704
 30
0.000000
  70
    32
  0
VERTEX
  8
FORM
  5
9E4
 10
13.2957
 20
2.32784
 30
0.000000
  70
    32
  0
VERTEX
  8
FORM
  5
9E5
 10
13.2968
 20
2.32872
 30
0.000000
  70
    32
  0
VERTEX
  8
FORM
  5
9E6
 10
13.2978
 20
2.32966
 30
0.000000
  70
    32
  0
VERTEX
  8
FORM
  5
9E7
 10
13.2988
 20
2.33068
 30
0.000000
  70
    32
  0
VERTEX
  8
FORM
  5
9E8
 10
13.2998
 20
2.33176
 30
0.000000
  70
    32
  0
VERTEX
  8
FORM
  5
9E9
 10
13.3008
 20
2.33291
 30
0.000000
  70
    32
  0
VERTEX
  8
FORM
  5
9EA
 10
13.3018
 20
2.33412
 30
0.000000
  70
    32
  0
VERTEX
  8
FORM
  5
9EB
 10
13.3028
 20
2.33538
 30
0.000000
  70
    32
  0
VERTEX
  8
FORM
  5
9EC
 10
13.3038
 20
2.33671
 30
0.000000
  70
    32
  0
VERTEX
  8
FORM
  5
9ED
 10
13.3048
 20
2.33808
 30
0.000000
  70
    32
  0
VERTEX
  8
FORM
  5
9EE
 10
13.3058
 20
2.33950
 30
0.000000
  70
    32
  0
VERTEX
  8
FORM
  5
9EF
 10
13.3067
 20
2.34098
 30
0.000000
  70
    32
  0
VERTEX
  8
FORM
  5
9F0
 10
13.3076
 20
2.34249
 30
0.000000
  70
    32
  0
VERTEX
  8
FORM
  5
9F1
 10
13.3085
 20
2.34404
 30
0.000000
  70
    32
  0
VERTEX
  8
FORM
  5
9F2
 10
13.3094
 20
2.34562
 30
0.000000
  70
    32
  0
VERTEX
  8
FORM
  5
9F3
 10
13.3103
 20
2.34724
 30
0.000000
  70
    32
  0
VERTEX
  8
FORM
  5
9F4
 10
13.3111
 20
2.34888
 30
0.000000
  70
    32
  0
VERTEX
  8
FORM
  5
9F5
 10
13.3119
 20
2.35055
 30
0.000000
  70
    32
  0
VERTEX
  8
FORM
  5
9F6
 10
13.3126
 20
2.35224
 30
0.000000
  70
    32
  0
VERTEX
  8
FORM
  5
9F7
 10
13.3134
 20
2.35394
 30
0.000000
  70
    32
  0
VERTEX
  8
FORM
  5
9F8
 10
13.3141
 20
2.35565
 30
0.000000
  70
    32
  0
VERTEX
  8
FORM
  5
9F9
 10
13.3147
 20
2.35737
 30
0.000000
  70
    32
  0
VERTEX
  8
FORM
  5
9FA
 10
13.3153
 20
2.35909
 30
0.000000
  70
    32
  0
VERTEX
  8
FORM
  5
9FB
 10
13.3159
 20
2.36081
 30
0.000000
  70
    32
  0
VERTEX
  8
FORM
  5
9FC
 10
13.3164
 20
2.36252
 30
0.000000
  70
    32
  0
VERTEX
  8
FORM
  5
9FD
 10
13.3169
 20
2.36423
 30
0.000000
  70
    32
  0
VERTEX
  8
FORM
  5
9FE
 10
13.3174
 20
2.36592
 30
0.000000
  70
    32
  0
VERTEX
  8
FORM
  5
9FF
 10
13.3178
 20
2.36759
 30
0.000000
  70
    32
  0
VERTEX
  8
FORM
  5
A00
 10
13.3181
 20
2.36924
 30
0.000000
  70
    32
  0
VERTEX
  8
FORM
  5
A01
 10
13.3184
 20
2.37087
 30
0.000000
  70
    32
  0
VERTEX
  8
FORM
  5
A02
 10
13.3187
 20
2.37246
 30
0.000000
  70
    32
  0
VERTEX
  8
FORM
  5
A03
 10
13.3189
 20
2.37402
 30
0.000000
  70
    32
  0
VERTEX
  8
FORM
  5
A04
 10
13.3190
 20
2.37555
 30
0.000000
  70
    32
  0
VERTEX
  8
FORM
  5
A05
 10
13.3191
 20
2.37703
 30
0.000000
  70
    32
  0
VERTEX
  8
FORM
  5
A06
 10
13.3192
 20
2.37847
 30
0.000000
  70
    32
  0
VERTEX
  8
FORM
  5
A07
 10
13.3192
 20
2.37986
 30
0.000000
  70
    32
  0
VERTEX
  8
FORM
  5
A08
 10
13.3192
 20
2.38119
 30
0.000000
  70
    32
  0
VERTEX
  8
FORM
  5
A09
 10
13.3191
 20
2.38248
 30
0.000000
  70
    32
  0
VERTEX
  8
FORM
  5
A0A
 10
13.3189
 20
2.38370
 30
0.000000
  70
    32
  0
VERTEX
  8
FORM
  5
A0B
 10
13.3187
 20
2.38487
 30
0.000000
  70
    32
  0
VERTEX
  8
FORM
  5
A0C
 10
13.3185
 20
2.38597
 30
0.000000
  70
    32
  0
VERTEX
  8
FORM
  5
A0D
 10
13.3182
 20
2.38700
 30
0.000000
  70
    32
  0
VERTEX
  8
FORM
  5
A0E
 10
13.3179
 20
2.38797
 30
0.000000
  70
    32
  0
VERTEX
  8
FORM
  5
A0F
 10
13.3175
 20
2.38887
 30
0.000000
  70
    32
  0
VERTEX
  8
FORM
  5
A10
 10
13.3171
 20
2.38969
 30
0.000000
  70
    32
  0
VERTEX
  8
FORM
  5
A11
 10
13.3166
 20
2.39043
 30
0.000000
  70
    32
  0
VERTEX
  8
FORM
  5
A12
 10
13.3161
 20
2.39110
 30
0.000000
  70
    32
  0
VERTEX
  8
FORM
  5
A13
 10
13.3155
 20
2.39170
 30
0.000000
  70
    32
  0
VERTEX
  8
FORM
  5
A14
 10
13.3149
 20
2.39221
 30
0.000000
  70
    32
  0
VERTEX
  8
FORM
  5
A15
 10
13.3143
 20
2.39264
 30
0.000000
  70
    32
  0
VERTEX
  8
FORM
  5
A16
 10
13.3136
 20
2.39298
 30
0.000000
  70
    32
  0
SEQEND
  8
FORM
  5
A17
  0
ARC
  5
87F
  8
FORM
 62
     7
 10
13.34744577181497
 20
2.2673859045416691
 30
0.0
 40
0.1689007929904549
 50
85.485448269952457
 51
155.5006785655419
  0
TEXT
  5
880
  8
FORM
 62
     7
 10
12.75316302876921
 20
1.384152449853342
 30
0.0
 40
0.0661677054431832
  1
R2-D2 BUILDERS CLUB
  0
ARC
  5
881
  8
FORM
 10
0.6340090048042164
 20
0.6340090048041951
 30
0.0
 40
0.1181566168628271
 50
180.0
 51
270.0
  0
ARC
  5
882
  8
FORM
 10
0.6340090048042164
 20
0.6340090048041951
 30
0.0
 40
0.2363132337256541
 50
180.0
 51
270.0
  0
ARC
  5
883
  8
FORM
 10
0.6340090048042164
 20
0.6340090048041951
 30
0.0
 40
0.2658523879413609
 50
180.0
 51
270.0
  0
ARC
  5
884
  8
FORM
 10
0.6340090048042164
 20
0.6340090048041951
 30
0.0
 40
0.3840090048041879
 50
180.0
 51
270.0
  0
ARC
  5
885
  8
FORM
 10
0.6340090048042164
 20
9.6159909951958085
 30
0.0
 40
0.3840090048041879
 50
90.0
 51
180.0
  0
ARC
  5
886
  8
FORM
 10
0.6340090048042164
 20
9.6159909951958085
 30
0.0
 40
0.2658523879413609
 50
90.0
 51
180.0
  0
ARC
  5
887
  8
FORM
 10
0.6340090048042164
 20
9.6159909951958085
 30
0.0
 40
0.2363132337256541
 50
90.0
 51
180.0
  0
ARC
  5
888
  8
FORM
 10
0.6340090048042164
 20
9.6159909951958085
 30
0.0
 40
0.1181566168628271
 50
90.0
 51
180.0
  0
ARC
  5
889
  8
FORM
 10
16.365990995195801
 20
9.6159909951958085
 30
0.0
 40
0.2363132337256541
 50
0.0
 51
90.0
  0
ARC
  5
88A
  8
FORM
 10
16.365990995195801
 20
9.6159909951958085
 30
0.0
 40
0.2658523879413609
 50
0.0
 51
90.0
  0
ARC
  5
88B
  8
FORM
 10
16.365990995195801
 20
9.6159909951958085
 30
0.0
 40
0.3840090048041879
 50
0.0
 51
90.0
  0
ARC
  5
88C
  8
FORM
 10
16.365990995195801
 20
9.6159909951958085
 30
0.0
 40
0.1181566168628271
 50
0.0
 51
90.0
  0
ARC
  5
88D
  8
FORM
 10
16.365990995195801
 20
0.6340090048041951
 30
0.0
 40
0.3840090048041879
 50
270.0
 51
0.0
  0
ARC
  5
88E
  8
FORM
 10
16.365990995195801
 20
0.6340090048041951
 30
0.0
 40
0.2658523879413609
 50
270.0
 51
0.0
  0
ARC
  5
88F
  8
FORM
 10
16.365990995195801
 20
0.6340090048041951
 30
0.0
 40
0.2363132337256541
 50
270.0
 51
0.0
  0
ARC
  5
890
  8
FORM
 10
16.365990995195801
 20
0.6340090048041951
 30
0.0
 40
0.1181566168628271
 50
270.0
 51
0.0
  0
LINE
  5
891
  8
FORM
 10
16.365990995195801
 20
0.3976957710785456
 30
0.0
 11
0.6340090048042164
 21
0.397695771078542
 31
0.0
  0
LINE
  5
892
  8
FORM
 10
16.365990995195801
 20
0.3681566168628407
 30
0.0
 11
0.6340090048042164
 21
0.3681566168628336
 31
0.0
  0
LINE
  5
893
  8
FORM
 10
16.365990995195801
 20
0.2500000000000071
 30
0.0
 11
0.6340090048042164
 21
0.25
 31
0.0
  0
LINE
  5
894
  8
FORM
 10
16.602304228921469
 20
0.6340090048041951
 30
0.0
 11
16.602304228921469
 21
9.6159909951958085
 31
0.0
  0
LINE
  5
895
  8
FORM
 10
16.631843383137159
 20
0.6340090048041951
 30
0.0
 11
16.631843383137159
 21
9.6159909951958085
 31
0.0
  0
LINE
  5
896
  8
FORM
 10
16.75
 20
0.6340090048041951
 30
0.0
 11
16.75
 21
9.6159909951958085
 31
0.0
  0
LINE
  5
897
  8
FORM
 10
16.365990995195801
 20
9.8523042289214651
 30
0.0
 11
0.6340090048042164
 21
9.8523042289214651
 31
0.0
  0
LINE
  5
898
  8
FORM
 10
16.365990995195801
 20
9.8818433831371681
 30
0.0
 11
0.6340090048042164
 21
9.8818433831371681
 31
0.0
  0
LINE
  5
899
  8
FORM
 10
16.365990995195801
 20
10.0
 30
0.0
 11
0.6340090048042164
 21
10.0
 31
0.0
  0
LINE
  5
89A
  8
FORM
 10
0.3976957710785598
 20
0.6340090048041951
 30
0.0
 11
0.3976957710785598
 21
9.6159909951958085
 31
0.0
  0
LINE
  5
89B
  8
FORM
 10
0.3681566168628585
 20
0.6340090048041951
 30
0.0
 11
0.3681566168628585
 21
9.6159909951958085
 31
0.0
  0
LINE
  5
89C
  8
FORM
 10
0.25
 20
0.6340090048041951
 30
0.0
 11
0.250000000000032
 21
9.6159909951958085
 31
0.0
  0
LINE
  5
89D
  8
FORM
  6
CONTINUOUS
 10
12.874006586966649
 20
0.6340090048041951
 30
0.0
 11
16.19312047993693
 21
0.6340090048041951
 31
0.0
  0
LINE
  5
89E
  8
FORM
  6
CONTINUOUS
 10
16.365990995195801
 20
2.4664364665482088
 30
0.0
 11
16.365990995195801
 21
0.8068795200630631
 31
0.0
  0
ARC
  5
89F
  8
FORM
  6
CONTINUOUS
 10
16.19312047993693
 20
0.8068795200630631
 30
0.0
 40
0.1728705152588689
 50
270.0
 51
0.0
  0
ARC
  5
8A0
  8
FORM
  6
CONTINUOUS
 10
16.19312047993693
 20
2.4664364665482088
 30
0.0
 40
0.1728705152588689
 50
359.99999999999989
 51
90.0
  0
ARC
  5
8A1
  8
FORM
  6
CONTINUOUS
 10
12.874006586966649
 20
0.8068795200630631
 30
0.0
 40
0.1728705152588689
 50
180.0
 51
270.0
  0
ARC
  5
8A2
  8
FORM
  6
CONTINUOUS
 10
12.874006586966649
 20
2.4664364665482088
 30
0.0
 40
0.1728705152588689
 50
90.0
 51
180.0
  0
LINE
  5
93C
  8
0
 10
0.6340090048042164
 20
0.6340090048041951
 30
0.0
 11
0.6340090048042164
 21
1.6340090048041951
 31
0.0
  0
LINE
  5
93D
  8
0
 10
0.6340090048042164
 20
0.7590090048041951
 30
0.0
 11
0.7590090048042164
 21
0.7590090048041951
 31
0.0
  0
LINE
  5
93E
  8
0
 10
0.6340090048042164
 20
0.884009004804195
 30
0.0
 11
0.8840090048042164
 21
0.884009004804195
 31
0.0
  0
LINE
  5
93F
  8
0
 10
0.6340090048042164
 20
1.0090090048041951
 30
0.0
 11
0.7590090048042164
 21
1.0090090048041951
 31
0.0
  0
LINE
  5
940
  8
0
 10
0.6340090048042164
 20
1.1340090048041951
 30
0.0
 11
1.009009004804216
 21
1.1340090048041951
 31
0.0
  0
LINE
  5
941
  8
0
 10
0.6340090048042164
 20
1.2590090048041951
 30
0.0
 11
0.7590090048042164
 21
1.2590090048041951
 31
0.0
  0
LINE
  5
942
  8
0
 10
0.6340090048042164
 20
1.3840090048041951
 30
0.0
 11
0.8840090048042164
 21
1.3840090048041951
 31
0.0
  0
LINE
  5
943
  8
0
 10
0.6340090048042164
 20
1.5090090048041951
 30
0.0
 11
0.7590090048042164
 21
1.5090090048041951
 31
0.0
  0
LINE
  5
944
  8
0
 10
0.6340090048042164
 20
1.6340090048041951
 30
0.0
 11
1.009009004804216
 21
1.6340090048041951
 31
0.0
  0
LINE
  5
945
  8
0
 10
0.6340090048042164
 20
0.6340090048041951
 30
0.0
 11
1.009009004804216
 21
0.6340090048041951
 31
0.0
  0
TEXT
  5
946
  8
0
 10
1.058277778430653
 20
1.1009684438037111
 30
0.0
 40
0.0625
  1
1/2"
  0
TEXT
  5
947
  8
0
 10
0.8082777784306536
 20
0.975968443803712
 30
0.0
 40
0.0625
  1
3/8"
  0
TEXT
  5
948
  8
0
 10
0.9332777784306536
 20
0.850968443803712
 30
0.0
 40
0.0625
  1
1/4"
  0
TEXT
  5
949
  8
0
 10
0.8082777784306536
 20
0.725968443803712
 30
0.0
 40
0.0625
  1
1/8"
  0
TEXT
  5
94A
  8
0
 10
0.8082777784306536
 20
1.2259684438037111
 30
0.0
 40
0.0625
  1
5/8"
  0
TEXT
  5
94B
  8
0
 10
0.9332777784306536
 20
1.3509684438037111
 30
0.0
 40
0.0625
  1
3/4"
  0
TEXT
  5
94C
  8
0
 10
0.8082777784306536
 20
1.4759684438037111
 30
0.0
 40
0.0625
  1
7/8"
  0
TEXT
  5
94D
  8
0
 10
1.058277778430653
 20
1.6009684438037111
 30
0.0
 40
0.0625
  1
1"
  0
ENDSEC
  0
EOF
